%TF.GenerationSoftware,KiCad,Pcbnew,10.0.6*%
%TF.CreationDate,2026-09-08T22:17:01+09:00*%
%TF.ProjectId,XIAO-ESP32-S3-SS,5849414f-2d45-4535-9033-322d53332d53,rev?*%
%TF.SameCoordinates,Original*%
%TF.FileFunction,Drillmap*%
%TF.FilePolarity,Positive*%
%FSLAX45Y45*%
G04 Gerber Fmt 4.5, Leading zero omitted, Abs format (unit mm)*
G04 Created by KiCad (PCBNEW 10.0.6) date 2026-09-08 22:17:01*
%MOMM*%
%LPD*%
G01*
G04 APERTURE LIST*
%ADD10C,0.050000*%
%ADD11C,0.200000*%
%ADD12C,0.100000*%
%ADD13C,0.270000*%
G04 APERTURE END LIST*
D10*
X12000000Y-7900000D02*
X15900000Y-7900000D01*
X15900000Y-13400000D01*
X12000000Y-13400000D01*
X12000000Y-7900000D01*
D11*
D12*
X12113500Y-12672300D02*
X12143500Y-12702300D01*
X12143500Y-12672300D02*
X12113500Y-12702300D01*
X12253200Y-12253200D02*
X12283200Y-12283200D01*
X12283200Y-12253200D02*
X12253200Y-12283200D01*
X12265900Y-11186400D02*
X12295900Y-11216400D01*
X12295900Y-11186400D02*
X12265900Y-11216400D01*
X12278600Y-10094200D02*
X12308600Y-10124200D01*
X12308600Y-10094200D02*
X12278600Y-10124200D01*
X12304000Y-9002000D02*
X12334000Y-9032000D01*
X12334000Y-9002000D02*
X12304000Y-9032000D01*
X12494500Y-13218400D02*
X12524500Y-13248400D01*
X12524500Y-13218400D02*
X12494500Y-13248400D01*
X13007910Y-8401640D02*
X13037910Y-8431640D01*
X13037910Y-8401640D02*
X13007910Y-8431640D01*
X13007910Y-8760920D02*
X13037910Y-8790920D01*
X13037910Y-8760920D02*
X13007910Y-8790920D01*
X13007910Y-9255600D02*
X13037910Y-9285600D01*
X13037910Y-9255600D02*
X13007910Y-9285600D01*
X13129500Y-10614900D02*
X13159500Y-10644900D01*
X13159500Y-10614900D02*
X13129500Y-10644900D01*
X13154900Y-11199100D02*
X13184900Y-11229100D01*
X13184900Y-11199100D02*
X13154900Y-11229100D01*
X13370800Y-8951200D02*
X13400800Y-8981200D01*
X13400800Y-8951200D02*
X13370800Y-8981200D01*
X13447000Y-12951700D02*
X13477000Y-12981700D01*
X13477000Y-12951700D02*
X13447000Y-12981700D01*
X13508010Y-10007700D02*
X13538010Y-10037700D01*
X13538010Y-10007700D02*
X13508010Y-10037700D01*
X13520500Y-9757870D02*
X13550500Y-9787870D01*
X13550500Y-9757870D02*
X13520500Y-9787870D01*
X13574000Y-8214600D02*
X13604000Y-8244600D01*
X13604000Y-8214600D02*
X13574000Y-8244600D01*
X14107400Y-11516600D02*
X14137400Y-11546600D01*
X14137400Y-11516600D02*
X14107400Y-11546600D01*
X14158200Y-12989800D02*
X14188200Y-13019800D01*
X14188200Y-12989800D02*
X14158200Y-13019800D01*
X14183600Y-12418300D02*
X14213600Y-12448300D01*
X14213600Y-12418300D02*
X14183600Y-12448300D01*
X14221700Y-11770600D02*
X14251700Y-11800600D01*
X14251700Y-11770600D02*
X14221700Y-11800600D01*
X14323300Y-13256500D02*
X14353300Y-13286500D01*
X14353300Y-13256500D02*
X14323300Y-13286500D01*
X14399500Y-12710400D02*
X14429500Y-12740400D01*
X14429500Y-12710400D02*
X14399500Y-12740400D01*
X14424900Y-8176500D02*
X14454900Y-8206500D01*
X14454900Y-8176500D02*
X14424900Y-8206500D01*
X14424900Y-8709900D02*
X14454900Y-8739900D01*
X14454900Y-8709900D02*
X14424900Y-8739900D01*
X14424900Y-11567400D02*
X14454900Y-11597400D01*
X14454900Y-11567400D02*
X14424900Y-11597400D01*
X14581160Y-9763370D02*
X14611160Y-9793370D01*
X14611160Y-9763370D02*
X14581160Y-9793370D01*
X14971000Y-13218400D02*
X15001000Y-13248400D01*
X15001000Y-13218400D02*
X14971000Y-13248400D01*
X14983700Y-12519900D02*
X15013700Y-12549900D01*
X15013700Y-12519900D02*
X14983700Y-12549900D01*
X15034500Y-10614900D02*
X15064500Y-10644900D01*
X15064500Y-10614900D02*
X15034500Y-10644900D01*
X15212300Y-12735800D02*
X15242300Y-12765800D01*
X15242300Y-12735800D02*
X15212300Y-12765800D01*
X15263100Y-11935700D02*
X15293100Y-11965700D01*
X15293100Y-11935700D02*
X15263100Y-11965700D01*
X15288500Y-7998700D02*
X15318500Y-8028700D01*
X15318500Y-7998700D02*
X15288500Y-8028700D01*
X15326600Y-10614900D02*
X15356600Y-10644900D01*
X15356600Y-10614900D02*
X15326600Y-10644900D01*
X15326600Y-13167600D02*
X15356600Y-13197600D01*
X15356600Y-13167600D02*
X15326600Y-13197600D01*
X15339300Y-10348200D02*
X15369300Y-10378200D01*
X15369300Y-10348200D02*
X15339300Y-10378200D01*
X15364700Y-12342100D02*
X15394700Y-12372100D01*
X15394700Y-12342100D02*
X15364700Y-12372100D01*
X15390100Y-11286510D02*
X15420100Y-11316510D01*
X15420100Y-11286510D02*
X15390100Y-11316510D01*
X15694900Y-13256500D02*
X15724900Y-13286500D01*
X15724900Y-13256500D02*
X15694900Y-13286500D01*
X15771100Y-8570200D02*
X15801100Y-8600200D01*
X15801100Y-8570200D02*
X15771100Y-8600200D01*
X13019400Y-13210000D02*
G75*
G02*
X12939400Y-13210000I-40000J0D01*
G01*
X12939400Y-13210000D02*
G75*
G02*
X13019400Y-13210000I40000J0D01*
G01*
X13182000Y-10185400D02*
G75*
G02*
X13102000Y-10185400I-40000J0D01*
G01*
X13102000Y-10185400D02*
G75*
G02*
X13182000Y-10185400I40000J0D01*
G01*
X13182000Y-10947400D02*
G75*
G02*
X13102000Y-10947400I-40000J0D01*
G01*
X13102000Y-10947400D02*
G75*
G02*
X13182000Y-10947400I40000J0D01*
G01*
X13436000Y-10185400D02*
G75*
G02*
X13356000Y-10185400I-40000J0D01*
G01*
X13356000Y-10185400D02*
G75*
G02*
X13436000Y-10185400I40000J0D01*
G01*
X13436000Y-10947400D02*
G75*
G02*
X13356000Y-10947400I-40000J0D01*
G01*
X13356000Y-10947400D02*
G75*
G02*
X13436000Y-10947400I40000J0D01*
G01*
X13690000Y-10185400D02*
G75*
G02*
X13610000Y-10185400I-40000J0D01*
G01*
X13610000Y-10185400D02*
G75*
G02*
X13690000Y-10185400I40000J0D01*
G01*
X13690000Y-10947400D02*
G75*
G02*
X13610000Y-10947400I-40000J0D01*
G01*
X13610000Y-10947400D02*
G75*
G02*
X13690000Y-10947400I40000J0D01*
G01*
X13944000Y-10185400D02*
G75*
G02*
X13864000Y-10185400I-40000J0D01*
G01*
X13864000Y-10185400D02*
G75*
G02*
X13944000Y-10185400I40000J0D01*
G01*
X13944000Y-10947400D02*
G75*
G02*
X13864000Y-10947400I-40000J0D01*
G01*
X13864000Y-10947400D02*
G75*
G02*
X13944000Y-10947400I40000J0D01*
G01*
X14035400Y-13210000D02*
G75*
G02*
X13955400Y-13210000I-40000J0D01*
G01*
X13955400Y-13210000D02*
G75*
G02*
X14035400Y-13210000I40000J0D01*
G01*
X14198000Y-10185400D02*
G75*
G02*
X14118000Y-10185400I-40000J0D01*
G01*
X14118000Y-10185400D02*
G75*
G02*
X14198000Y-10185400I40000J0D01*
G01*
X14198000Y-10947400D02*
G75*
G02*
X14118000Y-10947400I-40000J0D01*
G01*
X14118000Y-10947400D02*
G75*
G02*
X14198000Y-10947400I40000J0D01*
G01*
X14198200Y-11252200D02*
G75*
G02*
X14118200Y-11252200I-40000J0D01*
G01*
X14118200Y-11252200D02*
G75*
G02*
X14198200Y-11252200I40000J0D01*
G01*
X14198200Y-12014200D02*
G75*
G02*
X14118200Y-12014200I-40000J0D01*
G01*
X14118200Y-12014200D02*
G75*
G02*
X14198200Y-12014200I40000J0D01*
G01*
X14452000Y-10185400D02*
G75*
G02*
X14372000Y-10185400I-40000J0D01*
G01*
X14372000Y-10185400D02*
G75*
G02*
X14452000Y-10185400I40000J0D01*
G01*
X14452000Y-10947400D02*
G75*
G02*
X14372000Y-10947400I-40000J0D01*
G01*
X14372000Y-10947400D02*
G75*
G02*
X14452000Y-10947400I40000J0D01*
G01*
X14452200Y-11252200D02*
G75*
G02*
X14372200Y-11252200I-40000J0D01*
G01*
X14372200Y-11252200D02*
G75*
G02*
X14452200Y-11252200I40000J0D01*
G01*
X14452200Y-12014200D02*
G75*
G02*
X14372200Y-12014200I-40000J0D01*
G01*
X14372200Y-12014200D02*
G75*
G02*
X14452200Y-12014200I40000J0D01*
G01*
X14706000Y-10185400D02*
G75*
G02*
X14626000Y-10185400I-40000J0D01*
G01*
X14626000Y-10185400D02*
G75*
G02*
X14706000Y-10185400I40000J0D01*
G01*
X14706000Y-10947400D02*
G75*
G02*
X14626000Y-10947400I-40000J0D01*
G01*
X14626000Y-10947400D02*
G75*
G02*
X14706000Y-10947400I40000J0D01*
G01*
X14706200Y-11252200D02*
G75*
G02*
X14626200Y-11252200I-40000J0D01*
G01*
X14626200Y-11252200D02*
G75*
G02*
X14706200Y-11252200I40000J0D01*
G01*
X14706200Y-12014200D02*
G75*
G02*
X14626200Y-12014200I-40000J0D01*
G01*
X14626200Y-12014200D02*
G75*
G02*
X14706200Y-12014200I40000J0D01*
G01*
X14960000Y-10185400D02*
G75*
G02*
X14880000Y-10185400I-40000J0D01*
G01*
X14880000Y-10185400D02*
G75*
G02*
X14960000Y-10185400I40000J0D01*
G01*
X14960000Y-10947400D02*
G75*
G02*
X14880000Y-10947400I-40000J0D01*
G01*
X14880000Y-10947400D02*
G75*
G02*
X14960000Y-10947400I40000J0D01*
G01*
X14960200Y-11252200D02*
G75*
G02*
X14880200Y-11252200I-40000J0D01*
G01*
X14880200Y-11252200D02*
G75*
G02*
X14960200Y-11252200I40000J0D01*
G01*
X14960200Y-12014200D02*
G75*
G02*
X14880200Y-12014200I-40000J0D01*
G01*
X14880200Y-12014200D02*
G75*
G02*
X14960200Y-12014200I40000J0D01*
G01*
X12329400Y-8169400D02*
X12329400Y-8264400D01*
X12281900Y-8216900D02*
X12376900Y-8216900D01*
X12329400Y-8419400D02*
X12329400Y-8514400D01*
X12281900Y-8466900D02*
X12376900Y-8466900D01*
X12329400Y-8669400D02*
X12329400Y-8764400D01*
X12281900Y-8716900D02*
X12376900Y-8716900D01*
X12329400Y-9266300D02*
X12329400Y-9361300D01*
X12281900Y-9313800D02*
X12376900Y-9313800D01*
X12329400Y-9516300D02*
X12329400Y-9611300D01*
X12281900Y-9563800D02*
X12376900Y-9563800D01*
X12329400Y-9766300D02*
X12329400Y-9861300D01*
X12281900Y-9813800D02*
X12376900Y-9813800D01*
X12329400Y-10358500D02*
X12329400Y-10453500D01*
X12281900Y-10406000D02*
X12376900Y-10406000D01*
X12329400Y-10608500D02*
X12329400Y-10703500D01*
X12281900Y-10656000D02*
X12376900Y-10656000D01*
X12329400Y-10858500D02*
X12329400Y-10953500D01*
X12281900Y-10906000D02*
X12376900Y-10906000D01*
X12329400Y-11450700D02*
X12329400Y-11545700D01*
X12281900Y-11498200D02*
X12376900Y-11498200D01*
X12329400Y-11700700D02*
X12329400Y-11795700D01*
X12281900Y-11748200D02*
X12376900Y-11748200D01*
X12329400Y-11950700D02*
X12329400Y-12045700D01*
X12281900Y-11998200D02*
X12376900Y-11998200D01*
X12329400Y-12542900D02*
X12329400Y-12637900D01*
X12281900Y-12590400D02*
X12376900Y-12590400D01*
X12329400Y-12792900D02*
X12329400Y-12887900D01*
X12281900Y-12840400D02*
X12376900Y-12840400D01*
X12329400Y-13042900D02*
X12329400Y-13137900D01*
X12281900Y-13090400D02*
X12376900Y-13090400D01*
X15580600Y-8164700D02*
X15580600Y-8259700D01*
X15533100Y-8212200D02*
X15628100Y-8212200D01*
X15580600Y-8414700D02*
X15580600Y-8509700D01*
X15533100Y-8462200D02*
X15628100Y-8462200D01*
X15580600Y-8664700D02*
X15580600Y-8759700D01*
X15533100Y-8712200D02*
X15628100Y-8712200D01*
X15580600Y-8914700D02*
X15580600Y-9009700D01*
X15533100Y-8962200D02*
X15628100Y-8962200D01*
X15580600Y-9505440D02*
X15580600Y-9600440D01*
X15533100Y-9552940D02*
X15628100Y-9552940D01*
X15580600Y-9755440D02*
X15580600Y-9850440D01*
X15533100Y-9802940D02*
X15628100Y-9802940D01*
X15580600Y-10005440D02*
X15580600Y-10100440D01*
X15533100Y-10052940D02*
X15628100Y-10052940D01*
X15580600Y-10255440D02*
X15580600Y-10350440D01*
X15533100Y-10302940D02*
X15628100Y-10302940D01*
X14498356Y-12405156D02*
X14498356Y-12334444D01*
X14427644Y-12334444D01*
X14427644Y-12405156D01*
X14498356Y-12405156D01*
X14542756Y-13116356D02*
X14542756Y-13045644D01*
X14472044Y-13045644D01*
X14472044Y-13116356D01*
X14542756Y-13116356D01*
X14752356Y-12405156D02*
X14752356Y-12334444D01*
X14681644Y-12334444D01*
X14681644Y-12405156D01*
X14752356Y-12405156D01*
X14792756Y-13116356D02*
X14792756Y-13045644D01*
X14722044Y-13045644D01*
X14722044Y-13116356D01*
X14792756Y-13116356D01*
X15605556Y-11058956D02*
X15605556Y-10988244D01*
X15534844Y-10988244D01*
X15534844Y-11058956D01*
X15605556Y-11058956D01*
X15605556Y-11308956D02*
X15605556Y-11238244D01*
X15534844Y-11238244D01*
X15534844Y-11308956D01*
X15605556Y-11308956D01*
X15605556Y-11947956D02*
X15605556Y-11877244D01*
X15534844Y-11877244D01*
X15534844Y-11947956D01*
X15605556Y-11947956D01*
X15605556Y-12197956D02*
X15605556Y-12127244D01*
X15534844Y-12127244D01*
X15534844Y-12197956D01*
X15605556Y-12197956D01*
X15605556Y-12836956D02*
X15605556Y-12766244D01*
X15534844Y-12766244D01*
X15534844Y-12836956D01*
X15605556Y-12836956D01*
X15605556Y-13086956D02*
X15605556Y-13016244D01*
X15534844Y-13016244D01*
X15534844Y-13086956D01*
X15605556Y-13086956D01*
D13*
X13175600Y-11793600D02*
X13310600Y-11658600D01*
X13175600Y-11523600D01*
X13040600Y-11658600D01*
X13175600Y-11793600D01*
X13241400Y-12835000D02*
X13376400Y-12700000D01*
X13241400Y-12565000D01*
X13106400Y-12700000D01*
X13241400Y-12835000D01*
X13675600Y-11793600D02*
X13810600Y-11658600D01*
X13675600Y-11523600D01*
X13540600Y-11658600D01*
X13675600Y-11793600D01*
X13741400Y-12835000D02*
X13876400Y-12700000D01*
X13741400Y-12565000D01*
X13606400Y-12700000D01*
X13741400Y-12835000D01*
D11*
X12258277Y-13713984D02*
X12258277Y-13513984D01*
X12258277Y-13513984D02*
X12305896Y-13513984D01*
X12305896Y-13513984D02*
X12334467Y-13523508D01*
X12334467Y-13523508D02*
X12353515Y-13542555D01*
X12353515Y-13542555D02*
X12363039Y-13561603D01*
X12363039Y-13561603D02*
X12372562Y-13599698D01*
X12372562Y-13599698D02*
X12372562Y-13628269D01*
X12372562Y-13628269D02*
X12363039Y-13666365D01*
X12363039Y-13666365D02*
X12353515Y-13685412D01*
X12353515Y-13685412D02*
X12334467Y-13704460D01*
X12334467Y-13704460D02*
X12305896Y-13713984D01*
X12305896Y-13713984D02*
X12258277Y-13713984D01*
X12458277Y-13713984D02*
X12458277Y-13580650D01*
X12458277Y-13618746D02*
X12467801Y-13599698D01*
X12467801Y-13599698D02*
X12477324Y-13590174D01*
X12477324Y-13590174D02*
X12496372Y-13580650D01*
X12496372Y-13580650D02*
X12515420Y-13580650D01*
X12582086Y-13713984D02*
X12582086Y-13580650D01*
X12582086Y-13513984D02*
X12572562Y-13523508D01*
X12572562Y-13523508D02*
X12582086Y-13533031D01*
X12582086Y-13533031D02*
X12591610Y-13523508D01*
X12591610Y-13523508D02*
X12582086Y-13513984D01*
X12582086Y-13513984D02*
X12582086Y-13533031D01*
X12705896Y-13713984D02*
X12686848Y-13704460D01*
X12686848Y-13704460D02*
X12677324Y-13685412D01*
X12677324Y-13685412D02*
X12677324Y-13513984D01*
X12810658Y-13713984D02*
X12791610Y-13704460D01*
X12791610Y-13704460D02*
X12782086Y-13685412D01*
X12782086Y-13685412D02*
X12782086Y-13513984D01*
X13039229Y-13713984D02*
X13039229Y-13513984D01*
X13039229Y-13513984D02*
X13105896Y-13656841D01*
X13105896Y-13656841D02*
X13172562Y-13513984D01*
X13172562Y-13513984D02*
X13172562Y-13713984D01*
X13353515Y-13713984D02*
X13353515Y-13609222D01*
X13353515Y-13609222D02*
X13343991Y-13590174D01*
X13343991Y-13590174D02*
X13324943Y-13580650D01*
X13324943Y-13580650D02*
X13286848Y-13580650D01*
X13286848Y-13580650D02*
X13267801Y-13590174D01*
X13353515Y-13704460D02*
X13334467Y-13713984D01*
X13334467Y-13713984D02*
X13286848Y-13713984D01*
X13286848Y-13713984D02*
X13267801Y-13704460D01*
X13267801Y-13704460D02*
X13258277Y-13685412D01*
X13258277Y-13685412D02*
X13258277Y-13666365D01*
X13258277Y-13666365D02*
X13267801Y-13647317D01*
X13267801Y-13647317D02*
X13286848Y-13637793D01*
X13286848Y-13637793D02*
X13334467Y-13637793D01*
X13334467Y-13637793D02*
X13353515Y-13628269D01*
X13448753Y-13580650D02*
X13448753Y-13780650D01*
X13448753Y-13590174D02*
X13467801Y-13580650D01*
X13467801Y-13580650D02*
X13505896Y-13580650D01*
X13505896Y-13580650D02*
X13524943Y-13590174D01*
X13524943Y-13590174D02*
X13534467Y-13599698D01*
X13534467Y-13599698D02*
X13543991Y-13618746D01*
X13543991Y-13618746D02*
X13543991Y-13675888D01*
X13543991Y-13675888D02*
X13534467Y-13694936D01*
X13534467Y-13694936D02*
X13524943Y-13704460D01*
X13524943Y-13704460D02*
X13505896Y-13713984D01*
X13505896Y-13713984D02*
X13467801Y-13713984D01*
X13467801Y-13713984D02*
X13448753Y-13704460D01*
X13629705Y-13694936D02*
X13639229Y-13704460D01*
X13639229Y-13704460D02*
X13629705Y-13713984D01*
X13629705Y-13713984D02*
X13620182Y-13704460D01*
X13620182Y-13704460D02*
X13629705Y-13694936D01*
X13629705Y-13694936D02*
X13629705Y-13713984D01*
X13629705Y-13590174D02*
X13639229Y-13599698D01*
X13639229Y-13599698D02*
X13629705Y-13609222D01*
X13629705Y-13609222D02*
X13620182Y-13599698D01*
X13620182Y-13599698D02*
X13629705Y-13590174D01*
X13629705Y-13590174D02*
X13629705Y-13609222D01*
D12*
X11967500Y-14027500D02*
X11997500Y-14057500D01*
X11997500Y-14027500D02*
X11967500Y-14057500D01*
D11*
X12296372Y-13933984D02*
X12315420Y-13933984D01*
X12315420Y-13933984D02*
X12334467Y-13943508D01*
X12334467Y-13943508D02*
X12343991Y-13953031D01*
X12343991Y-13953031D02*
X12353515Y-13972079D01*
X12353515Y-13972079D02*
X12363039Y-14010174D01*
X12363039Y-14010174D02*
X12363039Y-14057793D01*
X12363039Y-14057793D02*
X12353515Y-14095888D01*
X12353515Y-14095888D02*
X12343991Y-14114936D01*
X12343991Y-14114936D02*
X12334467Y-14124460D01*
X12334467Y-14124460D02*
X12315420Y-14133984D01*
X12315420Y-14133984D02*
X12296372Y-14133984D01*
X12296372Y-14133984D02*
X12277324Y-14124460D01*
X12277324Y-14124460D02*
X12267801Y-14114936D01*
X12267801Y-14114936D02*
X12258277Y-14095888D01*
X12258277Y-14095888D02*
X12248753Y-14057793D01*
X12248753Y-14057793D02*
X12248753Y-14010174D01*
X12248753Y-14010174D02*
X12258277Y-13972079D01*
X12258277Y-13972079D02*
X12267801Y-13953031D01*
X12267801Y-13953031D02*
X12277324Y-13943508D01*
X12277324Y-13943508D02*
X12296372Y-13933984D01*
X12448753Y-14114936D02*
X12458277Y-14124460D01*
X12458277Y-14124460D02*
X12448753Y-14133984D01*
X12448753Y-14133984D02*
X12439229Y-14124460D01*
X12439229Y-14124460D02*
X12448753Y-14114936D01*
X12448753Y-14114936D02*
X12448753Y-14133984D01*
X12524943Y-13933984D02*
X12648753Y-13933984D01*
X12648753Y-13933984D02*
X12582086Y-14010174D01*
X12582086Y-14010174D02*
X12610658Y-14010174D01*
X12610658Y-14010174D02*
X12629705Y-14019698D01*
X12629705Y-14019698D02*
X12639229Y-14029222D01*
X12639229Y-14029222D02*
X12648753Y-14048269D01*
X12648753Y-14048269D02*
X12648753Y-14095888D01*
X12648753Y-14095888D02*
X12639229Y-14114936D01*
X12639229Y-14114936D02*
X12629705Y-14124460D01*
X12629705Y-14124460D02*
X12610658Y-14133984D01*
X12610658Y-14133984D02*
X12553515Y-14133984D01*
X12553515Y-14133984D02*
X12534467Y-14124460D01*
X12534467Y-14124460D02*
X12524943Y-14114936D01*
X12772562Y-13933984D02*
X12791610Y-13933984D01*
X12791610Y-13933984D02*
X12810658Y-13943508D01*
X12810658Y-13943508D02*
X12820182Y-13953031D01*
X12820182Y-13953031D02*
X12829705Y-13972079D01*
X12829705Y-13972079D02*
X12839229Y-14010174D01*
X12839229Y-14010174D02*
X12839229Y-14057793D01*
X12839229Y-14057793D02*
X12829705Y-14095888D01*
X12829705Y-14095888D02*
X12820182Y-14114936D01*
X12820182Y-14114936D02*
X12810658Y-14124460D01*
X12810658Y-14124460D02*
X12791610Y-14133984D01*
X12791610Y-14133984D02*
X12772562Y-14133984D01*
X12772562Y-14133984D02*
X12753515Y-14124460D01*
X12753515Y-14124460D02*
X12743991Y-14114936D01*
X12743991Y-14114936D02*
X12734467Y-14095888D01*
X12734467Y-14095888D02*
X12724943Y-14057793D01*
X12724943Y-14057793D02*
X12724943Y-14010174D01*
X12724943Y-14010174D02*
X12734467Y-13972079D01*
X12734467Y-13972079D02*
X12743991Y-13953031D01*
X12743991Y-13953031D02*
X12753515Y-13943508D01*
X12753515Y-13943508D02*
X12772562Y-13933984D01*
X12963039Y-13933984D02*
X12982086Y-13933984D01*
X12982086Y-13933984D02*
X13001134Y-13943508D01*
X13001134Y-13943508D02*
X13010658Y-13953031D01*
X13010658Y-13953031D02*
X13020182Y-13972079D01*
X13020182Y-13972079D02*
X13029705Y-14010174D01*
X13029705Y-14010174D02*
X13029705Y-14057793D01*
X13029705Y-14057793D02*
X13020182Y-14095888D01*
X13020182Y-14095888D02*
X13010658Y-14114936D01*
X13010658Y-14114936D02*
X13001134Y-14124460D01*
X13001134Y-14124460D02*
X12982086Y-14133984D01*
X12982086Y-14133984D02*
X12963039Y-14133984D01*
X12963039Y-14133984D02*
X12943991Y-14124460D01*
X12943991Y-14124460D02*
X12934467Y-14114936D01*
X12934467Y-14114936D02*
X12924943Y-14095888D01*
X12924943Y-14095888D02*
X12915420Y-14057793D01*
X12915420Y-14057793D02*
X12915420Y-14010174D01*
X12915420Y-14010174D02*
X12924943Y-13972079D01*
X12924943Y-13972079D02*
X12934467Y-13953031D01*
X12934467Y-13953031D02*
X12943991Y-13943508D01*
X12943991Y-13943508D02*
X12963039Y-13933984D01*
X13115420Y-14133984D02*
X13115420Y-14000650D01*
X13115420Y-14019698D02*
X13124943Y-14010174D01*
X13124943Y-14010174D02*
X13143991Y-14000650D01*
X13143991Y-14000650D02*
X13172563Y-14000650D01*
X13172563Y-14000650D02*
X13191610Y-14010174D01*
X13191610Y-14010174D02*
X13201134Y-14029222D01*
X13201134Y-14029222D02*
X13201134Y-14133984D01*
X13201134Y-14029222D02*
X13210658Y-14010174D01*
X13210658Y-14010174D02*
X13229705Y-14000650D01*
X13229705Y-14000650D02*
X13258277Y-14000650D01*
X13258277Y-14000650D02*
X13277324Y-14010174D01*
X13277324Y-14010174D02*
X13286848Y-14029222D01*
X13286848Y-14029222D02*
X13286848Y-14133984D01*
X13382086Y-14133984D02*
X13382086Y-14000650D01*
X13382086Y-14019698D02*
X13391610Y-14010174D01*
X13391610Y-14010174D02*
X13410658Y-14000650D01*
X13410658Y-14000650D02*
X13439229Y-14000650D01*
X13439229Y-14000650D02*
X13458277Y-14010174D01*
X13458277Y-14010174D02*
X13467801Y-14029222D01*
X13467801Y-14029222D02*
X13467801Y-14133984D01*
X13467801Y-14029222D02*
X13477324Y-14010174D01*
X13477324Y-14010174D02*
X13496372Y-14000650D01*
X13496372Y-14000650D02*
X13524943Y-14000650D01*
X13524943Y-14000650D02*
X13543991Y-14010174D01*
X13543991Y-14010174D02*
X13553515Y-14029222D01*
X13553515Y-14029222D02*
X13553515Y-14133984D01*
X13943991Y-13924460D02*
X13772563Y-14181603D01*
X14201134Y-13933984D02*
X14220182Y-13933984D01*
X14220182Y-13933984D02*
X14239229Y-13943508D01*
X14239229Y-13943508D02*
X14248753Y-13953031D01*
X14248753Y-13953031D02*
X14258277Y-13972079D01*
X14258277Y-13972079D02*
X14267801Y-14010174D01*
X14267801Y-14010174D02*
X14267801Y-14057793D01*
X14267801Y-14057793D02*
X14258277Y-14095888D01*
X14258277Y-14095888D02*
X14248753Y-14114936D01*
X14248753Y-14114936D02*
X14239229Y-14124460D01*
X14239229Y-14124460D02*
X14220182Y-14133984D01*
X14220182Y-14133984D02*
X14201134Y-14133984D01*
X14201134Y-14133984D02*
X14182086Y-14124460D01*
X14182086Y-14124460D02*
X14172563Y-14114936D01*
X14172563Y-14114936D02*
X14163039Y-14095888D01*
X14163039Y-14095888D02*
X14153515Y-14057793D01*
X14153515Y-14057793D02*
X14153515Y-14010174D01*
X14153515Y-14010174D02*
X14163039Y-13972079D01*
X14163039Y-13972079D02*
X14172563Y-13953031D01*
X14172563Y-13953031D02*
X14182086Y-13943508D01*
X14182086Y-13943508D02*
X14201134Y-13933984D01*
X14353515Y-14114936D02*
X14363039Y-14124460D01*
X14363039Y-14124460D02*
X14353515Y-14133984D01*
X14353515Y-14133984D02*
X14343991Y-14124460D01*
X14343991Y-14124460D02*
X14353515Y-14114936D01*
X14353515Y-14114936D02*
X14353515Y-14133984D01*
X14486848Y-13933984D02*
X14505896Y-13933984D01*
X14505896Y-13933984D02*
X14524944Y-13943508D01*
X14524944Y-13943508D02*
X14534467Y-13953031D01*
X14534467Y-13953031D02*
X14543991Y-13972079D01*
X14543991Y-13972079D02*
X14553515Y-14010174D01*
X14553515Y-14010174D02*
X14553515Y-14057793D01*
X14553515Y-14057793D02*
X14543991Y-14095888D01*
X14543991Y-14095888D02*
X14534467Y-14114936D01*
X14534467Y-14114936D02*
X14524944Y-14124460D01*
X14524944Y-14124460D02*
X14505896Y-14133984D01*
X14505896Y-14133984D02*
X14486848Y-14133984D01*
X14486848Y-14133984D02*
X14467801Y-14124460D01*
X14467801Y-14124460D02*
X14458277Y-14114936D01*
X14458277Y-14114936D02*
X14448753Y-14095888D01*
X14448753Y-14095888D02*
X14439229Y-14057793D01*
X14439229Y-14057793D02*
X14439229Y-14010174D01*
X14439229Y-14010174D02*
X14448753Y-13972079D01*
X14448753Y-13972079D02*
X14458277Y-13953031D01*
X14458277Y-13953031D02*
X14467801Y-13943508D01*
X14467801Y-13943508D02*
X14486848Y-13933984D01*
X14743991Y-14133984D02*
X14629706Y-14133984D01*
X14686848Y-14133984D02*
X14686848Y-13933984D01*
X14686848Y-13933984D02*
X14667801Y-13962555D01*
X14667801Y-13962555D02*
X14648753Y-13981603D01*
X14648753Y-13981603D02*
X14629706Y-13991127D01*
X14934467Y-14133984D02*
X14820182Y-14133984D01*
X14877325Y-14133984D02*
X14877325Y-13933984D01*
X14877325Y-13933984D02*
X14858277Y-13962555D01*
X14858277Y-13962555D02*
X14839229Y-13981603D01*
X14839229Y-13981603D02*
X14820182Y-13991127D01*
X15048753Y-14019698D02*
X15029706Y-14010174D01*
X15029706Y-14010174D02*
X15020182Y-14000650D01*
X15020182Y-14000650D02*
X15010658Y-13981603D01*
X15010658Y-13981603D02*
X15010658Y-13972079D01*
X15010658Y-13972079D02*
X15020182Y-13953031D01*
X15020182Y-13953031D02*
X15029706Y-13943508D01*
X15029706Y-13943508D02*
X15048753Y-13933984D01*
X15048753Y-13933984D02*
X15086848Y-13933984D01*
X15086848Y-13933984D02*
X15105896Y-13943508D01*
X15105896Y-13943508D02*
X15115420Y-13953031D01*
X15115420Y-13953031D02*
X15124944Y-13972079D01*
X15124944Y-13972079D02*
X15124944Y-13981603D01*
X15124944Y-13981603D02*
X15115420Y-14000650D01*
X15115420Y-14000650D02*
X15105896Y-14010174D01*
X15105896Y-14010174D02*
X15086848Y-14019698D01*
X15086848Y-14019698D02*
X15048753Y-14019698D01*
X15048753Y-14019698D02*
X15029706Y-14029222D01*
X15029706Y-14029222D02*
X15020182Y-14038746D01*
X15020182Y-14038746D02*
X15010658Y-14057793D01*
X15010658Y-14057793D02*
X15010658Y-14095888D01*
X15010658Y-14095888D02*
X15020182Y-14114936D01*
X15020182Y-14114936D02*
X15029706Y-14124460D01*
X15029706Y-14124460D02*
X15048753Y-14133984D01*
X15048753Y-14133984D02*
X15086848Y-14133984D01*
X15086848Y-14133984D02*
X15105896Y-14124460D01*
X15105896Y-14124460D02*
X15115420Y-14114936D01*
X15115420Y-14114936D02*
X15124944Y-14095888D01*
X15124944Y-14095888D02*
X15124944Y-14057793D01*
X15124944Y-14057793D02*
X15115420Y-14038746D01*
X15115420Y-14038746D02*
X15105896Y-14029222D01*
X15105896Y-14029222D02*
X15086848Y-14019698D01*
X15201134Y-13933984D02*
X15201134Y-13972079D01*
X15277325Y-13933984D02*
X15277325Y-13972079D01*
X15572563Y-14210174D02*
X15563039Y-14200650D01*
X15563039Y-14200650D02*
X15543991Y-14172079D01*
X15543991Y-14172079D02*
X15534468Y-14153031D01*
X15534468Y-14153031D02*
X15524944Y-14124460D01*
X15524944Y-14124460D02*
X15515420Y-14076841D01*
X15515420Y-14076841D02*
X15515420Y-14038746D01*
X15515420Y-14038746D02*
X15524944Y-13991127D01*
X15524944Y-13991127D02*
X15534468Y-13962555D01*
X15534468Y-13962555D02*
X15543991Y-13943508D01*
X15543991Y-13943508D02*
X15563039Y-13914936D01*
X15563039Y-13914936D02*
X15572563Y-13905412D01*
X15629706Y-13933984D02*
X15753515Y-13933984D01*
X15753515Y-13933984D02*
X15686848Y-14010174D01*
X15686848Y-14010174D02*
X15715420Y-14010174D01*
X15715420Y-14010174D02*
X15734468Y-14019698D01*
X15734468Y-14019698D02*
X15743991Y-14029222D01*
X15743991Y-14029222D02*
X15753515Y-14048269D01*
X15753515Y-14048269D02*
X15753515Y-14095888D01*
X15753515Y-14095888D02*
X15743991Y-14114936D01*
X15743991Y-14114936D02*
X15734468Y-14124460D01*
X15734468Y-14124460D02*
X15715420Y-14133984D01*
X15715420Y-14133984D02*
X15658277Y-14133984D01*
X15658277Y-14133984D02*
X15639229Y-14124460D01*
X15639229Y-14124460D02*
X15629706Y-14114936D01*
X15848753Y-14133984D02*
X15886848Y-14133984D01*
X15886848Y-14133984D02*
X15905896Y-14124460D01*
X15905896Y-14124460D02*
X15915420Y-14114936D01*
X15915420Y-14114936D02*
X15934468Y-14086365D01*
X15934468Y-14086365D02*
X15943991Y-14048269D01*
X15943991Y-14048269D02*
X15943991Y-13972079D01*
X15943991Y-13972079D02*
X15934468Y-13953031D01*
X15934468Y-13953031D02*
X15924944Y-13943508D01*
X15924944Y-13943508D02*
X15905896Y-13933984D01*
X15905896Y-13933984D02*
X15867801Y-13933984D01*
X15867801Y-13933984D02*
X15848753Y-13943508D01*
X15848753Y-13943508D02*
X15839229Y-13953031D01*
X15839229Y-13953031D02*
X15829706Y-13972079D01*
X15829706Y-13972079D02*
X15829706Y-14019698D01*
X15829706Y-14019698D02*
X15839229Y-14038746D01*
X15839229Y-14038746D02*
X15848753Y-14048269D01*
X15848753Y-14048269D02*
X15867801Y-14057793D01*
X15867801Y-14057793D02*
X15905896Y-14057793D01*
X15905896Y-14057793D02*
X15924944Y-14048269D01*
X15924944Y-14048269D02*
X15934468Y-14038746D01*
X15934468Y-14038746D02*
X15943991Y-14019698D01*
X16182087Y-14133984D02*
X16182087Y-13933984D01*
X16267801Y-14133984D02*
X16267801Y-14029222D01*
X16267801Y-14029222D02*
X16258277Y-14010174D01*
X16258277Y-14010174D02*
X16239230Y-14000650D01*
X16239230Y-14000650D02*
X16210658Y-14000650D01*
X16210658Y-14000650D02*
X16191610Y-14010174D01*
X16191610Y-14010174D02*
X16182087Y-14019698D01*
X16391610Y-14133984D02*
X16372563Y-14124460D01*
X16372563Y-14124460D02*
X16363039Y-14114936D01*
X16363039Y-14114936D02*
X16353515Y-14095888D01*
X16353515Y-14095888D02*
X16353515Y-14038746D01*
X16353515Y-14038746D02*
X16363039Y-14019698D01*
X16363039Y-14019698D02*
X16372563Y-14010174D01*
X16372563Y-14010174D02*
X16391610Y-14000650D01*
X16391610Y-14000650D02*
X16420182Y-14000650D01*
X16420182Y-14000650D02*
X16439230Y-14010174D01*
X16439230Y-14010174D02*
X16448753Y-14019698D01*
X16448753Y-14019698D02*
X16458277Y-14038746D01*
X16458277Y-14038746D02*
X16458277Y-14095888D01*
X16458277Y-14095888D02*
X16448753Y-14114936D01*
X16448753Y-14114936D02*
X16439230Y-14124460D01*
X16439230Y-14124460D02*
X16420182Y-14133984D01*
X16420182Y-14133984D02*
X16391610Y-14133984D01*
X16572563Y-14133984D02*
X16553515Y-14124460D01*
X16553515Y-14124460D02*
X16543991Y-14105412D01*
X16543991Y-14105412D02*
X16543991Y-13933984D01*
X16724944Y-14124460D02*
X16705896Y-14133984D01*
X16705896Y-14133984D02*
X16667801Y-14133984D01*
X16667801Y-14133984D02*
X16648753Y-14124460D01*
X16648753Y-14124460D02*
X16639230Y-14105412D01*
X16639230Y-14105412D02*
X16639230Y-14029222D01*
X16639230Y-14029222D02*
X16648753Y-14010174D01*
X16648753Y-14010174D02*
X16667801Y-14000650D01*
X16667801Y-14000650D02*
X16705896Y-14000650D01*
X16705896Y-14000650D02*
X16724944Y-14010174D01*
X16724944Y-14010174D02*
X16734468Y-14029222D01*
X16734468Y-14029222D02*
X16734468Y-14048269D01*
X16734468Y-14048269D02*
X16639230Y-14067317D01*
X16810658Y-14124460D02*
X16829706Y-14133984D01*
X16829706Y-14133984D02*
X16867801Y-14133984D01*
X16867801Y-14133984D02*
X16886849Y-14124460D01*
X16886849Y-14124460D02*
X16896373Y-14105412D01*
X16896373Y-14105412D02*
X16896373Y-14095888D01*
X16896373Y-14095888D02*
X16886849Y-14076841D01*
X16886849Y-14076841D02*
X16867801Y-14067317D01*
X16867801Y-14067317D02*
X16839230Y-14067317D01*
X16839230Y-14067317D02*
X16820182Y-14057793D01*
X16820182Y-14057793D02*
X16810658Y-14038746D01*
X16810658Y-14038746D02*
X16810658Y-14029222D01*
X16810658Y-14029222D02*
X16820182Y-14010174D01*
X16820182Y-14010174D02*
X16839230Y-14000650D01*
X16839230Y-14000650D02*
X16867801Y-14000650D01*
X16867801Y-14000650D02*
X16886849Y-14010174D01*
X16963039Y-14210174D02*
X16972563Y-14200650D01*
X16972563Y-14200650D02*
X16991611Y-14172079D01*
X16991611Y-14172079D02*
X17001134Y-14153031D01*
X17001134Y-14153031D02*
X17010658Y-14124460D01*
X17010658Y-14124460D02*
X17020182Y-14076841D01*
X17020182Y-14076841D02*
X17020182Y-14038746D01*
X17020182Y-14038746D02*
X17010658Y-13991127D01*
X17010658Y-13991127D02*
X17001134Y-13962555D01*
X17001134Y-13962555D02*
X16991611Y-13943508D01*
X16991611Y-13943508D02*
X16972563Y-13914936D01*
X16972563Y-13914936D02*
X16963039Y-13905412D01*
D12*
X11997500Y-14306500D02*
G75*
G02*
X11917500Y-14306500I-40000J0D01*
G01*
X11917500Y-14306500D02*
G75*
G02*
X11997500Y-14306500I40000J0D01*
G01*
D11*
X12296372Y-14197984D02*
X12315420Y-14197984D01*
X12315420Y-14197984D02*
X12334467Y-14207508D01*
X12334467Y-14207508D02*
X12343991Y-14217031D01*
X12343991Y-14217031D02*
X12353515Y-14236079D01*
X12353515Y-14236079D02*
X12363039Y-14274174D01*
X12363039Y-14274174D02*
X12363039Y-14321793D01*
X12363039Y-14321793D02*
X12353515Y-14359888D01*
X12353515Y-14359888D02*
X12343991Y-14378936D01*
X12343991Y-14378936D02*
X12334467Y-14388460D01*
X12334467Y-14388460D02*
X12315420Y-14397984D01*
X12315420Y-14397984D02*
X12296372Y-14397984D01*
X12296372Y-14397984D02*
X12277324Y-14388460D01*
X12277324Y-14388460D02*
X12267801Y-14378936D01*
X12267801Y-14378936D02*
X12258277Y-14359888D01*
X12258277Y-14359888D02*
X12248753Y-14321793D01*
X12248753Y-14321793D02*
X12248753Y-14274174D01*
X12248753Y-14274174D02*
X12258277Y-14236079D01*
X12258277Y-14236079D02*
X12267801Y-14217031D01*
X12267801Y-14217031D02*
X12277324Y-14207508D01*
X12277324Y-14207508D02*
X12296372Y-14197984D01*
X12448753Y-14378936D02*
X12458277Y-14388460D01*
X12458277Y-14388460D02*
X12448753Y-14397984D01*
X12448753Y-14397984D02*
X12439229Y-14388460D01*
X12439229Y-14388460D02*
X12448753Y-14378936D01*
X12448753Y-14378936D02*
X12448753Y-14397984D01*
X12572562Y-14283698D02*
X12553515Y-14274174D01*
X12553515Y-14274174D02*
X12543991Y-14264650D01*
X12543991Y-14264650D02*
X12534467Y-14245603D01*
X12534467Y-14245603D02*
X12534467Y-14236079D01*
X12534467Y-14236079D02*
X12543991Y-14217031D01*
X12543991Y-14217031D02*
X12553515Y-14207508D01*
X12553515Y-14207508D02*
X12572562Y-14197984D01*
X12572562Y-14197984D02*
X12610658Y-14197984D01*
X12610658Y-14197984D02*
X12629705Y-14207508D01*
X12629705Y-14207508D02*
X12639229Y-14217031D01*
X12639229Y-14217031D02*
X12648753Y-14236079D01*
X12648753Y-14236079D02*
X12648753Y-14245603D01*
X12648753Y-14245603D02*
X12639229Y-14264650D01*
X12639229Y-14264650D02*
X12629705Y-14274174D01*
X12629705Y-14274174D02*
X12610658Y-14283698D01*
X12610658Y-14283698D02*
X12572562Y-14283698D01*
X12572562Y-14283698D02*
X12553515Y-14293222D01*
X12553515Y-14293222D02*
X12543991Y-14302746D01*
X12543991Y-14302746D02*
X12534467Y-14321793D01*
X12534467Y-14321793D02*
X12534467Y-14359888D01*
X12534467Y-14359888D02*
X12543991Y-14378936D01*
X12543991Y-14378936D02*
X12553515Y-14388460D01*
X12553515Y-14388460D02*
X12572562Y-14397984D01*
X12572562Y-14397984D02*
X12610658Y-14397984D01*
X12610658Y-14397984D02*
X12629705Y-14388460D01*
X12629705Y-14388460D02*
X12639229Y-14378936D01*
X12639229Y-14378936D02*
X12648753Y-14359888D01*
X12648753Y-14359888D02*
X12648753Y-14321793D01*
X12648753Y-14321793D02*
X12639229Y-14302746D01*
X12639229Y-14302746D02*
X12629705Y-14293222D01*
X12629705Y-14293222D02*
X12610658Y-14283698D01*
X12772562Y-14197984D02*
X12791610Y-14197984D01*
X12791610Y-14197984D02*
X12810658Y-14207508D01*
X12810658Y-14207508D02*
X12820182Y-14217031D01*
X12820182Y-14217031D02*
X12829705Y-14236079D01*
X12829705Y-14236079D02*
X12839229Y-14274174D01*
X12839229Y-14274174D02*
X12839229Y-14321793D01*
X12839229Y-14321793D02*
X12829705Y-14359888D01*
X12829705Y-14359888D02*
X12820182Y-14378936D01*
X12820182Y-14378936D02*
X12810658Y-14388460D01*
X12810658Y-14388460D02*
X12791610Y-14397984D01*
X12791610Y-14397984D02*
X12772562Y-14397984D01*
X12772562Y-14397984D02*
X12753515Y-14388460D01*
X12753515Y-14388460D02*
X12743991Y-14378936D01*
X12743991Y-14378936D02*
X12734467Y-14359888D01*
X12734467Y-14359888D02*
X12724943Y-14321793D01*
X12724943Y-14321793D02*
X12724943Y-14274174D01*
X12724943Y-14274174D02*
X12734467Y-14236079D01*
X12734467Y-14236079D02*
X12743991Y-14217031D01*
X12743991Y-14217031D02*
X12753515Y-14207508D01*
X12753515Y-14207508D02*
X12772562Y-14197984D01*
X12963039Y-14197984D02*
X12982086Y-14197984D01*
X12982086Y-14197984D02*
X13001134Y-14207508D01*
X13001134Y-14207508D02*
X13010658Y-14217031D01*
X13010658Y-14217031D02*
X13020182Y-14236079D01*
X13020182Y-14236079D02*
X13029705Y-14274174D01*
X13029705Y-14274174D02*
X13029705Y-14321793D01*
X13029705Y-14321793D02*
X13020182Y-14359888D01*
X13020182Y-14359888D02*
X13010658Y-14378936D01*
X13010658Y-14378936D02*
X13001134Y-14388460D01*
X13001134Y-14388460D02*
X12982086Y-14397984D01*
X12982086Y-14397984D02*
X12963039Y-14397984D01*
X12963039Y-14397984D02*
X12943991Y-14388460D01*
X12943991Y-14388460D02*
X12934467Y-14378936D01*
X12934467Y-14378936D02*
X12924943Y-14359888D01*
X12924943Y-14359888D02*
X12915420Y-14321793D01*
X12915420Y-14321793D02*
X12915420Y-14274174D01*
X12915420Y-14274174D02*
X12924943Y-14236079D01*
X12924943Y-14236079D02*
X12934467Y-14217031D01*
X12934467Y-14217031D02*
X12943991Y-14207508D01*
X12943991Y-14207508D02*
X12963039Y-14197984D01*
X13115420Y-14397984D02*
X13115420Y-14264650D01*
X13115420Y-14283698D02*
X13124943Y-14274174D01*
X13124943Y-14274174D02*
X13143991Y-14264650D01*
X13143991Y-14264650D02*
X13172563Y-14264650D01*
X13172563Y-14264650D02*
X13191610Y-14274174D01*
X13191610Y-14274174D02*
X13201134Y-14293222D01*
X13201134Y-14293222D02*
X13201134Y-14397984D01*
X13201134Y-14293222D02*
X13210658Y-14274174D01*
X13210658Y-14274174D02*
X13229705Y-14264650D01*
X13229705Y-14264650D02*
X13258277Y-14264650D01*
X13258277Y-14264650D02*
X13277324Y-14274174D01*
X13277324Y-14274174D02*
X13286848Y-14293222D01*
X13286848Y-14293222D02*
X13286848Y-14397984D01*
X13382086Y-14397984D02*
X13382086Y-14264650D01*
X13382086Y-14283698D02*
X13391610Y-14274174D01*
X13391610Y-14274174D02*
X13410658Y-14264650D01*
X13410658Y-14264650D02*
X13439229Y-14264650D01*
X13439229Y-14264650D02*
X13458277Y-14274174D01*
X13458277Y-14274174D02*
X13467801Y-14293222D01*
X13467801Y-14293222D02*
X13467801Y-14397984D01*
X13467801Y-14293222D02*
X13477324Y-14274174D01*
X13477324Y-14274174D02*
X13496372Y-14264650D01*
X13496372Y-14264650D02*
X13524943Y-14264650D01*
X13524943Y-14264650D02*
X13543991Y-14274174D01*
X13543991Y-14274174D02*
X13553515Y-14293222D01*
X13553515Y-14293222D02*
X13553515Y-14397984D01*
X13943991Y-14188460D02*
X13772563Y-14445603D01*
X14201134Y-14197984D02*
X14220182Y-14197984D01*
X14220182Y-14197984D02*
X14239229Y-14207508D01*
X14239229Y-14207508D02*
X14248753Y-14217031D01*
X14248753Y-14217031D02*
X14258277Y-14236079D01*
X14258277Y-14236079D02*
X14267801Y-14274174D01*
X14267801Y-14274174D02*
X14267801Y-14321793D01*
X14267801Y-14321793D02*
X14258277Y-14359888D01*
X14258277Y-14359888D02*
X14248753Y-14378936D01*
X14248753Y-14378936D02*
X14239229Y-14388460D01*
X14239229Y-14388460D02*
X14220182Y-14397984D01*
X14220182Y-14397984D02*
X14201134Y-14397984D01*
X14201134Y-14397984D02*
X14182086Y-14388460D01*
X14182086Y-14388460D02*
X14172563Y-14378936D01*
X14172563Y-14378936D02*
X14163039Y-14359888D01*
X14163039Y-14359888D02*
X14153515Y-14321793D01*
X14153515Y-14321793D02*
X14153515Y-14274174D01*
X14153515Y-14274174D02*
X14163039Y-14236079D01*
X14163039Y-14236079D02*
X14172563Y-14217031D01*
X14172563Y-14217031D02*
X14182086Y-14207508D01*
X14182086Y-14207508D02*
X14201134Y-14197984D01*
X14353515Y-14378936D02*
X14363039Y-14388460D01*
X14363039Y-14388460D02*
X14353515Y-14397984D01*
X14353515Y-14397984D02*
X14343991Y-14388460D01*
X14343991Y-14388460D02*
X14353515Y-14378936D01*
X14353515Y-14378936D02*
X14353515Y-14397984D01*
X14486848Y-14197984D02*
X14505896Y-14197984D01*
X14505896Y-14197984D02*
X14524944Y-14207508D01*
X14524944Y-14207508D02*
X14534467Y-14217031D01*
X14534467Y-14217031D02*
X14543991Y-14236079D01*
X14543991Y-14236079D02*
X14553515Y-14274174D01*
X14553515Y-14274174D02*
X14553515Y-14321793D01*
X14553515Y-14321793D02*
X14543991Y-14359888D01*
X14543991Y-14359888D02*
X14534467Y-14378936D01*
X14534467Y-14378936D02*
X14524944Y-14388460D01*
X14524944Y-14388460D02*
X14505896Y-14397984D01*
X14505896Y-14397984D02*
X14486848Y-14397984D01*
X14486848Y-14397984D02*
X14467801Y-14388460D01*
X14467801Y-14388460D02*
X14458277Y-14378936D01*
X14458277Y-14378936D02*
X14448753Y-14359888D01*
X14448753Y-14359888D02*
X14439229Y-14321793D01*
X14439229Y-14321793D02*
X14439229Y-14274174D01*
X14439229Y-14274174D02*
X14448753Y-14236079D01*
X14448753Y-14236079D02*
X14458277Y-14217031D01*
X14458277Y-14217031D02*
X14467801Y-14207508D01*
X14467801Y-14207508D02*
X14486848Y-14197984D01*
X14620182Y-14197984D02*
X14743991Y-14197984D01*
X14743991Y-14197984D02*
X14677325Y-14274174D01*
X14677325Y-14274174D02*
X14705896Y-14274174D01*
X14705896Y-14274174D02*
X14724944Y-14283698D01*
X14724944Y-14283698D02*
X14734467Y-14293222D01*
X14734467Y-14293222D02*
X14743991Y-14312269D01*
X14743991Y-14312269D02*
X14743991Y-14359888D01*
X14743991Y-14359888D02*
X14734467Y-14378936D01*
X14734467Y-14378936D02*
X14724944Y-14388460D01*
X14724944Y-14388460D02*
X14705896Y-14397984D01*
X14705896Y-14397984D02*
X14648753Y-14397984D01*
X14648753Y-14397984D02*
X14629706Y-14388460D01*
X14629706Y-14388460D02*
X14620182Y-14378936D01*
X14934467Y-14397984D02*
X14820182Y-14397984D01*
X14877325Y-14397984D02*
X14877325Y-14197984D01*
X14877325Y-14197984D02*
X14858277Y-14226555D01*
X14858277Y-14226555D02*
X14839229Y-14245603D01*
X14839229Y-14245603D02*
X14820182Y-14255127D01*
X15115420Y-14197984D02*
X15020182Y-14197984D01*
X15020182Y-14197984D02*
X15010658Y-14293222D01*
X15010658Y-14293222D02*
X15020182Y-14283698D01*
X15020182Y-14283698D02*
X15039229Y-14274174D01*
X15039229Y-14274174D02*
X15086848Y-14274174D01*
X15086848Y-14274174D02*
X15105896Y-14283698D01*
X15105896Y-14283698D02*
X15115420Y-14293222D01*
X15115420Y-14293222D02*
X15124944Y-14312269D01*
X15124944Y-14312269D02*
X15124944Y-14359888D01*
X15124944Y-14359888D02*
X15115420Y-14378936D01*
X15115420Y-14378936D02*
X15105896Y-14388460D01*
X15105896Y-14388460D02*
X15086848Y-14397984D01*
X15086848Y-14397984D02*
X15039229Y-14397984D01*
X15039229Y-14397984D02*
X15020182Y-14388460D01*
X15020182Y-14388460D02*
X15010658Y-14378936D01*
X15201134Y-14197984D02*
X15201134Y-14236079D01*
X15277325Y-14197984D02*
X15277325Y-14236079D01*
X15572563Y-14474174D02*
X15563039Y-14464650D01*
X15563039Y-14464650D02*
X15543991Y-14436079D01*
X15543991Y-14436079D02*
X15534468Y-14417031D01*
X15534468Y-14417031D02*
X15524944Y-14388460D01*
X15524944Y-14388460D02*
X15515420Y-14340841D01*
X15515420Y-14340841D02*
X15515420Y-14302746D01*
X15515420Y-14302746D02*
X15524944Y-14255127D01*
X15524944Y-14255127D02*
X15534468Y-14226555D01*
X15534468Y-14226555D02*
X15543991Y-14207508D01*
X15543991Y-14207508D02*
X15563039Y-14178936D01*
X15563039Y-14178936D02*
X15572563Y-14169412D01*
X15639229Y-14217031D02*
X15648753Y-14207508D01*
X15648753Y-14207508D02*
X15667801Y-14197984D01*
X15667801Y-14197984D02*
X15715420Y-14197984D01*
X15715420Y-14197984D02*
X15734468Y-14207508D01*
X15734468Y-14207508D02*
X15743991Y-14217031D01*
X15743991Y-14217031D02*
X15753515Y-14236079D01*
X15753515Y-14236079D02*
X15753515Y-14255127D01*
X15753515Y-14255127D02*
X15743991Y-14283698D01*
X15743991Y-14283698D02*
X15629706Y-14397984D01*
X15629706Y-14397984D02*
X15753515Y-14397984D01*
X15924944Y-14197984D02*
X15886848Y-14197984D01*
X15886848Y-14197984D02*
X15867801Y-14207508D01*
X15867801Y-14207508D02*
X15858277Y-14217031D01*
X15858277Y-14217031D02*
X15839229Y-14245603D01*
X15839229Y-14245603D02*
X15829706Y-14283698D01*
X15829706Y-14283698D02*
X15829706Y-14359888D01*
X15829706Y-14359888D02*
X15839229Y-14378936D01*
X15839229Y-14378936D02*
X15848753Y-14388460D01*
X15848753Y-14388460D02*
X15867801Y-14397984D01*
X15867801Y-14397984D02*
X15905896Y-14397984D01*
X15905896Y-14397984D02*
X15924944Y-14388460D01*
X15924944Y-14388460D02*
X15934468Y-14378936D01*
X15934468Y-14378936D02*
X15943991Y-14359888D01*
X15943991Y-14359888D02*
X15943991Y-14312269D01*
X15943991Y-14312269D02*
X15934468Y-14293222D01*
X15934468Y-14293222D02*
X15924944Y-14283698D01*
X15924944Y-14283698D02*
X15905896Y-14274174D01*
X15905896Y-14274174D02*
X15867801Y-14274174D01*
X15867801Y-14274174D02*
X15848753Y-14283698D01*
X15848753Y-14283698D02*
X15839229Y-14293222D01*
X15839229Y-14293222D02*
X15829706Y-14312269D01*
X16182087Y-14397984D02*
X16182087Y-14197984D01*
X16267801Y-14397984D02*
X16267801Y-14293222D01*
X16267801Y-14293222D02*
X16258277Y-14274174D01*
X16258277Y-14274174D02*
X16239230Y-14264650D01*
X16239230Y-14264650D02*
X16210658Y-14264650D01*
X16210658Y-14264650D02*
X16191610Y-14274174D01*
X16191610Y-14274174D02*
X16182087Y-14283698D01*
X16391610Y-14397984D02*
X16372563Y-14388460D01*
X16372563Y-14388460D02*
X16363039Y-14378936D01*
X16363039Y-14378936D02*
X16353515Y-14359888D01*
X16353515Y-14359888D02*
X16353515Y-14302746D01*
X16353515Y-14302746D02*
X16363039Y-14283698D01*
X16363039Y-14283698D02*
X16372563Y-14274174D01*
X16372563Y-14274174D02*
X16391610Y-14264650D01*
X16391610Y-14264650D02*
X16420182Y-14264650D01*
X16420182Y-14264650D02*
X16439230Y-14274174D01*
X16439230Y-14274174D02*
X16448753Y-14283698D01*
X16448753Y-14283698D02*
X16458277Y-14302746D01*
X16458277Y-14302746D02*
X16458277Y-14359888D01*
X16458277Y-14359888D02*
X16448753Y-14378936D01*
X16448753Y-14378936D02*
X16439230Y-14388460D01*
X16439230Y-14388460D02*
X16420182Y-14397984D01*
X16420182Y-14397984D02*
X16391610Y-14397984D01*
X16572563Y-14397984D02*
X16553515Y-14388460D01*
X16553515Y-14388460D02*
X16543991Y-14369412D01*
X16543991Y-14369412D02*
X16543991Y-14197984D01*
X16724944Y-14388460D02*
X16705896Y-14397984D01*
X16705896Y-14397984D02*
X16667801Y-14397984D01*
X16667801Y-14397984D02*
X16648753Y-14388460D01*
X16648753Y-14388460D02*
X16639230Y-14369412D01*
X16639230Y-14369412D02*
X16639230Y-14293222D01*
X16639230Y-14293222D02*
X16648753Y-14274174D01*
X16648753Y-14274174D02*
X16667801Y-14264650D01*
X16667801Y-14264650D02*
X16705896Y-14264650D01*
X16705896Y-14264650D02*
X16724944Y-14274174D01*
X16724944Y-14274174D02*
X16734468Y-14293222D01*
X16734468Y-14293222D02*
X16734468Y-14312269D01*
X16734468Y-14312269D02*
X16639230Y-14331317D01*
X16810658Y-14388460D02*
X16829706Y-14397984D01*
X16829706Y-14397984D02*
X16867801Y-14397984D01*
X16867801Y-14397984D02*
X16886849Y-14388460D01*
X16886849Y-14388460D02*
X16896373Y-14369412D01*
X16896373Y-14369412D02*
X16896373Y-14359888D01*
X16896373Y-14359888D02*
X16886849Y-14340841D01*
X16886849Y-14340841D02*
X16867801Y-14331317D01*
X16867801Y-14331317D02*
X16839230Y-14331317D01*
X16839230Y-14331317D02*
X16820182Y-14321793D01*
X16820182Y-14321793D02*
X16810658Y-14302746D01*
X16810658Y-14302746D02*
X16810658Y-14293222D01*
X16810658Y-14293222D02*
X16820182Y-14274174D01*
X16820182Y-14274174D02*
X16839230Y-14264650D01*
X16839230Y-14264650D02*
X16867801Y-14264650D01*
X16867801Y-14264650D02*
X16886849Y-14274174D01*
X16963039Y-14474174D02*
X16972563Y-14464650D01*
X16972563Y-14464650D02*
X16991611Y-14436079D01*
X16991611Y-14436079D02*
X17001134Y-14417031D01*
X17001134Y-14417031D02*
X17010658Y-14388460D01*
X17010658Y-14388460D02*
X17020182Y-14340841D01*
X17020182Y-14340841D02*
X17020182Y-14302746D01*
X17020182Y-14302746D02*
X17010658Y-14255127D01*
X17010658Y-14255127D02*
X17001134Y-14226555D01*
X17001134Y-14226555D02*
X16991611Y-14207508D01*
X16991611Y-14207508D02*
X16972563Y-14178936D01*
X16972563Y-14178936D02*
X16963039Y-14169412D01*
D12*
X11950000Y-14523000D02*
X11950000Y-14618000D01*
X11902500Y-14570500D02*
X11997500Y-14570500D01*
D11*
X12296372Y-14461984D02*
X12315420Y-14461984D01*
X12315420Y-14461984D02*
X12334467Y-14471508D01*
X12334467Y-14471508D02*
X12343991Y-14481031D01*
X12343991Y-14481031D02*
X12353515Y-14500079D01*
X12353515Y-14500079D02*
X12363039Y-14538174D01*
X12363039Y-14538174D02*
X12363039Y-14585793D01*
X12363039Y-14585793D02*
X12353515Y-14623888D01*
X12353515Y-14623888D02*
X12343991Y-14642936D01*
X12343991Y-14642936D02*
X12334467Y-14652460D01*
X12334467Y-14652460D02*
X12315420Y-14661984D01*
X12315420Y-14661984D02*
X12296372Y-14661984D01*
X12296372Y-14661984D02*
X12277324Y-14652460D01*
X12277324Y-14652460D02*
X12267801Y-14642936D01*
X12267801Y-14642936D02*
X12258277Y-14623888D01*
X12258277Y-14623888D02*
X12248753Y-14585793D01*
X12248753Y-14585793D02*
X12248753Y-14538174D01*
X12248753Y-14538174D02*
X12258277Y-14500079D01*
X12258277Y-14500079D02*
X12267801Y-14481031D01*
X12267801Y-14481031D02*
X12277324Y-14471508D01*
X12277324Y-14471508D02*
X12296372Y-14461984D01*
X12448753Y-14642936D02*
X12458277Y-14652460D01*
X12458277Y-14652460D02*
X12448753Y-14661984D01*
X12448753Y-14661984D02*
X12439229Y-14652460D01*
X12439229Y-14652460D02*
X12448753Y-14642936D01*
X12448753Y-14642936D02*
X12448753Y-14661984D01*
X12553515Y-14661984D02*
X12591610Y-14661984D01*
X12591610Y-14661984D02*
X12610658Y-14652460D01*
X12610658Y-14652460D02*
X12620182Y-14642936D01*
X12620182Y-14642936D02*
X12639229Y-14614365D01*
X12639229Y-14614365D02*
X12648753Y-14576269D01*
X12648753Y-14576269D02*
X12648753Y-14500079D01*
X12648753Y-14500079D02*
X12639229Y-14481031D01*
X12639229Y-14481031D02*
X12629705Y-14471508D01*
X12629705Y-14471508D02*
X12610658Y-14461984D01*
X12610658Y-14461984D02*
X12572562Y-14461984D01*
X12572562Y-14461984D02*
X12553515Y-14471508D01*
X12553515Y-14471508D02*
X12543991Y-14481031D01*
X12543991Y-14481031D02*
X12534467Y-14500079D01*
X12534467Y-14500079D02*
X12534467Y-14547698D01*
X12534467Y-14547698D02*
X12543991Y-14566746D01*
X12543991Y-14566746D02*
X12553515Y-14576269D01*
X12553515Y-14576269D02*
X12572562Y-14585793D01*
X12572562Y-14585793D02*
X12610658Y-14585793D01*
X12610658Y-14585793D02*
X12629705Y-14576269D01*
X12629705Y-14576269D02*
X12639229Y-14566746D01*
X12639229Y-14566746D02*
X12648753Y-14547698D01*
X12829705Y-14461984D02*
X12734467Y-14461984D01*
X12734467Y-14461984D02*
X12724943Y-14557222D01*
X12724943Y-14557222D02*
X12734467Y-14547698D01*
X12734467Y-14547698D02*
X12753515Y-14538174D01*
X12753515Y-14538174D02*
X12801134Y-14538174D01*
X12801134Y-14538174D02*
X12820182Y-14547698D01*
X12820182Y-14547698D02*
X12829705Y-14557222D01*
X12829705Y-14557222D02*
X12839229Y-14576269D01*
X12839229Y-14576269D02*
X12839229Y-14623888D01*
X12839229Y-14623888D02*
X12829705Y-14642936D01*
X12829705Y-14642936D02*
X12820182Y-14652460D01*
X12820182Y-14652460D02*
X12801134Y-14661984D01*
X12801134Y-14661984D02*
X12753515Y-14661984D01*
X12753515Y-14661984D02*
X12734467Y-14652460D01*
X12734467Y-14652460D02*
X12724943Y-14642936D01*
X12963039Y-14461984D02*
X12982086Y-14461984D01*
X12982086Y-14461984D02*
X13001134Y-14471508D01*
X13001134Y-14471508D02*
X13010658Y-14481031D01*
X13010658Y-14481031D02*
X13020182Y-14500079D01*
X13020182Y-14500079D02*
X13029705Y-14538174D01*
X13029705Y-14538174D02*
X13029705Y-14585793D01*
X13029705Y-14585793D02*
X13020182Y-14623888D01*
X13020182Y-14623888D02*
X13010658Y-14642936D01*
X13010658Y-14642936D02*
X13001134Y-14652460D01*
X13001134Y-14652460D02*
X12982086Y-14661984D01*
X12982086Y-14661984D02*
X12963039Y-14661984D01*
X12963039Y-14661984D02*
X12943991Y-14652460D01*
X12943991Y-14652460D02*
X12934467Y-14642936D01*
X12934467Y-14642936D02*
X12924943Y-14623888D01*
X12924943Y-14623888D02*
X12915420Y-14585793D01*
X12915420Y-14585793D02*
X12915420Y-14538174D01*
X12915420Y-14538174D02*
X12924943Y-14500079D01*
X12924943Y-14500079D02*
X12934467Y-14481031D01*
X12934467Y-14481031D02*
X12943991Y-14471508D01*
X12943991Y-14471508D02*
X12963039Y-14461984D01*
X13115420Y-14661984D02*
X13115420Y-14528650D01*
X13115420Y-14547698D02*
X13124943Y-14538174D01*
X13124943Y-14538174D02*
X13143991Y-14528650D01*
X13143991Y-14528650D02*
X13172563Y-14528650D01*
X13172563Y-14528650D02*
X13191610Y-14538174D01*
X13191610Y-14538174D02*
X13201134Y-14557222D01*
X13201134Y-14557222D02*
X13201134Y-14661984D01*
X13201134Y-14557222D02*
X13210658Y-14538174D01*
X13210658Y-14538174D02*
X13229705Y-14528650D01*
X13229705Y-14528650D02*
X13258277Y-14528650D01*
X13258277Y-14528650D02*
X13277324Y-14538174D01*
X13277324Y-14538174D02*
X13286848Y-14557222D01*
X13286848Y-14557222D02*
X13286848Y-14661984D01*
X13382086Y-14661984D02*
X13382086Y-14528650D01*
X13382086Y-14547698D02*
X13391610Y-14538174D01*
X13391610Y-14538174D02*
X13410658Y-14528650D01*
X13410658Y-14528650D02*
X13439229Y-14528650D01*
X13439229Y-14528650D02*
X13458277Y-14538174D01*
X13458277Y-14538174D02*
X13467801Y-14557222D01*
X13467801Y-14557222D02*
X13467801Y-14661984D01*
X13467801Y-14557222D02*
X13477324Y-14538174D01*
X13477324Y-14538174D02*
X13496372Y-14528650D01*
X13496372Y-14528650D02*
X13524943Y-14528650D01*
X13524943Y-14528650D02*
X13543991Y-14538174D01*
X13543991Y-14538174D02*
X13553515Y-14557222D01*
X13553515Y-14557222D02*
X13553515Y-14661984D01*
X13943991Y-14452460D02*
X13772563Y-14709603D01*
X14201134Y-14461984D02*
X14220182Y-14461984D01*
X14220182Y-14461984D02*
X14239229Y-14471508D01*
X14239229Y-14471508D02*
X14248753Y-14481031D01*
X14248753Y-14481031D02*
X14258277Y-14500079D01*
X14258277Y-14500079D02*
X14267801Y-14538174D01*
X14267801Y-14538174D02*
X14267801Y-14585793D01*
X14267801Y-14585793D02*
X14258277Y-14623888D01*
X14258277Y-14623888D02*
X14248753Y-14642936D01*
X14248753Y-14642936D02*
X14239229Y-14652460D01*
X14239229Y-14652460D02*
X14220182Y-14661984D01*
X14220182Y-14661984D02*
X14201134Y-14661984D01*
X14201134Y-14661984D02*
X14182086Y-14652460D01*
X14182086Y-14652460D02*
X14172563Y-14642936D01*
X14172563Y-14642936D02*
X14163039Y-14623888D01*
X14163039Y-14623888D02*
X14153515Y-14585793D01*
X14153515Y-14585793D02*
X14153515Y-14538174D01*
X14153515Y-14538174D02*
X14163039Y-14500079D01*
X14163039Y-14500079D02*
X14172563Y-14481031D01*
X14172563Y-14481031D02*
X14182086Y-14471508D01*
X14182086Y-14471508D02*
X14201134Y-14461984D01*
X14353515Y-14642936D02*
X14363039Y-14652460D01*
X14363039Y-14652460D02*
X14353515Y-14661984D01*
X14353515Y-14661984D02*
X14343991Y-14652460D01*
X14343991Y-14652460D02*
X14353515Y-14642936D01*
X14353515Y-14642936D02*
X14353515Y-14661984D01*
X14486848Y-14461984D02*
X14505896Y-14461984D01*
X14505896Y-14461984D02*
X14524944Y-14471508D01*
X14524944Y-14471508D02*
X14534467Y-14481031D01*
X14534467Y-14481031D02*
X14543991Y-14500079D01*
X14543991Y-14500079D02*
X14553515Y-14538174D01*
X14553515Y-14538174D02*
X14553515Y-14585793D01*
X14553515Y-14585793D02*
X14543991Y-14623888D01*
X14543991Y-14623888D02*
X14534467Y-14642936D01*
X14534467Y-14642936D02*
X14524944Y-14652460D01*
X14524944Y-14652460D02*
X14505896Y-14661984D01*
X14505896Y-14661984D02*
X14486848Y-14661984D01*
X14486848Y-14661984D02*
X14467801Y-14652460D01*
X14467801Y-14652460D02*
X14458277Y-14642936D01*
X14458277Y-14642936D02*
X14448753Y-14623888D01*
X14448753Y-14623888D02*
X14439229Y-14585793D01*
X14439229Y-14585793D02*
X14439229Y-14538174D01*
X14439229Y-14538174D02*
X14448753Y-14500079D01*
X14448753Y-14500079D02*
X14458277Y-14481031D01*
X14458277Y-14481031D02*
X14467801Y-14471508D01*
X14467801Y-14471508D02*
X14486848Y-14461984D01*
X14620182Y-14461984D02*
X14743991Y-14461984D01*
X14743991Y-14461984D02*
X14677325Y-14538174D01*
X14677325Y-14538174D02*
X14705896Y-14538174D01*
X14705896Y-14538174D02*
X14724944Y-14547698D01*
X14724944Y-14547698D02*
X14734467Y-14557222D01*
X14734467Y-14557222D02*
X14743991Y-14576269D01*
X14743991Y-14576269D02*
X14743991Y-14623888D01*
X14743991Y-14623888D02*
X14734467Y-14642936D01*
X14734467Y-14642936D02*
X14724944Y-14652460D01*
X14724944Y-14652460D02*
X14705896Y-14661984D01*
X14705896Y-14661984D02*
X14648753Y-14661984D01*
X14648753Y-14661984D02*
X14629706Y-14652460D01*
X14629706Y-14652460D02*
X14620182Y-14642936D01*
X14810658Y-14461984D02*
X14943991Y-14461984D01*
X14943991Y-14461984D02*
X14858277Y-14661984D01*
X15105896Y-14528650D02*
X15105896Y-14661984D01*
X15058277Y-14452460D02*
X15010658Y-14595317D01*
X15010658Y-14595317D02*
X15134467Y-14595317D01*
X15201134Y-14461984D02*
X15201134Y-14500079D01*
X15277325Y-14461984D02*
X15277325Y-14500079D01*
X15572563Y-14738174D02*
X15563039Y-14728650D01*
X15563039Y-14728650D02*
X15543991Y-14700079D01*
X15543991Y-14700079D02*
X15534468Y-14681031D01*
X15534468Y-14681031D02*
X15524944Y-14652460D01*
X15524944Y-14652460D02*
X15515420Y-14604841D01*
X15515420Y-14604841D02*
X15515420Y-14566746D01*
X15515420Y-14566746D02*
X15524944Y-14519127D01*
X15524944Y-14519127D02*
X15534468Y-14490555D01*
X15534468Y-14490555D02*
X15543991Y-14471508D01*
X15543991Y-14471508D02*
X15563039Y-14442936D01*
X15563039Y-14442936D02*
X15572563Y-14433412D01*
X15639229Y-14481031D02*
X15648753Y-14471508D01*
X15648753Y-14471508D02*
X15667801Y-14461984D01*
X15667801Y-14461984D02*
X15715420Y-14461984D01*
X15715420Y-14461984D02*
X15734468Y-14471508D01*
X15734468Y-14471508D02*
X15743991Y-14481031D01*
X15743991Y-14481031D02*
X15753515Y-14500079D01*
X15753515Y-14500079D02*
X15753515Y-14519127D01*
X15753515Y-14519127D02*
X15743991Y-14547698D01*
X15743991Y-14547698D02*
X15629706Y-14661984D01*
X15629706Y-14661984D02*
X15753515Y-14661984D01*
X15820182Y-14461984D02*
X15943991Y-14461984D01*
X15943991Y-14461984D02*
X15877325Y-14538174D01*
X15877325Y-14538174D02*
X15905896Y-14538174D01*
X15905896Y-14538174D02*
X15924944Y-14547698D01*
X15924944Y-14547698D02*
X15934468Y-14557222D01*
X15934468Y-14557222D02*
X15943991Y-14576269D01*
X15943991Y-14576269D02*
X15943991Y-14623888D01*
X15943991Y-14623888D02*
X15934468Y-14642936D01*
X15934468Y-14642936D02*
X15924944Y-14652460D01*
X15924944Y-14652460D02*
X15905896Y-14661984D01*
X15905896Y-14661984D02*
X15848753Y-14661984D01*
X15848753Y-14661984D02*
X15829706Y-14652460D01*
X15829706Y-14652460D02*
X15820182Y-14642936D01*
X16182087Y-14661984D02*
X16182087Y-14461984D01*
X16267801Y-14661984D02*
X16267801Y-14557222D01*
X16267801Y-14557222D02*
X16258277Y-14538174D01*
X16258277Y-14538174D02*
X16239230Y-14528650D01*
X16239230Y-14528650D02*
X16210658Y-14528650D01*
X16210658Y-14528650D02*
X16191610Y-14538174D01*
X16191610Y-14538174D02*
X16182087Y-14547698D01*
X16391610Y-14661984D02*
X16372563Y-14652460D01*
X16372563Y-14652460D02*
X16363039Y-14642936D01*
X16363039Y-14642936D02*
X16353515Y-14623888D01*
X16353515Y-14623888D02*
X16353515Y-14566746D01*
X16353515Y-14566746D02*
X16363039Y-14547698D01*
X16363039Y-14547698D02*
X16372563Y-14538174D01*
X16372563Y-14538174D02*
X16391610Y-14528650D01*
X16391610Y-14528650D02*
X16420182Y-14528650D01*
X16420182Y-14528650D02*
X16439230Y-14538174D01*
X16439230Y-14538174D02*
X16448753Y-14547698D01*
X16448753Y-14547698D02*
X16458277Y-14566746D01*
X16458277Y-14566746D02*
X16458277Y-14623888D01*
X16458277Y-14623888D02*
X16448753Y-14642936D01*
X16448753Y-14642936D02*
X16439230Y-14652460D01*
X16439230Y-14652460D02*
X16420182Y-14661984D01*
X16420182Y-14661984D02*
X16391610Y-14661984D01*
X16572563Y-14661984D02*
X16553515Y-14652460D01*
X16553515Y-14652460D02*
X16543991Y-14633412D01*
X16543991Y-14633412D02*
X16543991Y-14461984D01*
X16724944Y-14652460D02*
X16705896Y-14661984D01*
X16705896Y-14661984D02*
X16667801Y-14661984D01*
X16667801Y-14661984D02*
X16648753Y-14652460D01*
X16648753Y-14652460D02*
X16639230Y-14633412D01*
X16639230Y-14633412D02*
X16639230Y-14557222D01*
X16639230Y-14557222D02*
X16648753Y-14538174D01*
X16648753Y-14538174D02*
X16667801Y-14528650D01*
X16667801Y-14528650D02*
X16705896Y-14528650D01*
X16705896Y-14528650D02*
X16724944Y-14538174D01*
X16724944Y-14538174D02*
X16734468Y-14557222D01*
X16734468Y-14557222D02*
X16734468Y-14576269D01*
X16734468Y-14576269D02*
X16639230Y-14595317D01*
X16810658Y-14652460D02*
X16829706Y-14661984D01*
X16829706Y-14661984D02*
X16867801Y-14661984D01*
X16867801Y-14661984D02*
X16886849Y-14652460D01*
X16886849Y-14652460D02*
X16896373Y-14633412D01*
X16896373Y-14633412D02*
X16896373Y-14623888D01*
X16896373Y-14623888D02*
X16886849Y-14604841D01*
X16886849Y-14604841D02*
X16867801Y-14595317D01*
X16867801Y-14595317D02*
X16839230Y-14595317D01*
X16839230Y-14595317D02*
X16820182Y-14585793D01*
X16820182Y-14585793D02*
X16810658Y-14566746D01*
X16810658Y-14566746D02*
X16810658Y-14557222D01*
X16810658Y-14557222D02*
X16820182Y-14538174D01*
X16820182Y-14538174D02*
X16839230Y-14528650D01*
X16839230Y-14528650D02*
X16867801Y-14528650D01*
X16867801Y-14528650D02*
X16886849Y-14538174D01*
X16963039Y-14738174D02*
X16972563Y-14728650D01*
X16972563Y-14728650D02*
X16991611Y-14700079D01*
X16991611Y-14700079D02*
X17001134Y-14681031D01*
X17001134Y-14681031D02*
X17010658Y-14652460D01*
X17010658Y-14652460D02*
X17020182Y-14604841D01*
X17020182Y-14604841D02*
X17020182Y-14566746D01*
X17020182Y-14566746D02*
X17010658Y-14519127D01*
X17010658Y-14519127D02*
X17001134Y-14490555D01*
X17001134Y-14490555D02*
X16991611Y-14471508D01*
X16991611Y-14471508D02*
X16972563Y-14442936D01*
X16972563Y-14442936D02*
X16963039Y-14433412D01*
D12*
X11982856Y-14869856D02*
X11982856Y-14799144D01*
X11912144Y-14799144D01*
X11912144Y-14869856D01*
X11982856Y-14869856D01*
D11*
X12363039Y-14925984D02*
X12248753Y-14925984D01*
X12305896Y-14925984D02*
X12305896Y-14725984D01*
X12305896Y-14725984D02*
X12286848Y-14754555D01*
X12286848Y-14754555D02*
X12267801Y-14773603D01*
X12267801Y-14773603D02*
X12248753Y-14783127D01*
X12448753Y-14906936D02*
X12458277Y-14916460D01*
X12458277Y-14916460D02*
X12448753Y-14925984D01*
X12448753Y-14925984D02*
X12439229Y-14916460D01*
X12439229Y-14916460D02*
X12448753Y-14906936D01*
X12448753Y-14906936D02*
X12448753Y-14925984D01*
X12582086Y-14725984D02*
X12601134Y-14725984D01*
X12601134Y-14725984D02*
X12620182Y-14735508D01*
X12620182Y-14735508D02*
X12629705Y-14745031D01*
X12629705Y-14745031D02*
X12639229Y-14764079D01*
X12639229Y-14764079D02*
X12648753Y-14802174D01*
X12648753Y-14802174D02*
X12648753Y-14849793D01*
X12648753Y-14849793D02*
X12639229Y-14887888D01*
X12639229Y-14887888D02*
X12629705Y-14906936D01*
X12629705Y-14906936D02*
X12620182Y-14916460D01*
X12620182Y-14916460D02*
X12601134Y-14925984D01*
X12601134Y-14925984D02*
X12582086Y-14925984D01*
X12582086Y-14925984D02*
X12563039Y-14916460D01*
X12563039Y-14916460D02*
X12553515Y-14906936D01*
X12553515Y-14906936D02*
X12543991Y-14887888D01*
X12543991Y-14887888D02*
X12534467Y-14849793D01*
X12534467Y-14849793D02*
X12534467Y-14802174D01*
X12534467Y-14802174D02*
X12543991Y-14764079D01*
X12543991Y-14764079D02*
X12553515Y-14745031D01*
X12553515Y-14745031D02*
X12563039Y-14735508D01*
X12563039Y-14735508D02*
X12582086Y-14725984D01*
X12772562Y-14725984D02*
X12791610Y-14725984D01*
X12791610Y-14725984D02*
X12810658Y-14735508D01*
X12810658Y-14735508D02*
X12820182Y-14745031D01*
X12820182Y-14745031D02*
X12829705Y-14764079D01*
X12829705Y-14764079D02*
X12839229Y-14802174D01*
X12839229Y-14802174D02*
X12839229Y-14849793D01*
X12839229Y-14849793D02*
X12829705Y-14887888D01*
X12829705Y-14887888D02*
X12820182Y-14906936D01*
X12820182Y-14906936D02*
X12810658Y-14916460D01*
X12810658Y-14916460D02*
X12791610Y-14925984D01*
X12791610Y-14925984D02*
X12772562Y-14925984D01*
X12772562Y-14925984D02*
X12753515Y-14916460D01*
X12753515Y-14916460D02*
X12743991Y-14906936D01*
X12743991Y-14906936D02*
X12734467Y-14887888D01*
X12734467Y-14887888D02*
X12724943Y-14849793D01*
X12724943Y-14849793D02*
X12724943Y-14802174D01*
X12724943Y-14802174D02*
X12734467Y-14764079D01*
X12734467Y-14764079D02*
X12743991Y-14745031D01*
X12743991Y-14745031D02*
X12753515Y-14735508D01*
X12753515Y-14735508D02*
X12772562Y-14725984D01*
X12963039Y-14725984D02*
X12982086Y-14725984D01*
X12982086Y-14725984D02*
X13001134Y-14735508D01*
X13001134Y-14735508D02*
X13010658Y-14745031D01*
X13010658Y-14745031D02*
X13020182Y-14764079D01*
X13020182Y-14764079D02*
X13029705Y-14802174D01*
X13029705Y-14802174D02*
X13029705Y-14849793D01*
X13029705Y-14849793D02*
X13020182Y-14887888D01*
X13020182Y-14887888D02*
X13010658Y-14906936D01*
X13010658Y-14906936D02*
X13001134Y-14916460D01*
X13001134Y-14916460D02*
X12982086Y-14925984D01*
X12982086Y-14925984D02*
X12963039Y-14925984D01*
X12963039Y-14925984D02*
X12943991Y-14916460D01*
X12943991Y-14916460D02*
X12934467Y-14906936D01*
X12934467Y-14906936D02*
X12924943Y-14887888D01*
X12924943Y-14887888D02*
X12915420Y-14849793D01*
X12915420Y-14849793D02*
X12915420Y-14802174D01*
X12915420Y-14802174D02*
X12924943Y-14764079D01*
X12924943Y-14764079D02*
X12934467Y-14745031D01*
X12934467Y-14745031D02*
X12943991Y-14735508D01*
X12943991Y-14735508D02*
X12963039Y-14725984D01*
X13115420Y-14925984D02*
X13115420Y-14792650D01*
X13115420Y-14811698D02*
X13124943Y-14802174D01*
X13124943Y-14802174D02*
X13143991Y-14792650D01*
X13143991Y-14792650D02*
X13172563Y-14792650D01*
X13172563Y-14792650D02*
X13191610Y-14802174D01*
X13191610Y-14802174D02*
X13201134Y-14821222D01*
X13201134Y-14821222D02*
X13201134Y-14925984D01*
X13201134Y-14821222D02*
X13210658Y-14802174D01*
X13210658Y-14802174D02*
X13229705Y-14792650D01*
X13229705Y-14792650D02*
X13258277Y-14792650D01*
X13258277Y-14792650D02*
X13277324Y-14802174D01*
X13277324Y-14802174D02*
X13286848Y-14821222D01*
X13286848Y-14821222D02*
X13286848Y-14925984D01*
X13382086Y-14925984D02*
X13382086Y-14792650D01*
X13382086Y-14811698D02*
X13391610Y-14802174D01*
X13391610Y-14802174D02*
X13410658Y-14792650D01*
X13410658Y-14792650D02*
X13439229Y-14792650D01*
X13439229Y-14792650D02*
X13458277Y-14802174D01*
X13458277Y-14802174D02*
X13467801Y-14821222D01*
X13467801Y-14821222D02*
X13467801Y-14925984D01*
X13467801Y-14821222D02*
X13477324Y-14802174D01*
X13477324Y-14802174D02*
X13496372Y-14792650D01*
X13496372Y-14792650D02*
X13524943Y-14792650D01*
X13524943Y-14792650D02*
X13543991Y-14802174D01*
X13543991Y-14802174D02*
X13553515Y-14821222D01*
X13553515Y-14821222D02*
X13553515Y-14925984D01*
X13943991Y-14716460D02*
X13772563Y-14973603D01*
X14201134Y-14725984D02*
X14220182Y-14725984D01*
X14220182Y-14725984D02*
X14239229Y-14735508D01*
X14239229Y-14735508D02*
X14248753Y-14745031D01*
X14248753Y-14745031D02*
X14258277Y-14764079D01*
X14258277Y-14764079D02*
X14267801Y-14802174D01*
X14267801Y-14802174D02*
X14267801Y-14849793D01*
X14267801Y-14849793D02*
X14258277Y-14887888D01*
X14258277Y-14887888D02*
X14248753Y-14906936D01*
X14248753Y-14906936D02*
X14239229Y-14916460D01*
X14239229Y-14916460D02*
X14220182Y-14925984D01*
X14220182Y-14925984D02*
X14201134Y-14925984D01*
X14201134Y-14925984D02*
X14182086Y-14916460D01*
X14182086Y-14916460D02*
X14172563Y-14906936D01*
X14172563Y-14906936D02*
X14163039Y-14887888D01*
X14163039Y-14887888D02*
X14153515Y-14849793D01*
X14153515Y-14849793D02*
X14153515Y-14802174D01*
X14153515Y-14802174D02*
X14163039Y-14764079D01*
X14163039Y-14764079D02*
X14172563Y-14745031D01*
X14172563Y-14745031D02*
X14182086Y-14735508D01*
X14182086Y-14735508D02*
X14201134Y-14725984D01*
X14353515Y-14906936D02*
X14363039Y-14916460D01*
X14363039Y-14916460D02*
X14353515Y-14925984D01*
X14353515Y-14925984D02*
X14343991Y-14916460D01*
X14343991Y-14916460D02*
X14353515Y-14906936D01*
X14353515Y-14906936D02*
X14353515Y-14925984D01*
X14486848Y-14725984D02*
X14505896Y-14725984D01*
X14505896Y-14725984D02*
X14524944Y-14735508D01*
X14524944Y-14735508D02*
X14534467Y-14745031D01*
X14534467Y-14745031D02*
X14543991Y-14764079D01*
X14543991Y-14764079D02*
X14553515Y-14802174D01*
X14553515Y-14802174D02*
X14553515Y-14849793D01*
X14553515Y-14849793D02*
X14543991Y-14887888D01*
X14543991Y-14887888D02*
X14534467Y-14906936D01*
X14534467Y-14906936D02*
X14524944Y-14916460D01*
X14524944Y-14916460D02*
X14505896Y-14925984D01*
X14505896Y-14925984D02*
X14486848Y-14925984D01*
X14486848Y-14925984D02*
X14467801Y-14916460D01*
X14467801Y-14916460D02*
X14458277Y-14906936D01*
X14458277Y-14906936D02*
X14448753Y-14887888D01*
X14448753Y-14887888D02*
X14439229Y-14849793D01*
X14439229Y-14849793D02*
X14439229Y-14802174D01*
X14439229Y-14802174D02*
X14448753Y-14764079D01*
X14448753Y-14764079D02*
X14458277Y-14745031D01*
X14458277Y-14745031D02*
X14467801Y-14735508D01*
X14467801Y-14735508D02*
X14486848Y-14725984D01*
X14620182Y-14725984D02*
X14743991Y-14725984D01*
X14743991Y-14725984D02*
X14677325Y-14802174D01*
X14677325Y-14802174D02*
X14705896Y-14802174D01*
X14705896Y-14802174D02*
X14724944Y-14811698D01*
X14724944Y-14811698D02*
X14734467Y-14821222D01*
X14734467Y-14821222D02*
X14743991Y-14840269D01*
X14743991Y-14840269D02*
X14743991Y-14887888D01*
X14743991Y-14887888D02*
X14734467Y-14906936D01*
X14734467Y-14906936D02*
X14724944Y-14916460D01*
X14724944Y-14916460D02*
X14705896Y-14925984D01*
X14705896Y-14925984D02*
X14648753Y-14925984D01*
X14648753Y-14925984D02*
X14629706Y-14916460D01*
X14629706Y-14916460D02*
X14620182Y-14906936D01*
X14839229Y-14925984D02*
X14877325Y-14925984D01*
X14877325Y-14925984D02*
X14896372Y-14916460D01*
X14896372Y-14916460D02*
X14905896Y-14906936D01*
X14905896Y-14906936D02*
X14924944Y-14878365D01*
X14924944Y-14878365D02*
X14934467Y-14840269D01*
X14934467Y-14840269D02*
X14934467Y-14764079D01*
X14934467Y-14764079D02*
X14924944Y-14745031D01*
X14924944Y-14745031D02*
X14915420Y-14735508D01*
X14915420Y-14735508D02*
X14896372Y-14725984D01*
X14896372Y-14725984D02*
X14858277Y-14725984D01*
X14858277Y-14725984D02*
X14839229Y-14735508D01*
X14839229Y-14735508D02*
X14829706Y-14745031D01*
X14829706Y-14745031D02*
X14820182Y-14764079D01*
X14820182Y-14764079D02*
X14820182Y-14811698D01*
X14820182Y-14811698D02*
X14829706Y-14830746D01*
X14829706Y-14830746D02*
X14839229Y-14840269D01*
X14839229Y-14840269D02*
X14858277Y-14849793D01*
X14858277Y-14849793D02*
X14896372Y-14849793D01*
X14896372Y-14849793D02*
X14915420Y-14840269D01*
X14915420Y-14840269D02*
X14924944Y-14830746D01*
X14924944Y-14830746D02*
X14934467Y-14811698D01*
X15105896Y-14792650D02*
X15105896Y-14925984D01*
X15058277Y-14716460D02*
X15010658Y-14859317D01*
X15010658Y-14859317D02*
X15134467Y-14859317D01*
X15201134Y-14725984D02*
X15201134Y-14764079D01*
X15277325Y-14725984D02*
X15277325Y-14764079D01*
X15572563Y-15002174D02*
X15563039Y-14992650D01*
X15563039Y-14992650D02*
X15543991Y-14964079D01*
X15543991Y-14964079D02*
X15534468Y-14945031D01*
X15534468Y-14945031D02*
X15524944Y-14916460D01*
X15524944Y-14916460D02*
X15515420Y-14868841D01*
X15515420Y-14868841D02*
X15515420Y-14830746D01*
X15515420Y-14830746D02*
X15524944Y-14783127D01*
X15524944Y-14783127D02*
X15534468Y-14754555D01*
X15534468Y-14754555D02*
X15543991Y-14735508D01*
X15543991Y-14735508D02*
X15563039Y-14706936D01*
X15563039Y-14706936D02*
X15572563Y-14697412D01*
X15753515Y-14925984D02*
X15639229Y-14925984D01*
X15696372Y-14925984D02*
X15696372Y-14725984D01*
X15696372Y-14725984D02*
X15677325Y-14754555D01*
X15677325Y-14754555D02*
X15658277Y-14773603D01*
X15658277Y-14773603D02*
X15639229Y-14783127D01*
X15877325Y-14725984D02*
X15896372Y-14725984D01*
X15896372Y-14725984D02*
X15915420Y-14735508D01*
X15915420Y-14735508D02*
X15924944Y-14745031D01*
X15924944Y-14745031D02*
X15934468Y-14764079D01*
X15934468Y-14764079D02*
X15943991Y-14802174D01*
X15943991Y-14802174D02*
X15943991Y-14849793D01*
X15943991Y-14849793D02*
X15934468Y-14887888D01*
X15934468Y-14887888D02*
X15924944Y-14906936D01*
X15924944Y-14906936D02*
X15915420Y-14916460D01*
X15915420Y-14916460D02*
X15896372Y-14925984D01*
X15896372Y-14925984D02*
X15877325Y-14925984D01*
X15877325Y-14925984D02*
X15858277Y-14916460D01*
X15858277Y-14916460D02*
X15848753Y-14906936D01*
X15848753Y-14906936D02*
X15839229Y-14887888D01*
X15839229Y-14887888D02*
X15829706Y-14849793D01*
X15829706Y-14849793D02*
X15829706Y-14802174D01*
X15829706Y-14802174D02*
X15839229Y-14764079D01*
X15839229Y-14764079D02*
X15848753Y-14745031D01*
X15848753Y-14745031D02*
X15858277Y-14735508D01*
X15858277Y-14735508D02*
X15877325Y-14725984D01*
X16182087Y-14925984D02*
X16182087Y-14725984D01*
X16267801Y-14925984D02*
X16267801Y-14821222D01*
X16267801Y-14821222D02*
X16258277Y-14802174D01*
X16258277Y-14802174D02*
X16239230Y-14792650D01*
X16239230Y-14792650D02*
X16210658Y-14792650D01*
X16210658Y-14792650D02*
X16191610Y-14802174D01*
X16191610Y-14802174D02*
X16182087Y-14811698D01*
X16391610Y-14925984D02*
X16372563Y-14916460D01*
X16372563Y-14916460D02*
X16363039Y-14906936D01*
X16363039Y-14906936D02*
X16353515Y-14887888D01*
X16353515Y-14887888D02*
X16353515Y-14830746D01*
X16353515Y-14830746D02*
X16363039Y-14811698D01*
X16363039Y-14811698D02*
X16372563Y-14802174D01*
X16372563Y-14802174D02*
X16391610Y-14792650D01*
X16391610Y-14792650D02*
X16420182Y-14792650D01*
X16420182Y-14792650D02*
X16439230Y-14802174D01*
X16439230Y-14802174D02*
X16448753Y-14811698D01*
X16448753Y-14811698D02*
X16458277Y-14830746D01*
X16458277Y-14830746D02*
X16458277Y-14887888D01*
X16458277Y-14887888D02*
X16448753Y-14906936D01*
X16448753Y-14906936D02*
X16439230Y-14916460D01*
X16439230Y-14916460D02*
X16420182Y-14925984D01*
X16420182Y-14925984D02*
X16391610Y-14925984D01*
X16572563Y-14925984D02*
X16553515Y-14916460D01*
X16553515Y-14916460D02*
X16543991Y-14897412D01*
X16543991Y-14897412D02*
X16543991Y-14725984D01*
X16724944Y-14916460D02*
X16705896Y-14925984D01*
X16705896Y-14925984D02*
X16667801Y-14925984D01*
X16667801Y-14925984D02*
X16648753Y-14916460D01*
X16648753Y-14916460D02*
X16639230Y-14897412D01*
X16639230Y-14897412D02*
X16639230Y-14821222D01*
X16639230Y-14821222D02*
X16648753Y-14802174D01*
X16648753Y-14802174D02*
X16667801Y-14792650D01*
X16667801Y-14792650D02*
X16705896Y-14792650D01*
X16705896Y-14792650D02*
X16724944Y-14802174D01*
X16724944Y-14802174D02*
X16734468Y-14821222D01*
X16734468Y-14821222D02*
X16734468Y-14840269D01*
X16734468Y-14840269D02*
X16639230Y-14859317D01*
X16810658Y-14916460D02*
X16829706Y-14925984D01*
X16829706Y-14925984D02*
X16867801Y-14925984D01*
X16867801Y-14925984D02*
X16886849Y-14916460D01*
X16886849Y-14916460D02*
X16896373Y-14897412D01*
X16896373Y-14897412D02*
X16896373Y-14887888D01*
X16896373Y-14887888D02*
X16886849Y-14868841D01*
X16886849Y-14868841D02*
X16867801Y-14859317D01*
X16867801Y-14859317D02*
X16839230Y-14859317D01*
X16839230Y-14859317D02*
X16820182Y-14849793D01*
X16820182Y-14849793D02*
X16810658Y-14830746D01*
X16810658Y-14830746D02*
X16810658Y-14821222D01*
X16810658Y-14821222D02*
X16820182Y-14802174D01*
X16820182Y-14802174D02*
X16839230Y-14792650D01*
X16839230Y-14792650D02*
X16867801Y-14792650D01*
X16867801Y-14792650D02*
X16886849Y-14802174D01*
X16963039Y-15002174D02*
X16972563Y-14992650D01*
X16972563Y-14992650D02*
X16991611Y-14964079D01*
X16991611Y-14964079D02*
X17001134Y-14945031D01*
X17001134Y-14945031D02*
X17010658Y-14916460D01*
X17010658Y-14916460D02*
X17020182Y-14868841D01*
X17020182Y-14868841D02*
X17020182Y-14830746D01*
X17020182Y-14830746D02*
X17010658Y-14783127D01*
X17010658Y-14783127D02*
X17001134Y-14754555D01*
X17001134Y-14754555D02*
X16991611Y-14735508D01*
X16991611Y-14735508D02*
X16972563Y-14706936D01*
X16972563Y-14706936D02*
X16963039Y-14697412D01*
X11897500Y-15198500D02*
X11997500Y-15098500D01*
X11897500Y-14998500D01*
X11797500Y-15098500D01*
X11897500Y-15198500D01*
X12248753Y-15009031D02*
X12258277Y-14999508D01*
X12258277Y-14999508D02*
X12277324Y-14989984D01*
X12277324Y-14989984D02*
X12324943Y-14989984D01*
X12324943Y-14989984D02*
X12343991Y-14999508D01*
X12343991Y-14999508D02*
X12353515Y-15009031D01*
X12353515Y-15009031D02*
X12363039Y-15028079D01*
X12363039Y-15028079D02*
X12363039Y-15047127D01*
X12363039Y-15047127D02*
X12353515Y-15075698D01*
X12353515Y-15075698D02*
X12239229Y-15189984D01*
X12239229Y-15189984D02*
X12363039Y-15189984D01*
X12448753Y-15170936D02*
X12458277Y-15180460D01*
X12458277Y-15180460D02*
X12448753Y-15189984D01*
X12448753Y-15189984D02*
X12439229Y-15180460D01*
X12439229Y-15180460D02*
X12448753Y-15170936D01*
X12448753Y-15170936D02*
X12448753Y-15189984D01*
X12524943Y-14989984D02*
X12658277Y-14989984D01*
X12658277Y-14989984D02*
X12572562Y-15189984D01*
X12772562Y-14989984D02*
X12791610Y-14989984D01*
X12791610Y-14989984D02*
X12810658Y-14999508D01*
X12810658Y-14999508D02*
X12820182Y-15009031D01*
X12820182Y-15009031D02*
X12829705Y-15028079D01*
X12829705Y-15028079D02*
X12839229Y-15066174D01*
X12839229Y-15066174D02*
X12839229Y-15113793D01*
X12839229Y-15113793D02*
X12829705Y-15151888D01*
X12829705Y-15151888D02*
X12820182Y-15170936D01*
X12820182Y-15170936D02*
X12810658Y-15180460D01*
X12810658Y-15180460D02*
X12791610Y-15189984D01*
X12791610Y-15189984D02*
X12772562Y-15189984D01*
X12772562Y-15189984D02*
X12753515Y-15180460D01*
X12753515Y-15180460D02*
X12743991Y-15170936D01*
X12743991Y-15170936D02*
X12734467Y-15151888D01*
X12734467Y-15151888D02*
X12724943Y-15113793D01*
X12724943Y-15113793D02*
X12724943Y-15066174D01*
X12724943Y-15066174D02*
X12734467Y-15028079D01*
X12734467Y-15028079D02*
X12743991Y-15009031D01*
X12743991Y-15009031D02*
X12753515Y-14999508D01*
X12753515Y-14999508D02*
X12772562Y-14989984D01*
X12963039Y-14989984D02*
X12982086Y-14989984D01*
X12982086Y-14989984D02*
X13001134Y-14999508D01*
X13001134Y-14999508D02*
X13010658Y-15009031D01*
X13010658Y-15009031D02*
X13020182Y-15028079D01*
X13020182Y-15028079D02*
X13029705Y-15066174D01*
X13029705Y-15066174D02*
X13029705Y-15113793D01*
X13029705Y-15113793D02*
X13020182Y-15151888D01*
X13020182Y-15151888D02*
X13010658Y-15170936D01*
X13010658Y-15170936D02*
X13001134Y-15180460D01*
X13001134Y-15180460D02*
X12982086Y-15189984D01*
X12982086Y-15189984D02*
X12963039Y-15189984D01*
X12963039Y-15189984D02*
X12943991Y-15180460D01*
X12943991Y-15180460D02*
X12934467Y-15170936D01*
X12934467Y-15170936D02*
X12924943Y-15151888D01*
X12924943Y-15151888D02*
X12915420Y-15113793D01*
X12915420Y-15113793D02*
X12915420Y-15066174D01*
X12915420Y-15066174D02*
X12924943Y-15028079D01*
X12924943Y-15028079D02*
X12934467Y-15009031D01*
X12934467Y-15009031D02*
X12943991Y-14999508D01*
X12943991Y-14999508D02*
X12963039Y-14989984D01*
X13115420Y-15189984D02*
X13115420Y-15056650D01*
X13115420Y-15075698D02*
X13124943Y-15066174D01*
X13124943Y-15066174D02*
X13143991Y-15056650D01*
X13143991Y-15056650D02*
X13172563Y-15056650D01*
X13172563Y-15056650D02*
X13191610Y-15066174D01*
X13191610Y-15066174D02*
X13201134Y-15085222D01*
X13201134Y-15085222D02*
X13201134Y-15189984D01*
X13201134Y-15085222D02*
X13210658Y-15066174D01*
X13210658Y-15066174D02*
X13229705Y-15056650D01*
X13229705Y-15056650D02*
X13258277Y-15056650D01*
X13258277Y-15056650D02*
X13277324Y-15066174D01*
X13277324Y-15066174D02*
X13286848Y-15085222D01*
X13286848Y-15085222D02*
X13286848Y-15189984D01*
X13382086Y-15189984D02*
X13382086Y-15056650D01*
X13382086Y-15075698D02*
X13391610Y-15066174D01*
X13391610Y-15066174D02*
X13410658Y-15056650D01*
X13410658Y-15056650D02*
X13439229Y-15056650D01*
X13439229Y-15056650D02*
X13458277Y-15066174D01*
X13458277Y-15066174D02*
X13467801Y-15085222D01*
X13467801Y-15085222D02*
X13467801Y-15189984D01*
X13467801Y-15085222D02*
X13477324Y-15066174D01*
X13477324Y-15066174D02*
X13496372Y-15056650D01*
X13496372Y-15056650D02*
X13524943Y-15056650D01*
X13524943Y-15056650D02*
X13543991Y-15066174D01*
X13543991Y-15066174D02*
X13553515Y-15085222D01*
X13553515Y-15085222D02*
X13553515Y-15189984D01*
X13943991Y-14980460D02*
X13772563Y-15237603D01*
X14201134Y-14989984D02*
X14220182Y-14989984D01*
X14220182Y-14989984D02*
X14239229Y-14999508D01*
X14239229Y-14999508D02*
X14248753Y-15009031D01*
X14248753Y-15009031D02*
X14258277Y-15028079D01*
X14258277Y-15028079D02*
X14267801Y-15066174D01*
X14267801Y-15066174D02*
X14267801Y-15113793D01*
X14267801Y-15113793D02*
X14258277Y-15151888D01*
X14258277Y-15151888D02*
X14248753Y-15170936D01*
X14248753Y-15170936D02*
X14239229Y-15180460D01*
X14239229Y-15180460D02*
X14220182Y-15189984D01*
X14220182Y-15189984D02*
X14201134Y-15189984D01*
X14201134Y-15189984D02*
X14182086Y-15180460D01*
X14182086Y-15180460D02*
X14172563Y-15170936D01*
X14172563Y-15170936D02*
X14163039Y-15151888D01*
X14163039Y-15151888D02*
X14153515Y-15113793D01*
X14153515Y-15113793D02*
X14153515Y-15066174D01*
X14153515Y-15066174D02*
X14163039Y-15028079D01*
X14163039Y-15028079D02*
X14172563Y-15009031D01*
X14172563Y-15009031D02*
X14182086Y-14999508D01*
X14182086Y-14999508D02*
X14201134Y-14989984D01*
X14353515Y-15170936D02*
X14363039Y-15180460D01*
X14363039Y-15180460D02*
X14353515Y-15189984D01*
X14353515Y-15189984D02*
X14343991Y-15180460D01*
X14343991Y-15180460D02*
X14353515Y-15170936D01*
X14353515Y-15170936D02*
X14353515Y-15189984D01*
X14553515Y-15189984D02*
X14439229Y-15189984D01*
X14496372Y-15189984D02*
X14496372Y-14989984D01*
X14496372Y-14989984D02*
X14477325Y-15018555D01*
X14477325Y-15018555D02*
X14458277Y-15037603D01*
X14458277Y-15037603D02*
X14439229Y-15047127D01*
X14677325Y-14989984D02*
X14696372Y-14989984D01*
X14696372Y-14989984D02*
X14715420Y-14999508D01*
X14715420Y-14999508D02*
X14724944Y-15009031D01*
X14724944Y-15009031D02*
X14734467Y-15028079D01*
X14734467Y-15028079D02*
X14743991Y-15066174D01*
X14743991Y-15066174D02*
X14743991Y-15113793D01*
X14743991Y-15113793D02*
X14734467Y-15151888D01*
X14734467Y-15151888D02*
X14724944Y-15170936D01*
X14724944Y-15170936D02*
X14715420Y-15180460D01*
X14715420Y-15180460D02*
X14696372Y-15189984D01*
X14696372Y-15189984D02*
X14677325Y-15189984D01*
X14677325Y-15189984D02*
X14658277Y-15180460D01*
X14658277Y-15180460D02*
X14648753Y-15170936D01*
X14648753Y-15170936D02*
X14639229Y-15151888D01*
X14639229Y-15151888D02*
X14629706Y-15113793D01*
X14629706Y-15113793D02*
X14629706Y-15066174D01*
X14629706Y-15066174D02*
X14639229Y-15028079D01*
X14639229Y-15028079D02*
X14648753Y-15009031D01*
X14648753Y-15009031D02*
X14658277Y-14999508D01*
X14658277Y-14999508D02*
X14677325Y-14989984D01*
X14915420Y-14989984D02*
X14877325Y-14989984D01*
X14877325Y-14989984D02*
X14858277Y-14999508D01*
X14858277Y-14999508D02*
X14848753Y-15009031D01*
X14848753Y-15009031D02*
X14829706Y-15037603D01*
X14829706Y-15037603D02*
X14820182Y-15075698D01*
X14820182Y-15075698D02*
X14820182Y-15151888D01*
X14820182Y-15151888D02*
X14829706Y-15170936D01*
X14829706Y-15170936D02*
X14839229Y-15180460D01*
X14839229Y-15180460D02*
X14858277Y-15189984D01*
X14858277Y-15189984D02*
X14896372Y-15189984D01*
X14896372Y-15189984D02*
X14915420Y-15180460D01*
X14915420Y-15180460D02*
X14924944Y-15170936D01*
X14924944Y-15170936D02*
X14934467Y-15151888D01*
X14934467Y-15151888D02*
X14934467Y-15104269D01*
X14934467Y-15104269D02*
X14924944Y-15085222D01*
X14924944Y-15085222D02*
X14915420Y-15075698D01*
X14915420Y-15075698D02*
X14896372Y-15066174D01*
X14896372Y-15066174D02*
X14858277Y-15066174D01*
X14858277Y-15066174D02*
X14839229Y-15075698D01*
X14839229Y-15075698D02*
X14829706Y-15085222D01*
X14829706Y-15085222D02*
X14820182Y-15104269D01*
X15001134Y-14989984D02*
X15124944Y-14989984D01*
X15124944Y-14989984D02*
X15058277Y-15066174D01*
X15058277Y-15066174D02*
X15086848Y-15066174D01*
X15086848Y-15066174D02*
X15105896Y-15075698D01*
X15105896Y-15075698D02*
X15115420Y-15085222D01*
X15115420Y-15085222D02*
X15124944Y-15104269D01*
X15124944Y-15104269D02*
X15124944Y-15151888D01*
X15124944Y-15151888D02*
X15115420Y-15170936D01*
X15115420Y-15170936D02*
X15105896Y-15180460D01*
X15105896Y-15180460D02*
X15086848Y-15189984D01*
X15086848Y-15189984D02*
X15029706Y-15189984D01*
X15029706Y-15189984D02*
X15010658Y-15180460D01*
X15010658Y-15180460D02*
X15001134Y-15170936D01*
X15201134Y-14989984D02*
X15201134Y-15028079D01*
X15277325Y-14989984D02*
X15277325Y-15028079D01*
X15572563Y-15266174D02*
X15563039Y-15256650D01*
X15563039Y-15256650D02*
X15543991Y-15228079D01*
X15543991Y-15228079D02*
X15534468Y-15209031D01*
X15534468Y-15209031D02*
X15524944Y-15180460D01*
X15524944Y-15180460D02*
X15515420Y-15132841D01*
X15515420Y-15132841D02*
X15515420Y-15094746D01*
X15515420Y-15094746D02*
X15524944Y-15047127D01*
X15524944Y-15047127D02*
X15534468Y-15018555D01*
X15534468Y-15018555D02*
X15543991Y-14999508D01*
X15543991Y-14999508D02*
X15563039Y-14970936D01*
X15563039Y-14970936D02*
X15572563Y-14961412D01*
X15734468Y-15056650D02*
X15734468Y-15189984D01*
X15686848Y-14980460D02*
X15639229Y-15123317D01*
X15639229Y-15123317D02*
X15763039Y-15123317D01*
X15991610Y-15189984D02*
X15991610Y-14989984D01*
X16077325Y-15189984D02*
X16077325Y-15085222D01*
X16077325Y-15085222D02*
X16067801Y-15066174D01*
X16067801Y-15066174D02*
X16048753Y-15056650D01*
X16048753Y-15056650D02*
X16020182Y-15056650D01*
X16020182Y-15056650D02*
X16001134Y-15066174D01*
X16001134Y-15066174D02*
X15991610Y-15075698D01*
X16201134Y-15189984D02*
X16182087Y-15180460D01*
X16182087Y-15180460D02*
X16172563Y-15170936D01*
X16172563Y-15170936D02*
X16163039Y-15151888D01*
X16163039Y-15151888D02*
X16163039Y-15094746D01*
X16163039Y-15094746D02*
X16172563Y-15075698D01*
X16172563Y-15075698D02*
X16182087Y-15066174D01*
X16182087Y-15066174D02*
X16201134Y-15056650D01*
X16201134Y-15056650D02*
X16229706Y-15056650D01*
X16229706Y-15056650D02*
X16248753Y-15066174D01*
X16248753Y-15066174D02*
X16258277Y-15075698D01*
X16258277Y-15075698D02*
X16267801Y-15094746D01*
X16267801Y-15094746D02*
X16267801Y-15151888D01*
X16267801Y-15151888D02*
X16258277Y-15170936D01*
X16258277Y-15170936D02*
X16248753Y-15180460D01*
X16248753Y-15180460D02*
X16229706Y-15189984D01*
X16229706Y-15189984D02*
X16201134Y-15189984D01*
X16382087Y-15189984D02*
X16363039Y-15180460D01*
X16363039Y-15180460D02*
X16353515Y-15161412D01*
X16353515Y-15161412D02*
X16353515Y-14989984D01*
X16534468Y-15180460D02*
X16515420Y-15189984D01*
X16515420Y-15189984D02*
X16477325Y-15189984D01*
X16477325Y-15189984D02*
X16458277Y-15180460D01*
X16458277Y-15180460D02*
X16448753Y-15161412D01*
X16448753Y-15161412D02*
X16448753Y-15085222D01*
X16448753Y-15085222D02*
X16458277Y-15066174D01*
X16458277Y-15066174D02*
X16477325Y-15056650D01*
X16477325Y-15056650D02*
X16515420Y-15056650D01*
X16515420Y-15056650D02*
X16534468Y-15066174D01*
X16534468Y-15066174D02*
X16543991Y-15085222D01*
X16543991Y-15085222D02*
X16543991Y-15104269D01*
X16543991Y-15104269D02*
X16448753Y-15123317D01*
X16620182Y-15180460D02*
X16639230Y-15189984D01*
X16639230Y-15189984D02*
X16677325Y-15189984D01*
X16677325Y-15189984D02*
X16696372Y-15180460D01*
X16696372Y-15180460D02*
X16705896Y-15161412D01*
X16705896Y-15161412D02*
X16705896Y-15151888D01*
X16705896Y-15151888D02*
X16696372Y-15132841D01*
X16696372Y-15132841D02*
X16677325Y-15123317D01*
X16677325Y-15123317D02*
X16648753Y-15123317D01*
X16648753Y-15123317D02*
X16629706Y-15113793D01*
X16629706Y-15113793D02*
X16620182Y-15094746D01*
X16620182Y-15094746D02*
X16620182Y-15085222D01*
X16620182Y-15085222D02*
X16629706Y-15066174D01*
X16629706Y-15066174D02*
X16648753Y-15056650D01*
X16648753Y-15056650D02*
X16677325Y-15056650D01*
X16677325Y-15056650D02*
X16696372Y-15066174D01*
X16772563Y-15266174D02*
X16782087Y-15256650D01*
X16782087Y-15256650D02*
X16801134Y-15228079D01*
X16801134Y-15228079D02*
X16810658Y-15209031D01*
X16810658Y-15209031D02*
X16820182Y-15180460D01*
X16820182Y-15180460D02*
X16829706Y-15132841D01*
X16829706Y-15132841D02*
X16829706Y-15094746D01*
X16829706Y-15094746D02*
X16820182Y-15047127D01*
X16820182Y-15047127D02*
X16810658Y-15018555D01*
X16810658Y-15018555D02*
X16801134Y-14999508D01*
X16801134Y-14999508D02*
X16782087Y-14970936D01*
X16782087Y-14970936D02*
X16772563Y-14961412D01*
M02*
