G04 #@! TF.GenerationSoftware,KiCad,Pcbnew,10.0.6*
G04 #@! TF.CreationDate,2026-09-08T22:16:38+09:00*
G04 #@! TF.ProjectId,XIAO-ESP32-S3-SS,5849414f-2d45-4535-9033-322d53332d53,rev?*
G04 #@! TF.SameCoordinates,Original*
G04 #@! TF.FileFunction,Legend,Top*
G04 #@! TF.FilePolarity,Positive*
%FSLAX46Y46*%
G04 Gerber Fmt 4.6, Leading zero omitted, Abs format (unit mm)*
G04 Created by KiCad (PCBNEW 10.0.6) date 2026-09-08 22:16:38*
%MOMM*%
%LPD*%
G01*
G04 APERTURE LIST*
%ADD10C,0.200000*%
%ADD11C,0.106680*%
%ADD12C,0.150000*%
%ADD13C,0.100000*%
%ADD14C,0.127000*%
%ADD15C,0.504000*%
%ADD16C,0.120000*%
G04 APERTURE END LIST*
D10*
G36*
X149390768Y-127305009D02*
G01*
X146210483Y-127305009D01*
X146210483Y-126695357D01*
X146321594Y-126695357D01*
X146321594Y-126734375D01*
X146336526Y-126770423D01*
X146364116Y-126798013D01*
X146400164Y-126812945D01*
X146419673Y-126814866D01*
X146700625Y-126814866D01*
X146700625Y-127095819D01*
X146702546Y-127115328D01*
X146717478Y-127151376D01*
X146745068Y-127178966D01*
X146781116Y-127193898D01*
X146820134Y-127193898D01*
X146856182Y-127178966D01*
X146883772Y-127151376D01*
X146898704Y-127115328D01*
X146900625Y-127095819D01*
X146900625Y-126814866D01*
X147181578Y-126814866D01*
X147201087Y-126812945D01*
X147237135Y-126798013D01*
X147264725Y-126770423D01*
X147279657Y-126734375D01*
X147279657Y-126695357D01*
X148321594Y-126695357D01*
X148321594Y-126734375D01*
X148336526Y-126770423D01*
X148364116Y-126798013D01*
X148400164Y-126812945D01*
X148419673Y-126814866D01*
X149181578Y-126814866D01*
X149201087Y-126812945D01*
X149237135Y-126798013D01*
X149264725Y-126770423D01*
X149279657Y-126734375D01*
X149279657Y-126695357D01*
X149264725Y-126659309D01*
X149237135Y-126631719D01*
X149201087Y-126616787D01*
X149181578Y-126614866D01*
X148419673Y-126614866D01*
X148400164Y-126616787D01*
X148364116Y-126631719D01*
X148336526Y-126659309D01*
X148321594Y-126695357D01*
X147279657Y-126695357D01*
X147264725Y-126659309D01*
X147237135Y-126631719D01*
X147201087Y-126616787D01*
X147181578Y-126614866D01*
X146900625Y-126614866D01*
X146900625Y-126333914D01*
X146898704Y-126314405D01*
X146883772Y-126278357D01*
X146856182Y-126250767D01*
X146820134Y-126235835D01*
X146781116Y-126235835D01*
X146745068Y-126250767D01*
X146717478Y-126278357D01*
X146702546Y-126314405D01*
X146700625Y-126333914D01*
X146700625Y-126614866D01*
X146419673Y-126614866D01*
X146400164Y-126616787D01*
X146364116Y-126631719D01*
X146336526Y-126659309D01*
X146321594Y-126695357D01*
X146210483Y-126695357D01*
X146210483Y-126124724D01*
X149390768Y-126124724D01*
X149390768Y-127305009D01*
G37*
G36*
X128198330Y-84518056D02*
G01*
X126776108Y-84518056D01*
X126776108Y-83878374D01*
X126887219Y-83878374D01*
X126887219Y-84116469D01*
X126889140Y-84135978D01*
X126890515Y-84139298D01*
X126890770Y-84142882D01*
X126897776Y-84161190D01*
X126945395Y-84256428D01*
X126950680Y-84264824D01*
X126951691Y-84267264D01*
X126953944Y-84270010D01*
X126955838Y-84273018D01*
X126957832Y-84274747D01*
X126964127Y-84282418D01*
X127011746Y-84330036D01*
X127019412Y-84336328D01*
X127021145Y-84338326D01*
X127024153Y-84340219D01*
X127026899Y-84342473D01*
X127029339Y-84343483D01*
X127037736Y-84348769D01*
X127132973Y-84396388D01*
X127151282Y-84403394D01*
X127154865Y-84403648D01*
X127158186Y-84405024D01*
X127177695Y-84406945D01*
X127272933Y-84406945D01*
X127292442Y-84405024D01*
X127295762Y-84403648D01*
X127299346Y-84403394D01*
X127317654Y-84396388D01*
X127412892Y-84348769D01*
X127421288Y-84343483D01*
X127423728Y-84342473D01*
X127426474Y-84340219D01*
X127429482Y-84338326D01*
X127431211Y-84336331D01*
X127438882Y-84330037D01*
X127486500Y-84282418D01*
X127492792Y-84274751D01*
X127494790Y-84273019D01*
X127496683Y-84270010D01*
X127498937Y-84267265D01*
X127499947Y-84264824D01*
X127505233Y-84256428D01*
X127552852Y-84161191D01*
X127553398Y-84159762D01*
X127553828Y-84159183D01*
X127556749Y-84151006D01*
X127559858Y-84142882D01*
X127559909Y-84142161D01*
X127560423Y-84140723D01*
X127605379Y-83960897D01*
X127640833Y-83889990D01*
X127665501Y-83865321D01*
X127725111Y-83835517D01*
X127773135Y-83835517D01*
X127832746Y-83865323D01*
X127857414Y-83889990D01*
X127887219Y-83949600D01*
X127887219Y-84147861D01*
X127844732Y-84275322D01*
X127840385Y-84294438D01*
X127843151Y-84333358D01*
X127860601Y-84368257D01*
X127890077Y-84393822D01*
X127927093Y-84406160D01*
X127966013Y-84403394D01*
X128000912Y-84385944D01*
X128026477Y-84356468D01*
X128034468Y-84338568D01*
X128082087Y-84195711D01*
X128084286Y-84186038D01*
X128085298Y-84183597D01*
X128085646Y-84180059D01*
X128086434Y-84176596D01*
X128086246Y-84173961D01*
X128087219Y-84164088D01*
X128087219Y-83925993D01*
X128085298Y-83906484D01*
X128083922Y-83903163D01*
X128083668Y-83899580D01*
X128076662Y-83881271D01*
X128029043Y-83786034D01*
X128023757Y-83777637D01*
X128022747Y-83775197D01*
X128020493Y-83772451D01*
X128018600Y-83769443D01*
X128016603Y-83767711D01*
X128010310Y-83760043D01*
X127962690Y-83712425D01*
X127955020Y-83706130D01*
X127953291Y-83704136D01*
X127950286Y-83702244D01*
X127947537Y-83699988D01*
X127945093Y-83698976D01*
X127936701Y-83693693D01*
X127841463Y-83646074D01*
X127823155Y-83639068D01*
X127819571Y-83638813D01*
X127816251Y-83637438D01*
X127796742Y-83635517D01*
X127701504Y-83635517D01*
X127681995Y-83637438D01*
X127678674Y-83638813D01*
X127675091Y-83639068D01*
X127656782Y-83646074D01*
X127561545Y-83693693D01*
X127553148Y-83698978D01*
X127550708Y-83699989D01*
X127547962Y-83702242D01*
X127544954Y-83704136D01*
X127543221Y-83706133D01*
X127535555Y-83712426D01*
X127487936Y-83760044D01*
X127481641Y-83767714D01*
X127479647Y-83769444D01*
X127477753Y-83772451D01*
X127475500Y-83775198D01*
X127474489Y-83777637D01*
X127469204Y-83786034D01*
X127421585Y-83881272D01*
X127421039Y-83882698D01*
X127420609Y-83883279D01*
X127417687Y-83891455D01*
X127414579Y-83899580D01*
X127414527Y-83900302D01*
X127414014Y-83901740D01*
X127369057Y-84081564D01*
X127333604Y-84152471D01*
X127308935Y-84177139D01*
X127249326Y-84206945D01*
X127201302Y-84206945D01*
X127141692Y-84177140D01*
X127117024Y-84152471D01*
X127087219Y-84092861D01*
X127087219Y-83894601D01*
X127129706Y-83767140D01*
X127134053Y-83748025D01*
X127131287Y-83709105D01*
X127113837Y-83674206D01*
X127084361Y-83648641D01*
X127047345Y-83636302D01*
X127008425Y-83639069D01*
X126973526Y-83656518D01*
X126947961Y-83685994D01*
X126939970Y-83703895D01*
X126892351Y-83846751D01*
X126890151Y-83856422D01*
X126889140Y-83858865D01*
X126888791Y-83862403D01*
X126888004Y-83865867D01*
X126888191Y-83868500D01*
X126887219Y-83878374D01*
X126776108Y-83878374D01*
X126776108Y-82144579D01*
X127127235Y-82144579D01*
X127127235Y-82183597D01*
X127142167Y-82219645D01*
X127169757Y-82247235D01*
X127205805Y-82262167D01*
X127225314Y-82264088D01*
X127506266Y-82264088D01*
X127506266Y-82545040D01*
X127508187Y-82564549D01*
X127523119Y-82600597D01*
X127550709Y-82628187D01*
X127586757Y-82643119D01*
X127625775Y-82643119D01*
X127661823Y-82628187D01*
X127689413Y-82600597D01*
X127704345Y-82564549D01*
X127706266Y-82545040D01*
X127706266Y-82264088D01*
X127987219Y-82264088D01*
X128006728Y-82262167D01*
X128042776Y-82247235D01*
X128070366Y-82219645D01*
X128085298Y-82183597D01*
X128085298Y-82144579D01*
X128070366Y-82108531D01*
X128042776Y-82080941D01*
X128006728Y-82066009D01*
X127987219Y-82064088D01*
X127706266Y-82064088D01*
X127706266Y-81783136D01*
X127704345Y-81763627D01*
X127689413Y-81727579D01*
X127661823Y-81699989D01*
X127625775Y-81685057D01*
X127586757Y-81685057D01*
X127550709Y-81699989D01*
X127523119Y-81727579D01*
X127508187Y-81763627D01*
X127506266Y-81783136D01*
X127506266Y-82064088D01*
X127225314Y-82064088D01*
X127205805Y-82066009D01*
X127169757Y-82080941D01*
X127142167Y-82108531D01*
X127127235Y-82144579D01*
X126776108Y-82144579D01*
X126776108Y-80116469D01*
X126887219Y-80116469D01*
X126887219Y-80259326D01*
X126888191Y-80269199D01*
X126888004Y-80271833D01*
X126888791Y-80275296D01*
X126889140Y-80278835D01*
X126890151Y-80281277D01*
X126892351Y-80290949D01*
X126939970Y-80433805D01*
X126947961Y-80451706D01*
X126950316Y-80454421D01*
X126951691Y-80457740D01*
X126964127Y-80472894D01*
X127059365Y-80568132D01*
X127067031Y-80574423D01*
X127068764Y-80576421D01*
X127071775Y-80578316D01*
X127074519Y-80580568D01*
X127076956Y-80581577D01*
X127085355Y-80586864D01*
X127180592Y-80634483D01*
X127182020Y-80635029D01*
X127182600Y-80635459D01*
X127190776Y-80638380D01*
X127198901Y-80641489D01*
X127199621Y-80641540D01*
X127201060Y-80642054D01*
X127391536Y-80689673D01*
X127394917Y-80690173D01*
X127396281Y-80690738D01*
X127403631Y-80691461D01*
X127410929Y-80692541D01*
X127412387Y-80692323D01*
X127415790Y-80692659D01*
X127558647Y-80692659D01*
X127562049Y-80692323D01*
X127563508Y-80692541D01*
X127570805Y-80691461D01*
X127578156Y-80690738D01*
X127579519Y-80690173D01*
X127582901Y-80689673D01*
X127773376Y-80642054D01*
X127774813Y-80641540D01*
X127775536Y-80641489D01*
X127783660Y-80638380D01*
X127791837Y-80635459D01*
X127792417Y-80635028D01*
X127793844Y-80634483D01*
X127889082Y-80586864D01*
X127897474Y-80581581D01*
X127899918Y-80580569D01*
X127902667Y-80578312D01*
X127905672Y-80576421D01*
X127907401Y-80574426D01*
X127915071Y-80568132D01*
X128010311Y-80472894D01*
X128022747Y-80457741D01*
X128024122Y-80454421D01*
X128026477Y-80451706D01*
X128034468Y-80433806D01*
X128082087Y-80290949D01*
X128084286Y-80281276D01*
X128085298Y-80278835D01*
X128085646Y-80275297D01*
X128086434Y-80271834D01*
X128086246Y-80269199D01*
X128087219Y-80259326D01*
X128087219Y-80164088D01*
X128086246Y-80154214D01*
X128086434Y-80151580D01*
X128085646Y-80148116D01*
X128085298Y-80144579D01*
X128084286Y-80142137D01*
X128082087Y-80132465D01*
X128034468Y-79989608D01*
X128026477Y-79971708D01*
X128024122Y-79968992D01*
X128022747Y-79965673D01*
X128010310Y-79950519D01*
X127962690Y-79902901D01*
X127947537Y-79890464D01*
X127922046Y-79879906D01*
X127911489Y-79875533D01*
X127891980Y-79873612D01*
X127558647Y-79873612D01*
X127539138Y-79875533D01*
X127503090Y-79890465D01*
X127475500Y-79918055D01*
X127460568Y-79954103D01*
X127458647Y-79973612D01*
X127458647Y-80164088D01*
X127460568Y-80183597D01*
X127475500Y-80219645D01*
X127503090Y-80247235D01*
X127539138Y-80262167D01*
X127578156Y-80262167D01*
X127614204Y-80247235D01*
X127641794Y-80219645D01*
X127656726Y-80183597D01*
X127658647Y-80164088D01*
X127658647Y-80073612D01*
X127850560Y-80073612D01*
X127852197Y-80075249D01*
X127887219Y-80180314D01*
X127887219Y-80243099D01*
X127852197Y-80348164D01*
X127785127Y-80415234D01*
X127714218Y-80450688D01*
X127546337Y-80492659D01*
X127428099Y-80492659D01*
X127260218Y-80450688D01*
X127189313Y-80415236D01*
X127122240Y-80348163D01*
X127087219Y-80243099D01*
X127087219Y-80140076D01*
X127124281Y-80065953D01*
X127131287Y-80047644D01*
X127134053Y-80008724D01*
X127121714Y-79971708D01*
X127096149Y-79942231D01*
X127061251Y-79924782D01*
X127022331Y-79922017D01*
X126985315Y-79934355D01*
X126955838Y-79959920D01*
X126945395Y-79976510D01*
X126897776Y-80071748D01*
X126890770Y-80090056D01*
X126890515Y-80093639D01*
X126889140Y-80096960D01*
X126887219Y-80116469D01*
X126776108Y-80116469D01*
X126776108Y-79762501D01*
X128198330Y-79762501D01*
X128198330Y-84518056D01*
G37*
G36*
X128198330Y-95440056D02*
G01*
X126776108Y-95440056D01*
X126776108Y-94800374D01*
X126887219Y-94800374D01*
X126887219Y-95038469D01*
X126889140Y-95057978D01*
X126890515Y-95061298D01*
X126890770Y-95064882D01*
X126897776Y-95083190D01*
X126945395Y-95178428D01*
X126950680Y-95186824D01*
X126951691Y-95189264D01*
X126953944Y-95192010D01*
X126955838Y-95195018D01*
X126957832Y-95196747D01*
X126964127Y-95204418D01*
X127011746Y-95252036D01*
X127019412Y-95258328D01*
X127021145Y-95260326D01*
X127024153Y-95262219D01*
X127026899Y-95264473D01*
X127029339Y-95265483D01*
X127037736Y-95270769D01*
X127132973Y-95318388D01*
X127151282Y-95325394D01*
X127154865Y-95325648D01*
X127158186Y-95327024D01*
X127177695Y-95328945D01*
X127272933Y-95328945D01*
X127292442Y-95327024D01*
X127295762Y-95325648D01*
X127299346Y-95325394D01*
X127317654Y-95318388D01*
X127412892Y-95270769D01*
X127421288Y-95265483D01*
X127423728Y-95264473D01*
X127426474Y-95262219D01*
X127429482Y-95260326D01*
X127431211Y-95258331D01*
X127438882Y-95252037D01*
X127486500Y-95204418D01*
X127492792Y-95196751D01*
X127494790Y-95195019D01*
X127496683Y-95192010D01*
X127498937Y-95189265D01*
X127499947Y-95186824D01*
X127505233Y-95178428D01*
X127552852Y-95083191D01*
X127553398Y-95081762D01*
X127553828Y-95081183D01*
X127556749Y-95073006D01*
X127559858Y-95064882D01*
X127559909Y-95064161D01*
X127560423Y-95062723D01*
X127605379Y-94882897D01*
X127640833Y-94811990D01*
X127665501Y-94787321D01*
X127725111Y-94757517D01*
X127773135Y-94757517D01*
X127832746Y-94787323D01*
X127857414Y-94811990D01*
X127887219Y-94871600D01*
X127887219Y-95069861D01*
X127844732Y-95197322D01*
X127840385Y-95216438D01*
X127843151Y-95255358D01*
X127860601Y-95290257D01*
X127890077Y-95315822D01*
X127927093Y-95328160D01*
X127966013Y-95325394D01*
X128000912Y-95307944D01*
X128026477Y-95278468D01*
X128034468Y-95260568D01*
X128082087Y-95117711D01*
X128084286Y-95108038D01*
X128085298Y-95105597D01*
X128085646Y-95102059D01*
X128086434Y-95098596D01*
X128086246Y-95095961D01*
X128087219Y-95086088D01*
X128087219Y-94847993D01*
X128085298Y-94828484D01*
X128083922Y-94825163D01*
X128083668Y-94821580D01*
X128076662Y-94803271D01*
X128029043Y-94708034D01*
X128023757Y-94699637D01*
X128022747Y-94697197D01*
X128020493Y-94694451D01*
X128018600Y-94691443D01*
X128016603Y-94689711D01*
X128010310Y-94682043D01*
X127962690Y-94634425D01*
X127955020Y-94628130D01*
X127953291Y-94626136D01*
X127950286Y-94624244D01*
X127947537Y-94621988D01*
X127945093Y-94620976D01*
X127936701Y-94615693D01*
X127841463Y-94568074D01*
X127823155Y-94561068D01*
X127819571Y-94560813D01*
X127816251Y-94559438D01*
X127796742Y-94557517D01*
X127701504Y-94557517D01*
X127681995Y-94559438D01*
X127678674Y-94560813D01*
X127675091Y-94561068D01*
X127656782Y-94568074D01*
X127561545Y-94615693D01*
X127553148Y-94620978D01*
X127550708Y-94621989D01*
X127547962Y-94624242D01*
X127544954Y-94626136D01*
X127543221Y-94628133D01*
X127535555Y-94634426D01*
X127487936Y-94682044D01*
X127481641Y-94689714D01*
X127479647Y-94691444D01*
X127477753Y-94694451D01*
X127475500Y-94697198D01*
X127474489Y-94699637D01*
X127469204Y-94708034D01*
X127421585Y-94803272D01*
X127421039Y-94804698D01*
X127420609Y-94805279D01*
X127417687Y-94813455D01*
X127414579Y-94821580D01*
X127414527Y-94822302D01*
X127414014Y-94823740D01*
X127369057Y-95003564D01*
X127333604Y-95074471D01*
X127308935Y-95099139D01*
X127249326Y-95128945D01*
X127201302Y-95128945D01*
X127141692Y-95099140D01*
X127117024Y-95074471D01*
X127087219Y-95014861D01*
X127087219Y-94816601D01*
X127129706Y-94689140D01*
X127134053Y-94670025D01*
X127131287Y-94631105D01*
X127113837Y-94596206D01*
X127084361Y-94570641D01*
X127047345Y-94558302D01*
X127008425Y-94561069D01*
X126973526Y-94578518D01*
X126947961Y-94607994D01*
X126939970Y-94625895D01*
X126892351Y-94768751D01*
X126890151Y-94778422D01*
X126889140Y-94780865D01*
X126888791Y-94784403D01*
X126888004Y-94787867D01*
X126888191Y-94790500D01*
X126887219Y-94800374D01*
X126776108Y-94800374D01*
X126776108Y-93066579D01*
X127127235Y-93066579D01*
X127127235Y-93105597D01*
X127142167Y-93141645D01*
X127169757Y-93169235D01*
X127205805Y-93184167D01*
X127225314Y-93186088D01*
X127506266Y-93186088D01*
X127506266Y-93467040D01*
X127508187Y-93486549D01*
X127523119Y-93522597D01*
X127550709Y-93550187D01*
X127586757Y-93565119D01*
X127625775Y-93565119D01*
X127661823Y-93550187D01*
X127689413Y-93522597D01*
X127704345Y-93486549D01*
X127706266Y-93467040D01*
X127706266Y-93186088D01*
X127987219Y-93186088D01*
X128006728Y-93184167D01*
X128042776Y-93169235D01*
X128070366Y-93141645D01*
X128085298Y-93105597D01*
X128085298Y-93066579D01*
X128070366Y-93030531D01*
X128042776Y-93002941D01*
X128006728Y-92988009D01*
X127987219Y-92986088D01*
X127706266Y-92986088D01*
X127706266Y-92705136D01*
X127704345Y-92685627D01*
X127689413Y-92649579D01*
X127661823Y-92621989D01*
X127625775Y-92607057D01*
X127586757Y-92607057D01*
X127550709Y-92621989D01*
X127523119Y-92649579D01*
X127508187Y-92685627D01*
X127506266Y-92705136D01*
X127506266Y-92986088D01*
X127225314Y-92986088D01*
X127205805Y-92988009D01*
X127169757Y-93002941D01*
X127142167Y-93030531D01*
X127127235Y-93066579D01*
X126776108Y-93066579D01*
X126776108Y-91038469D01*
X126887219Y-91038469D01*
X126887219Y-91181326D01*
X126888191Y-91191199D01*
X126888004Y-91193833D01*
X126888791Y-91197296D01*
X126889140Y-91200835D01*
X126890151Y-91203277D01*
X126892351Y-91212949D01*
X126939970Y-91355805D01*
X126947961Y-91373706D01*
X126950316Y-91376421D01*
X126951691Y-91379740D01*
X126964127Y-91394894D01*
X127059365Y-91490132D01*
X127067031Y-91496423D01*
X127068764Y-91498421D01*
X127071775Y-91500316D01*
X127074519Y-91502568D01*
X127076956Y-91503577D01*
X127085355Y-91508864D01*
X127180592Y-91556483D01*
X127182020Y-91557029D01*
X127182600Y-91557459D01*
X127190776Y-91560380D01*
X127198901Y-91563489D01*
X127199621Y-91563540D01*
X127201060Y-91564054D01*
X127391536Y-91611673D01*
X127394917Y-91612173D01*
X127396281Y-91612738D01*
X127403631Y-91613461D01*
X127410929Y-91614541D01*
X127412387Y-91614323D01*
X127415790Y-91614659D01*
X127558647Y-91614659D01*
X127562049Y-91614323D01*
X127563508Y-91614541D01*
X127570805Y-91613461D01*
X127578156Y-91612738D01*
X127579519Y-91612173D01*
X127582901Y-91611673D01*
X127773376Y-91564054D01*
X127774813Y-91563540D01*
X127775536Y-91563489D01*
X127783660Y-91560380D01*
X127791837Y-91557459D01*
X127792417Y-91557028D01*
X127793844Y-91556483D01*
X127889082Y-91508864D01*
X127897474Y-91503581D01*
X127899918Y-91502569D01*
X127902667Y-91500312D01*
X127905672Y-91498421D01*
X127907401Y-91496426D01*
X127915071Y-91490132D01*
X128010311Y-91394894D01*
X128022747Y-91379741D01*
X128024122Y-91376421D01*
X128026477Y-91373706D01*
X128034468Y-91355806D01*
X128082087Y-91212949D01*
X128084286Y-91203276D01*
X128085298Y-91200835D01*
X128085646Y-91197297D01*
X128086434Y-91193834D01*
X128086246Y-91191199D01*
X128087219Y-91181326D01*
X128087219Y-91086088D01*
X128086246Y-91076214D01*
X128086434Y-91073580D01*
X128085646Y-91070116D01*
X128085298Y-91066579D01*
X128084286Y-91064137D01*
X128082087Y-91054465D01*
X128034468Y-90911608D01*
X128026477Y-90893708D01*
X128024122Y-90890992D01*
X128022747Y-90887673D01*
X128010310Y-90872519D01*
X127962690Y-90824901D01*
X127947537Y-90812464D01*
X127922046Y-90801906D01*
X127911489Y-90797533D01*
X127891980Y-90795612D01*
X127558647Y-90795612D01*
X127539138Y-90797533D01*
X127503090Y-90812465D01*
X127475500Y-90840055D01*
X127460568Y-90876103D01*
X127458647Y-90895612D01*
X127458647Y-91086088D01*
X127460568Y-91105597D01*
X127475500Y-91141645D01*
X127503090Y-91169235D01*
X127539138Y-91184167D01*
X127578156Y-91184167D01*
X127614204Y-91169235D01*
X127641794Y-91141645D01*
X127656726Y-91105597D01*
X127658647Y-91086088D01*
X127658647Y-90995612D01*
X127850560Y-90995612D01*
X127852197Y-90997249D01*
X127887219Y-91102314D01*
X127887219Y-91165099D01*
X127852197Y-91270164D01*
X127785127Y-91337234D01*
X127714218Y-91372688D01*
X127546337Y-91414659D01*
X127428099Y-91414659D01*
X127260218Y-91372688D01*
X127189313Y-91337236D01*
X127122240Y-91270163D01*
X127087219Y-91165099D01*
X127087219Y-91062076D01*
X127124281Y-90987953D01*
X127131287Y-90969644D01*
X127134053Y-90930724D01*
X127121714Y-90893708D01*
X127096149Y-90864231D01*
X127061251Y-90846782D01*
X127022331Y-90844017D01*
X126985315Y-90856355D01*
X126955838Y-90881920D01*
X126945395Y-90898510D01*
X126897776Y-90993748D01*
X126890770Y-91012056D01*
X126890515Y-91015639D01*
X126889140Y-91018960D01*
X126887219Y-91038469D01*
X126776108Y-91038469D01*
X126776108Y-90684501D01*
X128198330Y-90684501D01*
X128198330Y-95440056D01*
G37*
G36*
X128198330Y-106362056D02*
G01*
X126776108Y-106362056D01*
X126776108Y-105722374D01*
X126887219Y-105722374D01*
X126887219Y-105960469D01*
X126889140Y-105979978D01*
X126890515Y-105983298D01*
X126890770Y-105986882D01*
X126897776Y-106005190D01*
X126945395Y-106100428D01*
X126950680Y-106108824D01*
X126951691Y-106111264D01*
X126953944Y-106114010D01*
X126955838Y-106117018D01*
X126957832Y-106118747D01*
X126964127Y-106126418D01*
X127011746Y-106174036D01*
X127019412Y-106180328D01*
X127021145Y-106182326D01*
X127024153Y-106184219D01*
X127026899Y-106186473D01*
X127029339Y-106187483D01*
X127037736Y-106192769D01*
X127132973Y-106240388D01*
X127151282Y-106247394D01*
X127154865Y-106247648D01*
X127158186Y-106249024D01*
X127177695Y-106250945D01*
X127272933Y-106250945D01*
X127292442Y-106249024D01*
X127295762Y-106247648D01*
X127299346Y-106247394D01*
X127317654Y-106240388D01*
X127412892Y-106192769D01*
X127421288Y-106187483D01*
X127423728Y-106186473D01*
X127426474Y-106184219D01*
X127429482Y-106182326D01*
X127431211Y-106180331D01*
X127438882Y-106174037D01*
X127486500Y-106126418D01*
X127492792Y-106118751D01*
X127494790Y-106117019D01*
X127496683Y-106114010D01*
X127498937Y-106111265D01*
X127499947Y-106108824D01*
X127505233Y-106100428D01*
X127552852Y-106005191D01*
X127553398Y-106003762D01*
X127553828Y-106003183D01*
X127556749Y-105995006D01*
X127559858Y-105986882D01*
X127559909Y-105986161D01*
X127560423Y-105984723D01*
X127605379Y-105804897D01*
X127640833Y-105733990D01*
X127665501Y-105709321D01*
X127725111Y-105679517D01*
X127773135Y-105679517D01*
X127832746Y-105709323D01*
X127857414Y-105733990D01*
X127887219Y-105793600D01*
X127887219Y-105991861D01*
X127844732Y-106119322D01*
X127840385Y-106138438D01*
X127843151Y-106177358D01*
X127860601Y-106212257D01*
X127890077Y-106237822D01*
X127927093Y-106250160D01*
X127966013Y-106247394D01*
X128000912Y-106229944D01*
X128026477Y-106200468D01*
X128034468Y-106182568D01*
X128082087Y-106039711D01*
X128084286Y-106030038D01*
X128085298Y-106027597D01*
X128085646Y-106024059D01*
X128086434Y-106020596D01*
X128086246Y-106017961D01*
X128087219Y-106008088D01*
X128087219Y-105769993D01*
X128085298Y-105750484D01*
X128083922Y-105747163D01*
X128083668Y-105743580D01*
X128076662Y-105725271D01*
X128029043Y-105630034D01*
X128023757Y-105621637D01*
X128022747Y-105619197D01*
X128020493Y-105616451D01*
X128018600Y-105613443D01*
X128016603Y-105611711D01*
X128010310Y-105604043D01*
X127962690Y-105556425D01*
X127955020Y-105550130D01*
X127953291Y-105548136D01*
X127950286Y-105546244D01*
X127947537Y-105543988D01*
X127945093Y-105542976D01*
X127936701Y-105537693D01*
X127841463Y-105490074D01*
X127823155Y-105483068D01*
X127819571Y-105482813D01*
X127816251Y-105481438D01*
X127796742Y-105479517D01*
X127701504Y-105479517D01*
X127681995Y-105481438D01*
X127678674Y-105482813D01*
X127675091Y-105483068D01*
X127656782Y-105490074D01*
X127561545Y-105537693D01*
X127553148Y-105542978D01*
X127550708Y-105543989D01*
X127547962Y-105546242D01*
X127544954Y-105548136D01*
X127543221Y-105550133D01*
X127535555Y-105556426D01*
X127487936Y-105604044D01*
X127481641Y-105611714D01*
X127479647Y-105613444D01*
X127477753Y-105616451D01*
X127475500Y-105619198D01*
X127474489Y-105621637D01*
X127469204Y-105630034D01*
X127421585Y-105725272D01*
X127421039Y-105726698D01*
X127420609Y-105727279D01*
X127417687Y-105735455D01*
X127414579Y-105743580D01*
X127414527Y-105744302D01*
X127414014Y-105745740D01*
X127369057Y-105925564D01*
X127333604Y-105996471D01*
X127308935Y-106021139D01*
X127249326Y-106050945D01*
X127201302Y-106050945D01*
X127141692Y-106021140D01*
X127117024Y-105996471D01*
X127087219Y-105936861D01*
X127087219Y-105738601D01*
X127129706Y-105611140D01*
X127134053Y-105592025D01*
X127131287Y-105553105D01*
X127113837Y-105518206D01*
X127084361Y-105492641D01*
X127047345Y-105480302D01*
X127008425Y-105483069D01*
X126973526Y-105500518D01*
X126947961Y-105529994D01*
X126939970Y-105547895D01*
X126892351Y-105690751D01*
X126890151Y-105700422D01*
X126889140Y-105702865D01*
X126888791Y-105706403D01*
X126888004Y-105709867D01*
X126888191Y-105712500D01*
X126887219Y-105722374D01*
X126776108Y-105722374D01*
X126776108Y-103988579D01*
X127127235Y-103988579D01*
X127127235Y-104027597D01*
X127142167Y-104063645D01*
X127169757Y-104091235D01*
X127205805Y-104106167D01*
X127225314Y-104108088D01*
X127506266Y-104108088D01*
X127506266Y-104389040D01*
X127508187Y-104408549D01*
X127523119Y-104444597D01*
X127550709Y-104472187D01*
X127586757Y-104487119D01*
X127625775Y-104487119D01*
X127661823Y-104472187D01*
X127689413Y-104444597D01*
X127704345Y-104408549D01*
X127706266Y-104389040D01*
X127706266Y-104108088D01*
X127987219Y-104108088D01*
X128006728Y-104106167D01*
X128042776Y-104091235D01*
X128070366Y-104063645D01*
X128085298Y-104027597D01*
X128085298Y-103988579D01*
X128070366Y-103952531D01*
X128042776Y-103924941D01*
X128006728Y-103910009D01*
X127987219Y-103908088D01*
X127706266Y-103908088D01*
X127706266Y-103627136D01*
X127704345Y-103607627D01*
X127689413Y-103571579D01*
X127661823Y-103543989D01*
X127625775Y-103529057D01*
X127586757Y-103529057D01*
X127550709Y-103543989D01*
X127523119Y-103571579D01*
X127508187Y-103607627D01*
X127506266Y-103627136D01*
X127506266Y-103908088D01*
X127225314Y-103908088D01*
X127205805Y-103910009D01*
X127169757Y-103924941D01*
X127142167Y-103952531D01*
X127127235Y-103988579D01*
X126776108Y-103988579D01*
X126776108Y-101960469D01*
X126887219Y-101960469D01*
X126887219Y-102103326D01*
X126888191Y-102113199D01*
X126888004Y-102115833D01*
X126888791Y-102119296D01*
X126889140Y-102122835D01*
X126890151Y-102125277D01*
X126892351Y-102134949D01*
X126939970Y-102277805D01*
X126947961Y-102295706D01*
X126950316Y-102298421D01*
X126951691Y-102301740D01*
X126964127Y-102316894D01*
X127059365Y-102412132D01*
X127067031Y-102418423D01*
X127068764Y-102420421D01*
X127071775Y-102422316D01*
X127074519Y-102424568D01*
X127076956Y-102425577D01*
X127085355Y-102430864D01*
X127180592Y-102478483D01*
X127182020Y-102479029D01*
X127182600Y-102479459D01*
X127190776Y-102482380D01*
X127198901Y-102485489D01*
X127199621Y-102485540D01*
X127201060Y-102486054D01*
X127391536Y-102533673D01*
X127394917Y-102534173D01*
X127396281Y-102534738D01*
X127403631Y-102535461D01*
X127410929Y-102536541D01*
X127412387Y-102536323D01*
X127415790Y-102536659D01*
X127558647Y-102536659D01*
X127562049Y-102536323D01*
X127563508Y-102536541D01*
X127570805Y-102535461D01*
X127578156Y-102534738D01*
X127579519Y-102534173D01*
X127582901Y-102533673D01*
X127773376Y-102486054D01*
X127774813Y-102485540D01*
X127775536Y-102485489D01*
X127783660Y-102482380D01*
X127791837Y-102479459D01*
X127792417Y-102479028D01*
X127793844Y-102478483D01*
X127889082Y-102430864D01*
X127897474Y-102425581D01*
X127899918Y-102424569D01*
X127902667Y-102422312D01*
X127905672Y-102420421D01*
X127907401Y-102418426D01*
X127915071Y-102412132D01*
X128010311Y-102316894D01*
X128022747Y-102301741D01*
X128024122Y-102298421D01*
X128026477Y-102295706D01*
X128034468Y-102277806D01*
X128082087Y-102134949D01*
X128084286Y-102125276D01*
X128085298Y-102122835D01*
X128085646Y-102119297D01*
X128086434Y-102115834D01*
X128086246Y-102113199D01*
X128087219Y-102103326D01*
X128087219Y-102008088D01*
X128086246Y-101998214D01*
X128086434Y-101995580D01*
X128085646Y-101992116D01*
X128085298Y-101988579D01*
X128084286Y-101986137D01*
X128082087Y-101976465D01*
X128034468Y-101833608D01*
X128026477Y-101815708D01*
X128024122Y-101812992D01*
X128022747Y-101809673D01*
X128010310Y-101794519D01*
X127962690Y-101746901D01*
X127947537Y-101734464D01*
X127922046Y-101723906D01*
X127911489Y-101719533D01*
X127891980Y-101717612D01*
X127558647Y-101717612D01*
X127539138Y-101719533D01*
X127503090Y-101734465D01*
X127475500Y-101762055D01*
X127460568Y-101798103D01*
X127458647Y-101817612D01*
X127458647Y-102008088D01*
X127460568Y-102027597D01*
X127475500Y-102063645D01*
X127503090Y-102091235D01*
X127539138Y-102106167D01*
X127578156Y-102106167D01*
X127614204Y-102091235D01*
X127641794Y-102063645D01*
X127656726Y-102027597D01*
X127658647Y-102008088D01*
X127658647Y-101917612D01*
X127850560Y-101917612D01*
X127852197Y-101919249D01*
X127887219Y-102024314D01*
X127887219Y-102087099D01*
X127852197Y-102192164D01*
X127785127Y-102259234D01*
X127714218Y-102294688D01*
X127546337Y-102336659D01*
X127428099Y-102336659D01*
X127260218Y-102294688D01*
X127189313Y-102259236D01*
X127122240Y-102192163D01*
X127087219Y-102087099D01*
X127087219Y-101984076D01*
X127124281Y-101909953D01*
X127131287Y-101891644D01*
X127134053Y-101852724D01*
X127121714Y-101815708D01*
X127096149Y-101786231D01*
X127061251Y-101768782D01*
X127022331Y-101766017D01*
X126985315Y-101778355D01*
X126955838Y-101803920D01*
X126945395Y-101820510D01*
X126897776Y-101915748D01*
X126890770Y-101934056D01*
X126890515Y-101937639D01*
X126889140Y-101940960D01*
X126887219Y-101960469D01*
X126776108Y-101960469D01*
X126776108Y-101606501D01*
X128198330Y-101606501D01*
X128198330Y-106362056D01*
G37*
G36*
X128198330Y-117284056D02*
G01*
X126776108Y-117284056D01*
X126776108Y-116644374D01*
X126887219Y-116644374D01*
X126887219Y-116882469D01*
X126889140Y-116901978D01*
X126890515Y-116905298D01*
X126890770Y-116908882D01*
X126897776Y-116927190D01*
X126945395Y-117022428D01*
X126950680Y-117030824D01*
X126951691Y-117033264D01*
X126953944Y-117036010D01*
X126955838Y-117039018D01*
X126957832Y-117040747D01*
X126964127Y-117048418D01*
X127011746Y-117096036D01*
X127019412Y-117102328D01*
X127021145Y-117104326D01*
X127024153Y-117106219D01*
X127026899Y-117108473D01*
X127029339Y-117109483D01*
X127037736Y-117114769D01*
X127132973Y-117162388D01*
X127151282Y-117169394D01*
X127154865Y-117169648D01*
X127158186Y-117171024D01*
X127177695Y-117172945D01*
X127272933Y-117172945D01*
X127292442Y-117171024D01*
X127295762Y-117169648D01*
X127299346Y-117169394D01*
X127317654Y-117162388D01*
X127412892Y-117114769D01*
X127421288Y-117109483D01*
X127423728Y-117108473D01*
X127426474Y-117106219D01*
X127429482Y-117104326D01*
X127431211Y-117102331D01*
X127438882Y-117096037D01*
X127486500Y-117048418D01*
X127492792Y-117040751D01*
X127494790Y-117039019D01*
X127496683Y-117036010D01*
X127498937Y-117033265D01*
X127499947Y-117030824D01*
X127505233Y-117022428D01*
X127552852Y-116927191D01*
X127553398Y-116925762D01*
X127553828Y-116925183D01*
X127556749Y-116917006D01*
X127559858Y-116908882D01*
X127559909Y-116908161D01*
X127560423Y-116906723D01*
X127605379Y-116726897D01*
X127640833Y-116655990D01*
X127665501Y-116631321D01*
X127725111Y-116601517D01*
X127773135Y-116601517D01*
X127832746Y-116631323D01*
X127857414Y-116655990D01*
X127887219Y-116715600D01*
X127887219Y-116913861D01*
X127844732Y-117041322D01*
X127840385Y-117060438D01*
X127843151Y-117099358D01*
X127860601Y-117134257D01*
X127890077Y-117159822D01*
X127927093Y-117172160D01*
X127966013Y-117169394D01*
X128000912Y-117151944D01*
X128026477Y-117122468D01*
X128034468Y-117104568D01*
X128082087Y-116961711D01*
X128084286Y-116952038D01*
X128085298Y-116949597D01*
X128085646Y-116946059D01*
X128086434Y-116942596D01*
X128086246Y-116939961D01*
X128087219Y-116930088D01*
X128087219Y-116691993D01*
X128085298Y-116672484D01*
X128083922Y-116669163D01*
X128083668Y-116665580D01*
X128076662Y-116647271D01*
X128029043Y-116552034D01*
X128023757Y-116543637D01*
X128022747Y-116541197D01*
X128020493Y-116538451D01*
X128018600Y-116535443D01*
X128016603Y-116533711D01*
X128010310Y-116526043D01*
X127962690Y-116478425D01*
X127955020Y-116472130D01*
X127953291Y-116470136D01*
X127950286Y-116468244D01*
X127947537Y-116465988D01*
X127945093Y-116464976D01*
X127936701Y-116459693D01*
X127841463Y-116412074D01*
X127823155Y-116405068D01*
X127819571Y-116404813D01*
X127816251Y-116403438D01*
X127796742Y-116401517D01*
X127701504Y-116401517D01*
X127681995Y-116403438D01*
X127678674Y-116404813D01*
X127675091Y-116405068D01*
X127656782Y-116412074D01*
X127561545Y-116459693D01*
X127553148Y-116464978D01*
X127550708Y-116465989D01*
X127547962Y-116468242D01*
X127544954Y-116470136D01*
X127543221Y-116472133D01*
X127535555Y-116478426D01*
X127487936Y-116526044D01*
X127481641Y-116533714D01*
X127479647Y-116535444D01*
X127477753Y-116538451D01*
X127475500Y-116541198D01*
X127474489Y-116543637D01*
X127469204Y-116552034D01*
X127421585Y-116647272D01*
X127421039Y-116648698D01*
X127420609Y-116649279D01*
X127417687Y-116657455D01*
X127414579Y-116665580D01*
X127414527Y-116666302D01*
X127414014Y-116667740D01*
X127369057Y-116847564D01*
X127333604Y-116918471D01*
X127308935Y-116943139D01*
X127249326Y-116972945D01*
X127201302Y-116972945D01*
X127141692Y-116943140D01*
X127117024Y-116918471D01*
X127087219Y-116858861D01*
X127087219Y-116660601D01*
X127129706Y-116533140D01*
X127134053Y-116514025D01*
X127131287Y-116475105D01*
X127113837Y-116440206D01*
X127084361Y-116414641D01*
X127047345Y-116402302D01*
X127008425Y-116405069D01*
X126973526Y-116422518D01*
X126947961Y-116451994D01*
X126939970Y-116469895D01*
X126892351Y-116612751D01*
X126890151Y-116622422D01*
X126889140Y-116624865D01*
X126888791Y-116628403D01*
X126888004Y-116631867D01*
X126888191Y-116634500D01*
X126887219Y-116644374D01*
X126776108Y-116644374D01*
X126776108Y-114910579D01*
X127127235Y-114910579D01*
X127127235Y-114949597D01*
X127142167Y-114985645D01*
X127169757Y-115013235D01*
X127205805Y-115028167D01*
X127225314Y-115030088D01*
X127506266Y-115030088D01*
X127506266Y-115311040D01*
X127508187Y-115330549D01*
X127523119Y-115366597D01*
X127550709Y-115394187D01*
X127586757Y-115409119D01*
X127625775Y-115409119D01*
X127661823Y-115394187D01*
X127689413Y-115366597D01*
X127704345Y-115330549D01*
X127706266Y-115311040D01*
X127706266Y-115030088D01*
X127987219Y-115030088D01*
X128006728Y-115028167D01*
X128042776Y-115013235D01*
X128070366Y-114985645D01*
X128085298Y-114949597D01*
X128085298Y-114910579D01*
X128070366Y-114874531D01*
X128042776Y-114846941D01*
X128006728Y-114832009D01*
X127987219Y-114830088D01*
X127706266Y-114830088D01*
X127706266Y-114549136D01*
X127704345Y-114529627D01*
X127689413Y-114493579D01*
X127661823Y-114465989D01*
X127625775Y-114451057D01*
X127586757Y-114451057D01*
X127550709Y-114465989D01*
X127523119Y-114493579D01*
X127508187Y-114529627D01*
X127506266Y-114549136D01*
X127506266Y-114830088D01*
X127225314Y-114830088D01*
X127205805Y-114832009D01*
X127169757Y-114846941D01*
X127142167Y-114874531D01*
X127127235Y-114910579D01*
X126776108Y-114910579D01*
X126776108Y-112882469D01*
X126887219Y-112882469D01*
X126887219Y-113025326D01*
X126888191Y-113035199D01*
X126888004Y-113037833D01*
X126888791Y-113041296D01*
X126889140Y-113044835D01*
X126890151Y-113047277D01*
X126892351Y-113056949D01*
X126939970Y-113199805D01*
X126947961Y-113217706D01*
X126950316Y-113220421D01*
X126951691Y-113223740D01*
X126964127Y-113238894D01*
X127059365Y-113334132D01*
X127067031Y-113340423D01*
X127068764Y-113342421D01*
X127071775Y-113344316D01*
X127074519Y-113346568D01*
X127076956Y-113347577D01*
X127085355Y-113352864D01*
X127180592Y-113400483D01*
X127182020Y-113401029D01*
X127182600Y-113401459D01*
X127190776Y-113404380D01*
X127198901Y-113407489D01*
X127199621Y-113407540D01*
X127201060Y-113408054D01*
X127391536Y-113455673D01*
X127394917Y-113456173D01*
X127396281Y-113456738D01*
X127403631Y-113457461D01*
X127410929Y-113458541D01*
X127412387Y-113458323D01*
X127415790Y-113458659D01*
X127558647Y-113458659D01*
X127562049Y-113458323D01*
X127563508Y-113458541D01*
X127570805Y-113457461D01*
X127578156Y-113456738D01*
X127579519Y-113456173D01*
X127582901Y-113455673D01*
X127773376Y-113408054D01*
X127774813Y-113407540D01*
X127775536Y-113407489D01*
X127783660Y-113404380D01*
X127791837Y-113401459D01*
X127792417Y-113401028D01*
X127793844Y-113400483D01*
X127889082Y-113352864D01*
X127897474Y-113347581D01*
X127899918Y-113346569D01*
X127902667Y-113344312D01*
X127905672Y-113342421D01*
X127907401Y-113340426D01*
X127915071Y-113334132D01*
X128010311Y-113238894D01*
X128022747Y-113223741D01*
X128024122Y-113220421D01*
X128026477Y-113217706D01*
X128034468Y-113199806D01*
X128082087Y-113056949D01*
X128084286Y-113047276D01*
X128085298Y-113044835D01*
X128085646Y-113041297D01*
X128086434Y-113037834D01*
X128086246Y-113035199D01*
X128087219Y-113025326D01*
X128087219Y-112930088D01*
X128086246Y-112920214D01*
X128086434Y-112917580D01*
X128085646Y-112914116D01*
X128085298Y-112910579D01*
X128084286Y-112908137D01*
X128082087Y-112898465D01*
X128034468Y-112755608D01*
X128026477Y-112737708D01*
X128024122Y-112734992D01*
X128022747Y-112731673D01*
X128010310Y-112716519D01*
X127962690Y-112668901D01*
X127947537Y-112656464D01*
X127922046Y-112645906D01*
X127911489Y-112641533D01*
X127891980Y-112639612D01*
X127558647Y-112639612D01*
X127539138Y-112641533D01*
X127503090Y-112656465D01*
X127475500Y-112684055D01*
X127460568Y-112720103D01*
X127458647Y-112739612D01*
X127458647Y-112930088D01*
X127460568Y-112949597D01*
X127475500Y-112985645D01*
X127503090Y-113013235D01*
X127539138Y-113028167D01*
X127578156Y-113028167D01*
X127614204Y-113013235D01*
X127641794Y-112985645D01*
X127656726Y-112949597D01*
X127658647Y-112930088D01*
X127658647Y-112839612D01*
X127850560Y-112839612D01*
X127852197Y-112841249D01*
X127887219Y-112946314D01*
X127887219Y-113009099D01*
X127852197Y-113114164D01*
X127785127Y-113181234D01*
X127714218Y-113216688D01*
X127546337Y-113258659D01*
X127428099Y-113258659D01*
X127260218Y-113216688D01*
X127189313Y-113181236D01*
X127122240Y-113114163D01*
X127087219Y-113009099D01*
X127087219Y-112906076D01*
X127124281Y-112831953D01*
X127131287Y-112813644D01*
X127134053Y-112774724D01*
X127121714Y-112737708D01*
X127096149Y-112708231D01*
X127061251Y-112690782D01*
X127022331Y-112688017D01*
X126985315Y-112700355D01*
X126955838Y-112725920D01*
X126945395Y-112742510D01*
X126897776Y-112837748D01*
X126890770Y-112856056D01*
X126890515Y-112859639D01*
X126889140Y-112862960D01*
X126887219Y-112882469D01*
X126776108Y-112882469D01*
X126776108Y-112528501D01*
X128198330Y-112528501D01*
X128198330Y-117284056D01*
G37*
G36*
X128198330Y-128206056D02*
G01*
X126776108Y-128206056D01*
X126776108Y-127566374D01*
X126887219Y-127566374D01*
X126887219Y-127804469D01*
X126889140Y-127823978D01*
X126890515Y-127827298D01*
X126890770Y-127830882D01*
X126897776Y-127849190D01*
X126945395Y-127944428D01*
X126950680Y-127952824D01*
X126951691Y-127955264D01*
X126953944Y-127958010D01*
X126955838Y-127961018D01*
X126957832Y-127962747D01*
X126964127Y-127970418D01*
X127011746Y-128018036D01*
X127019412Y-128024328D01*
X127021145Y-128026326D01*
X127024153Y-128028219D01*
X127026899Y-128030473D01*
X127029339Y-128031483D01*
X127037736Y-128036769D01*
X127132973Y-128084388D01*
X127151282Y-128091394D01*
X127154865Y-128091648D01*
X127158186Y-128093024D01*
X127177695Y-128094945D01*
X127272933Y-128094945D01*
X127292442Y-128093024D01*
X127295762Y-128091648D01*
X127299346Y-128091394D01*
X127317654Y-128084388D01*
X127412892Y-128036769D01*
X127421288Y-128031483D01*
X127423728Y-128030473D01*
X127426474Y-128028219D01*
X127429482Y-128026326D01*
X127431211Y-128024331D01*
X127438882Y-128018037D01*
X127486500Y-127970418D01*
X127492792Y-127962751D01*
X127494790Y-127961019D01*
X127496683Y-127958010D01*
X127498937Y-127955265D01*
X127499947Y-127952824D01*
X127505233Y-127944428D01*
X127552852Y-127849191D01*
X127553398Y-127847762D01*
X127553828Y-127847183D01*
X127556749Y-127839006D01*
X127559858Y-127830882D01*
X127559909Y-127830161D01*
X127560423Y-127828723D01*
X127605379Y-127648897D01*
X127640833Y-127577990D01*
X127665501Y-127553321D01*
X127725111Y-127523517D01*
X127773135Y-127523517D01*
X127832746Y-127553323D01*
X127857414Y-127577990D01*
X127887219Y-127637600D01*
X127887219Y-127835861D01*
X127844732Y-127963322D01*
X127840385Y-127982438D01*
X127843151Y-128021358D01*
X127860601Y-128056257D01*
X127890077Y-128081822D01*
X127927093Y-128094160D01*
X127966013Y-128091394D01*
X128000912Y-128073944D01*
X128026477Y-128044468D01*
X128034468Y-128026568D01*
X128082087Y-127883711D01*
X128084286Y-127874038D01*
X128085298Y-127871597D01*
X128085646Y-127868059D01*
X128086434Y-127864596D01*
X128086246Y-127861961D01*
X128087219Y-127852088D01*
X128087219Y-127613993D01*
X128085298Y-127594484D01*
X128083922Y-127591163D01*
X128083668Y-127587580D01*
X128076662Y-127569271D01*
X128029043Y-127474034D01*
X128023757Y-127465637D01*
X128022747Y-127463197D01*
X128020493Y-127460451D01*
X128018600Y-127457443D01*
X128016603Y-127455711D01*
X128010310Y-127448043D01*
X127962690Y-127400425D01*
X127955020Y-127394130D01*
X127953291Y-127392136D01*
X127950286Y-127390244D01*
X127947537Y-127387988D01*
X127945093Y-127386976D01*
X127936701Y-127381693D01*
X127841463Y-127334074D01*
X127823155Y-127327068D01*
X127819571Y-127326813D01*
X127816251Y-127325438D01*
X127796742Y-127323517D01*
X127701504Y-127323517D01*
X127681995Y-127325438D01*
X127678674Y-127326813D01*
X127675091Y-127327068D01*
X127656782Y-127334074D01*
X127561545Y-127381693D01*
X127553148Y-127386978D01*
X127550708Y-127387989D01*
X127547962Y-127390242D01*
X127544954Y-127392136D01*
X127543221Y-127394133D01*
X127535555Y-127400426D01*
X127487936Y-127448044D01*
X127481641Y-127455714D01*
X127479647Y-127457444D01*
X127477753Y-127460451D01*
X127475500Y-127463198D01*
X127474489Y-127465637D01*
X127469204Y-127474034D01*
X127421585Y-127569272D01*
X127421039Y-127570698D01*
X127420609Y-127571279D01*
X127417687Y-127579455D01*
X127414579Y-127587580D01*
X127414527Y-127588302D01*
X127414014Y-127589740D01*
X127369057Y-127769564D01*
X127333604Y-127840471D01*
X127308935Y-127865139D01*
X127249326Y-127894945D01*
X127201302Y-127894945D01*
X127141692Y-127865140D01*
X127117024Y-127840471D01*
X127087219Y-127780861D01*
X127087219Y-127582601D01*
X127129706Y-127455140D01*
X127134053Y-127436025D01*
X127131287Y-127397105D01*
X127113837Y-127362206D01*
X127084361Y-127336641D01*
X127047345Y-127324302D01*
X127008425Y-127327069D01*
X126973526Y-127344518D01*
X126947961Y-127373994D01*
X126939970Y-127391895D01*
X126892351Y-127534751D01*
X126890151Y-127544422D01*
X126889140Y-127546865D01*
X126888791Y-127550403D01*
X126888004Y-127553867D01*
X126888191Y-127556500D01*
X126887219Y-127566374D01*
X126776108Y-127566374D01*
X126776108Y-125832579D01*
X127127235Y-125832579D01*
X127127235Y-125871597D01*
X127142167Y-125907645D01*
X127169757Y-125935235D01*
X127205805Y-125950167D01*
X127225314Y-125952088D01*
X127506266Y-125952088D01*
X127506266Y-126233040D01*
X127508187Y-126252549D01*
X127523119Y-126288597D01*
X127550709Y-126316187D01*
X127586757Y-126331119D01*
X127625775Y-126331119D01*
X127661823Y-126316187D01*
X127689413Y-126288597D01*
X127704345Y-126252549D01*
X127706266Y-126233040D01*
X127706266Y-125952088D01*
X127987219Y-125952088D01*
X128006728Y-125950167D01*
X128042776Y-125935235D01*
X128070366Y-125907645D01*
X128085298Y-125871597D01*
X128085298Y-125832579D01*
X128070366Y-125796531D01*
X128042776Y-125768941D01*
X128006728Y-125754009D01*
X127987219Y-125752088D01*
X127706266Y-125752088D01*
X127706266Y-125471136D01*
X127704345Y-125451627D01*
X127689413Y-125415579D01*
X127661823Y-125387989D01*
X127625775Y-125373057D01*
X127586757Y-125373057D01*
X127550709Y-125387989D01*
X127523119Y-125415579D01*
X127508187Y-125451627D01*
X127506266Y-125471136D01*
X127506266Y-125752088D01*
X127225314Y-125752088D01*
X127205805Y-125754009D01*
X127169757Y-125768941D01*
X127142167Y-125796531D01*
X127127235Y-125832579D01*
X126776108Y-125832579D01*
X126776108Y-123804469D01*
X126887219Y-123804469D01*
X126887219Y-123947326D01*
X126888191Y-123957199D01*
X126888004Y-123959833D01*
X126888791Y-123963296D01*
X126889140Y-123966835D01*
X126890151Y-123969277D01*
X126892351Y-123978949D01*
X126939970Y-124121805D01*
X126947961Y-124139706D01*
X126950316Y-124142421D01*
X126951691Y-124145740D01*
X126964127Y-124160894D01*
X127059365Y-124256132D01*
X127067031Y-124262423D01*
X127068764Y-124264421D01*
X127071775Y-124266316D01*
X127074519Y-124268568D01*
X127076956Y-124269577D01*
X127085355Y-124274864D01*
X127180592Y-124322483D01*
X127182020Y-124323029D01*
X127182600Y-124323459D01*
X127190776Y-124326380D01*
X127198901Y-124329489D01*
X127199621Y-124329540D01*
X127201060Y-124330054D01*
X127391536Y-124377673D01*
X127394917Y-124378173D01*
X127396281Y-124378738D01*
X127403631Y-124379461D01*
X127410929Y-124380541D01*
X127412387Y-124380323D01*
X127415790Y-124380659D01*
X127558647Y-124380659D01*
X127562049Y-124380323D01*
X127563508Y-124380541D01*
X127570805Y-124379461D01*
X127578156Y-124378738D01*
X127579519Y-124378173D01*
X127582901Y-124377673D01*
X127773376Y-124330054D01*
X127774813Y-124329540D01*
X127775536Y-124329489D01*
X127783660Y-124326380D01*
X127791837Y-124323459D01*
X127792417Y-124323028D01*
X127793844Y-124322483D01*
X127889082Y-124274864D01*
X127897474Y-124269581D01*
X127899918Y-124268569D01*
X127902667Y-124266312D01*
X127905672Y-124264421D01*
X127907401Y-124262426D01*
X127915071Y-124256132D01*
X128010311Y-124160894D01*
X128022747Y-124145741D01*
X128024122Y-124142421D01*
X128026477Y-124139706D01*
X128034468Y-124121806D01*
X128082087Y-123978949D01*
X128084286Y-123969276D01*
X128085298Y-123966835D01*
X128085646Y-123963297D01*
X128086434Y-123959834D01*
X128086246Y-123957199D01*
X128087219Y-123947326D01*
X128087219Y-123852088D01*
X128086246Y-123842214D01*
X128086434Y-123839580D01*
X128085646Y-123836116D01*
X128085298Y-123832579D01*
X128084286Y-123830137D01*
X128082087Y-123820465D01*
X128034468Y-123677608D01*
X128026477Y-123659708D01*
X128024122Y-123656992D01*
X128022747Y-123653673D01*
X128010310Y-123638519D01*
X127962690Y-123590901D01*
X127947537Y-123578464D01*
X127922046Y-123567906D01*
X127911489Y-123563533D01*
X127891980Y-123561612D01*
X127558647Y-123561612D01*
X127539138Y-123563533D01*
X127503090Y-123578465D01*
X127475500Y-123606055D01*
X127460568Y-123642103D01*
X127458647Y-123661612D01*
X127458647Y-123852088D01*
X127460568Y-123871597D01*
X127475500Y-123907645D01*
X127503090Y-123935235D01*
X127539138Y-123950167D01*
X127578156Y-123950167D01*
X127614204Y-123935235D01*
X127641794Y-123907645D01*
X127656726Y-123871597D01*
X127658647Y-123852088D01*
X127658647Y-123761612D01*
X127850560Y-123761612D01*
X127852197Y-123763249D01*
X127887219Y-123868314D01*
X127887219Y-123931099D01*
X127852197Y-124036164D01*
X127785127Y-124103234D01*
X127714218Y-124138688D01*
X127546337Y-124180659D01*
X127428099Y-124180659D01*
X127260218Y-124138688D01*
X127189313Y-124103236D01*
X127122240Y-124036163D01*
X127087219Y-123931099D01*
X127087219Y-123828076D01*
X127124281Y-123753953D01*
X127131287Y-123735644D01*
X127134053Y-123696724D01*
X127121714Y-123659708D01*
X127096149Y-123630231D01*
X127061251Y-123612782D01*
X127022331Y-123610017D01*
X126985315Y-123622355D01*
X126955838Y-123647920D01*
X126945395Y-123664510D01*
X126897776Y-123759748D01*
X126890770Y-123778056D01*
X126890515Y-123781639D01*
X126889140Y-123784960D01*
X126887219Y-123804469D01*
X126776108Y-123804469D01*
X126776108Y-123450501D01*
X128198330Y-123450501D01*
X128198330Y-128206056D01*
G37*
G36*
X152197009Y-120438716D02*
G01*
X151016724Y-120438716D01*
X151016724Y-119829065D01*
X151127835Y-119829065D01*
X151127835Y-119868083D01*
X151142767Y-119904131D01*
X151170357Y-119931721D01*
X151206405Y-119946653D01*
X151225914Y-119948574D01*
X151506866Y-119948574D01*
X151506866Y-120229526D01*
X151508787Y-120249035D01*
X151523719Y-120285083D01*
X151551309Y-120312673D01*
X151587357Y-120327605D01*
X151626375Y-120327605D01*
X151662423Y-120312673D01*
X151690013Y-120285083D01*
X151704945Y-120249035D01*
X151706866Y-120229526D01*
X151706866Y-119948574D01*
X151987819Y-119948574D01*
X152007328Y-119946653D01*
X152043376Y-119931721D01*
X152070966Y-119904131D01*
X152085898Y-119868083D01*
X152085898Y-119829065D01*
X152070966Y-119793017D01*
X152043376Y-119765427D01*
X152007328Y-119750495D01*
X151987819Y-119748574D01*
X151706866Y-119748574D01*
X151706866Y-119467622D01*
X151704945Y-119448113D01*
X151690013Y-119412065D01*
X151662423Y-119384475D01*
X151626375Y-119369543D01*
X151587357Y-119369543D01*
X151551309Y-119384475D01*
X151523719Y-119412065D01*
X151508787Y-119448113D01*
X151506866Y-119467622D01*
X151506866Y-119748574D01*
X151225914Y-119748574D01*
X151206405Y-119750495D01*
X151170357Y-119765427D01*
X151142767Y-119793017D01*
X151127835Y-119829065D01*
X151016724Y-119829065D01*
X151016724Y-117467622D01*
X151506866Y-117467622D01*
X151506866Y-118229526D01*
X151508787Y-118249035D01*
X151523719Y-118285083D01*
X151551309Y-118312673D01*
X151587357Y-118327605D01*
X151626375Y-118327605D01*
X151662423Y-118312673D01*
X151690013Y-118285083D01*
X151704945Y-118249035D01*
X151706866Y-118229526D01*
X151706866Y-117467622D01*
X151704945Y-117448113D01*
X151690013Y-117412065D01*
X151662423Y-117384475D01*
X151626375Y-117369543D01*
X151587357Y-117369543D01*
X151551309Y-117384475D01*
X151523719Y-117412065D01*
X151508787Y-117448113D01*
X151506866Y-117467622D01*
X151016724Y-117467622D01*
X151016724Y-117258432D01*
X152197009Y-117258432D01*
X152197009Y-120438716D01*
G37*
G36*
X152197009Y-129354116D02*
G01*
X151016724Y-129354116D01*
X151016724Y-128744465D01*
X151127835Y-128744465D01*
X151127835Y-128783483D01*
X151142767Y-128819531D01*
X151170357Y-128847121D01*
X151206405Y-128862053D01*
X151225914Y-128863974D01*
X151506866Y-128863974D01*
X151506866Y-129144926D01*
X151508787Y-129164435D01*
X151523719Y-129200483D01*
X151551309Y-129228073D01*
X151587357Y-129243005D01*
X151626375Y-129243005D01*
X151662423Y-129228073D01*
X151690013Y-129200483D01*
X151704945Y-129164435D01*
X151706866Y-129144926D01*
X151706866Y-128863974D01*
X151987819Y-128863974D01*
X152007328Y-128862053D01*
X152043376Y-128847121D01*
X152070966Y-128819531D01*
X152085898Y-128783483D01*
X152085898Y-128744465D01*
X152070966Y-128708417D01*
X152043376Y-128680827D01*
X152007328Y-128665895D01*
X151987819Y-128663974D01*
X151706866Y-128663974D01*
X151706866Y-128383022D01*
X151704945Y-128363513D01*
X151690013Y-128327465D01*
X151662423Y-128299875D01*
X151626375Y-128284943D01*
X151587357Y-128284943D01*
X151551309Y-128299875D01*
X151523719Y-128327465D01*
X151508787Y-128363513D01*
X151506866Y-128383022D01*
X151506866Y-128663974D01*
X151225914Y-128663974D01*
X151206405Y-128665895D01*
X151170357Y-128680827D01*
X151142767Y-128708417D01*
X151127835Y-128744465D01*
X151016724Y-128744465D01*
X151016724Y-126383022D01*
X151506866Y-126383022D01*
X151506866Y-127144926D01*
X151508787Y-127164435D01*
X151523719Y-127200483D01*
X151551309Y-127228073D01*
X151587357Y-127243005D01*
X151626375Y-127243005D01*
X151662423Y-127228073D01*
X151690013Y-127200483D01*
X151704945Y-127164435D01*
X151706866Y-127144926D01*
X151706866Y-126383022D01*
X151704945Y-126363513D01*
X151690013Y-126327465D01*
X151662423Y-126299875D01*
X151626375Y-126284943D01*
X151587357Y-126284943D01*
X151551309Y-126299875D01*
X151523719Y-126327465D01*
X151508787Y-126363513D01*
X151506866Y-126383022D01*
X151016724Y-126383022D01*
X151016724Y-126173832D01*
X152197009Y-126173832D01*
X152197009Y-129354116D01*
G37*
G36*
X152205409Y-111579516D02*
G01*
X151025124Y-111579516D01*
X151025124Y-110969865D01*
X151136235Y-110969865D01*
X151136235Y-111008883D01*
X151151167Y-111044931D01*
X151178757Y-111072521D01*
X151214805Y-111087453D01*
X151234314Y-111089374D01*
X151515266Y-111089374D01*
X151515266Y-111370326D01*
X151517187Y-111389835D01*
X151532119Y-111425883D01*
X151559709Y-111453473D01*
X151595757Y-111468405D01*
X151634775Y-111468405D01*
X151670823Y-111453473D01*
X151698413Y-111425883D01*
X151713345Y-111389835D01*
X151715266Y-111370326D01*
X151715266Y-111089374D01*
X151996219Y-111089374D01*
X152015728Y-111087453D01*
X152051776Y-111072521D01*
X152079366Y-111044931D01*
X152094298Y-111008883D01*
X152094298Y-110969865D01*
X152079366Y-110933817D01*
X152051776Y-110906227D01*
X152015728Y-110891295D01*
X151996219Y-110889374D01*
X151715266Y-110889374D01*
X151715266Y-110608422D01*
X151713345Y-110588913D01*
X151698413Y-110552865D01*
X151670823Y-110525275D01*
X151634775Y-110510343D01*
X151595757Y-110510343D01*
X151559709Y-110525275D01*
X151532119Y-110552865D01*
X151517187Y-110588913D01*
X151515266Y-110608422D01*
X151515266Y-110889374D01*
X151234314Y-110889374D01*
X151214805Y-110891295D01*
X151178757Y-110906227D01*
X151151167Y-110933817D01*
X151136235Y-110969865D01*
X151025124Y-110969865D01*
X151025124Y-108608422D01*
X151515266Y-108608422D01*
X151515266Y-109370326D01*
X151517187Y-109389835D01*
X151532119Y-109425883D01*
X151559709Y-109453473D01*
X151595757Y-109468405D01*
X151634775Y-109468405D01*
X151670823Y-109453473D01*
X151698413Y-109425883D01*
X151713345Y-109389835D01*
X151715266Y-109370326D01*
X151715266Y-108608422D01*
X151713345Y-108588913D01*
X151698413Y-108552865D01*
X151670823Y-108525275D01*
X151634775Y-108510343D01*
X151595757Y-108510343D01*
X151559709Y-108525275D01*
X151532119Y-108552865D01*
X151517187Y-108588913D01*
X151515266Y-108608422D01*
X151025124Y-108608422D01*
X151025124Y-108399232D01*
X152205409Y-108399232D01*
X152205409Y-111579516D01*
G37*
G36*
X152328330Y-87471437D02*
G01*
X150906108Y-87471437D01*
X150906108Y-87240817D01*
X151019140Y-87240817D01*
X151019140Y-87279835D01*
X151034072Y-87315883D01*
X151061662Y-87343473D01*
X151097710Y-87358405D01*
X151117219Y-87360326D01*
X152117219Y-87360326D01*
X152136728Y-87358405D01*
X152172776Y-87343473D01*
X152200366Y-87315883D01*
X152215298Y-87279835D01*
X152217219Y-87260326D01*
X152217219Y-86784136D01*
X152215298Y-86764627D01*
X152200366Y-86728579D01*
X152172776Y-86700989D01*
X152136728Y-86686057D01*
X152097710Y-86686057D01*
X152061662Y-86700989D01*
X152034072Y-86728579D01*
X152019140Y-86764627D01*
X152017219Y-86784136D01*
X152017219Y-87160326D01*
X151117219Y-87160326D01*
X151097710Y-87162247D01*
X151061662Y-87177179D01*
X151034072Y-87204769D01*
X151019140Y-87240817D01*
X150906108Y-87240817D01*
X150906108Y-85097960D01*
X151019140Y-85097960D01*
X151019140Y-85136978D01*
X151034072Y-85173026D01*
X151061662Y-85200616D01*
X151097710Y-85215548D01*
X151117219Y-85217469D01*
X151493409Y-85217469D01*
X151493409Y-85588897D01*
X151117219Y-85588897D01*
X151097710Y-85590818D01*
X151061662Y-85605750D01*
X151034072Y-85633340D01*
X151019140Y-85669388D01*
X151019140Y-85708406D01*
X151034072Y-85744454D01*
X151061662Y-85772044D01*
X151097710Y-85786976D01*
X151117219Y-85788897D01*
X152117219Y-85788897D01*
X152136728Y-85786976D01*
X152172776Y-85772044D01*
X152200366Y-85744454D01*
X152215298Y-85708406D01*
X152215298Y-85669388D01*
X152200366Y-85633340D01*
X152172776Y-85605750D01*
X152136728Y-85590818D01*
X152117219Y-85588897D01*
X151693409Y-85588897D01*
X151693409Y-85217469D01*
X152117219Y-85217469D01*
X152136728Y-85215548D01*
X152172776Y-85200616D01*
X152200366Y-85173026D01*
X152215298Y-85136978D01*
X152215298Y-85097960D01*
X152200366Y-85061912D01*
X152172776Y-85034322D01*
X152136728Y-85019390D01*
X152117219Y-85017469D01*
X151117219Y-85017469D01*
X151097710Y-85019390D01*
X151061662Y-85034322D01*
X151034072Y-85061912D01*
X151019140Y-85097960D01*
X150906108Y-85097960D01*
X150906108Y-83450802D01*
X151017219Y-83450802D01*
X151017219Y-83593659D01*
X151018191Y-83603532D01*
X151018004Y-83606166D01*
X151018791Y-83609629D01*
X151019140Y-83613168D01*
X151020151Y-83615610D01*
X151022351Y-83625282D01*
X151069970Y-83768138D01*
X151077961Y-83786039D01*
X151080316Y-83788754D01*
X151081691Y-83792073D01*
X151094127Y-83807227D01*
X151189365Y-83902465D01*
X151197031Y-83908756D01*
X151198764Y-83910754D01*
X151201775Y-83912649D01*
X151204519Y-83914901D01*
X151206956Y-83915910D01*
X151215355Y-83921197D01*
X151310592Y-83968816D01*
X151312020Y-83969362D01*
X151312600Y-83969792D01*
X151320776Y-83972713D01*
X151328901Y-83975822D01*
X151329621Y-83975873D01*
X151331060Y-83976387D01*
X151521536Y-84024006D01*
X151524917Y-84024506D01*
X151526281Y-84025071D01*
X151533631Y-84025794D01*
X151540929Y-84026874D01*
X151542387Y-84026656D01*
X151545790Y-84026992D01*
X151688647Y-84026992D01*
X151692049Y-84026656D01*
X151693508Y-84026874D01*
X151700805Y-84025794D01*
X151708156Y-84025071D01*
X151709519Y-84024506D01*
X151712901Y-84024006D01*
X151903376Y-83976387D01*
X151904813Y-83975873D01*
X151905536Y-83975822D01*
X151913660Y-83972713D01*
X151921837Y-83969792D01*
X151922417Y-83969361D01*
X151923844Y-83968816D01*
X152019082Y-83921197D01*
X152027474Y-83915914D01*
X152029918Y-83914902D01*
X152032667Y-83912645D01*
X152035672Y-83910754D01*
X152037401Y-83908759D01*
X152045071Y-83902465D01*
X152140311Y-83807227D01*
X152152747Y-83792074D01*
X152154122Y-83788754D01*
X152156477Y-83786039D01*
X152164468Y-83768139D01*
X152212087Y-83625282D01*
X152214286Y-83615609D01*
X152215298Y-83613168D01*
X152215646Y-83609630D01*
X152216434Y-83606167D01*
X152216246Y-83603532D01*
X152217219Y-83593659D01*
X152217219Y-83498421D01*
X152216246Y-83488547D01*
X152216434Y-83485913D01*
X152215646Y-83482449D01*
X152215298Y-83478912D01*
X152214286Y-83476470D01*
X152212087Y-83466798D01*
X152164468Y-83323941D01*
X152156477Y-83306041D01*
X152154122Y-83303325D01*
X152152747Y-83300006D01*
X152140310Y-83284852D01*
X152092690Y-83237234D01*
X152077537Y-83224797D01*
X152052046Y-83214239D01*
X152041489Y-83209866D01*
X152021980Y-83207945D01*
X151688647Y-83207945D01*
X151669138Y-83209866D01*
X151633090Y-83224798D01*
X151605500Y-83252388D01*
X151590568Y-83288436D01*
X151588647Y-83307945D01*
X151588647Y-83498421D01*
X151590568Y-83517930D01*
X151605500Y-83553978D01*
X151633090Y-83581568D01*
X151669138Y-83596500D01*
X151708156Y-83596500D01*
X151744204Y-83581568D01*
X151771794Y-83553978D01*
X151786726Y-83517930D01*
X151788647Y-83498421D01*
X151788647Y-83407945D01*
X151980560Y-83407945D01*
X151982197Y-83409582D01*
X152017219Y-83514647D01*
X152017219Y-83577432D01*
X151982197Y-83682497D01*
X151915127Y-83749567D01*
X151844218Y-83785021D01*
X151676337Y-83826992D01*
X151558099Y-83826992D01*
X151390218Y-83785021D01*
X151319313Y-83749569D01*
X151252240Y-83682496D01*
X151217219Y-83577432D01*
X151217219Y-83474409D01*
X151254281Y-83400286D01*
X151261287Y-83381977D01*
X151264053Y-83343057D01*
X151251714Y-83306041D01*
X151226149Y-83276564D01*
X151191251Y-83259115D01*
X151152331Y-83256350D01*
X151115315Y-83268688D01*
X151085838Y-83294253D01*
X151075395Y-83310843D01*
X151027776Y-83406081D01*
X151020770Y-83424389D01*
X151020515Y-83427972D01*
X151019140Y-83431293D01*
X151017219Y-83450802D01*
X150906108Y-83450802D01*
X150906108Y-81641278D01*
X151017219Y-81641278D01*
X151017219Y-82117468D01*
X151017929Y-82124684D01*
X151017686Y-82127121D01*
X151018403Y-82129499D01*
X151019140Y-82136977D01*
X151024736Y-82150486D01*
X151028957Y-82164476D01*
X151032144Y-82168372D01*
X151034072Y-82173025D01*
X151044408Y-82183361D01*
X151053664Y-82194674D01*
X151058101Y-82197054D01*
X151061662Y-82200615D01*
X151075167Y-82206209D01*
X151088048Y-82213119D01*
X151095412Y-82214595D01*
X151097710Y-82215547D01*
X151100160Y-82215547D01*
X151107269Y-82216972D01*
X151583459Y-82264591D01*
X151603062Y-82264620D01*
X151607884Y-82263165D01*
X151612918Y-82263165D01*
X151626422Y-82257571D01*
X151640417Y-82253349D01*
X151644313Y-82250161D01*
X151648966Y-82248234D01*
X151659302Y-82237897D01*
X151670615Y-82228642D01*
X151672995Y-82224204D01*
X151676556Y-82220644D01*
X151682148Y-82207141D01*
X151689060Y-82194258D01*
X151689561Y-82189245D01*
X151691487Y-82184596D01*
X151691487Y-82169985D01*
X151692942Y-82155434D01*
X151691487Y-82150611D01*
X151691487Y-82145578D01*
X151685893Y-82132072D01*
X151681671Y-82118079D01*
X151678483Y-82114183D01*
X151676556Y-82109529D01*
X151664119Y-82094376D01*
X151627976Y-82058232D01*
X151598171Y-81998622D01*
X151598171Y-81807742D01*
X151627976Y-81748132D01*
X151652644Y-81723463D01*
X151712254Y-81693659D01*
X151903135Y-81693659D01*
X151962746Y-81723465D01*
X151987414Y-81748132D01*
X152017219Y-81807742D01*
X152017219Y-81998623D01*
X151987414Y-82058232D01*
X151951270Y-82094376D01*
X151938833Y-82109529D01*
X151923902Y-82145577D01*
X151923901Y-82184595D01*
X151938832Y-82220644D01*
X151966422Y-82248234D01*
X152002470Y-82263165D01*
X152041488Y-82263166D01*
X152077537Y-82248235D01*
X152092690Y-82235798D01*
X152140310Y-82188180D01*
X152146603Y-82180511D01*
X152148600Y-82178780D01*
X152150493Y-82175771D01*
X152152747Y-82173026D01*
X152153757Y-82170585D01*
X152159043Y-82162189D01*
X152206662Y-82066952D01*
X152213668Y-82048643D01*
X152213922Y-82045059D01*
X152215298Y-82041739D01*
X152217219Y-82022230D01*
X152217219Y-81784135D01*
X152215298Y-81764626D01*
X152213922Y-81761305D01*
X152213668Y-81757722D01*
X152206662Y-81739413D01*
X152159043Y-81644176D01*
X152153757Y-81635779D01*
X152152747Y-81633339D01*
X152150493Y-81630593D01*
X152148600Y-81627585D01*
X152146603Y-81625853D01*
X152140310Y-81618185D01*
X152092690Y-81570567D01*
X152085020Y-81564272D01*
X152083291Y-81562278D01*
X152080286Y-81560386D01*
X152077537Y-81558130D01*
X152075093Y-81557118D01*
X152066701Y-81551835D01*
X151971463Y-81504216D01*
X151953155Y-81497210D01*
X151949571Y-81496955D01*
X151946251Y-81495580D01*
X151926742Y-81493659D01*
X151688647Y-81493659D01*
X151669138Y-81495580D01*
X151665817Y-81496955D01*
X151662234Y-81497210D01*
X151643925Y-81504216D01*
X151548688Y-81551835D01*
X151540291Y-81557120D01*
X151537851Y-81558131D01*
X151535105Y-81560384D01*
X151532097Y-81562278D01*
X151530364Y-81564275D01*
X151522698Y-81570568D01*
X151475079Y-81618186D01*
X151468784Y-81625856D01*
X151466790Y-81627586D01*
X151464896Y-81630593D01*
X151462643Y-81633340D01*
X151461632Y-81635779D01*
X151456347Y-81644176D01*
X151408728Y-81739414D01*
X151401722Y-81757722D01*
X151401467Y-81761305D01*
X151400092Y-81764626D01*
X151398171Y-81784135D01*
X151398171Y-82022230D01*
X151400092Y-82041739D01*
X151401467Y-82045059D01*
X151401491Y-82045396D01*
X151217219Y-82026969D01*
X151217219Y-81641278D01*
X151215298Y-81621769D01*
X151200366Y-81585721D01*
X151172776Y-81558131D01*
X151136728Y-81543199D01*
X151097710Y-81543199D01*
X151061662Y-81558131D01*
X151034072Y-81585721D01*
X151019140Y-81621769D01*
X151017219Y-81641278D01*
X150906108Y-81641278D01*
X150906108Y-80628771D01*
X151018004Y-80628771D01*
X151020770Y-80667691D01*
X151038220Y-80702590D01*
X151067696Y-80728155D01*
X151085596Y-80736146D01*
X151800991Y-80974611D01*
X151085596Y-81213076D01*
X151067696Y-81221067D01*
X151038220Y-81246632D01*
X151020770Y-81281531D01*
X151018004Y-81320451D01*
X151030342Y-81357467D01*
X151055907Y-81386943D01*
X151090806Y-81404393D01*
X151129726Y-81407159D01*
X151148842Y-81402812D01*
X152148841Y-81069479D01*
X152166742Y-81061488D01*
X152172143Y-81056803D01*
X152178530Y-81053610D01*
X152186742Y-81044141D01*
X152196218Y-81035923D01*
X152199413Y-81029531D01*
X152204095Y-81024134D01*
X152208061Y-81012236D01*
X152213667Y-81001024D01*
X152214173Y-80993899D01*
X152216434Y-80987118D01*
X152215544Y-80974611D01*
X152216434Y-80962104D01*
X152214173Y-80955322D01*
X152213667Y-80948198D01*
X152208061Y-80936985D01*
X152204095Y-80925088D01*
X152199413Y-80919690D01*
X152196218Y-80913299D01*
X152186742Y-80905080D01*
X152178530Y-80895612D01*
X152172143Y-80892418D01*
X152166742Y-80887734D01*
X152148841Y-80879743D01*
X151148842Y-80546410D01*
X151129726Y-80542063D01*
X151090806Y-80544829D01*
X151055907Y-80562279D01*
X151030342Y-80591755D01*
X151018004Y-80628771D01*
X150906108Y-80628771D01*
X150906108Y-80430952D01*
X152328330Y-80430952D01*
X152328330Y-87471437D01*
G37*
G36*
X152328330Y-100933437D02*
G01*
X150906108Y-100933437D01*
X150906108Y-100702817D01*
X151019140Y-100702817D01*
X151019140Y-100741835D01*
X151034072Y-100777883D01*
X151061662Y-100805473D01*
X151097710Y-100820405D01*
X151117219Y-100822326D01*
X152117219Y-100822326D01*
X152136728Y-100820405D01*
X152172776Y-100805473D01*
X152200366Y-100777883D01*
X152215298Y-100741835D01*
X152217219Y-100722326D01*
X152217219Y-100246136D01*
X152215298Y-100226627D01*
X152200366Y-100190579D01*
X152172776Y-100162989D01*
X152136728Y-100148057D01*
X152097710Y-100148057D01*
X152061662Y-100162989D01*
X152034072Y-100190579D01*
X152019140Y-100226627D01*
X152017219Y-100246136D01*
X152017219Y-100622326D01*
X151117219Y-100622326D01*
X151097710Y-100624247D01*
X151061662Y-100639179D01*
X151034072Y-100666769D01*
X151019140Y-100702817D01*
X150906108Y-100702817D01*
X150906108Y-98559960D01*
X151019140Y-98559960D01*
X151019140Y-98598978D01*
X151034072Y-98635026D01*
X151061662Y-98662616D01*
X151097710Y-98677548D01*
X151117219Y-98679469D01*
X151493409Y-98679469D01*
X151493409Y-99050897D01*
X151117219Y-99050897D01*
X151097710Y-99052818D01*
X151061662Y-99067750D01*
X151034072Y-99095340D01*
X151019140Y-99131388D01*
X151019140Y-99170406D01*
X151034072Y-99206454D01*
X151061662Y-99234044D01*
X151097710Y-99248976D01*
X151117219Y-99250897D01*
X152117219Y-99250897D01*
X152136728Y-99248976D01*
X152172776Y-99234044D01*
X152200366Y-99206454D01*
X152215298Y-99170406D01*
X152215298Y-99131388D01*
X152200366Y-99095340D01*
X152172776Y-99067750D01*
X152136728Y-99052818D01*
X152117219Y-99050897D01*
X151693409Y-99050897D01*
X151693409Y-98679469D01*
X152117219Y-98679469D01*
X152136728Y-98677548D01*
X152172776Y-98662616D01*
X152200366Y-98635026D01*
X152215298Y-98598978D01*
X152215298Y-98559960D01*
X152200366Y-98523912D01*
X152172776Y-98496322D01*
X152136728Y-98481390D01*
X152117219Y-98479469D01*
X151117219Y-98479469D01*
X151097710Y-98481390D01*
X151061662Y-98496322D01*
X151034072Y-98523912D01*
X151019140Y-98559960D01*
X150906108Y-98559960D01*
X150906108Y-96912802D01*
X151017219Y-96912802D01*
X151017219Y-97055659D01*
X151018191Y-97065532D01*
X151018004Y-97068166D01*
X151018791Y-97071629D01*
X151019140Y-97075168D01*
X151020151Y-97077610D01*
X151022351Y-97087282D01*
X151069970Y-97230138D01*
X151077961Y-97248039D01*
X151080316Y-97250754D01*
X151081691Y-97254073D01*
X151094127Y-97269227D01*
X151189365Y-97364465D01*
X151197031Y-97370756D01*
X151198764Y-97372754D01*
X151201775Y-97374649D01*
X151204519Y-97376901D01*
X151206956Y-97377910D01*
X151215355Y-97383197D01*
X151310592Y-97430816D01*
X151312020Y-97431362D01*
X151312600Y-97431792D01*
X151320776Y-97434713D01*
X151328901Y-97437822D01*
X151329621Y-97437873D01*
X151331060Y-97438387D01*
X151521536Y-97486006D01*
X151524917Y-97486506D01*
X151526281Y-97487071D01*
X151533631Y-97487794D01*
X151540929Y-97488874D01*
X151542387Y-97488656D01*
X151545790Y-97488992D01*
X151688647Y-97488992D01*
X151692049Y-97488656D01*
X151693508Y-97488874D01*
X151700805Y-97487794D01*
X151708156Y-97487071D01*
X151709519Y-97486506D01*
X151712901Y-97486006D01*
X151903376Y-97438387D01*
X151904813Y-97437873D01*
X151905536Y-97437822D01*
X151913660Y-97434713D01*
X151921837Y-97431792D01*
X151922417Y-97431361D01*
X151923844Y-97430816D01*
X152019082Y-97383197D01*
X152027474Y-97377914D01*
X152029918Y-97376902D01*
X152032667Y-97374645D01*
X152035672Y-97372754D01*
X152037401Y-97370759D01*
X152045071Y-97364465D01*
X152140311Y-97269227D01*
X152152747Y-97254074D01*
X152154122Y-97250754D01*
X152156477Y-97248039D01*
X152164468Y-97230139D01*
X152212087Y-97087282D01*
X152214286Y-97077609D01*
X152215298Y-97075168D01*
X152215646Y-97071630D01*
X152216434Y-97068167D01*
X152216246Y-97065532D01*
X152217219Y-97055659D01*
X152217219Y-96960421D01*
X152216246Y-96950547D01*
X152216434Y-96947913D01*
X152215646Y-96944449D01*
X152215298Y-96940912D01*
X152214286Y-96938470D01*
X152212087Y-96928798D01*
X152164468Y-96785941D01*
X152156477Y-96768041D01*
X152154122Y-96765325D01*
X152152747Y-96762006D01*
X152140310Y-96746852D01*
X152092690Y-96699234D01*
X152077537Y-96686797D01*
X152052046Y-96676239D01*
X152041489Y-96671866D01*
X152021980Y-96669945D01*
X151688647Y-96669945D01*
X151669138Y-96671866D01*
X151633090Y-96686798D01*
X151605500Y-96714388D01*
X151590568Y-96750436D01*
X151588647Y-96769945D01*
X151588647Y-96960421D01*
X151590568Y-96979930D01*
X151605500Y-97015978D01*
X151633090Y-97043568D01*
X151669138Y-97058500D01*
X151708156Y-97058500D01*
X151744204Y-97043568D01*
X151771794Y-97015978D01*
X151786726Y-96979930D01*
X151788647Y-96960421D01*
X151788647Y-96869945D01*
X151980560Y-96869945D01*
X151982197Y-96871582D01*
X152017219Y-96976647D01*
X152017219Y-97039432D01*
X151982197Y-97144497D01*
X151915127Y-97211567D01*
X151844218Y-97247021D01*
X151676337Y-97288992D01*
X151558099Y-97288992D01*
X151390218Y-97247021D01*
X151319313Y-97211569D01*
X151252240Y-97144496D01*
X151217219Y-97039432D01*
X151217219Y-96936409D01*
X151254281Y-96862286D01*
X151261287Y-96843977D01*
X151264053Y-96805057D01*
X151251714Y-96768041D01*
X151226149Y-96738564D01*
X151191251Y-96721115D01*
X151152331Y-96718350D01*
X151115315Y-96730688D01*
X151085838Y-96756253D01*
X151075395Y-96772843D01*
X151027776Y-96868081D01*
X151020770Y-96886389D01*
X151020515Y-96889972D01*
X151019140Y-96893293D01*
X151017219Y-96912802D01*
X150906108Y-96912802D01*
X150906108Y-95103278D01*
X151017219Y-95103278D01*
X151017219Y-95579468D01*
X151017929Y-95586684D01*
X151017686Y-95589121D01*
X151018403Y-95591499D01*
X151019140Y-95598977D01*
X151024736Y-95612486D01*
X151028957Y-95626476D01*
X151032144Y-95630372D01*
X151034072Y-95635025D01*
X151044408Y-95645361D01*
X151053664Y-95656674D01*
X151058101Y-95659054D01*
X151061662Y-95662615D01*
X151075167Y-95668209D01*
X151088048Y-95675119D01*
X151095412Y-95676595D01*
X151097710Y-95677547D01*
X151100160Y-95677547D01*
X151107269Y-95678972D01*
X151583459Y-95726591D01*
X151603062Y-95726620D01*
X151607884Y-95725165D01*
X151612918Y-95725165D01*
X151626422Y-95719571D01*
X151640417Y-95715349D01*
X151644313Y-95712161D01*
X151648966Y-95710234D01*
X151659302Y-95699897D01*
X151670615Y-95690642D01*
X151672995Y-95686204D01*
X151676556Y-95682644D01*
X151682148Y-95669141D01*
X151689060Y-95656258D01*
X151689561Y-95651245D01*
X151691487Y-95646596D01*
X151691487Y-95631985D01*
X151692942Y-95617434D01*
X151691487Y-95612611D01*
X151691487Y-95607578D01*
X151685893Y-95594072D01*
X151681671Y-95580079D01*
X151678483Y-95576183D01*
X151676556Y-95571529D01*
X151664119Y-95556376D01*
X151627976Y-95520232D01*
X151598171Y-95460622D01*
X151598171Y-95269742D01*
X151627976Y-95210132D01*
X151652644Y-95185463D01*
X151712254Y-95155659D01*
X151903135Y-95155659D01*
X151962746Y-95185465D01*
X151987414Y-95210132D01*
X152017219Y-95269742D01*
X152017219Y-95460623D01*
X151987414Y-95520232D01*
X151951270Y-95556376D01*
X151938833Y-95571529D01*
X151923902Y-95607577D01*
X151923901Y-95646595D01*
X151938832Y-95682644D01*
X151966422Y-95710234D01*
X152002470Y-95725165D01*
X152041488Y-95725166D01*
X152077537Y-95710235D01*
X152092690Y-95697798D01*
X152140310Y-95650180D01*
X152146603Y-95642511D01*
X152148600Y-95640780D01*
X152150493Y-95637771D01*
X152152747Y-95635026D01*
X152153757Y-95632585D01*
X152159043Y-95624189D01*
X152206662Y-95528952D01*
X152213668Y-95510643D01*
X152213922Y-95507059D01*
X152215298Y-95503739D01*
X152217219Y-95484230D01*
X152217219Y-95246135D01*
X152215298Y-95226626D01*
X152213922Y-95223305D01*
X152213668Y-95219722D01*
X152206662Y-95201413D01*
X152159043Y-95106176D01*
X152153757Y-95097779D01*
X152152747Y-95095339D01*
X152150493Y-95092593D01*
X152148600Y-95089585D01*
X152146603Y-95087853D01*
X152140310Y-95080185D01*
X152092690Y-95032567D01*
X152085020Y-95026272D01*
X152083291Y-95024278D01*
X152080286Y-95022386D01*
X152077537Y-95020130D01*
X152075093Y-95019118D01*
X152066701Y-95013835D01*
X151971463Y-94966216D01*
X151953155Y-94959210D01*
X151949571Y-94958955D01*
X151946251Y-94957580D01*
X151926742Y-94955659D01*
X151688647Y-94955659D01*
X151669138Y-94957580D01*
X151665817Y-94958955D01*
X151662234Y-94959210D01*
X151643925Y-94966216D01*
X151548688Y-95013835D01*
X151540291Y-95019120D01*
X151537851Y-95020131D01*
X151535105Y-95022384D01*
X151532097Y-95024278D01*
X151530364Y-95026275D01*
X151522698Y-95032568D01*
X151475079Y-95080186D01*
X151468784Y-95087856D01*
X151466790Y-95089586D01*
X151464896Y-95092593D01*
X151462643Y-95095340D01*
X151461632Y-95097779D01*
X151456347Y-95106176D01*
X151408728Y-95201414D01*
X151401722Y-95219722D01*
X151401467Y-95223305D01*
X151400092Y-95226626D01*
X151398171Y-95246135D01*
X151398171Y-95484230D01*
X151400092Y-95503739D01*
X151401467Y-95507059D01*
X151401491Y-95507396D01*
X151217219Y-95488969D01*
X151217219Y-95103278D01*
X151215298Y-95083769D01*
X151200366Y-95047721D01*
X151172776Y-95020131D01*
X151136728Y-95005199D01*
X151097710Y-95005199D01*
X151061662Y-95020131D01*
X151034072Y-95047721D01*
X151019140Y-95083769D01*
X151017219Y-95103278D01*
X150906108Y-95103278D01*
X150906108Y-94090771D01*
X151018004Y-94090771D01*
X151020770Y-94129691D01*
X151038220Y-94164590D01*
X151067696Y-94190155D01*
X151085596Y-94198146D01*
X151800991Y-94436611D01*
X151085596Y-94675076D01*
X151067696Y-94683067D01*
X151038220Y-94708632D01*
X151020770Y-94743531D01*
X151018004Y-94782451D01*
X151030342Y-94819467D01*
X151055907Y-94848943D01*
X151090806Y-94866393D01*
X151129726Y-94869159D01*
X151148842Y-94864812D01*
X152148841Y-94531479D01*
X152166742Y-94523488D01*
X152172143Y-94518803D01*
X152178530Y-94515610D01*
X152186742Y-94506141D01*
X152196218Y-94497923D01*
X152199413Y-94491531D01*
X152204095Y-94486134D01*
X152208061Y-94474236D01*
X152213667Y-94463024D01*
X152214173Y-94455899D01*
X152216434Y-94449118D01*
X152215544Y-94436611D01*
X152216434Y-94424104D01*
X152214173Y-94417322D01*
X152213667Y-94410198D01*
X152208061Y-94398985D01*
X152204095Y-94387088D01*
X152199413Y-94381690D01*
X152196218Y-94375299D01*
X152186742Y-94367080D01*
X152178530Y-94357612D01*
X152172143Y-94354418D01*
X152166742Y-94349734D01*
X152148841Y-94341743D01*
X151148842Y-94008410D01*
X151129726Y-94004063D01*
X151090806Y-94006829D01*
X151055907Y-94024279D01*
X151030342Y-94053755D01*
X151018004Y-94090771D01*
X150906108Y-94090771D01*
X150906108Y-93892952D01*
X152328330Y-93892952D01*
X152328330Y-100933437D01*
G37*
D11*
X138668450Y-77974391D02*
X138668450Y-78607698D01*
X138668450Y-78607698D02*
X138705704Y-78682204D01*
X138705704Y-78682204D02*
X138742957Y-78719458D01*
X138742957Y-78719458D02*
X138817464Y-78756711D01*
X138817464Y-78756711D02*
X138966477Y-78756711D01*
X138966477Y-78756711D02*
X139040984Y-78719458D01*
X139040984Y-78719458D02*
X139078237Y-78682204D01*
X139078237Y-78682204D02*
X139115490Y-78607698D01*
X139115490Y-78607698D02*
X139115490Y-77974391D01*
X139450770Y-78048898D02*
X139488023Y-78011644D01*
X139488023Y-78011644D02*
X139562530Y-77974391D01*
X139562530Y-77974391D02*
X139748797Y-77974391D01*
X139748797Y-77974391D02*
X139823303Y-78011644D01*
X139823303Y-78011644D02*
X139860557Y-78048898D01*
X139860557Y-78048898D02*
X139897810Y-78123404D01*
X139897810Y-78123404D02*
X139897810Y-78197911D01*
X139897810Y-78197911D02*
X139860557Y-78309671D01*
X139860557Y-78309671D02*
X139413517Y-78756711D01*
X139413517Y-78756711D02*
X139897810Y-78756711D01*
D12*
X135214762Y-105118819D02*
X135786190Y-105118819D01*
X135500476Y-106118819D02*
X135500476Y-105118819D01*
X136452857Y-105595009D02*
X136595714Y-105642628D01*
X136595714Y-105642628D02*
X136643333Y-105690247D01*
X136643333Y-105690247D02*
X136690952Y-105785485D01*
X136690952Y-105785485D02*
X136690952Y-105928342D01*
X136690952Y-105928342D02*
X136643333Y-106023580D01*
X136643333Y-106023580D02*
X136595714Y-106071200D01*
X136595714Y-106071200D02*
X136500476Y-106118819D01*
X136500476Y-106118819D02*
X136119524Y-106118819D01*
X136119524Y-106118819D02*
X136119524Y-105118819D01*
X136119524Y-105118819D02*
X136452857Y-105118819D01*
X136452857Y-105118819D02*
X136548095Y-105166438D01*
X136548095Y-105166438D02*
X136595714Y-105214057D01*
X136595714Y-105214057D02*
X136643333Y-105309295D01*
X136643333Y-105309295D02*
X136643333Y-105404533D01*
X136643333Y-105404533D02*
X136595714Y-105499771D01*
X136595714Y-105499771D02*
X136548095Y-105547390D01*
X136548095Y-105547390D02*
X136452857Y-105595009D01*
X136452857Y-105595009D02*
X136119524Y-105595009D01*
X137119524Y-106118819D02*
X137119524Y-105118819D01*
X137119524Y-105118819D02*
X137357619Y-105118819D01*
X137357619Y-105118819D02*
X137500476Y-105166438D01*
X137500476Y-105166438D02*
X137595714Y-105261676D01*
X137595714Y-105261676D02*
X137643333Y-105356914D01*
X137643333Y-105356914D02*
X137690952Y-105547390D01*
X137690952Y-105547390D02*
X137690952Y-105690247D01*
X137690952Y-105690247D02*
X137643333Y-105880723D01*
X137643333Y-105880723D02*
X137595714Y-105975961D01*
X137595714Y-105975961D02*
X137500476Y-106071200D01*
X137500476Y-106071200D02*
X137357619Y-106118819D01*
X137357619Y-106118819D02*
X137119524Y-106118819D01*
X138548095Y-105118819D02*
X138357619Y-105118819D01*
X138357619Y-105118819D02*
X138262381Y-105166438D01*
X138262381Y-105166438D02*
X138214762Y-105214057D01*
X138214762Y-105214057D02*
X138119524Y-105356914D01*
X138119524Y-105356914D02*
X138071905Y-105547390D01*
X138071905Y-105547390D02*
X138071905Y-105928342D01*
X138071905Y-105928342D02*
X138119524Y-106023580D01*
X138119524Y-106023580D02*
X138167143Y-106071200D01*
X138167143Y-106071200D02*
X138262381Y-106118819D01*
X138262381Y-106118819D02*
X138452857Y-106118819D01*
X138452857Y-106118819D02*
X138548095Y-106071200D01*
X138548095Y-106071200D02*
X138595714Y-106023580D01*
X138595714Y-106023580D02*
X138643333Y-105928342D01*
X138643333Y-105928342D02*
X138643333Y-105690247D01*
X138643333Y-105690247D02*
X138595714Y-105595009D01*
X138595714Y-105595009D02*
X138548095Y-105547390D01*
X138548095Y-105547390D02*
X138452857Y-105499771D01*
X138452857Y-105499771D02*
X138262381Y-105499771D01*
X138262381Y-105499771D02*
X138167143Y-105547390D01*
X138167143Y-105547390D02*
X138119524Y-105595009D01*
X138119524Y-105595009D02*
X138071905Y-105690247D01*
X139024286Y-105214057D02*
X139071905Y-105166438D01*
X139071905Y-105166438D02*
X139167143Y-105118819D01*
X139167143Y-105118819D02*
X139405238Y-105118819D01*
X139405238Y-105118819D02*
X139500476Y-105166438D01*
X139500476Y-105166438D02*
X139548095Y-105214057D01*
X139548095Y-105214057D02*
X139595714Y-105309295D01*
X139595714Y-105309295D02*
X139595714Y-105404533D01*
X139595714Y-105404533D02*
X139548095Y-105547390D01*
X139548095Y-105547390D02*
X138976667Y-106118819D01*
X138976667Y-106118819D02*
X139595714Y-106118819D01*
X140214762Y-105118819D02*
X140310000Y-105118819D01*
X140310000Y-105118819D02*
X140405238Y-105166438D01*
X140405238Y-105166438D02*
X140452857Y-105214057D01*
X140452857Y-105214057D02*
X140500476Y-105309295D01*
X140500476Y-105309295D02*
X140548095Y-105499771D01*
X140548095Y-105499771D02*
X140548095Y-105737866D01*
X140548095Y-105737866D02*
X140500476Y-105928342D01*
X140500476Y-105928342D02*
X140452857Y-106023580D01*
X140452857Y-106023580D02*
X140405238Y-106071200D01*
X140405238Y-106071200D02*
X140310000Y-106118819D01*
X140310000Y-106118819D02*
X140214762Y-106118819D01*
X140214762Y-106118819D02*
X140119524Y-106071200D01*
X140119524Y-106071200D02*
X140071905Y-106023580D01*
X140071905Y-106023580D02*
X140024286Y-105928342D01*
X140024286Y-105928342D02*
X139976667Y-105737866D01*
X139976667Y-105737866D02*
X139976667Y-105499771D01*
X139976667Y-105499771D02*
X140024286Y-105309295D01*
X140024286Y-105309295D02*
X140071905Y-105214057D01*
X140071905Y-105214057D02*
X140119524Y-105166438D01*
X140119524Y-105166438D02*
X140214762Y-105118819D01*
X141167143Y-105118819D02*
X141262381Y-105118819D01*
X141262381Y-105118819D02*
X141357619Y-105166438D01*
X141357619Y-105166438D02*
X141405238Y-105214057D01*
X141405238Y-105214057D02*
X141452857Y-105309295D01*
X141452857Y-105309295D02*
X141500476Y-105499771D01*
X141500476Y-105499771D02*
X141500476Y-105737866D01*
X141500476Y-105737866D02*
X141452857Y-105928342D01*
X141452857Y-105928342D02*
X141405238Y-106023580D01*
X141405238Y-106023580D02*
X141357619Y-106071200D01*
X141357619Y-106071200D02*
X141262381Y-106118819D01*
X141262381Y-106118819D02*
X141167143Y-106118819D01*
X141167143Y-106118819D02*
X141071905Y-106071200D01*
X141071905Y-106071200D02*
X141024286Y-106023580D01*
X141024286Y-106023580D02*
X140976667Y-105928342D01*
X140976667Y-105928342D02*
X140929048Y-105737866D01*
X140929048Y-105737866D02*
X140929048Y-105499771D01*
X140929048Y-105499771D02*
X140976667Y-105309295D01*
X140976667Y-105309295D02*
X141024286Y-105214057D01*
X141024286Y-105214057D02*
X141071905Y-105166438D01*
X141071905Y-105166438D02*
X141167143Y-105118819D01*
X141833810Y-105118819D02*
X142452857Y-105118819D01*
X142452857Y-105118819D02*
X142119524Y-105499771D01*
X142119524Y-105499771D02*
X142262381Y-105499771D01*
X142262381Y-105499771D02*
X142357619Y-105547390D01*
X142357619Y-105547390D02*
X142405238Y-105595009D01*
X142405238Y-105595009D02*
X142452857Y-105690247D01*
X142452857Y-105690247D02*
X142452857Y-105928342D01*
X142452857Y-105928342D02*
X142405238Y-106023580D01*
X142405238Y-106023580D02*
X142357619Y-106071200D01*
X142357619Y-106071200D02*
X142262381Y-106118819D01*
X142262381Y-106118819D02*
X141976667Y-106118819D01*
X141976667Y-106118819D02*
X141881429Y-106071200D01*
X141881429Y-106071200D02*
X141833810Y-106023580D01*
X142833810Y-105833104D02*
X143310000Y-105833104D01*
X142738572Y-106118819D02*
X143071905Y-105118819D01*
X143071905Y-105118819D02*
X143405238Y-106118819D01*
X143738572Y-106118819D02*
X143738572Y-105118819D01*
X143738572Y-105118819D02*
X144119524Y-105118819D01*
X144119524Y-105118819D02*
X144214762Y-105166438D01*
X144214762Y-105166438D02*
X144262381Y-105214057D01*
X144262381Y-105214057D02*
X144310000Y-105309295D01*
X144310000Y-105309295D02*
X144310000Y-105452152D01*
X144310000Y-105452152D02*
X144262381Y-105547390D01*
X144262381Y-105547390D02*
X144214762Y-105595009D01*
X144214762Y-105595009D02*
X144119524Y-105642628D01*
X144119524Y-105642628D02*
X143738572Y-105642628D01*
X145262381Y-105166438D02*
X145167143Y-105118819D01*
X145167143Y-105118819D02*
X145024286Y-105118819D01*
X145024286Y-105118819D02*
X144881429Y-105166438D01*
X144881429Y-105166438D02*
X144786191Y-105261676D01*
X144786191Y-105261676D02*
X144738572Y-105356914D01*
X144738572Y-105356914D02*
X144690953Y-105547390D01*
X144690953Y-105547390D02*
X144690953Y-105690247D01*
X144690953Y-105690247D02*
X144738572Y-105880723D01*
X144738572Y-105880723D02*
X144786191Y-105975961D01*
X144786191Y-105975961D02*
X144881429Y-106071200D01*
X144881429Y-106071200D02*
X145024286Y-106118819D01*
X145024286Y-106118819D02*
X145119524Y-106118819D01*
X145119524Y-106118819D02*
X145262381Y-106071200D01*
X145262381Y-106071200D02*
X145310000Y-106023580D01*
X145310000Y-106023580D02*
X145310000Y-105690247D01*
X145310000Y-105690247D02*
X145119524Y-105690247D01*
X152078380Y-103985247D02*
X152126000Y-104032866D01*
X152126000Y-104032866D02*
X152173619Y-104175723D01*
X152173619Y-104175723D02*
X152173619Y-104270961D01*
X152173619Y-104270961D02*
X152126000Y-104413818D01*
X152126000Y-104413818D02*
X152030761Y-104509056D01*
X152030761Y-104509056D02*
X151935523Y-104556675D01*
X151935523Y-104556675D02*
X151745047Y-104604294D01*
X151745047Y-104604294D02*
X151602190Y-104604294D01*
X151602190Y-104604294D02*
X151411714Y-104556675D01*
X151411714Y-104556675D02*
X151316476Y-104509056D01*
X151316476Y-104509056D02*
X151221238Y-104413818D01*
X151221238Y-104413818D02*
X151173619Y-104270961D01*
X151173619Y-104270961D02*
X151173619Y-104175723D01*
X151173619Y-104175723D02*
X151221238Y-104032866D01*
X151221238Y-104032866D02*
X151268857Y-103985247D01*
X151887904Y-103604294D02*
X151887904Y-103128104D01*
X152173619Y-103699532D02*
X151173619Y-103366199D01*
X151173619Y-103366199D02*
X152173619Y-103032866D01*
X152173619Y-102699532D02*
X151173619Y-102699532D01*
X151173619Y-102699532D02*
X152173619Y-102128104D01*
X152173619Y-102128104D02*
X151173619Y-102128104D01*
X151268857Y-101699532D02*
X151221238Y-101651913D01*
X151221238Y-101651913D02*
X151173619Y-101556675D01*
X151173619Y-101556675D02*
X151173619Y-101318580D01*
X151173619Y-101318580D02*
X151221238Y-101223342D01*
X151221238Y-101223342D02*
X151268857Y-101175723D01*
X151268857Y-101175723D02*
X151364095Y-101128104D01*
X151364095Y-101128104D02*
X151459333Y-101128104D01*
X151459333Y-101128104D02*
X151602190Y-101175723D01*
X151602190Y-101175723D02*
X152173619Y-101747151D01*
X152173619Y-101747151D02*
X152173619Y-101128104D01*
X128019200Y-111346333D02*
X128066819Y-111203476D01*
X128066819Y-111203476D02*
X128066819Y-110965381D01*
X128066819Y-110965381D02*
X128019200Y-110870143D01*
X128019200Y-110870143D02*
X127971580Y-110822524D01*
X127971580Y-110822524D02*
X127876342Y-110774905D01*
X127876342Y-110774905D02*
X127781104Y-110774905D01*
X127781104Y-110774905D02*
X127685866Y-110822524D01*
X127685866Y-110822524D02*
X127638247Y-110870143D01*
X127638247Y-110870143D02*
X127590628Y-110965381D01*
X127590628Y-110965381D02*
X127543009Y-111155857D01*
X127543009Y-111155857D02*
X127495390Y-111251095D01*
X127495390Y-111251095D02*
X127447771Y-111298714D01*
X127447771Y-111298714D02*
X127352533Y-111346333D01*
X127352533Y-111346333D02*
X127257295Y-111346333D01*
X127257295Y-111346333D02*
X127162057Y-111298714D01*
X127162057Y-111298714D02*
X127114438Y-111251095D01*
X127114438Y-111251095D02*
X127066819Y-111155857D01*
X127066819Y-111155857D02*
X127066819Y-110917762D01*
X127066819Y-110917762D02*
X127114438Y-110774905D01*
X128019200Y-109965381D02*
X128066819Y-110060619D01*
X128066819Y-110060619D02*
X128066819Y-110251095D01*
X128066819Y-110251095D02*
X128019200Y-110346333D01*
X128019200Y-110346333D02*
X127923961Y-110393952D01*
X127923961Y-110393952D02*
X127543009Y-110393952D01*
X127543009Y-110393952D02*
X127447771Y-110346333D01*
X127447771Y-110346333D02*
X127400152Y-110251095D01*
X127400152Y-110251095D02*
X127400152Y-110060619D01*
X127400152Y-110060619D02*
X127447771Y-109965381D01*
X127447771Y-109965381D02*
X127543009Y-109917762D01*
X127543009Y-109917762D02*
X127638247Y-109917762D01*
X127638247Y-109917762D02*
X127733485Y-110393952D01*
X128066819Y-109489190D02*
X127400152Y-109489190D01*
X127590628Y-109489190D02*
X127495390Y-109441571D01*
X127495390Y-109441571D02*
X127447771Y-109393952D01*
X127447771Y-109393952D02*
X127400152Y-109298714D01*
X127400152Y-109298714D02*
X127400152Y-109203476D01*
X127400152Y-108965380D02*
X128066819Y-108727285D01*
X128066819Y-108727285D02*
X127400152Y-108489190D01*
X128066819Y-107965380D02*
X128019200Y-108060618D01*
X128019200Y-108060618D02*
X127971580Y-108108237D01*
X127971580Y-108108237D02*
X127876342Y-108155856D01*
X127876342Y-108155856D02*
X127590628Y-108155856D01*
X127590628Y-108155856D02*
X127495390Y-108108237D01*
X127495390Y-108108237D02*
X127447771Y-108060618D01*
X127447771Y-108060618D02*
X127400152Y-107965380D01*
X127400152Y-107965380D02*
X127400152Y-107822523D01*
X127400152Y-107822523D02*
X127447771Y-107727285D01*
X127447771Y-107727285D02*
X127495390Y-107679666D01*
X127495390Y-107679666D02*
X127590628Y-107632047D01*
X127590628Y-107632047D02*
X127876342Y-107632047D01*
X127876342Y-107632047D02*
X127971580Y-107679666D01*
X127971580Y-107679666D02*
X128019200Y-107727285D01*
X128019200Y-107727285D02*
X128066819Y-107822523D01*
X128066819Y-107822523D02*
X128066819Y-107965380D01*
X127066819Y-107298713D02*
X127066819Y-106679666D01*
X127066819Y-106679666D02*
X127447771Y-107012999D01*
X127447771Y-107012999D02*
X127447771Y-106870142D01*
X127447771Y-106870142D02*
X127495390Y-106774904D01*
X127495390Y-106774904D02*
X127543009Y-106727285D01*
X127543009Y-106727285D02*
X127638247Y-106679666D01*
X127638247Y-106679666D02*
X127876342Y-106679666D01*
X127876342Y-106679666D02*
X127971580Y-106727285D01*
X127971580Y-106727285D02*
X128019200Y-106774904D01*
X128019200Y-106774904D02*
X128066819Y-106870142D01*
X128066819Y-106870142D02*
X128066819Y-107155856D01*
X128066819Y-107155856D02*
X128019200Y-107251094D01*
X128019200Y-107251094D02*
X127971580Y-107298713D01*
D10*
G36*
X137513945Y-113693330D02*
G01*
X131046810Y-113693330D01*
X131046810Y-113462710D01*
X131157921Y-113462710D01*
X131157921Y-113501728D01*
X131172853Y-113537776D01*
X131200443Y-113565366D01*
X131236491Y-113580298D01*
X131256000Y-113582219D01*
X131875047Y-113582219D01*
X131894556Y-113580298D01*
X131930604Y-113565366D01*
X131958194Y-113537776D01*
X131973126Y-113501728D01*
X131973126Y-113462710D01*
X131958194Y-113426662D01*
X131930604Y-113399072D01*
X131894556Y-113384140D01*
X131875047Y-113382219D01*
X131497422Y-113382219D01*
X131743262Y-113136378D01*
X132156785Y-113136378D01*
X132157921Y-113152362D01*
X132157921Y-113168394D01*
X132159296Y-113171714D01*
X132159551Y-113175298D01*
X132166718Y-113189633D01*
X132172853Y-113204442D01*
X132175393Y-113206982D01*
X132177001Y-113210197D01*
X132189112Y-113220701D01*
X132200443Y-113232032D01*
X132203761Y-113233406D01*
X132206477Y-113235762D01*
X132221686Y-113240831D01*
X132236491Y-113246964D01*
X132241591Y-113247466D01*
X132243493Y-113248100D01*
X132246126Y-113247912D01*
X132256000Y-113248885D01*
X132632190Y-113248885D01*
X132632190Y-113482219D01*
X132634111Y-113501728D01*
X132649043Y-113537776D01*
X132676633Y-113565366D01*
X132712681Y-113580298D01*
X132751699Y-113580298D01*
X132787747Y-113565366D01*
X132815337Y-113537776D01*
X132830269Y-113501728D01*
X132832190Y-113482219D01*
X132832190Y-113248885D01*
X132875047Y-113248885D01*
X132894556Y-113246964D01*
X132930604Y-113232032D01*
X132958194Y-113204442D01*
X132973126Y-113168394D01*
X132973126Y-113129376D01*
X132958194Y-113093328D01*
X132930604Y-113065738D01*
X132894556Y-113050806D01*
X132875047Y-113048885D01*
X132832190Y-113048885D01*
X132832190Y-112815552D01*
X132830269Y-112796043D01*
X132815337Y-112759995D01*
X132787747Y-112732405D01*
X132751699Y-112717473D01*
X132712681Y-112717473D01*
X132676633Y-112732405D01*
X132649043Y-112759995D01*
X132634111Y-112796043D01*
X132632190Y-112815552D01*
X132632190Y-113048885D01*
X132394742Y-113048885D01*
X132579462Y-112494726D01*
X133013928Y-112494726D01*
X133018275Y-112513842D01*
X133351608Y-113513841D01*
X133359599Y-113531742D01*
X133364282Y-113537141D01*
X133367477Y-113543531D01*
X133376948Y-113551746D01*
X133385164Y-113561218D01*
X133391552Y-113564412D01*
X133396953Y-113569096D01*
X133408854Y-113573063D01*
X133420063Y-113578667D01*
X133427187Y-113579173D01*
X133433969Y-113581434D01*
X133446478Y-113580544D01*
X133458983Y-113581434D01*
X133465761Y-113579174D01*
X133472889Y-113578668D01*
X133484105Y-113573059D01*
X133495999Y-113569095D01*
X133501396Y-113564414D01*
X133507788Y-113561218D01*
X133516006Y-113551742D01*
X133525475Y-113543530D01*
X133528668Y-113537143D01*
X133533353Y-113531742D01*
X133541344Y-113513842D01*
X133558388Y-113462710D01*
X134681731Y-113462710D01*
X134681731Y-113501728D01*
X134696663Y-113537776D01*
X134724253Y-113565366D01*
X134760301Y-113580298D01*
X134779810Y-113582219D01*
X135398857Y-113582219D01*
X135418366Y-113580298D01*
X135454414Y-113565366D01*
X135482004Y-113537776D01*
X135496936Y-113501728D01*
X135496936Y-113462710D01*
X135482004Y-113426662D01*
X135454414Y-113399072D01*
X135418366Y-113384140D01*
X135398857Y-113382219D01*
X135021232Y-113382219D01*
X135267072Y-113136378D01*
X135680595Y-113136378D01*
X135681731Y-113152362D01*
X135681731Y-113168394D01*
X135683106Y-113171714D01*
X135683361Y-113175298D01*
X135690528Y-113189633D01*
X135696663Y-113204442D01*
X135699203Y-113206982D01*
X135700811Y-113210197D01*
X135712922Y-113220701D01*
X135724253Y-113232032D01*
X135727571Y-113233406D01*
X135730287Y-113235762D01*
X135745496Y-113240831D01*
X135760301Y-113246964D01*
X135765401Y-113247466D01*
X135767303Y-113248100D01*
X135769936Y-113247912D01*
X135779810Y-113248885D01*
X136156000Y-113248885D01*
X136156000Y-113482219D01*
X136157921Y-113501728D01*
X136172853Y-113537776D01*
X136200443Y-113565366D01*
X136236491Y-113580298D01*
X136275509Y-113580298D01*
X136311557Y-113565366D01*
X136339147Y-113537776D01*
X136354079Y-113501728D01*
X136356000Y-113482219D01*
X136356000Y-113248885D01*
X136398857Y-113248885D01*
X136418366Y-113246964D01*
X136454414Y-113232032D01*
X136482004Y-113204442D01*
X136496936Y-113168394D01*
X136496936Y-113129376D01*
X136482004Y-113093328D01*
X136454414Y-113065738D01*
X136418366Y-113050806D01*
X136398857Y-113048885D01*
X136356000Y-113048885D01*
X136356000Y-112815552D01*
X136354079Y-112796043D01*
X136339147Y-112759995D01*
X136311557Y-112732405D01*
X136275509Y-112717473D01*
X136236491Y-112717473D01*
X136200443Y-112732405D01*
X136172853Y-112759995D01*
X136157921Y-112796043D01*
X136156000Y-112815552D01*
X136156000Y-113048885D01*
X135918552Y-113048885D01*
X136103272Y-112494726D01*
X136537738Y-112494726D01*
X136542085Y-112513842D01*
X136875418Y-113513841D01*
X136883409Y-113531742D01*
X136888092Y-113537141D01*
X136891287Y-113543531D01*
X136900758Y-113551746D01*
X136908974Y-113561218D01*
X136915362Y-113564412D01*
X136920763Y-113569096D01*
X136932664Y-113573063D01*
X136943873Y-113578667D01*
X136950997Y-113579173D01*
X136957779Y-113581434D01*
X136970288Y-113580544D01*
X136982793Y-113581434D01*
X136989571Y-113579174D01*
X136996699Y-113578668D01*
X137007915Y-113573059D01*
X137019809Y-113569095D01*
X137025206Y-113564414D01*
X137031598Y-113561218D01*
X137039816Y-113551742D01*
X137049285Y-113543530D01*
X137052478Y-113537143D01*
X137057163Y-113531742D01*
X137065154Y-113513842D01*
X137398487Y-112513842D01*
X137402834Y-112494727D01*
X137400068Y-112455807D01*
X137382618Y-112420908D01*
X137353142Y-112395343D01*
X137316126Y-112383004D01*
X137277206Y-112385771D01*
X137242307Y-112403220D01*
X137216742Y-112432696D01*
X137208751Y-112450597D01*
X136970286Y-113165991D01*
X136731821Y-112450596D01*
X136723830Y-112432696D01*
X136698265Y-112403220D01*
X136663366Y-112385770D01*
X136624446Y-112383004D01*
X136587430Y-112395342D01*
X136557954Y-112420907D01*
X136540504Y-112455806D01*
X136537738Y-112494726D01*
X136103272Y-112494726D01*
X136112773Y-112466223D01*
X136117120Y-112447108D01*
X136114354Y-112408188D01*
X136096904Y-112373289D01*
X136067428Y-112347724D01*
X136030412Y-112335385D01*
X135991492Y-112338152D01*
X135956593Y-112355601D01*
X135931028Y-112385077D01*
X135923037Y-112402978D01*
X135684942Y-113117262D01*
X135682742Y-113126933D01*
X135681731Y-113129376D01*
X135681731Y-113131382D01*
X135680595Y-113136378D01*
X135267072Y-113136378D01*
X135421949Y-112981501D01*
X135434385Y-112966347D01*
X135435759Y-112963028D01*
X135438115Y-112960313D01*
X135446106Y-112942413D01*
X135493725Y-112799556D01*
X135495924Y-112789883D01*
X135496936Y-112787442D01*
X135497284Y-112783904D01*
X135498072Y-112780441D01*
X135497884Y-112777806D01*
X135498857Y-112767933D01*
X135498857Y-112672695D01*
X135496936Y-112653186D01*
X135495560Y-112649865D01*
X135495306Y-112646282D01*
X135488300Y-112627973D01*
X135440681Y-112532736D01*
X135435395Y-112524339D01*
X135434385Y-112521899D01*
X135432131Y-112519153D01*
X135430238Y-112516145D01*
X135428240Y-112514412D01*
X135421948Y-112506746D01*
X135374330Y-112459127D01*
X135366659Y-112452832D01*
X135364930Y-112450838D01*
X135361922Y-112448944D01*
X135359176Y-112446691D01*
X135356736Y-112445680D01*
X135348340Y-112440395D01*
X135253102Y-112392776D01*
X135234794Y-112385770D01*
X135231210Y-112385515D01*
X135227890Y-112384140D01*
X135208381Y-112382219D01*
X134970286Y-112382219D01*
X134950777Y-112384140D01*
X134947456Y-112385515D01*
X134943873Y-112385770D01*
X134925564Y-112392776D01*
X134830327Y-112440395D01*
X134821930Y-112445680D01*
X134819490Y-112446691D01*
X134816744Y-112448944D01*
X134813736Y-112450838D01*
X134812003Y-112452835D01*
X134804337Y-112459128D01*
X134756718Y-112506746D01*
X134744282Y-112521900D01*
X134729350Y-112557948D01*
X134729350Y-112596966D01*
X134744282Y-112633014D01*
X134771872Y-112660604D01*
X134807920Y-112675536D01*
X134846938Y-112675536D01*
X134882986Y-112660604D01*
X134898140Y-112648168D01*
X134934283Y-112612023D01*
X134993893Y-112582219D01*
X135184774Y-112582219D01*
X135244383Y-112612024D01*
X135269052Y-112636692D01*
X135298857Y-112696302D01*
X135298857Y-112751706D01*
X135263835Y-112856770D01*
X134709099Y-113411508D01*
X134696663Y-113426662D01*
X134681731Y-113462710D01*
X133558388Y-113462710D01*
X133874677Y-112513842D01*
X133879024Y-112494727D01*
X133876258Y-112455807D01*
X133858808Y-112420908D01*
X133829332Y-112395343D01*
X133792316Y-112383004D01*
X133753396Y-112385771D01*
X133718497Y-112403220D01*
X133692932Y-112432696D01*
X133684941Y-112450597D01*
X133446476Y-113165991D01*
X133208011Y-112450596D01*
X133200020Y-112432696D01*
X133174455Y-112403220D01*
X133139556Y-112385770D01*
X133100636Y-112383004D01*
X133063620Y-112395342D01*
X133034144Y-112420907D01*
X133016694Y-112455806D01*
X133013928Y-112494726D01*
X132579462Y-112494726D01*
X132588963Y-112466223D01*
X132593310Y-112447108D01*
X132590544Y-112408188D01*
X132573094Y-112373289D01*
X132543618Y-112347724D01*
X132506602Y-112335385D01*
X132467682Y-112338152D01*
X132432783Y-112355601D01*
X132407218Y-112385077D01*
X132399227Y-112402978D01*
X132161132Y-113117262D01*
X132158932Y-113126933D01*
X132157921Y-113129376D01*
X132157921Y-113131382D01*
X132156785Y-113136378D01*
X131743262Y-113136378D01*
X131898139Y-112981501D01*
X131910575Y-112966347D01*
X131911949Y-112963028D01*
X131914305Y-112960313D01*
X131922296Y-112942413D01*
X131969915Y-112799556D01*
X131972114Y-112789883D01*
X131973126Y-112787442D01*
X131973474Y-112783904D01*
X131974262Y-112780441D01*
X131974074Y-112777806D01*
X131975047Y-112767933D01*
X131975047Y-112672695D01*
X131973126Y-112653186D01*
X131971750Y-112649865D01*
X131971496Y-112646282D01*
X131964490Y-112627973D01*
X131916871Y-112532736D01*
X131911585Y-112524339D01*
X131910575Y-112521899D01*
X131908321Y-112519153D01*
X131906428Y-112516145D01*
X131904430Y-112514412D01*
X131898138Y-112506746D01*
X131850520Y-112459127D01*
X131842849Y-112452832D01*
X131841120Y-112450838D01*
X131838112Y-112448944D01*
X131835366Y-112446691D01*
X131832926Y-112445680D01*
X131824530Y-112440395D01*
X131729292Y-112392776D01*
X131710984Y-112385770D01*
X131707400Y-112385515D01*
X131704080Y-112384140D01*
X131684571Y-112382219D01*
X131446476Y-112382219D01*
X131426967Y-112384140D01*
X131423646Y-112385515D01*
X131420063Y-112385770D01*
X131401754Y-112392776D01*
X131306517Y-112440395D01*
X131298120Y-112445680D01*
X131295680Y-112446691D01*
X131292934Y-112448944D01*
X131289926Y-112450838D01*
X131288193Y-112452835D01*
X131280527Y-112459128D01*
X131232908Y-112506746D01*
X131220472Y-112521900D01*
X131205540Y-112557948D01*
X131205540Y-112596966D01*
X131220472Y-112633014D01*
X131248062Y-112660604D01*
X131284110Y-112675536D01*
X131323128Y-112675536D01*
X131359176Y-112660604D01*
X131374330Y-112648168D01*
X131410473Y-112612023D01*
X131470083Y-112582219D01*
X131660964Y-112582219D01*
X131720573Y-112612024D01*
X131745242Y-112636692D01*
X131775047Y-112696302D01*
X131775047Y-112751706D01*
X131740025Y-112856770D01*
X131185289Y-113411508D01*
X131172853Y-113426662D01*
X131157921Y-113462710D01*
X131046810Y-113462710D01*
X131046810Y-112224274D01*
X137513945Y-112224274D01*
X137513945Y-113693330D01*
G37*
D12*
X129684571Y-113200700D02*
X130827429Y-113200700D01*
X137684571Y-113200700D02*
X138827429Y-113200700D01*
X138256000Y-113772128D02*
X138256000Y-112629271D01*
X142153905Y-116786819D02*
X142153905Y-115786819D01*
X142153905Y-115786819D02*
X142487238Y-116501104D01*
X142487238Y-116501104D02*
X142820571Y-115786819D01*
X142820571Y-115786819D02*
X142820571Y-116786819D01*
X143868190Y-116691580D02*
X143820571Y-116739200D01*
X143820571Y-116739200D02*
X143677714Y-116786819D01*
X143677714Y-116786819D02*
X143582476Y-116786819D01*
X143582476Y-116786819D02*
X143439619Y-116739200D01*
X143439619Y-116739200D02*
X143344381Y-116643961D01*
X143344381Y-116643961D02*
X143296762Y-116548723D01*
X143296762Y-116548723D02*
X143249143Y-116358247D01*
X143249143Y-116358247D02*
X143249143Y-116215390D01*
X143249143Y-116215390D02*
X143296762Y-116024914D01*
X143296762Y-116024914D02*
X143344381Y-115929676D01*
X143344381Y-115929676D02*
X143439619Y-115834438D01*
X143439619Y-115834438D02*
X143582476Y-115786819D01*
X143582476Y-115786819D02*
X143677714Y-115786819D01*
X143677714Y-115786819D02*
X143820571Y-115834438D01*
X143820571Y-115834438D02*
X143868190Y-115882057D01*
X144296762Y-116786819D02*
X144296762Y-115786819D01*
X144296762Y-115786819D02*
X144677714Y-115786819D01*
X144677714Y-115786819D02*
X144772952Y-115834438D01*
X144772952Y-115834438D02*
X144820571Y-115882057D01*
X144820571Y-115882057D02*
X144868190Y-115977295D01*
X144868190Y-115977295D02*
X144868190Y-116120152D01*
X144868190Y-116120152D02*
X144820571Y-116215390D01*
X144820571Y-116215390D02*
X144772952Y-116263009D01*
X144772952Y-116263009D02*
X144677714Y-116310628D01*
X144677714Y-116310628D02*
X144296762Y-116310628D01*
X145249143Y-115882057D02*
X145296762Y-115834438D01*
X145296762Y-115834438D02*
X145392000Y-115786819D01*
X145392000Y-115786819D02*
X145630095Y-115786819D01*
X145630095Y-115786819D02*
X145725333Y-115834438D01*
X145725333Y-115834438D02*
X145772952Y-115882057D01*
X145772952Y-115882057D02*
X145820571Y-115977295D01*
X145820571Y-115977295D02*
X145820571Y-116072533D01*
X145820571Y-116072533D02*
X145772952Y-116215390D01*
X145772952Y-116215390D02*
X145201524Y-116786819D01*
X145201524Y-116786819D02*
X145820571Y-116786819D01*
X146725333Y-115786819D02*
X146249143Y-115786819D01*
X146249143Y-115786819D02*
X146201524Y-116263009D01*
X146201524Y-116263009D02*
X146249143Y-116215390D01*
X146249143Y-116215390D02*
X146344381Y-116167771D01*
X146344381Y-116167771D02*
X146582476Y-116167771D01*
X146582476Y-116167771D02*
X146677714Y-116215390D01*
X146677714Y-116215390D02*
X146725333Y-116263009D01*
X146725333Y-116263009D02*
X146772952Y-116358247D01*
X146772952Y-116358247D02*
X146772952Y-116596342D01*
X146772952Y-116596342D02*
X146725333Y-116691580D01*
X146725333Y-116691580D02*
X146677714Y-116739200D01*
X146677714Y-116739200D02*
X146582476Y-116786819D01*
X146582476Y-116786819D02*
X146344381Y-116786819D01*
X146344381Y-116786819D02*
X146249143Y-116739200D01*
X146249143Y-116739200D02*
X146201524Y-116691580D01*
X147630095Y-115786819D02*
X147439619Y-115786819D01*
X147439619Y-115786819D02*
X147344381Y-115834438D01*
X147344381Y-115834438D02*
X147296762Y-115882057D01*
X147296762Y-115882057D02*
X147201524Y-116024914D01*
X147201524Y-116024914D02*
X147153905Y-116215390D01*
X147153905Y-116215390D02*
X147153905Y-116596342D01*
X147153905Y-116596342D02*
X147201524Y-116691580D01*
X147201524Y-116691580D02*
X147249143Y-116739200D01*
X147249143Y-116739200D02*
X147344381Y-116786819D01*
X147344381Y-116786819D02*
X147534857Y-116786819D01*
X147534857Y-116786819D02*
X147630095Y-116739200D01*
X147630095Y-116739200D02*
X147677714Y-116691580D01*
X147677714Y-116691580D02*
X147725333Y-116596342D01*
X147725333Y-116596342D02*
X147725333Y-116358247D01*
X147725333Y-116358247D02*
X147677714Y-116263009D01*
X147677714Y-116263009D02*
X147630095Y-116215390D01*
X147630095Y-116215390D02*
X147534857Y-116167771D01*
X147534857Y-116167771D02*
X147344381Y-116167771D01*
X147344381Y-116167771D02*
X147249143Y-116215390D01*
X147249143Y-116215390D02*
X147201524Y-116263009D01*
X147201524Y-116263009D02*
X147153905Y-116358247D01*
X148677714Y-116786819D02*
X148106286Y-116786819D01*
X148392000Y-116786819D02*
X148392000Y-115786819D01*
X148392000Y-115786819D02*
X148296762Y-115929676D01*
X148296762Y-115929676D02*
X148201524Y-116024914D01*
X148201524Y-116024914D02*
X148106286Y-116072533D01*
X152019800Y-123313675D02*
X152067419Y-123170818D01*
X152067419Y-123170818D02*
X152067419Y-122932723D01*
X152067419Y-122932723D02*
X152019800Y-122837485D01*
X152019800Y-122837485D02*
X151972180Y-122789866D01*
X151972180Y-122789866D02*
X151876942Y-122742247D01*
X151876942Y-122742247D02*
X151781704Y-122742247D01*
X151781704Y-122742247D02*
X151686466Y-122789866D01*
X151686466Y-122789866D02*
X151638847Y-122837485D01*
X151638847Y-122837485D02*
X151591228Y-122932723D01*
X151591228Y-122932723D02*
X151543609Y-123123199D01*
X151543609Y-123123199D02*
X151495990Y-123218437D01*
X151495990Y-123218437D02*
X151448371Y-123266056D01*
X151448371Y-123266056D02*
X151353133Y-123313675D01*
X151353133Y-123313675D02*
X151257895Y-123313675D01*
X151257895Y-123313675D02*
X151162657Y-123266056D01*
X151162657Y-123266056D02*
X151115038Y-123218437D01*
X151115038Y-123218437D02*
X151067419Y-123123199D01*
X151067419Y-123123199D02*
X151067419Y-122885104D01*
X151067419Y-122885104D02*
X151115038Y-122742247D01*
X151067419Y-122456532D02*
X152067419Y-122123199D01*
X152067419Y-122123199D02*
X151067419Y-121789866D01*
X151067419Y-121551770D02*
X151067419Y-120932723D01*
X151067419Y-120932723D02*
X151448371Y-121266056D01*
X151448371Y-121266056D02*
X151448371Y-121123199D01*
X151448371Y-121123199D02*
X151495990Y-121027961D01*
X151495990Y-121027961D02*
X151543609Y-120980342D01*
X151543609Y-120980342D02*
X151638847Y-120932723D01*
X151638847Y-120932723D02*
X151876942Y-120932723D01*
X151876942Y-120932723D02*
X151972180Y-120980342D01*
X151972180Y-120980342D02*
X152019800Y-121027961D01*
X152019800Y-121027961D02*
X152067419Y-121123199D01*
X152067419Y-121123199D02*
X152067419Y-121408913D01*
X152067419Y-121408913D02*
X152019800Y-121504151D01*
X152019800Y-121504151D02*
X151972180Y-121551770D01*
X134207333Y-132554819D02*
X133635905Y-132554819D01*
X133921619Y-132554819D02*
X133921619Y-131554819D01*
X133921619Y-131554819D02*
X133826381Y-131697676D01*
X133826381Y-131697676D02*
X133731143Y-131792914D01*
X133731143Y-131792914D02*
X133635905Y-131840533D01*
X134588286Y-131650057D02*
X134635905Y-131602438D01*
X134635905Y-131602438D02*
X134731143Y-131554819D01*
X134731143Y-131554819D02*
X134969238Y-131554819D01*
X134969238Y-131554819D02*
X135064476Y-131602438D01*
X135064476Y-131602438D02*
X135112095Y-131650057D01*
X135112095Y-131650057D02*
X135159714Y-131745295D01*
X135159714Y-131745295D02*
X135159714Y-131840533D01*
X135159714Y-131840533D02*
X135112095Y-131983390D01*
X135112095Y-131983390D02*
X134540667Y-132554819D01*
X134540667Y-132554819D02*
X135159714Y-132554819D01*
X135778762Y-131554819D02*
X135874000Y-131554819D01*
X135874000Y-131554819D02*
X135969238Y-131602438D01*
X135969238Y-131602438D02*
X136016857Y-131650057D01*
X136016857Y-131650057D02*
X136064476Y-131745295D01*
X136064476Y-131745295D02*
X136112095Y-131935771D01*
X136112095Y-131935771D02*
X136112095Y-132173866D01*
X136112095Y-132173866D02*
X136064476Y-132364342D01*
X136064476Y-132364342D02*
X136016857Y-132459580D01*
X136016857Y-132459580D02*
X135969238Y-132507200D01*
X135969238Y-132507200D02*
X135874000Y-132554819D01*
X135874000Y-132554819D02*
X135778762Y-132554819D01*
X135778762Y-132554819D02*
X135683524Y-132507200D01*
X135683524Y-132507200D02*
X135635905Y-132459580D01*
X135635905Y-132459580D02*
X135588286Y-132364342D01*
X135588286Y-132364342D02*
X135540667Y-132173866D01*
X135540667Y-132173866D02*
X135540667Y-131935771D01*
X135540667Y-131935771D02*
X135588286Y-131745295D01*
X135588286Y-131745295D02*
X135635905Y-131650057D01*
X135635905Y-131650057D02*
X135683524Y-131602438D01*
X135683524Y-131602438D02*
X135778762Y-131554819D01*
X128019200Y-122268333D02*
X128066819Y-122125476D01*
X128066819Y-122125476D02*
X128066819Y-121887381D01*
X128066819Y-121887381D02*
X128019200Y-121792143D01*
X128019200Y-121792143D02*
X127971580Y-121744524D01*
X127971580Y-121744524D02*
X127876342Y-121696905D01*
X127876342Y-121696905D02*
X127781104Y-121696905D01*
X127781104Y-121696905D02*
X127685866Y-121744524D01*
X127685866Y-121744524D02*
X127638247Y-121792143D01*
X127638247Y-121792143D02*
X127590628Y-121887381D01*
X127590628Y-121887381D02*
X127543009Y-122077857D01*
X127543009Y-122077857D02*
X127495390Y-122173095D01*
X127495390Y-122173095D02*
X127447771Y-122220714D01*
X127447771Y-122220714D02*
X127352533Y-122268333D01*
X127352533Y-122268333D02*
X127257295Y-122268333D01*
X127257295Y-122268333D02*
X127162057Y-122220714D01*
X127162057Y-122220714D02*
X127114438Y-122173095D01*
X127114438Y-122173095D02*
X127066819Y-122077857D01*
X127066819Y-122077857D02*
X127066819Y-121839762D01*
X127066819Y-121839762D02*
X127114438Y-121696905D01*
X128019200Y-120887381D02*
X128066819Y-120982619D01*
X128066819Y-120982619D02*
X128066819Y-121173095D01*
X128066819Y-121173095D02*
X128019200Y-121268333D01*
X128019200Y-121268333D02*
X127923961Y-121315952D01*
X127923961Y-121315952D02*
X127543009Y-121315952D01*
X127543009Y-121315952D02*
X127447771Y-121268333D01*
X127447771Y-121268333D02*
X127400152Y-121173095D01*
X127400152Y-121173095D02*
X127400152Y-120982619D01*
X127400152Y-120982619D02*
X127447771Y-120887381D01*
X127447771Y-120887381D02*
X127543009Y-120839762D01*
X127543009Y-120839762D02*
X127638247Y-120839762D01*
X127638247Y-120839762D02*
X127733485Y-121315952D01*
X128066819Y-120411190D02*
X127400152Y-120411190D01*
X127590628Y-120411190D02*
X127495390Y-120363571D01*
X127495390Y-120363571D02*
X127447771Y-120315952D01*
X127447771Y-120315952D02*
X127400152Y-120220714D01*
X127400152Y-120220714D02*
X127400152Y-120125476D01*
X127400152Y-119887380D02*
X128066819Y-119649285D01*
X128066819Y-119649285D02*
X127400152Y-119411190D01*
X128066819Y-118887380D02*
X128019200Y-118982618D01*
X128019200Y-118982618D02*
X127971580Y-119030237D01*
X127971580Y-119030237D02*
X127876342Y-119077856D01*
X127876342Y-119077856D02*
X127590628Y-119077856D01*
X127590628Y-119077856D02*
X127495390Y-119030237D01*
X127495390Y-119030237D02*
X127447771Y-118982618D01*
X127447771Y-118982618D02*
X127400152Y-118887380D01*
X127400152Y-118887380D02*
X127400152Y-118744523D01*
X127400152Y-118744523D02*
X127447771Y-118649285D01*
X127447771Y-118649285D02*
X127495390Y-118601666D01*
X127495390Y-118601666D02*
X127590628Y-118554047D01*
X127590628Y-118554047D02*
X127876342Y-118554047D01*
X127876342Y-118554047D02*
X127971580Y-118601666D01*
X127971580Y-118601666D02*
X128019200Y-118649285D01*
X128019200Y-118649285D02*
X128066819Y-118744523D01*
X128066819Y-118744523D02*
X128066819Y-118887380D01*
X127400152Y-117696904D02*
X128066819Y-117696904D01*
X127019200Y-117934999D02*
X127733485Y-118173094D01*
X127733485Y-118173094D02*
X127733485Y-117554047D01*
X152101580Y-90527047D02*
X152149200Y-90574666D01*
X152149200Y-90574666D02*
X152196819Y-90717523D01*
X152196819Y-90717523D02*
X152196819Y-90812761D01*
X152196819Y-90812761D02*
X152149200Y-90955618D01*
X152149200Y-90955618D02*
X152053961Y-91050856D01*
X152053961Y-91050856D02*
X151958723Y-91098475D01*
X151958723Y-91098475D02*
X151768247Y-91146094D01*
X151768247Y-91146094D02*
X151625390Y-91146094D01*
X151625390Y-91146094D02*
X151434914Y-91098475D01*
X151434914Y-91098475D02*
X151339676Y-91050856D01*
X151339676Y-91050856D02*
X151244438Y-90955618D01*
X151244438Y-90955618D02*
X151196819Y-90812761D01*
X151196819Y-90812761D02*
X151196819Y-90717523D01*
X151196819Y-90717523D02*
X151244438Y-90574666D01*
X151244438Y-90574666D02*
X151292057Y-90527047D01*
X151911104Y-90146094D02*
X151911104Y-89669904D01*
X152196819Y-90241332D02*
X151196819Y-89907999D01*
X151196819Y-89907999D02*
X152196819Y-89574666D01*
X152196819Y-89241332D02*
X151196819Y-89241332D01*
X151196819Y-89241332D02*
X152196819Y-88669904D01*
X152196819Y-88669904D02*
X151196819Y-88669904D01*
X152196819Y-87669904D02*
X152196819Y-88241332D01*
X152196819Y-87955618D02*
X151196819Y-87955618D01*
X151196819Y-87955618D02*
X151339676Y-88050856D01*
X151339676Y-88050856D02*
X151434914Y-88146094D01*
X151434914Y-88146094D02*
X151482533Y-88241332D01*
X152019800Y-132229075D02*
X152067419Y-132086218D01*
X152067419Y-132086218D02*
X152067419Y-131848123D01*
X152067419Y-131848123D02*
X152019800Y-131752885D01*
X152019800Y-131752885D02*
X151972180Y-131705266D01*
X151972180Y-131705266D02*
X151876942Y-131657647D01*
X151876942Y-131657647D02*
X151781704Y-131657647D01*
X151781704Y-131657647D02*
X151686466Y-131705266D01*
X151686466Y-131705266D02*
X151638847Y-131752885D01*
X151638847Y-131752885D02*
X151591228Y-131848123D01*
X151591228Y-131848123D02*
X151543609Y-132038599D01*
X151543609Y-132038599D02*
X151495990Y-132133837D01*
X151495990Y-132133837D02*
X151448371Y-132181456D01*
X151448371Y-132181456D02*
X151353133Y-132229075D01*
X151353133Y-132229075D02*
X151257895Y-132229075D01*
X151257895Y-132229075D02*
X151162657Y-132181456D01*
X151162657Y-132181456D02*
X151115038Y-132133837D01*
X151115038Y-132133837D02*
X151067419Y-132038599D01*
X151067419Y-132038599D02*
X151067419Y-131800504D01*
X151067419Y-131800504D02*
X151115038Y-131657647D01*
X151067419Y-131371932D02*
X152067419Y-131038599D01*
X152067419Y-131038599D02*
X151067419Y-130705266D01*
X151162657Y-130419551D02*
X151115038Y-130371932D01*
X151115038Y-130371932D02*
X151067419Y-130276694D01*
X151067419Y-130276694D02*
X151067419Y-130038599D01*
X151067419Y-130038599D02*
X151115038Y-129943361D01*
X151115038Y-129943361D02*
X151162657Y-129895742D01*
X151162657Y-129895742D02*
X151257895Y-129848123D01*
X151257895Y-129848123D02*
X151353133Y-129848123D01*
X151353133Y-129848123D02*
X151495990Y-129895742D01*
X151495990Y-129895742D02*
X152067419Y-130467170D01*
X152067419Y-130467170D02*
X152067419Y-129848123D01*
D10*
G36*
X136323334Y-123026023D02*
G01*
X136387513Y-123090202D01*
X136425428Y-123241861D01*
X136425428Y-123550575D01*
X136387512Y-123702235D01*
X136323336Y-123766413D01*
X136263726Y-123796219D01*
X136120464Y-123796219D01*
X136060854Y-123766414D01*
X135996677Y-123702236D01*
X135958762Y-123550575D01*
X135958762Y-123241862D01*
X135996677Y-123090202D01*
X136060856Y-123026023D01*
X136120464Y-122996219D01*
X136263726Y-122996219D01*
X136323334Y-123026023D01*
G37*
G36*
X134466192Y-123026024D02*
G01*
X134490861Y-123050692D01*
X134520666Y-123110302D01*
X134520666Y-123205945D01*
X134490861Y-123265554D01*
X134466192Y-123290222D01*
X134406583Y-123320028D01*
X134149238Y-123320028D01*
X134149238Y-122996219D01*
X134406583Y-122996219D01*
X134466192Y-123026024D01*
G37*
G36*
X137925095Y-124107330D02*
G01*
X131933365Y-124107330D01*
X131933365Y-123086695D01*
X132044476Y-123086695D01*
X132044476Y-123181933D01*
X132046397Y-123201442D01*
X132047772Y-123204762D01*
X132048027Y-123208346D01*
X132055033Y-123226654D01*
X132102652Y-123321892D01*
X132107937Y-123330288D01*
X132108948Y-123332728D01*
X132111201Y-123335474D01*
X132113095Y-123338482D01*
X132115089Y-123340211D01*
X132121384Y-123347882D01*
X132169003Y-123395500D01*
X132176669Y-123401792D01*
X132178402Y-123403790D01*
X132181410Y-123405683D01*
X132184156Y-123407937D01*
X132186596Y-123408947D01*
X132194993Y-123414233D01*
X132290230Y-123461852D01*
X132291658Y-123462398D01*
X132292238Y-123462828D01*
X132300414Y-123465749D01*
X132308539Y-123468858D01*
X132309259Y-123468909D01*
X132310698Y-123469423D01*
X132490523Y-123514379D01*
X132561430Y-123549833D01*
X132586099Y-123574501D01*
X132615904Y-123634111D01*
X132615904Y-123682135D01*
X132586099Y-123741743D01*
X132561430Y-123766413D01*
X132501821Y-123796219D01*
X132303559Y-123796219D01*
X132176099Y-123753732D01*
X132156983Y-123749385D01*
X132118063Y-123752151D01*
X132083164Y-123769601D01*
X132057599Y-123799077D01*
X132045261Y-123836093D01*
X132048027Y-123875013D01*
X132065477Y-123909912D01*
X132094953Y-123935477D01*
X132112853Y-123943468D01*
X132255710Y-123991087D01*
X132265382Y-123993286D01*
X132267824Y-123994298D01*
X132271361Y-123994646D01*
X132274825Y-123995434D01*
X132277459Y-123995246D01*
X132287333Y-123996219D01*
X132525428Y-123996219D01*
X132544937Y-123994298D01*
X132548257Y-123992922D01*
X132551841Y-123992668D01*
X132570149Y-123985662D01*
X132665387Y-123938043D01*
X132673782Y-123932758D01*
X132676224Y-123931747D01*
X132678971Y-123929491D01*
X132681977Y-123927600D01*
X132683707Y-123925605D01*
X132691377Y-123919310D01*
X132738996Y-123871690D01*
X132745288Y-123864023D01*
X132747285Y-123862292D01*
X132749178Y-123859284D01*
X132751433Y-123856537D01*
X132752444Y-123854095D01*
X132757728Y-123845701D01*
X132805347Y-123750464D01*
X132812353Y-123732155D01*
X132812607Y-123728571D01*
X132813983Y-123725251D01*
X132815904Y-123705742D01*
X132815904Y-123610504D01*
X132813983Y-123590995D01*
X132812607Y-123587674D01*
X132812353Y-123584091D01*
X132805347Y-123565782D01*
X132757728Y-123470545D01*
X132752442Y-123462148D01*
X132751432Y-123459708D01*
X132749178Y-123456962D01*
X132747285Y-123453954D01*
X132745287Y-123452221D01*
X132738995Y-123444555D01*
X132691377Y-123396936D01*
X132683706Y-123390641D01*
X132681977Y-123388647D01*
X132678969Y-123386753D01*
X132676223Y-123384500D01*
X132673783Y-123383489D01*
X132665387Y-123378204D01*
X132570149Y-123330585D01*
X132568722Y-123330039D01*
X132568142Y-123329609D01*
X132559965Y-123326687D01*
X132551841Y-123323579D01*
X132551118Y-123323527D01*
X132549681Y-123323014D01*
X132369856Y-123278057D01*
X132298949Y-123242604D01*
X132274281Y-123217935D01*
X132244476Y-123158325D01*
X132244476Y-123110302D01*
X132274281Y-123050692D01*
X132298949Y-123026023D01*
X132358559Y-122996219D01*
X132556820Y-122996219D01*
X132684281Y-123038706D01*
X132703396Y-123043053D01*
X132742316Y-123040287D01*
X132777215Y-123022837D01*
X132802780Y-122993361D01*
X132815119Y-122956345D01*
X132812352Y-122917425D01*
X132801749Y-122896219D01*
X133044476Y-122896219D01*
X133044476Y-123896219D01*
X133046397Y-123915728D01*
X133061329Y-123951776D01*
X133088919Y-123979366D01*
X133124967Y-123994298D01*
X133144476Y-123996219D01*
X133620666Y-123996219D01*
X133640175Y-123994298D01*
X133676223Y-123979366D01*
X133703813Y-123951776D01*
X133718745Y-123915728D01*
X133718745Y-123876710D01*
X133703813Y-123840662D01*
X133676223Y-123813072D01*
X133640175Y-123798140D01*
X133620666Y-123796219D01*
X133244476Y-123796219D01*
X133244476Y-123472409D01*
X133477809Y-123472409D01*
X133497318Y-123470488D01*
X133533366Y-123455556D01*
X133560956Y-123427966D01*
X133575888Y-123391918D01*
X133575888Y-123352900D01*
X133560956Y-123316852D01*
X133533366Y-123289262D01*
X133497318Y-123274330D01*
X133477809Y-123272409D01*
X133244476Y-123272409D01*
X133244476Y-122996219D01*
X133620666Y-122996219D01*
X133640175Y-122994298D01*
X133676223Y-122979366D01*
X133703813Y-122951776D01*
X133718745Y-122915728D01*
X133718745Y-122896219D01*
X133949238Y-122896219D01*
X133949238Y-123896219D01*
X133951159Y-123915728D01*
X133966091Y-123951776D01*
X133993681Y-123979366D01*
X134029729Y-123994298D01*
X134068747Y-123994298D01*
X134104795Y-123979366D01*
X134132385Y-123951776D01*
X134147317Y-123915728D01*
X134149238Y-123896219D01*
X134149238Y-123520028D01*
X134235268Y-123520028D01*
X134538743Y-123953565D01*
X134551504Y-123968446D01*
X134584409Y-123989415D01*
X134622834Y-123996196D01*
X134660928Y-123987756D01*
X134692893Y-123965381D01*
X134713862Y-123932476D01*
X134720643Y-123894052D01*
X134712203Y-123855957D01*
X134702589Y-123838873D01*
X134472621Y-123510347D01*
X134474911Y-123509471D01*
X134570149Y-123461852D01*
X134578545Y-123456566D01*
X134580985Y-123455556D01*
X134583731Y-123453302D01*
X134586739Y-123451409D01*
X134588468Y-123449414D01*
X134596139Y-123443120D01*
X134643757Y-123395501D01*
X134650049Y-123387834D01*
X134652047Y-123386102D01*
X134653940Y-123383093D01*
X134656194Y-123380348D01*
X134657204Y-123377907D01*
X134662490Y-123369511D01*
X134710109Y-123274274D01*
X134717115Y-123255965D01*
X134717369Y-123252381D01*
X134718745Y-123249061D01*
X134720666Y-123229552D01*
X134720666Y-123086695D01*
X134718745Y-123067186D01*
X134717369Y-123063865D01*
X134717115Y-123060282D01*
X134710109Y-123041973D01*
X134662490Y-122946736D01*
X134657204Y-122938339D01*
X134656194Y-122935899D01*
X134653940Y-122933153D01*
X134652047Y-122930145D01*
X134650049Y-122928412D01*
X134643757Y-122920746D01*
X134631737Y-122908726D01*
X134807166Y-122908726D01*
X134811513Y-122927842D01*
X135144846Y-123927841D01*
X135152837Y-123945742D01*
X135157520Y-123951141D01*
X135160715Y-123957531D01*
X135170186Y-123965746D01*
X135178402Y-123975218D01*
X135184790Y-123978412D01*
X135190191Y-123983096D01*
X135202092Y-123987063D01*
X135213301Y-123992667D01*
X135220425Y-123993173D01*
X135227207Y-123995434D01*
X135239716Y-123994544D01*
X135252221Y-123995434D01*
X135258999Y-123993174D01*
X135266127Y-123992668D01*
X135277343Y-123987059D01*
X135289237Y-123983095D01*
X135294634Y-123978414D01*
X135301026Y-123975218D01*
X135309244Y-123965742D01*
X135318713Y-123957530D01*
X135321906Y-123951143D01*
X135326591Y-123945742D01*
X135334582Y-123927842D01*
X135567345Y-123229552D01*
X135758762Y-123229552D01*
X135758762Y-123562885D01*
X135759097Y-123566287D01*
X135758880Y-123567746D01*
X135759959Y-123575043D01*
X135760683Y-123582394D01*
X135761247Y-123583757D01*
X135761748Y-123587139D01*
X135809367Y-123777614D01*
X135815962Y-123796075D01*
X135820387Y-123802047D01*
X135823233Y-123808918D01*
X135835670Y-123824071D01*
X135930908Y-123919311D01*
X135938576Y-123925604D01*
X135940307Y-123927600D01*
X135943314Y-123929493D01*
X135946061Y-123931747D01*
X135948501Y-123932757D01*
X135956898Y-123938043D01*
X136052135Y-123985662D01*
X136070444Y-123992668D01*
X136074027Y-123992922D01*
X136077348Y-123994298D01*
X136096857Y-123996219D01*
X136287333Y-123996219D01*
X136306842Y-123994298D01*
X136310162Y-123992922D01*
X136313746Y-123992668D01*
X136332054Y-123985662D01*
X136427292Y-123938043D01*
X136435687Y-123932758D01*
X136438129Y-123931747D01*
X136440876Y-123929491D01*
X136443882Y-123927600D01*
X136445612Y-123925605D01*
X136453282Y-123919310D01*
X136548520Y-123824071D01*
X136560957Y-123808918D01*
X136563802Y-123802047D01*
X136568228Y-123796075D01*
X136574823Y-123777615D01*
X136622442Y-123587139D01*
X136622942Y-123583757D01*
X136623507Y-123582394D01*
X136624230Y-123575043D01*
X136625310Y-123567746D01*
X136625092Y-123566287D01*
X136625428Y-123562885D01*
X136625428Y-123495757D01*
X136855921Y-123495757D01*
X136855921Y-123534775D01*
X136870853Y-123570823D01*
X136898443Y-123598413D01*
X136934491Y-123613345D01*
X136954000Y-123615266D01*
X137234952Y-123615266D01*
X137234952Y-123896219D01*
X137236873Y-123915728D01*
X137251805Y-123951776D01*
X137279395Y-123979366D01*
X137315443Y-123994298D01*
X137354461Y-123994298D01*
X137390509Y-123979366D01*
X137418099Y-123951776D01*
X137433031Y-123915728D01*
X137434952Y-123896219D01*
X137434952Y-123615266D01*
X137715905Y-123615266D01*
X137735414Y-123613345D01*
X137771462Y-123598413D01*
X137799052Y-123570823D01*
X137813984Y-123534775D01*
X137813984Y-123495757D01*
X137799052Y-123459709D01*
X137771462Y-123432119D01*
X137735414Y-123417187D01*
X137715905Y-123415266D01*
X137434952Y-123415266D01*
X137434952Y-123134314D01*
X137433031Y-123114805D01*
X137418099Y-123078757D01*
X137390509Y-123051167D01*
X137354461Y-123036235D01*
X137315443Y-123036235D01*
X137279395Y-123051167D01*
X137251805Y-123078757D01*
X137236873Y-123114805D01*
X137234952Y-123134314D01*
X137234952Y-123415266D01*
X136954000Y-123415266D01*
X136934491Y-123417187D01*
X136898443Y-123432119D01*
X136870853Y-123459709D01*
X136855921Y-123495757D01*
X136625428Y-123495757D01*
X136625428Y-123229552D01*
X136625092Y-123226149D01*
X136625310Y-123224691D01*
X136624230Y-123217393D01*
X136623507Y-123210043D01*
X136622942Y-123208679D01*
X136622442Y-123205298D01*
X136574823Y-123014822D01*
X136568228Y-122996362D01*
X136563801Y-122990387D01*
X136560956Y-122983519D01*
X136548520Y-122968365D01*
X136453282Y-122873127D01*
X136445611Y-122866832D01*
X136443882Y-122864838D01*
X136440874Y-122862944D01*
X136438128Y-122860691D01*
X136435688Y-122859680D01*
X136427292Y-122854395D01*
X136332054Y-122806776D01*
X136313746Y-122799770D01*
X136310162Y-122799515D01*
X136306842Y-122798140D01*
X136287333Y-122796219D01*
X136096857Y-122796219D01*
X136077348Y-122798140D01*
X136074027Y-122799515D01*
X136070444Y-122799770D01*
X136052135Y-122806776D01*
X135956898Y-122854395D01*
X135948499Y-122859681D01*
X135946062Y-122860691D01*
X135943318Y-122862942D01*
X135940307Y-122864838D01*
X135938574Y-122866835D01*
X135930908Y-122873127D01*
X135835670Y-122968365D01*
X135823234Y-122983519D01*
X135820388Y-122990387D01*
X135815962Y-122996362D01*
X135809367Y-123014823D01*
X135761748Y-123205298D01*
X135761247Y-123208679D01*
X135760683Y-123210043D01*
X135759959Y-123217393D01*
X135758880Y-123224691D01*
X135759097Y-123226149D01*
X135758762Y-123229552D01*
X135567345Y-123229552D01*
X135667915Y-122927842D01*
X135672262Y-122908727D01*
X135669496Y-122869807D01*
X135652046Y-122834908D01*
X135622570Y-122809343D01*
X135585554Y-122797004D01*
X135546634Y-122799771D01*
X135511735Y-122817220D01*
X135486170Y-122846696D01*
X135478179Y-122864597D01*
X135239714Y-123579991D01*
X135001249Y-122864596D01*
X134993258Y-122846696D01*
X134967693Y-122817220D01*
X134932794Y-122799770D01*
X134893874Y-122797004D01*
X134856858Y-122809342D01*
X134827382Y-122834907D01*
X134809932Y-122869806D01*
X134807166Y-122908726D01*
X134631737Y-122908726D01*
X134596139Y-122873127D01*
X134588468Y-122866832D01*
X134586739Y-122864838D01*
X134583731Y-122862944D01*
X134580985Y-122860691D01*
X134578545Y-122859680D01*
X134570149Y-122854395D01*
X134474911Y-122806776D01*
X134456603Y-122799770D01*
X134453019Y-122799515D01*
X134449699Y-122798140D01*
X134430190Y-122796219D01*
X134049238Y-122796219D01*
X134029729Y-122798140D01*
X133993681Y-122813072D01*
X133966091Y-122840662D01*
X133951159Y-122876710D01*
X133949238Y-122896219D01*
X133718745Y-122896219D01*
X133718745Y-122876710D01*
X133703813Y-122840662D01*
X133676223Y-122813072D01*
X133640175Y-122798140D01*
X133620666Y-122796219D01*
X133144476Y-122796219D01*
X133124967Y-122798140D01*
X133088919Y-122813072D01*
X133061329Y-122840662D01*
X133046397Y-122876710D01*
X133044476Y-122896219D01*
X132801749Y-122896219D01*
X132794903Y-122882526D01*
X132765427Y-122856961D01*
X132747526Y-122848970D01*
X132604670Y-122801351D01*
X132594998Y-122799151D01*
X132592556Y-122798140D01*
X132589017Y-122797791D01*
X132585554Y-122797004D01*
X132582920Y-122797191D01*
X132573047Y-122796219D01*
X132334952Y-122796219D01*
X132315443Y-122798140D01*
X132312122Y-122799515D01*
X132308539Y-122799770D01*
X132290230Y-122806776D01*
X132194993Y-122854395D01*
X132186596Y-122859680D01*
X132184156Y-122860691D01*
X132181410Y-122862944D01*
X132178402Y-122864838D01*
X132176669Y-122866835D01*
X132169003Y-122873128D01*
X132121384Y-122920746D01*
X132115089Y-122928416D01*
X132113095Y-122930146D01*
X132111201Y-122933153D01*
X132108948Y-122935900D01*
X132107937Y-122938339D01*
X132102652Y-122946736D01*
X132055033Y-123041974D01*
X132048027Y-123060282D01*
X132047772Y-123063865D01*
X132046397Y-123067186D01*
X132044476Y-123086695D01*
X131933365Y-123086695D01*
X131933365Y-122685108D01*
X137925095Y-122685108D01*
X137925095Y-124107330D01*
G37*
D12*
X130342571Y-123614700D02*
X131485429Y-123614700D01*
X138092571Y-123614700D02*
X139235429Y-123614700D01*
X138664000Y-124186128D02*
X138664000Y-123043271D01*
X128019200Y-89502333D02*
X128066819Y-89359476D01*
X128066819Y-89359476D02*
X128066819Y-89121381D01*
X128066819Y-89121381D02*
X128019200Y-89026143D01*
X128019200Y-89026143D02*
X127971580Y-88978524D01*
X127971580Y-88978524D02*
X127876342Y-88930905D01*
X127876342Y-88930905D02*
X127781104Y-88930905D01*
X127781104Y-88930905D02*
X127685866Y-88978524D01*
X127685866Y-88978524D02*
X127638247Y-89026143D01*
X127638247Y-89026143D02*
X127590628Y-89121381D01*
X127590628Y-89121381D02*
X127543009Y-89311857D01*
X127543009Y-89311857D02*
X127495390Y-89407095D01*
X127495390Y-89407095D02*
X127447771Y-89454714D01*
X127447771Y-89454714D02*
X127352533Y-89502333D01*
X127352533Y-89502333D02*
X127257295Y-89502333D01*
X127257295Y-89502333D02*
X127162057Y-89454714D01*
X127162057Y-89454714D02*
X127114438Y-89407095D01*
X127114438Y-89407095D02*
X127066819Y-89311857D01*
X127066819Y-89311857D02*
X127066819Y-89073762D01*
X127066819Y-89073762D02*
X127114438Y-88930905D01*
X128019200Y-88121381D02*
X128066819Y-88216619D01*
X128066819Y-88216619D02*
X128066819Y-88407095D01*
X128066819Y-88407095D02*
X128019200Y-88502333D01*
X128019200Y-88502333D02*
X127923961Y-88549952D01*
X127923961Y-88549952D02*
X127543009Y-88549952D01*
X127543009Y-88549952D02*
X127447771Y-88502333D01*
X127447771Y-88502333D02*
X127400152Y-88407095D01*
X127400152Y-88407095D02*
X127400152Y-88216619D01*
X127400152Y-88216619D02*
X127447771Y-88121381D01*
X127447771Y-88121381D02*
X127543009Y-88073762D01*
X127543009Y-88073762D02*
X127638247Y-88073762D01*
X127638247Y-88073762D02*
X127733485Y-88549952D01*
X128066819Y-87645190D02*
X127400152Y-87645190D01*
X127590628Y-87645190D02*
X127495390Y-87597571D01*
X127495390Y-87597571D02*
X127447771Y-87549952D01*
X127447771Y-87549952D02*
X127400152Y-87454714D01*
X127400152Y-87454714D02*
X127400152Y-87359476D01*
X127400152Y-87121380D02*
X128066819Y-86883285D01*
X128066819Y-86883285D02*
X127400152Y-86645190D01*
X128066819Y-86121380D02*
X128019200Y-86216618D01*
X128019200Y-86216618D02*
X127971580Y-86264237D01*
X127971580Y-86264237D02*
X127876342Y-86311856D01*
X127876342Y-86311856D02*
X127590628Y-86311856D01*
X127590628Y-86311856D02*
X127495390Y-86264237D01*
X127495390Y-86264237D02*
X127447771Y-86216618D01*
X127447771Y-86216618D02*
X127400152Y-86121380D01*
X127400152Y-86121380D02*
X127400152Y-85978523D01*
X127400152Y-85978523D02*
X127447771Y-85883285D01*
X127447771Y-85883285D02*
X127495390Y-85835666D01*
X127495390Y-85835666D02*
X127590628Y-85788047D01*
X127590628Y-85788047D02*
X127876342Y-85788047D01*
X127876342Y-85788047D02*
X127971580Y-85835666D01*
X127971580Y-85835666D02*
X128019200Y-85883285D01*
X128019200Y-85883285D02*
X128066819Y-85978523D01*
X128066819Y-85978523D02*
X128066819Y-86121380D01*
X128066819Y-84835666D02*
X128066819Y-85407094D01*
X128066819Y-85121380D02*
X127066819Y-85121380D01*
X127066819Y-85121380D02*
X127209676Y-85216618D01*
X127209676Y-85216618D02*
X127304914Y-85311856D01*
X127304914Y-85311856D02*
X127352533Y-85407094D01*
X128019200Y-133190333D02*
X128066819Y-133047476D01*
X128066819Y-133047476D02*
X128066819Y-132809381D01*
X128066819Y-132809381D02*
X128019200Y-132714143D01*
X128019200Y-132714143D02*
X127971580Y-132666524D01*
X127971580Y-132666524D02*
X127876342Y-132618905D01*
X127876342Y-132618905D02*
X127781104Y-132618905D01*
X127781104Y-132618905D02*
X127685866Y-132666524D01*
X127685866Y-132666524D02*
X127638247Y-132714143D01*
X127638247Y-132714143D02*
X127590628Y-132809381D01*
X127590628Y-132809381D02*
X127543009Y-132999857D01*
X127543009Y-132999857D02*
X127495390Y-133095095D01*
X127495390Y-133095095D02*
X127447771Y-133142714D01*
X127447771Y-133142714D02*
X127352533Y-133190333D01*
X127352533Y-133190333D02*
X127257295Y-133190333D01*
X127257295Y-133190333D02*
X127162057Y-133142714D01*
X127162057Y-133142714D02*
X127114438Y-133095095D01*
X127114438Y-133095095D02*
X127066819Y-132999857D01*
X127066819Y-132999857D02*
X127066819Y-132761762D01*
X127066819Y-132761762D02*
X127114438Y-132618905D01*
X128019200Y-131809381D02*
X128066819Y-131904619D01*
X128066819Y-131904619D02*
X128066819Y-132095095D01*
X128066819Y-132095095D02*
X128019200Y-132190333D01*
X128019200Y-132190333D02*
X127923961Y-132237952D01*
X127923961Y-132237952D02*
X127543009Y-132237952D01*
X127543009Y-132237952D02*
X127447771Y-132190333D01*
X127447771Y-132190333D02*
X127400152Y-132095095D01*
X127400152Y-132095095D02*
X127400152Y-131904619D01*
X127400152Y-131904619D02*
X127447771Y-131809381D01*
X127447771Y-131809381D02*
X127543009Y-131761762D01*
X127543009Y-131761762D02*
X127638247Y-131761762D01*
X127638247Y-131761762D02*
X127733485Y-132237952D01*
X128066819Y-131333190D02*
X127400152Y-131333190D01*
X127590628Y-131333190D02*
X127495390Y-131285571D01*
X127495390Y-131285571D02*
X127447771Y-131237952D01*
X127447771Y-131237952D02*
X127400152Y-131142714D01*
X127400152Y-131142714D02*
X127400152Y-131047476D01*
X127400152Y-130809380D02*
X128066819Y-130571285D01*
X128066819Y-130571285D02*
X127400152Y-130333190D01*
X128066819Y-129809380D02*
X128019200Y-129904618D01*
X128019200Y-129904618D02*
X127971580Y-129952237D01*
X127971580Y-129952237D02*
X127876342Y-129999856D01*
X127876342Y-129999856D02*
X127590628Y-129999856D01*
X127590628Y-129999856D02*
X127495390Y-129952237D01*
X127495390Y-129952237D02*
X127447771Y-129904618D01*
X127447771Y-129904618D02*
X127400152Y-129809380D01*
X127400152Y-129809380D02*
X127400152Y-129666523D01*
X127400152Y-129666523D02*
X127447771Y-129571285D01*
X127447771Y-129571285D02*
X127495390Y-129523666D01*
X127495390Y-129523666D02*
X127590628Y-129476047D01*
X127590628Y-129476047D02*
X127876342Y-129476047D01*
X127876342Y-129476047D02*
X127971580Y-129523666D01*
X127971580Y-129523666D02*
X128019200Y-129571285D01*
X128019200Y-129571285D02*
X128066819Y-129666523D01*
X128066819Y-129666523D02*
X128066819Y-129809380D01*
X127066819Y-128571285D02*
X127066819Y-129047475D01*
X127066819Y-129047475D02*
X127543009Y-129095094D01*
X127543009Y-129095094D02*
X127495390Y-129047475D01*
X127495390Y-129047475D02*
X127447771Y-128952237D01*
X127447771Y-128952237D02*
X127447771Y-128714142D01*
X127447771Y-128714142D02*
X127495390Y-128618904D01*
X127495390Y-128618904D02*
X127543009Y-128571285D01*
X127543009Y-128571285D02*
X127638247Y-128523666D01*
X127638247Y-128523666D02*
X127876342Y-128523666D01*
X127876342Y-128523666D02*
X127971580Y-128571285D01*
X127971580Y-128571285D02*
X128019200Y-128618904D01*
X128019200Y-128618904D02*
X128066819Y-128714142D01*
X128066819Y-128714142D02*
X128066819Y-128952237D01*
X128066819Y-128952237D02*
X128019200Y-129047475D01*
X128019200Y-129047475D02*
X127971580Y-129095094D01*
X149004819Y-125507523D02*
X149004819Y-124936095D01*
X150004819Y-125221809D02*
X149004819Y-125221809D01*
X149481009Y-124602761D02*
X149481009Y-124269428D01*
X150004819Y-124126571D02*
X150004819Y-124602761D01*
X150004819Y-124602761D02*
X149004819Y-124602761D01*
X149004819Y-124602761D02*
X149004819Y-124126571D01*
X150004819Y-123126571D02*
X149528628Y-123459904D01*
X150004819Y-123697999D02*
X149004819Y-123697999D01*
X149004819Y-123697999D02*
X149004819Y-123317047D01*
X149004819Y-123317047D02*
X149052438Y-123221809D01*
X149052438Y-123221809D02*
X149100057Y-123174190D01*
X149100057Y-123174190D02*
X149195295Y-123126571D01*
X149195295Y-123126571D02*
X149338152Y-123126571D01*
X149338152Y-123126571D02*
X149433390Y-123174190D01*
X149433390Y-123174190D02*
X149481009Y-123221809D01*
X149481009Y-123221809D02*
X149528628Y-123317047D01*
X149528628Y-123317047D02*
X149528628Y-123697999D01*
X150004819Y-122697999D02*
X149004819Y-122697999D01*
X149004819Y-122697999D02*
X149719104Y-122364666D01*
X149719104Y-122364666D02*
X149004819Y-122031333D01*
X149004819Y-122031333D02*
X150004819Y-122031333D01*
X152028200Y-114454475D02*
X152075819Y-114311618D01*
X152075819Y-114311618D02*
X152075819Y-114073523D01*
X152075819Y-114073523D02*
X152028200Y-113978285D01*
X152028200Y-113978285D02*
X151980580Y-113930666D01*
X151980580Y-113930666D02*
X151885342Y-113883047D01*
X151885342Y-113883047D02*
X151790104Y-113883047D01*
X151790104Y-113883047D02*
X151694866Y-113930666D01*
X151694866Y-113930666D02*
X151647247Y-113978285D01*
X151647247Y-113978285D02*
X151599628Y-114073523D01*
X151599628Y-114073523D02*
X151552009Y-114263999D01*
X151552009Y-114263999D02*
X151504390Y-114359237D01*
X151504390Y-114359237D02*
X151456771Y-114406856D01*
X151456771Y-114406856D02*
X151361533Y-114454475D01*
X151361533Y-114454475D02*
X151266295Y-114454475D01*
X151266295Y-114454475D02*
X151171057Y-114406856D01*
X151171057Y-114406856D02*
X151123438Y-114359237D01*
X151123438Y-114359237D02*
X151075819Y-114263999D01*
X151075819Y-114263999D02*
X151075819Y-114025904D01*
X151075819Y-114025904D02*
X151123438Y-113883047D01*
X151075819Y-113597332D02*
X152075819Y-113263999D01*
X152075819Y-113263999D02*
X151075819Y-112930666D01*
X151409152Y-112168761D02*
X152075819Y-112168761D01*
X151028200Y-112406856D02*
X151742485Y-112644951D01*
X151742485Y-112644951D02*
X151742485Y-112025904D01*
X128019200Y-100424333D02*
X128066819Y-100281476D01*
X128066819Y-100281476D02*
X128066819Y-100043381D01*
X128066819Y-100043381D02*
X128019200Y-99948143D01*
X128019200Y-99948143D02*
X127971580Y-99900524D01*
X127971580Y-99900524D02*
X127876342Y-99852905D01*
X127876342Y-99852905D02*
X127781104Y-99852905D01*
X127781104Y-99852905D02*
X127685866Y-99900524D01*
X127685866Y-99900524D02*
X127638247Y-99948143D01*
X127638247Y-99948143D02*
X127590628Y-100043381D01*
X127590628Y-100043381D02*
X127543009Y-100233857D01*
X127543009Y-100233857D02*
X127495390Y-100329095D01*
X127495390Y-100329095D02*
X127447771Y-100376714D01*
X127447771Y-100376714D02*
X127352533Y-100424333D01*
X127352533Y-100424333D02*
X127257295Y-100424333D01*
X127257295Y-100424333D02*
X127162057Y-100376714D01*
X127162057Y-100376714D02*
X127114438Y-100329095D01*
X127114438Y-100329095D02*
X127066819Y-100233857D01*
X127066819Y-100233857D02*
X127066819Y-99995762D01*
X127066819Y-99995762D02*
X127114438Y-99852905D01*
X128019200Y-99043381D02*
X128066819Y-99138619D01*
X128066819Y-99138619D02*
X128066819Y-99329095D01*
X128066819Y-99329095D02*
X128019200Y-99424333D01*
X128019200Y-99424333D02*
X127923961Y-99471952D01*
X127923961Y-99471952D02*
X127543009Y-99471952D01*
X127543009Y-99471952D02*
X127447771Y-99424333D01*
X127447771Y-99424333D02*
X127400152Y-99329095D01*
X127400152Y-99329095D02*
X127400152Y-99138619D01*
X127400152Y-99138619D02*
X127447771Y-99043381D01*
X127447771Y-99043381D02*
X127543009Y-98995762D01*
X127543009Y-98995762D02*
X127638247Y-98995762D01*
X127638247Y-98995762D02*
X127733485Y-99471952D01*
X128066819Y-98567190D02*
X127400152Y-98567190D01*
X127590628Y-98567190D02*
X127495390Y-98519571D01*
X127495390Y-98519571D02*
X127447771Y-98471952D01*
X127447771Y-98471952D02*
X127400152Y-98376714D01*
X127400152Y-98376714D02*
X127400152Y-98281476D01*
X127400152Y-98043380D02*
X128066819Y-97805285D01*
X128066819Y-97805285D02*
X127400152Y-97567190D01*
X128066819Y-97043380D02*
X128019200Y-97138618D01*
X128019200Y-97138618D02*
X127971580Y-97186237D01*
X127971580Y-97186237D02*
X127876342Y-97233856D01*
X127876342Y-97233856D02*
X127590628Y-97233856D01*
X127590628Y-97233856D02*
X127495390Y-97186237D01*
X127495390Y-97186237D02*
X127447771Y-97138618D01*
X127447771Y-97138618D02*
X127400152Y-97043380D01*
X127400152Y-97043380D02*
X127400152Y-96900523D01*
X127400152Y-96900523D02*
X127447771Y-96805285D01*
X127447771Y-96805285D02*
X127495390Y-96757666D01*
X127495390Y-96757666D02*
X127590628Y-96710047D01*
X127590628Y-96710047D02*
X127876342Y-96710047D01*
X127876342Y-96710047D02*
X127971580Y-96757666D01*
X127971580Y-96757666D02*
X128019200Y-96805285D01*
X128019200Y-96805285D02*
X128066819Y-96900523D01*
X128066819Y-96900523D02*
X128066819Y-97043380D01*
X127162057Y-96329094D02*
X127114438Y-96281475D01*
X127114438Y-96281475D02*
X127066819Y-96186237D01*
X127066819Y-96186237D02*
X127066819Y-95948142D01*
X127066819Y-95948142D02*
X127114438Y-95852904D01*
X127114438Y-95852904D02*
X127162057Y-95805285D01*
X127162057Y-95805285D02*
X127257295Y-95757666D01*
X127257295Y-95757666D02*
X127352533Y-95757666D01*
X127352533Y-95757666D02*
X127495390Y-95805285D01*
X127495390Y-95805285D02*
X128066819Y-96376713D01*
X128066819Y-96376713D02*
X128066819Y-95757666D01*
X143335524Y-127127800D02*
X143478381Y-127175419D01*
X143478381Y-127175419D02*
X143716476Y-127175419D01*
X143716476Y-127175419D02*
X143811714Y-127127800D01*
X143811714Y-127127800D02*
X143859333Y-127080180D01*
X143859333Y-127080180D02*
X143906952Y-126984942D01*
X143906952Y-126984942D02*
X143906952Y-126889704D01*
X143906952Y-126889704D02*
X143859333Y-126794466D01*
X143859333Y-126794466D02*
X143811714Y-126746847D01*
X143811714Y-126746847D02*
X143716476Y-126699228D01*
X143716476Y-126699228D02*
X143526000Y-126651609D01*
X143526000Y-126651609D02*
X143430762Y-126603990D01*
X143430762Y-126603990D02*
X143383143Y-126556371D01*
X143383143Y-126556371D02*
X143335524Y-126461133D01*
X143335524Y-126461133D02*
X143335524Y-126365895D01*
X143335524Y-126365895D02*
X143383143Y-126270657D01*
X143383143Y-126270657D02*
X143430762Y-126223038D01*
X143430762Y-126223038D02*
X143526000Y-126175419D01*
X143526000Y-126175419D02*
X143764095Y-126175419D01*
X143764095Y-126175419D02*
X143906952Y-126223038D01*
X144192667Y-126175419D02*
X144526000Y-127175419D01*
X144526000Y-127175419D02*
X144859333Y-126175419D01*
X145716476Y-127175419D02*
X145145048Y-127175419D01*
X145430762Y-127175419D02*
X145430762Y-126175419D01*
X145430762Y-126175419D02*
X145335524Y-126318276D01*
X145335524Y-126318276D02*
X145240286Y-126413514D01*
X145240286Y-126413514D02*
X145145048Y-126461133D01*
D13*
X131300000Y-98207000D02*
X131300000Y-81062000D01*
X133205000Y-100112000D02*
X147175000Y-100112000D01*
D14*
X135695000Y-79157000D02*
X135698728Y-78146728D01*
X136198728Y-77647000D02*
X144194000Y-77647000D01*
X144694000Y-78147000D02*
X144694000Y-79157000D01*
D13*
X147175000Y-79157000D02*
X133205000Y-79157000D01*
X149080000Y-98207000D02*
X149080000Y-81062000D01*
X131300000Y-81058000D02*
G75*
G02*
X133205000Y-79153000I1905001J-1D01*
G01*
X133205000Y-100112000D02*
G75*
G02*
X131300000Y-98207000I0J1905000D01*
G01*
D14*
X135698728Y-78146728D02*
G75*
G02*
X136198728Y-77646998I500022J-292D01*
G01*
X144194000Y-77647000D02*
G75*
G02*
X144694000Y-78147000I0J-500000D01*
G01*
D13*
X147175000Y-79157000D02*
G75*
G02*
X149080000Y-81062000I0J-1905000D01*
G01*
X149080000Y-98207000D02*
G75*
G02*
X147175000Y-100112000I-1905000J0D01*
G01*
D15*
X131342000Y-79573000D02*
G75*
G02*
X130838000Y-79573000I-252000J0D01*
G01*
X130838000Y-79573000D02*
G75*
G02*
X131342000Y-79573000I252000J0D01*
G01*
X132559000Y-80296000D02*
G75*
G02*
X132055000Y-80296000I-252000J0D01*
G01*
X132055000Y-80296000D02*
G75*
G02*
X132559000Y-80296000I252000J0D01*
G01*
D16*
X130090000Y-103014000D02*
X130090000Y-108314000D01*
X130090000Y-108314000D02*
X150530000Y-108314000D01*
X150530000Y-103014000D02*
X130090000Y-103014000D01*
X150530000Y-104664000D02*
X150530000Y-103014000D01*
X150530000Y-108314000D02*
X150530000Y-106664000D01*
X150530000Y-106664000D02*
G75*
G02*
X150530000Y-104664000I0J1000000D01*
G01*
X153056000Y-93729400D02*
X153056000Y-99279400D01*
X153056000Y-104829400D02*
X153056000Y-99279400D01*
X156006000Y-92979400D02*
X156006000Y-93729400D01*
X156006000Y-93729400D02*
X153056000Y-93729400D01*
X156006000Y-104829400D02*
X153056000Y-104829400D01*
X156006000Y-105579400D02*
X156006000Y-104829400D01*
X158556000Y-92679400D02*
X157306000Y-92679400D01*
X158556000Y-93929400D02*
X158556000Y-92679400D01*
X157506000Y-92979400D02*
X158256000Y-92979400D01*
X158256000Y-94779400D01*
X157506000Y-94779400D01*
X157506000Y-92979400D01*
X157506000Y-96279400D02*
X158256000Y-96279400D01*
X158256000Y-102279400D01*
X157506000Y-102279400D01*
X157506000Y-96279400D01*
X157506000Y-103779400D02*
X158256000Y-103779400D01*
X158256000Y-105579400D01*
X157506000Y-105579400D01*
X157506000Y-103779400D01*
X152296000Y-92969400D02*
X158266000Y-92969400D01*
X158266000Y-105589400D01*
X152296000Y-105589400D01*
X152296000Y-92969400D01*
X120544000Y-110660000D02*
X120544000Y-111910000D01*
X120544000Y-111910000D02*
X121794000Y-111910000D01*
X123094000Y-101510000D02*
X123094000Y-102260000D01*
X123094000Y-102260000D02*
X126044000Y-102260000D01*
X123094000Y-110860000D02*
X126044000Y-110860000D01*
X123094000Y-111610000D02*
X123094000Y-110860000D01*
X126044000Y-102260000D02*
X126044000Y-106560000D01*
X126044000Y-110860000D02*
X126044000Y-106560000D01*
X120834000Y-101500000D02*
X126804000Y-101500000D01*
X126804000Y-111620000D01*
X120834000Y-111620000D01*
X120834000Y-101500000D01*
X120844000Y-101510000D02*
X121594000Y-101510000D01*
X121594000Y-103310000D01*
X120844000Y-103310000D01*
X120844000Y-101510000D01*
X120844000Y-104810000D02*
X121594000Y-104810000D01*
X121594000Y-108310000D01*
X120844000Y-108310000D01*
X120844000Y-104810000D01*
X120844000Y-109810000D02*
X121594000Y-109810000D01*
X121594000Y-111610000D01*
X120844000Y-111610000D01*
X120844000Y-109810000D01*
X129046000Y-115176000D02*
X129046000Y-117996000D01*
X129046000Y-115176000D02*
X130746000Y-113876000D01*
X129046000Y-117996000D02*
X130746000Y-119296000D01*
X130746000Y-113876000D02*
X139466000Y-113876000D01*
X130746000Y-119296000D02*
X139466000Y-119296000D01*
X139466000Y-113876000D02*
X139466000Y-119296000D01*
X140252000Y-113682000D02*
X140252000Y-118982000D01*
X140252000Y-118982000D02*
X150532000Y-118982000D01*
X150532000Y-113682000D02*
X140252000Y-113682000D01*
X150532000Y-115332000D02*
X150532000Y-113682000D01*
X150532000Y-118982000D02*
X150532000Y-117332000D01*
X150532000Y-117332000D02*
G75*
G02*
X150532000Y-115332000I0J1000000D01*
G01*
X152952000Y-117326000D02*
X152952000Y-120376000D01*
X152952000Y-123426000D02*
X152952000Y-120376000D01*
X155902000Y-116576000D02*
X155902000Y-117326000D01*
X155902000Y-117326000D02*
X152952000Y-117326000D01*
X155902000Y-123426000D02*
X152952000Y-123426000D01*
X155902000Y-124176000D02*
X155902000Y-123426000D01*
X158452000Y-116276000D02*
X157202000Y-116276000D01*
X158452000Y-117526000D02*
X158452000Y-116276000D01*
X157402000Y-116576000D02*
X158152000Y-116576000D01*
X158152000Y-118376000D01*
X157402000Y-118376000D01*
X157402000Y-116576000D01*
X157402000Y-119876000D02*
X158152000Y-119876000D01*
X158152000Y-120876000D01*
X157402000Y-120876000D01*
X157402000Y-119876000D01*
X157402000Y-122376000D02*
X158152000Y-122376000D01*
X158152000Y-124176000D01*
X157402000Y-124176000D01*
X157402000Y-122376000D01*
X152192000Y-116566000D02*
X158162000Y-116566000D01*
X158162000Y-124186000D01*
X152192000Y-124186000D01*
X152192000Y-116566000D01*
X130834000Y-132100000D02*
X131604000Y-132100000D01*
X138914000Y-132100000D02*
X138144000Y-132100000D01*
X131604000Y-130730000D02*
X138144000Y-130730000D01*
X138144000Y-133470000D01*
X131604000Y-133470000D01*
X131604000Y-130730000D01*
X120544000Y-121582000D02*
X120544000Y-122832000D01*
X120544000Y-122832000D02*
X121794000Y-122832000D01*
X123094000Y-112432000D02*
X123094000Y-113182000D01*
X123094000Y-113182000D02*
X126044000Y-113182000D01*
X123094000Y-121782000D02*
X126044000Y-121782000D01*
X123094000Y-122532000D02*
X123094000Y-121782000D01*
X126044000Y-113182000D02*
X126044000Y-117482000D01*
X126044000Y-121782000D02*
X126044000Y-117482000D01*
X120834000Y-112422000D02*
X126804000Y-112422000D01*
X126804000Y-122542000D01*
X120834000Y-122542000D01*
X120834000Y-112422000D01*
X120844000Y-112432000D02*
X121594000Y-112432000D01*
X121594000Y-114232000D01*
X120844000Y-114232000D01*
X120844000Y-112432000D01*
X120844000Y-115732000D02*
X121594000Y-115732000D01*
X121594000Y-119232000D01*
X120844000Y-119232000D01*
X120844000Y-115732000D01*
X120844000Y-120732000D02*
X121594000Y-120732000D01*
X121594000Y-122532000D01*
X120844000Y-122532000D01*
X120844000Y-120732000D01*
X153056000Y-80322000D02*
X153056000Y-85872000D01*
X153056000Y-91422000D02*
X153056000Y-85872000D01*
X156006000Y-79572000D02*
X156006000Y-80322000D01*
X156006000Y-80322000D02*
X153056000Y-80322000D01*
X156006000Y-91422000D02*
X153056000Y-91422000D01*
X156006000Y-92172000D02*
X156006000Y-91422000D01*
X158556000Y-79272000D02*
X157306000Y-79272000D01*
X158556000Y-80522000D02*
X158556000Y-79272000D01*
X157506000Y-79572000D02*
X158256000Y-79572000D01*
X158256000Y-81372000D01*
X157506000Y-81372000D01*
X157506000Y-79572000D01*
X157506000Y-82872000D02*
X158256000Y-82872000D01*
X158256000Y-88872000D01*
X157506000Y-88872000D01*
X157506000Y-82872000D01*
X157506000Y-90372000D02*
X158256000Y-90372000D01*
X158256000Y-92172000D01*
X157506000Y-92172000D01*
X157506000Y-90372000D01*
X152296000Y-79562000D02*
X158266000Y-79562000D01*
X158266000Y-92182000D01*
X152296000Y-92182000D01*
X152296000Y-79562000D01*
X152952000Y-126216000D02*
X152952000Y-129266000D01*
X152952000Y-132316000D02*
X152952000Y-129266000D01*
X155902000Y-125466000D02*
X155902000Y-126216000D01*
X155902000Y-126216000D02*
X152952000Y-126216000D01*
X155902000Y-132316000D02*
X152952000Y-132316000D01*
X155902000Y-133066000D02*
X155902000Y-132316000D01*
X158452000Y-125166000D02*
X157202000Y-125166000D01*
X158452000Y-126416000D02*
X158452000Y-125166000D01*
X157402000Y-125466000D02*
X158152000Y-125466000D01*
X158152000Y-127266000D01*
X157402000Y-127266000D01*
X157402000Y-125466000D01*
X157402000Y-128766000D02*
X158152000Y-128766000D01*
X158152000Y-129766000D01*
X157402000Y-129766000D01*
X157402000Y-128766000D01*
X157402000Y-131266000D02*
X158152000Y-131266000D01*
X158152000Y-133066000D01*
X157402000Y-133066000D01*
X157402000Y-131266000D01*
X152192000Y-125456000D02*
X158162000Y-125456000D01*
X158162000Y-133076000D01*
X152192000Y-133076000D01*
X152192000Y-125456000D01*
X129704000Y-125590000D02*
X129704000Y-128410000D01*
X129704000Y-125590000D02*
X131404000Y-124290000D01*
X129704000Y-128410000D02*
X131404000Y-129710000D01*
X131404000Y-124290000D02*
X140124000Y-124290000D01*
X131404000Y-129710000D02*
X140124000Y-129710000D01*
X140124000Y-124290000D02*
X140124000Y-129710000D01*
X120544000Y-88769000D02*
X120544000Y-90019000D01*
X120544000Y-90019000D02*
X121794000Y-90019000D01*
X123094000Y-79619000D02*
X123094000Y-80369000D01*
X123094000Y-80369000D02*
X126044000Y-80369000D01*
X123094000Y-88969000D02*
X126044000Y-88969000D01*
X123094000Y-89719000D02*
X123094000Y-88969000D01*
X126044000Y-80369000D02*
X126044000Y-84669000D01*
X126044000Y-88969000D02*
X126044000Y-84669000D01*
X120834000Y-79609000D02*
X126804000Y-79609000D01*
X126804000Y-89729000D01*
X120834000Y-89729000D01*
X120834000Y-79609000D01*
X120844000Y-79619000D02*
X121594000Y-79619000D01*
X121594000Y-81419000D01*
X120844000Y-81419000D01*
X120844000Y-79619000D01*
X120844000Y-82919000D02*
X121594000Y-82919000D01*
X121594000Y-86419000D01*
X120844000Y-86419000D01*
X120844000Y-82919000D01*
X120844000Y-87919000D02*
X121594000Y-87919000D01*
X121594000Y-89719000D01*
X120844000Y-89719000D01*
X120844000Y-87919000D01*
X120544000Y-132504000D02*
X120544000Y-133754000D01*
X120544000Y-133754000D02*
X121794000Y-133754000D01*
X123094000Y-123354000D02*
X123094000Y-124104000D01*
X123094000Y-124104000D02*
X126044000Y-124104000D01*
X123094000Y-132704000D02*
X126044000Y-132704000D01*
X123094000Y-133454000D02*
X123094000Y-132704000D01*
X126044000Y-124104000D02*
X126044000Y-128404000D01*
X126044000Y-132704000D02*
X126044000Y-128404000D01*
X120834000Y-123344000D02*
X126804000Y-123344000D01*
X126804000Y-133464000D01*
X120834000Y-133464000D01*
X120834000Y-123344000D01*
X120844000Y-123354000D02*
X121594000Y-123354000D01*
X121594000Y-125154000D01*
X120844000Y-125154000D01*
X120844000Y-123354000D01*
X120844000Y-126654000D02*
X121594000Y-126654000D01*
X121594000Y-130154000D01*
X120844000Y-130154000D01*
X120844000Y-126654000D01*
X120844000Y-131654000D02*
X121594000Y-131654000D01*
X121594000Y-133454000D01*
X120844000Y-133454000D01*
X120844000Y-131654000D01*
X143250000Y-122318000D02*
X143250000Y-125078000D01*
X145900000Y-122318000D02*
X143250000Y-122318000D01*
X145900000Y-122318000D02*
X145900000Y-125078000D01*
X145900000Y-125078000D02*
X143250000Y-125078000D01*
X147170000Y-122318000D02*
X148550000Y-122318000D01*
X148550000Y-122318000D02*
X148550000Y-123698000D01*
X152952000Y-108436000D02*
X152952000Y-111486000D01*
X152952000Y-114536000D02*
X152952000Y-111486000D01*
X155902000Y-107686000D02*
X155902000Y-108436000D01*
X155902000Y-108436000D02*
X152952000Y-108436000D01*
X155902000Y-114536000D02*
X152952000Y-114536000D01*
X155902000Y-115286000D02*
X155902000Y-114536000D01*
X158452000Y-107386000D02*
X157202000Y-107386000D01*
X158452000Y-108636000D02*
X158452000Y-107386000D01*
X157402000Y-107686000D02*
X158152000Y-107686000D01*
X158152000Y-109486000D01*
X157402000Y-109486000D01*
X157402000Y-107686000D01*
X157402000Y-110986000D02*
X158152000Y-110986000D01*
X158152000Y-111986000D01*
X157402000Y-111986000D01*
X157402000Y-110986000D01*
X157402000Y-113486000D02*
X158152000Y-113486000D01*
X158152000Y-115286000D01*
X157402000Y-115286000D01*
X157402000Y-113486000D01*
X152192000Y-107676000D02*
X158162000Y-107676000D01*
X158162000Y-115296000D01*
X152192000Y-115296000D01*
X152192000Y-107676000D01*
X120544000Y-99738000D02*
X120544000Y-100988000D01*
X120544000Y-100988000D02*
X121794000Y-100988000D01*
X123094000Y-90588000D02*
X123094000Y-91338000D01*
X123094000Y-91338000D02*
X126044000Y-91338000D01*
X123094000Y-99938000D02*
X126044000Y-99938000D01*
X123094000Y-100688000D02*
X123094000Y-99938000D01*
X126044000Y-91338000D02*
X126044000Y-95638000D01*
X126044000Y-99938000D02*
X126044000Y-95638000D01*
X120834000Y-90578000D02*
X126804000Y-90578000D01*
X126804000Y-100698000D01*
X120834000Y-100698000D01*
X120834000Y-90578000D01*
X120844000Y-90588000D02*
X121594000Y-90588000D01*
X121594000Y-92388000D01*
X120844000Y-92388000D01*
X120844000Y-90588000D01*
X120844000Y-93888000D02*
X121594000Y-93888000D01*
X121594000Y-97388000D01*
X120844000Y-97388000D01*
X120844000Y-93888000D01*
X120844000Y-98888000D02*
X121594000Y-98888000D01*
X121594000Y-100688000D01*
X120844000Y-100688000D01*
X120844000Y-98888000D01*
X142524000Y-131010000D02*
X143274000Y-131010000D01*
X143274000Y-128060000D02*
X146324000Y-128060000D01*
X143274000Y-131010000D02*
X143274000Y-128060000D01*
X149174000Y-133560000D02*
X150424000Y-133560000D01*
X149374000Y-128060000D02*
X146324000Y-128060000D01*
X149374000Y-131010000D02*
X149374000Y-128060000D01*
X150124000Y-131010000D02*
X149374000Y-131010000D01*
X150424000Y-133560000D02*
X150424000Y-132310000D01*
X142524000Y-132510000D02*
X144324000Y-132510000D01*
X144324000Y-133260000D01*
X142524000Y-133260000D01*
X142524000Y-132510000D01*
X145824000Y-132510000D02*
X146824000Y-132510000D01*
X146824000Y-133260000D01*
X145824000Y-133260000D01*
X145824000Y-132510000D01*
X148324000Y-132510000D02*
X150124000Y-132510000D01*
X150124000Y-133260000D01*
X148324000Y-133260000D01*
X148324000Y-132510000D01*
X142514000Y-127300000D02*
X150134000Y-127300000D01*
X150134000Y-133270000D01*
X142514000Y-133270000D01*
X142514000Y-127300000D01*
M02*
