M48
; DRILL file KiCad 10.0.6 date 2026-09-08T22:17:01
; FORMAT={-:-/ absolute / metric / decimal}
; #@! TF.CreationDate,2026-09-08T22:17:01+09:00
; #@! TF.GenerationSoftware,Kicad,Pcbnew,10.0.6
; #@! TF.FileFunction,Plated,1,2,PTH
FMAT,2
METRIC
; #@! TA.AperFunction,Plated,PTH,ViaDrill
T1C0.300
; #@! TA.AperFunction,Plated,PTH,ComponentDrill
T2C0.800
; #@! TA.AperFunction,Plated,PTH,ComponentDrill
T3C0.950
; #@! TA.AperFunction,Plated,PTH,ComponentDrill
T4C1.000
; #@! TA.AperFunction,Plated,PTH,ComponentDrill
T5C2.700
%
G90
G05
T1
X121.285Y-126.873
X122.682Y-122.682
X122.809Y-112.014
X122.936Y-101.092
X123.19Y-90.17
X125.095Y-132.334
X130.229Y-84.166
X130.229Y-87.759
X130.229Y-92.706
X131.445Y-106.299
X131.699Y-112.141
X133.858Y-89.662
X134.62Y-129.667
X135.23Y-100.227
X135.355Y-97.729
X135.89Y-82.296
X141.224Y-115.316
X141.732Y-130.048
X141.986Y-124.333
X142.367Y-117.856
X143.383Y-132.715
X144.145Y-127.254
X144.399Y-81.915
X144.399Y-87.249
X144.399Y-115.824
X145.962Y-97.784
X149.86Y-132.334
X149.987Y-125.349
X150.495Y-106.299
X152.273Y-127.508
X152.781Y-119.507
X153.035Y-80.137
X153.416Y-106.299
X153.416Y-131.826
X153.543Y-103.632
X153.797Y-123.571
X154.051Y-113.015
X157.099Y-132.715
X157.861Y-85.852
T2
X129.794Y-132.1
X131.42Y-101.854
X131.42Y-109.474
X133.96Y-101.854
X133.96Y-109.474
X136.5Y-101.854
X136.5Y-109.474
X139.04Y-101.854
X139.04Y-109.474
X139.954Y-132.1
X141.58Y-101.854
X141.58Y-109.474
X141.582Y-112.522
X141.582Y-120.142
X144.12Y-101.854
X144.12Y-109.474
X144.122Y-112.522
X144.122Y-120.142
X146.66Y-101.854
X146.66Y-109.474
X146.662Y-112.522
X146.662Y-120.142
X149.2Y-101.854
X149.2Y-109.474
X149.202Y-112.522
X149.202Y-120.142
T3
X123.294Y-82.169
X123.294Y-84.669
X123.294Y-87.169
X123.294Y-93.138
X123.294Y-95.638
X123.294Y-98.138
X123.294Y-104.06
X123.294Y-106.56
X123.294Y-109.06
X123.294Y-114.982
X123.294Y-117.482
X123.294Y-119.982
X123.294Y-125.904
X123.294Y-128.404
X123.294Y-130.904
X155.806Y-82.122
X155.806Y-84.622
X155.806Y-87.122
X155.806Y-89.622
X155.806Y-95.529
X155.806Y-98.029
X155.806Y-100.529
X155.806Y-103.029
T4
X144.63Y-123.698
X145.074Y-130.81
X147.17Y-123.698
X147.574Y-130.81
X155.702Y-110.236
X155.702Y-112.736
X155.702Y-119.126
X155.702Y-121.626
X155.702Y-128.016
X155.702Y-130.516
T5
X131.756Y-116.586
X132.414Y-127.0
X136.756Y-116.586
X137.414Y-127.0
M30
