G04 #@! TF.GenerationSoftware,KiCad,Pcbnew,10.0.6*
G04 #@! TF.CreationDate,2026-09-08T22:16:38+09:00*
G04 #@! TF.ProjectId,XIAO-ESP32-S3-SS,5849414f-2d45-4535-9033-322d53332d53,rev?*
G04 #@! TF.SameCoordinates,Original*
G04 #@! TF.FileFunction,Copper,L2,Bot*
G04 #@! TF.FilePolarity,Positive*
%FSLAX46Y46*%
G04 Gerber Fmt 4.6, Leading zero omitted, Abs format (unit mm)*
G04 Created by KiCad (PCBNEW 10.0.6) date 2026-09-08 22:16:38*
%MOMM*%
%LPD*%
G01*
G04 APERTURE LIST*
G04 Aperture macros list*
%AMRoundRect*
0 Rectangle with rounded corners*
0 $1 Rounding radius*
0 $2 $3 $4 $5 $6 $7 $8 $9 X,Y pos of 4 corners*
0 Add a 4 corners polygon primitive as box body*
4,1,4,$2,$3,$4,$5,$6,$7,$8,$9,$2,$3,0*
0 Add four circle primitives for the rounded corners*
1,1,$1+$1,$2,$3*
1,1,$1+$1,$4,$5*
1,1,$1+$1,$6,$7*
1,1,$1+$1,$8,$9*
0 Add four rect primitives between the rounded corners*
20,1,$1+$1,$2,$3,$4,$5,0*
20,1,$1+$1,$4,$5,$6,$7,0*
20,1,$1+$1,$6,$7,$8,$9,0*
20,1,$1+$1,$8,$9,$2,$3,0*%
G04 Aperture macros list end*
G04 #@! TA.AperFunction,ComponentPad*
%ADD10RoundRect,0.250000X-0.550000X0.550000X-0.550000X-0.550000X0.550000X-0.550000X0.550000X0.550000X0*%
G04 #@! TD*
G04 #@! TA.AperFunction,ComponentPad*
%ADD11C,1.600000*%
G04 #@! TD*
G04 #@! TA.AperFunction,ComponentPad*
%ADD12RoundRect,0.250000X-0.725000X0.600000X-0.725000X-0.600000X0.725000X-0.600000X0.725000X0.600000X0*%
G04 #@! TD*
G04 #@! TA.AperFunction,ComponentPad*
%ADD13O,1.950000X1.700000*%
G04 #@! TD*
G04 #@! TA.AperFunction,ComponentPad*
%ADD14RoundRect,0.250000X0.725000X-0.600000X0.725000X0.600000X-0.725000X0.600000X-0.725000X-0.600000X0*%
G04 #@! TD*
G04 #@! TA.AperFunction,ComponentPad*
%ADD15RoundRect,0.760000X-1.140000X-1.140000X1.140000X-1.140000X1.140000X1.140000X-1.140000X1.140000X0*%
G04 #@! TD*
G04 #@! TA.AperFunction,ComponentPad*
%ADD16C,3.800000*%
G04 #@! TD*
G04 #@! TA.AperFunction,ComponentPad*
%ADD17RoundRect,0.250000X-0.750000X0.600000X-0.750000X-0.600000X0.750000X-0.600000X0.750000X0.600000X0*%
G04 #@! TD*
G04 #@! TA.AperFunction,ComponentPad*
%ADD18O,2.000000X1.700000*%
G04 #@! TD*
G04 #@! TA.AperFunction,ComponentPad*
%ADD19R,1.700000X1.700000*%
G04 #@! TD*
G04 #@! TA.AperFunction,ComponentPad*
%ADD20C,1.700000*%
G04 #@! TD*
G04 #@! TA.AperFunction,ComponentPad*
%ADD21RoundRect,0.250000X0.600000X0.750000X-0.600000X0.750000X-0.600000X-0.750000X0.600000X-0.750000X0*%
G04 #@! TD*
G04 #@! TA.AperFunction,ComponentPad*
%ADD22O,1.700000X2.000000*%
G04 #@! TD*
G04 #@! TA.AperFunction,ViaPad*
%ADD23C,0.600000*%
G04 #@! TD*
G04 #@! TA.AperFunction,Conductor*
%ADD24C,0.200000*%
G04 #@! TD*
G04 #@! TA.AperFunction,Conductor*
%ADD25C,5.000000*%
G04 #@! TD*
G04 #@! TA.AperFunction,Conductor*
%ADD26C,2.000000*%
G04 #@! TD*
G04 APERTURE END LIST*
D10*
X149200000Y-101854000D03*
D11*
X146660000Y-101854000D03*
X144120000Y-101854000D03*
X141580000Y-101854000D03*
X139040000Y-101854000D03*
X136500000Y-101854000D03*
X133960000Y-101854000D03*
X131420000Y-101854000D03*
X131420000Y-109474000D03*
X133960000Y-109474000D03*
X136500000Y-109474000D03*
X139040000Y-109474000D03*
X141580000Y-109474000D03*
X144120000Y-109474000D03*
X146660000Y-109474000D03*
X149200000Y-109474000D03*
D12*
X155806000Y-95529400D03*
D13*
X155806000Y-98029400D03*
X155806000Y-100529400D03*
X155806000Y-103029400D03*
D14*
X123294000Y-109060000D03*
D13*
X123294000Y-106560000D03*
X123294000Y-104060000D03*
D15*
X131756000Y-116586000D03*
D16*
X136756000Y-116586000D03*
D10*
X149202000Y-112522000D03*
D11*
X146662000Y-112522000D03*
X144122000Y-112522000D03*
X141582000Y-112522000D03*
X141582000Y-120142000D03*
X144122000Y-120142000D03*
X146662000Y-120142000D03*
X149202000Y-120142000D03*
D17*
X155702000Y-119126000D03*
D18*
X155702000Y-121626000D03*
D11*
X129794000Y-132100000D03*
X139954000Y-132100000D03*
D14*
X123294000Y-119982000D03*
D13*
X123294000Y-117482000D03*
X123294000Y-114982000D03*
D12*
X155806000Y-82122000D03*
D13*
X155806000Y-84622000D03*
X155806000Y-87122000D03*
X155806000Y-89622000D03*
D17*
X155702000Y-128016000D03*
D18*
X155702000Y-130516000D03*
D15*
X132414000Y-127000000D03*
D16*
X137414000Y-127000000D03*
D14*
X123294000Y-87169000D03*
D13*
X123294000Y-84669000D03*
X123294000Y-82169000D03*
D14*
X123294000Y-130904000D03*
D13*
X123294000Y-128404000D03*
X123294000Y-125904000D03*
D19*
X147170000Y-123698000D03*
D20*
X144630000Y-123698000D03*
D17*
X155702000Y-110236000D03*
D18*
X155702000Y-112736000D03*
D14*
X123294000Y-98138000D03*
D13*
X123294000Y-95638000D03*
X123294000Y-93138000D03*
D21*
X147574000Y-130810000D03*
D22*
X145074000Y-130810000D03*
D23*
X130229100Y-84166400D03*
X130229100Y-87759200D03*
X130229100Y-92706000D03*
X133858000Y-89662000D03*
X135355000Y-97728700D03*
X135230100Y-100227000D03*
X145961600Y-97783700D03*
X143383000Y-132715000D03*
X122682000Y-122682000D03*
X134620000Y-129667000D03*
X144399000Y-87249000D03*
X157861000Y-85852000D03*
X131699000Y-112141000D03*
X149860000Y-132334000D03*
X153416000Y-106299000D03*
X125095000Y-132334000D03*
X157099000Y-132715000D03*
X144399000Y-115824000D03*
X144145000Y-127254000D03*
X150495000Y-106299000D03*
X144399000Y-81915000D03*
X135890000Y-82296000D03*
X153797000Y-123571000D03*
X123190000Y-90170000D03*
X122936000Y-101092000D03*
X142367000Y-117856000D03*
X152781000Y-119507000D03*
X141986000Y-124333000D03*
X122809000Y-112014000D03*
X121285000Y-126873000D03*
X149987000Y-125349000D03*
X141732000Y-130048000D03*
X141224000Y-115316000D03*
X153416000Y-131826000D03*
X153035000Y-80137000D03*
X152273000Y-127508000D03*
X153543000Y-103632000D03*
X131445000Y-106299000D03*
X154051000Y-113015100D03*
D24*
X122739300Y-83344000D02*
X124243000Y-83344000D01*
X128255400Y-81878400D02*
X130229100Y-83852100D01*
X121989700Y-85864700D02*
X121989700Y-84093600D01*
X130229100Y-83852100D02*
X130229100Y-84166400D01*
X121989700Y-84093600D02*
X122739300Y-83344000D01*
X123294000Y-87169000D02*
X121989700Y-85864700D01*
X125708600Y-81878400D02*
X128255400Y-81878400D01*
X124243000Y-83344000D02*
X125708600Y-81878400D01*
X121540300Y-96384300D02*
X121540300Y-82146200D01*
X123294000Y-98138000D02*
X121540300Y-96384300D01*
X122684500Y-81002000D02*
X127947400Y-81002000D01*
X130899000Y-83953600D02*
X130899000Y-87089300D01*
X127947400Y-81002000D02*
X130899000Y-83953600D01*
X130899000Y-87089300D02*
X130229100Y-87759200D01*
X121540300Y-82146200D02*
X122684500Y-81002000D01*
X128145400Y-80596700D02*
X131332900Y-83784200D01*
X121119800Y-106885800D02*
X121119800Y-81987700D01*
X122510800Y-80596700D02*
X128145400Y-80596700D01*
X123294000Y-109060000D02*
X121119800Y-106885800D01*
X121119800Y-81987700D02*
X122510800Y-80596700D01*
X131332900Y-91602200D02*
X130229100Y-92706000D01*
X131332900Y-83784200D02*
X131332900Y-91602200D01*
X120719800Y-81822014D02*
X122345115Y-80196700D01*
X123294000Y-119982000D02*
X120719800Y-117407800D01*
X120719800Y-117407800D02*
X120719800Y-81822014D01*
X128311086Y-80196700D02*
X133858000Y-85743614D01*
X122345115Y-80196700D02*
X128311086Y-80196700D01*
X133858000Y-85743614D02*
X133858000Y-89662000D01*
X149200000Y-101854000D02*
X148090300Y-102963700D01*
X146184500Y-102963700D02*
X145361400Y-102140600D01*
X145361400Y-102140600D02*
X145361400Y-101512000D01*
X141578100Y-97728700D02*
X135355000Y-97728700D01*
X145361400Y-101512000D02*
X141578100Y-97728700D01*
X148090300Y-102963700D02*
X146184500Y-102963700D01*
X141538000Y-111001900D02*
X147681900Y-111001900D01*
X135230100Y-100227000D02*
X135230100Y-103875700D01*
X140389700Y-109853600D02*
X141538000Y-111001900D01*
X140389700Y-109035300D02*
X140389700Y-109853600D01*
X135230100Y-103875700D02*
X140389700Y-109035300D01*
X147681900Y-111001900D02*
X149202000Y-112522000D01*
X146660000Y-101854000D02*
X145961600Y-101155600D01*
X145961600Y-101155600D02*
X145961600Y-97783700D01*
X155702000Y-113887700D02*
X136756000Y-113887700D01*
X136756000Y-113887700D02*
X135833700Y-113887700D01*
X135833700Y-113887700D02*
X131420000Y-109474000D01*
X136756000Y-113887700D02*
X136756000Y-116586000D01*
X145074000Y-130810000D02*
X146225700Y-130810000D01*
X155702000Y-130516000D02*
X155702000Y-129364300D01*
X155702000Y-112736000D02*
X155702000Y-113887700D01*
X146225700Y-130810000D02*
X146225700Y-130018200D01*
X146879600Y-129364300D02*
X155702000Y-129364300D01*
X146225700Y-130018200D02*
X146879600Y-129364300D01*
X153807500Y-108341500D02*
X142712500Y-108341500D01*
X142712500Y-108341500D02*
X141580000Y-109474000D01*
X155702000Y-110236000D02*
X153807500Y-108341500D01*
X145233200Y-110587200D02*
X144120000Y-109474000D01*
X154051000Y-113015100D02*
X151623100Y-110587200D01*
X151623100Y-110587200D02*
X145233200Y-110587200D01*
X156237900Y-101681100D02*
X157445100Y-102888300D01*
X157098400Y-98537000D02*
X156257700Y-99377700D01*
X155806000Y-100529400D02*
X155806000Y-101681100D01*
X157098400Y-89134200D02*
X157098400Y-98537000D01*
X155806000Y-88273700D02*
X156237900Y-88273700D01*
X157445100Y-113435800D02*
X152873900Y-118007000D01*
X155806000Y-87122000D02*
X155806000Y-88273700D01*
X155806000Y-100529400D02*
X155806000Y-99377700D01*
X148797000Y-118007000D02*
X146662000Y-120142000D01*
X157445100Y-102888300D02*
X157445100Y-113435800D01*
X156237900Y-88273700D02*
X157098400Y-89134200D01*
X156257700Y-99377700D02*
X155806000Y-99377700D01*
X155806000Y-101681100D02*
X156237900Y-101681100D01*
X152873900Y-118007000D02*
X148797000Y-118007000D01*
X157012600Y-113268100D02*
X154526000Y-115754700D01*
X148509300Y-115754700D02*
X144122000Y-120142000D01*
X154526000Y-115754700D02*
X148509300Y-115754700D01*
X155806000Y-104181100D02*
X157012600Y-105387700D01*
X155806000Y-103029400D02*
X155806000Y-104181100D01*
X157012600Y-105387700D02*
X157012600Y-113268100D01*
X137400000Y-126986000D02*
X137414000Y-127000000D01*
D25*
X137400000Y-122100000D02*
X127300000Y-122100000D01*
D24*
X127096000Y-128404000D02*
X127100000Y-128400000D01*
D26*
X127060000Y-106560000D02*
X127100000Y-106600000D01*
D25*
X127100000Y-121900000D02*
X127100000Y-117600000D01*
D26*
X123294000Y-84669000D02*
X127069000Y-84669000D01*
D25*
X127100000Y-95700000D02*
X127100000Y-84700000D01*
D26*
X126982000Y-117482000D02*
X127100000Y-117600000D01*
D25*
X127300000Y-122100000D02*
X127100000Y-121900000D01*
D26*
X123294000Y-95638000D02*
X127038000Y-95638000D01*
D25*
X137400000Y-122100000D02*
X137400000Y-126986000D01*
X127100000Y-117600000D02*
X127100000Y-106600000D01*
D24*
X127069000Y-84669000D02*
X127100000Y-84700000D01*
X137414000Y-128486000D02*
X137400000Y-128500000D01*
D26*
X123294000Y-117482000D02*
X126982000Y-117482000D01*
D25*
X127100000Y-121900000D02*
X127100000Y-128400000D01*
D26*
X123294000Y-128404000D02*
X127096000Y-128404000D01*
D25*
X127100000Y-106600000D02*
X127100000Y-95700000D01*
D26*
X127038000Y-95638000D02*
X127100000Y-95700000D01*
X123294000Y-106560000D02*
X127060000Y-106560000D01*
D24*
X144630000Y-123698000D02*
X144630000Y-123776000D01*
X136306000Y-132100000D02*
X129794000Y-132100000D01*
X144630000Y-123776000D02*
X136306000Y-132100000D01*
G04 #@! TA.AperFunction,Conductor*
G36*
X120705703Y-118243384D02*
G01*
X120712181Y-118249416D01*
X121782181Y-119319416D01*
X121815666Y-119380739D01*
X121818500Y-119407097D01*
X121818500Y-120632001D01*
X121818501Y-120632018D01*
X121829000Y-120734796D01*
X121829001Y-120734799D01*
X121858432Y-120823614D01*
X121884186Y-120901334D01*
X121976288Y-121050656D01*
X122100344Y-121174712D01*
X122249666Y-121266814D01*
X122416203Y-121321999D01*
X122518991Y-121332500D01*
X123975500Y-121332499D01*
X124042539Y-121352184D01*
X124088294Y-121404987D01*
X124099500Y-121456499D01*
X124099500Y-124534961D01*
X124079815Y-124602000D01*
X124027011Y-124647755D01*
X123957853Y-124657699D01*
X123937183Y-124652892D01*
X123735134Y-124587243D01*
X123735127Y-124587242D01*
X123544000Y-124556969D01*
X123544000Y-125499854D01*
X123477343Y-125461370D01*
X123356535Y-125429000D01*
X123231465Y-125429000D01*
X123110657Y-125461370D01*
X123044000Y-125499854D01*
X123044000Y-124556969D01*
X122852872Y-124587242D01*
X122852869Y-124587242D01*
X122650782Y-124652904D01*
X122461442Y-124749379D01*
X122289540Y-124874272D01*
X122289535Y-124874276D01*
X122139276Y-125024535D01*
X122139272Y-125024540D01*
X122014379Y-125196442D01*
X121917904Y-125385782D01*
X121852242Y-125587870D01*
X121852242Y-125587873D01*
X121841769Y-125654000D01*
X122889854Y-125654000D01*
X122851370Y-125720657D01*
X122819000Y-125841465D01*
X122819000Y-125966535D01*
X122851370Y-126087343D01*
X122889854Y-126154000D01*
X121841769Y-126154000D01*
X121852242Y-126220126D01*
X121852242Y-126220129D01*
X121917904Y-126422217D01*
X122014379Y-126611557D01*
X122139272Y-126783459D01*
X122139276Y-126783464D01*
X122289533Y-126933721D01*
X122389121Y-127006075D01*
X122431787Y-127061405D01*
X122437766Y-127131018D01*
X122405161Y-127192814D01*
X122389123Y-127206711D01*
X122316490Y-127259482D01*
X122149485Y-127426487D01*
X122149485Y-127426488D01*
X122149483Y-127426490D01*
X122089862Y-127508550D01*
X122010657Y-127617566D01*
X121903433Y-127828003D01*
X121830446Y-128052631D01*
X121793500Y-128285902D01*
X121793500Y-128522097D01*
X121830446Y-128755368D01*
X121903433Y-128979996D01*
X121956761Y-129084657D01*
X122010657Y-129190433D01*
X122149483Y-129381510D01*
X122149485Y-129381512D01*
X122223814Y-129455841D01*
X122257299Y-129517164D01*
X122252315Y-129586856D01*
X122210443Y-129642789D01*
X122201230Y-129649060D01*
X122100347Y-129711285D01*
X122100343Y-129711288D01*
X121976289Y-129835342D01*
X121884187Y-129984663D01*
X121884185Y-129984668D01*
X121883578Y-129986500D01*
X121829001Y-130151203D01*
X121829001Y-130151204D01*
X121829000Y-130151204D01*
X121818500Y-130253983D01*
X121818500Y-131554001D01*
X121818501Y-131554018D01*
X121829000Y-131656796D01*
X121829001Y-131656799D01*
X121884185Y-131823331D01*
X121884187Y-131823336D01*
X121894337Y-131839792D01*
X121976288Y-131972656D01*
X122100344Y-132096712D01*
X122249666Y-132188814D01*
X122416203Y-132243999D01*
X122518991Y-132254500D01*
X124069008Y-132254499D01*
X124171797Y-132243999D01*
X124338334Y-132188814D01*
X124487656Y-132096712D01*
X124611712Y-131972656D01*
X124703814Y-131823334D01*
X124758999Y-131656797D01*
X124769500Y-131554009D01*
X124769499Y-130612208D01*
X124789183Y-130545170D01*
X124841987Y-130499415D01*
X124911146Y-130489471D01*
X124974702Y-130518496D01*
X124981180Y-130524528D01*
X125097477Y-130640825D01*
X125360961Y-130850946D01*
X125646314Y-131030246D01*
X125949949Y-131176469D01*
X126188848Y-131260063D01*
X126268034Y-131287772D01*
X126268046Y-131287776D01*
X126596606Y-131362767D01*
X126931492Y-131400499D01*
X126931493Y-131400500D01*
X126931496Y-131400500D01*
X127268507Y-131400500D01*
X127268507Y-131400499D01*
X127603394Y-131362767D01*
X127931954Y-131287776D01*
X128250051Y-131176469D01*
X128553686Y-131030246D01*
X128839039Y-130850946D01*
X129102523Y-130640825D01*
X129340825Y-130402523D01*
X129550946Y-130139039D01*
X129730246Y-129853686D01*
X129876469Y-129550051D01*
X129987776Y-129231954D01*
X130051528Y-128952634D01*
X130085635Y-128891658D01*
X130147297Y-128858800D01*
X130216934Y-128864495D01*
X130272438Y-128906934D01*
X130274346Y-128909613D01*
X130302851Y-128950758D01*
X130302861Y-128950770D01*
X130463229Y-129111138D01*
X130463241Y-129111148D01*
X130649663Y-129240301D01*
X130649669Y-129240304D01*
X130856167Y-129334100D01*
X130856170Y-129334101D01*
X131076087Y-129389516D01*
X131076093Y-129389517D01*
X131209280Y-129399999D01*
X131209294Y-129400000D01*
X132164000Y-129400000D01*
X132164000Y-128327231D01*
X132307753Y-128350000D01*
X132520247Y-128350000D01*
X132664000Y-128327231D01*
X132664000Y-129400000D01*
X133618706Y-129400000D01*
X133618719Y-129399999D01*
X133751906Y-129389517D01*
X133751912Y-129389516D01*
X133971829Y-129334101D01*
X133971832Y-129334100D01*
X134178330Y-129240304D01*
X134178336Y-129240301D01*
X134364758Y-129111148D01*
X134364770Y-129111138D01*
X134525138Y-128950770D01*
X134525148Y-128950758D01*
X134654301Y-128764336D01*
X134693036Y-128679058D01*
X134738683Y-128626160D01*
X134805682Y-128606338D01*
X134872762Y-128625885D01*
X134910929Y-128664365D01*
X134949051Y-128725035D01*
X135096246Y-128909613D01*
X135159175Y-128988523D01*
X135397477Y-129226825D01*
X135660961Y-129436946D01*
X135946314Y-129616246D01*
X136249949Y-129762469D01*
X136458208Y-129835342D01*
X136568034Y-129873772D01*
X136568046Y-129873776D01*
X136896606Y-129948767D01*
X137231492Y-129986499D01*
X137231493Y-129986500D01*
X137270902Y-129986500D01*
X137337941Y-130006185D01*
X137383696Y-130058989D01*
X137393640Y-130128147D01*
X137364615Y-130191703D01*
X137358583Y-130198181D01*
X136093584Y-131463181D01*
X136032261Y-131496666D01*
X136005903Y-131499500D01*
X131023602Y-131499500D01*
X130956563Y-131479815D01*
X130913117Y-131431795D01*
X130906284Y-131418385D01*
X130785971Y-131252786D01*
X130641213Y-131108028D01*
X130475613Y-130987715D01*
X130475612Y-130987714D01*
X130475610Y-130987713D01*
X130418653Y-130958691D01*
X130293223Y-130894781D01*
X130098534Y-130831522D01*
X129923995Y-130803878D01*
X129896352Y-130799500D01*
X129691648Y-130799500D01*
X129667329Y-130803351D01*
X129489465Y-130831522D01*
X129294776Y-130894781D01*
X129112386Y-130987715D01*
X128946786Y-131108028D01*
X128802028Y-131252786D01*
X128681715Y-131418386D01*
X128588781Y-131600776D01*
X128525522Y-131795465D01*
X128493500Y-131997648D01*
X128493500Y-132202351D01*
X128525522Y-132404534D01*
X128588781Y-132599223D01*
X128681715Y-132781613D01*
X128802028Y-132947213D01*
X128946786Y-133091971D01*
X129101749Y-133204556D01*
X129112390Y-133212287D01*
X129199042Y-133256438D01*
X129215874Y-133265015D01*
X129266670Y-133312990D01*
X129283465Y-133380811D01*
X129260927Y-133446946D01*
X129206212Y-133490397D01*
X129159579Y-133499500D01*
X120624500Y-133499500D01*
X120557461Y-133479815D01*
X120511706Y-133427011D01*
X120500500Y-133375500D01*
X120500500Y-118337097D01*
X120520185Y-118270058D01*
X120572989Y-118224303D01*
X120642147Y-118214359D01*
X120705703Y-118243384D01*
G37*
G04 #@! TD.AperFunction*
G04 #@! TA.AperFunction,Conductor*
G36*
X158442539Y-79520185D02*
G01*
X158488294Y-79572989D01*
X158499500Y-79624500D01*
X158499500Y-133375500D01*
X158479815Y-133442539D01*
X158427011Y-133488294D01*
X158375500Y-133499500D01*
X140588421Y-133499500D01*
X140521382Y-133479815D01*
X140475627Y-133427011D01*
X140465683Y-133357853D01*
X140494708Y-133294297D01*
X140532126Y-133265015D01*
X140543785Y-133259073D01*
X140635610Y-133212287D01*
X140728590Y-133144732D01*
X140801213Y-133091971D01*
X140801215Y-133091968D01*
X140801219Y-133091966D01*
X140945966Y-132947219D01*
X140945968Y-132947215D01*
X140945971Y-132947213D01*
X140998732Y-132874590D01*
X141066287Y-132781610D01*
X141159220Y-132599219D01*
X141222477Y-132404534D01*
X141254500Y-132202352D01*
X141254500Y-131997648D01*
X141235760Y-131879331D01*
X141222477Y-131795465D01*
X141177420Y-131656795D01*
X141159220Y-131600781D01*
X141159218Y-131600778D01*
X141159218Y-131600776D01*
X141125503Y-131534607D01*
X141066287Y-131418390D01*
X141025875Y-131362767D01*
X140945971Y-131252786D01*
X140801213Y-131108028D01*
X140635613Y-130987715D01*
X140635612Y-130987714D01*
X140635610Y-130987713D01*
X140578653Y-130958691D01*
X140453223Y-130894781D01*
X140258534Y-130831522D01*
X140083995Y-130803878D01*
X140056352Y-130799500D01*
X139851648Y-130799500D01*
X139827329Y-130803351D01*
X139649465Y-130831522D01*
X139454776Y-130894781D01*
X139272386Y-130987715D01*
X139106786Y-131108028D01*
X138962028Y-131252786D01*
X138841715Y-131418386D01*
X138748781Y-131600776D01*
X138685522Y-131795465D01*
X138653500Y-131997648D01*
X138653500Y-132202351D01*
X138685522Y-132404534D01*
X138748781Y-132599223D01*
X138841715Y-132781613D01*
X138962028Y-132947213D01*
X139106786Y-133091971D01*
X139261749Y-133204556D01*
X139272390Y-133212287D01*
X139359042Y-133256438D01*
X139375874Y-133265015D01*
X139426670Y-133312990D01*
X139443465Y-133380811D01*
X139420927Y-133446946D01*
X139366212Y-133490397D01*
X139319579Y-133499500D01*
X130428421Y-133499500D01*
X130361382Y-133479815D01*
X130315627Y-133427011D01*
X130305683Y-133357853D01*
X130334708Y-133294297D01*
X130372126Y-133265015D01*
X130383785Y-133259073D01*
X130475610Y-133212287D01*
X130568590Y-133144732D01*
X130641213Y-133091971D01*
X130641215Y-133091968D01*
X130641219Y-133091966D01*
X130785966Y-132947219D01*
X130785968Y-132947215D01*
X130785971Y-132947213D01*
X130906284Y-132781614D01*
X130906285Y-132781613D01*
X130906287Y-132781610D01*
X130913117Y-132768204D01*
X130961091Y-132717409D01*
X131023602Y-132700500D01*
X136219331Y-132700500D01*
X136219347Y-132700501D01*
X136226943Y-132700501D01*
X136385054Y-132700501D01*
X136385057Y-132700501D01*
X136537785Y-132659577D01*
X136587904Y-132630639D01*
X136674716Y-132580520D01*
X136786520Y-132468716D01*
X136786520Y-132468714D01*
X136796728Y-132458507D01*
X136796729Y-132458504D01*
X138701520Y-130553713D01*
X143723500Y-130553713D01*
X143723500Y-131066286D01*
X143753038Y-131252786D01*
X143756754Y-131276243D01*
X143802939Y-131418386D01*
X143822444Y-131478414D01*
X143918951Y-131667820D01*
X144043890Y-131839786D01*
X144194213Y-131990109D01*
X144366179Y-132115048D01*
X144366181Y-132115049D01*
X144366184Y-132115051D01*
X144555588Y-132211557D01*
X144757757Y-132277246D01*
X144967713Y-132310500D01*
X144967714Y-132310500D01*
X145180286Y-132310500D01*
X145180287Y-132310500D01*
X145390243Y-132277246D01*
X145592412Y-132211557D01*
X145781816Y-132115051D01*
X145953792Y-131990104D01*
X146092604Y-131851291D01*
X146153923Y-131817809D01*
X146223615Y-131822793D01*
X146279549Y-131864664D01*
X146285821Y-131873878D01*
X146289185Y-131879333D01*
X146289186Y-131879334D01*
X146381288Y-132028656D01*
X146505344Y-132152712D01*
X146654666Y-132244814D01*
X146821203Y-132299999D01*
X146923991Y-132310500D01*
X148224008Y-132310499D01*
X148326797Y-132299999D01*
X148493334Y-132244814D01*
X148642656Y-132152712D01*
X148766712Y-132028656D01*
X148858814Y-131879334D01*
X148913999Y-131712797D01*
X148924500Y-131610009D01*
X148924499Y-130088799D01*
X148944184Y-130021761D01*
X148996987Y-129976006D01*
X149048499Y-129964800D01*
X154140425Y-129964800D01*
X154207464Y-129984485D01*
X154253219Y-130037289D01*
X154263163Y-130106447D01*
X154258356Y-130127118D01*
X154234753Y-130199759D01*
X154201500Y-130409713D01*
X154201500Y-130622286D01*
X154234639Y-130831522D01*
X154234754Y-130832243D01*
X154299089Y-131030246D01*
X154300444Y-131034414D01*
X154396951Y-131223820D01*
X154521890Y-131395786D01*
X154672213Y-131546109D01*
X154844179Y-131671048D01*
X154844181Y-131671049D01*
X154844184Y-131671051D01*
X155033588Y-131767557D01*
X155235757Y-131833246D01*
X155445713Y-131866500D01*
X155445714Y-131866500D01*
X155958286Y-131866500D01*
X155958287Y-131866500D01*
X156168243Y-131833246D01*
X156370412Y-131767557D01*
X156559816Y-131671051D01*
X156656542Y-131600776D01*
X156731786Y-131546109D01*
X156731788Y-131546106D01*
X156731792Y-131546104D01*
X156882104Y-131395792D01*
X156882106Y-131395788D01*
X156882109Y-131395786D01*
X157007048Y-131223820D01*
X157007047Y-131223820D01*
X157007051Y-131223816D01*
X157103557Y-131034412D01*
X157169246Y-130832243D01*
X157202500Y-130622287D01*
X157202500Y-130409713D01*
X157169246Y-130199757D01*
X157103557Y-129997588D01*
X157007051Y-129808184D01*
X157007049Y-129808181D01*
X157007048Y-129808179D01*
X156882109Y-129636213D01*
X156743294Y-129497398D01*
X156709809Y-129436075D01*
X156714793Y-129366383D01*
X156756665Y-129310450D01*
X156765879Y-129304178D01*
X156771331Y-129300814D01*
X156771334Y-129300814D01*
X156920656Y-129208712D01*
X157044712Y-129084656D01*
X157136814Y-128935334D01*
X157191999Y-128768797D01*
X157202500Y-128666009D01*
X157202499Y-127365992D01*
X157191999Y-127263203D01*
X157136814Y-127096666D01*
X157044712Y-126947344D01*
X156920656Y-126823288D01*
X156771334Y-126731186D01*
X156604797Y-126676001D01*
X156604795Y-126676000D01*
X156502010Y-126665500D01*
X154901998Y-126665500D01*
X154901981Y-126665501D01*
X154799203Y-126676000D01*
X154799200Y-126676001D01*
X154632668Y-126731185D01*
X154632663Y-126731187D01*
X154483342Y-126823289D01*
X154359289Y-126947342D01*
X154267187Y-127096663D01*
X154267186Y-127096666D01*
X154212001Y-127263203D01*
X154212001Y-127263204D01*
X154212000Y-127263204D01*
X154201500Y-127365983D01*
X154201500Y-127365996D01*
X154201501Y-128639800D01*
X154181816Y-128706839D01*
X154129013Y-128752594D01*
X154077501Y-128763800D01*
X146958657Y-128763800D01*
X146800542Y-128763800D01*
X146647815Y-128804723D01*
X146647814Y-128804723D01*
X146647812Y-128804724D01*
X146647809Y-128804725D01*
X146597696Y-128833659D01*
X146597695Y-128833660D01*
X146554289Y-128858720D01*
X146510885Y-128883779D01*
X146510882Y-128883781D01*
X146399078Y-128995586D01*
X145916999Y-129477664D01*
X145855676Y-129511149D01*
X145785984Y-129506165D01*
X145773024Y-129500468D01*
X145592417Y-129408445D01*
X145592414Y-129408444D01*
X145592412Y-129408443D01*
X145390243Y-129342754D01*
X145390241Y-129342753D01*
X145390240Y-129342753D01*
X145228957Y-129317208D01*
X145180287Y-129309500D01*
X144967713Y-129309500D01*
X144919042Y-129317208D01*
X144757760Y-129342753D01*
X144555585Y-129408444D01*
X144366179Y-129504951D01*
X144194213Y-129629890D01*
X144043890Y-129780213D01*
X143918951Y-129952179D01*
X143822444Y-130141585D01*
X143756753Y-130343760D01*
X143723500Y-130553713D01*
X138701520Y-130553713D01*
X144205401Y-125049833D01*
X144266722Y-125016350D01*
X144312478Y-125015043D01*
X144313754Y-125015245D01*
X144313757Y-125015246D01*
X144523713Y-125048500D01*
X144523714Y-125048500D01*
X144736286Y-125048500D01*
X144736287Y-125048500D01*
X144946243Y-125015246D01*
X145148412Y-124949557D01*
X145337816Y-124853051D01*
X145509792Y-124728104D01*
X145623329Y-124614566D01*
X145684648Y-124581084D01*
X145754340Y-124586068D01*
X145810274Y-124627939D01*
X145827189Y-124658917D01*
X145876202Y-124790328D01*
X145876206Y-124790335D01*
X145962452Y-124905544D01*
X145962455Y-124905547D01*
X146077664Y-124991793D01*
X146077671Y-124991797D01*
X146212517Y-125042091D01*
X146212516Y-125042091D01*
X146219444Y-125042835D01*
X146272127Y-125048500D01*
X148067872Y-125048499D01*
X148127483Y-125042091D01*
X148262331Y-124991796D01*
X148377546Y-124905546D01*
X148463796Y-124790331D01*
X148514091Y-124655483D01*
X148520500Y-124595873D01*
X148520499Y-122800128D01*
X148514091Y-122740517D01*
X148512810Y-122737083D01*
X148463797Y-122605671D01*
X148463793Y-122605664D01*
X148377547Y-122490455D01*
X148377544Y-122490452D01*
X148262335Y-122404206D01*
X148262328Y-122404202D01*
X148127482Y-122353908D01*
X148127483Y-122353908D01*
X148067883Y-122347501D01*
X148067881Y-122347500D01*
X148067873Y-122347500D01*
X148067864Y-122347500D01*
X146272129Y-122347500D01*
X146272123Y-122347501D01*
X146212516Y-122353908D01*
X146077671Y-122404202D01*
X146077664Y-122404206D01*
X145962455Y-122490452D01*
X145962452Y-122490455D01*
X145876206Y-122605664D01*
X145876203Y-122605669D01*
X145827189Y-122737083D01*
X145785317Y-122793016D01*
X145719853Y-122817433D01*
X145651580Y-122802581D01*
X145623326Y-122781430D01*
X145509786Y-122667890D01*
X145337820Y-122542951D01*
X145148414Y-122446444D01*
X145148413Y-122446443D01*
X145148412Y-122446443D01*
X144946243Y-122380754D01*
X144946241Y-122380753D01*
X144946240Y-122380753D01*
X144784957Y-122355208D01*
X144736287Y-122347500D01*
X144523713Y-122347500D01*
X144475042Y-122355208D01*
X144313760Y-122380753D01*
X144111585Y-122446444D01*
X143922179Y-122542951D01*
X143750213Y-122667890D01*
X143599890Y-122818213D01*
X143474951Y-122990179D01*
X143378444Y-123179585D01*
X143312753Y-123381760D01*
X143279500Y-123591713D01*
X143279500Y-123804286D01*
X143312754Y-124014244D01*
X143312754Y-124014247D01*
X143345619Y-124115394D01*
X143347614Y-124185235D01*
X143315369Y-124241393D01*
X140612181Y-126944582D01*
X140550858Y-126978067D01*
X140481166Y-126973083D01*
X140425233Y-126931211D01*
X140400816Y-126865747D01*
X140400500Y-126856901D01*
X140400500Y-121931493D01*
X140400499Y-121931491D01*
X140378054Y-121732287D01*
X140362767Y-121596606D01*
X140287776Y-121268046D01*
X140282960Y-121254284D01*
X140190208Y-120989213D01*
X140176469Y-120949949D01*
X140030246Y-120646314D01*
X139850946Y-120360961D01*
X139640825Y-120097477D01*
X139402523Y-119859175D01*
X139375299Y-119837465D01*
X139298226Y-119776001D01*
X139139039Y-119649054D01*
X138853686Y-119469754D01*
X138853683Y-119469752D01*
X138550054Y-119323532D01*
X138231965Y-119212227D01*
X138231953Y-119212223D01*
X137903397Y-119137233D01*
X137903381Y-119137231D01*
X137568508Y-119099500D01*
X137565033Y-119099305D01*
X137565114Y-119097849D01*
X137503697Y-119079815D01*
X137457942Y-119027011D01*
X137447998Y-118957853D01*
X137477023Y-118894297D01*
X137529781Y-118858459D01*
X137578246Y-118841500D01*
X137676079Y-118807267D01*
X137918997Y-118690284D01*
X138147289Y-118546838D01*
X138358085Y-118378734D01*
X138548734Y-118188085D01*
X138716838Y-117977289D01*
X138860284Y-117748997D01*
X138977267Y-117506079D01*
X139066316Y-117251591D01*
X139126312Y-116988732D01*
X139156500Y-116720809D01*
X139156500Y-116451191D01*
X139126312Y-116183268D01*
X139066316Y-115920409D01*
X138977267Y-115665921D01*
X138860284Y-115423003D01*
X138716838Y-115194711D01*
X138548734Y-114983915D01*
X138358085Y-114793266D01*
X138252603Y-114709147D01*
X138212463Y-114651959D01*
X138209613Y-114582147D01*
X138244958Y-114521877D01*
X138307277Y-114490284D01*
X138329916Y-114488200D01*
X154643903Y-114488200D01*
X154710942Y-114507885D01*
X154756697Y-114560689D01*
X154766641Y-114629847D01*
X154737616Y-114693403D01*
X154731584Y-114699881D01*
X154313584Y-115117881D01*
X154252261Y-115151366D01*
X154225903Y-115154200D01*
X148588357Y-115154200D01*
X148430243Y-115154200D01*
X148277515Y-115195123D01*
X148277514Y-115195123D01*
X148277512Y-115195124D01*
X148277509Y-115195125D01*
X148227396Y-115224059D01*
X148227395Y-115224060D01*
X148185779Y-115248087D01*
X148140585Y-115274179D01*
X148140582Y-115274181D01*
X148028778Y-115385986D01*
X144566842Y-118847921D01*
X144505519Y-118881406D01*
X144440848Y-118878173D01*
X144426534Y-118873522D01*
X144251995Y-118845878D01*
X144224352Y-118841500D01*
X144019648Y-118841500D01*
X143995329Y-118845351D01*
X143817465Y-118873522D01*
X143622776Y-118936781D01*
X143440386Y-119029715D01*
X143274786Y-119150028D01*
X143130028Y-119294786D01*
X143009715Y-119460386D01*
X142962485Y-119553080D01*
X142914510Y-119603876D01*
X142846689Y-119620671D01*
X142780554Y-119598134D01*
X142741515Y-119553080D01*
X142740883Y-119551840D01*
X142694287Y-119460390D01*
X142662092Y-119416077D01*
X142573971Y-119294786D01*
X142429213Y-119150028D01*
X142263613Y-119029715D01*
X142263612Y-119029714D01*
X142263610Y-119029713D01*
X142178800Y-118986500D01*
X142081223Y-118936781D01*
X141886534Y-118873522D01*
X141711995Y-118845878D01*
X141684352Y-118841500D01*
X141479648Y-118841500D01*
X141455329Y-118845351D01*
X141277465Y-118873522D01*
X141082776Y-118936781D01*
X140900386Y-119029715D01*
X140734786Y-119150028D01*
X140590028Y-119294786D01*
X140469715Y-119460386D01*
X140376781Y-119642776D01*
X140313522Y-119837465D01*
X140281500Y-120039648D01*
X140281500Y-120244351D01*
X140313522Y-120446534D01*
X140376781Y-120641223D01*
X140430277Y-120746213D01*
X140469585Y-120823359D01*
X140469715Y-120823613D01*
X140590028Y-120989213D01*
X140734786Y-121133971D01*
X140855226Y-121221474D01*
X140900390Y-121254287D01*
X141009256Y-121309757D01*
X141082776Y-121347218D01*
X141082778Y-121347218D01*
X141082781Y-121347220D01*
X141187137Y-121381127D01*
X141277465Y-121410477D01*
X141378557Y-121426488D01*
X141479648Y-121442500D01*
X141479649Y-121442500D01*
X141684351Y-121442500D01*
X141684352Y-121442500D01*
X141886534Y-121410477D01*
X142081219Y-121347220D01*
X142263610Y-121254287D01*
X142356590Y-121186732D01*
X142429213Y-121133971D01*
X142429215Y-121133968D01*
X142429219Y-121133966D01*
X142573966Y-120989219D01*
X142573968Y-120989215D01*
X142573971Y-120989213D01*
X142694284Y-120823614D01*
X142694286Y-120823611D01*
X142694287Y-120823610D01*
X142741516Y-120730917D01*
X142789489Y-120680123D01*
X142857310Y-120663328D01*
X142923445Y-120685865D01*
X142962483Y-120730917D01*
X143006348Y-120817006D01*
X143009715Y-120823614D01*
X143130028Y-120989213D01*
X143274786Y-121133971D01*
X143395226Y-121221474D01*
X143440390Y-121254287D01*
X143549256Y-121309757D01*
X143622776Y-121347218D01*
X143622778Y-121347218D01*
X143622781Y-121347220D01*
X143727137Y-121381127D01*
X143817465Y-121410477D01*
X143918557Y-121426488D01*
X144019648Y-121442500D01*
X144019649Y-121442500D01*
X144224351Y-121442500D01*
X144224352Y-121442500D01*
X144426534Y-121410477D01*
X144621219Y-121347220D01*
X144803610Y-121254287D01*
X144896590Y-121186732D01*
X144969213Y-121133971D01*
X144969215Y-121133968D01*
X144969219Y-121133966D01*
X145113966Y-120989219D01*
X145113968Y-120989215D01*
X145113971Y-120989213D01*
X145234284Y-120823614D01*
X145234286Y-120823611D01*
X145234287Y-120823610D01*
X145281516Y-120730917D01*
X145329489Y-120680123D01*
X145397310Y-120663328D01*
X145463445Y-120685865D01*
X145502483Y-120730917D01*
X145546348Y-120817006D01*
X145549715Y-120823614D01*
X145670028Y-120989213D01*
X145814786Y-121133971D01*
X145935226Y-121221474D01*
X145980390Y-121254287D01*
X146089256Y-121309757D01*
X146162776Y-121347218D01*
X146162778Y-121347218D01*
X146162781Y-121347220D01*
X146267137Y-121381127D01*
X146357465Y-121410477D01*
X146458557Y-121426488D01*
X146559648Y-121442500D01*
X146559649Y-121442500D01*
X146764351Y-121442500D01*
X146764352Y-121442500D01*
X146966534Y-121410477D01*
X147161219Y-121347220D01*
X147343610Y-121254287D01*
X147436590Y-121186732D01*
X147509213Y-121133971D01*
X147509215Y-121133968D01*
X147509219Y-121133966D01*
X147653966Y-120989219D01*
X147653968Y-120989215D01*
X147653971Y-120989213D01*
X147774286Y-120823611D01*
X147774415Y-120823359D01*
X147821795Y-120730369D01*
X147869769Y-120679573D01*
X147937590Y-120662778D01*
X148003725Y-120685315D01*
X148042765Y-120730369D01*
X148090141Y-120823350D01*
X148090147Y-120823359D01*
X148122523Y-120867921D01*
X148122524Y-120867922D01*
X148802000Y-120188446D01*
X148802000Y-120194661D01*
X148829259Y-120296394D01*
X148881920Y-120387606D01*
X148956394Y-120462080D01*
X149047606Y-120514741D01*
X149149339Y-120542000D01*
X149155553Y-120542000D01*
X148476076Y-121221474D01*
X148520650Y-121253859D01*
X148702968Y-121346755D01*
X148897582Y-121409990D01*
X149099683Y-121442000D01*
X149304317Y-121442000D01*
X149506417Y-121409990D01*
X149701031Y-121346755D01*
X149883349Y-121253859D01*
X149927921Y-121221474D01*
X149248447Y-120542000D01*
X149254661Y-120542000D01*
X149356394Y-120514741D01*
X149447606Y-120462080D01*
X149522080Y-120387606D01*
X149574741Y-120296394D01*
X149602000Y-120194661D01*
X149602000Y-120188447D01*
X150281474Y-120867921D01*
X150313859Y-120823349D01*
X150406755Y-120641031D01*
X150469990Y-120446417D01*
X150502000Y-120244317D01*
X150502000Y-120039682D01*
X150469990Y-119837582D01*
X150406755Y-119642968D01*
X150313859Y-119460650D01*
X150281474Y-119416077D01*
X150281474Y-119416076D01*
X149602000Y-120095551D01*
X149602000Y-120089339D01*
X149574741Y-119987606D01*
X149522080Y-119896394D01*
X149447606Y-119821920D01*
X149356394Y-119769259D01*
X149254661Y-119742000D01*
X149248446Y-119742000D01*
X149927922Y-119062524D01*
X149927921Y-119062523D01*
X149883359Y-119030147D01*
X149883350Y-119030141D01*
X149701031Y-118937244D01*
X149506417Y-118874009D01*
X149379911Y-118853973D01*
X149316776Y-118824044D01*
X149279845Y-118764732D01*
X149280843Y-118694870D01*
X149319453Y-118636637D01*
X149383417Y-118608523D01*
X149399309Y-118607500D01*
X152787231Y-118607500D01*
X152787247Y-118607501D01*
X152794843Y-118607501D01*
X152952954Y-118607501D01*
X152952957Y-118607501D01*
X153105685Y-118566577D01*
X153155804Y-118537639D01*
X153242616Y-118487520D01*
X153254153Y-118475983D01*
X154201500Y-118475983D01*
X154201500Y-119776001D01*
X154201501Y-119776018D01*
X154212000Y-119878796D01*
X154212001Y-119878799D01*
X154267185Y-120045331D01*
X154267187Y-120045336D01*
X154359289Y-120194657D01*
X154483344Y-120318712D01*
X154638120Y-120414178D01*
X154684845Y-120466126D01*
X154696068Y-120535088D01*
X154668224Y-120599171D01*
X154660706Y-120607398D01*
X154521889Y-120746215D01*
X154396951Y-120918179D01*
X154300444Y-121107585D01*
X154234753Y-121309760D01*
X154201500Y-121519713D01*
X154201500Y-121732286D01*
X154234753Y-121942239D01*
X154300444Y-122144414D01*
X154396951Y-122333820D01*
X154521890Y-122505786D01*
X154672213Y-122656109D01*
X154844179Y-122781048D01*
X154844181Y-122781049D01*
X154844184Y-122781051D01*
X155033588Y-122877557D01*
X155235757Y-122943246D01*
X155445713Y-122976500D01*
X155445714Y-122976500D01*
X155958286Y-122976500D01*
X155958287Y-122976500D01*
X156168243Y-122943246D01*
X156370412Y-122877557D01*
X156559816Y-122781051D01*
X156715562Y-122667896D01*
X156731786Y-122656109D01*
X156731788Y-122656106D01*
X156731792Y-122656104D01*
X156882104Y-122505792D01*
X156882106Y-122505788D01*
X156882109Y-122505786D01*
X157007048Y-122333820D01*
X157007047Y-122333820D01*
X157007051Y-122333816D01*
X157103557Y-122144412D01*
X157169246Y-121942243D01*
X157202500Y-121732287D01*
X157202500Y-121519713D01*
X157169246Y-121309757D01*
X157103557Y-121107588D01*
X157007051Y-120918184D01*
X157007049Y-120918181D01*
X157007048Y-120918179D01*
X156882109Y-120746213D01*
X156743294Y-120607398D01*
X156709809Y-120546075D01*
X156714793Y-120476383D01*
X156756665Y-120420450D01*
X156765879Y-120414178D01*
X156771331Y-120410814D01*
X156771334Y-120410814D01*
X156920656Y-120318712D01*
X157044712Y-120194656D01*
X157136814Y-120045334D01*
X157191999Y-119878797D01*
X157202500Y-119776009D01*
X157202499Y-118475992D01*
X157191999Y-118373203D01*
X157136814Y-118206666D01*
X157044712Y-118057344D01*
X156920656Y-117933288D01*
X156771334Y-117841186D01*
X156604797Y-117786001D01*
X156604795Y-117786000D01*
X156502010Y-117775500D01*
X154901998Y-117775500D01*
X154901981Y-117775501D01*
X154799203Y-117786000D01*
X154799200Y-117786001D01*
X154632668Y-117841185D01*
X154632663Y-117841187D01*
X154483342Y-117933289D01*
X154359289Y-118057342D01*
X154267187Y-118206663D01*
X154267185Y-118206668D01*
X154255019Y-118243384D01*
X154212001Y-118373203D01*
X154212001Y-118373204D01*
X154212000Y-118373204D01*
X154201500Y-118475983D01*
X153254153Y-118475983D01*
X153354420Y-118375716D01*
X153354420Y-118375714D01*
X153364624Y-118365511D01*
X153364628Y-118365506D01*
X157803606Y-113926528D01*
X157803611Y-113926524D01*
X157813814Y-113916320D01*
X157813816Y-113916320D01*
X157925620Y-113804516D01*
X157987087Y-113698051D01*
X158004677Y-113667585D01*
X158045601Y-113514857D01*
X158045601Y-113356743D01*
X158045601Y-113349148D01*
X158045600Y-113349130D01*
X158045600Y-102977360D01*
X158045601Y-102977347D01*
X158045601Y-102809244D01*
X158044130Y-102803755D01*
X158004677Y-102656516D01*
X157960456Y-102579922D01*
X157925624Y-102519590D01*
X157925618Y-102519582D01*
X157505642Y-102099606D01*
X156974604Y-101568569D01*
X156941120Y-101507247D01*
X156946104Y-101437556D01*
X156961968Y-101408004D01*
X157065407Y-101265630D01*
X157086051Y-101237216D01*
X157182557Y-101047812D01*
X157248246Y-100845643D01*
X157281500Y-100635687D01*
X157281500Y-100423113D01*
X157248246Y-100213157D01*
X157182557Y-100010988D01*
X157086051Y-99821584D01*
X157009854Y-99716707D01*
X156970299Y-99662263D01*
X156946819Y-99596457D01*
X156962645Y-99528403D01*
X156982932Y-99501701D01*
X157456906Y-99027728D01*
X157456911Y-99027724D01*
X157467114Y-99017520D01*
X157467116Y-99017520D01*
X157578920Y-98905716D01*
X157657977Y-98768784D01*
X157687934Y-98656981D01*
X157698900Y-98616058D01*
X157698900Y-98457943D01*
X157698900Y-89223260D01*
X157698901Y-89223247D01*
X157698901Y-89055144D01*
X157657976Y-88902414D01*
X157657973Y-88902409D01*
X157578924Y-88765490D01*
X157578918Y-88765482D01*
X157280157Y-88466721D01*
X156974604Y-88161169D01*
X156941120Y-88099847D01*
X156946104Y-88030156D01*
X156961968Y-88000604D01*
X157025954Y-87912532D01*
X157086051Y-87829816D01*
X157182557Y-87640412D01*
X157248246Y-87438243D01*
X157281500Y-87228287D01*
X157281500Y-87015713D01*
X157248246Y-86805757D01*
X157182557Y-86603588D01*
X157086051Y-86414184D01*
X157086049Y-86414181D01*
X157086048Y-86414179D01*
X156961109Y-86242213D01*
X156810790Y-86091894D01*
X156810785Y-86091890D01*
X156645781Y-85972008D01*
X156603115Y-85916678D01*
X156597136Y-85847065D01*
X156629741Y-85785270D01*
X156645781Y-85771371D01*
X156810466Y-85651721D01*
X156960723Y-85501464D01*
X156960727Y-85501459D01*
X157085620Y-85329557D01*
X157182095Y-85140217D01*
X157247757Y-84938129D01*
X157247757Y-84938126D01*
X157258231Y-84872000D01*
X156210146Y-84872000D01*
X156248630Y-84805343D01*
X156281000Y-84684535D01*
X156281000Y-84559465D01*
X156248630Y-84438657D01*
X156210146Y-84372000D01*
X157258231Y-84372000D01*
X157247757Y-84305873D01*
X157247757Y-84305870D01*
X157182095Y-84103782D01*
X157085620Y-83914442D01*
X156960727Y-83742540D01*
X156960723Y-83742535D01*
X156821856Y-83603668D01*
X156788371Y-83542345D01*
X156793355Y-83472653D01*
X156835227Y-83416720D01*
X156844441Y-83410448D01*
X156850331Y-83406814D01*
X156850334Y-83406814D01*
X156999656Y-83314712D01*
X157123712Y-83190656D01*
X157215814Y-83041334D01*
X157270999Y-82874797D01*
X157281500Y-82772009D01*
X157281499Y-81471992D01*
X157270999Y-81369203D01*
X157215814Y-81202666D01*
X157123712Y-81053344D01*
X156999656Y-80929288D01*
X156850334Y-80837186D01*
X156683797Y-80782001D01*
X156683795Y-80782000D01*
X156581010Y-80771500D01*
X155030998Y-80771500D01*
X155030981Y-80771501D01*
X154928203Y-80782000D01*
X154928200Y-80782001D01*
X154761668Y-80837185D01*
X154761663Y-80837187D01*
X154612342Y-80929289D01*
X154488289Y-81053342D01*
X154396187Y-81202663D01*
X154396186Y-81202666D01*
X154341001Y-81369203D01*
X154341001Y-81369204D01*
X154341000Y-81369204D01*
X154330500Y-81471983D01*
X154330500Y-82772001D01*
X154330501Y-82772018D01*
X154341000Y-82874796D01*
X154341001Y-82874799D01*
X154396185Y-83041331D01*
X154396187Y-83041336D01*
X154488289Y-83190657D01*
X154612344Y-83314712D01*
X154767558Y-83410448D01*
X154814283Y-83462396D01*
X154825506Y-83531358D01*
X154797663Y-83595441D01*
X154790144Y-83603668D01*
X154651271Y-83742541D01*
X154526379Y-83914442D01*
X154429904Y-84103782D01*
X154364242Y-84305870D01*
X154364242Y-84305873D01*
X154353769Y-84372000D01*
X155401854Y-84372000D01*
X155363370Y-84438657D01*
X155331000Y-84559465D01*
X155331000Y-84684535D01*
X155363370Y-84805343D01*
X155401854Y-84872000D01*
X154353769Y-84872000D01*
X154364242Y-84938126D01*
X154364242Y-84938129D01*
X154429904Y-85140217D01*
X154526379Y-85329557D01*
X154651272Y-85501459D01*
X154651276Y-85501464D01*
X154801535Y-85651723D01*
X154801540Y-85651727D01*
X154966218Y-85771372D01*
X155008884Y-85826701D01*
X155014863Y-85896315D01*
X154982258Y-85958110D01*
X154966218Y-85972008D01*
X154801214Y-86091890D01*
X154801209Y-86091894D01*
X154650890Y-86242213D01*
X154525951Y-86414179D01*
X154429444Y-86603585D01*
X154363753Y-86805760D01*
X154330500Y-87015713D01*
X154330500Y-87228286D01*
X154363753Y-87438239D01*
X154429444Y-87640414D01*
X154525951Y-87829820D01*
X154650890Y-88001786D01*
X154801209Y-88152105D01*
X154801214Y-88152109D01*
X154965793Y-88271682D01*
X155008459Y-88327011D01*
X155014438Y-88396625D01*
X154981833Y-88458420D01*
X154965793Y-88472318D01*
X154801214Y-88591890D01*
X154801209Y-88591894D01*
X154650890Y-88742213D01*
X154525951Y-88914179D01*
X154429444Y-89103585D01*
X154363753Y-89305760D01*
X154330500Y-89515713D01*
X154330500Y-89728286D01*
X154363753Y-89938239D01*
X154429444Y-90140414D01*
X154525951Y-90329820D01*
X154650890Y-90501786D01*
X154801213Y-90652109D01*
X154973179Y-90777048D01*
X154973181Y-90777049D01*
X154973184Y-90777051D01*
X155162588Y-90873557D01*
X155364757Y-90939246D01*
X155574713Y-90972500D01*
X155574714Y-90972500D01*
X156037286Y-90972500D01*
X156037287Y-90972500D01*
X156247243Y-90939246D01*
X156335584Y-90910541D01*
X156405422Y-90908547D01*
X156465255Y-90944627D01*
X156496084Y-91007328D01*
X156497900Y-91028473D01*
X156497900Y-94054900D01*
X156478215Y-94121939D01*
X156425411Y-94167694D01*
X156373900Y-94178900D01*
X155030998Y-94178900D01*
X155030981Y-94178901D01*
X154928203Y-94189400D01*
X154928200Y-94189401D01*
X154761668Y-94244585D01*
X154761663Y-94244587D01*
X154612342Y-94336689D01*
X154488289Y-94460742D01*
X154396187Y-94610063D01*
X154396186Y-94610066D01*
X154341001Y-94776603D01*
X154341001Y-94776604D01*
X154341000Y-94776604D01*
X154330500Y-94879383D01*
X154330500Y-96179401D01*
X154330501Y-96179418D01*
X154341000Y-96282196D01*
X154341001Y-96282199D01*
X154396185Y-96448731D01*
X154396187Y-96448736D01*
X154488289Y-96598057D01*
X154612344Y-96722112D01*
X154767558Y-96817848D01*
X154814283Y-96869796D01*
X154825506Y-96938758D01*
X154797663Y-97002841D01*
X154790144Y-97011068D01*
X154651271Y-97149941D01*
X154526379Y-97321842D01*
X154429904Y-97511182D01*
X154364242Y-97713270D01*
X154364242Y-97713273D01*
X154353769Y-97779400D01*
X155401854Y-97779400D01*
X155363370Y-97846057D01*
X155331000Y-97966865D01*
X155331000Y-98091935D01*
X155363370Y-98212743D01*
X155401854Y-98279400D01*
X154353769Y-98279400D01*
X154364242Y-98345526D01*
X154364242Y-98345529D01*
X154429904Y-98547617D01*
X154526379Y-98736957D01*
X154651272Y-98908859D01*
X154651276Y-98908864D01*
X154801535Y-99059123D01*
X154801540Y-99059127D01*
X154966218Y-99178772D01*
X155008884Y-99234101D01*
X155014863Y-99303715D01*
X154982258Y-99365510D01*
X154966218Y-99379408D01*
X154801214Y-99499290D01*
X154801209Y-99499294D01*
X154650890Y-99649613D01*
X154525951Y-99821579D01*
X154429444Y-100010985D01*
X154363753Y-100213160D01*
X154349073Y-100305846D01*
X154330500Y-100423113D01*
X154330500Y-100635687D01*
X154334741Y-100662465D01*
X154362122Y-100835344D01*
X154363754Y-100845643D01*
X154408926Y-100984668D01*
X154429444Y-101047814D01*
X154525951Y-101237220D01*
X154650890Y-101409186D01*
X154801209Y-101559505D01*
X154801214Y-101559509D01*
X154965793Y-101679082D01*
X155008459Y-101734411D01*
X155014438Y-101804025D01*
X154981833Y-101865820D01*
X154965793Y-101879718D01*
X154801214Y-101999290D01*
X154801209Y-101999294D01*
X154650890Y-102149613D01*
X154525951Y-102321579D01*
X154429444Y-102510985D01*
X154429443Y-102510987D01*
X154429443Y-102510988D01*
X154420836Y-102537477D01*
X154363753Y-102713160D01*
X154333309Y-102905379D01*
X154330500Y-102923113D01*
X154330500Y-103135687D01*
X154336604Y-103174224D01*
X154361658Y-103332413D01*
X154363754Y-103345643D01*
X154425927Y-103536992D01*
X154429444Y-103547814D01*
X154525951Y-103737220D01*
X154650890Y-103909186D01*
X154801213Y-104059509D01*
X154973179Y-104184448D01*
X154973181Y-104184449D01*
X154973184Y-104184451D01*
X155162588Y-104280957D01*
X155162589Y-104280957D01*
X155166930Y-104283169D01*
X155166188Y-104284624D01*
X155215035Y-104323989D01*
X155232951Y-104362611D01*
X155246422Y-104412882D01*
X155246424Y-104412887D01*
X155259351Y-104435277D01*
X155325481Y-104549817D01*
X155444349Y-104668685D01*
X155444355Y-104668690D01*
X156375781Y-105600116D01*
X156409266Y-105661439D01*
X156412100Y-105687797D01*
X156412100Y-108761500D01*
X156392415Y-108828539D01*
X156339611Y-108874294D01*
X156288100Y-108885500D01*
X155252098Y-108885500D01*
X155185059Y-108865815D01*
X155164417Y-108849181D01*
X154295090Y-107979855D01*
X154295088Y-107979852D01*
X154176217Y-107860981D01*
X154176216Y-107860980D01*
X154089404Y-107810860D01*
X154089404Y-107810859D01*
X154089400Y-107810858D01*
X154039285Y-107781923D01*
X153886557Y-107740999D01*
X153728443Y-107740999D01*
X153720847Y-107740999D01*
X153720831Y-107741000D01*
X142799169Y-107741000D01*
X142799153Y-107740999D01*
X142791557Y-107740999D01*
X142633443Y-107740999D01*
X142526087Y-107769765D01*
X142480710Y-107781924D01*
X142480709Y-107781925D01*
X142430596Y-107810859D01*
X142430595Y-107810860D01*
X142387189Y-107835920D01*
X142343785Y-107860979D01*
X142343782Y-107860981D01*
X142231978Y-107972786D01*
X142024842Y-108179921D01*
X141963519Y-108213406D01*
X141898848Y-108210173D01*
X141884534Y-108205522D01*
X141709995Y-108177878D01*
X141682352Y-108173500D01*
X141477648Y-108173500D01*
X141453329Y-108177351D01*
X141275465Y-108205522D01*
X141080776Y-108268781D01*
X140898390Y-108361712D01*
X140791173Y-108439610D01*
X140725366Y-108463089D01*
X140657312Y-108447263D01*
X140630607Y-108426972D01*
X135866919Y-103663284D01*
X135833434Y-103601961D01*
X135830600Y-103575603D01*
X135830600Y-103174307D01*
X135850285Y-103107268D01*
X135903089Y-103061513D01*
X135972247Y-103051569D01*
X135996024Y-103058093D01*
X135996148Y-103057714D01*
X136000777Y-103059218D01*
X136000781Y-103059220D01*
X136128820Y-103100822D01*
X136195465Y-103122477D01*
X136278863Y-103135686D01*
X136397648Y-103154500D01*
X136397649Y-103154500D01*
X136602351Y-103154500D01*
X136602352Y-103154500D01*
X136804534Y-103122477D01*
X136999219Y-103059220D01*
X137181610Y-102966287D01*
X137310482Y-102872657D01*
X137347213Y-102845971D01*
X137347215Y-102845968D01*
X137347219Y-102845966D01*
X137491966Y-102701219D01*
X137491968Y-102701215D01*
X137491971Y-102701213D01*
X137596913Y-102556770D01*
X137612287Y-102535610D01*
X137659516Y-102442917D01*
X137707489Y-102392123D01*
X137775310Y-102375328D01*
X137841445Y-102397865D01*
X137880483Y-102442917D01*
X137918942Y-102518396D01*
X137927715Y-102535614D01*
X138048028Y-102701213D01*
X138192786Y-102845971D01*
X138313226Y-102933474D01*
X138358390Y-102966287D01*
X138474607Y-103025503D01*
X138540776Y-103059218D01*
X138540778Y-103059218D01*
X138540781Y-103059220D01*
X138615369Y-103083455D01*
X138735465Y-103122477D01*
X138818863Y-103135686D01*
X138937648Y-103154500D01*
X138937649Y-103154500D01*
X139142351Y-103154500D01*
X139142352Y-103154500D01*
X139344534Y-103122477D01*
X139539219Y-103059220D01*
X139721610Y-102966287D01*
X139850482Y-102872657D01*
X139887213Y-102845971D01*
X139887215Y-102845968D01*
X139887219Y-102845966D01*
X140031966Y-102701219D01*
X140031968Y-102701215D01*
X140031971Y-102701213D01*
X140136913Y-102556770D01*
X140152287Y-102535610D01*
X140199516Y-102442917D01*
X140247489Y-102392123D01*
X140315310Y-102375328D01*
X140381445Y-102397865D01*
X140420483Y-102442917D01*
X140458942Y-102518396D01*
X140467715Y-102535614D01*
X140588028Y-102701213D01*
X140732786Y-102845971D01*
X140853226Y-102933474D01*
X140898390Y-102966287D01*
X141014607Y-103025503D01*
X141080776Y-103059218D01*
X141080778Y-103059218D01*
X141080781Y-103059220D01*
X141155369Y-103083455D01*
X141275465Y-103122477D01*
X141358863Y-103135686D01*
X141477648Y-103154500D01*
X141477649Y-103154500D01*
X141682351Y-103154500D01*
X141682352Y-103154500D01*
X141884534Y-103122477D01*
X142079219Y-103059220D01*
X142261610Y-102966287D01*
X142390482Y-102872657D01*
X142427213Y-102845971D01*
X142427215Y-102845968D01*
X142427219Y-102845966D01*
X142571966Y-102701219D01*
X142571968Y-102701215D01*
X142571971Y-102701213D01*
X142676913Y-102556770D01*
X142692287Y-102535610D01*
X142739516Y-102442917D01*
X142787489Y-102392123D01*
X142855310Y-102375328D01*
X142921445Y-102397865D01*
X142960483Y-102442917D01*
X142998942Y-102518396D01*
X143007715Y-102535614D01*
X143128028Y-102701213D01*
X143272786Y-102845971D01*
X143393226Y-102933474D01*
X143438390Y-102966287D01*
X143554607Y-103025503D01*
X143620776Y-103059218D01*
X143620778Y-103059218D01*
X143620781Y-103059220D01*
X143695369Y-103083455D01*
X143815465Y-103122477D01*
X143898863Y-103135686D01*
X144017648Y-103154500D01*
X144017649Y-103154500D01*
X144222351Y-103154500D01*
X144222352Y-103154500D01*
X144424534Y-103122477D01*
X144619219Y-103059220D01*
X144801610Y-102966287D01*
X144930482Y-102872657D01*
X144967213Y-102845971D01*
X144967215Y-102845968D01*
X144967219Y-102845966D01*
X145004694Y-102808491D01*
X145066017Y-102775006D01*
X145135709Y-102779990D01*
X145180056Y-102808491D01*
X145699639Y-103328074D01*
X145699649Y-103328085D01*
X145703979Y-103332415D01*
X145703980Y-103332416D01*
X145815784Y-103444220D01*
X145893001Y-103488801D01*
X145952715Y-103523277D01*
X146105443Y-103564200D01*
X148003631Y-103564200D01*
X148003647Y-103564201D01*
X148011243Y-103564201D01*
X148169354Y-103564201D01*
X148169357Y-103564201D01*
X148322085Y-103523277D01*
X148381799Y-103488801D01*
X148459016Y-103444220D01*
X148570820Y-103332416D01*
X148570820Y-103332414D01*
X148581021Y-103322214D01*
X148581024Y-103322209D01*
X148712418Y-103190815D01*
X148773739Y-103157333D01*
X148800097Y-103154499D01*
X149800002Y-103154499D01*
X149800008Y-103154499D01*
X149902797Y-103143999D01*
X150069334Y-103088814D01*
X150218656Y-102996712D01*
X150342712Y-102872656D01*
X150434814Y-102723334D01*
X150489999Y-102556797D01*
X150500500Y-102454009D01*
X150500499Y-101253992D01*
X150489999Y-101151203D01*
X150434814Y-100984666D01*
X150342712Y-100835344D01*
X150218656Y-100711288D01*
X150069334Y-100619186D01*
X149902797Y-100564001D01*
X149902795Y-100564000D01*
X149800010Y-100553500D01*
X148599998Y-100553500D01*
X148599981Y-100553501D01*
X148497203Y-100564000D01*
X148497200Y-100564001D01*
X148330668Y-100619185D01*
X148330663Y-100619187D01*
X148181342Y-100711289D01*
X148057289Y-100835342D01*
X147965187Y-100984663D01*
X147965186Y-100984666D01*
X147938045Y-101066571D01*
X147898271Y-101124016D01*
X147833755Y-101150838D01*
X147764979Y-101138522D01*
X147720021Y-101100452D01*
X147651966Y-101006781D01*
X147507219Y-100862034D01*
X147507213Y-100862028D01*
X147341613Y-100741715D01*
X147341612Y-100741714D01*
X147341610Y-100741713D01*
X147270613Y-100705538D01*
X147159223Y-100648781D01*
X146964534Y-100585522D01*
X146789995Y-100557878D01*
X146762352Y-100553500D01*
X146762351Y-100553500D01*
X146686100Y-100553500D01*
X146619061Y-100533815D01*
X146573306Y-100481011D01*
X146562100Y-100429500D01*
X146562100Y-98363465D01*
X146581785Y-98296426D01*
X146582998Y-98294574D01*
X146620140Y-98238988D01*
X146670994Y-98162879D01*
X146731337Y-98017197D01*
X146762100Y-97862542D01*
X146762100Y-97704858D01*
X146762100Y-97704855D01*
X146762099Y-97704853D01*
X146751050Y-97649305D01*
X146731337Y-97550203D01*
X146715174Y-97511182D01*
X146670997Y-97404527D01*
X146670990Y-97404514D01*
X146583389Y-97273411D01*
X146583386Y-97273407D01*
X146471892Y-97161913D01*
X146471888Y-97161910D01*
X146340785Y-97074309D01*
X146340772Y-97074302D01*
X146195101Y-97013964D01*
X146195089Y-97013961D01*
X146040445Y-96983200D01*
X146040442Y-96983200D01*
X145882758Y-96983200D01*
X145882755Y-96983200D01*
X145728110Y-97013961D01*
X145728098Y-97013964D01*
X145582427Y-97074302D01*
X145582414Y-97074309D01*
X145451311Y-97161910D01*
X145451307Y-97161913D01*
X145339813Y-97273407D01*
X145339810Y-97273411D01*
X145252209Y-97404514D01*
X145252202Y-97404527D01*
X145191864Y-97550198D01*
X145191861Y-97550210D01*
X145161100Y-97704853D01*
X145161100Y-97862546D01*
X145191861Y-98017189D01*
X145191864Y-98017201D01*
X145252202Y-98162872D01*
X145252209Y-98162885D01*
X145340202Y-98294574D01*
X145361080Y-98361251D01*
X145361100Y-98363465D01*
X145361100Y-100363103D01*
X145341415Y-100430142D01*
X145288611Y-100475897D01*
X145219453Y-100485841D01*
X145155897Y-100456816D01*
X145149419Y-100450784D01*
X142065690Y-97367055D01*
X142065688Y-97367052D01*
X141946817Y-97248181D01*
X141946816Y-97248180D01*
X141860004Y-97198060D01*
X141860004Y-97198059D01*
X141860000Y-97198058D01*
X141809885Y-97169123D01*
X141657157Y-97128199D01*
X141499043Y-97128199D01*
X141491447Y-97128199D01*
X141491431Y-97128200D01*
X135934766Y-97128200D01*
X135867727Y-97108515D01*
X135865875Y-97107302D01*
X135734185Y-97019309D01*
X135734172Y-97019302D01*
X135588501Y-96958964D01*
X135588489Y-96958961D01*
X135433845Y-96928200D01*
X135433842Y-96928200D01*
X135276158Y-96928200D01*
X135276155Y-96928200D01*
X135121510Y-96958961D01*
X135121498Y-96958964D01*
X134975827Y-97019302D01*
X134975814Y-97019309D01*
X134844711Y-97106910D01*
X134844707Y-97106913D01*
X134733213Y-97218407D01*
X134733210Y-97218411D01*
X134645609Y-97349514D01*
X134645602Y-97349527D01*
X134585264Y-97495198D01*
X134585261Y-97495210D01*
X134554500Y-97649853D01*
X134554500Y-97807546D01*
X134585261Y-97962189D01*
X134585264Y-97962201D01*
X134645602Y-98107872D01*
X134645609Y-98107885D01*
X134733210Y-98238988D01*
X134733213Y-98238992D01*
X134844707Y-98350486D01*
X134844711Y-98350489D01*
X134975814Y-98438090D01*
X134975827Y-98438097D01*
X135057750Y-98472030D01*
X135121503Y-98498437D01*
X135276153Y-98529199D01*
X135276156Y-98529200D01*
X135276158Y-98529200D01*
X135433844Y-98529200D01*
X135433845Y-98529199D01*
X135588497Y-98498437D01*
X135734179Y-98438094D01*
X135734185Y-98438090D01*
X135865875Y-98350098D01*
X135932553Y-98329220D01*
X135934766Y-98329200D01*
X141278003Y-98329200D01*
X141345042Y-98348885D01*
X141365684Y-98365519D01*
X143518755Y-100518590D01*
X143552240Y-100579913D01*
X143547256Y-100649605D01*
X143505384Y-100705538D01*
X143487371Y-100716755D01*
X143438386Y-100741714D01*
X143272786Y-100862028D01*
X143128028Y-101006786D01*
X143007715Y-101172386D01*
X142960485Y-101265080D01*
X142912510Y-101315876D01*
X142844689Y-101332671D01*
X142778554Y-101310134D01*
X142739515Y-101265080D01*
X142733860Y-101253981D01*
X142692287Y-101172390D01*
X142660092Y-101128077D01*
X142571971Y-101006786D01*
X142427213Y-100862028D01*
X142261613Y-100741715D01*
X142261612Y-100741714D01*
X142261610Y-100741713D01*
X142190613Y-100705538D01*
X142079223Y-100648781D01*
X141884534Y-100585522D01*
X141709995Y-100557878D01*
X141682352Y-100553500D01*
X141477648Y-100553500D01*
X141453329Y-100557351D01*
X141275465Y-100585522D01*
X141080776Y-100648781D01*
X140898386Y-100741715D01*
X140732786Y-100862028D01*
X140588028Y-101006786D01*
X140467715Y-101172386D01*
X140420485Y-101265080D01*
X140372510Y-101315876D01*
X140304689Y-101332671D01*
X140238554Y-101310134D01*
X140199515Y-101265080D01*
X140193860Y-101253981D01*
X140152287Y-101172390D01*
X140120092Y-101128077D01*
X140031971Y-101006786D01*
X139887213Y-100862028D01*
X139721613Y-100741715D01*
X139721612Y-100741714D01*
X139721610Y-100741713D01*
X139650613Y-100705538D01*
X139539223Y-100648781D01*
X139344534Y-100585522D01*
X139169995Y-100557878D01*
X139142352Y-100553500D01*
X138937648Y-100553500D01*
X138913329Y-100557351D01*
X138735465Y-100585522D01*
X138540776Y-100648781D01*
X138358386Y-100741715D01*
X138192786Y-100862028D01*
X138048028Y-101006786D01*
X137927715Y-101172386D01*
X137880485Y-101265080D01*
X137832510Y-101315876D01*
X137764689Y-101332671D01*
X137698554Y-101310134D01*
X137659515Y-101265080D01*
X137653860Y-101253981D01*
X137612287Y-101172390D01*
X137580092Y-101128077D01*
X137491971Y-101006786D01*
X137347213Y-100862028D01*
X137181613Y-100741715D01*
X137181612Y-100741714D01*
X137181610Y-100741713D01*
X137110613Y-100705538D01*
X136999223Y-100648781D01*
X136804534Y-100585522D01*
X136629995Y-100557878D01*
X136602352Y-100553500D01*
X136397648Y-100553500D01*
X136339853Y-100562654D01*
X136195464Y-100585523D01*
X136195461Y-100585523D01*
X136160941Y-100596740D01*
X136091099Y-100598735D01*
X136031267Y-100562654D01*
X136000439Y-100499953D01*
X136001005Y-100454620D01*
X136019210Y-100363103D01*
X136030600Y-100305844D01*
X136030600Y-100148155D01*
X136030599Y-100148153D01*
X135999838Y-99993510D01*
X135999837Y-99993503D01*
X135999835Y-99993498D01*
X135939497Y-99847827D01*
X135939490Y-99847814D01*
X135851889Y-99716711D01*
X135851886Y-99716707D01*
X135740392Y-99605213D01*
X135740388Y-99605210D01*
X135609285Y-99517609D01*
X135609272Y-99517602D01*
X135463601Y-99457264D01*
X135463589Y-99457261D01*
X135308945Y-99426500D01*
X135308942Y-99426500D01*
X135151258Y-99426500D01*
X135151255Y-99426500D01*
X134996610Y-99457261D01*
X134996598Y-99457264D01*
X134850927Y-99517602D01*
X134850914Y-99517609D01*
X134719811Y-99605210D01*
X134719807Y-99605213D01*
X134608313Y-99716707D01*
X134608310Y-99716711D01*
X134520709Y-99847814D01*
X134520702Y-99847827D01*
X134460364Y-99993498D01*
X134460361Y-99993510D01*
X134429600Y-100148153D01*
X134429600Y-100305846D01*
X134459206Y-100454687D01*
X134452979Y-100524279D01*
X134410116Y-100579456D01*
X134344226Y-100602700D01*
X134299271Y-100596809D01*
X134264537Y-100585523D01*
X134112897Y-100561505D01*
X134062352Y-100553500D01*
X133857648Y-100553500D01*
X133833329Y-100557351D01*
X133655465Y-100585522D01*
X133460776Y-100648781D01*
X133278386Y-100741715D01*
X133112786Y-100862028D01*
X132968028Y-101006786D01*
X132847713Y-101172388D01*
X132800203Y-101265630D01*
X132752228Y-101316426D01*
X132684407Y-101333220D01*
X132618272Y-101310682D01*
X132579234Y-101265628D01*
X132531861Y-101172652D01*
X132499474Y-101128077D01*
X132499474Y-101128076D01*
X131820000Y-101807551D01*
X131820000Y-101801339D01*
X131792741Y-101699606D01*
X131740080Y-101608394D01*
X131665606Y-101533920D01*
X131574394Y-101481259D01*
X131472661Y-101454000D01*
X131466446Y-101454000D01*
X132145922Y-100774524D01*
X132145921Y-100774523D01*
X132101359Y-100742147D01*
X132101350Y-100742141D01*
X131919031Y-100649244D01*
X131724417Y-100586009D01*
X131522317Y-100554000D01*
X131317683Y-100554000D01*
X131115582Y-100586009D01*
X130920968Y-100649244D01*
X130738644Y-100742143D01*
X130694077Y-100774523D01*
X130694077Y-100774524D01*
X131373554Y-101454000D01*
X131367339Y-101454000D01*
X131265606Y-101481259D01*
X131174394Y-101533920D01*
X131099920Y-101608394D01*
X131047259Y-101699606D01*
X131020000Y-101801339D01*
X131020000Y-101807553D01*
X130340524Y-101128077D01*
X130340522Y-101128077D01*
X130324818Y-101149693D01*
X130269489Y-101192359D01*
X130199875Y-101198338D01*
X130138080Y-101165733D01*
X130103723Y-101104894D01*
X130100500Y-101076808D01*
X130100500Y-93630500D01*
X130120185Y-93563461D01*
X130172989Y-93517706D01*
X130224500Y-93506500D01*
X130307944Y-93506500D01*
X130307945Y-93506499D01*
X130462597Y-93475737D01*
X130608279Y-93415394D01*
X130739389Y-93327789D01*
X130850889Y-93216289D01*
X130938494Y-93085179D01*
X130998837Y-92939497D01*
X131029600Y-92784842D01*
X131029738Y-92784150D01*
X131062123Y-92722239D01*
X131063621Y-92720713D01*
X131701613Y-92082721D01*
X131701616Y-92082720D01*
X131813420Y-91970916D01*
X131863539Y-91884104D01*
X131892477Y-91833985D01*
X131933401Y-91681257D01*
X131933401Y-91523143D01*
X131933401Y-91515548D01*
X131933400Y-91515530D01*
X131933400Y-84967611D01*
X131953085Y-84900572D01*
X132005889Y-84854817D01*
X132075047Y-84844873D01*
X132138603Y-84873898D01*
X132145081Y-84879930D01*
X133221181Y-85956030D01*
X133254666Y-86017353D01*
X133257500Y-86043711D01*
X133257500Y-89082234D01*
X133237815Y-89149273D01*
X133236602Y-89151125D01*
X133148609Y-89282814D01*
X133148602Y-89282827D01*
X133088264Y-89428498D01*
X133088261Y-89428510D01*
X133057500Y-89583153D01*
X133057500Y-89740846D01*
X133088261Y-89895489D01*
X133088264Y-89895501D01*
X133148602Y-90041172D01*
X133148609Y-90041185D01*
X133236210Y-90172288D01*
X133236213Y-90172292D01*
X133347707Y-90283786D01*
X133347711Y-90283789D01*
X133478814Y-90371390D01*
X133478827Y-90371397D01*
X133624498Y-90431735D01*
X133624503Y-90431737D01*
X133779153Y-90462499D01*
X133779156Y-90462500D01*
X133779158Y-90462500D01*
X133936844Y-90462500D01*
X133936845Y-90462499D01*
X134091497Y-90431737D01*
X134237179Y-90371394D01*
X134368289Y-90283789D01*
X134479789Y-90172289D01*
X134567394Y-90041179D01*
X134627737Y-89895497D01*
X134658500Y-89740842D01*
X134658500Y-89583158D01*
X134658500Y-89583155D01*
X134658499Y-89583153D01*
X134627738Y-89428510D01*
X134627737Y-89428503D01*
X134576896Y-89305760D01*
X134567397Y-89282827D01*
X134567390Y-89282814D01*
X134479398Y-89151125D01*
X134458520Y-89084447D01*
X134458500Y-89082234D01*
X134458500Y-85832673D01*
X134458501Y-85832660D01*
X134458501Y-85664559D01*
X134458501Y-85664557D01*
X134417577Y-85511829D01*
X134343879Y-85384181D01*
X134338520Y-85374898D01*
X134226716Y-85263094D01*
X134226715Y-85263093D01*
X134222385Y-85258763D01*
X134222374Y-85258753D01*
X128798676Y-79835055D01*
X128798674Y-79835052D01*
X128675803Y-79712181D01*
X128642318Y-79650858D01*
X128647302Y-79581166D01*
X128689174Y-79525233D01*
X128754638Y-79500816D01*
X128763484Y-79500500D01*
X158375500Y-79500500D01*
X158442539Y-79520185D01*
G37*
G04 #@! TD.AperFunction*
G04 #@! TA.AperFunction,Conductor*
G36*
X121525503Y-108141184D02*
G01*
X121531981Y-108147216D01*
X121782181Y-108397416D01*
X121815666Y-108458739D01*
X121818500Y-108485097D01*
X121818500Y-109710001D01*
X121818501Y-109710018D01*
X121829000Y-109812796D01*
X121829001Y-109812799D01*
X121846336Y-109865111D01*
X121884186Y-109979334D01*
X121976288Y-110128656D01*
X122100344Y-110252712D01*
X122249666Y-110344814D01*
X122416203Y-110399999D01*
X122518991Y-110410500D01*
X123975500Y-110410499D01*
X124042539Y-110430184D01*
X124088294Y-110482987D01*
X124099500Y-110534499D01*
X124099500Y-113612961D01*
X124079815Y-113680000D01*
X124027011Y-113725755D01*
X123957853Y-113735699D01*
X123937183Y-113730892D01*
X123735134Y-113665243D01*
X123735127Y-113665242D01*
X123544000Y-113634969D01*
X123544000Y-114577854D01*
X123477343Y-114539370D01*
X123356535Y-114507000D01*
X123231465Y-114507000D01*
X123110657Y-114539370D01*
X123044000Y-114577854D01*
X123044000Y-113634969D01*
X122852872Y-113665242D01*
X122852869Y-113665242D01*
X122650782Y-113730904D01*
X122461442Y-113827379D01*
X122289540Y-113952272D01*
X122289535Y-113952276D01*
X122139276Y-114102535D01*
X122139272Y-114102540D01*
X122014379Y-114274442D01*
X121917904Y-114463782D01*
X121852242Y-114665870D01*
X121852242Y-114665873D01*
X121841769Y-114732000D01*
X122889854Y-114732000D01*
X122851370Y-114798657D01*
X122819000Y-114919465D01*
X122819000Y-115044535D01*
X122851370Y-115165343D01*
X122889854Y-115232000D01*
X121841769Y-115232000D01*
X121852242Y-115298126D01*
X121852242Y-115298129D01*
X121917904Y-115500217D01*
X122014379Y-115689557D01*
X122139272Y-115861459D01*
X122139276Y-115861464D01*
X122289533Y-116011721D01*
X122389121Y-116084075D01*
X122431787Y-116139405D01*
X122437766Y-116209018D01*
X122405161Y-116270814D01*
X122389123Y-116284711D01*
X122316490Y-116337482D01*
X122149485Y-116504487D01*
X122149485Y-116504488D01*
X122149483Y-116504490D01*
X122104153Y-116566881D01*
X122010657Y-116695566D01*
X121903433Y-116906003D01*
X121830446Y-117130631D01*
X121794877Y-117355205D01*
X121764948Y-117418340D01*
X121705636Y-117455271D01*
X121635773Y-117454273D01*
X121584723Y-117423488D01*
X121531416Y-117370181D01*
X121356619Y-117195383D01*
X121323134Y-117134060D01*
X121320300Y-117107702D01*
X121320300Y-108234897D01*
X121339985Y-108167858D01*
X121392789Y-108122103D01*
X121461947Y-108112159D01*
X121525503Y-108141184D01*
G37*
G04 #@! TD.AperFunction*
G04 #@! TA.AperFunction,Conductor*
G36*
X130305703Y-110158326D02*
G01*
X130324816Y-110179151D01*
X130358531Y-110225555D01*
X130428034Y-110321219D01*
X130572786Y-110465971D01*
X130667109Y-110534499D01*
X130738390Y-110586287D01*
X130854607Y-110645503D01*
X130920776Y-110679218D01*
X130920778Y-110679218D01*
X130920781Y-110679220D01*
X131025137Y-110713127D01*
X131115465Y-110742477D01*
X131216557Y-110758488D01*
X131317648Y-110774500D01*
X131317649Y-110774500D01*
X131522351Y-110774500D01*
X131522352Y-110774500D01*
X131724534Y-110742477D01*
X131738842Y-110737827D01*
X131808682Y-110735831D01*
X131864842Y-110768077D01*
X135348839Y-114252074D01*
X135348849Y-114252085D01*
X135353179Y-114256415D01*
X135353180Y-114256416D01*
X135464984Y-114368220D01*
X135464986Y-114368221D01*
X135470731Y-114373966D01*
X135469205Y-114375491D01*
X135503710Y-114422746D01*
X135507865Y-114492492D01*
X135473653Y-114553413D01*
X135452994Y-114569688D01*
X135364714Y-114625159D01*
X135153915Y-114793265D01*
X134963265Y-114983915D01*
X134795161Y-115194712D01*
X134651714Y-115423005D01*
X134534734Y-115665917D01*
X134445687Y-115920397D01*
X134445684Y-115920405D01*
X134400891Y-116116660D01*
X134366782Y-116177638D01*
X134305121Y-116210496D01*
X134235484Y-116204801D01*
X134179980Y-116162361D01*
X134156232Y-116096651D01*
X134156000Y-116089067D01*
X134156000Y-115381293D01*
X134155999Y-115381280D01*
X134145517Y-115248093D01*
X134145516Y-115248087D01*
X134090101Y-115028170D01*
X134090100Y-115028167D01*
X133996304Y-114821669D01*
X133996301Y-114821663D01*
X133867148Y-114635241D01*
X133867138Y-114635229D01*
X133706770Y-114474861D01*
X133706758Y-114474851D01*
X133520336Y-114345698D01*
X133520330Y-114345695D01*
X133313832Y-114251899D01*
X133313829Y-114251898D01*
X133093912Y-114196483D01*
X133093906Y-114196482D01*
X132960719Y-114186000D01*
X132006000Y-114186000D01*
X132006000Y-115258768D01*
X131862247Y-115236000D01*
X131649753Y-115236000D01*
X131506000Y-115258768D01*
X131506000Y-114186000D01*
X130551280Y-114186000D01*
X130418096Y-114196482D01*
X130254798Y-114237630D01*
X130184981Y-114234922D01*
X130127711Y-114194898D01*
X130101170Y-114130266D01*
X130100500Y-114117388D01*
X130100500Y-110252039D01*
X130120185Y-110185000D01*
X130172989Y-110139245D01*
X130242147Y-110129301D01*
X130305703Y-110158326D01*
G37*
G04 #@! TD.AperFunction*
G04 #@! TA.AperFunction,Conductor*
G36*
X131020000Y-101906661D02*
G01*
X131047259Y-102008394D01*
X131099920Y-102099606D01*
X131174394Y-102174080D01*
X131265606Y-102226741D01*
X131367339Y-102254000D01*
X131373553Y-102254000D01*
X130694076Y-102933474D01*
X130738650Y-102965859D01*
X130920968Y-103058755D01*
X131115582Y-103121990D01*
X131317683Y-103154000D01*
X131522317Y-103154000D01*
X131724417Y-103121990D01*
X131919031Y-103058755D01*
X132101349Y-102965859D01*
X132145921Y-102933474D01*
X131466447Y-102254000D01*
X131472661Y-102254000D01*
X131574394Y-102226741D01*
X131665606Y-102174080D01*
X131740080Y-102099606D01*
X131792741Y-102008394D01*
X131820000Y-101906661D01*
X131820000Y-101900447D01*
X132499474Y-102579921D01*
X132531861Y-102535347D01*
X132531861Y-102535346D01*
X132579234Y-102442371D01*
X132627208Y-102391575D01*
X132695028Y-102374779D01*
X132761164Y-102397316D01*
X132800203Y-102442369D01*
X132847713Y-102535611D01*
X132968028Y-102701213D01*
X133112786Y-102845971D01*
X133233226Y-102933474D01*
X133278390Y-102966287D01*
X133394607Y-103025503D01*
X133460776Y-103059218D01*
X133460778Y-103059218D01*
X133460781Y-103059220D01*
X133535369Y-103083455D01*
X133655465Y-103122477D01*
X133738863Y-103135686D01*
X133857648Y-103154500D01*
X133857649Y-103154500D01*
X134062351Y-103154500D01*
X134062352Y-103154500D01*
X134264534Y-103122477D01*
X134459219Y-103059220D01*
X134459222Y-103059218D01*
X134463852Y-103057714D01*
X134464272Y-103059009D01*
X134527596Y-103052191D01*
X134590081Y-103083455D01*
X134625743Y-103143538D01*
X134629600Y-103174224D01*
X134629600Y-103789030D01*
X134629599Y-103789048D01*
X134629599Y-103954754D01*
X134629598Y-103954754D01*
X134670524Y-104107489D01*
X134670525Y-104107490D01*
X134694522Y-104149053D01*
X134694523Y-104149055D01*
X134749575Y-104244409D01*
X134749581Y-104244417D01*
X134868449Y-104363285D01*
X134868455Y-104363290D01*
X138574559Y-108069394D01*
X138608044Y-108130717D01*
X138603060Y-108200409D01*
X138561188Y-108256342D01*
X138543174Y-108267559D01*
X138358388Y-108361713D01*
X138192786Y-108482028D01*
X138048028Y-108626786D01*
X137927715Y-108792386D01*
X137880485Y-108885080D01*
X137832510Y-108935876D01*
X137764689Y-108952671D01*
X137698554Y-108930134D01*
X137659515Y-108885080D01*
X137649699Y-108865815D01*
X137612287Y-108792390D01*
X137562633Y-108724046D01*
X137491971Y-108626786D01*
X137347213Y-108482028D01*
X137181613Y-108361715D01*
X137181612Y-108361714D01*
X137181610Y-108361713D01*
X137124653Y-108332691D01*
X136999223Y-108268781D01*
X136804534Y-108205522D01*
X136629995Y-108177878D01*
X136602352Y-108173500D01*
X136397648Y-108173500D01*
X136373329Y-108177351D01*
X136195465Y-108205522D01*
X136000776Y-108268781D01*
X135818386Y-108361715D01*
X135652786Y-108482028D01*
X135508028Y-108626786D01*
X135387715Y-108792386D01*
X135340485Y-108885080D01*
X135292510Y-108935876D01*
X135224689Y-108952671D01*
X135158554Y-108930134D01*
X135119515Y-108885080D01*
X135109699Y-108865815D01*
X135072287Y-108792390D01*
X135022633Y-108724046D01*
X134951971Y-108626786D01*
X134807213Y-108482028D01*
X134641613Y-108361715D01*
X134641612Y-108361714D01*
X134641610Y-108361713D01*
X134584653Y-108332691D01*
X134459223Y-108268781D01*
X134264534Y-108205522D01*
X134089995Y-108177878D01*
X134062352Y-108173500D01*
X133857648Y-108173500D01*
X133833329Y-108177351D01*
X133655465Y-108205522D01*
X133460776Y-108268781D01*
X133278386Y-108361715D01*
X133112786Y-108482028D01*
X132968028Y-108626786D01*
X132847715Y-108792386D01*
X132800485Y-108885080D01*
X132752510Y-108935876D01*
X132684689Y-108952671D01*
X132618554Y-108930134D01*
X132579515Y-108885080D01*
X132569699Y-108865815D01*
X132532287Y-108792390D01*
X132482633Y-108724046D01*
X132411971Y-108626786D01*
X132267213Y-108482028D01*
X132101613Y-108361715D01*
X132101612Y-108361714D01*
X132101610Y-108361713D01*
X132044653Y-108332691D01*
X131919223Y-108268781D01*
X131724534Y-108205522D01*
X131549995Y-108177878D01*
X131522352Y-108173500D01*
X131317648Y-108173500D01*
X131293329Y-108177351D01*
X131115465Y-108205522D01*
X130920776Y-108268781D01*
X130738386Y-108361715D01*
X130572786Y-108482028D01*
X130428032Y-108626782D01*
X130428028Y-108626787D01*
X130324818Y-108768845D01*
X130269488Y-108811511D01*
X130199875Y-108817490D01*
X130138080Y-108784885D01*
X130103723Y-108724046D01*
X130100500Y-108695960D01*
X130100500Y-102631190D01*
X130120185Y-102564151D01*
X130172989Y-102518396D01*
X130242147Y-102508452D01*
X130305703Y-102537477D01*
X130324819Y-102558305D01*
X130340524Y-102579922D01*
X131020000Y-101900446D01*
X131020000Y-101906661D01*
G37*
G04 #@! TD.AperFunction*
G04 #@! TA.AperFunction,Conductor*
G36*
X121925503Y-99135158D02*
G01*
X121949838Y-99163774D01*
X121976288Y-99206656D01*
X122100344Y-99330712D01*
X122249666Y-99422814D01*
X122416203Y-99477999D01*
X122518991Y-99488500D01*
X123975500Y-99488499D01*
X124042539Y-99508184D01*
X124088294Y-99560987D01*
X124099500Y-99612499D01*
X124099500Y-102690961D01*
X124079815Y-102758000D01*
X124027011Y-102803755D01*
X123957853Y-102813699D01*
X123937183Y-102808892D01*
X123735134Y-102743243D01*
X123735127Y-102743242D01*
X123544000Y-102712969D01*
X123544000Y-103655854D01*
X123477343Y-103617370D01*
X123356535Y-103585000D01*
X123231465Y-103585000D01*
X123110657Y-103617370D01*
X123044000Y-103655854D01*
X123044000Y-102712969D01*
X122852872Y-102743242D01*
X122852869Y-102743242D01*
X122650782Y-102808904D01*
X122461442Y-102905379D01*
X122289540Y-103030272D01*
X122289535Y-103030276D01*
X122139276Y-103180535D01*
X122139272Y-103180540D01*
X122014379Y-103352442D01*
X121954785Y-103469401D01*
X121906810Y-103520197D01*
X121838989Y-103536992D01*
X121772854Y-103514454D01*
X121729403Y-103459739D01*
X121720300Y-103413106D01*
X121720300Y-99228871D01*
X121739985Y-99161832D01*
X121792789Y-99116077D01*
X121861947Y-99106133D01*
X121925503Y-99135158D01*
G37*
G04 #@! TD.AperFunction*
G04 #@! TA.AperFunction,Conductor*
G36*
X122303797Y-88471751D02*
G01*
X122416203Y-88508999D01*
X122518991Y-88519500D01*
X123975500Y-88519499D01*
X124042539Y-88539184D01*
X124088294Y-88591987D01*
X124099500Y-88643499D01*
X124099500Y-91768961D01*
X124079815Y-91836000D01*
X124027011Y-91881755D01*
X123957853Y-91891699D01*
X123937183Y-91886892D01*
X123735134Y-91821243D01*
X123735127Y-91821242D01*
X123544000Y-91790969D01*
X123544000Y-92733854D01*
X123477343Y-92695370D01*
X123356535Y-92663000D01*
X123231465Y-92663000D01*
X123110657Y-92695370D01*
X123044000Y-92733854D01*
X123044000Y-91790969D01*
X122852872Y-91821242D01*
X122852869Y-91821242D01*
X122650782Y-91886904D01*
X122461442Y-91983379D01*
X122337685Y-92073293D01*
X122271878Y-92096773D01*
X122203825Y-92080947D01*
X122155130Y-92030841D01*
X122140800Y-91972975D01*
X122140800Y-88589459D01*
X122160485Y-88522420D01*
X122213289Y-88476665D01*
X122282447Y-88466721D01*
X122303797Y-88471751D01*
G37*
G04 #@! TD.AperFunction*
M02*
