G04 #@! TF.GenerationSoftware,KiCad,Pcbnew,10.0.6*
G04 #@! TF.CreationDate,2026-09-08T22:16:38+09:00*
G04 #@! TF.ProjectId,XIAO-ESP32-S3-SS,5849414f-2d45-4535-9033-322d53332d53,rev?*
G04 #@! TF.SameCoordinates,Original*
G04 #@! TF.FileFunction,Copper,L1,Top*
G04 #@! TF.FilePolarity,Positive*
%FSLAX46Y46*%
G04 Gerber Fmt 4.6, Leading zero omitted, Abs format (unit mm)*
G04 Created by KiCad (PCBNEW 10.0.6) date 2026-09-08 22:16:38*
%MOMM*%
%LPD*%
G01*
G04 APERTURE LIST*
G04 Aperture macros list*
%AMRoundRect*
0 Rectangle with rounded corners*
0 $1 Rounding radius*
0 $2 $3 $4 $5 $6 $7 $8 $9 X,Y pos of 4 corners*
0 Add a 4 corners polygon primitive as box body*
4,1,4,$2,$3,$4,$5,$6,$7,$8,$9,$2,$3,0*
0 Add four circle primitives for the rounded corners*
1,1,$1+$1,$2,$3*
1,1,$1+$1,$4,$5*
1,1,$1+$1,$6,$7*
1,1,$1+$1,$8,$9*
0 Add four rect primitives between the rounded corners*
20,1,$1+$1,$2,$3,$4,$5,0*
20,1,$1+$1,$4,$5,$6,$7,0*
20,1,$1+$1,$6,$7,$8,$9,0*
20,1,$1+$1,$8,$9,$2,$3,0*%
G04 Aperture macros list end*
G04 #@! TA.AperFunction,SMDPad,CuDef*
%ADD10RoundRect,0.500000X-0.875000X-0.500000X0.875000X-0.500000X0.875000X0.500000X-0.875000X0.500000X0*%
G04 #@! TD*
G04 #@! TA.AperFunction,SMDPad,CuDef*
%ADD11C,1.700000*%
G04 #@! TD*
G04 #@! TA.AperFunction,SMDPad,CuDef*
%ADD12RoundRect,0.275000X0.975000X0.275000X-0.975000X0.275000X-0.975000X-0.275000X0.975000X-0.275000X0*%
G04 #@! TD*
G04 #@! TA.AperFunction,SMDPad,CuDef*
%ADD13RoundRect,0.625000X-0.750000X-0.625000X0.750000X-0.625000X0.750000X0.625000X-0.750000X0.625000X0*%
G04 #@! TD*
G04 #@! TA.AperFunction,ComponentPad*
%ADD14RoundRect,0.250000X-0.550000X0.550000X-0.550000X-0.550000X0.550000X-0.550000X0.550000X0.550000X0*%
G04 #@! TD*
G04 #@! TA.AperFunction,ComponentPad*
%ADD15C,1.600000*%
G04 #@! TD*
G04 #@! TA.AperFunction,ComponentPad*
%ADD16RoundRect,0.250000X-0.725000X0.600000X-0.725000X-0.600000X0.725000X-0.600000X0.725000X0.600000X0*%
G04 #@! TD*
G04 #@! TA.AperFunction,ComponentPad*
%ADD17O,1.950000X1.700000*%
G04 #@! TD*
G04 #@! TA.AperFunction,ComponentPad*
%ADD18RoundRect,0.250000X0.725000X-0.600000X0.725000X0.600000X-0.725000X0.600000X-0.725000X-0.600000X0*%
G04 #@! TD*
G04 #@! TA.AperFunction,ComponentPad*
%ADD19RoundRect,0.760000X-1.140000X-1.140000X1.140000X-1.140000X1.140000X1.140000X-1.140000X1.140000X0*%
G04 #@! TD*
G04 #@! TA.AperFunction,ComponentPad*
%ADD20C,3.800000*%
G04 #@! TD*
G04 #@! TA.AperFunction,ComponentPad*
%ADD21RoundRect,0.250000X-0.750000X0.600000X-0.750000X-0.600000X0.750000X-0.600000X0.750000X0.600000X0*%
G04 #@! TD*
G04 #@! TA.AperFunction,ComponentPad*
%ADD22O,2.000000X1.700000*%
G04 #@! TD*
G04 #@! TA.AperFunction,ComponentPad*
%ADD23R,1.700000X1.700000*%
G04 #@! TD*
G04 #@! TA.AperFunction,ComponentPad*
%ADD24C,1.700000*%
G04 #@! TD*
G04 #@! TA.AperFunction,ComponentPad*
%ADD25RoundRect,0.250000X0.600000X0.750000X-0.600000X0.750000X-0.600000X-0.750000X0.600000X-0.750000X0*%
G04 #@! TD*
G04 #@! TA.AperFunction,ComponentPad*
%ADD26O,1.700000X2.000000*%
G04 #@! TD*
G04 #@! TA.AperFunction,ViaPad*
%ADD27C,0.600000*%
G04 #@! TD*
G04 #@! TA.AperFunction,Conductor*
%ADD28C,0.200000*%
G04 #@! TD*
G04 #@! TA.AperFunction,Conductor*
%ADD29C,2.000000*%
G04 #@! TD*
G04 #@! TA.AperFunction,Conductor*
%ADD30C,5.000000*%
G04 #@! TD*
G04 APERTURE END LIST*
D10*
X132135000Y-82074000D03*
X132135000Y-84614000D03*
X132135000Y-87154000D03*
X132135000Y-89694000D03*
X132135000Y-92234000D03*
X132135000Y-94774000D03*
X132135000Y-97314000D03*
X148300000Y-97314000D03*
X148300000Y-94774000D03*
X148300000Y-92234000D03*
X148300000Y-89694000D03*
X148300000Y-87154000D03*
X148300000Y-84614000D03*
X148300000Y-82074000D03*
D11*
X138920000Y-81062000D03*
X141460000Y-81062000D03*
X138920000Y-83602000D03*
X141460000Y-83602000D03*
X138920000Y-86142000D03*
X141460000Y-86142000D03*
X138920000Y-88682000D03*
X141460000Y-88682000D03*
D12*
X135745000Y-89312000D03*
X135745000Y-87407000D03*
D13*
X141310000Y-91694000D03*
D14*
X149200000Y-101854000D03*
D15*
X146660000Y-101854000D03*
X144120000Y-101854000D03*
X141580000Y-101854000D03*
X139040000Y-101854000D03*
X136500000Y-101854000D03*
X133960000Y-101854000D03*
X131420000Y-101854000D03*
X131420000Y-109474000D03*
X133960000Y-109474000D03*
X136500000Y-109474000D03*
X139040000Y-109474000D03*
X141580000Y-109474000D03*
X144120000Y-109474000D03*
X146660000Y-109474000D03*
X149200000Y-109474000D03*
D16*
X155806000Y-95529400D03*
D17*
X155806000Y-98029400D03*
X155806000Y-100529400D03*
X155806000Y-103029400D03*
D18*
X123294000Y-109060000D03*
D17*
X123294000Y-106560000D03*
X123294000Y-104060000D03*
D19*
X131756000Y-116586000D03*
D20*
X136756000Y-116586000D03*
D14*
X149202000Y-112522000D03*
D15*
X146662000Y-112522000D03*
X144122000Y-112522000D03*
X141582000Y-112522000D03*
X141582000Y-120142000D03*
X144122000Y-120142000D03*
X146662000Y-120142000D03*
X149202000Y-120142000D03*
D21*
X155702000Y-119126000D03*
D22*
X155702000Y-121626000D03*
D15*
X129794000Y-132100000D03*
X139954000Y-132100000D03*
D18*
X123294000Y-119982000D03*
D17*
X123294000Y-117482000D03*
X123294000Y-114982000D03*
D16*
X155806000Y-82122000D03*
D17*
X155806000Y-84622000D03*
X155806000Y-87122000D03*
X155806000Y-89622000D03*
D21*
X155702000Y-128016000D03*
D22*
X155702000Y-130516000D03*
D19*
X132414000Y-127000000D03*
D20*
X137414000Y-127000000D03*
D18*
X123294000Y-87169000D03*
D17*
X123294000Y-84669000D03*
X123294000Y-82169000D03*
D18*
X123294000Y-130904000D03*
D17*
X123294000Y-128404000D03*
X123294000Y-125904000D03*
D23*
X147170000Y-123698000D03*
D24*
X144630000Y-123698000D03*
D21*
X155702000Y-110236000D03*
D22*
X155702000Y-112736000D03*
D18*
X123294000Y-98138000D03*
D17*
X123294000Y-95638000D03*
X123294000Y-93138000D03*
D25*
X147574000Y-130810000D03*
D26*
X145074000Y-130810000D03*
D27*
X130229100Y-84166400D03*
X130229100Y-87759200D03*
X130229100Y-92706000D03*
X133858000Y-89662000D03*
X135355000Y-97728700D03*
X135230100Y-100227000D03*
X145961600Y-97783700D03*
X143383000Y-132715000D03*
X122682000Y-122682000D03*
X134620000Y-129667000D03*
X144399000Y-87249000D03*
X157861000Y-85852000D03*
X131699000Y-112141000D03*
X149860000Y-132334000D03*
X153416000Y-106299000D03*
X125095000Y-132334000D03*
X157099000Y-132715000D03*
X144399000Y-115824000D03*
X144145000Y-127254000D03*
X150495000Y-106299000D03*
X144399000Y-81915000D03*
X135890000Y-82296000D03*
X153797000Y-123571000D03*
X123190000Y-90170000D03*
X122936000Y-101092000D03*
X142367000Y-117856000D03*
X152781000Y-119507000D03*
X141986000Y-124333000D03*
X122809000Y-112014000D03*
X121285000Y-126873000D03*
X149987000Y-125349000D03*
X141732000Y-130048000D03*
X141224000Y-115316000D03*
X153416000Y-131826000D03*
X153035000Y-80137000D03*
X152273000Y-127508000D03*
X153543000Y-103632000D03*
X131445000Y-106299000D03*
X154051000Y-113015100D03*
D28*
X130229100Y-84166400D02*
X130229100Y-83979900D01*
X130229100Y-83979900D02*
X132135000Y-82074000D01*
X130229100Y-87759200D02*
X130229100Y-86519900D01*
X130229100Y-86519900D02*
X132135000Y-84614000D01*
X130229100Y-89059900D02*
X132135000Y-87154000D01*
X130229100Y-92706000D02*
X130229100Y-89059900D01*
X132167000Y-89662000D02*
X132135000Y-89694000D01*
X133858000Y-89662000D02*
X132167000Y-89662000D01*
X132690000Y-104912300D02*
X135138000Y-107360300D01*
X132690000Y-101324000D02*
X132690000Y-104912300D01*
X139615700Y-127912100D02*
X136623800Y-130904000D01*
X136623800Y-130904000D02*
X123294000Y-130904000D01*
X139615700Y-114469700D02*
X139615700Y-127912100D01*
X132135000Y-92234000D02*
X130426400Y-93942600D01*
X135138000Y-107360300D02*
X135138000Y-109992000D01*
X135138000Y-109992000D02*
X139615700Y-114469700D01*
X130426400Y-99060400D02*
X132690000Y-101324000D01*
X130426400Y-93942600D02*
X130426400Y-99060400D01*
X132135000Y-94774000D02*
X135089700Y-97728700D01*
X135089700Y-97728700D02*
X135355000Y-97728700D01*
X135230100Y-100227000D02*
X135048000Y-100227000D01*
X135048000Y-100227000D02*
X132135000Y-97314000D01*
X142850000Y-107565400D02*
X145390000Y-105025400D01*
X145390000Y-100224000D02*
X148300000Y-97314000D01*
X142850000Y-111254000D02*
X142850000Y-107565400D01*
X145390000Y-105025400D02*
X145390000Y-100224000D01*
X141582000Y-112522000D02*
X142850000Y-111254000D01*
X145961600Y-97112400D02*
X148300000Y-94774000D01*
X145961600Y-97783700D02*
X145961600Y-97112400D01*
X144120000Y-96414000D02*
X148300000Y-92234000D01*
X144120000Y-101854000D02*
X144120000Y-96414000D01*
X147062100Y-90931900D02*
X148300000Y-89694000D01*
X141580000Y-95198100D02*
X145846200Y-90931900D01*
X147062100Y-90931900D02*
X145846200Y-90931900D01*
X141580000Y-101854000D02*
X141580000Y-95198100D01*
X148300000Y-84614000D02*
X145891000Y-84614000D01*
D29*
X127131000Y-82169000D02*
X127200000Y-82100000D01*
D30*
X132414000Y-127000000D02*
X127200000Y-127000000D01*
D29*
X123294000Y-104060000D02*
X127160000Y-104060000D01*
D30*
X127200000Y-93200000D02*
X127200000Y-82100000D01*
X127200000Y-115000000D02*
X127200000Y-127000000D01*
D29*
X123294000Y-114982000D02*
X127182000Y-114982000D01*
X127160000Y-104060000D02*
X127200000Y-104100000D01*
X126104000Y-125904000D02*
X127200000Y-127000000D01*
X123294000Y-125904000D02*
X126104000Y-125904000D01*
D28*
X127182000Y-114982000D02*
X127200000Y-115000000D01*
D30*
X127200000Y-115000000D02*
X127200000Y-104100000D01*
D29*
X127138000Y-93138000D02*
X127200000Y-93200000D01*
D30*
X127200000Y-104100000D02*
X127200000Y-93200000D01*
D29*
X123294000Y-93138000D02*
X127138000Y-93138000D01*
X123294000Y-82169000D02*
X127131000Y-82169000D01*
D28*
X154475300Y-82122000D02*
X148348000Y-82122000D01*
X154475300Y-82122000D02*
X154475300Y-95529400D01*
X154475300Y-95529400D02*
X155806000Y-95529400D01*
X154475300Y-99805600D02*
X145390000Y-108890900D01*
X145390000Y-111254000D02*
X144122000Y-112522000D01*
X154475300Y-95529400D02*
X154475300Y-99805600D01*
X155806000Y-82122000D02*
X154475300Y-82122000D01*
X148348000Y-82122000D02*
X148300000Y-82074000D01*
X145390000Y-108890900D02*
X145390000Y-111254000D01*
X157059000Y-120941800D02*
X156591500Y-120474300D01*
X155702000Y-129364300D02*
X156493800Y-129364300D01*
X155702000Y-130516000D02*
X155702000Y-129364300D01*
X155702000Y-113887700D02*
X157050800Y-115236500D01*
X155702000Y-121626000D02*
X155702000Y-120474300D01*
X157050800Y-115236500D02*
X157050800Y-120015000D01*
X156591500Y-120474300D02*
X155702000Y-120474300D01*
X155702000Y-112736000D02*
X155702000Y-113887700D01*
X157059000Y-128799100D02*
X157059000Y-120941800D01*
X156493800Y-129364300D02*
X157059000Y-128799100D01*
X157050800Y-120015000D02*
X156591500Y-120474300D01*
X155702000Y-119126000D02*
X155702000Y-114666100D01*
X155702000Y-114666100D02*
X154051000Y-113015100D01*
X149697600Y-108370300D02*
X147763700Y-108370300D01*
X155702000Y-128016000D02*
X151158500Y-123472500D01*
X151158500Y-109831200D02*
X149697600Y-108370300D01*
X147763700Y-108370300D02*
X146660000Y-109474000D01*
X151158500Y-123472500D02*
X151158500Y-109831200D01*
X148321700Y-121874000D02*
X148068100Y-121620400D01*
X148068100Y-121620400D02*
X148068100Y-110605900D01*
X148068100Y-110605900D02*
X149200000Y-109474000D01*
X148321700Y-130062300D02*
X148321700Y-121874000D01*
X147574000Y-130810000D02*
X148321700Y-130062300D01*
X147170000Y-120650000D02*
X146662000Y-120142000D01*
X147170000Y-123698000D02*
X147170000Y-120650000D01*
X140018800Y-124245200D02*
X144122000Y-120142000D01*
X157099700Y-92067400D02*
X157099700Y-101035700D01*
X157099700Y-101035700D02*
X156257700Y-101877700D01*
X139954000Y-132100000D02*
X140018800Y-132035200D01*
X155806000Y-89622000D02*
X155806000Y-90773700D01*
X155806000Y-90773700D02*
X157099700Y-92067400D01*
X156257700Y-101877700D02*
X155806000Y-101877700D01*
X155806000Y-103029400D02*
X155806000Y-101877700D01*
X140018800Y-132035200D02*
X140018800Y-124245200D01*
G04 #@! TA.AperFunction,Conductor*
G36*
X138640518Y-79520185D02*
G01*
X138686273Y-79572989D01*
X138696217Y-79642147D01*
X138667192Y-79705703D01*
X138608414Y-79743477D01*
X138604369Y-79744555D01*
X138401585Y-79810444D01*
X138212179Y-79906951D01*
X138040213Y-80031890D01*
X137889890Y-80182213D01*
X137764951Y-80354179D01*
X137668444Y-80543585D01*
X137602753Y-80745760D01*
X137575488Y-80917904D01*
X137569500Y-80955713D01*
X137569500Y-81168287D01*
X137579534Y-81231644D01*
X137601322Y-81369205D01*
X137602754Y-81378243D01*
X137649301Y-81521500D01*
X137668444Y-81580414D01*
X137764951Y-81769820D01*
X137889890Y-81941786D01*
X138040213Y-82092109D01*
X138212182Y-82217050D01*
X138220946Y-82221516D01*
X138271742Y-82269491D01*
X138288536Y-82337312D01*
X138265998Y-82403447D01*
X138220946Y-82442484D01*
X138212182Y-82446949D01*
X138040213Y-82571890D01*
X137889890Y-82722213D01*
X137764951Y-82894179D01*
X137668444Y-83083585D01*
X137602753Y-83285760D01*
X137569500Y-83495713D01*
X137569500Y-83708286D01*
X137582317Y-83789213D01*
X137602754Y-83918243D01*
X137657766Y-84087553D01*
X137668444Y-84120414D01*
X137764951Y-84309820D01*
X137889890Y-84481786D01*
X138040213Y-84632109D01*
X138212182Y-84757050D01*
X138220946Y-84761516D01*
X138271742Y-84809491D01*
X138288536Y-84877312D01*
X138265998Y-84943447D01*
X138220946Y-84982484D01*
X138212182Y-84986949D01*
X138040213Y-85111890D01*
X137889890Y-85262213D01*
X137764951Y-85434179D01*
X137668444Y-85623585D01*
X137602753Y-85825760D01*
X137581181Y-85961963D01*
X137569500Y-86035713D01*
X137569500Y-86248287D01*
X137569719Y-86249668D01*
X137596095Y-86416204D01*
X137602754Y-86458243D01*
X137647502Y-86595964D01*
X137668444Y-86660414D01*
X137764951Y-86849820D01*
X137889890Y-87021786D01*
X138040213Y-87172109D01*
X138212182Y-87297050D01*
X138220946Y-87301516D01*
X138271742Y-87349491D01*
X138288536Y-87417312D01*
X138265998Y-87483447D01*
X138220946Y-87522484D01*
X138212182Y-87526949D01*
X138040213Y-87651890D01*
X137889890Y-87802213D01*
X137764951Y-87974179D01*
X137668444Y-88163585D01*
X137602753Y-88365760D01*
X137576197Y-88533426D01*
X137546268Y-88596561D01*
X137486956Y-88633492D01*
X137417093Y-88632494D01*
X137358861Y-88593884D01*
X137348736Y-88580009D01*
X137330147Y-88550424D01*
X137226904Y-88447181D01*
X137193419Y-88385858D01*
X137198403Y-88316166D01*
X137226904Y-88271819D01*
X137278374Y-88220349D01*
X137330147Y-88168576D01*
X137423122Y-88020606D01*
X137480841Y-87855657D01*
X137495500Y-87725552D01*
X137495500Y-87088448D01*
X137480841Y-86958343D01*
X137423122Y-86793394D01*
X137330147Y-86645424D01*
X137206576Y-86521853D01*
X137058606Y-86428878D01*
X137058605Y-86428877D01*
X137058604Y-86428877D01*
X136893658Y-86371159D01*
X136893648Y-86371157D01*
X136763558Y-86356500D01*
X136763552Y-86356500D01*
X134726448Y-86356500D01*
X134726441Y-86356500D01*
X134596351Y-86371157D01*
X134596341Y-86371159D01*
X134431395Y-86428877D01*
X134283425Y-86521852D01*
X134214420Y-86590857D01*
X134153096Y-86624341D01*
X134083405Y-86619356D01*
X134027471Y-86577485D01*
X134003226Y-86514155D01*
X133999886Y-86476584D01*
X133999886Y-86476583D01*
X133999886Y-86476582D01*
X133943909Y-86280951D01*
X133849698Y-86100593D01*
X133736983Y-85962359D01*
X133709875Y-85897965D01*
X133721884Y-85829135D01*
X133736981Y-85805642D01*
X133849698Y-85667407D01*
X133943909Y-85487049D01*
X133999886Y-85291418D01*
X134010500Y-85172037D01*
X134010499Y-84055964D01*
X133999886Y-83936582D01*
X133943909Y-83740951D01*
X133849698Y-83560593D01*
X133736983Y-83422359D01*
X133709875Y-83357965D01*
X133721884Y-83289135D01*
X133736981Y-83265642D01*
X133849698Y-83127407D01*
X133943909Y-82947049D01*
X133999886Y-82751418D01*
X134010500Y-82632037D01*
X134010499Y-81515964D01*
X133999886Y-81396582D01*
X133943909Y-81200951D01*
X133849698Y-81020593D01*
X133796795Y-80955713D01*
X133721109Y-80862890D01*
X133563409Y-80734304D01*
X133563410Y-80734304D01*
X133563407Y-80734302D01*
X133383049Y-80640091D01*
X133383048Y-80640090D01*
X133383045Y-80640089D01*
X133265829Y-80606550D01*
X133187418Y-80584114D01*
X133187415Y-80584113D01*
X133187413Y-80584113D01*
X133121102Y-80578217D01*
X133068037Y-80573500D01*
X133068032Y-80573500D01*
X131201971Y-80573500D01*
X131201965Y-80573500D01*
X131201964Y-80573501D01*
X131190316Y-80574536D01*
X131082584Y-80584113D01*
X130886954Y-80640089D01*
X130796772Y-80687196D01*
X130706593Y-80734302D01*
X130706591Y-80734303D01*
X130706590Y-80734304D01*
X130548890Y-80862890D01*
X130420304Y-81020590D01*
X130420302Y-81020593D01*
X130373196Y-81110772D01*
X130326089Y-81200954D01*
X130281332Y-81357376D01*
X130275362Y-81378243D01*
X130270114Y-81396583D01*
X130270113Y-81396586D01*
X130259500Y-81515966D01*
X130259500Y-82632028D01*
X130259501Y-82632034D01*
X130270113Y-82751415D01*
X130325282Y-82944223D01*
X130324799Y-83014091D01*
X130293747Y-83066015D01*
X129957561Y-83402202D01*
X129917334Y-83429082D01*
X129849921Y-83457006D01*
X129849914Y-83457009D01*
X129718811Y-83544610D01*
X129718807Y-83544613D01*
X129607313Y-83656107D01*
X129607310Y-83656111D01*
X129519709Y-83787214D01*
X129519702Y-83787227D01*
X129459364Y-83932898D01*
X129459361Y-83932910D01*
X129428600Y-84087553D01*
X129428600Y-84245246D01*
X129459361Y-84399889D01*
X129459364Y-84399901D01*
X129519702Y-84545572D01*
X129519709Y-84545585D01*
X129607310Y-84676688D01*
X129607313Y-84676692D01*
X129718807Y-84788186D01*
X129718811Y-84788189D01*
X129849914Y-84875790D01*
X129849927Y-84875797D01*
X129991680Y-84934512D01*
X129995603Y-84936137D01*
X130032353Y-84943447D01*
X130156232Y-84968089D01*
X130155859Y-84969961D01*
X130212421Y-84992787D01*
X130252792Y-85049812D01*
X130259501Y-85090046D01*
X130259501Y-85172034D01*
X130270113Y-85291415D01*
X130325282Y-85484223D01*
X130324799Y-85554091D01*
X130293747Y-85606015D01*
X129860386Y-86039378D01*
X129748581Y-86151182D01*
X129748579Y-86151185D01*
X129702507Y-86230986D01*
X129702506Y-86230987D01*
X129669523Y-86288114D01*
X129669523Y-86288115D01*
X129628599Y-86440843D01*
X129628599Y-86440845D01*
X129628599Y-86608946D01*
X129628600Y-86608959D01*
X129628600Y-87179434D01*
X129608915Y-87246473D01*
X129607702Y-87248325D01*
X129519709Y-87380014D01*
X129519702Y-87380027D01*
X129459364Y-87525698D01*
X129459361Y-87525710D01*
X129428600Y-87680353D01*
X129428600Y-87838046D01*
X129459361Y-87992689D01*
X129459364Y-87992701D01*
X129519702Y-88138372D01*
X129519709Y-88138385D01*
X129607310Y-88269488D01*
X129607313Y-88269492D01*
X129718810Y-88380989D01*
X129796974Y-88433216D01*
X129841779Y-88486828D01*
X129850486Y-88556153D01*
X129820332Y-88619180D01*
X129815765Y-88623999D01*
X129748578Y-88691185D01*
X129719123Y-88742206D01*
X129719122Y-88742208D01*
X129669523Y-88828114D01*
X129659522Y-88865437D01*
X129628599Y-88980843D01*
X129628599Y-88980845D01*
X129628599Y-89148946D01*
X129628600Y-89148959D01*
X129628600Y-92126234D01*
X129608915Y-92193273D01*
X129607702Y-92195125D01*
X129519709Y-92326814D01*
X129519702Y-92326827D01*
X129459364Y-92472498D01*
X129459361Y-92472510D01*
X129428600Y-92627153D01*
X129428600Y-92784846D01*
X129459361Y-92939489D01*
X129459364Y-92939501D01*
X129519702Y-93085172D01*
X129519709Y-93085185D01*
X129607310Y-93216288D01*
X129607313Y-93216292D01*
X129718807Y-93327786D01*
X129718811Y-93327789D01*
X129849914Y-93415390D01*
X129849921Y-93415394D01*
X129870572Y-93423947D01*
X129924975Y-93467787D01*
X129947041Y-93534081D01*
X129930508Y-93600507D01*
X129895761Y-93660693D01*
X129895759Y-93660696D01*
X129866825Y-93710809D01*
X129866824Y-93710810D01*
X129864203Y-93720593D01*
X129825899Y-93863543D01*
X129825899Y-93863545D01*
X129825899Y-94031646D01*
X129825900Y-94031659D01*
X129825900Y-98973730D01*
X129825899Y-98973748D01*
X129825899Y-99139454D01*
X129825898Y-99139454D01*
X129825899Y-99139457D01*
X129866823Y-99292185D01*
X129885815Y-99325080D01*
X129885816Y-99325082D01*
X129885817Y-99325082D01*
X129942242Y-99422814D01*
X129945879Y-99429114D01*
X129945881Y-99429117D01*
X130064749Y-99547985D01*
X130064755Y-99547990D01*
X130963014Y-100446249D01*
X130996499Y-100507572D01*
X130991515Y-100577264D01*
X130949643Y-100633197D01*
X130922796Y-100648487D01*
X130920978Y-100649239D01*
X130738644Y-100742143D01*
X130694077Y-100774523D01*
X130694077Y-100774524D01*
X131373553Y-101454000D01*
X131367339Y-101454000D01*
X131265606Y-101481259D01*
X131174394Y-101533920D01*
X131099920Y-101608394D01*
X131047259Y-101699606D01*
X131020000Y-101801339D01*
X131020000Y-101807553D01*
X130340524Y-101128077D01*
X130340523Y-101128077D01*
X130308143Y-101172644D01*
X130215244Y-101354968D01*
X130152009Y-101549582D01*
X130120000Y-101751682D01*
X130120000Y-101956317D01*
X130152009Y-102158417D01*
X130215244Y-102353031D01*
X130308141Y-102535350D01*
X130308147Y-102535359D01*
X130340523Y-102579921D01*
X130340524Y-102579922D01*
X131020000Y-101900446D01*
X131020000Y-101906661D01*
X131047259Y-102008394D01*
X131099920Y-102099606D01*
X131174394Y-102174080D01*
X131265606Y-102226741D01*
X131367339Y-102254000D01*
X131373552Y-102254000D01*
X130694076Y-102933474D01*
X130738650Y-102965859D01*
X130920968Y-103058755D01*
X131115582Y-103121990D01*
X131317683Y-103154000D01*
X131522317Y-103154000D01*
X131724417Y-103121990D01*
X131923660Y-103057251D01*
X131924071Y-103058517D01*
X131987500Y-103051690D01*
X132049984Y-103082957D01*
X132085644Y-103143041D01*
X132089500Y-103173723D01*
X132089500Y-104825630D01*
X132089499Y-104825648D01*
X132089499Y-104991354D01*
X132089498Y-104991354D01*
X132130423Y-105144085D01*
X132159358Y-105194200D01*
X132159359Y-105194204D01*
X132159360Y-105194204D01*
X132209479Y-105281014D01*
X132209481Y-105281017D01*
X132328349Y-105399885D01*
X132328355Y-105399890D01*
X134501181Y-107572716D01*
X134534666Y-107634039D01*
X134537500Y-107660397D01*
X134537500Y-108123543D01*
X134517815Y-108190582D01*
X134465011Y-108236337D01*
X134395853Y-108246281D01*
X134375182Y-108241474D01*
X134264536Y-108205523D01*
X134129746Y-108184174D01*
X134062352Y-108173500D01*
X133857648Y-108173500D01*
X133833329Y-108177351D01*
X133655465Y-108205522D01*
X133460776Y-108268781D01*
X133278386Y-108361715D01*
X133112786Y-108482028D01*
X132968028Y-108626786D01*
X132847715Y-108792386D01*
X132800485Y-108885080D01*
X132752510Y-108935876D01*
X132684689Y-108952671D01*
X132618554Y-108930134D01*
X132579515Y-108885080D01*
X132578883Y-108883840D01*
X132532287Y-108792390D01*
X132524556Y-108781749D01*
X132411971Y-108626786D01*
X132267213Y-108482028D01*
X132101613Y-108361715D01*
X132101612Y-108361714D01*
X132101610Y-108361713D01*
X132026515Y-108323450D01*
X131919223Y-108268781D01*
X131724534Y-108205522D01*
X131549995Y-108177878D01*
X131522352Y-108173500D01*
X131317648Y-108173500D01*
X131293329Y-108177351D01*
X131115465Y-108205522D01*
X130920776Y-108268781D01*
X130738386Y-108361715D01*
X130572786Y-108482028D01*
X130428028Y-108626786D01*
X130307715Y-108792386D01*
X130214781Y-108974776D01*
X130151522Y-109169465D01*
X130128209Y-109316663D01*
X130119500Y-109371648D01*
X130119500Y-109576352D01*
X130121027Y-109585991D01*
X130151522Y-109778534D01*
X130214781Y-109973223D01*
X130307715Y-110155613D01*
X130428028Y-110321213D01*
X130572786Y-110465971D01*
X130701621Y-110559573D01*
X130738390Y-110586287D01*
X130854607Y-110645503D01*
X130920776Y-110679218D01*
X130920778Y-110679218D01*
X130920781Y-110679220D01*
X130995535Y-110703509D01*
X131115465Y-110742477D01*
X131173185Y-110751619D01*
X131317648Y-110774500D01*
X131317649Y-110774500D01*
X131522351Y-110774500D01*
X131522352Y-110774500D01*
X131724534Y-110742477D01*
X131919219Y-110679220D01*
X132101610Y-110586287D01*
X132241453Y-110484686D01*
X132267213Y-110465971D01*
X132267215Y-110465968D01*
X132267219Y-110465966D01*
X132411966Y-110321219D01*
X132411968Y-110321215D01*
X132411971Y-110321213D01*
X132532284Y-110155614D01*
X132532286Y-110155611D01*
X132532287Y-110155610D01*
X132579516Y-110062917D01*
X132627489Y-110012123D01*
X132695310Y-109995328D01*
X132761445Y-110017865D01*
X132800483Y-110062917D01*
X132833979Y-110128656D01*
X132847715Y-110155614D01*
X132968028Y-110321213D01*
X133112786Y-110465971D01*
X133241621Y-110559573D01*
X133278390Y-110586287D01*
X133394607Y-110645503D01*
X133460776Y-110679218D01*
X133460778Y-110679218D01*
X133460781Y-110679220D01*
X133535535Y-110703509D01*
X133655465Y-110742477D01*
X133713185Y-110751619D01*
X133857648Y-110774500D01*
X133857649Y-110774500D01*
X134062351Y-110774500D01*
X134062352Y-110774500D01*
X134264534Y-110742477D01*
X134459219Y-110679220D01*
X134641610Y-110586287D01*
X134695772Y-110546935D01*
X134761577Y-110523456D01*
X134829631Y-110539281D01*
X134856338Y-110559573D01*
X138978881Y-114682116D01*
X139012366Y-114743439D01*
X139015200Y-114769797D01*
X139015200Y-115239137D01*
X138995515Y-115306176D01*
X138942711Y-115351931D01*
X138873553Y-115361875D01*
X138809997Y-115332850D01*
X138786206Y-115305109D01*
X138750380Y-115248093D01*
X138716838Y-115194711D01*
X138548734Y-114983915D01*
X138358085Y-114793266D01*
X138147289Y-114625162D01*
X137918997Y-114481716D01*
X137918994Y-114481714D01*
X137676082Y-114364734D01*
X137421602Y-114275687D01*
X137421594Y-114275684D01*
X137224446Y-114230687D01*
X137158732Y-114215688D01*
X137158728Y-114215687D01*
X137158719Y-114215686D01*
X136890813Y-114185500D01*
X136890809Y-114185500D01*
X136621191Y-114185500D01*
X136621186Y-114185500D01*
X136353280Y-114215686D01*
X136353268Y-114215688D01*
X136090405Y-114275684D01*
X136090397Y-114275687D01*
X135835917Y-114364734D01*
X135593005Y-114481714D01*
X135364712Y-114625161D01*
X135153915Y-114793265D01*
X134963265Y-114983915D01*
X134795161Y-115194712D01*
X134651714Y-115423005D01*
X134534734Y-115665917D01*
X134445687Y-115920397D01*
X134445684Y-115920405D01*
X134400891Y-116116660D01*
X134366782Y-116177638D01*
X134305121Y-116210496D01*
X134235484Y-116204801D01*
X134179980Y-116162361D01*
X134156232Y-116096651D01*
X134156000Y-116089067D01*
X134156000Y-115381293D01*
X134155999Y-115381280D01*
X134145517Y-115248093D01*
X134145516Y-115248087D01*
X134090101Y-115028170D01*
X134090100Y-115028167D01*
X133996304Y-114821669D01*
X133996301Y-114821663D01*
X133867148Y-114635241D01*
X133867138Y-114635229D01*
X133706770Y-114474861D01*
X133706758Y-114474851D01*
X133520336Y-114345698D01*
X133520330Y-114345695D01*
X133313832Y-114251899D01*
X133313829Y-114251898D01*
X133093912Y-114196483D01*
X133093906Y-114196482D01*
X132960719Y-114186000D01*
X132006000Y-114186000D01*
X132006000Y-115258768D01*
X131862247Y-115236000D01*
X131649753Y-115236000D01*
X131506000Y-115258768D01*
X131506000Y-114186000D01*
X130551280Y-114186000D01*
X130418093Y-114196482D01*
X130418087Y-114196483D01*
X130198170Y-114251898D01*
X130198167Y-114251899D01*
X129991669Y-114345695D01*
X129991663Y-114345698D01*
X129805241Y-114474851D01*
X129805229Y-114474861D01*
X129644861Y-114635229D01*
X129644851Y-114635241D01*
X129515698Y-114821663D01*
X129515695Y-114821669D01*
X129421899Y-115028167D01*
X129421898Y-115028170D01*
X129366483Y-115248087D01*
X129366482Y-115248093D01*
X129356000Y-115381280D01*
X129356000Y-116336000D01*
X130428769Y-116336000D01*
X130406000Y-116479753D01*
X130406000Y-116692247D01*
X130428769Y-116836000D01*
X129356000Y-116836000D01*
X129356000Y-117790719D01*
X129366482Y-117923906D01*
X129366483Y-117923912D01*
X129421898Y-118143829D01*
X129421899Y-118143832D01*
X129515695Y-118350330D01*
X129515698Y-118350336D01*
X129644851Y-118536758D01*
X129644861Y-118536770D01*
X129805229Y-118697138D01*
X129805241Y-118697148D01*
X129991663Y-118826301D01*
X129991669Y-118826304D01*
X130198167Y-118920100D01*
X130198170Y-118920101D01*
X130418087Y-118975516D01*
X130418093Y-118975517D01*
X130551280Y-118985999D01*
X130551294Y-118986000D01*
X131506000Y-118986000D01*
X131506000Y-117913231D01*
X131649753Y-117936000D01*
X131862247Y-117936000D01*
X132006000Y-117913231D01*
X132006000Y-118986000D01*
X132960706Y-118986000D01*
X132960719Y-118985999D01*
X133093906Y-118975517D01*
X133093912Y-118975516D01*
X133313829Y-118920101D01*
X133313832Y-118920100D01*
X133520330Y-118826304D01*
X133520336Y-118826301D01*
X133706758Y-118697148D01*
X133706770Y-118697138D01*
X133867138Y-118536770D01*
X133867148Y-118536758D01*
X133996301Y-118350336D01*
X133996304Y-118350330D01*
X134090100Y-118143832D01*
X134090101Y-118143829D01*
X134145516Y-117923912D01*
X134145517Y-117923906D01*
X134155999Y-117790719D01*
X134156000Y-117790706D01*
X134156000Y-117082932D01*
X134175685Y-117015893D01*
X134228489Y-116970138D01*
X134297647Y-116960194D01*
X134361203Y-116989219D01*
X134398977Y-117047997D01*
X134400891Y-117055340D01*
X134445683Y-117251590D01*
X134445687Y-117251602D01*
X134534734Y-117506082D01*
X134651714Y-117748994D01*
X134651716Y-117748997D01*
X134795162Y-117977289D01*
X134963266Y-118188085D01*
X135153915Y-118378734D01*
X135364711Y-118546838D01*
X135593003Y-118690284D01*
X135835921Y-118807267D01*
X136025267Y-118873522D01*
X136090397Y-118896312D01*
X136090405Y-118896315D01*
X136090408Y-118896315D01*
X136090409Y-118896316D01*
X136353268Y-118956312D01*
X136621187Y-118986499D01*
X136621188Y-118986500D01*
X136621191Y-118986500D01*
X136890812Y-118986500D01*
X136890812Y-118986499D01*
X137158732Y-118956312D01*
X137421591Y-118896316D01*
X137676079Y-118807267D01*
X137918997Y-118690284D01*
X138147289Y-118546838D01*
X138358085Y-118378734D01*
X138548734Y-118188085D01*
X138716838Y-117977289D01*
X138786207Y-117866888D01*
X138838540Y-117820599D01*
X138907594Y-117809950D01*
X138971442Y-117838325D01*
X139009815Y-117896715D01*
X139015200Y-117932862D01*
X139015200Y-124949071D01*
X138995515Y-125016110D01*
X138942711Y-125061865D01*
X138873553Y-125071809D01*
X138813891Y-125046021D01*
X138805289Y-125039162D01*
X138576994Y-124895714D01*
X138334082Y-124778734D01*
X138079602Y-124689687D01*
X138079594Y-124689684D01*
X137882446Y-124644687D01*
X137816732Y-124629688D01*
X137816728Y-124629687D01*
X137816719Y-124629686D01*
X137548813Y-124599500D01*
X137548809Y-124599500D01*
X137279191Y-124599500D01*
X137279186Y-124599500D01*
X137011280Y-124629686D01*
X137011268Y-124629688D01*
X136748405Y-124689684D01*
X136748397Y-124689687D01*
X136493917Y-124778734D01*
X136251005Y-124895714D01*
X136022712Y-125039161D01*
X135811915Y-125207265D01*
X135621265Y-125397915D01*
X135453161Y-125608712D01*
X135309714Y-125837005D01*
X135192734Y-126079917D01*
X135103687Y-126334397D01*
X135103684Y-126334405D01*
X135058891Y-126530660D01*
X135024782Y-126591638D01*
X134963121Y-126624496D01*
X134893484Y-126618801D01*
X134837980Y-126576361D01*
X134814232Y-126510651D01*
X134814000Y-126503067D01*
X134814000Y-125795293D01*
X134813999Y-125795280D01*
X134803517Y-125662093D01*
X134803516Y-125662087D01*
X134748101Y-125442170D01*
X134748100Y-125442167D01*
X134654304Y-125235669D01*
X134654301Y-125235663D01*
X134525148Y-125049241D01*
X134525138Y-125049229D01*
X134364770Y-124888861D01*
X134364758Y-124888851D01*
X134178336Y-124759698D01*
X134178330Y-124759695D01*
X133971832Y-124665899D01*
X133971829Y-124665898D01*
X133751912Y-124610483D01*
X133751906Y-124610482D01*
X133618719Y-124600000D01*
X132664000Y-124600000D01*
X132664000Y-125672768D01*
X132520247Y-125650000D01*
X132307753Y-125650000D01*
X132164000Y-125672768D01*
X132164000Y-124600000D01*
X131209280Y-124600000D01*
X131076093Y-124610482D01*
X131076087Y-124610483D01*
X130856170Y-124665898D01*
X130856167Y-124665899D01*
X130649669Y-124759695D01*
X130649663Y-124759698D01*
X130463241Y-124888851D01*
X130463229Y-124888861D01*
X130302861Y-125049229D01*
X130302851Y-125049241D01*
X130173698Y-125235663D01*
X130173695Y-125235669D01*
X130079899Y-125442167D01*
X130079898Y-125442170D01*
X130024483Y-125662087D01*
X130024482Y-125662093D01*
X130014000Y-125795280D01*
X130014000Y-126750000D01*
X131086769Y-126750000D01*
X131064000Y-126893753D01*
X131064000Y-127106247D01*
X131086769Y-127250000D01*
X130014000Y-127250000D01*
X130014000Y-128204719D01*
X130024482Y-128337906D01*
X130024483Y-128337912D01*
X130079898Y-128557829D01*
X130079899Y-128557832D01*
X130173695Y-128764330D01*
X130173698Y-128764336D01*
X130302851Y-128950758D01*
X130302861Y-128950770D01*
X130463229Y-129111138D01*
X130463241Y-129111148D01*
X130649663Y-129240301D01*
X130649669Y-129240304D01*
X130856167Y-129334100D01*
X130856170Y-129334101D01*
X131076087Y-129389516D01*
X131076093Y-129389517D01*
X131209280Y-129399999D01*
X131209294Y-129400000D01*
X132164000Y-129400000D01*
X132164000Y-128327231D01*
X132307753Y-128350000D01*
X132520247Y-128350000D01*
X132664000Y-128327231D01*
X132664000Y-129400000D01*
X133618706Y-129400000D01*
X133618719Y-129399999D01*
X133751906Y-129389517D01*
X133751912Y-129389516D01*
X133971829Y-129334101D01*
X133971832Y-129334100D01*
X134178330Y-129240304D01*
X134178336Y-129240301D01*
X134364758Y-129111148D01*
X134364770Y-129111138D01*
X134525138Y-128950770D01*
X134525148Y-128950758D01*
X134654301Y-128764336D01*
X134654304Y-128764330D01*
X134748100Y-128557832D01*
X134748101Y-128557829D01*
X134803516Y-128337912D01*
X134803517Y-128337906D01*
X134813999Y-128204719D01*
X134814000Y-128204706D01*
X134814000Y-127496932D01*
X134833685Y-127429893D01*
X134886489Y-127384138D01*
X134955647Y-127374194D01*
X135019203Y-127403219D01*
X135056977Y-127461997D01*
X135058891Y-127469340D01*
X135103683Y-127665590D01*
X135103687Y-127665602D01*
X135192734Y-127920082D01*
X135309714Y-128162994D01*
X135309716Y-128162997D01*
X135453162Y-128391289D01*
X135621266Y-128602085D01*
X135811915Y-128792734D01*
X136022711Y-128960838D01*
X136251003Y-129104284D01*
X136493921Y-129221267D01*
X136672608Y-129283792D01*
X136748397Y-129310312D01*
X136748405Y-129310315D01*
X136748408Y-129310315D01*
X136748409Y-129310316D01*
X137011268Y-129370312D01*
X137022305Y-129371555D01*
X137086719Y-129398620D01*
X137126275Y-129456214D01*
X137128415Y-129526051D01*
X137096105Y-129582457D01*
X136411384Y-130267181D01*
X136350061Y-130300666D01*
X136323703Y-130303500D01*
X124886535Y-130303500D01*
X124819496Y-130283815D01*
X124773741Y-130231011D01*
X124763177Y-130192102D01*
X124762663Y-130187071D01*
X124758999Y-130151203D01*
X124703814Y-129984666D01*
X124611712Y-129835344D01*
X124487656Y-129711288D01*
X124338334Y-129619186D01*
X124338333Y-129619185D01*
X124332878Y-129615821D01*
X124286154Y-129563873D01*
X124274931Y-129494910D01*
X124302775Y-129430828D01*
X124310272Y-129422623D01*
X124449104Y-129283792D01*
X124471811Y-129252539D01*
X124574048Y-129111820D01*
X124574047Y-129111820D01*
X124574051Y-129111816D01*
X124670557Y-128922412D01*
X124736246Y-128720243D01*
X124769500Y-128510287D01*
X124769500Y-128297713D01*
X124736246Y-128087757D01*
X124670557Y-127885588D01*
X124574051Y-127696184D01*
X124574049Y-127696181D01*
X124574048Y-127696179D01*
X124449109Y-127524213D01*
X124298790Y-127373894D01*
X124298785Y-127373890D01*
X124195647Y-127298956D01*
X124133781Y-127254008D01*
X124091115Y-127198678D01*
X124085136Y-127129065D01*
X124117741Y-127067270D01*
X124133781Y-127053371D01*
X124298466Y-126933721D01*
X124448723Y-126783464D01*
X124448727Y-126783459D01*
X124573620Y-126611557D01*
X124670095Y-126422217D01*
X124735757Y-126220129D01*
X124735757Y-126220126D01*
X124746231Y-126154000D01*
X123698146Y-126154000D01*
X123736630Y-126087343D01*
X123769000Y-125966535D01*
X123769000Y-125841465D01*
X123736630Y-125720657D01*
X123698146Y-125654000D01*
X124746231Y-125654000D01*
X124735757Y-125587873D01*
X124735757Y-125587870D01*
X124670095Y-125385782D01*
X124573620Y-125196442D01*
X124448727Y-125024540D01*
X124448723Y-125024535D01*
X124298464Y-124874276D01*
X124298459Y-124874272D01*
X124126557Y-124749379D01*
X123937217Y-124652904D01*
X123735128Y-124587242D01*
X123544000Y-124556969D01*
X123544000Y-125499854D01*
X123477343Y-125461370D01*
X123356535Y-125429000D01*
X123231465Y-125429000D01*
X123110657Y-125461370D01*
X123044000Y-125499854D01*
X123044000Y-124556969D01*
X122852872Y-124587242D01*
X122852869Y-124587242D01*
X122650782Y-124652904D01*
X122461442Y-124749379D01*
X122289540Y-124874272D01*
X122289535Y-124874276D01*
X122139276Y-125024535D01*
X122139272Y-125024540D01*
X122014379Y-125196442D01*
X121917904Y-125385782D01*
X121852242Y-125587870D01*
X121852242Y-125587873D01*
X121841769Y-125654000D01*
X122889854Y-125654000D01*
X122851370Y-125720657D01*
X122819000Y-125841465D01*
X122819000Y-125966535D01*
X122851370Y-126087343D01*
X122889854Y-126154000D01*
X121841769Y-126154000D01*
X121852242Y-126220126D01*
X121852242Y-126220129D01*
X121917904Y-126422217D01*
X122014379Y-126611557D01*
X122139272Y-126783459D01*
X122139276Y-126783464D01*
X122289535Y-126933723D01*
X122289540Y-126933727D01*
X122454218Y-127053372D01*
X122496884Y-127108701D01*
X122502863Y-127178315D01*
X122470258Y-127240110D01*
X122454218Y-127254008D01*
X122289214Y-127373890D01*
X122289209Y-127373894D01*
X122138890Y-127524213D01*
X122013951Y-127696179D01*
X121917444Y-127885585D01*
X121851753Y-128087760D01*
X121818500Y-128297713D01*
X121818500Y-128510286D01*
X121851721Y-128720038D01*
X121851754Y-128720243D01*
X121867530Y-128768797D01*
X121917444Y-128922414D01*
X122013951Y-129111820D01*
X122138890Y-129283786D01*
X122277705Y-129422601D01*
X122311190Y-129483924D01*
X122306206Y-129553616D01*
X122264334Y-129609549D01*
X122255121Y-129615821D01*
X122100342Y-129711289D01*
X121976289Y-129835342D01*
X121884187Y-129984663D01*
X121884185Y-129984668D01*
X121881169Y-129993771D01*
X121829001Y-130151203D01*
X121829001Y-130151204D01*
X121829000Y-130151204D01*
X121818500Y-130253983D01*
X121818500Y-131554001D01*
X121818501Y-131554018D01*
X121829000Y-131656796D01*
X121829001Y-131656799D01*
X121884185Y-131823331D01*
X121884187Y-131823336D01*
X121894337Y-131839792D01*
X121976288Y-131972656D01*
X122100344Y-132096712D01*
X122249666Y-132188814D01*
X122416203Y-132243999D01*
X122518991Y-132254500D01*
X124069008Y-132254499D01*
X124171797Y-132243999D01*
X124338334Y-132188814D01*
X124487656Y-132096712D01*
X124611712Y-131972656D01*
X124703814Y-131823334D01*
X124758999Y-131656797D01*
X124763177Y-131615896D01*
X124789573Y-131551207D01*
X124846753Y-131511055D01*
X124886535Y-131504500D01*
X128449392Y-131504500D01*
X128516431Y-131524185D01*
X128562186Y-131576989D01*
X128572130Y-131646147D01*
X128567323Y-131666818D01*
X128525523Y-131795461D01*
X128525523Y-131795464D01*
X128493500Y-131997648D01*
X128493500Y-132202351D01*
X128525522Y-132404534D01*
X128588781Y-132599223D01*
X128681715Y-132781613D01*
X128802028Y-132947213D01*
X128946786Y-133091971D01*
X129101749Y-133204556D01*
X129112390Y-133212287D01*
X129199042Y-133256438D01*
X129215874Y-133265015D01*
X129266670Y-133312990D01*
X129283465Y-133380811D01*
X129260927Y-133446946D01*
X129206212Y-133490397D01*
X129159579Y-133499500D01*
X120624500Y-133499500D01*
X120557461Y-133479815D01*
X120511706Y-133427011D01*
X120500500Y-133375500D01*
X120500500Y-117375713D01*
X121818500Y-117375713D01*
X121818500Y-117588286D01*
X121843953Y-117748994D01*
X121851754Y-117798243D01*
X121909929Y-117977287D01*
X121917444Y-118000414D01*
X122013951Y-118189820D01*
X122138890Y-118361786D01*
X122277705Y-118500601D01*
X122311190Y-118561924D01*
X122306206Y-118631616D01*
X122264334Y-118687549D01*
X122255121Y-118693821D01*
X122100342Y-118789289D01*
X121976289Y-118913342D01*
X121884187Y-119062663D01*
X121884186Y-119062666D01*
X121829001Y-119229203D01*
X121829001Y-119229204D01*
X121829000Y-119229204D01*
X121818500Y-119331983D01*
X121818500Y-120632001D01*
X121818501Y-120632018D01*
X121829000Y-120734796D01*
X121829001Y-120734799D01*
X121858432Y-120823614D01*
X121884186Y-120901334D01*
X121976288Y-121050656D01*
X122100344Y-121174712D01*
X122249666Y-121266814D01*
X122416203Y-121321999D01*
X122518991Y-121332500D01*
X124069008Y-121332499D01*
X124171797Y-121321999D01*
X124338334Y-121266814D01*
X124487656Y-121174712D01*
X124611712Y-121050656D01*
X124703814Y-120901334D01*
X124758999Y-120734797D01*
X124769500Y-120632009D01*
X124769499Y-119331992D01*
X124758999Y-119229203D01*
X124703814Y-119062666D01*
X124611712Y-118913344D01*
X124487656Y-118789288D01*
X124338334Y-118697186D01*
X124338333Y-118697185D01*
X124332878Y-118693821D01*
X124286154Y-118641873D01*
X124274931Y-118572910D01*
X124302775Y-118508828D01*
X124310272Y-118500623D01*
X124449104Y-118361792D01*
X124574051Y-118189816D01*
X124670557Y-118000412D01*
X124736246Y-117798243D01*
X124769500Y-117588287D01*
X124769500Y-117375713D01*
X124736246Y-117165757D01*
X124670557Y-116963588D01*
X124574051Y-116774184D01*
X124574049Y-116774181D01*
X124574048Y-116774179D01*
X124449109Y-116602213D01*
X124298790Y-116451894D01*
X124298785Y-116451890D01*
X124133781Y-116332008D01*
X124091115Y-116276678D01*
X124085136Y-116207065D01*
X124117741Y-116145270D01*
X124133781Y-116131371D01*
X124298466Y-116011721D01*
X124448723Y-115861464D01*
X124448727Y-115861459D01*
X124573620Y-115689557D01*
X124670095Y-115500217D01*
X124721980Y-115340533D01*
X124721980Y-115340532D01*
X124735756Y-115298133D01*
X124735757Y-115298126D01*
X124746231Y-115232000D01*
X123698146Y-115232000D01*
X123736630Y-115165343D01*
X123769000Y-115044535D01*
X123769000Y-114919465D01*
X123736630Y-114798657D01*
X123698146Y-114732000D01*
X124746231Y-114732000D01*
X124735757Y-114665873D01*
X124735757Y-114665870D01*
X124670095Y-114463782D01*
X124573620Y-114274442D01*
X124448727Y-114102540D01*
X124448723Y-114102535D01*
X124298464Y-113952276D01*
X124298459Y-113952272D01*
X124126557Y-113827379D01*
X123937217Y-113730904D01*
X123735128Y-113665242D01*
X123544000Y-113634969D01*
X123544000Y-114577854D01*
X123477343Y-114539370D01*
X123356535Y-114507000D01*
X123231465Y-114507000D01*
X123110657Y-114539370D01*
X123044000Y-114577854D01*
X123044000Y-113634969D01*
X122852872Y-113665242D01*
X122852869Y-113665242D01*
X122650782Y-113730904D01*
X122461442Y-113827379D01*
X122289540Y-113952272D01*
X122289535Y-113952276D01*
X122139276Y-114102535D01*
X122139272Y-114102540D01*
X122014379Y-114274442D01*
X121917904Y-114463782D01*
X121852242Y-114665870D01*
X121852242Y-114665873D01*
X121841769Y-114732000D01*
X122889854Y-114732000D01*
X122851370Y-114798657D01*
X122819000Y-114919465D01*
X122819000Y-115044535D01*
X122851370Y-115165343D01*
X122889854Y-115232000D01*
X121841769Y-115232000D01*
X121852242Y-115298126D01*
X121852242Y-115298129D01*
X121917904Y-115500217D01*
X122014379Y-115689557D01*
X122139272Y-115861459D01*
X122139276Y-115861464D01*
X122289535Y-116011723D01*
X122289540Y-116011727D01*
X122454218Y-116131372D01*
X122496884Y-116186701D01*
X122502863Y-116256315D01*
X122470258Y-116318110D01*
X122454218Y-116332008D01*
X122289214Y-116451890D01*
X122289209Y-116451894D01*
X122138890Y-116602213D01*
X122013951Y-116774179D01*
X121917444Y-116963585D01*
X121851753Y-117165760D01*
X121818500Y-117375713D01*
X120500500Y-117375713D01*
X120500500Y-106453713D01*
X121818500Y-106453713D01*
X121818500Y-106666286D01*
X121851753Y-106876239D01*
X121917444Y-107078414D01*
X122013951Y-107267820D01*
X122138890Y-107439786D01*
X122277705Y-107578601D01*
X122311190Y-107639924D01*
X122306206Y-107709616D01*
X122264334Y-107765549D01*
X122255121Y-107771821D01*
X122100342Y-107867289D01*
X121976289Y-107991342D01*
X121884187Y-108140663D01*
X121884186Y-108140666D01*
X121829001Y-108307203D01*
X121829001Y-108307204D01*
X121829000Y-108307204D01*
X121818500Y-108409983D01*
X121818500Y-109710001D01*
X121818501Y-109710018D01*
X121829000Y-109812796D01*
X121829001Y-109812799D01*
X121846336Y-109865111D01*
X121884186Y-109979334D01*
X121976288Y-110128656D01*
X122100344Y-110252712D01*
X122249666Y-110344814D01*
X122416203Y-110399999D01*
X122518991Y-110410500D01*
X124069008Y-110410499D01*
X124171797Y-110399999D01*
X124338334Y-110344814D01*
X124487656Y-110252712D01*
X124611712Y-110128656D01*
X124703814Y-109979334D01*
X124758999Y-109812797D01*
X124769500Y-109710009D01*
X124769499Y-108409992D01*
X124764567Y-108361715D01*
X124758999Y-108307203D01*
X124758998Y-108307200D01*
X124748581Y-108275763D01*
X124703814Y-108140666D01*
X124611712Y-107991344D01*
X124487656Y-107867288D01*
X124338334Y-107775186D01*
X124338333Y-107775185D01*
X124332878Y-107771821D01*
X124286154Y-107719873D01*
X124274931Y-107650910D01*
X124302775Y-107586828D01*
X124310272Y-107578623D01*
X124449104Y-107439792D01*
X124449420Y-107439358D01*
X124574048Y-107267820D01*
X124574050Y-107267817D01*
X124574051Y-107267816D01*
X124670557Y-107078412D01*
X124736246Y-106876243D01*
X124769500Y-106666287D01*
X124769500Y-106453713D01*
X124736246Y-106243757D01*
X124670557Y-106041588D01*
X124574051Y-105852184D01*
X124574049Y-105852181D01*
X124574048Y-105852179D01*
X124449109Y-105680213D01*
X124298790Y-105529894D01*
X124298785Y-105529890D01*
X124133781Y-105410008D01*
X124091115Y-105354678D01*
X124085136Y-105285065D01*
X124117741Y-105223270D01*
X124133781Y-105209371D01*
X124298466Y-105089721D01*
X124448723Y-104939464D01*
X124448727Y-104939459D01*
X124573620Y-104767557D01*
X124670095Y-104578217D01*
X124735757Y-104376129D01*
X124735757Y-104376126D01*
X124746231Y-104310000D01*
X123698146Y-104310000D01*
X123736630Y-104243343D01*
X123769000Y-104122535D01*
X123769000Y-103997465D01*
X123736630Y-103876657D01*
X123698146Y-103810000D01*
X124746231Y-103810000D01*
X124735757Y-103743873D01*
X124735757Y-103743870D01*
X124670095Y-103541782D01*
X124573620Y-103352442D01*
X124448727Y-103180540D01*
X124448723Y-103180535D01*
X124298464Y-103030276D01*
X124298459Y-103030272D01*
X124126557Y-102905379D01*
X123937217Y-102808904D01*
X123735128Y-102743242D01*
X123544000Y-102712969D01*
X123544000Y-103655854D01*
X123477343Y-103617370D01*
X123356535Y-103585000D01*
X123231465Y-103585000D01*
X123110657Y-103617370D01*
X123044000Y-103655854D01*
X123044000Y-102712969D01*
X122852872Y-102743242D01*
X122852869Y-102743242D01*
X122650782Y-102808904D01*
X122461442Y-102905379D01*
X122289540Y-103030272D01*
X122289535Y-103030276D01*
X122139276Y-103180535D01*
X122139272Y-103180540D01*
X122014379Y-103352442D01*
X121917904Y-103541782D01*
X121852242Y-103743870D01*
X121852242Y-103743873D01*
X121841769Y-103810000D01*
X122889854Y-103810000D01*
X122851370Y-103876657D01*
X122819000Y-103997465D01*
X122819000Y-104122535D01*
X122851370Y-104243343D01*
X122889854Y-104310000D01*
X121841769Y-104310000D01*
X121852242Y-104376126D01*
X121852242Y-104376129D01*
X121917904Y-104578217D01*
X122014379Y-104767557D01*
X122139272Y-104939459D01*
X122139276Y-104939464D01*
X122289535Y-105089723D01*
X122289540Y-105089727D01*
X122454218Y-105209372D01*
X122496884Y-105264701D01*
X122502863Y-105334315D01*
X122470258Y-105396110D01*
X122454218Y-105410008D01*
X122289214Y-105529890D01*
X122289209Y-105529894D01*
X122138890Y-105680213D01*
X122013951Y-105852179D01*
X121917444Y-106041585D01*
X121851753Y-106243760D01*
X121818500Y-106453713D01*
X120500500Y-106453713D01*
X120500500Y-95531713D01*
X121818500Y-95531713D01*
X121818500Y-95744287D01*
X121851754Y-95954243D01*
X121899137Y-96100073D01*
X121917444Y-96156414D01*
X122013951Y-96345820D01*
X122138890Y-96517786D01*
X122277705Y-96656601D01*
X122311190Y-96717924D01*
X122306206Y-96787616D01*
X122264334Y-96843549D01*
X122255121Y-96849821D01*
X122100342Y-96945289D01*
X121976289Y-97069342D01*
X121884187Y-97218663D01*
X121884186Y-97218666D01*
X121829001Y-97385203D01*
X121829001Y-97385204D01*
X121829000Y-97385204D01*
X121818500Y-97487983D01*
X121818500Y-98788001D01*
X121818501Y-98788018D01*
X121829000Y-98890796D01*
X121829001Y-98890799D01*
X121884185Y-99057331D01*
X121884186Y-99057334D01*
X121976288Y-99206656D01*
X122100344Y-99330712D01*
X122249666Y-99422814D01*
X122416203Y-99477999D01*
X122518991Y-99488500D01*
X124069008Y-99488499D01*
X124171797Y-99477999D01*
X124338334Y-99422814D01*
X124487656Y-99330712D01*
X124611712Y-99206656D01*
X124703814Y-99057334D01*
X124758999Y-98890797D01*
X124769500Y-98788009D01*
X124769499Y-97487992D01*
X124758999Y-97385203D01*
X124703814Y-97218666D01*
X124611712Y-97069344D01*
X124487656Y-96945288D01*
X124338334Y-96853186D01*
X124338333Y-96853185D01*
X124332878Y-96849821D01*
X124286154Y-96797873D01*
X124274931Y-96728910D01*
X124302775Y-96664828D01*
X124310272Y-96656623D01*
X124449104Y-96517792D01*
X124574051Y-96345816D01*
X124670557Y-96156412D01*
X124736246Y-95954243D01*
X124769500Y-95744287D01*
X124769500Y-95531713D01*
X124736246Y-95321757D01*
X124670557Y-95119588D01*
X124574051Y-94930184D01*
X124574049Y-94930181D01*
X124574048Y-94930179D01*
X124449109Y-94758213D01*
X124298790Y-94607894D01*
X124298785Y-94607890D01*
X124133781Y-94488008D01*
X124091115Y-94432678D01*
X124085136Y-94363065D01*
X124117741Y-94301270D01*
X124133781Y-94287371D01*
X124298466Y-94167721D01*
X124448723Y-94017464D01*
X124448727Y-94017459D01*
X124573620Y-93845557D01*
X124670095Y-93656217D01*
X124735757Y-93454129D01*
X124735757Y-93454126D01*
X124746231Y-93388000D01*
X123698146Y-93388000D01*
X123736630Y-93321343D01*
X123769000Y-93200535D01*
X123769000Y-93075465D01*
X123736630Y-92954657D01*
X123698146Y-92888000D01*
X124746231Y-92888000D01*
X124735757Y-92821873D01*
X124735757Y-92821870D01*
X124670095Y-92619782D01*
X124573620Y-92430442D01*
X124448727Y-92258540D01*
X124448723Y-92258535D01*
X124298464Y-92108276D01*
X124298459Y-92108272D01*
X124126557Y-91983379D01*
X123937217Y-91886904D01*
X123735128Y-91821242D01*
X123544000Y-91790969D01*
X123544000Y-92733854D01*
X123477343Y-92695370D01*
X123356535Y-92663000D01*
X123231465Y-92663000D01*
X123110657Y-92695370D01*
X123044000Y-92733854D01*
X123044000Y-91790969D01*
X122852872Y-91821242D01*
X122852869Y-91821242D01*
X122650782Y-91886904D01*
X122461442Y-91983379D01*
X122289540Y-92108272D01*
X122289535Y-92108276D01*
X122139276Y-92258535D01*
X122139272Y-92258540D01*
X122014379Y-92430442D01*
X121917904Y-92619782D01*
X121852242Y-92821870D01*
X121852242Y-92821873D01*
X121841769Y-92888000D01*
X122889854Y-92888000D01*
X122851370Y-92954657D01*
X122819000Y-93075465D01*
X122819000Y-93200535D01*
X122851370Y-93321343D01*
X122889854Y-93388000D01*
X121841769Y-93388000D01*
X121852242Y-93454126D01*
X121852242Y-93454129D01*
X121917904Y-93656217D01*
X122014379Y-93845557D01*
X122139272Y-94017459D01*
X122139276Y-94017464D01*
X122289535Y-94167723D01*
X122289540Y-94167727D01*
X122454218Y-94287372D01*
X122496884Y-94342701D01*
X122502863Y-94412315D01*
X122470258Y-94474110D01*
X122454218Y-94488008D01*
X122289214Y-94607890D01*
X122289209Y-94607894D01*
X122138890Y-94758213D01*
X122013951Y-94930179D01*
X121917444Y-95119585D01*
X121851753Y-95321760D01*
X121823808Y-95498197D01*
X121818500Y-95531713D01*
X120500500Y-95531713D01*
X120500500Y-84562713D01*
X121818500Y-84562713D01*
X121818500Y-84775287D01*
X121823917Y-84809491D01*
X121849333Y-84969961D01*
X121851754Y-84985243D01*
X121912447Y-85172037D01*
X121917444Y-85187414D01*
X122013951Y-85376820D01*
X122138890Y-85548786D01*
X122277705Y-85687601D01*
X122311190Y-85748924D01*
X122306206Y-85818616D01*
X122264334Y-85874549D01*
X122255121Y-85880821D01*
X122100342Y-85976289D01*
X121976289Y-86100342D01*
X121884187Y-86249663D01*
X121884185Y-86249668D01*
X121871445Y-86288115D01*
X121829001Y-86416203D01*
X121829001Y-86416204D01*
X121829000Y-86416204D01*
X121818500Y-86518983D01*
X121818500Y-87819001D01*
X121818501Y-87819018D01*
X121829000Y-87921796D01*
X121829001Y-87921799D01*
X121884185Y-88088331D01*
X121884187Y-88088336D01*
X121919069Y-88144888D01*
X121976288Y-88237656D01*
X122100344Y-88361712D01*
X122249666Y-88453814D01*
X122416203Y-88508999D01*
X122518991Y-88519500D01*
X124069008Y-88519499D01*
X124171797Y-88508999D01*
X124338334Y-88453814D01*
X124487656Y-88361712D01*
X124611712Y-88237656D01*
X124703814Y-88088334D01*
X124758999Y-87921797D01*
X124769500Y-87819009D01*
X124769499Y-86518992D01*
X124758999Y-86416203D01*
X124703814Y-86249666D01*
X124611712Y-86100344D01*
X124487656Y-85976288D01*
X124338334Y-85884186D01*
X124338333Y-85884185D01*
X124332878Y-85880821D01*
X124286154Y-85828873D01*
X124274931Y-85759910D01*
X124302775Y-85695828D01*
X124310272Y-85687623D01*
X124449104Y-85548792D01*
X124476899Y-85510536D01*
X124574048Y-85376820D01*
X124574047Y-85376820D01*
X124574051Y-85376816D01*
X124670557Y-85187412D01*
X124736246Y-84985243D01*
X124769500Y-84775287D01*
X124769500Y-84562713D01*
X124736246Y-84352757D01*
X124670557Y-84150588D01*
X124574051Y-83961184D01*
X124574049Y-83961181D01*
X124574048Y-83961179D01*
X124449109Y-83789213D01*
X124298790Y-83638894D01*
X124298785Y-83638890D01*
X124133781Y-83519008D01*
X124091115Y-83463678D01*
X124085136Y-83394065D01*
X124117741Y-83332270D01*
X124133781Y-83318371D01*
X124298466Y-83198721D01*
X124448723Y-83048464D01*
X124448727Y-83048459D01*
X124573620Y-82876557D01*
X124670095Y-82687217D01*
X124735757Y-82485129D01*
X124735757Y-82485126D01*
X124746231Y-82419000D01*
X123698146Y-82419000D01*
X123736630Y-82352343D01*
X123769000Y-82231535D01*
X123769000Y-82106465D01*
X123736630Y-81985657D01*
X123698146Y-81919000D01*
X124746231Y-81919000D01*
X124735757Y-81852873D01*
X124735757Y-81852870D01*
X124670095Y-81650782D01*
X124573620Y-81461442D01*
X124448727Y-81289540D01*
X124448723Y-81289535D01*
X124298464Y-81139276D01*
X124298459Y-81139272D01*
X124126557Y-81014379D01*
X123937217Y-80917904D01*
X123735128Y-80852242D01*
X123544000Y-80821969D01*
X123544000Y-81764854D01*
X123477343Y-81726370D01*
X123356535Y-81694000D01*
X123231465Y-81694000D01*
X123110657Y-81726370D01*
X123044000Y-81764854D01*
X123044000Y-80821969D01*
X122852872Y-80852242D01*
X122852869Y-80852242D01*
X122650782Y-80917904D01*
X122461442Y-81014379D01*
X122289540Y-81139272D01*
X122289535Y-81139276D01*
X122139276Y-81289535D01*
X122139272Y-81289540D01*
X122014379Y-81461442D01*
X121917904Y-81650782D01*
X121852242Y-81852870D01*
X121852242Y-81852873D01*
X121841769Y-81919000D01*
X122889854Y-81919000D01*
X122851370Y-81985657D01*
X122819000Y-82106465D01*
X122819000Y-82231535D01*
X122851370Y-82352343D01*
X122889854Y-82419000D01*
X121841769Y-82419000D01*
X121852242Y-82485126D01*
X121852242Y-82485129D01*
X121917904Y-82687217D01*
X122014379Y-82876557D01*
X122139272Y-83048459D01*
X122139276Y-83048464D01*
X122289535Y-83198723D01*
X122289540Y-83198727D01*
X122454218Y-83318372D01*
X122496884Y-83373701D01*
X122502863Y-83443315D01*
X122470258Y-83505110D01*
X122454218Y-83519008D01*
X122289214Y-83638890D01*
X122289209Y-83638894D01*
X122138890Y-83789213D01*
X122013951Y-83961179D01*
X121917444Y-84150585D01*
X121851753Y-84352760D01*
X121831317Y-84481792D01*
X121818500Y-84562713D01*
X120500500Y-84562713D01*
X120500500Y-79624500D01*
X120520185Y-79557461D01*
X120572989Y-79511706D01*
X120624500Y-79500500D01*
X138573479Y-79500500D01*
X138640518Y-79520185D01*
G37*
G04 #@! TD.AperFunction*
G04 #@! TA.AperFunction,Conductor*
G36*
X158442539Y-79520185D02*
G01*
X158488294Y-79572989D01*
X158499500Y-79624500D01*
X158499500Y-133375500D01*
X158479815Y-133442539D01*
X158427011Y-133488294D01*
X158375500Y-133499500D01*
X140588421Y-133499500D01*
X140521382Y-133479815D01*
X140475627Y-133427011D01*
X140465683Y-133357853D01*
X140494708Y-133294297D01*
X140532126Y-133265015D01*
X140543785Y-133259073D01*
X140635610Y-133212287D01*
X140728590Y-133144732D01*
X140801213Y-133091971D01*
X140801215Y-133091968D01*
X140801219Y-133091966D01*
X140945966Y-132947219D01*
X140945968Y-132947215D01*
X140945971Y-132947213D01*
X140998732Y-132874590D01*
X141066287Y-132781610D01*
X141159220Y-132599219D01*
X141222477Y-132404534D01*
X141254500Y-132202352D01*
X141254500Y-131997648D01*
X141235760Y-131879331D01*
X141222477Y-131795465D01*
X141173960Y-131646147D01*
X141159220Y-131600781D01*
X141159218Y-131600778D01*
X141159218Y-131600776D01*
X141113502Y-131511055D01*
X141066287Y-131418390D01*
X141041679Y-131384520D01*
X140945971Y-131252786D01*
X140801219Y-131108034D01*
X140801211Y-131108028D01*
X140670413Y-131012998D01*
X140627749Y-130957671D01*
X140619300Y-130912682D01*
X140619300Y-124545296D01*
X140638985Y-124478257D01*
X140655614Y-124457620D01*
X143677158Y-121436075D01*
X143738479Y-121402592D01*
X143803151Y-121405825D01*
X143817466Y-121410477D01*
X144019648Y-121442500D01*
X144019649Y-121442500D01*
X144224351Y-121442500D01*
X144224352Y-121442500D01*
X144426534Y-121410477D01*
X144621219Y-121347220D01*
X144803610Y-121254287D01*
X144896590Y-121186732D01*
X144969213Y-121133971D01*
X144969215Y-121133968D01*
X144969219Y-121133966D01*
X145113966Y-120989219D01*
X145113968Y-120989215D01*
X145113971Y-120989213D01*
X145234284Y-120823614D01*
X145234283Y-120823614D01*
X145234287Y-120823610D01*
X145281516Y-120730917D01*
X145329489Y-120680123D01*
X145397310Y-120663328D01*
X145463445Y-120685865D01*
X145502483Y-120730917D01*
X145530685Y-120786265D01*
X145549715Y-120823614D01*
X145670028Y-120989213D01*
X145814786Y-121133971D01*
X145935226Y-121221474D01*
X145980390Y-121254287D01*
X146089256Y-121309757D01*
X146162776Y-121347218D01*
X146162778Y-121347218D01*
X146162781Y-121347220D01*
X146238012Y-121371664D01*
X146357465Y-121410477D01*
X146377917Y-121413716D01*
X146464899Y-121427493D01*
X146528032Y-121457421D01*
X146564964Y-121516732D01*
X146569500Y-121549965D01*
X146569500Y-122223500D01*
X146549815Y-122290539D01*
X146497011Y-122336294D01*
X146445501Y-122347500D01*
X146272130Y-122347500D01*
X146272123Y-122347501D01*
X146212516Y-122353908D01*
X146077671Y-122404202D01*
X146077664Y-122404206D01*
X145962455Y-122490452D01*
X145962452Y-122490455D01*
X145876206Y-122605664D01*
X145876203Y-122605669D01*
X145827189Y-122737083D01*
X145785317Y-122793016D01*
X145719853Y-122817433D01*
X145651580Y-122802581D01*
X145623326Y-122781430D01*
X145509786Y-122667890D01*
X145337820Y-122542951D01*
X145148414Y-122446444D01*
X145148413Y-122446443D01*
X145148412Y-122446443D01*
X144946243Y-122380754D01*
X144946241Y-122380753D01*
X144946240Y-122380753D01*
X144784957Y-122355208D01*
X144736287Y-122347500D01*
X144523713Y-122347500D01*
X144475042Y-122355208D01*
X144313760Y-122380753D01*
X144111585Y-122446444D01*
X143922179Y-122542951D01*
X143750213Y-122667890D01*
X143599890Y-122818213D01*
X143474951Y-122990179D01*
X143378444Y-123179585D01*
X143312753Y-123381760D01*
X143279500Y-123591713D01*
X143279500Y-123804286D01*
X143312753Y-124014239D01*
X143378444Y-124216414D01*
X143474951Y-124405820D01*
X143599890Y-124577786D01*
X143750213Y-124728109D01*
X143922179Y-124853048D01*
X143922181Y-124853049D01*
X143922184Y-124853051D01*
X144111588Y-124949557D01*
X144313757Y-125015246D01*
X144523713Y-125048500D01*
X144523714Y-125048500D01*
X144736286Y-125048500D01*
X144736287Y-125048500D01*
X144946243Y-125015246D01*
X145148412Y-124949557D01*
X145337816Y-124853051D01*
X145466306Y-124759698D01*
X145509784Y-124728110D01*
X145509784Y-124728109D01*
X145509792Y-124728104D01*
X145623329Y-124614566D01*
X145684648Y-124581084D01*
X145754340Y-124586068D01*
X145810274Y-124627939D01*
X145827189Y-124658917D01*
X145876202Y-124790328D01*
X145876206Y-124790335D01*
X145962452Y-124905544D01*
X145962455Y-124905547D01*
X146077664Y-124991793D01*
X146077671Y-124991797D01*
X146212517Y-125042091D01*
X146212516Y-125042091D01*
X146219444Y-125042835D01*
X146272127Y-125048500D01*
X147597200Y-125048499D01*
X147664239Y-125068184D01*
X147709994Y-125120987D01*
X147721200Y-125172499D01*
X147721200Y-129185500D01*
X147701515Y-129252539D01*
X147648711Y-129298294D01*
X147597200Y-129309500D01*
X146923998Y-129309500D01*
X146923980Y-129309501D01*
X146821203Y-129320000D01*
X146821200Y-129320001D01*
X146654668Y-129375185D01*
X146654663Y-129375187D01*
X146505342Y-129467289D01*
X146381289Y-129591342D01*
X146285821Y-129746121D01*
X146233873Y-129792845D01*
X146164910Y-129804068D01*
X146100828Y-129776224D01*
X146092601Y-129768705D01*
X145953786Y-129629890D01*
X145781820Y-129504951D01*
X145592414Y-129408444D01*
X145592413Y-129408443D01*
X145592412Y-129408443D01*
X145390243Y-129342754D01*
X145390241Y-129342753D01*
X145390240Y-129342753D01*
X145228957Y-129317208D01*
X145180287Y-129309500D01*
X144967713Y-129309500D01*
X144919042Y-129317208D01*
X144757760Y-129342753D01*
X144555585Y-129408444D01*
X144366179Y-129504951D01*
X144194213Y-129629890D01*
X144043890Y-129780213D01*
X143918951Y-129952179D01*
X143822444Y-130141585D01*
X143756753Y-130343760D01*
X143723500Y-130553713D01*
X143723500Y-131066286D01*
X143753038Y-131252786D01*
X143756754Y-131276243D01*
X143817622Y-131463576D01*
X143822444Y-131478414D01*
X143918951Y-131667820D01*
X144043890Y-131839786D01*
X144194213Y-131990109D01*
X144366179Y-132115048D01*
X144366181Y-132115049D01*
X144366184Y-132115051D01*
X144555588Y-132211557D01*
X144757757Y-132277246D01*
X144967713Y-132310500D01*
X144967714Y-132310500D01*
X145180286Y-132310500D01*
X145180287Y-132310500D01*
X145390243Y-132277246D01*
X145592412Y-132211557D01*
X145781816Y-132115051D01*
X145953792Y-131990104D01*
X146092604Y-131851291D01*
X146153923Y-131817809D01*
X146223615Y-131822793D01*
X146279549Y-131864664D01*
X146285821Y-131873878D01*
X146289185Y-131879333D01*
X146289186Y-131879334D01*
X146381288Y-132028656D01*
X146505344Y-132152712D01*
X146654666Y-132244814D01*
X146821203Y-132299999D01*
X146923991Y-132310500D01*
X148224008Y-132310499D01*
X148326797Y-132299999D01*
X148493334Y-132244814D01*
X148642656Y-132152712D01*
X148766712Y-132028656D01*
X148858814Y-131879334D01*
X148913999Y-131712797D01*
X148924500Y-131610009D01*
X148924499Y-130009992D01*
X148922841Y-129993770D01*
X148922200Y-129981169D01*
X148922200Y-121963060D01*
X148922201Y-121963047D01*
X148922201Y-121794944D01*
X148922201Y-121794943D01*
X148881277Y-121642216D01*
X148862050Y-121608914D01*
X148845578Y-121541016D01*
X148868430Y-121474989D01*
X148923351Y-121431799D01*
X148988837Y-121424443D01*
X149099684Y-121442000D01*
X149304317Y-121442000D01*
X149506417Y-121409990D01*
X149701031Y-121346755D01*
X149883349Y-121253859D01*
X149927921Y-121221474D01*
X149248447Y-120542000D01*
X149254661Y-120542000D01*
X149356394Y-120514741D01*
X149447606Y-120462080D01*
X149522080Y-120387606D01*
X149574741Y-120296394D01*
X149602000Y-120194661D01*
X149602000Y-120188447D01*
X150281474Y-120867921D01*
X150313861Y-120823347D01*
X150313864Y-120823342D01*
X150323515Y-120804401D01*
X150371488Y-120753604D01*
X150439309Y-120736808D01*
X150505444Y-120759344D01*
X150548896Y-120814059D01*
X150558000Y-120860694D01*
X150558000Y-123385830D01*
X150557999Y-123385848D01*
X150557999Y-123551554D01*
X150557998Y-123551554D01*
X150598923Y-123704285D01*
X150627858Y-123754400D01*
X150627859Y-123754404D01*
X150627860Y-123754404D01*
X150656659Y-123804287D01*
X150677979Y-123841214D01*
X150677981Y-123841217D01*
X150796849Y-123960085D01*
X150796855Y-123960090D01*
X154165181Y-127328416D01*
X154198666Y-127389739D01*
X154201500Y-127416097D01*
X154201500Y-128666001D01*
X154201501Y-128666018D01*
X154212000Y-128768796D01*
X154212001Y-128768799D01*
X154267185Y-128935331D01*
X154267187Y-128935336D01*
X154276707Y-128950770D01*
X154326121Y-129030884D01*
X154359289Y-129084657D01*
X154483344Y-129208712D01*
X154638120Y-129304178D01*
X154684845Y-129356126D01*
X154696068Y-129425088D01*
X154668224Y-129489171D01*
X154660706Y-129497398D01*
X154521889Y-129636215D01*
X154396951Y-129808179D01*
X154300444Y-129997585D01*
X154234753Y-130199760D01*
X154211946Y-130343757D01*
X154201500Y-130409713D01*
X154201500Y-130622287D01*
X154234754Y-130832243D01*
X154275508Y-130957671D01*
X154300444Y-131034414D01*
X154396951Y-131223820D01*
X154521890Y-131395786D01*
X154672213Y-131546109D01*
X154844179Y-131671048D01*
X154844181Y-131671049D01*
X154844184Y-131671051D01*
X155033588Y-131767557D01*
X155235757Y-131833246D01*
X155445713Y-131866500D01*
X155445714Y-131866500D01*
X155958286Y-131866500D01*
X155958287Y-131866500D01*
X156168243Y-131833246D01*
X156370412Y-131767557D01*
X156559816Y-131671051D01*
X156661771Y-131596977D01*
X156731786Y-131546109D01*
X156731788Y-131546106D01*
X156731792Y-131546104D01*
X156882104Y-131395792D01*
X156882106Y-131395788D01*
X156882109Y-131395786D01*
X157007048Y-131223820D01*
X157007047Y-131223820D01*
X157007051Y-131223816D01*
X157103557Y-131034412D01*
X157169246Y-130832243D01*
X157202500Y-130622287D01*
X157202500Y-130409713D01*
X157169246Y-130199757D01*
X157103557Y-129997588D01*
X157011529Y-129816973D01*
X156998634Y-129748307D01*
X157024910Y-129683567D01*
X157034324Y-129673010D01*
X157539520Y-129167816D01*
X157618577Y-129030884D01*
X157659501Y-128878157D01*
X157659501Y-128720042D01*
X157659501Y-128712447D01*
X157659500Y-128712429D01*
X157659500Y-121030859D01*
X157659501Y-121030846D01*
X157659501Y-120862745D01*
X157659501Y-120862743D01*
X157618577Y-120710015D01*
X157569782Y-120625500D01*
X157539520Y-120573084D01*
X157528417Y-120561981D01*
X157494932Y-120500658D01*
X157499916Y-120430966D01*
X157528417Y-120386619D01*
X157531320Y-120383716D01*
X157593798Y-120275500D01*
X157610377Y-120246785D01*
X157651300Y-120094058D01*
X157651300Y-119935943D01*
X157651300Y-115157443D01*
X157627924Y-115070200D01*
X157610377Y-115004715D01*
X157563069Y-114922776D01*
X157531320Y-114867784D01*
X157419516Y-114755980D01*
X157419515Y-114755979D01*
X157415185Y-114751649D01*
X157415174Y-114751639D01*
X156659448Y-113995913D01*
X156625963Y-113934590D01*
X156630947Y-113864898D01*
X156672819Y-113808965D01*
X156674129Y-113807997D01*
X156731792Y-113766104D01*
X156882104Y-113615792D01*
X156882106Y-113615788D01*
X156882109Y-113615786D01*
X157007048Y-113443820D01*
X157007047Y-113443820D01*
X157007051Y-113443816D01*
X157103557Y-113254412D01*
X157169246Y-113052243D01*
X157202500Y-112842287D01*
X157202500Y-112629713D01*
X157169246Y-112419757D01*
X157103557Y-112217588D01*
X157007051Y-112028184D01*
X157007049Y-112028181D01*
X157007048Y-112028179D01*
X156882109Y-111856213D01*
X156743294Y-111717398D01*
X156709809Y-111656075D01*
X156714793Y-111586383D01*
X156756665Y-111530450D01*
X156765879Y-111524178D01*
X156771331Y-111520814D01*
X156771334Y-111520814D01*
X156920656Y-111428712D01*
X157044712Y-111304656D01*
X157136814Y-111155334D01*
X157191999Y-110988797D01*
X157202500Y-110886009D01*
X157202499Y-109585992D01*
X157191999Y-109483203D01*
X157136814Y-109316666D01*
X157044712Y-109167344D01*
X156920656Y-109043288D01*
X156771334Y-108951186D01*
X156604797Y-108896001D01*
X156604795Y-108896000D01*
X156502010Y-108885500D01*
X154901998Y-108885500D01*
X154901981Y-108885501D01*
X154799203Y-108896000D01*
X154799200Y-108896001D01*
X154632668Y-108951185D01*
X154632663Y-108951187D01*
X154483342Y-109043289D01*
X154359289Y-109167342D01*
X154267187Y-109316663D01*
X154267186Y-109316666D01*
X154212001Y-109483203D01*
X154212001Y-109483204D01*
X154212000Y-109483204D01*
X154201500Y-109585983D01*
X154201500Y-110886001D01*
X154201501Y-110886018D01*
X154212000Y-110988796D01*
X154212001Y-110988799D01*
X154267185Y-111155331D01*
X154267187Y-111155336D01*
X154296316Y-111202561D01*
X154352285Y-111293303D01*
X154359289Y-111304657D01*
X154483344Y-111428712D01*
X154638120Y-111524178D01*
X154684845Y-111576126D01*
X154696068Y-111645088D01*
X154668224Y-111709171D01*
X154660706Y-111717398D01*
X154521889Y-111856215D01*
X154396951Y-112028180D01*
X154328740Y-112162051D01*
X154280765Y-112212847D01*
X154212944Y-112229642D01*
X154194065Y-112227374D01*
X154129842Y-112214600D01*
X153972158Y-112214600D01*
X153972155Y-112214600D01*
X153817510Y-112245361D01*
X153817498Y-112245364D01*
X153671827Y-112305702D01*
X153671814Y-112305709D01*
X153540711Y-112393310D01*
X153540707Y-112393313D01*
X153429213Y-112504807D01*
X153429210Y-112504811D01*
X153341609Y-112635914D01*
X153341602Y-112635927D01*
X153281264Y-112781598D01*
X153281261Y-112781610D01*
X153250500Y-112936253D01*
X153250500Y-113093946D01*
X153281261Y-113248589D01*
X153281264Y-113248601D01*
X153341602Y-113394272D01*
X153341609Y-113394285D01*
X153429210Y-113525388D01*
X153429213Y-113525392D01*
X153540707Y-113636886D01*
X153540711Y-113636889D01*
X153671814Y-113724490D01*
X153671827Y-113724497D01*
X153788684Y-113772900D01*
X153817503Y-113784837D01*
X153882147Y-113797695D01*
X153972849Y-113815738D01*
X154034760Y-113848123D01*
X154036339Y-113849674D01*
X155065181Y-114878516D01*
X155098666Y-114939839D01*
X155101500Y-114966197D01*
X155101500Y-117651500D01*
X155081815Y-117718539D01*
X155029011Y-117764294D01*
X154977502Y-117775500D01*
X154901999Y-117775500D01*
X154901980Y-117775501D01*
X154799203Y-117786000D01*
X154799200Y-117786001D01*
X154632668Y-117841185D01*
X154632663Y-117841187D01*
X154483342Y-117933289D01*
X154359289Y-118057342D01*
X154267187Y-118206663D01*
X154267186Y-118206666D01*
X154212001Y-118373203D01*
X154212001Y-118373204D01*
X154212000Y-118373204D01*
X154201500Y-118475983D01*
X154201500Y-119776001D01*
X154201501Y-119776018D01*
X154212000Y-119878796D01*
X154212001Y-119878799D01*
X154267185Y-120045331D01*
X154267187Y-120045336D01*
X154359289Y-120194657D01*
X154483344Y-120318712D01*
X154638120Y-120414178D01*
X154684845Y-120466126D01*
X154696068Y-120535088D01*
X154668224Y-120599171D01*
X154660706Y-120607398D01*
X154521889Y-120746215D01*
X154396951Y-120918179D01*
X154300444Y-121107585D01*
X154234753Y-121309760D01*
X154201500Y-121519713D01*
X154201500Y-121732286D01*
X154234753Y-121942239D01*
X154300444Y-122144414D01*
X154396951Y-122333820D01*
X154521890Y-122505786D01*
X154672213Y-122656109D01*
X154844179Y-122781048D01*
X154844181Y-122781049D01*
X154844184Y-122781051D01*
X155033588Y-122877557D01*
X155235757Y-122943246D01*
X155445713Y-122976500D01*
X155445714Y-122976500D01*
X155958286Y-122976500D01*
X155958287Y-122976500D01*
X156168243Y-122943246D01*
X156296185Y-122901674D01*
X156366022Y-122899680D01*
X156425855Y-122935760D01*
X156456684Y-122998461D01*
X156458500Y-123019606D01*
X156458500Y-126541500D01*
X156438815Y-126608539D01*
X156386011Y-126654294D01*
X156334500Y-126665500D01*
X155252097Y-126665500D01*
X155185058Y-126645815D01*
X155164416Y-126629181D01*
X151795319Y-123260084D01*
X151761834Y-123198761D01*
X151759000Y-123172403D01*
X151759000Y-109920260D01*
X151759001Y-109920247D01*
X151759001Y-109752144D01*
X151747711Y-109710009D01*
X151718077Y-109599416D01*
X151650982Y-109483203D01*
X151639024Y-109462490D01*
X151639018Y-109462482D01*
X150185190Y-108008655D01*
X150185188Y-108008652D01*
X150066317Y-107889781D01*
X150066316Y-107889780D01*
X149979504Y-107839660D01*
X149979504Y-107839659D01*
X149979500Y-107839658D01*
X149929385Y-107810723D01*
X149776657Y-107769799D01*
X149618543Y-107769799D01*
X149610947Y-107769799D01*
X149610931Y-107769800D01*
X147850370Y-107769800D01*
X147850354Y-107769799D01*
X147842758Y-107769799D01*
X147684643Y-107769799D01*
X147684642Y-107769799D01*
X147676586Y-107770860D01*
X147676267Y-107768438D01*
X147618763Y-107767059D01*
X147560908Y-107727886D01*
X147533415Y-107663653D01*
X147545014Y-107594753D01*
X147568857Y-107561276D01*
X154201235Y-100928898D01*
X154262556Y-100895415D01*
X154332248Y-100900399D01*
X154388181Y-100942271D01*
X154406845Y-100978262D01*
X154429444Y-101047816D01*
X154525951Y-101237220D01*
X154650890Y-101409186D01*
X154801209Y-101559505D01*
X154801214Y-101559509D01*
X154965793Y-101679082D01*
X155008459Y-101734411D01*
X155014438Y-101804025D01*
X154981833Y-101865820D01*
X154965793Y-101879718D01*
X154801214Y-101999290D01*
X154801209Y-101999294D01*
X154650890Y-102149613D01*
X154525951Y-102321579D01*
X154429444Y-102510985D01*
X154429443Y-102510987D01*
X154429443Y-102510988D01*
X154414559Y-102556795D01*
X154363753Y-102713160D01*
X154333309Y-102905379D01*
X154330500Y-102923113D01*
X154330500Y-103135687D01*
X154333480Y-103154499D01*
X154363753Y-103345639D01*
X154429444Y-103547814D01*
X154525951Y-103737220D01*
X154650890Y-103909186D01*
X154801213Y-104059509D01*
X154973179Y-104184448D01*
X154973181Y-104184449D01*
X154973184Y-104184451D01*
X155162588Y-104280957D01*
X155364757Y-104346646D01*
X155574713Y-104379900D01*
X155574714Y-104379900D01*
X156037286Y-104379900D01*
X156037287Y-104379900D01*
X156247243Y-104346646D01*
X156449412Y-104280957D01*
X156638816Y-104184451D01*
X156724037Y-104122535D01*
X156810786Y-104059509D01*
X156810788Y-104059506D01*
X156810792Y-104059504D01*
X156961104Y-103909192D01*
X156961106Y-103909188D01*
X156961109Y-103909186D01*
X157086048Y-103737220D01*
X157086047Y-103737220D01*
X157086051Y-103737216D01*
X157182557Y-103547812D01*
X157248246Y-103345643D01*
X157281500Y-103135687D01*
X157281500Y-102923113D01*
X157248246Y-102713157D01*
X157182557Y-102510988D01*
X157086051Y-102321584D01*
X156978884Y-102174080D01*
X156970299Y-102162263D01*
X156946819Y-102096457D01*
X156962645Y-102028403D01*
X156982932Y-102001701D01*
X157468413Y-101516221D01*
X157468416Y-101516220D01*
X157580220Y-101404416D01*
X157630339Y-101317604D01*
X157659277Y-101267485D01*
X157700201Y-101114757D01*
X157700201Y-100956643D01*
X157700201Y-100949048D01*
X157700200Y-100949030D01*
X157700200Y-91988345D01*
X157700200Y-91988343D01*
X157659277Y-91835616D01*
X157659277Y-91835615D01*
X157659277Y-91835614D01*
X157630339Y-91785495D01*
X157630337Y-91785492D01*
X157580220Y-91698684D01*
X157468416Y-91586880D01*
X157468415Y-91586879D01*
X157464085Y-91582549D01*
X157464074Y-91582539D01*
X156752928Y-90871393D01*
X156719443Y-90810070D01*
X156724427Y-90740378D01*
X156766299Y-90684445D01*
X156767682Y-90683424D01*
X156810792Y-90652104D01*
X156961104Y-90501792D01*
X156961106Y-90501788D01*
X156961109Y-90501786D01*
X157086048Y-90329820D01*
X157086047Y-90329820D01*
X157086051Y-90329816D01*
X157182557Y-90140412D01*
X157248246Y-89938243D01*
X157281500Y-89728287D01*
X157281500Y-89515713D01*
X157248246Y-89305757D01*
X157182557Y-89103588D01*
X157086051Y-88914184D01*
X157086049Y-88914181D01*
X157086048Y-88914179D01*
X156961109Y-88742213D01*
X156810792Y-88591896D01*
X156788518Y-88575713D01*
X156646204Y-88472316D01*
X156603540Y-88416989D01*
X156597561Y-88347376D01*
X156630166Y-88285580D01*
X156646199Y-88271686D01*
X156810792Y-88152104D01*
X156961104Y-88001792D01*
X156961106Y-88001788D01*
X156961109Y-88001786D01*
X157080072Y-87838046D01*
X157086051Y-87829816D01*
X157182557Y-87640412D01*
X157248246Y-87438243D01*
X157281500Y-87228287D01*
X157281500Y-87015713D01*
X157248246Y-86805757D01*
X157182557Y-86603588D01*
X157086051Y-86414184D01*
X157086049Y-86414181D01*
X157086048Y-86414179D01*
X156961109Y-86242213D01*
X156810790Y-86091894D01*
X156810785Y-86091890D01*
X156645781Y-85972008D01*
X156603115Y-85916678D01*
X156597136Y-85847065D01*
X156629741Y-85785270D01*
X156645781Y-85771371D01*
X156810466Y-85651721D01*
X156960723Y-85501464D01*
X156960727Y-85501459D01*
X157085620Y-85329557D01*
X157182095Y-85140217D01*
X157247757Y-84938129D01*
X157247757Y-84938126D01*
X157258231Y-84872000D01*
X156210146Y-84872000D01*
X156248630Y-84805343D01*
X156281000Y-84684535D01*
X156281000Y-84559465D01*
X156248630Y-84438657D01*
X156210146Y-84372000D01*
X157258231Y-84372000D01*
X157247757Y-84305873D01*
X157247757Y-84305870D01*
X157182095Y-84103782D01*
X157085620Y-83914442D01*
X156960727Y-83742540D01*
X156960723Y-83742535D01*
X156821856Y-83603668D01*
X156788371Y-83542345D01*
X156793355Y-83472653D01*
X156835227Y-83416720D01*
X156844441Y-83410448D01*
X156850331Y-83406814D01*
X156850334Y-83406814D01*
X156999656Y-83314712D01*
X157123712Y-83190656D01*
X157215814Y-83041334D01*
X157270999Y-82874797D01*
X157281500Y-82772009D01*
X157281499Y-81471992D01*
X157279151Y-81449011D01*
X157270999Y-81369203D01*
X157270998Y-81369200D01*
X157244601Y-81289540D01*
X157215814Y-81202666D01*
X157123712Y-81053344D01*
X156999656Y-80929288D01*
X156850334Y-80837186D01*
X156683797Y-80782001D01*
X156683795Y-80782000D01*
X156581010Y-80771500D01*
X155030998Y-80771500D01*
X155030981Y-80771501D01*
X154928203Y-80782000D01*
X154928200Y-80782001D01*
X154761668Y-80837185D01*
X154761663Y-80837187D01*
X154612342Y-80929289D01*
X154488289Y-81053342D01*
X154396187Y-81202663D01*
X154396185Y-81202668D01*
X154341001Y-81369204D01*
X154341000Y-81369205D01*
X154336823Y-81410102D01*
X154310427Y-81474793D01*
X154253247Y-81514945D01*
X154213465Y-81521500D01*
X150289457Y-81521500D01*
X150222418Y-81501815D01*
X150176663Y-81449011D01*
X150165944Y-81408482D01*
X150164886Y-81396584D01*
X150164886Y-81396583D01*
X150164886Y-81396582D01*
X150108909Y-81200951D01*
X150014698Y-81020593D01*
X149961795Y-80955713D01*
X149886109Y-80862890D01*
X149728409Y-80734304D01*
X149728410Y-80734304D01*
X149728407Y-80734302D01*
X149548049Y-80640091D01*
X149548048Y-80640090D01*
X149548045Y-80640089D01*
X149430829Y-80606550D01*
X149352418Y-80584114D01*
X149352415Y-80584113D01*
X149352413Y-80584113D01*
X149286102Y-80578217D01*
X149233037Y-80573500D01*
X149233032Y-80573500D01*
X147366971Y-80573500D01*
X147366965Y-80573500D01*
X147366964Y-80573501D01*
X147355316Y-80574536D01*
X147247584Y-80584113D01*
X147051954Y-80640089D01*
X146961772Y-80687196D01*
X146871593Y-80734302D01*
X146871591Y-80734303D01*
X146871590Y-80734304D01*
X146713890Y-80862890D01*
X146585304Y-81020590D01*
X146585302Y-81020593D01*
X146538196Y-81110772D01*
X146491089Y-81200954D01*
X146446332Y-81357376D01*
X146440362Y-81378243D01*
X146435114Y-81396583D01*
X146435113Y-81396586D01*
X146424500Y-81515966D01*
X146424500Y-82632028D01*
X146424501Y-82632034D01*
X146435113Y-82751415D01*
X146491089Y-82947045D01*
X146491090Y-82947046D01*
X146491091Y-82947049D01*
X146585302Y-83127407D01*
X146585304Y-83127409D01*
X146698338Y-83266035D01*
X146725447Y-83330432D01*
X146713438Y-83399261D01*
X146698338Y-83422757D01*
X146585721Y-83560870D01*
X146491557Y-83741138D01*
X146435609Y-83936671D01*
X146435608Y-83936674D01*
X146425000Y-84055999D01*
X146425000Y-85172000D01*
X146435608Y-85291325D01*
X146435609Y-85291328D01*
X146491557Y-85486861D01*
X146585721Y-85667129D01*
X146698338Y-85805242D01*
X146725447Y-85869638D01*
X146713438Y-85938468D01*
X146698338Y-85961963D01*
X146585305Y-86100587D01*
X146491089Y-86280954D01*
X146452390Y-86416204D01*
X146440362Y-86458243D01*
X146435114Y-86476583D01*
X146435113Y-86476586D01*
X146424500Y-86595966D01*
X146424500Y-87712028D01*
X146424501Y-87712034D01*
X146435113Y-87831415D01*
X146491089Y-88027045D01*
X146491090Y-88027048D01*
X146491091Y-88027049D01*
X146585302Y-88207407D01*
X146585304Y-88207409D01*
X146698015Y-88345639D01*
X146725124Y-88410036D01*
X146713115Y-88478865D01*
X146698015Y-88502361D01*
X146591906Y-88632494D01*
X146585302Y-88640593D01*
X146558876Y-88691184D01*
X146491089Y-88820954D01*
X146446332Y-88977376D01*
X146440362Y-88998243D01*
X146435114Y-89016583D01*
X146435113Y-89016586D01*
X146424500Y-89135966D01*
X146424500Y-89135968D01*
X146424501Y-90207400D01*
X146404817Y-90274439D01*
X146352013Y-90320194D01*
X146300501Y-90331400D01*
X145932869Y-90331400D01*
X145932853Y-90331399D01*
X145925257Y-90331399D01*
X145767143Y-90331399D01*
X145659787Y-90360165D01*
X145614410Y-90372324D01*
X145614409Y-90372325D01*
X145564296Y-90401259D01*
X145564295Y-90401260D01*
X145520889Y-90426320D01*
X145477485Y-90451379D01*
X145477482Y-90451381D01*
X145365678Y-90563186D01*
X143394940Y-92533923D01*
X143333617Y-92567408D01*
X143263925Y-92562424D01*
X143207992Y-92520552D01*
X143183575Y-92455088D01*
X143183479Y-92438866D01*
X143185499Y-92404961D01*
X143185500Y-92404938D01*
X143185500Y-90983064D01*
X143185500Y-90983052D01*
X143182624Y-90934774D01*
X143136934Y-90724741D01*
X143067751Y-90563184D01*
X143052322Y-90527154D01*
X142931848Y-90349151D01*
X142931840Y-90349142D01*
X142779857Y-90197159D01*
X142779848Y-90197151D01*
X142601845Y-90076677D01*
X142404260Y-89992066D01*
X142404250Y-89992063D01*
X142328511Y-89975587D01*
X142267188Y-89942102D01*
X142233704Y-89880778D01*
X142238689Y-89811087D01*
X142280560Y-89755153D01*
X142281986Y-89754102D01*
X142339788Y-89712107D01*
X142339788Y-89712106D01*
X142339792Y-89712104D01*
X142490104Y-89561792D01*
X142490106Y-89561788D01*
X142490109Y-89561786D01*
X142615048Y-89389820D01*
X142615047Y-89389820D01*
X142615051Y-89389816D01*
X142711557Y-89200412D01*
X142777246Y-88998243D01*
X142810500Y-88788287D01*
X142810500Y-88575713D01*
X142777246Y-88365757D01*
X142711557Y-88163588D01*
X142615051Y-87974184D01*
X142615049Y-87974181D01*
X142615048Y-87974179D01*
X142490109Y-87802213D01*
X142339786Y-87651890D01*
X142167820Y-87526951D01*
X142165384Y-87525710D01*
X142159054Y-87522485D01*
X142108259Y-87474512D01*
X142091463Y-87406692D01*
X142113999Y-87340556D01*
X142159054Y-87301515D01*
X142167816Y-87297051D01*
X142189789Y-87281086D01*
X142339786Y-87172109D01*
X142339788Y-87172106D01*
X142339792Y-87172104D01*
X142490104Y-87021792D01*
X142490106Y-87021788D01*
X142490109Y-87021786D01*
X142615048Y-86849820D01*
X142615047Y-86849820D01*
X142615051Y-86849816D01*
X142711557Y-86660412D01*
X142777246Y-86458243D01*
X142810500Y-86248287D01*
X142810500Y-86035713D01*
X142777246Y-85825757D01*
X142711557Y-85623588D01*
X142615051Y-85434184D01*
X142615049Y-85434181D01*
X142615048Y-85434179D01*
X142490109Y-85262213D01*
X142339786Y-85111890D01*
X142167820Y-84986951D01*
X142164460Y-84985239D01*
X142159054Y-84982485D01*
X142108259Y-84934512D01*
X142091463Y-84866692D01*
X142113999Y-84800556D01*
X142159054Y-84761515D01*
X142167816Y-84757051D01*
X142189789Y-84741086D01*
X142339786Y-84632109D01*
X142339788Y-84632106D01*
X142339792Y-84632104D01*
X142490104Y-84481792D01*
X142490106Y-84481788D01*
X142490109Y-84481786D01*
X142615048Y-84309820D01*
X142615047Y-84309820D01*
X142615051Y-84309816D01*
X142711557Y-84120412D01*
X142777246Y-83918243D01*
X142810500Y-83708287D01*
X142810500Y-83495713D01*
X142777246Y-83285757D01*
X142711557Y-83083588D01*
X142615051Y-82894184D01*
X142615049Y-82894181D01*
X142615048Y-82894179D01*
X142490109Y-82722213D01*
X142339786Y-82571890D01*
X142167820Y-82446951D01*
X142167115Y-82446591D01*
X142159054Y-82442485D01*
X142108259Y-82394512D01*
X142091463Y-82326692D01*
X142113999Y-82260556D01*
X142159054Y-82221515D01*
X142167816Y-82217051D01*
X142320026Y-82106465D01*
X142339786Y-82092109D01*
X142339788Y-82092106D01*
X142339792Y-82092104D01*
X142490104Y-81941792D01*
X142490106Y-81941788D01*
X142490109Y-81941786D01*
X142615048Y-81769820D01*
X142615047Y-81769820D01*
X142615051Y-81769816D01*
X142711557Y-81580412D01*
X142777246Y-81378243D01*
X142810500Y-81168287D01*
X142810500Y-80955713D01*
X142777246Y-80745757D01*
X142711557Y-80543588D01*
X142615051Y-80354184D01*
X142615049Y-80354181D01*
X142615048Y-80354179D01*
X142490109Y-80182213D01*
X142339786Y-80031890D01*
X142167820Y-79906951D01*
X141978414Y-79810444D01*
X141978413Y-79810443D01*
X141978412Y-79810443D01*
X141776243Y-79744754D01*
X141776240Y-79744753D01*
X141771610Y-79743249D01*
X141772047Y-79741901D01*
X141716981Y-79710282D01*
X141684818Y-79648255D01*
X141691295Y-79578686D01*
X141734355Y-79523663D01*
X141800328Y-79500655D01*
X141806521Y-79500500D01*
X158375500Y-79500500D01*
X158442539Y-79520185D01*
G37*
G04 #@! TD.AperFunction*
G04 #@! TA.AperFunction,Conductor*
G36*
X150477334Y-113510548D02*
G01*
X150533267Y-113552420D01*
X150557684Y-113617884D01*
X150558000Y-113626730D01*
X150558000Y-119423305D01*
X150538315Y-119490344D01*
X150485511Y-119536099D01*
X150416353Y-119546043D01*
X150352797Y-119517018D01*
X150323515Y-119479600D01*
X150313859Y-119460650D01*
X150281474Y-119416077D01*
X150281474Y-119416076D01*
X149602000Y-120095551D01*
X149602000Y-120089339D01*
X149574741Y-119987606D01*
X149522080Y-119896394D01*
X149447606Y-119821920D01*
X149356394Y-119769259D01*
X149254661Y-119742000D01*
X149248446Y-119742000D01*
X149927922Y-119062524D01*
X149927921Y-119062523D01*
X149883359Y-119030147D01*
X149883350Y-119030141D01*
X149701031Y-118937244D01*
X149506417Y-118874009D01*
X149304317Y-118842000D01*
X149099683Y-118842000D01*
X148897581Y-118874010D01*
X148897578Y-118874010D01*
X148830918Y-118895670D01*
X148761077Y-118897665D01*
X148701244Y-118861585D01*
X148670416Y-118798884D01*
X148668600Y-118777739D01*
X148668600Y-113946499D01*
X148688285Y-113879460D01*
X148741089Y-113833705D01*
X148792600Y-113822499D01*
X149802002Y-113822499D01*
X149802008Y-113822499D01*
X149904797Y-113811999D01*
X150071334Y-113756814D01*
X150220656Y-113664712D01*
X150344712Y-113540656D01*
X150344712Y-113540655D01*
X150346319Y-113539049D01*
X150407642Y-113505564D01*
X150477334Y-113510548D01*
G37*
G04 #@! TD.AperFunction*
G04 #@! TA.AperFunction,Conductor*
G36*
X140381445Y-110017865D02*
G01*
X140420483Y-110062917D01*
X140453979Y-110128656D01*
X140467715Y-110155614D01*
X140588028Y-110321213D01*
X140732786Y-110465971D01*
X140861621Y-110559573D01*
X140898390Y-110586287D01*
X141014607Y-110645503D01*
X141080776Y-110679218D01*
X141080778Y-110679218D01*
X141080781Y-110679220D01*
X141155535Y-110703509D01*
X141275465Y-110742477D01*
X141333185Y-110751619D01*
X141477648Y-110774500D01*
X141477649Y-110774500D01*
X141682351Y-110774500D01*
X141682352Y-110774500D01*
X141884534Y-110742477D01*
X142079219Y-110679220D01*
X142079222Y-110679218D01*
X142083852Y-110677714D01*
X142084281Y-110679035D01*
X142147514Y-110672236D01*
X142209994Y-110703509D01*
X142245648Y-110763597D01*
X142249500Y-110794266D01*
X142249500Y-110953901D01*
X142229815Y-111020940D01*
X142213181Y-111041582D01*
X142026841Y-111227921D01*
X141965518Y-111261406D01*
X141900845Y-111258172D01*
X141886535Y-111253523D01*
X141785443Y-111237511D01*
X141684352Y-111221500D01*
X141479648Y-111221500D01*
X141455329Y-111225351D01*
X141277465Y-111253522D01*
X141082776Y-111316781D01*
X140900386Y-111409715D01*
X140734786Y-111530028D01*
X140590028Y-111674786D01*
X140469715Y-111840386D01*
X140376781Y-112022776D01*
X140313522Y-112217465D01*
X140281500Y-112419648D01*
X140281500Y-112624351D01*
X140313522Y-112826534D01*
X140376781Y-113021223D01*
X140428135Y-113122009D01*
X140469585Y-113203359D01*
X140469715Y-113203613D01*
X140590028Y-113369213D01*
X140734786Y-113513971D01*
X140877813Y-113617884D01*
X140900390Y-113634287D01*
X140961143Y-113665242D01*
X141082776Y-113727218D01*
X141082778Y-113727218D01*
X141082781Y-113727220D01*
X141173856Y-113756812D01*
X141277465Y-113790477D01*
X141378557Y-113806488D01*
X141479648Y-113822500D01*
X141479649Y-113822500D01*
X141684351Y-113822500D01*
X141684352Y-113822500D01*
X141886534Y-113790477D01*
X142081219Y-113727220D01*
X142263610Y-113634287D01*
X142376291Y-113552420D01*
X142429213Y-113513971D01*
X142429215Y-113513968D01*
X142429219Y-113513966D01*
X142573966Y-113369219D01*
X142573968Y-113369215D01*
X142573971Y-113369213D01*
X142694284Y-113203614D01*
X142694286Y-113203611D01*
X142694287Y-113203610D01*
X142741516Y-113110917D01*
X142789489Y-113060123D01*
X142857310Y-113043328D01*
X142923445Y-113065865D01*
X142962483Y-113110917D01*
X143006348Y-113197006D01*
X143009715Y-113203614D01*
X143130028Y-113369213D01*
X143274786Y-113513971D01*
X143417813Y-113617884D01*
X143440390Y-113634287D01*
X143501143Y-113665242D01*
X143622776Y-113727218D01*
X143622778Y-113727218D01*
X143622781Y-113727220D01*
X143713856Y-113756812D01*
X143817465Y-113790477D01*
X143918557Y-113806488D01*
X144019648Y-113822500D01*
X144019649Y-113822500D01*
X144224351Y-113822500D01*
X144224352Y-113822500D01*
X144426534Y-113790477D01*
X144621219Y-113727220D01*
X144803610Y-113634287D01*
X144916291Y-113552420D01*
X144969213Y-113513971D01*
X144969215Y-113513968D01*
X144969219Y-113513966D01*
X145113966Y-113369219D01*
X145113968Y-113369215D01*
X145113971Y-113369213D01*
X145234286Y-113203611D01*
X145234415Y-113203359D01*
X145281795Y-113110369D01*
X145329769Y-113059573D01*
X145397590Y-113042778D01*
X145463725Y-113065315D01*
X145502765Y-113110369D01*
X145550141Y-113203350D01*
X145550147Y-113203359D01*
X145582523Y-113247921D01*
X145582524Y-113247922D01*
X146262000Y-112568446D01*
X146262000Y-112574661D01*
X146289259Y-112676394D01*
X146341920Y-112767606D01*
X146416394Y-112842080D01*
X146507606Y-112894741D01*
X146609339Y-112922000D01*
X146615552Y-112922000D01*
X145936076Y-113601474D01*
X145980650Y-113633859D01*
X146162968Y-113726755D01*
X146357582Y-113789990D01*
X146559683Y-113822000D01*
X146764317Y-113822000D01*
X146966417Y-113789990D01*
X147161031Y-113726755D01*
X147287305Y-113662415D01*
X147355974Y-113649519D01*
X147420715Y-113675795D01*
X147460972Y-113732902D01*
X147467600Y-113772900D01*
X147467600Y-118890539D01*
X147447915Y-118957578D01*
X147395111Y-119003333D01*
X147325953Y-119013277D01*
X147287305Y-119001024D01*
X147161223Y-118936781D01*
X146966534Y-118873522D01*
X146791995Y-118845878D01*
X146764352Y-118841500D01*
X146559648Y-118841500D01*
X146535329Y-118845351D01*
X146357465Y-118873522D01*
X146162776Y-118936781D01*
X145980386Y-119029715D01*
X145814786Y-119150028D01*
X145670028Y-119294786D01*
X145549715Y-119460386D01*
X145502485Y-119553080D01*
X145454510Y-119603876D01*
X145386689Y-119620671D01*
X145320554Y-119598134D01*
X145281515Y-119553080D01*
X145249549Y-119490344D01*
X145234287Y-119460390D01*
X145220518Y-119441439D01*
X145113971Y-119294786D01*
X144969213Y-119150028D01*
X144803613Y-119029715D01*
X144803612Y-119029714D01*
X144803610Y-119029713D01*
X144697243Y-118975516D01*
X144621223Y-118936781D01*
X144426534Y-118873522D01*
X144251995Y-118845878D01*
X144224352Y-118841500D01*
X144019648Y-118841500D01*
X143995329Y-118845351D01*
X143817465Y-118873522D01*
X143622776Y-118936781D01*
X143440386Y-119029715D01*
X143274786Y-119150028D01*
X143130028Y-119294786D01*
X143009715Y-119460386D01*
X142962485Y-119553080D01*
X142914510Y-119603876D01*
X142846689Y-119620671D01*
X142780554Y-119598134D01*
X142741515Y-119553080D01*
X142709549Y-119490344D01*
X142694287Y-119460390D01*
X142680518Y-119441439D01*
X142573971Y-119294786D01*
X142429213Y-119150028D01*
X142263613Y-119029715D01*
X142263612Y-119029714D01*
X142263610Y-119029713D01*
X142157243Y-118975516D01*
X142081223Y-118936781D01*
X141886534Y-118873522D01*
X141711995Y-118845878D01*
X141684352Y-118841500D01*
X141479648Y-118841500D01*
X141455329Y-118845351D01*
X141277465Y-118873522D01*
X141082776Y-118936781D01*
X140900386Y-119029715D01*
X140734786Y-119150028D01*
X140590028Y-119294786D01*
X140469713Y-119460388D01*
X140450684Y-119497735D01*
X140402710Y-119548530D01*
X140334888Y-119565325D01*
X140268754Y-119542787D01*
X140225303Y-119488072D01*
X140216200Y-119441439D01*
X140216200Y-114390643D01*
X140209257Y-114364733D01*
X140175277Y-114237915D01*
X140106901Y-114119485D01*
X140106900Y-114119482D01*
X140096222Y-114100986D01*
X140096218Y-114100981D01*
X139980097Y-113984860D01*
X139980074Y-113984839D01*
X136897181Y-110901946D01*
X136863696Y-110840623D01*
X136868680Y-110770931D01*
X136910552Y-110714998D01*
X136946535Y-110696337D01*
X136999219Y-110679220D01*
X137181610Y-110586287D01*
X137321453Y-110484686D01*
X137347213Y-110465971D01*
X137347215Y-110465968D01*
X137347219Y-110465966D01*
X137491966Y-110321219D01*
X137491968Y-110321215D01*
X137491971Y-110321213D01*
X137612284Y-110155614D01*
X137612286Y-110155611D01*
X137612287Y-110155610D01*
X137659516Y-110062917D01*
X137707489Y-110012123D01*
X137775310Y-109995328D01*
X137841445Y-110017865D01*
X137880483Y-110062917D01*
X137913979Y-110128656D01*
X137927715Y-110155614D01*
X138048028Y-110321213D01*
X138192786Y-110465971D01*
X138321621Y-110559573D01*
X138358390Y-110586287D01*
X138474607Y-110645503D01*
X138540776Y-110679218D01*
X138540778Y-110679218D01*
X138540781Y-110679220D01*
X138615535Y-110703509D01*
X138735465Y-110742477D01*
X138793185Y-110751619D01*
X138937648Y-110774500D01*
X138937649Y-110774500D01*
X139142351Y-110774500D01*
X139142352Y-110774500D01*
X139344534Y-110742477D01*
X139539219Y-110679220D01*
X139721610Y-110586287D01*
X139861453Y-110484686D01*
X139887213Y-110465971D01*
X139887215Y-110465968D01*
X139887219Y-110465966D01*
X140031966Y-110321219D01*
X140031968Y-110321215D01*
X140031971Y-110321213D01*
X140152284Y-110155614D01*
X140152286Y-110155611D01*
X140152287Y-110155610D01*
X140199516Y-110062917D01*
X140247489Y-110012123D01*
X140315310Y-109995328D01*
X140381445Y-110017865D01*
G37*
G04 #@! TD.AperFunction*
M02*
