G04 #@! TF.GenerationSoftware,KiCad,Pcbnew,10.0.6*
G04 #@! TF.CreationDate,2026-09-08T22:16:38+09:00*
G04 #@! TF.ProjectId,XIAO-ESP32-S3-SS,5849414f-2d45-4535-9033-322d53332d53,rev?*
G04 #@! TF.SameCoordinates,Original*
G04 #@! TF.FileFunction,Soldermask,Top*
G04 #@! TF.FilePolarity,Negative*
%FSLAX46Y46*%
G04 Gerber Fmt 4.6, Leading zero omitted, Abs format (unit mm)*
G04 Created by KiCad (PCBNEW 10.0.6) date 2026-09-08 22:16:38*
%MOMM*%
%LPD*%
G01*
G04 APERTURE LIST*
G04 Aperture macros list*
%AMRoundRect*
0 Rectangle with rounded corners*
0 $1 Rounding radius*
0 $2 $3 $4 $5 $6 $7 $8 $9 X,Y pos of 4 corners*
0 Add a 4 corners polygon primitive as box body*
4,1,4,$2,$3,$4,$5,$6,$7,$8,$9,$2,$3,0*
0 Add four circle primitives for the rounded corners*
1,1,$1+$1,$2,$3*
1,1,$1+$1,$4,$5*
1,1,$1+$1,$6,$7*
1,1,$1+$1,$8,$9*
0 Add four rect primitives between the rounded corners*
20,1,$1+$1,$2,$3,$4,$5,0*
20,1,$1+$1,$4,$5,$6,$7,0*
20,1,$1+$1,$6,$7,$8,$9,0*
20,1,$1+$1,$8,$9,$2,$3,0*%
G04 Aperture macros list end*
%ADD10RoundRect,0.550800X-0.875000X-0.500000X0.875000X-0.500000X0.875000X0.500000X-0.875000X0.500000X0*%
%ADD11C,1.700000*%
%ADD12RoundRect,0.275000X0.975000X0.275000X-0.975000X0.275000X-0.975000X-0.275000X0.975000X-0.275000X0*%
%ADD13RoundRect,0.625000X-0.750000X-0.625000X0.750000X-0.625000X0.750000X0.625000X-0.750000X0.625000X0*%
%ADD14RoundRect,0.250000X-0.550000X0.550000X-0.550000X-0.550000X0.550000X-0.550000X0.550000X0.550000X0*%
%ADD15C,1.600000*%
%ADD16RoundRect,0.250000X-0.725000X0.600000X-0.725000X-0.600000X0.725000X-0.600000X0.725000X0.600000X0*%
%ADD17O,1.950000X1.700000*%
%ADD18RoundRect,0.250000X0.725000X-0.600000X0.725000X0.600000X-0.725000X0.600000X-0.725000X-0.600000X0*%
%ADD19RoundRect,0.760000X-1.140000X-1.140000X1.140000X-1.140000X1.140000X1.140000X-1.140000X1.140000X0*%
%ADD20C,3.800000*%
%ADD21RoundRect,0.250000X-0.750000X0.600000X-0.750000X-0.600000X0.750000X-0.600000X0.750000X0.600000X0*%
%ADD22O,2.000000X1.700000*%
%ADD23R,1.700000X1.700000*%
%ADD24RoundRect,0.250000X0.600000X0.750000X-0.600000X0.750000X-0.600000X-0.750000X0.600000X-0.750000X0*%
%ADD25O,1.700000X2.000000*%
G04 APERTURE END LIST*
D10*
X132135000Y-82074000D03*
X132135000Y-84614000D03*
X132135000Y-87154000D03*
X132135000Y-89694000D03*
X132135000Y-92234000D03*
X132135000Y-94774000D03*
X132135000Y-97314000D03*
X148300000Y-97314000D03*
X148300000Y-94774000D03*
X148300000Y-92234000D03*
X148300000Y-89694000D03*
X148300000Y-87154000D03*
X148300000Y-84614000D03*
X148300000Y-82074000D03*
D11*
X138920000Y-81062000D03*
X141460000Y-81062000D03*
X138920000Y-83602000D03*
X141460000Y-83602000D03*
X138920000Y-86142000D03*
X141460000Y-86142000D03*
X138920000Y-88682000D03*
X141460000Y-88682000D03*
D12*
X135745000Y-89312000D03*
X135745000Y-87407000D03*
D13*
X141310000Y-91694000D03*
D14*
X149200000Y-101854000D03*
D15*
X146660000Y-101854000D03*
X144120000Y-101854000D03*
X141580000Y-101854000D03*
X139040000Y-101854000D03*
X136500000Y-101854000D03*
X133960000Y-101854000D03*
X131420000Y-101854000D03*
X131420000Y-109474000D03*
X133960000Y-109474000D03*
X136500000Y-109474000D03*
X139040000Y-109474000D03*
X141580000Y-109474000D03*
X144120000Y-109474000D03*
X146660000Y-109474000D03*
X149200000Y-109474000D03*
D16*
X155806000Y-95529400D03*
D17*
X155806000Y-98029400D03*
X155806000Y-100529400D03*
X155806000Y-103029400D03*
D18*
X123294000Y-109060000D03*
D17*
X123294000Y-106560000D03*
X123294000Y-104060000D03*
D19*
X131756000Y-116586000D03*
D20*
X136756000Y-116586000D03*
D14*
X149202000Y-112522000D03*
D15*
X146662000Y-112522000D03*
X144122000Y-112522000D03*
X141582000Y-112522000D03*
X141582000Y-120142000D03*
X144122000Y-120142000D03*
X146662000Y-120142000D03*
X149202000Y-120142000D03*
D21*
X155702000Y-119126000D03*
D22*
X155702000Y-121626000D03*
D15*
X129794000Y-132100000D03*
X139954000Y-132100000D03*
D18*
X123294000Y-119982000D03*
D17*
X123294000Y-117482000D03*
X123294000Y-114982000D03*
D16*
X155806000Y-82122000D03*
D17*
X155806000Y-84622000D03*
X155806000Y-87122000D03*
X155806000Y-89622000D03*
D21*
X155702000Y-128016000D03*
D22*
X155702000Y-130516000D03*
D19*
X132414000Y-127000000D03*
D20*
X137414000Y-127000000D03*
D18*
X123294000Y-87169000D03*
D17*
X123294000Y-84669000D03*
X123294000Y-82169000D03*
D18*
X123294000Y-130904000D03*
D17*
X123294000Y-128404000D03*
X123294000Y-125904000D03*
D23*
X147170000Y-123698000D03*
D11*
X144630000Y-123698000D03*
D21*
X155702000Y-110236000D03*
D22*
X155702000Y-112736000D03*
D18*
X123294000Y-98138000D03*
D17*
X123294000Y-95638000D03*
X123294000Y-93138000D03*
D24*
X147574000Y-130810000D03*
D25*
X145074000Y-130810000D03*
M02*
