%TF.GenerationSoftware,KiCad,Pcbnew,10.0.6*%
%TF.CreationDate,2026-09-08T22:17:01+09:00*%
%TF.ProjectId,XIAO-ESP32-S3-SS,5849414f-2d45-4535-9033-322d53332d53,rev?*%
%TF.SameCoordinates,Original*%
%TF.FileFunction,Drillmap*%
%TF.FilePolarity,Positive*%
%FSLAX45Y45*%
G04 Gerber Fmt 4.5, Leading zero omitted, Abs format (unit mm)*
G04 Created by KiCad (PCBNEW 10.0.6) date 2026-09-08 22:17:01*
%MOMM*%
%LPD*%
G01*
G04 APERTURE LIST*
%ADD10C,0.050000*%
%ADD11C,0.200000*%
G04 APERTURE END LIST*
D10*
X12000000Y-7900000D02*
X15900000Y-7900000D01*
X15900000Y-13400000D01*
X12000000Y-13400000D01*
X12000000Y-7900000D01*
D11*
X12258277Y-13713984D02*
X12258277Y-13513984D01*
X12258277Y-13513984D02*
X12305896Y-13513984D01*
X12305896Y-13513984D02*
X12334467Y-13523508D01*
X12334467Y-13523508D02*
X12353515Y-13542555D01*
X12353515Y-13542555D02*
X12363039Y-13561603D01*
X12363039Y-13561603D02*
X12372562Y-13599698D01*
X12372562Y-13599698D02*
X12372562Y-13628269D01*
X12372562Y-13628269D02*
X12363039Y-13666365D01*
X12363039Y-13666365D02*
X12353515Y-13685412D01*
X12353515Y-13685412D02*
X12334467Y-13704460D01*
X12334467Y-13704460D02*
X12305896Y-13713984D01*
X12305896Y-13713984D02*
X12258277Y-13713984D01*
X12458277Y-13713984D02*
X12458277Y-13580650D01*
X12458277Y-13618746D02*
X12467801Y-13599698D01*
X12467801Y-13599698D02*
X12477324Y-13590174D01*
X12477324Y-13590174D02*
X12496372Y-13580650D01*
X12496372Y-13580650D02*
X12515420Y-13580650D01*
X12582086Y-13713984D02*
X12582086Y-13580650D01*
X12582086Y-13513984D02*
X12572562Y-13523508D01*
X12572562Y-13523508D02*
X12582086Y-13533031D01*
X12582086Y-13533031D02*
X12591610Y-13523508D01*
X12591610Y-13523508D02*
X12582086Y-13513984D01*
X12582086Y-13513984D02*
X12582086Y-13533031D01*
X12705896Y-13713984D02*
X12686848Y-13704460D01*
X12686848Y-13704460D02*
X12677324Y-13685412D01*
X12677324Y-13685412D02*
X12677324Y-13513984D01*
X12810658Y-13713984D02*
X12791610Y-13704460D01*
X12791610Y-13704460D02*
X12782086Y-13685412D01*
X12782086Y-13685412D02*
X12782086Y-13513984D01*
X13039229Y-13713984D02*
X13039229Y-13513984D01*
X13039229Y-13513984D02*
X13105896Y-13656841D01*
X13105896Y-13656841D02*
X13172562Y-13513984D01*
X13172562Y-13513984D02*
X13172562Y-13713984D01*
X13353515Y-13713984D02*
X13353515Y-13609222D01*
X13353515Y-13609222D02*
X13343991Y-13590174D01*
X13343991Y-13590174D02*
X13324943Y-13580650D01*
X13324943Y-13580650D02*
X13286848Y-13580650D01*
X13286848Y-13580650D02*
X13267801Y-13590174D01*
X13353515Y-13704460D02*
X13334467Y-13713984D01*
X13334467Y-13713984D02*
X13286848Y-13713984D01*
X13286848Y-13713984D02*
X13267801Y-13704460D01*
X13267801Y-13704460D02*
X13258277Y-13685412D01*
X13258277Y-13685412D02*
X13258277Y-13666365D01*
X13258277Y-13666365D02*
X13267801Y-13647317D01*
X13267801Y-13647317D02*
X13286848Y-13637793D01*
X13286848Y-13637793D02*
X13334467Y-13637793D01*
X13334467Y-13637793D02*
X13353515Y-13628269D01*
X13448753Y-13580650D02*
X13448753Y-13780650D01*
X13448753Y-13590174D02*
X13467801Y-13580650D01*
X13467801Y-13580650D02*
X13505896Y-13580650D01*
X13505896Y-13580650D02*
X13524943Y-13590174D01*
X13524943Y-13590174D02*
X13534467Y-13599698D01*
X13534467Y-13599698D02*
X13543991Y-13618746D01*
X13543991Y-13618746D02*
X13543991Y-13675888D01*
X13543991Y-13675888D02*
X13534467Y-13694936D01*
X13534467Y-13694936D02*
X13524943Y-13704460D01*
X13524943Y-13704460D02*
X13505896Y-13713984D01*
X13505896Y-13713984D02*
X13467801Y-13713984D01*
X13467801Y-13713984D02*
X13448753Y-13704460D01*
X13629705Y-13694936D02*
X13639229Y-13704460D01*
X13639229Y-13704460D02*
X13629705Y-13713984D01*
X13629705Y-13713984D02*
X13620182Y-13704460D01*
X13620182Y-13704460D02*
X13629705Y-13694936D01*
X13629705Y-13694936D02*
X13629705Y-13713984D01*
X13629705Y-13590174D02*
X13639229Y-13599698D01*
X13639229Y-13599698D02*
X13629705Y-13609222D01*
X13629705Y-13609222D02*
X13620182Y-13599698D01*
X13620182Y-13599698D02*
X13629705Y-13590174D01*
X13629705Y-13590174D02*
X13629705Y-13609222D01*
M02*
