G04 #@! TF.GenerationSoftware,KiCad,Pcbnew,10.0.6*
G04 #@! TF.CreationDate,2026-09-08T22:17:36+09:00*
G04 #@! TF.ProjectId,XIAO-ESP32-S3-MES,5849414f-2d45-4535-9033-322d53332d4d,rev?*
G04 #@! TF.SameCoordinates,Original*
G04 #@! TF.FileFunction,Copper,L2,Bot*
G04 #@! TF.FilePolarity,Positive*
%FSLAX46Y46*%
G04 Gerber Fmt 4.6, Leading zero omitted, Abs format (unit mm)*
G04 Created by KiCad (PCBNEW 10.0.6) date 2026-09-08 22:17:36*
%MOMM*%
%LPD*%
G01*
G04 APERTURE LIST*
G04 Aperture macros list*
%AMRoundRect*
0 Rectangle with rounded corners*
0 $1 Rounding radius*
0 $2 $3 $4 $5 $6 $7 $8 $9 X,Y pos of 4 corners*
0 Add a 4 corners polygon primitive as box body*
4,1,4,$2,$3,$4,$5,$6,$7,$8,$9,$2,$3,0*
0 Add four circle primitives for the rounded corners*
1,1,$1+$1,$2,$3*
1,1,$1+$1,$4,$5*
1,1,$1+$1,$6,$7*
1,1,$1+$1,$8,$9*
0 Add four rect primitives between the rounded corners*
20,1,$1+$1,$2,$3,$4,$5,0*
20,1,$1+$1,$4,$5,$6,$7,0*
20,1,$1+$1,$6,$7,$8,$9,0*
20,1,$1+$1,$8,$9,$2,$3,0*%
G04 Aperture macros list end*
G04 #@! TA.AperFunction,ComponentPad*
%ADD10RoundRect,0.250000X-0.750000X0.600000X-0.750000X-0.600000X0.750000X-0.600000X0.750000X0.600000X0*%
G04 #@! TD*
G04 #@! TA.AperFunction,ComponentPad*
%ADD11O,2.000000X1.700000*%
G04 #@! TD*
G04 #@! TA.AperFunction,ComponentPad*
%ADD12RoundRect,0.250000X0.725000X-0.600000X0.725000X0.600000X-0.725000X0.600000X-0.725000X-0.600000X0*%
G04 #@! TD*
G04 #@! TA.AperFunction,ComponentPad*
%ADD13O,1.950000X1.700000*%
G04 #@! TD*
G04 #@! TA.AperFunction,ComponentPad*
%ADD14RoundRect,0.250000X0.600000X0.750000X-0.600000X0.750000X-0.600000X-0.750000X0.600000X-0.750000X0*%
G04 #@! TD*
G04 #@! TA.AperFunction,ComponentPad*
%ADD15O,1.700000X2.000000*%
G04 #@! TD*
G04 #@! TA.AperFunction,ComponentPad*
%ADD16RoundRect,0.250000X0.600000X0.725000X-0.600000X0.725000X-0.600000X-0.725000X0.600000X-0.725000X0*%
G04 #@! TD*
G04 #@! TA.AperFunction,ComponentPad*
%ADD17O,1.700000X1.950000*%
G04 #@! TD*
G04 #@! TA.AperFunction,ComponentPad*
%ADD18C,1.600000*%
G04 #@! TD*
G04 #@! TA.AperFunction,ComponentPad*
%ADD19RoundRect,0.250000X-0.725000X0.600000X-0.725000X-0.600000X0.725000X-0.600000X0.725000X0.600000X0*%
G04 #@! TD*
G04 #@! TA.AperFunction,ComponentPad*
%ADD20R,1.700000X1.700000*%
G04 #@! TD*
G04 #@! TA.AperFunction,ComponentPad*
%ADD21C,1.700000*%
G04 #@! TD*
G04 #@! TA.AperFunction,ComponentPad*
%ADD22RoundRect,0.250000X-0.550000X-0.550000X0.550000X-0.550000X0.550000X0.550000X-0.550000X0.550000X0*%
G04 #@! TD*
G04 #@! TA.AperFunction,ViaPad*
%ADD23C,0.600000*%
G04 #@! TD*
G04 #@! TA.AperFunction,Conductor*
%ADD24C,0.200000*%
G04 #@! TD*
G04 APERTURE END LIST*
D10*
X128905000Y-81915000D03*
D11*
X128905000Y-84415000D03*
D12*
X95986600Y-62531000D03*
D13*
X95986600Y-60031000D03*
X95986600Y-57531000D03*
X95986600Y-55031000D03*
D14*
X120134800Y-92027000D03*
D15*
X117634800Y-92027000D03*
D16*
X111420600Y-91998800D03*
D17*
X108920600Y-91998800D03*
X106420600Y-91998800D03*
X103920600Y-91998800D03*
D18*
X109474000Y-74803000D03*
X109474000Y-84963000D03*
D12*
X95986600Y-76334000D03*
D13*
X95986600Y-73834000D03*
X95986600Y-71334000D03*
X95986600Y-68834000D03*
D12*
X95950600Y-90304000D03*
D13*
X95950600Y-87804000D03*
X95950600Y-85304000D03*
X95950600Y-82804000D03*
D19*
X128905000Y-55067200D03*
D13*
X128905000Y-57567200D03*
X128905000Y-60067200D03*
X128905000Y-62567200D03*
D20*
X105000000Y-80508000D03*
D21*
X105000000Y-77968000D03*
D22*
X113030000Y-76200000D03*
D18*
X113030000Y-78740000D03*
X113030000Y-81280000D03*
X113030000Y-83820000D03*
X120650000Y-83820000D03*
X120650000Y-81280000D03*
X120650000Y-78740000D03*
X120650000Y-76200000D03*
D14*
X128758000Y-92024200D03*
D15*
X126258000Y-92024200D03*
D19*
X128905000Y-68503800D03*
D13*
X128905000Y-71003800D03*
X128905000Y-73503800D03*
X128905000Y-76003800D03*
D23*
X118359800Y-69449600D03*
X104521000Y-74168000D03*
X124968000Y-65532000D03*
X113030000Y-67691000D03*
X124206000Y-73279000D03*
X114554000Y-92710000D03*
X127000000Y-86106000D03*
X101346000Y-55372000D03*
X123444000Y-53086000D03*
X98806000Y-83439000D03*
X120396000Y-73406000D03*
X123063000Y-91186000D03*
X130429000Y-89154000D03*
X95504000Y-93218000D03*
X130048000Y-78994000D03*
X97917000Y-53340000D03*
X93980000Y-57531000D03*
X116713000Y-56261000D03*
X98552000Y-88646000D03*
X119888000Y-86487000D03*
X121920000Y-89027000D03*
X98679000Y-93218000D03*
X130683000Y-53340000D03*
X101346000Y-80264000D03*
X103251000Y-85090000D03*
X108458000Y-56388000D03*
X131064000Y-59690000D03*
X114554000Y-89408000D03*
X124460000Y-57531000D03*
X114554000Y-86487000D03*
X108331000Y-53721000D03*
X130810000Y-93599000D03*
X123190000Y-93726000D03*
X101854000Y-93218000D03*
X116586000Y-61214000D03*
X113030000Y-72136000D03*
X108300000Y-64860000D03*
X102911800Y-61373000D03*
X118731600Y-70570000D03*
X107934700Y-73179200D03*
X118006700Y-80497500D03*
D24*
X97878900Y-69449600D02*
X97263300Y-68834000D01*
X95986600Y-68834000D02*
X97263300Y-68834000D01*
X118359800Y-69449600D02*
X97878900Y-69449600D01*
X128905000Y-57567200D02*
X124496200Y-57567200D01*
X124496200Y-57567200D02*
X124460000Y-57531000D01*
X111420600Y-91998800D02*
X109725800Y-90304000D01*
X109725800Y-90304000D02*
X95950600Y-90304000D01*
X108300000Y-64860000D02*
X104592300Y-64860000D01*
X104592300Y-64860000D02*
X97263300Y-57531000D01*
X95986600Y-57531000D02*
X97263300Y-57531000D01*
X97263300Y-55724500D02*
X97263300Y-55031000D01*
X102911800Y-61373000D02*
X97263300Y-55724500D01*
X95986600Y-55031000D02*
X97263300Y-55031000D01*
X106309000Y-77968000D02*
X109474000Y-74803000D01*
X105000000Y-77968000D02*
X106309000Y-77968000D01*
X128905000Y-63718900D02*
X130235000Y-65048900D01*
X124780500Y-81280000D02*
X128905000Y-77155500D01*
X130235000Y-65048900D02*
X130235000Y-74673800D01*
X120650000Y-81280000D02*
X124780500Y-81280000D01*
X130235000Y-74673800D02*
X128905000Y-76003800D01*
X128905000Y-62567200D02*
X128905000Y-63718900D01*
X116967000Y-84963000D02*
X109474000Y-84963000D01*
X128905000Y-76003800D02*
X128905000Y-77155500D01*
X120650000Y-81280000D02*
X116967000Y-84963000D01*
X95986600Y-71334000D02*
X97263300Y-71334000D01*
X98027300Y-70570000D02*
X97263300Y-71334000D01*
X118731600Y-70570000D02*
X98027300Y-70570000D01*
X110009200Y-73179200D02*
X107934700Y-73179200D01*
X113030000Y-76200000D02*
X110009200Y-73179200D01*
X116352500Y-80497500D02*
X118006700Y-80497500D01*
X113030000Y-83820000D02*
X116352500Y-80497500D01*
X120650000Y-78740000D02*
X124734500Y-74655500D01*
X119494200Y-79895800D02*
X106763900Y-79895800D01*
X128905000Y-73503800D02*
X128905000Y-74655500D01*
X124734500Y-74655500D02*
X128905000Y-74655500D01*
X106763900Y-79895800D02*
X106151700Y-80508000D01*
X120650000Y-78740000D02*
X119494200Y-79895800D01*
X105000000Y-80508000D02*
X106151700Y-80508000D01*
G04 #@! TA.AperFunction,Conductor*
G36*
X110910792Y-74950293D02*
G01*
X110961844Y-74981079D01*
X111693181Y-75712416D01*
X111726666Y-75773739D01*
X111729500Y-75800097D01*
X111729500Y-76800001D01*
X111729501Y-76800019D01*
X111740000Y-76902796D01*
X111740001Y-76902799D01*
X111795185Y-77069331D01*
X111795187Y-77069336D01*
X111826759Y-77120523D01*
X111887288Y-77218656D01*
X112011344Y-77342712D01*
X112160666Y-77434814D01*
X112243152Y-77462147D01*
X112300597Y-77501920D01*
X112327420Y-77566436D01*
X112315105Y-77635212D01*
X112305143Y-77646975D01*
X112304077Y-77660524D01*
X112983554Y-78340000D01*
X112977339Y-78340000D01*
X112875606Y-78367259D01*
X112784394Y-78419920D01*
X112709920Y-78494394D01*
X112657259Y-78585606D01*
X112630000Y-78687339D01*
X112630000Y-78693553D01*
X111950524Y-78014077D01*
X111950523Y-78014077D01*
X111918143Y-78058644D01*
X111825244Y-78240968D01*
X111762009Y-78435582D01*
X111730000Y-78637682D01*
X111730000Y-78842317D01*
X111762010Y-79044418D01*
X111762010Y-79044421D01*
X111790786Y-79132982D01*
X111792781Y-79202823D01*
X111756701Y-79262656D01*
X111694000Y-79293484D01*
X111672855Y-79295300D01*
X106850570Y-79295300D01*
X106850554Y-79295299D01*
X106842958Y-79295299D01*
X106684843Y-79295299D01*
X106583025Y-79322581D01*
X106532115Y-79336223D01*
X106419499Y-79401241D01*
X106351598Y-79417712D01*
X106285572Y-79394860D01*
X106258235Y-79368166D01*
X106207546Y-79300454D01*
X106184709Y-79283358D01*
X106092335Y-79214206D01*
X106092328Y-79214202D01*
X105960917Y-79165189D01*
X105904983Y-79123318D01*
X105880566Y-79057853D01*
X105895418Y-78989580D01*
X105916563Y-78961332D01*
X106030104Y-78847792D01*
X106034057Y-78842352D01*
X106155048Y-78675820D01*
X106155047Y-78675820D01*
X106155051Y-78675816D01*
X106175233Y-78636205D01*
X106223207Y-78585410D01*
X106285718Y-78568501D01*
X106388054Y-78568501D01*
X106388057Y-78568501D01*
X106540785Y-78527577D01*
X106590904Y-78498639D01*
X106677716Y-78448520D01*
X106789520Y-78336716D01*
X106789520Y-78336714D01*
X106799728Y-78326507D01*
X106799730Y-78326504D01*
X109029158Y-76097075D01*
X109090479Y-76063592D01*
X109155151Y-76066825D01*
X109169466Y-76071477D01*
X109371648Y-76103500D01*
X109371649Y-76103500D01*
X109576351Y-76103500D01*
X109576352Y-76103500D01*
X109778534Y-76071477D01*
X109973219Y-76008220D01*
X110155610Y-75915287D01*
X110276771Y-75827259D01*
X110321213Y-75794971D01*
X110321215Y-75794968D01*
X110321219Y-75794966D01*
X110465966Y-75650219D01*
X110465968Y-75650215D01*
X110465971Y-75650213D01*
X110538102Y-75550931D01*
X110586287Y-75484610D01*
X110679220Y-75302219D01*
X110742477Y-75107534D01*
X110751691Y-75049358D01*
X110781618Y-74986228D01*
X110840929Y-74949297D01*
X110910792Y-74950293D01*
G37*
G04 #@! TD.AperFunction*
G04 #@! TA.AperFunction,Conductor*
G36*
X131442539Y-52520185D02*
G01*
X131488294Y-52572989D01*
X131499500Y-52624500D01*
X131499500Y-94375500D01*
X131479815Y-94442539D01*
X131427011Y-94488294D01*
X131375500Y-94499500D01*
X93624500Y-94499500D01*
X93557461Y-94479815D01*
X93511706Y-94427011D01*
X93500500Y-94375500D01*
X93500500Y-82697713D01*
X94475100Y-82697713D01*
X94475100Y-82910287D01*
X94508354Y-83120243D01*
X94573511Y-83320776D01*
X94574044Y-83322414D01*
X94670551Y-83511820D01*
X94795490Y-83683786D01*
X94945809Y-83834105D01*
X94945814Y-83834109D01*
X95110393Y-83953682D01*
X95153059Y-84009011D01*
X95159038Y-84078625D01*
X95126433Y-84140420D01*
X95110393Y-84154318D01*
X94945814Y-84273890D01*
X94945809Y-84273894D01*
X94795490Y-84424213D01*
X94670551Y-84596179D01*
X94574044Y-84785585D01*
X94508353Y-84987760D01*
X94475100Y-85197713D01*
X94475100Y-85410287D01*
X94508354Y-85620243D01*
X94570081Y-85810219D01*
X94574044Y-85822414D01*
X94670551Y-86011820D01*
X94795490Y-86183786D01*
X94945809Y-86334105D01*
X94945814Y-86334109D01*
X95110818Y-86453991D01*
X95153484Y-86509320D01*
X95159463Y-86578934D01*
X95126858Y-86640729D01*
X95110818Y-86654627D01*
X94946140Y-86774272D01*
X94946135Y-86774276D01*
X94795876Y-86924535D01*
X94795872Y-86924540D01*
X94670979Y-87096442D01*
X94574504Y-87285782D01*
X94508842Y-87487870D01*
X94508842Y-87487873D01*
X94498369Y-87554000D01*
X95546454Y-87554000D01*
X95507970Y-87620657D01*
X95475600Y-87741465D01*
X95475600Y-87866535D01*
X95507970Y-87987343D01*
X95546454Y-88054000D01*
X94498369Y-88054000D01*
X94508842Y-88120126D01*
X94508842Y-88120129D01*
X94574504Y-88322217D01*
X94670979Y-88511557D01*
X94795872Y-88683459D01*
X94795876Y-88683464D01*
X94934743Y-88822331D01*
X94968228Y-88883654D01*
X94963244Y-88953346D01*
X94921372Y-89009279D01*
X94912159Y-89015551D01*
X94756942Y-89111289D01*
X94632889Y-89235342D01*
X94540787Y-89384663D01*
X94540786Y-89384666D01*
X94485601Y-89551203D01*
X94485601Y-89551204D01*
X94485600Y-89551204D01*
X94475100Y-89653983D01*
X94475100Y-90954001D01*
X94475101Y-90954018D01*
X94485600Y-91056796D01*
X94485601Y-91056799D01*
X94540785Y-91223331D01*
X94540787Y-91223336D01*
X94543042Y-91226992D01*
X94632888Y-91372656D01*
X94756944Y-91496712D01*
X94906266Y-91588814D01*
X95072803Y-91643999D01*
X95175591Y-91654500D01*
X96725608Y-91654499D01*
X96828397Y-91643999D01*
X96994934Y-91588814D01*
X97144256Y-91496712D01*
X97268312Y-91372656D01*
X97360414Y-91223334D01*
X97415599Y-91056797D01*
X97419777Y-91015896D01*
X97446173Y-90951207D01*
X97503353Y-90911055D01*
X97543135Y-90904500D01*
X102712164Y-90904500D01*
X102779203Y-90924185D01*
X102824958Y-90976989D01*
X102834902Y-91046147D01*
X102812482Y-91101385D01*
X102765551Y-91165980D01*
X102669044Y-91355385D01*
X102603353Y-91557560D01*
X102579662Y-91707143D01*
X102570100Y-91767513D01*
X102570100Y-92230087D01*
X102603354Y-92440043D01*
X102630698Y-92524200D01*
X102669044Y-92642214D01*
X102765551Y-92831620D01*
X102890490Y-93003586D01*
X103040813Y-93153909D01*
X103212779Y-93278848D01*
X103212781Y-93278849D01*
X103212784Y-93278851D01*
X103402188Y-93375357D01*
X103604357Y-93441046D01*
X103814313Y-93474300D01*
X103814314Y-93474300D01*
X104026886Y-93474300D01*
X104026887Y-93474300D01*
X104236843Y-93441046D01*
X104439012Y-93375357D01*
X104628416Y-93278851D01*
X104677959Y-93242856D01*
X104800386Y-93153909D01*
X104800388Y-93153906D01*
X104800392Y-93153904D01*
X104950704Y-93003592D01*
X105070283Y-92839004D01*
X105125611Y-92796340D01*
X105195224Y-92790361D01*
X105257020Y-92822966D01*
X105270913Y-92838999D01*
X105374206Y-92981171D01*
X105390496Y-93003592D01*
X105540813Y-93153909D01*
X105712779Y-93278848D01*
X105712781Y-93278849D01*
X105712784Y-93278851D01*
X105902188Y-93375357D01*
X106104357Y-93441046D01*
X106314313Y-93474300D01*
X106314314Y-93474300D01*
X106526886Y-93474300D01*
X106526887Y-93474300D01*
X106736843Y-93441046D01*
X106939012Y-93375357D01*
X107128416Y-93278851D01*
X107177959Y-93242856D01*
X107300386Y-93153909D01*
X107300388Y-93153906D01*
X107300392Y-93153904D01*
X107450704Y-93003592D01*
X107570591Y-92838579D01*
X107625920Y-92795915D01*
X107695533Y-92789936D01*
X107757329Y-92822541D01*
X107771227Y-92838581D01*
X107890872Y-93003259D01*
X107890876Y-93003264D01*
X108041135Y-93153523D01*
X108041140Y-93153527D01*
X108213042Y-93278420D01*
X108402382Y-93374895D01*
X108604471Y-93440557D01*
X108670600Y-93451031D01*
X108670600Y-92402945D01*
X108737257Y-92441430D01*
X108858065Y-92473800D01*
X108983135Y-92473800D01*
X109103943Y-92441430D01*
X109170600Y-92402945D01*
X109170600Y-93451030D01*
X109236726Y-93440557D01*
X109236729Y-93440557D01*
X109438817Y-93374895D01*
X109628157Y-93278420D01*
X109800058Y-93153528D01*
X109938930Y-93014656D01*
X110000253Y-92981171D01*
X110069945Y-92986155D01*
X110125879Y-93028026D01*
X110132151Y-93037240D01*
X110135785Y-93043131D01*
X110135786Y-93043134D01*
X110227888Y-93192456D01*
X110351944Y-93316512D01*
X110501266Y-93408614D01*
X110667803Y-93463799D01*
X110770591Y-93474300D01*
X112070608Y-93474299D01*
X112173397Y-93463799D01*
X112339934Y-93408614D01*
X112489256Y-93316512D01*
X112613312Y-93192456D01*
X112705414Y-93043134D01*
X112760599Y-92876597D01*
X112771100Y-92773809D01*
X112771099Y-91770753D01*
X116284800Y-91770753D01*
X116284800Y-91777000D01*
X117201788Y-91777000D01*
X117168875Y-91834007D01*
X117134800Y-91961174D01*
X117134800Y-92092826D01*
X117168875Y-92219993D01*
X117201788Y-92277000D01*
X116284800Y-92277000D01*
X116284800Y-92283246D01*
X116318042Y-92493127D01*
X116318042Y-92493130D01*
X116383704Y-92695217D01*
X116480179Y-92884557D01*
X116605072Y-93056459D01*
X116605076Y-93056464D01*
X116755335Y-93206723D01*
X116755340Y-93206727D01*
X116927242Y-93331620D01*
X117116582Y-93428095D01*
X117318671Y-93493757D01*
X117384800Y-93504231D01*
X117384800Y-92460012D01*
X117441807Y-92492925D01*
X117568974Y-92527000D01*
X117700626Y-92527000D01*
X117827793Y-92492925D01*
X117884800Y-92460012D01*
X117884800Y-93504230D01*
X117950926Y-93493757D01*
X117950929Y-93493757D01*
X118153017Y-93428095D01*
X118342357Y-93331620D01*
X118514258Y-93206728D01*
X118653130Y-93067856D01*
X118714453Y-93034371D01*
X118784145Y-93039355D01*
X118840079Y-93081226D01*
X118846351Y-93090440D01*
X118849985Y-93096331D01*
X118849986Y-93096334D01*
X118942088Y-93245656D01*
X119066144Y-93369712D01*
X119215466Y-93461814D01*
X119382003Y-93516999D01*
X119484791Y-93527500D01*
X120784808Y-93527499D01*
X120887597Y-93516999D01*
X121054134Y-93461814D01*
X121203456Y-93369712D01*
X121327512Y-93245656D01*
X121419614Y-93096334D01*
X121474799Y-92929797D01*
X121485300Y-92827009D01*
X121485299Y-91767953D01*
X124908000Y-91767953D01*
X124908000Y-91774200D01*
X125824988Y-91774200D01*
X125792075Y-91831207D01*
X125758000Y-91958374D01*
X125758000Y-92090026D01*
X125792075Y-92217193D01*
X125824988Y-92274200D01*
X124908000Y-92274200D01*
X124908000Y-92280446D01*
X124941242Y-92490327D01*
X124941242Y-92490330D01*
X125006904Y-92692417D01*
X125103379Y-92881757D01*
X125228272Y-93053659D01*
X125228276Y-93053664D01*
X125378535Y-93203923D01*
X125378540Y-93203927D01*
X125550442Y-93328820D01*
X125739782Y-93425295D01*
X125941871Y-93490957D01*
X126008000Y-93501431D01*
X126008000Y-92457212D01*
X126065007Y-92490125D01*
X126192174Y-92524200D01*
X126323826Y-92524200D01*
X126450993Y-92490125D01*
X126508000Y-92457212D01*
X126508000Y-93501430D01*
X126574126Y-93490957D01*
X126574129Y-93490957D01*
X126776217Y-93425295D01*
X126965557Y-93328820D01*
X127137458Y-93203928D01*
X127276330Y-93065056D01*
X127337653Y-93031571D01*
X127407345Y-93036555D01*
X127463279Y-93078426D01*
X127469551Y-93087640D01*
X127473185Y-93093531D01*
X127473186Y-93093534D01*
X127565288Y-93242856D01*
X127689344Y-93366912D01*
X127838666Y-93459014D01*
X128005203Y-93514199D01*
X128107991Y-93524700D01*
X129408008Y-93524699D01*
X129510797Y-93514199D01*
X129677334Y-93459014D01*
X129826656Y-93366912D01*
X129950712Y-93242856D01*
X130042814Y-93093534D01*
X130097999Y-92926997D01*
X130108500Y-92824209D01*
X130108499Y-91224192D01*
X130097999Y-91121403D01*
X130042814Y-90954866D01*
X129950712Y-90805544D01*
X129826656Y-90681488D01*
X129731998Y-90623103D01*
X129677336Y-90589387D01*
X129677331Y-90589385D01*
X129675862Y-90588898D01*
X129510797Y-90534201D01*
X129510795Y-90534200D01*
X129408010Y-90523700D01*
X128107998Y-90523700D01*
X128107981Y-90523701D01*
X128005203Y-90534200D01*
X128005200Y-90534201D01*
X127838668Y-90589385D01*
X127838663Y-90589387D01*
X127689342Y-90681489D01*
X127565289Y-90805542D01*
X127469551Y-90960759D01*
X127417603Y-91007483D01*
X127348640Y-91018706D01*
X127284558Y-90990862D01*
X127276331Y-90983343D01*
X127137464Y-90844476D01*
X127137459Y-90844472D01*
X126965557Y-90719579D01*
X126776215Y-90623103D01*
X126574124Y-90557441D01*
X126508000Y-90546968D01*
X126508000Y-91591188D01*
X126450993Y-91558275D01*
X126323826Y-91524200D01*
X126192174Y-91524200D01*
X126065007Y-91558275D01*
X126008000Y-91591188D01*
X126008000Y-90546968D01*
X126007999Y-90546968D01*
X125941875Y-90557441D01*
X125739784Y-90623103D01*
X125550442Y-90719579D01*
X125378540Y-90844472D01*
X125378535Y-90844476D01*
X125228276Y-90994735D01*
X125228272Y-90994740D01*
X125103379Y-91166642D01*
X125006904Y-91355982D01*
X124941242Y-91558069D01*
X124941242Y-91558072D01*
X124908000Y-91767953D01*
X121485299Y-91767953D01*
X121485299Y-91226992D01*
X121474799Y-91124203D01*
X121419614Y-90957666D01*
X121327512Y-90808344D01*
X121203456Y-90684288D01*
X121054134Y-90592186D01*
X120887597Y-90537001D01*
X120887595Y-90537000D01*
X120784810Y-90526500D01*
X119484798Y-90526500D01*
X119484781Y-90526501D01*
X119382003Y-90537000D01*
X119382000Y-90537001D01*
X119215468Y-90592185D01*
X119215463Y-90592187D01*
X119066142Y-90684289D01*
X118942089Y-90808342D01*
X118846351Y-90963559D01*
X118794403Y-91010283D01*
X118725440Y-91021506D01*
X118661358Y-90993662D01*
X118653131Y-90986143D01*
X118514264Y-90847276D01*
X118514259Y-90847272D01*
X118342357Y-90722379D01*
X118153015Y-90625903D01*
X117950924Y-90560241D01*
X117884800Y-90549768D01*
X117884800Y-91593988D01*
X117827793Y-91561075D01*
X117700626Y-91527000D01*
X117568974Y-91527000D01*
X117441807Y-91561075D01*
X117384800Y-91593988D01*
X117384800Y-90549768D01*
X117384799Y-90549768D01*
X117318675Y-90560241D01*
X117116584Y-90625903D01*
X116927242Y-90722379D01*
X116755340Y-90847272D01*
X116755335Y-90847276D01*
X116605076Y-90997535D01*
X116605072Y-90997540D01*
X116480179Y-91169442D01*
X116383704Y-91358782D01*
X116318042Y-91560869D01*
X116318042Y-91560872D01*
X116284800Y-91770753D01*
X112771099Y-91770753D01*
X112771099Y-91223792D01*
X112771052Y-91223336D01*
X112760599Y-91121003D01*
X112760598Y-91121000D01*
X112739323Y-91056796D01*
X112705414Y-90954466D01*
X112613312Y-90805144D01*
X112489256Y-90681088D01*
X112345122Y-90592186D01*
X112339936Y-90588987D01*
X112339931Y-90588985D01*
X112338462Y-90588498D01*
X112173397Y-90533801D01*
X112173395Y-90533800D01*
X112070616Y-90523300D01*
X112070609Y-90523300D01*
X110845697Y-90523300D01*
X110778658Y-90503615D01*
X110758016Y-90486981D01*
X110213390Y-89942355D01*
X110213388Y-89942352D01*
X110094517Y-89823481D01*
X110094516Y-89823480D01*
X110007704Y-89773360D01*
X110007704Y-89773359D01*
X110007700Y-89773358D01*
X109957585Y-89744423D01*
X109804857Y-89703499D01*
X109646743Y-89703499D01*
X109639147Y-89703499D01*
X109639131Y-89703500D01*
X97543135Y-89703500D01*
X97476096Y-89683815D01*
X97430341Y-89631011D01*
X97419777Y-89592102D01*
X97419263Y-89587071D01*
X97415599Y-89551203D01*
X97360414Y-89384666D01*
X97268312Y-89235344D01*
X97144256Y-89111288D01*
X96994934Y-89019186D01*
X96994932Y-89019185D01*
X96989040Y-89015551D01*
X96942316Y-88963603D01*
X96931093Y-88894641D01*
X96958937Y-88830558D01*
X96966456Y-88822330D01*
X97105328Y-88683458D01*
X97230220Y-88511557D01*
X97326695Y-88322217D01*
X97392357Y-88120129D01*
X97392357Y-88120126D01*
X97402831Y-88054000D01*
X96354746Y-88054000D01*
X96393230Y-87987343D01*
X96425600Y-87866535D01*
X96425600Y-87741465D01*
X96393230Y-87620657D01*
X96354746Y-87554000D01*
X97402831Y-87554000D01*
X97392357Y-87487873D01*
X97392357Y-87487870D01*
X97326695Y-87285782D01*
X97230220Y-87096442D01*
X97105327Y-86924540D01*
X97105323Y-86924535D01*
X96955064Y-86774276D01*
X96955059Y-86774272D01*
X96790381Y-86654627D01*
X96747715Y-86599297D01*
X96741736Y-86529684D01*
X96774341Y-86467889D01*
X96790376Y-86453994D01*
X96955392Y-86334104D01*
X97105704Y-86183792D01*
X97105706Y-86183788D01*
X97105709Y-86183786D01*
X97230648Y-86011820D01*
X97230647Y-86011820D01*
X97230651Y-86011816D01*
X97327157Y-85822412D01*
X97392846Y-85620243D01*
X97426100Y-85410287D01*
X97426100Y-85197713D01*
X97392846Y-84987757D01*
X97327157Y-84785588D01*
X97230651Y-84596184D01*
X97230649Y-84596181D01*
X97230648Y-84596179D01*
X97105709Y-84424213D01*
X96955392Y-84273896D01*
X96882384Y-84220853D01*
X96790804Y-84154316D01*
X96748140Y-84098989D01*
X96742161Y-84029376D01*
X96774766Y-83967580D01*
X96790799Y-83953686D01*
X96955392Y-83834104D01*
X97105704Y-83683792D01*
X97105706Y-83683788D01*
X97105709Y-83683786D01*
X97230648Y-83511820D01*
X97230647Y-83511820D01*
X97230651Y-83511816D01*
X97327157Y-83322412D01*
X97392846Y-83120243D01*
X97426100Y-82910287D01*
X97426100Y-82697713D01*
X97392846Y-82487757D01*
X97327157Y-82285588D01*
X97230651Y-82096184D01*
X97230649Y-82096181D01*
X97230648Y-82096179D01*
X97105709Y-81924213D01*
X96955386Y-81773890D01*
X96783420Y-81648951D01*
X96594014Y-81552444D01*
X96594013Y-81552443D01*
X96594012Y-81552443D01*
X96391843Y-81486754D01*
X96391841Y-81486753D01*
X96391840Y-81486753D01*
X96213973Y-81458582D01*
X96181887Y-81453500D01*
X95719313Y-81453500D01*
X95687227Y-81458582D01*
X95509360Y-81486753D01*
X95307185Y-81552444D01*
X95117779Y-81648951D01*
X94945813Y-81773890D01*
X94795490Y-81924213D01*
X94670551Y-82096179D01*
X94574044Y-82285585D01*
X94508353Y-82487760D01*
X94480996Y-82660485D01*
X94475100Y-82697713D01*
X93500500Y-82697713D01*
X93500500Y-77861713D01*
X103649500Y-77861713D01*
X103649500Y-78074287D01*
X103682754Y-78284243D01*
X103731927Y-78435582D01*
X103748444Y-78486414D01*
X103844951Y-78675820D01*
X103969890Y-78847786D01*
X104083430Y-78961326D01*
X104116915Y-79022649D01*
X104111931Y-79092341D01*
X104070059Y-79148274D01*
X104039083Y-79165189D01*
X103907669Y-79214203D01*
X103907664Y-79214206D01*
X103792455Y-79300452D01*
X103792452Y-79300455D01*
X103706206Y-79415664D01*
X103706202Y-79415671D01*
X103655908Y-79550517D01*
X103649501Y-79610116D01*
X103649500Y-79610135D01*
X103649500Y-81405870D01*
X103649501Y-81405876D01*
X103655908Y-81465483D01*
X103706202Y-81600328D01*
X103706206Y-81600335D01*
X103792452Y-81715544D01*
X103792455Y-81715547D01*
X103907664Y-81801793D01*
X103907671Y-81801797D01*
X104042517Y-81852091D01*
X104042516Y-81852091D01*
X104049444Y-81852835D01*
X104102127Y-81858500D01*
X105897872Y-81858499D01*
X105957483Y-81852091D01*
X106092331Y-81801796D01*
X106207546Y-81715546D01*
X106293796Y-81600331D01*
X106344091Y-81465483D01*
X106350500Y-81405873D01*
X106350499Y-81158210D01*
X106370183Y-81091172D01*
X106412494Y-81050827D01*
X106433604Y-81038639D01*
X106520416Y-80988520D01*
X106632220Y-80876716D01*
X106632221Y-80876713D01*
X106976318Y-80532617D01*
X107037640Y-80499134D01*
X107063998Y-80496300D01*
X111767381Y-80496300D01*
X111834420Y-80515985D01*
X111880175Y-80568789D01*
X111890119Y-80637947D01*
X111877866Y-80676592D01*
X111865174Y-80701503D01*
X111824781Y-80780776D01*
X111761522Y-80975465D01*
X111729500Y-81177648D01*
X111729500Y-81382351D01*
X111761522Y-81584534D01*
X111824781Y-81779223D01*
X111917715Y-81961613D01*
X112038028Y-82127213D01*
X112182786Y-82271971D01*
X112337749Y-82384556D01*
X112348390Y-82392287D01*
X112439840Y-82438883D01*
X112441080Y-82439515D01*
X112491876Y-82487490D01*
X112508671Y-82555311D01*
X112486134Y-82621446D01*
X112441080Y-82660485D01*
X112348386Y-82707715D01*
X112182786Y-82828028D01*
X112038028Y-82972786D01*
X111917715Y-83138386D01*
X111824781Y-83320776D01*
X111761522Y-83515465D01*
X111729500Y-83717648D01*
X111729500Y-83922351D01*
X111761523Y-84124535D01*
X111761523Y-84124538D01*
X111786102Y-84200182D01*
X111788097Y-84270023D01*
X111752017Y-84329856D01*
X111689316Y-84360684D01*
X111668171Y-84362500D01*
X110703602Y-84362500D01*
X110636563Y-84342815D01*
X110593117Y-84294795D01*
X110586287Y-84281390D01*
X110586285Y-84281387D01*
X110586284Y-84281385D01*
X110465971Y-84115786D01*
X110321213Y-83971028D01*
X110155613Y-83850715D01*
X110155612Y-83850714D01*
X110155610Y-83850713D01*
X110098653Y-83821691D01*
X109973223Y-83757781D01*
X109778534Y-83694522D01*
X109603995Y-83666878D01*
X109576352Y-83662500D01*
X109371648Y-83662500D01*
X109347329Y-83666351D01*
X109169465Y-83694522D01*
X108974776Y-83757781D01*
X108792386Y-83850715D01*
X108626786Y-83971028D01*
X108482028Y-84115786D01*
X108361715Y-84281386D01*
X108268781Y-84463776D01*
X108205522Y-84658465D01*
X108173500Y-84860648D01*
X108173500Y-85065351D01*
X108205522Y-85267534D01*
X108268781Y-85462223D01*
X108329001Y-85580409D01*
X108349297Y-85620243D01*
X108361715Y-85644613D01*
X108482028Y-85810213D01*
X108626786Y-85954971D01*
X108705034Y-86011820D01*
X108792390Y-86075287D01*
X108908607Y-86134503D01*
X108974776Y-86168218D01*
X108974778Y-86168218D01*
X108974781Y-86168220D01*
X109022707Y-86183792D01*
X109169465Y-86231477D01*
X109270557Y-86247488D01*
X109371648Y-86263500D01*
X109371649Y-86263500D01*
X109576351Y-86263500D01*
X109576352Y-86263500D01*
X109778534Y-86231477D01*
X109973219Y-86168220D01*
X110155610Y-86075287D01*
X110248590Y-86007732D01*
X110321213Y-85954971D01*
X110321215Y-85954968D01*
X110321219Y-85954966D01*
X110465966Y-85810219D01*
X110465968Y-85810215D01*
X110465971Y-85810213D01*
X110586284Y-85644614D01*
X110586285Y-85644613D01*
X110586287Y-85644610D01*
X110593117Y-85631204D01*
X110641091Y-85580409D01*
X110703602Y-85563500D01*
X116880331Y-85563500D01*
X116880347Y-85563501D01*
X116887943Y-85563501D01*
X117046054Y-85563501D01*
X117046057Y-85563501D01*
X117198785Y-85522577D01*
X117248904Y-85493639D01*
X117335716Y-85443520D01*
X117447520Y-85331716D01*
X117447520Y-85331714D01*
X117457728Y-85321507D01*
X117457729Y-85321504D01*
X119137820Y-83641413D01*
X119199142Y-83607930D01*
X119268834Y-83612914D01*
X119324767Y-83654786D01*
X119349184Y-83720250D01*
X119349500Y-83729096D01*
X119349500Y-83922351D01*
X119381522Y-84124534D01*
X119444781Y-84319223D01*
X119537715Y-84501613D01*
X119658028Y-84667213D01*
X119802786Y-84811971D01*
X119944596Y-84915000D01*
X119968390Y-84932287D01*
X120077256Y-84987757D01*
X120150776Y-85025218D01*
X120150778Y-85025218D01*
X120150781Y-85025220D01*
X120255137Y-85059127D01*
X120345465Y-85088477D01*
X120446557Y-85104488D01*
X120547648Y-85120500D01*
X120547649Y-85120500D01*
X120752351Y-85120500D01*
X120752352Y-85120500D01*
X120954534Y-85088477D01*
X121149219Y-85025220D01*
X121331610Y-84932287D01*
X121430213Y-84860648D01*
X121497213Y-84811971D01*
X121497215Y-84811968D01*
X121497219Y-84811966D01*
X121641966Y-84667219D01*
X121641968Y-84667215D01*
X121641971Y-84667213D01*
X121723461Y-84555051D01*
X121743130Y-84527976D01*
X121762287Y-84501610D01*
X121855220Y-84319219D01*
X121918477Y-84124534D01*
X121950500Y-83922352D01*
X121950500Y-83717648D01*
X121941765Y-83662500D01*
X121918477Y-83515465D01*
X121877204Y-83388441D01*
X121855220Y-83320781D01*
X121855218Y-83320778D01*
X121855218Y-83320776D01*
X121821503Y-83254607D01*
X121762287Y-83138390D01*
X121739998Y-83107712D01*
X121641971Y-82972786D01*
X121497213Y-82828028D01*
X121331614Y-82707715D01*
X121253274Y-82667799D01*
X121238917Y-82660483D01*
X121188123Y-82612511D01*
X121171328Y-82544690D01*
X121193865Y-82478555D01*
X121238917Y-82439516D01*
X121331610Y-82392287D01*
X121352770Y-82376913D01*
X121497213Y-82271971D01*
X121497215Y-82271968D01*
X121497219Y-82271966D01*
X121641966Y-82127219D01*
X121641968Y-82127215D01*
X121641971Y-82127213D01*
X121762284Y-81961614D01*
X121762285Y-81961613D01*
X121762287Y-81961610D01*
X121769117Y-81948204D01*
X121817091Y-81897409D01*
X121879602Y-81880500D01*
X124693831Y-81880500D01*
X124693847Y-81880501D01*
X124701443Y-81880501D01*
X124859554Y-81880501D01*
X124859557Y-81880501D01*
X125012285Y-81839577D01*
X125077723Y-81801796D01*
X125149216Y-81760520D01*
X125261020Y-81648716D01*
X125261020Y-81648714D01*
X125271224Y-81638511D01*
X125271228Y-81638506D01*
X125644751Y-81264983D01*
X127404500Y-81264983D01*
X127404500Y-82565001D01*
X127404501Y-82565018D01*
X127415000Y-82667796D01*
X127415001Y-82667799D01*
X127468096Y-82828028D01*
X127470186Y-82834334D01*
X127555583Y-82972786D01*
X127562289Y-82983657D01*
X127686344Y-83107712D01*
X127841558Y-83203448D01*
X127888283Y-83255396D01*
X127899506Y-83324358D01*
X127871663Y-83388441D01*
X127864144Y-83396668D01*
X127725271Y-83535541D01*
X127600379Y-83707442D01*
X127503904Y-83896782D01*
X127438242Y-84098870D01*
X127438242Y-84098873D01*
X127427769Y-84165000D01*
X128471988Y-84165000D01*
X128439075Y-84222007D01*
X128405000Y-84349174D01*
X128405000Y-84480826D01*
X128439075Y-84607993D01*
X128471988Y-84665000D01*
X127427769Y-84665000D01*
X127438242Y-84731126D01*
X127438242Y-84731129D01*
X127503904Y-84933217D01*
X127600379Y-85122557D01*
X127725272Y-85294459D01*
X127725276Y-85294464D01*
X127875535Y-85444723D01*
X127875540Y-85444727D01*
X128047442Y-85569620D01*
X128236782Y-85666095D01*
X128438870Y-85731757D01*
X128648754Y-85765000D01*
X128655000Y-85765000D01*
X128655000Y-84848012D01*
X128712007Y-84880925D01*
X128839174Y-84915000D01*
X128970826Y-84915000D01*
X129097993Y-84880925D01*
X129155000Y-84848012D01*
X129155000Y-85765000D01*
X129161246Y-85765000D01*
X129371127Y-85731757D01*
X129371130Y-85731757D01*
X129573217Y-85666095D01*
X129762557Y-85569620D01*
X129934459Y-85444727D01*
X129934464Y-85444723D01*
X130084723Y-85294464D01*
X130084727Y-85294459D01*
X130209620Y-85122557D01*
X130306095Y-84933217D01*
X130371757Y-84731129D01*
X130371757Y-84731126D01*
X130382231Y-84665000D01*
X129338012Y-84665000D01*
X129370925Y-84607993D01*
X129405000Y-84480826D01*
X129405000Y-84349174D01*
X129370925Y-84222007D01*
X129338012Y-84165000D01*
X130382231Y-84165000D01*
X130371757Y-84098873D01*
X130371757Y-84098870D01*
X130306095Y-83896782D01*
X130209620Y-83707442D01*
X130084727Y-83535540D01*
X130084723Y-83535535D01*
X129945856Y-83396668D01*
X129912371Y-83335345D01*
X129917355Y-83265653D01*
X129959227Y-83209720D01*
X129968441Y-83203448D01*
X129974331Y-83199814D01*
X129974334Y-83199814D01*
X130123656Y-83107712D01*
X130247712Y-82983656D01*
X130339814Y-82834334D01*
X130394999Y-82667797D01*
X130405500Y-82565009D01*
X130405499Y-81264992D01*
X130394999Y-81162203D01*
X130339814Y-80995666D01*
X130247712Y-80846344D01*
X130123656Y-80722288D01*
X130022371Y-80659815D01*
X129974336Y-80630187D01*
X129974331Y-80630185D01*
X129972862Y-80629698D01*
X129807797Y-80575001D01*
X129807795Y-80575000D01*
X129705010Y-80564500D01*
X128104998Y-80564500D01*
X128104981Y-80564501D01*
X128002203Y-80575000D01*
X128002200Y-80575001D01*
X127835668Y-80630185D01*
X127835663Y-80630187D01*
X127686342Y-80722289D01*
X127562289Y-80846342D01*
X127470187Y-80995663D01*
X127470186Y-80995666D01*
X127415001Y-81162203D01*
X127415001Y-81162204D01*
X127415000Y-81162204D01*
X127404500Y-81264983D01*
X125644751Y-81264983D01*
X129263506Y-77646228D01*
X129263511Y-77646224D01*
X129273714Y-77636020D01*
X129273716Y-77636020D01*
X129385520Y-77524216D01*
X129455702Y-77402656D01*
X129464577Y-77387285D01*
X129478047Y-77337013D01*
X129514410Y-77277354D01*
X129544446Y-77258307D01*
X129544070Y-77257569D01*
X129548409Y-77255357D01*
X129548412Y-77255357D01*
X129737816Y-77158851D01*
X129759789Y-77142886D01*
X129909786Y-77033909D01*
X129909788Y-77033906D01*
X129909792Y-77033904D01*
X130060104Y-76883592D01*
X130060106Y-76883588D01*
X130060109Y-76883586D01*
X130185048Y-76711620D01*
X130185047Y-76711620D01*
X130185051Y-76711616D01*
X130281557Y-76522212D01*
X130347246Y-76320043D01*
X130380500Y-76110087D01*
X130380500Y-75897513D01*
X130347246Y-75687557D01*
X130302851Y-75550926D01*
X130300857Y-75481090D01*
X130333100Y-75424933D01*
X130593506Y-75164528D01*
X130593511Y-75164524D01*
X130603714Y-75154320D01*
X130603716Y-75154320D01*
X130715520Y-75042516D01*
X130792027Y-74910001D01*
X130794577Y-74905585D01*
X130835501Y-74752857D01*
X130835501Y-74594743D01*
X130835501Y-74587148D01*
X130835500Y-74587130D01*
X130835500Y-65137959D01*
X130835501Y-65137946D01*
X130835501Y-64969845D01*
X130835501Y-64969843D01*
X130794577Y-64817115D01*
X130765639Y-64766995D01*
X130715520Y-64680184D01*
X130603716Y-64568380D01*
X130603715Y-64568379D01*
X130599385Y-64564049D01*
X130599374Y-64564039D01*
X129851928Y-63816593D01*
X129818443Y-63755270D01*
X129823427Y-63685578D01*
X129865299Y-63629645D01*
X129866682Y-63628624D01*
X129909792Y-63597304D01*
X130060104Y-63446992D01*
X130060106Y-63446988D01*
X130060109Y-63446986D01*
X130185048Y-63275020D01*
X130185047Y-63275020D01*
X130185051Y-63275016D01*
X130281557Y-63085612D01*
X130347246Y-62883443D01*
X130380500Y-62673487D01*
X130380500Y-62460913D01*
X130347246Y-62250957D01*
X130281557Y-62048788D01*
X130185051Y-61859384D01*
X130185049Y-61859381D01*
X130185048Y-61859379D01*
X130060109Y-61687413D01*
X129909792Y-61537096D01*
X129909784Y-61537090D01*
X129745204Y-61417516D01*
X129702540Y-61362189D01*
X129696561Y-61292576D01*
X129729166Y-61230780D01*
X129745199Y-61216886D01*
X129909792Y-61097304D01*
X130060104Y-60946992D01*
X130060106Y-60946988D01*
X130060109Y-60946986D01*
X130185048Y-60775020D01*
X130185047Y-60775020D01*
X130185051Y-60775016D01*
X130281557Y-60585612D01*
X130347246Y-60383443D01*
X130380500Y-60173487D01*
X130380500Y-59960913D01*
X130347246Y-59750957D01*
X130281557Y-59548788D01*
X130185051Y-59359384D01*
X130185049Y-59359381D01*
X130185048Y-59359379D01*
X130060109Y-59187413D01*
X129909790Y-59037094D01*
X129909785Y-59037090D01*
X129744781Y-58917208D01*
X129702115Y-58861878D01*
X129696136Y-58792265D01*
X129728741Y-58730470D01*
X129744781Y-58716571D01*
X129909466Y-58596921D01*
X130059723Y-58446664D01*
X130059727Y-58446659D01*
X130184620Y-58274757D01*
X130281095Y-58085417D01*
X130346757Y-57883329D01*
X130346757Y-57883326D01*
X130357231Y-57817200D01*
X129309146Y-57817200D01*
X129347630Y-57750543D01*
X129380000Y-57629735D01*
X129380000Y-57504665D01*
X129347630Y-57383857D01*
X129309146Y-57317200D01*
X130357231Y-57317200D01*
X130346757Y-57251073D01*
X130346757Y-57251070D01*
X130281095Y-57048982D01*
X130184620Y-56859642D01*
X130059727Y-56687740D01*
X130059723Y-56687735D01*
X129920856Y-56548868D01*
X129887371Y-56487545D01*
X129892355Y-56417853D01*
X129934227Y-56361920D01*
X129943441Y-56355648D01*
X129949331Y-56352014D01*
X129949334Y-56352014D01*
X130098656Y-56259912D01*
X130222712Y-56135856D01*
X130314814Y-55986534D01*
X130369999Y-55819997D01*
X130380500Y-55717209D01*
X130380499Y-54417192D01*
X130369999Y-54314403D01*
X130314814Y-54147866D01*
X130222712Y-53998544D01*
X130098656Y-53874488D01*
X129949334Y-53782386D01*
X129782797Y-53727201D01*
X129782795Y-53727200D01*
X129680010Y-53716700D01*
X128129998Y-53716700D01*
X128129981Y-53716701D01*
X128027203Y-53727200D01*
X128027200Y-53727201D01*
X127860668Y-53782385D01*
X127860663Y-53782387D01*
X127711342Y-53874489D01*
X127587289Y-53998542D01*
X127495187Y-54147863D01*
X127495185Y-54147868D01*
X127494077Y-54151213D01*
X127440001Y-54314403D01*
X127440001Y-54314404D01*
X127440000Y-54314404D01*
X127429500Y-54417183D01*
X127429500Y-55717201D01*
X127429501Y-55717218D01*
X127440000Y-55819996D01*
X127440001Y-55819999D01*
X127495185Y-55986531D01*
X127495186Y-55986534D01*
X127541181Y-56061105D01*
X127587289Y-56135857D01*
X127711344Y-56259912D01*
X127866558Y-56355648D01*
X127913283Y-56407596D01*
X127924506Y-56476558D01*
X127896663Y-56540641D01*
X127889144Y-56548868D01*
X127750271Y-56687741D01*
X127625379Y-56859642D01*
X127528904Y-57048982D01*
X127463242Y-57251070D01*
X127463242Y-57251073D01*
X127452769Y-57317200D01*
X128500854Y-57317200D01*
X128462370Y-57383857D01*
X128430000Y-57504665D01*
X128430000Y-57629735D01*
X128462370Y-57750543D01*
X128500854Y-57817200D01*
X127452769Y-57817200D01*
X127463242Y-57883326D01*
X127463242Y-57883329D01*
X127528904Y-58085417D01*
X127625379Y-58274757D01*
X127750272Y-58446659D01*
X127750276Y-58446664D01*
X127900535Y-58596923D01*
X127900540Y-58596927D01*
X128065218Y-58716572D01*
X128107884Y-58771901D01*
X128113863Y-58841515D01*
X128081258Y-58903310D01*
X128065218Y-58917208D01*
X127900214Y-59037090D01*
X127900209Y-59037094D01*
X127749890Y-59187413D01*
X127624951Y-59359379D01*
X127528444Y-59548785D01*
X127462753Y-59750960D01*
X127429500Y-59960913D01*
X127429500Y-60173486D01*
X127446528Y-60281000D01*
X127462754Y-60383443D01*
X127524137Y-60572361D01*
X127528444Y-60585614D01*
X127624951Y-60775020D01*
X127749890Y-60946986D01*
X127900209Y-61097305D01*
X127900214Y-61097309D01*
X128064793Y-61216882D01*
X128107459Y-61272211D01*
X128113438Y-61341825D01*
X128080833Y-61403620D01*
X128064793Y-61417518D01*
X127900214Y-61537090D01*
X127900209Y-61537094D01*
X127749890Y-61687413D01*
X127624951Y-61859379D01*
X127528444Y-62048785D01*
X127462753Y-62250960D01*
X127429500Y-62460913D01*
X127429500Y-62673486D01*
X127462753Y-62883439D01*
X127528444Y-63085614D01*
X127624951Y-63275020D01*
X127749890Y-63446986D01*
X127900213Y-63597309D01*
X128072179Y-63722248D01*
X128072181Y-63722249D01*
X128072184Y-63722251D01*
X128261588Y-63818757D01*
X128261589Y-63818757D01*
X128265930Y-63820969D01*
X128265188Y-63822424D01*
X128314035Y-63861789D01*
X128331951Y-63900412D01*
X128345421Y-63950681D01*
X128345422Y-63950683D01*
X128374358Y-64000800D01*
X128374359Y-64000804D01*
X128374360Y-64000804D01*
X128424479Y-64087614D01*
X128424481Y-64087617D01*
X128543349Y-64206485D01*
X128543355Y-64206490D01*
X129598181Y-65261316D01*
X129631666Y-65322639D01*
X129634500Y-65348997D01*
X129634500Y-67029300D01*
X129614815Y-67096339D01*
X129562011Y-67142094D01*
X129510500Y-67153300D01*
X128129998Y-67153300D01*
X128129981Y-67153301D01*
X128027203Y-67163800D01*
X128027200Y-67163801D01*
X127860668Y-67218985D01*
X127860663Y-67218987D01*
X127711342Y-67311089D01*
X127587289Y-67435142D01*
X127495187Y-67584463D01*
X127495186Y-67584466D01*
X127440001Y-67751003D01*
X127440001Y-67751004D01*
X127440000Y-67751004D01*
X127429500Y-67853783D01*
X127429500Y-69153801D01*
X127429501Y-69153818D01*
X127440000Y-69256596D01*
X127440001Y-69256599D01*
X127477829Y-69370755D01*
X127495186Y-69423134D01*
X127560141Y-69528444D01*
X127587289Y-69572457D01*
X127711344Y-69696512D01*
X127866558Y-69792248D01*
X127913283Y-69844196D01*
X127924506Y-69913158D01*
X127896663Y-69977241D01*
X127889144Y-69985468D01*
X127750271Y-70124341D01*
X127625379Y-70296242D01*
X127528904Y-70485582D01*
X127463242Y-70687670D01*
X127463242Y-70687673D01*
X127452769Y-70753800D01*
X128500854Y-70753800D01*
X128462370Y-70820457D01*
X128430000Y-70941265D01*
X128430000Y-71066335D01*
X128462370Y-71187143D01*
X128500854Y-71253800D01*
X127452769Y-71253800D01*
X127463242Y-71319926D01*
X127463242Y-71319929D01*
X127528904Y-71522017D01*
X127625379Y-71711357D01*
X127750272Y-71883259D01*
X127750276Y-71883264D01*
X127900535Y-72033523D01*
X127900540Y-72033527D01*
X128065218Y-72153172D01*
X128107884Y-72208501D01*
X128113863Y-72278115D01*
X128081258Y-72339910D01*
X128065218Y-72353808D01*
X127900214Y-72473690D01*
X127900209Y-72473694D01*
X127749890Y-72624013D01*
X127624951Y-72795979D01*
X127528444Y-72985385D01*
X127462753Y-73187560D01*
X127429500Y-73397513D01*
X127429500Y-73610086D01*
X127462753Y-73820040D01*
X127486356Y-73892682D01*
X127488351Y-73962523D01*
X127452270Y-74022356D01*
X127389569Y-74053184D01*
X127368425Y-74055000D01*
X124655442Y-74055000D01*
X124502714Y-74095923D01*
X124471019Y-74114223D01*
X124471018Y-74114223D01*
X124365787Y-74174977D01*
X124365782Y-74174981D01*
X124253978Y-74286786D01*
X122161681Y-76379082D01*
X122100358Y-76412567D01*
X122030666Y-76407583D01*
X121974733Y-76365711D01*
X121950316Y-76300247D01*
X121950000Y-76291401D01*
X121950000Y-76097682D01*
X121917990Y-75895582D01*
X121854755Y-75700968D01*
X121761859Y-75518650D01*
X121729474Y-75474077D01*
X121729474Y-75474076D01*
X121050000Y-76153553D01*
X121050000Y-76147339D01*
X121022741Y-76045606D01*
X120970080Y-75954394D01*
X120895606Y-75879920D01*
X120804394Y-75827259D01*
X120702661Y-75800000D01*
X120696446Y-75800000D01*
X121375922Y-75120524D01*
X121375921Y-75120523D01*
X121331359Y-75088147D01*
X121331350Y-75088141D01*
X121149031Y-74995244D01*
X120954417Y-74932009D01*
X120752317Y-74900000D01*
X120547683Y-74900000D01*
X120345582Y-74932009D01*
X120150968Y-74995244D01*
X119968644Y-75088143D01*
X119924077Y-75120523D01*
X119924077Y-75120524D01*
X120603554Y-75800000D01*
X120597339Y-75800000D01*
X120495606Y-75827259D01*
X120404394Y-75879920D01*
X120329920Y-75954394D01*
X120277259Y-76045606D01*
X120250000Y-76147339D01*
X120250000Y-76153553D01*
X119570524Y-75474077D01*
X119570523Y-75474077D01*
X119538143Y-75518644D01*
X119445244Y-75700968D01*
X119382009Y-75895582D01*
X119350000Y-76097682D01*
X119350000Y-76302317D01*
X119382009Y-76504417D01*
X119445244Y-76699031D01*
X119538141Y-76881350D01*
X119538147Y-76881359D01*
X119570523Y-76925921D01*
X119570524Y-76925922D01*
X120250000Y-76246446D01*
X120250000Y-76252661D01*
X120277259Y-76354394D01*
X120329920Y-76445606D01*
X120404394Y-76520080D01*
X120495606Y-76572741D01*
X120597339Y-76600000D01*
X120603553Y-76600000D01*
X119924076Y-77279474D01*
X119968652Y-77311861D01*
X120061628Y-77359234D01*
X120112425Y-77407208D01*
X120129220Y-77475029D01*
X120106683Y-77541164D01*
X120061630Y-77580203D01*
X119968388Y-77627713D01*
X119802786Y-77748028D01*
X119658028Y-77892786D01*
X119537715Y-78058386D01*
X119444781Y-78240776D01*
X119381522Y-78435465D01*
X119349728Y-78636206D01*
X119349500Y-78637648D01*
X119349500Y-78842352D01*
X119352704Y-78862580D01*
X119381523Y-79044535D01*
X119386172Y-79058845D01*
X119388165Y-79128687D01*
X119355922Y-79184840D01*
X119281784Y-79258980D01*
X119220462Y-79292466D01*
X119194102Y-79295300D01*
X114387145Y-79295300D01*
X114320106Y-79275615D01*
X114274351Y-79222811D01*
X114264407Y-79153653D01*
X114269214Y-79132982D01*
X114297989Y-79044421D01*
X114297989Y-79044418D01*
X114330000Y-78842317D01*
X114330000Y-78637682D01*
X114297990Y-78435582D01*
X114234755Y-78240968D01*
X114141859Y-78058650D01*
X114109474Y-78014077D01*
X114109474Y-78014076D01*
X113430000Y-78693551D01*
X113430000Y-78687339D01*
X113402741Y-78585606D01*
X113350080Y-78494394D01*
X113275606Y-78419920D01*
X113184394Y-78367259D01*
X113082661Y-78340000D01*
X113076446Y-78340000D01*
X113755922Y-77660524D01*
X113754570Y-77643349D01*
X113740299Y-77624842D01*
X113734320Y-77555229D01*
X113766925Y-77493433D01*
X113816845Y-77462148D01*
X113899334Y-77434814D01*
X114048656Y-77342712D01*
X114172712Y-77218656D01*
X114264814Y-77069334D01*
X114319999Y-76902797D01*
X114330500Y-76800009D01*
X114330499Y-75599992D01*
X114319999Y-75497203D01*
X114264814Y-75330666D01*
X114263471Y-75328489D01*
X114204500Y-75232881D01*
X114204499Y-75232880D01*
X114172712Y-75181344D01*
X114048656Y-75057288D01*
X113899334Y-74965186D01*
X113732797Y-74910001D01*
X113732795Y-74910000D01*
X113630016Y-74899500D01*
X113630009Y-74899500D01*
X112630097Y-74899500D01*
X112563058Y-74879815D01*
X112542416Y-74863181D01*
X110496790Y-72817555D01*
X110496788Y-72817552D01*
X110377917Y-72698681D01*
X110377909Y-72698675D01*
X110275107Y-72639323D01*
X110275106Y-72639322D01*
X110275106Y-72639323D01*
X110240985Y-72619623D01*
X110088257Y-72578699D01*
X109930143Y-72578699D01*
X109922547Y-72578699D01*
X109922531Y-72578700D01*
X108514466Y-72578700D01*
X108447427Y-72559015D01*
X108445575Y-72557802D01*
X108313885Y-72469809D01*
X108313872Y-72469802D01*
X108168201Y-72409464D01*
X108168189Y-72409461D01*
X108013545Y-72378700D01*
X108013542Y-72378700D01*
X107855858Y-72378700D01*
X107855855Y-72378700D01*
X107701210Y-72409461D01*
X107701198Y-72409464D01*
X107555527Y-72469802D01*
X107555514Y-72469809D01*
X107424411Y-72557410D01*
X107424407Y-72557413D01*
X107312913Y-72668907D01*
X107312910Y-72668911D01*
X107225309Y-72800014D01*
X107225302Y-72800027D01*
X107164964Y-72945698D01*
X107164961Y-72945710D01*
X107134200Y-73100353D01*
X107134200Y-73258046D01*
X107164961Y-73412689D01*
X107164964Y-73412701D01*
X107225302Y-73558372D01*
X107225309Y-73558385D01*
X107312910Y-73689488D01*
X107312913Y-73689492D01*
X107424407Y-73800986D01*
X107424411Y-73800989D01*
X107555514Y-73888590D01*
X107555527Y-73888597D01*
X107701198Y-73948935D01*
X107701203Y-73948937D01*
X107855853Y-73979699D01*
X107855856Y-73979700D01*
X107855858Y-73979700D01*
X108013544Y-73979700D01*
X108013545Y-73979699D01*
X108168197Y-73948937D01*
X108218054Y-73928285D01*
X108287519Y-73920817D01*
X108349999Y-73952091D01*
X108385652Y-74012180D01*
X108383159Y-74082005D01*
X108365827Y-74115725D01*
X108361716Y-74121383D01*
X108268781Y-74303776D01*
X108205522Y-74498465D01*
X108173500Y-74700648D01*
X108173500Y-74905351D01*
X108205522Y-75107534D01*
X108210173Y-75121848D01*
X108212165Y-75191690D01*
X108179921Y-75247842D01*
X106262985Y-77164778D01*
X106201662Y-77198263D01*
X106131970Y-77193279D01*
X106076037Y-77151407D01*
X106074986Y-77149982D01*
X106030109Y-77088213D01*
X105879786Y-76937890D01*
X105707820Y-76812951D01*
X105518414Y-76716444D01*
X105518413Y-76716443D01*
X105518412Y-76716443D01*
X105316243Y-76650754D01*
X105316241Y-76650753D01*
X105316240Y-76650753D01*
X105154957Y-76625208D01*
X105106287Y-76617500D01*
X104893713Y-76617500D01*
X104845042Y-76625208D01*
X104683760Y-76650753D01*
X104481585Y-76716444D01*
X104292179Y-76812951D01*
X104120213Y-76937890D01*
X103969890Y-77088213D01*
X103844951Y-77260179D01*
X103748444Y-77449585D01*
X103682753Y-77651760D01*
X103681365Y-77660524D01*
X103649500Y-77861713D01*
X93500500Y-77861713D01*
X93500500Y-68727713D01*
X94511100Y-68727713D01*
X94511100Y-68940287D01*
X94544354Y-69150243D01*
X94578911Y-69256599D01*
X94610044Y-69352414D01*
X94706551Y-69541820D01*
X94831490Y-69713786D01*
X94981809Y-69864105D01*
X94981814Y-69864109D01*
X95146393Y-69983682D01*
X95189059Y-70039011D01*
X95195038Y-70108625D01*
X95162433Y-70170420D01*
X95146393Y-70184318D01*
X94981814Y-70303890D01*
X94981809Y-70303894D01*
X94831490Y-70454213D01*
X94706551Y-70626179D01*
X94610044Y-70815585D01*
X94544353Y-71017760D01*
X94534449Y-71080292D01*
X94511100Y-71227713D01*
X94511100Y-71440287D01*
X94544354Y-71650243D01*
X94564211Y-71711357D01*
X94610044Y-71852414D01*
X94706551Y-72041820D01*
X94831490Y-72213786D01*
X94981809Y-72364105D01*
X94981814Y-72364109D01*
X95146818Y-72483991D01*
X95189484Y-72539320D01*
X95195463Y-72608934D01*
X95162858Y-72670729D01*
X95146818Y-72684627D01*
X94982140Y-72804272D01*
X94982135Y-72804276D01*
X94831876Y-72954535D01*
X94831872Y-72954540D01*
X94706979Y-73126442D01*
X94610504Y-73315782D01*
X94544842Y-73517870D01*
X94544842Y-73517873D01*
X94534369Y-73584000D01*
X95582454Y-73584000D01*
X95543970Y-73650657D01*
X95511600Y-73771465D01*
X95511600Y-73896535D01*
X95543970Y-74017343D01*
X95582454Y-74084000D01*
X94534369Y-74084000D01*
X94544842Y-74150126D01*
X94544842Y-74150129D01*
X94610504Y-74352217D01*
X94706979Y-74541557D01*
X94831872Y-74713459D01*
X94831876Y-74713464D01*
X94970743Y-74852331D01*
X95004228Y-74913654D01*
X94999244Y-74983346D01*
X94957372Y-75039279D01*
X94948159Y-75045551D01*
X94792942Y-75141289D01*
X94668889Y-75265342D01*
X94576787Y-75414663D01*
X94576785Y-75414668D01*
X94569619Y-75436295D01*
X94521601Y-75581203D01*
X94521601Y-75581204D01*
X94521600Y-75581204D01*
X94511100Y-75683983D01*
X94511100Y-76984001D01*
X94511101Y-76984018D01*
X94521600Y-77086796D01*
X94521601Y-77086799D01*
X94576785Y-77253331D01*
X94576787Y-77253336D01*
X94592909Y-77279474D01*
X94668888Y-77402656D01*
X94792944Y-77526712D01*
X94942266Y-77618814D01*
X95108803Y-77673999D01*
X95211591Y-77684500D01*
X96761608Y-77684499D01*
X96864397Y-77673999D01*
X97030934Y-77618814D01*
X97180256Y-77526712D01*
X97304312Y-77402656D01*
X97396414Y-77253334D01*
X97451599Y-77086797D01*
X97462100Y-76984009D01*
X97462099Y-75683992D01*
X97458648Y-75650213D01*
X97451599Y-75581203D01*
X97451598Y-75581200D01*
X97419591Y-75484610D01*
X97396414Y-75414666D01*
X97304312Y-75265344D01*
X97180256Y-75141288D01*
X97030934Y-75049186D01*
X97030932Y-75049185D01*
X97025040Y-75045551D01*
X96978316Y-74993603D01*
X96967093Y-74924641D01*
X96994937Y-74860558D01*
X97002456Y-74852330D01*
X97141328Y-74713458D01*
X97266220Y-74541557D01*
X97362695Y-74352217D01*
X97428357Y-74150129D01*
X97428357Y-74150126D01*
X97438831Y-74084000D01*
X96390746Y-74084000D01*
X96429230Y-74017343D01*
X96461600Y-73896535D01*
X96461600Y-73771465D01*
X96429230Y-73650657D01*
X96390746Y-73584000D01*
X97438831Y-73584000D01*
X97428357Y-73517873D01*
X97428357Y-73517870D01*
X97362695Y-73315782D01*
X97266220Y-73126442D01*
X97141327Y-72954540D01*
X97141323Y-72954535D01*
X96991064Y-72804276D01*
X96991059Y-72804272D01*
X96826381Y-72684627D01*
X96783715Y-72629297D01*
X96777736Y-72559684D01*
X96810341Y-72497889D01*
X96826376Y-72483994D01*
X96991392Y-72364104D01*
X97141704Y-72213792D01*
X97141706Y-72213788D01*
X97141709Y-72213786D01*
X97266650Y-72041817D01*
X97270877Y-72033523D01*
X97292942Y-71990216D01*
X97340916Y-71939421D01*
X97371327Y-71926738D01*
X97495085Y-71893577D01*
X97545204Y-71864639D01*
X97632016Y-71814520D01*
X97743820Y-71702716D01*
X97743820Y-71702714D01*
X97754028Y-71692507D01*
X97754029Y-71692504D01*
X98239716Y-71206819D01*
X98301039Y-71173334D01*
X98327397Y-71170500D01*
X118151834Y-71170500D01*
X118218873Y-71190185D01*
X118220725Y-71191398D01*
X118352414Y-71279390D01*
X118352427Y-71279397D01*
X118498098Y-71339735D01*
X118498103Y-71339737D01*
X118652753Y-71370499D01*
X118652756Y-71370500D01*
X118652758Y-71370500D01*
X118810444Y-71370500D01*
X118810445Y-71370499D01*
X118965097Y-71339737D01*
X119110779Y-71279394D01*
X119241889Y-71191789D01*
X119353389Y-71080289D01*
X119440994Y-70949179D01*
X119501337Y-70803497D01*
X119532100Y-70648842D01*
X119532100Y-70491158D01*
X119532100Y-70491155D01*
X119532099Y-70491153D01*
X119501338Y-70336510D01*
X119501337Y-70336503D01*
X119487830Y-70303894D01*
X119440997Y-70190827D01*
X119440990Y-70190814D01*
X119353389Y-70059711D01*
X119353386Y-70059707D01*
X119241892Y-69948213D01*
X119241888Y-69948210D01*
X119152496Y-69888480D01*
X119107691Y-69834868D01*
X119098984Y-69765543D01*
X119106824Y-69737930D01*
X119129537Y-69683097D01*
X119160300Y-69528442D01*
X119160300Y-69370758D01*
X119160300Y-69370755D01*
X119160299Y-69370753D01*
X119137592Y-69256597D01*
X119129537Y-69216103D01*
X119102257Y-69150243D01*
X119069197Y-69070427D01*
X119069190Y-69070414D01*
X118981589Y-68939311D01*
X118981586Y-68939307D01*
X118870092Y-68827813D01*
X118870088Y-68827810D01*
X118738985Y-68740209D01*
X118738972Y-68740202D01*
X118593301Y-68679864D01*
X118593289Y-68679861D01*
X118438645Y-68649100D01*
X118438642Y-68649100D01*
X118280958Y-68649100D01*
X118280955Y-68649100D01*
X118126310Y-68679861D01*
X118126298Y-68679864D01*
X117980627Y-68740202D01*
X117980614Y-68740209D01*
X117848925Y-68828202D01*
X117782247Y-68849080D01*
X117780034Y-68849100D01*
X98178997Y-68849100D01*
X98111958Y-68829415D01*
X98091316Y-68812781D01*
X97750890Y-68472355D01*
X97750888Y-68472352D01*
X97632017Y-68353481D01*
X97632016Y-68353480D01*
X97545204Y-68303360D01*
X97545204Y-68303359D01*
X97545200Y-68303358D01*
X97495085Y-68274423D01*
X97371333Y-68241263D01*
X97311672Y-68204897D01*
X97292942Y-68177783D01*
X97266651Y-68126184D01*
X97258623Y-68115134D01*
X97141709Y-67954213D01*
X96991386Y-67803890D01*
X96819420Y-67678951D01*
X96630014Y-67582444D01*
X96630013Y-67582443D01*
X96630012Y-67582443D01*
X96427843Y-67516754D01*
X96427841Y-67516753D01*
X96427840Y-67516753D01*
X96266557Y-67491208D01*
X96217887Y-67483500D01*
X95755313Y-67483500D01*
X95706642Y-67491208D01*
X95545360Y-67516753D01*
X95343185Y-67582444D01*
X95153779Y-67678951D01*
X94981813Y-67803890D01*
X94831490Y-67954213D01*
X94706551Y-68126179D01*
X94610044Y-68315585D01*
X94544353Y-68517760D01*
X94511100Y-68727713D01*
X93500500Y-68727713D01*
X93500500Y-54924713D01*
X94511100Y-54924713D01*
X94511100Y-55137287D01*
X94544354Y-55347243D01*
X94597914Y-55512084D01*
X94610044Y-55549414D01*
X94706551Y-55738820D01*
X94831490Y-55910786D01*
X94981809Y-56061105D01*
X94981814Y-56061109D01*
X95146393Y-56180682D01*
X95189059Y-56236011D01*
X95195038Y-56305625D01*
X95162433Y-56367420D01*
X95146393Y-56381318D01*
X94981814Y-56500890D01*
X94981809Y-56500894D01*
X94831490Y-56651213D01*
X94706551Y-56823179D01*
X94610044Y-57012585D01*
X94544353Y-57214760D01*
X94511100Y-57424713D01*
X94511100Y-57637286D01*
X94544353Y-57847239D01*
X94610044Y-58049414D01*
X94706551Y-58238820D01*
X94831490Y-58410786D01*
X94981809Y-58561105D01*
X94981814Y-58561109D01*
X95146818Y-58680991D01*
X95189484Y-58736320D01*
X95195463Y-58805934D01*
X95162858Y-58867729D01*
X95146818Y-58881627D01*
X94982140Y-59001272D01*
X94982135Y-59001276D01*
X94831876Y-59151535D01*
X94831872Y-59151540D01*
X94706979Y-59323442D01*
X94610504Y-59512782D01*
X94544842Y-59714870D01*
X94544842Y-59714873D01*
X94534369Y-59781000D01*
X95582454Y-59781000D01*
X95543970Y-59847657D01*
X95511600Y-59968465D01*
X95511600Y-60093535D01*
X95543970Y-60214343D01*
X95582454Y-60281000D01*
X94534369Y-60281000D01*
X94544842Y-60347126D01*
X94544842Y-60347129D01*
X94610504Y-60549217D01*
X94706979Y-60738557D01*
X94831872Y-60910459D01*
X94831876Y-60910464D01*
X94970743Y-61049331D01*
X95004228Y-61110654D01*
X94999244Y-61180346D01*
X94957372Y-61236279D01*
X94948159Y-61242551D01*
X94792942Y-61338289D01*
X94668889Y-61462342D01*
X94576787Y-61611663D01*
X94576786Y-61611666D01*
X94521601Y-61778203D01*
X94521601Y-61778204D01*
X94521600Y-61778204D01*
X94511100Y-61880983D01*
X94511100Y-63181001D01*
X94511101Y-63181018D01*
X94521600Y-63283796D01*
X94521601Y-63283799D01*
X94575677Y-63446986D01*
X94576786Y-63450334D01*
X94668888Y-63599656D01*
X94792944Y-63723712D01*
X94942266Y-63815814D01*
X95108803Y-63870999D01*
X95211591Y-63881500D01*
X96761608Y-63881499D01*
X96864397Y-63870999D01*
X97030934Y-63815814D01*
X97180256Y-63723712D01*
X97304312Y-63599656D01*
X97396414Y-63450334D01*
X97451599Y-63283797D01*
X97462100Y-63181009D01*
X97462099Y-61880992D01*
X97451599Y-61778203D01*
X97396414Y-61611666D01*
X97304312Y-61462344D01*
X97180256Y-61338288D01*
X97030934Y-61246186D01*
X97030932Y-61246185D01*
X97025040Y-61242551D01*
X96978316Y-61190603D01*
X96967093Y-61121641D01*
X96994937Y-61057558D01*
X97002456Y-61049330D01*
X97141328Y-60910458D01*
X97266220Y-60738557D01*
X97362695Y-60549217D01*
X97428357Y-60347129D01*
X97428357Y-60347126D01*
X97438831Y-60281000D01*
X96390746Y-60281000D01*
X96429230Y-60214343D01*
X96461600Y-60093535D01*
X96461600Y-59968465D01*
X96429230Y-59847657D01*
X96390746Y-59781000D01*
X97438831Y-59781000D01*
X97428357Y-59714873D01*
X97428357Y-59714870D01*
X97362695Y-59512782D01*
X97266220Y-59323442D01*
X97141327Y-59151540D01*
X97141323Y-59151535D01*
X96991064Y-59001276D01*
X96991059Y-59001272D01*
X96826381Y-58881627D01*
X96783715Y-58826297D01*
X96777736Y-58756684D01*
X96810341Y-58694889D01*
X96826376Y-58680994D01*
X96991392Y-58561104D01*
X97130102Y-58422393D01*
X97191421Y-58388911D01*
X97261113Y-58393895D01*
X97305461Y-58422396D01*
X104107439Y-65224374D01*
X104107449Y-65224385D01*
X104111779Y-65228715D01*
X104111780Y-65228716D01*
X104223584Y-65340520D01*
X104275145Y-65370288D01*
X104310395Y-65390639D01*
X104310397Y-65390641D01*
X104360513Y-65419576D01*
X104360515Y-65419577D01*
X104513242Y-65460500D01*
X104513243Y-65460500D01*
X107720234Y-65460500D01*
X107787273Y-65480185D01*
X107789125Y-65481398D01*
X107920814Y-65569390D01*
X107920827Y-65569397D01*
X108066498Y-65629735D01*
X108066503Y-65629737D01*
X108221153Y-65660499D01*
X108221156Y-65660500D01*
X108221158Y-65660500D01*
X108378844Y-65660500D01*
X108378845Y-65660499D01*
X108533497Y-65629737D01*
X108679179Y-65569394D01*
X108810289Y-65481789D01*
X108921789Y-65370289D01*
X109009394Y-65239179D01*
X109069737Y-65093497D01*
X109100500Y-64938842D01*
X109100500Y-64781158D01*
X109100500Y-64781155D01*
X109100499Y-64781153D01*
X109069738Y-64626510D01*
X109069737Y-64626503D01*
X109043864Y-64564039D01*
X109009397Y-64480827D01*
X109009390Y-64480814D01*
X108921789Y-64349711D01*
X108921786Y-64349707D01*
X108810292Y-64238213D01*
X108810288Y-64238210D01*
X108679185Y-64150609D01*
X108679172Y-64150602D01*
X108533501Y-64090264D01*
X108533489Y-64090261D01*
X108378845Y-64059500D01*
X108378842Y-64059500D01*
X108221158Y-64059500D01*
X108221155Y-64059500D01*
X108066510Y-64090261D01*
X108066498Y-64090264D01*
X107920827Y-64150602D01*
X107920814Y-64150609D01*
X107789125Y-64238602D01*
X107722447Y-64259480D01*
X107720234Y-64259500D01*
X104892397Y-64259500D01*
X104825358Y-64239815D01*
X104804716Y-64223181D01*
X102958164Y-62376629D01*
X102924679Y-62315306D01*
X102929663Y-62245614D01*
X102971535Y-62189681D01*
X103021652Y-62167331D01*
X103145297Y-62142737D01*
X103290979Y-62082394D01*
X103422089Y-61994789D01*
X103533589Y-61883289D01*
X103621194Y-61752179D01*
X103681537Y-61606497D01*
X103712300Y-61451842D01*
X103712300Y-61294158D01*
X103712300Y-61294155D01*
X103712299Y-61294153D01*
X103696929Y-61216882D01*
X103681537Y-61139503D01*
X103674138Y-61121641D01*
X103621197Y-60993827D01*
X103621190Y-60993814D01*
X103533589Y-60862711D01*
X103533586Y-60862707D01*
X103422092Y-60751213D01*
X103422088Y-60751210D01*
X103290985Y-60663609D01*
X103290972Y-60663602D01*
X103145301Y-60603264D01*
X103145291Y-60603261D01*
X102989949Y-60572361D01*
X102928038Y-60539976D01*
X102926460Y-60538425D01*
X97900119Y-55512084D01*
X97866634Y-55450761D01*
X97863800Y-55424403D01*
X97863800Y-54951945D01*
X97863800Y-54951943D01*
X97822877Y-54799216D01*
X97774115Y-54714757D01*
X97743824Y-54662290D01*
X97743818Y-54662282D01*
X97632017Y-54550481D01*
X97632016Y-54550480D01*
X97495086Y-54471424D01*
X97495085Y-54471423D01*
X97371333Y-54438264D01*
X97311673Y-54401898D01*
X97292942Y-54374783D01*
X97266650Y-54323182D01*
X97141709Y-54151213D01*
X96991386Y-54000890D01*
X96819420Y-53875951D01*
X96630014Y-53779444D01*
X96630013Y-53779443D01*
X96630012Y-53779443D01*
X96427843Y-53713754D01*
X96427841Y-53713753D01*
X96427840Y-53713753D01*
X96266557Y-53688208D01*
X96217887Y-53680500D01*
X95755313Y-53680500D01*
X95706642Y-53688208D01*
X95545360Y-53713753D01*
X95343185Y-53779444D01*
X95153779Y-53875951D01*
X94981813Y-54000890D01*
X94831490Y-54151213D01*
X94706551Y-54323179D01*
X94610044Y-54512585D01*
X94544353Y-54714760D01*
X94530978Y-54799209D01*
X94511100Y-54924713D01*
X93500500Y-54924713D01*
X93500500Y-52624500D01*
X93520185Y-52557461D01*
X93572989Y-52511706D01*
X93624500Y-52500500D01*
X131375500Y-52500500D01*
X131442539Y-52520185D01*
G37*
G04 #@! TD.AperFunction*
M02*
