G04 #@! TF.GenerationSoftware,KiCad,Pcbnew,10.0.6*
G04 #@! TF.CreationDate,2026-09-08T22:17:36+09:00*
G04 #@! TF.ProjectId,XIAO-ESP32-S3-MES,5849414f-2d45-4535-9033-322d53332d4d,rev?*
G04 #@! TF.SameCoordinates,Original*
G04 #@! TF.FileFunction,Soldermask,Top*
G04 #@! TF.FilePolarity,Negative*
%FSLAX46Y46*%
G04 Gerber Fmt 4.6, Leading zero omitted, Abs format (unit mm)*
G04 Created by KiCad (PCBNEW 10.0.6) date 2026-09-08 22:17:36*
%MOMM*%
%LPD*%
G01*
G04 APERTURE LIST*
G04 Aperture macros list*
%AMRoundRect*
0 Rectangle with rounded corners*
0 $1 Rounding radius*
0 $2 $3 $4 $5 $6 $7 $8 $9 X,Y pos of 4 corners*
0 Add a 4 corners polygon primitive as box body*
4,1,4,$2,$3,$4,$5,$6,$7,$8,$9,$2,$3,0*
0 Add four circle primitives for the rounded corners*
1,1,$1+$1,$2,$3*
1,1,$1+$1,$4,$5*
1,1,$1+$1,$6,$7*
1,1,$1+$1,$8,$9*
0 Add four rect primitives between the rounded corners*
20,1,$1+$1,$2,$3,$4,$5,0*
20,1,$1+$1,$4,$5,$6,$7,0*
20,1,$1+$1,$6,$7,$8,$9,0*
20,1,$1+$1,$8,$9,$2,$3,0*%
G04 Aperture macros list end*
%ADD10RoundRect,0.250000X-0.750000X0.600000X-0.750000X-0.600000X0.750000X-0.600000X0.750000X0.600000X0*%
%ADD11O,2.000000X1.700000*%
%ADD12RoundRect,0.250000X0.725000X-0.600000X0.725000X0.600000X-0.725000X0.600000X-0.725000X-0.600000X0*%
%ADD13O,1.950000X1.700000*%
%ADD14RoundRect,0.250000X0.600000X0.750000X-0.600000X0.750000X-0.600000X-0.750000X0.600000X-0.750000X0*%
%ADD15O,1.700000X2.000000*%
%ADD16RoundRect,0.250000X0.600000X0.725000X-0.600000X0.725000X-0.600000X-0.725000X0.600000X-0.725000X0*%
%ADD17O,1.700000X1.950000*%
%ADD18C,1.600000*%
%ADD19RoundRect,0.550800X-0.875000X-0.500000X0.875000X-0.500000X0.875000X0.500000X-0.875000X0.500000X0*%
%ADD20C,1.700000*%
%ADD21RoundRect,0.275000X0.975000X0.275000X-0.975000X0.275000X-0.975000X-0.275000X0.975000X-0.275000X0*%
%ADD22RoundRect,0.625000X-0.750000X-0.625000X0.750000X-0.625000X0.750000X0.625000X-0.750000X0.625000X0*%
%ADD23RoundRect,0.250000X-0.725000X0.600000X-0.725000X-0.600000X0.725000X-0.600000X0.725000X0.600000X0*%
%ADD24R,1.700000X1.700000*%
%ADD25RoundRect,0.250000X-0.550000X-0.550000X0.550000X-0.550000X0.550000X0.550000X-0.550000X0.550000X0*%
G04 APERTURE END LIST*
D10*
X128905000Y-81915000D03*
D11*
X128905000Y-84415000D03*
D12*
X95986600Y-62531000D03*
D13*
X95986600Y-60031000D03*
X95986600Y-57531000D03*
X95986600Y-55031000D03*
D14*
X120134800Y-92027000D03*
D15*
X117634800Y-92027000D03*
D16*
X111420600Y-91998800D03*
D17*
X108920600Y-91998800D03*
X106420600Y-91998800D03*
X103920600Y-91998800D03*
D18*
X109474000Y-74803000D03*
X109474000Y-84963000D03*
D12*
X95986600Y-76334000D03*
D13*
X95986600Y-73834000D03*
X95986600Y-71334000D03*
X95986600Y-68834000D03*
D19*
X104675000Y-55023000D03*
X104675000Y-57563000D03*
X104675000Y-60103000D03*
X104675000Y-62643000D03*
X104675000Y-65183000D03*
X104675000Y-67723000D03*
X104675000Y-70263000D03*
X120840000Y-70263000D03*
X120840000Y-67723000D03*
X120840000Y-65183000D03*
X120840000Y-62643000D03*
X120840000Y-60103000D03*
X120840000Y-57563000D03*
X120840000Y-55023000D03*
D20*
X111460000Y-54011000D03*
X114000000Y-54011000D03*
X111460000Y-56551000D03*
X114000000Y-56551000D03*
X111460000Y-59091000D03*
X114000000Y-59091000D03*
X111460000Y-61631000D03*
X114000000Y-61631000D03*
D21*
X108285000Y-62261000D03*
X108285000Y-60356000D03*
D22*
X113850000Y-64643000D03*
D12*
X95950600Y-90304000D03*
D13*
X95950600Y-87804000D03*
X95950600Y-85304000D03*
X95950600Y-82804000D03*
D23*
X128905000Y-55067200D03*
D13*
X128905000Y-57567200D03*
X128905000Y-60067200D03*
X128905000Y-62567200D03*
D24*
X105000000Y-80508000D03*
D20*
X105000000Y-77968000D03*
D25*
X113030000Y-76200000D03*
D18*
X113030000Y-78740000D03*
X113030000Y-81280000D03*
X113030000Y-83820000D03*
X120650000Y-83820000D03*
X120650000Y-81280000D03*
X120650000Y-78740000D03*
X120650000Y-76200000D03*
D14*
X128758000Y-92024200D03*
D15*
X126258000Y-92024200D03*
D23*
X128905000Y-68503800D03*
D13*
X128905000Y-71003800D03*
X128905000Y-73503800D03*
X128905000Y-76003800D03*
M02*
