G04 #@! TF.GenerationSoftware,KiCad,Pcbnew,10.0.6*
G04 #@! TF.CreationDate,2026-09-08T22:17:36+09:00*
G04 #@! TF.ProjectId,XIAO-ESP32-S3-MES,5849414f-2d45-4535-9033-322d53332d4d,rev?*
G04 #@! TF.SameCoordinates,Original*
G04 #@! TF.FileFunction,Legend,Top*
G04 #@! TF.FilePolarity,Positive*
%FSLAX46Y46*%
G04 Gerber Fmt 4.6, Leading zero omitted, Abs format (unit mm)*
G04 Created by KiCad (PCBNEW 10.0.6) date 2026-09-08 22:17:36*
%MOMM*%
%LPD*%
G01*
G04 APERTURE LIST*
%ADD10C,0.187500*%
%ADD11C,0.200000*%
%ADD12C,0.150000*%
%ADD13C,0.106680*%
%ADD14C,0.120000*%
%ADD15C,0.100000*%
%ADD16C,0.127000*%
%ADD17C,0.504000*%
G04 APERTURE END LIST*
D10*
G36*
X118896415Y-88462929D02*
G01*
X115728390Y-88462929D01*
X115728390Y-87860626D01*
X115839501Y-87860626D01*
X115839501Y-87897206D01*
X115853500Y-87931001D01*
X115879365Y-87956866D01*
X115913160Y-87970865D01*
X115931450Y-87972666D01*
X116693355Y-87972666D01*
X116711645Y-87970865D01*
X116745440Y-87956866D01*
X116771305Y-87931001D01*
X116785304Y-87897206D01*
X116785304Y-87860626D01*
X117839501Y-87860626D01*
X117839501Y-87897206D01*
X117853500Y-87931001D01*
X117879365Y-87956866D01*
X117913160Y-87970865D01*
X117931450Y-87972666D01*
X118218652Y-87972666D01*
X118218652Y-88259869D01*
X118220453Y-88278159D01*
X118234452Y-88311954D01*
X118260317Y-88337819D01*
X118294112Y-88351818D01*
X118330692Y-88351818D01*
X118364487Y-88337819D01*
X118390352Y-88311954D01*
X118404351Y-88278159D01*
X118406152Y-88259869D01*
X118406152Y-87972666D01*
X118693355Y-87972666D01*
X118711645Y-87970865D01*
X118745440Y-87956866D01*
X118771305Y-87931001D01*
X118785304Y-87897206D01*
X118785304Y-87860626D01*
X118771305Y-87826831D01*
X118745440Y-87800966D01*
X118711645Y-87786967D01*
X118693355Y-87785166D01*
X118406152Y-87785166D01*
X118406152Y-87497964D01*
X118404351Y-87479674D01*
X118390352Y-87445879D01*
X118364487Y-87420014D01*
X118330692Y-87406015D01*
X118294112Y-87406015D01*
X118260317Y-87420014D01*
X118234452Y-87445879D01*
X118220453Y-87479674D01*
X118218652Y-87497964D01*
X118218652Y-87785166D01*
X117931450Y-87785166D01*
X117913160Y-87786967D01*
X117879365Y-87800966D01*
X117853500Y-87826831D01*
X117839501Y-87860626D01*
X116785304Y-87860626D01*
X116771305Y-87826831D01*
X116745440Y-87800966D01*
X116711645Y-87786967D01*
X116693355Y-87785166D01*
X115931450Y-87785166D01*
X115913160Y-87786967D01*
X115879365Y-87800966D01*
X115853500Y-87826831D01*
X115839501Y-87860626D01*
X115728390Y-87860626D01*
X115728390Y-87294904D01*
X118896415Y-87294904D01*
X118896415Y-88462929D01*
G37*
G36*
X127512415Y-88539129D02*
G01*
X124344390Y-88539129D01*
X124344390Y-87936826D01*
X124455501Y-87936826D01*
X124455501Y-87973406D01*
X124469500Y-88007201D01*
X124495365Y-88033066D01*
X124529160Y-88047065D01*
X124547450Y-88048866D01*
X125309355Y-88048866D01*
X125327645Y-88047065D01*
X125361440Y-88033066D01*
X125387305Y-88007201D01*
X125401304Y-87973406D01*
X125401304Y-87936826D01*
X126455501Y-87936826D01*
X126455501Y-87973406D01*
X126469500Y-88007201D01*
X126495365Y-88033066D01*
X126529160Y-88047065D01*
X126547450Y-88048866D01*
X126834652Y-88048866D01*
X126834652Y-88336069D01*
X126836453Y-88354359D01*
X126850452Y-88388154D01*
X126876317Y-88414019D01*
X126910112Y-88428018D01*
X126946692Y-88428018D01*
X126980487Y-88414019D01*
X127006352Y-88388154D01*
X127020351Y-88354359D01*
X127022152Y-88336069D01*
X127022152Y-88048866D01*
X127309355Y-88048866D01*
X127327645Y-88047065D01*
X127361440Y-88033066D01*
X127387305Y-88007201D01*
X127401304Y-87973406D01*
X127401304Y-87936826D01*
X127387305Y-87903031D01*
X127361440Y-87877166D01*
X127327645Y-87863167D01*
X127309355Y-87861366D01*
X127022152Y-87861366D01*
X127022152Y-87574164D01*
X127020351Y-87555874D01*
X127006352Y-87522079D01*
X126980487Y-87496214D01*
X126946692Y-87482215D01*
X126910112Y-87482215D01*
X126876317Y-87496214D01*
X126850452Y-87522079D01*
X126836453Y-87555874D01*
X126834652Y-87574164D01*
X126834652Y-87861366D01*
X126547450Y-87861366D01*
X126529160Y-87863167D01*
X126495365Y-87877166D01*
X126469500Y-87903031D01*
X126455501Y-87936826D01*
X125401304Y-87936826D01*
X125387305Y-87903031D01*
X125361440Y-87877166D01*
X125327645Y-87863167D01*
X125309355Y-87861366D01*
X124547450Y-87861366D01*
X124529160Y-87863167D01*
X124495365Y-87877166D01*
X124469500Y-87903031D01*
X124455501Y-87936826D01*
X124344390Y-87936826D01*
X124344390Y-87371104D01*
X127512415Y-87371104D01*
X127512415Y-88539129D01*
G37*
G36*
X125352129Y-86359409D02*
G01*
X124184104Y-86359409D01*
X124184104Y-85394445D01*
X124674366Y-85394445D01*
X124674366Y-86156349D01*
X124676167Y-86174639D01*
X124690166Y-86208434D01*
X124716031Y-86234299D01*
X124749826Y-86248298D01*
X124786406Y-86248298D01*
X124820201Y-86234299D01*
X124846066Y-86208434D01*
X124860065Y-86174639D01*
X124861866Y-86156349D01*
X124861866Y-85394445D01*
X124860065Y-85376155D01*
X124846066Y-85342360D01*
X124820201Y-85316495D01*
X124786406Y-85302496D01*
X124749826Y-85302496D01*
X124716031Y-85316495D01*
X124690166Y-85342360D01*
X124676167Y-85376155D01*
X124674366Y-85394445D01*
X124184104Y-85394445D01*
X124184104Y-83757107D01*
X124295215Y-83757107D01*
X124295215Y-83793687D01*
X124309214Y-83827482D01*
X124335079Y-83853347D01*
X124368874Y-83867346D01*
X124387164Y-83869147D01*
X124674366Y-83869147D01*
X124674366Y-84156349D01*
X124676167Y-84174639D01*
X124690166Y-84208434D01*
X124716031Y-84234299D01*
X124749826Y-84248298D01*
X124786406Y-84248298D01*
X124820201Y-84234299D01*
X124846066Y-84208434D01*
X124860065Y-84174639D01*
X124861866Y-84156349D01*
X124861866Y-83869147D01*
X125149069Y-83869147D01*
X125167359Y-83867346D01*
X125201154Y-83853347D01*
X125227019Y-83827482D01*
X125241018Y-83793687D01*
X125241018Y-83757107D01*
X125227019Y-83723312D01*
X125201154Y-83697447D01*
X125167359Y-83683448D01*
X125149069Y-83681647D01*
X124861866Y-83681647D01*
X124861866Y-83394445D01*
X124860065Y-83376155D01*
X124846066Y-83342360D01*
X124820201Y-83316495D01*
X124786406Y-83302496D01*
X124749826Y-83302496D01*
X124716031Y-83316495D01*
X124690166Y-83342360D01*
X124676167Y-83376155D01*
X124674366Y-83394445D01*
X124674366Y-83681647D01*
X124387164Y-83681647D01*
X124368874Y-83683448D01*
X124335079Y-83697447D01*
X124309214Y-83723312D01*
X124295215Y-83757107D01*
X124184104Y-83757107D01*
X124184104Y-83191385D01*
X125352129Y-83191385D01*
X125352129Y-86359409D01*
G37*
D11*
G36*
X102719205Y-87428040D02*
G01*
X102786278Y-87495113D01*
X102821730Y-87566018D01*
X102863701Y-87733899D01*
X102863701Y-87852137D01*
X102821730Y-88020018D01*
X102786277Y-88090924D01*
X102719206Y-88157997D01*
X102614141Y-88193019D01*
X102492273Y-88193019D01*
X102492273Y-87393019D01*
X102614141Y-87393019D01*
X102719205Y-87428040D01*
G37*
G36*
X104571132Y-87422824D02*
G01*
X104595801Y-87447492D01*
X104625606Y-87507102D01*
X104625606Y-87602745D01*
X104595801Y-87662354D01*
X104571132Y-87687022D01*
X104511523Y-87716828D01*
X104254178Y-87716828D01*
X104254178Y-87393019D01*
X104511523Y-87393019D01*
X104571132Y-87422824D01*
G37*
G36*
X109364504Y-88504130D02*
G01*
X102181162Y-88504130D01*
X102181162Y-87293019D01*
X102292273Y-87293019D01*
X102292273Y-88293019D01*
X102294194Y-88312528D01*
X102309126Y-88348576D01*
X102336716Y-88376166D01*
X102372764Y-88391098D01*
X102392273Y-88393019D01*
X102630368Y-88393019D01*
X102640241Y-88392046D01*
X102642875Y-88392234D01*
X102646338Y-88391446D01*
X102649877Y-88391098D01*
X102652319Y-88390086D01*
X102661991Y-88387887D01*
X102804847Y-88340268D01*
X102822748Y-88332277D01*
X102825463Y-88329922D01*
X102828783Y-88328547D01*
X102843936Y-88316110D01*
X102939174Y-88220871D01*
X102945466Y-88213204D01*
X102947463Y-88211473D01*
X102949356Y-88208465D01*
X102951611Y-88205718D01*
X102952622Y-88203276D01*
X102957906Y-88194882D01*
X103005525Y-88099645D01*
X103006071Y-88098216D01*
X103006501Y-88097637D01*
X103009422Y-88089460D01*
X103012531Y-88081336D01*
X103012582Y-88080615D01*
X103013096Y-88079177D01*
X103060715Y-87888701D01*
X103061215Y-87885319D01*
X103061780Y-87883956D01*
X103062503Y-87876605D01*
X103063583Y-87869308D01*
X103063365Y-87867849D01*
X103063701Y-87864447D01*
X103063701Y-87721590D01*
X103063365Y-87718187D01*
X103063583Y-87716729D01*
X103062503Y-87709431D01*
X103061780Y-87702081D01*
X103061215Y-87700717D01*
X103060715Y-87697336D01*
X103013096Y-87506860D01*
X103012582Y-87505421D01*
X103012531Y-87504701D01*
X103009422Y-87496576D01*
X103006501Y-87488400D01*
X103006071Y-87487820D01*
X103005525Y-87486392D01*
X102957906Y-87391155D01*
X102952619Y-87382756D01*
X102951610Y-87380319D01*
X102949358Y-87377575D01*
X102947463Y-87374564D01*
X102945465Y-87372831D01*
X102939174Y-87365165D01*
X102867028Y-87293019D01*
X104054178Y-87293019D01*
X104054178Y-88293019D01*
X104056099Y-88312528D01*
X104071031Y-88348576D01*
X104098621Y-88376166D01*
X104134669Y-88391098D01*
X104173687Y-88391098D01*
X104209735Y-88376166D01*
X104237325Y-88348576D01*
X104252257Y-88312528D01*
X104254178Y-88293019D01*
X104254178Y-87916828D01*
X104535130Y-87916828D01*
X104554639Y-87914907D01*
X104557959Y-87913531D01*
X104561543Y-87913277D01*
X104579851Y-87906271D01*
X104675089Y-87858652D01*
X104683485Y-87853366D01*
X104685925Y-87852356D01*
X104688671Y-87850102D01*
X104691679Y-87848209D01*
X104693408Y-87846214D01*
X104701079Y-87839920D01*
X104748697Y-87792301D01*
X104754989Y-87784634D01*
X104756987Y-87782902D01*
X104758880Y-87779893D01*
X104761134Y-87777148D01*
X104762144Y-87774707D01*
X104767430Y-87766311D01*
X104789791Y-87721590D01*
X105768464Y-87721590D01*
X105768464Y-87864447D01*
X105768799Y-87867849D01*
X105768582Y-87869308D01*
X105769661Y-87876605D01*
X105770385Y-87883956D01*
X105770949Y-87885319D01*
X105771450Y-87888701D01*
X105819069Y-88079176D01*
X105819582Y-88080613D01*
X105819634Y-88081336D01*
X105822742Y-88089460D01*
X105825664Y-88097637D01*
X105826094Y-88098217D01*
X105826640Y-88099644D01*
X105874259Y-88194882D01*
X105879541Y-88203274D01*
X105880554Y-88205718D01*
X105882810Y-88208467D01*
X105884702Y-88211472D01*
X105886696Y-88213201D01*
X105892991Y-88220871D01*
X105988229Y-88316111D01*
X106003382Y-88328547D01*
X106006701Y-88329922D01*
X106009417Y-88332277D01*
X106027317Y-88340268D01*
X106170174Y-88387887D01*
X106179846Y-88390086D01*
X106182288Y-88391098D01*
X106185825Y-88391446D01*
X106189289Y-88392234D01*
X106191923Y-88392046D01*
X106201797Y-88393019D01*
X106297035Y-88393019D01*
X106306908Y-88392046D01*
X106309542Y-88392234D01*
X106313005Y-88391446D01*
X106316544Y-88391098D01*
X106318986Y-88390086D01*
X106328658Y-88387887D01*
X106471514Y-88340268D01*
X106489415Y-88332277D01*
X106492130Y-88329922D01*
X106495450Y-88328547D01*
X106510603Y-88316110D01*
X106558222Y-88268490D01*
X106570659Y-88253337D01*
X106584106Y-88220871D01*
X106585590Y-88217289D01*
X106587511Y-88197780D01*
X106587511Y-87864447D01*
X106585590Y-87844938D01*
X106570658Y-87808890D01*
X106543068Y-87781300D01*
X106537182Y-87778862D01*
X107530836Y-87778862D01*
X107532290Y-87783680D01*
X107532290Y-87788718D01*
X107537886Y-87802227D01*
X107542107Y-87816217D01*
X107545294Y-87820113D01*
X107547222Y-87824766D01*
X107557558Y-87835102D01*
X107566814Y-87846415D01*
X107571251Y-87848795D01*
X107574812Y-87852356D01*
X107588317Y-87857950D01*
X107601198Y-87864860D01*
X107606207Y-87865360D01*
X107610860Y-87867288D01*
X107625481Y-87867288D01*
X107640022Y-87868742D01*
X107644841Y-87867288D01*
X107649878Y-87867288D01*
X107663387Y-87861691D01*
X107677377Y-87857471D01*
X107681273Y-87854283D01*
X107685926Y-87852356D01*
X107701080Y-87839920D01*
X107737223Y-87803775D01*
X107796833Y-87773971D01*
X107987714Y-87773971D01*
X108047323Y-87803776D01*
X108071992Y-87828444D01*
X108101797Y-87888054D01*
X108101797Y-88078935D01*
X108071992Y-88138543D01*
X108047323Y-88163213D01*
X107987714Y-88193019D01*
X107796833Y-88193019D01*
X107737223Y-88163214D01*
X107701080Y-88127070D01*
X107685927Y-88114633D01*
X107649879Y-88099702D01*
X107610861Y-88099701D01*
X107574812Y-88114632D01*
X107547222Y-88142222D01*
X107532291Y-88178270D01*
X107532290Y-88217288D01*
X107547221Y-88253337D01*
X107559658Y-88268490D01*
X107607276Y-88316110D01*
X107614944Y-88322403D01*
X107616676Y-88324400D01*
X107619684Y-88326293D01*
X107622430Y-88328547D01*
X107624870Y-88329557D01*
X107633267Y-88334843D01*
X107728504Y-88382462D01*
X107746813Y-88389468D01*
X107750396Y-88389722D01*
X107753717Y-88391098D01*
X107773226Y-88393019D01*
X108011321Y-88393019D01*
X108030830Y-88391098D01*
X108034150Y-88389722D01*
X108037734Y-88389468D01*
X108056042Y-88382462D01*
X108151280Y-88334843D01*
X108159675Y-88329558D01*
X108162117Y-88328547D01*
X108164864Y-88326291D01*
X108167870Y-88324400D01*
X108169600Y-88322405D01*
X108177270Y-88316110D01*
X108224889Y-88268490D01*
X108231181Y-88260823D01*
X108233178Y-88259092D01*
X108235071Y-88256084D01*
X108237326Y-88253337D01*
X108238337Y-88250895D01*
X108243621Y-88242501D01*
X108291240Y-88147264D01*
X108298246Y-88128955D01*
X108298500Y-88125371D01*
X108299876Y-88122051D01*
X108301797Y-88102542D01*
X108301797Y-87864447D01*
X108299876Y-87844938D01*
X108298500Y-87841617D01*
X108298246Y-87838034D01*
X108291240Y-87819725D01*
X108243621Y-87724488D01*
X108238335Y-87716091D01*
X108237325Y-87713651D01*
X108235071Y-87710905D01*
X108233178Y-87707897D01*
X108231180Y-87706164D01*
X108224888Y-87698498D01*
X108177270Y-87650879D01*
X108169599Y-87644584D01*
X108167870Y-87642590D01*
X108164862Y-87640696D01*
X108162116Y-87638443D01*
X108159676Y-87637432D01*
X108151280Y-87632147D01*
X108056042Y-87584528D01*
X108037734Y-87577522D01*
X108034150Y-87577267D01*
X108030830Y-87575892D01*
X108011321Y-87573971D01*
X107773226Y-87573971D01*
X107753717Y-87575892D01*
X107750396Y-87577267D01*
X107750059Y-87577291D01*
X107768487Y-87393019D01*
X108154178Y-87393019D01*
X108173687Y-87391098D01*
X108209735Y-87376166D01*
X108237325Y-87348576D01*
X108252257Y-87312528D01*
X108252257Y-87305526D01*
X108388297Y-87305526D01*
X108392644Y-87324642D01*
X108725977Y-88324641D01*
X108733968Y-88342542D01*
X108738651Y-88347941D01*
X108741846Y-88354331D01*
X108751317Y-88362546D01*
X108759533Y-88372018D01*
X108765921Y-88375212D01*
X108771322Y-88379896D01*
X108783223Y-88383863D01*
X108794432Y-88389467D01*
X108801556Y-88389973D01*
X108808338Y-88392234D01*
X108820847Y-88391344D01*
X108833352Y-88392234D01*
X108840130Y-88389974D01*
X108847258Y-88389468D01*
X108858474Y-88383859D01*
X108870368Y-88379895D01*
X108875765Y-88375214D01*
X108882157Y-88372018D01*
X108890375Y-88362542D01*
X108899844Y-88354330D01*
X108903037Y-88347943D01*
X108907722Y-88342542D01*
X108915713Y-88324642D01*
X109249046Y-87324642D01*
X109253393Y-87305527D01*
X109250627Y-87266607D01*
X109233177Y-87231708D01*
X109203701Y-87206143D01*
X109166685Y-87193804D01*
X109127765Y-87196571D01*
X109092866Y-87214020D01*
X109067301Y-87243496D01*
X109059310Y-87261397D01*
X108820845Y-87976791D01*
X108582380Y-87261396D01*
X108574389Y-87243496D01*
X108548824Y-87214020D01*
X108513925Y-87196570D01*
X108475005Y-87193804D01*
X108437989Y-87206142D01*
X108408513Y-87231707D01*
X108391063Y-87266606D01*
X108388297Y-87305526D01*
X108252257Y-87305526D01*
X108252257Y-87273510D01*
X108237325Y-87237462D01*
X108209735Y-87209872D01*
X108173687Y-87194940D01*
X108154178Y-87193019D01*
X107677988Y-87193019D01*
X107670771Y-87193729D01*
X107668335Y-87193486D01*
X107665956Y-87194203D01*
X107658479Y-87194940D01*
X107644969Y-87200536D01*
X107630980Y-87204757D01*
X107627083Y-87207944D01*
X107622431Y-87209872D01*
X107612094Y-87220208D01*
X107600782Y-87229464D01*
X107598401Y-87233901D01*
X107594841Y-87237462D01*
X107589246Y-87250967D01*
X107582337Y-87263848D01*
X107580860Y-87271212D01*
X107579909Y-87273510D01*
X107579909Y-87275960D01*
X107578484Y-87283069D01*
X107530865Y-87759259D01*
X107530836Y-87778862D01*
X106537182Y-87778862D01*
X106507020Y-87766368D01*
X106487511Y-87764447D01*
X106297035Y-87764447D01*
X106277526Y-87766368D01*
X106241478Y-87781300D01*
X106213888Y-87808890D01*
X106198956Y-87844938D01*
X106198956Y-87883956D01*
X106213888Y-87920004D01*
X106241478Y-87947594D01*
X106277526Y-87962526D01*
X106297035Y-87964447D01*
X106387511Y-87964447D01*
X106387511Y-88156359D01*
X106385872Y-88157997D01*
X106280808Y-88193019D01*
X106218023Y-88193019D01*
X106112958Y-88157997D01*
X106045888Y-88090927D01*
X106010434Y-88020018D01*
X105968464Y-87852137D01*
X105968464Y-87733900D01*
X106010434Y-87566018D01*
X106045887Y-87495112D01*
X106112959Y-87428040D01*
X106218023Y-87393019D01*
X106321047Y-87393019D01*
X106395170Y-87430081D01*
X106413479Y-87437087D01*
X106452399Y-87439853D01*
X106489415Y-87427514D01*
X106518892Y-87401949D01*
X106536341Y-87367051D01*
X106539106Y-87328131D01*
X106526768Y-87291115D01*
X106501203Y-87261638D01*
X106484613Y-87251195D01*
X106389375Y-87203576D01*
X106371067Y-87196570D01*
X106367483Y-87196315D01*
X106364163Y-87194940D01*
X106344654Y-87193019D01*
X106201797Y-87193019D01*
X106191923Y-87193991D01*
X106189289Y-87193804D01*
X106185825Y-87194591D01*
X106182288Y-87194940D01*
X106179846Y-87195951D01*
X106170174Y-87198151D01*
X106027317Y-87245770D01*
X106009417Y-87253761D01*
X106006701Y-87256116D01*
X106003383Y-87257491D01*
X105988229Y-87269927D01*
X105892991Y-87365165D01*
X105886696Y-87372835D01*
X105884702Y-87374565D01*
X105882808Y-87377572D01*
X105880555Y-87380319D01*
X105879544Y-87382758D01*
X105874259Y-87391155D01*
X105826640Y-87486393D01*
X105826094Y-87487819D01*
X105825664Y-87488400D01*
X105822742Y-87496576D01*
X105819634Y-87504701D01*
X105819582Y-87505423D01*
X105819069Y-87506861D01*
X105771450Y-87697336D01*
X105770949Y-87700717D01*
X105770385Y-87702081D01*
X105769661Y-87709431D01*
X105768582Y-87716729D01*
X105768799Y-87718187D01*
X105768464Y-87721590D01*
X104789791Y-87721590D01*
X104815049Y-87671074D01*
X104822055Y-87652765D01*
X104822309Y-87649181D01*
X104823685Y-87645861D01*
X104825606Y-87626352D01*
X104825606Y-87483495D01*
X104823685Y-87463986D01*
X104822309Y-87460665D01*
X104822055Y-87457082D01*
X104815049Y-87438773D01*
X104767430Y-87343536D01*
X104762144Y-87335139D01*
X104761134Y-87332699D01*
X104758880Y-87329953D01*
X104756987Y-87326945D01*
X104754989Y-87325212D01*
X104748697Y-87317546D01*
X104701079Y-87269927D01*
X104693408Y-87263632D01*
X104691679Y-87261638D01*
X104688671Y-87259744D01*
X104685925Y-87257491D01*
X104683485Y-87256480D01*
X104675089Y-87251195D01*
X104579851Y-87203576D01*
X104561543Y-87196570D01*
X104557959Y-87196315D01*
X104554639Y-87194940D01*
X104535130Y-87193019D01*
X104154178Y-87193019D01*
X104134669Y-87194940D01*
X104098621Y-87209872D01*
X104071031Y-87237462D01*
X104056099Y-87273510D01*
X104054178Y-87293019D01*
X102867028Y-87293019D01*
X102843936Y-87269927D01*
X102828782Y-87257491D01*
X102825463Y-87256116D01*
X102822748Y-87253761D01*
X102804847Y-87245770D01*
X102661991Y-87198151D01*
X102652319Y-87195951D01*
X102649877Y-87194940D01*
X102646338Y-87194591D01*
X102642875Y-87193804D01*
X102640241Y-87193991D01*
X102630368Y-87193019D01*
X102392273Y-87193019D01*
X102372764Y-87194940D01*
X102336716Y-87209872D01*
X102309126Y-87237462D01*
X102294194Y-87273510D01*
X102292273Y-87293019D01*
X102181162Y-87293019D01*
X102181162Y-87081908D01*
X109364504Y-87081908D01*
X109364504Y-88504130D01*
G37*
G36*
X100294104Y-56212868D02*
G01*
X99996046Y-56113516D01*
X100294104Y-56014163D01*
X100294104Y-56212868D01*
G37*
G36*
X100001535Y-54290940D02*
G01*
X100026204Y-54315608D01*
X100056009Y-54375218D01*
X100056009Y-54584944D01*
X99779819Y-54584944D01*
X99779819Y-54375218D01*
X99809624Y-54315608D01*
X99834292Y-54290939D01*
X99893902Y-54261135D01*
X99941926Y-54261135D01*
X100001535Y-54290940D01*
G37*
G36*
X100525346Y-54243322D02*
G01*
X100550014Y-54267989D01*
X100579819Y-54327599D01*
X100579819Y-54584944D01*
X100256009Y-54584944D01*
X100256009Y-54367838D01*
X100291030Y-54262772D01*
X100310482Y-54243320D01*
X100370092Y-54213516D01*
X100465735Y-54213516D01*
X100525346Y-54243322D01*
G37*
G36*
X100890930Y-60895589D02*
G01*
X99468708Y-60895589D01*
X99468708Y-60161136D01*
X99579819Y-60161136D01*
X99579819Y-60637326D01*
X99580529Y-60644542D01*
X99580286Y-60646979D01*
X99581003Y-60649357D01*
X99581740Y-60656835D01*
X99587336Y-60670344D01*
X99591557Y-60684334D01*
X99594744Y-60688230D01*
X99596672Y-60692883D01*
X99607008Y-60703219D01*
X99616264Y-60714532D01*
X99620701Y-60716912D01*
X99624262Y-60720473D01*
X99637767Y-60726067D01*
X99650648Y-60732977D01*
X99658012Y-60734453D01*
X99660310Y-60735405D01*
X99662760Y-60735405D01*
X99669869Y-60736830D01*
X100146059Y-60784449D01*
X100165662Y-60784478D01*
X100170484Y-60783023D01*
X100175518Y-60783023D01*
X100189022Y-60777429D01*
X100203017Y-60773207D01*
X100206913Y-60770019D01*
X100211566Y-60768092D01*
X100221902Y-60757755D01*
X100233215Y-60748500D01*
X100235595Y-60744062D01*
X100239156Y-60740502D01*
X100244748Y-60726999D01*
X100251660Y-60714116D01*
X100252161Y-60709103D01*
X100254087Y-60704454D01*
X100254087Y-60689843D01*
X100255542Y-60675292D01*
X100254087Y-60670469D01*
X100254087Y-60665436D01*
X100248493Y-60651930D01*
X100244271Y-60637937D01*
X100241083Y-60634041D01*
X100239156Y-60629387D01*
X100226719Y-60614234D01*
X100190576Y-60578090D01*
X100160771Y-60518480D01*
X100160771Y-60327600D01*
X100190576Y-60267990D01*
X100215244Y-60243321D01*
X100274854Y-60213517D01*
X100465735Y-60213517D01*
X100525346Y-60243323D01*
X100550014Y-60267990D01*
X100579819Y-60327600D01*
X100579819Y-60518481D01*
X100550014Y-60578090D01*
X100513870Y-60614234D01*
X100501433Y-60629387D01*
X100486502Y-60665435D01*
X100486501Y-60704453D01*
X100501432Y-60740502D01*
X100529022Y-60768092D01*
X100565070Y-60783023D01*
X100604088Y-60783024D01*
X100640137Y-60768093D01*
X100655290Y-60755656D01*
X100702910Y-60708038D01*
X100709203Y-60700369D01*
X100711200Y-60698638D01*
X100713093Y-60695629D01*
X100715347Y-60692884D01*
X100716357Y-60690443D01*
X100721643Y-60682047D01*
X100769262Y-60586810D01*
X100776268Y-60568501D01*
X100776522Y-60564917D01*
X100777898Y-60561597D01*
X100779819Y-60542088D01*
X100779819Y-60303993D01*
X100777898Y-60284484D01*
X100776522Y-60281163D01*
X100776268Y-60277580D01*
X100769262Y-60259271D01*
X100721643Y-60164034D01*
X100716357Y-60155637D01*
X100715347Y-60153197D01*
X100713093Y-60150451D01*
X100711200Y-60147443D01*
X100709203Y-60145711D01*
X100702910Y-60138043D01*
X100655290Y-60090425D01*
X100647620Y-60084130D01*
X100645891Y-60082136D01*
X100642886Y-60080244D01*
X100640137Y-60077988D01*
X100637693Y-60076976D01*
X100629301Y-60071693D01*
X100534063Y-60024074D01*
X100515755Y-60017068D01*
X100512171Y-60016813D01*
X100508851Y-60015438D01*
X100489342Y-60013517D01*
X100251247Y-60013517D01*
X100231738Y-60015438D01*
X100228417Y-60016813D01*
X100224834Y-60017068D01*
X100206525Y-60024074D01*
X100111288Y-60071693D01*
X100102891Y-60076978D01*
X100100451Y-60077989D01*
X100097705Y-60080242D01*
X100094697Y-60082136D01*
X100092964Y-60084133D01*
X100085298Y-60090426D01*
X100037679Y-60138044D01*
X100031384Y-60145714D01*
X100029390Y-60147444D01*
X100027496Y-60150451D01*
X100025243Y-60153198D01*
X100024232Y-60155637D01*
X100018947Y-60164034D01*
X99971328Y-60259272D01*
X99964322Y-60277580D01*
X99964067Y-60281163D01*
X99962692Y-60284484D01*
X99960771Y-60303993D01*
X99960771Y-60542088D01*
X99962692Y-60561597D01*
X99964067Y-60564917D01*
X99964091Y-60565254D01*
X99779819Y-60546827D01*
X99779819Y-60161136D01*
X99777898Y-60141627D01*
X99762966Y-60105579D01*
X99735376Y-60077989D01*
X99699328Y-60063057D01*
X99660310Y-60063057D01*
X99624262Y-60077989D01*
X99596672Y-60105579D01*
X99581740Y-60141627D01*
X99579819Y-60161136D01*
X99468708Y-60161136D01*
X99468708Y-59148629D01*
X99580604Y-59148629D01*
X99583370Y-59187549D01*
X99600820Y-59222448D01*
X99630296Y-59248013D01*
X99648196Y-59256004D01*
X100363591Y-59494469D01*
X99648196Y-59732934D01*
X99630296Y-59740925D01*
X99600820Y-59766490D01*
X99583370Y-59801389D01*
X99580604Y-59840309D01*
X99592942Y-59877325D01*
X99618507Y-59906801D01*
X99653406Y-59924251D01*
X99692326Y-59927017D01*
X99711442Y-59922670D01*
X100711441Y-59589337D01*
X100729342Y-59581346D01*
X100734743Y-59576661D01*
X100741130Y-59573468D01*
X100749342Y-59563999D01*
X100758818Y-59555781D01*
X100762013Y-59549389D01*
X100766695Y-59543992D01*
X100770661Y-59532094D01*
X100776267Y-59520882D01*
X100776773Y-59513757D01*
X100779034Y-59506976D01*
X100778144Y-59494469D01*
X100779034Y-59481962D01*
X100776773Y-59475180D01*
X100776267Y-59468056D01*
X100770661Y-59456843D01*
X100766695Y-59444946D01*
X100762013Y-59439548D01*
X100758818Y-59433157D01*
X100749342Y-59424938D01*
X100741130Y-59415470D01*
X100734743Y-59412276D01*
X100729342Y-59407592D01*
X100711441Y-59399601D01*
X99711442Y-59066268D01*
X99692326Y-59061921D01*
X99653406Y-59064687D01*
X99618507Y-59082137D01*
X99592942Y-59111613D01*
X99580604Y-59148629D01*
X99468708Y-59148629D01*
X99468708Y-57637326D01*
X99579819Y-57637326D01*
X99579819Y-57780183D01*
X99580791Y-57790056D01*
X99580604Y-57792690D01*
X99581391Y-57796153D01*
X99581740Y-57799692D01*
X99582751Y-57802134D01*
X99584951Y-57811806D01*
X99632570Y-57954662D01*
X99640561Y-57972563D01*
X99642916Y-57975278D01*
X99644291Y-57978597D01*
X99656727Y-57993751D01*
X99751965Y-58088989D01*
X99759631Y-58095280D01*
X99761364Y-58097278D01*
X99764375Y-58099173D01*
X99767119Y-58101425D01*
X99769556Y-58102434D01*
X99777955Y-58107721D01*
X99873192Y-58155340D01*
X99874620Y-58155886D01*
X99875200Y-58156316D01*
X99883376Y-58159237D01*
X99891501Y-58162346D01*
X99892221Y-58162397D01*
X99893660Y-58162911D01*
X100084136Y-58210530D01*
X100087517Y-58211030D01*
X100088881Y-58211595D01*
X100096231Y-58212318D01*
X100103529Y-58213398D01*
X100104987Y-58213180D01*
X100108390Y-58213516D01*
X100251247Y-58213516D01*
X100254649Y-58213180D01*
X100256108Y-58213398D01*
X100263405Y-58212318D01*
X100270756Y-58211595D01*
X100272119Y-58211030D01*
X100275501Y-58210530D01*
X100465976Y-58162911D01*
X100467413Y-58162397D01*
X100468136Y-58162346D01*
X100476260Y-58159237D01*
X100484437Y-58156316D01*
X100485017Y-58155885D01*
X100486444Y-58155340D01*
X100581682Y-58107721D01*
X100590074Y-58102438D01*
X100592518Y-58101426D01*
X100595267Y-58099169D01*
X100598272Y-58097278D01*
X100600001Y-58095283D01*
X100607671Y-58088989D01*
X100702911Y-57993751D01*
X100715347Y-57978598D01*
X100716722Y-57975278D01*
X100719077Y-57972563D01*
X100727068Y-57954663D01*
X100774687Y-57811806D01*
X100776886Y-57802133D01*
X100777898Y-57799692D01*
X100778246Y-57796154D01*
X100779034Y-57792691D01*
X100778846Y-57790056D01*
X100779819Y-57780183D01*
X100779819Y-57684945D01*
X100778846Y-57675071D01*
X100779034Y-57672437D01*
X100778246Y-57668973D01*
X100777898Y-57665436D01*
X100776886Y-57662994D01*
X100774687Y-57653322D01*
X100727068Y-57510465D01*
X100719077Y-57492565D01*
X100716722Y-57489849D01*
X100715347Y-57486530D01*
X100702910Y-57471376D01*
X100655290Y-57423758D01*
X100640137Y-57411321D01*
X100614646Y-57400763D01*
X100604089Y-57396390D01*
X100584580Y-57394469D01*
X100251247Y-57394469D01*
X100231738Y-57396390D01*
X100195690Y-57411322D01*
X100168100Y-57438912D01*
X100153168Y-57474960D01*
X100151247Y-57494469D01*
X100151247Y-57684945D01*
X100153168Y-57704454D01*
X100168100Y-57740502D01*
X100195690Y-57768092D01*
X100231738Y-57783024D01*
X100270756Y-57783024D01*
X100306804Y-57768092D01*
X100334394Y-57740502D01*
X100349326Y-57704454D01*
X100351247Y-57684945D01*
X100351247Y-57594469D01*
X100543160Y-57594469D01*
X100544797Y-57596106D01*
X100579819Y-57701171D01*
X100579819Y-57763956D01*
X100544797Y-57869021D01*
X100477727Y-57936091D01*
X100406818Y-57971545D01*
X100238937Y-58013516D01*
X100120699Y-58013516D01*
X99952818Y-57971545D01*
X99881913Y-57936093D01*
X99814840Y-57869020D01*
X99779819Y-57763956D01*
X99779819Y-57660933D01*
X99816881Y-57586810D01*
X99823887Y-57568501D01*
X99826653Y-57529581D01*
X99814314Y-57492565D01*
X99788749Y-57463088D01*
X99753851Y-57445639D01*
X99714931Y-57442874D01*
X99677915Y-57455212D01*
X99648438Y-57480777D01*
X99637995Y-57497367D01*
X99590376Y-57592605D01*
X99583370Y-57610913D01*
X99583115Y-57614496D01*
X99581740Y-57617817D01*
X99579819Y-57637326D01*
X99468708Y-57637326D01*
X99468708Y-56101009D01*
X99580604Y-56101009D01*
X99581492Y-56113516D01*
X99580604Y-56126023D01*
X99582863Y-56132801D01*
X99583370Y-56139929D01*
X99588976Y-56151141D01*
X99592942Y-56163039D01*
X99597625Y-56168438D01*
X99600820Y-56174828D01*
X99610291Y-56183043D01*
X99618507Y-56192515D01*
X99624896Y-56195709D01*
X99630296Y-56200393D01*
X99648196Y-56208384D01*
X100648196Y-56541717D01*
X100667311Y-56546064D01*
X100706231Y-56543298D01*
X100741130Y-56525848D01*
X100766695Y-56496372D01*
X100779034Y-56459356D01*
X100776267Y-56420436D01*
X100758818Y-56385537D01*
X100729342Y-56359972D01*
X100711441Y-56351981D01*
X100494104Y-56279535D01*
X100494104Y-55947496D01*
X100711441Y-55875051D01*
X100729342Y-55867060D01*
X100758818Y-55841495D01*
X100776267Y-55806596D01*
X100779034Y-55767676D01*
X100766695Y-55730660D01*
X100741130Y-55701184D01*
X100706231Y-55683734D01*
X100667311Y-55680968D01*
X100648196Y-55685315D01*
X99648196Y-56018648D01*
X99630296Y-56026639D01*
X99624896Y-56031322D01*
X99618507Y-56034517D01*
X99610291Y-56043988D01*
X99600820Y-56052204D01*
X99597625Y-56058593D01*
X99592942Y-56063993D01*
X99588976Y-56075890D01*
X99583370Y-56087103D01*
X99582863Y-56094230D01*
X99580604Y-56101009D01*
X99468708Y-56101009D01*
X99468708Y-54351611D01*
X99579819Y-54351611D01*
X99579819Y-54684944D01*
X99581740Y-54704453D01*
X99596672Y-54740501D01*
X99624262Y-54768091D01*
X99660310Y-54783023D01*
X99679819Y-54784944D01*
X100679819Y-54784944D01*
X100699328Y-54783023D01*
X100735376Y-54768091D01*
X100762966Y-54740501D01*
X100777898Y-54704453D01*
X100779819Y-54684944D01*
X100779819Y-54303992D01*
X100777898Y-54284483D01*
X100776522Y-54281162D01*
X100776268Y-54277579D01*
X100769262Y-54259270D01*
X100721643Y-54164033D01*
X100716357Y-54155636D01*
X100715347Y-54153196D01*
X100713093Y-54150450D01*
X100711200Y-54147442D01*
X100709203Y-54145710D01*
X100702910Y-54138042D01*
X100655290Y-54090424D01*
X100647620Y-54084129D01*
X100645891Y-54082135D01*
X100642886Y-54080243D01*
X100640137Y-54077987D01*
X100637693Y-54076975D01*
X100629301Y-54071692D01*
X100534063Y-54024073D01*
X100515755Y-54017067D01*
X100512171Y-54016812D01*
X100508851Y-54015437D01*
X100489342Y-54013516D01*
X100346485Y-54013516D01*
X100326976Y-54015437D01*
X100323655Y-54016812D01*
X100320072Y-54017067D01*
X100301763Y-54024073D01*
X100206526Y-54071692D01*
X100198129Y-54076977D01*
X100195689Y-54077988D01*
X100192943Y-54080241D01*
X100189935Y-54082135D01*
X100188202Y-54084132D01*
X100180536Y-54090425D01*
X100132917Y-54138043D01*
X100132270Y-54138831D01*
X100131482Y-54138043D01*
X100123811Y-54131748D01*
X100122082Y-54129754D01*
X100119074Y-54127860D01*
X100116328Y-54125607D01*
X100113888Y-54124596D01*
X100105492Y-54119311D01*
X100010254Y-54071692D01*
X99991946Y-54064686D01*
X99988362Y-54064431D01*
X99985042Y-54063056D01*
X99965533Y-54061135D01*
X99870295Y-54061135D01*
X99850786Y-54063056D01*
X99847465Y-54064431D01*
X99843882Y-54064686D01*
X99825573Y-54071692D01*
X99730336Y-54119311D01*
X99721939Y-54124596D01*
X99719499Y-54125607D01*
X99716753Y-54127860D01*
X99713745Y-54129754D01*
X99712012Y-54131751D01*
X99704346Y-54138044D01*
X99656727Y-54185662D01*
X99650432Y-54193332D01*
X99648438Y-54195062D01*
X99646544Y-54198069D01*
X99644291Y-54200816D01*
X99643280Y-54203255D01*
X99637995Y-54211652D01*
X99590376Y-54306890D01*
X99583370Y-54325198D01*
X99583115Y-54328781D01*
X99581740Y-54332102D01*
X99579819Y-54351611D01*
X99468708Y-54351611D01*
X99468708Y-53902405D01*
X100890930Y-53902405D01*
X100890930Y-60895589D01*
G37*
G36*
X100294104Y-70085068D02*
G01*
X99996046Y-69985716D01*
X100294104Y-69886363D01*
X100294104Y-70085068D01*
G37*
G36*
X100001535Y-68163140D02*
G01*
X100026204Y-68187808D01*
X100056009Y-68247418D01*
X100056009Y-68457144D01*
X99779819Y-68457144D01*
X99779819Y-68247418D01*
X99809624Y-68187808D01*
X99834292Y-68163139D01*
X99893902Y-68133335D01*
X99941926Y-68133335D01*
X100001535Y-68163140D01*
G37*
G36*
X100525346Y-68115522D02*
G01*
X100550014Y-68140189D01*
X100579819Y-68199799D01*
X100579819Y-68457144D01*
X100256009Y-68457144D01*
X100256009Y-68240038D01*
X100291030Y-68134972D01*
X100310482Y-68115520D01*
X100370092Y-68085716D01*
X100465735Y-68085716D01*
X100525346Y-68115522D01*
G37*
G36*
X100890930Y-74767789D02*
G01*
X99468708Y-74767789D01*
X99468708Y-74033336D01*
X99579819Y-74033336D01*
X99579819Y-74509526D01*
X99580529Y-74516742D01*
X99580286Y-74519179D01*
X99581003Y-74521557D01*
X99581740Y-74529035D01*
X99587336Y-74542544D01*
X99591557Y-74556534D01*
X99594744Y-74560430D01*
X99596672Y-74565083D01*
X99607008Y-74575419D01*
X99616264Y-74586732D01*
X99620701Y-74589112D01*
X99624262Y-74592673D01*
X99637767Y-74598267D01*
X99650648Y-74605177D01*
X99658012Y-74606653D01*
X99660310Y-74607605D01*
X99662760Y-74607605D01*
X99669869Y-74609030D01*
X100146059Y-74656649D01*
X100165662Y-74656678D01*
X100170484Y-74655223D01*
X100175518Y-74655223D01*
X100189022Y-74649629D01*
X100203017Y-74645407D01*
X100206913Y-74642219D01*
X100211566Y-74640292D01*
X100221902Y-74629955D01*
X100233215Y-74620700D01*
X100235595Y-74616262D01*
X100239156Y-74612702D01*
X100244748Y-74599199D01*
X100251660Y-74586316D01*
X100252161Y-74581303D01*
X100254087Y-74576654D01*
X100254087Y-74562043D01*
X100255542Y-74547492D01*
X100254087Y-74542669D01*
X100254087Y-74537636D01*
X100248493Y-74524130D01*
X100244271Y-74510137D01*
X100241083Y-74506241D01*
X100239156Y-74501587D01*
X100226719Y-74486434D01*
X100190576Y-74450290D01*
X100160771Y-74390680D01*
X100160771Y-74199800D01*
X100190576Y-74140190D01*
X100215244Y-74115521D01*
X100274854Y-74085717D01*
X100465735Y-74085717D01*
X100525346Y-74115523D01*
X100550014Y-74140190D01*
X100579819Y-74199800D01*
X100579819Y-74390681D01*
X100550014Y-74450290D01*
X100513870Y-74486434D01*
X100501433Y-74501587D01*
X100486502Y-74537635D01*
X100486501Y-74576653D01*
X100501432Y-74612702D01*
X100529022Y-74640292D01*
X100565070Y-74655223D01*
X100604088Y-74655224D01*
X100640137Y-74640293D01*
X100655290Y-74627856D01*
X100702910Y-74580238D01*
X100709203Y-74572569D01*
X100711200Y-74570838D01*
X100713093Y-74567829D01*
X100715347Y-74565084D01*
X100716357Y-74562643D01*
X100721643Y-74554247D01*
X100769262Y-74459010D01*
X100776268Y-74440701D01*
X100776522Y-74437117D01*
X100777898Y-74433797D01*
X100779819Y-74414288D01*
X100779819Y-74176193D01*
X100777898Y-74156684D01*
X100776522Y-74153363D01*
X100776268Y-74149780D01*
X100769262Y-74131471D01*
X100721643Y-74036234D01*
X100716357Y-74027837D01*
X100715347Y-74025397D01*
X100713093Y-74022651D01*
X100711200Y-74019643D01*
X100709203Y-74017911D01*
X100702910Y-74010243D01*
X100655290Y-73962625D01*
X100647620Y-73956330D01*
X100645891Y-73954336D01*
X100642886Y-73952444D01*
X100640137Y-73950188D01*
X100637693Y-73949176D01*
X100629301Y-73943893D01*
X100534063Y-73896274D01*
X100515755Y-73889268D01*
X100512171Y-73889013D01*
X100508851Y-73887638D01*
X100489342Y-73885717D01*
X100251247Y-73885717D01*
X100231738Y-73887638D01*
X100228417Y-73889013D01*
X100224834Y-73889268D01*
X100206525Y-73896274D01*
X100111288Y-73943893D01*
X100102891Y-73949178D01*
X100100451Y-73950189D01*
X100097705Y-73952442D01*
X100094697Y-73954336D01*
X100092964Y-73956333D01*
X100085298Y-73962626D01*
X100037679Y-74010244D01*
X100031384Y-74017914D01*
X100029390Y-74019644D01*
X100027496Y-74022651D01*
X100025243Y-74025398D01*
X100024232Y-74027837D01*
X100018947Y-74036234D01*
X99971328Y-74131472D01*
X99964322Y-74149780D01*
X99964067Y-74153363D01*
X99962692Y-74156684D01*
X99960771Y-74176193D01*
X99960771Y-74414288D01*
X99962692Y-74433797D01*
X99964067Y-74437117D01*
X99964091Y-74437454D01*
X99779819Y-74419027D01*
X99779819Y-74033336D01*
X99777898Y-74013827D01*
X99762966Y-73977779D01*
X99735376Y-73950189D01*
X99699328Y-73935257D01*
X99660310Y-73935257D01*
X99624262Y-73950189D01*
X99596672Y-73977779D01*
X99581740Y-74013827D01*
X99579819Y-74033336D01*
X99468708Y-74033336D01*
X99468708Y-73020829D01*
X99580604Y-73020829D01*
X99583370Y-73059749D01*
X99600820Y-73094648D01*
X99630296Y-73120213D01*
X99648196Y-73128204D01*
X100363591Y-73366669D01*
X99648196Y-73605134D01*
X99630296Y-73613125D01*
X99600820Y-73638690D01*
X99583370Y-73673589D01*
X99580604Y-73712509D01*
X99592942Y-73749525D01*
X99618507Y-73779001D01*
X99653406Y-73796451D01*
X99692326Y-73799217D01*
X99711442Y-73794870D01*
X100711441Y-73461537D01*
X100729342Y-73453546D01*
X100734743Y-73448861D01*
X100741130Y-73445668D01*
X100749342Y-73436199D01*
X100758818Y-73427981D01*
X100762013Y-73421589D01*
X100766695Y-73416192D01*
X100770661Y-73404294D01*
X100776267Y-73393082D01*
X100776773Y-73385957D01*
X100779034Y-73379176D01*
X100778144Y-73366669D01*
X100779034Y-73354162D01*
X100776773Y-73347380D01*
X100776267Y-73340256D01*
X100770661Y-73329043D01*
X100766695Y-73317146D01*
X100762013Y-73311748D01*
X100758818Y-73305357D01*
X100749342Y-73297138D01*
X100741130Y-73287670D01*
X100734743Y-73284476D01*
X100729342Y-73279792D01*
X100711441Y-73271801D01*
X99711442Y-72938468D01*
X99692326Y-72934121D01*
X99653406Y-72936887D01*
X99618507Y-72954337D01*
X99592942Y-72983813D01*
X99580604Y-73020829D01*
X99468708Y-73020829D01*
X99468708Y-71509526D01*
X99579819Y-71509526D01*
X99579819Y-71652383D01*
X99580791Y-71662256D01*
X99580604Y-71664890D01*
X99581391Y-71668353D01*
X99581740Y-71671892D01*
X99582751Y-71674334D01*
X99584951Y-71684006D01*
X99632570Y-71826862D01*
X99640561Y-71844763D01*
X99642916Y-71847478D01*
X99644291Y-71850797D01*
X99656727Y-71865951D01*
X99751965Y-71961189D01*
X99759631Y-71967480D01*
X99761364Y-71969478D01*
X99764375Y-71971373D01*
X99767119Y-71973625D01*
X99769556Y-71974634D01*
X99777955Y-71979921D01*
X99873192Y-72027540D01*
X99874620Y-72028086D01*
X99875200Y-72028516D01*
X99883376Y-72031437D01*
X99891501Y-72034546D01*
X99892221Y-72034597D01*
X99893660Y-72035111D01*
X100084136Y-72082730D01*
X100087517Y-72083230D01*
X100088881Y-72083795D01*
X100096231Y-72084518D01*
X100103529Y-72085598D01*
X100104987Y-72085380D01*
X100108390Y-72085716D01*
X100251247Y-72085716D01*
X100254649Y-72085380D01*
X100256108Y-72085598D01*
X100263405Y-72084518D01*
X100270756Y-72083795D01*
X100272119Y-72083230D01*
X100275501Y-72082730D01*
X100465976Y-72035111D01*
X100467413Y-72034597D01*
X100468136Y-72034546D01*
X100476260Y-72031437D01*
X100484437Y-72028516D01*
X100485017Y-72028085D01*
X100486444Y-72027540D01*
X100581682Y-71979921D01*
X100590074Y-71974638D01*
X100592518Y-71973626D01*
X100595267Y-71971369D01*
X100598272Y-71969478D01*
X100600001Y-71967483D01*
X100607671Y-71961189D01*
X100702911Y-71865951D01*
X100715347Y-71850798D01*
X100716722Y-71847478D01*
X100719077Y-71844763D01*
X100727068Y-71826863D01*
X100774687Y-71684006D01*
X100776886Y-71674333D01*
X100777898Y-71671892D01*
X100778246Y-71668354D01*
X100779034Y-71664891D01*
X100778846Y-71662256D01*
X100779819Y-71652383D01*
X100779819Y-71557145D01*
X100778846Y-71547271D01*
X100779034Y-71544637D01*
X100778246Y-71541173D01*
X100777898Y-71537636D01*
X100776886Y-71535194D01*
X100774687Y-71525522D01*
X100727068Y-71382665D01*
X100719077Y-71364765D01*
X100716722Y-71362049D01*
X100715347Y-71358730D01*
X100702910Y-71343576D01*
X100655290Y-71295958D01*
X100640137Y-71283521D01*
X100614646Y-71272963D01*
X100604089Y-71268590D01*
X100584580Y-71266669D01*
X100251247Y-71266669D01*
X100231738Y-71268590D01*
X100195690Y-71283522D01*
X100168100Y-71311112D01*
X100153168Y-71347160D01*
X100151247Y-71366669D01*
X100151247Y-71557145D01*
X100153168Y-71576654D01*
X100168100Y-71612702D01*
X100195690Y-71640292D01*
X100231738Y-71655224D01*
X100270756Y-71655224D01*
X100306804Y-71640292D01*
X100334394Y-71612702D01*
X100349326Y-71576654D01*
X100351247Y-71557145D01*
X100351247Y-71466669D01*
X100543160Y-71466669D01*
X100544797Y-71468306D01*
X100579819Y-71573371D01*
X100579819Y-71636156D01*
X100544797Y-71741221D01*
X100477727Y-71808291D01*
X100406818Y-71843745D01*
X100238937Y-71885716D01*
X100120699Y-71885716D01*
X99952818Y-71843745D01*
X99881913Y-71808293D01*
X99814840Y-71741220D01*
X99779819Y-71636156D01*
X99779819Y-71533133D01*
X99816881Y-71459010D01*
X99823887Y-71440701D01*
X99826653Y-71401781D01*
X99814314Y-71364765D01*
X99788749Y-71335288D01*
X99753851Y-71317839D01*
X99714931Y-71315074D01*
X99677915Y-71327412D01*
X99648438Y-71352977D01*
X99637995Y-71369567D01*
X99590376Y-71464805D01*
X99583370Y-71483113D01*
X99583115Y-71486696D01*
X99581740Y-71490017D01*
X99579819Y-71509526D01*
X99468708Y-71509526D01*
X99468708Y-69973209D01*
X99580604Y-69973209D01*
X99581492Y-69985716D01*
X99580604Y-69998223D01*
X99582863Y-70005001D01*
X99583370Y-70012129D01*
X99588976Y-70023341D01*
X99592942Y-70035239D01*
X99597625Y-70040638D01*
X99600820Y-70047028D01*
X99610291Y-70055243D01*
X99618507Y-70064715D01*
X99624896Y-70067909D01*
X99630296Y-70072593D01*
X99648196Y-70080584D01*
X100648196Y-70413917D01*
X100667311Y-70418264D01*
X100706231Y-70415498D01*
X100741130Y-70398048D01*
X100766695Y-70368572D01*
X100779034Y-70331556D01*
X100776267Y-70292636D01*
X100758818Y-70257737D01*
X100729342Y-70232172D01*
X100711441Y-70224181D01*
X100494104Y-70151735D01*
X100494104Y-69819696D01*
X100711441Y-69747251D01*
X100729342Y-69739260D01*
X100758818Y-69713695D01*
X100776267Y-69678796D01*
X100779034Y-69639876D01*
X100766695Y-69602860D01*
X100741130Y-69573384D01*
X100706231Y-69555934D01*
X100667311Y-69553168D01*
X100648196Y-69557515D01*
X99648196Y-69890848D01*
X99630296Y-69898839D01*
X99624896Y-69903522D01*
X99618507Y-69906717D01*
X99610291Y-69916188D01*
X99600820Y-69924404D01*
X99597625Y-69930793D01*
X99592942Y-69936193D01*
X99588976Y-69948090D01*
X99583370Y-69959303D01*
X99582863Y-69966430D01*
X99580604Y-69973209D01*
X99468708Y-69973209D01*
X99468708Y-68223811D01*
X99579819Y-68223811D01*
X99579819Y-68557144D01*
X99581740Y-68576653D01*
X99596672Y-68612701D01*
X99624262Y-68640291D01*
X99660310Y-68655223D01*
X99679819Y-68657144D01*
X100679819Y-68657144D01*
X100699328Y-68655223D01*
X100735376Y-68640291D01*
X100762966Y-68612701D01*
X100777898Y-68576653D01*
X100779819Y-68557144D01*
X100779819Y-68176192D01*
X100777898Y-68156683D01*
X100776522Y-68153362D01*
X100776268Y-68149779D01*
X100769262Y-68131470D01*
X100721643Y-68036233D01*
X100716357Y-68027836D01*
X100715347Y-68025396D01*
X100713093Y-68022650D01*
X100711200Y-68019642D01*
X100709203Y-68017910D01*
X100702910Y-68010242D01*
X100655290Y-67962624D01*
X100647620Y-67956329D01*
X100645891Y-67954335D01*
X100642886Y-67952443D01*
X100640137Y-67950187D01*
X100637693Y-67949175D01*
X100629301Y-67943892D01*
X100534063Y-67896273D01*
X100515755Y-67889267D01*
X100512171Y-67889012D01*
X100508851Y-67887637D01*
X100489342Y-67885716D01*
X100346485Y-67885716D01*
X100326976Y-67887637D01*
X100323655Y-67889012D01*
X100320072Y-67889267D01*
X100301763Y-67896273D01*
X100206526Y-67943892D01*
X100198129Y-67949177D01*
X100195689Y-67950188D01*
X100192943Y-67952441D01*
X100189935Y-67954335D01*
X100188202Y-67956332D01*
X100180536Y-67962625D01*
X100132917Y-68010243D01*
X100132270Y-68011031D01*
X100131482Y-68010243D01*
X100123811Y-68003948D01*
X100122082Y-68001954D01*
X100119074Y-68000060D01*
X100116328Y-67997807D01*
X100113888Y-67996796D01*
X100105492Y-67991511D01*
X100010254Y-67943892D01*
X99991946Y-67936886D01*
X99988362Y-67936631D01*
X99985042Y-67935256D01*
X99965533Y-67933335D01*
X99870295Y-67933335D01*
X99850786Y-67935256D01*
X99847465Y-67936631D01*
X99843882Y-67936886D01*
X99825573Y-67943892D01*
X99730336Y-67991511D01*
X99721939Y-67996796D01*
X99719499Y-67997807D01*
X99716753Y-68000060D01*
X99713745Y-68001954D01*
X99712012Y-68003951D01*
X99704346Y-68010244D01*
X99656727Y-68057862D01*
X99650432Y-68065532D01*
X99648438Y-68067262D01*
X99646544Y-68070269D01*
X99644291Y-68073016D01*
X99643280Y-68075455D01*
X99637995Y-68083852D01*
X99590376Y-68179090D01*
X99583370Y-68197398D01*
X99583115Y-68200981D01*
X99581740Y-68204302D01*
X99579819Y-68223811D01*
X99468708Y-68223811D01*
X99468708Y-67774605D01*
X100890930Y-67774605D01*
X100890930Y-74767789D01*
G37*
G36*
X100063954Y-83450569D02*
G01*
X100088623Y-83475237D01*
X100118428Y-83534847D01*
X100118428Y-83792192D01*
X99794619Y-83792192D01*
X99794619Y-83534847D01*
X99824424Y-83475237D01*
X99849092Y-83450568D01*
X99908702Y-83420764D01*
X100004345Y-83420764D01*
X100063954Y-83450569D01*
G37*
G36*
X100421618Y-81700829D02*
G01*
X100492527Y-81736283D01*
X100559597Y-81803353D01*
X100594619Y-81908418D01*
X100594619Y-82030287D01*
X99794619Y-82030287D01*
X99794619Y-81908419D01*
X99829640Y-81803354D01*
X99896713Y-81736282D01*
X99967618Y-81700829D01*
X100135499Y-81658859D01*
X100253737Y-81658859D01*
X100421618Y-81700829D01*
G37*
G36*
X100905730Y-88483789D02*
G01*
X99483508Y-88483789D01*
X99483508Y-87749336D01*
X99594619Y-87749336D01*
X99594619Y-88225526D01*
X99595329Y-88232742D01*
X99595086Y-88235179D01*
X99595803Y-88237557D01*
X99596540Y-88245035D01*
X99602136Y-88258544D01*
X99606357Y-88272534D01*
X99609544Y-88276430D01*
X99611472Y-88281083D01*
X99621808Y-88291419D01*
X99631064Y-88302732D01*
X99635501Y-88305112D01*
X99639062Y-88308673D01*
X99652567Y-88314267D01*
X99665448Y-88321177D01*
X99672812Y-88322653D01*
X99675110Y-88323605D01*
X99677560Y-88323605D01*
X99684669Y-88325030D01*
X100160859Y-88372649D01*
X100180462Y-88372678D01*
X100185284Y-88371223D01*
X100190318Y-88371223D01*
X100203822Y-88365629D01*
X100217817Y-88361407D01*
X100221713Y-88358219D01*
X100226366Y-88356292D01*
X100236702Y-88345955D01*
X100248015Y-88336700D01*
X100250395Y-88332262D01*
X100253956Y-88328702D01*
X100259548Y-88315199D01*
X100266460Y-88302316D01*
X100266961Y-88297303D01*
X100268887Y-88292654D01*
X100268887Y-88278043D01*
X100270342Y-88263492D01*
X100268887Y-88258669D01*
X100268887Y-88253636D01*
X100263293Y-88240130D01*
X100259071Y-88226137D01*
X100255883Y-88222241D01*
X100253956Y-88217587D01*
X100241519Y-88202434D01*
X100205376Y-88166290D01*
X100175571Y-88106680D01*
X100175571Y-87915800D01*
X100205376Y-87856190D01*
X100230044Y-87831521D01*
X100289654Y-87801717D01*
X100480535Y-87801717D01*
X100540146Y-87831523D01*
X100564814Y-87856190D01*
X100594619Y-87915800D01*
X100594619Y-88106681D01*
X100564814Y-88166290D01*
X100528670Y-88202434D01*
X100516233Y-88217587D01*
X100501302Y-88253635D01*
X100501301Y-88292653D01*
X100516232Y-88328702D01*
X100543822Y-88356292D01*
X100579870Y-88371223D01*
X100618888Y-88371224D01*
X100654937Y-88356293D01*
X100670090Y-88343856D01*
X100717710Y-88296238D01*
X100724003Y-88288569D01*
X100726000Y-88286838D01*
X100727893Y-88283829D01*
X100730147Y-88281084D01*
X100731157Y-88278643D01*
X100736443Y-88270247D01*
X100784062Y-88175010D01*
X100791068Y-88156701D01*
X100791322Y-88153117D01*
X100792698Y-88149797D01*
X100794619Y-88130288D01*
X100794619Y-87892193D01*
X100792698Y-87872684D01*
X100791322Y-87869363D01*
X100791068Y-87865780D01*
X100784062Y-87847471D01*
X100736443Y-87752234D01*
X100731157Y-87743837D01*
X100730147Y-87741397D01*
X100727893Y-87738651D01*
X100726000Y-87735643D01*
X100724003Y-87733911D01*
X100717710Y-87726243D01*
X100670090Y-87678625D01*
X100662420Y-87672330D01*
X100660691Y-87670336D01*
X100657686Y-87668444D01*
X100654937Y-87666188D01*
X100652493Y-87665176D01*
X100644101Y-87659893D01*
X100548863Y-87612274D01*
X100530555Y-87605268D01*
X100526971Y-87605013D01*
X100523651Y-87603638D01*
X100504142Y-87601717D01*
X100266047Y-87601717D01*
X100246538Y-87603638D01*
X100243217Y-87605013D01*
X100239634Y-87605268D01*
X100221325Y-87612274D01*
X100126088Y-87659893D01*
X100117691Y-87665178D01*
X100115251Y-87666189D01*
X100112505Y-87668442D01*
X100109497Y-87670336D01*
X100107764Y-87672333D01*
X100100098Y-87678626D01*
X100052479Y-87726244D01*
X100046184Y-87733914D01*
X100044190Y-87735644D01*
X100042296Y-87738651D01*
X100040043Y-87741398D01*
X100039032Y-87743837D01*
X100033747Y-87752234D01*
X99986128Y-87847472D01*
X99979122Y-87865780D01*
X99978867Y-87869363D01*
X99977492Y-87872684D01*
X99975571Y-87892193D01*
X99975571Y-88130288D01*
X99977492Y-88149797D01*
X99978867Y-88153117D01*
X99978891Y-88153454D01*
X99794619Y-88135027D01*
X99794619Y-87749336D01*
X99792698Y-87729827D01*
X99777766Y-87693779D01*
X99750176Y-87666189D01*
X99714128Y-87651257D01*
X99675110Y-87651257D01*
X99639062Y-87666189D01*
X99611472Y-87693779D01*
X99596540Y-87729827D01*
X99594619Y-87749336D01*
X99483508Y-87749336D01*
X99483508Y-86736829D01*
X99595404Y-86736829D01*
X99598170Y-86775749D01*
X99615620Y-86810648D01*
X99645096Y-86836213D01*
X99662996Y-86844204D01*
X100378391Y-87082669D01*
X99662996Y-87321134D01*
X99645096Y-87329125D01*
X99615620Y-87354690D01*
X99598170Y-87389589D01*
X99595404Y-87428509D01*
X99607742Y-87465525D01*
X99633307Y-87495001D01*
X99668206Y-87512451D01*
X99707126Y-87515217D01*
X99726242Y-87510870D01*
X100726241Y-87177537D01*
X100744142Y-87169546D01*
X100749543Y-87164861D01*
X100755930Y-87161668D01*
X100764142Y-87152199D01*
X100773618Y-87143981D01*
X100776813Y-87137589D01*
X100781495Y-87132192D01*
X100785461Y-87120294D01*
X100791067Y-87109082D01*
X100791573Y-87101957D01*
X100793834Y-87095176D01*
X100792944Y-87082669D01*
X100793834Y-87070162D01*
X100791573Y-87063380D01*
X100791067Y-87056256D01*
X100785461Y-87045043D01*
X100781495Y-87033146D01*
X100776813Y-87027748D01*
X100773618Y-87021357D01*
X100764142Y-87013138D01*
X100755930Y-87003670D01*
X100749543Y-87000476D01*
X100744142Y-86995792D01*
X100726241Y-86987801D01*
X99726242Y-86654468D01*
X99707126Y-86650121D01*
X99668206Y-86652887D01*
X99633307Y-86670337D01*
X99607742Y-86699813D01*
X99595404Y-86736829D01*
X99483508Y-86736829D01*
X99483508Y-85225526D01*
X99594619Y-85225526D01*
X99594619Y-85368383D01*
X99595591Y-85378256D01*
X99595404Y-85380890D01*
X99596191Y-85384353D01*
X99596540Y-85387892D01*
X99597551Y-85390334D01*
X99599751Y-85400006D01*
X99647370Y-85542862D01*
X99655361Y-85560763D01*
X99657716Y-85563478D01*
X99659091Y-85566797D01*
X99671527Y-85581951D01*
X99766765Y-85677189D01*
X99774431Y-85683480D01*
X99776164Y-85685478D01*
X99779175Y-85687373D01*
X99781919Y-85689625D01*
X99784356Y-85690634D01*
X99792755Y-85695921D01*
X99887992Y-85743540D01*
X99889420Y-85744086D01*
X99890000Y-85744516D01*
X99898176Y-85747437D01*
X99906301Y-85750546D01*
X99907021Y-85750597D01*
X99908460Y-85751111D01*
X100098936Y-85798730D01*
X100102317Y-85799230D01*
X100103681Y-85799795D01*
X100111031Y-85800518D01*
X100118329Y-85801598D01*
X100119787Y-85801380D01*
X100123190Y-85801716D01*
X100266047Y-85801716D01*
X100269449Y-85801380D01*
X100270908Y-85801598D01*
X100278205Y-85800518D01*
X100285556Y-85799795D01*
X100286919Y-85799230D01*
X100290301Y-85798730D01*
X100480776Y-85751111D01*
X100482213Y-85750597D01*
X100482936Y-85750546D01*
X100491060Y-85747437D01*
X100499237Y-85744516D01*
X100499817Y-85744085D01*
X100501244Y-85743540D01*
X100596482Y-85695921D01*
X100604874Y-85690638D01*
X100607318Y-85689626D01*
X100610067Y-85687369D01*
X100613072Y-85685478D01*
X100614801Y-85683483D01*
X100622471Y-85677189D01*
X100717711Y-85581951D01*
X100730147Y-85566798D01*
X100731522Y-85563478D01*
X100733877Y-85560763D01*
X100741868Y-85542863D01*
X100789487Y-85400006D01*
X100791686Y-85390333D01*
X100792698Y-85387892D01*
X100793046Y-85384354D01*
X100793834Y-85380891D01*
X100793646Y-85378256D01*
X100794619Y-85368383D01*
X100794619Y-85273145D01*
X100793646Y-85263271D01*
X100793834Y-85260637D01*
X100793046Y-85257173D01*
X100792698Y-85253636D01*
X100791686Y-85251194D01*
X100789487Y-85241522D01*
X100741868Y-85098665D01*
X100733877Y-85080765D01*
X100731522Y-85078049D01*
X100730147Y-85074730D01*
X100717710Y-85059576D01*
X100670090Y-85011958D01*
X100654937Y-84999521D01*
X100629446Y-84988963D01*
X100618889Y-84984590D01*
X100599380Y-84982669D01*
X100266047Y-84982669D01*
X100246538Y-84984590D01*
X100210490Y-84999522D01*
X100182900Y-85027112D01*
X100167968Y-85063160D01*
X100166047Y-85082669D01*
X100166047Y-85273145D01*
X100167968Y-85292654D01*
X100182900Y-85328702D01*
X100210490Y-85356292D01*
X100246538Y-85371224D01*
X100285556Y-85371224D01*
X100321604Y-85356292D01*
X100349194Y-85328702D01*
X100364126Y-85292654D01*
X100366047Y-85273145D01*
X100366047Y-85182669D01*
X100557960Y-85182669D01*
X100559597Y-85184306D01*
X100594619Y-85289371D01*
X100594619Y-85352156D01*
X100559597Y-85457221D01*
X100492527Y-85524291D01*
X100421618Y-85559745D01*
X100253737Y-85601716D01*
X100135499Y-85601716D01*
X99967618Y-85559745D01*
X99896713Y-85524293D01*
X99829640Y-85457220D01*
X99794619Y-85352156D01*
X99794619Y-85249133D01*
X99831681Y-85175010D01*
X99838687Y-85156701D01*
X99841453Y-85117781D01*
X99829114Y-85080765D01*
X99803549Y-85051288D01*
X99768651Y-85033839D01*
X99729731Y-85031074D01*
X99692715Y-85043412D01*
X99663238Y-85068977D01*
X99652795Y-85085567D01*
X99605176Y-85180805D01*
X99598170Y-85199113D01*
X99597915Y-85202696D01*
X99596540Y-85206017D01*
X99594619Y-85225526D01*
X99483508Y-85225526D01*
X99483508Y-83511240D01*
X99594619Y-83511240D01*
X99594619Y-83892192D01*
X99596540Y-83911701D01*
X99611472Y-83947749D01*
X99639062Y-83975339D01*
X99675110Y-83990271D01*
X99694619Y-83992192D01*
X100694619Y-83992192D01*
X100714128Y-83990271D01*
X100750176Y-83975339D01*
X100777766Y-83947749D01*
X100792698Y-83911701D01*
X100792698Y-83872683D01*
X100777766Y-83836635D01*
X100750176Y-83809045D01*
X100714128Y-83794113D01*
X100694619Y-83792192D01*
X100318428Y-83792192D01*
X100318428Y-83511240D01*
X100316507Y-83491731D01*
X100315131Y-83488410D01*
X100314877Y-83484827D01*
X100307871Y-83466518D01*
X100260252Y-83371281D01*
X100254966Y-83362884D01*
X100253956Y-83360444D01*
X100251702Y-83357698D01*
X100249809Y-83354690D01*
X100247811Y-83352957D01*
X100241519Y-83345291D01*
X100193901Y-83297672D01*
X100186230Y-83291377D01*
X100184501Y-83289383D01*
X100181493Y-83287489D01*
X100178747Y-83285236D01*
X100176307Y-83284225D01*
X100167911Y-83278940D01*
X100072673Y-83231321D01*
X100054365Y-83224315D01*
X100050781Y-83224060D01*
X100047461Y-83222685D01*
X100027952Y-83220764D01*
X99885095Y-83220764D01*
X99865586Y-83222685D01*
X99862265Y-83224060D01*
X99858682Y-83224315D01*
X99840373Y-83231321D01*
X99745136Y-83278940D01*
X99736739Y-83284225D01*
X99734299Y-83285236D01*
X99731553Y-83287489D01*
X99728545Y-83289383D01*
X99726812Y-83291380D01*
X99719146Y-83297673D01*
X99671527Y-83345291D01*
X99665232Y-83352961D01*
X99663238Y-83354691D01*
X99661344Y-83357698D01*
X99659091Y-83360445D01*
X99658080Y-83362884D01*
X99652795Y-83371281D01*
X99605176Y-83466519D01*
X99598170Y-83484827D01*
X99597915Y-83488410D01*
X99596540Y-83491731D01*
X99594619Y-83511240D01*
X99483508Y-83511240D01*
X99483508Y-81892192D01*
X99594619Y-81892192D01*
X99594619Y-82130287D01*
X99596540Y-82149796D01*
X99611472Y-82185844D01*
X99639062Y-82213434D01*
X99675110Y-82228366D01*
X99694619Y-82230287D01*
X100694619Y-82230287D01*
X100714128Y-82228366D01*
X100750176Y-82213434D01*
X100777766Y-82185844D01*
X100792698Y-82149796D01*
X100794619Y-82130287D01*
X100794619Y-81892192D01*
X100793646Y-81882318D01*
X100793834Y-81879684D01*
X100793046Y-81876220D01*
X100792698Y-81872683D01*
X100791686Y-81870241D01*
X100789487Y-81860569D01*
X100741868Y-81717712D01*
X100733877Y-81699812D01*
X100731522Y-81697096D01*
X100730147Y-81693777D01*
X100717711Y-81678624D01*
X100622471Y-81583386D01*
X100614801Y-81577091D01*
X100613072Y-81575097D01*
X100610067Y-81573205D01*
X100607318Y-81570949D01*
X100604874Y-81569936D01*
X100596482Y-81564654D01*
X100501244Y-81517035D01*
X100499817Y-81516489D01*
X100499237Y-81516059D01*
X100491060Y-81513137D01*
X100482936Y-81510029D01*
X100482213Y-81509977D01*
X100480776Y-81509464D01*
X100290301Y-81461845D01*
X100286919Y-81461344D01*
X100285556Y-81460780D01*
X100278205Y-81460056D01*
X100270908Y-81458977D01*
X100269449Y-81459194D01*
X100266047Y-81458859D01*
X100123190Y-81458859D01*
X100119787Y-81459194D01*
X100118329Y-81458977D01*
X100111031Y-81460056D01*
X100103681Y-81460780D01*
X100102317Y-81461344D01*
X100098936Y-81461845D01*
X99908460Y-81509464D01*
X99907021Y-81509977D01*
X99906301Y-81510029D01*
X99898176Y-81513137D01*
X99890000Y-81516059D01*
X99889420Y-81516488D01*
X99887992Y-81517035D01*
X99792755Y-81564654D01*
X99784356Y-81569940D01*
X99781919Y-81570950D01*
X99779175Y-81573201D01*
X99776164Y-81575097D01*
X99774431Y-81577094D01*
X99766765Y-81583386D01*
X99671527Y-81678624D01*
X99659091Y-81693778D01*
X99657716Y-81697096D01*
X99655361Y-81699812D01*
X99647370Y-81717713D01*
X99599751Y-81860569D01*
X99597551Y-81870240D01*
X99596540Y-81872683D01*
X99596191Y-81876221D01*
X99595404Y-81879685D01*
X99595591Y-81882318D01*
X99594619Y-81892192D01*
X99483508Y-81892192D01*
X99483508Y-81347748D01*
X100905730Y-81347748D01*
X100905730Y-88483789D01*
G37*
G36*
X125450330Y-60750637D02*
G01*
X124028108Y-60750637D01*
X124028108Y-60520017D01*
X124141140Y-60520017D01*
X124141140Y-60559035D01*
X124156072Y-60595083D01*
X124183662Y-60622673D01*
X124219710Y-60637605D01*
X124239219Y-60639526D01*
X125239219Y-60639526D01*
X125258728Y-60637605D01*
X125294776Y-60622673D01*
X125322366Y-60595083D01*
X125337298Y-60559035D01*
X125339219Y-60539526D01*
X125339219Y-60063336D01*
X125337298Y-60043827D01*
X125322366Y-60007779D01*
X125294776Y-59980189D01*
X125258728Y-59965257D01*
X125219710Y-59965257D01*
X125183662Y-59980189D01*
X125156072Y-60007779D01*
X125141140Y-60043827D01*
X125139219Y-60063336D01*
X125139219Y-60439526D01*
X124239219Y-60439526D01*
X124219710Y-60441447D01*
X124183662Y-60456379D01*
X124156072Y-60483969D01*
X124141140Y-60520017D01*
X124028108Y-60520017D01*
X124028108Y-58377160D01*
X124141140Y-58377160D01*
X124141140Y-58416178D01*
X124156072Y-58452226D01*
X124183662Y-58479816D01*
X124219710Y-58494748D01*
X124239219Y-58496669D01*
X124615409Y-58496669D01*
X124615409Y-58868097D01*
X124239219Y-58868097D01*
X124219710Y-58870018D01*
X124183662Y-58884950D01*
X124156072Y-58912540D01*
X124141140Y-58948588D01*
X124141140Y-58987606D01*
X124156072Y-59023654D01*
X124183662Y-59051244D01*
X124219710Y-59066176D01*
X124239219Y-59068097D01*
X125239219Y-59068097D01*
X125258728Y-59066176D01*
X125294776Y-59051244D01*
X125322366Y-59023654D01*
X125337298Y-58987606D01*
X125337298Y-58948588D01*
X125322366Y-58912540D01*
X125294776Y-58884950D01*
X125258728Y-58870018D01*
X125239219Y-58868097D01*
X124815409Y-58868097D01*
X124815409Y-58496669D01*
X125239219Y-58496669D01*
X125258728Y-58494748D01*
X125294776Y-58479816D01*
X125322366Y-58452226D01*
X125337298Y-58416178D01*
X125337298Y-58377160D01*
X125322366Y-58341112D01*
X125294776Y-58313522D01*
X125258728Y-58298590D01*
X125239219Y-58296669D01*
X124239219Y-58296669D01*
X124219710Y-58298590D01*
X124183662Y-58313522D01*
X124156072Y-58341112D01*
X124141140Y-58377160D01*
X124028108Y-58377160D01*
X124028108Y-56730002D01*
X124139219Y-56730002D01*
X124139219Y-56872859D01*
X124140191Y-56882732D01*
X124140004Y-56885366D01*
X124140791Y-56888829D01*
X124141140Y-56892368D01*
X124142151Y-56894810D01*
X124144351Y-56904482D01*
X124191970Y-57047338D01*
X124199961Y-57065239D01*
X124202316Y-57067954D01*
X124203691Y-57071273D01*
X124216127Y-57086427D01*
X124311365Y-57181665D01*
X124319031Y-57187956D01*
X124320764Y-57189954D01*
X124323775Y-57191849D01*
X124326519Y-57194101D01*
X124328956Y-57195110D01*
X124337355Y-57200397D01*
X124432592Y-57248016D01*
X124434020Y-57248562D01*
X124434600Y-57248992D01*
X124442776Y-57251913D01*
X124450901Y-57255022D01*
X124451621Y-57255073D01*
X124453060Y-57255587D01*
X124643536Y-57303206D01*
X124646917Y-57303706D01*
X124648281Y-57304271D01*
X124655631Y-57304994D01*
X124662929Y-57306074D01*
X124664387Y-57305856D01*
X124667790Y-57306192D01*
X124810647Y-57306192D01*
X124814049Y-57305856D01*
X124815508Y-57306074D01*
X124822805Y-57304994D01*
X124830156Y-57304271D01*
X124831519Y-57303706D01*
X124834901Y-57303206D01*
X125025376Y-57255587D01*
X125026813Y-57255073D01*
X125027536Y-57255022D01*
X125035660Y-57251913D01*
X125043837Y-57248992D01*
X125044417Y-57248561D01*
X125045844Y-57248016D01*
X125141082Y-57200397D01*
X125149474Y-57195114D01*
X125151918Y-57194102D01*
X125154667Y-57191845D01*
X125157672Y-57189954D01*
X125159401Y-57187959D01*
X125167071Y-57181665D01*
X125262311Y-57086427D01*
X125274747Y-57071274D01*
X125276122Y-57067954D01*
X125278477Y-57065239D01*
X125286468Y-57047339D01*
X125334087Y-56904482D01*
X125336286Y-56894809D01*
X125337298Y-56892368D01*
X125337646Y-56888830D01*
X125338434Y-56885367D01*
X125338246Y-56882732D01*
X125339219Y-56872859D01*
X125339219Y-56777621D01*
X125338246Y-56767747D01*
X125338434Y-56765113D01*
X125337646Y-56761649D01*
X125337298Y-56758112D01*
X125336286Y-56755670D01*
X125334087Y-56745998D01*
X125286468Y-56603141D01*
X125278477Y-56585241D01*
X125276122Y-56582525D01*
X125274747Y-56579206D01*
X125262310Y-56564052D01*
X125214690Y-56516434D01*
X125199537Y-56503997D01*
X125174046Y-56493439D01*
X125163489Y-56489066D01*
X125143980Y-56487145D01*
X124810647Y-56487145D01*
X124791138Y-56489066D01*
X124755090Y-56503998D01*
X124727500Y-56531588D01*
X124712568Y-56567636D01*
X124710647Y-56587145D01*
X124710647Y-56777621D01*
X124712568Y-56797130D01*
X124727500Y-56833178D01*
X124755090Y-56860768D01*
X124791138Y-56875700D01*
X124830156Y-56875700D01*
X124866204Y-56860768D01*
X124893794Y-56833178D01*
X124908726Y-56797130D01*
X124910647Y-56777621D01*
X124910647Y-56687145D01*
X125102560Y-56687145D01*
X125104197Y-56688782D01*
X125139219Y-56793847D01*
X125139219Y-56856632D01*
X125104197Y-56961697D01*
X125037127Y-57028767D01*
X124966218Y-57064221D01*
X124798337Y-57106192D01*
X124680099Y-57106192D01*
X124512218Y-57064221D01*
X124441313Y-57028769D01*
X124374240Y-56961696D01*
X124339219Y-56856632D01*
X124339219Y-56753609D01*
X124376281Y-56679486D01*
X124383287Y-56661177D01*
X124386053Y-56622257D01*
X124373714Y-56585241D01*
X124348149Y-56555764D01*
X124313251Y-56538315D01*
X124274331Y-56535550D01*
X124237315Y-56547888D01*
X124207838Y-56573453D01*
X124197395Y-56590043D01*
X124149776Y-56685281D01*
X124142770Y-56703589D01*
X124142515Y-56707172D01*
X124141140Y-56710493D01*
X124139219Y-56730002D01*
X124028108Y-56730002D01*
X124028108Y-54920478D01*
X124139219Y-54920478D01*
X124139219Y-55396668D01*
X124139929Y-55403884D01*
X124139686Y-55406321D01*
X124140403Y-55408699D01*
X124141140Y-55416177D01*
X124146736Y-55429686D01*
X124150957Y-55443676D01*
X124154144Y-55447572D01*
X124156072Y-55452225D01*
X124166408Y-55462561D01*
X124175664Y-55473874D01*
X124180101Y-55476254D01*
X124183662Y-55479815D01*
X124197167Y-55485409D01*
X124210048Y-55492319D01*
X124217412Y-55493795D01*
X124219710Y-55494747D01*
X124222160Y-55494747D01*
X124229269Y-55496172D01*
X124705459Y-55543791D01*
X124725062Y-55543820D01*
X124729884Y-55542365D01*
X124734918Y-55542365D01*
X124748422Y-55536771D01*
X124762417Y-55532549D01*
X124766313Y-55529361D01*
X124770966Y-55527434D01*
X124781302Y-55517097D01*
X124792615Y-55507842D01*
X124794995Y-55503404D01*
X124798556Y-55499844D01*
X124804148Y-55486341D01*
X124811060Y-55473458D01*
X124811561Y-55468445D01*
X124813487Y-55463796D01*
X124813487Y-55449185D01*
X124814942Y-55434634D01*
X124813487Y-55429811D01*
X124813487Y-55424778D01*
X124807893Y-55411272D01*
X124803671Y-55397279D01*
X124800483Y-55393383D01*
X124798556Y-55388729D01*
X124786119Y-55373576D01*
X124749976Y-55337432D01*
X124720171Y-55277822D01*
X124720171Y-55086942D01*
X124749976Y-55027332D01*
X124774644Y-55002663D01*
X124834254Y-54972859D01*
X125025135Y-54972859D01*
X125084746Y-55002665D01*
X125109414Y-55027332D01*
X125139219Y-55086942D01*
X125139219Y-55277823D01*
X125109414Y-55337432D01*
X125073270Y-55373576D01*
X125060833Y-55388729D01*
X125045902Y-55424777D01*
X125045901Y-55463795D01*
X125060832Y-55499844D01*
X125088422Y-55527434D01*
X125124470Y-55542365D01*
X125163488Y-55542366D01*
X125199537Y-55527435D01*
X125214690Y-55514998D01*
X125262310Y-55467380D01*
X125268603Y-55459711D01*
X125270600Y-55457980D01*
X125272493Y-55454971D01*
X125274747Y-55452226D01*
X125275757Y-55449785D01*
X125281043Y-55441389D01*
X125328662Y-55346152D01*
X125335668Y-55327843D01*
X125335922Y-55324259D01*
X125337298Y-55320939D01*
X125339219Y-55301430D01*
X125339219Y-55063335D01*
X125337298Y-55043826D01*
X125335922Y-55040505D01*
X125335668Y-55036922D01*
X125328662Y-55018613D01*
X125281043Y-54923376D01*
X125275757Y-54914979D01*
X125274747Y-54912539D01*
X125272493Y-54909793D01*
X125270600Y-54906785D01*
X125268603Y-54905053D01*
X125262310Y-54897385D01*
X125214690Y-54849767D01*
X125207020Y-54843472D01*
X125205291Y-54841478D01*
X125202286Y-54839586D01*
X125199537Y-54837330D01*
X125197093Y-54836318D01*
X125188701Y-54831035D01*
X125093463Y-54783416D01*
X125075155Y-54776410D01*
X125071571Y-54776155D01*
X125068251Y-54774780D01*
X125048742Y-54772859D01*
X124810647Y-54772859D01*
X124791138Y-54774780D01*
X124787817Y-54776155D01*
X124784234Y-54776410D01*
X124765925Y-54783416D01*
X124670688Y-54831035D01*
X124662291Y-54836320D01*
X124659851Y-54837331D01*
X124657105Y-54839584D01*
X124654097Y-54841478D01*
X124652364Y-54843475D01*
X124644698Y-54849768D01*
X124597079Y-54897386D01*
X124590784Y-54905056D01*
X124588790Y-54906786D01*
X124586896Y-54909793D01*
X124584643Y-54912540D01*
X124583632Y-54914979D01*
X124578347Y-54923376D01*
X124530728Y-55018614D01*
X124523722Y-55036922D01*
X124523467Y-55040505D01*
X124522092Y-55043826D01*
X124520171Y-55063335D01*
X124520171Y-55301430D01*
X124522092Y-55320939D01*
X124523467Y-55324259D01*
X124523491Y-55324596D01*
X124339219Y-55306169D01*
X124339219Y-54920478D01*
X124337298Y-54900969D01*
X124322366Y-54864921D01*
X124294776Y-54837331D01*
X124258728Y-54822399D01*
X124219710Y-54822399D01*
X124183662Y-54837331D01*
X124156072Y-54864921D01*
X124141140Y-54900969D01*
X124139219Y-54920478D01*
X124028108Y-54920478D01*
X124028108Y-53907971D01*
X124140004Y-53907971D01*
X124142770Y-53946891D01*
X124160220Y-53981790D01*
X124189696Y-54007355D01*
X124207596Y-54015346D01*
X124922991Y-54253811D01*
X124207596Y-54492276D01*
X124189696Y-54500267D01*
X124160220Y-54525832D01*
X124142770Y-54560731D01*
X124140004Y-54599651D01*
X124152342Y-54636667D01*
X124177907Y-54666143D01*
X124212806Y-54683593D01*
X124251726Y-54686359D01*
X124270842Y-54682012D01*
X125270841Y-54348679D01*
X125288742Y-54340688D01*
X125294143Y-54336003D01*
X125300530Y-54332810D01*
X125308742Y-54323341D01*
X125318218Y-54315123D01*
X125321413Y-54308731D01*
X125326095Y-54303334D01*
X125330061Y-54291436D01*
X125335667Y-54280224D01*
X125336173Y-54273099D01*
X125338434Y-54266318D01*
X125337544Y-54253811D01*
X125338434Y-54241304D01*
X125336173Y-54234522D01*
X125335667Y-54227398D01*
X125330061Y-54216185D01*
X125326095Y-54204288D01*
X125321413Y-54198890D01*
X125318218Y-54192499D01*
X125308742Y-54184280D01*
X125300530Y-54174812D01*
X125294143Y-54171618D01*
X125288742Y-54166934D01*
X125270841Y-54158943D01*
X124270842Y-53825610D01*
X124251726Y-53821263D01*
X124212806Y-53824029D01*
X124177907Y-53841479D01*
X124152342Y-53870955D01*
X124140004Y-53907971D01*
X124028108Y-53907971D01*
X124028108Y-53710152D01*
X125450330Y-53710152D01*
X125450330Y-60750637D01*
G37*
G36*
X125450330Y-74238037D02*
G01*
X124028108Y-74238037D01*
X124028108Y-74007417D01*
X124141140Y-74007417D01*
X124141140Y-74046435D01*
X124156072Y-74082483D01*
X124183662Y-74110073D01*
X124219710Y-74125005D01*
X124239219Y-74126926D01*
X125239219Y-74126926D01*
X125258728Y-74125005D01*
X125294776Y-74110073D01*
X125322366Y-74082483D01*
X125337298Y-74046435D01*
X125339219Y-74026926D01*
X125339219Y-73550736D01*
X125337298Y-73531227D01*
X125322366Y-73495179D01*
X125294776Y-73467589D01*
X125258728Y-73452657D01*
X125219710Y-73452657D01*
X125183662Y-73467589D01*
X125156072Y-73495179D01*
X125141140Y-73531227D01*
X125139219Y-73550736D01*
X125139219Y-73926926D01*
X124239219Y-73926926D01*
X124219710Y-73928847D01*
X124183662Y-73943779D01*
X124156072Y-73971369D01*
X124141140Y-74007417D01*
X124028108Y-74007417D01*
X124028108Y-71864560D01*
X124141140Y-71864560D01*
X124141140Y-71903578D01*
X124156072Y-71939626D01*
X124183662Y-71967216D01*
X124219710Y-71982148D01*
X124239219Y-71984069D01*
X124615409Y-71984069D01*
X124615409Y-72355497D01*
X124239219Y-72355497D01*
X124219710Y-72357418D01*
X124183662Y-72372350D01*
X124156072Y-72399940D01*
X124141140Y-72435988D01*
X124141140Y-72475006D01*
X124156072Y-72511054D01*
X124183662Y-72538644D01*
X124219710Y-72553576D01*
X124239219Y-72555497D01*
X125239219Y-72555497D01*
X125258728Y-72553576D01*
X125294776Y-72538644D01*
X125322366Y-72511054D01*
X125337298Y-72475006D01*
X125337298Y-72435988D01*
X125322366Y-72399940D01*
X125294776Y-72372350D01*
X125258728Y-72357418D01*
X125239219Y-72355497D01*
X124815409Y-72355497D01*
X124815409Y-71984069D01*
X125239219Y-71984069D01*
X125258728Y-71982148D01*
X125294776Y-71967216D01*
X125322366Y-71939626D01*
X125337298Y-71903578D01*
X125337298Y-71864560D01*
X125322366Y-71828512D01*
X125294776Y-71800922D01*
X125258728Y-71785990D01*
X125239219Y-71784069D01*
X124239219Y-71784069D01*
X124219710Y-71785990D01*
X124183662Y-71800922D01*
X124156072Y-71828512D01*
X124141140Y-71864560D01*
X124028108Y-71864560D01*
X124028108Y-70217402D01*
X124139219Y-70217402D01*
X124139219Y-70360259D01*
X124140191Y-70370132D01*
X124140004Y-70372766D01*
X124140791Y-70376229D01*
X124141140Y-70379768D01*
X124142151Y-70382210D01*
X124144351Y-70391882D01*
X124191970Y-70534738D01*
X124199961Y-70552639D01*
X124202316Y-70555354D01*
X124203691Y-70558673D01*
X124216127Y-70573827D01*
X124311365Y-70669065D01*
X124319031Y-70675356D01*
X124320764Y-70677354D01*
X124323775Y-70679249D01*
X124326519Y-70681501D01*
X124328956Y-70682510D01*
X124337355Y-70687797D01*
X124432592Y-70735416D01*
X124434020Y-70735962D01*
X124434600Y-70736392D01*
X124442776Y-70739313D01*
X124450901Y-70742422D01*
X124451621Y-70742473D01*
X124453060Y-70742987D01*
X124643536Y-70790606D01*
X124646917Y-70791106D01*
X124648281Y-70791671D01*
X124655631Y-70792394D01*
X124662929Y-70793474D01*
X124664387Y-70793256D01*
X124667790Y-70793592D01*
X124810647Y-70793592D01*
X124814049Y-70793256D01*
X124815508Y-70793474D01*
X124822805Y-70792394D01*
X124830156Y-70791671D01*
X124831519Y-70791106D01*
X124834901Y-70790606D01*
X125025376Y-70742987D01*
X125026813Y-70742473D01*
X125027536Y-70742422D01*
X125035660Y-70739313D01*
X125043837Y-70736392D01*
X125044417Y-70735961D01*
X125045844Y-70735416D01*
X125141082Y-70687797D01*
X125149474Y-70682514D01*
X125151918Y-70681502D01*
X125154667Y-70679245D01*
X125157672Y-70677354D01*
X125159401Y-70675359D01*
X125167071Y-70669065D01*
X125262311Y-70573827D01*
X125274747Y-70558674D01*
X125276122Y-70555354D01*
X125278477Y-70552639D01*
X125286468Y-70534739D01*
X125334087Y-70391882D01*
X125336286Y-70382209D01*
X125337298Y-70379768D01*
X125337646Y-70376230D01*
X125338434Y-70372767D01*
X125338246Y-70370132D01*
X125339219Y-70360259D01*
X125339219Y-70265021D01*
X125338246Y-70255147D01*
X125338434Y-70252513D01*
X125337646Y-70249049D01*
X125337298Y-70245512D01*
X125336286Y-70243070D01*
X125334087Y-70233398D01*
X125286468Y-70090541D01*
X125278477Y-70072641D01*
X125276122Y-70069925D01*
X125274747Y-70066606D01*
X125262310Y-70051452D01*
X125214690Y-70003834D01*
X125199537Y-69991397D01*
X125174046Y-69980839D01*
X125163489Y-69976466D01*
X125143980Y-69974545D01*
X124810647Y-69974545D01*
X124791138Y-69976466D01*
X124755090Y-69991398D01*
X124727500Y-70018988D01*
X124712568Y-70055036D01*
X124710647Y-70074545D01*
X124710647Y-70265021D01*
X124712568Y-70284530D01*
X124727500Y-70320578D01*
X124755090Y-70348168D01*
X124791138Y-70363100D01*
X124830156Y-70363100D01*
X124866204Y-70348168D01*
X124893794Y-70320578D01*
X124908726Y-70284530D01*
X124910647Y-70265021D01*
X124910647Y-70174545D01*
X125102560Y-70174545D01*
X125104197Y-70176182D01*
X125139219Y-70281247D01*
X125139219Y-70344032D01*
X125104197Y-70449097D01*
X125037127Y-70516167D01*
X124966218Y-70551621D01*
X124798337Y-70593592D01*
X124680099Y-70593592D01*
X124512218Y-70551621D01*
X124441313Y-70516169D01*
X124374240Y-70449096D01*
X124339219Y-70344032D01*
X124339219Y-70241009D01*
X124376281Y-70166886D01*
X124383287Y-70148577D01*
X124386053Y-70109657D01*
X124373714Y-70072641D01*
X124348149Y-70043164D01*
X124313251Y-70025715D01*
X124274331Y-70022950D01*
X124237315Y-70035288D01*
X124207838Y-70060853D01*
X124197395Y-70077443D01*
X124149776Y-70172681D01*
X124142770Y-70190989D01*
X124142515Y-70194572D01*
X124141140Y-70197893D01*
X124139219Y-70217402D01*
X124028108Y-70217402D01*
X124028108Y-68407878D01*
X124139219Y-68407878D01*
X124139219Y-68884068D01*
X124139929Y-68891284D01*
X124139686Y-68893721D01*
X124140403Y-68896099D01*
X124141140Y-68903577D01*
X124146736Y-68917086D01*
X124150957Y-68931076D01*
X124154144Y-68934972D01*
X124156072Y-68939625D01*
X124166408Y-68949961D01*
X124175664Y-68961274D01*
X124180101Y-68963654D01*
X124183662Y-68967215D01*
X124197167Y-68972809D01*
X124210048Y-68979719D01*
X124217412Y-68981195D01*
X124219710Y-68982147D01*
X124222160Y-68982147D01*
X124229269Y-68983572D01*
X124705459Y-69031191D01*
X124725062Y-69031220D01*
X124729884Y-69029765D01*
X124734918Y-69029765D01*
X124748422Y-69024171D01*
X124762417Y-69019949D01*
X124766313Y-69016761D01*
X124770966Y-69014834D01*
X124781302Y-69004497D01*
X124792615Y-68995242D01*
X124794995Y-68990804D01*
X124798556Y-68987244D01*
X124804148Y-68973741D01*
X124811060Y-68960858D01*
X124811561Y-68955845D01*
X124813487Y-68951196D01*
X124813487Y-68936585D01*
X124814942Y-68922034D01*
X124813487Y-68917211D01*
X124813487Y-68912178D01*
X124807893Y-68898672D01*
X124803671Y-68884679D01*
X124800483Y-68880783D01*
X124798556Y-68876129D01*
X124786119Y-68860976D01*
X124749976Y-68824832D01*
X124720171Y-68765222D01*
X124720171Y-68574342D01*
X124749976Y-68514732D01*
X124774644Y-68490063D01*
X124834254Y-68460259D01*
X125025135Y-68460259D01*
X125084746Y-68490065D01*
X125109414Y-68514732D01*
X125139219Y-68574342D01*
X125139219Y-68765223D01*
X125109414Y-68824832D01*
X125073270Y-68860976D01*
X125060833Y-68876129D01*
X125045902Y-68912177D01*
X125045901Y-68951195D01*
X125060832Y-68987244D01*
X125088422Y-69014834D01*
X125124470Y-69029765D01*
X125163488Y-69029766D01*
X125199537Y-69014835D01*
X125214690Y-69002398D01*
X125262310Y-68954780D01*
X125268603Y-68947111D01*
X125270600Y-68945380D01*
X125272493Y-68942371D01*
X125274747Y-68939626D01*
X125275757Y-68937185D01*
X125281043Y-68928789D01*
X125328662Y-68833552D01*
X125335668Y-68815243D01*
X125335922Y-68811659D01*
X125337298Y-68808339D01*
X125339219Y-68788830D01*
X125339219Y-68550735D01*
X125337298Y-68531226D01*
X125335922Y-68527905D01*
X125335668Y-68524322D01*
X125328662Y-68506013D01*
X125281043Y-68410776D01*
X125275757Y-68402379D01*
X125274747Y-68399939D01*
X125272493Y-68397193D01*
X125270600Y-68394185D01*
X125268603Y-68392453D01*
X125262310Y-68384785D01*
X125214690Y-68337167D01*
X125207020Y-68330872D01*
X125205291Y-68328878D01*
X125202286Y-68326986D01*
X125199537Y-68324730D01*
X125197093Y-68323718D01*
X125188701Y-68318435D01*
X125093463Y-68270816D01*
X125075155Y-68263810D01*
X125071571Y-68263555D01*
X125068251Y-68262180D01*
X125048742Y-68260259D01*
X124810647Y-68260259D01*
X124791138Y-68262180D01*
X124787817Y-68263555D01*
X124784234Y-68263810D01*
X124765925Y-68270816D01*
X124670688Y-68318435D01*
X124662291Y-68323720D01*
X124659851Y-68324731D01*
X124657105Y-68326984D01*
X124654097Y-68328878D01*
X124652364Y-68330875D01*
X124644698Y-68337168D01*
X124597079Y-68384786D01*
X124590784Y-68392456D01*
X124588790Y-68394186D01*
X124586896Y-68397193D01*
X124584643Y-68399940D01*
X124583632Y-68402379D01*
X124578347Y-68410776D01*
X124530728Y-68506014D01*
X124523722Y-68524322D01*
X124523467Y-68527905D01*
X124522092Y-68531226D01*
X124520171Y-68550735D01*
X124520171Y-68788830D01*
X124522092Y-68808339D01*
X124523467Y-68811659D01*
X124523491Y-68811996D01*
X124339219Y-68793569D01*
X124339219Y-68407878D01*
X124337298Y-68388369D01*
X124322366Y-68352321D01*
X124294776Y-68324731D01*
X124258728Y-68309799D01*
X124219710Y-68309799D01*
X124183662Y-68324731D01*
X124156072Y-68352321D01*
X124141140Y-68388369D01*
X124139219Y-68407878D01*
X124028108Y-68407878D01*
X124028108Y-67395371D01*
X124140004Y-67395371D01*
X124142770Y-67434291D01*
X124160220Y-67469190D01*
X124189696Y-67494755D01*
X124207596Y-67502746D01*
X124922991Y-67741211D01*
X124207596Y-67979676D01*
X124189696Y-67987667D01*
X124160220Y-68013232D01*
X124142770Y-68048131D01*
X124140004Y-68087051D01*
X124152342Y-68124067D01*
X124177907Y-68153543D01*
X124212806Y-68170993D01*
X124251726Y-68173759D01*
X124270842Y-68169412D01*
X125270841Y-67836079D01*
X125288742Y-67828088D01*
X125294143Y-67823403D01*
X125300530Y-67820210D01*
X125308742Y-67810741D01*
X125318218Y-67802523D01*
X125321413Y-67796131D01*
X125326095Y-67790734D01*
X125330061Y-67778836D01*
X125335667Y-67767624D01*
X125336173Y-67760499D01*
X125338434Y-67753718D01*
X125337544Y-67741211D01*
X125338434Y-67728704D01*
X125336173Y-67721922D01*
X125335667Y-67714798D01*
X125330061Y-67703585D01*
X125326095Y-67691688D01*
X125321413Y-67686290D01*
X125318218Y-67679899D01*
X125308742Y-67671680D01*
X125300530Y-67662212D01*
X125294143Y-67659018D01*
X125288742Y-67654334D01*
X125270841Y-67646343D01*
X124270842Y-67313010D01*
X124251726Y-67308663D01*
X124212806Y-67311429D01*
X124177907Y-67328879D01*
X124152342Y-67358355D01*
X124140004Y-67395371D01*
X124028108Y-67395371D01*
X124028108Y-67197552D01*
X125450330Y-67197552D01*
X125450330Y-74238037D01*
G37*
D12*
X125231200Y-82974332D02*
X125278819Y-82831475D01*
X125278819Y-82831475D02*
X125278819Y-82593380D01*
X125278819Y-82593380D02*
X125231200Y-82498142D01*
X125231200Y-82498142D02*
X125183580Y-82450523D01*
X125183580Y-82450523D02*
X125088342Y-82402904D01*
X125088342Y-82402904D02*
X124993104Y-82402904D01*
X124993104Y-82402904D02*
X124897866Y-82450523D01*
X124897866Y-82450523D02*
X124850247Y-82498142D01*
X124850247Y-82498142D02*
X124802628Y-82593380D01*
X124802628Y-82593380D02*
X124755009Y-82783856D01*
X124755009Y-82783856D02*
X124707390Y-82879094D01*
X124707390Y-82879094D02*
X124659771Y-82926713D01*
X124659771Y-82926713D02*
X124564533Y-82974332D01*
X124564533Y-82974332D02*
X124469295Y-82974332D01*
X124469295Y-82974332D02*
X124374057Y-82926713D01*
X124374057Y-82926713D02*
X124326438Y-82879094D01*
X124326438Y-82879094D02*
X124278819Y-82783856D01*
X124278819Y-82783856D02*
X124278819Y-82545761D01*
X124278819Y-82545761D02*
X124326438Y-82402904D01*
X124278819Y-82069570D02*
X125278819Y-81831475D01*
X125278819Y-81831475D02*
X124564533Y-81640999D01*
X124564533Y-81640999D02*
X125278819Y-81450523D01*
X125278819Y-81450523D02*
X124278819Y-81212428D01*
X124278819Y-80926713D02*
X124278819Y-80307666D01*
X124278819Y-80307666D02*
X124659771Y-80640999D01*
X124659771Y-80640999D02*
X124659771Y-80498142D01*
X124659771Y-80498142D02*
X124707390Y-80402904D01*
X124707390Y-80402904D02*
X124755009Y-80355285D01*
X124755009Y-80355285D02*
X124850247Y-80307666D01*
X124850247Y-80307666D02*
X125088342Y-80307666D01*
X125088342Y-80307666D02*
X125183580Y-80355285D01*
X125183580Y-80355285D02*
X125231200Y-80402904D01*
X125231200Y-80402904D02*
X125278819Y-80498142D01*
X125278819Y-80498142D02*
X125278819Y-80783856D01*
X125278819Y-80783856D02*
X125231200Y-80879094D01*
X125231200Y-80879094D02*
X125183580Y-80926713D01*
X100235609Y-64753285D02*
X100235609Y-64419952D01*
X100759419Y-64277095D02*
X100759419Y-64753285D01*
X100759419Y-64753285D02*
X99759419Y-64753285D01*
X99759419Y-64753285D02*
X99759419Y-64277095D01*
X100759419Y-63848523D02*
X99759419Y-63848523D01*
X99759419Y-63848523D02*
X100759419Y-63277095D01*
X100759419Y-63277095D02*
X99759419Y-63277095D01*
X100664180Y-62229476D02*
X100711800Y-62277095D01*
X100711800Y-62277095D02*
X100759419Y-62419952D01*
X100759419Y-62419952D02*
X100759419Y-62515190D01*
X100759419Y-62515190D02*
X100711800Y-62658047D01*
X100711800Y-62658047D02*
X100616561Y-62753285D01*
X100616561Y-62753285D02*
X100521323Y-62800904D01*
X100521323Y-62800904D02*
X100330847Y-62848523D01*
X100330847Y-62848523D02*
X100187990Y-62848523D01*
X100187990Y-62848523D02*
X99997514Y-62800904D01*
X99997514Y-62800904D02*
X99902276Y-62753285D01*
X99902276Y-62753285D02*
X99807038Y-62658047D01*
X99807038Y-62658047D02*
X99759419Y-62515190D01*
X99759419Y-62515190D02*
X99759419Y-62419952D01*
X99759419Y-62419952D02*
X99807038Y-62277095D01*
X99807038Y-62277095D02*
X99854657Y-62229476D01*
X100759419Y-61277095D02*
X100759419Y-61848523D01*
X100759419Y-61562809D02*
X99759419Y-61562809D01*
X99759419Y-61562809D02*
X99902276Y-61658047D01*
X99902276Y-61658047D02*
X99997514Y-61753285D01*
X99997514Y-61753285D02*
X100045133Y-61848523D01*
X119062667Y-88452000D02*
X119205524Y-88499619D01*
X119205524Y-88499619D02*
X119443619Y-88499619D01*
X119443619Y-88499619D02*
X119538857Y-88452000D01*
X119538857Y-88452000D02*
X119586476Y-88404380D01*
X119586476Y-88404380D02*
X119634095Y-88309142D01*
X119634095Y-88309142D02*
X119634095Y-88213904D01*
X119634095Y-88213904D02*
X119586476Y-88118666D01*
X119586476Y-88118666D02*
X119538857Y-88071047D01*
X119538857Y-88071047D02*
X119443619Y-88023428D01*
X119443619Y-88023428D02*
X119253143Y-87975809D01*
X119253143Y-87975809D02*
X119157905Y-87928190D01*
X119157905Y-87928190D02*
X119110286Y-87880571D01*
X119110286Y-87880571D02*
X119062667Y-87785333D01*
X119062667Y-87785333D02*
X119062667Y-87690095D01*
X119062667Y-87690095D02*
X119110286Y-87594857D01*
X119110286Y-87594857D02*
X119157905Y-87547238D01*
X119157905Y-87547238D02*
X119253143Y-87499619D01*
X119253143Y-87499619D02*
X119491238Y-87499619D01*
X119491238Y-87499619D02*
X119634095Y-87547238D01*
X119967429Y-87499619D02*
X120205524Y-88499619D01*
X120205524Y-88499619D02*
X120396000Y-87785333D01*
X120396000Y-87785333D02*
X120586476Y-88499619D01*
X120586476Y-88499619D02*
X120824572Y-87499619D01*
X121729333Y-88499619D02*
X121157905Y-88499619D01*
X121443619Y-88499619D02*
X121443619Y-87499619D01*
X121443619Y-87499619D02*
X121348381Y-87642476D01*
X121348381Y-87642476D02*
X121253143Y-87737714D01*
X121253143Y-87737714D02*
X121157905Y-87785333D01*
X110619076Y-88372619D02*
X110619076Y-87372619D01*
X110619076Y-87372619D02*
X110952409Y-88086904D01*
X110952409Y-88086904D02*
X111285742Y-87372619D01*
X111285742Y-87372619D02*
X111285742Y-88372619D01*
X111761933Y-88372619D02*
X111761933Y-87372619D01*
X111761933Y-87372619D02*
X112000028Y-87372619D01*
X112000028Y-87372619D02*
X112142885Y-87420238D01*
X112142885Y-87420238D02*
X112238123Y-87515476D01*
X112238123Y-87515476D02*
X112285742Y-87610714D01*
X112285742Y-87610714D02*
X112333361Y-87801190D01*
X112333361Y-87801190D02*
X112333361Y-87944047D01*
X112333361Y-87944047D02*
X112285742Y-88134523D01*
X112285742Y-88134523D02*
X112238123Y-88229761D01*
X112238123Y-88229761D02*
X112142885Y-88325000D01*
X112142885Y-88325000D02*
X112000028Y-88372619D01*
X112000028Y-88372619D02*
X111761933Y-88372619D01*
X112714314Y-87467857D02*
X112761933Y-87420238D01*
X112761933Y-87420238D02*
X112857171Y-87372619D01*
X112857171Y-87372619D02*
X113095266Y-87372619D01*
X113095266Y-87372619D02*
X113190504Y-87420238D01*
X113190504Y-87420238D02*
X113238123Y-87467857D01*
X113238123Y-87467857D02*
X113285742Y-87563095D01*
X113285742Y-87563095D02*
X113285742Y-87658333D01*
X113285742Y-87658333D02*
X113238123Y-87801190D01*
X113238123Y-87801190D02*
X112666695Y-88372619D01*
X112666695Y-88372619D02*
X113285742Y-88372619D01*
X109928819Y-80549666D02*
X109928819Y-81121094D01*
X109928819Y-80835380D02*
X108928819Y-80835380D01*
X108928819Y-80835380D02*
X109071676Y-80930618D01*
X109071676Y-80930618D02*
X109166914Y-81025856D01*
X109166914Y-81025856D02*
X109214533Y-81121094D01*
X109024057Y-80168713D02*
X108976438Y-80121094D01*
X108976438Y-80121094D02*
X108928819Y-80025856D01*
X108928819Y-80025856D02*
X108928819Y-79787761D01*
X108928819Y-79787761D02*
X108976438Y-79692523D01*
X108976438Y-79692523D02*
X109024057Y-79644904D01*
X109024057Y-79644904D02*
X109119295Y-79597285D01*
X109119295Y-79597285D02*
X109214533Y-79597285D01*
X109214533Y-79597285D02*
X109357390Y-79644904D01*
X109357390Y-79644904D02*
X109928819Y-80216332D01*
X109928819Y-80216332D02*
X109928819Y-79597285D01*
X108928819Y-78978237D02*
X108928819Y-78882999D01*
X108928819Y-78882999D02*
X108976438Y-78787761D01*
X108976438Y-78787761D02*
X109024057Y-78740142D01*
X109024057Y-78740142D02*
X109119295Y-78692523D01*
X109119295Y-78692523D02*
X109309771Y-78644904D01*
X109309771Y-78644904D02*
X109547866Y-78644904D01*
X109547866Y-78644904D02*
X109738342Y-78692523D01*
X109738342Y-78692523D02*
X109833580Y-78740142D01*
X109833580Y-78740142D02*
X109881200Y-78787761D01*
X109881200Y-78787761D02*
X109928819Y-78882999D01*
X109928819Y-78882999D02*
X109928819Y-78978237D01*
X109928819Y-78978237D02*
X109881200Y-79073475D01*
X109881200Y-79073475D02*
X109833580Y-79121094D01*
X109833580Y-79121094D02*
X109738342Y-79168713D01*
X109738342Y-79168713D02*
X109547866Y-79216332D01*
X109547866Y-79216332D02*
X109309771Y-79216332D01*
X109309771Y-79216332D02*
X109119295Y-79168713D01*
X109119295Y-79168713D02*
X109024057Y-79121094D01*
X109024057Y-79121094D02*
X108976438Y-79073475D01*
X108976438Y-79073475D02*
X108928819Y-78978237D01*
X100235609Y-78625485D02*
X100235609Y-78292152D01*
X100759419Y-78149295D02*
X100759419Y-78625485D01*
X100759419Y-78625485D02*
X99759419Y-78625485D01*
X99759419Y-78625485D02*
X99759419Y-78149295D01*
X100759419Y-77720723D02*
X99759419Y-77720723D01*
X99759419Y-77720723D02*
X100759419Y-77149295D01*
X100759419Y-77149295D02*
X99759419Y-77149295D01*
X100664180Y-76101676D02*
X100711800Y-76149295D01*
X100711800Y-76149295D02*
X100759419Y-76292152D01*
X100759419Y-76292152D02*
X100759419Y-76387390D01*
X100759419Y-76387390D02*
X100711800Y-76530247D01*
X100711800Y-76530247D02*
X100616561Y-76625485D01*
X100616561Y-76625485D02*
X100521323Y-76673104D01*
X100521323Y-76673104D02*
X100330847Y-76720723D01*
X100330847Y-76720723D02*
X100187990Y-76720723D01*
X100187990Y-76720723D02*
X99997514Y-76673104D01*
X99997514Y-76673104D02*
X99902276Y-76625485D01*
X99902276Y-76625485D02*
X99807038Y-76530247D01*
X99807038Y-76530247D02*
X99759419Y-76387390D01*
X99759419Y-76387390D02*
X99759419Y-76292152D01*
X99759419Y-76292152D02*
X99807038Y-76149295D01*
X99807038Y-76149295D02*
X99854657Y-76101676D01*
X99854657Y-75720723D02*
X99807038Y-75673104D01*
X99807038Y-75673104D02*
X99759419Y-75577866D01*
X99759419Y-75577866D02*
X99759419Y-75339771D01*
X99759419Y-75339771D02*
X99807038Y-75244533D01*
X99807038Y-75244533D02*
X99854657Y-75196914D01*
X99854657Y-75196914D02*
X99949895Y-75149295D01*
X99949895Y-75149295D02*
X100045133Y-75149295D01*
X100045133Y-75149295D02*
X100187990Y-75196914D01*
X100187990Y-75196914D02*
X100759419Y-75768342D01*
X100759419Y-75768342D02*
X100759419Y-75149295D01*
D13*
X111208450Y-50923391D02*
X111208450Y-51556698D01*
X111208450Y-51556698D02*
X111245704Y-51631204D01*
X111245704Y-51631204D02*
X111282957Y-51668458D01*
X111282957Y-51668458D02*
X111357464Y-51705711D01*
X111357464Y-51705711D02*
X111506477Y-51705711D01*
X111506477Y-51705711D02*
X111580984Y-51668458D01*
X111580984Y-51668458D02*
X111618237Y-51631204D01*
X111618237Y-51631204D02*
X111655490Y-51556698D01*
X111655490Y-51556698D02*
X111655490Y-50923391D01*
X111990770Y-50997898D02*
X112028023Y-50960644D01*
X112028023Y-50960644D02*
X112102530Y-50923391D01*
X112102530Y-50923391D02*
X112288797Y-50923391D01*
X112288797Y-50923391D02*
X112363303Y-50960644D01*
X112363303Y-50960644D02*
X112400557Y-50997898D01*
X112400557Y-50997898D02*
X112437810Y-51072404D01*
X112437810Y-51072404D02*
X112437810Y-51146911D01*
X112437810Y-51146911D02*
X112400557Y-51258671D01*
X112400557Y-51258671D02*
X111953517Y-51705711D01*
X111953517Y-51705711D02*
X112437810Y-51705711D01*
D12*
X100723419Y-91428723D02*
X99723419Y-91428723D01*
X99723419Y-91428723D02*
X100437704Y-91095390D01*
X100437704Y-91095390D02*
X99723419Y-90762057D01*
X99723419Y-90762057D02*
X100723419Y-90762057D01*
X100723419Y-90285866D02*
X99723419Y-90285866D01*
X99723419Y-90285866D02*
X99723419Y-90047771D01*
X99723419Y-90047771D02*
X99771038Y-89904914D01*
X99771038Y-89904914D02*
X99866276Y-89809676D01*
X99866276Y-89809676D02*
X99961514Y-89762057D01*
X99961514Y-89762057D02*
X100151990Y-89714438D01*
X100151990Y-89714438D02*
X100294847Y-89714438D01*
X100294847Y-89714438D02*
X100485323Y-89762057D01*
X100485323Y-89762057D02*
X100580561Y-89809676D01*
X100580561Y-89809676D02*
X100675800Y-89904914D01*
X100675800Y-89904914D02*
X100723419Y-90047771D01*
X100723419Y-90047771D02*
X100723419Y-90285866D01*
X100723419Y-88762057D02*
X100723419Y-89333485D01*
X100723419Y-89047771D02*
X99723419Y-89047771D01*
X99723419Y-89047771D02*
X99866276Y-89143009D01*
X99866276Y-89143009D02*
X99961514Y-89238247D01*
X99961514Y-89238247D02*
X100009133Y-89333485D01*
X125223580Y-63806247D02*
X125271200Y-63853866D01*
X125271200Y-63853866D02*
X125318819Y-63996723D01*
X125318819Y-63996723D02*
X125318819Y-64091961D01*
X125318819Y-64091961D02*
X125271200Y-64234818D01*
X125271200Y-64234818D02*
X125175961Y-64330056D01*
X125175961Y-64330056D02*
X125080723Y-64377675D01*
X125080723Y-64377675D02*
X124890247Y-64425294D01*
X124890247Y-64425294D02*
X124747390Y-64425294D01*
X124747390Y-64425294D02*
X124556914Y-64377675D01*
X124556914Y-64377675D02*
X124461676Y-64330056D01*
X124461676Y-64330056D02*
X124366438Y-64234818D01*
X124366438Y-64234818D02*
X124318819Y-64091961D01*
X124318819Y-64091961D02*
X124318819Y-63996723D01*
X124318819Y-63996723D02*
X124366438Y-63853866D01*
X124366438Y-63853866D02*
X124414057Y-63806247D01*
X125033104Y-63425294D02*
X125033104Y-62949104D01*
X125318819Y-63520532D02*
X124318819Y-63187199D01*
X124318819Y-63187199D02*
X125318819Y-62853866D01*
X125318819Y-62520532D02*
X124318819Y-62520532D01*
X124318819Y-62520532D02*
X125318819Y-61949104D01*
X125318819Y-61949104D02*
X124318819Y-61949104D01*
X125318819Y-60949104D02*
X125318819Y-61520532D01*
X125318819Y-61234818D02*
X124318819Y-61234818D01*
X124318819Y-61234818D02*
X124461676Y-61330056D01*
X124461676Y-61330056D02*
X124556914Y-61425294D01*
X124556914Y-61425294D02*
X124604533Y-61520532D01*
X103190476Y-82342819D02*
X103761904Y-82342819D01*
X103476190Y-83342819D02*
X103476190Y-82342819D01*
X104095238Y-82819009D02*
X104428571Y-82819009D01*
X104571428Y-83342819D02*
X104095238Y-83342819D01*
X104095238Y-83342819D02*
X104095238Y-82342819D01*
X104095238Y-82342819D02*
X104571428Y-82342819D01*
X105571428Y-83342819D02*
X105238095Y-82866628D01*
X105000000Y-83342819D02*
X105000000Y-82342819D01*
X105000000Y-82342819D02*
X105380952Y-82342819D01*
X105380952Y-82342819D02*
X105476190Y-82390438D01*
X105476190Y-82390438D02*
X105523809Y-82438057D01*
X105523809Y-82438057D02*
X105571428Y-82533295D01*
X105571428Y-82533295D02*
X105571428Y-82676152D01*
X105571428Y-82676152D02*
X105523809Y-82771390D01*
X105523809Y-82771390D02*
X105476190Y-82819009D01*
X105476190Y-82819009D02*
X105380952Y-82866628D01*
X105380952Y-82866628D02*
X105000000Y-82866628D01*
X106000000Y-83342819D02*
X106000000Y-82342819D01*
X106000000Y-82342819D02*
X106333333Y-83057104D01*
X106333333Y-83057104D02*
X106666666Y-82342819D01*
X106666666Y-82342819D02*
X106666666Y-83342819D01*
X117294819Y-83248094D02*
X116294819Y-83248094D01*
X116294819Y-83248094D02*
X117009104Y-82914761D01*
X117009104Y-82914761D02*
X116294819Y-82581428D01*
X116294819Y-82581428D02*
X117294819Y-82581428D01*
X117199580Y-81533809D02*
X117247200Y-81581428D01*
X117247200Y-81581428D02*
X117294819Y-81724285D01*
X117294819Y-81724285D02*
X117294819Y-81819523D01*
X117294819Y-81819523D02*
X117247200Y-81962380D01*
X117247200Y-81962380D02*
X117151961Y-82057618D01*
X117151961Y-82057618D02*
X117056723Y-82105237D01*
X117056723Y-82105237D02*
X116866247Y-82152856D01*
X116866247Y-82152856D02*
X116723390Y-82152856D01*
X116723390Y-82152856D02*
X116532914Y-82105237D01*
X116532914Y-82105237D02*
X116437676Y-82057618D01*
X116437676Y-82057618D02*
X116342438Y-81962380D01*
X116342438Y-81962380D02*
X116294819Y-81819523D01*
X116294819Y-81819523D02*
X116294819Y-81724285D01*
X116294819Y-81724285D02*
X116342438Y-81581428D01*
X116342438Y-81581428D02*
X116390057Y-81533809D01*
X117294819Y-81105237D02*
X116294819Y-81105237D01*
X116294819Y-81105237D02*
X116294819Y-80724285D01*
X116294819Y-80724285D02*
X116342438Y-80629047D01*
X116342438Y-80629047D02*
X116390057Y-80581428D01*
X116390057Y-80581428D02*
X116485295Y-80533809D01*
X116485295Y-80533809D02*
X116628152Y-80533809D01*
X116628152Y-80533809D02*
X116723390Y-80581428D01*
X116723390Y-80581428D02*
X116771009Y-80629047D01*
X116771009Y-80629047D02*
X116818628Y-80724285D01*
X116818628Y-80724285D02*
X116818628Y-81105237D01*
X116390057Y-80152856D02*
X116342438Y-80105237D01*
X116342438Y-80105237D02*
X116294819Y-80009999D01*
X116294819Y-80009999D02*
X116294819Y-79771904D01*
X116294819Y-79771904D02*
X116342438Y-79676666D01*
X116342438Y-79676666D02*
X116390057Y-79629047D01*
X116390057Y-79629047D02*
X116485295Y-79581428D01*
X116485295Y-79581428D02*
X116580533Y-79581428D01*
X116580533Y-79581428D02*
X116723390Y-79629047D01*
X116723390Y-79629047D02*
X117294819Y-80200475D01*
X117294819Y-80200475D02*
X117294819Y-79581428D01*
X116294819Y-78676666D02*
X116294819Y-79152856D01*
X116294819Y-79152856D02*
X116771009Y-79200475D01*
X116771009Y-79200475D02*
X116723390Y-79152856D01*
X116723390Y-79152856D02*
X116675771Y-79057618D01*
X116675771Y-79057618D02*
X116675771Y-78819523D01*
X116675771Y-78819523D02*
X116723390Y-78724285D01*
X116723390Y-78724285D02*
X116771009Y-78676666D01*
X116771009Y-78676666D02*
X116866247Y-78629047D01*
X116866247Y-78629047D02*
X117104342Y-78629047D01*
X117104342Y-78629047D02*
X117199580Y-78676666D01*
X117199580Y-78676666D02*
X117247200Y-78724285D01*
X117247200Y-78724285D02*
X117294819Y-78819523D01*
X117294819Y-78819523D02*
X117294819Y-79057618D01*
X117294819Y-79057618D02*
X117247200Y-79152856D01*
X117247200Y-79152856D02*
X117199580Y-79200475D01*
X116294819Y-77771904D02*
X116294819Y-77962380D01*
X116294819Y-77962380D02*
X116342438Y-78057618D01*
X116342438Y-78057618D02*
X116390057Y-78105237D01*
X116390057Y-78105237D02*
X116532914Y-78200475D01*
X116532914Y-78200475D02*
X116723390Y-78248094D01*
X116723390Y-78248094D02*
X117104342Y-78248094D01*
X117104342Y-78248094D02*
X117199580Y-78200475D01*
X117199580Y-78200475D02*
X117247200Y-78152856D01*
X117247200Y-78152856D02*
X117294819Y-78057618D01*
X117294819Y-78057618D02*
X117294819Y-77867142D01*
X117294819Y-77867142D02*
X117247200Y-77771904D01*
X117247200Y-77771904D02*
X117199580Y-77724285D01*
X117199580Y-77724285D02*
X117104342Y-77676666D01*
X117104342Y-77676666D02*
X116866247Y-77676666D01*
X116866247Y-77676666D02*
X116771009Y-77724285D01*
X116771009Y-77724285D02*
X116723390Y-77771904D01*
X116723390Y-77771904D02*
X116675771Y-77867142D01*
X116675771Y-77867142D02*
X116675771Y-78057618D01*
X116675771Y-78057618D02*
X116723390Y-78152856D01*
X116723390Y-78152856D02*
X116771009Y-78200475D01*
X116771009Y-78200475D02*
X116866247Y-78248094D01*
X117294819Y-76724285D02*
X117294819Y-77295713D01*
X117294819Y-77009999D02*
X116294819Y-77009999D01*
X116294819Y-77009999D02*
X116437676Y-77105237D01*
X116437676Y-77105237D02*
X116532914Y-77200475D01*
X116532914Y-77200475D02*
X116580533Y-77295713D01*
X127678667Y-88367400D02*
X127821524Y-88415019D01*
X127821524Y-88415019D02*
X128059619Y-88415019D01*
X128059619Y-88415019D02*
X128154857Y-88367400D01*
X128154857Y-88367400D02*
X128202476Y-88319780D01*
X128202476Y-88319780D02*
X128250095Y-88224542D01*
X128250095Y-88224542D02*
X128250095Y-88129304D01*
X128250095Y-88129304D02*
X128202476Y-88034066D01*
X128202476Y-88034066D02*
X128154857Y-87986447D01*
X128154857Y-87986447D02*
X128059619Y-87938828D01*
X128059619Y-87938828D02*
X127869143Y-87891209D01*
X127869143Y-87891209D02*
X127773905Y-87843590D01*
X127773905Y-87843590D02*
X127726286Y-87795971D01*
X127726286Y-87795971D02*
X127678667Y-87700733D01*
X127678667Y-87700733D02*
X127678667Y-87605495D01*
X127678667Y-87605495D02*
X127726286Y-87510257D01*
X127726286Y-87510257D02*
X127773905Y-87462638D01*
X127773905Y-87462638D02*
X127869143Y-87415019D01*
X127869143Y-87415019D02*
X128107238Y-87415019D01*
X128107238Y-87415019D02*
X128250095Y-87462638D01*
X128583429Y-87415019D02*
X128821524Y-88415019D01*
X128821524Y-88415019D02*
X129012000Y-87700733D01*
X129012000Y-87700733D02*
X129202476Y-88415019D01*
X129202476Y-88415019D02*
X129440572Y-87415019D01*
X129773905Y-87510257D02*
X129821524Y-87462638D01*
X129821524Y-87462638D02*
X129916762Y-87415019D01*
X129916762Y-87415019D02*
X130154857Y-87415019D01*
X130154857Y-87415019D02*
X130250095Y-87462638D01*
X130250095Y-87462638D02*
X130297714Y-87510257D01*
X130297714Y-87510257D02*
X130345333Y-87605495D01*
X130345333Y-87605495D02*
X130345333Y-87700733D01*
X130345333Y-87700733D02*
X130297714Y-87843590D01*
X130297714Y-87843590D02*
X129726286Y-88415019D01*
X129726286Y-88415019D02*
X130345333Y-88415019D01*
X125223580Y-77547647D02*
X125271200Y-77595266D01*
X125271200Y-77595266D02*
X125318819Y-77738123D01*
X125318819Y-77738123D02*
X125318819Y-77833361D01*
X125318819Y-77833361D02*
X125271200Y-77976218D01*
X125271200Y-77976218D02*
X125175961Y-78071456D01*
X125175961Y-78071456D02*
X125080723Y-78119075D01*
X125080723Y-78119075D02*
X124890247Y-78166694D01*
X124890247Y-78166694D02*
X124747390Y-78166694D01*
X124747390Y-78166694D02*
X124556914Y-78119075D01*
X124556914Y-78119075D02*
X124461676Y-78071456D01*
X124461676Y-78071456D02*
X124366438Y-77976218D01*
X124366438Y-77976218D02*
X124318819Y-77833361D01*
X124318819Y-77833361D02*
X124318819Y-77738123D01*
X124318819Y-77738123D02*
X124366438Y-77595266D01*
X124366438Y-77595266D02*
X124414057Y-77547647D01*
X125033104Y-77166694D02*
X125033104Y-76690504D01*
X125318819Y-77261932D02*
X124318819Y-76928599D01*
X124318819Y-76928599D02*
X125318819Y-76595266D01*
X125318819Y-76261932D02*
X124318819Y-76261932D01*
X124318819Y-76261932D02*
X125318819Y-75690504D01*
X125318819Y-75690504D02*
X124318819Y-75690504D01*
X124414057Y-75261932D02*
X124366438Y-75214313D01*
X124366438Y-75214313D02*
X124318819Y-75119075D01*
X124318819Y-75119075D02*
X124318819Y-74880980D01*
X124318819Y-74880980D02*
X124366438Y-74785742D01*
X124366438Y-74785742D02*
X124414057Y-74738123D01*
X124414057Y-74738123D02*
X124509295Y-74690504D01*
X124509295Y-74690504D02*
X124604533Y-74690504D01*
X124604533Y-74690504D02*
X124747390Y-74738123D01*
X124747390Y-74738123D02*
X125318819Y-75309551D01*
X125318819Y-75309551D02*
X125318819Y-74690504D01*
D14*
X126155000Y-80115000D02*
X126155000Y-83165000D01*
X126155000Y-86215000D02*
X126155000Y-83165000D01*
X129105000Y-79365000D02*
X129105000Y-80115000D01*
X129105000Y-80115000D02*
X126155000Y-80115000D01*
X129105000Y-86215000D02*
X126155000Y-86215000D01*
X129105000Y-86965000D02*
X129105000Y-86215000D01*
X131655000Y-79065000D02*
X130405000Y-79065000D01*
X131655000Y-80315000D02*
X131655000Y-79065000D01*
X130605000Y-79365000D02*
X131355000Y-79365000D01*
X131355000Y-81165000D01*
X130605000Y-81165000D01*
X130605000Y-79365000D01*
X130605000Y-82665000D02*
X131355000Y-82665000D01*
X131355000Y-83665000D01*
X130605000Y-83665000D01*
X130605000Y-82665000D01*
X130605000Y-85165000D02*
X131355000Y-85165000D01*
X131355000Y-86965000D01*
X130605000Y-86965000D01*
X130605000Y-85165000D01*
X125395000Y-79355000D02*
X131365000Y-79355000D01*
X131365000Y-86975000D01*
X125395000Y-86975000D01*
X125395000Y-79355000D01*
X93236600Y-64131000D02*
X93236600Y-65381000D01*
X93236600Y-65381000D02*
X94486600Y-65381000D01*
X95786600Y-52481000D02*
X95786600Y-53231000D01*
X95786600Y-53231000D02*
X98736600Y-53231000D01*
X95786600Y-64331000D02*
X98736600Y-64331000D01*
X95786600Y-65081000D02*
X95786600Y-64331000D01*
X98736600Y-53231000D02*
X98736600Y-58781000D01*
X98736600Y-64331000D02*
X98736600Y-58781000D01*
X93526600Y-52471000D02*
X99496600Y-52471000D01*
X99496600Y-65091000D01*
X93526600Y-65091000D01*
X93526600Y-52471000D01*
X93536600Y-52481000D02*
X94286600Y-52481000D01*
X94286600Y-54281000D01*
X93536600Y-54281000D01*
X93536600Y-52481000D01*
X93536600Y-55781000D02*
X94286600Y-55781000D01*
X94286600Y-61781000D01*
X93536600Y-61781000D01*
X93536600Y-55781000D01*
X93536600Y-63281000D02*
X94286600Y-63281000D01*
X94286600Y-65081000D01*
X93536600Y-65081000D01*
X93536600Y-63281000D01*
X115084800Y-92227000D02*
X115834800Y-92227000D01*
X115834800Y-89277000D02*
X118884800Y-89277000D01*
X115834800Y-92227000D02*
X115834800Y-89277000D01*
X121734800Y-94777000D02*
X122984800Y-94777000D01*
X121934800Y-89277000D02*
X118884800Y-89277000D01*
X121934800Y-92227000D02*
X121934800Y-89277000D01*
X122684800Y-92227000D02*
X121934800Y-92227000D01*
X122984800Y-94777000D02*
X122984800Y-93527000D01*
X115084800Y-93727000D02*
X116884800Y-93727000D01*
X116884800Y-94477000D01*
X115084800Y-94477000D01*
X115084800Y-93727000D01*
X118384800Y-93727000D02*
X119384800Y-93727000D01*
X119384800Y-94477000D01*
X118384800Y-94477000D01*
X118384800Y-93727000D01*
X120884800Y-93727000D02*
X122684800Y-93727000D01*
X122684800Y-94477000D01*
X120884800Y-94477000D01*
X120884800Y-93727000D01*
X115074800Y-88517000D02*
X122694800Y-88517000D01*
X122694800Y-94487000D01*
X115074800Y-94487000D01*
X115074800Y-88517000D01*
X101370600Y-92198800D02*
X102120600Y-92198800D01*
X102120600Y-89248800D02*
X107670600Y-89248800D01*
X102120600Y-92198800D02*
X102120600Y-89248800D01*
X113020600Y-94748800D02*
X114270600Y-94748800D01*
X113220600Y-89248800D02*
X107670600Y-89248800D01*
X113220600Y-92198800D02*
X113220600Y-89248800D01*
X113970600Y-92198800D02*
X113220600Y-92198800D01*
X114270600Y-94748800D02*
X114270600Y-93498800D01*
X101370600Y-93698800D02*
X103170600Y-93698800D01*
X103170600Y-94448800D01*
X101370600Y-94448800D01*
X101370600Y-93698800D01*
X104670600Y-93698800D02*
X110670600Y-93698800D01*
X110670600Y-94448800D01*
X104670600Y-94448800D01*
X104670600Y-93698800D01*
X112170600Y-93698800D02*
X113970600Y-93698800D01*
X113970600Y-94448800D01*
X112170600Y-94448800D01*
X112170600Y-93698800D01*
X101360600Y-88488800D02*
X113980600Y-88488800D01*
X113980600Y-94458800D01*
X101360600Y-94458800D01*
X101360600Y-88488800D01*
X109474000Y-75843000D02*
X109474000Y-76613000D01*
X109474000Y-83923000D02*
X109474000Y-83153000D01*
X108104000Y-76613000D02*
X110844000Y-76613000D01*
X110844000Y-83153000D01*
X108104000Y-83153000D01*
X108104000Y-76613000D01*
X93236600Y-77934000D02*
X93236600Y-79184000D01*
X93236600Y-79184000D02*
X94486600Y-79184000D01*
X95786600Y-66284000D02*
X95786600Y-67034000D01*
X95786600Y-67034000D02*
X98736600Y-67034000D01*
X95786600Y-78134000D02*
X98736600Y-78134000D01*
X95786600Y-78884000D02*
X95786600Y-78134000D01*
X98736600Y-67034000D02*
X98736600Y-72584000D01*
X98736600Y-78134000D02*
X98736600Y-72584000D01*
X93526600Y-66274000D02*
X99496600Y-66274000D01*
X99496600Y-78894000D01*
X93526600Y-78894000D01*
X93526600Y-66274000D01*
X93536600Y-66284000D02*
X94286600Y-66284000D01*
X94286600Y-68084000D01*
X93536600Y-68084000D01*
X93536600Y-66284000D01*
X93536600Y-69584000D02*
X94286600Y-69584000D01*
X94286600Y-75584000D01*
X93536600Y-75584000D01*
X93536600Y-69584000D01*
X93536600Y-77084000D02*
X94286600Y-77084000D01*
X94286600Y-78884000D01*
X93536600Y-78884000D01*
X93536600Y-77084000D01*
D15*
X103840000Y-71156000D02*
X103840000Y-54011000D01*
X105745000Y-73061000D02*
X119715000Y-73061000D01*
D16*
X108235000Y-52106000D02*
X108238728Y-51095728D01*
X108738728Y-50596000D02*
X116734000Y-50596000D01*
X117234000Y-51096000D02*
X117234000Y-52106000D01*
D15*
X119715000Y-52106000D02*
X105745000Y-52106000D01*
X121620000Y-71156000D02*
X121620000Y-54011000D01*
X103840000Y-54007000D02*
G75*
G02*
X105745000Y-52102000I1905001J-1D01*
G01*
X105745000Y-73061000D02*
G75*
G02*
X103840000Y-71156000I0J1905000D01*
G01*
D16*
X108238728Y-51095728D02*
G75*
G02*
X108738728Y-50595998I500022J-292D01*
G01*
X116734000Y-50596000D02*
G75*
G02*
X117234000Y-51096000I0J-500000D01*
G01*
D15*
X119715000Y-52106000D02*
G75*
G02*
X121620000Y-54011000I0J-1905000D01*
G01*
X121620000Y-71156000D02*
G75*
G02*
X119715000Y-73061000I-1905000J0D01*
G01*
D17*
X103882000Y-52522000D02*
G75*
G02*
X103378000Y-52522000I-252000J0D01*
G01*
X103378000Y-52522000D02*
G75*
G02*
X103882000Y-52522000I252000J0D01*
G01*
X105099000Y-53245000D02*
G75*
G02*
X104595000Y-53245000I-252000J0D01*
G01*
X104595000Y-53245000D02*
G75*
G02*
X105099000Y-53245000I252000J0D01*
G01*
D14*
X93200600Y-91904000D02*
X93200600Y-93154000D01*
X93200600Y-93154000D02*
X94450600Y-93154000D01*
X95750600Y-80254000D02*
X95750600Y-81004000D01*
X95750600Y-81004000D02*
X98700600Y-81004000D01*
X95750600Y-92104000D02*
X98700600Y-92104000D01*
X95750600Y-92854000D02*
X95750600Y-92104000D01*
X98700600Y-81004000D02*
X98700600Y-86554000D01*
X98700600Y-92104000D02*
X98700600Y-86554000D01*
X93490600Y-80244000D02*
X99460600Y-80244000D01*
X99460600Y-92864000D01*
X93490600Y-92864000D01*
X93490600Y-80244000D01*
X93500600Y-80254000D02*
X94250600Y-80254000D01*
X94250600Y-82054000D01*
X93500600Y-82054000D01*
X93500600Y-80254000D01*
X93500600Y-83554000D02*
X94250600Y-83554000D01*
X94250600Y-89554000D01*
X93500600Y-89554000D01*
X93500600Y-83554000D01*
X93500600Y-91054000D02*
X94250600Y-91054000D01*
X94250600Y-92854000D01*
X93500600Y-92854000D01*
X93500600Y-91054000D01*
X126155000Y-53267200D02*
X126155000Y-58817200D01*
X126155000Y-64367200D02*
X126155000Y-58817200D01*
X129105000Y-52517200D02*
X129105000Y-53267200D01*
X129105000Y-53267200D02*
X126155000Y-53267200D01*
X129105000Y-64367200D02*
X126155000Y-64367200D01*
X129105000Y-65117200D02*
X129105000Y-64367200D01*
X131655000Y-52217200D02*
X130405000Y-52217200D01*
X131655000Y-53467200D02*
X131655000Y-52217200D01*
X130605000Y-52517200D02*
X131355000Y-52517200D01*
X131355000Y-54317200D01*
X130605000Y-54317200D01*
X130605000Y-52517200D01*
X130605000Y-55817200D02*
X131355000Y-55817200D01*
X131355000Y-61817200D01*
X130605000Y-61817200D01*
X130605000Y-55817200D01*
X130605000Y-63317200D02*
X131355000Y-63317200D01*
X131355000Y-65117200D01*
X130605000Y-65117200D01*
X130605000Y-63317200D01*
X125395000Y-52507200D02*
X131365000Y-52507200D01*
X131365000Y-65127200D01*
X125395000Y-65127200D01*
X125395000Y-52507200D01*
X103620000Y-79238000D02*
X103620000Y-76588000D01*
X106380000Y-76588000D02*
X103620000Y-76588000D01*
X106380000Y-79238000D02*
X103620000Y-79238000D01*
X106380000Y-79238000D02*
X106380000Y-76588000D01*
X106380000Y-80508000D02*
X106380000Y-81888000D01*
X106380000Y-81888000D02*
X105000000Y-81888000D01*
X114190000Y-74870000D02*
X114190000Y-85150000D01*
X114190000Y-85150000D02*
X119490000Y-85150000D01*
X115840000Y-74870000D02*
X114190000Y-74870000D01*
X119490000Y-74870000D02*
X117840000Y-74870000D01*
X119490000Y-85150000D02*
X119490000Y-74870000D01*
X117840000Y-74870000D02*
G75*
G02*
X115840000Y-74870000I-1000000J0D01*
G01*
X123708000Y-92224200D02*
X124458000Y-92224200D01*
X124458000Y-89274200D02*
X127508000Y-89274200D01*
X124458000Y-92224200D02*
X124458000Y-89274200D01*
X130358000Y-94774200D02*
X131608000Y-94774200D01*
X130558000Y-89274200D02*
X127508000Y-89274200D01*
X130558000Y-92224200D02*
X130558000Y-89274200D01*
X131308000Y-92224200D02*
X130558000Y-92224200D01*
X131608000Y-94774200D02*
X131608000Y-93524200D01*
X123708000Y-93724200D02*
X125508000Y-93724200D01*
X125508000Y-94474200D01*
X123708000Y-94474200D01*
X123708000Y-93724200D01*
X127008000Y-93724200D02*
X128008000Y-93724200D01*
X128008000Y-94474200D01*
X127008000Y-94474200D01*
X127008000Y-93724200D01*
X129508000Y-93724200D02*
X131308000Y-93724200D01*
X131308000Y-94474200D01*
X129508000Y-94474200D01*
X129508000Y-93724200D01*
X123698000Y-88514200D02*
X131318000Y-88514200D01*
X131318000Y-94484200D01*
X123698000Y-94484200D01*
X123698000Y-88514200D01*
X126155000Y-66703800D02*
X126155000Y-72253800D01*
X126155000Y-77803800D02*
X126155000Y-72253800D01*
X129105000Y-65953800D02*
X129105000Y-66703800D01*
X129105000Y-66703800D02*
X126155000Y-66703800D01*
X129105000Y-77803800D02*
X126155000Y-77803800D01*
X129105000Y-78553800D02*
X129105000Y-77803800D01*
X131655000Y-65653800D02*
X130405000Y-65653800D01*
X131655000Y-66903800D02*
X131655000Y-65653800D01*
X130605000Y-65953800D02*
X131355000Y-65953800D01*
X131355000Y-67753800D01*
X130605000Y-67753800D01*
X130605000Y-65953800D01*
X130605000Y-69253800D02*
X131355000Y-69253800D01*
X131355000Y-75253800D01*
X130605000Y-75253800D01*
X130605000Y-69253800D01*
X130605000Y-76753800D02*
X131355000Y-76753800D01*
X131355000Y-78553800D01*
X130605000Y-78553800D01*
X130605000Y-76753800D01*
X125395000Y-65943800D02*
X131365000Y-65943800D01*
X131365000Y-78563800D01*
X125395000Y-78563800D01*
X125395000Y-65943800D01*
M02*
