G04 #@! TF.GenerationSoftware,KiCad,Pcbnew,10.0.6*
G04 #@! TF.CreationDate,2026-09-08T22:17:36+09:00*
G04 #@! TF.ProjectId,XIAO-ESP32-S3-MES,5849414f-2d45-4535-9033-322d53332d4d,rev?*
G04 #@! TF.SameCoordinates,Original*
G04 #@! TF.FileFunction,Legend,Bot*
G04 #@! TF.FilePolarity,Positive*
%FSLAX46Y46*%
G04 Gerber Fmt 4.6, Leading zero omitted, Abs format (unit mm)*
G04 Created by KiCad (PCBNEW 10.0.6) date 2026-09-08 22:17:36*
%MOMM*%
%LPD*%
G01*
G04 APERTURE LIST*
%ADD10C,0.200000*%
%ADD11C,0.150000*%
G04 APERTURE END LIST*
D10*
G36*
X115432767Y-83009107D02*
G01*
X115499938Y-83034296D01*
X115520089Y-83051927D01*
X115547331Y-83103006D01*
X115547331Y-83150890D01*
X115515378Y-83218789D01*
X115486899Y-83250827D01*
X115412356Y-83297416D01*
X115242289Y-83361191D01*
X115028282Y-83387942D01*
X114861893Y-83367143D01*
X114794722Y-83341954D01*
X114774572Y-83324323D01*
X114747331Y-83273245D01*
X114747331Y-83225360D01*
X114779282Y-83157462D01*
X114807758Y-83125426D01*
X114882305Y-83078834D01*
X115052370Y-83015059D01*
X115266377Y-82988308D01*
X115432767Y-83009107D01*
G37*
G36*
X116681084Y-80734223D02*
G01*
X116649131Y-80802122D01*
X116620654Y-80834158D01*
X116556314Y-80874371D01*
X116459794Y-80886436D01*
X116404666Y-80865763D01*
X116384516Y-80848132D01*
X116357275Y-80797054D01*
X116357275Y-80529379D01*
X116681084Y-80488903D01*
X116681084Y-80734223D01*
G37*
G36*
X118652655Y-80437678D02*
G01*
X118719826Y-80462867D01*
X118739977Y-80480498D01*
X118767219Y-80531577D01*
X118767219Y-80579461D01*
X118735266Y-80647360D01*
X118706787Y-80679398D01*
X118632244Y-80725987D01*
X118462177Y-80789762D01*
X118248170Y-80816513D01*
X118081781Y-80795714D01*
X118014610Y-80770525D01*
X117994460Y-80752894D01*
X117967219Y-80701816D01*
X117967219Y-80653931D01*
X117999170Y-80586033D01*
X118027646Y-80553997D01*
X118102193Y-80507405D01*
X118272258Y-80443630D01*
X118486265Y-80416879D01*
X118652655Y-80437678D01*
G37*
G36*
X117071619Y-76762720D02*
G01*
X117130033Y-76813831D01*
X117157275Y-76864910D01*
X117157275Y-77008032D01*
X117125322Y-77075931D01*
X117056123Y-77153780D01*
X116899853Y-77212381D01*
X116590607Y-77251036D01*
X116442929Y-77232577D01*
X116384516Y-77181465D01*
X116357275Y-77130387D01*
X116357275Y-76987264D01*
X116389227Y-76919364D01*
X116458425Y-76841516D01*
X116614693Y-76782916D01*
X116923940Y-76744260D01*
X117071619Y-76762720D01*
G37*
G36*
X116871560Y-76133596D02*
G01*
X116575499Y-76071917D01*
X116871560Y-75936223D01*
X116871560Y-76133596D01*
G37*
G36*
X115071140Y-75781842D02*
G01*
X115039187Y-75849741D01*
X115010710Y-75881777D01*
X114946370Y-75921990D01*
X114849850Y-75934055D01*
X114794722Y-75913382D01*
X114774572Y-75895751D01*
X114747331Y-75844673D01*
X114747331Y-75576998D01*
X115071140Y-75536522D01*
X115071140Y-75781842D01*
G37*
G36*
X115071140Y-74781842D02*
G01*
X115039187Y-74849741D01*
X115010710Y-74881777D01*
X114946370Y-74921990D01*
X114849850Y-74934055D01*
X114794722Y-74913382D01*
X114774572Y-74895751D01*
X114747331Y-74844673D01*
X114747331Y-74576998D01*
X115071140Y-74536522D01*
X115071140Y-74781842D01*
G37*
G36*
X119078330Y-86269339D02*
G01*
X114436220Y-86269339D01*
X114436220Y-84822054D01*
X114547331Y-84822054D01*
X114547331Y-85488721D01*
X114549252Y-85508230D01*
X114551432Y-85513493D01*
X114552074Y-85519154D01*
X114558839Y-85531374D01*
X114564184Y-85544278D01*
X114568211Y-85548305D01*
X114570971Y-85553290D01*
X114581898Y-85561992D01*
X114591774Y-85571868D01*
X114597036Y-85574047D01*
X114601493Y-85577597D01*
X114614916Y-85581454D01*
X114627822Y-85586800D01*
X114633520Y-85586800D01*
X114638994Y-85588373D01*
X114652870Y-85586800D01*
X114666840Y-85586800D01*
X114672103Y-85584619D01*
X114677764Y-85583978D01*
X114695763Y-85576210D01*
X114939831Y-85441101D01*
X116157275Y-85441101D01*
X116157275Y-86060149D01*
X116159196Y-86079658D01*
X116174128Y-86115706D01*
X116201718Y-86143296D01*
X116237766Y-86158228D01*
X116276784Y-86158228D01*
X116312832Y-86143296D01*
X116327986Y-86130860D01*
X116563814Y-85895030D01*
X116597611Y-85958398D01*
X116605699Y-85970528D01*
X116606578Y-85972304D01*
X116607634Y-85973429D01*
X116608487Y-85974708D01*
X116610011Y-85975961D01*
X116619995Y-85986596D01*
X116667614Y-86028263D01*
X116679270Y-86036597D01*
X116680761Y-86037990D01*
X116682224Y-86038709D01*
X116683561Y-86039665D01*
X116685505Y-86040322D01*
X116698353Y-86046639D01*
X116793591Y-86082353D01*
X116812532Y-86087404D01*
X116817101Y-86087248D01*
X116821510Y-86088461D01*
X116841107Y-86087948D01*
X117079202Y-86058186D01*
X117098322Y-86053860D01*
X117100155Y-86052817D01*
X117102236Y-86052469D01*
X117119797Y-86043758D01*
X117215036Y-85984235D01*
X117220269Y-85980200D01*
X117222380Y-85979177D01*
X117226321Y-85975534D01*
X117230561Y-85972266D01*
X117231919Y-85970360D01*
X117236777Y-85965872D01*
X117284396Y-85912300D01*
X117288343Y-85906868D01*
X117290093Y-85905277D01*
X117292810Y-85900723D01*
X117295922Y-85896442D01*
X117296695Y-85894211D01*
X117300138Y-85888443D01*
X117347757Y-85787253D01*
X117354326Y-85768782D01*
X117354438Y-85766391D01*
X117355354Y-85764182D01*
X117357275Y-85744673D01*
X117357275Y-85458958D01*
X117355354Y-85439449D01*
X117353473Y-85434908D01*
X117352996Y-85430017D01*
X117345510Y-85411899D01*
X117297891Y-85322614D01*
X117289798Y-85310478D01*
X117288923Y-85308708D01*
X117287870Y-85307586D01*
X117287015Y-85306304D01*
X117285487Y-85305047D01*
X117275506Y-85294415D01*
X117227886Y-85252748D01*
X117211939Y-85241347D01*
X117174977Y-85228847D01*
X117136045Y-85231443D01*
X117101070Y-85248739D01*
X117075377Y-85278103D01*
X117062877Y-85315065D01*
X117065473Y-85353997D01*
X117082769Y-85388972D01*
X117096186Y-85403264D01*
X117130033Y-85432880D01*
X117157275Y-85483957D01*
X117157275Y-85722318D01*
X117125322Y-85790217D01*
X117096843Y-85822255D01*
X117032506Y-85862466D01*
X116840745Y-85886436D01*
X116785618Y-85865763D01*
X116765468Y-85848132D01*
X116738227Y-85797054D01*
X116738227Y-85679197D01*
X116736306Y-85659688D01*
X116721374Y-85623640D01*
X116693784Y-85596050D01*
X116657736Y-85581118D01*
X116618718Y-85581118D01*
X116593227Y-85591676D01*
X116582669Y-85596050D01*
X116567516Y-85608487D01*
X116357275Y-85818727D01*
X116357275Y-85441101D01*
X116355354Y-85421592D01*
X116340422Y-85385544D01*
X116312832Y-85357954D01*
X116276784Y-85343022D01*
X116237766Y-85343022D01*
X116201718Y-85357954D01*
X116174128Y-85385544D01*
X116159196Y-85421592D01*
X116157275Y-85441101D01*
X114939831Y-85441101D01*
X115695762Y-85022640D01*
X115711900Y-85011510D01*
X115736206Y-84980988D01*
X115746982Y-84943487D01*
X115742588Y-84904717D01*
X115723691Y-84870581D01*
X115693168Y-84846274D01*
X115655668Y-84835498D01*
X115616898Y-84839893D01*
X115598899Y-84847661D01*
X114747331Y-85319064D01*
X114747331Y-84822054D01*
X114745410Y-84802545D01*
X114730478Y-84766497D01*
X114702888Y-84738907D01*
X114673699Y-84726816D01*
X116157275Y-84726816D01*
X116157275Y-84964911D01*
X116158380Y-84976134D01*
X116158231Y-84978706D01*
X116158911Y-84981527D01*
X116159196Y-84984420D01*
X116160182Y-84986801D01*
X116162825Y-84997763D01*
X116210444Y-85134668D01*
X116218668Y-85152463D01*
X116244613Y-85181605D01*
X116279736Y-85198600D01*
X116318689Y-85200860D01*
X116355541Y-85188042D01*
X116384683Y-85162096D01*
X116401678Y-85126974D01*
X116403938Y-85088021D01*
X116399344Y-85068964D01*
X116357275Y-84948015D01*
X116357275Y-84749169D01*
X116389226Y-84681271D01*
X116417702Y-84649235D01*
X116482044Y-84609021D01*
X116530946Y-84602908D01*
X116586073Y-84623581D01*
X116606222Y-84641212D01*
X116639616Y-84703825D01*
X116684256Y-84876803D01*
X116685239Y-84879491D01*
X116685363Y-84880757D01*
X116688323Y-84887923D01*
X116690991Y-84895214D01*
X116691756Y-84896230D01*
X116692849Y-84898875D01*
X116740468Y-84988160D01*
X116748556Y-85000290D01*
X116749435Y-85002066D01*
X116750491Y-85003191D01*
X116751344Y-85004470D01*
X116752868Y-85005723D01*
X116762852Y-85016358D01*
X116810471Y-85058025D01*
X116822127Y-85066359D01*
X116823618Y-85067752D01*
X116825081Y-85068471D01*
X116826418Y-85069427D01*
X116828362Y-85070084D01*
X116841210Y-85076401D01*
X116936448Y-85112115D01*
X116955389Y-85117166D01*
X116959958Y-85117010D01*
X116964367Y-85118223D01*
X116983964Y-85117710D01*
X117079202Y-85105805D01*
X117098322Y-85101479D01*
X117100155Y-85100436D01*
X117102236Y-85100088D01*
X117119797Y-85091377D01*
X117215036Y-85031854D01*
X117220269Y-85027819D01*
X117222380Y-85026796D01*
X117226321Y-85023153D01*
X117230561Y-85019885D01*
X117231919Y-85017979D01*
X117236777Y-85013491D01*
X117284396Y-84959919D01*
X117288343Y-84954487D01*
X117290093Y-84952896D01*
X117292810Y-84948342D01*
X117295922Y-84944061D01*
X117296695Y-84941830D01*
X117300138Y-84936062D01*
X117347757Y-84834872D01*
X117354326Y-84816401D01*
X117354438Y-84814010D01*
X117355354Y-84811801D01*
X117357275Y-84792292D01*
X117357275Y-84554196D01*
X117356169Y-84542972D01*
X117356319Y-84540401D01*
X117355638Y-84537579D01*
X117355354Y-84534687D01*
X117354367Y-84532305D01*
X117351725Y-84521344D01*
X117304106Y-84384440D01*
X117295882Y-84366645D01*
X117269936Y-84337503D01*
X117234814Y-84320508D01*
X117195861Y-84318248D01*
X117159009Y-84331066D01*
X117129867Y-84357012D01*
X117112872Y-84392134D01*
X117110612Y-84431087D01*
X117115206Y-84450144D01*
X117157275Y-84571091D01*
X117157275Y-84769937D01*
X117125322Y-84837836D01*
X117096843Y-84869874D01*
X117032506Y-84910085D01*
X116983602Y-84916198D01*
X116928475Y-84895525D01*
X116908325Y-84877894D01*
X116874932Y-84815282D01*
X116830293Y-84642304D01*
X116829309Y-84639615D01*
X116829186Y-84638351D01*
X116826224Y-84631183D01*
X116823558Y-84623894D01*
X116822793Y-84622878D01*
X116821701Y-84620234D01*
X116774081Y-84530947D01*
X116765989Y-84518812D01*
X116765114Y-84517041D01*
X116764061Y-84515919D01*
X116763206Y-84514637D01*
X116761677Y-84513379D01*
X116751697Y-84502749D01*
X116704078Y-84461082D01*
X116692421Y-84452747D01*
X116690931Y-84451355D01*
X116689467Y-84450635D01*
X116688131Y-84449680D01*
X116686186Y-84449022D01*
X116673339Y-84442706D01*
X116578101Y-84406992D01*
X116559160Y-84401941D01*
X116554590Y-84402096D01*
X116550182Y-84400884D01*
X116530585Y-84401397D01*
X116435347Y-84413302D01*
X116416227Y-84417628D01*
X116414391Y-84418671D01*
X116412312Y-84419020D01*
X116394751Y-84427730D01*
X116299513Y-84487254D01*
X116294278Y-84491289D01*
X116292169Y-84492312D01*
X116288231Y-84495951D01*
X116283987Y-84499223D01*
X116282626Y-84501130D01*
X116277772Y-84505617D01*
X116230153Y-84559188D01*
X116226204Y-84564620D01*
X116224457Y-84566211D01*
X116221741Y-84570762D01*
X116218628Y-84575046D01*
X116217854Y-84577276D01*
X116214412Y-84583045D01*
X116166793Y-84684237D01*
X116160224Y-84702707D01*
X116160111Y-84705097D01*
X116159196Y-84707307D01*
X116157275Y-84726816D01*
X114673699Y-84726816D01*
X114666840Y-84723975D01*
X114627822Y-84723975D01*
X114591774Y-84738907D01*
X114564184Y-84766497D01*
X114549252Y-84802545D01*
X114547331Y-84822054D01*
X114436220Y-84822054D01*
X114436220Y-84060149D01*
X114547331Y-84060149D01*
X114547331Y-84298245D01*
X114549252Y-84317754D01*
X114551132Y-84322294D01*
X114551610Y-84327186D01*
X114559096Y-84345304D01*
X114606715Y-84434589D01*
X114614803Y-84446719D01*
X114615682Y-84448495D01*
X114616738Y-84449620D01*
X114617591Y-84450899D01*
X114619115Y-84452152D01*
X114629099Y-84462787D01*
X114676718Y-84504454D01*
X114688374Y-84512788D01*
X114689865Y-84514181D01*
X114691328Y-84514900D01*
X114692665Y-84515856D01*
X114694609Y-84516513D01*
X114707457Y-84522830D01*
X114802695Y-84558544D01*
X114821636Y-84563595D01*
X114826204Y-84563439D01*
X114830613Y-84564652D01*
X114850210Y-84564139D01*
X114945448Y-84552235D01*
X114953595Y-84550391D01*
X114956176Y-84550296D01*
X114960309Y-84548872D01*
X114964568Y-84547909D01*
X114966810Y-84546633D01*
X114974711Y-84543913D01*
X115117568Y-84478436D01*
X115134503Y-84468561D01*
X115135254Y-84467751D01*
X115136246Y-84467271D01*
X115150643Y-84453966D01*
X115547331Y-84007692D01*
X115547331Y-84363721D01*
X115549252Y-84383230D01*
X115564184Y-84419278D01*
X115591774Y-84446868D01*
X115627822Y-84461800D01*
X115666840Y-84461800D01*
X115702888Y-84446868D01*
X115730478Y-84419278D01*
X115745410Y-84383230D01*
X115747331Y-84363721D01*
X115747331Y-83744673D01*
X115745410Y-83725164D01*
X115744269Y-83722411D01*
X115744095Y-83719438D01*
X115736840Y-83704476D01*
X115730478Y-83689116D01*
X115728371Y-83687009D01*
X115727072Y-83684329D01*
X115714642Y-83673280D01*
X115702888Y-83661526D01*
X115700136Y-83660386D01*
X115697910Y-83658407D01*
X115682202Y-83652957D01*
X115666840Y-83646594D01*
X115663860Y-83646594D01*
X115661047Y-83645618D01*
X115644453Y-83646594D01*
X115627822Y-83646594D01*
X115625069Y-83647734D01*
X115622096Y-83647909D01*
X115607134Y-83655163D01*
X115591774Y-83661526D01*
X115589667Y-83663632D01*
X115586987Y-83664932D01*
X115572590Y-83678237D01*
X115015126Y-84305382D01*
X114905371Y-84355687D01*
X114849850Y-84362627D01*
X114794722Y-84341954D01*
X114774572Y-84324323D01*
X114747331Y-84273245D01*
X114747331Y-84082503D01*
X114779283Y-84014604D01*
X114817310Y-83971824D01*
X114828835Y-83955967D01*
X114841624Y-83919104D01*
X114839333Y-83880153D01*
X114822311Y-83845044D01*
X114793148Y-83819122D01*
X114756286Y-83806333D01*
X114717335Y-83808624D01*
X114682225Y-83825646D01*
X114667828Y-83838951D01*
X114620209Y-83892522D01*
X114616260Y-83897954D01*
X114614513Y-83899545D01*
X114611797Y-83904096D01*
X114608684Y-83908380D01*
X114607910Y-83910610D01*
X114604468Y-83916379D01*
X114556849Y-84017569D01*
X114550280Y-84036039D01*
X114550167Y-84038430D01*
X114549252Y-84040640D01*
X114547331Y-84060149D01*
X114436220Y-84060149D01*
X114436220Y-83203007D01*
X114547331Y-83203007D01*
X114547331Y-83298245D01*
X114549252Y-83317754D01*
X114551132Y-83322294D01*
X114551610Y-83327186D01*
X114559096Y-83345304D01*
X114606715Y-83434589D01*
X114614803Y-83446719D01*
X114615682Y-83448495D01*
X114616738Y-83449620D01*
X114617591Y-83450899D01*
X114619115Y-83452152D01*
X114629099Y-83462787D01*
X114676718Y-83504454D01*
X114688374Y-83512788D01*
X114689865Y-83514181D01*
X114691328Y-83514900D01*
X114692665Y-83515856D01*
X114694609Y-83516513D01*
X114707457Y-83522830D01*
X114802695Y-83558544D01*
X114805249Y-83559225D01*
X114806283Y-83559813D01*
X114814007Y-83561560D01*
X114821636Y-83563595D01*
X114822820Y-83563554D01*
X114825403Y-83564139D01*
X115015879Y-83587949D01*
X115019576Y-83588045D01*
X115021090Y-83588462D01*
X115028283Y-83588273D01*
X115035476Y-83588462D01*
X115036989Y-83588045D01*
X115040687Y-83587949D01*
X115278782Y-83558187D01*
X115281364Y-83557602D01*
X115282549Y-83557643D01*
X115290180Y-83555608D01*
X115297902Y-83553861D01*
X115298934Y-83553273D01*
X115301491Y-83552592D01*
X115491967Y-83481163D01*
X115492175Y-83481060D01*
X115492292Y-83481041D01*
X115500882Y-83476779D01*
X115509559Y-83472514D01*
X115509646Y-83472432D01*
X115509853Y-83472330D01*
X115605092Y-83412807D01*
X115610325Y-83408772D01*
X115612436Y-83407749D01*
X115616377Y-83404106D01*
X115620617Y-83400838D01*
X115621975Y-83398932D01*
X115626833Y-83394444D01*
X115674452Y-83340872D01*
X115678399Y-83335440D01*
X115680149Y-83333849D01*
X115682866Y-83329295D01*
X115685978Y-83325014D01*
X115686751Y-83322783D01*
X115690194Y-83317015D01*
X115713033Y-83268482D01*
X116776322Y-83268482D01*
X116776322Y-84030387D01*
X116778243Y-84049896D01*
X116793175Y-84085944D01*
X116820765Y-84113534D01*
X116856813Y-84128466D01*
X116895831Y-84128466D01*
X116931879Y-84113534D01*
X116959469Y-84085944D01*
X116974401Y-84049896D01*
X116976322Y-84030387D01*
X116976322Y-83268482D01*
X116974401Y-83248973D01*
X116959469Y-83212925D01*
X116931879Y-83185335D01*
X116895831Y-83170403D01*
X116856813Y-83170403D01*
X116820765Y-83185335D01*
X116793175Y-83212925D01*
X116778243Y-83248973D01*
X116776322Y-83268482D01*
X115713033Y-83268482D01*
X115737813Y-83215825D01*
X115744382Y-83197354D01*
X115744494Y-83194963D01*
X115745410Y-83192754D01*
X115747331Y-83173245D01*
X115747331Y-83078007D01*
X115745410Y-83058498D01*
X115743529Y-83053957D01*
X115743052Y-83049066D01*
X115735567Y-83030949D01*
X115687947Y-82941662D01*
X115679852Y-82929521D01*
X115678979Y-82927756D01*
X115677929Y-82926637D01*
X115677072Y-82925352D01*
X115675539Y-82924092D01*
X115665562Y-82913463D01*
X115617942Y-82871796D01*
X115606288Y-82863464D01*
X115604796Y-82862070D01*
X115603329Y-82861348D01*
X115601995Y-82860395D01*
X115600053Y-82859738D01*
X115587204Y-82853421D01*
X115491966Y-82817707D01*
X115489409Y-82817025D01*
X115488377Y-82816438D01*
X115480659Y-82814691D01*
X115473025Y-82812656D01*
X115471839Y-82812696D01*
X115469257Y-82812112D01*
X115278782Y-82788302D01*
X115275084Y-82788205D01*
X115273571Y-82787789D01*
X115266378Y-82787977D01*
X115259185Y-82787789D01*
X115257671Y-82788205D01*
X115253975Y-82788302D01*
X115015879Y-82818064D01*
X115013296Y-82818648D01*
X115012112Y-82818608D01*
X115004483Y-82820642D01*
X114996759Y-82822390D01*
X114995725Y-82822977D01*
X114993171Y-82823659D01*
X114802694Y-82895088D01*
X114802482Y-82895191D01*
X114802368Y-82895211D01*
X114793782Y-82899469D01*
X114785102Y-82903737D01*
X114785016Y-82903817D01*
X114784807Y-82903921D01*
X114689569Y-82963445D01*
X114684334Y-82967480D01*
X114682225Y-82968503D01*
X114678287Y-82972142D01*
X114674043Y-82975414D01*
X114672682Y-82977321D01*
X114667828Y-82981808D01*
X114620209Y-83035379D01*
X114616260Y-83040811D01*
X114614513Y-83042402D01*
X114611797Y-83046953D01*
X114608684Y-83051237D01*
X114607910Y-83053467D01*
X114604468Y-83059236D01*
X114556849Y-83160428D01*
X114550280Y-83178898D01*
X114550167Y-83181288D01*
X114549252Y-83183498D01*
X114547331Y-83203007D01*
X114436220Y-83203007D01*
X114436220Y-82155387D01*
X114547331Y-82155387D01*
X114547331Y-82393483D01*
X114549252Y-82412992D01*
X114551132Y-82417532D01*
X114551610Y-82422424D01*
X114559096Y-82440542D01*
X114606715Y-82529827D01*
X114614803Y-82541957D01*
X114615682Y-82543733D01*
X114616738Y-82544858D01*
X114617591Y-82546137D01*
X114619115Y-82547390D01*
X114629099Y-82558025D01*
X114676718Y-82599692D01*
X114688374Y-82608026D01*
X114689865Y-82609419D01*
X114691328Y-82610138D01*
X114692665Y-82611094D01*
X114694609Y-82611751D01*
X114707457Y-82618068D01*
X114802695Y-82653782D01*
X114821636Y-82658833D01*
X114826204Y-82658677D01*
X114830613Y-82659890D01*
X114850210Y-82659377D01*
X114945448Y-82647473D01*
X114953595Y-82645629D01*
X114956176Y-82645534D01*
X114960309Y-82644110D01*
X114964568Y-82643147D01*
X114966810Y-82641871D01*
X114974711Y-82639151D01*
X115117568Y-82573674D01*
X115134503Y-82563799D01*
X115135254Y-82562989D01*
X115136246Y-82562509D01*
X115150643Y-82549204D01*
X115547331Y-82102930D01*
X115547331Y-82458959D01*
X115549252Y-82478468D01*
X115564184Y-82514516D01*
X115591774Y-82542106D01*
X115627822Y-82557038D01*
X115666840Y-82557038D01*
X115702888Y-82542106D01*
X115730478Y-82514516D01*
X115741163Y-82488720D01*
X116157275Y-82488720D01*
X116157275Y-82726816D01*
X116159196Y-82746325D01*
X116161076Y-82750865D01*
X116161554Y-82755757D01*
X116169040Y-82773875D01*
X116216659Y-82863160D01*
X116224747Y-82875290D01*
X116225626Y-82877066D01*
X116226682Y-82878191D01*
X116227535Y-82879470D01*
X116229059Y-82880723D01*
X116239043Y-82891358D01*
X116286662Y-82933025D01*
X116298318Y-82941359D01*
X116299809Y-82942752D01*
X116301272Y-82943471D01*
X116302609Y-82944427D01*
X116304553Y-82945084D01*
X116317401Y-82951401D01*
X116412639Y-82987115D01*
X116431580Y-82992166D01*
X116436148Y-82992010D01*
X116440557Y-82993223D01*
X116460154Y-82992710D01*
X116555392Y-82980806D01*
X116563539Y-82978962D01*
X116566120Y-82978867D01*
X116570253Y-82977443D01*
X116574512Y-82976480D01*
X116576754Y-82975204D01*
X116584655Y-82972484D01*
X116727512Y-82907007D01*
X116744447Y-82897132D01*
X116745198Y-82896322D01*
X116746190Y-82895842D01*
X116760587Y-82882537D01*
X117157275Y-82436263D01*
X117157275Y-82792292D01*
X117159196Y-82811801D01*
X117174128Y-82847849D01*
X117201718Y-82875439D01*
X117237766Y-82890371D01*
X117276784Y-82890371D01*
X117312832Y-82875439D01*
X117340422Y-82847849D01*
X117355354Y-82811801D01*
X117357275Y-82792292D01*
X117357275Y-82173244D01*
X117355354Y-82153735D01*
X117354213Y-82150982D01*
X117354039Y-82148009D01*
X117346784Y-82133047D01*
X117340422Y-82117687D01*
X117338315Y-82115580D01*
X117337016Y-82112900D01*
X117324586Y-82101851D01*
X117312832Y-82090097D01*
X117310080Y-82088957D01*
X117307854Y-82086978D01*
X117292146Y-82081528D01*
X117276784Y-82075165D01*
X117273804Y-82075165D01*
X117270991Y-82074189D01*
X117254397Y-82075165D01*
X117237766Y-82075165D01*
X117235013Y-82076305D01*
X117232040Y-82076480D01*
X117217078Y-82083734D01*
X117201718Y-82090097D01*
X117199611Y-82092203D01*
X117196931Y-82093503D01*
X117182534Y-82106808D01*
X116625070Y-82733953D01*
X116515315Y-82784258D01*
X116459794Y-82791198D01*
X116404666Y-82770525D01*
X116384516Y-82752894D01*
X116357275Y-82701816D01*
X116357275Y-82511074D01*
X116389227Y-82443175D01*
X116427254Y-82400395D01*
X116438779Y-82384538D01*
X116451568Y-82347675D01*
X116449277Y-82308724D01*
X116432255Y-82273615D01*
X116403092Y-82247693D01*
X116366230Y-82234904D01*
X116327279Y-82237195D01*
X116292169Y-82254217D01*
X116277772Y-82267522D01*
X116230153Y-82321093D01*
X116226204Y-82326525D01*
X116224457Y-82328116D01*
X116221741Y-82332667D01*
X116218628Y-82336951D01*
X116217854Y-82339181D01*
X116214412Y-82344950D01*
X116166793Y-82446140D01*
X116160224Y-82464610D01*
X116160111Y-82467001D01*
X116159196Y-82469211D01*
X116157275Y-82488720D01*
X115741163Y-82488720D01*
X115745410Y-82478468D01*
X115747331Y-82458959D01*
X115747331Y-81839911D01*
X115745410Y-81820402D01*
X115744269Y-81817649D01*
X115744095Y-81814676D01*
X115736840Y-81799714D01*
X115730478Y-81784354D01*
X115728371Y-81782247D01*
X115727072Y-81779567D01*
X115714642Y-81768518D01*
X115702888Y-81756764D01*
X115700136Y-81755624D01*
X115697910Y-81753645D01*
X115682202Y-81748195D01*
X115666840Y-81741832D01*
X115663860Y-81741832D01*
X115661047Y-81740856D01*
X115644453Y-81741832D01*
X115627822Y-81741832D01*
X115625069Y-81742972D01*
X115622096Y-81743147D01*
X115607134Y-81750401D01*
X115591774Y-81756764D01*
X115589667Y-81758870D01*
X115586987Y-81760170D01*
X115572590Y-81773475D01*
X115015126Y-82400620D01*
X114905371Y-82450925D01*
X114849850Y-82457865D01*
X114794722Y-82437192D01*
X114774572Y-82419561D01*
X114747331Y-82368483D01*
X114747331Y-82177741D01*
X114779283Y-82109842D01*
X114817310Y-82067062D01*
X114828835Y-82051205D01*
X114841624Y-82014342D01*
X114839333Y-81975391D01*
X114822311Y-81940282D01*
X114793148Y-81914360D01*
X114756286Y-81901571D01*
X114717335Y-81903862D01*
X114682225Y-81920884D01*
X114667828Y-81934189D01*
X114620209Y-81987760D01*
X114616260Y-81993192D01*
X114614513Y-81994783D01*
X114611797Y-81999334D01*
X114608684Y-82003618D01*
X114607910Y-82005848D01*
X114604468Y-82011617D01*
X114556849Y-82112807D01*
X114550280Y-82131277D01*
X114550167Y-82133668D01*
X114549252Y-82135878D01*
X114547331Y-82155387D01*
X114436220Y-82155387D01*
X114436220Y-81052956D01*
X114547590Y-81052956D01*
X114552429Y-81091673D01*
X114571717Y-81125590D01*
X114602516Y-81149545D01*
X114640138Y-81159890D01*
X114659734Y-81159377D01*
X114967461Y-81120911D01*
X114572590Y-81565142D01*
X114561065Y-81580999D01*
X114548276Y-81617862D01*
X114550567Y-81656813D01*
X114567590Y-81691922D01*
X114596752Y-81717844D01*
X114633615Y-81730633D01*
X114672566Y-81728342D01*
X114707675Y-81711319D01*
X114722072Y-81698014D01*
X115094528Y-81279001D01*
X115594331Y-81591378D01*
X115611893Y-81600088D01*
X115650375Y-81606532D01*
X115688394Y-81597758D01*
X115720162Y-81575103D01*
X115740841Y-81542016D01*
X115747284Y-81503533D01*
X115738511Y-81465514D01*
X115715856Y-81433747D01*
X115700331Y-81421778D01*
X115578867Y-81345863D01*
X116157275Y-81345863D01*
X116157275Y-81964911D01*
X116159196Y-81984420D01*
X116174128Y-82020468D01*
X116201718Y-82048058D01*
X116237766Y-82062990D01*
X116276784Y-82062990D01*
X116312832Y-82048058D01*
X116327986Y-82035622D01*
X116563814Y-81799792D01*
X116597611Y-81863160D01*
X116605699Y-81875290D01*
X116606578Y-81877066D01*
X116607634Y-81878191D01*
X116608487Y-81879470D01*
X116610011Y-81880723D01*
X116619995Y-81891358D01*
X116667614Y-81933025D01*
X116679270Y-81941359D01*
X116680761Y-81942752D01*
X116682224Y-81943471D01*
X116683561Y-81944427D01*
X116685505Y-81945084D01*
X116698353Y-81951401D01*
X116793591Y-81987115D01*
X116812532Y-81992166D01*
X116817101Y-81992010D01*
X116821510Y-81993223D01*
X116841107Y-81992710D01*
X117079202Y-81962948D01*
X117098322Y-81958622D01*
X117100155Y-81957579D01*
X117102236Y-81957231D01*
X117119797Y-81948520D01*
X117215036Y-81888997D01*
X117220269Y-81884962D01*
X117222380Y-81883939D01*
X117226321Y-81880296D01*
X117230561Y-81877028D01*
X117231919Y-81875122D01*
X117236777Y-81870634D01*
X117284396Y-81817062D01*
X117288343Y-81811630D01*
X117290093Y-81810039D01*
X117292810Y-81805485D01*
X117295922Y-81801204D01*
X117296695Y-81798973D01*
X117300138Y-81793205D01*
X117347757Y-81692015D01*
X117354326Y-81673544D01*
X117354438Y-81671153D01*
X117355354Y-81668944D01*
X117357275Y-81649435D01*
X117357275Y-81363720D01*
X117355354Y-81344211D01*
X117353473Y-81339670D01*
X117352996Y-81334779D01*
X117345510Y-81316661D01*
X117297891Y-81227376D01*
X117289798Y-81215240D01*
X117288923Y-81213470D01*
X117287870Y-81212348D01*
X117287015Y-81211066D01*
X117285487Y-81209809D01*
X117275506Y-81199177D01*
X117227886Y-81157510D01*
X117211939Y-81146109D01*
X117174977Y-81133609D01*
X117136045Y-81136205D01*
X117101070Y-81153501D01*
X117075377Y-81182865D01*
X117062877Y-81219827D01*
X117065473Y-81258759D01*
X117082769Y-81293734D01*
X117096186Y-81308026D01*
X117130033Y-81337642D01*
X117157275Y-81388719D01*
X117157275Y-81627080D01*
X117125322Y-81694979D01*
X117096843Y-81727017D01*
X117032506Y-81767228D01*
X116840745Y-81791198D01*
X116785618Y-81770525D01*
X116765468Y-81752894D01*
X116738227Y-81701816D01*
X116738227Y-81583959D01*
X116736306Y-81564450D01*
X116721374Y-81528402D01*
X116693784Y-81500812D01*
X116657736Y-81485880D01*
X116618718Y-81485880D01*
X116593227Y-81496438D01*
X116582669Y-81500812D01*
X116567516Y-81513249D01*
X116357275Y-81723489D01*
X116357275Y-81345863D01*
X116355354Y-81326354D01*
X116340422Y-81290306D01*
X116312832Y-81262716D01*
X116276784Y-81247784D01*
X116237766Y-81247784D01*
X116201718Y-81262716D01*
X116174128Y-81290306D01*
X116159196Y-81326354D01*
X116157275Y-81345863D01*
X115578867Y-81345863D01*
X115229299Y-81127383D01*
X115268501Y-81083281D01*
X115659734Y-81034377D01*
X115678854Y-81030051D01*
X115712772Y-81010763D01*
X115736727Y-80979964D01*
X115747072Y-80942342D01*
X115742233Y-80903625D01*
X115722945Y-80869708D01*
X115692146Y-80845753D01*
X115654524Y-80835408D01*
X115634927Y-80835921D01*
X114634928Y-80960921D01*
X114615807Y-80965247D01*
X114581890Y-80984535D01*
X114557935Y-81015334D01*
X114547590Y-81052956D01*
X114436220Y-81052956D01*
X114436220Y-80005337D01*
X114547590Y-80005337D01*
X114552429Y-80044054D01*
X114571717Y-80077971D01*
X114602516Y-80101926D01*
X114640138Y-80112271D01*
X114659734Y-80111758D01*
X115023521Y-80066284D01*
X115023521Y-80436156D01*
X114634928Y-80484731D01*
X114615807Y-80489057D01*
X114581890Y-80508345D01*
X114557935Y-80539144D01*
X114547590Y-80576766D01*
X114552429Y-80615483D01*
X114571717Y-80649400D01*
X114602516Y-80673355D01*
X114640138Y-80683700D01*
X114659734Y-80683187D01*
X115659734Y-80558187D01*
X115678854Y-80553861D01*
X115712772Y-80534573D01*
X115736727Y-80503774D01*
X115747072Y-80466152D01*
X115743941Y-80441101D01*
X116157275Y-80441101D01*
X116157275Y-80822054D01*
X116159196Y-80841563D01*
X116161076Y-80846103D01*
X116161554Y-80850995D01*
X116169040Y-80869113D01*
X116216659Y-80958398D01*
X116224747Y-80970528D01*
X116225626Y-80972304D01*
X116226682Y-80973429D01*
X116227535Y-80974708D01*
X116229059Y-80975961D01*
X116239043Y-80986596D01*
X116286662Y-81028263D01*
X116298318Y-81036597D01*
X116299809Y-81037990D01*
X116301272Y-81038709D01*
X116302609Y-81039665D01*
X116304553Y-81040322D01*
X116317401Y-81046639D01*
X116412639Y-81082353D01*
X116431580Y-81087404D01*
X116436149Y-81087248D01*
X116440558Y-81088461D01*
X116460154Y-81087948D01*
X116603012Y-81070091D01*
X116622132Y-81065765D01*
X116623965Y-81064722D01*
X116626046Y-81064374D01*
X116643608Y-81055663D01*
X116738846Y-80996139D01*
X116744079Y-80992104D01*
X116746190Y-80991081D01*
X116750131Y-80987438D01*
X116754371Y-80984170D01*
X116755729Y-80982265D01*
X116760587Y-80977776D01*
X116808206Y-80924204D01*
X116812153Y-80918773D01*
X116813902Y-80917182D01*
X116816618Y-80912628D01*
X116819731Y-80908347D01*
X116820504Y-80906116D01*
X116823947Y-80900348D01*
X116871566Y-80799158D01*
X116878135Y-80780687D01*
X116878247Y-80778296D01*
X116879163Y-80776087D01*
X116881084Y-80756578D01*
X116881084Y-80631578D01*
X117767219Y-80631578D01*
X117767219Y-80726816D01*
X117769140Y-80746325D01*
X117771020Y-80750865D01*
X117771498Y-80755757D01*
X117778984Y-80773875D01*
X117826603Y-80863160D01*
X117834691Y-80875290D01*
X117835570Y-80877066D01*
X117836626Y-80878191D01*
X117837479Y-80879470D01*
X117839003Y-80880723D01*
X117848987Y-80891358D01*
X117896606Y-80933025D01*
X117908262Y-80941359D01*
X117909753Y-80942752D01*
X117911216Y-80943471D01*
X117912553Y-80944427D01*
X117914497Y-80945084D01*
X117927345Y-80951401D01*
X118022583Y-80987115D01*
X118025137Y-80987796D01*
X118026171Y-80988384D01*
X118033895Y-80990131D01*
X118041524Y-80992166D01*
X118042708Y-80992125D01*
X118045291Y-80992710D01*
X118235767Y-81016520D01*
X118239464Y-81016616D01*
X118240978Y-81017033D01*
X118248171Y-81016844D01*
X118255364Y-81017033D01*
X118256877Y-81016616D01*
X118260575Y-81016520D01*
X118498670Y-80986758D01*
X118501252Y-80986173D01*
X118502437Y-80986214D01*
X118510068Y-80984179D01*
X118517790Y-80982432D01*
X118518822Y-80981844D01*
X118521379Y-80981163D01*
X118711855Y-80909734D01*
X118712063Y-80909631D01*
X118712180Y-80909612D01*
X118720770Y-80905350D01*
X118729447Y-80901085D01*
X118729534Y-80901003D01*
X118729741Y-80900901D01*
X118824980Y-80841378D01*
X118830213Y-80837343D01*
X118832324Y-80836320D01*
X118836265Y-80832677D01*
X118840505Y-80829409D01*
X118841863Y-80827503D01*
X118846721Y-80823015D01*
X118894340Y-80769443D01*
X118898287Y-80764011D01*
X118900037Y-80762420D01*
X118902754Y-80757866D01*
X118905866Y-80753585D01*
X118906639Y-80751354D01*
X118910082Y-80745586D01*
X118957701Y-80644396D01*
X118964270Y-80625925D01*
X118964382Y-80623534D01*
X118965298Y-80621325D01*
X118967219Y-80601816D01*
X118967219Y-80506578D01*
X118965298Y-80487069D01*
X118963417Y-80482528D01*
X118962940Y-80477637D01*
X118955455Y-80459520D01*
X118907835Y-80370233D01*
X118899740Y-80358092D01*
X118898867Y-80356327D01*
X118897817Y-80355208D01*
X118896960Y-80353923D01*
X118895427Y-80352663D01*
X118885450Y-80342034D01*
X118837830Y-80300367D01*
X118826176Y-80292035D01*
X118824684Y-80290641D01*
X118823217Y-80289919D01*
X118821883Y-80288966D01*
X118819941Y-80288309D01*
X118807092Y-80281992D01*
X118711854Y-80246278D01*
X118709297Y-80245596D01*
X118708265Y-80245009D01*
X118700547Y-80243262D01*
X118692913Y-80241227D01*
X118691727Y-80241267D01*
X118689145Y-80240683D01*
X118498670Y-80216873D01*
X118494972Y-80216776D01*
X118493459Y-80216360D01*
X118486266Y-80216548D01*
X118479073Y-80216360D01*
X118477559Y-80216776D01*
X118473863Y-80216873D01*
X118235767Y-80246635D01*
X118233184Y-80247219D01*
X118232000Y-80247179D01*
X118224371Y-80249213D01*
X118216647Y-80250961D01*
X118215613Y-80251548D01*
X118213059Y-80252230D01*
X118022582Y-80323659D01*
X118022370Y-80323762D01*
X118022256Y-80323782D01*
X118013670Y-80328040D01*
X118004990Y-80332308D01*
X118004904Y-80332388D01*
X118004695Y-80332492D01*
X117909457Y-80392016D01*
X117904222Y-80396051D01*
X117902113Y-80397074D01*
X117898175Y-80400713D01*
X117893931Y-80403985D01*
X117892570Y-80405892D01*
X117887716Y-80410379D01*
X117840097Y-80463950D01*
X117836148Y-80469382D01*
X117834401Y-80470973D01*
X117831685Y-80475524D01*
X117828572Y-80479808D01*
X117827798Y-80482038D01*
X117824356Y-80487807D01*
X117776737Y-80588999D01*
X117770168Y-80607469D01*
X117770055Y-80609859D01*
X117769140Y-80612069D01*
X117767219Y-80631578D01*
X116881084Y-80631578D01*
X116881084Y-80463903D01*
X117269678Y-80415329D01*
X117288798Y-80411003D01*
X117322716Y-80391715D01*
X117346671Y-80360916D01*
X117357016Y-80323294D01*
X117352177Y-80284577D01*
X117332889Y-80250660D01*
X117302090Y-80226705D01*
X117264468Y-80216360D01*
X117244871Y-80216873D01*
X116244872Y-80341873D01*
X116239793Y-80343022D01*
X116237766Y-80343022D01*
X116235325Y-80344032D01*
X116225751Y-80346199D01*
X116214097Y-80352825D01*
X116201718Y-80357954D01*
X116197284Y-80362387D01*
X116191834Y-80365487D01*
X116183605Y-80376066D01*
X116174128Y-80385544D01*
X116171728Y-80391336D01*
X116167879Y-80396286D01*
X116164325Y-80409207D01*
X116159196Y-80421592D01*
X116158233Y-80431362D01*
X116157534Y-80433908D01*
X116157785Y-80435918D01*
X116157275Y-80441101D01*
X115743941Y-80441101D01*
X115742233Y-80427435D01*
X115722945Y-80393518D01*
X115692146Y-80369563D01*
X115654524Y-80359218D01*
X115634927Y-80359731D01*
X115223521Y-80411156D01*
X115223521Y-80041284D01*
X115659734Y-79986758D01*
X115678854Y-79982432D01*
X115712772Y-79963144D01*
X115736727Y-79932345D01*
X115747072Y-79894723D01*
X115742233Y-79856006D01*
X115722945Y-79822089D01*
X115692146Y-79798134D01*
X115654524Y-79787789D01*
X115634927Y-79788302D01*
X114634928Y-79913302D01*
X114615807Y-79917628D01*
X114581890Y-79936916D01*
X114557935Y-79967715D01*
X114547590Y-80005337D01*
X114436220Y-80005337D01*
X114436220Y-78957718D01*
X114547590Y-78957718D01*
X114549085Y-78969685D01*
X114548758Y-78981747D01*
X114551483Y-78988867D01*
X114552429Y-78996435D01*
X114558394Y-79006924D01*
X114562705Y-79018188D01*
X114567947Y-79023723D01*
X114571717Y-79030352D01*
X114581238Y-79037757D01*
X114589535Y-79046518D01*
X114600637Y-79052846D01*
X114602516Y-79054307D01*
X114603839Y-79054670D01*
X114606566Y-79056225D01*
X115279321Y-79356562D01*
X114634928Y-79437112D01*
X114615807Y-79441438D01*
X114581890Y-79460726D01*
X114557935Y-79491525D01*
X114547590Y-79529147D01*
X114552429Y-79567864D01*
X114571717Y-79601781D01*
X114602516Y-79625736D01*
X114640138Y-79636081D01*
X114659734Y-79635568D01*
X114691654Y-79631578D01*
X116157275Y-79631578D01*
X116157275Y-79869673D01*
X116158380Y-79880896D01*
X116158231Y-79883468D01*
X116158911Y-79886289D01*
X116159196Y-79889182D01*
X116160182Y-79891563D01*
X116162825Y-79902525D01*
X116210444Y-80039430D01*
X116218668Y-80057225D01*
X116244613Y-80086367D01*
X116279736Y-80103362D01*
X116318689Y-80105622D01*
X116355541Y-80092804D01*
X116384683Y-80066858D01*
X116401678Y-80031736D01*
X116403938Y-79992783D01*
X116399344Y-79973726D01*
X116357275Y-79852777D01*
X116357275Y-79653931D01*
X116389226Y-79586033D01*
X116417702Y-79553997D01*
X116482044Y-79513783D01*
X116530946Y-79507670D01*
X116586073Y-79528343D01*
X116606222Y-79545974D01*
X116639616Y-79608587D01*
X116684256Y-79781565D01*
X116685239Y-79784253D01*
X116685363Y-79785519D01*
X116688323Y-79792685D01*
X116690991Y-79799976D01*
X116691756Y-79800992D01*
X116692849Y-79803637D01*
X116740468Y-79892922D01*
X116748556Y-79905052D01*
X116749435Y-79906828D01*
X116750491Y-79907953D01*
X116751344Y-79909232D01*
X116752868Y-79910485D01*
X116762852Y-79921120D01*
X116810471Y-79962787D01*
X116822127Y-79971121D01*
X116823618Y-79972514D01*
X116825081Y-79973233D01*
X116826418Y-79974189D01*
X116828362Y-79974846D01*
X116841210Y-79981163D01*
X116936448Y-80016877D01*
X116955389Y-80021928D01*
X116959958Y-80021772D01*
X116964367Y-80022985D01*
X116983964Y-80022472D01*
X117079202Y-80010567D01*
X117098322Y-80006241D01*
X117100155Y-80005198D01*
X117102236Y-80004850D01*
X117119797Y-79996139D01*
X117215036Y-79936616D01*
X117220269Y-79932581D01*
X117222380Y-79931558D01*
X117226321Y-79927915D01*
X117230561Y-79924647D01*
X117231919Y-79922741D01*
X117236777Y-79918253D01*
X117284396Y-79864681D01*
X117288343Y-79859249D01*
X117290093Y-79857658D01*
X117292810Y-79853104D01*
X117295922Y-79848823D01*
X117296695Y-79846592D01*
X117297870Y-79844623D01*
X118672239Y-79844623D01*
X118674259Y-79860790D01*
X118675216Y-79877049D01*
X118675390Y-79877408D01*
X118675417Y-79877807D01*
X118676714Y-79880430D01*
X118677078Y-79883340D01*
X118685133Y-79897505D01*
X118692238Y-79912159D01*
X118692535Y-79912423D01*
X118692713Y-79912782D01*
X118695523Y-79915776D01*
X118696366Y-79917257D01*
X118698396Y-79918836D01*
X118706130Y-79927074D01*
X118753750Y-79968741D01*
X118768501Y-79979287D01*
X118769022Y-79979750D01*
X118769268Y-79979835D01*
X118769697Y-79980142D01*
X118787795Y-79986262D01*
X118805885Y-79992538D01*
X118806282Y-79992514D01*
X118806659Y-79992642D01*
X118825741Y-79991370D01*
X118844835Y-79990247D01*
X118845192Y-79990073D01*
X118845591Y-79990047D01*
X118862750Y-79981560D01*
X118879945Y-79973224D01*
X118880333Y-79972865D01*
X118880566Y-79972750D01*
X118881023Y-79972227D01*
X118894341Y-79959919D01*
X118941961Y-79906347D01*
X118953486Y-79890489D01*
X118953616Y-79890112D01*
X118953878Y-79889814D01*
X118954816Y-79887037D01*
X118956615Y-79884726D01*
X118960933Y-79869020D01*
X118966274Y-79853626D01*
X118966250Y-79853228D01*
X118966378Y-79852852D01*
X118966183Y-79849929D01*
X118966960Y-79847104D01*
X118964939Y-79830938D01*
X118963983Y-79814675D01*
X118963808Y-79814314D01*
X118963782Y-79813920D01*
X118962484Y-79811296D01*
X118962121Y-79808387D01*
X118954069Y-79794228D01*
X118946960Y-79779566D01*
X118946662Y-79779301D01*
X118946486Y-79778945D01*
X118943675Y-79775950D01*
X118942833Y-79774470D01*
X118940802Y-79772890D01*
X118933069Y-79764653D01*
X118885450Y-79722987D01*
X118870697Y-79712439D01*
X118870180Y-79711980D01*
X118869935Y-79711895D01*
X118869503Y-79711586D01*
X118851313Y-79705434D01*
X118833317Y-79699191D01*
X118832920Y-79699214D01*
X118832541Y-79699086D01*
X118813447Y-79700359D01*
X118794366Y-79701481D01*
X118794006Y-79701655D01*
X118793609Y-79701682D01*
X118776479Y-79710153D01*
X118759257Y-79718503D01*
X118758868Y-79718862D01*
X118758634Y-79718978D01*
X118758173Y-79719504D01*
X118744860Y-79731808D01*
X118697240Y-79785379D01*
X118685714Y-79801236D01*
X118685583Y-79801613D01*
X118685321Y-79801913D01*
X118684382Y-79804689D01*
X118682584Y-79807001D01*
X118678266Y-79822702D01*
X118672925Y-79838099D01*
X118672948Y-79838498D01*
X118672821Y-79838875D01*
X118673015Y-79841797D01*
X118672239Y-79844623D01*
X117297870Y-79844623D01*
X117300138Y-79840824D01*
X117347757Y-79739634D01*
X117354326Y-79721163D01*
X117354438Y-79718772D01*
X117355354Y-79716563D01*
X117357275Y-79697054D01*
X117357275Y-79458958D01*
X117356169Y-79447734D01*
X117356319Y-79445163D01*
X117355638Y-79442341D01*
X117355354Y-79439449D01*
X117354367Y-79437067D01*
X117351725Y-79426106D01*
X117304106Y-79289202D01*
X117295882Y-79271407D01*
X117270976Y-79243433D01*
X117767478Y-79243433D01*
X117768430Y-79251053D01*
X117767544Y-79258677D01*
X117770826Y-79270227D01*
X117772317Y-79282150D01*
X117776112Y-79288823D01*
X117778211Y-79296208D01*
X117785668Y-79305627D01*
X117791605Y-79316067D01*
X117797663Y-79320779D01*
X117802430Y-79326800D01*
X117812923Y-79332648D01*
X117822404Y-79340022D01*
X117829806Y-79342057D01*
X117836513Y-79345795D01*
X117848443Y-79347182D01*
X117860026Y-79350367D01*
X117872931Y-79350029D01*
X117875270Y-79350301D01*
X117876560Y-79349934D01*
X117879622Y-79349854D01*
X118767219Y-79238904D01*
X118767219Y-79411340D01*
X118769140Y-79430849D01*
X118784072Y-79466897D01*
X118811662Y-79494487D01*
X118847710Y-79509419D01*
X118886728Y-79509419D01*
X118922776Y-79494487D01*
X118950366Y-79466897D01*
X118965298Y-79430849D01*
X118967219Y-79411340D01*
X118967219Y-78839911D01*
X118965298Y-78820402D01*
X118950366Y-78784354D01*
X118922776Y-78756764D01*
X118886728Y-78741832D01*
X118847710Y-78741832D01*
X118811662Y-78756764D01*
X118784072Y-78784354D01*
X118769140Y-78820402D01*
X118767219Y-78839911D01*
X118767219Y-79037347D01*
X118166135Y-79112482D01*
X118180055Y-79096824D01*
X118184002Y-79091393D01*
X118185751Y-79089802D01*
X118188466Y-79085250D01*
X118191580Y-79080967D01*
X118192354Y-79078735D01*
X118195796Y-79072967D01*
X118243415Y-78971776D01*
X118249984Y-78953306D01*
X118251822Y-78914331D01*
X118238606Y-78877619D01*
X118212347Y-78848760D01*
X118177043Y-78832146D01*
X118138068Y-78830308D01*
X118101356Y-78843524D01*
X118072496Y-78869783D01*
X118062451Y-78886617D01*
X118020980Y-78974743D01*
X117941144Y-79064556D01*
X117805148Y-79172222D01*
X117802946Y-79174347D01*
X117801778Y-79175012D01*
X117800331Y-79176872D01*
X117791045Y-79185837D01*
X117785196Y-79196330D01*
X117777823Y-79205811D01*
X117775787Y-79213213D01*
X117772050Y-79219920D01*
X117770662Y-79231850D01*
X117767478Y-79243433D01*
X117270976Y-79243433D01*
X117269936Y-79242265D01*
X117234814Y-79225270D01*
X117195861Y-79223010D01*
X117159009Y-79235828D01*
X117129867Y-79261774D01*
X117112872Y-79296896D01*
X117110612Y-79335849D01*
X117115206Y-79354906D01*
X117157275Y-79475853D01*
X117157275Y-79674699D01*
X117125322Y-79742598D01*
X117096843Y-79774636D01*
X117032506Y-79814847D01*
X116983602Y-79820960D01*
X116928475Y-79800287D01*
X116908325Y-79782656D01*
X116874932Y-79720044D01*
X116830293Y-79547066D01*
X116829309Y-79544377D01*
X116829186Y-79543113D01*
X116826224Y-79535945D01*
X116823558Y-79528656D01*
X116822793Y-79527640D01*
X116821701Y-79524996D01*
X116774081Y-79435709D01*
X116765989Y-79423574D01*
X116765114Y-79421803D01*
X116764061Y-79420681D01*
X116763206Y-79419399D01*
X116761677Y-79418141D01*
X116751697Y-79407511D01*
X116704078Y-79365844D01*
X116692421Y-79357509D01*
X116690931Y-79356117D01*
X116689467Y-79355397D01*
X116688131Y-79354442D01*
X116686186Y-79353784D01*
X116673339Y-79347468D01*
X116578101Y-79311754D01*
X116559160Y-79306703D01*
X116554590Y-79306858D01*
X116550182Y-79305646D01*
X116530585Y-79306159D01*
X116435347Y-79318064D01*
X116416227Y-79322390D01*
X116414391Y-79323433D01*
X116412312Y-79323782D01*
X116394751Y-79332492D01*
X116299513Y-79392016D01*
X116294278Y-79396051D01*
X116292169Y-79397074D01*
X116288231Y-79400713D01*
X116283987Y-79403985D01*
X116282626Y-79405892D01*
X116277772Y-79410379D01*
X116230153Y-79463950D01*
X116226204Y-79469382D01*
X116224457Y-79470973D01*
X116221741Y-79475524D01*
X116218628Y-79479808D01*
X116217854Y-79482038D01*
X116214412Y-79487807D01*
X116166793Y-79588999D01*
X116160224Y-79607469D01*
X116160111Y-79609859D01*
X116159196Y-79612069D01*
X116157275Y-79631578D01*
X114691654Y-79631578D01*
X115659734Y-79510568D01*
X115662794Y-79509875D01*
X115664167Y-79509913D01*
X115666390Y-79509061D01*
X115678854Y-79506242D01*
X115689342Y-79500277D01*
X115700608Y-79495966D01*
X115706144Y-79490723D01*
X115712772Y-79486954D01*
X115720177Y-79477432D01*
X115728938Y-79469136D01*
X115732046Y-79462172D01*
X115736727Y-79456155D01*
X115739925Y-79444524D01*
X115744843Y-79433508D01*
X115745050Y-79425885D01*
X115747072Y-79418533D01*
X115745575Y-79406563D01*
X115745904Y-79394504D01*
X115743178Y-79387383D01*
X115742233Y-79379816D01*
X115736267Y-79369326D01*
X115731957Y-79358063D01*
X115726714Y-79352527D01*
X115722945Y-79345899D01*
X115713423Y-79338493D01*
X115705127Y-79329733D01*
X115694024Y-79323404D01*
X115692146Y-79321944D01*
X115690822Y-79321580D01*
X115688096Y-79320026D01*
X115015340Y-79019688D01*
X115659734Y-78939139D01*
X115678854Y-78934813D01*
X115712772Y-78915525D01*
X115736727Y-78884726D01*
X115747072Y-78847104D01*
X115742233Y-78808387D01*
X115722945Y-78774470D01*
X115692146Y-78750515D01*
X115654524Y-78740170D01*
X115634927Y-78740683D01*
X114634928Y-78865683D01*
X114631867Y-78866375D01*
X114630495Y-78866338D01*
X114628271Y-78867188D01*
X114615807Y-78870009D01*
X114605317Y-78875974D01*
X114594054Y-78880285D01*
X114588518Y-78885527D01*
X114581890Y-78889297D01*
X114574484Y-78898818D01*
X114565724Y-78907115D01*
X114562614Y-78914078D01*
X114557935Y-78920096D01*
X114554737Y-78931722D01*
X114549818Y-78942743D01*
X114549610Y-78950369D01*
X114547590Y-78957718D01*
X114436220Y-78957718D01*
X114436220Y-78583958D01*
X116157275Y-78583958D01*
X116157275Y-79060149D01*
X116159196Y-79079658D01*
X116174128Y-79115706D01*
X116201718Y-79143296D01*
X116237766Y-79158228D01*
X116276784Y-79158228D01*
X116312832Y-79143296D01*
X116340422Y-79115706D01*
X116355354Y-79079658D01*
X116357275Y-79060149D01*
X116357275Y-78672236D01*
X116633465Y-78637712D01*
X116633465Y-78857768D01*
X116635386Y-78877277D01*
X116650318Y-78913325D01*
X116677908Y-78940915D01*
X116713956Y-78955847D01*
X116752974Y-78955847D01*
X116789022Y-78940915D01*
X116816612Y-78913325D01*
X116831544Y-78877277D01*
X116833465Y-78857768D01*
X116833465Y-78612712D01*
X117157275Y-78572236D01*
X117157275Y-78935149D01*
X117159196Y-78954658D01*
X117174128Y-78990706D01*
X117201718Y-79018296D01*
X117237766Y-79033228D01*
X117276784Y-79033228D01*
X117312832Y-79018296D01*
X117340422Y-78990706D01*
X117355354Y-78954658D01*
X117357275Y-78935149D01*
X117357275Y-78458958D01*
X117355354Y-78439449D01*
X117352954Y-78433656D01*
X117352177Y-78427434D01*
X117345550Y-78415780D01*
X117340422Y-78403401D01*
X117335988Y-78398967D01*
X117332889Y-78393517D01*
X117322309Y-78385288D01*
X117312832Y-78375811D01*
X117307039Y-78373411D01*
X117302090Y-78369562D01*
X117289168Y-78366008D01*
X117276784Y-78360879D01*
X117270512Y-78360879D01*
X117264468Y-78359217D01*
X117244871Y-78359730D01*
X116244872Y-78484730D01*
X116239793Y-78485879D01*
X116237766Y-78485879D01*
X116235325Y-78486889D01*
X116225751Y-78489056D01*
X116214097Y-78495682D01*
X116201718Y-78500811D01*
X116197284Y-78505244D01*
X116191834Y-78508344D01*
X116183605Y-78518923D01*
X116174128Y-78528401D01*
X116171728Y-78534193D01*
X116167879Y-78539143D01*
X116164325Y-78552064D01*
X116159196Y-78564449D01*
X116158233Y-78574219D01*
X116157534Y-78576765D01*
X116157785Y-78578775D01*
X116157275Y-78583958D01*
X114436220Y-78583958D01*
X114436220Y-78110546D01*
X118100602Y-78110546D01*
X118106996Y-78149037D01*
X118127632Y-78182151D01*
X118159370Y-78204848D01*
X118177939Y-78211131D01*
X118568072Y-78301697D01*
X118157122Y-78499834D01*
X118140383Y-78510037D01*
X118114397Y-78539143D01*
X118101527Y-78575978D01*
X118103733Y-78614933D01*
X118120678Y-78650080D01*
X118149784Y-78676066D01*
X118186619Y-78688936D01*
X118225574Y-78686730D01*
X118243982Y-78679988D01*
X118910649Y-78358560D01*
X118927388Y-78348357D01*
X118931022Y-78344286D01*
X118935649Y-78341403D01*
X118943910Y-78329851D01*
X118953374Y-78319251D01*
X118955173Y-78314101D01*
X118958346Y-78309665D01*
X118961558Y-78295825D01*
X118966244Y-78282416D01*
X118965935Y-78276970D01*
X118967169Y-78271658D01*
X118964842Y-78257648D01*
X118964039Y-78243460D01*
X118961669Y-78238545D01*
X118960776Y-78233167D01*
X118953265Y-78221115D01*
X118947093Y-78208314D01*
X118943022Y-78204679D01*
X118940139Y-78200053D01*
X118928587Y-78191791D01*
X118917987Y-78182328D01*
X118912837Y-78180528D01*
X118908401Y-78177356D01*
X118889832Y-78171073D01*
X118223165Y-78016311D01*
X118203727Y-78013771D01*
X118165236Y-78020165D01*
X118132122Y-78040801D01*
X118109425Y-78072539D01*
X118100602Y-78110546D01*
X114436220Y-78110546D01*
X114436220Y-77298244D01*
X114547331Y-77298244D01*
X114547331Y-77869673D01*
X114549252Y-77889182D01*
X114564184Y-77925230D01*
X114591774Y-77952820D01*
X114627822Y-77967752D01*
X114666840Y-77967752D01*
X114702888Y-77952820D01*
X114730478Y-77925230D01*
X114745410Y-77889182D01*
X114747331Y-77869673D01*
X114747331Y-77672237D01*
X115659734Y-77558187D01*
X115678854Y-77553861D01*
X115712772Y-77534573D01*
X115736727Y-77503774D01*
X115747072Y-77466152D01*
X115742233Y-77427435D01*
X115722945Y-77393518D01*
X115692146Y-77369563D01*
X115654524Y-77359218D01*
X115634927Y-77359731D01*
X114747331Y-77470680D01*
X114747331Y-77298244D01*
X114745410Y-77278735D01*
X114730478Y-77242687D01*
X114702888Y-77215097D01*
X114666840Y-77200165D01*
X114627822Y-77200165D01*
X114591774Y-77215097D01*
X114564184Y-77242687D01*
X114549252Y-77278735D01*
X114547331Y-77298244D01*
X114436220Y-77298244D01*
X114436220Y-76631578D01*
X114547331Y-76631578D01*
X114547331Y-76869673D01*
X114548436Y-76880896D01*
X114548287Y-76883468D01*
X114548967Y-76886289D01*
X114549252Y-76889182D01*
X114550238Y-76891563D01*
X114552881Y-76902525D01*
X114600500Y-77039430D01*
X114608724Y-77057225D01*
X114634669Y-77086367D01*
X114669792Y-77103362D01*
X114708745Y-77105622D01*
X114745597Y-77092804D01*
X114774739Y-77066858D01*
X114791734Y-77031736D01*
X114793994Y-76992783D01*
X114789400Y-76973726D01*
X114747331Y-76852777D01*
X114747331Y-76653931D01*
X114779282Y-76586033D01*
X114807758Y-76553997D01*
X114872100Y-76513783D01*
X114921002Y-76507670D01*
X114976129Y-76528343D01*
X114996278Y-76545974D01*
X115029672Y-76608587D01*
X115074312Y-76781565D01*
X115075295Y-76784253D01*
X115075419Y-76785519D01*
X115078379Y-76792685D01*
X115081047Y-76799976D01*
X115081812Y-76800992D01*
X115082905Y-76803637D01*
X115130524Y-76892922D01*
X115138612Y-76905052D01*
X115139491Y-76906828D01*
X115140547Y-76907953D01*
X115141400Y-76909232D01*
X115142924Y-76910485D01*
X115152908Y-76921120D01*
X115200527Y-76962787D01*
X115212183Y-76971121D01*
X115213674Y-76972514D01*
X115215137Y-76973233D01*
X115216474Y-76974189D01*
X115218418Y-76974846D01*
X115231266Y-76981163D01*
X115326504Y-77016877D01*
X115345445Y-77021928D01*
X115350014Y-77021772D01*
X115354423Y-77022985D01*
X115374020Y-77022472D01*
X115469258Y-77010567D01*
X115488378Y-77006241D01*
X115490211Y-77005198D01*
X115492292Y-77004850D01*
X115509853Y-76996139D01*
X115559819Y-76964911D01*
X116157275Y-76964911D01*
X116157275Y-77155387D01*
X116159196Y-77174896D01*
X116161076Y-77179436D01*
X116161554Y-77184328D01*
X116169040Y-77202446D01*
X116216659Y-77291731D01*
X116224747Y-77303861D01*
X116225626Y-77305637D01*
X116226682Y-77306762D01*
X116227535Y-77308041D01*
X116229059Y-77309294D01*
X116239043Y-77319929D01*
X116334281Y-77403264D01*
X116334580Y-77403478D01*
X116334691Y-77403620D01*
X116335120Y-77403864D01*
X116350228Y-77414665D01*
X116359815Y-77417907D01*
X116368609Y-77422908D01*
X116386716Y-77427005D01*
X116387190Y-77427165D01*
X116387370Y-77427152D01*
X116387729Y-77427234D01*
X116578205Y-77451043D01*
X116581901Y-77451139D01*
X116583415Y-77451556D01*
X116590608Y-77451367D01*
X116597801Y-77451556D01*
X116599314Y-77451139D01*
X116603011Y-77451043D01*
X116936344Y-77409377D01*
X116938926Y-77408792D01*
X116940112Y-77408833D01*
X116947748Y-77406796D01*
X116955464Y-77405051D01*
X116956496Y-77404464D01*
X116959054Y-77403782D01*
X117149530Y-77332353D01*
X117167122Y-77323704D01*
X117170544Y-77320506D01*
X117174761Y-77318462D01*
X117189158Y-77305157D01*
X117284397Y-77198014D01*
X117288345Y-77192581D01*
X117290093Y-77190991D01*
X117292808Y-77186439D01*
X117295922Y-77182156D01*
X117296695Y-77179925D01*
X117300138Y-77174157D01*
X117347757Y-77072967D01*
X117354326Y-77054496D01*
X117354438Y-77052105D01*
X117355354Y-77049896D01*
X117357275Y-77030387D01*
X117357275Y-76839911D01*
X117355354Y-76820402D01*
X117353473Y-76815861D01*
X117352996Y-76810970D01*
X117345511Y-76792853D01*
X117297891Y-76703566D01*
X117289798Y-76691428D01*
X117288923Y-76689659D01*
X117287871Y-76688538D01*
X117287016Y-76687256D01*
X117285486Y-76685998D01*
X117279101Y-76679197D01*
X117767219Y-76679197D01*
X117767219Y-76917292D01*
X117768324Y-76928515D01*
X117768175Y-76931087D01*
X117768855Y-76933908D01*
X117769140Y-76936801D01*
X117770126Y-76939182D01*
X117772769Y-76950144D01*
X117820388Y-77087049D01*
X117828612Y-77104844D01*
X117854557Y-77133986D01*
X117889680Y-77150981D01*
X117928633Y-77153241D01*
X117965485Y-77140423D01*
X117994627Y-77114477D01*
X118011622Y-77079355D01*
X118013882Y-77040402D01*
X118009288Y-77021345D01*
X117967219Y-76900396D01*
X117967219Y-76701550D01*
X117999170Y-76633652D01*
X118027646Y-76601616D01*
X118091988Y-76561402D01*
X118140890Y-76555289D01*
X118196017Y-76575962D01*
X118216166Y-76593593D01*
X118249560Y-76656206D01*
X118294200Y-76829184D01*
X118295183Y-76831872D01*
X118295307Y-76833138D01*
X118298267Y-76840304D01*
X118300935Y-76847595D01*
X118301700Y-76848611D01*
X118302793Y-76851256D01*
X118350412Y-76940541D01*
X118358500Y-76952671D01*
X118359379Y-76954447D01*
X118360435Y-76955572D01*
X118361288Y-76956851D01*
X118362812Y-76958104D01*
X118372796Y-76968739D01*
X118420415Y-77010406D01*
X118432071Y-77018740D01*
X118433562Y-77020133D01*
X118435025Y-77020852D01*
X118436362Y-77021808D01*
X118438306Y-77022465D01*
X118451154Y-77028782D01*
X118546392Y-77064496D01*
X118565333Y-77069547D01*
X118569902Y-77069391D01*
X118574311Y-77070604D01*
X118593908Y-77070091D01*
X118689146Y-77058186D01*
X118708266Y-77053860D01*
X118710099Y-77052817D01*
X118712180Y-77052469D01*
X118729741Y-77043758D01*
X118824980Y-76984235D01*
X118830213Y-76980200D01*
X118832324Y-76979177D01*
X118836265Y-76975534D01*
X118840505Y-76972266D01*
X118841863Y-76970360D01*
X118846721Y-76965872D01*
X118894340Y-76912300D01*
X118898287Y-76906868D01*
X118900037Y-76905277D01*
X118902754Y-76900723D01*
X118905866Y-76896442D01*
X118906639Y-76894211D01*
X118910082Y-76888443D01*
X118957701Y-76787253D01*
X118964270Y-76768782D01*
X118964382Y-76766391D01*
X118965298Y-76764182D01*
X118967219Y-76744673D01*
X118967219Y-76506577D01*
X118966113Y-76495353D01*
X118966263Y-76492782D01*
X118965582Y-76489960D01*
X118965298Y-76487068D01*
X118964311Y-76484686D01*
X118961669Y-76473725D01*
X118914050Y-76336821D01*
X118905826Y-76319026D01*
X118879880Y-76289884D01*
X118844758Y-76272889D01*
X118805805Y-76270629D01*
X118768953Y-76283447D01*
X118739811Y-76309393D01*
X118722816Y-76344515D01*
X118720556Y-76383468D01*
X118725150Y-76402525D01*
X118767219Y-76523472D01*
X118767219Y-76722318D01*
X118735266Y-76790217D01*
X118706787Y-76822255D01*
X118642450Y-76862466D01*
X118593546Y-76868579D01*
X118538419Y-76847906D01*
X118518269Y-76830275D01*
X118484876Y-76767663D01*
X118440237Y-76594685D01*
X118439253Y-76591996D01*
X118439130Y-76590732D01*
X118436168Y-76583564D01*
X118433502Y-76576275D01*
X118432737Y-76575259D01*
X118431645Y-76572615D01*
X118384025Y-76483328D01*
X118375933Y-76471193D01*
X118375058Y-76469422D01*
X118374005Y-76468300D01*
X118373150Y-76467018D01*
X118371621Y-76465760D01*
X118361641Y-76455130D01*
X118314022Y-76413463D01*
X118302365Y-76405128D01*
X118300875Y-76403736D01*
X118299411Y-76403016D01*
X118298075Y-76402061D01*
X118296130Y-76401403D01*
X118283283Y-76395087D01*
X118188045Y-76359373D01*
X118169104Y-76354322D01*
X118164534Y-76354477D01*
X118160126Y-76353265D01*
X118140529Y-76353778D01*
X118045291Y-76365683D01*
X118026171Y-76370009D01*
X118024335Y-76371052D01*
X118022256Y-76371401D01*
X118004695Y-76380111D01*
X117909457Y-76439635D01*
X117904222Y-76443670D01*
X117902113Y-76444693D01*
X117898175Y-76448332D01*
X117893931Y-76451604D01*
X117892570Y-76453511D01*
X117887716Y-76457998D01*
X117840097Y-76511569D01*
X117836148Y-76517001D01*
X117834401Y-76518592D01*
X117831685Y-76523143D01*
X117828572Y-76527427D01*
X117827798Y-76529657D01*
X117824356Y-76535426D01*
X117776737Y-76636618D01*
X117770168Y-76655088D01*
X117770055Y-76657478D01*
X117769140Y-76659688D01*
X117767219Y-76679197D01*
X117279101Y-76679197D01*
X117275506Y-76675367D01*
X117180267Y-76592034D01*
X117179969Y-76591821D01*
X117179858Y-76591678D01*
X117179423Y-76591430D01*
X117164320Y-76580633D01*
X117154735Y-76577391D01*
X117145940Y-76572390D01*
X117127829Y-76568292D01*
X117127358Y-76568133D01*
X117127178Y-76568145D01*
X117126820Y-76568064D01*
X116936345Y-76544254D01*
X116932647Y-76544157D01*
X116931134Y-76543741D01*
X116923941Y-76543929D01*
X116916748Y-76543741D01*
X116915234Y-76544157D01*
X116911537Y-76544254D01*
X116578204Y-76585921D01*
X116575621Y-76586505D01*
X116574437Y-76586465D01*
X116566808Y-76588499D01*
X116559084Y-76590247D01*
X116558050Y-76590834D01*
X116555496Y-76591516D01*
X116365020Y-76662944D01*
X116347428Y-76671593D01*
X116344004Y-76674791D01*
X116339788Y-76676836D01*
X116325391Y-76690141D01*
X116230153Y-76797284D01*
X116226205Y-76802714D01*
X116224457Y-76804306D01*
X116221740Y-76808859D01*
X116218628Y-76813141D01*
X116217854Y-76815371D01*
X116214412Y-76821140D01*
X116166793Y-76922332D01*
X116160224Y-76940802D01*
X116160111Y-76943192D01*
X116159196Y-76945402D01*
X116157275Y-76964911D01*
X115559819Y-76964911D01*
X115605092Y-76936616D01*
X115610325Y-76932581D01*
X115612436Y-76931558D01*
X115616377Y-76927915D01*
X115620617Y-76924647D01*
X115621975Y-76922741D01*
X115626833Y-76918253D01*
X115674452Y-76864681D01*
X115678399Y-76859249D01*
X115680149Y-76857658D01*
X115682866Y-76853104D01*
X115685978Y-76848823D01*
X115686751Y-76846592D01*
X115690194Y-76840824D01*
X115737813Y-76739634D01*
X115744382Y-76721163D01*
X115744494Y-76718772D01*
X115745410Y-76716563D01*
X115747331Y-76697054D01*
X115747331Y-76458958D01*
X115746225Y-76447734D01*
X115746375Y-76445163D01*
X115745694Y-76442341D01*
X115745410Y-76439449D01*
X115744423Y-76437067D01*
X115741781Y-76426106D01*
X115694162Y-76289202D01*
X115685938Y-76271407D01*
X115659992Y-76242265D01*
X115624870Y-76225270D01*
X115585917Y-76223010D01*
X115549065Y-76235828D01*
X115519923Y-76261774D01*
X115502928Y-76296896D01*
X115500668Y-76335849D01*
X115505262Y-76354906D01*
X115547331Y-76475853D01*
X115547331Y-76674699D01*
X115515378Y-76742598D01*
X115486899Y-76774636D01*
X115422562Y-76814847D01*
X115373658Y-76820960D01*
X115318531Y-76800287D01*
X115298381Y-76782656D01*
X115264988Y-76720044D01*
X115220349Y-76547066D01*
X115219365Y-76544377D01*
X115219242Y-76543113D01*
X115216280Y-76535945D01*
X115213614Y-76528656D01*
X115212849Y-76527640D01*
X115211757Y-76524996D01*
X115164137Y-76435709D01*
X115156045Y-76423574D01*
X115155170Y-76421803D01*
X115154117Y-76420681D01*
X115153262Y-76419399D01*
X115151733Y-76418141D01*
X115141753Y-76407511D01*
X115094134Y-76365844D01*
X115082477Y-76357509D01*
X115080987Y-76356117D01*
X115079523Y-76355397D01*
X115078187Y-76354442D01*
X115076242Y-76353784D01*
X115063395Y-76347468D01*
X114968157Y-76311754D01*
X114949216Y-76306703D01*
X114944646Y-76306858D01*
X114940238Y-76305646D01*
X114920641Y-76306159D01*
X114825403Y-76318064D01*
X114806283Y-76322390D01*
X114804447Y-76323433D01*
X114802368Y-76323782D01*
X114784807Y-76332492D01*
X114689569Y-76392016D01*
X114684334Y-76396051D01*
X114682225Y-76397074D01*
X114678287Y-76400713D01*
X114674043Y-76403985D01*
X114672682Y-76405892D01*
X114667828Y-76410379D01*
X114620209Y-76463950D01*
X114616260Y-76469382D01*
X114614513Y-76470973D01*
X114611797Y-76475524D01*
X114608684Y-76479808D01*
X114607910Y-76482038D01*
X114604468Y-76487807D01*
X114556849Y-76588999D01*
X114550280Y-76607469D01*
X114550167Y-76609859D01*
X114549252Y-76612069D01*
X114547331Y-76631578D01*
X114436220Y-76631578D01*
X114436220Y-75488720D01*
X114547331Y-75488720D01*
X114547331Y-75869673D01*
X114549252Y-75889182D01*
X114551132Y-75893722D01*
X114551610Y-75898614D01*
X114559096Y-75916732D01*
X114606715Y-76006017D01*
X114614803Y-76018147D01*
X114615682Y-76019923D01*
X114616738Y-76021048D01*
X114617591Y-76022327D01*
X114619115Y-76023580D01*
X114629099Y-76034215D01*
X114676718Y-76075882D01*
X114688374Y-76084216D01*
X114689865Y-76085609D01*
X114691328Y-76086328D01*
X114692665Y-76087284D01*
X114694609Y-76087941D01*
X114707457Y-76094258D01*
X114802695Y-76129972D01*
X114821636Y-76135023D01*
X114826205Y-76134867D01*
X114830614Y-76136080D01*
X114850210Y-76135567D01*
X114993068Y-76117710D01*
X115012188Y-76113384D01*
X115014021Y-76112341D01*
X115016102Y-76111993D01*
X115026444Y-76106863D01*
X116157279Y-76106863D01*
X116159536Y-76118774D01*
X116159986Y-76130898D01*
X116163137Y-76137774D01*
X116164545Y-76145199D01*
X116171187Y-76155336D01*
X116176243Y-76166368D01*
X116181786Y-76171515D01*
X116185928Y-76177836D01*
X116195946Y-76184662D01*
X116204837Y-76192917D01*
X116211925Y-76195549D01*
X116218172Y-76199806D01*
X116236880Y-76205666D01*
X117236880Y-76413999D01*
X117256371Y-76416097D01*
X117294706Y-76408831D01*
X117327343Y-76387448D01*
X117349314Y-76355204D01*
X117357272Y-76317006D01*
X117350006Y-76278670D01*
X117328623Y-76246033D01*
X117296378Y-76224063D01*
X117277671Y-76218203D01*
X117071560Y-76175263D01*
X117071560Y-75844556D01*
X117298941Y-75740340D01*
X117315875Y-75730466D01*
X117342424Y-75701872D01*
X117356009Y-75665295D01*
X117354759Y-75631577D01*
X117767219Y-75631577D01*
X117767219Y-76107768D01*
X117769140Y-76127277D01*
X117784072Y-76163325D01*
X117811662Y-76190915D01*
X117847710Y-76205847D01*
X117886728Y-76205847D01*
X117922776Y-76190915D01*
X117950366Y-76163325D01*
X117965298Y-76127277D01*
X117967219Y-76107768D01*
X117967219Y-75719855D01*
X118243409Y-75685331D01*
X118243409Y-75905387D01*
X118245330Y-75924896D01*
X118260262Y-75960944D01*
X118287852Y-75988534D01*
X118323900Y-76003466D01*
X118362918Y-76003466D01*
X118398966Y-75988534D01*
X118426556Y-75960944D01*
X118441488Y-75924896D01*
X118443409Y-75905387D01*
X118443409Y-75660331D01*
X118767219Y-75619855D01*
X118767219Y-75982768D01*
X118769140Y-76002277D01*
X118784072Y-76038325D01*
X118811662Y-76065915D01*
X118847710Y-76080847D01*
X118886728Y-76080847D01*
X118922776Y-76065915D01*
X118950366Y-76038325D01*
X118965298Y-76002277D01*
X118967219Y-75982768D01*
X118967219Y-75506577D01*
X118965298Y-75487068D01*
X118962898Y-75481275D01*
X118962121Y-75475053D01*
X118955494Y-75463399D01*
X118950366Y-75451020D01*
X118945932Y-75446586D01*
X118942833Y-75441136D01*
X118932253Y-75432907D01*
X118922776Y-75423430D01*
X118916983Y-75421030D01*
X118912034Y-75417181D01*
X118899112Y-75413627D01*
X118886728Y-75408498D01*
X118880456Y-75408498D01*
X118874412Y-75406836D01*
X118854815Y-75407349D01*
X117854816Y-75532349D01*
X117849737Y-75533498D01*
X117847710Y-75533498D01*
X117845269Y-75534508D01*
X117835695Y-75536675D01*
X117824041Y-75543301D01*
X117811662Y-75548430D01*
X117807228Y-75552863D01*
X117801778Y-75555963D01*
X117793549Y-75566542D01*
X117784072Y-75576020D01*
X117781672Y-75581812D01*
X117777823Y-75586762D01*
X117774269Y-75599683D01*
X117769140Y-75612068D01*
X117768177Y-75621838D01*
X117767478Y-75624384D01*
X117767729Y-75626394D01*
X117767219Y-75631577D01*
X117354759Y-75631577D01*
X117354564Y-75626304D01*
X117338307Y-75590834D01*
X117309713Y-75564285D01*
X117273136Y-75550700D01*
X117234145Y-75552145D01*
X117215610Y-75558527D01*
X116215609Y-76016862D01*
X116198675Y-76026736D01*
X116193527Y-76032279D01*
X116187207Y-76036421D01*
X116180380Y-76046439D01*
X116172126Y-76055330D01*
X116169493Y-76062418D01*
X116165237Y-76068665D01*
X116162763Y-76080538D01*
X116158541Y-76091907D01*
X116158820Y-76099461D01*
X116157279Y-76106863D01*
X115026444Y-76106863D01*
X115033664Y-76103282D01*
X115128902Y-76043758D01*
X115134135Y-76039723D01*
X115136246Y-76038700D01*
X115140187Y-76035057D01*
X115144427Y-76031789D01*
X115145785Y-76029884D01*
X115150643Y-76025395D01*
X115198262Y-75971823D01*
X115202209Y-75966392D01*
X115203958Y-75964801D01*
X115206674Y-75960247D01*
X115209787Y-75955966D01*
X115210560Y-75953735D01*
X115214003Y-75947967D01*
X115261622Y-75846777D01*
X115266953Y-75831784D01*
X115597484Y-76021839D01*
X115615354Y-76029899D01*
X115654047Y-76034923D01*
X115691718Y-76024758D01*
X115722631Y-76000951D01*
X115742081Y-75967126D01*
X115747105Y-75928433D01*
X115736940Y-75890762D01*
X115713133Y-75859848D01*
X115697178Y-75848458D01*
X115271140Y-75603485D01*
X115271140Y-75511522D01*
X115659734Y-75462948D01*
X115678854Y-75458622D01*
X115712772Y-75439334D01*
X115716992Y-75433908D01*
X116157534Y-75433908D01*
X116162373Y-75472625D01*
X116181661Y-75506542D01*
X116212460Y-75530497D01*
X116250082Y-75540842D01*
X116269678Y-75540329D01*
X117269678Y-75415329D01*
X117288798Y-75411003D01*
X117322716Y-75391715D01*
X117346671Y-75360916D01*
X117357016Y-75323294D01*
X117352177Y-75284577D01*
X117332889Y-75250660D01*
X117302090Y-75226705D01*
X117264468Y-75216360D01*
X117244871Y-75216873D01*
X116244872Y-75341873D01*
X116225751Y-75346199D01*
X116191834Y-75365487D01*
X116167879Y-75396286D01*
X116157534Y-75433908D01*
X115716992Y-75433908D01*
X115736727Y-75408535D01*
X115747072Y-75370913D01*
X115742233Y-75332196D01*
X115722945Y-75298279D01*
X115692146Y-75274324D01*
X115654524Y-75263979D01*
X115634927Y-75264492D01*
X114634928Y-75389492D01*
X114629849Y-75390641D01*
X114627822Y-75390641D01*
X114625381Y-75391651D01*
X114615807Y-75393818D01*
X114604153Y-75400444D01*
X114591774Y-75405573D01*
X114587340Y-75410006D01*
X114581890Y-75413106D01*
X114573661Y-75423685D01*
X114564184Y-75433163D01*
X114561784Y-75438955D01*
X114557935Y-75443905D01*
X114554381Y-75456826D01*
X114549252Y-75469211D01*
X114548289Y-75478981D01*
X114547590Y-75481527D01*
X114547841Y-75483537D01*
X114547331Y-75488720D01*
X114436220Y-75488720D01*
X114436220Y-74488720D01*
X114547331Y-74488720D01*
X114547331Y-74869673D01*
X114549252Y-74889182D01*
X114551132Y-74893722D01*
X114551610Y-74898614D01*
X114559096Y-74916732D01*
X114606715Y-75006017D01*
X114614803Y-75018147D01*
X114615682Y-75019923D01*
X114616738Y-75021048D01*
X114617591Y-75022327D01*
X114619115Y-75023580D01*
X114629099Y-75034215D01*
X114676718Y-75075882D01*
X114688374Y-75084216D01*
X114689865Y-75085609D01*
X114691328Y-75086328D01*
X114692665Y-75087284D01*
X114694609Y-75087941D01*
X114707457Y-75094258D01*
X114802695Y-75129972D01*
X114821636Y-75135023D01*
X114826205Y-75134867D01*
X114830614Y-75136080D01*
X114850210Y-75135567D01*
X114993068Y-75117710D01*
X115012188Y-75113384D01*
X115014021Y-75112341D01*
X115016102Y-75111993D01*
X115033664Y-75103282D01*
X115089797Y-75068199D01*
X116157600Y-75068199D01*
X116168267Y-75105731D01*
X116192486Y-75136323D01*
X116226568Y-75155318D01*
X116265325Y-75159824D01*
X116300201Y-75149912D01*
X117767369Y-75149912D01*
X117770000Y-75168379D01*
X117772317Y-75186911D01*
X117772750Y-75187673D01*
X117772874Y-75188540D01*
X117782384Y-75204614D01*
X117791605Y-75220828D01*
X117792295Y-75221364D01*
X117792742Y-75222120D01*
X117807672Y-75233324D01*
X117822404Y-75244783D01*
X117823249Y-75245015D01*
X117823950Y-75245541D01*
X117842019Y-75250176D01*
X117860026Y-75255128D01*
X117861199Y-75255097D01*
X117861744Y-75255237D01*
X117863067Y-75255048D01*
X117879622Y-75254615D01*
X118879622Y-75129615D01*
X118898742Y-75125289D01*
X118932660Y-75106001D01*
X118956615Y-75075202D01*
X118966960Y-75037580D01*
X118962121Y-74998863D01*
X118942833Y-74964946D01*
X118912034Y-74940991D01*
X118874412Y-74930646D01*
X118854815Y-74931159D01*
X118332156Y-74996491D01*
X118632426Y-74818832D01*
X118639861Y-74813382D01*
X118642223Y-74812224D01*
X118643642Y-74810611D01*
X118648238Y-74807244D01*
X118657644Y-74794709D01*
X118668008Y-74782940D01*
X118669287Y-74779196D01*
X118671658Y-74776037D01*
X118675551Y-74760861D01*
X118680623Y-74746017D01*
X118680372Y-74742070D01*
X118681354Y-74738243D01*
X118679142Y-74722725D01*
X118678148Y-74707078D01*
X118676406Y-74703529D01*
X118675849Y-74699615D01*
X118667863Y-74686118D01*
X118660960Y-74672049D01*
X118657994Y-74669437D01*
X118655981Y-74666035D01*
X118643444Y-74656626D01*
X118631676Y-74646264D01*
X118626490Y-74643902D01*
X118624774Y-74642614D01*
X118622227Y-74641960D01*
X118613836Y-74638139D01*
X118309619Y-74534198D01*
X118879622Y-74462948D01*
X118898742Y-74458622D01*
X118932660Y-74439334D01*
X118956615Y-74408535D01*
X118966960Y-74370913D01*
X118962121Y-74332196D01*
X118942833Y-74298279D01*
X118912034Y-74274324D01*
X118874412Y-74263979D01*
X118854815Y-74264492D01*
X117854816Y-74389492D01*
X117844123Y-74391911D01*
X117841529Y-74392076D01*
X117839932Y-74392859D01*
X117835695Y-74393818D01*
X117821328Y-74401987D01*
X117806500Y-74409264D01*
X117804460Y-74411580D01*
X117801778Y-74413106D01*
X117791639Y-74426140D01*
X117780715Y-74438548D01*
X117779716Y-74441470D01*
X117777823Y-74443905D01*
X117773444Y-74459826D01*
X117768100Y-74475471D01*
X117768295Y-74478552D01*
X117767478Y-74481527D01*
X117769526Y-74497920D01*
X117770575Y-74514410D01*
X117771934Y-74517179D01*
X117772317Y-74520244D01*
X117780486Y-74534610D01*
X117787763Y-74549439D01*
X117790079Y-74551478D01*
X117791605Y-74554161D01*
X117804639Y-74564299D01*
X117817047Y-74575224D01*
X117821001Y-74577024D01*
X117822404Y-74578116D01*
X117824909Y-74578805D01*
X117834887Y-74583349D01*
X118343788Y-74757224D01*
X117816298Y-75069323D01*
X117802937Y-75079113D01*
X117801778Y-75079773D01*
X117801433Y-75080215D01*
X117800486Y-75080910D01*
X117789281Y-75095840D01*
X117777823Y-75110572D01*
X117777590Y-75111417D01*
X117777065Y-75112118D01*
X117772429Y-75130187D01*
X117767478Y-75148194D01*
X117767586Y-75149063D01*
X117767369Y-75149912D01*
X116300201Y-75149912D01*
X116302857Y-75149157D01*
X116319345Y-75138554D01*
X116767636Y-74783655D01*
X117209647Y-75023078D01*
X117227716Y-75030681D01*
X117266524Y-75034720D01*
X117303925Y-75023601D01*
X117334223Y-74999017D01*
X117352807Y-74964708D01*
X117356847Y-74925900D01*
X117345727Y-74888499D01*
X117321143Y-74858201D01*
X117304903Y-74847220D01*
X116938227Y-74648604D01*
X117319345Y-74346886D01*
X117333449Y-74333271D01*
X117352444Y-74299189D01*
X117356951Y-74260432D01*
X117346283Y-74222900D01*
X117322064Y-74192308D01*
X117287982Y-74173313D01*
X117249225Y-74168806D01*
X117211693Y-74179474D01*
X117195205Y-74190077D01*
X116746912Y-74544975D01*
X116304903Y-74305553D01*
X116286834Y-74297950D01*
X116248026Y-74293911D01*
X116210625Y-74305030D01*
X116180327Y-74329614D01*
X116161743Y-74363923D01*
X116157704Y-74402731D01*
X116168823Y-74440132D01*
X116193407Y-74470430D01*
X116209647Y-74481411D01*
X116576321Y-74680026D01*
X116195205Y-74981744D01*
X116181101Y-74995360D01*
X116162106Y-75029442D01*
X116157600Y-75068199D01*
X115089797Y-75068199D01*
X115128902Y-75043758D01*
X115134135Y-75039723D01*
X115136246Y-75038700D01*
X115140187Y-75035057D01*
X115144427Y-75031789D01*
X115145785Y-75029884D01*
X115150643Y-75025395D01*
X115198262Y-74971823D01*
X115202209Y-74966392D01*
X115203958Y-74964801D01*
X115206674Y-74960247D01*
X115209787Y-74955966D01*
X115210560Y-74953735D01*
X115214003Y-74947967D01*
X115261622Y-74846777D01*
X115266953Y-74831784D01*
X115597484Y-75021839D01*
X115615354Y-75029899D01*
X115654047Y-75034923D01*
X115691718Y-75024758D01*
X115722631Y-75000951D01*
X115742081Y-74967126D01*
X115747105Y-74928433D01*
X115736940Y-74890762D01*
X115713133Y-74859848D01*
X115697178Y-74848458D01*
X115271140Y-74603485D01*
X115271140Y-74511522D01*
X115659734Y-74462948D01*
X115678854Y-74458622D01*
X115712772Y-74439334D01*
X115736727Y-74408535D01*
X115747072Y-74370913D01*
X115742233Y-74332196D01*
X115722945Y-74298279D01*
X115692146Y-74274324D01*
X115654524Y-74263979D01*
X115634927Y-74264492D01*
X114634928Y-74389492D01*
X114629849Y-74390641D01*
X114627822Y-74390641D01*
X114625381Y-74391651D01*
X114615807Y-74393818D01*
X114604153Y-74400444D01*
X114591774Y-74405573D01*
X114587340Y-74410006D01*
X114581890Y-74413106D01*
X114573661Y-74423685D01*
X114564184Y-74433163D01*
X114561784Y-74438955D01*
X114557935Y-74443905D01*
X114554381Y-74456826D01*
X114549252Y-74469211D01*
X114548289Y-74478981D01*
X114547590Y-74481527D01*
X114547841Y-74483537D01*
X114547331Y-74488720D01*
X114436220Y-74488720D01*
X114436220Y-74057695D01*
X119078330Y-74057695D01*
X119078330Y-86269339D01*
G37*
D11*
X126612200Y-81831667D02*
X126659819Y-81974524D01*
X126659819Y-81974524D02*
X126659819Y-82212619D01*
X126659819Y-82212619D02*
X126612200Y-82307857D01*
X126612200Y-82307857D02*
X126564580Y-82355476D01*
X126564580Y-82355476D02*
X126469342Y-82403095D01*
X126469342Y-82403095D02*
X126374104Y-82403095D01*
X126374104Y-82403095D02*
X126278866Y-82355476D01*
X126278866Y-82355476D02*
X126231247Y-82307857D01*
X126231247Y-82307857D02*
X126183628Y-82212619D01*
X126183628Y-82212619D02*
X126136009Y-82022143D01*
X126136009Y-82022143D02*
X126088390Y-81926905D01*
X126088390Y-81926905D02*
X126040771Y-81879286D01*
X126040771Y-81879286D02*
X125945533Y-81831667D01*
X125945533Y-81831667D02*
X125850295Y-81831667D01*
X125850295Y-81831667D02*
X125755057Y-81879286D01*
X125755057Y-81879286D02*
X125707438Y-81926905D01*
X125707438Y-81926905D02*
X125659819Y-82022143D01*
X125659819Y-82022143D02*
X125659819Y-82260238D01*
X125659819Y-82260238D02*
X125707438Y-82403095D01*
X125659819Y-82736429D02*
X126659819Y-82974524D01*
X126659819Y-82974524D02*
X125945533Y-83165000D01*
X125945533Y-83165000D02*
X126659819Y-83355476D01*
X126659819Y-83355476D02*
X125659819Y-83593572D01*
X125659819Y-83879286D02*
X125659819Y-84498333D01*
X125659819Y-84498333D02*
X126040771Y-84165000D01*
X126040771Y-84165000D02*
X126040771Y-84307857D01*
X126040771Y-84307857D02*
X126088390Y-84403095D01*
X126088390Y-84403095D02*
X126136009Y-84450714D01*
X126136009Y-84450714D02*
X126231247Y-84498333D01*
X126231247Y-84498333D02*
X126469342Y-84498333D01*
X126469342Y-84498333D02*
X126564580Y-84450714D01*
X126564580Y-84450714D02*
X126612200Y-84403095D01*
X126612200Y-84403095D02*
X126659819Y-84307857D01*
X126659819Y-84307857D02*
X126659819Y-84022143D01*
X126659819Y-84022143D02*
X126612200Y-83926905D01*
X126612200Y-83926905D02*
X126564580Y-83879286D01*
X98617609Y-57066714D02*
X98617609Y-57400047D01*
X99141419Y-57542904D02*
X99141419Y-57066714D01*
X99141419Y-57066714D02*
X98141419Y-57066714D01*
X98141419Y-57066714D02*
X98141419Y-57542904D01*
X99141419Y-57971476D02*
X98141419Y-57971476D01*
X98141419Y-57971476D02*
X99141419Y-58542904D01*
X99141419Y-58542904D02*
X98141419Y-58542904D01*
X99046180Y-59590523D02*
X99093800Y-59542904D01*
X99093800Y-59542904D02*
X99141419Y-59400047D01*
X99141419Y-59400047D02*
X99141419Y-59304809D01*
X99141419Y-59304809D02*
X99093800Y-59161952D01*
X99093800Y-59161952D02*
X98998561Y-59066714D01*
X98998561Y-59066714D02*
X98903323Y-59019095D01*
X98903323Y-59019095D02*
X98712847Y-58971476D01*
X98712847Y-58971476D02*
X98569990Y-58971476D01*
X98569990Y-58971476D02*
X98379514Y-59019095D01*
X98379514Y-59019095D02*
X98284276Y-59066714D01*
X98284276Y-59066714D02*
X98189038Y-59161952D01*
X98189038Y-59161952D02*
X98141419Y-59304809D01*
X98141419Y-59304809D02*
X98141419Y-59400047D01*
X98141419Y-59400047D02*
X98189038Y-59542904D01*
X98189038Y-59542904D02*
X98236657Y-59590523D01*
X99141419Y-60542904D02*
X99141419Y-59971476D01*
X99141419Y-60257190D02*
X98141419Y-60257190D01*
X98141419Y-60257190D02*
X98284276Y-60161952D01*
X98284276Y-60161952D02*
X98379514Y-60066714D01*
X98379514Y-60066714D02*
X98427133Y-59971476D01*
X120218132Y-89734200D02*
X120075275Y-89781819D01*
X120075275Y-89781819D02*
X119837180Y-89781819D01*
X119837180Y-89781819D02*
X119741942Y-89734200D01*
X119741942Y-89734200D02*
X119694323Y-89686580D01*
X119694323Y-89686580D02*
X119646704Y-89591342D01*
X119646704Y-89591342D02*
X119646704Y-89496104D01*
X119646704Y-89496104D02*
X119694323Y-89400866D01*
X119694323Y-89400866D02*
X119741942Y-89353247D01*
X119741942Y-89353247D02*
X119837180Y-89305628D01*
X119837180Y-89305628D02*
X120027656Y-89258009D01*
X120027656Y-89258009D02*
X120122894Y-89210390D01*
X120122894Y-89210390D02*
X120170513Y-89162771D01*
X120170513Y-89162771D02*
X120218132Y-89067533D01*
X120218132Y-89067533D02*
X120218132Y-88972295D01*
X120218132Y-88972295D02*
X120170513Y-88877057D01*
X120170513Y-88877057D02*
X120122894Y-88829438D01*
X120122894Y-88829438D02*
X120027656Y-88781819D01*
X120027656Y-88781819D02*
X119789561Y-88781819D01*
X119789561Y-88781819D02*
X119646704Y-88829438D01*
X119313370Y-88781819D02*
X119075275Y-89781819D01*
X119075275Y-89781819D02*
X118884799Y-89067533D01*
X118884799Y-89067533D02*
X118694323Y-89781819D01*
X118694323Y-89781819D02*
X118456228Y-88781819D01*
X117551466Y-89781819D02*
X118122894Y-89781819D01*
X117837180Y-89781819D02*
X117837180Y-88781819D01*
X117837180Y-88781819D02*
X117932418Y-88924676D01*
X117932418Y-88924676D02*
X118027656Y-89019914D01*
X118027656Y-89019914D02*
X118122894Y-89067533D01*
X108980123Y-89753619D02*
X108980123Y-88753619D01*
X108980123Y-88753619D02*
X108646790Y-89467904D01*
X108646790Y-89467904D02*
X108313457Y-88753619D01*
X108313457Y-88753619D02*
X108313457Y-89753619D01*
X107837266Y-89753619D02*
X107837266Y-88753619D01*
X107837266Y-88753619D02*
X107599171Y-88753619D01*
X107599171Y-88753619D02*
X107456314Y-88801238D01*
X107456314Y-88801238D02*
X107361076Y-88896476D01*
X107361076Y-88896476D02*
X107313457Y-88991714D01*
X107313457Y-88991714D02*
X107265838Y-89182190D01*
X107265838Y-89182190D02*
X107265838Y-89325047D01*
X107265838Y-89325047D02*
X107313457Y-89515523D01*
X107313457Y-89515523D02*
X107361076Y-89610761D01*
X107361076Y-89610761D02*
X107456314Y-89706000D01*
X107456314Y-89706000D02*
X107599171Y-89753619D01*
X107599171Y-89753619D02*
X107837266Y-89753619D01*
X106884885Y-88848857D02*
X106837266Y-88801238D01*
X106837266Y-88801238D02*
X106742028Y-88753619D01*
X106742028Y-88753619D02*
X106503933Y-88753619D01*
X106503933Y-88753619D02*
X106408695Y-88801238D01*
X106408695Y-88801238D02*
X106361076Y-88848857D01*
X106361076Y-88848857D02*
X106313457Y-88944095D01*
X106313457Y-88944095D02*
X106313457Y-89039333D01*
X106313457Y-89039333D02*
X106361076Y-89182190D01*
X106361076Y-89182190D02*
X106932504Y-89753619D01*
X106932504Y-89753619D02*
X106313457Y-89753619D01*
X98617609Y-70869714D02*
X98617609Y-71203047D01*
X99141419Y-71345904D02*
X99141419Y-70869714D01*
X99141419Y-70869714D02*
X98141419Y-70869714D01*
X98141419Y-70869714D02*
X98141419Y-71345904D01*
X99141419Y-71774476D02*
X98141419Y-71774476D01*
X98141419Y-71774476D02*
X99141419Y-72345904D01*
X99141419Y-72345904D02*
X98141419Y-72345904D01*
X99046180Y-73393523D02*
X99093800Y-73345904D01*
X99093800Y-73345904D02*
X99141419Y-73203047D01*
X99141419Y-73203047D02*
X99141419Y-73107809D01*
X99141419Y-73107809D02*
X99093800Y-72964952D01*
X99093800Y-72964952D02*
X98998561Y-72869714D01*
X98998561Y-72869714D02*
X98903323Y-72822095D01*
X98903323Y-72822095D02*
X98712847Y-72774476D01*
X98712847Y-72774476D02*
X98569990Y-72774476D01*
X98569990Y-72774476D02*
X98379514Y-72822095D01*
X98379514Y-72822095D02*
X98284276Y-72869714D01*
X98284276Y-72869714D02*
X98189038Y-72964952D01*
X98189038Y-72964952D02*
X98141419Y-73107809D01*
X98141419Y-73107809D02*
X98141419Y-73203047D01*
X98141419Y-73203047D02*
X98189038Y-73345904D01*
X98189038Y-73345904D02*
X98236657Y-73393523D01*
X98236657Y-73774476D02*
X98189038Y-73822095D01*
X98189038Y-73822095D02*
X98141419Y-73917333D01*
X98141419Y-73917333D02*
X98141419Y-74155428D01*
X98141419Y-74155428D02*
X98189038Y-74250666D01*
X98189038Y-74250666D02*
X98236657Y-74298285D01*
X98236657Y-74298285D02*
X98331895Y-74345904D01*
X98331895Y-74345904D02*
X98427133Y-74345904D01*
X98427133Y-74345904D02*
X98569990Y-74298285D01*
X98569990Y-74298285D02*
X99141419Y-73726857D01*
X99141419Y-73726857D02*
X99141419Y-74345904D01*
X99105419Y-85244476D02*
X98105419Y-85244476D01*
X98105419Y-85244476D02*
X98819704Y-85577809D01*
X98819704Y-85577809D02*
X98105419Y-85911142D01*
X98105419Y-85911142D02*
X99105419Y-85911142D01*
X99105419Y-86387333D02*
X98105419Y-86387333D01*
X98105419Y-86387333D02*
X98105419Y-86625428D01*
X98105419Y-86625428D02*
X98153038Y-86768285D01*
X98153038Y-86768285D02*
X98248276Y-86863523D01*
X98248276Y-86863523D02*
X98343514Y-86911142D01*
X98343514Y-86911142D02*
X98533990Y-86958761D01*
X98533990Y-86958761D02*
X98676847Y-86958761D01*
X98676847Y-86958761D02*
X98867323Y-86911142D01*
X98867323Y-86911142D02*
X98962561Y-86863523D01*
X98962561Y-86863523D02*
X99057800Y-86768285D01*
X99057800Y-86768285D02*
X99105419Y-86625428D01*
X99105419Y-86625428D02*
X99105419Y-86387333D01*
X99105419Y-87911142D02*
X99105419Y-87339714D01*
X99105419Y-87625428D02*
X98105419Y-87625428D01*
X98105419Y-87625428D02*
X98248276Y-87530190D01*
X98248276Y-87530190D02*
X98343514Y-87434952D01*
X98343514Y-87434952D02*
X98391133Y-87339714D01*
X126564580Y-57698152D02*
X126612200Y-57650533D01*
X126612200Y-57650533D02*
X126659819Y-57507676D01*
X126659819Y-57507676D02*
X126659819Y-57412438D01*
X126659819Y-57412438D02*
X126612200Y-57269581D01*
X126612200Y-57269581D02*
X126516961Y-57174343D01*
X126516961Y-57174343D02*
X126421723Y-57126724D01*
X126421723Y-57126724D02*
X126231247Y-57079105D01*
X126231247Y-57079105D02*
X126088390Y-57079105D01*
X126088390Y-57079105D02*
X125897914Y-57126724D01*
X125897914Y-57126724D02*
X125802676Y-57174343D01*
X125802676Y-57174343D02*
X125707438Y-57269581D01*
X125707438Y-57269581D02*
X125659819Y-57412438D01*
X125659819Y-57412438D02*
X125659819Y-57507676D01*
X125659819Y-57507676D02*
X125707438Y-57650533D01*
X125707438Y-57650533D02*
X125755057Y-57698152D01*
X126374104Y-58079105D02*
X126374104Y-58555295D01*
X126659819Y-57983867D02*
X125659819Y-58317200D01*
X125659819Y-58317200D02*
X126659819Y-58650533D01*
X126659819Y-58983867D02*
X125659819Y-58983867D01*
X125659819Y-58983867D02*
X126659819Y-59555295D01*
X126659819Y-59555295D02*
X125659819Y-59555295D01*
X126659819Y-60555295D02*
X126659819Y-59983867D01*
X126659819Y-60269581D02*
X125659819Y-60269581D01*
X125659819Y-60269581D02*
X125802676Y-60174343D01*
X125802676Y-60174343D02*
X125897914Y-60079105D01*
X125897914Y-60079105D02*
X125945533Y-59983867D01*
X128841332Y-89731400D02*
X128698475Y-89779019D01*
X128698475Y-89779019D02*
X128460380Y-89779019D01*
X128460380Y-89779019D02*
X128365142Y-89731400D01*
X128365142Y-89731400D02*
X128317523Y-89683780D01*
X128317523Y-89683780D02*
X128269904Y-89588542D01*
X128269904Y-89588542D02*
X128269904Y-89493304D01*
X128269904Y-89493304D02*
X128317523Y-89398066D01*
X128317523Y-89398066D02*
X128365142Y-89350447D01*
X128365142Y-89350447D02*
X128460380Y-89302828D01*
X128460380Y-89302828D02*
X128650856Y-89255209D01*
X128650856Y-89255209D02*
X128746094Y-89207590D01*
X128746094Y-89207590D02*
X128793713Y-89159971D01*
X128793713Y-89159971D02*
X128841332Y-89064733D01*
X128841332Y-89064733D02*
X128841332Y-88969495D01*
X128841332Y-88969495D02*
X128793713Y-88874257D01*
X128793713Y-88874257D02*
X128746094Y-88826638D01*
X128746094Y-88826638D02*
X128650856Y-88779019D01*
X128650856Y-88779019D02*
X128412761Y-88779019D01*
X128412761Y-88779019D02*
X128269904Y-88826638D01*
X127936570Y-88779019D02*
X127698475Y-89779019D01*
X127698475Y-89779019D02*
X127507999Y-89064733D01*
X127507999Y-89064733D02*
X127317523Y-89779019D01*
X127317523Y-89779019D02*
X127079428Y-88779019D01*
X126746094Y-88874257D02*
X126698475Y-88826638D01*
X126698475Y-88826638D02*
X126603237Y-88779019D01*
X126603237Y-88779019D02*
X126365142Y-88779019D01*
X126365142Y-88779019D02*
X126269904Y-88826638D01*
X126269904Y-88826638D02*
X126222285Y-88874257D01*
X126222285Y-88874257D02*
X126174666Y-88969495D01*
X126174666Y-88969495D02*
X126174666Y-89064733D01*
X126174666Y-89064733D02*
X126222285Y-89207590D01*
X126222285Y-89207590D02*
X126793713Y-89779019D01*
X126793713Y-89779019D02*
X126174666Y-89779019D01*
X126564580Y-71134752D02*
X126612200Y-71087133D01*
X126612200Y-71087133D02*
X126659819Y-70944276D01*
X126659819Y-70944276D02*
X126659819Y-70849038D01*
X126659819Y-70849038D02*
X126612200Y-70706181D01*
X126612200Y-70706181D02*
X126516961Y-70610943D01*
X126516961Y-70610943D02*
X126421723Y-70563324D01*
X126421723Y-70563324D02*
X126231247Y-70515705D01*
X126231247Y-70515705D02*
X126088390Y-70515705D01*
X126088390Y-70515705D02*
X125897914Y-70563324D01*
X125897914Y-70563324D02*
X125802676Y-70610943D01*
X125802676Y-70610943D02*
X125707438Y-70706181D01*
X125707438Y-70706181D02*
X125659819Y-70849038D01*
X125659819Y-70849038D02*
X125659819Y-70944276D01*
X125659819Y-70944276D02*
X125707438Y-71087133D01*
X125707438Y-71087133D02*
X125755057Y-71134752D01*
X126374104Y-71515705D02*
X126374104Y-71991895D01*
X126659819Y-71420467D02*
X125659819Y-71753800D01*
X125659819Y-71753800D02*
X126659819Y-72087133D01*
X126659819Y-72420467D02*
X125659819Y-72420467D01*
X125659819Y-72420467D02*
X126659819Y-72991895D01*
X126659819Y-72991895D02*
X125659819Y-72991895D01*
X125755057Y-73420467D02*
X125707438Y-73468086D01*
X125707438Y-73468086D02*
X125659819Y-73563324D01*
X125659819Y-73563324D02*
X125659819Y-73801419D01*
X125659819Y-73801419D02*
X125707438Y-73896657D01*
X125707438Y-73896657D02*
X125755057Y-73944276D01*
X125755057Y-73944276D02*
X125850295Y-73991895D01*
X125850295Y-73991895D02*
X125945533Y-73991895D01*
X125945533Y-73991895D02*
X126088390Y-73944276D01*
X126088390Y-73944276D02*
X126659819Y-73372848D01*
X126659819Y-73372848D02*
X126659819Y-73991895D01*
M02*
