M48
; DRILL file KiCad 10.0.6 date 2026-09-08T22:17:55
; FORMAT={-:-/ absolute / metric / decimal}
; #@! TF.CreationDate,2026-09-08T22:17:55+09:00
; #@! TF.GenerationSoftware,Kicad,Pcbnew,10.0.6
; #@! TF.FileFunction,Plated,1,2,PTH
FMAT,2
METRIC
; #@! TA.AperFunction,Plated,PTH,ViaDrill
T1C0.300
; #@! TA.AperFunction,Plated,PTH,ComponentDrill
T2C0.800
; #@! TA.AperFunction,Plated,PTH,ComponentDrill
T3C0.950
; #@! TA.AperFunction,Plated,PTH,ComponentDrill
T4C1.000
%
G90
G05
T1
X93.98Y-57.531
X95.504Y-93.218
X97.917Y-53.34
X98.552Y-88.646
X98.679Y-93.218
X98.806Y-83.439
X101.346Y-55.372
X101.346Y-80.264
X101.854Y-93.218
X102.912Y-61.373
X103.251Y-85.09
X104.521Y-74.168
X107.935Y-73.179
X108.3Y-64.86
X108.331Y-53.721
X108.458Y-56.388
X113.03Y-67.691
X113.03Y-72.136
X114.554Y-86.487
X114.554Y-89.408
X114.554Y-92.71
X116.586Y-61.214
X116.713Y-56.261
X118.007Y-80.498
X118.36Y-69.45
X118.732Y-70.57
X119.888Y-86.487
X120.396Y-73.406
X121.92Y-89.027
X123.063Y-91.186
X123.19Y-93.726
X123.444Y-53.086
X124.206Y-73.279
X124.46Y-57.531
X124.968Y-65.532
X127.0Y-86.106
X130.048Y-78.994
X130.429Y-89.154
X130.683Y-53.34
X130.81Y-93.599
X131.064Y-59.69
T2
X109.474Y-74.803
X109.474Y-84.963
X113.03Y-76.2
X113.03Y-78.74
X113.03Y-81.28
X113.03Y-83.82
X120.65Y-76.2
X120.65Y-78.74
X120.65Y-81.28
X120.65Y-83.82
T3
X95.951Y-82.804
X95.951Y-85.304
X95.951Y-87.804
X95.951Y-90.304
X95.987Y-55.031
X95.987Y-57.531
X95.987Y-60.031
X95.987Y-62.531
X95.987Y-68.834
X95.987Y-71.334
X95.987Y-73.834
X95.987Y-76.334
X103.921Y-91.999
X106.421Y-91.999
X108.921Y-91.999
X111.421Y-91.999
X128.905Y-55.067
X128.905Y-57.567
X128.905Y-60.067
X128.905Y-62.567
X128.905Y-68.504
X128.905Y-71.004
X128.905Y-73.504
X128.905Y-76.004
T4
X105.0Y-77.968
X105.0Y-80.508
X117.635Y-92.027
X120.135Y-92.027
X126.258Y-92.024
X128.758Y-92.024
X128.905Y-81.915
X128.905Y-84.415
M30
