M48
; DRILL file {KiCad 9.0.3} date 2025-08-06T02:06:02+0900
; FORMAT={-:-/ absolute / metric / decimal}
; #@! TF.CreationDate,2025-08-06T02:06:02+09:00
; #@! TF.GenerationSoftware,Kicad,Pcbnew,9.0.3
; #@! TF.FileFunction,Plated,1,2,PTH
FMAT,2
METRIC
; #@! TA.AperFunction,Plated,PTH,ViaDrill
T1C0.300
; #@! TA.AperFunction,Plated,PTH,ComponentDrill
T2C0.800
; #@! TA.AperFunction,Plated,PTH,ComponentDrill
T3C1.000
; #@! TA.AperFunction,Plated,PTH,ComponentDrill
T4C4.500
%
G90
G05
T1
X70.56Y-49.125
X70.56Y-59.125
X70.56Y-69.125
X70.56Y-79.125
X70.56Y-89.125
X70.56Y-99.125
X73.06Y-74.125
X73.06Y-84.125
X73.06Y-94.125
X75.56Y-54.125
X75.56Y-69.125
X75.56Y-79.125
X75.56Y-89.125
X75.56Y-101.625
X75.56Y-136.625
X79.026Y-67.737
X80.56Y-49.125
X80.56Y-59.125
X80.56Y-129.125
X83.06Y-124.125
X85.56Y-54.125
X85.56Y-54.125
X85.56Y-94.125
X85.56Y-104.125
X86.517Y-124.113
X88.06Y-89.125
X88.06Y-99.125
X88.06Y-106.625
X88.06Y-136.625
X90.56Y-49.125
X90.56Y-59.125
X90.56Y-94.125
X90.56Y-104.125
X90.56Y-119.125
X93.06Y-94.125
X93.06Y-99.125
X93.06Y-106.625
X95.56Y-54.125
X96.228Y-76.868
X99.423Y-109.923
X100.56Y-49.125
X100.56Y-59.125
X100.56Y-94.125
X100.56Y-104.125
X100.56Y-119.125
X103.06Y-91.625
X103.06Y-94.125
X103.06Y-99.125
X103.06Y-106.625
X103.06Y-136.625
X105.56Y-54.125
X107.714Y-70.52
X108.006Y-103.668
X108.06Y-94.125
X108.06Y-106.625
X108.06Y-119.125
X110.56Y-49.125
X110.56Y-59.125
X110.56Y-79.125
X110.56Y-89.125
X110.56Y-99.125
X113.06Y-119.125
X115.42Y-79.438
X115.56Y-54.125
X115.56Y-106.625
X116.225Y-74.123
X116.4Y-77.4
X117.308Y-133.506
X117.391Y-134.392
X118.034Y-67.95
X118.06Y-91.625
X118.06Y-99.125
X118.06Y-136.625
X120.289Y-116.698
X120.56Y-49.125
X123.55Y-121.714
X123.588Y-63.076
X125.56Y-119.125
X125.56Y-134.125
X126.816Y-110.71
X129.916Y-76.835
X130.56Y-139.125
X133.06Y-91.625
X133.06Y-96.625
X133.06Y-106.625
X134.358Y-71.874
X135.046Y-116.638
X135.56Y-89.125
X135.56Y-94.125
X135.56Y-99.125
X135.56Y-134.125
X140.56Y-139.125
X143.06Y-91.625
X145.539Y-71.247
X145.56Y-64.125
X145.56Y-89.125
X145.56Y-94.125
X145.56Y-106.625
X145.56Y-119.125
X145.56Y-134.125
X147.116Y-68.654
X148.06Y-91.625
X149.713Y-122.837
X150.56Y-64.125
X150.56Y-139.125
X153.06Y-89.125
X153.06Y-96.625
X153.078Y-126.779
X155.56Y-66.625
X155.56Y-109.125
X155.56Y-119.125
X155.56Y-134.125
X156.059Y-71.6
X157.133Y-74.467
X159.039Y-71.453
X160.56Y-109.125
X160.56Y-119.125
X160.56Y-139.125
X163.06Y-79.125
X163.06Y-89.125
X164.199Y-75.27
X165.56Y-69.125
X168.06Y-84.125
X168.06Y-94.125
X168.06Y-104.125
X170.56Y-79.125
X170.56Y-89.125
X170.56Y-99.125
X170.56Y-109.125
X170.56Y-119.125
X170.56Y-139.125
X175.56Y-51.625
X175.56Y-56.625
X175.56Y-84.125
X175.56Y-94.125
X175.56Y-104.125
X175.56Y-119.125
X175.56Y-129.125
X178.06Y-49.125
X178.06Y-54.125
X178.06Y-59.125
X179.905Y-112.871
X180.56Y-51.625
X180.56Y-56.625
X180.56Y-124.125
X180.56Y-124.125
X180.56Y-134.125
T2
X135.524Y-126.402
X135.524Y-129.983
X136.271Y-80.467
X136.271Y-83.566
X145.684Y-126.402
X145.684Y-129.983
X146.431Y-80.467
X146.431Y-83.566
X148.819Y-80.467
X148.819Y-83.591
X149.164Y-126.25
X149.164Y-129.806
X158.979Y-80.467
X158.979Y-83.591
X159.324Y-126.25
X159.324Y-129.806
T3
X72.25Y-108.25
X72.25Y-110.79
X72.25Y-113.33
X72.25Y-115.87
X72.25Y-118.41
X72.25Y-120.95
X72.25Y-123.49
X72.25Y-126.03
X72.25Y-128.57
X72.25Y-131.11
X72.25Y-133.65
X80.0Y-66.585
X80.0Y-69.125
X80.0Y-112.3
X80.0Y-114.84
X82.54Y-66.585
X82.54Y-69.125
X82.54Y-112.3
X82.54Y-114.84
X85.08Y-66.585
X85.08Y-69.125
X85.08Y-112.3
X85.08Y-114.84
X87.62Y-66.585
X87.62Y-69.125
X87.62Y-112.3
X87.62Y-114.84
X87.722Y-128.688
X87.722Y-131.228
X87.874Y-121.982
X87.874Y-124.522
X90.16Y-66.585
X90.16Y-69.125
X90.16Y-112.3
X90.16Y-114.84
X90.262Y-128.688
X90.262Y-131.228
X90.414Y-121.982
X90.414Y-124.522
X90.932Y-83.566
X92.7Y-66.585
X92.7Y-69.125
X92.7Y-112.3
X92.7Y-114.84
X92.802Y-128.688
X92.802Y-131.228
X92.954Y-121.982
X92.954Y-124.522
X93.472Y-83.566
X95.24Y-66.585
X95.24Y-69.125
X95.24Y-112.3
X95.24Y-114.84
X95.342Y-128.688
X95.342Y-131.228
X95.494Y-121.982
X95.494Y-124.522
X96.012Y-83.566
X97.78Y-66.585
X97.78Y-69.125
X97.78Y-112.3
X97.78Y-114.84
X97.882Y-128.688
X97.882Y-131.228
X98.034Y-121.982
X98.034Y-124.522
X98.552Y-83.566
X100.32Y-66.585
X100.32Y-69.125
X100.32Y-112.3
X100.32Y-114.84
X100.422Y-128.688
X100.422Y-131.228
X100.574Y-121.982
X100.574Y-124.522
X101.092Y-83.566
X102.86Y-66.585
X102.86Y-69.125
X102.86Y-112.3
X102.86Y-114.84
X103.632Y-83.566
X105.4Y-66.585
X105.4Y-69.125
X105.4Y-112.3
X105.4Y-114.84
X106.172Y-83.566
X107.94Y-66.585
X107.94Y-69.125
X107.94Y-112.3
X107.94Y-114.84
X108.712Y-83.566
X109.718Y-124.421
X109.794Y-130.644
X110.48Y-66.585
X110.48Y-69.125
X110.48Y-112.3
X110.48Y-114.84
X111.252Y-83.566
X112.258Y-124.421
X112.334Y-130.644
X113.02Y-66.585
X113.02Y-69.125
X113.02Y-112.3
X113.02Y-114.84
X113.792Y-83.566
X114.798Y-124.421
X114.874Y-130.644
X115.56Y-66.585
X115.56Y-69.125
X115.56Y-112.3
X115.56Y-114.84
X116.332Y-83.566
X117.338Y-124.421
X117.414Y-130.644
X118.1Y-112.3
X118.1Y-114.84
X120.56Y-66.585
X120.56Y-69.125
X120.64Y-112.3
X120.64Y-114.84
X123.1Y-66.585
X123.1Y-69.125
X124.64Y-112.3
X124.64Y-114.84
X125.212Y-54.545
X125.314Y-59.575
X125.64Y-66.585
X125.64Y-69.125
X126.634Y-123.532
X126.634Y-126.072
X126.634Y-128.612
X126.634Y-131.152
X127.18Y-112.3
X127.18Y-114.84
X127.752Y-54.545
X127.854Y-59.575
X128.18Y-66.585
X128.18Y-69.125
X129.72Y-112.3
X129.72Y-114.84
X130.292Y-54.545
X130.394Y-59.575
X130.597Y-123.481
X130.597Y-126.021
X130.597Y-128.561
X130.597Y-131.101
X130.72Y-66.585
X130.72Y-69.125
X132.26Y-112.3
X132.26Y-114.84
X133.26Y-66.585
X133.26Y-69.125
X134.8Y-112.3
X134.8Y-114.84
X135.8Y-66.585
X135.8Y-69.125
X136.296Y-102.006
X136.54Y-54.469
X136.591Y-59.498
X137.34Y-112.3
X137.34Y-114.84
X138.34Y-66.585
X138.34Y-69.125
X138.836Y-102.006
X139.08Y-54.469
X139.131Y-59.498
X139.88Y-112.3
X139.88Y-114.84
X141.376Y-102.006
X141.62Y-54.469
X141.671Y-59.498
X142.42Y-112.3
X142.42Y-114.84
X143.916Y-102.006
X144.96Y-112.3
X144.96Y-114.84
X146.456Y-102.006
X147.5Y-112.3
X147.5Y-114.84
X147.666Y-59.473
X147.818Y-54.393
X148.996Y-102.006
X150.206Y-59.473
X150.358Y-54.393
X151.536Y-102.006
X152.746Y-59.473
X152.898Y-54.393
X154.076Y-102.006
X156.616Y-102.006
X159.156Y-102.006
X161.696Y-102.006
X164.836Y-123.989
X164.836Y-126.529
X164.836Y-129.069
X164.836Y-131.609
X168.875Y-123.989
X168.875Y-126.529
X168.875Y-129.069
X168.875Y-131.609
X179.73Y-65.11
X179.73Y-67.65
X179.73Y-70.19
X179.73Y-72.73
X179.73Y-75.27
X179.73Y-77.81
X179.73Y-80.35
X179.73Y-82.89
X179.73Y-85.43
X179.73Y-87.97
X179.73Y-90.51
T4
X161.89Y-57.067
X161.89Y-64.267
M30
