G04 #@! TF.GenerationSoftware,KiCad,Pcbnew,9.0.3*
G04 #@! TF.CreationDate,2025-08-06T01:31:41+09:00*
G04 #@! TF.ProjectId,sasakicatchrobomain25,73617361-6b69-4636-9174-6368726f626f,rev?*
G04 #@! TF.SameCoordinates,Original*
G04 #@! TF.FileFunction,Legend,Bot*
G04 #@! TF.FilePolarity,Positive*
%FSLAX46Y46*%
G04 Gerber Fmt 4.6, Leading zero omitted, Abs format (unit mm)*
G04 Created by KiCad (PCBNEW 9.0.3) date 2025-08-06 01:31:41*
%MOMM*%
%LPD*%
G01*
G04 APERTURE LIST*
%ADD10C,0.150000*%
%ADD11C,0.120000*%
G04 APERTURE END LIST*
D10*
X140774819Y-67321666D02*
X141489104Y-67321666D01*
X141489104Y-67321666D02*
X141631961Y-67274047D01*
X141631961Y-67274047D02*
X141727200Y-67178809D01*
X141727200Y-67178809D02*
X141774819Y-67035952D01*
X141774819Y-67035952D02*
X141774819Y-66940714D01*
X141108152Y-68226428D02*
X141774819Y-68226428D01*
X140727200Y-67988333D02*
X141441485Y-67750238D01*
X141441485Y-67750238D02*
X141441485Y-68369285D01*
X76994819Y-67436666D02*
X77709104Y-67436666D01*
X77709104Y-67436666D02*
X77851961Y-67389047D01*
X77851961Y-67389047D02*
X77947200Y-67293809D01*
X77947200Y-67293809D02*
X77994819Y-67150952D01*
X77994819Y-67150952D02*
X77994819Y-67055714D01*
X77423390Y-68055714D02*
X77375771Y-67960476D01*
X77375771Y-67960476D02*
X77328152Y-67912857D01*
X77328152Y-67912857D02*
X77232914Y-67865238D01*
X77232914Y-67865238D02*
X77185295Y-67865238D01*
X77185295Y-67865238D02*
X77090057Y-67912857D01*
X77090057Y-67912857D02*
X77042438Y-67960476D01*
X77042438Y-67960476D02*
X76994819Y-68055714D01*
X76994819Y-68055714D02*
X76994819Y-68246190D01*
X76994819Y-68246190D02*
X77042438Y-68341428D01*
X77042438Y-68341428D02*
X77090057Y-68389047D01*
X77090057Y-68389047D02*
X77185295Y-68436666D01*
X77185295Y-68436666D02*
X77232914Y-68436666D01*
X77232914Y-68436666D02*
X77328152Y-68389047D01*
X77328152Y-68389047D02*
X77375771Y-68341428D01*
X77375771Y-68341428D02*
X77423390Y-68246190D01*
X77423390Y-68246190D02*
X77423390Y-68055714D01*
X77423390Y-68055714D02*
X77471009Y-67960476D01*
X77471009Y-67960476D02*
X77518628Y-67912857D01*
X77518628Y-67912857D02*
X77613866Y-67865238D01*
X77613866Y-67865238D02*
X77804342Y-67865238D01*
X77804342Y-67865238D02*
X77899580Y-67912857D01*
X77899580Y-67912857D02*
X77947200Y-67960476D01*
X77947200Y-67960476D02*
X77994819Y-68055714D01*
X77994819Y-68055714D02*
X77994819Y-68246190D01*
X77994819Y-68246190D02*
X77947200Y-68341428D01*
X77947200Y-68341428D02*
X77899580Y-68389047D01*
X77899580Y-68389047D02*
X77804342Y-68436666D01*
X77804342Y-68436666D02*
X77613866Y-68436666D01*
X77613866Y-68436666D02*
X77518628Y-68389047D01*
X77518628Y-68389047D02*
X77471009Y-68341428D01*
X77471009Y-68341428D02*
X77423390Y-68246190D01*
X77074819Y-113206666D02*
X77789104Y-113206666D01*
X77789104Y-113206666D02*
X77931961Y-113159047D01*
X77931961Y-113159047D02*
X78027200Y-113063809D01*
X78027200Y-113063809D02*
X78074819Y-112920952D01*
X78074819Y-112920952D02*
X78074819Y-112825714D01*
X77074819Y-113587619D02*
X77074819Y-114254285D01*
X77074819Y-114254285D02*
X78074819Y-113825714D01*
X149984819Y-113196666D02*
X150699104Y-113196666D01*
X150699104Y-113196666D02*
X150841961Y-113149047D01*
X150841961Y-113149047D02*
X150937200Y-113053809D01*
X150937200Y-113053809D02*
X150984819Y-112910952D01*
X150984819Y-112910952D02*
X150984819Y-112815714D01*
X149984819Y-114101428D02*
X149984819Y-113910952D01*
X149984819Y-113910952D02*
X150032438Y-113815714D01*
X150032438Y-113815714D02*
X150080057Y-113768095D01*
X150080057Y-113768095D02*
X150222914Y-113672857D01*
X150222914Y-113672857D02*
X150413390Y-113625238D01*
X150413390Y-113625238D02*
X150794342Y-113625238D01*
X150794342Y-113625238D02*
X150889580Y-113672857D01*
X150889580Y-113672857D02*
X150937200Y-113720476D01*
X150937200Y-113720476D02*
X150984819Y-113815714D01*
X150984819Y-113815714D02*
X150984819Y-114006190D01*
X150984819Y-114006190D02*
X150937200Y-114101428D01*
X150937200Y-114101428D02*
X150889580Y-114149047D01*
X150889580Y-114149047D02*
X150794342Y-114196666D01*
X150794342Y-114196666D02*
X150556247Y-114196666D01*
X150556247Y-114196666D02*
X150461009Y-114149047D01*
X150461009Y-114149047D02*
X150413390Y-114101428D01*
X150413390Y-114101428D02*
X150365771Y-114006190D01*
X150365771Y-114006190D02*
X150365771Y-113815714D01*
X150365771Y-113815714D02*
X150413390Y-113720476D01*
X150413390Y-113720476D02*
X150461009Y-113672857D01*
X150461009Y-113672857D02*
X150556247Y-113625238D01*
D11*
X119180000Y-65205000D02*
X119180000Y-70505000D01*
X137070000Y-65205000D02*
X119180000Y-65205000D01*
X137070000Y-65205000D02*
X137070000Y-67855000D01*
X137070000Y-67855000D02*
X139720000Y-67855000D01*
X138340000Y-65205000D02*
X139720000Y-65205000D01*
X139720000Y-65205000D02*
X139720000Y-66585000D01*
X139720000Y-67855000D02*
X139720000Y-70505000D01*
X139720000Y-70505000D02*
X119180000Y-70505000D01*
X78620000Y-65205000D02*
X78620000Y-70505000D01*
X114290000Y-65205000D02*
X78620000Y-65205000D01*
X114290000Y-65205000D02*
X114290000Y-67855000D01*
X114290000Y-67855000D02*
X116940000Y-67855000D01*
X115560000Y-65205000D02*
X116940000Y-65205000D01*
X116940000Y-65205000D02*
X116940000Y-66585000D01*
X116940000Y-67855000D02*
X116940000Y-70505000D01*
X116940000Y-70505000D02*
X78620000Y-70505000D01*
X78620000Y-110920000D02*
X78620000Y-116220000D01*
X119370000Y-110920000D02*
X78620000Y-110920000D01*
X119370000Y-110920000D02*
X119370000Y-113570000D01*
X119370000Y-113570000D02*
X122020000Y-113570000D01*
X120640000Y-110920000D02*
X122020000Y-110920000D01*
X122020000Y-110920000D02*
X122020000Y-112300000D01*
X122020000Y-113570000D02*
X122020000Y-116220000D01*
X122020000Y-116220000D02*
X78620000Y-116220000D01*
X123260000Y-110920000D02*
X123260000Y-116220000D01*
X146230000Y-110920000D02*
X123260000Y-110920000D01*
X146230000Y-110920000D02*
X146230000Y-113570000D01*
X146230000Y-113570000D02*
X148880000Y-113570000D01*
X147500000Y-110920000D02*
X148880000Y-110920000D01*
X148880000Y-110920000D02*
X148880000Y-112300000D01*
X148880000Y-113570000D02*
X148880000Y-116220000D01*
X148880000Y-116220000D02*
X123260000Y-116220000D01*
M02*
