%TF.GenerationSoftware,KiCad,Pcbnew,10.0.6-10.0.6~ubuntu24.04.1*%
%TF.CreationDate,2026-09-05T14:44:36+09:00*%
%TF.ProjectId,CANMD-60,43414e4d-442d-4363-902e-6b696361645f,rev?*%
%TF.SameCoordinates,Original*%
%TF.FileFunction,Legend,Top*%
%TF.FilePolarity,Positive*%
%FSLAX46Y46*%
G04 Gerber Fmt 4.6, Leading zero omitted, Abs format (unit mm)*
G04 Created by KiCad (PCBNEW 10.0.6-10.0.6~ubuntu24.04.1) date 2026-09-05 14:44:36*
%MOMM*%
%LPD*%
G01*
G04 APERTURE LIST*
%ADD10C,0.150000*%
%ADD11C,0.120000*%
%ADD12C,0.152400*%
%ADD13C,0.127000*%
G04 APERTURE END LIST*
D10*
X26929580Y-75642857D02*
X26977200Y-75690476D01*
X26977200Y-75690476D02*
X27024819Y-75833333D01*
X27024819Y-75833333D02*
X27024819Y-75928571D01*
X27024819Y-75928571D02*
X26977200Y-76071428D01*
X26977200Y-76071428D02*
X26881961Y-76166666D01*
X26881961Y-76166666D02*
X26786723Y-76214285D01*
X26786723Y-76214285D02*
X26596247Y-76261904D01*
X26596247Y-76261904D02*
X26453390Y-76261904D01*
X26453390Y-76261904D02*
X26262914Y-76214285D01*
X26262914Y-76214285D02*
X26167676Y-76166666D01*
X26167676Y-76166666D02*
X26072438Y-76071428D01*
X26072438Y-76071428D02*
X26024819Y-75928571D01*
X26024819Y-75928571D02*
X26024819Y-75833333D01*
X26024819Y-75833333D02*
X26072438Y-75690476D01*
X26072438Y-75690476D02*
X26120057Y-75642857D01*
X27024819Y-74690476D02*
X27024819Y-75261904D01*
X27024819Y-74976190D02*
X26024819Y-74976190D01*
X26024819Y-74976190D02*
X26167676Y-75071428D01*
X26167676Y-75071428D02*
X26262914Y-75166666D01*
X26262914Y-75166666D02*
X26310533Y-75261904D01*
X26358152Y-73833333D02*
X27024819Y-73833333D01*
X25977200Y-74071428D02*
X26691485Y-74309523D01*
X26691485Y-74309523D02*
X26691485Y-73690476D01*
X71261905Y-12454819D02*
X71261905Y-11454819D01*
X71261905Y-11454819D02*
X71500000Y-11454819D01*
X71500000Y-11454819D02*
X71642857Y-11502438D01*
X71642857Y-11502438D02*
X71738095Y-11597676D01*
X71738095Y-11597676D02*
X71785714Y-11692914D01*
X71785714Y-11692914D02*
X71833333Y-11883390D01*
X71833333Y-11883390D02*
X71833333Y-12026247D01*
X71833333Y-12026247D02*
X71785714Y-12216723D01*
X71785714Y-12216723D02*
X71738095Y-12311961D01*
X71738095Y-12311961D02*
X71642857Y-12407200D01*
X71642857Y-12407200D02*
X71500000Y-12454819D01*
X71500000Y-12454819D02*
X71261905Y-12454819D01*
X72785714Y-12454819D02*
X72214286Y-12454819D01*
X72500000Y-12454819D02*
X72500000Y-11454819D01*
X72500000Y-11454819D02*
X72404762Y-11597676D01*
X72404762Y-11597676D02*
X72309524Y-11692914D01*
X72309524Y-11692914D02*
X72214286Y-11740533D01*
X114666666Y-107074819D02*
X114666666Y-107789104D01*
X114666666Y-107789104D02*
X114619047Y-107931961D01*
X114619047Y-107931961D02*
X114523809Y-108027200D01*
X114523809Y-108027200D02*
X114380952Y-108074819D01*
X114380952Y-108074819D02*
X114285714Y-108074819D01*
X115619047Y-107074819D02*
X115142857Y-107074819D01*
X115142857Y-107074819D02*
X115095238Y-107551009D01*
X115095238Y-107551009D02*
X115142857Y-107503390D01*
X115142857Y-107503390D02*
X115238095Y-107455771D01*
X115238095Y-107455771D02*
X115476190Y-107455771D01*
X115476190Y-107455771D02*
X115571428Y-107503390D01*
X115571428Y-107503390D02*
X115619047Y-107551009D01*
X115619047Y-107551009D02*
X115666666Y-107646247D01*
X115666666Y-107646247D02*
X115666666Y-107884342D01*
X115666666Y-107884342D02*
X115619047Y-107979580D01*
X115619047Y-107979580D02*
X115571428Y-108027200D01*
X115571428Y-108027200D02*
X115476190Y-108074819D01*
X115476190Y-108074819D02*
X115238095Y-108074819D01*
X115238095Y-108074819D02*
X115142857Y-108027200D01*
X115142857Y-108027200D02*
X115095238Y-107979580D01*
X58929580Y-100642857D02*
X58977200Y-100690476D01*
X58977200Y-100690476D02*
X59024819Y-100833333D01*
X59024819Y-100833333D02*
X59024819Y-100928571D01*
X59024819Y-100928571D02*
X58977200Y-101071428D01*
X58977200Y-101071428D02*
X58881961Y-101166666D01*
X58881961Y-101166666D02*
X58786723Y-101214285D01*
X58786723Y-101214285D02*
X58596247Y-101261904D01*
X58596247Y-101261904D02*
X58453390Y-101261904D01*
X58453390Y-101261904D02*
X58262914Y-101214285D01*
X58262914Y-101214285D02*
X58167676Y-101166666D01*
X58167676Y-101166666D02*
X58072438Y-101071428D01*
X58072438Y-101071428D02*
X58024819Y-100928571D01*
X58024819Y-100928571D02*
X58024819Y-100833333D01*
X58024819Y-100833333D02*
X58072438Y-100690476D01*
X58072438Y-100690476D02*
X58120057Y-100642857D01*
X58120057Y-100261904D02*
X58072438Y-100214285D01*
X58072438Y-100214285D02*
X58024819Y-100119047D01*
X58024819Y-100119047D02*
X58024819Y-99880952D01*
X58024819Y-99880952D02*
X58072438Y-99785714D01*
X58072438Y-99785714D02*
X58120057Y-99738095D01*
X58120057Y-99738095D02*
X58215295Y-99690476D01*
X58215295Y-99690476D02*
X58310533Y-99690476D01*
X58310533Y-99690476D02*
X58453390Y-99738095D01*
X58453390Y-99738095D02*
X59024819Y-100309523D01*
X59024819Y-100309523D02*
X59024819Y-99690476D01*
X58358152Y-98833333D02*
X59024819Y-98833333D01*
X57977200Y-99071428D02*
X58691485Y-99309523D01*
X58691485Y-99309523D02*
X58691485Y-98690476D01*
X168004819Y-96083333D02*
X168719104Y-96083333D01*
X168719104Y-96083333D02*
X168861961Y-96130952D01*
X168861961Y-96130952D02*
X168957200Y-96226190D01*
X168957200Y-96226190D02*
X169004819Y-96369047D01*
X169004819Y-96369047D02*
X169004819Y-96464285D01*
X168338152Y-95178571D02*
X169004819Y-95178571D01*
X167957200Y-95416666D02*
X168671485Y-95654761D01*
X168671485Y-95654761D02*
X168671485Y-95035714D01*
X64024819Y-24166666D02*
X63548628Y-24499999D01*
X64024819Y-24738094D02*
X63024819Y-24738094D01*
X63024819Y-24738094D02*
X63024819Y-24357142D01*
X63024819Y-24357142D02*
X63072438Y-24261904D01*
X63072438Y-24261904D02*
X63120057Y-24214285D01*
X63120057Y-24214285D02*
X63215295Y-24166666D01*
X63215295Y-24166666D02*
X63358152Y-24166666D01*
X63358152Y-24166666D02*
X63453390Y-24214285D01*
X63453390Y-24214285D02*
X63501009Y-24261904D01*
X63501009Y-24261904D02*
X63548628Y-24357142D01*
X63548628Y-24357142D02*
X63548628Y-24738094D01*
X63024819Y-23309523D02*
X63024819Y-23499999D01*
X63024819Y-23499999D02*
X63072438Y-23595237D01*
X63072438Y-23595237D02*
X63120057Y-23642856D01*
X63120057Y-23642856D02*
X63262914Y-23738094D01*
X63262914Y-23738094D02*
X63453390Y-23785713D01*
X63453390Y-23785713D02*
X63834342Y-23785713D01*
X63834342Y-23785713D02*
X63929580Y-23738094D01*
X63929580Y-23738094D02*
X63977200Y-23690475D01*
X63977200Y-23690475D02*
X64024819Y-23595237D01*
X64024819Y-23595237D02*
X64024819Y-23404761D01*
X64024819Y-23404761D02*
X63977200Y-23309523D01*
X63977200Y-23309523D02*
X63929580Y-23261904D01*
X63929580Y-23261904D02*
X63834342Y-23214285D01*
X63834342Y-23214285D02*
X63596247Y-23214285D01*
X63596247Y-23214285D02*
X63501009Y-23261904D01*
X63501009Y-23261904D02*
X63453390Y-23309523D01*
X63453390Y-23309523D02*
X63405771Y-23404761D01*
X63405771Y-23404761D02*
X63405771Y-23595237D01*
X63405771Y-23595237D02*
X63453390Y-23690475D01*
X63453390Y-23690475D02*
X63501009Y-23738094D01*
X63501009Y-23738094D02*
X63596247Y-23785713D01*
X107904761Y-48050057D02*
X107809523Y-48002438D01*
X107809523Y-48002438D02*
X107714285Y-47907200D01*
X107714285Y-47907200D02*
X107571428Y-47764342D01*
X107571428Y-47764342D02*
X107476190Y-47716723D01*
X107476190Y-47716723D02*
X107380952Y-47716723D01*
X107428571Y-47954819D02*
X107333333Y-47907200D01*
X107333333Y-47907200D02*
X107238095Y-47811961D01*
X107238095Y-47811961D02*
X107190476Y-47621485D01*
X107190476Y-47621485D02*
X107190476Y-47288152D01*
X107190476Y-47288152D02*
X107238095Y-47097676D01*
X107238095Y-47097676D02*
X107333333Y-47002438D01*
X107333333Y-47002438D02*
X107428571Y-46954819D01*
X107428571Y-46954819D02*
X107619047Y-46954819D01*
X107619047Y-46954819D02*
X107714285Y-47002438D01*
X107714285Y-47002438D02*
X107809523Y-47097676D01*
X107809523Y-47097676D02*
X107857142Y-47288152D01*
X107857142Y-47288152D02*
X107857142Y-47621485D01*
X107857142Y-47621485D02*
X107809523Y-47811961D01*
X107809523Y-47811961D02*
X107714285Y-47907200D01*
X107714285Y-47907200D02*
X107619047Y-47954819D01*
X107619047Y-47954819D02*
X107428571Y-47954819D01*
X108238095Y-47050057D02*
X108285714Y-47002438D01*
X108285714Y-47002438D02*
X108380952Y-46954819D01*
X108380952Y-46954819D02*
X108619047Y-46954819D01*
X108619047Y-46954819D02*
X108714285Y-47002438D01*
X108714285Y-47002438D02*
X108761904Y-47050057D01*
X108761904Y-47050057D02*
X108809523Y-47145295D01*
X108809523Y-47145295D02*
X108809523Y-47240533D01*
X108809523Y-47240533D02*
X108761904Y-47383390D01*
X108761904Y-47383390D02*
X108190476Y-47954819D01*
X108190476Y-47954819D02*
X108809523Y-47954819D01*
X134880952Y-107024819D02*
X134404762Y-107024819D01*
X134404762Y-107024819D02*
X134404762Y-106024819D01*
X135214286Y-106501009D02*
X135547619Y-106501009D01*
X135690476Y-107024819D02*
X135214286Y-107024819D01*
X135214286Y-107024819D02*
X135214286Y-106024819D01*
X135214286Y-106024819D02*
X135690476Y-106024819D01*
X136119048Y-107024819D02*
X136119048Y-106024819D01*
X136119048Y-106024819D02*
X136357143Y-106024819D01*
X136357143Y-106024819D02*
X136500000Y-106072438D01*
X136500000Y-106072438D02*
X136595238Y-106167676D01*
X136595238Y-106167676D02*
X136642857Y-106262914D01*
X136642857Y-106262914D02*
X136690476Y-106453390D01*
X136690476Y-106453390D02*
X136690476Y-106596247D01*
X136690476Y-106596247D02*
X136642857Y-106786723D01*
X136642857Y-106786723D02*
X136595238Y-106881961D01*
X136595238Y-106881961D02*
X136500000Y-106977200D01*
X136500000Y-106977200D02*
X136357143Y-107024819D01*
X136357143Y-107024819D02*
X136119048Y-107024819D01*
X137071429Y-106120057D02*
X137119048Y-106072438D01*
X137119048Y-106072438D02*
X137214286Y-106024819D01*
X137214286Y-106024819D02*
X137452381Y-106024819D01*
X137452381Y-106024819D02*
X137547619Y-106072438D01*
X137547619Y-106072438D02*
X137595238Y-106120057D01*
X137595238Y-106120057D02*
X137642857Y-106215295D01*
X137642857Y-106215295D02*
X137642857Y-106310533D01*
X137642857Y-106310533D02*
X137595238Y-106453390D01*
X137595238Y-106453390D02*
X137023810Y-107024819D01*
X137023810Y-107024819D02*
X137642857Y-107024819D01*
X127904761Y-48050057D02*
X127809523Y-48002438D01*
X127809523Y-48002438D02*
X127714285Y-47907200D01*
X127714285Y-47907200D02*
X127571428Y-47764342D01*
X127571428Y-47764342D02*
X127476190Y-47716723D01*
X127476190Y-47716723D02*
X127380952Y-47716723D01*
X127428571Y-47954819D02*
X127333333Y-47907200D01*
X127333333Y-47907200D02*
X127238095Y-47811961D01*
X127238095Y-47811961D02*
X127190476Y-47621485D01*
X127190476Y-47621485D02*
X127190476Y-47288152D01*
X127190476Y-47288152D02*
X127238095Y-47097676D01*
X127238095Y-47097676D02*
X127333333Y-47002438D01*
X127333333Y-47002438D02*
X127428571Y-46954819D01*
X127428571Y-46954819D02*
X127619047Y-46954819D01*
X127619047Y-46954819D02*
X127714285Y-47002438D01*
X127714285Y-47002438D02*
X127809523Y-47097676D01*
X127809523Y-47097676D02*
X127857142Y-47288152D01*
X127857142Y-47288152D02*
X127857142Y-47621485D01*
X127857142Y-47621485D02*
X127809523Y-47811961D01*
X127809523Y-47811961D02*
X127714285Y-47907200D01*
X127714285Y-47907200D02*
X127619047Y-47954819D01*
X127619047Y-47954819D02*
X127428571Y-47954819D01*
X128714285Y-47288152D02*
X128714285Y-47954819D01*
X128476190Y-46907200D02*
X128238095Y-47621485D01*
X128238095Y-47621485D02*
X128857142Y-47621485D01*
X50679580Y-117642857D02*
X50727200Y-117690476D01*
X50727200Y-117690476D02*
X50774819Y-117833333D01*
X50774819Y-117833333D02*
X50774819Y-117928571D01*
X50774819Y-117928571D02*
X50727200Y-118071428D01*
X50727200Y-118071428D02*
X50631961Y-118166666D01*
X50631961Y-118166666D02*
X50536723Y-118214285D01*
X50536723Y-118214285D02*
X50346247Y-118261904D01*
X50346247Y-118261904D02*
X50203390Y-118261904D01*
X50203390Y-118261904D02*
X50012914Y-118214285D01*
X50012914Y-118214285D02*
X49917676Y-118166666D01*
X49917676Y-118166666D02*
X49822438Y-118071428D01*
X49822438Y-118071428D02*
X49774819Y-117928571D01*
X49774819Y-117928571D02*
X49774819Y-117833333D01*
X49774819Y-117833333D02*
X49822438Y-117690476D01*
X49822438Y-117690476D02*
X49870057Y-117642857D01*
X49870057Y-117261904D02*
X49822438Y-117214285D01*
X49822438Y-117214285D02*
X49774819Y-117119047D01*
X49774819Y-117119047D02*
X49774819Y-116880952D01*
X49774819Y-116880952D02*
X49822438Y-116785714D01*
X49822438Y-116785714D02*
X49870057Y-116738095D01*
X49870057Y-116738095D02*
X49965295Y-116690476D01*
X49965295Y-116690476D02*
X50060533Y-116690476D01*
X50060533Y-116690476D02*
X50203390Y-116738095D01*
X50203390Y-116738095D02*
X50774819Y-117309523D01*
X50774819Y-117309523D02*
X50774819Y-116690476D01*
X49774819Y-116357142D02*
X49774819Y-115738095D01*
X49774819Y-115738095D02*
X50155771Y-116071428D01*
X50155771Y-116071428D02*
X50155771Y-115928571D01*
X50155771Y-115928571D02*
X50203390Y-115833333D01*
X50203390Y-115833333D02*
X50251009Y-115785714D01*
X50251009Y-115785714D02*
X50346247Y-115738095D01*
X50346247Y-115738095D02*
X50584342Y-115738095D01*
X50584342Y-115738095D02*
X50679580Y-115785714D01*
X50679580Y-115785714D02*
X50727200Y-115833333D01*
X50727200Y-115833333D02*
X50774819Y-115928571D01*
X50774819Y-115928571D02*
X50774819Y-116214285D01*
X50774819Y-116214285D02*
X50727200Y-116309523D01*
X50727200Y-116309523D02*
X50679580Y-116357142D01*
X74024819Y-24166666D02*
X73548628Y-24499999D01*
X74024819Y-24738094D02*
X73024819Y-24738094D01*
X73024819Y-24738094D02*
X73024819Y-24357142D01*
X73024819Y-24357142D02*
X73072438Y-24261904D01*
X73072438Y-24261904D02*
X73120057Y-24214285D01*
X73120057Y-24214285D02*
X73215295Y-24166666D01*
X73215295Y-24166666D02*
X73358152Y-24166666D01*
X73358152Y-24166666D02*
X73453390Y-24214285D01*
X73453390Y-24214285D02*
X73501009Y-24261904D01*
X73501009Y-24261904D02*
X73548628Y-24357142D01*
X73548628Y-24357142D02*
X73548628Y-24738094D01*
X74024819Y-23214285D02*
X74024819Y-23785713D01*
X74024819Y-23499999D02*
X73024819Y-23499999D01*
X73024819Y-23499999D02*
X73167676Y-23595237D01*
X73167676Y-23595237D02*
X73262914Y-23690475D01*
X73262914Y-23690475D02*
X73310533Y-23785713D01*
X8059580Y-85642857D02*
X8107200Y-85690476D01*
X8107200Y-85690476D02*
X8154819Y-85833333D01*
X8154819Y-85833333D02*
X8154819Y-85928571D01*
X8154819Y-85928571D02*
X8107200Y-86071428D01*
X8107200Y-86071428D02*
X8011961Y-86166666D01*
X8011961Y-86166666D02*
X7916723Y-86214285D01*
X7916723Y-86214285D02*
X7726247Y-86261904D01*
X7726247Y-86261904D02*
X7583390Y-86261904D01*
X7583390Y-86261904D02*
X7392914Y-86214285D01*
X7392914Y-86214285D02*
X7297676Y-86166666D01*
X7297676Y-86166666D02*
X7202438Y-86071428D01*
X7202438Y-86071428D02*
X7154819Y-85928571D01*
X7154819Y-85928571D02*
X7154819Y-85833333D01*
X7154819Y-85833333D02*
X7202438Y-85690476D01*
X7202438Y-85690476D02*
X7250057Y-85642857D01*
X8154819Y-84690476D02*
X8154819Y-85261904D01*
X8154819Y-84976190D02*
X7154819Y-84976190D01*
X7154819Y-84976190D02*
X7297676Y-85071428D01*
X7297676Y-85071428D02*
X7392914Y-85166666D01*
X7392914Y-85166666D02*
X7440533Y-85261904D01*
X7154819Y-84357142D02*
X7154819Y-83738095D01*
X7154819Y-83738095D02*
X7535771Y-84071428D01*
X7535771Y-84071428D02*
X7535771Y-83928571D01*
X7535771Y-83928571D02*
X7583390Y-83833333D01*
X7583390Y-83833333D02*
X7631009Y-83785714D01*
X7631009Y-83785714D02*
X7726247Y-83738095D01*
X7726247Y-83738095D02*
X7964342Y-83738095D01*
X7964342Y-83738095D02*
X8059580Y-83785714D01*
X8059580Y-83785714D02*
X8107200Y-83833333D01*
X8107200Y-83833333D02*
X8154819Y-83928571D01*
X8154819Y-83928571D02*
X8154819Y-84214285D01*
X8154819Y-84214285D02*
X8107200Y-84309523D01*
X8107200Y-84309523D02*
X8059580Y-84357142D01*
X94024819Y-92642857D02*
X93548628Y-92976190D01*
X94024819Y-93214285D02*
X93024819Y-93214285D01*
X93024819Y-93214285D02*
X93024819Y-92833333D01*
X93024819Y-92833333D02*
X93072438Y-92738095D01*
X93072438Y-92738095D02*
X93120057Y-92690476D01*
X93120057Y-92690476D02*
X93215295Y-92642857D01*
X93215295Y-92642857D02*
X93358152Y-92642857D01*
X93358152Y-92642857D02*
X93453390Y-92690476D01*
X93453390Y-92690476D02*
X93501009Y-92738095D01*
X93501009Y-92738095D02*
X93548628Y-92833333D01*
X93548628Y-92833333D02*
X93548628Y-93214285D01*
X94024819Y-91690476D02*
X94024819Y-92261904D01*
X94024819Y-91976190D02*
X93024819Y-91976190D01*
X93024819Y-91976190D02*
X93167676Y-92071428D01*
X93167676Y-92071428D02*
X93262914Y-92166666D01*
X93262914Y-92166666D02*
X93310533Y-92261904D01*
X94024819Y-90738095D02*
X94024819Y-91309523D01*
X94024819Y-91023809D02*
X93024819Y-91023809D01*
X93024819Y-91023809D02*
X93167676Y-91119047D01*
X93167676Y-91119047D02*
X93262914Y-91214285D01*
X93262914Y-91214285D02*
X93310533Y-91309523D01*
X64024819Y-66166666D02*
X63548628Y-66499999D01*
X64024819Y-66738094D02*
X63024819Y-66738094D01*
X63024819Y-66738094D02*
X63024819Y-66357142D01*
X63024819Y-66357142D02*
X63072438Y-66261904D01*
X63072438Y-66261904D02*
X63120057Y-66214285D01*
X63120057Y-66214285D02*
X63215295Y-66166666D01*
X63215295Y-66166666D02*
X63358152Y-66166666D01*
X63358152Y-66166666D02*
X63453390Y-66214285D01*
X63453390Y-66214285D02*
X63501009Y-66261904D01*
X63501009Y-66261904D02*
X63548628Y-66357142D01*
X63548628Y-66357142D02*
X63548628Y-66738094D01*
X63024819Y-65833332D02*
X63024819Y-65214285D01*
X63024819Y-65214285D02*
X63405771Y-65547618D01*
X63405771Y-65547618D02*
X63405771Y-65404761D01*
X63405771Y-65404761D02*
X63453390Y-65309523D01*
X63453390Y-65309523D02*
X63501009Y-65261904D01*
X63501009Y-65261904D02*
X63596247Y-65214285D01*
X63596247Y-65214285D02*
X63834342Y-65214285D01*
X63834342Y-65214285D02*
X63929580Y-65261904D01*
X63929580Y-65261904D02*
X63977200Y-65309523D01*
X63977200Y-65309523D02*
X64024819Y-65404761D01*
X64024819Y-65404761D02*
X64024819Y-65690475D01*
X64024819Y-65690475D02*
X63977200Y-65785713D01*
X63977200Y-65785713D02*
X63929580Y-65833332D01*
X106059580Y-20166666D02*
X106107200Y-20214285D01*
X106107200Y-20214285D02*
X106154819Y-20357142D01*
X106154819Y-20357142D02*
X106154819Y-20452380D01*
X106154819Y-20452380D02*
X106107200Y-20595237D01*
X106107200Y-20595237D02*
X106011961Y-20690475D01*
X106011961Y-20690475D02*
X105916723Y-20738094D01*
X105916723Y-20738094D02*
X105726247Y-20785713D01*
X105726247Y-20785713D02*
X105583390Y-20785713D01*
X105583390Y-20785713D02*
X105392914Y-20738094D01*
X105392914Y-20738094D02*
X105297676Y-20690475D01*
X105297676Y-20690475D02*
X105202438Y-20595237D01*
X105202438Y-20595237D02*
X105154819Y-20452380D01*
X105154819Y-20452380D02*
X105154819Y-20357142D01*
X105154819Y-20357142D02*
X105202438Y-20214285D01*
X105202438Y-20214285D02*
X105250057Y-20166666D01*
X105488152Y-19309523D02*
X106154819Y-19309523D01*
X105107200Y-19547618D02*
X105821485Y-19785713D01*
X105821485Y-19785713D02*
X105821485Y-19166666D01*
X19238095Y-75954819D02*
X19238095Y-76764342D01*
X19238095Y-76764342D02*
X19285714Y-76859580D01*
X19285714Y-76859580D02*
X19333333Y-76907200D01*
X19333333Y-76907200D02*
X19428571Y-76954819D01*
X19428571Y-76954819D02*
X19619047Y-76954819D01*
X19619047Y-76954819D02*
X19714285Y-76907200D01*
X19714285Y-76907200D02*
X19761904Y-76859580D01*
X19761904Y-76859580D02*
X19809523Y-76764342D01*
X19809523Y-76764342D02*
X19809523Y-75954819D01*
X20238095Y-76050057D02*
X20285714Y-76002438D01*
X20285714Y-76002438D02*
X20380952Y-75954819D01*
X20380952Y-75954819D02*
X20619047Y-75954819D01*
X20619047Y-75954819D02*
X20714285Y-76002438D01*
X20714285Y-76002438D02*
X20761904Y-76050057D01*
X20761904Y-76050057D02*
X20809523Y-76145295D01*
X20809523Y-76145295D02*
X20809523Y-76240533D01*
X20809523Y-76240533D02*
X20761904Y-76383390D01*
X20761904Y-76383390D02*
X20190476Y-76954819D01*
X20190476Y-76954819D02*
X20809523Y-76954819D01*
X127904761Y-36050057D02*
X127809523Y-36002438D01*
X127809523Y-36002438D02*
X127714285Y-35907200D01*
X127714285Y-35907200D02*
X127571428Y-35764342D01*
X127571428Y-35764342D02*
X127476190Y-35716723D01*
X127476190Y-35716723D02*
X127380952Y-35716723D01*
X127428571Y-35954819D02*
X127333333Y-35907200D01*
X127333333Y-35907200D02*
X127238095Y-35811961D01*
X127238095Y-35811961D02*
X127190476Y-35621485D01*
X127190476Y-35621485D02*
X127190476Y-35288152D01*
X127190476Y-35288152D02*
X127238095Y-35097676D01*
X127238095Y-35097676D02*
X127333333Y-35002438D01*
X127333333Y-35002438D02*
X127428571Y-34954819D01*
X127428571Y-34954819D02*
X127619047Y-34954819D01*
X127619047Y-34954819D02*
X127714285Y-35002438D01*
X127714285Y-35002438D02*
X127809523Y-35097676D01*
X127809523Y-35097676D02*
X127857142Y-35288152D01*
X127857142Y-35288152D02*
X127857142Y-35621485D01*
X127857142Y-35621485D02*
X127809523Y-35811961D01*
X127809523Y-35811961D02*
X127714285Y-35907200D01*
X127714285Y-35907200D02*
X127619047Y-35954819D01*
X127619047Y-35954819D02*
X127428571Y-35954819D01*
X128190476Y-34954819D02*
X128809523Y-34954819D01*
X128809523Y-34954819D02*
X128476190Y-35335771D01*
X128476190Y-35335771D02*
X128619047Y-35335771D01*
X128619047Y-35335771D02*
X128714285Y-35383390D01*
X128714285Y-35383390D02*
X128761904Y-35431009D01*
X128761904Y-35431009D02*
X128809523Y-35526247D01*
X128809523Y-35526247D02*
X128809523Y-35764342D01*
X128809523Y-35764342D02*
X128761904Y-35859580D01*
X128761904Y-35859580D02*
X128714285Y-35907200D01*
X128714285Y-35907200D02*
X128619047Y-35954819D01*
X128619047Y-35954819D02*
X128333333Y-35954819D01*
X128333333Y-35954819D02*
X128238095Y-35907200D01*
X128238095Y-35907200D02*
X128190476Y-35859580D01*
X74238095Y-41124819D02*
X74238095Y-41934342D01*
X74238095Y-41934342D02*
X74285714Y-42029580D01*
X74285714Y-42029580D02*
X74333333Y-42077200D01*
X74333333Y-42077200D02*
X74428571Y-42124819D01*
X74428571Y-42124819D02*
X74619047Y-42124819D01*
X74619047Y-42124819D02*
X74714285Y-42077200D01*
X74714285Y-42077200D02*
X74761904Y-42029580D01*
X74761904Y-42029580D02*
X74809523Y-41934342D01*
X74809523Y-41934342D02*
X74809523Y-41124819D01*
X75809523Y-42124819D02*
X75238095Y-42124819D01*
X75523809Y-42124819D02*
X75523809Y-41124819D01*
X75523809Y-41124819D02*
X75428571Y-41267676D01*
X75428571Y-41267676D02*
X75333333Y-41362914D01*
X75333333Y-41362914D02*
X75238095Y-41410533D01*
X107904761Y-36050057D02*
X107809523Y-36002438D01*
X107809523Y-36002438D02*
X107714285Y-35907200D01*
X107714285Y-35907200D02*
X107571428Y-35764342D01*
X107571428Y-35764342D02*
X107476190Y-35716723D01*
X107476190Y-35716723D02*
X107380952Y-35716723D01*
X107428571Y-35954819D02*
X107333333Y-35907200D01*
X107333333Y-35907200D02*
X107238095Y-35811961D01*
X107238095Y-35811961D02*
X107190476Y-35621485D01*
X107190476Y-35621485D02*
X107190476Y-35288152D01*
X107190476Y-35288152D02*
X107238095Y-35097676D01*
X107238095Y-35097676D02*
X107333333Y-35002438D01*
X107333333Y-35002438D02*
X107428571Y-34954819D01*
X107428571Y-34954819D02*
X107619047Y-34954819D01*
X107619047Y-34954819D02*
X107714285Y-35002438D01*
X107714285Y-35002438D02*
X107809523Y-35097676D01*
X107809523Y-35097676D02*
X107857142Y-35288152D01*
X107857142Y-35288152D02*
X107857142Y-35621485D01*
X107857142Y-35621485D02*
X107809523Y-35811961D01*
X107809523Y-35811961D02*
X107714285Y-35907200D01*
X107714285Y-35907200D02*
X107619047Y-35954819D01*
X107619047Y-35954819D02*
X107428571Y-35954819D01*
X108809523Y-35954819D02*
X108238095Y-35954819D01*
X108523809Y-35954819D02*
X108523809Y-34954819D01*
X108523809Y-34954819D02*
X108428571Y-35097676D01*
X108428571Y-35097676D02*
X108333333Y-35192914D01*
X108333333Y-35192914D02*
X108238095Y-35240533D01*
X90059580Y-28166666D02*
X90107200Y-28214285D01*
X90107200Y-28214285D02*
X90154819Y-28357142D01*
X90154819Y-28357142D02*
X90154819Y-28452380D01*
X90154819Y-28452380D02*
X90107200Y-28595237D01*
X90107200Y-28595237D02*
X90011961Y-28690475D01*
X90011961Y-28690475D02*
X89916723Y-28738094D01*
X89916723Y-28738094D02*
X89726247Y-28785713D01*
X89726247Y-28785713D02*
X89583390Y-28785713D01*
X89583390Y-28785713D02*
X89392914Y-28738094D01*
X89392914Y-28738094D02*
X89297676Y-28690475D01*
X89297676Y-28690475D02*
X89202438Y-28595237D01*
X89202438Y-28595237D02*
X89154819Y-28452380D01*
X89154819Y-28452380D02*
X89154819Y-28357142D01*
X89154819Y-28357142D02*
X89202438Y-28214285D01*
X89202438Y-28214285D02*
X89250057Y-28166666D01*
X89154819Y-27309523D02*
X89154819Y-27499999D01*
X89154819Y-27499999D02*
X89202438Y-27595237D01*
X89202438Y-27595237D02*
X89250057Y-27642856D01*
X89250057Y-27642856D02*
X89392914Y-27738094D01*
X89392914Y-27738094D02*
X89583390Y-27785713D01*
X89583390Y-27785713D02*
X89964342Y-27785713D01*
X89964342Y-27785713D02*
X90059580Y-27738094D01*
X90059580Y-27738094D02*
X90107200Y-27690475D01*
X90107200Y-27690475D02*
X90154819Y-27595237D01*
X90154819Y-27595237D02*
X90154819Y-27404761D01*
X90154819Y-27404761D02*
X90107200Y-27309523D01*
X90107200Y-27309523D02*
X90059580Y-27261904D01*
X90059580Y-27261904D02*
X89964342Y-27214285D01*
X89964342Y-27214285D02*
X89726247Y-27214285D01*
X89726247Y-27214285D02*
X89631009Y-27261904D01*
X89631009Y-27261904D02*
X89583390Y-27309523D01*
X89583390Y-27309523D02*
X89535771Y-27404761D01*
X89535771Y-27404761D02*
X89535771Y-27595237D01*
X89535771Y-27595237D02*
X89583390Y-27690475D01*
X89583390Y-27690475D02*
X89631009Y-27738094D01*
X89631009Y-27738094D02*
X89726247Y-27785713D01*
X104024819Y-72642857D02*
X103548628Y-72976190D01*
X104024819Y-73214285D02*
X103024819Y-73214285D01*
X103024819Y-73214285D02*
X103024819Y-72833333D01*
X103024819Y-72833333D02*
X103072438Y-72738095D01*
X103072438Y-72738095D02*
X103120057Y-72690476D01*
X103120057Y-72690476D02*
X103215295Y-72642857D01*
X103215295Y-72642857D02*
X103358152Y-72642857D01*
X103358152Y-72642857D02*
X103453390Y-72690476D01*
X103453390Y-72690476D02*
X103501009Y-72738095D01*
X103501009Y-72738095D02*
X103548628Y-72833333D01*
X103548628Y-72833333D02*
X103548628Y-73214285D01*
X104024819Y-71690476D02*
X104024819Y-72261904D01*
X104024819Y-71976190D02*
X103024819Y-71976190D01*
X103024819Y-71976190D02*
X103167676Y-72071428D01*
X103167676Y-72071428D02*
X103262914Y-72166666D01*
X103262914Y-72166666D02*
X103310533Y-72261904D01*
X103120057Y-71309523D02*
X103072438Y-71261904D01*
X103072438Y-71261904D02*
X103024819Y-71166666D01*
X103024819Y-71166666D02*
X103024819Y-70928571D01*
X103024819Y-70928571D02*
X103072438Y-70833333D01*
X103072438Y-70833333D02*
X103120057Y-70785714D01*
X103120057Y-70785714D02*
X103215295Y-70738095D01*
X103215295Y-70738095D02*
X103310533Y-70738095D01*
X103310533Y-70738095D02*
X103453390Y-70785714D01*
X103453390Y-70785714D02*
X104024819Y-71357142D01*
X104024819Y-71357142D02*
X104024819Y-70738095D01*
X50929580Y-113642857D02*
X50977200Y-113690476D01*
X50977200Y-113690476D02*
X51024819Y-113833333D01*
X51024819Y-113833333D02*
X51024819Y-113928571D01*
X51024819Y-113928571D02*
X50977200Y-114071428D01*
X50977200Y-114071428D02*
X50881961Y-114166666D01*
X50881961Y-114166666D02*
X50786723Y-114214285D01*
X50786723Y-114214285D02*
X50596247Y-114261904D01*
X50596247Y-114261904D02*
X50453390Y-114261904D01*
X50453390Y-114261904D02*
X50262914Y-114214285D01*
X50262914Y-114214285D02*
X50167676Y-114166666D01*
X50167676Y-114166666D02*
X50072438Y-114071428D01*
X50072438Y-114071428D02*
X50024819Y-113928571D01*
X50024819Y-113928571D02*
X50024819Y-113833333D01*
X50024819Y-113833333D02*
X50072438Y-113690476D01*
X50072438Y-113690476D02*
X50120057Y-113642857D01*
X50120057Y-113261904D02*
X50072438Y-113214285D01*
X50072438Y-113214285D02*
X50024819Y-113119047D01*
X50024819Y-113119047D02*
X50024819Y-112880952D01*
X50024819Y-112880952D02*
X50072438Y-112785714D01*
X50072438Y-112785714D02*
X50120057Y-112738095D01*
X50120057Y-112738095D02*
X50215295Y-112690476D01*
X50215295Y-112690476D02*
X50310533Y-112690476D01*
X50310533Y-112690476D02*
X50453390Y-112738095D01*
X50453390Y-112738095D02*
X51024819Y-113309523D01*
X51024819Y-113309523D02*
X51024819Y-112690476D01*
X50120057Y-112309523D02*
X50072438Y-112261904D01*
X50072438Y-112261904D02*
X50024819Y-112166666D01*
X50024819Y-112166666D02*
X50024819Y-111928571D01*
X50024819Y-111928571D02*
X50072438Y-111833333D01*
X50072438Y-111833333D02*
X50120057Y-111785714D01*
X50120057Y-111785714D02*
X50215295Y-111738095D01*
X50215295Y-111738095D02*
X50310533Y-111738095D01*
X50310533Y-111738095D02*
X50453390Y-111785714D01*
X50453390Y-111785714D02*
X51024819Y-112357142D01*
X51024819Y-112357142D02*
X51024819Y-111738095D01*
X50929580Y-105642857D02*
X50977200Y-105690476D01*
X50977200Y-105690476D02*
X51024819Y-105833333D01*
X51024819Y-105833333D02*
X51024819Y-105928571D01*
X51024819Y-105928571D02*
X50977200Y-106071428D01*
X50977200Y-106071428D02*
X50881961Y-106166666D01*
X50881961Y-106166666D02*
X50786723Y-106214285D01*
X50786723Y-106214285D02*
X50596247Y-106261904D01*
X50596247Y-106261904D02*
X50453390Y-106261904D01*
X50453390Y-106261904D02*
X50262914Y-106214285D01*
X50262914Y-106214285D02*
X50167676Y-106166666D01*
X50167676Y-106166666D02*
X50072438Y-106071428D01*
X50072438Y-106071428D02*
X50024819Y-105928571D01*
X50024819Y-105928571D02*
X50024819Y-105833333D01*
X50024819Y-105833333D02*
X50072438Y-105690476D01*
X50072438Y-105690476D02*
X50120057Y-105642857D01*
X50120057Y-105261904D02*
X50072438Y-105214285D01*
X50072438Y-105214285D02*
X50024819Y-105119047D01*
X50024819Y-105119047D02*
X50024819Y-104880952D01*
X50024819Y-104880952D02*
X50072438Y-104785714D01*
X50072438Y-104785714D02*
X50120057Y-104738095D01*
X50120057Y-104738095D02*
X50215295Y-104690476D01*
X50215295Y-104690476D02*
X50310533Y-104690476D01*
X50310533Y-104690476D02*
X50453390Y-104738095D01*
X50453390Y-104738095D02*
X51024819Y-105309523D01*
X51024819Y-105309523D02*
X51024819Y-104690476D01*
X50024819Y-104071428D02*
X50024819Y-103976190D01*
X50024819Y-103976190D02*
X50072438Y-103880952D01*
X50072438Y-103880952D02*
X50120057Y-103833333D01*
X50120057Y-103833333D02*
X50215295Y-103785714D01*
X50215295Y-103785714D02*
X50405771Y-103738095D01*
X50405771Y-103738095D02*
X50643866Y-103738095D01*
X50643866Y-103738095D02*
X50834342Y-103785714D01*
X50834342Y-103785714D02*
X50929580Y-103833333D01*
X50929580Y-103833333D02*
X50977200Y-103880952D01*
X50977200Y-103880952D02*
X51024819Y-103976190D01*
X51024819Y-103976190D02*
X51024819Y-104071428D01*
X51024819Y-104071428D02*
X50977200Y-104166666D01*
X50977200Y-104166666D02*
X50929580Y-104214285D01*
X50929580Y-104214285D02*
X50834342Y-104261904D01*
X50834342Y-104261904D02*
X50643866Y-104309523D01*
X50643866Y-104309523D02*
X50405771Y-104309523D01*
X50405771Y-104309523D02*
X50215295Y-104261904D01*
X50215295Y-104261904D02*
X50120057Y-104214285D01*
X50120057Y-104214285D02*
X50072438Y-104166666D01*
X50072438Y-104166666D02*
X50024819Y-104071428D01*
X89583333Y-10109580D02*
X89535714Y-10157200D01*
X89535714Y-10157200D02*
X89392857Y-10204819D01*
X89392857Y-10204819D02*
X89297619Y-10204819D01*
X89297619Y-10204819D02*
X89154762Y-10157200D01*
X89154762Y-10157200D02*
X89059524Y-10061961D01*
X89059524Y-10061961D02*
X89011905Y-9966723D01*
X89011905Y-9966723D02*
X88964286Y-9776247D01*
X88964286Y-9776247D02*
X88964286Y-9633390D01*
X88964286Y-9633390D02*
X89011905Y-9442914D01*
X89011905Y-9442914D02*
X89059524Y-9347676D01*
X89059524Y-9347676D02*
X89154762Y-9252438D01*
X89154762Y-9252438D02*
X89297619Y-9204819D01*
X89297619Y-9204819D02*
X89392857Y-9204819D01*
X89392857Y-9204819D02*
X89535714Y-9252438D01*
X89535714Y-9252438D02*
X89583333Y-9300057D01*
X90535714Y-10204819D02*
X89964286Y-10204819D01*
X90250000Y-10204819D02*
X90250000Y-9204819D01*
X90250000Y-9204819D02*
X90154762Y-9347676D01*
X90154762Y-9347676D02*
X90059524Y-9442914D01*
X90059524Y-9442914D02*
X89964286Y-9490533D01*
X34833333Y-76004819D02*
X34357143Y-76004819D01*
X34357143Y-76004819D02*
X34357143Y-75004819D01*
X35690476Y-76004819D02*
X35119048Y-76004819D01*
X35404762Y-76004819D02*
X35404762Y-75004819D01*
X35404762Y-75004819D02*
X35309524Y-75147676D01*
X35309524Y-75147676D02*
X35214286Y-75242914D01*
X35214286Y-75242914D02*
X35119048Y-75290533D01*
X56679580Y-62166666D02*
X56727200Y-62214285D01*
X56727200Y-62214285D02*
X56774819Y-62357142D01*
X56774819Y-62357142D02*
X56774819Y-62452380D01*
X56774819Y-62452380D02*
X56727200Y-62595237D01*
X56727200Y-62595237D02*
X56631961Y-62690475D01*
X56631961Y-62690475D02*
X56536723Y-62738094D01*
X56536723Y-62738094D02*
X56346247Y-62785713D01*
X56346247Y-62785713D02*
X56203390Y-62785713D01*
X56203390Y-62785713D02*
X56012914Y-62738094D01*
X56012914Y-62738094D02*
X55917676Y-62690475D01*
X55917676Y-62690475D02*
X55822438Y-62595237D01*
X55822438Y-62595237D02*
X55774819Y-62452380D01*
X55774819Y-62452380D02*
X55774819Y-62357142D01*
X55774819Y-62357142D02*
X55822438Y-62214285D01*
X55822438Y-62214285D02*
X55870057Y-62166666D01*
X55774819Y-61833332D02*
X55774819Y-61166666D01*
X55774819Y-61166666D02*
X56774819Y-61595237D01*
X135024819Y-100642857D02*
X134548628Y-100976190D01*
X135024819Y-101214285D02*
X134024819Y-101214285D01*
X134024819Y-101214285D02*
X134024819Y-100833333D01*
X134024819Y-100833333D02*
X134072438Y-100738095D01*
X134072438Y-100738095D02*
X134120057Y-100690476D01*
X134120057Y-100690476D02*
X134215295Y-100642857D01*
X134215295Y-100642857D02*
X134358152Y-100642857D01*
X134358152Y-100642857D02*
X134453390Y-100690476D01*
X134453390Y-100690476D02*
X134501009Y-100738095D01*
X134501009Y-100738095D02*
X134548628Y-100833333D01*
X134548628Y-100833333D02*
X134548628Y-101214285D01*
X135024819Y-99690476D02*
X135024819Y-100261904D01*
X135024819Y-99976190D02*
X134024819Y-99976190D01*
X134024819Y-99976190D02*
X134167676Y-100071428D01*
X134167676Y-100071428D02*
X134262914Y-100166666D01*
X134262914Y-100166666D02*
X134310533Y-100261904D01*
X134024819Y-98833333D02*
X134024819Y-99023809D01*
X134024819Y-99023809D02*
X134072438Y-99119047D01*
X134072438Y-99119047D02*
X134120057Y-99166666D01*
X134120057Y-99166666D02*
X134262914Y-99261904D01*
X134262914Y-99261904D02*
X134453390Y-99309523D01*
X134453390Y-99309523D02*
X134834342Y-99309523D01*
X134834342Y-99309523D02*
X134929580Y-99261904D01*
X134929580Y-99261904D02*
X134977200Y-99214285D01*
X134977200Y-99214285D02*
X135024819Y-99119047D01*
X135024819Y-99119047D02*
X135024819Y-98928571D01*
X135024819Y-98928571D02*
X134977200Y-98833333D01*
X134977200Y-98833333D02*
X134929580Y-98785714D01*
X134929580Y-98785714D02*
X134834342Y-98738095D01*
X134834342Y-98738095D02*
X134596247Y-98738095D01*
X134596247Y-98738095D02*
X134501009Y-98785714D01*
X134501009Y-98785714D02*
X134453390Y-98833333D01*
X134453390Y-98833333D02*
X134405771Y-98928571D01*
X134405771Y-98928571D02*
X134405771Y-99119047D01*
X134405771Y-99119047D02*
X134453390Y-99214285D01*
X134453390Y-99214285D02*
X134501009Y-99261904D01*
X134501009Y-99261904D02*
X134596247Y-99309523D01*
X131833333Y-57824819D02*
X131500000Y-57348628D01*
X131261905Y-57824819D02*
X131261905Y-56824819D01*
X131261905Y-56824819D02*
X131642857Y-56824819D01*
X131642857Y-56824819D02*
X131738095Y-56872438D01*
X131738095Y-56872438D02*
X131785714Y-56920057D01*
X131785714Y-56920057D02*
X131833333Y-57015295D01*
X131833333Y-57015295D02*
X131833333Y-57158152D01*
X131833333Y-57158152D02*
X131785714Y-57253390D01*
X131785714Y-57253390D02*
X131738095Y-57301009D01*
X131738095Y-57301009D02*
X131642857Y-57348628D01*
X131642857Y-57348628D02*
X131261905Y-57348628D01*
X132166667Y-56824819D02*
X132833333Y-56824819D01*
X132833333Y-56824819D02*
X132404762Y-57824819D01*
X3939603Y-25157080D02*
X4654203Y-25157080D01*
X4654203Y-25157080D02*
X4797123Y-25204720D01*
X4797123Y-25204720D02*
X4892404Y-25300000D01*
X4892404Y-25300000D02*
X4940044Y-25442920D01*
X4940044Y-25442920D02*
X4940044Y-25538200D01*
X4940044Y-24156639D02*
X4940044Y-24728319D01*
X4940044Y-24442479D02*
X3939603Y-24442479D01*
X3939603Y-24442479D02*
X4082523Y-24537759D01*
X4082523Y-24537759D02*
X4177803Y-24633039D01*
X4177803Y-24633039D02*
X4225443Y-24728319D01*
X99583333Y-10109580D02*
X99535714Y-10157200D01*
X99535714Y-10157200D02*
X99392857Y-10204819D01*
X99392857Y-10204819D02*
X99297619Y-10204819D01*
X99297619Y-10204819D02*
X99154762Y-10157200D01*
X99154762Y-10157200D02*
X99059524Y-10061961D01*
X99059524Y-10061961D02*
X99011905Y-9966723D01*
X99011905Y-9966723D02*
X98964286Y-9776247D01*
X98964286Y-9776247D02*
X98964286Y-9633390D01*
X98964286Y-9633390D02*
X99011905Y-9442914D01*
X99011905Y-9442914D02*
X99059524Y-9347676D01*
X99059524Y-9347676D02*
X99154762Y-9252438D01*
X99154762Y-9252438D02*
X99297619Y-9204819D01*
X99297619Y-9204819D02*
X99392857Y-9204819D01*
X99392857Y-9204819D02*
X99535714Y-9252438D01*
X99535714Y-9252438D02*
X99583333Y-9300057D01*
X99964286Y-9300057D02*
X100011905Y-9252438D01*
X100011905Y-9252438D02*
X100107143Y-9204819D01*
X100107143Y-9204819D02*
X100345238Y-9204819D01*
X100345238Y-9204819D02*
X100440476Y-9252438D01*
X100440476Y-9252438D02*
X100488095Y-9300057D01*
X100488095Y-9300057D02*
X100535714Y-9395295D01*
X100535714Y-9395295D02*
X100535714Y-9490533D01*
X100535714Y-9490533D02*
X100488095Y-9633390D01*
X100488095Y-9633390D02*
X99916667Y-10204819D01*
X99916667Y-10204819D02*
X100535714Y-10204819D01*
X126880952Y-107024819D02*
X126404762Y-107024819D01*
X126404762Y-107024819D02*
X126404762Y-106024819D01*
X127214286Y-106501009D02*
X127547619Y-106501009D01*
X127690476Y-107024819D02*
X127214286Y-107024819D01*
X127214286Y-107024819D02*
X127214286Y-106024819D01*
X127214286Y-106024819D02*
X127690476Y-106024819D01*
X128119048Y-107024819D02*
X128119048Y-106024819D01*
X128119048Y-106024819D02*
X128357143Y-106024819D01*
X128357143Y-106024819D02*
X128500000Y-106072438D01*
X128500000Y-106072438D02*
X128595238Y-106167676D01*
X128595238Y-106167676D02*
X128642857Y-106262914D01*
X128642857Y-106262914D02*
X128690476Y-106453390D01*
X128690476Y-106453390D02*
X128690476Y-106596247D01*
X128690476Y-106596247D02*
X128642857Y-106786723D01*
X128642857Y-106786723D02*
X128595238Y-106881961D01*
X128595238Y-106881961D02*
X128500000Y-106977200D01*
X128500000Y-106977200D02*
X128357143Y-107024819D01*
X128357143Y-107024819D02*
X128119048Y-107024819D01*
X129642857Y-107024819D02*
X129071429Y-107024819D01*
X129357143Y-107024819D02*
X129357143Y-106024819D01*
X129357143Y-106024819D02*
X129261905Y-106167676D01*
X129261905Y-106167676D02*
X129166667Y-106262914D01*
X129166667Y-106262914D02*
X129071429Y-106310533D01*
X90929580Y-45642857D02*
X90977200Y-45690476D01*
X90977200Y-45690476D02*
X91024819Y-45833333D01*
X91024819Y-45833333D02*
X91024819Y-45928571D01*
X91024819Y-45928571D02*
X90977200Y-46071428D01*
X90977200Y-46071428D02*
X90881961Y-46166666D01*
X90881961Y-46166666D02*
X90786723Y-46214285D01*
X90786723Y-46214285D02*
X90596247Y-46261904D01*
X90596247Y-46261904D02*
X90453390Y-46261904D01*
X90453390Y-46261904D02*
X90262914Y-46214285D01*
X90262914Y-46214285D02*
X90167676Y-46166666D01*
X90167676Y-46166666D02*
X90072438Y-46071428D01*
X90072438Y-46071428D02*
X90024819Y-45928571D01*
X90024819Y-45928571D02*
X90024819Y-45833333D01*
X90024819Y-45833333D02*
X90072438Y-45690476D01*
X90072438Y-45690476D02*
X90120057Y-45642857D01*
X91024819Y-44690476D02*
X91024819Y-45261904D01*
X91024819Y-44976190D02*
X90024819Y-44976190D01*
X90024819Y-44976190D02*
X90167676Y-45071428D01*
X90167676Y-45071428D02*
X90262914Y-45166666D01*
X90262914Y-45166666D02*
X90310533Y-45261904D01*
X90024819Y-44071428D02*
X90024819Y-43976190D01*
X90024819Y-43976190D02*
X90072438Y-43880952D01*
X90072438Y-43880952D02*
X90120057Y-43833333D01*
X90120057Y-43833333D02*
X90215295Y-43785714D01*
X90215295Y-43785714D02*
X90405771Y-43738095D01*
X90405771Y-43738095D02*
X90643866Y-43738095D01*
X90643866Y-43738095D02*
X90834342Y-43785714D01*
X90834342Y-43785714D02*
X90929580Y-43833333D01*
X90929580Y-43833333D02*
X90977200Y-43880952D01*
X90977200Y-43880952D02*
X91024819Y-43976190D01*
X91024819Y-43976190D02*
X91024819Y-44071428D01*
X91024819Y-44071428D02*
X90977200Y-44166666D01*
X90977200Y-44166666D02*
X90929580Y-44214285D01*
X90929580Y-44214285D02*
X90834342Y-44261904D01*
X90834342Y-44261904D02*
X90643866Y-44309523D01*
X90643866Y-44309523D02*
X90405771Y-44309523D01*
X90405771Y-44309523D02*
X90215295Y-44261904D01*
X90215295Y-44261904D02*
X90120057Y-44214285D01*
X90120057Y-44214285D02*
X90072438Y-44166666D01*
X90072438Y-44166666D02*
X90024819Y-44071428D01*
X94238095Y-76054819D02*
X94238095Y-76864342D01*
X94238095Y-76864342D02*
X94285714Y-76959580D01*
X94285714Y-76959580D02*
X94333333Y-77007200D01*
X94333333Y-77007200D02*
X94428571Y-77054819D01*
X94428571Y-77054819D02*
X94619047Y-77054819D01*
X94619047Y-77054819D02*
X94714285Y-77007200D01*
X94714285Y-77007200D02*
X94761904Y-76959580D01*
X94761904Y-76959580D02*
X94809523Y-76864342D01*
X94809523Y-76864342D02*
X94809523Y-76054819D01*
X95714285Y-76388152D02*
X95714285Y-77054819D01*
X95476190Y-76007200D02*
X95238095Y-76721485D01*
X95238095Y-76721485D02*
X95857142Y-76721485D01*
X8059580Y-75642857D02*
X8107200Y-75690476D01*
X8107200Y-75690476D02*
X8154819Y-75833333D01*
X8154819Y-75833333D02*
X8154819Y-75928571D01*
X8154819Y-75928571D02*
X8107200Y-76071428D01*
X8107200Y-76071428D02*
X8011961Y-76166666D01*
X8011961Y-76166666D02*
X7916723Y-76214285D01*
X7916723Y-76214285D02*
X7726247Y-76261904D01*
X7726247Y-76261904D02*
X7583390Y-76261904D01*
X7583390Y-76261904D02*
X7392914Y-76214285D01*
X7392914Y-76214285D02*
X7297676Y-76166666D01*
X7297676Y-76166666D02*
X7202438Y-76071428D01*
X7202438Y-76071428D02*
X7154819Y-75928571D01*
X7154819Y-75928571D02*
X7154819Y-75833333D01*
X7154819Y-75833333D02*
X7202438Y-75690476D01*
X7202438Y-75690476D02*
X7250057Y-75642857D01*
X8154819Y-74690476D02*
X8154819Y-75261904D01*
X8154819Y-74976190D02*
X7154819Y-74976190D01*
X7154819Y-74976190D02*
X7297676Y-75071428D01*
X7297676Y-75071428D02*
X7392914Y-75166666D01*
X7392914Y-75166666D02*
X7440533Y-75261904D01*
X7250057Y-74309523D02*
X7202438Y-74261904D01*
X7202438Y-74261904D02*
X7154819Y-74166666D01*
X7154819Y-74166666D02*
X7154819Y-73928571D01*
X7154819Y-73928571D02*
X7202438Y-73833333D01*
X7202438Y-73833333D02*
X7250057Y-73785714D01*
X7250057Y-73785714D02*
X7345295Y-73738095D01*
X7345295Y-73738095D02*
X7440533Y-73738095D01*
X7440533Y-73738095D02*
X7583390Y-73785714D01*
X7583390Y-73785714D02*
X8154819Y-74357142D01*
X8154819Y-74357142D02*
X8154819Y-73738095D01*
X69238095Y-105604819D02*
X69238095Y-106414342D01*
X69238095Y-106414342D02*
X69285714Y-106509580D01*
X69285714Y-106509580D02*
X69333333Y-106557200D01*
X69333333Y-106557200D02*
X69428571Y-106604819D01*
X69428571Y-106604819D02*
X69619047Y-106604819D01*
X69619047Y-106604819D02*
X69714285Y-106557200D01*
X69714285Y-106557200D02*
X69761904Y-106509580D01*
X69761904Y-106509580D02*
X69809523Y-106414342D01*
X69809523Y-106414342D02*
X69809523Y-105604819D01*
X70761904Y-105604819D02*
X70285714Y-105604819D01*
X70285714Y-105604819D02*
X70238095Y-106081009D01*
X70238095Y-106081009D02*
X70285714Y-106033390D01*
X70285714Y-106033390D02*
X70380952Y-105985771D01*
X70380952Y-105985771D02*
X70619047Y-105985771D01*
X70619047Y-105985771D02*
X70714285Y-106033390D01*
X70714285Y-106033390D02*
X70761904Y-106081009D01*
X70761904Y-106081009D02*
X70809523Y-106176247D01*
X70809523Y-106176247D02*
X70809523Y-106414342D01*
X70809523Y-106414342D02*
X70761904Y-106509580D01*
X70761904Y-106509580D02*
X70714285Y-106557200D01*
X70714285Y-106557200D02*
X70619047Y-106604819D01*
X70619047Y-106604819D02*
X70380952Y-106604819D01*
X70380952Y-106604819D02*
X70285714Y-106557200D01*
X70285714Y-106557200D02*
X70238095Y-106509580D01*
X143024819Y-100642857D02*
X142548628Y-100976190D01*
X143024819Y-101214285D02*
X142024819Y-101214285D01*
X142024819Y-101214285D02*
X142024819Y-100833333D01*
X142024819Y-100833333D02*
X142072438Y-100738095D01*
X142072438Y-100738095D02*
X142120057Y-100690476D01*
X142120057Y-100690476D02*
X142215295Y-100642857D01*
X142215295Y-100642857D02*
X142358152Y-100642857D01*
X142358152Y-100642857D02*
X142453390Y-100690476D01*
X142453390Y-100690476D02*
X142501009Y-100738095D01*
X142501009Y-100738095D02*
X142548628Y-100833333D01*
X142548628Y-100833333D02*
X142548628Y-101214285D01*
X143024819Y-99690476D02*
X143024819Y-100261904D01*
X143024819Y-99976190D02*
X142024819Y-99976190D01*
X142024819Y-99976190D02*
X142167676Y-100071428D01*
X142167676Y-100071428D02*
X142262914Y-100166666D01*
X142262914Y-100166666D02*
X142310533Y-100261904D01*
X142024819Y-99357142D02*
X142024819Y-98690476D01*
X142024819Y-98690476D02*
X143024819Y-99119047D01*
X70679580Y-88642857D02*
X70727200Y-88690476D01*
X70727200Y-88690476D02*
X70774819Y-88833333D01*
X70774819Y-88833333D02*
X70774819Y-88928571D01*
X70774819Y-88928571D02*
X70727200Y-89071428D01*
X70727200Y-89071428D02*
X70631961Y-89166666D01*
X70631961Y-89166666D02*
X70536723Y-89214285D01*
X70536723Y-89214285D02*
X70346247Y-89261904D01*
X70346247Y-89261904D02*
X70203390Y-89261904D01*
X70203390Y-89261904D02*
X70012914Y-89214285D01*
X70012914Y-89214285D02*
X69917676Y-89166666D01*
X69917676Y-89166666D02*
X69822438Y-89071428D01*
X69822438Y-89071428D02*
X69774819Y-88928571D01*
X69774819Y-88928571D02*
X69774819Y-88833333D01*
X69774819Y-88833333D02*
X69822438Y-88690476D01*
X69822438Y-88690476D02*
X69870057Y-88642857D01*
X70774819Y-87690476D02*
X70774819Y-88261904D01*
X70774819Y-87976190D02*
X69774819Y-87976190D01*
X69774819Y-87976190D02*
X69917676Y-88071428D01*
X69917676Y-88071428D02*
X70012914Y-88166666D01*
X70012914Y-88166666D02*
X70060533Y-88261904D01*
X70774819Y-87214285D02*
X70774819Y-87023809D01*
X70774819Y-87023809D02*
X70727200Y-86928571D01*
X70727200Y-86928571D02*
X70679580Y-86880952D01*
X70679580Y-86880952D02*
X70536723Y-86785714D01*
X70536723Y-86785714D02*
X70346247Y-86738095D01*
X70346247Y-86738095D02*
X69965295Y-86738095D01*
X69965295Y-86738095D02*
X69870057Y-86785714D01*
X69870057Y-86785714D02*
X69822438Y-86833333D01*
X69822438Y-86833333D02*
X69774819Y-86928571D01*
X69774819Y-86928571D02*
X69774819Y-87119047D01*
X69774819Y-87119047D02*
X69822438Y-87214285D01*
X69822438Y-87214285D02*
X69870057Y-87261904D01*
X69870057Y-87261904D02*
X69965295Y-87309523D01*
X69965295Y-87309523D02*
X70203390Y-87309523D01*
X70203390Y-87309523D02*
X70298628Y-87261904D01*
X70298628Y-87261904D02*
X70346247Y-87214285D01*
X70346247Y-87214285D02*
X70393866Y-87119047D01*
X70393866Y-87119047D02*
X70393866Y-86928571D01*
X70393866Y-86928571D02*
X70346247Y-86833333D01*
X70346247Y-86833333D02*
X70298628Y-86785714D01*
X70298628Y-86785714D02*
X70203390Y-86738095D01*
X94024819Y-66166666D02*
X93548628Y-66499999D01*
X94024819Y-66738094D02*
X93024819Y-66738094D01*
X93024819Y-66738094D02*
X93024819Y-66357142D01*
X93024819Y-66357142D02*
X93072438Y-66261904D01*
X93072438Y-66261904D02*
X93120057Y-66214285D01*
X93120057Y-66214285D02*
X93215295Y-66166666D01*
X93215295Y-66166666D02*
X93358152Y-66166666D01*
X93358152Y-66166666D02*
X93453390Y-66214285D01*
X93453390Y-66214285D02*
X93501009Y-66261904D01*
X93501009Y-66261904D02*
X93548628Y-66357142D01*
X93548628Y-66357142D02*
X93548628Y-66738094D01*
X93024819Y-65261904D02*
X93024819Y-65738094D01*
X93024819Y-65738094D02*
X93501009Y-65785713D01*
X93501009Y-65785713D02*
X93453390Y-65738094D01*
X93453390Y-65738094D02*
X93405771Y-65642856D01*
X93405771Y-65642856D02*
X93405771Y-65404761D01*
X93405771Y-65404761D02*
X93453390Y-65309523D01*
X93453390Y-65309523D02*
X93501009Y-65261904D01*
X93501009Y-65261904D02*
X93596247Y-65214285D01*
X93596247Y-65214285D02*
X93834342Y-65214285D01*
X93834342Y-65214285D02*
X93929580Y-65261904D01*
X93929580Y-65261904D02*
X93977200Y-65309523D01*
X93977200Y-65309523D02*
X94024819Y-65404761D01*
X94024819Y-65404761D02*
X94024819Y-65642856D01*
X94024819Y-65642856D02*
X93977200Y-65738094D01*
X93977200Y-65738094D02*
X93929580Y-65785713D01*
X144624819Y-60166666D02*
X144148628Y-60499999D01*
X144624819Y-60738094D02*
X143624819Y-60738094D01*
X143624819Y-60738094D02*
X143624819Y-60357142D01*
X143624819Y-60357142D02*
X143672438Y-60261904D01*
X143672438Y-60261904D02*
X143720057Y-60214285D01*
X143720057Y-60214285D02*
X143815295Y-60166666D01*
X143815295Y-60166666D02*
X143958152Y-60166666D01*
X143958152Y-60166666D02*
X144053390Y-60214285D01*
X144053390Y-60214285D02*
X144101009Y-60261904D01*
X144101009Y-60261904D02*
X144148628Y-60357142D01*
X144148628Y-60357142D02*
X144148628Y-60738094D01*
X144053390Y-59595237D02*
X144005771Y-59690475D01*
X144005771Y-59690475D02*
X143958152Y-59738094D01*
X143958152Y-59738094D02*
X143862914Y-59785713D01*
X143862914Y-59785713D02*
X143815295Y-59785713D01*
X143815295Y-59785713D02*
X143720057Y-59738094D01*
X143720057Y-59738094D02*
X143672438Y-59690475D01*
X143672438Y-59690475D02*
X143624819Y-59595237D01*
X143624819Y-59595237D02*
X143624819Y-59404761D01*
X143624819Y-59404761D02*
X143672438Y-59309523D01*
X143672438Y-59309523D02*
X143720057Y-59261904D01*
X143720057Y-59261904D02*
X143815295Y-59214285D01*
X143815295Y-59214285D02*
X143862914Y-59214285D01*
X143862914Y-59214285D02*
X143958152Y-59261904D01*
X143958152Y-59261904D02*
X144005771Y-59309523D01*
X144005771Y-59309523D02*
X144053390Y-59404761D01*
X144053390Y-59404761D02*
X144053390Y-59595237D01*
X144053390Y-59595237D02*
X144101009Y-59690475D01*
X144101009Y-59690475D02*
X144148628Y-59738094D01*
X144148628Y-59738094D02*
X144243866Y-59785713D01*
X144243866Y-59785713D02*
X144434342Y-59785713D01*
X144434342Y-59785713D02*
X144529580Y-59738094D01*
X144529580Y-59738094D02*
X144577200Y-59690475D01*
X144577200Y-59690475D02*
X144624819Y-59595237D01*
X144624819Y-59595237D02*
X144624819Y-59404761D01*
X144624819Y-59404761D02*
X144577200Y-59309523D01*
X144577200Y-59309523D02*
X144529580Y-59261904D01*
X144529580Y-59261904D02*
X144434342Y-59214285D01*
X144434342Y-59214285D02*
X144243866Y-59214285D01*
X144243866Y-59214285D02*
X144148628Y-59261904D01*
X144148628Y-59261904D02*
X144101009Y-59309523D01*
X144101009Y-59309523D02*
X144053390Y-59404761D01*
X74024819Y-66166666D02*
X73548628Y-66499999D01*
X74024819Y-66738094D02*
X73024819Y-66738094D01*
X73024819Y-66738094D02*
X73024819Y-66357142D01*
X73024819Y-66357142D02*
X73072438Y-66261904D01*
X73072438Y-66261904D02*
X73120057Y-66214285D01*
X73120057Y-66214285D02*
X73215295Y-66166666D01*
X73215295Y-66166666D02*
X73358152Y-66166666D01*
X73358152Y-66166666D02*
X73453390Y-66214285D01*
X73453390Y-66214285D02*
X73501009Y-66261904D01*
X73501009Y-66261904D02*
X73548628Y-66357142D01*
X73548628Y-66357142D02*
X73548628Y-66738094D01*
X73120057Y-65785713D02*
X73072438Y-65738094D01*
X73072438Y-65738094D02*
X73024819Y-65642856D01*
X73024819Y-65642856D02*
X73024819Y-65404761D01*
X73024819Y-65404761D02*
X73072438Y-65309523D01*
X73072438Y-65309523D02*
X73120057Y-65261904D01*
X73120057Y-65261904D02*
X73215295Y-65214285D01*
X73215295Y-65214285D02*
X73310533Y-65214285D01*
X73310533Y-65214285D02*
X73453390Y-65261904D01*
X73453390Y-65261904D02*
X74024819Y-65833332D01*
X74024819Y-65833332D02*
X74024819Y-65214285D01*
X43059580Y-75642857D02*
X43107200Y-75690476D01*
X43107200Y-75690476D02*
X43154819Y-75833333D01*
X43154819Y-75833333D02*
X43154819Y-75928571D01*
X43154819Y-75928571D02*
X43107200Y-76071428D01*
X43107200Y-76071428D02*
X43011961Y-76166666D01*
X43011961Y-76166666D02*
X42916723Y-76214285D01*
X42916723Y-76214285D02*
X42726247Y-76261904D01*
X42726247Y-76261904D02*
X42583390Y-76261904D01*
X42583390Y-76261904D02*
X42392914Y-76214285D01*
X42392914Y-76214285D02*
X42297676Y-76166666D01*
X42297676Y-76166666D02*
X42202438Y-76071428D01*
X42202438Y-76071428D02*
X42154819Y-75928571D01*
X42154819Y-75928571D02*
X42154819Y-75833333D01*
X42154819Y-75833333D02*
X42202438Y-75690476D01*
X42202438Y-75690476D02*
X42250057Y-75642857D01*
X43154819Y-74690476D02*
X43154819Y-75261904D01*
X43154819Y-74976190D02*
X42154819Y-74976190D01*
X42154819Y-74976190D02*
X42297676Y-75071428D01*
X42297676Y-75071428D02*
X42392914Y-75166666D01*
X42392914Y-75166666D02*
X42440533Y-75261904D01*
X42154819Y-73833333D02*
X42154819Y-74023809D01*
X42154819Y-74023809D02*
X42202438Y-74119047D01*
X42202438Y-74119047D02*
X42250057Y-74166666D01*
X42250057Y-74166666D02*
X42392914Y-74261904D01*
X42392914Y-74261904D02*
X42583390Y-74309523D01*
X42583390Y-74309523D02*
X42964342Y-74309523D01*
X42964342Y-74309523D02*
X43059580Y-74261904D01*
X43059580Y-74261904D02*
X43107200Y-74214285D01*
X43107200Y-74214285D02*
X43154819Y-74119047D01*
X43154819Y-74119047D02*
X43154819Y-73928571D01*
X43154819Y-73928571D02*
X43107200Y-73833333D01*
X43107200Y-73833333D02*
X43059580Y-73785714D01*
X43059580Y-73785714D02*
X42964342Y-73738095D01*
X42964342Y-73738095D02*
X42726247Y-73738095D01*
X42726247Y-73738095D02*
X42631009Y-73785714D01*
X42631009Y-73785714D02*
X42583390Y-73833333D01*
X42583390Y-73833333D02*
X42535771Y-73928571D01*
X42535771Y-73928571D02*
X42535771Y-74119047D01*
X42535771Y-74119047D02*
X42583390Y-74214285D01*
X42583390Y-74214285D02*
X42631009Y-74261904D01*
X42631009Y-74261904D02*
X42726247Y-74309523D01*
X18929580Y-92642857D02*
X18977200Y-92690476D01*
X18977200Y-92690476D02*
X19024819Y-92833333D01*
X19024819Y-92833333D02*
X19024819Y-92928571D01*
X19024819Y-92928571D02*
X18977200Y-93071428D01*
X18977200Y-93071428D02*
X18881961Y-93166666D01*
X18881961Y-93166666D02*
X18786723Y-93214285D01*
X18786723Y-93214285D02*
X18596247Y-93261904D01*
X18596247Y-93261904D02*
X18453390Y-93261904D01*
X18453390Y-93261904D02*
X18262914Y-93214285D01*
X18262914Y-93214285D02*
X18167676Y-93166666D01*
X18167676Y-93166666D02*
X18072438Y-93071428D01*
X18072438Y-93071428D02*
X18024819Y-92928571D01*
X18024819Y-92928571D02*
X18024819Y-92833333D01*
X18024819Y-92833333D02*
X18072438Y-92690476D01*
X18072438Y-92690476D02*
X18120057Y-92642857D01*
X19024819Y-91690476D02*
X19024819Y-92261904D01*
X19024819Y-91976190D02*
X18024819Y-91976190D01*
X18024819Y-91976190D02*
X18167676Y-92071428D01*
X18167676Y-92071428D02*
X18262914Y-92166666D01*
X18262914Y-92166666D02*
X18310533Y-92261904D01*
X18024819Y-90785714D02*
X18024819Y-91261904D01*
X18024819Y-91261904D02*
X18501009Y-91309523D01*
X18501009Y-91309523D02*
X18453390Y-91261904D01*
X18453390Y-91261904D02*
X18405771Y-91166666D01*
X18405771Y-91166666D02*
X18405771Y-90928571D01*
X18405771Y-90928571D02*
X18453390Y-90833333D01*
X18453390Y-90833333D02*
X18501009Y-90785714D01*
X18501009Y-90785714D02*
X18596247Y-90738095D01*
X18596247Y-90738095D02*
X18834342Y-90738095D01*
X18834342Y-90738095D02*
X18929580Y-90785714D01*
X18929580Y-90785714D02*
X18977200Y-90833333D01*
X18977200Y-90833333D02*
X19024819Y-90928571D01*
X19024819Y-90928571D02*
X19024819Y-91166666D01*
X19024819Y-91166666D02*
X18977200Y-91261904D01*
X18977200Y-91261904D02*
X18929580Y-91309523D01*
X50929580Y-109642857D02*
X50977200Y-109690476D01*
X50977200Y-109690476D02*
X51024819Y-109833333D01*
X51024819Y-109833333D02*
X51024819Y-109928571D01*
X51024819Y-109928571D02*
X50977200Y-110071428D01*
X50977200Y-110071428D02*
X50881961Y-110166666D01*
X50881961Y-110166666D02*
X50786723Y-110214285D01*
X50786723Y-110214285D02*
X50596247Y-110261904D01*
X50596247Y-110261904D02*
X50453390Y-110261904D01*
X50453390Y-110261904D02*
X50262914Y-110214285D01*
X50262914Y-110214285D02*
X50167676Y-110166666D01*
X50167676Y-110166666D02*
X50072438Y-110071428D01*
X50072438Y-110071428D02*
X50024819Y-109928571D01*
X50024819Y-109928571D02*
X50024819Y-109833333D01*
X50024819Y-109833333D02*
X50072438Y-109690476D01*
X50072438Y-109690476D02*
X50120057Y-109642857D01*
X50120057Y-109261904D02*
X50072438Y-109214285D01*
X50072438Y-109214285D02*
X50024819Y-109119047D01*
X50024819Y-109119047D02*
X50024819Y-108880952D01*
X50024819Y-108880952D02*
X50072438Y-108785714D01*
X50072438Y-108785714D02*
X50120057Y-108738095D01*
X50120057Y-108738095D02*
X50215295Y-108690476D01*
X50215295Y-108690476D02*
X50310533Y-108690476D01*
X50310533Y-108690476D02*
X50453390Y-108738095D01*
X50453390Y-108738095D02*
X51024819Y-109309523D01*
X51024819Y-109309523D02*
X51024819Y-108690476D01*
X51024819Y-107738095D02*
X51024819Y-108309523D01*
X51024819Y-108023809D02*
X50024819Y-108023809D01*
X50024819Y-108023809D02*
X50167676Y-108119047D01*
X50167676Y-108119047D02*
X50262914Y-108214285D01*
X50262914Y-108214285D02*
X50310533Y-108309523D01*
X168004819Y-79083333D02*
X168719104Y-79083333D01*
X168719104Y-79083333D02*
X168861961Y-79130952D01*
X168861961Y-79130952D02*
X168957200Y-79226190D01*
X168957200Y-79226190D02*
X169004819Y-79369047D01*
X169004819Y-79369047D02*
X169004819Y-79464285D01*
X168004819Y-78702380D02*
X168004819Y-78083333D01*
X168004819Y-78083333D02*
X168385771Y-78416666D01*
X168385771Y-78416666D02*
X168385771Y-78273809D01*
X168385771Y-78273809D02*
X168433390Y-78178571D01*
X168433390Y-78178571D02*
X168481009Y-78130952D01*
X168481009Y-78130952D02*
X168576247Y-78083333D01*
X168576247Y-78083333D02*
X168814342Y-78083333D01*
X168814342Y-78083333D02*
X168909580Y-78130952D01*
X168909580Y-78130952D02*
X168957200Y-78178571D01*
X168957200Y-78178571D02*
X169004819Y-78273809D01*
X169004819Y-78273809D02*
X169004819Y-78559523D01*
X169004819Y-78559523D02*
X168957200Y-78654761D01*
X168957200Y-78654761D02*
X168909580Y-78702380D01*
X55024819Y-100642857D02*
X54548628Y-100976190D01*
X55024819Y-101214285D02*
X54024819Y-101214285D01*
X54024819Y-101214285D02*
X54024819Y-100833333D01*
X54024819Y-100833333D02*
X54072438Y-100738095D01*
X54072438Y-100738095D02*
X54120057Y-100690476D01*
X54120057Y-100690476D02*
X54215295Y-100642857D01*
X54215295Y-100642857D02*
X54358152Y-100642857D01*
X54358152Y-100642857D02*
X54453390Y-100690476D01*
X54453390Y-100690476D02*
X54501009Y-100738095D01*
X54501009Y-100738095D02*
X54548628Y-100833333D01*
X54548628Y-100833333D02*
X54548628Y-101214285D01*
X55024819Y-99690476D02*
X55024819Y-100261904D01*
X55024819Y-99976190D02*
X54024819Y-99976190D01*
X54024819Y-99976190D02*
X54167676Y-100071428D01*
X54167676Y-100071428D02*
X54262914Y-100166666D01*
X54262914Y-100166666D02*
X54310533Y-100261904D01*
X54024819Y-99357142D02*
X54024819Y-98738095D01*
X54024819Y-98738095D02*
X54405771Y-99071428D01*
X54405771Y-99071428D02*
X54405771Y-98928571D01*
X54405771Y-98928571D02*
X54453390Y-98833333D01*
X54453390Y-98833333D02*
X54501009Y-98785714D01*
X54501009Y-98785714D02*
X54596247Y-98738095D01*
X54596247Y-98738095D02*
X54834342Y-98738095D01*
X54834342Y-98738095D02*
X54929580Y-98785714D01*
X54929580Y-98785714D02*
X54977200Y-98833333D01*
X54977200Y-98833333D02*
X55024819Y-98928571D01*
X55024819Y-98928571D02*
X55024819Y-99214285D01*
X55024819Y-99214285D02*
X54977200Y-99309523D01*
X54977200Y-99309523D02*
X54929580Y-99357142D01*
X142880952Y-107024819D02*
X142404762Y-107024819D01*
X142404762Y-107024819D02*
X142404762Y-106024819D01*
X143214286Y-106501009D02*
X143547619Y-106501009D01*
X143690476Y-107024819D02*
X143214286Y-107024819D01*
X143214286Y-107024819D02*
X143214286Y-106024819D01*
X143214286Y-106024819D02*
X143690476Y-106024819D01*
X144119048Y-107024819D02*
X144119048Y-106024819D01*
X144119048Y-106024819D02*
X144357143Y-106024819D01*
X144357143Y-106024819D02*
X144500000Y-106072438D01*
X144500000Y-106072438D02*
X144595238Y-106167676D01*
X144595238Y-106167676D02*
X144642857Y-106262914D01*
X144642857Y-106262914D02*
X144690476Y-106453390D01*
X144690476Y-106453390D02*
X144690476Y-106596247D01*
X144690476Y-106596247D02*
X144642857Y-106786723D01*
X144642857Y-106786723D02*
X144595238Y-106881961D01*
X144595238Y-106881961D02*
X144500000Y-106977200D01*
X144500000Y-106977200D02*
X144357143Y-107024819D01*
X144357143Y-107024819D02*
X144119048Y-107024819D01*
X145023810Y-106024819D02*
X145642857Y-106024819D01*
X145642857Y-106024819D02*
X145309524Y-106405771D01*
X145309524Y-106405771D02*
X145452381Y-106405771D01*
X145452381Y-106405771D02*
X145547619Y-106453390D01*
X145547619Y-106453390D02*
X145595238Y-106501009D01*
X145595238Y-106501009D02*
X145642857Y-106596247D01*
X145642857Y-106596247D02*
X145642857Y-106834342D01*
X145642857Y-106834342D02*
X145595238Y-106929580D01*
X145595238Y-106929580D02*
X145547619Y-106977200D01*
X145547619Y-106977200D02*
X145452381Y-107024819D01*
X145452381Y-107024819D02*
X145166667Y-107024819D01*
X145166667Y-107024819D02*
X145071429Y-106977200D01*
X145071429Y-106977200D02*
X145023810Y-106929580D01*
X64238095Y-74954819D02*
X64238095Y-75764342D01*
X64238095Y-75764342D02*
X64285714Y-75859580D01*
X64285714Y-75859580D02*
X64333333Y-75907200D01*
X64333333Y-75907200D02*
X64428571Y-75954819D01*
X64428571Y-75954819D02*
X64619047Y-75954819D01*
X64619047Y-75954819D02*
X64714285Y-75907200D01*
X64714285Y-75907200D02*
X64761904Y-75859580D01*
X64761904Y-75859580D02*
X64809523Y-75764342D01*
X64809523Y-75764342D02*
X64809523Y-74954819D01*
X65190476Y-74954819D02*
X65809523Y-74954819D01*
X65809523Y-74954819D02*
X65476190Y-75335771D01*
X65476190Y-75335771D02*
X65619047Y-75335771D01*
X65619047Y-75335771D02*
X65714285Y-75383390D01*
X65714285Y-75383390D02*
X65761904Y-75431009D01*
X65761904Y-75431009D02*
X65809523Y-75526247D01*
X65809523Y-75526247D02*
X65809523Y-75764342D01*
X65809523Y-75764342D02*
X65761904Y-75859580D01*
X65761904Y-75859580D02*
X65714285Y-75907200D01*
X65714285Y-75907200D02*
X65619047Y-75954819D01*
X65619047Y-75954819D02*
X65333333Y-75954819D01*
X65333333Y-75954819D02*
X65238095Y-75907200D01*
X65238095Y-75907200D02*
X65190476Y-75859580D01*
X34024819Y-92166666D02*
X33548628Y-92499999D01*
X34024819Y-92738094D02*
X33024819Y-92738094D01*
X33024819Y-92738094D02*
X33024819Y-92357142D01*
X33024819Y-92357142D02*
X33072438Y-92261904D01*
X33072438Y-92261904D02*
X33120057Y-92214285D01*
X33120057Y-92214285D02*
X33215295Y-92166666D01*
X33215295Y-92166666D02*
X33358152Y-92166666D01*
X33358152Y-92166666D02*
X33453390Y-92214285D01*
X33453390Y-92214285D02*
X33501009Y-92261904D01*
X33501009Y-92261904D02*
X33548628Y-92357142D01*
X33548628Y-92357142D02*
X33548628Y-92738094D01*
X34024819Y-91690475D02*
X34024819Y-91499999D01*
X34024819Y-91499999D02*
X33977200Y-91404761D01*
X33977200Y-91404761D02*
X33929580Y-91357142D01*
X33929580Y-91357142D02*
X33786723Y-91261904D01*
X33786723Y-91261904D02*
X33596247Y-91214285D01*
X33596247Y-91214285D02*
X33215295Y-91214285D01*
X33215295Y-91214285D02*
X33120057Y-91261904D01*
X33120057Y-91261904D02*
X33072438Y-91309523D01*
X33072438Y-91309523D02*
X33024819Y-91404761D01*
X33024819Y-91404761D02*
X33024819Y-91595237D01*
X33024819Y-91595237D02*
X33072438Y-91690475D01*
X33072438Y-91690475D02*
X33120057Y-91738094D01*
X33120057Y-91738094D02*
X33215295Y-91785713D01*
X33215295Y-91785713D02*
X33453390Y-91785713D01*
X33453390Y-91785713D02*
X33548628Y-91738094D01*
X33548628Y-91738094D02*
X33596247Y-91690475D01*
X33596247Y-91690475D02*
X33643866Y-91595237D01*
X33643866Y-91595237D02*
X33643866Y-91404761D01*
X33643866Y-91404761D02*
X33596247Y-91309523D01*
X33596247Y-91309523D02*
X33548628Y-91261904D01*
X33548628Y-91261904D02*
X33453390Y-91214285D01*
X90679580Y-62166666D02*
X90727200Y-62214285D01*
X90727200Y-62214285D02*
X90774819Y-62357142D01*
X90774819Y-62357142D02*
X90774819Y-62452380D01*
X90774819Y-62452380D02*
X90727200Y-62595237D01*
X90727200Y-62595237D02*
X90631961Y-62690475D01*
X90631961Y-62690475D02*
X90536723Y-62738094D01*
X90536723Y-62738094D02*
X90346247Y-62785713D01*
X90346247Y-62785713D02*
X90203390Y-62785713D01*
X90203390Y-62785713D02*
X90012914Y-62738094D01*
X90012914Y-62738094D02*
X89917676Y-62690475D01*
X89917676Y-62690475D02*
X89822438Y-62595237D01*
X89822438Y-62595237D02*
X89774819Y-62452380D01*
X89774819Y-62452380D02*
X89774819Y-62357142D01*
X89774819Y-62357142D02*
X89822438Y-62214285D01*
X89822438Y-62214285D02*
X89870057Y-62166666D01*
X90203390Y-61595237D02*
X90155771Y-61690475D01*
X90155771Y-61690475D02*
X90108152Y-61738094D01*
X90108152Y-61738094D02*
X90012914Y-61785713D01*
X90012914Y-61785713D02*
X89965295Y-61785713D01*
X89965295Y-61785713D02*
X89870057Y-61738094D01*
X89870057Y-61738094D02*
X89822438Y-61690475D01*
X89822438Y-61690475D02*
X89774819Y-61595237D01*
X89774819Y-61595237D02*
X89774819Y-61404761D01*
X89774819Y-61404761D02*
X89822438Y-61309523D01*
X89822438Y-61309523D02*
X89870057Y-61261904D01*
X89870057Y-61261904D02*
X89965295Y-61214285D01*
X89965295Y-61214285D02*
X90012914Y-61214285D01*
X90012914Y-61214285D02*
X90108152Y-61261904D01*
X90108152Y-61261904D02*
X90155771Y-61309523D01*
X90155771Y-61309523D02*
X90203390Y-61404761D01*
X90203390Y-61404761D02*
X90203390Y-61595237D01*
X90203390Y-61595237D02*
X90251009Y-61690475D01*
X90251009Y-61690475D02*
X90298628Y-61738094D01*
X90298628Y-61738094D02*
X90393866Y-61785713D01*
X90393866Y-61785713D02*
X90584342Y-61785713D01*
X90584342Y-61785713D02*
X90679580Y-61738094D01*
X90679580Y-61738094D02*
X90727200Y-61690475D01*
X90727200Y-61690475D02*
X90774819Y-61595237D01*
X90774819Y-61595237D02*
X90774819Y-61404761D01*
X90774819Y-61404761D02*
X90727200Y-61309523D01*
X90727200Y-61309523D02*
X90679580Y-61261904D01*
X90679580Y-61261904D02*
X90584342Y-61214285D01*
X90584342Y-61214285D02*
X90393866Y-61214285D01*
X90393866Y-61214285D02*
X90298628Y-61261904D01*
X90298628Y-61261904D02*
X90251009Y-61309523D01*
X90251009Y-61309523D02*
X90203390Y-61404761D01*
X106059580Y-12166666D02*
X106107200Y-12214285D01*
X106107200Y-12214285D02*
X106154819Y-12357142D01*
X106154819Y-12357142D02*
X106154819Y-12452380D01*
X106154819Y-12452380D02*
X106107200Y-12595237D01*
X106107200Y-12595237D02*
X106011961Y-12690475D01*
X106011961Y-12690475D02*
X105916723Y-12738094D01*
X105916723Y-12738094D02*
X105726247Y-12785713D01*
X105726247Y-12785713D02*
X105583390Y-12785713D01*
X105583390Y-12785713D02*
X105392914Y-12738094D01*
X105392914Y-12738094D02*
X105297676Y-12690475D01*
X105297676Y-12690475D02*
X105202438Y-12595237D01*
X105202438Y-12595237D02*
X105154819Y-12452380D01*
X105154819Y-12452380D02*
X105154819Y-12357142D01*
X105154819Y-12357142D02*
X105202438Y-12214285D01*
X105202438Y-12214285D02*
X105250057Y-12166666D01*
X105154819Y-11833332D02*
X105154819Y-11214285D01*
X105154819Y-11214285D02*
X105535771Y-11547618D01*
X105535771Y-11547618D02*
X105535771Y-11404761D01*
X105535771Y-11404761D02*
X105583390Y-11309523D01*
X105583390Y-11309523D02*
X105631009Y-11261904D01*
X105631009Y-11261904D02*
X105726247Y-11214285D01*
X105726247Y-11214285D02*
X105964342Y-11214285D01*
X105964342Y-11214285D02*
X106059580Y-11261904D01*
X106059580Y-11261904D02*
X106107200Y-11309523D01*
X106107200Y-11309523D02*
X106154819Y-11404761D01*
X106154819Y-11404761D02*
X106154819Y-11690475D01*
X106154819Y-11690475D02*
X106107200Y-11785713D01*
X106107200Y-11785713D02*
X106059580Y-11833332D01*
X56929580Y-28166666D02*
X56977200Y-28214285D01*
X56977200Y-28214285D02*
X57024819Y-28357142D01*
X57024819Y-28357142D02*
X57024819Y-28452380D01*
X57024819Y-28452380D02*
X56977200Y-28595237D01*
X56977200Y-28595237D02*
X56881961Y-28690475D01*
X56881961Y-28690475D02*
X56786723Y-28738094D01*
X56786723Y-28738094D02*
X56596247Y-28785713D01*
X56596247Y-28785713D02*
X56453390Y-28785713D01*
X56453390Y-28785713D02*
X56262914Y-28738094D01*
X56262914Y-28738094D02*
X56167676Y-28690475D01*
X56167676Y-28690475D02*
X56072438Y-28595237D01*
X56072438Y-28595237D02*
X56024819Y-28452380D01*
X56024819Y-28452380D02*
X56024819Y-28357142D01*
X56024819Y-28357142D02*
X56072438Y-28214285D01*
X56072438Y-28214285D02*
X56120057Y-28166666D01*
X56024819Y-27261904D02*
X56024819Y-27738094D01*
X56024819Y-27738094D02*
X56501009Y-27785713D01*
X56501009Y-27785713D02*
X56453390Y-27738094D01*
X56453390Y-27738094D02*
X56405771Y-27642856D01*
X56405771Y-27642856D02*
X56405771Y-27404761D01*
X56405771Y-27404761D02*
X56453390Y-27309523D01*
X56453390Y-27309523D02*
X56501009Y-27261904D01*
X56501009Y-27261904D02*
X56596247Y-27214285D01*
X56596247Y-27214285D02*
X56834342Y-27214285D01*
X56834342Y-27214285D02*
X56929580Y-27261904D01*
X56929580Y-27261904D02*
X56977200Y-27309523D01*
X56977200Y-27309523D02*
X57024819Y-27404761D01*
X57024819Y-27404761D02*
X57024819Y-27642856D01*
X57024819Y-27642856D02*
X56977200Y-27738094D01*
X56977200Y-27738094D02*
X56929580Y-27785713D01*
X174969563Y-41509880D02*
X175684163Y-41509880D01*
X175684163Y-41509880D02*
X175827083Y-41557520D01*
X175827083Y-41557520D02*
X175922364Y-41652800D01*
X175922364Y-41652800D02*
X175970004Y-41795720D01*
X175970004Y-41795720D02*
X175970004Y-41891000D01*
X175064843Y-41081119D02*
X175017203Y-41033479D01*
X175017203Y-41033479D02*
X174969563Y-40938199D01*
X174969563Y-40938199D02*
X174969563Y-40699999D01*
X174969563Y-40699999D02*
X175017203Y-40604719D01*
X175017203Y-40604719D02*
X175064843Y-40557079D01*
X175064843Y-40557079D02*
X175160123Y-40509439D01*
X175160123Y-40509439D02*
X175255403Y-40509439D01*
X175255403Y-40509439D02*
X175398323Y-40557079D01*
X175398323Y-40557079D02*
X175970004Y-41128759D01*
X175970004Y-41128759D02*
X175970004Y-40509439D01*
X56929580Y-45166666D02*
X56977200Y-45214285D01*
X56977200Y-45214285D02*
X57024819Y-45357142D01*
X57024819Y-45357142D02*
X57024819Y-45452380D01*
X57024819Y-45452380D02*
X56977200Y-45595237D01*
X56977200Y-45595237D02*
X56881961Y-45690475D01*
X56881961Y-45690475D02*
X56786723Y-45738094D01*
X56786723Y-45738094D02*
X56596247Y-45785713D01*
X56596247Y-45785713D02*
X56453390Y-45785713D01*
X56453390Y-45785713D02*
X56262914Y-45738094D01*
X56262914Y-45738094D02*
X56167676Y-45690475D01*
X56167676Y-45690475D02*
X56072438Y-45595237D01*
X56072438Y-45595237D02*
X56024819Y-45452380D01*
X56024819Y-45452380D02*
X56024819Y-45357142D01*
X56024819Y-45357142D02*
X56072438Y-45214285D01*
X56072438Y-45214285D02*
X56120057Y-45166666D01*
X57024819Y-44690475D02*
X57024819Y-44499999D01*
X57024819Y-44499999D02*
X56977200Y-44404761D01*
X56977200Y-44404761D02*
X56929580Y-44357142D01*
X56929580Y-44357142D02*
X56786723Y-44261904D01*
X56786723Y-44261904D02*
X56596247Y-44214285D01*
X56596247Y-44214285D02*
X56215295Y-44214285D01*
X56215295Y-44214285D02*
X56120057Y-44261904D01*
X56120057Y-44261904D02*
X56072438Y-44309523D01*
X56072438Y-44309523D02*
X56024819Y-44404761D01*
X56024819Y-44404761D02*
X56024819Y-44595237D01*
X56024819Y-44595237D02*
X56072438Y-44690475D01*
X56072438Y-44690475D02*
X56120057Y-44738094D01*
X56120057Y-44738094D02*
X56215295Y-44785713D01*
X56215295Y-44785713D02*
X56453390Y-44785713D01*
X56453390Y-44785713D02*
X56548628Y-44738094D01*
X56548628Y-44738094D02*
X56596247Y-44690475D01*
X56596247Y-44690475D02*
X56643866Y-44595237D01*
X56643866Y-44595237D02*
X56643866Y-44404761D01*
X56643866Y-44404761D02*
X56596247Y-44309523D01*
X56596247Y-44309523D02*
X56548628Y-44261904D01*
X56548628Y-44261904D02*
X56453390Y-44214285D01*
X56679580Y-88642857D02*
X56727200Y-88690476D01*
X56727200Y-88690476D02*
X56774819Y-88833333D01*
X56774819Y-88833333D02*
X56774819Y-88928571D01*
X56774819Y-88928571D02*
X56727200Y-89071428D01*
X56727200Y-89071428D02*
X56631961Y-89166666D01*
X56631961Y-89166666D02*
X56536723Y-89214285D01*
X56536723Y-89214285D02*
X56346247Y-89261904D01*
X56346247Y-89261904D02*
X56203390Y-89261904D01*
X56203390Y-89261904D02*
X56012914Y-89214285D01*
X56012914Y-89214285D02*
X55917676Y-89166666D01*
X55917676Y-89166666D02*
X55822438Y-89071428D01*
X55822438Y-89071428D02*
X55774819Y-88928571D01*
X55774819Y-88928571D02*
X55774819Y-88833333D01*
X55774819Y-88833333D02*
X55822438Y-88690476D01*
X55822438Y-88690476D02*
X55870057Y-88642857D01*
X56774819Y-87690476D02*
X56774819Y-88261904D01*
X56774819Y-87976190D02*
X55774819Y-87976190D01*
X55774819Y-87976190D02*
X55917676Y-88071428D01*
X55917676Y-88071428D02*
X56012914Y-88166666D01*
X56012914Y-88166666D02*
X56060533Y-88261904D01*
X56203390Y-87119047D02*
X56155771Y-87214285D01*
X56155771Y-87214285D02*
X56108152Y-87261904D01*
X56108152Y-87261904D02*
X56012914Y-87309523D01*
X56012914Y-87309523D02*
X55965295Y-87309523D01*
X55965295Y-87309523D02*
X55870057Y-87261904D01*
X55870057Y-87261904D02*
X55822438Y-87214285D01*
X55822438Y-87214285D02*
X55774819Y-87119047D01*
X55774819Y-87119047D02*
X55774819Y-86928571D01*
X55774819Y-86928571D02*
X55822438Y-86833333D01*
X55822438Y-86833333D02*
X55870057Y-86785714D01*
X55870057Y-86785714D02*
X55965295Y-86738095D01*
X55965295Y-86738095D02*
X56012914Y-86738095D01*
X56012914Y-86738095D02*
X56108152Y-86785714D01*
X56108152Y-86785714D02*
X56155771Y-86833333D01*
X56155771Y-86833333D02*
X56203390Y-86928571D01*
X56203390Y-86928571D02*
X56203390Y-87119047D01*
X56203390Y-87119047D02*
X56251009Y-87214285D01*
X56251009Y-87214285D02*
X56298628Y-87261904D01*
X56298628Y-87261904D02*
X56393866Y-87309523D01*
X56393866Y-87309523D02*
X56584342Y-87309523D01*
X56584342Y-87309523D02*
X56679580Y-87261904D01*
X56679580Y-87261904D02*
X56727200Y-87214285D01*
X56727200Y-87214285D02*
X56774819Y-87119047D01*
X56774819Y-87119047D02*
X56774819Y-86928571D01*
X56774819Y-86928571D02*
X56727200Y-86833333D01*
X56727200Y-86833333D02*
X56679580Y-86785714D01*
X56679580Y-86785714D02*
X56584342Y-86738095D01*
X56584342Y-86738095D02*
X56393866Y-86738095D01*
X56393866Y-86738095D02*
X56298628Y-86785714D01*
X56298628Y-86785714D02*
X56251009Y-86833333D01*
X56251009Y-86833333D02*
X56203390Y-86928571D01*
X59024819Y-122642857D02*
X58548628Y-122976190D01*
X59024819Y-123214285D02*
X58024819Y-123214285D01*
X58024819Y-123214285D02*
X58024819Y-122833333D01*
X58024819Y-122833333D02*
X58072438Y-122738095D01*
X58072438Y-122738095D02*
X58120057Y-122690476D01*
X58120057Y-122690476D02*
X58215295Y-122642857D01*
X58215295Y-122642857D02*
X58358152Y-122642857D01*
X58358152Y-122642857D02*
X58453390Y-122690476D01*
X58453390Y-122690476D02*
X58501009Y-122738095D01*
X58501009Y-122738095D02*
X58548628Y-122833333D01*
X58548628Y-122833333D02*
X58548628Y-123214285D01*
X59024819Y-121690476D02*
X59024819Y-122261904D01*
X59024819Y-121976190D02*
X58024819Y-121976190D01*
X58024819Y-121976190D02*
X58167676Y-122071428D01*
X58167676Y-122071428D02*
X58262914Y-122166666D01*
X58262914Y-122166666D02*
X58310533Y-122261904D01*
X58358152Y-120833333D02*
X59024819Y-120833333D01*
X57977200Y-121071428D02*
X58691485Y-121309523D01*
X58691485Y-121309523D02*
X58691485Y-120690476D01*
X84024819Y-66166666D02*
X83548628Y-66499999D01*
X84024819Y-66738094D02*
X83024819Y-66738094D01*
X83024819Y-66738094D02*
X83024819Y-66357142D01*
X83024819Y-66357142D02*
X83072438Y-66261904D01*
X83072438Y-66261904D02*
X83120057Y-66214285D01*
X83120057Y-66214285D02*
X83215295Y-66166666D01*
X83215295Y-66166666D02*
X83358152Y-66166666D01*
X83358152Y-66166666D02*
X83453390Y-66214285D01*
X83453390Y-66214285D02*
X83501009Y-66261904D01*
X83501009Y-66261904D02*
X83548628Y-66357142D01*
X83548628Y-66357142D02*
X83548628Y-66738094D01*
X83358152Y-65309523D02*
X84024819Y-65309523D01*
X82977200Y-65547618D02*
X83691485Y-65785713D01*
X83691485Y-65785713D02*
X83691485Y-65166666D01*
X48059580Y-75642857D02*
X48107200Y-75690476D01*
X48107200Y-75690476D02*
X48154819Y-75833333D01*
X48154819Y-75833333D02*
X48154819Y-75928571D01*
X48154819Y-75928571D02*
X48107200Y-76071428D01*
X48107200Y-76071428D02*
X48011961Y-76166666D01*
X48011961Y-76166666D02*
X47916723Y-76214285D01*
X47916723Y-76214285D02*
X47726247Y-76261904D01*
X47726247Y-76261904D02*
X47583390Y-76261904D01*
X47583390Y-76261904D02*
X47392914Y-76214285D01*
X47392914Y-76214285D02*
X47297676Y-76166666D01*
X47297676Y-76166666D02*
X47202438Y-76071428D01*
X47202438Y-76071428D02*
X47154819Y-75928571D01*
X47154819Y-75928571D02*
X47154819Y-75833333D01*
X47154819Y-75833333D02*
X47202438Y-75690476D01*
X47202438Y-75690476D02*
X47250057Y-75642857D01*
X48154819Y-74690476D02*
X48154819Y-75261904D01*
X48154819Y-74976190D02*
X47154819Y-74976190D01*
X47154819Y-74976190D02*
X47297676Y-75071428D01*
X47297676Y-75071428D02*
X47392914Y-75166666D01*
X47392914Y-75166666D02*
X47440533Y-75261904D01*
X47154819Y-74357142D02*
X47154819Y-73690476D01*
X47154819Y-73690476D02*
X48154819Y-74119047D01*
X149679580Y-60642857D02*
X149727200Y-60690476D01*
X149727200Y-60690476D02*
X149774819Y-60833333D01*
X149774819Y-60833333D02*
X149774819Y-60928571D01*
X149774819Y-60928571D02*
X149727200Y-61071428D01*
X149727200Y-61071428D02*
X149631961Y-61166666D01*
X149631961Y-61166666D02*
X149536723Y-61214285D01*
X149536723Y-61214285D02*
X149346247Y-61261904D01*
X149346247Y-61261904D02*
X149203390Y-61261904D01*
X149203390Y-61261904D02*
X149012914Y-61214285D01*
X149012914Y-61214285D02*
X148917676Y-61166666D01*
X148917676Y-61166666D02*
X148822438Y-61071428D01*
X148822438Y-61071428D02*
X148774819Y-60928571D01*
X148774819Y-60928571D02*
X148774819Y-60833333D01*
X148774819Y-60833333D02*
X148822438Y-60690476D01*
X148822438Y-60690476D02*
X148870057Y-60642857D01*
X149774819Y-59690476D02*
X149774819Y-60261904D01*
X149774819Y-59976190D02*
X148774819Y-59976190D01*
X148774819Y-59976190D02*
X148917676Y-60071428D01*
X148917676Y-60071428D02*
X149012914Y-60166666D01*
X149012914Y-60166666D02*
X149060533Y-60261904D01*
X149774819Y-58738095D02*
X149774819Y-59309523D01*
X149774819Y-59023809D02*
X148774819Y-59023809D01*
X148774819Y-59023809D02*
X148917676Y-59119047D01*
X148917676Y-59119047D02*
X149012914Y-59214285D01*
X149012914Y-59214285D02*
X149060533Y-59309523D01*
X127024819Y-100642857D02*
X126548628Y-100976190D01*
X127024819Y-101214285D02*
X126024819Y-101214285D01*
X126024819Y-101214285D02*
X126024819Y-100833333D01*
X126024819Y-100833333D02*
X126072438Y-100738095D01*
X126072438Y-100738095D02*
X126120057Y-100690476D01*
X126120057Y-100690476D02*
X126215295Y-100642857D01*
X126215295Y-100642857D02*
X126358152Y-100642857D01*
X126358152Y-100642857D02*
X126453390Y-100690476D01*
X126453390Y-100690476D02*
X126501009Y-100738095D01*
X126501009Y-100738095D02*
X126548628Y-100833333D01*
X126548628Y-100833333D02*
X126548628Y-101214285D01*
X127024819Y-99690476D02*
X127024819Y-100261904D01*
X127024819Y-99976190D02*
X126024819Y-99976190D01*
X126024819Y-99976190D02*
X126167676Y-100071428D01*
X126167676Y-100071428D02*
X126262914Y-100166666D01*
X126262914Y-100166666D02*
X126310533Y-100261904D01*
X126024819Y-98785714D02*
X126024819Y-99261904D01*
X126024819Y-99261904D02*
X126501009Y-99309523D01*
X126501009Y-99309523D02*
X126453390Y-99261904D01*
X126453390Y-99261904D02*
X126405771Y-99166666D01*
X126405771Y-99166666D02*
X126405771Y-98928571D01*
X126405771Y-98928571D02*
X126453390Y-98833333D01*
X126453390Y-98833333D02*
X126501009Y-98785714D01*
X126501009Y-98785714D02*
X126596247Y-98738095D01*
X126596247Y-98738095D02*
X126834342Y-98738095D01*
X126834342Y-98738095D02*
X126929580Y-98785714D01*
X126929580Y-98785714D02*
X126977200Y-98833333D01*
X126977200Y-98833333D02*
X127024819Y-98928571D01*
X127024819Y-98928571D02*
X127024819Y-99166666D01*
X127024819Y-99166666D02*
X126977200Y-99261904D01*
X126977200Y-99261904D02*
X126929580Y-99309523D01*
X52066666Y-12131009D02*
X51733333Y-12131009D01*
X51733333Y-12654819D02*
X51733333Y-11654819D01*
X51733333Y-11654819D02*
X52209523Y-11654819D01*
X53114285Y-12654819D02*
X52542857Y-12654819D01*
X52828571Y-12654819D02*
X52828571Y-11654819D01*
X52828571Y-11654819D02*
X52733333Y-11797676D01*
X52733333Y-11797676D02*
X52638095Y-11892914D01*
X52638095Y-11892914D02*
X52542857Y-11940533D01*
X34024819Y-98642857D02*
X33548628Y-98976190D01*
X34024819Y-99214285D02*
X33024819Y-99214285D01*
X33024819Y-99214285D02*
X33024819Y-98833333D01*
X33024819Y-98833333D02*
X33072438Y-98738095D01*
X33072438Y-98738095D02*
X33120057Y-98690476D01*
X33120057Y-98690476D02*
X33215295Y-98642857D01*
X33215295Y-98642857D02*
X33358152Y-98642857D01*
X33358152Y-98642857D02*
X33453390Y-98690476D01*
X33453390Y-98690476D02*
X33501009Y-98738095D01*
X33501009Y-98738095D02*
X33548628Y-98833333D01*
X33548628Y-98833333D02*
X33548628Y-99214285D01*
X34024819Y-97690476D02*
X34024819Y-98261904D01*
X34024819Y-97976190D02*
X33024819Y-97976190D01*
X33024819Y-97976190D02*
X33167676Y-98071428D01*
X33167676Y-98071428D02*
X33262914Y-98166666D01*
X33262914Y-98166666D02*
X33310533Y-98261904D01*
X33024819Y-97071428D02*
X33024819Y-96976190D01*
X33024819Y-96976190D02*
X33072438Y-96880952D01*
X33072438Y-96880952D02*
X33120057Y-96833333D01*
X33120057Y-96833333D02*
X33215295Y-96785714D01*
X33215295Y-96785714D02*
X33405771Y-96738095D01*
X33405771Y-96738095D02*
X33643866Y-96738095D01*
X33643866Y-96738095D02*
X33834342Y-96785714D01*
X33834342Y-96785714D02*
X33929580Y-96833333D01*
X33929580Y-96833333D02*
X33977200Y-96880952D01*
X33977200Y-96880952D02*
X34024819Y-96976190D01*
X34024819Y-96976190D02*
X34024819Y-97071428D01*
X34024819Y-97071428D02*
X33977200Y-97166666D01*
X33977200Y-97166666D02*
X33929580Y-97214285D01*
X33929580Y-97214285D02*
X33834342Y-97261904D01*
X33834342Y-97261904D02*
X33643866Y-97309523D01*
X33643866Y-97309523D02*
X33405771Y-97309523D01*
X33405771Y-97309523D02*
X33215295Y-97261904D01*
X33215295Y-97261904D02*
X33120057Y-97214285D01*
X33120057Y-97214285D02*
X33072438Y-97166666D01*
X33072438Y-97166666D02*
X33024819Y-97071428D01*
%TO.C,C14*%
D11*
X27490000Y-75140580D02*
X27490000Y-74859420D01*
X28510000Y-75140580D02*
X28510000Y-74859420D01*
%TO.C,D1*%
X68340000Y-12850000D02*
X68340000Y-17150000D01*
X68340000Y-12850000D02*
X74150000Y-12850000D01*
X68340000Y-17150000D02*
X74150000Y-17150000D01*
%TO.C,J5*%
X113620000Y-108620000D02*
X115000000Y-108620000D01*
X113620000Y-110000000D02*
X113620000Y-108620000D01*
X113620000Y-111270000D02*
X113620000Y-119000000D01*
X113620000Y-111270000D02*
X116380000Y-111270000D01*
X113620000Y-119000000D02*
X116380000Y-119000000D01*
X116380000Y-111270000D02*
X116380000Y-119000000D01*
%TO.C,C24*%
X59490000Y-100140580D02*
X59490000Y-99859420D01*
X60510000Y-100140580D02*
X60510000Y-99859420D01*
%TO.C,J4*%
X162250000Y-90200000D02*
X162250000Y-95750000D01*
X162250000Y-101300000D02*
X162250000Y-95750000D01*
X165200000Y-89450000D02*
X165200000Y-90200000D01*
X165200000Y-90200000D02*
X162250000Y-90200000D01*
X165200000Y-101300000D02*
X162250000Y-101300000D01*
X165200000Y-102050000D02*
X165200000Y-101300000D01*
X167750000Y-89150000D02*
X166500000Y-89150000D01*
X167750000Y-90400000D02*
X167750000Y-89150000D01*
X166700000Y-89450000D02*
X167450000Y-89450000D01*
X167450000Y-91250000D01*
X166700000Y-91250000D01*
X166700000Y-89450000D01*
X166700000Y-92750000D02*
X167450000Y-92750000D01*
X167450000Y-98750000D01*
X166700000Y-98750000D01*
X166700000Y-92750000D01*
X166700000Y-100250000D02*
X167450000Y-100250000D01*
X167450000Y-102050000D01*
X166700000Y-102050000D01*
X166700000Y-100250000D01*
X161490000Y-89440000D02*
X167460000Y-89440000D01*
X167460000Y-102060000D01*
X161490000Y-102060000D01*
X161490000Y-89440000D01*
%TO.C,R6*%
X64477500Y-24237258D02*
X64477500Y-23762742D01*
X65522500Y-24237258D02*
X65522500Y-23762742D01*
%TO.C,Q2*%
D12*
X105307600Y-49053600D02*
X105307600Y-53701800D01*
X105307600Y-53701800D02*
X115772400Y-53701800D01*
X105434600Y-50323600D02*
X115645400Y-50323600D01*
X115772400Y-49053600D02*
X105307600Y-49053600D01*
X115772400Y-53701800D02*
X115772400Y-49053600D01*
X103732800Y-52000000D02*
G75*
G02*
X103326400Y-52000000I-203200J0D01*
G01*
X103326400Y-52000000D02*
G75*
G02*
X103732800Y-52000000I203200J0D01*
G01*
%TO.C,LED2*%
D11*
X134515000Y-107265000D02*
X134515000Y-108735000D01*
X134515000Y-108735000D02*
X136800000Y-108735000D01*
X136800000Y-107265000D02*
X134515000Y-107265000D01*
%TO.C,Q4*%
D12*
X125307600Y-49053600D02*
X125307600Y-53701800D01*
X125307600Y-53701800D02*
X135772400Y-53701800D01*
X125434600Y-50323600D02*
X135645400Y-50323600D01*
X135772400Y-49053600D02*
X125307600Y-49053600D01*
X135772400Y-53701800D02*
X135772400Y-49053600D01*
X123732800Y-52000000D02*
G75*
G02*
X123326400Y-52000000I-203200J0D01*
G01*
X123326400Y-52000000D02*
G75*
G02*
X123732800Y-52000000I203200J0D01*
G01*
%TO.C,C23*%
D11*
X51265000Y-117261252D02*
X51265000Y-116738748D01*
X52735000Y-117261252D02*
X52735000Y-116738748D01*
%TO.C,R1*%
X74477500Y-24237258D02*
X74477500Y-23762742D01*
X75522500Y-24237258D02*
X75522500Y-23762742D01*
%TO.C,C13*%
X8640000Y-85711252D02*
X8640000Y-84288748D01*
X11360000Y-85711252D02*
X11360000Y-84288748D01*
%TO.C,R11*%
X94477500Y-92237258D02*
X94477500Y-91762742D01*
X95522500Y-92237258D02*
X95522500Y-91762742D01*
%TO.C,R3*%
X64477500Y-66237258D02*
X64477500Y-65762742D01*
X65522500Y-66237258D02*
X65522500Y-65762742D01*
%TO.C,C4*%
X106640000Y-20711252D02*
X106640000Y-19288748D01*
X109360000Y-20711252D02*
X109360000Y-19288748D01*
%TO.C,U2*%
D10*
X17925000Y-77425000D02*
X22075000Y-77425000D01*
X17925000Y-82575000D02*
X22075000Y-82575000D01*
D11*
X17325000Y-77525000D02*
X17085000Y-77195000D01*
X17565000Y-77195000D01*
X17325000Y-77525000D01*
G36*
X17325000Y-77525000D02*
G01*
X17085000Y-77195000D01*
X17565000Y-77195000D01*
X17325000Y-77525000D01*
G37*
%TO.C,Q3*%
D12*
X125307600Y-37053600D02*
X125307600Y-41701800D01*
X125307600Y-41701800D02*
X135772400Y-41701800D01*
X125434600Y-38323600D02*
X135645400Y-38323600D01*
X135772400Y-37053600D02*
X125307600Y-37053600D01*
X135772400Y-41701800D02*
X135772400Y-37053600D01*
X123732800Y-40000000D02*
G75*
G02*
X123326400Y-40000000I-203200J0D01*
G01*
X123326400Y-40000000D02*
G75*
G02*
X123732800Y-40000000I203200J0D01*
G01*
%TO.C,U1*%
D11*
X72890000Y-42890000D02*
X73365000Y-42890000D01*
X72890000Y-43365000D02*
X72890000Y-42890000D01*
X72890000Y-47110000D02*
X72890000Y-46635000D01*
X73365000Y-47110000D02*
X72890000Y-47110000D01*
X76635000Y-42890000D02*
X77110000Y-42890000D01*
X77110000Y-42890000D02*
X77110000Y-43365000D01*
X77110000Y-46635000D02*
X77110000Y-47110000D01*
X77110000Y-47110000D02*
X76635000Y-47110000D01*
X72360000Y-43750000D02*
X72030000Y-43990000D01*
X72030000Y-43510000D01*
X72360000Y-43750000D01*
G36*
X72360000Y-43750000D02*
G01*
X72030000Y-43990000D01*
X72030000Y-43510000D01*
X72360000Y-43750000D01*
G37*
%TO.C,Q1*%
D12*
X105307600Y-37053600D02*
X105307600Y-41701800D01*
X105307600Y-41701800D02*
X115772400Y-41701800D01*
X105434600Y-38323600D02*
X115645400Y-38323600D01*
X115772400Y-37053600D02*
X105307600Y-37053600D01*
X115772400Y-41701800D02*
X115772400Y-37053600D01*
X103732800Y-40000000D02*
G75*
G02*
X103326400Y-40000000I-203200J0D01*
G01*
X103326400Y-40000000D02*
G75*
G02*
X103732800Y-40000000I203200J0D01*
G01*
%TO.C,C6*%
D11*
X90640000Y-28711252D02*
X90640000Y-27288748D01*
X93360000Y-28711252D02*
X93360000Y-27288748D01*
%TO.C,R12*%
X104477500Y-72237258D02*
X104477500Y-71762742D01*
X105522500Y-72237258D02*
X105522500Y-71762742D01*
%TO.C,C22*%
X51490000Y-113140580D02*
X51490000Y-112859420D01*
X52510000Y-113140580D02*
X52510000Y-112859420D01*
%TO.C,C20*%
X51490000Y-105140580D02*
X51490000Y-104859420D01*
X52510000Y-105140580D02*
X52510000Y-104859420D01*
%TO.C,C1*%
X85340302Y-12685000D02*
X86140302Y-12685000D01*
X85740302Y-12285000D02*
X85740302Y-13085000D01*
X89750000Y-10920000D02*
X89750000Y-19080000D01*
X89790000Y-10920000D02*
X89790000Y-19080000D01*
X89830000Y-10921000D02*
X89830000Y-19079000D01*
X89870000Y-10922000D02*
X89870000Y-19078000D01*
X89910000Y-10923000D02*
X89910000Y-19077000D01*
X89950000Y-10925000D02*
X89950000Y-19075000D01*
X89990000Y-10927000D02*
X89990000Y-19073000D01*
X90030000Y-10930000D02*
X90030000Y-19070000D01*
X90070000Y-10932000D02*
X90070000Y-19068000D01*
X90110000Y-10936000D02*
X90110000Y-19064000D01*
X90150000Y-10939000D02*
X90150000Y-19061000D01*
X90190000Y-10944000D02*
X90190000Y-19056000D01*
X90230000Y-10948000D02*
X90230000Y-19052000D01*
X90270000Y-10953000D02*
X90270000Y-19047000D01*
X90310000Y-10958000D02*
X90310000Y-19042000D01*
X90350000Y-10964000D02*
X90350000Y-19036000D01*
X90390000Y-10970000D02*
X90390000Y-19030000D01*
X90430000Y-10977000D02*
X90430000Y-19023000D01*
X90470000Y-10983000D02*
X90470000Y-13960000D01*
X90470000Y-16040000D02*
X90470000Y-19017000D01*
X90510000Y-10991000D02*
X90510000Y-13960000D01*
X90510000Y-16040000D02*
X90510000Y-19009000D01*
X90550000Y-10998000D02*
X90550000Y-13960000D01*
X90550000Y-16040000D02*
X90550000Y-19002000D01*
X90590000Y-11007000D02*
X90590000Y-13960000D01*
X90590000Y-16040000D02*
X90590000Y-18993000D01*
X90630000Y-11015000D02*
X90630000Y-13960000D01*
X90630000Y-16040000D02*
X90630000Y-18985000D01*
X90670000Y-11024000D02*
X90670000Y-13960000D01*
X90670000Y-16040000D02*
X90670000Y-18976000D01*
X90710000Y-11033000D02*
X90710000Y-13960000D01*
X90710000Y-16040000D02*
X90710000Y-18967000D01*
X90750000Y-11043000D02*
X90750000Y-13960000D01*
X90750000Y-16040000D02*
X90750000Y-18957000D01*
X90790000Y-11053000D02*
X90790000Y-13960000D01*
X90790000Y-16040000D02*
X90790000Y-18947000D01*
X90830000Y-11064000D02*
X90830000Y-13960000D01*
X90830000Y-16040000D02*
X90830000Y-18936000D01*
X90870000Y-11075000D02*
X90870000Y-13960000D01*
X90870000Y-16040000D02*
X90870000Y-18925000D01*
X90910000Y-11087000D02*
X90910000Y-13960000D01*
X90910000Y-16040000D02*
X90910000Y-18913000D01*
X90950000Y-11099000D02*
X90950000Y-13960000D01*
X90950000Y-16040000D02*
X90950000Y-18901000D01*
X90990000Y-11111000D02*
X90990000Y-13960000D01*
X90990000Y-16040000D02*
X90990000Y-18889000D01*
X91030000Y-11124000D02*
X91030000Y-13960000D01*
X91030000Y-16040000D02*
X91030000Y-18876000D01*
X91070000Y-11137000D02*
X91070000Y-13960000D01*
X91070000Y-16040000D02*
X91070000Y-18863000D01*
X91110000Y-11151000D02*
X91110000Y-13960000D01*
X91110000Y-16040000D02*
X91110000Y-18849000D01*
X91150000Y-11165000D02*
X91150000Y-13960000D01*
X91150000Y-16040000D02*
X91150000Y-18835000D01*
X91190000Y-11180000D02*
X91190000Y-13960000D01*
X91190000Y-16040000D02*
X91190000Y-18820000D01*
X91230000Y-11195000D02*
X91230000Y-13960000D01*
X91230000Y-16040000D02*
X91230000Y-18805000D01*
X91270000Y-11211000D02*
X91270000Y-13960000D01*
X91270000Y-16040000D02*
X91270000Y-18789000D01*
X91310000Y-11227000D02*
X91310000Y-13960000D01*
X91310000Y-16040000D02*
X91310000Y-18773000D01*
X91350000Y-11243000D02*
X91350000Y-13960000D01*
X91350000Y-16040000D02*
X91350000Y-18757000D01*
X91390000Y-11260000D02*
X91390000Y-13960000D01*
X91390000Y-16040000D02*
X91390000Y-18740000D01*
X91430000Y-11278000D02*
X91430000Y-13960000D01*
X91430000Y-16040000D02*
X91430000Y-18722000D01*
X91470000Y-11296000D02*
X91470000Y-13960000D01*
X91470000Y-16040000D02*
X91470000Y-18704000D01*
X91510000Y-11315000D02*
X91510000Y-13960000D01*
X91510000Y-16040000D02*
X91510000Y-18685000D01*
X91550000Y-11334000D02*
X91550000Y-13960000D01*
X91550000Y-16040000D02*
X91550000Y-18666000D01*
X91590000Y-11354000D02*
X91590000Y-13960000D01*
X91590000Y-16040000D02*
X91590000Y-18646000D01*
X91630000Y-11374000D02*
X91630000Y-13960000D01*
X91630000Y-16040000D02*
X91630000Y-18626000D01*
X91670000Y-11395000D02*
X91670000Y-13960000D01*
X91670000Y-16040000D02*
X91670000Y-18605000D01*
X91710000Y-11416000D02*
X91710000Y-13960000D01*
X91710000Y-16040000D02*
X91710000Y-18584000D01*
X91750000Y-11438000D02*
X91750000Y-13960000D01*
X91750000Y-16040000D02*
X91750000Y-18562000D01*
X91790000Y-11461000D02*
X91790000Y-13960000D01*
X91790000Y-16040000D02*
X91790000Y-18539000D01*
X91830000Y-11484000D02*
X91830000Y-13960000D01*
X91830000Y-16040000D02*
X91830000Y-18516000D01*
X91870000Y-11507000D02*
X91870000Y-13960000D01*
X91870000Y-16040000D02*
X91870000Y-18493000D01*
X91910000Y-11532000D02*
X91910000Y-13960000D01*
X91910000Y-16040000D02*
X91910000Y-18468000D01*
X91950000Y-11557000D02*
X91950000Y-13960000D01*
X91950000Y-16040000D02*
X91950000Y-18443000D01*
X91990000Y-11582000D02*
X91990000Y-13960000D01*
X91990000Y-16040000D02*
X91990000Y-18418000D01*
X92030000Y-11608000D02*
X92030000Y-13960000D01*
X92030000Y-16040000D02*
X92030000Y-18392000D01*
X92070000Y-11635000D02*
X92070000Y-13960000D01*
X92070000Y-16040000D02*
X92070000Y-18365000D01*
X92110000Y-11663000D02*
X92110000Y-13960000D01*
X92110000Y-16040000D02*
X92110000Y-18337000D01*
X92150000Y-11691000D02*
X92150000Y-13960000D01*
X92150000Y-16040000D02*
X92150000Y-18309000D01*
X92190000Y-11720000D02*
X92190000Y-13960000D01*
X92190000Y-16040000D02*
X92190000Y-18280000D01*
X92230000Y-11750000D02*
X92230000Y-13960000D01*
X92230000Y-16040000D02*
X92230000Y-18250000D01*
X92270000Y-11781000D02*
X92270000Y-13960000D01*
X92270000Y-16040000D02*
X92270000Y-18219000D01*
X92310000Y-11812000D02*
X92310000Y-13960000D01*
X92310000Y-16040000D02*
X92310000Y-18188000D01*
X92350000Y-11844000D02*
X92350000Y-13960000D01*
X92350000Y-16040000D02*
X92350000Y-18156000D01*
X92390000Y-11877000D02*
X92390000Y-13960000D01*
X92390000Y-16040000D02*
X92390000Y-18123000D01*
X92430000Y-11911000D02*
X92430000Y-13960000D01*
X92430000Y-16040000D02*
X92430000Y-18089000D01*
X92470000Y-11945000D02*
X92470000Y-13960000D01*
X92470000Y-16040000D02*
X92470000Y-18055000D01*
X92510000Y-11981000D02*
X92510000Y-13960000D01*
X92510000Y-16040000D02*
X92510000Y-18019000D01*
X92550000Y-12018000D02*
X92550000Y-17982000D01*
X92590000Y-12055000D02*
X92590000Y-17945000D01*
X92630000Y-12094000D02*
X92630000Y-17906000D01*
X92670000Y-12133000D02*
X92670000Y-17867000D01*
X92710000Y-12174000D02*
X92710000Y-17826000D01*
X92750000Y-12216000D02*
X92750000Y-17784000D01*
X92790000Y-12259000D02*
X92790000Y-17741000D01*
X92830000Y-12304000D02*
X92830000Y-17696000D01*
X92870000Y-12349000D02*
X92870000Y-17651000D01*
X92910000Y-12396000D02*
X92910000Y-17604000D01*
X92950000Y-12445000D02*
X92950000Y-17555000D01*
X92990000Y-12495000D02*
X92990000Y-17505000D01*
X93030000Y-12547000D02*
X93030000Y-17453000D01*
X93070000Y-12600000D02*
X93070000Y-17400000D01*
X93110000Y-12656000D02*
X93110000Y-17344000D01*
X93150000Y-12713000D02*
X93150000Y-17287000D01*
X93190000Y-12773000D02*
X93190000Y-17227000D01*
X93230000Y-12835000D02*
X93230000Y-17165000D01*
X93270000Y-12899000D02*
X93270000Y-17101000D01*
X93310000Y-12966000D02*
X93310000Y-17034000D01*
X93350000Y-13036000D02*
X93350000Y-16964000D01*
X93390000Y-13110000D02*
X93390000Y-16890000D01*
X93430000Y-13187000D02*
X93430000Y-16813000D01*
X93470000Y-13269000D02*
X93470000Y-16731000D01*
X93510000Y-13356000D02*
X93510000Y-16644000D01*
X93550000Y-13448000D02*
X93550000Y-16552000D01*
X93590000Y-13547000D02*
X93590000Y-16453000D01*
X93630000Y-13654000D02*
X93630000Y-16346000D01*
X93670000Y-13772000D02*
X93670000Y-16228000D01*
X93710000Y-13903000D02*
X93710000Y-16097000D01*
X93750000Y-14053000D02*
X93750000Y-15947000D01*
X93790000Y-14232000D02*
X93790000Y-15768000D01*
X93830000Y-14467000D02*
X93830000Y-15533000D01*
X93870000Y-15000000D02*
G75*
G02*
X85630000Y-15000000I-4120000J0D01*
G01*
X85630000Y-15000000D02*
G75*
G02*
X93870000Y-15000000I4120000J0D01*
G01*
%TO.C,L1*%
X31700000Y-76800000D02*
X38300000Y-76800000D01*
X31700000Y-78500000D02*
X31700000Y-76800000D01*
X31700000Y-83200000D02*
X31700000Y-81500000D01*
X38300000Y-76800000D02*
X38300000Y-78500000D01*
X38300000Y-81500000D02*
X38300000Y-83200000D01*
X38300000Y-83200000D02*
X31700000Y-83200000D01*
%TO.C,C7*%
X57265000Y-62261252D02*
X57265000Y-61738748D01*
X58735000Y-62261252D02*
X58735000Y-61738748D01*
%TO.C,R16*%
X135477500Y-100237258D02*
X135477500Y-99762742D01*
X136522500Y-100237258D02*
X136522500Y-99762742D01*
%TO.C,R7*%
X129822936Y-58290000D02*
X134177064Y-58290000D01*
X129822936Y-61710000D02*
X134177064Y-61710000D01*
%TO.C,J1*%
D13*
X7650000Y-12250000D02*
X7650000Y-27750000D01*
X7650000Y-27750000D02*
X25850000Y-27750000D01*
X25850000Y-12250000D02*
X7650000Y-12250000D01*
X25850000Y-12250000D02*
X25850000Y-14222000D01*
X25850000Y-21422000D02*
X25850000Y-18578000D01*
X25850000Y-27750000D02*
X25850000Y-25778000D01*
X28160000Y-14920000D02*
X28160000Y-16190000D01*
X28160000Y-16190000D02*
X26890000Y-16190000D01*
X28160000Y-16190000D02*
X29430000Y-16190000D01*
X28160000Y-17460000D02*
X28160000Y-16190000D01*
%TO.C,C2*%
D11*
X95340302Y-12685000D02*
X96140302Y-12685000D01*
X95740302Y-12285000D02*
X95740302Y-13085000D01*
X99750000Y-10920000D02*
X99750000Y-19080000D01*
X99790000Y-10920000D02*
X99790000Y-19080000D01*
X99830000Y-10921000D02*
X99830000Y-19079000D01*
X99870000Y-10922000D02*
X99870000Y-19078000D01*
X99910000Y-10923000D02*
X99910000Y-19077000D01*
X99950000Y-10925000D02*
X99950000Y-19075000D01*
X99990000Y-10927000D02*
X99990000Y-19073000D01*
X100030000Y-10930000D02*
X100030000Y-19070000D01*
X100070000Y-10932000D02*
X100070000Y-19068000D01*
X100110000Y-10936000D02*
X100110000Y-19064000D01*
X100150000Y-10939000D02*
X100150000Y-19061000D01*
X100190000Y-10944000D02*
X100190000Y-19056000D01*
X100230000Y-10948000D02*
X100230000Y-19052000D01*
X100270000Y-10953000D02*
X100270000Y-19047000D01*
X100310000Y-10958000D02*
X100310000Y-19042000D01*
X100350000Y-10964000D02*
X100350000Y-19036000D01*
X100390000Y-10970000D02*
X100390000Y-19030000D01*
X100430000Y-10977000D02*
X100430000Y-19023000D01*
X100470000Y-10983000D02*
X100470000Y-13960000D01*
X100470000Y-16040000D02*
X100470000Y-19017000D01*
X100510000Y-10991000D02*
X100510000Y-13960000D01*
X100510000Y-16040000D02*
X100510000Y-19009000D01*
X100550000Y-10998000D02*
X100550000Y-13960000D01*
X100550000Y-16040000D02*
X100550000Y-19002000D01*
X100590000Y-11007000D02*
X100590000Y-13960000D01*
X100590000Y-16040000D02*
X100590000Y-18993000D01*
X100630000Y-11015000D02*
X100630000Y-13960000D01*
X100630000Y-16040000D02*
X100630000Y-18985000D01*
X100670000Y-11024000D02*
X100670000Y-13960000D01*
X100670000Y-16040000D02*
X100670000Y-18976000D01*
X100710000Y-11033000D02*
X100710000Y-13960000D01*
X100710000Y-16040000D02*
X100710000Y-18967000D01*
X100750000Y-11043000D02*
X100750000Y-13960000D01*
X100750000Y-16040000D02*
X100750000Y-18957000D01*
X100790000Y-11053000D02*
X100790000Y-13960000D01*
X100790000Y-16040000D02*
X100790000Y-18947000D01*
X100830000Y-11064000D02*
X100830000Y-13960000D01*
X100830000Y-16040000D02*
X100830000Y-18936000D01*
X100870000Y-11075000D02*
X100870000Y-13960000D01*
X100870000Y-16040000D02*
X100870000Y-18925000D01*
X100910000Y-11087000D02*
X100910000Y-13960000D01*
X100910000Y-16040000D02*
X100910000Y-18913000D01*
X100950000Y-11099000D02*
X100950000Y-13960000D01*
X100950000Y-16040000D02*
X100950000Y-18901000D01*
X100990000Y-11111000D02*
X100990000Y-13960000D01*
X100990000Y-16040000D02*
X100990000Y-18889000D01*
X101030000Y-11124000D02*
X101030000Y-13960000D01*
X101030000Y-16040000D02*
X101030000Y-18876000D01*
X101070000Y-11137000D02*
X101070000Y-13960000D01*
X101070000Y-16040000D02*
X101070000Y-18863000D01*
X101110000Y-11151000D02*
X101110000Y-13960000D01*
X101110000Y-16040000D02*
X101110000Y-18849000D01*
X101150000Y-11165000D02*
X101150000Y-13960000D01*
X101150000Y-16040000D02*
X101150000Y-18835000D01*
X101190000Y-11180000D02*
X101190000Y-13960000D01*
X101190000Y-16040000D02*
X101190000Y-18820000D01*
X101230000Y-11195000D02*
X101230000Y-13960000D01*
X101230000Y-16040000D02*
X101230000Y-18805000D01*
X101270000Y-11211000D02*
X101270000Y-13960000D01*
X101270000Y-16040000D02*
X101270000Y-18789000D01*
X101310000Y-11227000D02*
X101310000Y-13960000D01*
X101310000Y-16040000D02*
X101310000Y-18773000D01*
X101350000Y-11243000D02*
X101350000Y-13960000D01*
X101350000Y-16040000D02*
X101350000Y-18757000D01*
X101390000Y-11260000D02*
X101390000Y-13960000D01*
X101390000Y-16040000D02*
X101390000Y-18740000D01*
X101430000Y-11278000D02*
X101430000Y-13960000D01*
X101430000Y-16040000D02*
X101430000Y-18722000D01*
X101470000Y-11296000D02*
X101470000Y-13960000D01*
X101470000Y-16040000D02*
X101470000Y-18704000D01*
X101510000Y-11315000D02*
X101510000Y-13960000D01*
X101510000Y-16040000D02*
X101510000Y-18685000D01*
X101550000Y-11334000D02*
X101550000Y-13960000D01*
X101550000Y-16040000D02*
X101550000Y-18666000D01*
X101590000Y-11354000D02*
X101590000Y-13960000D01*
X101590000Y-16040000D02*
X101590000Y-18646000D01*
X101630000Y-11374000D02*
X101630000Y-13960000D01*
X101630000Y-16040000D02*
X101630000Y-18626000D01*
X101670000Y-11395000D02*
X101670000Y-13960000D01*
X101670000Y-16040000D02*
X101670000Y-18605000D01*
X101710000Y-11416000D02*
X101710000Y-13960000D01*
X101710000Y-16040000D02*
X101710000Y-18584000D01*
X101750000Y-11438000D02*
X101750000Y-13960000D01*
X101750000Y-16040000D02*
X101750000Y-18562000D01*
X101790000Y-11461000D02*
X101790000Y-13960000D01*
X101790000Y-16040000D02*
X101790000Y-18539000D01*
X101830000Y-11484000D02*
X101830000Y-13960000D01*
X101830000Y-16040000D02*
X101830000Y-18516000D01*
X101870000Y-11507000D02*
X101870000Y-13960000D01*
X101870000Y-16040000D02*
X101870000Y-18493000D01*
X101910000Y-11532000D02*
X101910000Y-13960000D01*
X101910000Y-16040000D02*
X101910000Y-18468000D01*
X101950000Y-11557000D02*
X101950000Y-13960000D01*
X101950000Y-16040000D02*
X101950000Y-18443000D01*
X101990000Y-11582000D02*
X101990000Y-13960000D01*
X101990000Y-16040000D02*
X101990000Y-18418000D01*
X102030000Y-11608000D02*
X102030000Y-13960000D01*
X102030000Y-16040000D02*
X102030000Y-18392000D01*
X102070000Y-11635000D02*
X102070000Y-13960000D01*
X102070000Y-16040000D02*
X102070000Y-18365000D01*
X102110000Y-11663000D02*
X102110000Y-13960000D01*
X102110000Y-16040000D02*
X102110000Y-18337000D01*
X102150000Y-11691000D02*
X102150000Y-13960000D01*
X102150000Y-16040000D02*
X102150000Y-18309000D01*
X102190000Y-11720000D02*
X102190000Y-13960000D01*
X102190000Y-16040000D02*
X102190000Y-18280000D01*
X102230000Y-11750000D02*
X102230000Y-13960000D01*
X102230000Y-16040000D02*
X102230000Y-18250000D01*
X102270000Y-11781000D02*
X102270000Y-13960000D01*
X102270000Y-16040000D02*
X102270000Y-18219000D01*
X102310000Y-11812000D02*
X102310000Y-13960000D01*
X102310000Y-16040000D02*
X102310000Y-18188000D01*
X102350000Y-11844000D02*
X102350000Y-13960000D01*
X102350000Y-16040000D02*
X102350000Y-18156000D01*
X102390000Y-11877000D02*
X102390000Y-13960000D01*
X102390000Y-16040000D02*
X102390000Y-18123000D01*
X102430000Y-11911000D02*
X102430000Y-13960000D01*
X102430000Y-16040000D02*
X102430000Y-18089000D01*
X102470000Y-11945000D02*
X102470000Y-13960000D01*
X102470000Y-16040000D02*
X102470000Y-18055000D01*
X102510000Y-11981000D02*
X102510000Y-13960000D01*
X102510000Y-16040000D02*
X102510000Y-18019000D01*
X102550000Y-12018000D02*
X102550000Y-17982000D01*
X102590000Y-12055000D02*
X102590000Y-17945000D01*
X102630000Y-12094000D02*
X102630000Y-17906000D01*
X102670000Y-12133000D02*
X102670000Y-17867000D01*
X102710000Y-12174000D02*
X102710000Y-17826000D01*
X102750000Y-12216000D02*
X102750000Y-17784000D01*
X102790000Y-12259000D02*
X102790000Y-17741000D01*
X102830000Y-12304000D02*
X102830000Y-17696000D01*
X102870000Y-12349000D02*
X102870000Y-17651000D01*
X102910000Y-12396000D02*
X102910000Y-17604000D01*
X102950000Y-12445000D02*
X102950000Y-17555000D01*
X102990000Y-12495000D02*
X102990000Y-17505000D01*
X103030000Y-12547000D02*
X103030000Y-17453000D01*
X103070000Y-12600000D02*
X103070000Y-17400000D01*
X103110000Y-12656000D02*
X103110000Y-17344000D01*
X103150000Y-12713000D02*
X103150000Y-17287000D01*
X103190000Y-12773000D02*
X103190000Y-17227000D01*
X103230000Y-12835000D02*
X103230000Y-17165000D01*
X103270000Y-12899000D02*
X103270000Y-17101000D01*
X103310000Y-12966000D02*
X103310000Y-17034000D01*
X103350000Y-13036000D02*
X103350000Y-16964000D01*
X103390000Y-13110000D02*
X103390000Y-16890000D01*
X103430000Y-13187000D02*
X103430000Y-16813000D01*
X103470000Y-13269000D02*
X103470000Y-16731000D01*
X103510000Y-13356000D02*
X103510000Y-16644000D01*
X103550000Y-13448000D02*
X103550000Y-16552000D01*
X103590000Y-13547000D02*
X103590000Y-16453000D01*
X103630000Y-13654000D02*
X103630000Y-16346000D01*
X103670000Y-13772000D02*
X103670000Y-16228000D01*
X103710000Y-13903000D02*
X103710000Y-16097000D01*
X103750000Y-14053000D02*
X103750000Y-15947000D01*
X103790000Y-14232000D02*
X103790000Y-15768000D01*
X103830000Y-14467000D02*
X103830000Y-15533000D01*
X103870000Y-15000000D02*
G75*
G02*
X95630000Y-15000000I-4120000J0D01*
G01*
X95630000Y-15000000D02*
G75*
G02*
X103870000Y-15000000I4120000J0D01*
G01*
%TO.C,LED1*%
X126515000Y-107265000D02*
X126515000Y-108735000D01*
X126515000Y-108735000D02*
X128800000Y-108735000D01*
X128800000Y-107265000D02*
X126515000Y-107265000D01*
%TO.C,C10*%
X91490000Y-45140580D02*
X91490000Y-44859420D01*
X92510000Y-45140580D02*
X92510000Y-44859420D01*
%TO.C,U4*%
X92940000Y-77440000D02*
X97060000Y-77440000D01*
X92940000Y-77535000D02*
X92940000Y-77440000D01*
X92940000Y-82560000D02*
X92940000Y-82465000D01*
X97060000Y-77440000D02*
X97060000Y-77535000D01*
X97060000Y-82465000D02*
X97060000Y-82560000D01*
X97060000Y-82560000D02*
X92940000Y-82560000D01*
X92400000Y-77530000D02*
X92160000Y-77200000D01*
X92640000Y-77200000D01*
X92400000Y-77530000D01*
G36*
X92400000Y-77530000D02*
G01*
X92160000Y-77200000D01*
X92640000Y-77200000D01*
X92400000Y-77530000D01*
G37*
%TO.C,C12*%
X8640000Y-75711252D02*
X8640000Y-74288748D01*
X11360000Y-75711252D02*
X11360000Y-74288748D01*
%TO.C,U5*%
X66390000Y-108390000D02*
X66840000Y-108390000D01*
X66390000Y-108840000D02*
X66390000Y-108390000D01*
X66390000Y-115610000D02*
X66390000Y-115160000D01*
X66840000Y-115610000D02*
X66390000Y-115610000D01*
X73160000Y-108390000D02*
X73610000Y-108390000D01*
X73610000Y-108390000D02*
X73610000Y-108840000D01*
X73610000Y-115160000D02*
X73610000Y-115610000D01*
X73610000Y-115610000D02*
X73160000Y-115610000D01*
X65750000Y-108840000D02*
X65410000Y-108370000D01*
X66090000Y-108370000D01*
X65750000Y-108840000D01*
G36*
X65750000Y-108840000D02*
G01*
X65410000Y-108370000D01*
X66090000Y-108370000D01*
X65750000Y-108840000D01*
G37*
%TO.C,R17*%
X143477500Y-100237258D02*
X143477500Y-99762742D01*
X144522500Y-100237258D02*
X144522500Y-99762742D01*
%TO.C,C19*%
X71265000Y-88261252D02*
X71265000Y-87738748D01*
X72735000Y-88261252D02*
X72735000Y-87738748D01*
%TO.C,R5*%
X94477500Y-66237258D02*
X94477500Y-65762742D01*
X95522500Y-66237258D02*
X95522500Y-65762742D01*
%TO.C,R8*%
X145090000Y-60727064D02*
X145090000Y-59272936D01*
X146910000Y-60727064D02*
X146910000Y-59272936D01*
%TO.C,R2*%
X74477500Y-66237258D02*
X74477500Y-65762742D01*
X75522500Y-66237258D02*
X75522500Y-65762742D01*
%TO.C,C16*%
X43640000Y-75711252D02*
X43640000Y-74288748D01*
X46360000Y-75711252D02*
X46360000Y-74288748D01*
%TO.C,C15*%
X19490000Y-92140580D02*
X19490000Y-91859420D01*
X20510000Y-92140580D02*
X20510000Y-91859420D01*
%TO.C,C21*%
X51490000Y-109140580D02*
X51490000Y-108859420D01*
X52510000Y-109140580D02*
X52510000Y-108859420D01*
%TO.C,J3*%
X162250000Y-73200000D02*
X162250000Y-78750000D01*
X162250000Y-84300000D02*
X162250000Y-78750000D01*
X165200000Y-72450000D02*
X165200000Y-73200000D01*
X165200000Y-73200000D02*
X162250000Y-73200000D01*
X165200000Y-84300000D02*
X162250000Y-84300000D01*
X165200000Y-85050000D02*
X165200000Y-84300000D01*
X167750000Y-72150000D02*
X166500000Y-72150000D01*
X167750000Y-73400000D02*
X167750000Y-72150000D01*
X166700000Y-72450000D02*
X167450000Y-72450000D01*
X167450000Y-74250000D01*
X166700000Y-74250000D01*
X166700000Y-72450000D01*
X166700000Y-75750000D02*
X167450000Y-75750000D01*
X167450000Y-81750000D01*
X166700000Y-81750000D01*
X166700000Y-75750000D01*
X166700000Y-83250000D02*
X167450000Y-83250000D01*
X167450000Y-85050000D01*
X166700000Y-85050000D01*
X166700000Y-83250000D01*
X161490000Y-72440000D02*
X167460000Y-72440000D01*
X167460000Y-85060000D01*
X161490000Y-85060000D01*
X161490000Y-72440000D01*
%TO.C,R13*%
X55477500Y-100237258D02*
X55477500Y-99762742D01*
X56522500Y-100237258D02*
X56522500Y-99762742D01*
%TO.C,LED3*%
X142515000Y-107265000D02*
X142515000Y-108735000D01*
X142515000Y-108735000D02*
X144800000Y-108735000D01*
X144800000Y-107265000D02*
X142515000Y-107265000D01*
%TO.C,U3*%
X63150000Y-76590000D02*
X66910000Y-76590000D01*
X63150000Y-83410000D02*
X66910000Y-83410000D01*
X66910000Y-76590000D02*
X66910000Y-77850000D01*
X66910000Y-83410000D02*
X66910000Y-82150000D01*
X61870000Y-76690000D02*
X61630000Y-76360000D01*
X62110000Y-76360000D01*
X61870000Y-76690000D01*
G36*
X61870000Y-76690000D02*
G01*
X61630000Y-76360000D01*
X62110000Y-76360000D01*
X61870000Y-76690000D01*
G37*
%TO.C,R9*%
X34477500Y-92237258D02*
X34477500Y-91762742D01*
X35522500Y-92237258D02*
X35522500Y-91762742D01*
%TO.C,C8*%
X91265000Y-62261252D02*
X91265000Y-61738748D01*
X92735000Y-62261252D02*
X92735000Y-61738748D01*
%TO.C,C3*%
X106640000Y-12711252D02*
X106640000Y-11288748D01*
X109360000Y-12711252D02*
X109360000Y-11288748D01*
%TO.C,C5*%
X57490000Y-28140580D02*
X57490000Y-27859420D01*
X58510000Y-28140580D02*
X58510000Y-27859420D01*
%TO.C,J2*%
D13*
X151840000Y-48540000D02*
X151840000Y-49810000D01*
X151840000Y-49810000D02*
X150570000Y-49810000D01*
X151840000Y-49810000D02*
X153110000Y-49810000D01*
X151840000Y-51080000D02*
X151840000Y-49810000D01*
X154150000Y-38250000D02*
X154150000Y-40222000D01*
X154150000Y-44578000D02*
X154150000Y-47422000D01*
X154150000Y-53750000D02*
X154150000Y-51778000D01*
X154150000Y-53750000D02*
X172350000Y-53750000D01*
X172350000Y-38250000D02*
X154150000Y-38250000D01*
X172350000Y-53750000D02*
X172350000Y-38250000D01*
%TO.C,C9*%
D11*
X57490000Y-45140580D02*
X57490000Y-44859420D01*
X58510000Y-45140580D02*
X58510000Y-44859420D01*
%TO.C,C18*%
X57265000Y-88261252D02*
X57265000Y-87738748D01*
X58735000Y-88261252D02*
X58735000Y-87738748D01*
%TO.C,R14*%
X59477500Y-122237258D02*
X59477500Y-121762742D01*
X60522500Y-122237258D02*
X60522500Y-121762742D01*
%TO.C,R4*%
X84477500Y-66237258D02*
X84477500Y-65762742D01*
X85522500Y-66237258D02*
X85522500Y-65762742D01*
%TO.C,C17*%
X48640000Y-75711252D02*
X48640000Y-74288748D01*
X51360000Y-75711252D02*
X51360000Y-74288748D01*
%TO.C,C11*%
X150265000Y-60261252D02*
X150265000Y-59738748D01*
X151735000Y-60261252D02*
X151735000Y-59738748D01*
%TO.C,R15*%
X127477500Y-100237258D02*
X127477500Y-99762742D01*
X128522500Y-100237258D02*
X128522500Y-99762742D01*
%TO.C,F1*%
X42090000Y-12940000D02*
X62710000Y-12940000D01*
X42090000Y-19560000D02*
X42090000Y-12940000D01*
X62710000Y-12940000D02*
X62710000Y-19560000D01*
X62710000Y-19560000D02*
X42090000Y-19560000D01*
%TO.C,R10*%
X34477500Y-98237258D02*
X34477500Y-97762742D01*
X35522500Y-98237258D02*
X35522500Y-97762742D01*
%TD*%
M02*
