%TF.GenerationSoftware,KiCad,Pcbnew,10.0.6-10.0.6~ubuntu24.04.1*%
%TF.CreationDate,2026-09-05T14:44:36+09:00*%
%TF.ProjectId,CANMD-60,43414e4d-442d-4363-902e-6b696361645f,rev?*%
%TF.SameCoordinates,Original*%
%TF.FileFunction,Other,User*%
%FSLAX46Y46*%
G04 Gerber Fmt 4.6, Leading zero omitted, Abs format (unit mm)*
G04 Created by KiCad (PCBNEW 10.0.6-10.0.6~ubuntu24.04.1) date 2026-09-05 14:44:36*
%MOMM*%
%LPD*%
G01*
G04 APERTURE LIST*
%ADD10C,0.050000*%
%ADD11C,0.152400*%
G04 APERTURE END LIST*
%TO.C,C14*%
D10*
X27270000Y-73520000D02*
X28730000Y-73520000D01*
X28730000Y-76480000D01*
X27270000Y-76480000D01*
X27270000Y-73520000D01*
%TO.C,D1*%
X68350000Y-12750000D02*
X75650000Y-12750000D01*
X68350000Y-17250000D02*
X68350000Y-12750000D01*
X75650000Y-12750000D02*
X75650000Y-17250000D01*
X75650000Y-17250000D02*
X68350000Y-17250000D01*
%TO.C,J5*%
X113230000Y-108230000D02*
X116770000Y-108230000D01*
X116770000Y-119390000D01*
X113230000Y-119390000D01*
X113230000Y-108230000D01*
%TO.C,C24*%
X59270000Y-98520000D02*
X60730000Y-98520000D01*
X60730000Y-101480000D01*
X59270000Y-101480000D01*
X59270000Y-98520000D01*
%TO.C,J4*%
X161100000Y-89050000D02*
X167850000Y-89050000D01*
X167850000Y-102450000D01*
X161100000Y-102450000D01*
X161100000Y-89050000D01*
%TO.C,R6*%
X64270000Y-22520000D02*
X65730000Y-22520000D01*
X65730000Y-25480000D01*
X64270000Y-25480000D01*
X64270000Y-22520000D01*
%TO.C,Q2*%
D11*
X105180600Y-48926600D02*
X105180600Y-53828800D01*
X105180600Y-53828800D02*
X115899400Y-53828800D01*
X115899400Y-48926600D02*
X105180600Y-48926600D01*
X115899400Y-53828800D02*
X115899400Y-48926600D01*
%TO.C,LED2*%
D10*
X134520000Y-107270000D02*
X137480000Y-107270000D01*
X137480000Y-108730000D01*
X134520000Y-108730000D01*
X134520000Y-107270000D01*
%TO.C,Q4*%
D11*
X125180600Y-48926600D02*
X125180600Y-53828800D01*
X125180600Y-53828800D02*
X135899400Y-53828800D01*
X135899400Y-48926600D02*
X125180600Y-48926600D01*
X135899400Y-53828800D02*
X135899400Y-48926600D01*
%TO.C,C23*%
D10*
X51020000Y-115300000D02*
X52980000Y-115300000D01*
X52980000Y-118700000D01*
X51020000Y-118700000D01*
X51020000Y-115300000D01*
%TO.C,R1*%
X74270000Y-22520000D02*
X75730000Y-22520000D01*
X75730000Y-25480000D01*
X74270000Y-25480000D01*
X74270000Y-22520000D01*
%TO.C,C13*%
X8400000Y-82700000D02*
X11600000Y-82700000D01*
X11600000Y-87300000D01*
X8400000Y-87300000D01*
X8400000Y-82700000D01*
%TO.C,R11*%
X94270000Y-90520000D02*
X95730000Y-90520000D01*
X95730000Y-93480000D01*
X94270000Y-93480000D01*
X94270000Y-90520000D01*
%TO.C,R3*%
X64270000Y-64520000D02*
X65730000Y-64520000D01*
X65730000Y-67480000D01*
X64270000Y-67480000D01*
X64270000Y-64520000D01*
%TO.C,C4*%
X106400000Y-17700000D02*
X109600000Y-17700000D01*
X109600000Y-22300000D01*
X106400000Y-22300000D01*
X106400000Y-17700000D01*
%TO.C,U2*%
X16250000Y-77250000D02*
X16250000Y-82750000D01*
X16250000Y-77250000D02*
X23750000Y-77250000D01*
X16250000Y-82750000D02*
X23750000Y-82750000D01*
X23750000Y-77250000D02*
X23750000Y-82750000D01*
%TO.C,Q3*%
D11*
X125180600Y-36926600D02*
X125180600Y-41828800D01*
X125180600Y-41828800D02*
X135899400Y-41828800D01*
X135899400Y-36926600D02*
X125180600Y-36926600D01*
X135899400Y-41828800D02*
X135899400Y-36926600D01*
%TO.C,U1*%
D10*
X72370000Y-43370000D02*
X72750000Y-43370000D01*
X72370000Y-46630000D02*
X72370000Y-43370000D01*
X72750000Y-42750000D02*
X73370000Y-42750000D01*
X72750000Y-43370000D02*
X72750000Y-42750000D01*
X72750000Y-46630000D02*
X72370000Y-46630000D01*
X72750000Y-47250000D02*
X72750000Y-46630000D01*
X73370000Y-42370000D02*
X76630000Y-42370000D01*
X73370000Y-42750000D02*
X73370000Y-42370000D01*
X73370000Y-47250000D02*
X72750000Y-47250000D01*
X73370000Y-47630000D02*
X73370000Y-47250000D01*
X76630000Y-42370000D02*
X76630000Y-42750000D01*
X76630000Y-42750000D02*
X77250000Y-42750000D01*
X76630000Y-47250000D02*
X76630000Y-47630000D01*
X76630000Y-47630000D02*
X73370000Y-47630000D01*
X77250000Y-42750000D02*
X77250000Y-43370000D01*
X77250000Y-43370000D02*
X77630000Y-43370000D01*
X77250000Y-46630000D02*
X77250000Y-47250000D01*
X77250000Y-47250000D02*
X76630000Y-47250000D01*
X77630000Y-43370000D02*
X77630000Y-46630000D01*
X77630000Y-46630000D02*
X77250000Y-46630000D01*
%TO.C,Q1*%
D11*
X105180600Y-36926600D02*
X105180600Y-41828800D01*
X105180600Y-41828800D02*
X115899400Y-41828800D01*
X115899400Y-36926600D02*
X105180600Y-36926600D01*
X115899400Y-41828800D02*
X115899400Y-36926600D01*
%TO.C,C6*%
D10*
X90400000Y-25700000D02*
X93600000Y-25700000D01*
X93600000Y-30300000D01*
X90400000Y-30300000D01*
X90400000Y-25700000D01*
%TO.C,R12*%
X104270000Y-70520000D02*
X105730000Y-70520000D01*
X105730000Y-73480000D01*
X104270000Y-73480000D01*
X104270000Y-70520000D01*
%TO.C,C22*%
X51270000Y-111520000D02*
X52730000Y-111520000D01*
X52730000Y-114480000D01*
X51270000Y-114480000D01*
X51270000Y-111520000D01*
%TO.C,C20*%
X51270000Y-103520000D02*
X52730000Y-103520000D01*
X52730000Y-106480000D01*
X51270000Y-106480000D01*
X51270000Y-103520000D01*
%TO.C,C1*%
X94000000Y-15000000D02*
G75*
G02*
X85500000Y-15000000I-4250000J0D01*
G01*
X85500000Y-15000000D02*
G75*
G02*
X94000000Y-15000000I4250000J0D01*
G01*
%TO.C,L1*%
X31250000Y-76600000D02*
X31250000Y-83400000D01*
X31250000Y-83400000D02*
X38750000Y-83400000D01*
X38750000Y-76600000D02*
X31250000Y-76600000D01*
X38750000Y-83400000D02*
X38750000Y-76600000D01*
%TO.C,C7*%
X57020000Y-60300000D02*
X58980000Y-60300000D01*
X58980000Y-63700000D01*
X57020000Y-63700000D01*
X57020000Y-60300000D01*
%TO.C,R16*%
X135270000Y-98520000D02*
X136730000Y-98520000D01*
X136730000Y-101480000D01*
X135270000Y-101480000D01*
X135270000Y-98520000D01*
%TO.C,R7*%
X128170000Y-58070000D02*
X135830000Y-58070000D01*
X135830000Y-61930000D01*
X128170000Y-61930000D01*
X128170000Y-58070000D01*
%TO.C,J1*%
X7400000Y-12000000D02*
X7400000Y-28000000D01*
X7400000Y-28000000D02*
X26110000Y-28000000D01*
X26110000Y-12000000D02*
X7400000Y-12000000D01*
X26110000Y-28000000D02*
X26110000Y-12000000D01*
%TO.C,C2*%
X104000000Y-15000000D02*
G75*
G02*
X95500000Y-15000000I-4250000J0D01*
G01*
X95500000Y-15000000D02*
G75*
G02*
X104000000Y-15000000I4250000J0D01*
G01*
%TO.C,LED1*%
X126520000Y-107270000D02*
X129480000Y-107270000D01*
X129480000Y-108730000D01*
X126520000Y-108730000D01*
X126520000Y-107270000D01*
%TO.C,C10*%
X91270000Y-43520000D02*
X92730000Y-43520000D01*
X92730000Y-46480000D01*
X91270000Y-46480000D01*
X91270000Y-43520000D01*
%TO.C,U4*%
X91300000Y-77540000D02*
X92800000Y-77540000D01*
X91300000Y-82460000D02*
X91300000Y-77540000D01*
X92800000Y-77300000D02*
X97200000Y-77300000D01*
X92800000Y-77540000D02*
X92800000Y-77300000D01*
X92800000Y-82460000D02*
X91300000Y-82460000D01*
X92800000Y-82700000D02*
X92800000Y-82460000D01*
X97200000Y-77300000D02*
X97200000Y-77540000D01*
X97200000Y-77540000D02*
X98700000Y-77540000D01*
X97200000Y-82460000D02*
X97200000Y-82700000D01*
X97200000Y-82700000D02*
X92800000Y-82700000D01*
X98700000Y-77540000D02*
X98700000Y-82460000D01*
X98700000Y-82460000D02*
X97200000Y-82460000D01*
%TO.C,C12*%
X8400000Y-72700000D02*
X11600000Y-72700000D01*
X11600000Y-77300000D01*
X8400000Y-77300000D01*
X8400000Y-72700000D01*
%TO.C,U5*%
X64850000Y-108850000D02*
X66250000Y-108850000D01*
X64850000Y-115150000D02*
X64850000Y-108850000D01*
X66250000Y-108250000D02*
X66850000Y-108250000D01*
X66250000Y-108850000D02*
X66250000Y-108250000D01*
X66250000Y-115150000D02*
X64850000Y-115150000D01*
X66250000Y-115750000D02*
X66250000Y-115150000D01*
X66850000Y-106850000D02*
X73150000Y-106850000D01*
X66850000Y-108250000D02*
X66850000Y-106850000D01*
X66850000Y-115750000D02*
X66250000Y-115750000D01*
X66850000Y-117150000D02*
X66850000Y-115750000D01*
X73150000Y-106850000D02*
X73150000Y-108250000D01*
X73150000Y-108250000D02*
X73750000Y-108250000D01*
X73150000Y-115750000D02*
X73150000Y-117150000D01*
X73150000Y-117150000D02*
X66850000Y-117150000D01*
X73750000Y-108250000D02*
X73750000Y-108850000D01*
X73750000Y-108850000D02*
X75150000Y-108850000D01*
X73750000Y-115150000D02*
X73750000Y-115750000D01*
X73750000Y-115750000D02*
X73150000Y-115750000D01*
X75150000Y-108850000D02*
X75150000Y-115150000D01*
X75150000Y-115150000D02*
X73750000Y-115150000D01*
%TO.C,R17*%
X143270000Y-98520000D02*
X144730000Y-98520000D01*
X144730000Y-101480000D01*
X143270000Y-101480000D01*
X143270000Y-98520000D01*
%TO.C,C19*%
X71020000Y-86300000D02*
X72980000Y-86300000D01*
X72980000Y-89700000D01*
X71020000Y-89700000D01*
X71020000Y-86300000D01*
%TO.C,R5*%
X94270000Y-64520000D02*
X95730000Y-64520000D01*
X95730000Y-67480000D01*
X94270000Y-67480000D01*
X94270000Y-64520000D01*
%TO.C,R8*%
X144870000Y-57720000D02*
X147130000Y-57720000D01*
X147130000Y-62280000D01*
X144870000Y-62280000D01*
X144870000Y-57720000D01*
%TO.C,R2*%
X74270000Y-64520000D02*
X75730000Y-64520000D01*
X75730000Y-67480000D01*
X74270000Y-67480000D01*
X74270000Y-64520000D01*
%TO.C,C16*%
X43400000Y-72700000D02*
X46600000Y-72700000D01*
X46600000Y-77300000D01*
X43400000Y-77300000D01*
X43400000Y-72700000D01*
%TO.C,C15*%
X19270000Y-90520000D02*
X20730000Y-90520000D01*
X20730000Y-93480000D01*
X19270000Y-93480000D01*
X19270000Y-90520000D01*
%TO.C,C21*%
X51270000Y-107520000D02*
X52730000Y-107520000D01*
X52730000Y-110480000D01*
X51270000Y-110480000D01*
X51270000Y-107520000D01*
%TO.C,J3*%
X161100000Y-72050000D02*
X167850000Y-72050000D01*
X167850000Y-85450000D01*
X161100000Y-85450000D01*
X161100000Y-72050000D01*
%TO.C,R13*%
X55270000Y-98520000D02*
X56730000Y-98520000D01*
X56730000Y-101480000D01*
X55270000Y-101480000D01*
X55270000Y-98520000D01*
%TO.C,LED3*%
X142520000Y-107270000D02*
X145480000Y-107270000D01*
X145480000Y-108730000D01*
X142520000Y-108730000D01*
X142520000Y-107270000D01*
%TO.C,U3*%
X60600000Y-76400000D02*
X60600000Y-83600000D01*
X60600000Y-83600000D02*
X69400000Y-83600000D01*
X69400000Y-76400000D02*
X60600000Y-76400000D01*
X69400000Y-83600000D02*
X69400000Y-76400000D01*
%TO.C,R9*%
X34270000Y-90520000D02*
X35730000Y-90520000D01*
X35730000Y-93480000D01*
X34270000Y-93480000D01*
X34270000Y-90520000D01*
%TO.C,C8*%
X91020000Y-60300000D02*
X92980000Y-60300000D01*
X92980000Y-63700000D01*
X91020000Y-63700000D01*
X91020000Y-60300000D01*
%TO.C,C3*%
X106400000Y-9700000D02*
X109600000Y-9700000D01*
X109600000Y-14300000D01*
X106400000Y-14300000D01*
X106400000Y-9700000D01*
%TO.C,C5*%
X57270000Y-26520000D02*
X58730000Y-26520000D01*
X58730000Y-29480000D01*
X57270000Y-29480000D01*
X57270000Y-26520000D01*
%TO.C,J2*%
X153890000Y-38000000D02*
X153890000Y-54000000D01*
X153890000Y-54000000D02*
X172600000Y-54000000D01*
X172600000Y-38000000D02*
X153890000Y-38000000D01*
X172600000Y-54000000D02*
X172600000Y-38000000D01*
%TO.C,C9*%
X57270000Y-43520000D02*
X58730000Y-43520000D01*
X58730000Y-46480000D01*
X57270000Y-46480000D01*
X57270000Y-43520000D01*
%TO.C,C18*%
X57020000Y-86300000D02*
X58980000Y-86300000D01*
X58980000Y-89700000D01*
X57020000Y-89700000D01*
X57020000Y-86300000D01*
%TO.C,R14*%
X59270000Y-120520000D02*
X60730000Y-120520000D01*
X60730000Y-123480000D01*
X59270000Y-123480000D01*
X59270000Y-120520000D01*
%TO.C,R4*%
X84270000Y-64520000D02*
X85730000Y-64520000D01*
X85730000Y-67480000D01*
X84270000Y-67480000D01*
X84270000Y-64520000D01*
%TO.C,C17*%
X48400000Y-72700000D02*
X51600000Y-72700000D01*
X51600000Y-77300000D01*
X48400000Y-77300000D01*
X48400000Y-72700000D01*
%TO.C,C11*%
X150020000Y-58300000D02*
X151980000Y-58300000D01*
X151980000Y-61700000D01*
X150020000Y-61700000D01*
X150020000Y-58300000D01*
%TO.C,R15*%
X127270000Y-98520000D02*
X128730000Y-98520000D01*
X128730000Y-101480000D01*
X127270000Y-101480000D01*
X127270000Y-98520000D01*
%TO.C,F1*%
X41900000Y-12750000D02*
X62900000Y-12750000D01*
X41900000Y-19750000D02*
X41900000Y-12750000D01*
X62900000Y-12750000D02*
X62900000Y-19750000D01*
X62900000Y-19750000D02*
X41900000Y-19750000D01*
%TO.C,R10*%
X34270000Y-96520000D02*
X35730000Y-96520000D01*
X35730000Y-99480000D01*
X34270000Y-99480000D01*
X34270000Y-96520000D01*
%TD*%
M02*
