%TF.GenerationSoftware,KiCad,Pcbnew,10.0.6-10.0.6~ubuntu24.04.1*%
%TF.CreationDate,2026-09-05T14:44:36+09:00*%
%TF.ProjectId,CANMD-60,43414e4d-442d-4363-902e-6b696361645f,rev?*%
%TF.SameCoordinates,Original*%
%TF.FileFunction,Soldermask,Top*%
%TF.FilePolarity,Negative*%
%FSLAX46Y46*%
G04 Gerber Fmt 4.6, Leading zero omitted, Abs format (unit mm)*
G04 Created by KiCad (PCBNEW 10.0.6-10.0.6~ubuntu24.04.1) date 2026-09-05 14:44:36*
%MOMM*%
%LPD*%
G01*
G04 APERTURE LIST*
G04 Aperture macros list*
%AMRoundRect*
0 Rectangle with rounded corners*
0 $1 Rounding radius*
0 $2 $3 $4 $5 $6 $7 $8 $9 X,Y pos of 4 corners*
0 Add a 4 corners polygon primitive as box body*
4,1,4,$2,$3,$4,$5,$6,$7,$8,$9,$2,$3,0*
0 Add four circle primitives for the rounded corners*
1,1,$1+$1,$2,$3*
1,1,$1+$1,$4,$5*
1,1,$1+$1,$6,$7*
1,1,$1+$1,$8,$9*
0 Add four rect primitives between the rounded corners*
20,1,$1+$1,$2,$3,$4,$5,0*
20,1,$1+$1,$4,$5,$6,$7,0*
20,1,$1+$1,$6,$7,$8,$9,0*
20,1,$1+$1,$8,$9,$2,$3,0*%
G04 Aperture macros list end*
%ADD10RoundRect,0.225000X0.250000X-0.225000X0.250000X0.225000X-0.250000X0.225000X-0.250000X-0.225000X0*%
%ADD11RoundRect,0.250000X-1.000000X-0.900000X1.000000X-0.900000X1.000000X0.900000X-1.000000X0.900000X0*%
%ADD12R,1.700000X1.700000*%
%ADD13C,1.700000*%
%ADD14RoundRect,0.250000X-0.725000X0.600000X-0.725000X-0.600000X0.725000X-0.600000X0.725000X0.600000X0*%
%ADD15O,1.950000X1.700000*%
%ADD16RoundRect,0.200000X0.275000X-0.200000X0.275000X0.200000X-0.275000X0.200000X-0.275000X-0.200000X0*%
%ADD17R,1.625600X1.625600*%
%ADD18C,1.625600*%
%ADD19RoundRect,0.218750X-0.218750X-0.256250X0.218750X-0.256250X0.218750X0.256250X-0.218750X0.256250X0*%
%ADD20RoundRect,0.250000X0.475000X-0.250000X0.475000X0.250000X-0.475000X0.250000X-0.475000X-0.250000X0*%
%ADD21RoundRect,0.250000X1.100000X-0.325000X1.100000X0.325000X-1.100000X0.325000X-1.100000X-0.325000X0*%
%ADD22R,2.600000X3.100000*%
%ADD23R,1.550000X0.600000*%
%ADD24RoundRect,0.062500X-0.375000X-0.062500X0.375000X-0.062500X0.375000X0.062500X-0.375000X0.062500X0*%
%ADD25RoundRect,0.062500X-0.062500X-0.375000X0.062500X-0.375000X0.062500X0.375000X-0.062500X0.375000X0*%
%ADD26R,2.500000X2.500000*%
%ADD27RoundRect,0.250000X-0.550000X-0.550000X0.550000X-0.550000X0.550000X0.550000X-0.550000X0.550000X0*%
%ADD28C,1.600000*%
%ADD29R,1.500000X2.400000*%
%ADD30RoundRect,0.250000X-0.362500X-1.425000X0.362500X-1.425000X0.362500X1.425000X-0.362500X1.425000X0*%
%ADD31RoundRect,0.102000X1.858000X-1.858000X1.858000X1.858000X-1.858000X1.858000X-1.858000X-1.858000X0*%
%ADD32C,3.920000*%
%ADD33O,2.604000X1.404000*%
%ADD34RoundRect,0.150000X-0.825000X-0.150000X0.825000X-0.150000X0.825000X0.150000X-0.825000X0.150000X0*%
%ADD35RoundRect,0.075000X-0.662500X-0.075000X0.662500X-0.075000X0.662500X0.075000X-0.662500X0.075000X0*%
%ADD36RoundRect,0.075000X-0.075000X-0.662500X0.075000X-0.662500X0.075000X0.662500X-0.075000X0.662500X0*%
%ADD37RoundRect,0.250000X0.625000X-0.312500X0.625000X0.312500X-0.625000X0.312500X-0.625000X-0.312500X0*%
%ADD38RoundRect,0.375000X-0.625000X-0.375000X0.625000X-0.375000X0.625000X0.375000X-0.625000X0.375000X0*%
%ADD39RoundRect,0.500000X-0.500000X-1.400000X0.500000X-1.400000X0.500000X1.400000X-0.500000X1.400000X0*%
%ADD40RoundRect,0.102000X-1.858000X1.858000X-1.858000X-1.858000X1.858000X-1.858000X1.858000X1.858000X0*%
%ADD41C,2.400000*%
%ADD42C,2.200000*%
G04 APERTURE END LIST*
D10*
%TO.C,C14*%
X28000000Y-75775000D03*
X28000000Y-74225000D03*
%TD*%
D11*
%TO.C,D1*%
X69850000Y-15000000D03*
X74150000Y-15000000D03*
%TD*%
D12*
%TO.C,J5*%
X115000000Y-110000000D03*
D13*
X115000000Y-112540000D03*
X115000000Y-115080000D03*
X115000000Y-117620000D03*
%TD*%
D10*
%TO.C,C24*%
X60000000Y-100775000D03*
X60000000Y-99225000D03*
%TD*%
D14*
%TO.C,J4*%
X165000000Y-92000000D03*
D15*
X165000000Y-94500000D03*
X165000000Y-97000000D03*
X165000000Y-99500000D03*
%TD*%
D16*
%TO.C,R6*%
X65000000Y-24825000D03*
X65000000Y-23175000D03*
%TD*%
D17*
%TO.C,Q2*%
X108000000Y-52000000D03*
D18*
X110540000Y-52000000D03*
X113080000Y-52000000D03*
%TD*%
D19*
%TO.C,LED2*%
X135212500Y-108000000D03*
X136787500Y-108000000D03*
%TD*%
D17*
%TO.C,Q4*%
X128000000Y-52000000D03*
D18*
X130540000Y-52000000D03*
X133080000Y-52000000D03*
%TD*%
D20*
%TO.C,C23*%
X52000000Y-117950000D03*
X52000000Y-116050000D03*
%TD*%
D16*
%TO.C,R1*%
X75000000Y-24825000D03*
X75000000Y-23175000D03*
%TD*%
D21*
%TO.C,C13*%
X10000000Y-86475000D03*
X10000000Y-83525000D03*
%TD*%
D16*
%TO.C,R11*%
X95000000Y-92825000D03*
X95000000Y-91175000D03*
%TD*%
%TO.C,R3*%
X65000000Y-66825000D03*
X65000000Y-65175000D03*
%TD*%
D21*
%TO.C,C4*%
X108000000Y-21475000D03*
X108000000Y-18525000D03*
%TD*%
D22*
%TO.C,U2*%
X20000000Y-80000000D03*
D23*
X17300000Y-78095000D03*
X17300000Y-79365000D03*
X17300000Y-80635000D03*
X17300000Y-81905000D03*
X22700000Y-81905000D03*
X22700000Y-80635000D03*
X22700000Y-79365000D03*
X22700000Y-78095000D03*
%TD*%
D17*
%TO.C,Q3*%
X128000000Y-40000000D03*
D18*
X130540000Y-40000000D03*
X133080000Y-40000000D03*
%TD*%
D24*
%TO.C,U1*%
X73062500Y-43750000D03*
X73062500Y-44250000D03*
X73062500Y-44750000D03*
X73062500Y-45250000D03*
X73062500Y-45750000D03*
X73062500Y-46250000D03*
D25*
X73750000Y-46937500D03*
X74250000Y-46937500D03*
X74750000Y-46937500D03*
X75250000Y-46937500D03*
X75750000Y-46937500D03*
X76250000Y-46937500D03*
D24*
X76937500Y-46250000D03*
X76937500Y-45750000D03*
X76937500Y-45250000D03*
X76937500Y-44750000D03*
X76937500Y-44250000D03*
X76937500Y-43750000D03*
D25*
X76250000Y-43062500D03*
X75750000Y-43062500D03*
X75250000Y-43062500D03*
X74750000Y-43062500D03*
X74250000Y-43062500D03*
X73750000Y-43062500D03*
D26*
X75000000Y-45000000D03*
%TD*%
D17*
%TO.C,Q1*%
X108000000Y-40000000D03*
D18*
X110540000Y-40000000D03*
X113080000Y-40000000D03*
%TD*%
D21*
%TO.C,C6*%
X92000000Y-29475000D03*
X92000000Y-26525000D03*
%TD*%
D16*
%TO.C,R12*%
X105000000Y-72825000D03*
X105000000Y-71175000D03*
%TD*%
D10*
%TO.C,C22*%
X52000000Y-113775000D03*
X52000000Y-112225000D03*
%TD*%
%TO.C,C20*%
X52000000Y-105775000D03*
X52000000Y-104225000D03*
%TD*%
D27*
%TO.C,C1*%
X88000000Y-15000000D03*
D28*
X91500000Y-15000000D03*
%TD*%
D29*
%TO.C,L1*%
X32250000Y-80000000D03*
X37750000Y-80000000D03*
%TD*%
D20*
%TO.C,C7*%
X58000000Y-62950000D03*
X58000000Y-61050000D03*
%TD*%
D16*
%TO.C,R16*%
X136000000Y-100825000D03*
X136000000Y-99175000D03*
%TD*%
D30*
%TO.C,R7*%
X129037500Y-60000000D03*
X134962500Y-60000000D03*
%TD*%
D31*
%TO.C,J1*%
X24000000Y-16400000D03*
D32*
X24000000Y-23600000D03*
D33*
X18000000Y-13250000D03*
X18000000Y-26750000D03*
%TD*%
D27*
%TO.C,C2*%
X98000000Y-15000000D03*
D28*
X101500000Y-15000000D03*
%TD*%
D19*
%TO.C,LED1*%
X127212500Y-108000000D03*
X128787500Y-108000000D03*
%TD*%
D10*
%TO.C,C10*%
X92000000Y-45775000D03*
X92000000Y-44225000D03*
%TD*%
D34*
%TO.C,U4*%
X92525000Y-78095000D03*
X92525000Y-79365000D03*
X92525000Y-80635000D03*
X92525000Y-81905000D03*
X97475000Y-81905000D03*
X97475000Y-80635000D03*
X97475000Y-79365000D03*
X97475000Y-78095000D03*
%TD*%
D21*
%TO.C,C12*%
X10000000Y-76475000D03*
X10000000Y-73525000D03*
%TD*%
D35*
%TO.C,U5*%
X65837500Y-109250000D03*
X65837500Y-109750000D03*
X65837500Y-110250000D03*
X65837500Y-110750000D03*
X65837500Y-111250000D03*
X65837500Y-111750000D03*
X65837500Y-112250000D03*
X65837500Y-112750000D03*
X65837500Y-113250000D03*
X65837500Y-113750000D03*
X65837500Y-114250000D03*
X65837500Y-114750000D03*
D36*
X67250000Y-116162500D03*
X67750000Y-116162500D03*
X68250000Y-116162500D03*
X68750000Y-116162500D03*
X69250000Y-116162500D03*
X69750000Y-116162500D03*
X70250000Y-116162500D03*
X70750000Y-116162500D03*
X71250000Y-116162500D03*
X71750000Y-116162500D03*
X72250000Y-116162500D03*
X72750000Y-116162500D03*
D35*
X74162500Y-114750000D03*
X74162500Y-114250000D03*
X74162500Y-113750000D03*
X74162500Y-113250000D03*
X74162500Y-112750000D03*
X74162500Y-112250000D03*
X74162500Y-111750000D03*
X74162500Y-111250000D03*
X74162500Y-110750000D03*
X74162500Y-110250000D03*
X74162500Y-109750000D03*
X74162500Y-109250000D03*
D36*
X72750000Y-107837500D03*
X72250000Y-107837500D03*
X71750000Y-107837500D03*
X71250000Y-107837500D03*
X70750000Y-107837500D03*
X70250000Y-107837500D03*
X69750000Y-107837500D03*
X69250000Y-107837500D03*
X68750000Y-107837500D03*
X68250000Y-107837500D03*
X67750000Y-107837500D03*
X67250000Y-107837500D03*
%TD*%
D16*
%TO.C,R17*%
X144000000Y-100825000D03*
X144000000Y-99175000D03*
%TD*%
D20*
%TO.C,C19*%
X72000000Y-88950000D03*
X72000000Y-87050000D03*
%TD*%
D16*
%TO.C,R5*%
X95000000Y-66825000D03*
X95000000Y-65175000D03*
%TD*%
D37*
%TO.C,R8*%
X146000000Y-61462500D03*
X146000000Y-58537500D03*
%TD*%
D16*
%TO.C,R2*%
X75000000Y-66825000D03*
X75000000Y-65175000D03*
%TD*%
D21*
%TO.C,C16*%
X45000000Y-76475000D03*
X45000000Y-73525000D03*
%TD*%
D10*
%TO.C,C15*%
X20000000Y-92775000D03*
X20000000Y-91225000D03*
%TD*%
%TO.C,C21*%
X52000000Y-109775000D03*
X52000000Y-108225000D03*
%TD*%
D14*
%TO.C,J3*%
X165000000Y-75000000D03*
D15*
X165000000Y-77500000D03*
X165000000Y-80000000D03*
X165000000Y-82500000D03*
%TD*%
D16*
%TO.C,R13*%
X56000000Y-100825000D03*
X56000000Y-99175000D03*
%TD*%
D19*
%TO.C,LED3*%
X143212500Y-108000000D03*
X144787500Y-108000000D03*
%TD*%
D38*
%TO.C,U3*%
X61850000Y-77700000D03*
X61850000Y-80000000D03*
D39*
X68150000Y-80000000D03*
D38*
X61850000Y-82300000D03*
%TD*%
D16*
%TO.C,R9*%
X35000000Y-92825000D03*
X35000000Y-91175000D03*
%TD*%
D20*
%TO.C,C8*%
X92000000Y-62950000D03*
X92000000Y-61050000D03*
%TD*%
D21*
%TO.C,C3*%
X108000000Y-13475000D03*
X108000000Y-10525000D03*
%TD*%
D10*
%TO.C,C5*%
X58000000Y-28775000D03*
X58000000Y-27225000D03*
%TD*%
D40*
%TO.C,J2*%
X156000000Y-49600000D03*
D32*
X156000000Y-42400000D03*
D33*
X162000000Y-52750000D03*
X162000000Y-39250000D03*
%TD*%
D10*
%TO.C,C9*%
X58000000Y-45775000D03*
X58000000Y-44225000D03*
%TD*%
D20*
%TO.C,C18*%
X58000000Y-88950000D03*
X58000000Y-87050000D03*
%TD*%
D16*
%TO.C,R14*%
X60000000Y-122825000D03*
X60000000Y-121175000D03*
%TD*%
%TO.C,R4*%
X85000000Y-66825000D03*
X85000000Y-65175000D03*
%TD*%
D21*
%TO.C,C17*%
X50000000Y-76475000D03*
X50000000Y-73525000D03*
%TD*%
D20*
%TO.C,C11*%
X151000000Y-60950000D03*
X151000000Y-59050000D03*
%TD*%
D16*
%TO.C,R15*%
X128000000Y-100825000D03*
X128000000Y-99175000D03*
%TD*%
D41*
%TO.C,F1*%
X52400000Y-16250000D03*
D42*
X46000000Y-15000000D03*
X46000000Y-17500000D03*
X49500000Y-15000000D03*
X49500000Y-17500000D03*
X55300000Y-15000000D03*
X55300000Y-17500000D03*
X58800000Y-15000000D03*
X58800000Y-17500000D03*
%TD*%
D16*
%TO.C,R10*%
X35000000Y-98825000D03*
X35000000Y-97175000D03*
%TD*%
M02*
