%TF.GenerationSoftware,KiCad,Pcbnew,10.0.6-10.0.6~ubuntu24.04.1*%
%TF.CreationDate,2026-09-05T14:44:36+09:00*%
%TF.ProjectId,CANMD-60,43414e4d-442d-4363-902e-6b696361645f,rev?*%
%TF.SameCoordinates,Original*%
%TF.FileFunction,Copper,L2,Bot*%
%TF.FilePolarity,Positive*%
%FSLAX46Y46*%
G04 Gerber Fmt 4.6, Leading zero omitted, Abs format (unit mm)*
G04 Created by KiCad (PCBNEW 10.0.6-10.0.6~ubuntu24.04.1) date 2026-09-05 14:44:36*
%MOMM*%
%LPD*%
G01*
G04 APERTURE LIST*
G04 Aperture macros list*
%AMRoundRect*
0 Rectangle with rounded corners*
0 $1 Rounding radius*
0 $2 $3 $4 $5 $6 $7 $8 $9 X,Y pos of 4 corners*
0 Add a 4 corners polygon primitive as box body*
4,1,4,$2,$3,$4,$5,$6,$7,$8,$9,$2,$3,0*
0 Add four circle primitives for the rounded corners*
1,1,$1+$1,$2,$3*
1,1,$1+$1,$4,$5*
1,1,$1+$1,$6,$7*
1,1,$1+$1,$8,$9*
0 Add four rect primitives between the rounded corners*
20,1,$1+$1,$2,$3,$4,$5,0*
20,1,$1+$1,$4,$5,$6,$7,0*
20,1,$1+$1,$6,$7,$8,$9,0*
20,1,$1+$1,$8,$9,$2,$3,0*%
G04 Aperture macros list end*
%TA.AperFunction,ComponentPad*%
%ADD10R,1.700000X1.700000*%
%TD*%
%TA.AperFunction,ComponentPad*%
%ADD11C,1.700000*%
%TD*%
%TA.AperFunction,ComponentPad*%
%ADD12RoundRect,0.250000X-0.725000X0.600000X-0.725000X-0.600000X0.725000X-0.600000X0.725000X0.600000X0*%
%TD*%
%TA.AperFunction,ComponentPad*%
%ADD13O,1.950000X1.700000*%
%TD*%
%TA.AperFunction,ComponentPad*%
%ADD14R,1.625600X1.625600*%
%TD*%
%TA.AperFunction,ComponentPad*%
%ADD15C,1.625600*%
%TD*%
%TA.AperFunction,ComponentPad*%
%ADD16C,0.600000*%
%TD*%
%TA.AperFunction,SMDPad,CuDef*%
%ADD17R,2.950000X4.900000*%
%TD*%
%TA.AperFunction,ComponentPad*%
%ADD18RoundRect,0.250000X-0.550000X-0.550000X0.550000X-0.550000X0.550000X0.550000X-0.550000X0.550000X0*%
%TD*%
%TA.AperFunction,ComponentPad*%
%ADD19C,1.600000*%
%TD*%
%TA.AperFunction,ComponentPad*%
%ADD20R,3.716000X3.716000*%
%TD*%
%TA.AperFunction,ComponentPad*%
%ADD21C,3.716000*%
%TD*%
%TA.AperFunction,ComponentPad*%
%ADD22O,2.400000X1.200000*%
%TD*%
%TA.AperFunction,ComponentPad*%
%ADD23C,2.200000*%
%TD*%
%TA.AperFunction,ViaPad*%
%ADD24C,0.700000*%
%TD*%
%TA.AperFunction,Conductor*%
%ADD25C,0.800000*%
%TD*%
%TA.AperFunction,Conductor*%
%ADD26C,3.000000*%
%TD*%
%TA.AperFunction,Conductor*%
%ADD27C,0.250000*%
%TD*%
G04 APERTURE END LIST*
D10*
%TO.P,J5,1*%
%TO.N,+3V3*%
X115000000Y-110000000D03*
D11*
%TO.P,J5,2*%
%TO.N,SWDIO*%
X115000000Y-112540000D03*
%TO.P,J5,3*%
%TO.N,SWCLK*%
X115000000Y-115080000D03*
%TO.P,J5,4*%
%TO.N,GND*%
X115000000Y-117620000D03*
%TD*%
D12*
%TO.P,J4,1*%
%TO.N,GND*%
X165000000Y-92000000D03*
D13*
%TO.P,J4,2*%
%TO.N,CANL*%
X165000000Y-94500000D03*
%TO.P,J4,3*%
%TO.N,CANH*%
X165000000Y-97000000D03*
%TO.P,J4,4*%
%TO.N,BUSPWR*%
X165000000Y-99500000D03*
%TD*%
D14*
%TO.P,Q2,1*%
%TO.N,GATE_L1*%
X108000000Y-52000000D03*
D15*
%TO.P,Q2,2*%
%TO.N,PHASE_A*%
X110540000Y-52000000D03*
%TO.P,Q2,3*%
%TO.N,SP_N*%
X113080000Y-52000000D03*
%TD*%
D14*
%TO.P,Q4,1*%
%TO.N,GATE_L2*%
X128000000Y-52000000D03*
D15*
%TO.P,Q4,2*%
%TO.N,PHASE_B*%
X130540000Y-52000000D03*
%TO.P,Q4,3*%
%TO.N,SP_N*%
X133080000Y-52000000D03*
%TD*%
D16*
%TO.P,U2,9*%
%TO.N,GND*%
X19350000Y-78050000D03*
X19350000Y-79350000D03*
X19350000Y-80650000D03*
X19350000Y-81950000D03*
D17*
X20000000Y-80000000D03*
D16*
X20650000Y-78050000D03*
X20650000Y-79350000D03*
X20650000Y-80650000D03*
X20650000Y-81950000D03*
%TD*%
D14*
%TO.P,Q3,1*%
%TO.N,GATE_H2*%
X128000000Y-40000000D03*
D15*
%TO.P,Q3,2*%
%TO.N,VM*%
X130540000Y-40000000D03*
%TO.P,Q3,3*%
%TO.N,PHASE_B*%
X133080000Y-40000000D03*
%TD*%
D14*
%TO.P,Q1,1*%
%TO.N,GATE_H1*%
X108000000Y-40000000D03*
D15*
%TO.P,Q1,2*%
%TO.N,VM*%
X110540000Y-40000000D03*
%TO.P,Q1,3*%
%TO.N,PHASE_A*%
X113080000Y-40000000D03*
%TD*%
D18*
%TO.P,C1,1*%
%TO.N,VM*%
X88000000Y-15000000D03*
D19*
%TO.P,C1,2*%
%TO.N,GND*%
X91500000Y-15000000D03*
%TD*%
D20*
%TO.P,J1,1*%
%TO.N,VBAT_RAW*%
X24000000Y-16400000D03*
D21*
%TO.P,J1,2*%
%TO.N,GND*%
X24000000Y-23600000D03*
D22*
%TO.P,J1,S1*%
%TO.N,N/C*%
X18000000Y-13250000D03*
%TO.P,J1,S2*%
X18000000Y-26750000D03*
%TD*%
D18*
%TO.P,C2,1*%
%TO.N,VM*%
X98000000Y-15000000D03*
D19*
%TO.P,C2,2*%
%TO.N,GND*%
X101500000Y-15000000D03*
%TD*%
D12*
%TO.P,J3,1*%
%TO.N,GND*%
X165000000Y-75000000D03*
D13*
%TO.P,J3,2*%
%TO.N,CANL*%
X165000000Y-77500000D03*
%TO.P,J3,3*%
%TO.N,CANH*%
X165000000Y-80000000D03*
%TO.P,J3,4*%
%TO.N,BUSPWR*%
X165000000Y-82500000D03*
%TD*%
D20*
%TO.P,J2,1*%
%TO.N,PHASE_A*%
X156000000Y-49600000D03*
D21*
%TO.P,J2,2*%
%TO.N,PHASE_B*%
X156000000Y-42400000D03*
D22*
%TO.P,J2,S1*%
%TO.N,N/C*%
X162000000Y-52750000D03*
%TO.P,J2,S2*%
X162000000Y-39250000D03*
%TD*%
D23*
%TO.P,F1,1*%
%TO.N,VBAT_RAW*%
X46000000Y-15000000D03*
X46000000Y-17500000D03*
X49500000Y-15000000D03*
X49500000Y-17500000D03*
%TO.P,F1,2*%
%TO.N,VM*%
X55300000Y-15000000D03*
X55300000Y-17500000D03*
X58800000Y-15000000D03*
X58800000Y-17500000D03*
%TD*%
D24*
%TO.N,GND*%
X52000000Y-104225000D03*
X143212500Y-108000000D03*
X92000000Y-44225000D03*
X95000000Y-65175000D03*
X92000000Y-44225000D03*
X52000000Y-112225000D03*
X58000000Y-27225000D03*
X92000000Y-26525000D03*
X52000000Y-112225000D03*
X75000000Y-23175000D03*
X61850000Y-77700000D03*
X52000000Y-108225000D03*
X58000000Y-87050000D03*
X52000000Y-116050000D03*
X52000000Y-108225000D03*
X95000000Y-91175000D03*
X52000000Y-104225000D03*
X58000000Y-87050000D03*
X143212500Y-108000000D03*
X115000000Y-117620000D03*
X58000000Y-44225000D03*
X127212500Y-108000000D03*
X58000000Y-27225000D03*
X60000000Y-99225000D03*
X60000000Y-99225000D03*
X165000000Y-92000000D03*
%TO.N,VM*%
X69850000Y-15000000D03*
X108000000Y-13475000D03*
X108000000Y-21475000D03*
X130540000Y-38000000D03*
X110540000Y-38000000D03*
X88000000Y-15000000D03*
%TO.N,PHASE_A*%
X146000000Y-61462500D03*
X156000000Y-49600000D03*
%TO.N,+3V3*%
X68150000Y-80000000D03*
X72000000Y-88950000D03*
%TO.N,FB_N*%
X35000000Y-91175000D03*
X35000000Y-98825000D03*
%TD*%
%TO.N,GND*%
D25*
X58000000Y-27225000D02*
X58000000Y-44225000D01*
X52000000Y-108225000D02*
X52000000Y-112225000D01*
X92000000Y-44225000D02*
X95000000Y-65175000D01*
X52000000Y-112225000D02*
X52000000Y-116050000D01*
X58000000Y-27225000D02*
X75000000Y-23175000D01*
X61850000Y-77700000D02*
X58000000Y-87050000D01*
X127212500Y-108000000D02*
X143212500Y-108000000D01*
X60000000Y-99225000D02*
X52000000Y-104225000D01*
X52000000Y-104225000D02*
X52000000Y-108225000D01*
X95000000Y-91175000D02*
X115000000Y-117620000D01*
X58000000Y-87050000D02*
X60000000Y-99225000D01*
X143212500Y-108000000D02*
X165000000Y-92000000D01*
X92000000Y-26525000D02*
X92000000Y-44225000D01*
%TO.N,VM*%
X108000000Y-13475000D02*
X108000000Y-21475000D01*
X69850000Y-15000000D02*
X88000000Y-15000000D01*
X110540000Y-38000000D02*
X130540000Y-38000000D01*
%TO.N,PHASE_A*%
D26*
X156000000Y-49600000D02*
X146000000Y-61462500D01*
%TO.N,+3V3*%
D27*
X68150000Y-80000000D02*
X72000000Y-88950000D01*
%TO.N,FB_N*%
X35000000Y-91175000D02*
X35000000Y-98825000D01*
%TD*%
%TA.AperFunction,Conductor*%
%TO.N,GND*%
G36*
X175442539Y-4520185D02*
G01*
X175488294Y-4572989D01*
X175499500Y-4624500D01*
X175499500Y-125375500D01*
X175479815Y-125442539D01*
X175427011Y-125488294D01*
X175375500Y-125499500D01*
X4624500Y-125499500D01*
X4557461Y-125479815D01*
X4511706Y-125427011D01*
X4500500Y-125375500D01*
X4500500Y-109105131D01*
X113849500Y-109105131D01*
X113849500Y-110894856D01*
X113849502Y-110894882D01*
X113852413Y-110919987D01*
X113852415Y-110919991D01*
X113897793Y-111022764D01*
X113897794Y-111022765D01*
X113977235Y-111102206D01*
X114080009Y-111147585D01*
X114105135Y-111150500D01*
X114842873Y-111150499D01*
X114909910Y-111170183D01*
X114955665Y-111222987D01*
X114965609Y-111292146D01*
X114936584Y-111355702D01*
X114877806Y-111393476D01*
X114862270Y-111396972D01*
X114730589Y-111417829D01*
X114558363Y-111473787D01*
X114558360Y-111473788D01*
X114397002Y-111556006D01*
X114250505Y-111662441D01*
X114250500Y-111662445D01*
X114122445Y-111790500D01*
X114122441Y-111790505D01*
X114016006Y-111937002D01*
X113933788Y-112098360D01*
X113933787Y-112098363D01*
X113877829Y-112270589D01*
X113849500Y-112449448D01*
X113849500Y-112630551D01*
X113877829Y-112809410D01*
X113933787Y-112981636D01*
X113933788Y-112981639D01*
X114016006Y-113142997D01*
X114122441Y-113289494D01*
X114122445Y-113289499D01*
X114250500Y-113417554D01*
X114250505Y-113417558D01*
X114378287Y-113510396D01*
X114397006Y-113523996D01*
X114502484Y-113577740D01*
X114558360Y-113606211D01*
X114558363Y-113606212D01*
X114644476Y-113634191D01*
X114730591Y-113662171D01*
X114803639Y-113673740D01*
X114890678Y-113687527D01*
X114953813Y-113717456D01*
X114990744Y-113776768D01*
X114989746Y-113846631D01*
X114951136Y-113904863D01*
X114890678Y-113932473D01*
X114730589Y-113957829D01*
X114558363Y-114013787D01*
X114558360Y-114013788D01*
X114397002Y-114096006D01*
X114250505Y-114202441D01*
X114250500Y-114202445D01*
X114122445Y-114330500D01*
X114122441Y-114330505D01*
X114016006Y-114477002D01*
X113933788Y-114638360D01*
X113933787Y-114638363D01*
X113877829Y-114810589D01*
X113849500Y-114989448D01*
X113849500Y-115170551D01*
X113877829Y-115349410D01*
X113933787Y-115521636D01*
X113933788Y-115521639D01*
X114016006Y-115682997D01*
X114122441Y-115829494D01*
X114122445Y-115829499D01*
X114250500Y-115957554D01*
X114250505Y-115957558D01*
X114378287Y-116050396D01*
X114397006Y-116063996D01*
X114502484Y-116117740D01*
X114558360Y-116146211D01*
X114558363Y-116146212D01*
X114644476Y-116174191D01*
X114730591Y-116202171D01*
X114813429Y-116215291D01*
X114909449Y-116230500D01*
X114909454Y-116230500D01*
X115090551Y-116230500D01*
X115177259Y-116216765D01*
X115269409Y-116202171D01*
X115441639Y-116146211D01*
X115602994Y-116063996D01*
X115749501Y-115957553D01*
X115877553Y-115829501D01*
X115983996Y-115682994D01*
X116066211Y-115521639D01*
X116122171Y-115349409D01*
X116136765Y-115257259D01*
X116150500Y-115170551D01*
X116150500Y-114989448D01*
X116134019Y-114885397D01*
X116122171Y-114810591D01*
X116066211Y-114638361D01*
X116066211Y-114638360D01*
X116037740Y-114582484D01*
X115983996Y-114477006D01*
X115970396Y-114458287D01*
X115877558Y-114330505D01*
X115877554Y-114330500D01*
X115749499Y-114202445D01*
X115749494Y-114202441D01*
X115602997Y-114096006D01*
X115602996Y-114096005D01*
X115602994Y-114096004D01*
X115551300Y-114069664D01*
X115441639Y-114013788D01*
X115441636Y-114013787D01*
X115269410Y-113957829D01*
X115109321Y-113932473D01*
X115046186Y-113902544D01*
X115009255Y-113843232D01*
X115010253Y-113773370D01*
X115048863Y-113715137D01*
X115109321Y-113687527D01*
X115179425Y-113676422D01*
X115269409Y-113662171D01*
X115441639Y-113606211D01*
X115602994Y-113523996D01*
X115749501Y-113417553D01*
X115877553Y-113289501D01*
X115983996Y-113142994D01*
X116066211Y-112981639D01*
X116122171Y-112809409D01*
X116136765Y-112717259D01*
X116150500Y-112630551D01*
X116150500Y-112449448D01*
X116134019Y-112345397D01*
X116122171Y-112270591D01*
X116066211Y-112098361D01*
X116066211Y-112098360D01*
X116037740Y-112042484D01*
X115983996Y-111937006D01*
X115970396Y-111918287D01*
X115877558Y-111790505D01*
X115877554Y-111790500D01*
X115749499Y-111662445D01*
X115749494Y-111662441D01*
X115602997Y-111556006D01*
X115602996Y-111556005D01*
X115602994Y-111556004D01*
X115551300Y-111529664D01*
X115441639Y-111473788D01*
X115441636Y-111473787D01*
X115269410Y-111417829D01*
X115137728Y-111396972D01*
X115074594Y-111367042D01*
X115037663Y-111307731D01*
X115038661Y-111237868D01*
X115077271Y-111179636D01*
X115141235Y-111151522D01*
X115157120Y-111150499D01*
X115894864Y-111150499D01*
X115894879Y-111150497D01*
X115894882Y-111150497D01*
X115919987Y-111147586D01*
X115919988Y-111147585D01*
X115919991Y-111147585D01*
X116022765Y-111102206D01*
X116102206Y-111022765D01*
X116147585Y-110919991D01*
X116150500Y-110894865D01*
X116150499Y-109105136D01*
X116150497Y-109105117D01*
X116147586Y-109080012D01*
X116147585Y-109080010D01*
X116147585Y-109080009D01*
X116102206Y-108977235D01*
X116022765Y-108897794D01*
X116022763Y-108897793D01*
X115919992Y-108852415D01*
X115894865Y-108849500D01*
X114105143Y-108849500D01*
X114105117Y-108849502D01*
X114080012Y-108852413D01*
X114080008Y-108852415D01*
X113977235Y-108897793D01*
X113897794Y-108977234D01*
X113852415Y-109080006D01*
X113852415Y-109080008D01*
X113849500Y-109105131D01*
X4500500Y-109105131D01*
X4500500Y-91239071D01*
X34349499Y-91239071D01*
X34374497Y-91364738D01*
X34374499Y-91364744D01*
X34423533Y-91483124D01*
X34423538Y-91483133D01*
X34494723Y-91589668D01*
X34494726Y-91589672D01*
X34538180Y-91633125D01*
X34571666Y-91694448D01*
X34574500Y-91720807D01*
X34574500Y-98279192D01*
X34554815Y-98346231D01*
X34538181Y-98366873D01*
X34494726Y-98410327D01*
X34494723Y-98410331D01*
X34423538Y-98516866D01*
X34423533Y-98516875D01*
X34374499Y-98635255D01*
X34374497Y-98635261D01*
X34349500Y-98760928D01*
X34349500Y-98760931D01*
X34349500Y-98889069D01*
X34349500Y-98889071D01*
X34349499Y-98889071D01*
X34374497Y-99014738D01*
X34374499Y-99014744D01*
X34423533Y-99133124D01*
X34423538Y-99133133D01*
X34494723Y-99239668D01*
X34494726Y-99239672D01*
X34585327Y-99330273D01*
X34585331Y-99330276D01*
X34691866Y-99401461D01*
X34691875Y-99401466D01*
X34711160Y-99409454D01*
X34810256Y-99450501D01*
X34810260Y-99450501D01*
X34810261Y-99450502D01*
X34935928Y-99475500D01*
X34935931Y-99475500D01*
X35064071Y-99475500D01*
X35148615Y-99458682D01*
X35189744Y-99450501D01*
X35308127Y-99401465D01*
X35414669Y-99330276D01*
X35505276Y-99239669D01*
X35576465Y-99133127D01*
X35625501Y-99014744D01*
X35633682Y-98973615D01*
X35650500Y-98889071D01*
X35650500Y-98760928D01*
X35625502Y-98635261D01*
X35625501Y-98635260D01*
X35625501Y-98635256D01*
X35576465Y-98516873D01*
X35576464Y-98516872D01*
X35576461Y-98516866D01*
X35505276Y-98410331D01*
X35505273Y-98410327D01*
X35461819Y-98366873D01*
X35428334Y-98305550D01*
X35425500Y-98279192D01*
X35425500Y-94409448D01*
X163724500Y-94409448D01*
X163724500Y-94590551D01*
X163752829Y-94769410D01*
X163808787Y-94941636D01*
X163808788Y-94941639D01*
X163891006Y-95102997D01*
X163997441Y-95249494D01*
X163997445Y-95249499D01*
X164125500Y-95377554D01*
X164125505Y-95377558D01*
X164253287Y-95470396D01*
X164272006Y-95483996D01*
X164377484Y-95537740D01*
X164433360Y-95566211D01*
X164433363Y-95566212D01*
X164519476Y-95594191D01*
X164605591Y-95622171D01*
X164630291Y-95626083D01*
X164639406Y-95627527D01*
X164702540Y-95657457D01*
X164739471Y-95716768D01*
X164738473Y-95786631D01*
X164699863Y-95844863D01*
X164639406Y-95872473D01*
X164605589Y-95877829D01*
X164433363Y-95933787D01*
X164433360Y-95933788D01*
X164272002Y-96016006D01*
X164125505Y-96122441D01*
X164125500Y-96122445D01*
X163997445Y-96250500D01*
X163997441Y-96250505D01*
X163891006Y-96397002D01*
X163808788Y-96558360D01*
X163808787Y-96558363D01*
X163752829Y-96730589D01*
X163724500Y-96909448D01*
X163724500Y-97090551D01*
X163752829Y-97269410D01*
X163808787Y-97441636D01*
X163808788Y-97441639D01*
X163891006Y-97602997D01*
X163997441Y-97749494D01*
X163997445Y-97749499D01*
X164125500Y-97877554D01*
X164125505Y-97877558D01*
X164253287Y-97970396D01*
X164272006Y-97983996D01*
X164377484Y-98037740D01*
X164433360Y-98066211D01*
X164433363Y-98066212D01*
X164519476Y-98094191D01*
X164605591Y-98122171D01*
X164630291Y-98126083D01*
X164639406Y-98127527D01*
X164702540Y-98157457D01*
X164739471Y-98216768D01*
X164738473Y-98286631D01*
X164699863Y-98344863D01*
X164639406Y-98372473D01*
X164605589Y-98377829D01*
X164433363Y-98433787D01*
X164433360Y-98433788D01*
X164272002Y-98516006D01*
X164125505Y-98622441D01*
X164125500Y-98622445D01*
X163997445Y-98750500D01*
X163997441Y-98750505D01*
X163891006Y-98897002D01*
X163808788Y-99058360D01*
X163808787Y-99058363D01*
X163752829Y-99230589D01*
X163724500Y-99409448D01*
X163724500Y-99590551D01*
X163752829Y-99769410D01*
X163808787Y-99941636D01*
X163808788Y-99941639D01*
X163891006Y-100102997D01*
X163997441Y-100249494D01*
X163997445Y-100249499D01*
X164125500Y-100377554D01*
X164125505Y-100377558D01*
X164253287Y-100470396D01*
X164272006Y-100483996D01*
X164377484Y-100537740D01*
X164433360Y-100566211D01*
X164433363Y-100566212D01*
X164519476Y-100594191D01*
X164605591Y-100622171D01*
X164688429Y-100635291D01*
X164784449Y-100650500D01*
X164784454Y-100650500D01*
X165215551Y-100650500D01*
X165302259Y-100636765D01*
X165394409Y-100622171D01*
X165566639Y-100566211D01*
X165727994Y-100483996D01*
X165874501Y-100377553D01*
X166002553Y-100249501D01*
X166108996Y-100102994D01*
X166191211Y-99941639D01*
X166247171Y-99769409D01*
X166261765Y-99677259D01*
X166275500Y-99590551D01*
X166275500Y-99409448D01*
X166248609Y-99239672D01*
X166247171Y-99230591D01*
X166219191Y-99144476D01*
X166191212Y-99058363D01*
X166191211Y-99058360D01*
X166162740Y-99002484D01*
X166108996Y-98897006D01*
X166095396Y-98878287D01*
X166002558Y-98750505D01*
X166002554Y-98750500D01*
X165874499Y-98622445D01*
X165874494Y-98622441D01*
X165727997Y-98516006D01*
X165727996Y-98516005D01*
X165727994Y-98516004D01*
X165676300Y-98489664D01*
X165566639Y-98433788D01*
X165566636Y-98433787D01*
X165394410Y-98377829D01*
X165360594Y-98372473D01*
X165297459Y-98342544D01*
X165260528Y-98283232D01*
X165261526Y-98213370D01*
X165300136Y-98155137D01*
X165360594Y-98127527D01*
X165368388Y-98126292D01*
X165394409Y-98122171D01*
X165566639Y-98066211D01*
X165727994Y-97983996D01*
X165874501Y-97877553D01*
X166002553Y-97749501D01*
X166108996Y-97602994D01*
X166191211Y-97441639D01*
X166247171Y-97269409D01*
X166261765Y-97177259D01*
X166275500Y-97090551D01*
X166275500Y-96909448D01*
X166259019Y-96805397D01*
X166247171Y-96730591D01*
X166191211Y-96558361D01*
X166191211Y-96558360D01*
X166162740Y-96502484D01*
X166108996Y-96397006D01*
X166095396Y-96378287D01*
X166002558Y-96250505D01*
X166002554Y-96250500D01*
X165874499Y-96122445D01*
X165874494Y-96122441D01*
X165727997Y-96016006D01*
X165727996Y-96016005D01*
X165727994Y-96016004D01*
X165676300Y-95989664D01*
X165566639Y-95933788D01*
X165566636Y-95933787D01*
X165394410Y-95877829D01*
X165360594Y-95872473D01*
X165297459Y-95842544D01*
X165260528Y-95783232D01*
X165261526Y-95713370D01*
X165300136Y-95655137D01*
X165360594Y-95627527D01*
X165368388Y-95626292D01*
X165394409Y-95622171D01*
X165566639Y-95566211D01*
X165727994Y-95483996D01*
X165874501Y-95377553D01*
X166002553Y-95249501D01*
X166108996Y-95102994D01*
X166191211Y-94941639D01*
X166247171Y-94769409D01*
X166261765Y-94677259D01*
X166275500Y-94590551D01*
X166275500Y-94409448D01*
X166259019Y-94305397D01*
X166247171Y-94230591D01*
X166191211Y-94058361D01*
X166191211Y-94058360D01*
X166162740Y-94002484D01*
X166108996Y-93897006D01*
X166095396Y-93878287D01*
X166002558Y-93750505D01*
X166002554Y-93750500D01*
X165874499Y-93622445D01*
X165874494Y-93622441D01*
X165727997Y-93516006D01*
X165727996Y-93516005D01*
X165727994Y-93516004D01*
X165676300Y-93489664D01*
X165566639Y-93433788D01*
X165566636Y-93433787D01*
X165394410Y-93377829D01*
X165215551Y-93349500D01*
X165215546Y-93349500D01*
X164784454Y-93349500D01*
X164784449Y-93349500D01*
X164605589Y-93377829D01*
X164433363Y-93433787D01*
X164433360Y-93433788D01*
X164272002Y-93516006D01*
X164125505Y-93622441D01*
X164125500Y-93622445D01*
X163997445Y-93750500D01*
X163997441Y-93750505D01*
X163891006Y-93897002D01*
X163808788Y-94058360D01*
X163808787Y-94058363D01*
X163752829Y-94230589D01*
X163724500Y-94409448D01*
X35425500Y-94409448D01*
X35425500Y-91720807D01*
X35445185Y-91653768D01*
X35461820Y-91633125D01*
X35505273Y-91589672D01*
X35505276Y-91589669D01*
X35576465Y-91483127D01*
X35625501Y-91364744D01*
X35650500Y-91239069D01*
X35650500Y-91110931D01*
X35650500Y-91110928D01*
X35625502Y-90985261D01*
X35625501Y-90985260D01*
X35625501Y-90985256D01*
X35576465Y-90866873D01*
X35576464Y-90866872D01*
X35576461Y-90866866D01*
X35505276Y-90760331D01*
X35505273Y-90760327D01*
X35414672Y-90669726D01*
X35414668Y-90669723D01*
X35308133Y-90598538D01*
X35308124Y-90598533D01*
X35189744Y-90549499D01*
X35189738Y-90549497D01*
X35064071Y-90524500D01*
X35064069Y-90524500D01*
X34935931Y-90524500D01*
X34935929Y-90524500D01*
X34810261Y-90549497D01*
X34810255Y-90549499D01*
X34691875Y-90598533D01*
X34691866Y-90598538D01*
X34585331Y-90669723D01*
X34585327Y-90669726D01*
X34494726Y-90760327D01*
X34494723Y-90760331D01*
X34423538Y-90866866D01*
X34423533Y-90866875D01*
X34374499Y-90985255D01*
X34374497Y-90985261D01*
X34349500Y-91110928D01*
X34349500Y-91110931D01*
X34349500Y-91239069D01*
X34349500Y-91239071D01*
X34349499Y-91239071D01*
X4500500Y-91239071D01*
X4500500Y-80064071D01*
X67499499Y-80064071D01*
X67524497Y-80189738D01*
X67524499Y-80189744D01*
X67573533Y-80308124D01*
X67573538Y-80308133D01*
X67644723Y-80414668D01*
X67644726Y-80414672D01*
X67735327Y-80505273D01*
X67735331Y-80505276D01*
X67841866Y-80576461D01*
X67841870Y-80576463D01*
X67841873Y-80576465D01*
X67908376Y-80604011D01*
X67962776Y-80647850D01*
X67974829Y-80669571D01*
X71393391Y-88616617D01*
X71401800Y-88685979D01*
X71394045Y-88713065D01*
X71374499Y-88760256D01*
X71374498Y-88760259D01*
X71374497Y-88760262D01*
X71349500Y-88885928D01*
X71349500Y-88885931D01*
X71349500Y-89014069D01*
X71349500Y-89014071D01*
X71349499Y-89014071D01*
X71374497Y-89139738D01*
X71374499Y-89139744D01*
X71423533Y-89258124D01*
X71423538Y-89258133D01*
X71494723Y-89364668D01*
X71494726Y-89364672D01*
X71585327Y-89455273D01*
X71585331Y-89455276D01*
X71691866Y-89526461D01*
X71691872Y-89526464D01*
X71691873Y-89526465D01*
X71810256Y-89575501D01*
X71810260Y-89575501D01*
X71810261Y-89575502D01*
X71935928Y-89600500D01*
X71935931Y-89600500D01*
X72064071Y-89600500D01*
X72148615Y-89583682D01*
X72189744Y-89575501D01*
X72308127Y-89526465D01*
X72414669Y-89455276D01*
X72505276Y-89364669D01*
X72576465Y-89258127D01*
X72625501Y-89139744D01*
X72650500Y-89014069D01*
X72650500Y-88885931D01*
X72650500Y-88885928D01*
X72625502Y-88760261D01*
X72625501Y-88760260D01*
X72625501Y-88760256D01*
X72576465Y-88641873D01*
X72576464Y-88641872D01*
X72576461Y-88641866D01*
X72505276Y-88535331D01*
X72505273Y-88535327D01*
X72414672Y-88444726D01*
X72414668Y-88444723D01*
X72308133Y-88373538D01*
X72308123Y-88373533D01*
X72241624Y-88345988D01*
X72187221Y-88302147D01*
X72175169Y-88280427D01*
X70183524Y-83650500D01*
X68756607Y-80333381D01*
X68748199Y-80264021D01*
X68755956Y-80236928D01*
X68775500Y-80189746D01*
X68775502Y-80189739D01*
X68800500Y-80064071D01*
X68800500Y-79935928D01*
X68775502Y-79810261D01*
X68775501Y-79810260D01*
X68775501Y-79810256D01*
X68726465Y-79691873D01*
X68726464Y-79691872D01*
X68726461Y-79691866D01*
X68655276Y-79585331D01*
X68655273Y-79585327D01*
X68564672Y-79494726D01*
X68564668Y-79494723D01*
X68458133Y-79423538D01*
X68458124Y-79423533D01*
X68339744Y-79374499D01*
X68339738Y-79374497D01*
X68214071Y-79349500D01*
X68214069Y-79349500D01*
X68085931Y-79349500D01*
X68085929Y-79349500D01*
X67960261Y-79374497D01*
X67960255Y-79374499D01*
X67841875Y-79423533D01*
X67841866Y-79423538D01*
X67735331Y-79494723D01*
X67735327Y-79494726D01*
X67644726Y-79585327D01*
X67644723Y-79585331D01*
X67573538Y-79691866D01*
X67573533Y-79691875D01*
X67524499Y-79810255D01*
X67524497Y-79810261D01*
X67499500Y-79935928D01*
X67499500Y-79935931D01*
X67499500Y-80064069D01*
X67499500Y-80064071D01*
X67499499Y-80064071D01*
X4500500Y-80064071D01*
X4500500Y-77409448D01*
X163724500Y-77409448D01*
X163724500Y-77590551D01*
X163752829Y-77769410D01*
X163808787Y-77941636D01*
X163808788Y-77941639D01*
X163891006Y-78102997D01*
X163997441Y-78249494D01*
X163997445Y-78249499D01*
X164125500Y-78377554D01*
X164125505Y-78377558D01*
X164253287Y-78470396D01*
X164272006Y-78483996D01*
X164377484Y-78537740D01*
X164433360Y-78566211D01*
X164433363Y-78566212D01*
X164519476Y-78594191D01*
X164605591Y-78622171D01*
X164630291Y-78626083D01*
X164639406Y-78627527D01*
X164702540Y-78657457D01*
X164739471Y-78716768D01*
X164738473Y-78786631D01*
X164699863Y-78844863D01*
X164639406Y-78872473D01*
X164605589Y-78877829D01*
X164433363Y-78933787D01*
X164433360Y-78933788D01*
X164272002Y-79016006D01*
X164125505Y-79122441D01*
X164125500Y-79122445D01*
X163997445Y-79250500D01*
X163997441Y-79250505D01*
X163891006Y-79397002D01*
X163808788Y-79558360D01*
X163808787Y-79558363D01*
X163752829Y-79730589D01*
X163724500Y-79909448D01*
X163724500Y-80090551D01*
X163752829Y-80269410D01*
X163808787Y-80441636D01*
X163808788Y-80441639D01*
X163891006Y-80602997D01*
X163997441Y-80749494D01*
X163997445Y-80749499D01*
X164125500Y-80877554D01*
X164125505Y-80877558D01*
X164253287Y-80970396D01*
X164272006Y-80983996D01*
X164377484Y-81037740D01*
X164433360Y-81066211D01*
X164433363Y-81066212D01*
X164519476Y-81094191D01*
X164605591Y-81122171D01*
X164630291Y-81126083D01*
X164639406Y-81127527D01*
X164702540Y-81157457D01*
X164739471Y-81216768D01*
X164738473Y-81286631D01*
X164699863Y-81344863D01*
X164639406Y-81372473D01*
X164605589Y-81377829D01*
X164433363Y-81433787D01*
X164433360Y-81433788D01*
X164272002Y-81516006D01*
X164125505Y-81622441D01*
X164125500Y-81622445D01*
X163997445Y-81750500D01*
X163997441Y-81750505D01*
X163891006Y-81897002D01*
X163808788Y-82058360D01*
X163808787Y-82058363D01*
X163752829Y-82230589D01*
X163724500Y-82409448D01*
X163724500Y-82590551D01*
X163752829Y-82769410D01*
X163808787Y-82941636D01*
X163808788Y-82941639D01*
X163891006Y-83102997D01*
X163997441Y-83249494D01*
X163997445Y-83249499D01*
X164125500Y-83377554D01*
X164125505Y-83377558D01*
X164253287Y-83470396D01*
X164272006Y-83483996D01*
X164377484Y-83537740D01*
X164433360Y-83566211D01*
X164433363Y-83566212D01*
X164519476Y-83594191D01*
X164605591Y-83622171D01*
X164688429Y-83635291D01*
X164784449Y-83650500D01*
X164784454Y-83650500D01*
X165215551Y-83650500D01*
X165302259Y-83636765D01*
X165394409Y-83622171D01*
X165566639Y-83566211D01*
X165727994Y-83483996D01*
X165874501Y-83377553D01*
X166002553Y-83249501D01*
X166108996Y-83102994D01*
X166191211Y-82941639D01*
X166247171Y-82769409D01*
X166261765Y-82677259D01*
X166275500Y-82590551D01*
X166275500Y-82409448D01*
X166259019Y-82305397D01*
X166247171Y-82230591D01*
X166191211Y-82058361D01*
X166191211Y-82058360D01*
X166162740Y-82002484D01*
X166108996Y-81897006D01*
X166095396Y-81878287D01*
X166002558Y-81750505D01*
X166002554Y-81750500D01*
X165874499Y-81622445D01*
X165874494Y-81622441D01*
X165727997Y-81516006D01*
X165727996Y-81516005D01*
X165727994Y-81516004D01*
X165676300Y-81489664D01*
X165566639Y-81433788D01*
X165566636Y-81433787D01*
X165394410Y-81377829D01*
X165360594Y-81372473D01*
X165297459Y-81342544D01*
X165260528Y-81283232D01*
X165261526Y-81213370D01*
X165300136Y-81155137D01*
X165360594Y-81127527D01*
X165368388Y-81126292D01*
X165394409Y-81122171D01*
X165566639Y-81066211D01*
X165727994Y-80983996D01*
X165874501Y-80877553D01*
X166002553Y-80749501D01*
X166108996Y-80602994D01*
X166191211Y-80441639D01*
X166247171Y-80269409D01*
X166261765Y-80177259D01*
X166275500Y-80090551D01*
X166275500Y-79909448D01*
X166259019Y-79805397D01*
X166247171Y-79730591D01*
X166191211Y-79558361D01*
X166191211Y-79558360D01*
X166158786Y-79494723D01*
X166108996Y-79397006D01*
X166074481Y-79349500D01*
X166002558Y-79250505D01*
X166002554Y-79250500D01*
X165874499Y-79122445D01*
X165874494Y-79122441D01*
X165727997Y-79016006D01*
X165727996Y-79016005D01*
X165727994Y-79016004D01*
X165676300Y-78989664D01*
X165566639Y-78933788D01*
X165566636Y-78933787D01*
X165394410Y-78877829D01*
X165360594Y-78872473D01*
X165297459Y-78842544D01*
X165260528Y-78783232D01*
X165261526Y-78713370D01*
X165300136Y-78655137D01*
X165360594Y-78627527D01*
X165368388Y-78626292D01*
X165394409Y-78622171D01*
X165566639Y-78566211D01*
X165727994Y-78483996D01*
X165874501Y-78377553D01*
X166002553Y-78249501D01*
X166108996Y-78102994D01*
X166191211Y-77941639D01*
X166247171Y-77769409D01*
X166261765Y-77677259D01*
X166275500Y-77590551D01*
X166275500Y-77409448D01*
X166259019Y-77305397D01*
X166247171Y-77230591D01*
X166191211Y-77058361D01*
X166191211Y-77058360D01*
X166162740Y-77002484D01*
X166108996Y-76897006D01*
X166095396Y-76878287D01*
X166002558Y-76750505D01*
X166002554Y-76750500D01*
X165874499Y-76622445D01*
X165874494Y-76622441D01*
X165727997Y-76516006D01*
X165727996Y-76516005D01*
X165727994Y-76516004D01*
X165676300Y-76489664D01*
X165566639Y-76433788D01*
X165566636Y-76433787D01*
X165394410Y-76377829D01*
X165215551Y-76349500D01*
X165215546Y-76349500D01*
X164784454Y-76349500D01*
X164784449Y-76349500D01*
X164605589Y-76377829D01*
X164433363Y-76433787D01*
X164433360Y-76433788D01*
X164272002Y-76516006D01*
X164125505Y-76622441D01*
X164125500Y-76622445D01*
X163997445Y-76750500D01*
X163997441Y-76750505D01*
X163891006Y-76897002D01*
X163808788Y-77058360D01*
X163808787Y-77058363D01*
X163752829Y-77230589D01*
X163724500Y-77409448D01*
X4500500Y-77409448D01*
X4500500Y-61497744D01*
X144195980Y-61497744D01*
X144195980Y-61497748D01*
X144216014Y-61732908D01*
X144216015Y-61732913D01*
X144266576Y-61963466D01*
X144266578Y-61963471D01*
X144346789Y-62185427D01*
X144346795Y-62185440D01*
X144455299Y-62395037D01*
X144455300Y-62395039D01*
X144579898Y-62573851D01*
X144590233Y-62588682D01*
X144749291Y-62763059D01*
X144929747Y-62915182D01*
X145128517Y-63042451D01*
X145342197Y-63142685D01*
X145567133Y-63214171D01*
X145799475Y-63255686D01*
X145878066Y-63259297D01*
X146035244Y-63266519D01*
X146035248Y-63266519D01*
X146270408Y-63246485D01*
X146270408Y-63246484D01*
X146270419Y-63246484D01*
X146500962Y-63195925D01*
X146648283Y-63142685D01*
X146722927Y-63115710D01*
X146722931Y-63115707D01*
X146722934Y-63115707D01*
X146932536Y-63007201D01*
X147126182Y-62872267D01*
X147300559Y-62713209D01*
X155774241Y-52661304D01*
X160499500Y-52661304D01*
X160499500Y-52838695D01*
X160534103Y-53012658D01*
X160534106Y-53012667D01*
X160601983Y-53176540D01*
X160601990Y-53176553D01*
X160700535Y-53324034D01*
X160700538Y-53324038D01*
X160825961Y-53449461D01*
X160825965Y-53449464D01*
X160973446Y-53548009D01*
X160973459Y-53548016D01*
X161096363Y-53598923D01*
X161137334Y-53615894D01*
X161137336Y-53615894D01*
X161137341Y-53615896D01*
X161311304Y-53650499D01*
X161311307Y-53650500D01*
X161311309Y-53650500D01*
X162688693Y-53650500D01*
X162688694Y-53650499D01*
X162746682Y-53638964D01*
X162862658Y-53615896D01*
X162862661Y-53615894D01*
X162862666Y-53615894D01*
X163026547Y-53548013D01*
X163174035Y-53449464D01*
X163299464Y-53324035D01*
X163398013Y-53176547D01*
X163465894Y-53012666D01*
X163477926Y-52952180D01*
X163488964Y-52896682D01*
X163500500Y-52838691D01*
X163500500Y-52661309D01*
X163500500Y-52661306D01*
X163500499Y-52661304D01*
X163465896Y-52487341D01*
X163465893Y-52487332D01*
X163398016Y-52323459D01*
X163398009Y-52323446D01*
X163299464Y-52175965D01*
X163299461Y-52175961D01*
X163174038Y-52050538D01*
X163174034Y-52050535D01*
X163026553Y-51951990D01*
X163026540Y-51951983D01*
X162862667Y-51884106D01*
X162862658Y-51884103D01*
X162688694Y-51849500D01*
X162688691Y-51849500D01*
X161311309Y-51849500D01*
X161311306Y-51849500D01*
X161137341Y-51884103D01*
X161137332Y-51884106D01*
X160973459Y-51951983D01*
X160973446Y-51951990D01*
X160825965Y-52050535D01*
X160825961Y-52050538D01*
X160700538Y-52175961D01*
X160700535Y-52175965D01*
X160601990Y-52323446D01*
X160601983Y-52323459D01*
X160534106Y-52487332D01*
X160534103Y-52487341D01*
X160499500Y-52661304D01*
X155774241Y-52661304D01*
X155920896Y-52487334D01*
X156498142Y-51802577D01*
X156556401Y-51764007D01*
X156592949Y-51758499D01*
X157902856Y-51758499D01*
X157902864Y-51758499D01*
X157902879Y-51758497D01*
X157902882Y-51758497D01*
X157927987Y-51755586D01*
X157927988Y-51755585D01*
X157927991Y-51755585D01*
X158030765Y-51710206D01*
X158110206Y-51630765D01*
X158155585Y-51527991D01*
X158158500Y-51502865D01*
X158158499Y-47697136D01*
X158158497Y-47697117D01*
X158155586Y-47672012D01*
X158155585Y-47672010D01*
X158155585Y-47672009D01*
X158110206Y-47569235D01*
X158030765Y-47489794D01*
X158030763Y-47489793D01*
X157927992Y-47444415D01*
X157902865Y-47441500D01*
X154097143Y-47441500D01*
X154097117Y-47441502D01*
X154072012Y-47444413D01*
X154072008Y-47444415D01*
X153969235Y-47489793D01*
X153889794Y-47569234D01*
X153844415Y-47672006D01*
X153844415Y-47672008D01*
X153841500Y-47697131D01*
X153841500Y-49321730D01*
X153821815Y-49388769D01*
X153812308Y-49401652D01*
X144547318Y-60392247D01*
X144420049Y-60591017D01*
X144319816Y-60804693D01*
X144248328Y-61029637D01*
X144206813Y-61261977D01*
X144195980Y-61497744D01*
X4500500Y-61497744D01*
X4500500Y-51142331D01*
X106886700Y-51142331D01*
X106886700Y-52857656D01*
X106886702Y-52857682D01*
X106889613Y-52882787D01*
X106889615Y-52882791D01*
X106934993Y-52985564D01*
X106934994Y-52985565D01*
X107014435Y-53065006D01*
X107117209Y-53110385D01*
X107142335Y-53113300D01*
X108857664Y-53113299D01*
X108857679Y-53113297D01*
X108857682Y-53113297D01*
X108882787Y-53110386D01*
X108882788Y-53110385D01*
X108882791Y-53110385D01*
X108985565Y-53065006D01*
X109065006Y-52985565D01*
X109110385Y-52882791D01*
X109113300Y-52857665D01*
X109113299Y-51912381D01*
X109426700Y-51912381D01*
X109426700Y-52087618D01*
X109454113Y-52260699D01*
X109508262Y-52427356D01*
X109508264Y-52427359D01*
X109587820Y-52583497D01*
X109690822Y-52725267D01*
X109814733Y-52849178D01*
X109956503Y-52952180D01*
X110112641Y-53031736D01*
X110112643Y-53031737D01*
X110195971Y-53058811D01*
X110279302Y-53085887D01*
X110452381Y-53113300D01*
X110452382Y-53113300D01*
X110627618Y-53113300D01*
X110627619Y-53113300D01*
X110800698Y-53085887D01*
X110967359Y-53031736D01*
X111123497Y-52952180D01*
X111265267Y-52849178D01*
X111389178Y-52725267D01*
X111492180Y-52583497D01*
X111571736Y-52427359D01*
X111625887Y-52260698D01*
X111653300Y-52087619D01*
X111653300Y-51912381D01*
X111966700Y-51912381D01*
X111966700Y-52087618D01*
X111994113Y-52260699D01*
X112048262Y-52427356D01*
X112048264Y-52427359D01*
X112127820Y-52583497D01*
X112230822Y-52725267D01*
X112354733Y-52849178D01*
X112496503Y-52952180D01*
X112652641Y-53031736D01*
X112652643Y-53031737D01*
X112735971Y-53058811D01*
X112819302Y-53085887D01*
X112992381Y-53113300D01*
X112992382Y-53113300D01*
X113167618Y-53113300D01*
X113167619Y-53113300D01*
X113340698Y-53085887D01*
X113507359Y-53031736D01*
X113663497Y-52952180D01*
X113805267Y-52849178D01*
X113929178Y-52725267D01*
X114032180Y-52583497D01*
X114111736Y-52427359D01*
X114165887Y-52260698D01*
X114193300Y-52087619D01*
X114193300Y-51912381D01*
X114165887Y-51739302D01*
X114138811Y-51655971D01*
X114111737Y-51572643D01*
X114111735Y-51572640D01*
X114088987Y-51527993D01*
X114032180Y-51416503D01*
X113929178Y-51274733D01*
X113805267Y-51150822D01*
X113793580Y-51142331D01*
X126886700Y-51142331D01*
X126886700Y-52857656D01*
X126886702Y-52857682D01*
X126889613Y-52882787D01*
X126889615Y-52882791D01*
X126934993Y-52985564D01*
X126934994Y-52985565D01*
X127014435Y-53065006D01*
X127117209Y-53110385D01*
X127142335Y-53113300D01*
X128857664Y-53113299D01*
X128857679Y-53113297D01*
X128857682Y-53113297D01*
X128882787Y-53110386D01*
X128882788Y-53110385D01*
X128882791Y-53110385D01*
X128985565Y-53065006D01*
X129065006Y-52985565D01*
X129110385Y-52882791D01*
X129113300Y-52857665D01*
X129113299Y-51912381D01*
X129426700Y-51912381D01*
X129426700Y-52087618D01*
X129454113Y-52260699D01*
X129508262Y-52427356D01*
X129508264Y-52427359D01*
X129587820Y-52583497D01*
X129690822Y-52725267D01*
X129814733Y-52849178D01*
X129956503Y-52952180D01*
X130112641Y-53031736D01*
X130112643Y-53031737D01*
X130195971Y-53058811D01*
X130279302Y-53085887D01*
X130452381Y-53113300D01*
X130452382Y-53113300D01*
X130627618Y-53113300D01*
X130627619Y-53113300D01*
X130800698Y-53085887D01*
X130967359Y-53031736D01*
X131123497Y-52952180D01*
X131265267Y-52849178D01*
X131389178Y-52725267D01*
X131492180Y-52583497D01*
X131571736Y-52427359D01*
X131625887Y-52260698D01*
X131653300Y-52087619D01*
X131653300Y-51912381D01*
X131966700Y-51912381D01*
X131966700Y-52087618D01*
X131994113Y-52260699D01*
X132048262Y-52427356D01*
X132048264Y-52427359D01*
X132127820Y-52583497D01*
X132230822Y-52725267D01*
X132354733Y-52849178D01*
X132496503Y-52952180D01*
X132652641Y-53031736D01*
X132652643Y-53031737D01*
X132735971Y-53058811D01*
X132819302Y-53085887D01*
X132992381Y-53113300D01*
X132992382Y-53113300D01*
X133167618Y-53113300D01*
X133167619Y-53113300D01*
X133340698Y-53085887D01*
X133507359Y-53031736D01*
X133663497Y-52952180D01*
X133805267Y-52849178D01*
X133929178Y-52725267D01*
X134032180Y-52583497D01*
X134111736Y-52427359D01*
X134165887Y-52260698D01*
X134193300Y-52087619D01*
X134193300Y-51912381D01*
X134165887Y-51739302D01*
X134138811Y-51655971D01*
X134111737Y-51572643D01*
X134111735Y-51572640D01*
X134088987Y-51527993D01*
X134032180Y-51416503D01*
X133929178Y-51274733D01*
X133805267Y-51150822D01*
X133663497Y-51047820D01*
X133507359Y-50968264D01*
X133507356Y-50968262D01*
X133340699Y-50914113D01*
X133254158Y-50900406D01*
X133167619Y-50886700D01*
X132992381Y-50886700D01*
X132934688Y-50895837D01*
X132819300Y-50914113D01*
X132652643Y-50968262D01*
X132652640Y-50968264D01*
X132496502Y-51047820D01*
X132415617Y-51106586D01*
X132354733Y-51150822D01*
X132354731Y-51150824D01*
X132354730Y-51150824D01*
X132230824Y-51274730D01*
X132230824Y-51274731D01*
X132230822Y-51274733D01*
X132186586Y-51335617D01*
X132127820Y-51416502D01*
X132048264Y-51572640D01*
X132048262Y-51572643D01*
X131994113Y-51739300D01*
X131966700Y-51912381D01*
X131653300Y-51912381D01*
X131625887Y-51739302D01*
X131598811Y-51655971D01*
X131571737Y-51572643D01*
X131571735Y-51572640D01*
X131548987Y-51527993D01*
X131492180Y-51416503D01*
X131389178Y-51274733D01*
X131265267Y-51150822D01*
X131123497Y-51047820D01*
X130967359Y-50968264D01*
X130967356Y-50968262D01*
X130800699Y-50914113D01*
X130714158Y-50900406D01*
X130627619Y-50886700D01*
X130452381Y-50886700D01*
X130394688Y-50895837D01*
X130279300Y-50914113D01*
X130112643Y-50968262D01*
X130112640Y-50968264D01*
X129956502Y-51047820D01*
X129875617Y-51106586D01*
X129814733Y-51150822D01*
X129814731Y-51150824D01*
X129814730Y-51150824D01*
X129690824Y-51274730D01*
X129690824Y-51274731D01*
X129690822Y-51274733D01*
X129646586Y-51335617D01*
X129587820Y-51416502D01*
X129508264Y-51572640D01*
X129508262Y-51572643D01*
X129454113Y-51739300D01*
X129426700Y-51912381D01*
X129113299Y-51912381D01*
X129113299Y-51142336D01*
X129113297Y-51142317D01*
X129110386Y-51117212D01*
X129110385Y-51117210D01*
X129110385Y-51117209D01*
X129065006Y-51014435D01*
X128985565Y-50934994D01*
X128938274Y-50914113D01*
X128882792Y-50889615D01*
X128857665Y-50886700D01*
X127142343Y-50886700D01*
X127142317Y-50886702D01*
X127117212Y-50889613D01*
X127117208Y-50889615D01*
X127014435Y-50934993D01*
X126934994Y-51014434D01*
X126889615Y-51117206D01*
X126889615Y-51117208D01*
X126886700Y-51142331D01*
X113793580Y-51142331D01*
X113663497Y-51047820D01*
X113507359Y-50968264D01*
X113507356Y-50968262D01*
X113340699Y-50914113D01*
X113254158Y-50900406D01*
X113167619Y-50886700D01*
X112992381Y-50886700D01*
X112934688Y-50895837D01*
X112819300Y-50914113D01*
X112652643Y-50968262D01*
X112652640Y-50968264D01*
X112496502Y-51047820D01*
X112415617Y-51106586D01*
X112354733Y-51150822D01*
X112354731Y-51150824D01*
X112354730Y-51150824D01*
X112230824Y-51274730D01*
X112230824Y-51274731D01*
X112230822Y-51274733D01*
X112186586Y-51335617D01*
X112127820Y-51416502D01*
X112048264Y-51572640D01*
X112048262Y-51572643D01*
X111994113Y-51739300D01*
X111966700Y-51912381D01*
X111653300Y-51912381D01*
X111625887Y-51739302D01*
X111598811Y-51655971D01*
X111571737Y-51572643D01*
X111571735Y-51572640D01*
X111548987Y-51527993D01*
X111492180Y-51416503D01*
X111389178Y-51274733D01*
X111265267Y-51150822D01*
X111123497Y-51047820D01*
X110967359Y-50968264D01*
X110967356Y-50968262D01*
X110800699Y-50914113D01*
X110714158Y-50900406D01*
X110627619Y-50886700D01*
X110452381Y-50886700D01*
X110394688Y-50895837D01*
X110279300Y-50914113D01*
X110112643Y-50968262D01*
X110112640Y-50968264D01*
X109956502Y-51047820D01*
X109875617Y-51106586D01*
X109814733Y-51150822D01*
X109814731Y-51150824D01*
X109814730Y-51150824D01*
X109690824Y-51274730D01*
X109690824Y-51274731D01*
X109690822Y-51274733D01*
X109646586Y-51335617D01*
X109587820Y-51416502D01*
X109508264Y-51572640D01*
X109508262Y-51572643D01*
X109454113Y-51739300D01*
X109426700Y-51912381D01*
X109113299Y-51912381D01*
X109113299Y-51142336D01*
X109113297Y-51142317D01*
X109110386Y-51117212D01*
X109110385Y-51117210D01*
X109110385Y-51117209D01*
X109065006Y-51014435D01*
X108985565Y-50934994D01*
X108938274Y-50914113D01*
X108882792Y-50889615D01*
X108857665Y-50886700D01*
X107142343Y-50886700D01*
X107142317Y-50886702D01*
X107117212Y-50889613D01*
X107117208Y-50889615D01*
X107014435Y-50934993D01*
X106934994Y-51014434D01*
X106889615Y-51117206D01*
X106889615Y-51117208D01*
X106886700Y-51142331D01*
X4500500Y-51142331D01*
X4500500Y-42258516D01*
X153841500Y-42258516D01*
X153841500Y-42541483D01*
X153878433Y-42822005D01*
X153951665Y-43095314D01*
X154059944Y-43356721D01*
X154059948Y-43356731D01*
X154201421Y-43601770D01*
X154373670Y-43826249D01*
X154373676Y-43826256D01*
X154573743Y-44026323D01*
X154573750Y-44026329D01*
X154798229Y-44198578D01*
X155043268Y-44340051D01*
X155043269Y-44340051D01*
X155043272Y-44340053D01*
X155304684Y-44448334D01*
X155577994Y-44521567D01*
X155858524Y-44558500D01*
X155858531Y-44558500D01*
X156141469Y-44558500D01*
X156141476Y-44558500D01*
X156422006Y-44521567D01*
X156695316Y-44448334D01*
X156956728Y-44340053D01*
X157201771Y-44198578D01*
X157426251Y-44026328D01*
X157626328Y-43826251D01*
X157798578Y-43601771D01*
X157940053Y-43356728D01*
X158048334Y-43095316D01*
X158121567Y-42822006D01*
X158158500Y-42541476D01*
X158158500Y-42258524D01*
X158121567Y-41977994D01*
X158048334Y-41704684D01*
X157940053Y-41443272D01*
X157798578Y-41198229D01*
X157696352Y-41065006D01*
X157626329Y-40973750D01*
X157626323Y-40973743D01*
X157426256Y-40773676D01*
X157426249Y-40773670D01*
X157201770Y-40601421D01*
X156956731Y-40459948D01*
X156956721Y-40459944D01*
X156695314Y-40351665D01*
X156522042Y-40305237D01*
X156422006Y-40278433D01*
X156386939Y-40273816D01*
X156141483Y-40241500D01*
X156141476Y-40241500D01*
X155858524Y-40241500D01*
X155858516Y-40241500D01*
X155577994Y-40278433D01*
X155304685Y-40351665D01*
X155043278Y-40459944D01*
X155043268Y-40459948D01*
X154798229Y-40601421D01*
X154573750Y-40773670D01*
X154573743Y-40773676D01*
X154373676Y-40973743D01*
X154373670Y-40973750D01*
X154201421Y-41198229D01*
X154059948Y-41443268D01*
X154059944Y-41443278D01*
X153951665Y-41704685D01*
X153878433Y-41977994D01*
X153841500Y-42258516D01*
X4500500Y-42258516D01*
X4500500Y-39142331D01*
X106886700Y-39142331D01*
X106886700Y-40857656D01*
X106886702Y-40857682D01*
X106889613Y-40882787D01*
X106889615Y-40882791D01*
X106934993Y-40985564D01*
X106934994Y-40985565D01*
X107014435Y-41065006D01*
X107117209Y-41110385D01*
X107142335Y-41113300D01*
X108857664Y-41113299D01*
X108857679Y-41113297D01*
X108857682Y-41113297D01*
X108882787Y-41110386D01*
X108882788Y-41110385D01*
X108882791Y-41110385D01*
X108985565Y-41065006D01*
X109065006Y-40985565D01*
X109110385Y-40882791D01*
X109113300Y-40857665D01*
X109113299Y-39912381D01*
X109426700Y-39912381D01*
X109426700Y-40087618D01*
X109454113Y-40260699D01*
X109508262Y-40427356D01*
X109508264Y-40427359D01*
X109587820Y-40583497D01*
X109690822Y-40725267D01*
X109814733Y-40849178D01*
X109956503Y-40952180D01*
X110112641Y-41031736D01*
X110112643Y-41031737D01*
X110195971Y-41058811D01*
X110279302Y-41085887D01*
X110452381Y-41113300D01*
X110452382Y-41113300D01*
X110627618Y-41113300D01*
X110627619Y-41113300D01*
X110800698Y-41085887D01*
X110967359Y-41031736D01*
X111123497Y-40952180D01*
X111265267Y-40849178D01*
X111389178Y-40725267D01*
X111492180Y-40583497D01*
X111571736Y-40427359D01*
X111625887Y-40260698D01*
X111653300Y-40087619D01*
X111653300Y-39912381D01*
X111625887Y-39739302D01*
X111571736Y-39572641D01*
X111492180Y-39416503D01*
X111389178Y-39274733D01*
X111265267Y-39150822D01*
X111123497Y-39047820D01*
X110967359Y-38968264D01*
X110967356Y-38968262D01*
X110887854Y-38942431D01*
X110830179Y-38902994D01*
X110802980Y-38838635D01*
X110814895Y-38769789D01*
X110862139Y-38718313D01*
X110926172Y-38700500D01*
X112693828Y-38700500D01*
X112760867Y-38720185D01*
X112806622Y-38772989D01*
X112816566Y-38842147D01*
X112787541Y-38905703D01*
X112732146Y-38942431D01*
X112652643Y-38968262D01*
X112652640Y-38968264D01*
X112496502Y-39047820D01*
X112415617Y-39106586D01*
X112354733Y-39150822D01*
X112354731Y-39150824D01*
X112354730Y-39150824D01*
X112230824Y-39274730D01*
X112230824Y-39274731D01*
X112230822Y-39274733D01*
X112186586Y-39335617D01*
X112127820Y-39416502D01*
X112048264Y-39572640D01*
X112048262Y-39572643D01*
X111994113Y-39739300D01*
X111966700Y-39912381D01*
X111966700Y-40087618D01*
X111994113Y-40260699D01*
X112048262Y-40427356D01*
X112048264Y-40427359D01*
X112127820Y-40583497D01*
X112230822Y-40725267D01*
X112354733Y-40849178D01*
X112496503Y-40952180D01*
X112652641Y-41031736D01*
X112652643Y-41031737D01*
X112735971Y-41058811D01*
X112819302Y-41085887D01*
X112992381Y-41113300D01*
X112992382Y-41113300D01*
X113167618Y-41113300D01*
X113167619Y-41113300D01*
X113340698Y-41085887D01*
X113507359Y-41031736D01*
X113663497Y-40952180D01*
X113805267Y-40849178D01*
X113929178Y-40725267D01*
X114032180Y-40583497D01*
X114111736Y-40427359D01*
X114165887Y-40260698D01*
X114193300Y-40087619D01*
X114193300Y-39912381D01*
X114165887Y-39739302D01*
X114111736Y-39572641D01*
X114032180Y-39416503D01*
X113929178Y-39274733D01*
X113805267Y-39150822D01*
X113663497Y-39047820D01*
X113507359Y-38968264D01*
X113507356Y-38968262D01*
X113427854Y-38942431D01*
X113370179Y-38902994D01*
X113342980Y-38838635D01*
X113354895Y-38769789D01*
X113402139Y-38718313D01*
X113466172Y-38700500D01*
X126957690Y-38700500D01*
X127024729Y-38720185D01*
X127070484Y-38772989D01*
X127080428Y-38842147D01*
X127051403Y-38905703D01*
X127022782Y-38926849D01*
X127023914Y-38928501D01*
X127014434Y-38934994D01*
X126934994Y-39014434D01*
X126889615Y-39117206D01*
X126889615Y-39117208D01*
X126886700Y-39142331D01*
X126886700Y-40857656D01*
X126886702Y-40857682D01*
X126889613Y-40882787D01*
X126889615Y-40882791D01*
X126934993Y-40985564D01*
X126934994Y-40985565D01*
X127014435Y-41065006D01*
X127117209Y-41110385D01*
X127142335Y-41113300D01*
X128857664Y-41113299D01*
X128857679Y-41113297D01*
X128857682Y-41113297D01*
X128882787Y-41110386D01*
X128882788Y-41110385D01*
X128882791Y-41110385D01*
X128985565Y-41065006D01*
X129065006Y-40985565D01*
X129110385Y-40882791D01*
X129113300Y-40857665D01*
X129113299Y-39142336D01*
X129113297Y-39142317D01*
X129110386Y-39117212D01*
X129110385Y-39117210D01*
X129110385Y-39117209D01*
X129065006Y-39014435D01*
X128985565Y-38934994D01*
X128976086Y-38928501D01*
X128977906Y-38925842D01*
X128938845Y-38892845D01*
X128918320Y-38826058D01*
X128937161Y-38758776D01*
X128989386Y-38712362D01*
X129042310Y-38700500D01*
X130153828Y-38700500D01*
X130220867Y-38720185D01*
X130266622Y-38772989D01*
X130276566Y-38842147D01*
X130247541Y-38905703D01*
X130192146Y-38942431D01*
X130112643Y-38968262D01*
X130112640Y-38968264D01*
X129956502Y-39047820D01*
X129875617Y-39106586D01*
X129814733Y-39150822D01*
X129814731Y-39150824D01*
X129814730Y-39150824D01*
X129690824Y-39274730D01*
X129690824Y-39274731D01*
X129690822Y-39274733D01*
X129646586Y-39335617D01*
X129587820Y-39416502D01*
X129508264Y-39572640D01*
X129508262Y-39572643D01*
X129454113Y-39739300D01*
X129426700Y-39912381D01*
X129426700Y-40087618D01*
X129454113Y-40260699D01*
X129508262Y-40427356D01*
X129508264Y-40427359D01*
X129587820Y-40583497D01*
X129690822Y-40725267D01*
X129814733Y-40849178D01*
X129956503Y-40952180D01*
X130112641Y-41031736D01*
X130112643Y-41031737D01*
X130195971Y-41058811D01*
X130279302Y-41085887D01*
X130452381Y-41113300D01*
X130452382Y-41113300D01*
X130627618Y-41113300D01*
X130627619Y-41113300D01*
X130800698Y-41085887D01*
X130967359Y-41031736D01*
X131123497Y-40952180D01*
X131265267Y-40849178D01*
X131389178Y-40725267D01*
X131492180Y-40583497D01*
X131571736Y-40427359D01*
X131625887Y-40260698D01*
X131653300Y-40087619D01*
X131653300Y-39912381D01*
X131966700Y-39912381D01*
X131966700Y-40087618D01*
X131994113Y-40260699D01*
X132048262Y-40427356D01*
X132048264Y-40427359D01*
X132127820Y-40583497D01*
X132230822Y-40725267D01*
X132354733Y-40849178D01*
X132496503Y-40952180D01*
X132652641Y-41031736D01*
X132652643Y-41031737D01*
X132735971Y-41058811D01*
X132819302Y-41085887D01*
X132992381Y-41113300D01*
X132992382Y-41113300D01*
X133167618Y-41113300D01*
X133167619Y-41113300D01*
X133340698Y-41085887D01*
X133507359Y-41031736D01*
X133663497Y-40952180D01*
X133805267Y-40849178D01*
X133929178Y-40725267D01*
X134032180Y-40583497D01*
X134111736Y-40427359D01*
X134165887Y-40260698D01*
X134193300Y-40087619D01*
X134193300Y-39912381D01*
X134165887Y-39739302D01*
X134111736Y-39572641D01*
X134032180Y-39416503D01*
X133929178Y-39274733D01*
X133815749Y-39161304D01*
X160499500Y-39161304D01*
X160499500Y-39338695D01*
X160534103Y-39512658D01*
X160534106Y-39512667D01*
X160601983Y-39676540D01*
X160601990Y-39676553D01*
X160700535Y-39824034D01*
X160700538Y-39824038D01*
X160825961Y-39949461D01*
X160825965Y-39949464D01*
X160973446Y-40048009D01*
X160973459Y-40048016D01*
X161069069Y-40087618D01*
X161137334Y-40115894D01*
X161137336Y-40115894D01*
X161137341Y-40115896D01*
X161311304Y-40150499D01*
X161311307Y-40150500D01*
X161311309Y-40150500D01*
X162688693Y-40150500D01*
X162688694Y-40150499D01*
X162746682Y-40138964D01*
X162862658Y-40115896D01*
X162862661Y-40115894D01*
X162862666Y-40115894D01*
X163026547Y-40048013D01*
X163174035Y-39949464D01*
X163299464Y-39824035D01*
X163398013Y-39676547D01*
X163465894Y-39512666D01*
X163500500Y-39338691D01*
X163500500Y-39161309D01*
X163500500Y-39161306D01*
X163500499Y-39161304D01*
X163465896Y-38987341D01*
X163465893Y-38987332D01*
X163398016Y-38823459D01*
X163398009Y-38823446D01*
X163299464Y-38675965D01*
X163299461Y-38675961D01*
X163174038Y-38550538D01*
X163174034Y-38550535D01*
X163026553Y-38451990D01*
X163026540Y-38451983D01*
X162862667Y-38384106D01*
X162862658Y-38384103D01*
X162688694Y-38349500D01*
X162688691Y-38349500D01*
X161311309Y-38349500D01*
X161311306Y-38349500D01*
X161137341Y-38384103D01*
X161137332Y-38384106D01*
X160973459Y-38451983D01*
X160973446Y-38451990D01*
X160825965Y-38550535D01*
X160825961Y-38550538D01*
X160700538Y-38675961D01*
X160700535Y-38675965D01*
X160601990Y-38823446D01*
X160601983Y-38823459D01*
X160534106Y-38987332D01*
X160534103Y-38987341D01*
X160499500Y-39161304D01*
X133815749Y-39161304D01*
X133805267Y-39150822D01*
X133663497Y-39047820D01*
X133507359Y-38968264D01*
X133507356Y-38968262D01*
X133340699Y-38914113D01*
X133240928Y-38898311D01*
X133167619Y-38886700D01*
X132992381Y-38886700D01*
X132953583Y-38892845D01*
X132819300Y-38914113D01*
X132652643Y-38968262D01*
X132652640Y-38968264D01*
X132496502Y-39047820D01*
X132415617Y-39106586D01*
X132354733Y-39150822D01*
X132354731Y-39150824D01*
X132354730Y-39150824D01*
X132230824Y-39274730D01*
X132230824Y-39274731D01*
X132230822Y-39274733D01*
X132186586Y-39335617D01*
X132127820Y-39416502D01*
X132048264Y-39572640D01*
X132048262Y-39572643D01*
X131994113Y-39739300D01*
X131966700Y-39912381D01*
X131653300Y-39912381D01*
X131625887Y-39739302D01*
X131571736Y-39572641D01*
X131492180Y-39416503D01*
X131389178Y-39274733D01*
X131265267Y-39150822D01*
X131123497Y-39047820D01*
X130967359Y-38968264D01*
X130967356Y-38968262D01*
X130800701Y-38914113D01*
X130774101Y-38909900D01*
X130710967Y-38879969D01*
X130674037Y-38820656D01*
X130675037Y-38750794D01*
X130713648Y-38692562D01*
X130746041Y-38672870D01*
X130871811Y-38620775D01*
X130986542Y-38544114D01*
X131084114Y-38446542D01*
X131160775Y-38331811D01*
X131213580Y-38204328D01*
X131240500Y-38068993D01*
X131240500Y-37931007D01*
X131240500Y-37931004D01*
X131213581Y-37795677D01*
X131213580Y-37795676D01*
X131213580Y-37795672D01*
X131213578Y-37795667D01*
X131160778Y-37668195D01*
X131160771Y-37668182D01*
X131084114Y-37553458D01*
X131084111Y-37553454D01*
X130986545Y-37455888D01*
X130986541Y-37455885D01*
X130871817Y-37379228D01*
X130871804Y-37379221D01*
X130744332Y-37326421D01*
X130744322Y-37326418D01*
X130608995Y-37299500D01*
X130608993Y-37299500D01*
X110471007Y-37299500D01*
X110471005Y-37299500D01*
X110335677Y-37326418D01*
X110335667Y-37326421D01*
X110208195Y-37379221D01*
X110208182Y-37379228D01*
X110093458Y-37455885D01*
X110093454Y-37455888D01*
X109995888Y-37553454D01*
X109995885Y-37553458D01*
X109919228Y-37668182D01*
X109919221Y-37668195D01*
X109866421Y-37795667D01*
X109866418Y-37795677D01*
X109839500Y-37931004D01*
X109839500Y-37931007D01*
X109839500Y-38068993D01*
X109839500Y-38068995D01*
X109839499Y-38068995D01*
X109866418Y-38204322D01*
X109866421Y-38204332D01*
X109919221Y-38331804D01*
X109919228Y-38331817D01*
X109995885Y-38446541D01*
X109995888Y-38446545D01*
X110093454Y-38544111D01*
X110093458Y-38544114D01*
X110208182Y-38620771D01*
X110208195Y-38620778D01*
X110286436Y-38653186D01*
X110333949Y-38672866D01*
X110388353Y-38716706D01*
X110410418Y-38783000D01*
X110393139Y-38850700D01*
X110342002Y-38898311D01*
X110305898Y-38909900D01*
X110279298Y-38914113D01*
X110112643Y-38968262D01*
X110112640Y-38968264D01*
X109956502Y-39047820D01*
X109875617Y-39106586D01*
X109814733Y-39150822D01*
X109814731Y-39150824D01*
X109814730Y-39150824D01*
X109690824Y-39274730D01*
X109690824Y-39274731D01*
X109690822Y-39274733D01*
X109646586Y-39335617D01*
X109587820Y-39416502D01*
X109508264Y-39572640D01*
X109508262Y-39572643D01*
X109454113Y-39739300D01*
X109426700Y-39912381D01*
X109113299Y-39912381D01*
X109113299Y-39142336D01*
X109113297Y-39142317D01*
X109110386Y-39117212D01*
X109110385Y-39117210D01*
X109110385Y-39117209D01*
X109065006Y-39014435D01*
X108985565Y-38934994D01*
X108938274Y-38914113D01*
X108882792Y-38889615D01*
X108857665Y-38886700D01*
X107142343Y-38886700D01*
X107142317Y-38886702D01*
X107117212Y-38889613D01*
X107117208Y-38889615D01*
X107014435Y-38934993D01*
X106934994Y-39014434D01*
X106889615Y-39117206D01*
X106889615Y-39117208D01*
X106886700Y-39142331D01*
X4500500Y-39142331D01*
X4500500Y-26661304D01*
X16499500Y-26661304D01*
X16499500Y-26838695D01*
X16534103Y-27012658D01*
X16534106Y-27012667D01*
X16601983Y-27176540D01*
X16601990Y-27176553D01*
X16700535Y-27324034D01*
X16700538Y-27324038D01*
X16825961Y-27449461D01*
X16825965Y-27449464D01*
X16973446Y-27548009D01*
X16973459Y-27548016D01*
X17096363Y-27598923D01*
X17137334Y-27615894D01*
X17137336Y-27615894D01*
X17137341Y-27615896D01*
X17311304Y-27650499D01*
X17311307Y-27650500D01*
X17311309Y-27650500D01*
X18688693Y-27650500D01*
X18688694Y-27650499D01*
X18746682Y-27638964D01*
X18862658Y-27615896D01*
X18862661Y-27615894D01*
X18862666Y-27615894D01*
X19026547Y-27548013D01*
X19174035Y-27449464D01*
X19299464Y-27324035D01*
X19398013Y-27176547D01*
X19465894Y-27012666D01*
X19500500Y-26838691D01*
X19500500Y-26661309D01*
X19500500Y-26661306D01*
X19500499Y-26661304D01*
X19465896Y-26487341D01*
X19465893Y-26487332D01*
X19398016Y-26323459D01*
X19398009Y-26323446D01*
X19299464Y-26175965D01*
X19299461Y-26175961D01*
X19174038Y-26050538D01*
X19174034Y-26050535D01*
X19026553Y-25951990D01*
X19026540Y-25951983D01*
X18862667Y-25884106D01*
X18862658Y-25884103D01*
X18688694Y-25849500D01*
X18688691Y-25849500D01*
X17311309Y-25849500D01*
X17311306Y-25849500D01*
X17137341Y-25884103D01*
X17137332Y-25884106D01*
X16973459Y-25951983D01*
X16973446Y-25951990D01*
X16825965Y-26050535D01*
X16825961Y-26050538D01*
X16700538Y-26175961D01*
X16700535Y-26175965D01*
X16601990Y-26323446D01*
X16601983Y-26323459D01*
X16534106Y-26487332D01*
X16534103Y-26487341D01*
X16499500Y-26661304D01*
X4500500Y-26661304D01*
X4500500Y-21543995D01*
X107299499Y-21543995D01*
X107326418Y-21679322D01*
X107326421Y-21679332D01*
X107379221Y-21806804D01*
X107379228Y-21806817D01*
X107455885Y-21921541D01*
X107455888Y-21921545D01*
X107553454Y-22019111D01*
X107553458Y-22019114D01*
X107668182Y-22095771D01*
X107668195Y-22095778D01*
X107795667Y-22148578D01*
X107795672Y-22148580D01*
X107795676Y-22148580D01*
X107795677Y-22148581D01*
X107931004Y-22175500D01*
X107931007Y-22175500D01*
X108068995Y-22175500D01*
X108160041Y-22157389D01*
X108204328Y-22148580D01*
X108331811Y-22095775D01*
X108446542Y-22019114D01*
X108544114Y-21921542D01*
X108620775Y-21806811D01*
X108673580Y-21679328D01*
X108700500Y-21543993D01*
X108700500Y-13406007D01*
X108700500Y-13406004D01*
X108673581Y-13270677D01*
X108673580Y-13270676D01*
X108673580Y-13270672D01*
X108628281Y-13161309D01*
X108620778Y-13143195D01*
X108620771Y-13143182D01*
X108544114Y-13028458D01*
X108544111Y-13028454D01*
X108446545Y-12930888D01*
X108446541Y-12930885D01*
X108331817Y-12854228D01*
X108331804Y-12854221D01*
X108204332Y-12801421D01*
X108204322Y-12801418D01*
X108068995Y-12774500D01*
X108068993Y-12774500D01*
X107931007Y-12774500D01*
X107931005Y-12774500D01*
X107795677Y-12801418D01*
X107795667Y-12801421D01*
X107668195Y-12854221D01*
X107668182Y-12854228D01*
X107553458Y-12930885D01*
X107553454Y-12930888D01*
X107455888Y-13028454D01*
X107455885Y-13028458D01*
X107379228Y-13143182D01*
X107379221Y-13143195D01*
X107326421Y-13270667D01*
X107326418Y-13270677D01*
X107299500Y-13406004D01*
X107299500Y-13406007D01*
X107299500Y-21543993D01*
X107299500Y-21543995D01*
X107299499Y-21543995D01*
X4500500Y-21543995D01*
X4500500Y-14497131D01*
X21841500Y-14497131D01*
X21841500Y-18302856D01*
X21841502Y-18302882D01*
X21844413Y-18327987D01*
X21844415Y-18327991D01*
X21889793Y-18430764D01*
X21889794Y-18430765D01*
X21969235Y-18510206D01*
X22072009Y-18555585D01*
X22097135Y-18558500D01*
X25902864Y-18558499D01*
X25902879Y-18558497D01*
X25902882Y-18558497D01*
X25927987Y-18555586D01*
X25927988Y-18555585D01*
X25927991Y-18555585D01*
X26030765Y-18510206D01*
X26110206Y-18430765D01*
X26155585Y-18327991D01*
X26158500Y-18302865D01*
X26158499Y-14889778D01*
X44599500Y-14889778D01*
X44599500Y-15110221D01*
X44633985Y-15327952D01*
X44702103Y-15537603D01*
X44702104Y-15537606D01*
X44770122Y-15671096D01*
X44781385Y-15693201D01*
X44802187Y-15734025D01*
X44931752Y-15912358D01*
X44931756Y-15912363D01*
X45087636Y-16068243D01*
X45087641Y-16068247D01*
X45199727Y-16149682D01*
X45242393Y-16205011D01*
X45248372Y-16274625D01*
X45215767Y-16336420D01*
X45199727Y-16350318D01*
X45087641Y-16431752D01*
X45087636Y-16431756D01*
X44931756Y-16587636D01*
X44931752Y-16587641D01*
X44802187Y-16765974D01*
X44702104Y-16962393D01*
X44702103Y-16962396D01*
X44633985Y-17172047D01*
X44599500Y-17389778D01*
X44599500Y-17610221D01*
X44633985Y-17827952D01*
X44702103Y-18037603D01*
X44702104Y-18037606D01*
X44802187Y-18234025D01*
X44931752Y-18412358D01*
X44931756Y-18412363D01*
X45087636Y-18568243D01*
X45087641Y-18568247D01*
X45243192Y-18681260D01*
X45265978Y-18697815D01*
X45394375Y-18763237D01*
X45462393Y-18797895D01*
X45462396Y-18797896D01*
X45567221Y-18831955D01*
X45672049Y-18866015D01*
X45889778Y-18900500D01*
X45889779Y-18900500D01*
X46110221Y-18900500D01*
X46110222Y-18900500D01*
X46327951Y-18866015D01*
X46537606Y-18797895D01*
X46734022Y-18697815D01*
X46912365Y-18568242D01*
X47068242Y-18412365D01*
X47197815Y-18234022D01*
X47297895Y-18037606D01*
X47366015Y-17827951D01*
X47400500Y-17610222D01*
X47400500Y-17389778D01*
X47366015Y-17172049D01*
X47297895Y-16962394D01*
X47297895Y-16962393D01*
X47263237Y-16894375D01*
X47197815Y-16765978D01*
X47181260Y-16743192D01*
X47068247Y-16587641D01*
X47068243Y-16587636D01*
X46912365Y-16431758D01*
X46912357Y-16431752D01*
X46800270Y-16350317D01*
X46757606Y-16294989D01*
X46751627Y-16225376D01*
X46784232Y-16163580D01*
X46800265Y-16149686D01*
X46912365Y-16068242D01*
X47068242Y-15912365D01*
X47197815Y-15734022D01*
X47297895Y-15537606D01*
X47366015Y-15327951D01*
X47400500Y-15110222D01*
X47400500Y-14889778D01*
X48099500Y-14889778D01*
X48099500Y-15110221D01*
X48133985Y-15327952D01*
X48202103Y-15537603D01*
X48202104Y-15537606D01*
X48270122Y-15671096D01*
X48281385Y-15693201D01*
X48302187Y-15734025D01*
X48431752Y-15912358D01*
X48431756Y-15912363D01*
X48587636Y-16068243D01*
X48587641Y-16068247D01*
X48699727Y-16149682D01*
X48742393Y-16205011D01*
X48748372Y-16274625D01*
X48715767Y-16336420D01*
X48699727Y-16350318D01*
X48587641Y-16431752D01*
X48587636Y-16431756D01*
X48431756Y-16587636D01*
X48431752Y-16587641D01*
X48302187Y-16765974D01*
X48202104Y-16962393D01*
X48202103Y-16962396D01*
X48133985Y-17172047D01*
X48099500Y-17389778D01*
X48099500Y-17610221D01*
X48133985Y-17827952D01*
X48202103Y-18037603D01*
X48202104Y-18037606D01*
X48302187Y-18234025D01*
X48431752Y-18412358D01*
X48431756Y-18412363D01*
X48587636Y-18568243D01*
X48587641Y-18568247D01*
X48743192Y-18681260D01*
X48765978Y-18697815D01*
X48894375Y-18763237D01*
X48962393Y-18797895D01*
X48962396Y-18797896D01*
X49067221Y-18831955D01*
X49172049Y-18866015D01*
X49389778Y-18900500D01*
X49389779Y-18900500D01*
X49610221Y-18900500D01*
X49610222Y-18900500D01*
X49827951Y-18866015D01*
X50037606Y-18797895D01*
X50234022Y-18697815D01*
X50412365Y-18568242D01*
X50568242Y-18412365D01*
X50697815Y-18234022D01*
X50797895Y-18037606D01*
X50866015Y-17827951D01*
X50900500Y-17610222D01*
X50900500Y-17389778D01*
X50866015Y-17172049D01*
X50797895Y-16962394D01*
X50797895Y-16962393D01*
X50763237Y-16894375D01*
X50697815Y-16765978D01*
X50681260Y-16743192D01*
X50568247Y-16587641D01*
X50568243Y-16587636D01*
X50412365Y-16431758D01*
X50412357Y-16431752D01*
X50300270Y-16350317D01*
X50284425Y-16329768D01*
X50265674Y-16311834D01*
X50263437Y-16302551D01*
X50257606Y-16294989D01*
X50255385Y-16269134D01*
X50249307Y-16243908D01*
X50252444Y-16234889D01*
X50251627Y-16225376D01*
X50263735Y-16202426D01*
X50272261Y-16177917D01*
X50281673Y-16168428D01*
X50284232Y-16163580D01*
X50296656Y-16152411D01*
X50298433Y-16151017D01*
X50319327Y-16135837D01*
X50949500Y-16135837D01*
X50949500Y-16364162D01*
X50985215Y-16589660D01*
X51055770Y-16806803D01*
X51135048Y-16962393D01*
X51159421Y-17010228D01*
X51293621Y-17194937D01*
X51455063Y-17356379D01*
X51639772Y-17490579D01*
X51735884Y-17539550D01*
X51843196Y-17594229D01*
X51843198Y-17594229D01*
X51843201Y-17594231D01*
X51959592Y-17632049D01*
X52060339Y-17664784D01*
X52285838Y-17700500D01*
X52285843Y-17700500D01*
X52514162Y-17700500D01*
X52739660Y-17664784D01*
X52956799Y-17594231D01*
X53160228Y-17490579D01*
X53344937Y-17356379D01*
X53506379Y-17194937D01*
X53640579Y-17010228D01*
X53744231Y-16806799D01*
X53814784Y-16589660D01*
X53815105Y-16587635D01*
X53850500Y-16364162D01*
X53850500Y-16135837D01*
X53814784Y-15910339D01*
X53770156Y-15772989D01*
X53744231Y-15693201D01*
X53744229Y-15693198D01*
X53744229Y-15693196D01*
X53689550Y-15585884D01*
X53640579Y-15489772D01*
X53506379Y-15305063D01*
X53344937Y-15143621D01*
X53242221Y-15068993D01*
X53160226Y-15009419D01*
X53132693Y-14995391D01*
X53097617Y-14977519D01*
X52956803Y-14905770D01*
X52907585Y-14889778D01*
X53899500Y-14889778D01*
X53899500Y-15110221D01*
X53933985Y-15327952D01*
X54002103Y-15537603D01*
X54002104Y-15537606D01*
X54070122Y-15671096D01*
X54081385Y-15693201D01*
X54102187Y-15734025D01*
X54231752Y-15912358D01*
X54231756Y-15912363D01*
X54387636Y-16068243D01*
X54387641Y-16068247D01*
X54499727Y-16149682D01*
X54542393Y-16205011D01*
X54548372Y-16274625D01*
X54515767Y-16336420D01*
X54499727Y-16350318D01*
X54387641Y-16431752D01*
X54387636Y-16431756D01*
X54231756Y-16587636D01*
X54231752Y-16587641D01*
X54102187Y-16765974D01*
X54002104Y-16962393D01*
X54002103Y-16962396D01*
X53933985Y-17172047D01*
X53899500Y-17389778D01*
X53899500Y-17610221D01*
X53933985Y-17827952D01*
X54002103Y-18037603D01*
X54002104Y-18037606D01*
X54102187Y-18234025D01*
X54231752Y-18412358D01*
X54231756Y-18412363D01*
X54387636Y-18568243D01*
X54387641Y-18568247D01*
X54543192Y-18681260D01*
X54565978Y-18697815D01*
X54694375Y-18763237D01*
X54762393Y-18797895D01*
X54762396Y-18797896D01*
X54867221Y-18831955D01*
X54972049Y-18866015D01*
X55189778Y-18900500D01*
X55189779Y-18900500D01*
X55410221Y-18900500D01*
X55410222Y-18900500D01*
X55627951Y-18866015D01*
X55837606Y-18797895D01*
X56034022Y-18697815D01*
X56212365Y-18568242D01*
X56368242Y-18412365D01*
X56497815Y-18234022D01*
X56597895Y-18037606D01*
X56666015Y-17827951D01*
X56700500Y-17610222D01*
X56700500Y-17389778D01*
X56666015Y-17172049D01*
X56597895Y-16962394D01*
X56597895Y-16962393D01*
X56563237Y-16894375D01*
X56497815Y-16765978D01*
X56481260Y-16743192D01*
X56368247Y-16587641D01*
X56368243Y-16587636D01*
X56212365Y-16431758D01*
X56212357Y-16431752D01*
X56100270Y-16350317D01*
X56057606Y-16294989D01*
X56051627Y-16225376D01*
X56084232Y-16163580D01*
X56100265Y-16149686D01*
X56212365Y-16068242D01*
X56368242Y-15912365D01*
X56497815Y-15734022D01*
X56597895Y-15537606D01*
X56666015Y-15327951D01*
X56700500Y-15110222D01*
X56700500Y-14889778D01*
X57399500Y-14889778D01*
X57399500Y-15110221D01*
X57433985Y-15327952D01*
X57502103Y-15537603D01*
X57502104Y-15537606D01*
X57570122Y-15671096D01*
X57581385Y-15693201D01*
X57602187Y-15734025D01*
X57731752Y-15912358D01*
X57731756Y-15912363D01*
X57887636Y-16068243D01*
X57887641Y-16068247D01*
X57999727Y-16149682D01*
X58042393Y-16205011D01*
X58048372Y-16274625D01*
X58015767Y-16336420D01*
X57999727Y-16350318D01*
X57887641Y-16431752D01*
X57887636Y-16431756D01*
X57731756Y-16587636D01*
X57731752Y-16587641D01*
X57602187Y-16765974D01*
X57502104Y-16962393D01*
X57502103Y-16962396D01*
X57433985Y-17172047D01*
X57399500Y-17389778D01*
X57399500Y-17610221D01*
X57433985Y-17827952D01*
X57502103Y-18037603D01*
X57502104Y-18037606D01*
X57602187Y-18234025D01*
X57731752Y-18412358D01*
X57731756Y-18412363D01*
X57887636Y-18568243D01*
X57887641Y-18568247D01*
X58043192Y-18681260D01*
X58065978Y-18697815D01*
X58194375Y-18763237D01*
X58262393Y-18797895D01*
X58262396Y-18797896D01*
X58367221Y-18831955D01*
X58472049Y-18866015D01*
X58689778Y-18900500D01*
X58689779Y-18900500D01*
X58910221Y-18900500D01*
X58910222Y-18900500D01*
X59127951Y-18866015D01*
X59337606Y-18797895D01*
X59534022Y-18697815D01*
X59712365Y-18568242D01*
X59868242Y-18412365D01*
X59997815Y-18234022D01*
X60097895Y-18037606D01*
X60166015Y-17827951D01*
X60200500Y-17610222D01*
X60200500Y-17389778D01*
X60166015Y-17172049D01*
X60097895Y-16962394D01*
X60097895Y-16962393D01*
X60063237Y-16894375D01*
X59997815Y-16765978D01*
X59981260Y-16743192D01*
X59868247Y-16587641D01*
X59868243Y-16587636D01*
X59712365Y-16431758D01*
X59712357Y-16431752D01*
X59600270Y-16350317D01*
X59557606Y-16294989D01*
X59551627Y-16225376D01*
X59584232Y-16163580D01*
X59600265Y-16149686D01*
X59712365Y-16068242D01*
X59868242Y-15912365D01*
X59997815Y-15734022D01*
X60097895Y-15537606D01*
X60166015Y-15327951D01*
X60200500Y-15110222D01*
X60200500Y-15068995D01*
X69149499Y-15068995D01*
X69176418Y-15204322D01*
X69176421Y-15204332D01*
X69229221Y-15331804D01*
X69229228Y-15331817D01*
X69305885Y-15446541D01*
X69305888Y-15446545D01*
X69403454Y-15544111D01*
X69403458Y-15544114D01*
X69518182Y-15620771D01*
X69518195Y-15620778D01*
X69645667Y-15673578D01*
X69645672Y-15673580D01*
X69645676Y-15673580D01*
X69645677Y-15673581D01*
X69781004Y-15700500D01*
X69781007Y-15700500D01*
X86833196Y-15700500D01*
X86900235Y-15720185D01*
X86945990Y-15772989D01*
X86948550Y-15779010D01*
X86965637Y-15822339D01*
X86965638Y-15822341D01*
X87057077Y-15942922D01*
X87177656Y-16034360D01*
X87177657Y-16034360D01*
X87177658Y-16034361D01*
X87318436Y-16089877D01*
X87406898Y-16100500D01*
X87406903Y-16100500D01*
X88593097Y-16100500D01*
X88593102Y-16100500D01*
X88681564Y-16089877D01*
X88822342Y-16034361D01*
X88942922Y-15942922D01*
X89034361Y-15822342D01*
X89089877Y-15681564D01*
X89100500Y-15593102D01*
X89100500Y-14406898D01*
X96899500Y-14406898D01*
X96899500Y-15593102D01*
X96905126Y-15639954D01*
X96910122Y-15681561D01*
X96910122Y-15681563D01*
X96910123Y-15681564D01*
X96925353Y-15720185D01*
X96965639Y-15822343D01*
X97057077Y-15942922D01*
X97177656Y-16034360D01*
X97177657Y-16034360D01*
X97177658Y-16034361D01*
X97318436Y-16089877D01*
X97406898Y-16100500D01*
X97406903Y-16100500D01*
X98593097Y-16100500D01*
X98593102Y-16100500D01*
X98681564Y-16089877D01*
X98822342Y-16034361D01*
X98942922Y-15942922D01*
X99034361Y-15822342D01*
X99089877Y-15681564D01*
X99100500Y-15593102D01*
X99100500Y-14406898D01*
X99089877Y-14318436D01*
X99034361Y-14177658D01*
X99034360Y-14177657D01*
X99034360Y-14177656D01*
X98942922Y-14057077D01*
X98822343Y-13965639D01*
X98681561Y-13910122D01*
X98635926Y-13904642D01*
X98593102Y-13899500D01*
X97406898Y-13899500D01*
X97367853Y-13904188D01*
X97318438Y-13910122D01*
X97177656Y-13965639D01*
X97057077Y-14057077D01*
X96965639Y-14177656D01*
X96910122Y-14318438D01*
X96904188Y-14367853D01*
X96899500Y-14406898D01*
X89100500Y-14406898D01*
X89089877Y-14318436D01*
X89034361Y-14177658D01*
X89034360Y-14177657D01*
X89034360Y-14177656D01*
X88942922Y-14057077D01*
X88822343Y-13965639D01*
X88681561Y-13910122D01*
X88635926Y-13904642D01*
X88593102Y-13899500D01*
X87406898Y-13899500D01*
X87367853Y-13904188D01*
X87318438Y-13910122D01*
X87177656Y-13965639D01*
X87057077Y-14057077D01*
X86965638Y-14177658D01*
X86965637Y-14177660D01*
X86948550Y-14220990D01*
X86905644Y-14276134D01*
X86839736Y-14299327D01*
X86833196Y-14299500D01*
X69781005Y-14299500D01*
X69645677Y-14326418D01*
X69645667Y-14326421D01*
X69518195Y-14379221D01*
X69518182Y-14379228D01*
X69403458Y-14455885D01*
X69403454Y-14455888D01*
X69305888Y-14553454D01*
X69305885Y-14553458D01*
X69229228Y-14668182D01*
X69229221Y-14668195D01*
X69176421Y-14795667D01*
X69176418Y-14795677D01*
X69149500Y-14931004D01*
X69149500Y-14931007D01*
X69149500Y-15068993D01*
X69149500Y-15068995D01*
X69149499Y-15068995D01*
X60200500Y-15068995D01*
X60200500Y-14889778D01*
X60166015Y-14672049D01*
X60127482Y-14553454D01*
X60097896Y-14462396D01*
X60097895Y-14462393D01*
X60055516Y-14379221D01*
X59997815Y-14265978D01*
X59888775Y-14115896D01*
X59868247Y-14087641D01*
X59868243Y-14087636D01*
X59712363Y-13931756D01*
X59712358Y-13931752D01*
X59534025Y-13802187D01*
X59534024Y-13802186D01*
X59534022Y-13802185D01*
X59471096Y-13770122D01*
X59337606Y-13702104D01*
X59337603Y-13702103D01*
X59127952Y-13633985D01*
X59019086Y-13616742D01*
X58910222Y-13599500D01*
X58689778Y-13599500D01*
X58617201Y-13610995D01*
X58472047Y-13633985D01*
X58262396Y-13702103D01*
X58262393Y-13702104D01*
X58065974Y-13802187D01*
X57887641Y-13931752D01*
X57887636Y-13931756D01*
X57731756Y-14087636D01*
X57731752Y-14087641D01*
X57602187Y-14265974D01*
X57502104Y-14462393D01*
X57502103Y-14462396D01*
X57433985Y-14672047D01*
X57399500Y-14889778D01*
X56700500Y-14889778D01*
X56666015Y-14672049D01*
X56627482Y-14553454D01*
X56597896Y-14462396D01*
X56597895Y-14462393D01*
X56555516Y-14379221D01*
X56497815Y-14265978D01*
X56388775Y-14115896D01*
X56368247Y-14087641D01*
X56368243Y-14087636D01*
X56212363Y-13931756D01*
X56212358Y-13931752D01*
X56034025Y-13802187D01*
X56034024Y-13802186D01*
X56034022Y-13802185D01*
X55971096Y-13770122D01*
X55837606Y-13702104D01*
X55837603Y-13702103D01*
X55627952Y-13633985D01*
X55519086Y-13616742D01*
X55410222Y-13599500D01*
X55189778Y-13599500D01*
X55117201Y-13610995D01*
X54972047Y-13633985D01*
X54762396Y-13702103D01*
X54762393Y-13702104D01*
X54565974Y-13802187D01*
X54387641Y-13931752D01*
X54387636Y-13931756D01*
X54231756Y-14087636D01*
X54231752Y-14087641D01*
X54102187Y-14265974D01*
X54002104Y-14462393D01*
X54002103Y-14462396D01*
X53933985Y-14672047D01*
X53899500Y-14889778D01*
X52907585Y-14889778D01*
X52739660Y-14835215D01*
X52514162Y-14799500D01*
X52514157Y-14799500D01*
X52285843Y-14799500D01*
X52285838Y-14799500D01*
X52060339Y-14835215D01*
X51843196Y-14905770D01*
X51639771Y-15009421D01*
X51455061Y-15143622D01*
X51293622Y-15305061D01*
X51159421Y-15489771D01*
X51055770Y-15693196D01*
X50985215Y-15910339D01*
X50949500Y-16135837D01*
X50319327Y-16135837D01*
X50412365Y-16068242D01*
X50568242Y-15912365D01*
X50697815Y-15734022D01*
X50797895Y-15537606D01*
X50866015Y-15327951D01*
X50900500Y-15110222D01*
X50900500Y-14889778D01*
X50866015Y-14672049D01*
X50827482Y-14553454D01*
X50797896Y-14462396D01*
X50797895Y-14462393D01*
X50755516Y-14379221D01*
X50697815Y-14265978D01*
X50588775Y-14115896D01*
X50568247Y-14087641D01*
X50568243Y-14087636D01*
X50412363Y-13931756D01*
X50412358Y-13931752D01*
X50234025Y-13802187D01*
X50234024Y-13802186D01*
X50234022Y-13802185D01*
X50171096Y-13770122D01*
X50037606Y-13702104D01*
X50037603Y-13702103D01*
X49827952Y-13633985D01*
X49719086Y-13616742D01*
X49610222Y-13599500D01*
X49389778Y-13599500D01*
X49317201Y-13610995D01*
X49172047Y-13633985D01*
X48962396Y-13702103D01*
X48962393Y-13702104D01*
X48765974Y-13802187D01*
X48587641Y-13931752D01*
X48587636Y-13931756D01*
X48431756Y-14087636D01*
X48431752Y-14087641D01*
X48302187Y-14265974D01*
X48202104Y-14462393D01*
X48202103Y-14462396D01*
X48133985Y-14672047D01*
X48099500Y-14889778D01*
X47400500Y-14889778D01*
X47366015Y-14672049D01*
X47327482Y-14553454D01*
X47297896Y-14462396D01*
X47297895Y-14462393D01*
X47255516Y-14379221D01*
X47197815Y-14265978D01*
X47088775Y-14115896D01*
X47068247Y-14087641D01*
X47068243Y-14087636D01*
X46912363Y-13931756D01*
X46912358Y-13931752D01*
X46734025Y-13802187D01*
X46734024Y-13802186D01*
X46734022Y-13802185D01*
X46671096Y-13770122D01*
X46537606Y-13702104D01*
X46537603Y-13702103D01*
X46327952Y-13633985D01*
X46219086Y-13616742D01*
X46110222Y-13599500D01*
X45889778Y-13599500D01*
X45817201Y-13610995D01*
X45672047Y-13633985D01*
X45462396Y-13702103D01*
X45462393Y-13702104D01*
X45265974Y-13802187D01*
X45087641Y-13931752D01*
X45087636Y-13931756D01*
X44931756Y-14087636D01*
X44931752Y-14087641D01*
X44802187Y-14265974D01*
X44702104Y-14462393D01*
X44702103Y-14462396D01*
X44633985Y-14672047D01*
X44599500Y-14889778D01*
X26158499Y-14889778D01*
X26158499Y-14497136D01*
X26158497Y-14497117D01*
X26155586Y-14472012D01*
X26155585Y-14472010D01*
X26155585Y-14472009D01*
X26110206Y-14369235D01*
X26030765Y-14289794D01*
X25976818Y-14265974D01*
X25927992Y-14244415D01*
X25902865Y-14241500D01*
X22097143Y-14241500D01*
X22097117Y-14241502D01*
X22072012Y-14244413D01*
X22072008Y-14244415D01*
X21969235Y-14289793D01*
X21889794Y-14369234D01*
X21844415Y-14472006D01*
X21844415Y-14472008D01*
X21841500Y-14497131D01*
X4500500Y-14497131D01*
X4500500Y-13161304D01*
X16499500Y-13161304D01*
X16499500Y-13338695D01*
X16534103Y-13512658D01*
X16534106Y-13512667D01*
X16601983Y-13676540D01*
X16601990Y-13676553D01*
X16700535Y-13824034D01*
X16700538Y-13824038D01*
X16825961Y-13949461D01*
X16825965Y-13949464D01*
X16973446Y-14048009D01*
X16973459Y-14048016D01*
X17069110Y-14087635D01*
X17137334Y-14115894D01*
X17137336Y-14115894D01*
X17137341Y-14115896D01*
X17311304Y-14150499D01*
X17311307Y-14150500D01*
X17311309Y-14150500D01*
X18688693Y-14150500D01*
X18688694Y-14150499D01*
X18746682Y-14138964D01*
X18862658Y-14115896D01*
X18862661Y-14115894D01*
X18862666Y-14115894D01*
X19026547Y-14048013D01*
X19174035Y-13949464D01*
X19299464Y-13824035D01*
X19398013Y-13676547D01*
X19465894Y-13512666D01*
X19493134Y-13375723D01*
X19500500Y-13338693D01*
X19500500Y-13161306D01*
X19500499Y-13161304D01*
X19465896Y-12987341D01*
X19465893Y-12987332D01*
X19398016Y-12823459D01*
X19398009Y-12823446D01*
X19299464Y-12675965D01*
X19299461Y-12675961D01*
X19174038Y-12550538D01*
X19174034Y-12550535D01*
X19026553Y-12451990D01*
X19026540Y-12451983D01*
X18862667Y-12384106D01*
X18862658Y-12384103D01*
X18688694Y-12349500D01*
X18688691Y-12349500D01*
X17311309Y-12349500D01*
X17311306Y-12349500D01*
X17137341Y-12384103D01*
X17137332Y-12384106D01*
X16973459Y-12451983D01*
X16973446Y-12451990D01*
X16825965Y-12550535D01*
X16825961Y-12550538D01*
X16700538Y-12675961D01*
X16700535Y-12675965D01*
X16601990Y-12823446D01*
X16601983Y-12823459D01*
X16534106Y-12987332D01*
X16534103Y-12987341D01*
X16499500Y-13161304D01*
X4500500Y-13161304D01*
X4500500Y-4624500D01*
X4520185Y-4557461D01*
X4572989Y-4511706D01*
X4624500Y-4500500D01*
X175375500Y-4500500D01*
X175442539Y-4520185D01*
G37*
%TD.AperFunction*%
%TD*%
M02*
