M48
; DRILL file KiCad 10.0.6-10.0.6~ubuntu24.04.1 date 2026-09-05T14:44:36
; FORMAT={-:-/ absolute / metric / decimal}
; #@! TF.CreationDate,2026-09-05T14:44:36+09:00
; #@! TF.GenerationSoftware,Kicad,Pcbnew,10.0.6-10.0.6~ubuntu24.04.1
; #@! TF.FileFunction,MixedPlating,1,2
FMAT,2
METRIC
; #@! TA.AperFunction,Plated,PTH,ComponentDrill
T1C0.300
; #@! TA.AperFunction,Plated,PTH,ViaDrill
T2C0.350
; #@! TA.AperFunction,Plated,PTH,ComponentDrill
T3C0.600
; #@! TA.AperFunction,Plated,PTH,ComponentDrill
T4C0.800
; #@! TA.AperFunction,Plated,PTH,ComponentDrill
T5C0.950
; #@! TA.AperFunction,Plated,PTH,ComponentDrill
T6C1.000
; #@! TA.AperFunction,Plated,PTH,ComponentDrill
T7C1.118
; #@! TA.AperFunction,Plated,PTH,ComponentDrill
T8C1.400
; #@! TA.AperFunction,Plated,PTH,ComponentDrill
T9C2.700
; #@! TA.AperFunction,NonPlated,NPTH,ComponentDrill
T10C2.400
%
G90
G05
T1
X19.35Y-78.05
X19.35Y-79.35
X19.35Y-80.65
X19.35Y-81.95
X20.65Y-78.05
X20.65Y-79.35
X20.65Y-80.65
X20.65Y-81.95
T2
X35.0Y-91.175
X35.0Y-98.825
X52.0Y-104.225
X52.0Y-104.225
X52.0Y-108.225
X52.0Y-108.225
X52.0Y-112.225
X52.0Y-112.225
X52.0Y-116.05
X58.0Y-27.225
X58.0Y-27.225
X58.0Y-44.225
X58.0Y-87.05
X58.0Y-87.05
X60.0Y-99.225
X60.0Y-99.225
X61.85Y-77.7
X68.15Y-80.0
X69.85Y-15.0
X72.0Y-88.95
X75.0Y-23.175
X88.0Y-15.0
X92.0Y-26.525
X92.0Y-44.225
X92.0Y-44.225
X95.0Y-65.175
X95.0Y-91.175
X108.0Y-13.475
X108.0Y-21.475
X110.54Y-38.0
X115.0Y-117.62
X127.212Y-108.0
X130.54Y-38.0
X143.213Y-108.0
X143.213Y-108.0
X146.0Y-61.462
X156.0Y-49.6
X165.0Y-92.0
T4
X88.0Y-15.0
X91.5Y-15.0
X98.0Y-15.0
X101.5Y-15.0
T5
X165.0Y-75.0
X165.0Y-77.5
X165.0Y-80.0
X165.0Y-82.5
X165.0Y-92.0
X165.0Y-94.5
X165.0Y-97.0
X165.0Y-99.5
T6
X115.0Y-110.0
X115.0Y-112.54
X115.0Y-115.08
X115.0Y-117.62
T7
X108.0Y-40.0
X108.0Y-52.0
X110.54Y-40.0
X110.54Y-52.0
X113.08Y-40.0
X113.08Y-52.0
X128.0Y-40.0
X128.0Y-52.0
X130.54Y-40.0
X130.54Y-52.0
X133.08Y-40.0
X133.08Y-52.0
T8
X46.0Y-15.0
X46.0Y-17.5
X49.5Y-15.0
X49.5Y-17.5
X55.3Y-15.0
X55.3Y-17.5
X58.8Y-15.0
X58.8Y-17.5
T9
X24.0Y-16.4
X24.0Y-23.6
X156.0Y-42.4
X156.0Y-49.6
T10
X52.4Y-16.25
T3
X17.45Y-13.25G85X18.55Y-13.25
G05
X17.45Y-26.75G85X18.55Y-26.75
G05
X162.55Y-39.25G85X161.45Y-39.25
G05
X162.55Y-52.75G85X161.45Y-52.75
G05
M30
