G04 #@! TF.GenerationSoftware,KiCad,Pcbnew,9.0.7*
G04 #@! TF.CreationDate,2026-03-15T00:28:53+09:00*
G04 #@! TF.ProjectId,ESP32-S3-ROS-IO-V2.0a,45535033-322d-4533-932d-524f532d494f,rev?*
G04 #@! TF.SameCoordinates,Original*
G04 #@! TF.FileFunction,Soldermask,Bot*
G04 #@! TF.FilePolarity,Negative*
%FSLAX46Y46*%
G04 Gerber Fmt 4.6, Leading zero omitted, Abs format (unit mm)*
G04 Created by KiCad (PCBNEW 9.0.7) date 2026-03-15 00:28:53*
%MOMM*%
%LPD*%
G01*
G04 APERTURE LIST*
G04 Aperture macros list*
%AMRoundRect*
0 Rectangle with rounded corners*
0 $1 Rounding radius*
0 $2 $3 $4 $5 $6 $7 $8 $9 X,Y pos of 4 corners*
0 Add a 4 corners polygon primitive as box body*
4,1,4,$2,$3,$4,$5,$6,$7,$8,$9,$2,$3,0*
0 Add four circle primitives for the rounded corners*
1,1,$1+$1,$2,$3*
1,1,$1+$1,$4,$5*
1,1,$1+$1,$6,$7*
1,1,$1+$1,$8,$9*
0 Add four rect primitives between the rounded corners*
20,1,$1+$1,$2,$3,$4,$5,0*
20,1,$1+$1,$4,$5,$6,$7,0*
20,1,$1+$1,$6,$7,$8,$9,0*
20,1,$1+$1,$8,$9,$2,$3,0*%
G04 Aperture macros list end*
%ADD10RoundRect,0.250000X-0.600000X-0.750000X0.600000X-0.750000X0.600000X0.750000X-0.600000X0.750000X0*%
%ADD11O,1.700000X2.000000*%
%ADD12C,1.600000*%
%ADD13RoundRect,0.250000X-0.600000X-0.725000X0.600000X-0.725000X0.600000X0.725000X-0.600000X0.725000X0*%
%ADD14O,1.700000X1.950000*%
%ADD15R,1.700000X1.700000*%
%ADD16C,1.700000*%
%ADD17C,6.204000*%
%ADD18RoundRect,0.102000X3.000000X-3.000000X3.000000X3.000000X-3.000000X3.000000X-3.000000X-3.000000X0*%
%ADD19RoundRect,0.250000X-0.550000X-0.550000X0.550000X-0.550000X0.550000X0.550000X-0.550000X0.550000X0*%
%ADD20RoundRect,0.102000X-3.000000X-3.000000X3.000000X-3.000000X3.000000X3.000000X-3.000000X3.000000X0*%
%ADD21C,3.200000*%
%ADD22R,1.800000X1.800000*%
%ADD23C,1.800000*%
G04 APERTURE END LIST*
D10*
X121960000Y-46482000D03*
D11*
X124460000Y-46482000D03*
D10*
X121960000Y-54282000D03*
D11*
X124460000Y-54282000D03*
D12*
X175538000Y-122960000D03*
X165378000Y-122960000D03*
D13*
X166450000Y-61885000D03*
D14*
X168950000Y-61885000D03*
X171450000Y-61885000D03*
D15*
X130048000Y-78215000D03*
D16*
X130048000Y-80755000D03*
X130048000Y-83295000D03*
X130048000Y-85835000D03*
X130048000Y-88375000D03*
X130048000Y-90915000D03*
X130048000Y-93455000D03*
X130048000Y-95995000D03*
X130048000Y-98535000D03*
X130048000Y-101075000D03*
X130048000Y-103615000D03*
X130048000Y-106155000D03*
X130048000Y-108695000D03*
X130048000Y-111235000D03*
X130048000Y-113775000D03*
X130048000Y-116315000D03*
X130048000Y-118855000D03*
X130048000Y-121395000D03*
X130048000Y-123935000D03*
X130048000Y-126475000D03*
X130048000Y-129015000D03*
X130048000Y-131555000D03*
D13*
X166450000Y-46285000D03*
D14*
X168950000Y-46285000D03*
X171450000Y-46285000D03*
D17*
X102616000Y-46990000D03*
D18*
X102616000Y-54190000D03*
D19*
X166643000Y-110490000D03*
D12*
X166643000Y-113030000D03*
X166643000Y-115570000D03*
X166643000Y-118110000D03*
X174263000Y-118110000D03*
X174263000Y-115570000D03*
X174263000Y-113030000D03*
X174263000Y-110490000D03*
D17*
X189020000Y-50292000D03*
D20*
X181820000Y-50292000D03*
D10*
X112000000Y-77576000D03*
D11*
X114500000Y-77576000D03*
D10*
X112000000Y-61976000D03*
D11*
X114500000Y-61976000D03*
D15*
X101600000Y-114300000D03*
D16*
X101600000Y-116840000D03*
X101600000Y-119380000D03*
X101600000Y-121920000D03*
X101600000Y-124460000D03*
X101600000Y-127000000D03*
X101600000Y-129540000D03*
X101600000Y-132080000D03*
X101600000Y-134620000D03*
X101600000Y-137160000D03*
X101600000Y-139700000D03*
D15*
X152908000Y-78215000D03*
D16*
X152908000Y-80755000D03*
X152908000Y-83295000D03*
X152908000Y-85835000D03*
X152908000Y-88375000D03*
X152908000Y-90915000D03*
X152908000Y-93455000D03*
X152908000Y-95995000D03*
X152908000Y-98535000D03*
X152908000Y-101075000D03*
X152908000Y-103615000D03*
X152908000Y-106155000D03*
X152908000Y-108695000D03*
X152908000Y-111235000D03*
X152908000Y-113775000D03*
X152908000Y-116315000D03*
X152908000Y-118855000D03*
X152908000Y-121395000D03*
X152908000Y-123935000D03*
X152908000Y-126475000D03*
X152908000Y-129015000D03*
X152908000Y-131555000D03*
D21*
X115000000Y-90000000D03*
D19*
X166638000Y-87630000D03*
D12*
X166638000Y-90170000D03*
X166638000Y-92710000D03*
X166638000Y-95250000D03*
X166638000Y-97790000D03*
X166638000Y-100330000D03*
X166638000Y-102870000D03*
X166638000Y-105410000D03*
X174258000Y-105410000D03*
X174258000Y-102870000D03*
X174258000Y-100330000D03*
X174258000Y-97790000D03*
X174258000Y-95250000D03*
X174258000Y-92710000D03*
X174258000Y-90170000D03*
X174258000Y-87630000D03*
D13*
X166450000Y-54085000D03*
D14*
X168950000Y-54085000D03*
X171450000Y-54085000D03*
D13*
X166450000Y-69685000D03*
D14*
X168950000Y-69685000D03*
X171450000Y-69685000D03*
D10*
X112000000Y-69776000D03*
D11*
X114500000Y-69776000D03*
D10*
X121960000Y-62082000D03*
D11*
X124460000Y-62082000D03*
D13*
X151885000Y-54138000D03*
D14*
X154385000Y-54138000D03*
X156885000Y-54138000D03*
X159385000Y-54138000D03*
D15*
X188600000Y-93980000D03*
D16*
X188600000Y-91440000D03*
X188600000Y-88900000D03*
X188600000Y-86360000D03*
X188600000Y-83820000D03*
X188600000Y-81280000D03*
X188600000Y-78740000D03*
X188600000Y-76200000D03*
X188600000Y-73660000D03*
X188600000Y-71120000D03*
X188600000Y-68580000D03*
D10*
X131914000Y-61705000D03*
D11*
X134414000Y-61705000D03*
D21*
X115000000Y-135000000D03*
D10*
X112040000Y-54138000D03*
D11*
X114540000Y-54138000D03*
D10*
X121960000Y-69882000D03*
D11*
X124460000Y-69882000D03*
D10*
X141859000Y-61705000D03*
D11*
X144359000Y-61705000D03*
D21*
X175000000Y-135000000D03*
D12*
X175538000Y-127010000D03*
X165378000Y-127010000D03*
D13*
X151885000Y-46338000D03*
D14*
X154385000Y-46338000D03*
X156885000Y-46338000D03*
X159385000Y-46338000D03*
D15*
X125448000Y-78215000D03*
D16*
X125448000Y-80755000D03*
X125448000Y-83295000D03*
X125448000Y-85835000D03*
X125448000Y-88375000D03*
X125448000Y-90915000D03*
X125448000Y-93455000D03*
X125448000Y-95995000D03*
X125448000Y-98535000D03*
X125448000Y-101075000D03*
X125448000Y-103615000D03*
X125448000Y-106155000D03*
X125448000Y-108695000D03*
X125448000Y-111235000D03*
X125448000Y-113775000D03*
X125448000Y-116315000D03*
X125448000Y-118855000D03*
X125448000Y-121395000D03*
X125448000Y-123935000D03*
X125448000Y-126475000D03*
X125448000Y-129015000D03*
X125448000Y-131555000D03*
D15*
X157508000Y-78215000D03*
D16*
X157508000Y-80755000D03*
X157508000Y-83295000D03*
X157508000Y-85835000D03*
X157508000Y-88375000D03*
X157508000Y-90915000D03*
X157508000Y-93455000D03*
X157508000Y-95995000D03*
X157508000Y-98535000D03*
X157508000Y-101075000D03*
X157508000Y-103615000D03*
X157508000Y-106155000D03*
X157508000Y-108695000D03*
X157508000Y-111235000D03*
X157508000Y-113775000D03*
X157508000Y-116315000D03*
X157508000Y-118855000D03*
X157508000Y-121395000D03*
X157508000Y-123935000D03*
X157508000Y-126475000D03*
X157508000Y-129015000D03*
X157508000Y-131555000D03*
D10*
X112040000Y-46338000D03*
D11*
X114540000Y-46338000D03*
D10*
X131954000Y-54085000D03*
D11*
X134454000Y-54085000D03*
D10*
X141859000Y-54085000D03*
D11*
X144359000Y-54085000D03*
D22*
X154666000Y-64933000D03*
D23*
X157206000Y-64933000D03*
D10*
X141859000Y-46465000D03*
D11*
X144359000Y-46465000D03*
D15*
X190500000Y-58166000D03*
D16*
X190500000Y-60706000D03*
D10*
X131954000Y-46465000D03*
D11*
X134454000Y-46465000D03*
D21*
X175000000Y-80000000D03*
M02*
