G04 #@! TF.GenerationSoftware,KiCad,Pcbnew,9.0.7*
G04 #@! TF.CreationDate,2026-02-13T00:51:14+09:00*
G04 #@! TF.ProjectId,ESP32-S3-ROS-IO-V1.0,45535033-322d-4533-932d-524f532d494f,rev?*
G04 #@! TF.SameCoordinates,Original*
G04 #@! TF.FileFunction,Legend,Bot*
G04 #@! TF.FilePolarity,Positive*
%FSLAX46Y46*%
G04 Gerber Fmt 4.6, Leading zero omitted, Abs format (unit mm)*
G04 Created by KiCad (PCBNEW 9.0.7) date 2026-02-13 00:51:14*
%MOMM*%
%LPD*%
G01*
G04 APERTURE LIST*
%ADD10C,0.200000*%
%ADD11C,0.000000*%
G04 APERTURE END LIST*
D10*
G36*
X137361711Y-94923201D02*
G01*
X137428882Y-94948390D01*
X137449033Y-94966021D01*
X137476275Y-95017100D01*
X137476275Y-95064984D01*
X137444322Y-95132883D01*
X137415843Y-95164921D01*
X137341300Y-95211510D01*
X137171233Y-95275285D01*
X136957226Y-95302036D01*
X136790837Y-95281237D01*
X136723666Y-95256048D01*
X136703516Y-95238417D01*
X136676275Y-95187339D01*
X136676275Y-95139454D01*
X136708226Y-95071556D01*
X136736702Y-95039520D01*
X136811249Y-94992928D01*
X136981314Y-94929153D01*
X137195321Y-94902402D01*
X137361711Y-94923201D01*
G37*
G36*
X138610028Y-92362604D02*
G01*
X138578075Y-92430503D01*
X138549598Y-92462539D01*
X138485258Y-92502752D01*
X138388738Y-92514817D01*
X138333610Y-92494144D01*
X138313460Y-92476513D01*
X138286219Y-92425435D01*
X138286219Y-92157760D01*
X138610028Y-92117284D01*
X138610028Y-92362604D01*
G37*
G36*
X138610028Y-91362604D02*
G01*
X138578075Y-91430503D01*
X138549598Y-91462539D01*
X138485258Y-91502752D01*
X138388738Y-91514817D01*
X138333610Y-91494144D01*
X138313460Y-91476513D01*
X138286219Y-91425435D01*
X138286219Y-91157760D01*
X138610028Y-91117284D01*
X138610028Y-91362604D01*
G37*
G36*
X137428882Y-90472200D02*
G01*
X137449033Y-90489831D01*
X137476275Y-90540910D01*
X137476275Y-90684032D01*
X137461618Y-90715178D01*
X137013087Y-90771244D01*
X137009608Y-90764720D01*
X137009608Y-90621597D01*
X137041559Y-90553699D01*
X137070035Y-90521663D01*
X137134377Y-90481449D01*
X137373754Y-90451527D01*
X137428882Y-90472200D01*
G37*
G36*
X137458189Y-88935571D02*
G01*
X137476275Y-88969480D01*
X137476275Y-89160222D01*
X137461618Y-89191368D01*
X137295322Y-89212155D01*
X137295322Y-89014454D01*
X137320893Y-88960114D01*
X137372472Y-88927877D01*
X137421373Y-88921765D01*
X137458189Y-88935571D01*
G37*
G36*
X137428882Y-88043628D02*
G01*
X137449033Y-88061259D01*
X137476275Y-88112338D01*
X137476275Y-88207841D01*
X137444322Y-88275740D01*
X137415843Y-88307778D01*
X137351506Y-88347989D01*
X137112128Y-88377911D01*
X137056998Y-88357238D01*
X137036850Y-88339608D01*
X137009608Y-88288529D01*
X137009608Y-88193025D01*
X137041559Y-88125127D01*
X137070035Y-88093091D01*
X137134377Y-88052877D01*
X137373754Y-88022955D01*
X137428882Y-88043628D01*
G37*
G36*
X138673468Y-87812067D02*
G01*
X138637637Y-87798630D01*
X138619552Y-87764720D01*
X138619552Y-87621597D01*
X138645123Y-87567257D01*
X138696701Y-87535021D01*
X138728296Y-87531072D01*
X138673468Y-87812067D01*
G37*
G36*
X136952465Y-87320936D02*
G01*
X136920511Y-87388838D01*
X136892037Y-87420871D01*
X136827695Y-87461085D01*
X136778794Y-87467197D01*
X136723666Y-87446524D01*
X136703516Y-87428893D01*
X136676275Y-87377815D01*
X136676275Y-87157759D01*
X136952465Y-87123235D01*
X136952465Y-87320936D01*
G37*
G36*
X137476275Y-87303079D02*
G01*
X137444322Y-87370978D01*
X137415843Y-87403016D01*
X137351506Y-87443227D01*
X137254984Y-87455292D01*
X137199855Y-87434619D01*
X137185843Y-87422358D01*
X137152465Y-87326395D01*
X137152465Y-87098235D01*
X137476275Y-87057759D01*
X137476275Y-87303079D01*
G37*
G36*
X139038826Y-86138867D02*
G01*
X139058977Y-86156498D01*
X139086219Y-86207577D01*
X139086219Y-86303080D01*
X139054266Y-86370979D01*
X139025787Y-86403017D01*
X138961450Y-86443228D01*
X138722072Y-86473150D01*
X138666942Y-86452477D01*
X138646794Y-86434847D01*
X138619552Y-86383768D01*
X138619552Y-86288264D01*
X138651503Y-86220366D01*
X138679979Y-86188330D01*
X138744321Y-86148116D01*
X138983698Y-86118194D01*
X139038826Y-86138867D01*
G37*
G36*
X137390619Y-84772053D02*
G01*
X137449033Y-84823164D01*
X137476275Y-84874243D01*
X137476275Y-85017365D01*
X137444322Y-85085264D01*
X137375123Y-85163113D01*
X137218853Y-85221714D01*
X136909607Y-85260369D01*
X136761929Y-85241910D01*
X136703516Y-85190798D01*
X136676275Y-85139720D01*
X136676275Y-84996597D01*
X136708227Y-84928697D01*
X136777425Y-84850849D01*
X136933693Y-84792249D01*
X137242940Y-84753593D01*
X137390619Y-84772053D01*
G37*
G36*
X138610028Y-84838794D02*
G01*
X138578075Y-84906693D01*
X138549598Y-84938729D01*
X138485258Y-84978942D01*
X138388738Y-84991007D01*
X138333610Y-84970334D01*
X138313460Y-84952703D01*
X138286219Y-84901625D01*
X138286219Y-84633950D01*
X138610028Y-84593474D01*
X138610028Y-84838794D01*
G37*
G36*
X139038826Y-77996010D02*
G01*
X139058977Y-78013641D01*
X139086219Y-78064720D01*
X139086219Y-78207842D01*
X139054266Y-78275741D01*
X139025787Y-78307779D01*
X138961450Y-78347990D01*
X138769689Y-78371960D01*
X138714562Y-78351287D01*
X138694412Y-78333656D01*
X138667171Y-78282578D01*
X138667171Y-78139455D01*
X138699123Y-78071556D01*
X138727598Y-78039521D01*
X138791940Y-77999307D01*
X138983699Y-77975337D01*
X139038826Y-77996010D01*
G37*
G36*
X137000084Y-77314985D02*
G01*
X136968131Y-77382884D01*
X136939654Y-77414920D01*
X136875314Y-77455133D01*
X136778794Y-77467198D01*
X136723666Y-77446525D01*
X136703516Y-77428894D01*
X136676275Y-77377816D01*
X136676275Y-77110141D01*
X137000084Y-77069665D01*
X137000084Y-77314985D01*
G37*
G36*
X138971655Y-76113678D02*
G01*
X139038826Y-76138867D01*
X139058977Y-76156498D01*
X139086219Y-76207577D01*
X139086219Y-76255461D01*
X139054266Y-76323360D01*
X139025787Y-76355398D01*
X138951244Y-76401987D01*
X138781177Y-76465762D01*
X138567170Y-76492513D01*
X138400781Y-76471714D01*
X138333610Y-76446525D01*
X138313460Y-76428894D01*
X138286219Y-76377816D01*
X138286219Y-76329931D01*
X138318170Y-76262033D01*
X138346646Y-76229997D01*
X138421193Y-76183405D01*
X138591258Y-76119630D01*
X138805265Y-76092879D01*
X138971655Y-76113678D01*
G37*
G36*
X139730663Y-95613667D02*
G01*
X136365164Y-95613667D01*
X136365164Y-95117101D01*
X136476275Y-95117101D01*
X136476275Y-95212339D01*
X136478196Y-95231848D01*
X136480076Y-95236388D01*
X136480554Y-95241280D01*
X136488040Y-95259398D01*
X136535659Y-95348683D01*
X136543747Y-95360813D01*
X136544626Y-95362589D01*
X136545682Y-95363714D01*
X136546535Y-95364993D01*
X136548059Y-95366246D01*
X136558043Y-95376881D01*
X136605662Y-95418548D01*
X136617318Y-95426882D01*
X136618809Y-95428275D01*
X136620272Y-95428994D01*
X136621609Y-95429950D01*
X136623553Y-95430607D01*
X136636401Y-95436924D01*
X136731639Y-95472638D01*
X136734193Y-95473319D01*
X136735227Y-95473907D01*
X136742951Y-95475654D01*
X136750580Y-95477689D01*
X136751764Y-95477648D01*
X136754347Y-95478233D01*
X136944823Y-95502043D01*
X136948520Y-95502139D01*
X136950034Y-95502556D01*
X136957227Y-95502367D01*
X136964420Y-95502556D01*
X136965933Y-95502139D01*
X136969631Y-95502043D01*
X137207726Y-95472281D01*
X137210308Y-95471696D01*
X137211493Y-95471737D01*
X137219124Y-95469702D01*
X137226846Y-95467955D01*
X137227878Y-95467367D01*
X137230435Y-95466686D01*
X137420911Y-95395257D01*
X137421119Y-95395154D01*
X137421236Y-95395135D01*
X137429826Y-95390873D01*
X137438503Y-95386608D01*
X137438590Y-95386526D01*
X137438797Y-95386424D01*
X137534036Y-95326901D01*
X137539269Y-95322866D01*
X137541380Y-95321843D01*
X137545321Y-95318200D01*
X137549561Y-95314932D01*
X137550919Y-95313026D01*
X137555777Y-95308538D01*
X137603396Y-95254966D01*
X137607343Y-95249534D01*
X137609093Y-95247943D01*
X137611810Y-95243389D01*
X137614922Y-95239108D01*
X137615695Y-95236877D01*
X137619138Y-95231109D01*
X137666757Y-95129919D01*
X137673326Y-95111448D01*
X137673438Y-95109057D01*
X137674354Y-95106848D01*
X137676275Y-95087339D01*
X137676275Y-94992101D01*
X137674354Y-94972592D01*
X137672473Y-94968051D01*
X137671996Y-94963160D01*
X137664511Y-94945043D01*
X137616891Y-94855756D01*
X137608796Y-94843615D01*
X137607923Y-94841850D01*
X137606873Y-94840731D01*
X137606016Y-94839446D01*
X137604483Y-94838186D01*
X137594506Y-94827557D01*
X137546886Y-94785890D01*
X137535232Y-94777558D01*
X137533740Y-94776164D01*
X137532273Y-94775442D01*
X137530939Y-94774489D01*
X137528997Y-94773832D01*
X137516148Y-94767515D01*
X137420910Y-94731801D01*
X137418353Y-94731119D01*
X137417321Y-94730532D01*
X137409603Y-94728785D01*
X137401969Y-94726750D01*
X137400783Y-94726790D01*
X137398201Y-94726206D01*
X137207726Y-94702396D01*
X137204028Y-94702299D01*
X137202515Y-94701883D01*
X137195322Y-94702071D01*
X137188129Y-94701883D01*
X137186615Y-94702299D01*
X137182919Y-94702396D01*
X136944823Y-94732158D01*
X136942240Y-94732742D01*
X136941056Y-94732702D01*
X136933427Y-94734736D01*
X136925703Y-94736484D01*
X136924669Y-94737071D01*
X136922115Y-94737753D01*
X136731638Y-94809182D01*
X136731426Y-94809285D01*
X136731312Y-94809305D01*
X136722726Y-94813563D01*
X136714046Y-94817831D01*
X136713960Y-94817911D01*
X136713751Y-94818015D01*
X136618513Y-94877539D01*
X136613278Y-94881574D01*
X136611169Y-94882597D01*
X136607231Y-94886236D01*
X136602987Y-94889508D01*
X136601626Y-94891415D01*
X136596772Y-94895902D01*
X136549153Y-94949473D01*
X136545204Y-94954905D01*
X136543457Y-94956496D01*
X136540741Y-94961047D01*
X136537628Y-94965331D01*
X136536854Y-94967561D01*
X136533412Y-94973330D01*
X136485793Y-95074522D01*
X136479224Y-95092992D01*
X136479111Y-95095382D01*
X136478196Y-95097592D01*
X136476275Y-95117101D01*
X136365164Y-95117101D01*
X136365164Y-94330146D01*
X137381295Y-94330146D01*
X137383315Y-94346313D01*
X137384272Y-94362572D01*
X137384446Y-94362931D01*
X137384473Y-94363330D01*
X137385770Y-94365953D01*
X137386134Y-94368863D01*
X137394189Y-94383028D01*
X137401294Y-94397682D01*
X137401591Y-94397946D01*
X137401769Y-94398305D01*
X137404579Y-94401299D01*
X137405422Y-94402780D01*
X137407452Y-94404359D01*
X137415186Y-94412597D01*
X137462806Y-94454264D01*
X137477557Y-94464810D01*
X137478078Y-94465273D01*
X137478324Y-94465358D01*
X137478753Y-94465665D01*
X137496851Y-94471785D01*
X137514941Y-94478061D01*
X137515338Y-94478037D01*
X137515715Y-94478165D01*
X137534797Y-94476893D01*
X137553891Y-94475770D01*
X137554248Y-94475596D01*
X137554647Y-94475570D01*
X137571806Y-94467083D01*
X137589001Y-94458747D01*
X137589389Y-94458388D01*
X137589622Y-94458273D01*
X137590079Y-94457750D01*
X137603397Y-94445442D01*
X137651017Y-94391870D01*
X137662542Y-94376012D01*
X137662672Y-94375635D01*
X137662934Y-94375337D01*
X137663872Y-94372560D01*
X137665671Y-94370249D01*
X137669989Y-94354543D01*
X137675330Y-94339149D01*
X137675306Y-94338751D01*
X137675434Y-94338375D01*
X137675239Y-94335452D01*
X137676016Y-94332627D01*
X137673995Y-94316461D01*
X137673039Y-94300198D01*
X137672864Y-94299837D01*
X137672838Y-94299443D01*
X137671540Y-94296819D01*
X137671177Y-94293910D01*
X137663125Y-94279751D01*
X137656016Y-94265089D01*
X137655718Y-94264824D01*
X137655542Y-94264468D01*
X137652731Y-94261473D01*
X137651889Y-94259993D01*
X137649858Y-94258413D01*
X137642125Y-94250176D01*
X137594506Y-94208510D01*
X137579753Y-94197962D01*
X137579236Y-94197503D01*
X137578991Y-94197418D01*
X137578559Y-94197109D01*
X137560369Y-94190957D01*
X137542373Y-94184714D01*
X137541976Y-94184737D01*
X137541597Y-94184609D01*
X137522503Y-94185882D01*
X137503422Y-94187004D01*
X137503062Y-94187178D01*
X137502665Y-94187205D01*
X137485535Y-94195676D01*
X137468313Y-94204026D01*
X137467924Y-94204385D01*
X137467690Y-94204501D01*
X137467229Y-94205027D01*
X137453916Y-94217331D01*
X137406296Y-94270902D01*
X137394770Y-94286759D01*
X137394639Y-94287136D01*
X137394377Y-94287436D01*
X137393438Y-94290212D01*
X137391640Y-94292524D01*
X137387322Y-94308225D01*
X137381981Y-94323622D01*
X137382004Y-94324021D01*
X137381877Y-94324398D01*
X137382071Y-94327320D01*
X137381295Y-94330146D01*
X136365164Y-94330146D01*
X136365164Y-93728956D01*
X136476534Y-93728956D01*
X136477486Y-93736576D01*
X136476600Y-93744200D01*
X136479882Y-93755750D01*
X136481373Y-93767673D01*
X136485168Y-93774346D01*
X136487267Y-93781731D01*
X136494724Y-93791150D01*
X136500661Y-93801590D01*
X136506719Y-93806302D01*
X136511486Y-93812323D01*
X136521979Y-93818171D01*
X136531460Y-93825545D01*
X136538862Y-93827580D01*
X136545569Y-93831318D01*
X136557499Y-93832705D01*
X136569082Y-93835890D01*
X136581987Y-93835552D01*
X136584326Y-93835824D01*
X136585616Y-93835457D01*
X136588678Y-93835377D01*
X137476275Y-93724427D01*
X137476275Y-93896863D01*
X137478196Y-93916372D01*
X137493128Y-93952420D01*
X137520718Y-93980010D01*
X137556766Y-93994942D01*
X137595784Y-93994942D01*
X137631832Y-93980010D01*
X137659422Y-93952420D01*
X137674354Y-93916372D01*
X137676275Y-93896863D01*
X137676275Y-93879006D01*
X138086219Y-93879006D01*
X138086219Y-94450435D01*
X138088140Y-94469944D01*
X138103072Y-94505992D01*
X138130662Y-94533582D01*
X138166710Y-94548514D01*
X138205728Y-94548514D01*
X138241776Y-94533582D01*
X138269366Y-94505992D01*
X138284298Y-94469944D01*
X138286219Y-94450435D01*
X138286219Y-94252999D01*
X139198622Y-94138949D01*
X139217742Y-94134623D01*
X139251660Y-94115335D01*
X139275615Y-94084536D01*
X139285960Y-94046914D01*
X139281121Y-94008197D01*
X139261833Y-93974280D01*
X139231034Y-93950325D01*
X139193412Y-93939980D01*
X139173815Y-93940493D01*
X138286219Y-94051442D01*
X138286219Y-93879006D01*
X138284298Y-93859497D01*
X138269366Y-93823449D01*
X138241776Y-93795859D01*
X138205728Y-93780927D01*
X138166710Y-93780927D01*
X138130662Y-93795859D01*
X138103072Y-93823449D01*
X138088140Y-93859497D01*
X138086219Y-93879006D01*
X137676275Y-93879006D01*
X137676275Y-93325434D01*
X137674354Y-93305925D01*
X137659422Y-93269877D01*
X137631832Y-93242287D01*
X137595784Y-93227355D01*
X137556766Y-93227355D01*
X137520718Y-93242287D01*
X137493128Y-93269877D01*
X137478196Y-93305925D01*
X137476275Y-93325434D01*
X137476275Y-93522870D01*
X136875191Y-93598005D01*
X136889111Y-93582347D01*
X136893058Y-93576916D01*
X136894807Y-93575325D01*
X136897522Y-93570773D01*
X136900636Y-93566490D01*
X136901410Y-93564258D01*
X136904852Y-93558490D01*
X136952471Y-93457299D01*
X136959040Y-93438829D01*
X136960878Y-93399854D01*
X136947662Y-93363142D01*
X136921403Y-93334283D01*
X136886099Y-93317669D01*
X136847124Y-93315831D01*
X136810412Y-93329047D01*
X136781552Y-93355306D01*
X136771507Y-93372140D01*
X136730036Y-93460266D01*
X136650200Y-93550079D01*
X136514204Y-93657745D01*
X136512002Y-93659870D01*
X136510834Y-93660535D01*
X136509387Y-93662395D01*
X136500101Y-93671360D01*
X136494252Y-93681853D01*
X136486879Y-93691334D01*
X136484843Y-93698736D01*
X136481106Y-93705443D01*
X136479718Y-93717373D01*
X136476534Y-93728956D01*
X136365164Y-93728956D01*
X136365164Y-92497148D01*
X136476279Y-92497148D01*
X136483545Y-92535484D01*
X136504928Y-92568121D01*
X136537172Y-92590091D01*
X136555880Y-92595951D01*
X137258050Y-92742237D01*
X136534610Y-93073814D01*
X136517675Y-93083688D01*
X136491127Y-93112282D01*
X136477541Y-93148859D01*
X136478986Y-93187850D01*
X136495243Y-93223320D01*
X136523837Y-93249868D01*
X136560414Y-93263454D01*
X136599405Y-93262009D01*
X136617940Y-93255626D01*
X136712382Y-93212340D01*
X138086219Y-93212340D01*
X138086219Y-93450435D01*
X138087324Y-93461658D01*
X138087175Y-93464230D01*
X138087855Y-93467051D01*
X138088140Y-93469944D01*
X138089126Y-93472325D01*
X138091769Y-93483287D01*
X138139388Y-93620192D01*
X138147612Y-93637987D01*
X138173557Y-93667129D01*
X138208680Y-93684124D01*
X138247633Y-93686384D01*
X138284485Y-93673566D01*
X138313627Y-93647620D01*
X138330622Y-93612498D01*
X138332882Y-93573545D01*
X138328288Y-93554488D01*
X138286219Y-93433539D01*
X138286219Y-93234693D01*
X138318170Y-93166795D01*
X138346646Y-93134759D01*
X138410988Y-93094545D01*
X138459890Y-93088432D01*
X138515017Y-93109105D01*
X138535166Y-93126736D01*
X138568560Y-93189349D01*
X138613200Y-93362327D01*
X138614183Y-93365015D01*
X138614307Y-93366281D01*
X138617267Y-93373447D01*
X138619935Y-93380738D01*
X138620700Y-93381754D01*
X138621793Y-93384399D01*
X138669412Y-93473684D01*
X138677500Y-93485814D01*
X138678379Y-93487590D01*
X138679435Y-93488715D01*
X138680288Y-93489994D01*
X138681812Y-93491247D01*
X138691796Y-93501882D01*
X138739415Y-93543549D01*
X138751071Y-93551883D01*
X138752562Y-93553276D01*
X138754025Y-93553995D01*
X138755362Y-93554951D01*
X138757306Y-93555608D01*
X138770154Y-93561925D01*
X138865392Y-93597639D01*
X138884333Y-93602690D01*
X138888902Y-93602534D01*
X138893311Y-93603747D01*
X138912908Y-93603234D01*
X139008146Y-93591329D01*
X139027266Y-93587003D01*
X139029099Y-93585960D01*
X139031180Y-93585612D01*
X139048741Y-93576901D01*
X139143980Y-93517378D01*
X139149213Y-93513343D01*
X139151324Y-93512320D01*
X139155265Y-93508677D01*
X139159505Y-93505409D01*
X139160863Y-93503503D01*
X139165721Y-93499015D01*
X139213340Y-93445443D01*
X139217287Y-93440011D01*
X139219037Y-93438420D01*
X139221754Y-93433866D01*
X139224866Y-93429585D01*
X139225639Y-93427354D01*
X139229082Y-93421586D01*
X139276701Y-93320396D01*
X139283270Y-93301925D01*
X139283382Y-93299534D01*
X139284298Y-93297325D01*
X139286219Y-93277816D01*
X139286219Y-93039720D01*
X139285113Y-93028496D01*
X139285263Y-93025925D01*
X139284582Y-93023103D01*
X139284298Y-93020211D01*
X139283311Y-93017829D01*
X139280669Y-93006868D01*
X139233050Y-92869964D01*
X139224826Y-92852169D01*
X139198880Y-92823027D01*
X139163758Y-92806032D01*
X139124805Y-92803772D01*
X139087953Y-92816590D01*
X139058811Y-92842536D01*
X139041816Y-92877658D01*
X139039556Y-92916611D01*
X139044150Y-92935668D01*
X139086219Y-93056615D01*
X139086219Y-93255461D01*
X139054266Y-93323360D01*
X139025787Y-93355398D01*
X138961450Y-93395609D01*
X138912546Y-93401722D01*
X138857419Y-93381049D01*
X138837269Y-93363418D01*
X138803876Y-93300806D01*
X138759237Y-93127828D01*
X138758253Y-93125139D01*
X138758130Y-93123875D01*
X138755168Y-93116707D01*
X138752502Y-93109418D01*
X138751737Y-93108402D01*
X138750645Y-93105758D01*
X138703025Y-93016471D01*
X138694933Y-93004336D01*
X138694058Y-93002565D01*
X138693005Y-93001443D01*
X138692150Y-93000161D01*
X138690621Y-92998903D01*
X138680641Y-92988273D01*
X138633022Y-92946606D01*
X138621365Y-92938271D01*
X138619875Y-92936879D01*
X138618411Y-92936159D01*
X138617075Y-92935204D01*
X138615130Y-92934546D01*
X138602283Y-92928230D01*
X138507045Y-92892516D01*
X138488104Y-92887465D01*
X138483534Y-92887620D01*
X138479126Y-92886408D01*
X138459529Y-92886921D01*
X138364291Y-92898826D01*
X138345171Y-92903152D01*
X138343335Y-92904195D01*
X138341256Y-92904544D01*
X138323695Y-92913254D01*
X138228457Y-92972778D01*
X138223222Y-92976813D01*
X138221113Y-92977836D01*
X138217175Y-92981475D01*
X138212931Y-92984747D01*
X138211570Y-92986654D01*
X138206716Y-92991141D01*
X138159097Y-93044712D01*
X138155148Y-93050144D01*
X138153401Y-93051735D01*
X138150685Y-93056286D01*
X138147572Y-93060570D01*
X138146798Y-93062800D01*
X138143356Y-93068569D01*
X138095737Y-93169761D01*
X138089168Y-93188231D01*
X138089055Y-93190621D01*
X138088140Y-93192831D01*
X138086219Y-93212340D01*
X136712382Y-93212340D01*
X137617940Y-92797294D01*
X137634875Y-92787419D01*
X137640021Y-92781875D01*
X137646343Y-92777734D01*
X137653171Y-92767712D01*
X137661423Y-92758825D01*
X137664054Y-92751739D01*
X137668313Y-92745490D01*
X137670786Y-92733616D01*
X137675009Y-92722249D01*
X137674728Y-92714694D01*
X137676271Y-92707292D01*
X137674012Y-92695375D01*
X137673563Y-92683257D01*
X137670412Y-92676383D01*
X137669005Y-92668956D01*
X137662359Y-92658813D01*
X137657306Y-92647787D01*
X137651764Y-92642642D01*
X137647622Y-92636319D01*
X137637599Y-92629490D01*
X137628713Y-92621239D01*
X137621627Y-92618607D01*
X137615378Y-92614349D01*
X137596670Y-92608489D01*
X136596670Y-92400155D01*
X136577180Y-92398057D01*
X136538844Y-92405323D01*
X136506207Y-92426706D01*
X136484237Y-92458950D01*
X136476279Y-92497148D01*
X136365164Y-92497148D01*
X136365164Y-91325434D01*
X137095322Y-91325434D01*
X137095322Y-92087339D01*
X137097243Y-92106848D01*
X137112175Y-92142896D01*
X137139765Y-92170486D01*
X137175813Y-92185418D01*
X137214831Y-92185418D01*
X137250879Y-92170486D01*
X137278469Y-92142896D01*
X137293401Y-92106848D01*
X137295322Y-92087339D01*
X137295322Y-92069482D01*
X138086219Y-92069482D01*
X138086219Y-92450435D01*
X138088140Y-92469944D01*
X138090020Y-92474484D01*
X138090498Y-92479376D01*
X138097984Y-92497494D01*
X138145603Y-92586779D01*
X138153691Y-92598909D01*
X138154570Y-92600685D01*
X138155626Y-92601810D01*
X138156479Y-92603089D01*
X138158003Y-92604342D01*
X138167987Y-92614977D01*
X138215606Y-92656644D01*
X138227262Y-92664978D01*
X138228753Y-92666371D01*
X138230216Y-92667090D01*
X138231553Y-92668046D01*
X138233497Y-92668703D01*
X138246345Y-92675020D01*
X138341583Y-92710734D01*
X138360524Y-92715785D01*
X138365093Y-92715629D01*
X138369502Y-92716842D01*
X138389098Y-92716329D01*
X138531956Y-92698472D01*
X138551076Y-92694146D01*
X138552909Y-92693103D01*
X138554990Y-92692755D01*
X138572552Y-92684044D01*
X138667790Y-92624520D01*
X138673023Y-92620485D01*
X138675134Y-92619462D01*
X138679075Y-92615819D01*
X138683315Y-92612551D01*
X138684673Y-92610646D01*
X138689531Y-92606157D01*
X138737150Y-92552585D01*
X138741097Y-92547154D01*
X138742846Y-92545563D01*
X138745562Y-92541009D01*
X138748675Y-92536728D01*
X138749448Y-92534497D01*
X138752891Y-92528729D01*
X138800510Y-92427539D01*
X138805841Y-92412546D01*
X139136372Y-92602601D01*
X139154242Y-92610661D01*
X139192935Y-92615685D01*
X139230606Y-92605520D01*
X139261519Y-92581713D01*
X139280969Y-92547888D01*
X139285993Y-92509195D01*
X139275828Y-92471524D01*
X139252021Y-92440610D01*
X139236066Y-92429220D01*
X138810028Y-92184247D01*
X138810028Y-92092284D01*
X139198622Y-92043710D01*
X139217742Y-92039384D01*
X139251660Y-92020096D01*
X139275615Y-91989297D01*
X139285960Y-91951675D01*
X139281121Y-91912958D01*
X139261833Y-91879041D01*
X139231034Y-91855086D01*
X139193412Y-91844741D01*
X139173815Y-91845254D01*
X138173816Y-91970254D01*
X138168737Y-91971403D01*
X138166710Y-91971403D01*
X138164269Y-91972413D01*
X138154695Y-91974580D01*
X138143041Y-91981206D01*
X138130662Y-91986335D01*
X138126228Y-91990768D01*
X138120778Y-91993868D01*
X138112549Y-92004447D01*
X138103072Y-92013925D01*
X138100672Y-92019717D01*
X138096823Y-92024667D01*
X138093269Y-92037588D01*
X138088140Y-92049973D01*
X138087177Y-92059743D01*
X138086478Y-92062289D01*
X138086729Y-92064299D01*
X138086219Y-92069482D01*
X137295322Y-92069482D01*
X137295322Y-91325434D01*
X137293401Y-91305925D01*
X137278469Y-91269877D01*
X137250879Y-91242287D01*
X137214831Y-91227355D01*
X137175813Y-91227355D01*
X137139765Y-91242287D01*
X137112175Y-91269877D01*
X137097243Y-91305925D01*
X137095322Y-91325434D01*
X136365164Y-91325434D01*
X136365164Y-91069482D01*
X138086219Y-91069482D01*
X138086219Y-91450435D01*
X138088140Y-91469944D01*
X138090020Y-91474484D01*
X138090498Y-91479376D01*
X138097984Y-91497494D01*
X138145603Y-91586779D01*
X138153691Y-91598909D01*
X138154570Y-91600685D01*
X138155626Y-91601810D01*
X138156479Y-91603089D01*
X138158003Y-91604342D01*
X138167987Y-91614977D01*
X138215606Y-91656644D01*
X138227262Y-91664978D01*
X138228753Y-91666371D01*
X138230216Y-91667090D01*
X138231553Y-91668046D01*
X138233497Y-91668703D01*
X138246345Y-91675020D01*
X138341583Y-91710734D01*
X138360524Y-91715785D01*
X138365093Y-91715629D01*
X138369502Y-91716842D01*
X138389098Y-91716329D01*
X138531956Y-91698472D01*
X138551076Y-91694146D01*
X138552909Y-91693103D01*
X138554990Y-91692755D01*
X138572552Y-91684044D01*
X138667790Y-91624520D01*
X138673023Y-91620485D01*
X138675134Y-91619462D01*
X138679075Y-91615819D01*
X138683315Y-91612551D01*
X138684673Y-91610646D01*
X138689531Y-91606157D01*
X138737150Y-91552585D01*
X138741097Y-91547154D01*
X138742846Y-91545563D01*
X138745562Y-91541009D01*
X138748675Y-91536728D01*
X138749448Y-91534497D01*
X138752891Y-91528729D01*
X138800510Y-91427539D01*
X138805841Y-91412546D01*
X139136372Y-91602601D01*
X139154242Y-91610661D01*
X139192935Y-91615685D01*
X139230606Y-91605520D01*
X139261519Y-91581713D01*
X139280969Y-91547888D01*
X139285993Y-91509195D01*
X139275828Y-91471524D01*
X139252021Y-91440610D01*
X139236066Y-91429220D01*
X138810028Y-91184247D01*
X138810028Y-91092284D01*
X139198622Y-91043710D01*
X139217742Y-91039384D01*
X139251660Y-91020096D01*
X139275615Y-90989297D01*
X139285960Y-90951675D01*
X139281121Y-90912958D01*
X139261833Y-90879041D01*
X139231034Y-90855086D01*
X139193412Y-90844741D01*
X139173815Y-90845254D01*
X138173816Y-90970254D01*
X138168737Y-90971403D01*
X138166710Y-90971403D01*
X138164269Y-90972413D01*
X138154695Y-90974580D01*
X138143041Y-90981206D01*
X138130662Y-90986335D01*
X138126228Y-90990768D01*
X138120778Y-90993868D01*
X138112549Y-91004447D01*
X138103072Y-91013925D01*
X138100672Y-91019717D01*
X138096823Y-91024667D01*
X138093269Y-91037588D01*
X138088140Y-91049973D01*
X138087177Y-91059743D01*
X138086478Y-91062289D01*
X138086729Y-91064299D01*
X138086219Y-91069482D01*
X136365164Y-91069482D01*
X136365164Y-90919432D01*
X136476534Y-90919432D01*
X136481373Y-90958149D01*
X136500661Y-90992066D01*
X136531460Y-91016021D01*
X136569082Y-91026366D01*
X136588678Y-91025853D01*
X137588678Y-90900853D01*
X137607798Y-90896527D01*
X137641716Y-90877239D01*
X137665671Y-90846440D01*
X137676016Y-90808818D01*
X137671177Y-90770101D01*
X137663316Y-90756278D01*
X137666757Y-90748967D01*
X137673326Y-90730496D01*
X137673438Y-90728105D01*
X137674354Y-90725896D01*
X137676275Y-90706387D01*
X137676275Y-90515911D01*
X137674354Y-90496402D01*
X137672473Y-90491861D01*
X137671996Y-90486970D01*
X137664511Y-90468853D01*
X137616891Y-90379566D01*
X137608796Y-90367425D01*
X137607923Y-90365660D01*
X137606873Y-90364541D01*
X137606016Y-90363256D01*
X137604483Y-90361996D01*
X137594506Y-90351367D01*
X137546886Y-90309700D01*
X137535232Y-90301368D01*
X137533740Y-90299974D01*
X137532273Y-90299252D01*
X137530939Y-90298299D01*
X137528997Y-90297642D01*
X137516148Y-90291325D01*
X137420910Y-90255611D01*
X137401969Y-90250560D01*
X137397399Y-90250715D01*
X137392991Y-90249503D01*
X137373394Y-90250016D01*
X137087681Y-90285730D01*
X137068561Y-90290056D01*
X137066725Y-90291099D01*
X137064645Y-90291448D01*
X137047084Y-90300158D01*
X136951846Y-90359682D01*
X136946611Y-90363717D01*
X136944502Y-90364740D01*
X136940564Y-90368379D01*
X136936320Y-90371651D01*
X136934959Y-90373558D01*
X136930105Y-90378045D01*
X136882486Y-90431616D01*
X136878537Y-90437048D01*
X136876790Y-90438639D01*
X136874074Y-90443190D01*
X136870961Y-90447474D01*
X136870187Y-90449704D01*
X136866745Y-90455473D01*
X136819126Y-90556665D01*
X136812557Y-90575135D01*
X136812444Y-90577525D01*
X136811529Y-90579735D01*
X136809608Y-90599244D01*
X136809608Y-90789720D01*
X136810284Y-90796595D01*
X136563872Y-90827397D01*
X136544751Y-90831723D01*
X136510834Y-90851011D01*
X136486879Y-90881810D01*
X136476534Y-90919432D01*
X136365164Y-90919432D01*
X136365164Y-90027815D01*
X136809608Y-90027815D01*
X136809608Y-90123053D01*
X136811529Y-90142562D01*
X136826461Y-90178610D01*
X136854051Y-90206200D01*
X136890099Y-90221132D01*
X136929117Y-90221132D01*
X136965165Y-90206200D01*
X136992755Y-90178610D01*
X137007687Y-90142562D01*
X137009608Y-90123053D01*
X137009608Y-90050168D01*
X137041559Y-89982270D01*
X137070035Y-89950234D01*
X137134376Y-89910021D01*
X137588678Y-89853233D01*
X137607798Y-89848907D01*
X137641716Y-89829619D01*
X137665671Y-89798820D01*
X137676016Y-89761198D01*
X137674962Y-89752767D01*
X139038858Y-89752767D01*
X139043699Y-89791484D01*
X139062987Y-89825401D01*
X139093786Y-89849356D01*
X139131408Y-89859701D01*
X139151005Y-89859187D01*
X139198624Y-89853234D01*
X139217744Y-89848907D01*
X139219575Y-89847865D01*
X139221657Y-89847517D01*
X139239218Y-89838806D01*
X139334457Y-89779283D01*
X139339692Y-89775246D01*
X139341802Y-89774224D01*
X139345740Y-89770584D01*
X139349982Y-89767314D01*
X139351342Y-89765406D01*
X139356198Y-89760919D01*
X139403818Y-89707347D01*
X139415343Y-89691489D01*
X139428131Y-89654626D01*
X139425840Y-89615675D01*
X139408817Y-89580566D01*
X139379655Y-89554644D01*
X139342792Y-89541856D01*
X139303841Y-89544147D01*
X139268732Y-89561170D01*
X139254335Y-89574475D01*
X139216266Y-89617302D01*
X139151927Y-89657514D01*
X139126195Y-89660731D01*
X139107075Y-89665058D01*
X139073158Y-89684346D01*
X139049203Y-89715145D01*
X139038858Y-89752767D01*
X137674962Y-89752767D01*
X137671177Y-89722481D01*
X137651889Y-89688564D01*
X137621090Y-89664609D01*
X137583468Y-89654264D01*
X137563871Y-89654777D01*
X136897204Y-89738111D01*
X136878084Y-89742437D01*
X136844167Y-89761725D01*
X136820212Y-89792524D01*
X136809867Y-89830146D01*
X136814706Y-89868863D01*
X136833994Y-89902780D01*
X136851515Y-89916407D01*
X136819126Y-89985236D01*
X136812557Y-90003706D01*
X136812444Y-90006096D01*
X136811529Y-90008306D01*
X136809608Y-90027815D01*
X136365164Y-90027815D01*
X136365164Y-89027815D01*
X136809608Y-89027815D01*
X136809608Y-89218291D01*
X136811529Y-89237800D01*
X136813409Y-89242340D01*
X136813887Y-89247232D01*
X136821373Y-89265350D01*
X136868992Y-89354636D01*
X136874931Y-89363544D01*
X136876013Y-89365923D01*
X136877352Y-89367174D01*
X136879867Y-89370946D01*
X136892547Y-89381371D01*
X136904523Y-89392561D01*
X136908586Y-89394558D01*
X136910006Y-89395726D01*
X136912511Y-89396488D01*
X136922115Y-89401210D01*
X137017353Y-89436924D01*
X137036294Y-89441975D01*
X137040863Y-89441819D01*
X137045272Y-89443032D01*
X137064868Y-89442519D01*
X137588678Y-89377043D01*
X137607798Y-89372717D01*
X137641716Y-89353429D01*
X137665671Y-89322630D01*
X137676016Y-89285008D01*
X137671985Y-89252765D01*
X138086478Y-89252765D01*
X138091317Y-89291481D01*
X138110605Y-89325399D01*
X138141404Y-89349354D01*
X138179026Y-89359699D01*
X138198622Y-89359186D01*
X138419552Y-89331569D01*
X138419552Y-89456387D01*
X138421473Y-89475896D01*
X138436405Y-89511944D01*
X138463995Y-89539534D01*
X138500043Y-89554466D01*
X138539061Y-89554466D01*
X138575109Y-89539534D01*
X138602699Y-89511944D01*
X138617631Y-89475896D01*
X138619552Y-89456387D01*
X138619552Y-89306570D01*
X139031318Y-89255099D01*
X139068133Y-89268905D01*
X139086219Y-89302815D01*
X139086219Y-89373054D01*
X139088140Y-89392563D01*
X139103072Y-89428611D01*
X139130662Y-89456201D01*
X139166710Y-89471133D01*
X139205728Y-89471133D01*
X139241776Y-89456201D01*
X139269366Y-89428611D01*
X139284298Y-89392563D01*
X139286219Y-89373054D01*
X139286219Y-89277816D01*
X139284298Y-89258307D01*
X139282417Y-89253766D01*
X139281940Y-89248875D01*
X139274455Y-89230758D01*
X139226835Y-89141471D01*
X139220895Y-89132562D01*
X139219814Y-89130184D01*
X139218474Y-89128932D01*
X139215960Y-89125161D01*
X139203279Y-89114735D01*
X139191304Y-89103546D01*
X139187240Y-89101548D01*
X139185821Y-89100381D01*
X139183315Y-89099618D01*
X139173712Y-89094897D01*
X139078473Y-89059183D01*
X139059531Y-89054132D01*
X139054962Y-89054287D01*
X139050554Y-89053075D01*
X139030957Y-89053588D01*
X138619552Y-89105013D01*
X138619552Y-89075435D01*
X138617631Y-89055926D01*
X138602699Y-89019878D01*
X138575109Y-88992288D01*
X138539061Y-88977356D01*
X138500043Y-88977356D01*
X138463995Y-88992288D01*
X138436405Y-89019878D01*
X138421473Y-89055926D01*
X138419552Y-89075435D01*
X138419552Y-89130013D01*
X138173816Y-89160730D01*
X138154696Y-89165056D01*
X138120778Y-89184344D01*
X138096823Y-89215143D01*
X138086478Y-89252765D01*
X137671985Y-89252765D01*
X137671176Y-89246292D01*
X137663315Y-89232469D01*
X137666757Y-89225157D01*
X137673326Y-89206686D01*
X137673438Y-89204295D01*
X137674354Y-89202086D01*
X137676275Y-89182577D01*
X137676275Y-88944481D01*
X137674354Y-88924972D01*
X137672473Y-88920431D01*
X137671996Y-88915540D01*
X137664510Y-88897422D01*
X137616891Y-88808137D01*
X137610951Y-88799229D01*
X137609870Y-88796851D01*
X137608530Y-88795599D01*
X137606015Y-88791827D01*
X137593344Y-88781409D01*
X137581361Y-88770212D01*
X137577293Y-88768212D01*
X137575876Y-88767047D01*
X137573374Y-88766285D01*
X137563768Y-88761563D01*
X137468530Y-88725848D01*
X137449588Y-88720797D01*
X137445018Y-88720952D01*
X137440610Y-88719740D01*
X137421013Y-88720253D01*
X137325775Y-88732158D01*
X137306655Y-88736484D01*
X137304819Y-88737527D01*
X137302740Y-88737876D01*
X137285179Y-88746586D01*
X137189941Y-88806110D01*
X137174415Y-88818079D01*
X137169176Y-88825424D01*
X137162504Y-88831496D01*
X137152459Y-88848330D01*
X137104840Y-88949522D01*
X137098271Y-88967992D01*
X137098158Y-88970382D01*
X137097243Y-88972592D01*
X137095322Y-88992101D01*
X137095322Y-89207841D01*
X137080665Y-89238987D01*
X137064508Y-89241007D01*
X137027693Y-89227201D01*
X137009608Y-89193291D01*
X137009608Y-89050168D01*
X137047709Y-88969203D01*
X137054278Y-88950733D01*
X137056116Y-88911758D01*
X137042900Y-88875046D01*
X137016641Y-88846187D01*
X136981337Y-88829573D01*
X136942362Y-88827735D01*
X136905650Y-88840951D01*
X136876790Y-88867210D01*
X136866745Y-88884044D01*
X136819126Y-88985236D01*
X136812557Y-89003706D01*
X136812444Y-89006096D01*
X136811529Y-89008306D01*
X136809608Y-89027815D01*
X136365164Y-89027815D01*
X136365164Y-88170672D01*
X136809608Y-88170672D01*
X136809608Y-88313529D01*
X136811529Y-88333038D01*
X136813409Y-88337578D01*
X136813887Y-88342470D01*
X136821373Y-88360588D01*
X136868992Y-88449874D01*
X136877085Y-88462011D01*
X136877960Y-88463781D01*
X136879011Y-88464901D01*
X136879867Y-88466184D01*
X136881396Y-88467441D01*
X136891377Y-88478073D01*
X136938996Y-88519739D01*
X136950645Y-88528067D01*
X136952141Y-88529465D01*
X136953611Y-88530187D01*
X136954943Y-88531140D01*
X136956881Y-88531795D01*
X136969733Y-88538114D01*
X137064971Y-88573829D01*
X137083912Y-88578880D01*
X137088482Y-88578724D01*
X137092891Y-88579937D01*
X137112488Y-88579424D01*
X137398202Y-88543709D01*
X137417322Y-88539383D01*
X137419155Y-88538340D01*
X137421236Y-88537992D01*
X137438797Y-88529281D01*
X137479238Y-88504006D01*
X138419552Y-88504006D01*
X138419552Y-88694482D01*
X138421473Y-88713991D01*
X138423353Y-88718531D01*
X138423831Y-88723423D01*
X138431317Y-88741541D01*
X138478936Y-88830827D01*
X138489811Y-88847137D01*
X138519950Y-88871917D01*
X138557278Y-88883278D01*
X138596112Y-88879489D01*
X138630540Y-88861128D01*
X138655320Y-88830989D01*
X138666681Y-88793661D01*
X138662892Y-88754827D01*
X138655407Y-88736710D01*
X138619552Y-88669482D01*
X138619552Y-88526359D01*
X138651503Y-88458461D01*
X138679979Y-88426425D01*
X138744321Y-88386211D01*
X138983698Y-88356289D01*
X139038826Y-88376962D01*
X139058977Y-88394593D01*
X139086219Y-88445672D01*
X139086219Y-88588794D01*
X139048118Y-88669759D01*
X139041549Y-88688229D01*
X139039711Y-88727204D01*
X139052927Y-88763916D01*
X139079186Y-88792776D01*
X139114490Y-88809390D01*
X139153465Y-88811228D01*
X139190177Y-88798012D01*
X139219037Y-88771753D01*
X139229082Y-88754919D01*
X139276701Y-88653729D01*
X139283270Y-88635258D01*
X139283382Y-88632867D01*
X139284298Y-88630658D01*
X139286219Y-88611149D01*
X139286219Y-88420673D01*
X139284298Y-88401164D01*
X139282417Y-88396623D01*
X139281940Y-88391732D01*
X139274455Y-88373615D01*
X139226835Y-88284328D01*
X139218740Y-88272187D01*
X139217867Y-88270422D01*
X139216817Y-88269303D01*
X139215960Y-88268018D01*
X139214427Y-88266758D01*
X139204450Y-88256129D01*
X139156830Y-88214462D01*
X139145176Y-88206130D01*
X139143684Y-88204736D01*
X139142217Y-88204014D01*
X139140883Y-88203061D01*
X139138941Y-88202404D01*
X139126092Y-88196087D01*
X139030854Y-88160373D01*
X139011913Y-88155322D01*
X139007343Y-88155477D01*
X139002935Y-88154265D01*
X138983338Y-88154778D01*
X138697625Y-88190492D01*
X138678505Y-88194818D01*
X138676669Y-88195861D01*
X138674589Y-88196210D01*
X138657028Y-88204920D01*
X138561790Y-88264444D01*
X138556555Y-88268479D01*
X138554446Y-88269502D01*
X138550508Y-88273141D01*
X138546264Y-88276413D01*
X138544903Y-88278320D01*
X138540049Y-88282807D01*
X138492430Y-88336378D01*
X138488481Y-88341810D01*
X138486734Y-88343401D01*
X138484018Y-88347952D01*
X138480905Y-88352236D01*
X138480131Y-88354466D01*
X138476689Y-88360235D01*
X138429070Y-88461427D01*
X138422501Y-88479897D01*
X138422388Y-88482287D01*
X138421473Y-88484497D01*
X138419552Y-88504006D01*
X137479238Y-88504006D01*
X137534036Y-88469758D01*
X137539269Y-88465723D01*
X137541380Y-88464700D01*
X137545321Y-88461057D01*
X137549561Y-88457789D01*
X137550919Y-88455883D01*
X137555777Y-88451395D01*
X137603396Y-88397823D01*
X137607343Y-88392391D01*
X137609093Y-88390800D01*
X137611810Y-88386246D01*
X137614922Y-88381965D01*
X137615695Y-88379734D01*
X137619138Y-88373966D01*
X137666757Y-88272776D01*
X137673326Y-88254305D01*
X137673438Y-88251914D01*
X137674354Y-88249705D01*
X137676275Y-88230196D01*
X137676275Y-88087339D01*
X137674354Y-88067830D01*
X137672473Y-88063289D01*
X137671996Y-88058398D01*
X137664511Y-88040281D01*
X137616891Y-87950994D01*
X137608796Y-87938853D01*
X137607923Y-87937088D01*
X137606873Y-87935969D01*
X137606016Y-87934684D01*
X137604483Y-87933424D01*
X137594506Y-87922795D01*
X137546886Y-87881128D01*
X137535232Y-87872796D01*
X137533740Y-87871402D01*
X137532273Y-87870680D01*
X137530939Y-87869727D01*
X137528997Y-87869070D01*
X137516148Y-87862753D01*
X137420910Y-87827039D01*
X137401969Y-87821988D01*
X137397399Y-87822143D01*
X137392991Y-87820931D01*
X137373394Y-87821444D01*
X137087681Y-87857158D01*
X137068561Y-87861484D01*
X137066725Y-87862527D01*
X137064645Y-87862876D01*
X137047084Y-87871586D01*
X136951846Y-87931110D01*
X136946611Y-87935145D01*
X136944502Y-87936168D01*
X136940564Y-87939807D01*
X136936320Y-87943079D01*
X136934959Y-87944986D01*
X136930105Y-87949473D01*
X136882486Y-88003044D01*
X136878537Y-88008476D01*
X136876790Y-88010067D01*
X136874074Y-88014618D01*
X136870961Y-88018902D01*
X136870187Y-88021132D01*
X136866745Y-88026901D01*
X136819126Y-88128093D01*
X136812557Y-88146563D01*
X136812444Y-88148953D01*
X136811529Y-88151163D01*
X136809608Y-88170672D01*
X136365164Y-88170672D01*
X136365164Y-87069481D01*
X136476275Y-87069481D01*
X136476275Y-87402815D01*
X136478196Y-87422324D01*
X136480076Y-87426864D01*
X136480554Y-87431756D01*
X136488040Y-87449874D01*
X136535659Y-87539159D01*
X136543747Y-87551289D01*
X136544626Y-87553065D01*
X136545682Y-87554190D01*
X136546535Y-87555469D01*
X136548059Y-87556722D01*
X136558043Y-87567357D01*
X136605662Y-87609024D01*
X136617318Y-87617358D01*
X136618809Y-87618751D01*
X136620272Y-87619470D01*
X136621609Y-87620426D01*
X136623553Y-87621083D01*
X136636401Y-87627400D01*
X136731639Y-87663114D01*
X136750580Y-87668165D01*
X136755148Y-87668009D01*
X136759557Y-87669222D01*
X136779154Y-87668709D01*
X136874392Y-87656805D01*
X136893512Y-87652479D01*
X136895345Y-87651436D01*
X136897427Y-87651088D01*
X136914989Y-87642377D01*
X137010227Y-87582853D01*
X137015462Y-87578816D01*
X137017572Y-87577794D01*
X137021510Y-87574154D01*
X137025752Y-87570884D01*
X137027111Y-87568977D01*
X137031968Y-87564489D01*
X137037476Y-87558291D01*
X137081853Y-87597120D01*
X137093502Y-87605448D01*
X137094998Y-87606846D01*
X137096468Y-87607568D01*
X137097800Y-87608521D01*
X137099738Y-87609176D01*
X137112590Y-87615495D01*
X137207828Y-87651210D01*
X137226769Y-87656261D01*
X137231339Y-87656105D01*
X137235748Y-87657318D01*
X137255345Y-87656805D01*
X137398202Y-87638947D01*
X137417322Y-87634621D01*
X137419155Y-87633578D01*
X137421236Y-87633230D01*
X137438797Y-87624519D01*
X137479238Y-87599244D01*
X138419552Y-87599244D01*
X138419552Y-87789720D01*
X138421473Y-87809229D01*
X138423353Y-87813769D01*
X138423831Y-87818661D01*
X138431317Y-87836779D01*
X138478936Y-87926065D01*
X138484875Y-87934973D01*
X138485957Y-87937352D01*
X138487296Y-87938603D01*
X138489811Y-87942375D01*
X138502491Y-87952800D01*
X138514467Y-87963990D01*
X138518530Y-87965987D01*
X138519950Y-87967155D01*
X138522455Y-87967917D01*
X138532059Y-87972639D01*
X138627297Y-88008353D01*
X138646238Y-88013404D01*
X138650807Y-88013248D01*
X138655216Y-88014461D01*
X138674813Y-88013948D01*
X138770051Y-88002043D01*
X138789171Y-87997717D01*
X138792500Y-87995823D01*
X138796252Y-87995063D01*
X138809351Y-87986240D01*
X138823088Y-87978429D01*
X138825439Y-87975405D01*
X138828615Y-87973267D01*
X138837342Y-87960102D01*
X138847043Y-87947630D01*
X138848058Y-87943937D01*
X138850174Y-87940746D01*
X138855796Y-87921966D01*
X138937162Y-87504963D01*
X139031317Y-87493194D01*
X139068133Y-87507000D01*
X139086219Y-87540909D01*
X139086219Y-87684032D01*
X139048118Y-87764997D01*
X139041549Y-87783467D01*
X139039711Y-87822442D01*
X139052927Y-87859154D01*
X139079186Y-87888014D01*
X139114490Y-87904628D01*
X139153465Y-87906466D01*
X139190177Y-87893250D01*
X139219037Y-87866991D01*
X139229082Y-87850157D01*
X139276701Y-87748967D01*
X139283270Y-87730496D01*
X139283382Y-87728105D01*
X139284298Y-87725896D01*
X139286219Y-87706387D01*
X139286219Y-87515910D01*
X139284298Y-87496401D01*
X139282417Y-87491860D01*
X139281940Y-87486969D01*
X139274454Y-87468851D01*
X139226835Y-87379566D01*
X139220895Y-87370658D01*
X139219814Y-87368280D01*
X139218474Y-87367028D01*
X139215959Y-87363256D01*
X139203288Y-87352838D01*
X139191305Y-87341641D01*
X139187237Y-87339641D01*
X139185820Y-87338476D01*
X139183318Y-87337714D01*
X139173712Y-87332992D01*
X139078474Y-87297277D01*
X139059532Y-87292226D01*
X139054962Y-87292381D01*
X139050554Y-87291169D01*
X139030957Y-87291682D01*
X138650005Y-87339302D01*
X138630885Y-87343628D01*
X138629051Y-87344670D01*
X138626972Y-87345019D01*
X138609410Y-87353730D01*
X138514172Y-87413253D01*
X138498646Y-87425222D01*
X138493408Y-87432565D01*
X138486734Y-87438639D01*
X138476689Y-87455473D01*
X138429070Y-87556665D01*
X138422501Y-87575135D01*
X138422388Y-87577525D01*
X138421473Y-87579735D01*
X138419552Y-87599244D01*
X137479238Y-87599244D01*
X137534036Y-87564996D01*
X137539269Y-87560961D01*
X137541380Y-87559938D01*
X137545321Y-87556295D01*
X137549561Y-87553027D01*
X137550919Y-87551121D01*
X137555777Y-87546633D01*
X137603396Y-87493061D01*
X137607343Y-87487629D01*
X137609093Y-87486038D01*
X137611810Y-87481484D01*
X137614922Y-87477203D01*
X137615695Y-87474972D01*
X137619138Y-87469204D01*
X137666757Y-87368014D01*
X137673326Y-87349543D01*
X137673438Y-87347152D01*
X137674354Y-87344943D01*
X137676275Y-87325434D01*
X137676275Y-87062288D01*
X138086478Y-87062288D01*
X138088498Y-87078453D01*
X138089455Y-87094716D01*
X138089628Y-87095073D01*
X138089655Y-87095472D01*
X138090953Y-87098098D01*
X138091317Y-87101005D01*
X138099367Y-87115162D01*
X138106477Y-87129826D01*
X138106774Y-87130090D01*
X138106951Y-87130447D01*
X138109763Y-87133442D01*
X138110605Y-87134923D01*
X138112635Y-87136502D01*
X138120368Y-87144739D01*
X138167987Y-87186406D01*
X138182743Y-87196956D01*
X138183259Y-87197415D01*
X138183502Y-87197499D01*
X138183934Y-87197808D01*
X138202088Y-87203947D01*
X138220122Y-87210204D01*
X138220519Y-87210180D01*
X138220896Y-87210308D01*
X138239978Y-87209036D01*
X138259072Y-87207913D01*
X138259429Y-87207739D01*
X138259828Y-87207713D01*
X138276985Y-87199228D01*
X138294182Y-87190891D01*
X138294570Y-87190531D01*
X138294803Y-87190417D01*
X138295259Y-87189894D01*
X138308579Y-87177586D01*
X138356198Y-87124014D01*
X138367723Y-87108157D01*
X138367852Y-87107782D01*
X138368116Y-87107482D01*
X138369054Y-87104705D01*
X138370853Y-87102394D01*
X138375173Y-87086682D01*
X138380512Y-87071294D01*
X138380488Y-87070896D01*
X138380616Y-87070520D01*
X138380421Y-87067597D01*
X138381198Y-87064772D01*
X138379177Y-87048606D01*
X138378221Y-87032343D01*
X138378047Y-87031984D01*
X138378021Y-87031589D01*
X138376722Y-87028963D01*
X138376359Y-87026055D01*
X138373270Y-87020623D01*
X138419811Y-87020623D01*
X138424650Y-87059340D01*
X138443938Y-87093257D01*
X138474737Y-87117212D01*
X138512359Y-87127557D01*
X138531955Y-87127044D01*
X139389098Y-87019901D01*
X139408218Y-87015575D01*
X139410051Y-87014532D01*
X139412133Y-87014184D01*
X139429695Y-87005473D01*
X139524933Y-86945949D01*
X139540458Y-86933980D01*
X139545694Y-86926636D01*
X139552370Y-86920563D01*
X139562415Y-86903729D01*
X139610034Y-86802539D01*
X139616603Y-86784068D01*
X139616715Y-86781677D01*
X139617631Y-86779468D01*
X139619552Y-86759959D01*
X139619552Y-86712340D01*
X139617631Y-86692831D01*
X139602699Y-86656783D01*
X139575109Y-86629193D01*
X139539061Y-86614261D01*
X139500043Y-86614261D01*
X139463995Y-86629193D01*
X139436405Y-86656783D01*
X139421473Y-86692831D01*
X139419552Y-86712340D01*
X139419552Y-86737604D01*
X139393980Y-86791944D01*
X139342401Y-86824181D01*
X138507149Y-86928588D01*
X138488028Y-86932914D01*
X138454111Y-86952202D01*
X138430156Y-86983001D01*
X138419811Y-87020623D01*
X138373270Y-87020623D01*
X138368309Y-87011900D01*
X138361199Y-86997234D01*
X138360901Y-86996969D01*
X138360725Y-86996613D01*
X138357912Y-86993617D01*
X138357071Y-86992137D01*
X138355040Y-86990557D01*
X138347308Y-86982321D01*
X138299689Y-86940654D01*
X138284932Y-86930103D01*
X138284417Y-86929645D01*
X138284173Y-86929560D01*
X138283742Y-86929252D01*
X138265607Y-86923119D01*
X138247555Y-86916856D01*
X138247156Y-86916879D01*
X138246780Y-86916752D01*
X138227693Y-86918024D01*
X138208604Y-86919147D01*
X138208246Y-86919320D01*
X138207848Y-86919347D01*
X138190690Y-86927831D01*
X138173494Y-86936169D01*
X138173105Y-86936528D01*
X138172873Y-86936643D01*
X138172416Y-86937165D01*
X138159097Y-86949474D01*
X138111478Y-87003045D01*
X138099953Y-87018903D01*
X138099823Y-87019277D01*
X138099560Y-87019578D01*
X138098621Y-87022354D01*
X138096823Y-87024666D01*
X138092502Y-87040377D01*
X138087164Y-87055766D01*
X138087187Y-87056163D01*
X138087060Y-87056540D01*
X138087254Y-87059462D01*
X138086478Y-87062288D01*
X137676275Y-87062288D01*
X137676275Y-86944481D01*
X137674354Y-86924972D01*
X137671954Y-86919179D01*
X137671177Y-86912957D01*
X137664550Y-86901303D01*
X137659422Y-86888924D01*
X137654988Y-86884490D01*
X137651889Y-86879040D01*
X137641309Y-86870811D01*
X137631832Y-86861334D01*
X137626039Y-86858934D01*
X137621090Y-86855085D01*
X137608168Y-86851531D01*
X137595784Y-86846402D01*
X137589512Y-86846402D01*
X137583468Y-86844740D01*
X137563871Y-86845253D01*
X136563872Y-86970253D01*
X136558793Y-86971402D01*
X136556766Y-86971402D01*
X136554325Y-86972412D01*
X136544751Y-86974579D01*
X136533097Y-86981205D01*
X136520718Y-86986334D01*
X136516284Y-86990767D01*
X136510834Y-86993867D01*
X136502605Y-87004446D01*
X136493128Y-87013924D01*
X136490728Y-87019716D01*
X136486879Y-87024666D01*
X136483325Y-87037587D01*
X136478196Y-87049972D01*
X136477233Y-87059742D01*
X136476534Y-87062288D01*
X136476785Y-87064298D01*
X136476275Y-87069481D01*
X136365164Y-87069481D01*
X136365164Y-85754005D01*
X137095322Y-85754005D01*
X137095322Y-86515910D01*
X137097243Y-86535419D01*
X137112175Y-86571467D01*
X137139765Y-86599057D01*
X137175813Y-86613989D01*
X137214831Y-86613989D01*
X137250879Y-86599057D01*
X137278469Y-86571467D01*
X137293401Y-86535419D01*
X137295322Y-86515910D01*
X137295322Y-86265911D01*
X138419552Y-86265911D01*
X138419552Y-86408768D01*
X138421473Y-86428277D01*
X138423353Y-86432817D01*
X138423831Y-86437709D01*
X138431317Y-86455827D01*
X138478936Y-86545113D01*
X138487029Y-86557250D01*
X138487904Y-86559020D01*
X138488955Y-86560140D01*
X138489811Y-86561423D01*
X138491340Y-86562680D01*
X138501321Y-86573312D01*
X138548940Y-86614978D01*
X138560589Y-86623306D01*
X138562085Y-86624704D01*
X138563555Y-86625426D01*
X138564887Y-86626379D01*
X138566825Y-86627034D01*
X138579677Y-86633353D01*
X138674915Y-86669068D01*
X138693856Y-86674119D01*
X138698426Y-86673963D01*
X138702835Y-86675176D01*
X138722432Y-86674663D01*
X139008146Y-86638948D01*
X139027266Y-86634622D01*
X139029099Y-86633579D01*
X139031180Y-86633231D01*
X139048741Y-86624520D01*
X139143980Y-86564997D01*
X139149213Y-86560962D01*
X139151324Y-86559939D01*
X139155265Y-86556296D01*
X139159505Y-86553028D01*
X139160863Y-86551122D01*
X139165721Y-86546634D01*
X139213340Y-86493062D01*
X139217287Y-86487630D01*
X139219037Y-86486039D01*
X139221754Y-86481485D01*
X139224866Y-86477204D01*
X139225639Y-86474973D01*
X139229082Y-86469205D01*
X139276701Y-86368015D01*
X139283270Y-86349544D01*
X139283382Y-86347153D01*
X139284298Y-86344944D01*
X139286219Y-86325435D01*
X139286219Y-86182578D01*
X139284298Y-86163069D01*
X139282417Y-86158528D01*
X139281940Y-86153637D01*
X139274455Y-86135520D01*
X139226835Y-86046233D01*
X139218740Y-86034092D01*
X139217867Y-86032327D01*
X139216817Y-86031208D01*
X139215960Y-86029923D01*
X139214427Y-86028663D01*
X139204450Y-86018034D01*
X139156830Y-85976367D01*
X139145176Y-85968035D01*
X139143684Y-85966641D01*
X139142217Y-85965919D01*
X139140883Y-85964966D01*
X139138941Y-85964309D01*
X139126092Y-85957992D01*
X139030854Y-85922278D01*
X139011913Y-85917227D01*
X139007343Y-85917382D01*
X139002935Y-85916170D01*
X138983338Y-85916683D01*
X138697625Y-85952397D01*
X138678505Y-85956723D01*
X138676669Y-85957766D01*
X138674589Y-85958115D01*
X138657028Y-85966825D01*
X138561790Y-86026349D01*
X138556555Y-86030384D01*
X138554446Y-86031407D01*
X138550508Y-86035046D01*
X138546264Y-86038318D01*
X138544903Y-86040225D01*
X138540049Y-86044712D01*
X138492430Y-86098283D01*
X138488481Y-86103715D01*
X138486734Y-86105306D01*
X138484018Y-86109857D01*
X138480905Y-86114141D01*
X138480131Y-86116371D01*
X138476689Y-86122140D01*
X138429070Y-86223332D01*
X138422501Y-86241802D01*
X138422388Y-86244192D01*
X138421473Y-86246402D01*
X138419552Y-86265911D01*
X137295322Y-86265911D01*
X137295322Y-85754005D01*
X137293401Y-85734496D01*
X137278469Y-85698448D01*
X137274503Y-85694482D01*
X138419552Y-85694482D01*
X138419552Y-85789720D01*
X138421473Y-85809229D01*
X138436405Y-85845277D01*
X138463995Y-85872867D01*
X138500043Y-85887799D01*
X138539061Y-85887799D01*
X138575109Y-85872867D01*
X138602699Y-85845277D01*
X138617631Y-85809229D01*
X138619552Y-85789720D01*
X138619552Y-85716835D01*
X138651503Y-85648937D01*
X138679979Y-85616901D01*
X138744320Y-85576688D01*
X139198622Y-85519900D01*
X139217742Y-85515574D01*
X139251660Y-85496286D01*
X139275615Y-85465487D01*
X139285960Y-85427865D01*
X139281121Y-85389148D01*
X139261833Y-85355231D01*
X139231034Y-85331276D01*
X139193412Y-85320931D01*
X139173815Y-85321444D01*
X138507148Y-85404778D01*
X138488028Y-85409104D01*
X138454111Y-85428392D01*
X138430156Y-85459191D01*
X138419811Y-85496813D01*
X138424650Y-85535530D01*
X138443938Y-85569447D01*
X138461459Y-85583074D01*
X138429070Y-85651903D01*
X138422501Y-85670373D01*
X138422388Y-85672763D01*
X138421473Y-85674973D01*
X138419552Y-85694482D01*
X137274503Y-85694482D01*
X137250879Y-85670858D01*
X137214831Y-85655926D01*
X137175813Y-85655926D01*
X137139765Y-85670858D01*
X137112175Y-85698448D01*
X137097243Y-85734496D01*
X137095322Y-85754005D01*
X136365164Y-85754005D01*
X136365164Y-84974244D01*
X136476275Y-84974244D01*
X136476275Y-85164720D01*
X136478196Y-85184229D01*
X136480076Y-85188769D01*
X136480554Y-85193661D01*
X136488040Y-85211779D01*
X136535659Y-85301064D01*
X136543747Y-85313194D01*
X136544626Y-85314970D01*
X136545682Y-85316095D01*
X136546535Y-85317374D01*
X136548059Y-85318627D01*
X136558043Y-85329262D01*
X136653281Y-85412597D01*
X136653580Y-85412811D01*
X136653691Y-85412953D01*
X136654120Y-85413197D01*
X136669228Y-85423998D01*
X136678815Y-85427240D01*
X136687609Y-85432241D01*
X136705716Y-85436338D01*
X136706190Y-85436498D01*
X136706370Y-85436485D01*
X136706729Y-85436567D01*
X136897205Y-85460376D01*
X136900901Y-85460472D01*
X136902415Y-85460889D01*
X136909608Y-85460700D01*
X136916801Y-85460889D01*
X136918314Y-85460472D01*
X136922011Y-85460376D01*
X137255344Y-85418710D01*
X137257926Y-85418125D01*
X137259112Y-85418166D01*
X137266748Y-85416129D01*
X137274464Y-85414384D01*
X137275496Y-85413797D01*
X137278054Y-85413115D01*
X137468530Y-85341686D01*
X137486122Y-85333037D01*
X137489544Y-85329839D01*
X137493761Y-85327795D01*
X137508158Y-85314490D01*
X137603397Y-85207347D01*
X137607345Y-85201914D01*
X137609093Y-85200324D01*
X137611808Y-85195772D01*
X137614922Y-85191489D01*
X137615695Y-85189258D01*
X137619138Y-85183490D01*
X137666757Y-85082300D01*
X137673326Y-85063829D01*
X137673438Y-85061438D01*
X137674354Y-85059229D01*
X137676275Y-85039720D01*
X137676275Y-84849244D01*
X137674354Y-84829735D01*
X137672473Y-84825194D01*
X137671996Y-84820303D01*
X137664511Y-84802186D01*
X137616891Y-84712899D01*
X137608798Y-84700761D01*
X137607923Y-84698992D01*
X137606871Y-84697871D01*
X137606016Y-84696589D01*
X137604486Y-84695331D01*
X137594506Y-84684700D01*
X137499267Y-84601367D01*
X137498969Y-84601154D01*
X137498858Y-84601011D01*
X137498423Y-84600763D01*
X137483320Y-84589966D01*
X137473735Y-84586724D01*
X137464940Y-84581723D01*
X137446829Y-84577625D01*
X137446358Y-84577466D01*
X137446178Y-84577478D01*
X137445820Y-84577397D01*
X137255345Y-84553587D01*
X137251647Y-84553490D01*
X137250134Y-84553074D01*
X137242941Y-84553262D01*
X137235748Y-84553074D01*
X137234234Y-84553490D01*
X137230537Y-84553587D01*
X136897204Y-84595254D01*
X136894621Y-84595838D01*
X136893437Y-84595798D01*
X136885808Y-84597832D01*
X136878084Y-84599580D01*
X136877050Y-84600167D01*
X136874496Y-84600849D01*
X136684020Y-84672277D01*
X136666428Y-84680926D01*
X136663004Y-84684124D01*
X136658788Y-84686169D01*
X136644391Y-84699474D01*
X136549153Y-84806617D01*
X136545205Y-84812047D01*
X136543457Y-84813639D01*
X136540740Y-84818192D01*
X136537628Y-84822474D01*
X136536854Y-84824704D01*
X136533412Y-84830473D01*
X136485793Y-84931665D01*
X136479224Y-84950135D01*
X136479111Y-84952525D01*
X136478196Y-84954735D01*
X136476275Y-84974244D01*
X136365164Y-84974244D01*
X136365164Y-84545672D01*
X138086219Y-84545672D01*
X138086219Y-84926625D01*
X138088140Y-84946134D01*
X138090020Y-84950674D01*
X138090498Y-84955566D01*
X138097984Y-84973684D01*
X138145603Y-85062969D01*
X138153691Y-85075099D01*
X138154570Y-85076875D01*
X138155626Y-85078000D01*
X138156479Y-85079279D01*
X138158003Y-85080532D01*
X138167987Y-85091167D01*
X138215606Y-85132834D01*
X138227262Y-85141168D01*
X138228753Y-85142561D01*
X138230216Y-85143280D01*
X138231553Y-85144236D01*
X138233497Y-85144893D01*
X138246345Y-85151210D01*
X138341583Y-85186924D01*
X138360524Y-85191975D01*
X138365093Y-85191819D01*
X138369502Y-85193032D01*
X138389098Y-85192519D01*
X138531956Y-85174662D01*
X138551076Y-85170336D01*
X138552909Y-85169293D01*
X138554990Y-85168945D01*
X138572552Y-85160234D01*
X138667790Y-85100710D01*
X138673023Y-85096675D01*
X138675134Y-85095652D01*
X138679075Y-85092009D01*
X138683315Y-85088741D01*
X138684673Y-85086836D01*
X138689531Y-85082347D01*
X138737150Y-85028775D01*
X138741097Y-85023344D01*
X138742846Y-85021753D01*
X138745562Y-85017199D01*
X138748675Y-85012918D01*
X138749448Y-85010687D01*
X138752891Y-85004919D01*
X138800510Y-84903729D01*
X138807079Y-84885258D01*
X138807191Y-84882867D01*
X138808107Y-84880658D01*
X138810028Y-84861149D01*
X138810028Y-84568474D01*
X139198622Y-84519900D01*
X139217742Y-84515574D01*
X139251660Y-84496286D01*
X139275615Y-84465487D01*
X139285960Y-84427865D01*
X139281121Y-84389148D01*
X139261833Y-84355231D01*
X139231034Y-84331276D01*
X139193412Y-84320931D01*
X139173815Y-84321444D01*
X138173816Y-84446444D01*
X138168737Y-84447593D01*
X138166710Y-84447593D01*
X138164269Y-84448603D01*
X138154695Y-84450770D01*
X138143041Y-84457396D01*
X138130662Y-84462525D01*
X138126228Y-84466958D01*
X138120778Y-84470058D01*
X138112549Y-84480637D01*
X138103072Y-84490115D01*
X138100672Y-84495907D01*
X138096823Y-84500857D01*
X138093269Y-84513778D01*
X138088140Y-84526163D01*
X138087177Y-84535933D01*
X138086478Y-84538479D01*
X138086729Y-84540489D01*
X138086219Y-84545672D01*
X136365164Y-84545672D01*
X136365164Y-84300384D01*
X136476534Y-84300384D01*
X136481373Y-84339101D01*
X136500661Y-84373018D01*
X136531460Y-84396973D01*
X136569082Y-84407318D01*
X136588678Y-84406805D01*
X137588678Y-84281805D01*
X137607798Y-84277479D01*
X137641716Y-84258191D01*
X137665671Y-84227392D01*
X137676016Y-84189770D01*
X137671177Y-84151053D01*
X137651889Y-84117136D01*
X137621090Y-84093181D01*
X137583468Y-84082836D01*
X137563871Y-84083349D01*
X136563872Y-84208349D01*
X136544751Y-84212675D01*
X136510834Y-84231963D01*
X136486879Y-84262762D01*
X136476534Y-84300384D01*
X136365164Y-84300384D01*
X136365164Y-82992101D01*
X137095322Y-82992101D01*
X137095322Y-83754006D01*
X137097243Y-83773515D01*
X137112175Y-83809563D01*
X137139765Y-83837153D01*
X137175813Y-83852085D01*
X137214831Y-83852085D01*
X137250879Y-83837153D01*
X137278469Y-83809563D01*
X137293401Y-83773515D01*
X137295322Y-83754006D01*
X137295322Y-83230196D01*
X138705266Y-83230196D01*
X138705266Y-83992101D01*
X138707187Y-84011610D01*
X138722119Y-84047658D01*
X138749709Y-84075248D01*
X138785757Y-84090180D01*
X138824775Y-84090180D01*
X138860823Y-84075248D01*
X138888413Y-84047658D01*
X138903345Y-84011610D01*
X138905266Y-83992101D01*
X138905266Y-83230196D01*
X138903345Y-83210687D01*
X138888413Y-83174639D01*
X138860823Y-83147049D01*
X138824775Y-83132117D01*
X138785757Y-83132117D01*
X138749709Y-83147049D01*
X138722119Y-83174639D01*
X138707187Y-83210687D01*
X138705266Y-83230196D01*
X137295322Y-83230196D01*
X137295322Y-82992101D01*
X137293401Y-82972592D01*
X137278469Y-82936544D01*
X137250879Y-82908954D01*
X137214831Y-82894022D01*
X137175813Y-82894022D01*
X137139765Y-82908954D01*
X137112175Y-82936544D01*
X137097243Y-82972592D01*
X137095322Y-82992101D01*
X136365164Y-82992101D01*
X136365164Y-82021863D01*
X136476275Y-82021863D01*
X136476275Y-82640911D01*
X136478196Y-82660420D01*
X136493128Y-82696468D01*
X136520718Y-82724058D01*
X136556766Y-82738990D01*
X136595784Y-82738990D01*
X136631832Y-82724058D01*
X136646986Y-82711622D01*
X136882814Y-82475792D01*
X136916611Y-82539160D01*
X136924699Y-82551290D01*
X136925578Y-82553066D01*
X136926634Y-82554191D01*
X136927487Y-82555470D01*
X136929011Y-82556723D01*
X136938995Y-82567358D01*
X136986614Y-82609025D01*
X136998270Y-82617359D01*
X136999761Y-82618752D01*
X137001224Y-82619471D01*
X137002561Y-82620427D01*
X137004505Y-82621084D01*
X137017353Y-82627401D01*
X137112591Y-82663115D01*
X137131532Y-82668166D01*
X137136101Y-82668010D01*
X137140510Y-82669223D01*
X137160107Y-82668710D01*
X137398202Y-82638948D01*
X137417322Y-82634622D01*
X137419155Y-82633579D01*
X137421236Y-82633231D01*
X137438797Y-82624520D01*
X137534036Y-82564997D01*
X137539269Y-82560962D01*
X137541380Y-82559939D01*
X137545321Y-82556296D01*
X137549561Y-82553028D01*
X137550919Y-82551122D01*
X137555777Y-82546634D01*
X137603396Y-82493062D01*
X137607343Y-82487630D01*
X137609093Y-82486039D01*
X137611810Y-82481485D01*
X137614922Y-82477204D01*
X137615695Y-82474973D01*
X137619138Y-82469205D01*
X137666757Y-82368015D01*
X137673326Y-82349544D01*
X137673438Y-82347153D01*
X137674354Y-82344944D01*
X137676275Y-82325435D01*
X137676275Y-82300384D01*
X138086478Y-82300384D01*
X138091317Y-82339101D01*
X138110605Y-82373018D01*
X138141404Y-82396973D01*
X138179026Y-82407318D01*
X138198622Y-82406805D01*
X138506349Y-82368339D01*
X138111478Y-82812570D01*
X138099953Y-82828427D01*
X138087164Y-82865290D01*
X138089455Y-82904241D01*
X138106478Y-82939350D01*
X138135640Y-82965272D01*
X138172503Y-82978061D01*
X138211454Y-82975770D01*
X138246563Y-82958747D01*
X138260960Y-82945442D01*
X138633416Y-82526429D01*
X139133219Y-82838806D01*
X139150781Y-82847516D01*
X139189263Y-82853960D01*
X139227282Y-82845186D01*
X139259050Y-82822531D01*
X139279729Y-82789444D01*
X139286172Y-82750961D01*
X139277399Y-82712942D01*
X139254744Y-82681175D01*
X139239219Y-82669206D01*
X138768187Y-82374811D01*
X138807389Y-82330709D01*
X139198622Y-82281805D01*
X139217742Y-82277479D01*
X139251660Y-82258191D01*
X139275615Y-82227392D01*
X139285960Y-82189770D01*
X139281121Y-82151053D01*
X139261833Y-82117136D01*
X139231034Y-82093181D01*
X139193412Y-82082836D01*
X139173815Y-82083349D01*
X138173816Y-82208349D01*
X138154695Y-82212675D01*
X138120778Y-82231963D01*
X138096823Y-82262762D01*
X138086478Y-82300384D01*
X137676275Y-82300384D01*
X137676275Y-82039720D01*
X137674354Y-82020211D01*
X137672473Y-82015670D01*
X137671996Y-82010779D01*
X137664510Y-81992661D01*
X137616891Y-81903376D01*
X137608798Y-81891240D01*
X137607923Y-81889470D01*
X137606870Y-81888348D01*
X137606015Y-81887066D01*
X137604487Y-81885809D01*
X137594506Y-81875177D01*
X137546886Y-81833510D01*
X137530939Y-81822109D01*
X137493977Y-81809609D01*
X137455045Y-81812205D01*
X137420070Y-81829501D01*
X137394377Y-81858865D01*
X137381877Y-81895827D01*
X137384473Y-81934759D01*
X137401769Y-81969734D01*
X137415186Y-81984026D01*
X137449033Y-82013642D01*
X137476275Y-82064719D01*
X137476275Y-82303080D01*
X137444322Y-82370979D01*
X137415843Y-82403017D01*
X137351506Y-82443228D01*
X137159745Y-82467198D01*
X137104618Y-82446525D01*
X137084468Y-82428894D01*
X137057227Y-82377816D01*
X137057227Y-82259959D01*
X137055306Y-82240450D01*
X137040374Y-82204402D01*
X137012784Y-82176812D01*
X136976736Y-82161880D01*
X136937718Y-82161880D01*
X136912227Y-82172438D01*
X136901669Y-82176812D01*
X136886516Y-82189249D01*
X136676275Y-82399489D01*
X136676275Y-82021863D01*
X136674354Y-82002354D01*
X136659422Y-81966306D01*
X136631832Y-81938716D01*
X136595784Y-81923784D01*
X136556766Y-81923784D01*
X136520718Y-81938716D01*
X136493128Y-81966306D01*
X136478196Y-82002354D01*
X136476275Y-82021863D01*
X136365164Y-82021863D01*
X136365164Y-81307578D01*
X136476275Y-81307578D01*
X136476275Y-81545673D01*
X136477380Y-81556896D01*
X136477231Y-81559468D01*
X136477911Y-81562289D01*
X136478196Y-81565182D01*
X136479182Y-81567563D01*
X136481825Y-81578525D01*
X136529444Y-81715430D01*
X136537668Y-81733225D01*
X136563613Y-81762367D01*
X136598736Y-81779362D01*
X136637689Y-81781622D01*
X136674541Y-81768804D01*
X136703683Y-81742858D01*
X136720678Y-81707736D01*
X136722938Y-81668783D01*
X136718344Y-81649726D01*
X136676275Y-81528777D01*
X136676275Y-81329931D01*
X136708226Y-81262033D01*
X136736702Y-81229997D01*
X136801044Y-81189783D01*
X136849946Y-81183670D01*
X136905073Y-81204343D01*
X136925222Y-81221974D01*
X136958616Y-81284587D01*
X137003256Y-81457565D01*
X137004239Y-81460253D01*
X137004363Y-81461519D01*
X137007323Y-81468685D01*
X137009991Y-81475976D01*
X137010756Y-81476992D01*
X137011849Y-81479637D01*
X137059468Y-81568922D01*
X137067556Y-81581052D01*
X137068435Y-81582828D01*
X137069491Y-81583953D01*
X137070344Y-81585232D01*
X137071868Y-81586485D01*
X137081852Y-81597120D01*
X137129471Y-81638787D01*
X137141127Y-81647121D01*
X137142618Y-81648514D01*
X137144081Y-81649233D01*
X137145418Y-81650189D01*
X137147362Y-81650846D01*
X137160210Y-81657163D01*
X137255448Y-81692877D01*
X137274389Y-81697928D01*
X137278958Y-81697772D01*
X137283367Y-81698985D01*
X137302964Y-81698472D01*
X137398202Y-81686567D01*
X137417322Y-81682241D01*
X137419155Y-81681198D01*
X137421236Y-81680850D01*
X137438797Y-81672139D01*
X137534036Y-81612616D01*
X137539269Y-81608581D01*
X137541380Y-81607558D01*
X137545321Y-81603915D01*
X137549561Y-81600647D01*
X137550919Y-81598741D01*
X137555777Y-81594253D01*
X137603396Y-81540681D01*
X137607343Y-81535249D01*
X137609093Y-81533658D01*
X137611810Y-81529104D01*
X137614922Y-81524823D01*
X137615695Y-81522592D01*
X137619138Y-81516824D01*
X137666757Y-81415634D01*
X137673326Y-81397163D01*
X137673438Y-81394772D01*
X137674354Y-81392563D01*
X137676275Y-81373054D01*
X137676275Y-81252765D01*
X138086478Y-81252765D01*
X138091317Y-81291482D01*
X138110605Y-81325399D01*
X138141404Y-81349354D01*
X138179026Y-81359699D01*
X138198622Y-81359186D01*
X138562409Y-81313712D01*
X138562409Y-81683584D01*
X138173816Y-81732159D01*
X138154695Y-81736485D01*
X138120778Y-81755773D01*
X138096823Y-81786572D01*
X138086478Y-81824194D01*
X138091317Y-81862911D01*
X138110605Y-81896828D01*
X138141404Y-81920783D01*
X138179026Y-81931128D01*
X138198622Y-81930615D01*
X139198622Y-81805615D01*
X139217742Y-81801289D01*
X139251660Y-81782001D01*
X139275615Y-81751202D01*
X139285960Y-81713580D01*
X139281121Y-81674863D01*
X139261833Y-81640946D01*
X139231034Y-81616991D01*
X139193412Y-81606646D01*
X139173815Y-81607159D01*
X138762409Y-81658584D01*
X138762409Y-81288712D01*
X139198622Y-81234186D01*
X139217742Y-81229860D01*
X139251660Y-81210572D01*
X139275615Y-81179773D01*
X139285960Y-81142151D01*
X139281121Y-81103434D01*
X139261833Y-81069517D01*
X139231034Y-81045562D01*
X139193412Y-81035217D01*
X139173815Y-81035730D01*
X138173816Y-81160730D01*
X138154695Y-81165056D01*
X138120778Y-81184344D01*
X138096823Y-81215143D01*
X138086478Y-81252765D01*
X137676275Y-81252765D01*
X137676275Y-81134958D01*
X137675169Y-81123734D01*
X137675319Y-81121163D01*
X137674638Y-81118341D01*
X137674354Y-81115449D01*
X137673367Y-81113067D01*
X137670725Y-81102106D01*
X137623106Y-80965202D01*
X137614882Y-80947407D01*
X137588936Y-80918265D01*
X137553814Y-80901270D01*
X137514861Y-80899010D01*
X137478009Y-80911828D01*
X137448867Y-80937774D01*
X137431872Y-80972896D01*
X137429612Y-81011849D01*
X137434206Y-81030906D01*
X137476275Y-81151853D01*
X137476275Y-81350699D01*
X137444322Y-81418598D01*
X137415843Y-81450636D01*
X137351506Y-81490847D01*
X137302602Y-81496960D01*
X137247475Y-81476287D01*
X137227325Y-81458656D01*
X137193932Y-81396044D01*
X137149293Y-81223066D01*
X137148309Y-81220377D01*
X137148186Y-81219113D01*
X137145224Y-81211945D01*
X137142558Y-81204656D01*
X137141793Y-81203640D01*
X137140701Y-81200996D01*
X137093081Y-81111709D01*
X137084989Y-81099574D01*
X137084114Y-81097803D01*
X137083061Y-81096681D01*
X137082206Y-81095399D01*
X137080677Y-81094141D01*
X137070697Y-81083511D01*
X137023078Y-81041844D01*
X137011421Y-81033509D01*
X137009931Y-81032117D01*
X137008467Y-81031397D01*
X137007131Y-81030442D01*
X137005186Y-81029784D01*
X136992339Y-81023468D01*
X136897101Y-80987754D01*
X136878160Y-80982703D01*
X136873590Y-80982858D01*
X136869182Y-80981646D01*
X136849585Y-80982159D01*
X136754347Y-80994064D01*
X136735227Y-80998390D01*
X136733391Y-80999433D01*
X136731312Y-80999782D01*
X136713751Y-81008492D01*
X136618513Y-81068016D01*
X136613278Y-81072051D01*
X136611169Y-81073074D01*
X136607231Y-81076713D01*
X136602987Y-81079985D01*
X136601626Y-81081892D01*
X136596772Y-81086379D01*
X136549153Y-81139950D01*
X136545204Y-81145382D01*
X136543457Y-81146973D01*
X136540741Y-81151524D01*
X136537628Y-81155808D01*
X136536854Y-81158038D01*
X136533412Y-81163807D01*
X136485793Y-81264999D01*
X136479224Y-81283469D01*
X136479111Y-81285859D01*
X136478196Y-81288069D01*
X136476275Y-81307578D01*
X136365164Y-81307578D01*
X136365164Y-79849244D01*
X137095322Y-79849244D01*
X137095322Y-80611149D01*
X137097243Y-80630658D01*
X137112175Y-80666706D01*
X137139765Y-80694296D01*
X137175813Y-80709228D01*
X137214831Y-80709228D01*
X137250879Y-80694296D01*
X137278469Y-80666706D01*
X137293401Y-80630658D01*
X137295322Y-80611149D01*
X137295322Y-80205146D01*
X138086478Y-80205146D01*
X138087973Y-80217113D01*
X138087646Y-80229175D01*
X138090371Y-80236295D01*
X138091317Y-80243863D01*
X138097282Y-80254352D01*
X138101593Y-80265616D01*
X138106835Y-80271151D01*
X138110605Y-80277780D01*
X138120126Y-80285185D01*
X138128423Y-80293946D01*
X138139525Y-80300274D01*
X138141404Y-80301735D01*
X138142727Y-80302098D01*
X138145454Y-80303653D01*
X138818209Y-80603990D01*
X138173816Y-80684540D01*
X138154695Y-80688866D01*
X138120778Y-80708154D01*
X138096823Y-80738953D01*
X138086478Y-80776575D01*
X138091317Y-80815292D01*
X138110605Y-80849209D01*
X138141404Y-80873164D01*
X138179026Y-80883509D01*
X138198622Y-80882996D01*
X139198622Y-80757996D01*
X139201682Y-80757303D01*
X139203055Y-80757341D01*
X139205278Y-80756489D01*
X139217742Y-80753670D01*
X139228230Y-80747705D01*
X139239496Y-80743394D01*
X139245032Y-80738151D01*
X139251660Y-80734382D01*
X139259065Y-80724860D01*
X139267826Y-80716564D01*
X139270934Y-80709600D01*
X139275615Y-80703583D01*
X139278813Y-80691952D01*
X139283731Y-80680936D01*
X139283938Y-80673313D01*
X139285960Y-80665961D01*
X139284463Y-80653991D01*
X139284792Y-80641932D01*
X139282066Y-80634811D01*
X139281121Y-80627244D01*
X139275155Y-80616754D01*
X139270845Y-80605491D01*
X139265602Y-80599955D01*
X139261833Y-80593327D01*
X139252311Y-80585921D01*
X139244015Y-80577161D01*
X139232912Y-80570832D01*
X139231034Y-80569372D01*
X139229710Y-80569008D01*
X139226984Y-80567454D01*
X138554228Y-80267116D01*
X139198622Y-80186567D01*
X139217742Y-80182241D01*
X139251660Y-80162953D01*
X139275615Y-80132154D01*
X139285960Y-80094532D01*
X139281121Y-80055815D01*
X139261833Y-80021898D01*
X139231034Y-79997943D01*
X139193412Y-79987598D01*
X139173815Y-79988111D01*
X138173816Y-80113111D01*
X138170755Y-80113803D01*
X138169383Y-80113766D01*
X138167159Y-80114616D01*
X138154695Y-80117437D01*
X138144205Y-80123402D01*
X138132942Y-80127713D01*
X138127406Y-80132955D01*
X138120778Y-80136725D01*
X138113372Y-80146246D01*
X138104612Y-80154543D01*
X138101502Y-80161506D01*
X138096823Y-80167524D01*
X138093625Y-80179150D01*
X138088706Y-80190171D01*
X138088498Y-80197797D01*
X138086478Y-80205146D01*
X137295322Y-80205146D01*
X137295322Y-79849244D01*
X137293401Y-79829735D01*
X137278469Y-79793687D01*
X137250879Y-79766097D01*
X137214831Y-79751165D01*
X137175813Y-79751165D01*
X137139765Y-79766097D01*
X137112175Y-79793687D01*
X137097243Y-79829735D01*
X137095322Y-79849244D01*
X136365164Y-79849244D01*
X136365164Y-79069482D01*
X136476275Y-79069482D01*
X136476275Y-79307578D01*
X136478196Y-79327087D01*
X136480076Y-79331627D01*
X136480554Y-79336519D01*
X136488040Y-79354637D01*
X136535659Y-79443922D01*
X136543747Y-79456052D01*
X136544626Y-79457828D01*
X136545682Y-79458953D01*
X136546535Y-79460232D01*
X136548059Y-79461485D01*
X136558043Y-79472120D01*
X136605662Y-79513787D01*
X136617318Y-79522121D01*
X136618809Y-79523514D01*
X136620272Y-79524233D01*
X136621609Y-79525189D01*
X136623553Y-79525846D01*
X136636401Y-79532163D01*
X136731639Y-79567877D01*
X136750580Y-79572928D01*
X136755148Y-79572772D01*
X136759557Y-79573985D01*
X136779154Y-79573472D01*
X136874392Y-79561568D01*
X136882539Y-79559724D01*
X136885120Y-79559629D01*
X136889253Y-79558205D01*
X136893512Y-79557242D01*
X136895754Y-79555966D01*
X136903655Y-79553246D01*
X137046512Y-79487769D01*
X137063447Y-79477894D01*
X137064198Y-79477084D01*
X137065190Y-79476604D01*
X137079587Y-79463299D01*
X137476275Y-79017025D01*
X137476275Y-79373054D01*
X137478196Y-79392563D01*
X137493128Y-79428611D01*
X137520718Y-79456201D01*
X137556766Y-79471133D01*
X137595784Y-79471133D01*
X137631832Y-79456201D01*
X137659422Y-79428611D01*
X137674354Y-79392563D01*
X137676275Y-79373054D01*
X137676275Y-78895624D01*
X139038858Y-78895624D01*
X139043699Y-78934341D01*
X139062987Y-78968258D01*
X139093786Y-78992213D01*
X139131408Y-79002558D01*
X139151005Y-79002044D01*
X139198624Y-78996091D01*
X139217744Y-78991764D01*
X139219575Y-78990722D01*
X139221657Y-78990374D01*
X139239218Y-78981663D01*
X139334457Y-78922140D01*
X139339692Y-78918103D01*
X139341802Y-78917081D01*
X139345740Y-78913441D01*
X139349982Y-78910171D01*
X139351342Y-78908263D01*
X139356198Y-78903776D01*
X139403818Y-78850204D01*
X139415343Y-78834346D01*
X139428131Y-78797483D01*
X139425840Y-78758532D01*
X139408817Y-78723423D01*
X139379655Y-78697501D01*
X139342792Y-78684713D01*
X139303841Y-78687004D01*
X139268732Y-78704027D01*
X139254335Y-78717332D01*
X139216266Y-78760159D01*
X139151927Y-78800371D01*
X139126195Y-78803588D01*
X139107075Y-78807915D01*
X139073158Y-78827203D01*
X139049203Y-78858002D01*
X139038858Y-78895624D01*
X137676275Y-78895624D01*
X137676275Y-78754006D01*
X137674354Y-78734497D01*
X137673213Y-78731744D01*
X137673039Y-78728771D01*
X137665784Y-78713809D01*
X137659422Y-78698449D01*
X137657315Y-78696342D01*
X137656016Y-78693662D01*
X137643586Y-78682613D01*
X137631832Y-78670859D01*
X137629080Y-78669719D01*
X137626854Y-78667740D01*
X137611146Y-78662290D01*
X137595784Y-78655927D01*
X137592804Y-78655927D01*
X137589991Y-78654951D01*
X137573397Y-78655927D01*
X137556766Y-78655927D01*
X137554013Y-78657067D01*
X137551040Y-78657242D01*
X137536078Y-78664496D01*
X137520718Y-78670859D01*
X137518611Y-78672965D01*
X137515931Y-78674265D01*
X137501534Y-78687570D01*
X136944070Y-79314715D01*
X136834315Y-79365020D01*
X136778794Y-79371960D01*
X136723666Y-79351287D01*
X136703516Y-79333656D01*
X136676275Y-79282578D01*
X136676275Y-79091836D01*
X136708227Y-79023937D01*
X136746254Y-78981157D01*
X136757779Y-78965300D01*
X136770568Y-78928437D01*
X136768277Y-78889486D01*
X136751255Y-78854377D01*
X136722092Y-78828455D01*
X136685230Y-78815666D01*
X136646279Y-78817957D01*
X136611169Y-78834979D01*
X136596772Y-78848284D01*
X136549153Y-78901855D01*
X136545204Y-78907287D01*
X136543457Y-78908878D01*
X136540741Y-78913429D01*
X136537628Y-78917713D01*
X136536854Y-78919943D01*
X136533412Y-78925712D01*
X136485793Y-79026902D01*
X136479224Y-79045372D01*
X136479111Y-79047763D01*
X136478196Y-79049973D01*
X136476275Y-79069482D01*
X136365164Y-79069482D01*
X136365164Y-77926625D01*
X136476275Y-77926625D01*
X136476275Y-78545673D01*
X136478196Y-78565182D01*
X136493128Y-78601230D01*
X136520718Y-78628820D01*
X136556766Y-78643752D01*
X136595784Y-78643752D01*
X136631832Y-78628820D01*
X136646986Y-78616384D01*
X136882814Y-78380554D01*
X136916611Y-78443922D01*
X136924699Y-78456052D01*
X136925578Y-78457828D01*
X136926634Y-78458953D01*
X136927487Y-78460232D01*
X136929011Y-78461485D01*
X136938995Y-78472120D01*
X136986614Y-78513787D01*
X136998270Y-78522121D01*
X136999761Y-78523514D01*
X137001224Y-78524233D01*
X137002561Y-78525189D01*
X137004505Y-78525846D01*
X137017353Y-78532163D01*
X137112591Y-78567877D01*
X137131532Y-78572928D01*
X137136101Y-78572772D01*
X137140510Y-78573985D01*
X137160107Y-78573472D01*
X137398202Y-78543710D01*
X137417322Y-78539384D01*
X137419155Y-78538341D01*
X137421236Y-78537993D01*
X137438797Y-78529282D01*
X137534036Y-78469759D01*
X137539269Y-78465724D01*
X137541380Y-78464701D01*
X137545321Y-78461058D01*
X137549561Y-78457790D01*
X137550919Y-78455884D01*
X137555777Y-78451396D01*
X137603396Y-78397824D01*
X137607343Y-78392392D01*
X137609093Y-78390801D01*
X137611810Y-78386247D01*
X137614922Y-78381966D01*
X137615695Y-78379735D01*
X137619138Y-78373967D01*
X137666757Y-78272777D01*
X137671316Y-78259959D01*
X138086219Y-78259959D01*
X138086219Y-78450435D01*
X138088140Y-78469944D01*
X138103072Y-78505992D01*
X138130662Y-78533582D01*
X138166710Y-78548514D01*
X138205728Y-78548514D01*
X138241776Y-78533582D01*
X138269366Y-78505992D01*
X138284298Y-78469944D01*
X138286219Y-78450435D01*
X138286219Y-78282312D01*
X138318170Y-78214414D01*
X138350385Y-78178172D01*
X138474099Y-78080231D01*
X138474743Y-78079989D01*
X138470120Y-78092991D01*
X138470007Y-78095382D01*
X138469092Y-78097592D01*
X138467171Y-78117101D01*
X138467171Y-78307578D01*
X138469092Y-78327087D01*
X138470972Y-78331627D01*
X138471450Y-78336519D01*
X138478936Y-78354637D01*
X138526555Y-78443922D01*
X138534643Y-78456052D01*
X138535522Y-78457828D01*
X138536578Y-78458953D01*
X138537431Y-78460232D01*
X138538955Y-78461485D01*
X138548939Y-78472120D01*
X138596558Y-78513787D01*
X138608214Y-78522121D01*
X138609705Y-78523514D01*
X138611168Y-78524233D01*
X138612505Y-78525189D01*
X138614449Y-78525846D01*
X138627297Y-78532163D01*
X138722535Y-78567877D01*
X138741476Y-78572928D01*
X138746045Y-78572772D01*
X138750454Y-78573985D01*
X138770051Y-78573472D01*
X139008146Y-78543710D01*
X139027266Y-78539384D01*
X139029099Y-78538341D01*
X139031180Y-78537993D01*
X139048741Y-78529282D01*
X139143980Y-78469759D01*
X139149213Y-78465724D01*
X139151324Y-78464701D01*
X139155265Y-78461058D01*
X139159505Y-78457790D01*
X139160863Y-78455884D01*
X139165721Y-78451396D01*
X139213340Y-78397824D01*
X139217287Y-78392392D01*
X139219037Y-78390801D01*
X139221754Y-78386247D01*
X139224866Y-78381966D01*
X139225639Y-78379735D01*
X139229082Y-78373967D01*
X139276701Y-78272777D01*
X139283270Y-78254306D01*
X139283382Y-78251915D01*
X139284298Y-78249706D01*
X139286219Y-78230197D01*
X139286219Y-78039721D01*
X139284298Y-78020212D01*
X139282417Y-78015671D01*
X139281940Y-78010780D01*
X139274455Y-77992663D01*
X139226835Y-77903376D01*
X139218740Y-77891235D01*
X139217867Y-77889470D01*
X139216817Y-77888351D01*
X139215960Y-77887066D01*
X139214427Y-77885806D01*
X139204450Y-77875177D01*
X139156830Y-77833510D01*
X139145176Y-77825178D01*
X139143684Y-77823784D01*
X139142217Y-77823062D01*
X139140883Y-77822109D01*
X139138941Y-77821452D01*
X139126092Y-77815135D01*
X139030854Y-77779421D01*
X139011913Y-77774370D01*
X139007343Y-77774525D01*
X139002935Y-77773313D01*
X138983339Y-77773826D01*
X138602387Y-77821445D01*
X138599804Y-77822029D01*
X138598619Y-77821989D01*
X138590988Y-77824023D01*
X138583266Y-77825771D01*
X138582232Y-77826358D01*
X138579678Y-77827040D01*
X138389202Y-77898468D01*
X138381247Y-77902378D01*
X138378731Y-77903094D01*
X138375283Y-77905310D01*
X138371610Y-77907117D01*
X138369699Y-77908901D01*
X138362243Y-77913697D01*
X138219386Y-78026793D01*
X138213130Y-78032831D01*
X138206716Y-78038760D01*
X138159097Y-78092331D01*
X138155148Y-78097763D01*
X138153401Y-78099354D01*
X138150685Y-78103905D01*
X138147572Y-78108189D01*
X138146798Y-78110419D01*
X138143356Y-78116188D01*
X138095737Y-78217380D01*
X138089168Y-78235850D01*
X138089055Y-78238240D01*
X138088140Y-78240450D01*
X138086219Y-78259959D01*
X137671316Y-78259959D01*
X137673326Y-78254306D01*
X137673438Y-78251915D01*
X137674354Y-78249706D01*
X137676275Y-78230197D01*
X137676275Y-77944482D01*
X137674354Y-77924973D01*
X137672473Y-77920432D01*
X137671996Y-77915541D01*
X137664510Y-77897423D01*
X137616891Y-77808138D01*
X137608798Y-77796002D01*
X137607923Y-77794232D01*
X137606870Y-77793110D01*
X137606015Y-77791828D01*
X137604487Y-77790571D01*
X137594506Y-77779939D01*
X137546886Y-77738272D01*
X137530939Y-77726871D01*
X137493977Y-77714371D01*
X137455045Y-77716967D01*
X137420070Y-77734263D01*
X137394377Y-77763627D01*
X137381877Y-77800589D01*
X137384473Y-77839521D01*
X137401769Y-77874496D01*
X137415186Y-77888788D01*
X137449033Y-77918404D01*
X137476275Y-77969481D01*
X137476275Y-78207842D01*
X137444322Y-78275741D01*
X137415843Y-78307779D01*
X137351506Y-78347990D01*
X137159745Y-78371960D01*
X137104618Y-78351287D01*
X137084468Y-78333656D01*
X137057227Y-78282578D01*
X137057227Y-78164721D01*
X137055306Y-78145212D01*
X137040374Y-78109164D01*
X137012784Y-78081574D01*
X136976736Y-78066642D01*
X136937718Y-78066642D01*
X136914511Y-78076255D01*
X136901669Y-78081574D01*
X136886516Y-78094011D01*
X136676275Y-78304251D01*
X136676275Y-77926625D01*
X136674354Y-77907116D01*
X136659422Y-77871068D01*
X136631832Y-77843478D01*
X136595784Y-77828546D01*
X136556766Y-77828546D01*
X136520718Y-77843478D01*
X136493128Y-77871068D01*
X136478196Y-77907116D01*
X136476275Y-77926625D01*
X136365164Y-77926625D01*
X136365164Y-77021863D01*
X136476275Y-77021863D01*
X136476275Y-77402816D01*
X136478196Y-77422325D01*
X136480076Y-77426865D01*
X136480554Y-77431757D01*
X136488040Y-77449875D01*
X136535659Y-77539160D01*
X136543747Y-77551290D01*
X136544626Y-77553066D01*
X136545682Y-77554191D01*
X136546535Y-77555470D01*
X136548059Y-77556723D01*
X136558043Y-77567358D01*
X136605662Y-77609025D01*
X136617318Y-77617359D01*
X136618809Y-77618752D01*
X136620272Y-77619471D01*
X136621609Y-77620427D01*
X136623553Y-77621084D01*
X136636401Y-77627401D01*
X136731639Y-77663115D01*
X136750580Y-77668166D01*
X136755149Y-77668010D01*
X136759558Y-77669223D01*
X136779154Y-77668710D01*
X136922012Y-77650853D01*
X136941132Y-77646527D01*
X136942965Y-77645484D01*
X136945046Y-77645136D01*
X136962608Y-77636425D01*
X137057846Y-77576901D01*
X137063079Y-77572866D01*
X137065190Y-77571843D01*
X137069131Y-77568200D01*
X137073371Y-77564932D01*
X137074729Y-77563027D01*
X137079587Y-77558538D01*
X137127206Y-77504966D01*
X137131153Y-77499535D01*
X137132902Y-77497944D01*
X137135618Y-77493390D01*
X137138731Y-77489109D01*
X137139504Y-77486878D01*
X137142947Y-77481110D01*
X137190566Y-77379920D01*
X137197135Y-77361449D01*
X137197247Y-77359058D01*
X137198163Y-77356849D01*
X137200084Y-77337340D01*
X137200084Y-77164720D01*
X138086219Y-77164720D01*
X138086219Y-77402816D01*
X138088140Y-77422325D01*
X138090020Y-77426865D01*
X138090498Y-77431757D01*
X138097984Y-77449875D01*
X138145603Y-77539160D01*
X138153691Y-77551290D01*
X138154570Y-77553066D01*
X138155626Y-77554191D01*
X138156479Y-77555470D01*
X138158003Y-77556723D01*
X138167987Y-77567358D01*
X138215606Y-77609025D01*
X138227262Y-77617359D01*
X138228753Y-77618752D01*
X138230216Y-77619471D01*
X138231553Y-77620427D01*
X138233497Y-77621084D01*
X138246345Y-77627401D01*
X138341583Y-77663115D01*
X138360524Y-77668166D01*
X138365092Y-77668010D01*
X138369501Y-77669223D01*
X138389098Y-77668710D01*
X138484336Y-77656806D01*
X138492483Y-77654962D01*
X138495064Y-77654867D01*
X138499197Y-77653443D01*
X138503456Y-77652480D01*
X138505698Y-77651204D01*
X138513599Y-77648484D01*
X138656456Y-77583007D01*
X138673391Y-77573132D01*
X138674142Y-77572322D01*
X138675134Y-77571842D01*
X138689531Y-77558537D01*
X139086219Y-77112263D01*
X139086219Y-77468292D01*
X139088140Y-77487801D01*
X139103072Y-77523849D01*
X139130662Y-77551439D01*
X139166710Y-77566371D01*
X139205728Y-77566371D01*
X139241776Y-77551439D01*
X139269366Y-77523849D01*
X139284298Y-77487801D01*
X139286219Y-77468292D01*
X139286219Y-76849244D01*
X139284298Y-76829735D01*
X139283157Y-76826982D01*
X139282983Y-76824009D01*
X139275728Y-76809047D01*
X139269366Y-76793687D01*
X139267259Y-76791580D01*
X139265960Y-76788900D01*
X139253530Y-76777851D01*
X139241776Y-76766097D01*
X139239024Y-76764957D01*
X139236798Y-76762978D01*
X139221090Y-76757528D01*
X139205728Y-76751165D01*
X139202748Y-76751165D01*
X139199935Y-76750189D01*
X139183341Y-76751165D01*
X139166710Y-76751165D01*
X139163957Y-76752305D01*
X139160984Y-76752480D01*
X139146022Y-76759734D01*
X139130662Y-76766097D01*
X139128555Y-76768203D01*
X139125875Y-76769503D01*
X139111478Y-76782808D01*
X138554014Y-77409953D01*
X138444259Y-77460258D01*
X138388738Y-77467198D01*
X138333610Y-77446525D01*
X138313460Y-77428894D01*
X138286219Y-77377816D01*
X138286219Y-77187074D01*
X138318171Y-77119175D01*
X138356198Y-77076395D01*
X138367723Y-77060538D01*
X138380512Y-77023675D01*
X138378221Y-76984724D01*
X138361199Y-76949615D01*
X138332036Y-76923693D01*
X138295174Y-76910904D01*
X138256223Y-76913195D01*
X138221113Y-76930217D01*
X138206716Y-76943522D01*
X138159097Y-76997093D01*
X138155148Y-77002525D01*
X138153401Y-77004116D01*
X138150685Y-77008667D01*
X138147572Y-77012951D01*
X138146798Y-77015181D01*
X138143356Y-77020950D01*
X138095737Y-77122140D01*
X138089168Y-77140610D01*
X138089055Y-77143001D01*
X138088140Y-77145211D01*
X138086219Y-77164720D01*
X137200084Y-77164720D01*
X137200084Y-77044665D01*
X137588678Y-76996091D01*
X137607798Y-76991765D01*
X137641716Y-76972477D01*
X137665671Y-76941678D01*
X137676016Y-76904056D01*
X137671177Y-76865339D01*
X137651889Y-76831422D01*
X137621090Y-76807467D01*
X137583468Y-76797122D01*
X137563871Y-76797635D01*
X136563872Y-76922635D01*
X136558793Y-76923784D01*
X136556766Y-76923784D01*
X136554325Y-76924794D01*
X136544751Y-76926961D01*
X136533097Y-76933587D01*
X136520718Y-76938716D01*
X136516284Y-76943149D01*
X136510834Y-76946249D01*
X136502605Y-76956828D01*
X136493128Y-76966306D01*
X136490728Y-76972098D01*
X136486879Y-76977048D01*
X136483325Y-76989969D01*
X136478196Y-77002354D01*
X136477233Y-77012124D01*
X136476534Y-77014670D01*
X136476785Y-77016680D01*
X136476275Y-77021863D01*
X136365164Y-77021863D01*
X136365164Y-76212340D01*
X136476275Y-76212340D01*
X136476275Y-76450435D01*
X136477380Y-76461658D01*
X136477231Y-76464230D01*
X136477911Y-76467051D01*
X136478196Y-76469944D01*
X136479182Y-76472325D01*
X136481825Y-76483287D01*
X136529444Y-76620192D01*
X136537668Y-76637987D01*
X136563613Y-76667129D01*
X136598736Y-76684124D01*
X136637689Y-76686384D01*
X136674541Y-76673566D01*
X136703683Y-76647620D01*
X136720678Y-76612498D01*
X136722938Y-76573545D01*
X136718344Y-76554488D01*
X136676275Y-76433539D01*
X136676275Y-76234693D01*
X136708226Y-76166795D01*
X136736702Y-76134759D01*
X136801044Y-76094545D01*
X136849946Y-76088432D01*
X136905073Y-76109105D01*
X136925222Y-76126736D01*
X136958616Y-76189349D01*
X137003256Y-76362327D01*
X137004239Y-76365015D01*
X137004363Y-76366281D01*
X137007323Y-76373447D01*
X137009991Y-76380738D01*
X137010756Y-76381754D01*
X137011849Y-76384399D01*
X137059468Y-76473684D01*
X137067556Y-76485814D01*
X137068435Y-76487590D01*
X137069491Y-76488715D01*
X137070344Y-76489994D01*
X137071868Y-76491247D01*
X137081852Y-76501882D01*
X137129471Y-76543549D01*
X137141127Y-76551883D01*
X137142618Y-76553276D01*
X137144081Y-76553995D01*
X137145418Y-76554951D01*
X137147362Y-76555608D01*
X137160210Y-76561925D01*
X137255448Y-76597639D01*
X137274389Y-76602690D01*
X137278958Y-76602534D01*
X137283367Y-76603747D01*
X137302964Y-76603234D01*
X137398202Y-76591329D01*
X137417322Y-76587003D01*
X137419155Y-76585960D01*
X137421236Y-76585612D01*
X137438797Y-76576901D01*
X137534036Y-76517378D01*
X137539269Y-76513343D01*
X137541380Y-76512320D01*
X137545321Y-76508677D01*
X137549561Y-76505409D01*
X137550919Y-76503503D01*
X137555777Y-76499015D01*
X137603396Y-76445443D01*
X137607343Y-76440011D01*
X137609093Y-76438420D01*
X137611810Y-76433866D01*
X137614922Y-76429585D01*
X137615695Y-76427354D01*
X137619138Y-76421586D01*
X137666757Y-76320396D01*
X137671316Y-76307578D01*
X138086219Y-76307578D01*
X138086219Y-76402816D01*
X138088140Y-76422325D01*
X138090020Y-76426865D01*
X138090498Y-76431757D01*
X138097984Y-76449875D01*
X138145603Y-76539160D01*
X138153691Y-76551290D01*
X138154570Y-76553066D01*
X138155626Y-76554191D01*
X138156479Y-76555470D01*
X138158003Y-76556723D01*
X138167987Y-76567358D01*
X138215606Y-76609025D01*
X138227262Y-76617359D01*
X138228753Y-76618752D01*
X138230216Y-76619471D01*
X138231553Y-76620427D01*
X138233497Y-76621084D01*
X138246345Y-76627401D01*
X138341583Y-76663115D01*
X138344137Y-76663796D01*
X138345171Y-76664384D01*
X138352895Y-76666131D01*
X138360524Y-76668166D01*
X138361708Y-76668125D01*
X138364291Y-76668710D01*
X138554767Y-76692520D01*
X138558464Y-76692616D01*
X138559978Y-76693033D01*
X138567171Y-76692844D01*
X138574364Y-76693033D01*
X138575877Y-76692616D01*
X138579575Y-76692520D01*
X138817670Y-76662758D01*
X138820252Y-76662173D01*
X138821437Y-76662214D01*
X138829068Y-76660179D01*
X138836790Y-76658432D01*
X138837822Y-76657844D01*
X138840379Y-76657163D01*
X139030855Y-76585734D01*
X139031063Y-76585631D01*
X139031180Y-76585612D01*
X139039770Y-76581350D01*
X139048447Y-76577085D01*
X139048534Y-76577003D01*
X139048741Y-76576901D01*
X139143980Y-76517378D01*
X139149213Y-76513343D01*
X139151324Y-76512320D01*
X139155265Y-76508677D01*
X139159505Y-76505409D01*
X139160863Y-76503503D01*
X139165721Y-76499015D01*
X139213340Y-76445443D01*
X139217287Y-76440011D01*
X139219037Y-76438420D01*
X139221754Y-76433866D01*
X139224866Y-76429585D01*
X139225639Y-76427354D01*
X139229082Y-76421586D01*
X139276701Y-76320396D01*
X139283270Y-76301925D01*
X139283382Y-76299534D01*
X139284298Y-76297325D01*
X139286219Y-76277816D01*
X139286219Y-76182578D01*
X139284298Y-76163069D01*
X139282417Y-76158528D01*
X139281940Y-76153637D01*
X139274455Y-76135520D01*
X139226835Y-76046233D01*
X139218740Y-76034092D01*
X139217867Y-76032327D01*
X139216817Y-76031208D01*
X139215960Y-76029923D01*
X139214427Y-76028663D01*
X139204450Y-76018034D01*
X139156830Y-75976367D01*
X139145176Y-75968035D01*
X139143684Y-75966641D01*
X139142217Y-75965919D01*
X139140883Y-75964966D01*
X139138941Y-75964309D01*
X139126092Y-75957992D01*
X139030854Y-75922278D01*
X139028297Y-75921596D01*
X139027265Y-75921009D01*
X139019547Y-75919262D01*
X139011913Y-75917227D01*
X139010727Y-75917267D01*
X139008145Y-75916683D01*
X138817670Y-75892873D01*
X138813972Y-75892776D01*
X138812459Y-75892360D01*
X138805266Y-75892548D01*
X138798073Y-75892360D01*
X138796559Y-75892776D01*
X138792863Y-75892873D01*
X138554767Y-75922635D01*
X138552184Y-75923219D01*
X138551000Y-75923179D01*
X138543371Y-75925213D01*
X138535647Y-75926961D01*
X138534613Y-75927548D01*
X138532059Y-75928230D01*
X138341582Y-75999659D01*
X138341370Y-75999762D01*
X138341256Y-75999782D01*
X138332670Y-76004040D01*
X138323990Y-76008308D01*
X138323904Y-76008388D01*
X138323695Y-76008492D01*
X138228457Y-76068016D01*
X138223222Y-76072051D01*
X138221113Y-76073074D01*
X138217175Y-76076713D01*
X138212931Y-76079985D01*
X138211570Y-76081892D01*
X138206716Y-76086379D01*
X138159097Y-76139950D01*
X138155148Y-76145382D01*
X138153401Y-76146973D01*
X138150685Y-76151524D01*
X138147572Y-76155808D01*
X138146798Y-76158038D01*
X138143356Y-76163807D01*
X138095737Y-76264999D01*
X138089168Y-76283469D01*
X138089055Y-76285859D01*
X138088140Y-76288069D01*
X138086219Y-76307578D01*
X137671316Y-76307578D01*
X137673326Y-76301925D01*
X137673438Y-76299534D01*
X137674354Y-76297325D01*
X137676275Y-76277816D01*
X137676275Y-76039720D01*
X137675169Y-76028496D01*
X137675319Y-76025925D01*
X137674638Y-76023103D01*
X137674354Y-76020211D01*
X137673367Y-76017829D01*
X137670725Y-76006868D01*
X137623106Y-75869964D01*
X137614882Y-75852169D01*
X137588936Y-75823027D01*
X137553814Y-75806032D01*
X137514861Y-75803772D01*
X137478009Y-75816590D01*
X137448867Y-75842536D01*
X137431872Y-75877658D01*
X137429612Y-75916611D01*
X137434206Y-75935668D01*
X137476275Y-76056615D01*
X137476275Y-76255461D01*
X137444322Y-76323360D01*
X137415843Y-76355398D01*
X137351506Y-76395609D01*
X137302602Y-76401722D01*
X137247475Y-76381049D01*
X137227325Y-76363418D01*
X137193932Y-76300806D01*
X137149293Y-76127828D01*
X137148309Y-76125139D01*
X137148186Y-76123875D01*
X137145224Y-76116707D01*
X137142558Y-76109418D01*
X137141793Y-76108402D01*
X137140701Y-76105758D01*
X137093081Y-76016471D01*
X137084989Y-76004336D01*
X137084114Y-76002565D01*
X137083061Y-76001443D01*
X137082206Y-76000161D01*
X137080677Y-75998903D01*
X137070697Y-75988273D01*
X137023078Y-75946606D01*
X137011421Y-75938271D01*
X137009931Y-75936879D01*
X137008467Y-75936159D01*
X137007131Y-75935204D01*
X137005186Y-75934546D01*
X136992339Y-75928230D01*
X136897101Y-75892516D01*
X136878160Y-75887465D01*
X136873590Y-75887620D01*
X136869182Y-75886408D01*
X136849585Y-75886921D01*
X136754347Y-75898826D01*
X136735227Y-75903152D01*
X136733391Y-75904195D01*
X136731312Y-75904544D01*
X136713751Y-75913254D01*
X136618513Y-75972778D01*
X136613278Y-75976813D01*
X136611169Y-75977836D01*
X136607231Y-75981475D01*
X136602987Y-75984747D01*
X136601626Y-75986654D01*
X136596772Y-75991141D01*
X136549153Y-76044712D01*
X136545204Y-76050144D01*
X136543457Y-76051735D01*
X136540741Y-76056286D01*
X136537628Y-76060570D01*
X136536854Y-76062800D01*
X136533412Y-76068569D01*
X136485793Y-76169761D01*
X136479224Y-76188231D01*
X136479111Y-76190621D01*
X136478196Y-76192831D01*
X136476275Y-76212340D01*
X136365164Y-76212340D01*
X136365164Y-75164720D01*
X136476275Y-75164720D01*
X136476275Y-75640911D01*
X136478196Y-75660420D01*
X136493128Y-75696468D01*
X136520718Y-75724058D01*
X136556766Y-75738990D01*
X136595784Y-75738990D01*
X136631832Y-75724058D01*
X136659422Y-75696468D01*
X136674354Y-75660420D01*
X136676275Y-75640911D01*
X136676275Y-75252998D01*
X136952465Y-75218474D01*
X136952465Y-75438530D01*
X136954386Y-75458039D01*
X136969318Y-75494087D01*
X136996908Y-75521677D01*
X137032956Y-75536609D01*
X137071974Y-75536609D01*
X137108022Y-75521677D01*
X137135612Y-75494087D01*
X137150544Y-75458039D01*
X137152465Y-75438530D01*
X137152465Y-75193474D01*
X137476275Y-75152998D01*
X137476275Y-75515911D01*
X137478196Y-75535420D01*
X137493128Y-75571468D01*
X137520718Y-75599058D01*
X137556766Y-75613990D01*
X137595784Y-75613990D01*
X137631832Y-75599058D01*
X137659422Y-75571468D01*
X137674354Y-75535420D01*
X137676275Y-75515911D01*
X137676275Y-75259958D01*
X138086219Y-75259958D01*
X138086219Y-75498054D01*
X138088140Y-75517563D01*
X138090020Y-75522103D01*
X138090498Y-75526995D01*
X138097984Y-75545113D01*
X138145603Y-75634398D01*
X138153691Y-75646528D01*
X138154570Y-75648304D01*
X138155626Y-75649429D01*
X138156479Y-75650708D01*
X138158003Y-75651961D01*
X138167987Y-75662596D01*
X138215606Y-75704263D01*
X138227262Y-75712597D01*
X138228753Y-75713990D01*
X138230216Y-75714709D01*
X138231553Y-75715665D01*
X138233497Y-75716322D01*
X138246345Y-75722639D01*
X138341583Y-75758353D01*
X138360524Y-75763404D01*
X138365092Y-75763248D01*
X138369501Y-75764461D01*
X138389098Y-75763948D01*
X138484336Y-75752044D01*
X138492483Y-75750200D01*
X138495064Y-75750105D01*
X138499197Y-75748681D01*
X138503456Y-75747718D01*
X138505698Y-75746442D01*
X138513599Y-75743722D01*
X138656456Y-75678245D01*
X138673391Y-75668370D01*
X138674142Y-75667560D01*
X138675134Y-75667080D01*
X138689531Y-75653775D01*
X139086219Y-75207501D01*
X139086219Y-75563530D01*
X139088140Y-75583039D01*
X139103072Y-75619087D01*
X139130662Y-75646677D01*
X139166710Y-75661609D01*
X139205728Y-75661609D01*
X139241776Y-75646677D01*
X139269366Y-75619087D01*
X139284298Y-75583039D01*
X139286219Y-75563530D01*
X139286219Y-74944482D01*
X139284298Y-74924973D01*
X139283157Y-74922220D01*
X139282983Y-74919247D01*
X139275728Y-74904285D01*
X139269366Y-74888925D01*
X139267259Y-74886818D01*
X139265960Y-74884138D01*
X139253530Y-74873089D01*
X139241776Y-74861335D01*
X139239024Y-74860195D01*
X139236798Y-74858216D01*
X139221090Y-74852766D01*
X139205728Y-74846403D01*
X139202748Y-74846403D01*
X139199935Y-74845427D01*
X139183341Y-74846403D01*
X139166710Y-74846403D01*
X139163957Y-74847543D01*
X139160984Y-74847718D01*
X139146022Y-74854972D01*
X139130662Y-74861335D01*
X139128555Y-74863441D01*
X139125875Y-74864741D01*
X139111478Y-74878046D01*
X138554014Y-75505191D01*
X138444259Y-75555496D01*
X138388738Y-75562436D01*
X138333610Y-75541763D01*
X138313460Y-75524132D01*
X138286219Y-75473054D01*
X138286219Y-75282312D01*
X138318171Y-75214413D01*
X138356198Y-75171633D01*
X138367723Y-75155776D01*
X138380512Y-75118913D01*
X138378221Y-75079962D01*
X138361199Y-75044853D01*
X138332036Y-75018931D01*
X138295174Y-75006142D01*
X138256223Y-75008433D01*
X138221113Y-75025455D01*
X138206716Y-75038760D01*
X138159097Y-75092331D01*
X138155148Y-75097763D01*
X138153401Y-75099354D01*
X138150685Y-75103905D01*
X138147572Y-75108189D01*
X138146798Y-75110419D01*
X138143356Y-75116188D01*
X138095737Y-75217378D01*
X138089168Y-75235848D01*
X138089055Y-75238239D01*
X138088140Y-75240449D01*
X138086219Y-75259958D01*
X137676275Y-75259958D01*
X137676275Y-75039720D01*
X137674354Y-75020211D01*
X137671954Y-75014418D01*
X137671177Y-75008196D01*
X137664550Y-74996542D01*
X137659422Y-74984163D01*
X137654988Y-74979729D01*
X137651889Y-74974279D01*
X137641309Y-74966050D01*
X137631832Y-74956573D01*
X137626039Y-74954173D01*
X137621090Y-74950324D01*
X137608168Y-74946770D01*
X137595784Y-74941641D01*
X137589512Y-74941641D01*
X137583468Y-74939979D01*
X137563871Y-74940492D01*
X136563872Y-75065492D01*
X136558793Y-75066641D01*
X136556766Y-75066641D01*
X136554325Y-75067651D01*
X136544751Y-75069818D01*
X136533097Y-75076444D01*
X136520718Y-75081573D01*
X136516284Y-75086006D01*
X136510834Y-75089106D01*
X136502605Y-75099685D01*
X136493128Y-75109163D01*
X136490728Y-75114955D01*
X136486879Y-75119905D01*
X136483325Y-75132826D01*
X136478196Y-75145211D01*
X136477233Y-75154981D01*
X136476534Y-75157527D01*
X136476785Y-75159537D01*
X136476275Y-75164720D01*
X136365164Y-75164720D01*
X136365164Y-74734316D01*
X139730663Y-74734316D01*
X139730663Y-95613667D01*
G37*
D11*
G36*
X142948083Y-79623122D02*
G01*
X142948083Y-80083082D01*
X142488123Y-80083082D01*
X142028163Y-80083082D01*
X142028163Y-79623122D01*
X142028163Y-79163163D01*
X142488123Y-79163163D01*
X142948083Y-79163163D01*
X142948083Y-79623122D01*
G37*
G36*
X144174642Y-86982478D02*
G01*
X144174642Y-87135798D01*
X143868002Y-87135798D01*
X143561363Y-87135798D01*
X143561363Y-86982478D01*
X143561363Y-86829159D01*
X143868002Y-86829159D01*
X144174642Y-86829159D01*
X144174642Y-86982478D01*
G37*
G36*
X149694159Y-78856523D02*
G01*
X149694159Y-79163163D01*
X149387520Y-79163163D01*
X149080880Y-79163163D01*
X149080880Y-78856523D01*
X149080880Y-78549883D01*
X149387520Y-78549883D01*
X149694159Y-78549883D01*
X149694159Y-78856523D01*
G37*
G36*
X153373837Y-79623122D02*
G01*
X153373837Y-80083082D01*
X152913878Y-80083082D01*
X152453918Y-80083082D01*
X152453918Y-79623122D01*
X152453918Y-79163163D01*
X152913878Y-79163163D01*
X153373837Y-79163163D01*
X153373837Y-79623122D01*
G37*
G36*
X153373837Y-90048877D02*
G01*
X153373837Y-90508837D01*
X152913878Y-90508837D01*
X152453918Y-90508837D01*
X152453918Y-90048877D01*
X152453918Y-89588917D01*
X152913878Y-89588917D01*
X153373837Y-89588917D01*
X153373837Y-90048877D01*
G37*
G36*
X153067198Y-87595758D02*
G01*
X153067198Y-88055718D01*
X152913878Y-88055718D01*
X152760558Y-88055718D01*
X152760558Y-87595758D01*
X152760558Y-87135798D01*
X152913878Y-87135798D01*
X153067198Y-87135798D01*
X153067198Y-87595758D01*
G37*
G36*
X141649125Y-82234258D02*
G01*
X141708860Y-82274284D01*
X141721524Y-82382881D01*
X141716827Y-82463802D01*
X141676800Y-82523537D01*
X141568204Y-82536201D01*
X141487282Y-82531504D01*
X141427547Y-82491477D01*
X141414884Y-82382881D01*
X141419581Y-82301959D01*
X141459607Y-82242224D01*
X141568204Y-82229561D01*
X141649125Y-82234258D01*
G37*
G36*
X143488964Y-88980334D02*
G01*
X143548699Y-89020361D01*
X143561363Y-89128957D01*
X143556666Y-89209879D01*
X143516639Y-89269614D01*
X143408043Y-89282277D01*
X143327121Y-89277580D01*
X143267386Y-89237554D01*
X143254723Y-89128957D01*
X143259420Y-89048036D01*
X143299446Y-88988301D01*
X143408043Y-88975637D01*
X143488964Y-88980334D01*
G37*
G36*
X144408884Y-83154177D02*
G01*
X144468619Y-83194204D01*
X144481282Y-83302800D01*
X144476585Y-83383722D01*
X144436559Y-83443457D01*
X144327962Y-83456120D01*
X144247041Y-83451423D01*
X144187306Y-83411397D01*
X144174642Y-83302800D01*
X144179339Y-83221879D01*
X144219366Y-83162144D01*
X144327962Y-83149480D01*
X144408884Y-83154177D01*
G37*
G36*
X144715524Y-83767457D02*
G01*
X144775258Y-83807484D01*
X144787922Y-83916080D01*
X144783225Y-83997002D01*
X144743198Y-84056736D01*
X144634602Y-84069400D01*
X144553680Y-84064703D01*
X144493946Y-84024676D01*
X144481282Y-83916080D01*
X144485979Y-83835158D01*
X144526006Y-83775424D01*
X144634602Y-83762760D01*
X144715524Y-83767457D01*
G37*
G36*
X145022163Y-83154177D02*
G01*
X145081898Y-83194204D01*
X145094562Y-83302800D01*
X145089865Y-83383722D01*
X145049838Y-83443457D01*
X144941242Y-83456120D01*
X144860320Y-83451423D01*
X144800586Y-83411397D01*
X144787922Y-83302800D01*
X144792619Y-83221879D01*
X144832645Y-83162144D01*
X144941242Y-83149480D01*
X145022163Y-83154177D01*
G37*
G36*
X145328803Y-80394419D02*
G01*
X145388538Y-80434445D01*
X145401202Y-80543042D01*
X145396505Y-80623963D01*
X145356478Y-80683698D01*
X145247882Y-80696362D01*
X145166960Y-80691665D01*
X145107225Y-80651638D01*
X145094562Y-80543042D01*
X145099259Y-80462120D01*
X145139285Y-80402385D01*
X145247882Y-80389722D01*
X145328803Y-80394419D01*
G37*
G36*
X145635443Y-83154177D02*
G01*
X145695178Y-83194204D01*
X145707841Y-83302800D01*
X145703144Y-83383722D01*
X145663118Y-83443457D01*
X145554522Y-83456120D01*
X145473600Y-83451423D01*
X145413865Y-83411397D01*
X145401202Y-83302800D01*
X145405899Y-83221879D01*
X145445925Y-83162144D01*
X145554522Y-83149480D01*
X145635443Y-83154177D01*
G37*
G36*
X146862003Y-82234258D02*
G01*
X146921737Y-82274284D01*
X146934401Y-82382881D01*
X146929704Y-82463802D01*
X146889677Y-82523537D01*
X146781081Y-82536201D01*
X146700159Y-82531504D01*
X146640425Y-82491477D01*
X146627761Y-82382881D01*
X146632458Y-82301959D01*
X146672484Y-82242224D01*
X146781081Y-82229561D01*
X146862003Y-82234258D01*
G37*
G36*
X147781922Y-79167860D02*
G01*
X147841657Y-79207886D01*
X147854320Y-79316482D01*
X147849623Y-79397404D01*
X147809597Y-79457139D01*
X147701000Y-79469802D01*
X147620079Y-79465105D01*
X147560344Y-79425079D01*
X147547681Y-79316482D01*
X147552378Y-79235561D01*
X147592404Y-79175826D01*
X147701000Y-79163163D01*
X147781922Y-79167860D01*
G37*
G36*
X147781922Y-81314338D02*
G01*
X147841657Y-81354365D01*
X147854320Y-81462961D01*
X147849623Y-81543883D01*
X147809597Y-81603618D01*
X147701000Y-81616281D01*
X147620079Y-81611584D01*
X147560344Y-81571558D01*
X147547681Y-81462961D01*
X147552378Y-81382040D01*
X147592404Y-81322305D01*
X147701000Y-81309641D01*
X147781922Y-81314338D01*
G37*
G36*
X148088562Y-80701059D02*
G01*
X148148297Y-80741085D01*
X148160960Y-80849682D01*
X148156263Y-80930603D01*
X148116237Y-80990338D01*
X148007640Y-81003002D01*
X147926719Y-80998305D01*
X147866984Y-80958278D01*
X147854320Y-80849682D01*
X147859017Y-80768760D01*
X147899044Y-80709025D01*
X148007640Y-80696362D01*
X148088562Y-80701059D01*
G37*
G36*
X148088562Y-84380737D02*
G01*
X148148297Y-84420763D01*
X148160960Y-84529360D01*
X148156263Y-84610281D01*
X148116237Y-84670016D01*
X148007640Y-84682680D01*
X147926719Y-84677983D01*
X147866984Y-84637956D01*
X147854320Y-84529360D01*
X147859017Y-84448438D01*
X147899044Y-84388703D01*
X148007640Y-84376040D01*
X148088562Y-84380737D01*
G37*
G36*
X149621761Y-81927618D02*
G01*
X149681496Y-81967645D01*
X149694159Y-82076241D01*
X149689462Y-82157163D01*
X149649436Y-82216897D01*
X149540839Y-82229561D01*
X149459918Y-82224864D01*
X149400183Y-82184837D01*
X149387520Y-82076241D01*
X149392217Y-81995319D01*
X149432243Y-81935585D01*
X149540839Y-81922921D01*
X149621761Y-81927618D01*
G37*
G36*
X150541681Y-83767457D02*
G01*
X150601415Y-83807484D01*
X150614079Y-83916080D01*
X150609382Y-83997002D01*
X150569355Y-84056736D01*
X150460759Y-84069400D01*
X150379837Y-84064703D01*
X150320103Y-84024676D01*
X150307439Y-83916080D01*
X150312136Y-83835158D01*
X150352163Y-83775424D01*
X150460759Y-83762760D01*
X150541681Y-83767457D01*
G37*
G36*
X152994799Y-83154177D02*
G01*
X153054534Y-83194204D01*
X153067198Y-83302800D01*
X153062501Y-83383722D01*
X153022474Y-83443457D01*
X152913878Y-83456120D01*
X152832956Y-83451423D01*
X152773221Y-83411397D01*
X152760558Y-83302800D01*
X152765255Y-83221879D01*
X152805281Y-83162144D01*
X152913878Y-83149480D01*
X152994799Y-83154177D01*
G37*
G36*
X153301439Y-88367055D02*
G01*
X153361174Y-88407081D01*
X153373837Y-88515678D01*
X153369140Y-88596599D01*
X153329114Y-88656334D01*
X153220518Y-88668998D01*
X153139596Y-88664301D01*
X153079861Y-88624274D01*
X153067198Y-88515678D01*
X153071895Y-88434756D01*
X153111921Y-88375021D01*
X153220518Y-88362358D01*
X153301439Y-88367055D01*
G37*
G36*
X153914719Y-88367055D02*
G01*
X153974454Y-88407081D01*
X153987117Y-88515678D01*
X153982420Y-88596599D01*
X153942394Y-88656334D01*
X153833797Y-88668998D01*
X153752876Y-88664301D01*
X153693141Y-88624274D01*
X153680477Y-88515678D01*
X153685174Y-88434756D01*
X153725201Y-88375021D01*
X153833797Y-88362358D01*
X153914719Y-88367055D01*
G37*
G36*
X143561363Y-80696362D02*
G01*
X142488123Y-80696362D01*
X141414884Y-80696362D01*
X141414884Y-79623122D01*
X141414884Y-78856523D01*
X141721524Y-78856523D01*
X141721524Y-79623122D01*
X141721524Y-80389722D01*
X142488123Y-80389722D01*
X143254723Y-80389722D01*
X143254723Y-79623122D01*
X143254723Y-78856523D01*
X142488123Y-78856523D01*
X141721524Y-78856523D01*
X141414884Y-78856523D01*
X141414884Y-78549883D01*
X142488123Y-78549883D01*
X143561363Y-78549883D01*
X143561363Y-79623122D01*
X143561363Y-80696362D01*
G37*
G36*
X153987117Y-80696362D02*
G01*
X152913878Y-80696362D01*
X151840638Y-80696362D01*
X151840638Y-79623122D01*
X151840638Y-78856523D01*
X152147278Y-78856523D01*
X152147278Y-79623122D01*
X152147278Y-80389722D01*
X152913878Y-80389722D01*
X153680477Y-80389722D01*
X153680477Y-79623122D01*
X153680477Y-78856523D01*
X152913878Y-78856523D01*
X152147278Y-78856523D01*
X151840638Y-78856523D01*
X151840638Y-78549883D01*
X152913878Y-78549883D01*
X153987117Y-78549883D01*
X153987117Y-79623122D01*
X153987117Y-80696362D01*
G37*
G36*
X153987117Y-91122116D02*
G01*
X152913878Y-91122116D01*
X151840638Y-91122116D01*
X151840638Y-90048877D01*
X151840638Y-89282277D01*
X152147278Y-89282277D01*
X152147278Y-90048877D01*
X152147278Y-90815476D01*
X152913878Y-90815476D01*
X153680477Y-90815476D01*
X153680477Y-90048877D01*
X153680477Y-89282277D01*
X152913878Y-89282277D01*
X152147278Y-89282277D01*
X151840638Y-89282277D01*
X151840638Y-88975637D01*
X152913878Y-88975637D01*
X153987117Y-88975637D01*
X153987117Y-90048877D01*
X153987117Y-91122116D01*
G37*
G36*
X146627761Y-88055718D02*
G01*
X146934401Y-88055718D01*
X146934401Y-88362358D01*
X146934401Y-88668998D01*
X146781081Y-88668998D01*
X146700159Y-88664301D01*
X146640425Y-88624274D01*
X146627761Y-88515678D01*
X146623064Y-88434756D01*
X146583038Y-88375021D01*
X146474441Y-88362358D01*
X146393519Y-88357661D01*
X146333785Y-88317634D01*
X146321121Y-88209038D01*
X146321121Y-88055718D01*
X146627761Y-88055718D01*
G37*
G36*
X146321121Y-87902398D02*
G01*
X146321121Y-88055718D01*
X146014481Y-88055718D01*
X145707841Y-88055718D01*
X145707841Y-87902398D01*
X145707841Y-87749078D01*
X146014481Y-87749078D01*
X146321121Y-87749078D01*
X146321121Y-87902398D01*
G37*
G36*
X149008481Y-80394419D02*
G01*
X149068216Y-80434445D01*
X149080880Y-80543042D01*
X149076183Y-80623963D01*
X149036156Y-80683698D01*
X148927560Y-80696362D01*
X148846638Y-80701059D01*
X148786903Y-80741085D01*
X148774240Y-80849682D01*
X148769543Y-80930603D01*
X148729516Y-80990338D01*
X148620920Y-81003002D01*
X148539998Y-80998305D01*
X148480264Y-80958278D01*
X148467600Y-80849682D01*
X148472297Y-80768760D01*
X148512324Y-80709025D01*
X148620920Y-80696362D01*
X148701842Y-80691665D01*
X148761576Y-80651638D01*
X148774240Y-80543042D01*
X148778937Y-80462120D01*
X148818963Y-80402385D01*
X148927560Y-80389722D01*
X149008481Y-80394419D01*
G37*
G36*
X152994799Y-81007699D02*
G01*
X153054534Y-81047725D01*
X153067198Y-81156321D01*
X153071895Y-81237243D01*
X153111921Y-81296978D01*
X153220518Y-81309641D01*
X153301439Y-81304944D01*
X153361174Y-81264918D01*
X153373837Y-81156321D01*
X153373837Y-81003002D01*
X153680477Y-81003002D01*
X153987117Y-81003002D01*
X153987117Y-81156321D01*
X153982420Y-81237243D01*
X153942394Y-81296978D01*
X153833797Y-81309641D01*
X153752876Y-81314338D01*
X153693141Y-81354365D01*
X153680477Y-81462961D01*
X153680477Y-81616281D01*
X153220518Y-81616281D01*
X152760558Y-81616281D01*
X152760558Y-81309641D01*
X152760558Y-81003002D01*
X152913878Y-81003002D01*
X152994799Y-81007699D01*
G37*
G36*
X149694159Y-80696362D02*
G01*
X149694159Y-81003002D01*
X149847479Y-81003002D01*
X149928401Y-81007699D01*
X149988136Y-81047725D01*
X150000799Y-81156321D01*
X150000799Y-81309641D01*
X150460759Y-81309641D01*
X150920719Y-81309641D01*
X150920719Y-81616281D01*
X150920719Y-81922921D01*
X150767399Y-81922921D01*
X150686477Y-81918224D01*
X150626742Y-81878198D01*
X150614079Y-81769601D01*
X150614079Y-81616281D01*
X150307439Y-81616281D01*
X150000799Y-81616281D01*
X150000799Y-81462961D01*
X149996102Y-81382040D01*
X149956076Y-81322305D01*
X149847479Y-81309641D01*
X149766558Y-81304944D01*
X149706823Y-81264918D01*
X149694159Y-81156321D01*
X149689462Y-81075400D01*
X149649436Y-81015665D01*
X149540839Y-81003002D01*
X149387520Y-81003002D01*
X149387520Y-80696362D01*
X149387520Y-80389722D01*
X149540839Y-80389722D01*
X149694159Y-80389722D01*
X149694159Y-80696362D01*
G37*
G36*
X147547681Y-85755919D02*
G01*
X147547681Y-86215879D01*
X147394361Y-86215879D01*
X147313439Y-86220576D01*
X147253704Y-86260602D01*
X147241041Y-86369199D01*
X147236344Y-86450120D01*
X147196317Y-86509855D01*
X147087721Y-86522519D01*
X147006799Y-86517822D01*
X146947064Y-86477795D01*
X146934401Y-86369199D01*
X146939098Y-86288277D01*
X146979124Y-86228542D01*
X147087721Y-86215879D01*
X147168642Y-86211182D01*
X147228377Y-86171155D01*
X147241041Y-86062559D01*
X147241041Y-85909239D01*
X146934401Y-85909239D01*
X146627761Y-85909239D01*
X146627761Y-86062559D01*
X146627761Y-86215879D01*
X146321121Y-86215879D01*
X146014481Y-86215879D01*
X146014481Y-85909239D01*
X146014481Y-85602599D01*
X146167801Y-85602599D01*
X146248723Y-85607296D01*
X146308458Y-85647323D01*
X146321121Y-85755919D01*
X146325818Y-85836841D01*
X146365845Y-85896575D01*
X146474441Y-85909239D01*
X146555363Y-85904542D01*
X146615097Y-85864516D01*
X146627761Y-85755919D01*
X146632458Y-85674997D01*
X146672484Y-85615263D01*
X146781081Y-85602599D01*
X146862003Y-85597902D01*
X146921737Y-85557876D01*
X146934401Y-85449279D01*
X146934401Y-85295959D01*
X147241041Y-85295959D01*
X147547681Y-85295959D01*
X147547681Y-85755919D01*
G37*
G36*
X150000799Y-82996161D02*
G01*
X150000799Y-83456120D01*
X149847479Y-83456120D01*
X149766558Y-83460817D01*
X149706823Y-83500844D01*
X149694159Y-83609440D01*
X149698856Y-83690362D01*
X149738883Y-83750097D01*
X149847479Y-83762760D01*
X149928401Y-83767457D01*
X149988136Y-83807484D01*
X150000799Y-83916080D01*
X149996102Y-83997002D01*
X149956076Y-84056736D01*
X149847479Y-84069400D01*
X149694159Y-84069400D01*
X149694159Y-84376040D01*
X149694159Y-84682680D01*
X149387520Y-84682680D01*
X149080880Y-84682680D01*
X149080880Y-84529360D01*
X149085577Y-84448438D01*
X149125603Y-84388703D01*
X149234200Y-84376040D01*
X149315121Y-84371343D01*
X149374856Y-84331316D01*
X149387520Y-84222720D01*
X149392217Y-84141798D01*
X149432243Y-84082064D01*
X149540839Y-84069400D01*
X149621761Y-84064703D01*
X149681496Y-84024676D01*
X149694159Y-83916080D01*
X149689462Y-83835158D01*
X149649436Y-83775424D01*
X149540839Y-83762760D01*
X149387520Y-83762760D01*
X149387520Y-83302800D01*
X149387520Y-82842841D01*
X149540839Y-82842841D01*
X149621761Y-82838144D01*
X149681496Y-82798117D01*
X149694159Y-82689521D01*
X149698856Y-82608599D01*
X149738883Y-82548864D01*
X149847479Y-82536201D01*
X150000799Y-82536201D01*
X150000799Y-82996161D01*
G37*
G36*
X152142581Y-84916921D02*
G01*
X152102555Y-84976656D01*
X151993958Y-84989319D01*
X151913037Y-84994016D01*
X151853302Y-85034043D01*
X151840638Y-85142639D01*
X151835941Y-85223561D01*
X151795915Y-85283296D01*
X151687318Y-85295959D01*
X151606397Y-85291262D01*
X151546662Y-85251236D01*
X151533998Y-85142639D01*
X151529301Y-85061718D01*
X151489275Y-85001983D01*
X151380679Y-84989319D01*
X151227359Y-84989319D01*
X151227359Y-84836000D01*
X151533998Y-84836000D01*
X151538695Y-84916921D01*
X151578722Y-84976656D01*
X151687318Y-84989319D01*
X151768240Y-84984622D01*
X151827975Y-84944596D01*
X151840638Y-84836000D01*
X151835941Y-84755078D01*
X151795915Y-84695343D01*
X151687318Y-84682680D01*
X151606397Y-84687377D01*
X151546662Y-84727403D01*
X151533998Y-84836000D01*
X151227359Y-84836000D01*
X151227359Y-84682680D01*
X151227359Y-84376040D01*
X151533998Y-84376040D01*
X151840638Y-84376040D01*
X151840638Y-84529360D01*
X151845335Y-84610281D01*
X151885362Y-84670016D01*
X151993958Y-84682680D01*
X152074880Y-84687377D01*
X152134615Y-84727403D01*
X152147278Y-84836000D01*
X152142581Y-84916921D01*
G37*
G36*
X151154960Y-84074097D02*
G01*
X151214695Y-84114123D01*
X151227359Y-84222720D01*
X151227359Y-84376040D01*
X151074039Y-84376040D01*
X150993117Y-84371343D01*
X150933382Y-84331316D01*
X150920719Y-84222720D01*
X150925416Y-84141798D01*
X150965442Y-84082064D01*
X151074039Y-84069400D01*
X151154960Y-84074097D01*
G37*
G36*
X151232056Y-83077082D02*
G01*
X151272082Y-83136817D01*
X151380679Y-83149480D01*
X151461600Y-83144783D01*
X151521335Y-83104757D01*
X151533998Y-82996161D01*
X151533998Y-82842841D01*
X151840638Y-82842841D01*
X152147278Y-82842841D01*
X152147278Y-82996161D01*
X152142581Y-83077082D01*
X152102555Y-83136817D01*
X151993958Y-83149480D01*
X151913037Y-83154177D01*
X151853302Y-83194204D01*
X151840638Y-83302800D01*
X151845335Y-83383722D01*
X151885362Y-83443457D01*
X151993958Y-83456120D01*
X152074880Y-83460817D01*
X152134615Y-83500844D01*
X152147278Y-83609440D01*
X152147278Y-83762760D01*
X151840638Y-83762760D01*
X151533998Y-83762760D01*
X151533998Y-83609440D01*
X151529301Y-83528519D01*
X151489275Y-83468784D01*
X151380679Y-83456120D01*
X151299757Y-83460817D01*
X151240022Y-83500844D01*
X151227359Y-83609440D01*
X151222662Y-83690362D01*
X151182635Y-83750097D01*
X151074039Y-83762760D01*
X150993117Y-83758063D01*
X150933382Y-83718037D01*
X150920719Y-83609440D01*
X150920719Y-83456120D01*
X150614079Y-83456120D01*
X150307439Y-83456120D01*
X150307439Y-82996161D01*
X150614079Y-82996161D01*
X150618776Y-83077082D01*
X150658802Y-83136817D01*
X150767399Y-83149480D01*
X150848320Y-83144783D01*
X150908055Y-83104757D01*
X150920719Y-82996161D01*
X150916022Y-82915239D01*
X150875995Y-82855504D01*
X150767399Y-82842841D01*
X150686477Y-82847538D01*
X150626742Y-82887564D01*
X150614079Y-82996161D01*
X150307439Y-82996161D01*
X150307439Y-82536201D01*
X150460759Y-82536201D01*
X150541681Y-82531504D01*
X150601415Y-82491477D01*
X150614079Y-82382881D01*
X150618776Y-82301959D01*
X150658802Y-82242224D01*
X150767399Y-82229561D01*
X150920719Y-82229561D01*
X150920719Y-82536201D01*
X150920719Y-82842841D01*
X151074039Y-82842841D01*
X151154960Y-82847538D01*
X151214695Y-82887564D01*
X151227359Y-82996161D01*
X151232056Y-83077082D01*
G37*
G36*
X151529301Y-90129798D02*
G01*
X151489275Y-90189533D01*
X151380679Y-90202197D01*
X151299757Y-90206894D01*
X151240022Y-90246920D01*
X151227359Y-90355517D01*
X151232056Y-90436438D01*
X151272082Y-90496173D01*
X151380679Y-90508837D01*
X151533998Y-90508837D01*
X151533998Y-90662156D01*
X151533998Y-90815476D01*
X151533998Y-91122116D01*
X150767399Y-91122116D01*
X150000799Y-91122116D01*
X150000799Y-90968796D01*
X149996102Y-90887875D01*
X149956076Y-90828140D01*
X149847479Y-90815476D01*
X149766558Y-90810779D01*
X149706823Y-90770753D01*
X149694159Y-90662156D01*
X149689462Y-90581235D01*
X149649436Y-90521500D01*
X149540839Y-90508837D01*
X149459918Y-90504140D01*
X149400183Y-90464113D01*
X149387520Y-90355517D01*
X149382823Y-90274595D01*
X149342796Y-90214860D01*
X149234200Y-90202197D01*
X149153278Y-90197500D01*
X149093543Y-90157473D01*
X149080880Y-90048877D01*
X149085577Y-89967955D01*
X149125603Y-89908220D01*
X149234200Y-89895557D01*
X149315121Y-89890860D01*
X149374856Y-89850833D01*
X149387520Y-89742237D01*
X149392217Y-89661315D01*
X149432243Y-89601581D01*
X149540839Y-89588917D01*
X149694159Y-89588917D01*
X149694159Y-90048877D01*
X149694159Y-90508837D01*
X149847479Y-90508837D01*
X150000799Y-90508837D01*
X150000799Y-90202197D01*
X150307439Y-90202197D01*
X150307439Y-90508837D01*
X150307439Y-90815476D01*
X150614079Y-90815476D01*
X150920719Y-90815476D01*
X150920719Y-90662156D01*
X150916022Y-90581235D01*
X150875995Y-90521500D01*
X150767399Y-90508837D01*
X150686477Y-90504140D01*
X150626742Y-90464113D01*
X150614079Y-90355517D01*
X150609382Y-90274595D01*
X150569355Y-90214860D01*
X150460759Y-90202197D01*
X150307439Y-90202197D01*
X150000799Y-90202197D01*
X150000799Y-90048877D01*
X150000799Y-89588917D01*
X149847479Y-89588917D01*
X149694159Y-89588917D01*
X149540839Y-89588917D01*
X149621761Y-89584220D01*
X149681496Y-89544194D01*
X149694159Y-89435597D01*
X149689462Y-89354676D01*
X149649436Y-89294941D01*
X149540839Y-89282277D01*
X149387520Y-89282277D01*
X149387520Y-88975637D01*
X149387520Y-88668998D01*
X149540839Y-88668998D01*
X149621761Y-88664301D01*
X149681496Y-88624274D01*
X149694159Y-88515678D01*
X149698856Y-88434756D01*
X149738883Y-88375021D01*
X149847479Y-88362358D01*
X150000799Y-88362358D01*
X150000799Y-88668998D01*
X150000799Y-88975637D01*
X150154119Y-88975637D01*
X150307439Y-88975637D01*
X150307439Y-89435597D01*
X150307439Y-89895557D01*
X150614079Y-89895557D01*
X150920719Y-89895557D01*
X150920719Y-89742237D01*
X150925416Y-89661315D01*
X150965442Y-89601581D01*
X151074039Y-89588917D01*
X151154960Y-89593614D01*
X151214695Y-89633641D01*
X151227359Y-89742237D01*
X151232056Y-89823159D01*
X151272082Y-89882893D01*
X151380679Y-89895557D01*
X151461600Y-89900254D01*
X151521335Y-89940280D01*
X151533998Y-90048877D01*
X151529301Y-90129798D01*
G37*
G36*
X145401202Y-85602599D02*
G01*
X145707841Y-85602599D01*
X145707841Y-85755919D01*
X145703144Y-85836841D01*
X145663118Y-85896575D01*
X145554522Y-85909239D01*
X145473600Y-85913936D01*
X145413865Y-85953962D01*
X145401202Y-86062559D01*
X145405899Y-86143481D01*
X145445925Y-86203215D01*
X145554522Y-86215879D01*
X145635443Y-86220576D01*
X145695178Y-86260602D01*
X145707841Y-86369199D01*
X145703144Y-86450120D01*
X145663118Y-86509855D01*
X145554522Y-86522519D01*
X145473600Y-86517822D01*
X145413865Y-86477795D01*
X145401202Y-86369199D01*
X145396505Y-86288277D01*
X145356478Y-86228542D01*
X145247882Y-86215879D01*
X145094562Y-86215879D01*
X145094562Y-85909239D01*
X145094562Y-85602599D01*
X145401202Y-85602599D01*
G37*
G36*
X146325818Y-84916921D02*
G01*
X146365845Y-84976656D01*
X146474441Y-84989319D01*
X146555363Y-84994016D01*
X146615097Y-85034043D01*
X146627761Y-85142639D01*
X146623064Y-85223561D01*
X146583038Y-85283296D01*
X146474441Y-85295959D01*
X146393519Y-85291262D01*
X146333785Y-85251236D01*
X146321121Y-85142639D01*
X146321121Y-84989319D01*
X145861161Y-84989319D01*
X145401202Y-84989319D01*
X145401202Y-85142639D01*
X145396505Y-85223561D01*
X145356478Y-85283296D01*
X145247882Y-85295959D01*
X145166960Y-85300656D01*
X145107225Y-85340683D01*
X145094562Y-85449279D01*
X145094562Y-85602599D01*
X144481282Y-85602599D01*
X143868002Y-85602599D01*
X143868002Y-85449279D01*
X143868002Y-85295959D01*
X144174642Y-85295959D01*
X144481282Y-85295959D01*
X144481282Y-84989319D01*
X144481282Y-84836000D01*
X144787922Y-84836000D01*
X144792619Y-84916921D01*
X144832645Y-84976656D01*
X144941242Y-84989319D01*
X145022163Y-84984622D01*
X145081898Y-84944596D01*
X145094562Y-84836000D01*
X145089865Y-84755078D01*
X145049838Y-84695343D01*
X144941242Y-84682680D01*
X144860320Y-84687377D01*
X144800586Y-84727403D01*
X144787922Y-84836000D01*
X144481282Y-84836000D01*
X144481282Y-84682680D01*
X144327962Y-84682680D01*
X144247041Y-84687377D01*
X144187306Y-84727403D01*
X144174642Y-84836000D01*
X144169945Y-84916921D01*
X144129919Y-84976656D01*
X144021322Y-84989319D01*
X143940401Y-84984622D01*
X143880666Y-84944596D01*
X143868002Y-84836000D01*
X143872699Y-84755078D01*
X143912726Y-84695343D01*
X144021322Y-84682680D01*
X144102244Y-84677983D01*
X144161979Y-84637956D01*
X144174642Y-84529360D01*
X144174642Y-84376040D01*
X144634602Y-84376040D01*
X145094562Y-84376040D01*
X145094562Y-84069400D01*
X145094562Y-83762760D01*
X145707841Y-83762760D01*
X146321121Y-83762760D01*
X146321121Y-83609440D01*
X146325818Y-83528519D01*
X146365845Y-83468784D01*
X146474441Y-83456120D01*
X146555363Y-83460817D01*
X146615097Y-83500844D01*
X146627761Y-83609440D01*
X146632458Y-83690362D01*
X146672484Y-83750097D01*
X146781081Y-83762760D01*
X146862003Y-83767457D01*
X146921737Y-83807484D01*
X146934401Y-83916080D01*
X146934401Y-84069400D01*
X146167801Y-84069400D01*
X145401202Y-84069400D01*
X145401202Y-84222720D01*
X145405899Y-84303641D01*
X145445925Y-84363376D01*
X145554522Y-84376040D01*
X145635443Y-84380737D01*
X145695178Y-84420763D01*
X145707841Y-84529360D01*
X145707841Y-84682680D01*
X146014481Y-84682680D01*
X146321121Y-84682680D01*
X146321121Y-84529360D01*
X146325818Y-84448438D01*
X146365845Y-84388703D01*
X146474441Y-84376040D01*
X146555363Y-84380737D01*
X146615097Y-84420763D01*
X146627761Y-84529360D01*
X146623064Y-84610281D01*
X146583038Y-84670016D01*
X146474441Y-84682680D01*
X146393519Y-84687377D01*
X146333785Y-84727403D01*
X146321121Y-84836000D01*
X146325818Y-84916921D01*
G37*
G36*
X152453918Y-81769601D02*
G01*
X152453918Y-82229561D01*
X152607238Y-82229561D01*
X152688159Y-82234258D01*
X152747894Y-82274284D01*
X152760558Y-82382881D01*
X152760558Y-82536201D01*
X153067198Y-82536201D01*
X153373837Y-82536201D01*
X153373837Y-82382881D01*
X153378534Y-82301959D01*
X153418561Y-82242224D01*
X153527157Y-82229561D01*
X153608079Y-82224864D01*
X153667814Y-82184837D01*
X153680477Y-82076241D01*
X153685174Y-81995319D01*
X153725201Y-81935585D01*
X153833797Y-81922921D01*
X153987117Y-81922921D01*
X153987117Y-82689521D01*
X153987117Y-83456120D01*
X153833797Y-83456120D01*
X153752876Y-83460817D01*
X153693141Y-83500844D01*
X153680477Y-83609440D01*
X153685174Y-83690362D01*
X153725201Y-83750097D01*
X153833797Y-83762760D01*
X153914719Y-83767457D01*
X153974454Y-83807484D01*
X153987117Y-83916080D01*
X153982420Y-83997002D01*
X153942394Y-84056736D01*
X153833797Y-84069400D01*
X153752876Y-84074097D01*
X153693141Y-84114123D01*
X153680477Y-84222720D01*
X153685174Y-84303641D01*
X153725201Y-84363376D01*
X153833797Y-84376040D01*
X153987117Y-84376040D01*
X153987117Y-85142639D01*
X153987117Y-85755919D01*
X153987117Y-85909239D01*
X153987117Y-87442438D01*
X153833797Y-87442438D01*
X153752876Y-87447135D01*
X153693141Y-87487162D01*
X153680477Y-87595758D01*
X153685174Y-87676680D01*
X153725201Y-87736414D01*
X153833797Y-87749078D01*
X153914719Y-87753775D01*
X153974454Y-87793802D01*
X153987117Y-87902398D01*
X153982420Y-87983320D01*
X153942394Y-88043054D01*
X153833797Y-88055718D01*
X153752876Y-88051021D01*
X153693141Y-88010994D01*
X153680477Y-87902398D01*
X153675780Y-87821476D01*
X153635754Y-87761742D01*
X153527157Y-87749078D01*
X153373837Y-87749078D01*
X153373837Y-87442438D01*
X153373837Y-87135798D01*
X153527157Y-87135798D01*
X153608079Y-87131101D01*
X153667814Y-87091075D01*
X153680477Y-86982478D01*
X153680477Y-86829159D01*
X153373837Y-86829159D01*
X153067198Y-86829159D01*
X153067198Y-86522519D01*
X153067198Y-86215879D01*
X152760558Y-86215879D01*
X152453918Y-86215879D01*
X152453918Y-86369199D01*
X152458615Y-86450120D01*
X152498641Y-86509855D01*
X152607238Y-86522519D01*
X152688159Y-86527216D01*
X152747894Y-86567242D01*
X152760558Y-86675839D01*
X152755861Y-86756760D01*
X152715834Y-86816495D01*
X152607238Y-86829159D01*
X152526316Y-86824462D01*
X152466582Y-86784435D01*
X152453918Y-86675839D01*
X152449221Y-86594917D01*
X152409194Y-86535182D01*
X152300598Y-86522519D01*
X152219676Y-86527216D01*
X152159942Y-86567242D01*
X152147278Y-86675839D01*
X152142581Y-86756760D01*
X152102555Y-86816495D01*
X151993958Y-86829159D01*
X151913037Y-86833856D01*
X151853302Y-86873882D01*
X151840638Y-86982478D01*
X151840638Y-87135798D01*
X152147278Y-87135798D01*
X152453918Y-87135798D01*
X152453918Y-87289118D01*
X152453918Y-87442438D01*
X152147278Y-87442438D01*
X151840638Y-87442438D01*
X151840638Y-87595758D01*
X151845335Y-87676680D01*
X151885362Y-87736414D01*
X151993958Y-87749078D01*
X152074880Y-87753775D01*
X152134615Y-87793802D01*
X152147278Y-87902398D01*
X152142581Y-87983320D01*
X152102555Y-88043054D01*
X151993958Y-88055718D01*
X151913037Y-88060415D01*
X151853302Y-88100441D01*
X151840638Y-88209038D01*
X151840638Y-88362358D01*
X152147278Y-88362358D01*
X152453918Y-88362358D01*
X152453918Y-88209038D01*
X152458615Y-88128116D01*
X152498641Y-88068381D01*
X152607238Y-88055718D01*
X152760558Y-88055718D01*
X152760558Y-88362358D01*
X152760558Y-88668998D01*
X152147278Y-88668998D01*
X151533998Y-88668998D01*
X151533998Y-88975637D01*
X151533998Y-89282277D01*
X151380679Y-89282277D01*
X151299757Y-89277580D01*
X151240022Y-89237554D01*
X151227359Y-89128957D01*
X151222662Y-89048036D01*
X151182635Y-88988301D01*
X151074039Y-88975637D01*
X150993117Y-88980334D01*
X150933382Y-89020361D01*
X150920719Y-89128957D01*
X150916022Y-89209879D01*
X150875995Y-89269614D01*
X150767399Y-89282277D01*
X150614079Y-89282277D01*
X150614079Y-88975637D01*
X150614079Y-88668998D01*
X150460759Y-88668998D01*
X150307439Y-88668998D01*
X150307439Y-88362358D01*
X150307439Y-88055718D01*
X150460759Y-88055718D01*
X150614079Y-88055718D01*
X150614079Y-88362358D01*
X150614079Y-88668998D01*
X150767399Y-88668998D01*
X150920719Y-88668998D01*
X150920719Y-88362358D01*
X150920719Y-88055718D01*
X150767399Y-88055718D01*
X150614079Y-88055718D01*
X150614079Y-87749078D01*
X150614079Y-87442438D01*
X150767399Y-87442438D01*
X150920719Y-87442438D01*
X150920719Y-87749078D01*
X150920719Y-88055718D01*
X151380679Y-88055718D01*
X151840638Y-88055718D01*
X151840638Y-87902398D01*
X151840638Y-87749078D01*
X151533998Y-87749078D01*
X151227359Y-87749078D01*
X151227359Y-87442438D01*
X151227359Y-87135798D01*
X150767399Y-87135798D01*
X150307439Y-87135798D01*
X150307439Y-86829159D01*
X150307439Y-86522519D01*
X150154119Y-86522519D01*
X150073198Y-86527216D01*
X150013463Y-86567242D01*
X150000799Y-86675839D01*
X150000799Y-86829159D01*
X149694159Y-86829159D01*
X149387520Y-86829159D01*
X149387520Y-86369199D01*
X150307439Y-86369199D01*
X150312136Y-86450120D01*
X150352163Y-86509855D01*
X150460759Y-86522519D01*
X150541681Y-86517822D01*
X150601415Y-86477795D01*
X150614079Y-86369199D01*
X150609382Y-86288277D01*
X150569355Y-86228542D01*
X150460759Y-86215879D01*
X150379837Y-86220576D01*
X150320103Y-86260602D01*
X150307439Y-86369199D01*
X149387520Y-86369199D01*
X149387520Y-85909239D01*
X149080880Y-85909239D01*
X148774240Y-85909239D01*
X148774240Y-85755919D01*
X148774240Y-85602599D01*
X148314280Y-85602599D01*
X147854320Y-85602599D01*
X147854320Y-85449279D01*
X147854320Y-85295959D01*
X148160960Y-85295959D01*
X148467600Y-85295959D01*
X148467600Y-85142639D01*
X148467600Y-84989319D01*
X148774240Y-84989319D01*
X149080880Y-84989319D01*
X149080880Y-85295959D01*
X149080880Y-85602599D01*
X149234200Y-85602599D01*
X149315121Y-85607296D01*
X149374856Y-85647323D01*
X149387520Y-85755919D01*
X149392217Y-85836841D01*
X149432243Y-85896575D01*
X149540839Y-85909239D01*
X150920719Y-85909239D01*
X150920719Y-86062559D01*
X150925416Y-86143481D01*
X150965442Y-86203215D01*
X151074039Y-86215879D01*
X151227359Y-86215879D01*
X151227359Y-86369199D01*
X151227359Y-86675839D01*
X151227359Y-87135798D01*
X151380679Y-87135798D01*
X151461600Y-87131101D01*
X151521335Y-87091075D01*
X151533998Y-86982478D01*
X151538695Y-86901557D01*
X151578722Y-86841822D01*
X151687318Y-86829159D01*
X151768240Y-86824462D01*
X151827975Y-86784435D01*
X151840638Y-86675839D01*
X151845335Y-86594917D01*
X151885362Y-86535182D01*
X151993958Y-86522519D01*
X152074880Y-86517822D01*
X152134615Y-86477795D01*
X152147278Y-86369199D01*
X152147278Y-86215879D01*
X151840638Y-86215879D01*
X151533998Y-86215879D01*
X151533998Y-86062559D01*
X151533998Y-85909239D01*
X151227359Y-85909239D01*
X150920719Y-85909239D01*
X149540839Y-85909239D01*
X149621761Y-85904542D01*
X149681496Y-85864516D01*
X149694159Y-85755919D01*
X149689462Y-85674997D01*
X149649436Y-85615263D01*
X149540839Y-85602599D01*
X149387520Y-85602599D01*
X149387520Y-85295959D01*
X149387520Y-84989319D01*
X149694159Y-84989319D01*
X150000799Y-84989319D01*
X150000799Y-84529360D01*
X150000799Y-84069400D01*
X150154119Y-84069400D01*
X150307439Y-84069400D01*
X150307439Y-84376040D01*
X150307439Y-84682680D01*
X150460759Y-84682680D01*
X150541681Y-84677983D01*
X150601415Y-84637956D01*
X150614079Y-84529360D01*
X150618776Y-84448438D01*
X150658802Y-84388703D01*
X150767399Y-84376040D01*
X150920719Y-84376040D01*
X150920719Y-84682680D01*
X150920719Y-84989319D01*
X150767399Y-84989319D01*
X150614079Y-84989319D01*
X150614079Y-85295959D01*
X150614079Y-85602599D01*
X150767399Y-85602599D01*
X150848320Y-85597902D01*
X150908055Y-85557876D01*
X150920719Y-85449279D01*
X150920719Y-85295959D01*
X151227359Y-85295959D01*
X151533998Y-85295959D01*
X151533998Y-85602599D01*
X151533998Y-85909239D01*
X151840638Y-85909239D01*
X152147278Y-85909239D01*
X152147278Y-85755919D01*
X152142581Y-85674997D01*
X152102555Y-85615263D01*
X151993958Y-85602599D01*
X151913037Y-85597902D01*
X151853302Y-85557876D01*
X151840638Y-85449279D01*
X151845335Y-85368358D01*
X151885362Y-85308623D01*
X151993958Y-85295959D01*
X152074880Y-85291262D01*
X152134615Y-85251236D01*
X152147278Y-85142639D01*
X152151975Y-85061718D01*
X152192002Y-85001983D01*
X152300598Y-84989319D01*
X152453918Y-84989319D01*
X152453918Y-85449279D01*
X152453918Y-85909239D01*
X152607238Y-85909239D01*
X152760558Y-85909239D01*
X152760558Y-85755919D01*
X153067198Y-85755919D01*
X153071895Y-85836841D01*
X153111921Y-85896575D01*
X153220518Y-85909239D01*
X153301439Y-85904542D01*
X153361174Y-85864516D01*
X153373837Y-85755919D01*
X153369140Y-85674997D01*
X153329114Y-85615263D01*
X153220518Y-85602599D01*
X153139596Y-85607296D01*
X153079861Y-85647323D01*
X153067198Y-85755919D01*
X152760558Y-85755919D01*
X152760558Y-85602599D01*
X152760558Y-85295959D01*
X152913878Y-85295959D01*
X152994799Y-85291262D01*
X153054534Y-85251236D01*
X153067198Y-85142639D01*
X153373837Y-85142639D01*
X153378534Y-85223561D01*
X153418561Y-85283296D01*
X153527157Y-85295959D01*
X153608079Y-85291262D01*
X153667814Y-85251236D01*
X153680477Y-85142639D01*
X153675780Y-85061718D01*
X153635754Y-85001983D01*
X153527157Y-84989319D01*
X153446236Y-84994016D01*
X153386501Y-85034043D01*
X153373837Y-85142639D01*
X153067198Y-85142639D01*
X153062501Y-85061718D01*
X153022474Y-85001983D01*
X152913878Y-84989319D01*
X152832956Y-84984622D01*
X152773221Y-84944596D01*
X152760558Y-84836000D01*
X152765255Y-84755078D01*
X152805281Y-84695343D01*
X152913878Y-84682680D01*
X152994799Y-84677983D01*
X153054534Y-84637956D01*
X153067198Y-84529360D01*
X153062501Y-84448438D01*
X153022474Y-84388703D01*
X152913878Y-84376040D01*
X152832956Y-84380737D01*
X152773221Y-84420763D01*
X152760558Y-84529360D01*
X152760558Y-84682680D01*
X152453918Y-84682680D01*
X152147278Y-84682680D01*
X152147278Y-84529360D01*
X152142581Y-84448438D01*
X152102555Y-84388703D01*
X151993958Y-84376040D01*
X151913037Y-84371343D01*
X151853302Y-84331316D01*
X151840638Y-84222720D01*
X151845335Y-84141798D01*
X151885362Y-84082064D01*
X151993958Y-84069400D01*
X152074880Y-84064703D01*
X152134615Y-84024676D01*
X152147278Y-83916080D01*
X152147278Y-83762760D01*
X152453918Y-83762760D01*
X152760558Y-83762760D01*
X152760558Y-83916080D01*
X152760558Y-84069400D01*
X153067198Y-84069400D01*
X153373837Y-84069400D01*
X153373837Y-83762760D01*
X153373837Y-83456120D01*
X153527157Y-83456120D01*
X153680477Y-83456120D01*
X153680477Y-82996161D01*
X153680477Y-82536201D01*
X153527157Y-82536201D01*
X153373837Y-82536201D01*
X153373837Y-82842841D01*
X153373837Y-83149480D01*
X153220518Y-83149480D01*
X153139596Y-83144783D01*
X153079861Y-83104757D01*
X153067198Y-82996161D01*
X153062501Y-82915239D01*
X153022474Y-82855504D01*
X152913878Y-82842841D01*
X152832956Y-82838144D01*
X152773221Y-82798117D01*
X152760558Y-82689521D01*
X152755861Y-82608599D01*
X152715834Y-82548864D01*
X152607238Y-82536201D01*
X152526316Y-82540898D01*
X152466582Y-82580924D01*
X152453918Y-82689521D01*
X152449221Y-82770442D01*
X152409194Y-82830177D01*
X152300598Y-82842841D01*
X152219676Y-82838144D01*
X152159942Y-82798117D01*
X152147278Y-82689521D01*
X152142581Y-82608599D01*
X152102555Y-82548864D01*
X151993958Y-82536201D01*
X151913037Y-82531504D01*
X151853302Y-82491477D01*
X151840638Y-82382881D01*
X151845335Y-82301959D01*
X151885362Y-82242224D01*
X151993958Y-82229561D01*
X152074880Y-82224864D01*
X152134615Y-82184837D01*
X152147278Y-82076241D01*
X152147278Y-81922921D01*
X151840638Y-81922921D01*
X151533998Y-81922921D01*
X151533998Y-82229561D01*
X151533998Y-82536201D01*
X151380679Y-82536201D01*
X151299757Y-82531504D01*
X151240022Y-82491477D01*
X151227359Y-82382881D01*
X151222662Y-82301959D01*
X151182635Y-82242224D01*
X151074039Y-82229561D01*
X150993117Y-82224864D01*
X150933382Y-82184837D01*
X150920719Y-82076241D01*
X150925416Y-81995319D01*
X150965442Y-81935585D01*
X151074039Y-81922921D01*
X151154960Y-81918224D01*
X151214695Y-81878198D01*
X151227359Y-81769601D01*
X151232056Y-81688680D01*
X151272082Y-81628945D01*
X151380679Y-81616281D01*
X151533998Y-81616281D01*
X151533998Y-81462961D01*
X151840638Y-81462961D01*
X151845335Y-81543883D01*
X151885362Y-81603618D01*
X151993958Y-81616281D01*
X152074880Y-81611584D01*
X152134615Y-81571558D01*
X152147278Y-81462961D01*
X152142581Y-81382040D01*
X152102555Y-81322305D01*
X151993958Y-81309641D01*
X151913037Y-81314338D01*
X151853302Y-81354365D01*
X151840638Y-81462961D01*
X151533998Y-81462961D01*
X151533998Y-81309641D01*
X151533998Y-81003002D01*
X151840638Y-81003002D01*
X152147278Y-81003002D01*
X152147278Y-81156321D01*
X152151975Y-81237243D01*
X152192002Y-81296978D01*
X152300598Y-81309641D01*
X152453918Y-81309641D01*
X152453918Y-81462961D01*
X152453918Y-81769601D01*
G37*
G36*
X151533998Y-79469802D02*
G01*
X151380679Y-79469802D01*
X151299757Y-79474499D01*
X151240022Y-79514526D01*
X151227359Y-79623122D01*
X151232056Y-79704044D01*
X151272082Y-79763779D01*
X151380679Y-79776442D01*
X151533998Y-79776442D01*
X151533998Y-80389722D01*
X151533998Y-80543042D01*
X151533998Y-81003002D01*
X151074039Y-81003002D01*
X150614079Y-81003002D01*
X150614079Y-80696362D01*
X150614079Y-80543042D01*
X150920719Y-80543042D01*
X150925416Y-80623963D01*
X150965442Y-80683698D01*
X151074039Y-80696362D01*
X151154960Y-80691665D01*
X151214695Y-80651638D01*
X151227359Y-80543042D01*
X151222662Y-80462120D01*
X151182635Y-80402385D01*
X151074039Y-80389722D01*
X150993117Y-80394419D01*
X150933382Y-80434445D01*
X150920719Y-80543042D01*
X150614079Y-80543042D01*
X150614079Y-80389722D01*
X150460759Y-80389722D01*
X150379837Y-80394419D01*
X150320103Y-80434445D01*
X150307439Y-80543042D01*
X150302742Y-80623963D01*
X150262716Y-80683698D01*
X150154119Y-80696362D01*
X150073198Y-80691665D01*
X150013463Y-80651638D01*
X150000799Y-80543042D01*
X149996102Y-80462120D01*
X149956076Y-80402385D01*
X149847479Y-80389722D01*
X149766558Y-80385025D01*
X149706823Y-80344998D01*
X149694159Y-80236402D01*
X149689462Y-80155480D01*
X149649436Y-80095746D01*
X149540839Y-80083082D01*
X149459918Y-80087779D01*
X149400183Y-80127806D01*
X149387520Y-80236402D01*
X149382823Y-80317324D01*
X149342796Y-80377058D01*
X149234200Y-80389722D01*
X149080880Y-80389722D01*
X149080880Y-80083082D01*
X149080880Y-79776442D01*
X148927560Y-79776442D01*
X148846638Y-79771745D01*
X148786903Y-79731719D01*
X148774240Y-79623122D01*
X148769543Y-79542201D01*
X148729516Y-79482466D01*
X148620920Y-79469802D01*
X148539998Y-79474499D01*
X148480264Y-79514526D01*
X148467600Y-79623122D01*
X148472297Y-79704044D01*
X148512324Y-79763779D01*
X148620920Y-79776442D01*
X148701842Y-79781139D01*
X148761576Y-79821166D01*
X148774240Y-79929762D01*
X148769543Y-80010684D01*
X148729516Y-80070418D01*
X148620920Y-80083082D01*
X148467600Y-80083082D01*
X148467600Y-79929762D01*
X148462903Y-79848841D01*
X148422877Y-79789106D01*
X148314280Y-79776442D01*
X148233359Y-79771745D01*
X148173624Y-79731719D01*
X148160960Y-79623122D01*
X148165657Y-79542201D01*
X148205684Y-79482466D01*
X148314280Y-79469802D01*
X148395202Y-79465105D01*
X148454936Y-79425079D01*
X148467600Y-79316482D01*
X148462903Y-79235561D01*
X148422877Y-79175826D01*
X148314280Y-79163163D01*
X148233359Y-79158466D01*
X148173624Y-79118439D01*
X148160960Y-79009843D01*
X148156263Y-78928921D01*
X148116237Y-78869186D01*
X148007640Y-78856523D01*
X147926719Y-78851826D01*
X147866984Y-78811799D01*
X147854320Y-78703203D01*
X147854320Y-78549883D01*
X148314280Y-78549883D01*
X148774240Y-78549883D01*
X148774240Y-78703203D01*
X148769543Y-78784124D01*
X148729516Y-78843859D01*
X148620920Y-78856523D01*
X148539998Y-78861220D01*
X148480264Y-78901246D01*
X148467600Y-79009843D01*
X148472297Y-79090764D01*
X148512324Y-79150499D01*
X148620920Y-79163163D01*
X148701842Y-79167860D01*
X148761576Y-79207886D01*
X148774240Y-79316482D01*
X148774240Y-79469802D01*
X149080880Y-79469802D01*
X149387520Y-79469802D01*
X149387520Y-79623122D01*
X149392217Y-79704044D01*
X149432243Y-79763779D01*
X149540839Y-79776442D01*
X149621761Y-79771745D01*
X149681496Y-79731719D01*
X149694159Y-79623122D01*
X149698856Y-79542201D01*
X149738883Y-79482466D01*
X149847479Y-79469802D01*
X150000799Y-79469802D01*
X150000799Y-79929762D01*
X150000799Y-80389722D01*
X150154119Y-80389722D01*
X150235041Y-80385025D01*
X150294776Y-80344998D01*
X150307439Y-80236402D01*
X150307439Y-80083082D01*
X150614079Y-80083082D01*
X150920719Y-80083082D01*
X150920719Y-79929762D01*
X150920719Y-79776442D01*
X150614079Y-79776442D01*
X150307439Y-79776442D01*
X150307439Y-79623122D01*
X150312136Y-79542201D01*
X150352163Y-79482466D01*
X150460759Y-79469802D01*
X150541681Y-79465105D01*
X150601415Y-79425079D01*
X150614079Y-79316482D01*
X150920719Y-79316482D01*
X150925416Y-79397404D01*
X150965442Y-79457139D01*
X151074039Y-79469802D01*
X151154960Y-79465105D01*
X151214695Y-79425079D01*
X151227359Y-79316482D01*
X151222662Y-79235561D01*
X151182635Y-79175826D01*
X151074039Y-79163163D01*
X150993117Y-79167860D01*
X150933382Y-79207886D01*
X150920719Y-79316482D01*
X150614079Y-79316482D01*
X150614079Y-79163163D01*
X150307439Y-79163163D01*
X150000799Y-79163163D01*
X150000799Y-79009843D01*
X150000799Y-78856523D01*
X150767399Y-78856523D01*
X151533998Y-78856523D01*
X151533998Y-79163163D01*
X151533998Y-79316482D01*
X151533998Y-79469802D01*
G37*
G36*
X149392217Y-87370040D02*
G01*
X149432243Y-87429775D01*
X149540839Y-87442438D01*
X149621761Y-87437741D01*
X149681496Y-87397715D01*
X149694159Y-87289118D01*
X149698856Y-87208197D01*
X149738883Y-87148462D01*
X149847479Y-87135798D01*
X150000799Y-87135798D01*
X150000799Y-87442438D01*
X150000799Y-87749078D01*
X149694159Y-87749078D01*
X149387520Y-87749078D01*
X149387520Y-87595758D01*
X149382823Y-87514837D01*
X149342796Y-87455102D01*
X149234200Y-87442438D01*
X149080880Y-87442438D01*
X149080880Y-87902398D01*
X149080880Y-88055718D01*
X149080880Y-88668998D01*
X148927560Y-88668998D01*
X148846638Y-88664301D01*
X148786903Y-88624274D01*
X148774240Y-88515678D01*
X148774240Y-88362358D01*
X148467600Y-88362358D01*
X148160960Y-88362358D01*
X148160960Y-88515678D01*
X148165657Y-88596599D01*
X148205684Y-88656334D01*
X148314280Y-88668998D01*
X148395202Y-88673695D01*
X148454936Y-88713721D01*
X148467600Y-88822317D01*
X148467600Y-88975637D01*
X148774240Y-88975637D01*
X149080880Y-88975637D01*
X149080880Y-89128957D01*
X149080880Y-89282277D01*
X148774240Y-89282277D01*
X148467600Y-89282277D01*
X148467600Y-89435597D01*
X148462903Y-89516519D01*
X148422877Y-89576253D01*
X148314280Y-89588917D01*
X148233359Y-89593614D01*
X148173624Y-89633641D01*
X148160960Y-89742237D01*
X148160960Y-89895557D01*
X148467600Y-89895557D01*
X148774240Y-89895557D01*
X148774240Y-90048877D01*
X148774240Y-90202197D01*
X148160960Y-90202197D01*
X147547681Y-90202197D01*
X147547681Y-90508837D01*
X147547681Y-90815476D01*
X147854320Y-90815476D01*
X148160960Y-90815476D01*
X148160960Y-90662156D01*
X148160960Y-90508837D01*
X148620920Y-90508837D01*
X149080880Y-90508837D01*
X149080880Y-90662156D01*
X149085577Y-90743078D01*
X149125603Y-90802813D01*
X149234200Y-90815476D01*
X149315121Y-90820173D01*
X149374856Y-90860200D01*
X149387520Y-90968796D01*
X149387520Y-91122116D01*
X148927560Y-91122116D01*
X148467600Y-91122116D01*
X148467600Y-90968796D01*
X148462903Y-90887875D01*
X148422877Y-90828140D01*
X148314280Y-90815476D01*
X148233359Y-90820173D01*
X148173624Y-90860200D01*
X148160960Y-90968796D01*
X148160960Y-91122116D01*
X147241041Y-91122116D01*
X146321121Y-91122116D01*
X146321121Y-90968796D01*
X146321121Y-90815476D01*
X146014481Y-90815476D01*
X145707841Y-90815476D01*
X145707841Y-90508837D01*
X145707841Y-90202197D01*
X145861161Y-90202197D01*
X145942083Y-90206894D01*
X146001818Y-90246920D01*
X146014481Y-90355517D01*
X146014481Y-90508837D01*
X146321121Y-90508837D01*
X146627761Y-90508837D01*
X146627761Y-90355517D01*
X146623064Y-90274595D01*
X146583038Y-90214860D01*
X146474441Y-90202197D01*
X146393519Y-90197500D01*
X146333785Y-90157473D01*
X146321121Y-90048877D01*
X146321121Y-89895557D01*
X145707841Y-89895557D01*
X145094562Y-89895557D01*
X145094562Y-90048877D01*
X145099259Y-90129798D01*
X145139285Y-90189533D01*
X145247882Y-90202197D01*
X145328803Y-90206894D01*
X145388538Y-90246920D01*
X145401202Y-90355517D01*
X145396505Y-90436438D01*
X145356478Y-90496173D01*
X145247882Y-90508837D01*
X145094562Y-90508837D01*
X145094562Y-90815476D01*
X145094562Y-91122116D01*
X144481282Y-91122116D01*
X143868002Y-91122116D01*
X143868002Y-90815476D01*
X143868002Y-90508837D01*
X144021322Y-90508837D01*
X144102244Y-90513534D01*
X144161979Y-90553560D01*
X144174642Y-90662156D01*
X144174642Y-90815476D01*
X144481282Y-90815476D01*
X144787922Y-90815476D01*
X144787922Y-90202197D01*
X144787922Y-89588917D01*
X144481282Y-89588917D01*
X144174642Y-89588917D01*
X144174642Y-89895557D01*
X144174642Y-90202197D01*
X144021322Y-90202197D01*
X143940401Y-90197500D01*
X143880666Y-90157473D01*
X143868002Y-90048877D01*
X143863305Y-89967955D01*
X143823279Y-89908220D01*
X143714683Y-89895557D01*
X143633761Y-89900254D01*
X143574026Y-89940280D01*
X143561363Y-90048877D01*
X143556666Y-90129798D01*
X143516639Y-90189533D01*
X143408043Y-90202197D01*
X143327121Y-90206894D01*
X143267386Y-90246920D01*
X143254723Y-90355517D01*
X143250026Y-90436438D01*
X143209999Y-90496173D01*
X143101403Y-90508837D01*
X143020481Y-90513534D01*
X142960747Y-90553560D01*
X142948083Y-90662156D01*
X142948083Y-90815476D01*
X143254723Y-90815476D01*
X143561363Y-90815476D01*
X143561363Y-90968796D01*
X143561363Y-91122116D01*
X143254723Y-91122116D01*
X142948083Y-91122116D01*
X142948083Y-90968796D01*
X142943386Y-90887875D01*
X142903359Y-90828140D01*
X142794763Y-90815476D01*
X142713841Y-90820173D01*
X142654107Y-90860200D01*
X142641443Y-90968796D01*
X142636746Y-91049718D01*
X142596720Y-91109453D01*
X142488123Y-91122116D01*
X142407202Y-91117419D01*
X142347467Y-91077393D01*
X142334803Y-90968796D01*
X142339500Y-90887875D01*
X142379527Y-90828140D01*
X142488123Y-90815476D01*
X142641443Y-90815476D01*
X142641443Y-90508837D01*
X142641443Y-90202197D01*
X142488123Y-90202197D01*
X142407202Y-90206894D01*
X142347467Y-90246920D01*
X142334803Y-90355517D01*
X142330106Y-90436438D01*
X142290080Y-90496173D01*
X142181483Y-90508837D01*
X142028163Y-90508837D01*
X142028163Y-90815476D01*
X142028163Y-91122116D01*
X141874844Y-91122116D01*
X141721524Y-91122116D01*
X141721524Y-90815476D01*
X141721524Y-90508837D01*
X141568204Y-90508837D01*
X141487282Y-90504140D01*
X141427547Y-90464113D01*
X141414884Y-90355517D01*
X141414884Y-90202197D01*
X141874844Y-90202197D01*
X142334803Y-90202197D01*
X142334803Y-90048877D01*
X142339500Y-89967955D01*
X142379527Y-89908220D01*
X142488123Y-89895557D01*
X142569045Y-89890860D01*
X142628780Y-89850833D01*
X142641443Y-89742237D01*
X142641443Y-89588917D01*
X142181483Y-89588917D01*
X141721524Y-89588917D01*
X141721524Y-89435597D01*
X141721524Y-89282277D01*
X142028163Y-89282277D01*
X142334803Y-89282277D01*
X142334803Y-89128957D01*
X142330106Y-89048036D01*
X142290080Y-88988301D01*
X142181483Y-88975637D01*
X142100562Y-88970940D01*
X142040827Y-88930914D01*
X142028163Y-88822317D01*
X142023466Y-88741396D01*
X141983440Y-88681661D01*
X141874844Y-88668998D01*
X141793922Y-88673695D01*
X141734187Y-88713721D01*
X141721524Y-88822317D01*
X141716827Y-88903239D01*
X141676800Y-88962974D01*
X141568204Y-88975637D01*
X141487282Y-88970940D01*
X141427547Y-88930914D01*
X141414884Y-88822317D01*
X141419581Y-88741396D01*
X141459607Y-88681661D01*
X141568204Y-88668998D01*
X141721524Y-88668998D01*
X141721524Y-88362358D01*
X141721524Y-88055718D01*
X141568204Y-88055718D01*
X141414884Y-88055718D01*
X141414884Y-87595758D01*
X141414884Y-87289118D01*
X141721524Y-87289118D01*
X141721524Y-87442438D01*
X142181483Y-87442438D01*
X142641443Y-87442438D01*
X142641443Y-87595758D01*
X142646140Y-87676680D01*
X142686167Y-87736414D01*
X142794763Y-87749078D01*
X142875685Y-87753775D01*
X142935419Y-87793802D01*
X142948083Y-87902398D01*
X142943386Y-87983320D01*
X142903359Y-88043054D01*
X142794763Y-88055718D01*
X142713841Y-88060415D01*
X142654107Y-88100441D01*
X142641443Y-88209038D01*
X142636746Y-88289959D01*
X142596720Y-88349694D01*
X142488123Y-88362358D01*
X142334803Y-88362358D01*
X142334803Y-88055718D01*
X142334803Y-87749078D01*
X142181483Y-87749078D01*
X142028163Y-87749078D01*
X142028163Y-88055718D01*
X142028163Y-88362358D01*
X142181483Y-88362358D01*
X142262405Y-88367055D01*
X142322140Y-88407081D01*
X142334803Y-88515678D01*
X142339500Y-88596599D01*
X142379527Y-88656334D01*
X142488123Y-88668998D01*
X142948083Y-88668998D01*
X142948083Y-89128957D01*
X142948083Y-89588917D01*
X143408043Y-89588917D01*
X143868002Y-89588917D01*
X143868002Y-89128957D01*
X144174642Y-89128957D01*
X144179339Y-89209879D01*
X144219366Y-89269614D01*
X144327962Y-89282277D01*
X144787922Y-89282277D01*
X144787922Y-89588917D01*
X144941242Y-89588917D01*
X145094562Y-89588917D01*
X145094562Y-89282277D01*
X145094562Y-88975637D01*
X144941242Y-88975637D01*
X144787922Y-88975637D01*
X144787922Y-89128957D01*
X144787922Y-89282277D01*
X144327962Y-89282277D01*
X144408884Y-89277580D01*
X144468619Y-89237554D01*
X144481282Y-89128957D01*
X144476585Y-89048036D01*
X144436559Y-88988301D01*
X144327962Y-88975637D01*
X144247041Y-88980334D01*
X144187306Y-89020361D01*
X144174642Y-89128957D01*
X143868002Y-89128957D01*
X143868002Y-88668998D01*
X143408043Y-88668998D01*
X142948083Y-88668998D01*
X142488123Y-88668998D01*
X142569045Y-88664301D01*
X142628780Y-88624274D01*
X142641443Y-88515678D01*
X142641443Y-88362358D01*
X142948083Y-88362358D01*
X143254723Y-88362358D01*
X143254723Y-87902398D01*
X143254723Y-87442438D01*
X143101403Y-87442438D01*
X143020481Y-87437741D01*
X142960747Y-87397715D01*
X142948083Y-87289118D01*
X142948083Y-87135798D01*
X142641443Y-87135798D01*
X142334803Y-87135798D01*
X142334803Y-86982478D01*
X142330106Y-86901557D01*
X142290080Y-86841822D01*
X142181483Y-86829159D01*
X142100562Y-86833856D01*
X142040827Y-86873882D01*
X142028163Y-86982478D01*
X142023466Y-87063400D01*
X141983440Y-87123135D01*
X141874844Y-87135798D01*
X141793922Y-87140495D01*
X141734187Y-87180522D01*
X141721524Y-87289118D01*
X141414884Y-87289118D01*
X141414884Y-87135798D01*
X141568204Y-87135798D01*
X141649125Y-87131101D01*
X141708860Y-87091075D01*
X141721524Y-86982478D01*
X141716827Y-86901557D01*
X141676800Y-86841822D01*
X141568204Y-86829159D01*
X141487282Y-86824462D01*
X141427547Y-86784435D01*
X141414884Y-86675839D01*
X141419581Y-86594917D01*
X141459607Y-86535182D01*
X141568204Y-86522519D01*
X141649125Y-86527216D01*
X141708860Y-86567242D01*
X141721524Y-86675839D01*
X141726221Y-86756760D01*
X141766247Y-86816495D01*
X141874844Y-86829159D01*
X141955765Y-86824462D01*
X142015500Y-86784435D01*
X142028163Y-86675839D01*
X142028163Y-86522519D01*
X142334803Y-86522519D01*
X142641443Y-86522519D01*
X142641443Y-86675839D01*
X142646140Y-86756760D01*
X142686167Y-86816495D01*
X142794763Y-86829159D01*
X142875685Y-86833856D01*
X142935419Y-86873882D01*
X142948083Y-86982478D01*
X142952780Y-87063400D01*
X142992806Y-87123135D01*
X143101403Y-87135798D01*
X143182324Y-87140495D01*
X143242059Y-87180522D01*
X143254723Y-87289118D01*
X143259420Y-87370040D01*
X143299446Y-87429775D01*
X143408043Y-87442438D01*
X143488964Y-87447135D01*
X143548699Y-87487162D01*
X143561363Y-87595758D01*
X143566060Y-87676680D01*
X143606086Y-87736414D01*
X143714683Y-87749078D01*
X143795604Y-87744381D01*
X143855339Y-87704355D01*
X143868002Y-87595758D01*
X143872699Y-87514837D01*
X143912726Y-87455102D01*
X144021322Y-87442438D01*
X144102244Y-87447135D01*
X144161979Y-87487162D01*
X144174642Y-87595758D01*
X144169945Y-87676680D01*
X144129919Y-87736414D01*
X144021322Y-87749078D01*
X143940401Y-87753775D01*
X143880666Y-87793802D01*
X143868002Y-87902398D01*
X143863305Y-87983320D01*
X143823279Y-88043054D01*
X143714683Y-88055718D01*
X143633761Y-88060415D01*
X143574026Y-88100441D01*
X143561363Y-88209038D01*
X143561363Y-88362358D01*
X143868002Y-88362358D01*
X144174642Y-88362358D01*
X144174642Y-88515678D01*
X144174642Y-88668998D01*
X144481282Y-88668998D01*
X144787922Y-88668998D01*
X144787922Y-88515678D01*
X144787922Y-88362358D01*
X144481282Y-88362358D01*
X144174642Y-88362358D01*
X144174642Y-88209038D01*
X144179339Y-88128116D01*
X144219366Y-88068381D01*
X144327962Y-88055718D01*
X144408884Y-88051021D01*
X144468619Y-88010994D01*
X144481282Y-87902398D01*
X144481282Y-87749078D01*
X144787922Y-87749078D01*
X145094562Y-87749078D01*
X145094562Y-87595758D01*
X145089865Y-87514837D01*
X145049838Y-87455102D01*
X144941242Y-87442438D01*
X144787922Y-87442438D01*
X144787922Y-87135798D01*
X144787922Y-86829159D01*
X144634602Y-86829159D01*
X144553680Y-86824462D01*
X144493946Y-86784435D01*
X144481282Y-86675839D01*
X144481282Y-86522519D01*
X144174642Y-86522519D01*
X143868002Y-86522519D01*
X143868002Y-86369199D01*
X143868002Y-86215879D01*
X143561363Y-86215879D01*
X143254723Y-86215879D01*
X143254723Y-86062559D01*
X143259420Y-85981637D01*
X143299446Y-85921903D01*
X143408043Y-85909239D01*
X143488964Y-85904542D01*
X143548699Y-85864516D01*
X143561363Y-85755919D01*
X143561363Y-85602599D01*
X143714683Y-85602599D01*
X143795604Y-85607296D01*
X143855339Y-85647323D01*
X143868002Y-85755919D01*
X143872699Y-85836841D01*
X143912726Y-85896575D01*
X144021322Y-85909239D01*
X144102244Y-85913936D01*
X144161979Y-85953962D01*
X144174642Y-86062559D01*
X144174642Y-86215879D01*
X144481282Y-86215879D01*
X144787922Y-86215879D01*
X144787922Y-86369199D01*
X144787922Y-86522519D01*
X145094562Y-86522519D01*
X145401202Y-86522519D01*
X145401202Y-86829159D01*
X145401202Y-87135798D01*
X145247882Y-87135798D01*
X145166960Y-87140495D01*
X145107225Y-87180522D01*
X145094562Y-87289118D01*
X145099259Y-87370040D01*
X145139285Y-87429775D01*
X145247882Y-87442438D01*
X145401202Y-87442438D01*
X145401202Y-88055718D01*
X145401202Y-88515678D01*
X145401202Y-88668998D01*
X145554522Y-88668998D01*
X145635443Y-88673695D01*
X145695178Y-88713721D01*
X145707841Y-88822317D01*
X145703144Y-88903239D01*
X145663118Y-88962974D01*
X145554522Y-88975637D01*
X145473600Y-88980334D01*
X145413865Y-89020361D01*
X145401202Y-89128957D01*
X145405899Y-89209879D01*
X145445925Y-89269614D01*
X145554522Y-89282277D01*
X145635443Y-89286974D01*
X145695178Y-89327001D01*
X145707841Y-89435597D01*
X145712538Y-89516519D01*
X145752565Y-89576253D01*
X145861161Y-89588917D01*
X145942083Y-89584220D01*
X146001818Y-89544194D01*
X146014481Y-89435597D01*
X146009784Y-89354676D01*
X145969758Y-89294941D01*
X145861161Y-89282277D01*
X145780240Y-89277580D01*
X145720505Y-89237554D01*
X145707841Y-89128957D01*
X145712538Y-89048036D01*
X145752565Y-88988301D01*
X145861161Y-88975637D01*
X145942083Y-88970940D01*
X146001818Y-88930914D01*
X146014481Y-88822317D01*
X146009784Y-88741396D01*
X145969758Y-88681661D01*
X145861161Y-88668998D01*
X145780240Y-88664301D01*
X145720505Y-88624274D01*
X145707841Y-88515678D01*
X145707841Y-88362358D01*
X146014481Y-88362358D01*
X146321121Y-88362358D01*
X146321121Y-88515678D01*
X146325818Y-88596599D01*
X146365845Y-88656334D01*
X146474441Y-88668998D01*
X146555363Y-88673695D01*
X146615097Y-88713721D01*
X146627761Y-88822317D01*
X146623064Y-88903239D01*
X146583038Y-88962974D01*
X146474441Y-88975637D01*
X146321121Y-88975637D01*
X146321121Y-89282277D01*
X146321121Y-89588917D01*
X146474441Y-89588917D01*
X146627761Y-89588917D01*
X146627761Y-89895557D01*
X146627761Y-90202197D01*
X146781081Y-90202197D01*
X146862003Y-90206894D01*
X146921737Y-90246920D01*
X146934401Y-90355517D01*
X146929704Y-90436438D01*
X146889677Y-90496173D01*
X146781081Y-90508837D01*
X146700159Y-90513534D01*
X146640425Y-90553560D01*
X146627761Y-90662156D01*
X146632458Y-90743078D01*
X146672484Y-90802813D01*
X146781081Y-90815476D01*
X146862003Y-90810779D01*
X146921737Y-90770753D01*
X146934401Y-90662156D01*
X146939098Y-90581235D01*
X146979124Y-90521500D01*
X147087721Y-90508837D01*
X147168642Y-90504140D01*
X147228377Y-90464113D01*
X147241041Y-90355517D01*
X147245738Y-90274595D01*
X147285764Y-90214860D01*
X147394361Y-90202197D01*
X147475282Y-90197500D01*
X147535017Y-90157473D01*
X147547681Y-90048877D01*
X147547681Y-89895557D01*
X147241041Y-89895557D01*
X146934401Y-89895557D01*
X146934401Y-89742237D01*
X146929704Y-89661315D01*
X146889677Y-89601581D01*
X146781081Y-89588917D01*
X146700159Y-89584220D01*
X146640425Y-89544194D01*
X146627761Y-89435597D01*
X146627761Y-89282277D01*
X146934401Y-89282277D01*
X147241041Y-89282277D01*
X147547681Y-89282277D01*
X147547681Y-89435597D01*
X147547681Y-89588917D01*
X147854320Y-89588917D01*
X148160960Y-89588917D01*
X148160960Y-89435597D01*
X148165657Y-89354676D01*
X148205684Y-89294941D01*
X148314280Y-89282277D01*
X148395202Y-89277580D01*
X148454936Y-89237554D01*
X148467600Y-89128957D01*
X148462903Y-89048036D01*
X148422877Y-88988301D01*
X148314280Y-88975637D01*
X148233359Y-88970940D01*
X148173624Y-88930914D01*
X148160960Y-88822317D01*
X148156263Y-88741396D01*
X148116237Y-88681661D01*
X148007640Y-88668998D01*
X147926719Y-88673695D01*
X147866984Y-88713721D01*
X147854320Y-88822317D01*
X147859017Y-88903239D01*
X147899044Y-88962974D01*
X148007640Y-88975637D01*
X148088562Y-88980334D01*
X148148297Y-89020361D01*
X148160960Y-89128957D01*
X148160960Y-89282277D01*
X147854320Y-89282277D01*
X147547681Y-89282277D01*
X147241041Y-89282277D01*
X147241041Y-88668998D01*
X147241041Y-88055718D01*
X147087721Y-88055718D01*
X147006799Y-88051021D01*
X146947064Y-88010994D01*
X146934401Y-87902398D01*
X146934401Y-87749078D01*
X146627761Y-87749078D01*
X146321121Y-87749078D01*
X146321121Y-87595758D01*
X146321121Y-87442438D01*
X146627761Y-87442438D01*
X146934401Y-87442438D01*
X147547681Y-87442438D01*
X147547681Y-87902398D01*
X147547681Y-88362358D01*
X147854320Y-88362358D01*
X148160960Y-88362358D01*
X148160960Y-88209038D01*
X148160960Y-88055718D01*
X148467600Y-88055718D01*
X148774240Y-88055718D01*
X148774240Y-87902398D01*
X148769543Y-87821476D01*
X148729516Y-87761742D01*
X148620920Y-87749078D01*
X148467600Y-87749078D01*
X148467600Y-87442438D01*
X148467600Y-87289118D01*
X148774240Y-87289118D01*
X148778937Y-87370040D01*
X148818963Y-87429775D01*
X148927560Y-87442438D01*
X149008481Y-87437741D01*
X149068216Y-87397715D01*
X149080880Y-87289118D01*
X149076183Y-87208197D01*
X149036156Y-87148462D01*
X148927560Y-87135798D01*
X148846638Y-87140495D01*
X148786903Y-87180522D01*
X148774240Y-87289118D01*
X148467600Y-87289118D01*
X148467600Y-87135798D01*
X148314280Y-87135798D01*
X148233359Y-87140495D01*
X148173624Y-87180522D01*
X148160960Y-87289118D01*
X148160960Y-87442438D01*
X147854320Y-87442438D01*
X147547681Y-87442438D01*
X146934401Y-87442438D01*
X146934401Y-87289118D01*
X146934401Y-87135798D01*
X146474441Y-87135798D01*
X146014481Y-87135798D01*
X146014481Y-87289118D01*
X146014481Y-87442438D01*
X145707841Y-87442438D01*
X145401202Y-87442438D01*
X145401202Y-87289118D01*
X145405899Y-87208197D01*
X145445925Y-87148462D01*
X145554522Y-87135798D01*
X145635443Y-87131101D01*
X145695178Y-87091075D01*
X145707841Y-86982478D01*
X145712538Y-86901557D01*
X145752565Y-86841822D01*
X145861161Y-86829159D01*
X145942083Y-86824462D01*
X146001818Y-86784435D01*
X146014481Y-86675839D01*
X146014481Y-86522519D01*
X146474441Y-86522519D01*
X146934401Y-86522519D01*
X146934401Y-86675839D01*
X146939098Y-86756760D01*
X146979124Y-86816495D01*
X147087721Y-86829159D01*
X147168642Y-86824462D01*
X147228377Y-86784435D01*
X147241041Y-86675839D01*
X147245738Y-86594917D01*
X147285764Y-86535182D01*
X147394361Y-86522519D01*
X147475282Y-86527216D01*
X147535017Y-86567242D01*
X147547681Y-86675839D01*
X147547681Y-86829159D01*
X147854320Y-86829159D01*
X148160960Y-86829159D01*
X148160960Y-86675839D01*
X148160960Y-86522519D01*
X148467600Y-86522519D01*
X148774240Y-86522519D01*
X148774240Y-86675839D01*
X148778937Y-86756760D01*
X148818963Y-86816495D01*
X148927560Y-86829159D01*
X149008481Y-86833856D01*
X149068216Y-86873882D01*
X149080880Y-86982478D01*
X149085577Y-87063400D01*
X149125603Y-87123135D01*
X149234200Y-87135798D01*
X149315121Y-87140495D01*
X149374856Y-87180522D01*
X149387520Y-87289118D01*
X149392217Y-87370040D01*
G37*
G36*
X148774240Y-86062559D02*
G01*
X148774240Y-86215879D01*
X148467600Y-86215879D01*
X148160960Y-86215879D01*
X148160960Y-86369199D01*
X148160960Y-86522519D01*
X147854320Y-86522519D01*
X147547681Y-86522519D01*
X147547681Y-86369199D01*
X147552378Y-86288277D01*
X147592404Y-86228542D01*
X147701000Y-86215879D01*
X147781922Y-86211182D01*
X147841657Y-86171155D01*
X147854320Y-86062559D01*
X147854320Y-85909239D01*
X148314280Y-85909239D01*
X148774240Y-85909239D01*
X148774240Y-86062559D01*
G37*
G36*
X142641443Y-84836000D02*
G01*
X142641443Y-85295959D01*
X142794763Y-85295959D01*
X142875685Y-85291262D01*
X142935419Y-85251236D01*
X142948083Y-85142639D01*
X142952780Y-85061718D01*
X142992806Y-85001983D01*
X143101403Y-84989319D01*
X143182324Y-84984622D01*
X143242059Y-84944596D01*
X143254723Y-84836000D01*
X143259420Y-84755078D01*
X143299446Y-84695343D01*
X143408043Y-84682680D01*
X143488964Y-84677983D01*
X143548699Y-84637956D01*
X143561363Y-84529360D01*
X143561363Y-84376040D01*
X143254723Y-84376040D01*
X142948083Y-84376040D01*
X142948083Y-84069400D01*
X142948083Y-83762760D01*
X143254723Y-83762760D01*
X143561363Y-83762760D01*
X143561363Y-83456120D01*
X143561363Y-83149480D01*
X143408043Y-83149480D01*
X143327121Y-83154177D01*
X143267386Y-83194204D01*
X143254723Y-83302800D01*
X143250026Y-83383722D01*
X143209999Y-83443457D01*
X143101403Y-83456120D01*
X142948083Y-83456120D01*
X142948083Y-83149480D01*
X142948083Y-82842841D01*
X143254723Y-82842841D01*
X143561363Y-82842841D01*
X143561363Y-82689521D01*
X143556666Y-82608599D01*
X143516639Y-82548864D01*
X143408043Y-82536201D01*
X143327121Y-82531504D01*
X143267386Y-82491477D01*
X143254723Y-82382881D01*
X143254723Y-82229561D01*
X144481282Y-82229561D01*
X145707841Y-82229561D01*
X145707841Y-81616281D01*
X145707841Y-81003002D01*
X146321121Y-81003002D01*
X146934401Y-81003002D01*
X146934401Y-81156321D01*
X146939098Y-81237243D01*
X146979124Y-81296978D01*
X147087721Y-81309641D01*
X147241041Y-81309641D01*
X147241041Y-81003002D01*
X147241041Y-80696362D01*
X147087721Y-80696362D01*
X147006799Y-80691665D01*
X146947064Y-80651638D01*
X146934401Y-80543042D01*
X146939098Y-80462120D01*
X146979124Y-80402385D01*
X147087721Y-80389722D01*
X147168642Y-80394419D01*
X147228377Y-80434445D01*
X147241041Y-80543042D01*
X147245738Y-80623963D01*
X147285764Y-80683698D01*
X147394361Y-80696362D01*
X147547681Y-80696362D01*
X147547681Y-80389722D01*
X147547681Y-80083082D01*
X148007640Y-80083082D01*
X148467600Y-80083082D01*
X148467600Y-80389722D01*
X148467600Y-80696362D01*
X148314280Y-80696362D01*
X148233359Y-80691665D01*
X148173624Y-80651638D01*
X148160960Y-80543042D01*
X148156263Y-80462120D01*
X148116237Y-80402385D01*
X148007640Y-80389722D01*
X147926719Y-80394419D01*
X147866984Y-80434445D01*
X147854320Y-80543042D01*
X147849623Y-80623963D01*
X147809597Y-80683698D01*
X147701000Y-80696362D01*
X147547681Y-80696362D01*
X147547681Y-81003002D01*
X147547681Y-81309641D01*
X147394361Y-81309641D01*
X147313439Y-81314338D01*
X147253704Y-81354365D01*
X147241041Y-81462961D01*
X147245738Y-81543883D01*
X147285764Y-81603618D01*
X147394361Y-81616281D01*
X147547681Y-81616281D01*
X147547681Y-82076241D01*
X147547681Y-82536201D01*
X147701000Y-82536201D01*
X147781922Y-82531504D01*
X147841657Y-82491477D01*
X147854320Y-82382881D01*
X147859017Y-82301959D01*
X147899044Y-82242224D01*
X148007640Y-82229561D01*
X148088562Y-82224864D01*
X148148297Y-82184837D01*
X148160960Y-82076241D01*
X148156263Y-81995319D01*
X148116237Y-81935585D01*
X148007640Y-81922921D01*
X147926719Y-81918224D01*
X147866984Y-81878198D01*
X147854320Y-81769601D01*
X147854320Y-81616281D01*
X148160960Y-81616281D01*
X148467600Y-81616281D01*
X148467600Y-81462961D01*
X148472297Y-81382040D01*
X148512324Y-81322305D01*
X148620920Y-81309641D01*
X148701842Y-81304944D01*
X148761576Y-81264918D01*
X148774240Y-81156321D01*
X148774240Y-81003002D01*
X149080880Y-81003002D01*
X149387520Y-81003002D01*
X149387520Y-81156321D01*
X149382823Y-81237243D01*
X149342796Y-81296978D01*
X149234200Y-81309641D01*
X149153278Y-81314338D01*
X149093543Y-81354365D01*
X149080880Y-81462961D01*
X149076183Y-81543883D01*
X149036156Y-81603618D01*
X148927560Y-81616281D01*
X148846638Y-81620978D01*
X148786903Y-81661005D01*
X148774240Y-81769601D01*
X148769543Y-81850523D01*
X148729516Y-81910258D01*
X148620920Y-81922921D01*
X148539998Y-81927618D01*
X148480264Y-81967645D01*
X148467600Y-82076241D01*
X148467600Y-82229561D01*
X148774240Y-82229561D01*
X149080880Y-82229561D01*
X149080880Y-83302800D01*
X149080880Y-84376040D01*
X148927560Y-84376040D01*
X148846638Y-84380737D01*
X148786903Y-84420763D01*
X148774240Y-84529360D01*
X148769543Y-84610281D01*
X148729516Y-84670016D01*
X148620920Y-84682680D01*
X148539998Y-84677983D01*
X148480264Y-84637956D01*
X148467600Y-84529360D01*
X148462903Y-84448438D01*
X148422877Y-84388703D01*
X148314280Y-84376040D01*
X148160960Y-84376040D01*
X148160960Y-84069400D01*
X148160960Y-83762760D01*
X148314280Y-83762760D01*
X148395202Y-83767457D01*
X148454936Y-83807484D01*
X148467600Y-83916080D01*
X148472297Y-83997002D01*
X148512324Y-84056736D01*
X148620920Y-84069400D01*
X148701842Y-84064703D01*
X148761576Y-84024676D01*
X148774240Y-83916080D01*
X148769543Y-83835158D01*
X148729516Y-83775424D01*
X148620920Y-83762760D01*
X148539998Y-83758063D01*
X148480264Y-83718037D01*
X148467600Y-83609440D01*
X148462903Y-83528519D01*
X148422877Y-83468784D01*
X148314280Y-83456120D01*
X148233359Y-83451423D01*
X148173624Y-83411397D01*
X148160960Y-83302800D01*
X148165657Y-83221879D01*
X148205684Y-83162144D01*
X148314280Y-83149480D01*
X148395202Y-83144783D01*
X148454936Y-83104757D01*
X148467600Y-82996161D01*
X148467600Y-82842841D01*
X148160960Y-82842841D01*
X147854320Y-82842841D01*
X147854320Y-83302800D01*
X147854320Y-83762760D01*
X147701000Y-83762760D01*
X147620079Y-83767457D01*
X147560344Y-83807484D01*
X147547681Y-83916080D01*
X147552378Y-83997002D01*
X147592404Y-84056736D01*
X147701000Y-84069400D01*
X147781922Y-84074097D01*
X147841657Y-84114123D01*
X147854320Y-84222720D01*
X147849623Y-84303641D01*
X147809597Y-84363376D01*
X147701000Y-84376040D01*
X147547681Y-84376040D01*
X147547681Y-84682680D01*
X147547681Y-84989319D01*
X147394361Y-84989319D01*
X147313439Y-84984622D01*
X147253704Y-84944596D01*
X147241041Y-84836000D01*
X147236344Y-84755078D01*
X147196317Y-84695343D01*
X147087721Y-84682680D01*
X146934401Y-84682680D01*
X146934401Y-84376040D01*
X146934401Y-84069400D01*
X147087721Y-84069400D01*
X147168642Y-84064703D01*
X147228377Y-84024676D01*
X147241041Y-83916080D01*
X147236344Y-83835158D01*
X147196317Y-83775424D01*
X147087721Y-83762760D01*
X147006799Y-83758063D01*
X146947064Y-83718037D01*
X146934401Y-83609440D01*
X146939098Y-83528519D01*
X146979124Y-83468784D01*
X147087721Y-83456120D01*
X147168642Y-83451423D01*
X147228377Y-83411397D01*
X147241041Y-83302800D01*
X147236344Y-83221879D01*
X147196317Y-83162144D01*
X147087721Y-83149480D01*
X147006799Y-83154177D01*
X146947064Y-83194204D01*
X146934401Y-83302800D01*
X146929704Y-83383722D01*
X146889677Y-83443457D01*
X146781081Y-83456120D01*
X146700159Y-83451423D01*
X146640425Y-83411397D01*
X146627761Y-83302800D01*
X146623064Y-83221879D01*
X146583038Y-83162144D01*
X146474441Y-83149480D01*
X146393519Y-83154177D01*
X146333785Y-83194204D01*
X146321121Y-83302800D01*
X146316424Y-83383722D01*
X146276398Y-83443457D01*
X146167801Y-83456120D01*
X146014481Y-83456120D01*
X146014481Y-83149480D01*
X146014481Y-82842841D01*
X146627761Y-82842841D01*
X147241041Y-82842841D01*
X147241041Y-82536201D01*
X147241041Y-82229561D01*
X147087721Y-82229561D01*
X146934401Y-82229561D01*
X146934401Y-81769601D01*
X146934401Y-81309641D01*
X146781081Y-81309641D01*
X146700159Y-81314338D01*
X146640425Y-81354365D01*
X146627761Y-81462961D01*
X146623064Y-81543883D01*
X146583038Y-81603618D01*
X146474441Y-81616281D01*
X146393519Y-81620978D01*
X146333785Y-81661005D01*
X146321121Y-81769601D01*
X146325818Y-81850523D01*
X146365845Y-81910258D01*
X146474441Y-81922921D01*
X146555363Y-81927618D01*
X146615097Y-81967645D01*
X146627761Y-82076241D01*
X146623064Y-82157163D01*
X146583038Y-82216897D01*
X146474441Y-82229561D01*
X146393519Y-82234258D01*
X146333785Y-82274284D01*
X146321121Y-82382881D01*
X146316424Y-82463802D01*
X146276398Y-82523537D01*
X146167801Y-82536201D01*
X146086880Y-82540898D01*
X146027145Y-82580924D01*
X146014481Y-82689521D01*
X146009784Y-82770442D01*
X145969758Y-82830177D01*
X145861161Y-82842841D01*
X145780240Y-82838144D01*
X145720505Y-82798117D01*
X145707841Y-82689521D01*
X145707841Y-82536201D01*
X145401202Y-82536201D01*
X145094562Y-82536201D01*
X145094562Y-82689521D01*
X145089865Y-82770442D01*
X145049838Y-82830177D01*
X144941242Y-82842841D01*
X144860320Y-82847538D01*
X144800586Y-82887564D01*
X144787922Y-82996161D01*
X144783225Y-83077082D01*
X144743198Y-83136817D01*
X144634602Y-83149480D01*
X144553680Y-83144783D01*
X144493946Y-83104757D01*
X144481282Y-82996161D01*
X144476585Y-82915239D01*
X144436559Y-82855504D01*
X144327962Y-82842841D01*
X144247041Y-82847538D01*
X144187306Y-82887564D01*
X144174642Y-82996161D01*
X144169945Y-83077082D01*
X144129919Y-83136817D01*
X144021322Y-83149480D01*
X143940401Y-83154177D01*
X143880666Y-83194204D01*
X143868002Y-83302800D01*
X143872699Y-83383722D01*
X143912726Y-83443457D01*
X144021322Y-83456120D01*
X144102244Y-83460817D01*
X144161979Y-83500844D01*
X144174642Y-83609440D01*
X144169945Y-83690362D01*
X144129919Y-83750097D01*
X144021322Y-83762760D01*
X143940401Y-83767457D01*
X143880666Y-83807484D01*
X143868002Y-83916080D01*
X143863305Y-83997002D01*
X143823279Y-84056736D01*
X143714683Y-84069400D01*
X143633761Y-84074097D01*
X143574026Y-84114123D01*
X143561363Y-84222720D01*
X143566060Y-84303641D01*
X143606086Y-84363376D01*
X143714683Y-84376040D01*
X143795604Y-84380737D01*
X143855339Y-84420763D01*
X143868002Y-84529360D01*
X143863305Y-84610281D01*
X143823279Y-84670016D01*
X143714683Y-84682680D01*
X143561363Y-84682680D01*
X143561363Y-85142639D01*
X143561363Y-85602599D01*
X143254723Y-85602599D01*
X142948083Y-85602599D01*
X142948083Y-85755919D01*
X142943386Y-85836841D01*
X142903359Y-85896575D01*
X142794763Y-85909239D01*
X142713841Y-85904542D01*
X142654107Y-85864516D01*
X142641443Y-85755919D01*
X142636746Y-85674997D01*
X142596720Y-85615263D01*
X142488123Y-85602599D01*
X142407202Y-85607296D01*
X142347467Y-85647323D01*
X142334803Y-85755919D01*
X142334803Y-85909239D01*
X142028163Y-85909239D01*
X141721524Y-85909239D01*
X141721524Y-85602599D01*
X141721524Y-85295959D01*
X141568204Y-85295959D01*
X141414884Y-85295959D01*
X141414884Y-84989319D01*
X141721524Y-84989319D01*
X141721524Y-85142639D01*
X141726221Y-85223561D01*
X141766247Y-85283296D01*
X141874844Y-85295959D01*
X141955765Y-85300656D01*
X142015500Y-85340683D01*
X142028163Y-85449279D01*
X142032860Y-85530201D01*
X142072887Y-85589936D01*
X142181483Y-85602599D01*
X142334803Y-85602599D01*
X142334803Y-85295959D01*
X142334803Y-84989319D01*
X142028163Y-84989319D01*
X141721524Y-84989319D01*
X141414884Y-84989319D01*
X141414884Y-84682680D01*
X141568204Y-84682680D01*
X141649125Y-84677983D01*
X141708860Y-84637956D01*
X141721524Y-84529360D01*
X142028163Y-84529360D01*
X142032860Y-84610281D01*
X142072887Y-84670016D01*
X142181483Y-84682680D01*
X142262405Y-84677983D01*
X142322140Y-84637956D01*
X142334803Y-84529360D01*
X142330106Y-84448438D01*
X142290080Y-84388703D01*
X142181483Y-84376040D01*
X142100562Y-84380737D01*
X142040827Y-84420763D01*
X142028163Y-84529360D01*
X141721524Y-84529360D01*
X141716827Y-84448438D01*
X141676800Y-84388703D01*
X141568204Y-84376040D01*
X141414884Y-84376040D01*
X141414884Y-84069400D01*
X141414884Y-83762760D01*
X141568204Y-83762760D01*
X141721524Y-83762760D01*
X141721524Y-83456120D01*
X141721524Y-83149480D01*
X141568204Y-83149480D01*
X141487282Y-83144783D01*
X141427547Y-83104757D01*
X141414884Y-82996161D01*
X141414884Y-82842841D01*
X142028163Y-82842841D01*
X142641443Y-82842841D01*
X142641443Y-82996161D01*
X142641443Y-83149480D01*
X142334803Y-83149480D01*
X142028163Y-83149480D01*
X142028163Y-83456120D01*
X142028163Y-83762760D01*
X142181483Y-83762760D01*
X142262405Y-83758063D01*
X142322140Y-83718037D01*
X142334803Y-83609440D01*
X142339500Y-83528519D01*
X142379527Y-83468784D01*
X142488123Y-83456120D01*
X142641443Y-83456120D01*
X142641443Y-83762760D01*
X142641443Y-84069400D01*
X142488123Y-84069400D01*
X142407202Y-84074097D01*
X142347467Y-84114123D01*
X142334803Y-84222720D01*
X142339500Y-84303641D01*
X142379527Y-84363376D01*
X142488123Y-84376040D01*
X142641443Y-84376040D01*
X142641443Y-84529360D01*
X142641443Y-84836000D01*
G37*
G36*
X145094562Y-79163163D02*
G01*
X145094562Y-79469802D01*
X144941242Y-79469802D01*
X144860320Y-79474499D01*
X144800586Y-79514526D01*
X144787922Y-79623122D01*
X144787922Y-79776442D01*
X145247882Y-79776442D01*
X145707841Y-79776442D01*
X145707841Y-79929762D01*
X145712538Y-80010684D01*
X145752565Y-80070418D01*
X145861161Y-80083082D01*
X145942083Y-80078385D01*
X146001818Y-80038359D01*
X146014481Y-79929762D01*
X146019178Y-79848841D01*
X146059205Y-79789106D01*
X146167801Y-79776442D01*
X146321121Y-79776442D01*
X146321121Y-79469802D01*
X146321121Y-79163163D01*
X146167801Y-79163163D01*
X146086880Y-79167860D01*
X146027145Y-79207886D01*
X146014481Y-79316482D01*
X146009784Y-79397404D01*
X145969758Y-79457139D01*
X145861161Y-79469802D01*
X145780240Y-79465105D01*
X145720505Y-79425079D01*
X145707841Y-79316482D01*
X145703144Y-79235561D01*
X145663118Y-79175826D01*
X145554522Y-79163163D01*
X145473600Y-79158466D01*
X145413865Y-79118439D01*
X145401202Y-79009843D01*
X145405899Y-78928921D01*
X145445925Y-78869186D01*
X145554522Y-78856523D01*
X145635443Y-78861220D01*
X145695178Y-78901246D01*
X145707841Y-79009843D01*
X145712538Y-79090764D01*
X145752565Y-79150499D01*
X145861161Y-79163163D01*
X145942083Y-79158466D01*
X146001818Y-79118439D01*
X146014481Y-79009843D01*
X146014481Y-78856523D01*
X146321121Y-78856523D01*
X146627761Y-78856523D01*
X146627761Y-78703203D01*
X146627761Y-78549883D01*
X146934401Y-78549883D01*
X147241041Y-78549883D01*
X147241041Y-79009843D01*
X147241041Y-79469802D01*
X146934401Y-79469802D01*
X146627761Y-79469802D01*
X146627761Y-79623122D01*
X146632458Y-79704044D01*
X146672484Y-79763779D01*
X146781081Y-79776442D01*
X146862003Y-79781139D01*
X146921737Y-79821166D01*
X146934401Y-79929762D01*
X146929704Y-80010684D01*
X146889677Y-80070418D01*
X146781081Y-80083082D01*
X146627761Y-80083082D01*
X146627761Y-80389722D01*
X146627761Y-80696362D01*
X146474441Y-80696362D01*
X146393519Y-80691665D01*
X146333785Y-80651638D01*
X146321121Y-80543042D01*
X146316424Y-80462120D01*
X146276398Y-80402385D01*
X146167801Y-80389722D01*
X146086880Y-80394419D01*
X146027145Y-80434445D01*
X146014481Y-80543042D01*
X146009784Y-80623963D01*
X145969758Y-80683698D01*
X145861161Y-80696362D01*
X145780240Y-80701059D01*
X145720505Y-80741085D01*
X145707841Y-80849682D01*
X145707841Y-81003002D01*
X145554522Y-81003002D01*
X145473600Y-81007699D01*
X145413865Y-81047725D01*
X145401202Y-81156321D01*
X145396505Y-81237243D01*
X145356478Y-81296978D01*
X145247882Y-81309641D01*
X145166960Y-81314338D01*
X145107225Y-81354365D01*
X145094562Y-81462961D01*
X145099259Y-81543883D01*
X145139285Y-81603618D01*
X145247882Y-81616281D01*
X145328803Y-81620978D01*
X145388538Y-81661005D01*
X145401202Y-81769601D01*
X145401202Y-81922921D01*
X145094562Y-81922921D01*
X144787922Y-81922921D01*
X144787922Y-81769601D01*
X144783225Y-81688680D01*
X144743198Y-81628945D01*
X144634602Y-81616281D01*
X144553680Y-81620978D01*
X144493946Y-81661005D01*
X144481282Y-81769601D01*
X144476585Y-81850523D01*
X144436559Y-81910258D01*
X144327962Y-81922921D01*
X144247041Y-81918224D01*
X144187306Y-81878198D01*
X144174642Y-81769601D01*
X144169945Y-81688680D01*
X144129919Y-81628945D01*
X144021322Y-81616281D01*
X143940401Y-81620978D01*
X143880666Y-81661005D01*
X143868002Y-81769601D01*
X143863305Y-81850523D01*
X143823279Y-81910258D01*
X143714683Y-81922921D01*
X143633761Y-81918224D01*
X143574026Y-81878198D01*
X143561363Y-81769601D01*
X143556666Y-81688680D01*
X143516639Y-81628945D01*
X143408043Y-81616281D01*
X143327121Y-81620978D01*
X143267386Y-81661005D01*
X143254723Y-81769601D01*
X143250026Y-81850523D01*
X143209999Y-81910258D01*
X143101403Y-81922921D01*
X143020481Y-81927618D01*
X142960747Y-81967645D01*
X142948083Y-82076241D01*
X142943386Y-82157163D01*
X142903359Y-82216897D01*
X142794763Y-82229561D01*
X142713841Y-82234258D01*
X142654107Y-82274284D01*
X142641443Y-82382881D01*
X142636746Y-82463802D01*
X142596720Y-82523537D01*
X142488123Y-82536201D01*
X142407202Y-82531504D01*
X142347467Y-82491477D01*
X142334803Y-82382881D01*
X142330106Y-82301959D01*
X142290080Y-82242224D01*
X142181483Y-82229561D01*
X142100562Y-82224864D01*
X142040827Y-82184837D01*
X142028163Y-82076241D01*
X142334803Y-82076241D01*
X142339500Y-82157163D01*
X142379527Y-82216897D01*
X142488123Y-82229561D01*
X142569045Y-82224864D01*
X142628780Y-82184837D01*
X142641443Y-82076241D01*
X142636746Y-81995319D01*
X142596720Y-81935585D01*
X142488123Y-81922921D01*
X142407202Y-81927618D01*
X142347467Y-81967645D01*
X142334803Y-82076241D01*
X142028163Y-82076241D01*
X142023466Y-81995319D01*
X141983440Y-81935585D01*
X141874844Y-81922921D01*
X141793922Y-81918224D01*
X141734187Y-81878198D01*
X141721524Y-81769601D01*
X141716827Y-81688680D01*
X141676800Y-81628945D01*
X141568204Y-81616281D01*
X141487282Y-81611584D01*
X141427547Y-81571558D01*
X141414884Y-81462961D01*
X141419581Y-81382040D01*
X141459607Y-81322305D01*
X141568204Y-81309641D01*
X141649125Y-81304944D01*
X141708860Y-81264918D01*
X141721524Y-81156321D01*
X141721524Y-81003002D01*
X142028163Y-81003002D01*
X142334803Y-81003002D01*
X142334803Y-81156321D01*
X142330106Y-81237243D01*
X142290080Y-81296978D01*
X142181483Y-81309641D01*
X142100562Y-81314338D01*
X142040827Y-81354365D01*
X142028163Y-81462961D01*
X142028163Y-81616281D01*
X142641443Y-81616281D01*
X143254723Y-81616281D01*
X143254723Y-81462961D01*
X143254723Y-81309641D01*
X142948083Y-81309641D01*
X142641443Y-81309641D01*
X142641443Y-81156321D01*
X142641443Y-81003002D01*
X143101403Y-81003002D01*
X143561363Y-81003002D01*
X143561363Y-81309641D01*
X143561363Y-81616281D01*
X143714683Y-81616281D01*
X143795604Y-81611584D01*
X143855339Y-81571558D01*
X143868002Y-81462961D01*
X143872699Y-81382040D01*
X143912726Y-81322305D01*
X144021322Y-81309641D01*
X144102244Y-81314338D01*
X144161979Y-81354365D01*
X144174642Y-81462961D01*
X144179339Y-81543883D01*
X144219366Y-81603618D01*
X144327962Y-81616281D01*
X144408884Y-81611584D01*
X144468619Y-81571558D01*
X144481282Y-81462961D01*
X144485979Y-81382040D01*
X144526006Y-81322305D01*
X144634602Y-81309641D01*
X144715524Y-81304944D01*
X144775258Y-81264918D01*
X144787922Y-81156321D01*
X144787922Y-81003002D01*
X144481282Y-81003002D01*
X144174642Y-81003002D01*
X144174642Y-80849682D01*
X144169945Y-80768760D01*
X144129919Y-80709025D01*
X144021322Y-80696362D01*
X143868002Y-80696362D01*
X143868002Y-80543042D01*
X144174642Y-80543042D01*
X144179339Y-80623963D01*
X144219366Y-80683698D01*
X144327962Y-80696362D01*
X144408884Y-80691665D01*
X144468619Y-80651638D01*
X144481282Y-80543042D01*
X144787922Y-80543042D01*
X144792619Y-80623963D01*
X144832645Y-80683698D01*
X144941242Y-80696362D01*
X145022163Y-80701059D01*
X145081898Y-80741085D01*
X145094562Y-80849682D01*
X145099259Y-80930603D01*
X145139285Y-80990338D01*
X145247882Y-81003002D01*
X145328803Y-80998305D01*
X145388538Y-80958278D01*
X145401202Y-80849682D01*
X145405899Y-80768760D01*
X145445925Y-80709025D01*
X145554522Y-80696362D01*
X145635443Y-80691665D01*
X145695178Y-80651638D01*
X145707841Y-80543042D01*
X145703144Y-80462120D01*
X145663118Y-80402385D01*
X145554522Y-80389722D01*
X145473600Y-80385025D01*
X145413865Y-80344998D01*
X145401202Y-80236402D01*
X145396505Y-80155480D01*
X145356478Y-80095746D01*
X145247882Y-80083082D01*
X145166960Y-80087779D01*
X145107225Y-80127806D01*
X145094562Y-80236402D01*
X145089865Y-80317324D01*
X145049838Y-80377058D01*
X144941242Y-80389722D01*
X144860320Y-80394419D01*
X144800586Y-80434445D01*
X144787922Y-80543042D01*
X144481282Y-80543042D01*
X144476585Y-80462120D01*
X144436559Y-80402385D01*
X144327962Y-80389722D01*
X144247041Y-80394419D01*
X144187306Y-80434445D01*
X144174642Y-80543042D01*
X143868002Y-80543042D01*
X143868002Y-79623122D01*
X143868002Y-78856523D01*
X144174642Y-78856523D01*
X144174642Y-79469802D01*
X144174642Y-80083082D01*
X144327962Y-80083082D01*
X144481282Y-80083082D01*
X144481282Y-79623122D01*
X144481282Y-79163163D01*
X144634602Y-79163163D01*
X144715524Y-79158466D01*
X144775258Y-79118439D01*
X144787922Y-79009843D01*
X144787922Y-78856523D01*
X144481282Y-78856523D01*
X144174642Y-78856523D01*
X143868002Y-78856523D01*
X143868002Y-78549883D01*
X144327962Y-78549883D01*
X144787922Y-78549883D01*
X144787922Y-78703203D01*
X144792619Y-78784124D01*
X144832645Y-78843859D01*
X144941242Y-78856523D01*
X145094562Y-78856523D01*
X145094562Y-79009843D01*
X145094562Y-79163163D01*
G37*
M02*
