G04 #@! TF.GenerationSoftware,KiCad,Pcbnew,9.0.7*
G04 #@! TF.CreationDate,2026-05-29T22:26:29+09:00*
G04 #@! TF.ProjectId,ESP32-ROS-IO-V6.0,45535033-322d-4524-9f53-2d494f2d5636,rev?*
G04 #@! TF.SameCoordinates,Original*
G04 #@! TF.FileFunction,Legend,Bot*
G04 #@! TF.FilePolarity,Positive*
%FSLAX46Y46*%
G04 Gerber Fmt 4.6, Leading zero omitted, Abs format (unit mm)*
G04 Created by KiCad (PCBNEW 9.0.7) date 2026-05-29 22:26:29*
%MOMM*%
%LPD*%
G01*
G04 APERTURE LIST*
%ADD10C,0.200000*%
G04 APERTURE END LIST*
D10*
G36*
X135943028Y-134399604D02*
G01*
X135911075Y-134467503D01*
X135882598Y-134499539D01*
X135818258Y-134539752D01*
X135721738Y-134551817D01*
X135666610Y-134531144D01*
X135646460Y-134513513D01*
X135619219Y-134462435D01*
X135619219Y-134194760D01*
X135943028Y-134154284D01*
X135943028Y-134399604D01*
G37*
G36*
X134694711Y-133817344D02*
G01*
X134761882Y-133842533D01*
X134782033Y-133860164D01*
X134809275Y-133911243D01*
X134809275Y-133959127D01*
X134777322Y-134027026D01*
X134748843Y-134059064D01*
X134674300Y-134105653D01*
X134504233Y-134169428D01*
X134290226Y-134196179D01*
X134123837Y-134175380D01*
X134056666Y-134150191D01*
X134036516Y-134132560D01*
X134009275Y-134081482D01*
X134009275Y-134033597D01*
X134041226Y-133965699D01*
X134069702Y-133933663D01*
X134144249Y-133887071D01*
X134314314Y-133823296D01*
X134528321Y-133796545D01*
X134694711Y-133817344D01*
G37*
G36*
X135943028Y-133399604D02*
G01*
X135911075Y-133467503D01*
X135882598Y-133499539D01*
X135818258Y-133539752D01*
X135721738Y-133551817D01*
X135666610Y-133531144D01*
X135646460Y-133513513D01*
X135619219Y-133462435D01*
X135619219Y-133194760D01*
X135943028Y-133154284D01*
X135943028Y-133399604D01*
G37*
G36*
X134761882Y-132366343D02*
G01*
X134782033Y-132383974D01*
X134809275Y-132435053D01*
X134809275Y-132578175D01*
X134777322Y-132646074D01*
X134748843Y-132678112D01*
X134684506Y-132718323D01*
X134492745Y-132742293D01*
X134437618Y-132721620D01*
X134417468Y-132703989D01*
X134390227Y-132652911D01*
X134390227Y-132509788D01*
X134422179Y-132441889D01*
X134450654Y-132409854D01*
X134514996Y-132369640D01*
X134706755Y-132345670D01*
X134761882Y-132366343D01*
G37*
G36*
X136006468Y-129849067D02*
G01*
X135970637Y-129835630D01*
X135952552Y-129801720D01*
X135952552Y-129658597D01*
X135978123Y-129604257D01*
X136029701Y-129572021D01*
X136061296Y-129568072D01*
X136006468Y-129849067D01*
G37*
G36*
X134761882Y-129366343D02*
G01*
X134782033Y-129383974D01*
X134809275Y-129435053D01*
X134809275Y-129578175D01*
X134794618Y-129609321D01*
X134346087Y-129665387D01*
X134342608Y-129658863D01*
X134342608Y-129515740D01*
X134374559Y-129447842D01*
X134403035Y-129415806D01*
X134467377Y-129375592D01*
X134706754Y-129345670D01*
X134761882Y-129366343D01*
G37*
G36*
X136371826Y-128175867D02*
G01*
X136391977Y-128193498D01*
X136419219Y-128244577D01*
X136419219Y-128340080D01*
X136387266Y-128407979D01*
X136358787Y-128440017D01*
X136294450Y-128480228D01*
X136055072Y-128510150D01*
X135999942Y-128489477D01*
X135979794Y-128471847D01*
X135952552Y-128420768D01*
X135952552Y-128325264D01*
X135984503Y-128257366D01*
X136012979Y-128225330D01*
X136077321Y-128185116D01*
X136316698Y-128155194D01*
X136371826Y-128175867D01*
G37*
G36*
X134791189Y-127829714D02*
G01*
X134809275Y-127863623D01*
X134809275Y-128054365D01*
X134794618Y-128085511D01*
X134628322Y-128106298D01*
X134628322Y-127908597D01*
X134653893Y-127854257D01*
X134705472Y-127822020D01*
X134754373Y-127815908D01*
X134791189Y-127829714D01*
G37*
G36*
X134761882Y-126937771D02*
G01*
X134782033Y-126955402D01*
X134809275Y-127006481D01*
X134809275Y-127101984D01*
X134777322Y-127169883D01*
X134748843Y-127201921D01*
X134684506Y-127242132D01*
X134445128Y-127272054D01*
X134389998Y-127251381D01*
X134369850Y-127233751D01*
X134342608Y-127182672D01*
X134342608Y-127087168D01*
X134374559Y-127019270D01*
X134403035Y-126987234D01*
X134467377Y-126947020D01*
X134706754Y-126917098D01*
X134761882Y-126937771D01*
G37*
G36*
X135943028Y-126875794D02*
G01*
X135911075Y-126943693D01*
X135882598Y-126975729D01*
X135818258Y-127015942D01*
X135721738Y-127028007D01*
X135666610Y-127007334D01*
X135646460Y-126989703D01*
X135619219Y-126938625D01*
X135619219Y-126670950D01*
X135943028Y-126630474D01*
X135943028Y-126875794D01*
G37*
G36*
X134285465Y-126215079D02*
G01*
X134253511Y-126282981D01*
X134225037Y-126315014D01*
X134160695Y-126355228D01*
X134111794Y-126361340D01*
X134056666Y-126340667D01*
X134036516Y-126323036D01*
X134009275Y-126271958D01*
X134009275Y-126051902D01*
X134285465Y-126017378D01*
X134285465Y-126215079D01*
G37*
G36*
X134809275Y-126197222D02*
G01*
X134777322Y-126265121D01*
X134748843Y-126297159D01*
X134684506Y-126337370D01*
X134587984Y-126349435D01*
X134532855Y-126328762D01*
X134518843Y-126316501D01*
X134485465Y-126220538D01*
X134485465Y-125992378D01*
X134809275Y-125951902D01*
X134809275Y-126197222D01*
G37*
G36*
X134723619Y-123666196D02*
G01*
X134782033Y-123717307D01*
X134809275Y-123768386D01*
X134809275Y-123911508D01*
X134777322Y-123979407D01*
X134708123Y-124057256D01*
X134551853Y-124115857D01*
X134242607Y-124154512D01*
X134094929Y-124136053D01*
X134036516Y-124084941D01*
X134009275Y-124033863D01*
X134009275Y-123890740D01*
X134041227Y-123822840D01*
X134110425Y-123744992D01*
X134266693Y-123686392D01*
X134575940Y-123647736D01*
X134723619Y-123666196D01*
G37*
G36*
X136371826Y-120033010D02*
G01*
X136391977Y-120050641D01*
X136419219Y-120101720D01*
X136419219Y-120244842D01*
X136387266Y-120312741D01*
X136358787Y-120344779D01*
X136294450Y-120384990D01*
X136102689Y-120408960D01*
X136047562Y-120388287D01*
X136027412Y-120370656D01*
X136000171Y-120319578D01*
X136000171Y-120176455D01*
X136032123Y-120108556D01*
X136060598Y-120076521D01*
X136124940Y-120036307D01*
X136316699Y-120012337D01*
X136371826Y-120033010D01*
G37*
G36*
X134333084Y-119351985D02*
G01*
X134301131Y-119419884D01*
X134272654Y-119451920D01*
X134208314Y-119492133D01*
X134111794Y-119504198D01*
X134056666Y-119483525D01*
X134036516Y-119465894D01*
X134009275Y-119414816D01*
X134009275Y-119147141D01*
X134333084Y-119106665D01*
X134333084Y-119351985D01*
G37*
G36*
X136304655Y-118150678D02*
G01*
X136371826Y-118175867D01*
X136391977Y-118193498D01*
X136419219Y-118244577D01*
X136419219Y-118292461D01*
X136387266Y-118360360D01*
X136358787Y-118392398D01*
X136284244Y-118438987D01*
X136114177Y-118502762D01*
X135900170Y-118529513D01*
X135733781Y-118508714D01*
X135666610Y-118483525D01*
X135646460Y-118465894D01*
X135619219Y-118414816D01*
X135619219Y-118366931D01*
X135651170Y-118299033D01*
X135679646Y-118266997D01*
X135754193Y-118220405D01*
X135924258Y-118156630D01*
X136138265Y-118129879D01*
X136304655Y-118150678D01*
G37*
G36*
X137063663Y-136696625D02*
G01*
X133698164Y-136696625D01*
X133698164Y-135916006D01*
X135419219Y-135916006D01*
X135419219Y-136487435D01*
X135421140Y-136506944D01*
X135436072Y-136542992D01*
X135463662Y-136570582D01*
X135499710Y-136585514D01*
X135538728Y-136585514D01*
X135574776Y-136570582D01*
X135602366Y-136542992D01*
X135617298Y-136506944D01*
X135619219Y-136487435D01*
X135619219Y-136289999D01*
X136531622Y-136175949D01*
X136550742Y-136171623D01*
X136584660Y-136152335D01*
X136608615Y-136121536D01*
X136618960Y-136083914D01*
X136614121Y-136045197D01*
X136594833Y-136011280D01*
X136564034Y-135987325D01*
X136526412Y-135976980D01*
X136506815Y-135977493D01*
X135619219Y-136088442D01*
X135619219Y-135916006D01*
X135617298Y-135896497D01*
X135602366Y-135860449D01*
X135574776Y-135832859D01*
X135538728Y-135817927D01*
X135499710Y-135817927D01*
X135463662Y-135832859D01*
X135436072Y-135860449D01*
X135421140Y-135896497D01*
X135419219Y-135916006D01*
X133698164Y-135916006D01*
X133698164Y-135249340D01*
X135419219Y-135249340D01*
X135419219Y-135487435D01*
X135420324Y-135498658D01*
X135420175Y-135501230D01*
X135420855Y-135504051D01*
X135421140Y-135506944D01*
X135422126Y-135509325D01*
X135424769Y-135520287D01*
X135472388Y-135657192D01*
X135480612Y-135674987D01*
X135506557Y-135704129D01*
X135541680Y-135721124D01*
X135580633Y-135723384D01*
X135617485Y-135710566D01*
X135646627Y-135684620D01*
X135663622Y-135649498D01*
X135665882Y-135610545D01*
X135661288Y-135591488D01*
X135619219Y-135470539D01*
X135619219Y-135271693D01*
X135651170Y-135203795D01*
X135679646Y-135171759D01*
X135743988Y-135131545D01*
X135792890Y-135125432D01*
X135848017Y-135146105D01*
X135868166Y-135163736D01*
X135901560Y-135226349D01*
X135946200Y-135399327D01*
X135947183Y-135402015D01*
X135947307Y-135403281D01*
X135950267Y-135410447D01*
X135952935Y-135417738D01*
X135953700Y-135418754D01*
X135954793Y-135421399D01*
X136002412Y-135510684D01*
X136010500Y-135522814D01*
X136011379Y-135524590D01*
X136012435Y-135525715D01*
X136013288Y-135526994D01*
X136014812Y-135528247D01*
X136024796Y-135538882D01*
X136072415Y-135580549D01*
X136084071Y-135588883D01*
X136085562Y-135590276D01*
X136087025Y-135590995D01*
X136088362Y-135591951D01*
X136090306Y-135592608D01*
X136103154Y-135598925D01*
X136198392Y-135634639D01*
X136217333Y-135639690D01*
X136221902Y-135639534D01*
X136226311Y-135640747D01*
X136245908Y-135640234D01*
X136341146Y-135628329D01*
X136360266Y-135624003D01*
X136362099Y-135622960D01*
X136364180Y-135622612D01*
X136381741Y-135613901D01*
X136476980Y-135554378D01*
X136482213Y-135550343D01*
X136484324Y-135549320D01*
X136488265Y-135545677D01*
X136492505Y-135542409D01*
X136493863Y-135540503D01*
X136498721Y-135536015D01*
X136546340Y-135482443D01*
X136550287Y-135477011D01*
X136552037Y-135475420D01*
X136554754Y-135470866D01*
X136557866Y-135466585D01*
X136558639Y-135464354D01*
X136562082Y-135458586D01*
X136609701Y-135357396D01*
X136616270Y-135338925D01*
X136616382Y-135336534D01*
X136617298Y-135334325D01*
X136619219Y-135314816D01*
X136619219Y-135076720D01*
X136618113Y-135065496D01*
X136618263Y-135062925D01*
X136617582Y-135060103D01*
X136617298Y-135057211D01*
X136616311Y-135054829D01*
X136613669Y-135043868D01*
X136566050Y-134906964D01*
X136557826Y-134889169D01*
X136531880Y-134860027D01*
X136496758Y-134843032D01*
X136457805Y-134840772D01*
X136420953Y-134853590D01*
X136391811Y-134879536D01*
X136374816Y-134914658D01*
X136372556Y-134953611D01*
X136377150Y-134972668D01*
X136419219Y-135093615D01*
X136419219Y-135292461D01*
X136387266Y-135360360D01*
X136358787Y-135392398D01*
X136294450Y-135432609D01*
X136245546Y-135438722D01*
X136190419Y-135418049D01*
X136170269Y-135400418D01*
X136136876Y-135337806D01*
X136092237Y-135164828D01*
X136091253Y-135162139D01*
X136091130Y-135160875D01*
X136088168Y-135153707D01*
X136085502Y-135146418D01*
X136084737Y-135145402D01*
X136083645Y-135142758D01*
X136036025Y-135053471D01*
X136027933Y-135041336D01*
X136027058Y-135039565D01*
X136026005Y-135038443D01*
X136025150Y-135037161D01*
X136023621Y-135035903D01*
X136013641Y-135025273D01*
X135966022Y-134983606D01*
X135954365Y-134975271D01*
X135952875Y-134973879D01*
X135951411Y-134973159D01*
X135950075Y-134972204D01*
X135948130Y-134971546D01*
X135935283Y-134965230D01*
X135840045Y-134929516D01*
X135821104Y-134924465D01*
X135816534Y-134924620D01*
X135812126Y-134923408D01*
X135792529Y-134923921D01*
X135697291Y-134935826D01*
X135678171Y-134940152D01*
X135676335Y-134941195D01*
X135674256Y-134941544D01*
X135656695Y-134950254D01*
X135561457Y-135009778D01*
X135556222Y-135013813D01*
X135554113Y-135014836D01*
X135550175Y-135018475D01*
X135545931Y-135021747D01*
X135544570Y-135023654D01*
X135539716Y-135028141D01*
X135492097Y-135081712D01*
X135488148Y-135087144D01*
X135486401Y-135088735D01*
X135483685Y-135093286D01*
X135480572Y-135097570D01*
X135479798Y-135099800D01*
X135476356Y-135105569D01*
X135428737Y-135206761D01*
X135422168Y-135225231D01*
X135422055Y-135227621D01*
X135421140Y-135229831D01*
X135419219Y-135249340D01*
X133698164Y-135249340D01*
X133698164Y-134011244D01*
X133809275Y-134011244D01*
X133809275Y-134106482D01*
X133811196Y-134125991D01*
X133813076Y-134130531D01*
X133813554Y-134135423D01*
X133821040Y-134153541D01*
X133868659Y-134242826D01*
X133876747Y-134254956D01*
X133877626Y-134256732D01*
X133878682Y-134257857D01*
X133879535Y-134259136D01*
X133881059Y-134260389D01*
X133891043Y-134271024D01*
X133938662Y-134312691D01*
X133950318Y-134321025D01*
X133951809Y-134322418D01*
X133953272Y-134323137D01*
X133954609Y-134324093D01*
X133956553Y-134324750D01*
X133969401Y-134331067D01*
X134064639Y-134366781D01*
X134067193Y-134367462D01*
X134068227Y-134368050D01*
X134075951Y-134369797D01*
X134083580Y-134371832D01*
X134084764Y-134371791D01*
X134087347Y-134372376D01*
X134277823Y-134396186D01*
X134281520Y-134396282D01*
X134283034Y-134396699D01*
X134290227Y-134396510D01*
X134297420Y-134396699D01*
X134298933Y-134396282D01*
X134302631Y-134396186D01*
X134540726Y-134366424D01*
X134543308Y-134365839D01*
X134544493Y-134365880D01*
X134552124Y-134363845D01*
X134559846Y-134362098D01*
X134560878Y-134361510D01*
X134563435Y-134360829D01*
X134753911Y-134289400D01*
X134754119Y-134289297D01*
X134754236Y-134289278D01*
X134762826Y-134285016D01*
X134771503Y-134280751D01*
X134771590Y-134280669D01*
X134771797Y-134280567D01*
X134867036Y-134221044D01*
X134872269Y-134217009D01*
X134874380Y-134215986D01*
X134878321Y-134212343D01*
X134882561Y-134209075D01*
X134883919Y-134207169D01*
X134888777Y-134202681D01*
X134936396Y-134149109D01*
X134940343Y-134143677D01*
X134942093Y-134142086D01*
X134944810Y-134137532D01*
X134947922Y-134133251D01*
X134948695Y-134131020D01*
X134952138Y-134125252D01*
X134960971Y-134106482D01*
X135419219Y-134106482D01*
X135419219Y-134487435D01*
X135421140Y-134506944D01*
X135423020Y-134511484D01*
X135423498Y-134516376D01*
X135430984Y-134534494D01*
X135478603Y-134623779D01*
X135486691Y-134635909D01*
X135487570Y-134637685D01*
X135488626Y-134638810D01*
X135489479Y-134640089D01*
X135491003Y-134641342D01*
X135500987Y-134651977D01*
X135548606Y-134693644D01*
X135560262Y-134701978D01*
X135561753Y-134703371D01*
X135563216Y-134704090D01*
X135564553Y-134705046D01*
X135566497Y-134705703D01*
X135579345Y-134712020D01*
X135674583Y-134747734D01*
X135693524Y-134752785D01*
X135698093Y-134752629D01*
X135702502Y-134753842D01*
X135722098Y-134753329D01*
X135864956Y-134735472D01*
X135884076Y-134731146D01*
X135885909Y-134730103D01*
X135887990Y-134729755D01*
X135905552Y-134721044D01*
X136000790Y-134661520D01*
X136006023Y-134657485D01*
X136008134Y-134656462D01*
X136012075Y-134652819D01*
X136016315Y-134649551D01*
X136017673Y-134647646D01*
X136022531Y-134643157D01*
X136070150Y-134589585D01*
X136074097Y-134584154D01*
X136075846Y-134582563D01*
X136078562Y-134578009D01*
X136081675Y-134573728D01*
X136082448Y-134571497D01*
X136085891Y-134565729D01*
X136133510Y-134464539D01*
X136138841Y-134449546D01*
X136469372Y-134639601D01*
X136487242Y-134647661D01*
X136525935Y-134652685D01*
X136563606Y-134642520D01*
X136594519Y-134618713D01*
X136613969Y-134584888D01*
X136618993Y-134546195D01*
X136608828Y-134508524D01*
X136585021Y-134477610D01*
X136569066Y-134466220D01*
X136143028Y-134221247D01*
X136143028Y-134129284D01*
X136531622Y-134080710D01*
X136550742Y-134076384D01*
X136584660Y-134057096D01*
X136608615Y-134026297D01*
X136618960Y-133988675D01*
X136614121Y-133949958D01*
X136594833Y-133916041D01*
X136564034Y-133892086D01*
X136526412Y-133881741D01*
X136506815Y-133882254D01*
X135506816Y-134007254D01*
X135501737Y-134008403D01*
X135499710Y-134008403D01*
X135497269Y-134009413D01*
X135487695Y-134011580D01*
X135476041Y-134018206D01*
X135463662Y-134023335D01*
X135459228Y-134027768D01*
X135453778Y-134030868D01*
X135445549Y-134041447D01*
X135436072Y-134050925D01*
X135433672Y-134056717D01*
X135429823Y-134061667D01*
X135426269Y-134074588D01*
X135421140Y-134086973D01*
X135420177Y-134096743D01*
X135419478Y-134099289D01*
X135419729Y-134101299D01*
X135419219Y-134106482D01*
X134960971Y-134106482D01*
X134999757Y-134024062D01*
X135006326Y-134005591D01*
X135006438Y-134003200D01*
X135007354Y-134000991D01*
X135009275Y-133981482D01*
X135009275Y-133886244D01*
X135007354Y-133866735D01*
X135005473Y-133862194D01*
X135004996Y-133857303D01*
X134997511Y-133839186D01*
X134949891Y-133749899D01*
X134941796Y-133737758D01*
X134940923Y-133735993D01*
X134939873Y-133734874D01*
X134939016Y-133733589D01*
X134937483Y-133732329D01*
X134927506Y-133721700D01*
X134879886Y-133680033D01*
X134868232Y-133671701D01*
X134866740Y-133670307D01*
X134865273Y-133669585D01*
X134863939Y-133668632D01*
X134861997Y-133667975D01*
X134849148Y-133661658D01*
X134753910Y-133625944D01*
X134751353Y-133625262D01*
X134750321Y-133624675D01*
X134742603Y-133622928D01*
X134734969Y-133620893D01*
X134733783Y-133620933D01*
X134731201Y-133620349D01*
X134540726Y-133596539D01*
X134537028Y-133596442D01*
X134535515Y-133596026D01*
X134528322Y-133596214D01*
X134521129Y-133596026D01*
X134519615Y-133596442D01*
X134515919Y-133596539D01*
X134277823Y-133626301D01*
X134275240Y-133626885D01*
X134274056Y-133626845D01*
X134266427Y-133628879D01*
X134258703Y-133630627D01*
X134257669Y-133631214D01*
X134255115Y-133631896D01*
X134064638Y-133703325D01*
X134064426Y-133703428D01*
X134064312Y-133703448D01*
X134055726Y-133707706D01*
X134047046Y-133711974D01*
X134046960Y-133712054D01*
X134046751Y-133712158D01*
X133951513Y-133771682D01*
X133946278Y-133775717D01*
X133944169Y-133776740D01*
X133940231Y-133780379D01*
X133935987Y-133783651D01*
X133934626Y-133785558D01*
X133929772Y-133790045D01*
X133882153Y-133843616D01*
X133878204Y-133849048D01*
X133876457Y-133850639D01*
X133873741Y-133855190D01*
X133870628Y-133859474D01*
X133869854Y-133861704D01*
X133866412Y-133867473D01*
X133818793Y-133968665D01*
X133812224Y-133987135D01*
X133812111Y-133989525D01*
X133811196Y-133991735D01*
X133809275Y-134011244D01*
X133698164Y-134011244D01*
X133698164Y-133224289D01*
X134714295Y-133224289D01*
X134716315Y-133240456D01*
X134717272Y-133256715D01*
X134717446Y-133257074D01*
X134717473Y-133257473D01*
X134718770Y-133260096D01*
X134719134Y-133263006D01*
X134727189Y-133277171D01*
X134734294Y-133291825D01*
X134734591Y-133292089D01*
X134734769Y-133292448D01*
X134737579Y-133295442D01*
X134738422Y-133296923D01*
X134740452Y-133298502D01*
X134748186Y-133306740D01*
X134795806Y-133348407D01*
X134810557Y-133358953D01*
X134811078Y-133359416D01*
X134811324Y-133359501D01*
X134811753Y-133359808D01*
X134829851Y-133365928D01*
X134847941Y-133372204D01*
X134848338Y-133372180D01*
X134848715Y-133372308D01*
X134867797Y-133371036D01*
X134886891Y-133369913D01*
X134887248Y-133369739D01*
X134887647Y-133369713D01*
X134904806Y-133361226D01*
X134922001Y-133352890D01*
X134922389Y-133352531D01*
X134922622Y-133352416D01*
X134923079Y-133351893D01*
X134936397Y-133339585D01*
X134984017Y-133286013D01*
X134995542Y-133270155D01*
X134995672Y-133269778D01*
X134995934Y-133269480D01*
X134996872Y-133266703D01*
X134998671Y-133264392D01*
X135002989Y-133248686D01*
X135008330Y-133233292D01*
X135008306Y-133232894D01*
X135008434Y-133232518D01*
X135008239Y-133229595D01*
X135009016Y-133226770D01*
X135006995Y-133210604D01*
X135006039Y-133194341D01*
X135005864Y-133193980D01*
X135005838Y-133193586D01*
X135004540Y-133190962D01*
X135004177Y-133188053D01*
X134996125Y-133173894D01*
X134989016Y-133159232D01*
X134988718Y-133158967D01*
X134988542Y-133158611D01*
X134985731Y-133155616D01*
X134984889Y-133154136D01*
X134982858Y-133152556D01*
X134975125Y-133144319D01*
X134931882Y-133106482D01*
X135419219Y-133106482D01*
X135419219Y-133487435D01*
X135421140Y-133506944D01*
X135423020Y-133511484D01*
X135423498Y-133516376D01*
X135430984Y-133534494D01*
X135478603Y-133623779D01*
X135486691Y-133635909D01*
X135487570Y-133637685D01*
X135488626Y-133638810D01*
X135489479Y-133640089D01*
X135491003Y-133641342D01*
X135500987Y-133651977D01*
X135548606Y-133693644D01*
X135560262Y-133701978D01*
X135561753Y-133703371D01*
X135563216Y-133704090D01*
X135564553Y-133705046D01*
X135566497Y-133705703D01*
X135579345Y-133712020D01*
X135674583Y-133747734D01*
X135693524Y-133752785D01*
X135698093Y-133752629D01*
X135702502Y-133753842D01*
X135722098Y-133753329D01*
X135864956Y-133735472D01*
X135884076Y-133731146D01*
X135885909Y-133730103D01*
X135887990Y-133729755D01*
X135905552Y-133721044D01*
X136000790Y-133661520D01*
X136006023Y-133657485D01*
X136008134Y-133656462D01*
X136012075Y-133652819D01*
X136016315Y-133649551D01*
X136017673Y-133647646D01*
X136022531Y-133643157D01*
X136070150Y-133589585D01*
X136074097Y-133584154D01*
X136075846Y-133582563D01*
X136078562Y-133578009D01*
X136081675Y-133573728D01*
X136082448Y-133571497D01*
X136085891Y-133565729D01*
X136133510Y-133464539D01*
X136138841Y-133449546D01*
X136469372Y-133639601D01*
X136487242Y-133647661D01*
X136525935Y-133652685D01*
X136563606Y-133642520D01*
X136594519Y-133618713D01*
X136613969Y-133584888D01*
X136618993Y-133546195D01*
X136608828Y-133508524D01*
X136585021Y-133477610D01*
X136569066Y-133466220D01*
X136143028Y-133221247D01*
X136143028Y-133129284D01*
X136531622Y-133080710D01*
X136550742Y-133076384D01*
X136584660Y-133057096D01*
X136608615Y-133026297D01*
X136618960Y-132988675D01*
X136614121Y-132949958D01*
X136594833Y-132916041D01*
X136564034Y-132892086D01*
X136526412Y-132881741D01*
X136506815Y-132882254D01*
X135506816Y-133007254D01*
X135501737Y-133008403D01*
X135499710Y-133008403D01*
X135497269Y-133009413D01*
X135487695Y-133011580D01*
X135476041Y-133018206D01*
X135463662Y-133023335D01*
X135459228Y-133027768D01*
X135453778Y-133030868D01*
X135445549Y-133041447D01*
X135436072Y-133050925D01*
X135433672Y-133056717D01*
X135429823Y-133061667D01*
X135426269Y-133074588D01*
X135421140Y-133086973D01*
X135420177Y-133096743D01*
X135419478Y-133099289D01*
X135419729Y-133101299D01*
X135419219Y-133106482D01*
X134931882Y-133106482D01*
X134927506Y-133102653D01*
X134912753Y-133092105D01*
X134912236Y-133091646D01*
X134911991Y-133091561D01*
X134911559Y-133091252D01*
X134893369Y-133085100D01*
X134875373Y-133078857D01*
X134874976Y-133078880D01*
X134874597Y-133078752D01*
X134855503Y-133080025D01*
X134836422Y-133081147D01*
X134836062Y-133081321D01*
X134835665Y-133081348D01*
X134818535Y-133089819D01*
X134801313Y-133098169D01*
X134800924Y-133098528D01*
X134800690Y-133098644D01*
X134800229Y-133099170D01*
X134786916Y-133111474D01*
X134739296Y-133165045D01*
X134727770Y-133180902D01*
X134727639Y-133181279D01*
X134727377Y-133181579D01*
X134726438Y-133184355D01*
X134724640Y-133186667D01*
X134720322Y-133202368D01*
X134714981Y-133217765D01*
X134715004Y-133218164D01*
X134714877Y-133218541D01*
X134715071Y-133221463D01*
X134714295Y-133224289D01*
X133698164Y-133224289D01*
X133698164Y-132630292D01*
X133809275Y-132630292D01*
X133809275Y-132820768D01*
X133811196Y-132840277D01*
X133826128Y-132876325D01*
X133853718Y-132903915D01*
X133889766Y-132918847D01*
X133928784Y-132918847D01*
X133964832Y-132903915D01*
X133992422Y-132876325D01*
X134007354Y-132840277D01*
X134009275Y-132820768D01*
X134009275Y-132652645D01*
X134041226Y-132584747D01*
X134073441Y-132548505D01*
X134197155Y-132450564D01*
X134197799Y-132450322D01*
X134193176Y-132463324D01*
X134193063Y-132465715D01*
X134192148Y-132467925D01*
X134190227Y-132487434D01*
X134190227Y-132677911D01*
X134192148Y-132697420D01*
X134194028Y-132701960D01*
X134194506Y-132706852D01*
X134201992Y-132724970D01*
X134249611Y-132814255D01*
X134257699Y-132826385D01*
X134258578Y-132828161D01*
X134259634Y-132829286D01*
X134260487Y-132830565D01*
X134262011Y-132831818D01*
X134271995Y-132842453D01*
X134319614Y-132884120D01*
X134331270Y-132892454D01*
X134332761Y-132893847D01*
X134334224Y-132894566D01*
X134335561Y-132895522D01*
X134337505Y-132896179D01*
X134350353Y-132902496D01*
X134445591Y-132938210D01*
X134464532Y-132943261D01*
X134469101Y-132943105D01*
X134473510Y-132944318D01*
X134493107Y-132943805D01*
X134731202Y-132914043D01*
X134750322Y-132909717D01*
X134752155Y-132908674D01*
X134754236Y-132908326D01*
X134771797Y-132899615D01*
X134867036Y-132840092D01*
X134872269Y-132836057D01*
X134874380Y-132835034D01*
X134878321Y-132831391D01*
X134882561Y-132828123D01*
X134883919Y-132826217D01*
X134888777Y-132821729D01*
X134936396Y-132768157D01*
X134940343Y-132762725D01*
X134942093Y-132761134D01*
X134944810Y-132756580D01*
X134947922Y-132752299D01*
X134948695Y-132750068D01*
X134952138Y-132744300D01*
X134999757Y-132643110D01*
X135006326Y-132624639D01*
X135006438Y-132622248D01*
X135007354Y-132620039D01*
X135009275Y-132600530D01*
X135009275Y-132410054D01*
X135007354Y-132390545D01*
X135005473Y-132386004D01*
X135004996Y-132381113D01*
X134997511Y-132362996D01*
X134949891Y-132273709D01*
X134941796Y-132261568D01*
X134940923Y-132259803D01*
X134939873Y-132258684D01*
X134939016Y-132257399D01*
X134937483Y-132256139D01*
X134927506Y-132245510D01*
X134879886Y-132203843D01*
X134868232Y-132195511D01*
X134866740Y-132194117D01*
X134865273Y-132193395D01*
X134863939Y-132192442D01*
X134861997Y-132191785D01*
X134849148Y-132185468D01*
X134753910Y-132149754D01*
X134734969Y-132144703D01*
X134730399Y-132144858D01*
X134725991Y-132143646D01*
X134706395Y-132144159D01*
X134325443Y-132191778D01*
X134322860Y-132192362D01*
X134321675Y-132192322D01*
X134314044Y-132194356D01*
X134306322Y-132196104D01*
X134305288Y-132196691D01*
X134302734Y-132197373D01*
X134112258Y-132268801D01*
X134104303Y-132272711D01*
X134101787Y-132273427D01*
X134098339Y-132275643D01*
X134094666Y-132277450D01*
X134092755Y-132279234D01*
X134085299Y-132284030D01*
X133942442Y-132397126D01*
X133936186Y-132403164D01*
X133929772Y-132409093D01*
X133882153Y-132462664D01*
X133878204Y-132468096D01*
X133876457Y-132469687D01*
X133873741Y-132474238D01*
X133870628Y-132478522D01*
X133869854Y-132480752D01*
X133866412Y-132486521D01*
X133818793Y-132587713D01*
X133812224Y-132606183D01*
X133812111Y-132608573D01*
X133811196Y-132610783D01*
X133809275Y-132630292D01*
X133698164Y-132630292D01*
X133698164Y-131391291D01*
X133809279Y-131391291D01*
X133816545Y-131429627D01*
X133837928Y-131462264D01*
X133870172Y-131484234D01*
X133888880Y-131490094D01*
X134591050Y-131636380D01*
X133867610Y-131967957D01*
X133850675Y-131977831D01*
X133824127Y-132006425D01*
X133810541Y-132043002D01*
X133811986Y-132081993D01*
X133828243Y-132117463D01*
X133856837Y-132144011D01*
X133893414Y-132157597D01*
X133932405Y-132156152D01*
X133950940Y-132149769D01*
X134736401Y-131789767D01*
X136371858Y-131789767D01*
X136376699Y-131828484D01*
X136395987Y-131862401D01*
X136426786Y-131886356D01*
X136464408Y-131896701D01*
X136484005Y-131896187D01*
X136531624Y-131890234D01*
X136550744Y-131885907D01*
X136552575Y-131884865D01*
X136554657Y-131884517D01*
X136572218Y-131875806D01*
X136667457Y-131816283D01*
X136672692Y-131812246D01*
X136674802Y-131811224D01*
X136678740Y-131807584D01*
X136682982Y-131804314D01*
X136684342Y-131802406D01*
X136689198Y-131797919D01*
X136736818Y-131744347D01*
X136748343Y-131728489D01*
X136761131Y-131691626D01*
X136758840Y-131652675D01*
X136741817Y-131617566D01*
X136712655Y-131591644D01*
X136675792Y-131578856D01*
X136636841Y-131581147D01*
X136601732Y-131598170D01*
X136587335Y-131611475D01*
X136549266Y-131654302D01*
X136484927Y-131694514D01*
X136459195Y-131697731D01*
X136440075Y-131702058D01*
X136406158Y-131721346D01*
X136382203Y-131752145D01*
X136371858Y-131789767D01*
X134736401Y-131789767D01*
X134950940Y-131691437D01*
X134967875Y-131681562D01*
X134973021Y-131676018D01*
X134979343Y-131671877D01*
X134986171Y-131661855D01*
X134994423Y-131652968D01*
X134997054Y-131645882D01*
X135001313Y-131639633D01*
X135003786Y-131627759D01*
X135008009Y-131616392D01*
X135007728Y-131608837D01*
X135009271Y-131601435D01*
X135007012Y-131589518D01*
X135006563Y-131577400D01*
X135003412Y-131570526D01*
X135002005Y-131563099D01*
X134995359Y-131552956D01*
X134990306Y-131541930D01*
X134984764Y-131536785D01*
X134980622Y-131530462D01*
X134970599Y-131523633D01*
X134961713Y-131515382D01*
X134954627Y-131512750D01*
X134948378Y-131508492D01*
X134929670Y-131502632D01*
X133929670Y-131294298D01*
X133910180Y-131292200D01*
X133871844Y-131299466D01*
X133839207Y-131320849D01*
X133817237Y-131353093D01*
X133809279Y-131391291D01*
X133698164Y-131391291D01*
X133698164Y-131289765D01*
X135419478Y-131289765D01*
X135424317Y-131328481D01*
X135443605Y-131362399D01*
X135474404Y-131386354D01*
X135512026Y-131396699D01*
X135531622Y-131396186D01*
X135752552Y-131368569D01*
X135752552Y-131493387D01*
X135754473Y-131512896D01*
X135769405Y-131548944D01*
X135796995Y-131576534D01*
X135833043Y-131591466D01*
X135872061Y-131591466D01*
X135908109Y-131576534D01*
X135935699Y-131548944D01*
X135950631Y-131512896D01*
X135952552Y-131493387D01*
X135952552Y-131343570D01*
X136364318Y-131292099D01*
X136401133Y-131305905D01*
X136419219Y-131339815D01*
X136419219Y-131410054D01*
X136421140Y-131429563D01*
X136436072Y-131465611D01*
X136463662Y-131493201D01*
X136499710Y-131508133D01*
X136538728Y-131508133D01*
X136574776Y-131493201D01*
X136602366Y-131465611D01*
X136617298Y-131429563D01*
X136619219Y-131410054D01*
X136619219Y-131314816D01*
X136617298Y-131295307D01*
X136615417Y-131290766D01*
X136614940Y-131285875D01*
X136607455Y-131267758D01*
X136559835Y-131178471D01*
X136553895Y-131169562D01*
X136552814Y-131167184D01*
X136551474Y-131165932D01*
X136548960Y-131162161D01*
X136536279Y-131151735D01*
X136524304Y-131140546D01*
X136520240Y-131138548D01*
X136518821Y-131137381D01*
X136516315Y-131136618D01*
X136506712Y-131131897D01*
X136411473Y-131096183D01*
X136392531Y-131091132D01*
X136387962Y-131091287D01*
X136383554Y-131090075D01*
X136363957Y-131090588D01*
X135952552Y-131142013D01*
X135952552Y-131112435D01*
X135950631Y-131092926D01*
X135935699Y-131056878D01*
X135908109Y-131029288D01*
X135872061Y-131014356D01*
X135833043Y-131014356D01*
X135796995Y-131029288D01*
X135769405Y-131056878D01*
X135754473Y-131092926D01*
X135752552Y-131112435D01*
X135752552Y-131167013D01*
X135506816Y-131197730D01*
X135487696Y-131202056D01*
X135453778Y-131221344D01*
X135429823Y-131252143D01*
X135419478Y-131289765D01*
X133698164Y-131289765D01*
X133698164Y-130219577D01*
X134428322Y-130219577D01*
X134428322Y-130981482D01*
X134430243Y-131000991D01*
X134445175Y-131037039D01*
X134472765Y-131064629D01*
X134508813Y-131079561D01*
X134547831Y-131079561D01*
X134583879Y-131064629D01*
X134611469Y-131037039D01*
X134626401Y-131000991D01*
X134628322Y-130981482D01*
X134628322Y-130541006D01*
X135752552Y-130541006D01*
X135752552Y-130731482D01*
X135754473Y-130750991D01*
X135756353Y-130755531D01*
X135756831Y-130760423D01*
X135764317Y-130778541D01*
X135811936Y-130867827D01*
X135822811Y-130884137D01*
X135852950Y-130908917D01*
X135890278Y-130920278D01*
X135929112Y-130916489D01*
X135963540Y-130898128D01*
X135988320Y-130867989D01*
X135999681Y-130830661D01*
X135995892Y-130791827D01*
X135988407Y-130773710D01*
X135952552Y-130706482D01*
X135952552Y-130563359D01*
X135984503Y-130495461D01*
X136012979Y-130463425D01*
X136077321Y-130423211D01*
X136316698Y-130393289D01*
X136371826Y-130413962D01*
X136391977Y-130431593D01*
X136419219Y-130482672D01*
X136419219Y-130625794D01*
X136381118Y-130706759D01*
X136374549Y-130725229D01*
X136372711Y-130764204D01*
X136385927Y-130800916D01*
X136412186Y-130829776D01*
X136447490Y-130846390D01*
X136486465Y-130848228D01*
X136523177Y-130835012D01*
X136552037Y-130808753D01*
X136562082Y-130791919D01*
X136609701Y-130690729D01*
X136616270Y-130672258D01*
X136616382Y-130669867D01*
X136617298Y-130667658D01*
X136619219Y-130648149D01*
X136619219Y-130457673D01*
X136617298Y-130438164D01*
X136615417Y-130433623D01*
X136614940Y-130428732D01*
X136607455Y-130410615D01*
X136559835Y-130321328D01*
X136551740Y-130309187D01*
X136550867Y-130307422D01*
X136549817Y-130306303D01*
X136548960Y-130305018D01*
X136547427Y-130303758D01*
X136537450Y-130293129D01*
X136489830Y-130251462D01*
X136478176Y-130243130D01*
X136476684Y-130241736D01*
X136475217Y-130241014D01*
X136473883Y-130240061D01*
X136471941Y-130239404D01*
X136459092Y-130233087D01*
X136363854Y-130197373D01*
X136344913Y-130192322D01*
X136340343Y-130192477D01*
X136335935Y-130191265D01*
X136316338Y-130191778D01*
X136030625Y-130227492D01*
X136011505Y-130231818D01*
X136009669Y-130232861D01*
X136007589Y-130233210D01*
X135990028Y-130241920D01*
X135894790Y-130301444D01*
X135889555Y-130305479D01*
X135887446Y-130306502D01*
X135883508Y-130310141D01*
X135879264Y-130313413D01*
X135877903Y-130315320D01*
X135873049Y-130319807D01*
X135825430Y-130373378D01*
X135821481Y-130378810D01*
X135819734Y-130380401D01*
X135817018Y-130384952D01*
X135813905Y-130389236D01*
X135813131Y-130391466D01*
X135809689Y-130397235D01*
X135762070Y-130498427D01*
X135755501Y-130516897D01*
X135755388Y-130519287D01*
X135754473Y-130521497D01*
X135752552Y-130541006D01*
X134628322Y-130541006D01*
X134628322Y-130219577D01*
X134626401Y-130200068D01*
X134611469Y-130164020D01*
X134583879Y-130136430D01*
X134547831Y-130121498D01*
X134508813Y-130121498D01*
X134472765Y-130136430D01*
X134445175Y-130164020D01*
X134430243Y-130200068D01*
X134428322Y-130219577D01*
X133698164Y-130219577D01*
X133698164Y-129813575D01*
X133809534Y-129813575D01*
X133814373Y-129852292D01*
X133833661Y-129886209D01*
X133864460Y-129910164D01*
X133902082Y-129920509D01*
X133921678Y-129919996D01*
X134921678Y-129794996D01*
X134940798Y-129790670D01*
X134974716Y-129771382D01*
X134998671Y-129740583D01*
X135009016Y-129702961D01*
X135004177Y-129664244D01*
X134996316Y-129650421D01*
X134999757Y-129643110D01*
X135002199Y-129636244D01*
X135752552Y-129636244D01*
X135752552Y-129826720D01*
X135754473Y-129846229D01*
X135756353Y-129850769D01*
X135756831Y-129855661D01*
X135764317Y-129873779D01*
X135811936Y-129963065D01*
X135817875Y-129971973D01*
X135818957Y-129974352D01*
X135820296Y-129975603D01*
X135822811Y-129979375D01*
X135835491Y-129989800D01*
X135847467Y-130000990D01*
X135851530Y-130002987D01*
X135852950Y-130004155D01*
X135855455Y-130004917D01*
X135865059Y-130009639D01*
X135960297Y-130045353D01*
X135979238Y-130050404D01*
X135983807Y-130050248D01*
X135988216Y-130051461D01*
X136007813Y-130050948D01*
X136103051Y-130039043D01*
X136122171Y-130034717D01*
X136125500Y-130032823D01*
X136129252Y-130032063D01*
X136142351Y-130023240D01*
X136156088Y-130015429D01*
X136158439Y-130012405D01*
X136161615Y-130010267D01*
X136170342Y-129997102D01*
X136180043Y-129984630D01*
X136181058Y-129980937D01*
X136183174Y-129977746D01*
X136188796Y-129958966D01*
X136270162Y-129541963D01*
X136364317Y-129530194D01*
X136401133Y-129544000D01*
X136419219Y-129577909D01*
X136419219Y-129721032D01*
X136381118Y-129801997D01*
X136374549Y-129820467D01*
X136372711Y-129859442D01*
X136385927Y-129896154D01*
X136412186Y-129925014D01*
X136447490Y-129941628D01*
X136486465Y-129943466D01*
X136523177Y-129930250D01*
X136552037Y-129903991D01*
X136562082Y-129887157D01*
X136609701Y-129785967D01*
X136616270Y-129767496D01*
X136616382Y-129765105D01*
X136617298Y-129762896D01*
X136619219Y-129743387D01*
X136619219Y-129552910D01*
X136617298Y-129533401D01*
X136615417Y-129528860D01*
X136614940Y-129523969D01*
X136607454Y-129505851D01*
X136559835Y-129416566D01*
X136553895Y-129407658D01*
X136552814Y-129405280D01*
X136551474Y-129404028D01*
X136548959Y-129400256D01*
X136536288Y-129389838D01*
X136524305Y-129378641D01*
X136520237Y-129376641D01*
X136518820Y-129375476D01*
X136516318Y-129374714D01*
X136506712Y-129369992D01*
X136411474Y-129334277D01*
X136392532Y-129329226D01*
X136387962Y-129329381D01*
X136383554Y-129328169D01*
X136363957Y-129328682D01*
X135983005Y-129376302D01*
X135963885Y-129380628D01*
X135962051Y-129381670D01*
X135959972Y-129382019D01*
X135942410Y-129390730D01*
X135847172Y-129450253D01*
X135831646Y-129462222D01*
X135826408Y-129469565D01*
X135819734Y-129475639D01*
X135809689Y-129492473D01*
X135762070Y-129593665D01*
X135755501Y-129612135D01*
X135755388Y-129614525D01*
X135754473Y-129616735D01*
X135752552Y-129636244D01*
X135002199Y-129636244D01*
X135006326Y-129624639D01*
X135006438Y-129622248D01*
X135007354Y-129620039D01*
X135009275Y-129600530D01*
X135009275Y-129410054D01*
X135007354Y-129390545D01*
X135005473Y-129386004D01*
X135004996Y-129381113D01*
X134997511Y-129362996D01*
X134949891Y-129273709D01*
X134941796Y-129261568D01*
X134940923Y-129259803D01*
X134939873Y-129258684D01*
X134939016Y-129257399D01*
X134937483Y-129256139D01*
X134927506Y-129245510D01*
X134879886Y-129203843D01*
X134868232Y-129195511D01*
X134866740Y-129194117D01*
X134865273Y-129193395D01*
X134863939Y-129192442D01*
X134861997Y-129191785D01*
X134849148Y-129185468D01*
X134753910Y-129149754D01*
X134734969Y-129144703D01*
X134730399Y-129144858D01*
X134725991Y-129143646D01*
X134706394Y-129144159D01*
X134420681Y-129179873D01*
X134401561Y-129184199D01*
X134399725Y-129185242D01*
X134397645Y-129185591D01*
X134380084Y-129194301D01*
X134284846Y-129253825D01*
X134279611Y-129257860D01*
X134277502Y-129258883D01*
X134273564Y-129262522D01*
X134269320Y-129265794D01*
X134267959Y-129267701D01*
X134263105Y-129272188D01*
X134215486Y-129325759D01*
X134211537Y-129331191D01*
X134209790Y-129332782D01*
X134207074Y-129337333D01*
X134203961Y-129341617D01*
X134203187Y-129343847D01*
X134199745Y-129349616D01*
X134152126Y-129450808D01*
X134145557Y-129469278D01*
X134145444Y-129471668D01*
X134144529Y-129473878D01*
X134142608Y-129493387D01*
X134142608Y-129683863D01*
X134143284Y-129690738D01*
X133896872Y-129721540D01*
X133877751Y-129725866D01*
X133843834Y-129745154D01*
X133819879Y-129775953D01*
X133809534Y-129813575D01*
X133698164Y-129813575D01*
X133698164Y-128921958D01*
X134142608Y-128921958D01*
X134142608Y-129017196D01*
X134144529Y-129036705D01*
X134159461Y-129072753D01*
X134187051Y-129100343D01*
X134223099Y-129115275D01*
X134262117Y-129115275D01*
X134298165Y-129100343D01*
X134299220Y-129099288D01*
X135419478Y-129099288D01*
X135421498Y-129115453D01*
X135422455Y-129131716D01*
X135422628Y-129132073D01*
X135422655Y-129132472D01*
X135423953Y-129135098D01*
X135424317Y-129138005D01*
X135432367Y-129152162D01*
X135439477Y-129166826D01*
X135439774Y-129167090D01*
X135439951Y-129167447D01*
X135442763Y-129170442D01*
X135443605Y-129171923D01*
X135445635Y-129173502D01*
X135453368Y-129181739D01*
X135500987Y-129223406D01*
X135515743Y-129233956D01*
X135516259Y-129234415D01*
X135516502Y-129234499D01*
X135516934Y-129234808D01*
X135535088Y-129240947D01*
X135553122Y-129247204D01*
X135553519Y-129247180D01*
X135553896Y-129247308D01*
X135572978Y-129246036D01*
X135592072Y-129244913D01*
X135592429Y-129244739D01*
X135592828Y-129244713D01*
X135609985Y-129236228D01*
X135627182Y-129227891D01*
X135627570Y-129227531D01*
X135627803Y-129227417D01*
X135628259Y-129226894D01*
X135641579Y-129214586D01*
X135689198Y-129161014D01*
X135700723Y-129145157D01*
X135700852Y-129144782D01*
X135701116Y-129144482D01*
X135702054Y-129141705D01*
X135703853Y-129139394D01*
X135708173Y-129123682D01*
X135713512Y-129108294D01*
X135713488Y-129107896D01*
X135713616Y-129107520D01*
X135713421Y-129104597D01*
X135714198Y-129101772D01*
X135712177Y-129085606D01*
X135711221Y-129069343D01*
X135711047Y-129068984D01*
X135711021Y-129068589D01*
X135709722Y-129065963D01*
X135709359Y-129063055D01*
X135706270Y-129057623D01*
X135752811Y-129057623D01*
X135757650Y-129096340D01*
X135776938Y-129130257D01*
X135807737Y-129154212D01*
X135845359Y-129164557D01*
X135864955Y-129164044D01*
X136722098Y-129056901D01*
X136741218Y-129052575D01*
X136743051Y-129051532D01*
X136745133Y-129051184D01*
X136762695Y-129042473D01*
X136857933Y-128982949D01*
X136873458Y-128970980D01*
X136878694Y-128963636D01*
X136885370Y-128957563D01*
X136895415Y-128940729D01*
X136943034Y-128839539D01*
X136949603Y-128821068D01*
X136949715Y-128818677D01*
X136950631Y-128816468D01*
X136952552Y-128796959D01*
X136952552Y-128749340D01*
X136950631Y-128729831D01*
X136935699Y-128693783D01*
X136908109Y-128666193D01*
X136872061Y-128651261D01*
X136833043Y-128651261D01*
X136796995Y-128666193D01*
X136769405Y-128693783D01*
X136754473Y-128729831D01*
X136752552Y-128749340D01*
X136752552Y-128774604D01*
X136726980Y-128828944D01*
X136675401Y-128861181D01*
X135840149Y-128965588D01*
X135821028Y-128969914D01*
X135787111Y-128989202D01*
X135763156Y-129020001D01*
X135752811Y-129057623D01*
X135706270Y-129057623D01*
X135701309Y-129048900D01*
X135694199Y-129034234D01*
X135693901Y-129033969D01*
X135693725Y-129033613D01*
X135690912Y-129030617D01*
X135690071Y-129029137D01*
X135688040Y-129027557D01*
X135680308Y-129019321D01*
X135632689Y-128977654D01*
X135617932Y-128967103D01*
X135617417Y-128966645D01*
X135617173Y-128966560D01*
X135616742Y-128966252D01*
X135598607Y-128960119D01*
X135580555Y-128953856D01*
X135580156Y-128953879D01*
X135579780Y-128953752D01*
X135560693Y-128955024D01*
X135541604Y-128956147D01*
X135541246Y-128956320D01*
X135540848Y-128956347D01*
X135523690Y-128964831D01*
X135506494Y-128973169D01*
X135506105Y-128973528D01*
X135505873Y-128973643D01*
X135505416Y-128974165D01*
X135492097Y-128986474D01*
X135444478Y-129040045D01*
X135432953Y-129055903D01*
X135432823Y-129056277D01*
X135432560Y-129056578D01*
X135431621Y-129059354D01*
X135429823Y-129061666D01*
X135425502Y-129077377D01*
X135420164Y-129092766D01*
X135420187Y-129093163D01*
X135420060Y-129093540D01*
X135420254Y-129096462D01*
X135419478Y-129099288D01*
X134299220Y-129099288D01*
X134325755Y-129072753D01*
X134340687Y-129036705D01*
X134342608Y-129017196D01*
X134342608Y-128944311D01*
X134374559Y-128876413D01*
X134403035Y-128844377D01*
X134467376Y-128804164D01*
X134921678Y-128747376D01*
X134940798Y-128743050D01*
X134974716Y-128723762D01*
X134998671Y-128692963D01*
X135009016Y-128655341D01*
X135004177Y-128616624D01*
X134984889Y-128582707D01*
X134954090Y-128558752D01*
X134916468Y-128548407D01*
X134896871Y-128548920D01*
X134230204Y-128632254D01*
X134211084Y-128636580D01*
X134177167Y-128655868D01*
X134153212Y-128686667D01*
X134142867Y-128724289D01*
X134147706Y-128763006D01*
X134166994Y-128796923D01*
X134184515Y-128810550D01*
X134152126Y-128879379D01*
X134145557Y-128897849D01*
X134145444Y-128900239D01*
X134144529Y-128902449D01*
X134142608Y-128921958D01*
X133698164Y-128921958D01*
X133698164Y-127921958D01*
X134142608Y-127921958D01*
X134142608Y-128112434D01*
X134144529Y-128131943D01*
X134146409Y-128136483D01*
X134146887Y-128141375D01*
X134154373Y-128159493D01*
X134201992Y-128248779D01*
X134207931Y-128257687D01*
X134209013Y-128260066D01*
X134210352Y-128261317D01*
X134212867Y-128265089D01*
X134225547Y-128275514D01*
X134237523Y-128286704D01*
X134241586Y-128288701D01*
X134243006Y-128289869D01*
X134245511Y-128290631D01*
X134255115Y-128295353D01*
X134350353Y-128331067D01*
X134369294Y-128336118D01*
X134373863Y-128335962D01*
X134378272Y-128337175D01*
X134397868Y-128336662D01*
X134667877Y-128302911D01*
X135752552Y-128302911D01*
X135752552Y-128445768D01*
X135754473Y-128465277D01*
X135756353Y-128469817D01*
X135756831Y-128474709D01*
X135764317Y-128492827D01*
X135811936Y-128582113D01*
X135820029Y-128594250D01*
X135820904Y-128596020D01*
X135821955Y-128597140D01*
X135822811Y-128598423D01*
X135824340Y-128599680D01*
X135834321Y-128610312D01*
X135881940Y-128651978D01*
X135893589Y-128660306D01*
X135895085Y-128661704D01*
X135896555Y-128662426D01*
X135897887Y-128663379D01*
X135899825Y-128664034D01*
X135912677Y-128670353D01*
X136007915Y-128706068D01*
X136026856Y-128711119D01*
X136031426Y-128710963D01*
X136035835Y-128712176D01*
X136055432Y-128711663D01*
X136341146Y-128675948D01*
X136360266Y-128671622D01*
X136362099Y-128670579D01*
X136364180Y-128670231D01*
X136381741Y-128661520D01*
X136476980Y-128601997D01*
X136482213Y-128597962D01*
X136484324Y-128596939D01*
X136488265Y-128593296D01*
X136492505Y-128590028D01*
X136493863Y-128588122D01*
X136498721Y-128583634D01*
X136546340Y-128530062D01*
X136550287Y-128524630D01*
X136552037Y-128523039D01*
X136554754Y-128518485D01*
X136557866Y-128514204D01*
X136558639Y-128511973D01*
X136562082Y-128506205D01*
X136609701Y-128405015D01*
X136616270Y-128386544D01*
X136616382Y-128384153D01*
X136617298Y-128381944D01*
X136619219Y-128362435D01*
X136619219Y-128219578D01*
X136617298Y-128200069D01*
X136615417Y-128195528D01*
X136614940Y-128190637D01*
X136607455Y-128172520D01*
X136559835Y-128083233D01*
X136551740Y-128071092D01*
X136550867Y-128069327D01*
X136549817Y-128068208D01*
X136548960Y-128066923D01*
X136547427Y-128065663D01*
X136537450Y-128055034D01*
X136489830Y-128013367D01*
X136478176Y-128005035D01*
X136476684Y-128003641D01*
X136475217Y-128002919D01*
X136473883Y-128001966D01*
X136471941Y-128001309D01*
X136459092Y-127994992D01*
X136363854Y-127959278D01*
X136344913Y-127954227D01*
X136340343Y-127954382D01*
X136335935Y-127953170D01*
X136316338Y-127953683D01*
X136030625Y-127989397D01*
X136011505Y-127993723D01*
X136009669Y-127994766D01*
X136007589Y-127995115D01*
X135990028Y-128003825D01*
X135894790Y-128063349D01*
X135889555Y-128067384D01*
X135887446Y-128068407D01*
X135883508Y-128072046D01*
X135879264Y-128075318D01*
X135877903Y-128077225D01*
X135873049Y-128081712D01*
X135825430Y-128135283D01*
X135821481Y-128140715D01*
X135819734Y-128142306D01*
X135817018Y-128146857D01*
X135813905Y-128151141D01*
X135813131Y-128153371D01*
X135809689Y-128159140D01*
X135762070Y-128260332D01*
X135755501Y-128278802D01*
X135755388Y-128281192D01*
X135754473Y-128283402D01*
X135752552Y-128302911D01*
X134667877Y-128302911D01*
X134921678Y-128271186D01*
X134940798Y-128266860D01*
X134974716Y-128247572D01*
X134998671Y-128216773D01*
X135009016Y-128179151D01*
X135004176Y-128140435D01*
X134996315Y-128126612D01*
X134999757Y-128119300D01*
X135006326Y-128100829D01*
X135006438Y-128098438D01*
X135007354Y-128096229D01*
X135009275Y-128076720D01*
X135009275Y-127838624D01*
X135007354Y-127819115D01*
X135005473Y-127814574D01*
X135004996Y-127809683D01*
X134997510Y-127791565D01*
X134965466Y-127731482D01*
X135752552Y-127731482D01*
X135752552Y-127826720D01*
X135754473Y-127846229D01*
X135769405Y-127882277D01*
X135796995Y-127909867D01*
X135833043Y-127924799D01*
X135872061Y-127924799D01*
X135908109Y-127909867D01*
X135935699Y-127882277D01*
X135950631Y-127846229D01*
X135952552Y-127826720D01*
X135952552Y-127753835D01*
X135984503Y-127685937D01*
X136012979Y-127653901D01*
X136077320Y-127613688D01*
X136531622Y-127556900D01*
X136550742Y-127552574D01*
X136584660Y-127533286D01*
X136608615Y-127502487D01*
X136618960Y-127464865D01*
X136614121Y-127426148D01*
X136594833Y-127392231D01*
X136564034Y-127368276D01*
X136526412Y-127357931D01*
X136506815Y-127358444D01*
X135840148Y-127441778D01*
X135821028Y-127446104D01*
X135787111Y-127465392D01*
X135763156Y-127496191D01*
X135752811Y-127533813D01*
X135757650Y-127572530D01*
X135776938Y-127606447D01*
X135794459Y-127620074D01*
X135762070Y-127688903D01*
X135755501Y-127707373D01*
X135755388Y-127709763D01*
X135754473Y-127711973D01*
X135752552Y-127731482D01*
X134965466Y-127731482D01*
X134949891Y-127702280D01*
X134943951Y-127693372D01*
X134942870Y-127690994D01*
X134941530Y-127689742D01*
X134939015Y-127685970D01*
X134926344Y-127675552D01*
X134914361Y-127664355D01*
X134910293Y-127662355D01*
X134908876Y-127661190D01*
X134906374Y-127660428D01*
X134896768Y-127655706D01*
X134801530Y-127619991D01*
X134782588Y-127614940D01*
X134778018Y-127615095D01*
X134773610Y-127613883D01*
X134754013Y-127614396D01*
X134658775Y-127626301D01*
X134639655Y-127630627D01*
X134637819Y-127631670D01*
X134635740Y-127632019D01*
X134618179Y-127640729D01*
X134522941Y-127700253D01*
X134507415Y-127712222D01*
X134502176Y-127719567D01*
X134495504Y-127725639D01*
X134485459Y-127742473D01*
X134437840Y-127843665D01*
X134431271Y-127862135D01*
X134431158Y-127864525D01*
X134430243Y-127866735D01*
X134428322Y-127886244D01*
X134428322Y-128101984D01*
X134413665Y-128133130D01*
X134397508Y-128135150D01*
X134360693Y-128121344D01*
X134342608Y-128087434D01*
X134342608Y-127944311D01*
X134380709Y-127863346D01*
X134387278Y-127844876D01*
X134389116Y-127805901D01*
X134375900Y-127769189D01*
X134349641Y-127740330D01*
X134314337Y-127723716D01*
X134275362Y-127721878D01*
X134238650Y-127735094D01*
X134209790Y-127761353D01*
X134199745Y-127778187D01*
X134152126Y-127879379D01*
X134145557Y-127897849D01*
X134145444Y-127900239D01*
X134144529Y-127902449D01*
X134142608Y-127921958D01*
X133698164Y-127921958D01*
X133698164Y-127064815D01*
X134142608Y-127064815D01*
X134142608Y-127207672D01*
X134144529Y-127227181D01*
X134146409Y-127231721D01*
X134146887Y-127236613D01*
X134154373Y-127254731D01*
X134201992Y-127344017D01*
X134210085Y-127356154D01*
X134210960Y-127357924D01*
X134212011Y-127359044D01*
X134212867Y-127360327D01*
X134214396Y-127361584D01*
X134224377Y-127372216D01*
X134271996Y-127413882D01*
X134283645Y-127422210D01*
X134285141Y-127423608D01*
X134286611Y-127424330D01*
X134287943Y-127425283D01*
X134289881Y-127425938D01*
X134302733Y-127432257D01*
X134397971Y-127467972D01*
X134416912Y-127473023D01*
X134421482Y-127472867D01*
X134425891Y-127474080D01*
X134445488Y-127473567D01*
X134731202Y-127437852D01*
X134750322Y-127433526D01*
X134752155Y-127432483D01*
X134754236Y-127432135D01*
X134771797Y-127423424D01*
X134867036Y-127363901D01*
X134872269Y-127359866D01*
X134874380Y-127358843D01*
X134878321Y-127355200D01*
X134882561Y-127351932D01*
X134883919Y-127350026D01*
X134888777Y-127345538D01*
X134936396Y-127291966D01*
X134940343Y-127286534D01*
X134942093Y-127284943D01*
X134944810Y-127280389D01*
X134947922Y-127276108D01*
X134948695Y-127273877D01*
X134952138Y-127268109D01*
X134999757Y-127166919D01*
X135006326Y-127148448D01*
X135006438Y-127146057D01*
X135007354Y-127143848D01*
X135009275Y-127124339D01*
X135009275Y-126981482D01*
X135007354Y-126961973D01*
X135005473Y-126957432D01*
X135004996Y-126952541D01*
X134997511Y-126934424D01*
X134949891Y-126845137D01*
X134941796Y-126832996D01*
X134940923Y-126831231D01*
X134939873Y-126830112D01*
X134939016Y-126828827D01*
X134937483Y-126827567D01*
X134927506Y-126816938D01*
X134879886Y-126775271D01*
X134868232Y-126766939D01*
X134866740Y-126765545D01*
X134865273Y-126764823D01*
X134863939Y-126763870D01*
X134861997Y-126763213D01*
X134849148Y-126756896D01*
X134753910Y-126721182D01*
X134734969Y-126716131D01*
X134730399Y-126716286D01*
X134725991Y-126715074D01*
X134706394Y-126715587D01*
X134420681Y-126751301D01*
X134401561Y-126755627D01*
X134399725Y-126756670D01*
X134397645Y-126757019D01*
X134380084Y-126765729D01*
X134284846Y-126825253D01*
X134279611Y-126829288D01*
X134277502Y-126830311D01*
X134273564Y-126833950D01*
X134269320Y-126837222D01*
X134267959Y-126839129D01*
X134263105Y-126843616D01*
X134215486Y-126897187D01*
X134211537Y-126902619D01*
X134209790Y-126904210D01*
X134207074Y-126908761D01*
X134203961Y-126913045D01*
X134203187Y-126915275D01*
X134199745Y-126921044D01*
X134152126Y-127022236D01*
X134145557Y-127040706D01*
X134145444Y-127043096D01*
X134144529Y-127045306D01*
X134142608Y-127064815D01*
X133698164Y-127064815D01*
X133698164Y-126582672D01*
X135419219Y-126582672D01*
X135419219Y-126963625D01*
X135421140Y-126983134D01*
X135423020Y-126987674D01*
X135423498Y-126992566D01*
X135430984Y-127010684D01*
X135478603Y-127099969D01*
X135486691Y-127112099D01*
X135487570Y-127113875D01*
X135488626Y-127115000D01*
X135489479Y-127116279D01*
X135491003Y-127117532D01*
X135500987Y-127128167D01*
X135548606Y-127169834D01*
X135560262Y-127178168D01*
X135561753Y-127179561D01*
X135563216Y-127180280D01*
X135564553Y-127181236D01*
X135566497Y-127181893D01*
X135579345Y-127188210D01*
X135674583Y-127223924D01*
X135693524Y-127228975D01*
X135698093Y-127228819D01*
X135702502Y-127230032D01*
X135722098Y-127229519D01*
X135864956Y-127211662D01*
X135884076Y-127207336D01*
X135885909Y-127206293D01*
X135887990Y-127205945D01*
X135905552Y-127197234D01*
X136000790Y-127137710D01*
X136006023Y-127133675D01*
X136008134Y-127132652D01*
X136012075Y-127129009D01*
X136016315Y-127125741D01*
X136017673Y-127123836D01*
X136022531Y-127119347D01*
X136070150Y-127065775D01*
X136074097Y-127060344D01*
X136075846Y-127058753D01*
X136078562Y-127054199D01*
X136081675Y-127049918D01*
X136082448Y-127047687D01*
X136085891Y-127041919D01*
X136133510Y-126940729D01*
X136140079Y-126922258D01*
X136140191Y-126919867D01*
X136141107Y-126917658D01*
X136143028Y-126898149D01*
X136143028Y-126605474D01*
X136531622Y-126556900D01*
X136550742Y-126552574D01*
X136584660Y-126533286D01*
X136608615Y-126502487D01*
X136618960Y-126464865D01*
X136614121Y-126426148D01*
X136594833Y-126392231D01*
X136564034Y-126368276D01*
X136526412Y-126357931D01*
X136506815Y-126358444D01*
X135506816Y-126483444D01*
X135501737Y-126484593D01*
X135499710Y-126484593D01*
X135497269Y-126485603D01*
X135487695Y-126487770D01*
X135476041Y-126494396D01*
X135463662Y-126499525D01*
X135459228Y-126503958D01*
X135453778Y-126507058D01*
X135445549Y-126517637D01*
X135436072Y-126527115D01*
X135433672Y-126532907D01*
X135429823Y-126537857D01*
X135426269Y-126550778D01*
X135421140Y-126563163D01*
X135420177Y-126572933D01*
X135419478Y-126575479D01*
X135419729Y-126577489D01*
X135419219Y-126582672D01*
X133698164Y-126582672D01*
X133698164Y-125963624D01*
X133809275Y-125963624D01*
X133809275Y-126296958D01*
X133811196Y-126316467D01*
X133813076Y-126321007D01*
X133813554Y-126325899D01*
X133821040Y-126344017D01*
X133868659Y-126433302D01*
X133876747Y-126445432D01*
X133877626Y-126447208D01*
X133878682Y-126448333D01*
X133879535Y-126449612D01*
X133881059Y-126450865D01*
X133891043Y-126461500D01*
X133938662Y-126503167D01*
X133950318Y-126511501D01*
X133951809Y-126512894D01*
X133953272Y-126513613D01*
X133954609Y-126514569D01*
X133956553Y-126515226D01*
X133969401Y-126521543D01*
X134064639Y-126557257D01*
X134083580Y-126562308D01*
X134088148Y-126562152D01*
X134092557Y-126563365D01*
X134112154Y-126562852D01*
X134207392Y-126550948D01*
X134226512Y-126546622D01*
X134228345Y-126545579D01*
X134230427Y-126545231D01*
X134247989Y-126536520D01*
X134343227Y-126476996D01*
X134348462Y-126472959D01*
X134350572Y-126471937D01*
X134354510Y-126468297D01*
X134358752Y-126465027D01*
X134360111Y-126463120D01*
X134364968Y-126458632D01*
X134370476Y-126452434D01*
X134414853Y-126491263D01*
X134426502Y-126499591D01*
X134427998Y-126500989D01*
X134429468Y-126501711D01*
X134430800Y-126502664D01*
X134432738Y-126503319D01*
X134445590Y-126509638D01*
X134540828Y-126545353D01*
X134559769Y-126550404D01*
X134564339Y-126550248D01*
X134568748Y-126551461D01*
X134588345Y-126550948D01*
X134731202Y-126533090D01*
X134750322Y-126528764D01*
X134752155Y-126527721D01*
X134754236Y-126527373D01*
X134771797Y-126518662D01*
X134867036Y-126459139D01*
X134872269Y-126455104D01*
X134874380Y-126454081D01*
X134878321Y-126450438D01*
X134882561Y-126447170D01*
X134883919Y-126445264D01*
X134888777Y-126440776D01*
X134936396Y-126387204D01*
X134940343Y-126381772D01*
X134942093Y-126380181D01*
X134944810Y-126375627D01*
X134947922Y-126371346D01*
X134948695Y-126369115D01*
X134952138Y-126363347D01*
X134999757Y-126262157D01*
X135006326Y-126243686D01*
X135006438Y-126241295D01*
X135007354Y-126239086D01*
X135009275Y-126219577D01*
X135009275Y-125838624D01*
X135007354Y-125819115D01*
X135004954Y-125813322D01*
X135004177Y-125807100D01*
X134997550Y-125795446D01*
X134992422Y-125783067D01*
X134987988Y-125778633D01*
X134984889Y-125773183D01*
X134974309Y-125764954D01*
X134964832Y-125755477D01*
X134959039Y-125753077D01*
X134954090Y-125749228D01*
X134941168Y-125745674D01*
X134928784Y-125740545D01*
X134922512Y-125740545D01*
X134916468Y-125738883D01*
X134896871Y-125739396D01*
X133896872Y-125864396D01*
X133891793Y-125865545D01*
X133889766Y-125865545D01*
X133887325Y-125866555D01*
X133877751Y-125868722D01*
X133866097Y-125875348D01*
X133853718Y-125880477D01*
X133849284Y-125884910D01*
X133843834Y-125888010D01*
X133835605Y-125898589D01*
X133826128Y-125908067D01*
X133823728Y-125913859D01*
X133819879Y-125918809D01*
X133816325Y-125931730D01*
X133811196Y-125944115D01*
X133810233Y-125953885D01*
X133809534Y-125956431D01*
X133809785Y-125958441D01*
X133809275Y-125963624D01*
X133698164Y-125963624D01*
X133698164Y-124648148D01*
X134428322Y-124648148D01*
X134428322Y-125410053D01*
X134430243Y-125429562D01*
X134445175Y-125465610D01*
X134472765Y-125493200D01*
X134508813Y-125508132D01*
X134547831Y-125508132D01*
X134583879Y-125493200D01*
X134611469Y-125465610D01*
X134626401Y-125429562D01*
X134628322Y-125410053D01*
X134628322Y-125267196D01*
X136038266Y-125267196D01*
X136038266Y-126029101D01*
X136040187Y-126048610D01*
X136055119Y-126084658D01*
X136082709Y-126112248D01*
X136118757Y-126127180D01*
X136157775Y-126127180D01*
X136193823Y-126112248D01*
X136221413Y-126084658D01*
X136236345Y-126048610D01*
X136238266Y-126029101D01*
X136238266Y-125267196D01*
X136236345Y-125247687D01*
X136221413Y-125211639D01*
X136193823Y-125184049D01*
X136157775Y-125169117D01*
X136118757Y-125169117D01*
X136082709Y-125184049D01*
X136055119Y-125211639D01*
X136040187Y-125247687D01*
X136038266Y-125267196D01*
X134628322Y-125267196D01*
X134628322Y-124648148D01*
X134626401Y-124628639D01*
X134611469Y-124592591D01*
X134583879Y-124565001D01*
X134547831Y-124550069D01*
X134508813Y-124550069D01*
X134472765Y-124565001D01*
X134445175Y-124592591D01*
X134430243Y-124628639D01*
X134428322Y-124648148D01*
X133698164Y-124648148D01*
X133698164Y-123868387D01*
X133809275Y-123868387D01*
X133809275Y-124058863D01*
X133811196Y-124078372D01*
X133813076Y-124082912D01*
X133813554Y-124087804D01*
X133821040Y-124105922D01*
X133868659Y-124195207D01*
X133876747Y-124207337D01*
X133877626Y-124209113D01*
X133878682Y-124210238D01*
X133879535Y-124211517D01*
X133881059Y-124212770D01*
X133891043Y-124223405D01*
X133986281Y-124306740D01*
X133986580Y-124306954D01*
X133986691Y-124307096D01*
X133987120Y-124307340D01*
X134002228Y-124318141D01*
X134011815Y-124321383D01*
X134020609Y-124326384D01*
X134038716Y-124330481D01*
X134039190Y-124330641D01*
X134039370Y-124330628D01*
X134039729Y-124330710D01*
X134230205Y-124354519D01*
X134233901Y-124354615D01*
X134235415Y-124355032D01*
X134242608Y-124354843D01*
X134249801Y-124355032D01*
X134251314Y-124354615D01*
X134255011Y-124354519D01*
X134392093Y-124337384D01*
X135419478Y-124337384D01*
X135424317Y-124376101D01*
X135443605Y-124410018D01*
X135474404Y-124433973D01*
X135512026Y-124444318D01*
X135531622Y-124443805D01*
X135839349Y-124405339D01*
X135444478Y-124849570D01*
X135432953Y-124865427D01*
X135420164Y-124902290D01*
X135422455Y-124941241D01*
X135439478Y-124976350D01*
X135468640Y-125002272D01*
X135505503Y-125015061D01*
X135544454Y-125012770D01*
X135579563Y-124995747D01*
X135593960Y-124982442D01*
X135966416Y-124563429D01*
X136466219Y-124875806D01*
X136483781Y-124884516D01*
X136522263Y-124890960D01*
X136560282Y-124882186D01*
X136592050Y-124859531D01*
X136612729Y-124826444D01*
X136619172Y-124787961D01*
X136610399Y-124749942D01*
X136587744Y-124718175D01*
X136572219Y-124706206D01*
X136101187Y-124411811D01*
X136140389Y-124367709D01*
X136531622Y-124318805D01*
X136550742Y-124314479D01*
X136584660Y-124295191D01*
X136608615Y-124264392D01*
X136618960Y-124226770D01*
X136614121Y-124188053D01*
X136594833Y-124154136D01*
X136564034Y-124130181D01*
X136526412Y-124119836D01*
X136506815Y-124120349D01*
X135506816Y-124245349D01*
X135487695Y-124249675D01*
X135453778Y-124268963D01*
X135429823Y-124299762D01*
X135419478Y-124337384D01*
X134392093Y-124337384D01*
X134588344Y-124312853D01*
X134590926Y-124312268D01*
X134592112Y-124312309D01*
X134599748Y-124310272D01*
X134607464Y-124308527D01*
X134608496Y-124307940D01*
X134611054Y-124307258D01*
X134801530Y-124235829D01*
X134819122Y-124227180D01*
X134822544Y-124223982D01*
X134826761Y-124221938D01*
X134841158Y-124208633D01*
X134936397Y-124101490D01*
X134940345Y-124096057D01*
X134942093Y-124094467D01*
X134944808Y-124089915D01*
X134947922Y-124085632D01*
X134948695Y-124083401D01*
X134952138Y-124077633D01*
X134999757Y-123976443D01*
X135006326Y-123957972D01*
X135006438Y-123955581D01*
X135007354Y-123953372D01*
X135009275Y-123933863D01*
X135009275Y-123743387D01*
X135007354Y-123723878D01*
X135005473Y-123719337D01*
X135004996Y-123714446D01*
X134997511Y-123696329D01*
X134949891Y-123607042D01*
X134941798Y-123594904D01*
X134940923Y-123593135D01*
X134939871Y-123592014D01*
X134939016Y-123590732D01*
X134937486Y-123589474D01*
X134927506Y-123578843D01*
X134832267Y-123495510D01*
X134831969Y-123495297D01*
X134831858Y-123495154D01*
X134831423Y-123494906D01*
X134816320Y-123484109D01*
X134806735Y-123480867D01*
X134797940Y-123475866D01*
X134779829Y-123471768D01*
X134779358Y-123471609D01*
X134779178Y-123471621D01*
X134778820Y-123471540D01*
X134588345Y-123447730D01*
X134584647Y-123447633D01*
X134583134Y-123447217D01*
X134575941Y-123447405D01*
X134568748Y-123447217D01*
X134567234Y-123447633D01*
X134563537Y-123447730D01*
X134230204Y-123489397D01*
X134227621Y-123489981D01*
X134226437Y-123489941D01*
X134218808Y-123491975D01*
X134211084Y-123493723D01*
X134210050Y-123494310D01*
X134207496Y-123494992D01*
X134017020Y-123566420D01*
X133999428Y-123575069D01*
X133996004Y-123578267D01*
X133991788Y-123580312D01*
X133977391Y-123593617D01*
X133882153Y-123700760D01*
X133878205Y-123706190D01*
X133876457Y-123707782D01*
X133873740Y-123712335D01*
X133870628Y-123716617D01*
X133869854Y-123718847D01*
X133866412Y-123724616D01*
X133818793Y-123825808D01*
X133812224Y-123844278D01*
X133812111Y-123846668D01*
X133811196Y-123848878D01*
X133809275Y-123868387D01*
X133698164Y-123868387D01*
X133698164Y-123194527D01*
X133809534Y-123194527D01*
X133814373Y-123233244D01*
X133833661Y-123267161D01*
X133864460Y-123291116D01*
X133902082Y-123301461D01*
X133921678Y-123300948D01*
X134011142Y-123289765D01*
X135419478Y-123289765D01*
X135424317Y-123328482D01*
X135443605Y-123362399D01*
X135474404Y-123386354D01*
X135512026Y-123396699D01*
X135531622Y-123396186D01*
X135895409Y-123350712D01*
X135895409Y-123720584D01*
X135506816Y-123769159D01*
X135487695Y-123773485D01*
X135453778Y-123792773D01*
X135429823Y-123823572D01*
X135419478Y-123861194D01*
X135424317Y-123899911D01*
X135443605Y-123933828D01*
X135474404Y-123957783D01*
X135512026Y-123968128D01*
X135531622Y-123967615D01*
X136531622Y-123842615D01*
X136550742Y-123838289D01*
X136584660Y-123819001D01*
X136608615Y-123788202D01*
X136618960Y-123750580D01*
X136614121Y-123711863D01*
X136594833Y-123677946D01*
X136564034Y-123653991D01*
X136526412Y-123643646D01*
X136506815Y-123644159D01*
X136095409Y-123695584D01*
X136095409Y-123325712D01*
X136531622Y-123271186D01*
X136550742Y-123266860D01*
X136584660Y-123247572D01*
X136608615Y-123216773D01*
X136618960Y-123179151D01*
X136614121Y-123140434D01*
X136594833Y-123106517D01*
X136564034Y-123082562D01*
X136526412Y-123072217D01*
X136506815Y-123072730D01*
X135506816Y-123197730D01*
X135487695Y-123202056D01*
X135453778Y-123221344D01*
X135429823Y-123252143D01*
X135419478Y-123289765D01*
X134011142Y-123289765D01*
X134921678Y-123175948D01*
X134940798Y-123171622D01*
X134974716Y-123152334D01*
X134998671Y-123121535D01*
X135009016Y-123083913D01*
X135004177Y-123045196D01*
X134984889Y-123011279D01*
X134954090Y-122987324D01*
X134916468Y-122976979D01*
X134896871Y-122977492D01*
X133896872Y-123102492D01*
X133877751Y-123106818D01*
X133843834Y-123126106D01*
X133819879Y-123156905D01*
X133809534Y-123194527D01*
X133698164Y-123194527D01*
X133698164Y-121886244D01*
X134428322Y-121886244D01*
X134428322Y-122648149D01*
X134430243Y-122667658D01*
X134445175Y-122703706D01*
X134472765Y-122731296D01*
X134508813Y-122746228D01*
X134547831Y-122746228D01*
X134583879Y-122731296D01*
X134611469Y-122703706D01*
X134626401Y-122667658D01*
X134628322Y-122648149D01*
X134628322Y-122242146D01*
X135419478Y-122242146D01*
X135420973Y-122254113D01*
X135420646Y-122266175D01*
X135423371Y-122273295D01*
X135424317Y-122280863D01*
X135430282Y-122291352D01*
X135434593Y-122302616D01*
X135439835Y-122308151D01*
X135443605Y-122314780D01*
X135453126Y-122322185D01*
X135461423Y-122330946D01*
X135472525Y-122337274D01*
X135474404Y-122338735D01*
X135475727Y-122339098D01*
X135478454Y-122340653D01*
X136151209Y-122640990D01*
X135506816Y-122721540D01*
X135487695Y-122725866D01*
X135453778Y-122745154D01*
X135429823Y-122775953D01*
X135419478Y-122813575D01*
X135424317Y-122852292D01*
X135443605Y-122886209D01*
X135474404Y-122910164D01*
X135512026Y-122920509D01*
X135531622Y-122919996D01*
X136531622Y-122794996D01*
X136534682Y-122794303D01*
X136536055Y-122794341D01*
X136538278Y-122793489D01*
X136550742Y-122790670D01*
X136561230Y-122784705D01*
X136572496Y-122780394D01*
X136578032Y-122775151D01*
X136584660Y-122771382D01*
X136592065Y-122761860D01*
X136600826Y-122753564D01*
X136603934Y-122746600D01*
X136608615Y-122740583D01*
X136611813Y-122728952D01*
X136616731Y-122717936D01*
X136616938Y-122710313D01*
X136618960Y-122702961D01*
X136617463Y-122690991D01*
X136617792Y-122678932D01*
X136615066Y-122671811D01*
X136614121Y-122664244D01*
X136608155Y-122653754D01*
X136603845Y-122642491D01*
X136598602Y-122636955D01*
X136594833Y-122630327D01*
X136585311Y-122622921D01*
X136577015Y-122614161D01*
X136565912Y-122607832D01*
X136564034Y-122606372D01*
X136562710Y-122606008D01*
X136559984Y-122604454D01*
X135887228Y-122304116D01*
X136531622Y-122223567D01*
X136550742Y-122219241D01*
X136584660Y-122199953D01*
X136608615Y-122169154D01*
X136618960Y-122131532D01*
X136614121Y-122092815D01*
X136594833Y-122058898D01*
X136564034Y-122034943D01*
X136526412Y-122024598D01*
X136506815Y-122025111D01*
X135506816Y-122150111D01*
X135503755Y-122150803D01*
X135502383Y-122150766D01*
X135500159Y-122151616D01*
X135487695Y-122154437D01*
X135477205Y-122160402D01*
X135465942Y-122164713D01*
X135460406Y-122169955D01*
X135453778Y-122173725D01*
X135446372Y-122183246D01*
X135437612Y-122191543D01*
X135434502Y-122198506D01*
X135429823Y-122204524D01*
X135426625Y-122216150D01*
X135421706Y-122227171D01*
X135421498Y-122234797D01*
X135419478Y-122242146D01*
X134628322Y-122242146D01*
X134628322Y-121886244D01*
X134626401Y-121866735D01*
X134611469Y-121830687D01*
X134583879Y-121803097D01*
X134547831Y-121788165D01*
X134508813Y-121788165D01*
X134472765Y-121803097D01*
X134445175Y-121830687D01*
X134430243Y-121866735D01*
X134428322Y-121886244D01*
X133698164Y-121886244D01*
X133698164Y-121106482D01*
X133809275Y-121106482D01*
X133809275Y-121344578D01*
X133811196Y-121364087D01*
X133813076Y-121368627D01*
X133813554Y-121373519D01*
X133821040Y-121391637D01*
X133868659Y-121480922D01*
X133876747Y-121493052D01*
X133877626Y-121494828D01*
X133878682Y-121495953D01*
X133879535Y-121497232D01*
X133881059Y-121498485D01*
X133891043Y-121509120D01*
X133938662Y-121550787D01*
X133950318Y-121559121D01*
X133951809Y-121560514D01*
X133953272Y-121561233D01*
X133954609Y-121562189D01*
X133956553Y-121562846D01*
X133969401Y-121569163D01*
X134064639Y-121604877D01*
X134083580Y-121609928D01*
X134088148Y-121609772D01*
X134092557Y-121610985D01*
X134112154Y-121610472D01*
X134207392Y-121598568D01*
X134215539Y-121596724D01*
X134218120Y-121596629D01*
X134222253Y-121595205D01*
X134226512Y-121594242D01*
X134228754Y-121592966D01*
X134236655Y-121590246D01*
X134379512Y-121524769D01*
X134396447Y-121514894D01*
X134397198Y-121514084D01*
X134398190Y-121513604D01*
X134412587Y-121500299D01*
X134809275Y-121054025D01*
X134809275Y-121410054D01*
X134811196Y-121429563D01*
X134826128Y-121465611D01*
X134853718Y-121493201D01*
X134889766Y-121508133D01*
X134928784Y-121508133D01*
X134964832Y-121493201D01*
X134992422Y-121465611D01*
X135007354Y-121429563D01*
X135009275Y-121410054D01*
X135009275Y-120932624D01*
X136371858Y-120932624D01*
X136376699Y-120971341D01*
X136395987Y-121005258D01*
X136426786Y-121029213D01*
X136464408Y-121039558D01*
X136484005Y-121039044D01*
X136531624Y-121033091D01*
X136550744Y-121028764D01*
X136552575Y-121027722D01*
X136554657Y-121027374D01*
X136572218Y-121018663D01*
X136667457Y-120959140D01*
X136672692Y-120955103D01*
X136674802Y-120954081D01*
X136678740Y-120950441D01*
X136682982Y-120947171D01*
X136684342Y-120945263D01*
X136689198Y-120940776D01*
X136736818Y-120887204D01*
X136748343Y-120871346D01*
X136761131Y-120834483D01*
X136758840Y-120795532D01*
X136741817Y-120760423D01*
X136712655Y-120734501D01*
X136675792Y-120721713D01*
X136636841Y-120724004D01*
X136601732Y-120741027D01*
X136587335Y-120754332D01*
X136549266Y-120797159D01*
X136484927Y-120837371D01*
X136459195Y-120840588D01*
X136440075Y-120844915D01*
X136406158Y-120864203D01*
X136382203Y-120895002D01*
X136371858Y-120932624D01*
X135009275Y-120932624D01*
X135009275Y-120791006D01*
X135007354Y-120771497D01*
X135006213Y-120768744D01*
X135006039Y-120765771D01*
X134998784Y-120750809D01*
X134992422Y-120735449D01*
X134990315Y-120733342D01*
X134989016Y-120730662D01*
X134976586Y-120719613D01*
X134964832Y-120707859D01*
X134962080Y-120706719D01*
X134959854Y-120704740D01*
X134944146Y-120699290D01*
X134928784Y-120692927D01*
X134925804Y-120692927D01*
X134922991Y-120691951D01*
X134906397Y-120692927D01*
X134889766Y-120692927D01*
X134887013Y-120694067D01*
X134884040Y-120694242D01*
X134869078Y-120701496D01*
X134853718Y-120707859D01*
X134851611Y-120709965D01*
X134848931Y-120711265D01*
X134834534Y-120724570D01*
X134277070Y-121351715D01*
X134167315Y-121402020D01*
X134111794Y-121408960D01*
X134056666Y-121388287D01*
X134036516Y-121370656D01*
X134009275Y-121319578D01*
X134009275Y-121128836D01*
X134041227Y-121060937D01*
X134079254Y-121018157D01*
X134090779Y-121002300D01*
X134103568Y-120965437D01*
X134101277Y-120926486D01*
X134084255Y-120891377D01*
X134055092Y-120865455D01*
X134018230Y-120852666D01*
X133979279Y-120854957D01*
X133944169Y-120871979D01*
X133929772Y-120885284D01*
X133882153Y-120938855D01*
X133878204Y-120944287D01*
X133876457Y-120945878D01*
X133873741Y-120950429D01*
X133870628Y-120954713D01*
X133869854Y-120956943D01*
X133866412Y-120962712D01*
X133818793Y-121063902D01*
X133812224Y-121082372D01*
X133812111Y-121084763D01*
X133811196Y-121086973D01*
X133809275Y-121106482D01*
X133698164Y-121106482D01*
X133698164Y-119963625D01*
X133809275Y-119963625D01*
X133809275Y-120582673D01*
X133811196Y-120602182D01*
X133826128Y-120638230D01*
X133853718Y-120665820D01*
X133889766Y-120680752D01*
X133928784Y-120680752D01*
X133964832Y-120665820D01*
X133979986Y-120653384D01*
X134215814Y-120417554D01*
X134249611Y-120480922D01*
X134257699Y-120493052D01*
X134258578Y-120494828D01*
X134259634Y-120495953D01*
X134260487Y-120497232D01*
X134262011Y-120498485D01*
X134271995Y-120509120D01*
X134319614Y-120550787D01*
X134331270Y-120559121D01*
X134332761Y-120560514D01*
X134334224Y-120561233D01*
X134335561Y-120562189D01*
X134337505Y-120562846D01*
X134350353Y-120569163D01*
X134445591Y-120604877D01*
X134464532Y-120609928D01*
X134469101Y-120609772D01*
X134473510Y-120610985D01*
X134493107Y-120610472D01*
X134731202Y-120580710D01*
X134750322Y-120576384D01*
X134752155Y-120575341D01*
X134754236Y-120574993D01*
X134771797Y-120566282D01*
X134867036Y-120506759D01*
X134872269Y-120502724D01*
X134874380Y-120501701D01*
X134878321Y-120498058D01*
X134882561Y-120494790D01*
X134883919Y-120492884D01*
X134888777Y-120488396D01*
X134936396Y-120434824D01*
X134940343Y-120429392D01*
X134942093Y-120427801D01*
X134944810Y-120423247D01*
X134947922Y-120418966D01*
X134948695Y-120416735D01*
X134952138Y-120410967D01*
X134999757Y-120309777D01*
X135004316Y-120296959D01*
X135419219Y-120296959D01*
X135419219Y-120487435D01*
X135421140Y-120506944D01*
X135436072Y-120542992D01*
X135463662Y-120570582D01*
X135499710Y-120585514D01*
X135538728Y-120585514D01*
X135574776Y-120570582D01*
X135602366Y-120542992D01*
X135617298Y-120506944D01*
X135619219Y-120487435D01*
X135619219Y-120319312D01*
X135651170Y-120251414D01*
X135683385Y-120215172D01*
X135807099Y-120117231D01*
X135807743Y-120116989D01*
X135803120Y-120129991D01*
X135803007Y-120132382D01*
X135802092Y-120134592D01*
X135800171Y-120154101D01*
X135800171Y-120344578D01*
X135802092Y-120364087D01*
X135803972Y-120368627D01*
X135804450Y-120373519D01*
X135811936Y-120391637D01*
X135859555Y-120480922D01*
X135867643Y-120493052D01*
X135868522Y-120494828D01*
X135869578Y-120495953D01*
X135870431Y-120497232D01*
X135871955Y-120498485D01*
X135881939Y-120509120D01*
X135929558Y-120550787D01*
X135941214Y-120559121D01*
X135942705Y-120560514D01*
X135944168Y-120561233D01*
X135945505Y-120562189D01*
X135947449Y-120562846D01*
X135960297Y-120569163D01*
X136055535Y-120604877D01*
X136074476Y-120609928D01*
X136079045Y-120609772D01*
X136083454Y-120610985D01*
X136103051Y-120610472D01*
X136341146Y-120580710D01*
X136360266Y-120576384D01*
X136362099Y-120575341D01*
X136364180Y-120574993D01*
X136381741Y-120566282D01*
X136476980Y-120506759D01*
X136482213Y-120502724D01*
X136484324Y-120501701D01*
X136488265Y-120498058D01*
X136492505Y-120494790D01*
X136493863Y-120492884D01*
X136498721Y-120488396D01*
X136546340Y-120434824D01*
X136550287Y-120429392D01*
X136552037Y-120427801D01*
X136554754Y-120423247D01*
X136557866Y-120418966D01*
X136558639Y-120416735D01*
X136562082Y-120410967D01*
X136609701Y-120309777D01*
X136616270Y-120291306D01*
X136616382Y-120288915D01*
X136617298Y-120286706D01*
X136619219Y-120267197D01*
X136619219Y-120076721D01*
X136617298Y-120057212D01*
X136615417Y-120052671D01*
X136614940Y-120047780D01*
X136607455Y-120029663D01*
X136559835Y-119940376D01*
X136551740Y-119928235D01*
X136550867Y-119926470D01*
X136549817Y-119925351D01*
X136548960Y-119924066D01*
X136547427Y-119922806D01*
X136537450Y-119912177D01*
X136489830Y-119870510D01*
X136478176Y-119862178D01*
X136476684Y-119860784D01*
X136475217Y-119860062D01*
X136473883Y-119859109D01*
X136471941Y-119858452D01*
X136459092Y-119852135D01*
X136363854Y-119816421D01*
X136344913Y-119811370D01*
X136340343Y-119811525D01*
X136335935Y-119810313D01*
X136316339Y-119810826D01*
X135935387Y-119858445D01*
X135932804Y-119859029D01*
X135931619Y-119858989D01*
X135923988Y-119861023D01*
X135916266Y-119862771D01*
X135915232Y-119863358D01*
X135912678Y-119864040D01*
X135722202Y-119935468D01*
X135714247Y-119939378D01*
X135711731Y-119940094D01*
X135708283Y-119942310D01*
X135704610Y-119944117D01*
X135702699Y-119945901D01*
X135695243Y-119950697D01*
X135552386Y-120063793D01*
X135546130Y-120069831D01*
X135539716Y-120075760D01*
X135492097Y-120129331D01*
X135488148Y-120134763D01*
X135486401Y-120136354D01*
X135483685Y-120140905D01*
X135480572Y-120145189D01*
X135479798Y-120147419D01*
X135476356Y-120153188D01*
X135428737Y-120254380D01*
X135422168Y-120272850D01*
X135422055Y-120275240D01*
X135421140Y-120277450D01*
X135419219Y-120296959D01*
X135004316Y-120296959D01*
X135006326Y-120291306D01*
X135006438Y-120288915D01*
X135007354Y-120286706D01*
X135009275Y-120267197D01*
X135009275Y-119981482D01*
X135007354Y-119961973D01*
X135005473Y-119957432D01*
X135004996Y-119952541D01*
X134997510Y-119934423D01*
X134949891Y-119845138D01*
X134941798Y-119833002D01*
X134940923Y-119831232D01*
X134939870Y-119830110D01*
X134939015Y-119828828D01*
X134937487Y-119827571D01*
X134927506Y-119816939D01*
X134879886Y-119775272D01*
X134863939Y-119763871D01*
X134826977Y-119751371D01*
X134788045Y-119753967D01*
X134753070Y-119771263D01*
X134727377Y-119800627D01*
X134714877Y-119837589D01*
X134717473Y-119876521D01*
X134734769Y-119911496D01*
X134748186Y-119925788D01*
X134782033Y-119955404D01*
X134809275Y-120006481D01*
X134809275Y-120244842D01*
X134777322Y-120312741D01*
X134748843Y-120344779D01*
X134684506Y-120384990D01*
X134492745Y-120408960D01*
X134437618Y-120388287D01*
X134417468Y-120370656D01*
X134390227Y-120319578D01*
X134390227Y-120201721D01*
X134388306Y-120182212D01*
X134373374Y-120146164D01*
X134345784Y-120118574D01*
X134309736Y-120103642D01*
X134270718Y-120103642D01*
X134247511Y-120113255D01*
X134234669Y-120118574D01*
X134219516Y-120131011D01*
X134009275Y-120341251D01*
X134009275Y-119963625D01*
X134007354Y-119944116D01*
X133992422Y-119908068D01*
X133964832Y-119880478D01*
X133928784Y-119865546D01*
X133889766Y-119865546D01*
X133853718Y-119880478D01*
X133826128Y-119908068D01*
X133811196Y-119944116D01*
X133809275Y-119963625D01*
X133698164Y-119963625D01*
X133698164Y-119058863D01*
X133809275Y-119058863D01*
X133809275Y-119439816D01*
X133811196Y-119459325D01*
X133813076Y-119463865D01*
X133813554Y-119468757D01*
X133821040Y-119486875D01*
X133868659Y-119576160D01*
X133876747Y-119588290D01*
X133877626Y-119590066D01*
X133878682Y-119591191D01*
X133879535Y-119592470D01*
X133881059Y-119593723D01*
X133891043Y-119604358D01*
X133938662Y-119646025D01*
X133950318Y-119654359D01*
X133951809Y-119655752D01*
X133953272Y-119656471D01*
X133954609Y-119657427D01*
X133956553Y-119658084D01*
X133969401Y-119664401D01*
X134064639Y-119700115D01*
X134083580Y-119705166D01*
X134088149Y-119705010D01*
X134092558Y-119706223D01*
X134112154Y-119705710D01*
X134255012Y-119687853D01*
X134274132Y-119683527D01*
X134275965Y-119682484D01*
X134278046Y-119682136D01*
X134295608Y-119673425D01*
X134390846Y-119613901D01*
X134396079Y-119609866D01*
X134398190Y-119608843D01*
X134402131Y-119605200D01*
X134406371Y-119601932D01*
X134407729Y-119600027D01*
X134412587Y-119595538D01*
X134460206Y-119541966D01*
X134464153Y-119536535D01*
X134465902Y-119534944D01*
X134468618Y-119530390D01*
X134471731Y-119526109D01*
X134472504Y-119523878D01*
X134475947Y-119518110D01*
X134523566Y-119416920D01*
X134530135Y-119398449D01*
X134530247Y-119396058D01*
X134531163Y-119393849D01*
X134533084Y-119374340D01*
X134533084Y-119201720D01*
X135419219Y-119201720D01*
X135419219Y-119439816D01*
X135421140Y-119459325D01*
X135423020Y-119463865D01*
X135423498Y-119468757D01*
X135430984Y-119486875D01*
X135478603Y-119576160D01*
X135486691Y-119588290D01*
X135487570Y-119590066D01*
X135488626Y-119591191D01*
X135489479Y-119592470D01*
X135491003Y-119593723D01*
X135500987Y-119604358D01*
X135548606Y-119646025D01*
X135560262Y-119654359D01*
X135561753Y-119655752D01*
X135563216Y-119656471D01*
X135564553Y-119657427D01*
X135566497Y-119658084D01*
X135579345Y-119664401D01*
X135674583Y-119700115D01*
X135693524Y-119705166D01*
X135698092Y-119705010D01*
X135702501Y-119706223D01*
X135722098Y-119705710D01*
X135817336Y-119693806D01*
X135825483Y-119691962D01*
X135828064Y-119691867D01*
X135832197Y-119690443D01*
X135836456Y-119689480D01*
X135838698Y-119688204D01*
X135846599Y-119685484D01*
X135989456Y-119620007D01*
X136006391Y-119610132D01*
X136007142Y-119609322D01*
X136008134Y-119608842D01*
X136022531Y-119595537D01*
X136419219Y-119149263D01*
X136419219Y-119505292D01*
X136421140Y-119524801D01*
X136436072Y-119560849D01*
X136463662Y-119588439D01*
X136499710Y-119603371D01*
X136538728Y-119603371D01*
X136574776Y-119588439D01*
X136602366Y-119560849D01*
X136617298Y-119524801D01*
X136619219Y-119505292D01*
X136619219Y-118886244D01*
X136617298Y-118866735D01*
X136616157Y-118863982D01*
X136615983Y-118861009D01*
X136608728Y-118846047D01*
X136602366Y-118830687D01*
X136600259Y-118828580D01*
X136598960Y-118825900D01*
X136586530Y-118814851D01*
X136574776Y-118803097D01*
X136572024Y-118801957D01*
X136569798Y-118799978D01*
X136554090Y-118794528D01*
X136538728Y-118788165D01*
X136535748Y-118788165D01*
X136532935Y-118787189D01*
X136516341Y-118788165D01*
X136499710Y-118788165D01*
X136496957Y-118789305D01*
X136493984Y-118789480D01*
X136479022Y-118796734D01*
X136463662Y-118803097D01*
X136461555Y-118805203D01*
X136458875Y-118806503D01*
X136444478Y-118819808D01*
X135887014Y-119446953D01*
X135777259Y-119497258D01*
X135721738Y-119504198D01*
X135666610Y-119483525D01*
X135646460Y-119465894D01*
X135619219Y-119414816D01*
X135619219Y-119224074D01*
X135651171Y-119156175D01*
X135689198Y-119113395D01*
X135700723Y-119097538D01*
X135713512Y-119060675D01*
X135711221Y-119021724D01*
X135694199Y-118986615D01*
X135665036Y-118960693D01*
X135628174Y-118947904D01*
X135589223Y-118950195D01*
X135554113Y-118967217D01*
X135539716Y-118980522D01*
X135492097Y-119034093D01*
X135488148Y-119039525D01*
X135486401Y-119041116D01*
X135483685Y-119045667D01*
X135480572Y-119049951D01*
X135479798Y-119052181D01*
X135476356Y-119057950D01*
X135428737Y-119159140D01*
X135422168Y-119177610D01*
X135422055Y-119180001D01*
X135421140Y-119182211D01*
X135419219Y-119201720D01*
X134533084Y-119201720D01*
X134533084Y-119081665D01*
X134921678Y-119033091D01*
X134940798Y-119028765D01*
X134974716Y-119009477D01*
X134998671Y-118978678D01*
X135009016Y-118941056D01*
X135004177Y-118902339D01*
X134984889Y-118868422D01*
X134954090Y-118844467D01*
X134916468Y-118834122D01*
X134896871Y-118834635D01*
X133896872Y-118959635D01*
X133891793Y-118960784D01*
X133889766Y-118960784D01*
X133887325Y-118961794D01*
X133877751Y-118963961D01*
X133866097Y-118970587D01*
X133853718Y-118975716D01*
X133849284Y-118980149D01*
X133843834Y-118983249D01*
X133835605Y-118993828D01*
X133826128Y-119003306D01*
X133823728Y-119009098D01*
X133819879Y-119014048D01*
X133816325Y-119026969D01*
X133811196Y-119039354D01*
X133810233Y-119049124D01*
X133809534Y-119051670D01*
X133809785Y-119053680D01*
X133809275Y-119058863D01*
X133698164Y-119058863D01*
X133698164Y-118249340D01*
X133809275Y-118249340D01*
X133809275Y-118487435D01*
X133810380Y-118498658D01*
X133810231Y-118501230D01*
X133810911Y-118504051D01*
X133811196Y-118506944D01*
X133812182Y-118509325D01*
X133814825Y-118520287D01*
X133862444Y-118657192D01*
X133870668Y-118674987D01*
X133896613Y-118704129D01*
X133931736Y-118721124D01*
X133970689Y-118723384D01*
X134007541Y-118710566D01*
X134036683Y-118684620D01*
X134053678Y-118649498D01*
X134055938Y-118610545D01*
X134051344Y-118591488D01*
X134009275Y-118470539D01*
X134009275Y-118271693D01*
X134041226Y-118203795D01*
X134069702Y-118171759D01*
X134134044Y-118131545D01*
X134182946Y-118125432D01*
X134238073Y-118146105D01*
X134258222Y-118163736D01*
X134291616Y-118226349D01*
X134336256Y-118399327D01*
X134337239Y-118402015D01*
X134337363Y-118403281D01*
X134340323Y-118410447D01*
X134342991Y-118417738D01*
X134343756Y-118418754D01*
X134344849Y-118421399D01*
X134392468Y-118510684D01*
X134400556Y-118522814D01*
X134401435Y-118524590D01*
X134402491Y-118525715D01*
X134403344Y-118526994D01*
X134404868Y-118528247D01*
X134414852Y-118538882D01*
X134462471Y-118580549D01*
X134474127Y-118588883D01*
X134475618Y-118590276D01*
X134477081Y-118590995D01*
X134478418Y-118591951D01*
X134480362Y-118592608D01*
X134493210Y-118598925D01*
X134588448Y-118634639D01*
X134607389Y-118639690D01*
X134611958Y-118639534D01*
X134616367Y-118640747D01*
X134635964Y-118640234D01*
X134731202Y-118628329D01*
X134750322Y-118624003D01*
X134752155Y-118622960D01*
X134754236Y-118622612D01*
X134771797Y-118613901D01*
X134867036Y-118554378D01*
X134872269Y-118550343D01*
X134874380Y-118549320D01*
X134878321Y-118545677D01*
X134882561Y-118542409D01*
X134883919Y-118540503D01*
X134888777Y-118536015D01*
X134936396Y-118482443D01*
X134940343Y-118477011D01*
X134942093Y-118475420D01*
X134944810Y-118470866D01*
X134947922Y-118466585D01*
X134948695Y-118464354D01*
X134952138Y-118458586D01*
X134999757Y-118357396D01*
X135004316Y-118344578D01*
X135419219Y-118344578D01*
X135419219Y-118439816D01*
X135421140Y-118459325D01*
X135423020Y-118463865D01*
X135423498Y-118468757D01*
X135430984Y-118486875D01*
X135478603Y-118576160D01*
X135486691Y-118588290D01*
X135487570Y-118590066D01*
X135488626Y-118591191D01*
X135489479Y-118592470D01*
X135491003Y-118593723D01*
X135500987Y-118604358D01*
X135548606Y-118646025D01*
X135560262Y-118654359D01*
X135561753Y-118655752D01*
X135563216Y-118656471D01*
X135564553Y-118657427D01*
X135566497Y-118658084D01*
X135579345Y-118664401D01*
X135674583Y-118700115D01*
X135677137Y-118700796D01*
X135678171Y-118701384D01*
X135685895Y-118703131D01*
X135693524Y-118705166D01*
X135694708Y-118705125D01*
X135697291Y-118705710D01*
X135887767Y-118729520D01*
X135891464Y-118729616D01*
X135892978Y-118730033D01*
X135900171Y-118729844D01*
X135907364Y-118730033D01*
X135908877Y-118729616D01*
X135912575Y-118729520D01*
X136150670Y-118699758D01*
X136153252Y-118699173D01*
X136154437Y-118699214D01*
X136162068Y-118697179D01*
X136169790Y-118695432D01*
X136170822Y-118694844D01*
X136173379Y-118694163D01*
X136363855Y-118622734D01*
X136364063Y-118622631D01*
X136364180Y-118622612D01*
X136372770Y-118618350D01*
X136381447Y-118614085D01*
X136381534Y-118614003D01*
X136381741Y-118613901D01*
X136476980Y-118554378D01*
X136482213Y-118550343D01*
X136484324Y-118549320D01*
X136488265Y-118545677D01*
X136492505Y-118542409D01*
X136493863Y-118540503D01*
X136498721Y-118536015D01*
X136546340Y-118482443D01*
X136550287Y-118477011D01*
X136552037Y-118475420D01*
X136554754Y-118470866D01*
X136557866Y-118466585D01*
X136558639Y-118464354D01*
X136562082Y-118458586D01*
X136609701Y-118357396D01*
X136616270Y-118338925D01*
X136616382Y-118336534D01*
X136617298Y-118334325D01*
X136619219Y-118314816D01*
X136619219Y-118219578D01*
X136617298Y-118200069D01*
X136615417Y-118195528D01*
X136614940Y-118190637D01*
X136607455Y-118172520D01*
X136559835Y-118083233D01*
X136551740Y-118071092D01*
X136550867Y-118069327D01*
X136549817Y-118068208D01*
X136548960Y-118066923D01*
X136547427Y-118065663D01*
X136537450Y-118055034D01*
X136489830Y-118013367D01*
X136478176Y-118005035D01*
X136476684Y-118003641D01*
X136475217Y-118002919D01*
X136473883Y-118001966D01*
X136471941Y-118001309D01*
X136459092Y-117994992D01*
X136363854Y-117959278D01*
X136361297Y-117958596D01*
X136360265Y-117958009D01*
X136352547Y-117956262D01*
X136344913Y-117954227D01*
X136343727Y-117954267D01*
X136341145Y-117953683D01*
X136150670Y-117929873D01*
X136146972Y-117929776D01*
X136145459Y-117929360D01*
X136138266Y-117929548D01*
X136131073Y-117929360D01*
X136129559Y-117929776D01*
X136125863Y-117929873D01*
X135887767Y-117959635D01*
X135885184Y-117960219D01*
X135884000Y-117960179D01*
X135876371Y-117962213D01*
X135868647Y-117963961D01*
X135867613Y-117964548D01*
X135865059Y-117965230D01*
X135674582Y-118036659D01*
X135674370Y-118036762D01*
X135674256Y-118036782D01*
X135665670Y-118041040D01*
X135656990Y-118045308D01*
X135656904Y-118045388D01*
X135656695Y-118045492D01*
X135561457Y-118105016D01*
X135556222Y-118109051D01*
X135554113Y-118110074D01*
X135550175Y-118113713D01*
X135545931Y-118116985D01*
X135544570Y-118118892D01*
X135539716Y-118123379D01*
X135492097Y-118176950D01*
X135488148Y-118182382D01*
X135486401Y-118183973D01*
X135483685Y-118188524D01*
X135480572Y-118192808D01*
X135479798Y-118195038D01*
X135476356Y-118200807D01*
X135428737Y-118301999D01*
X135422168Y-118320469D01*
X135422055Y-118322859D01*
X135421140Y-118325069D01*
X135419219Y-118344578D01*
X135004316Y-118344578D01*
X135006326Y-118338925D01*
X135006438Y-118336534D01*
X135007354Y-118334325D01*
X135009275Y-118314816D01*
X135009275Y-118076720D01*
X135008169Y-118065496D01*
X135008319Y-118062925D01*
X135007638Y-118060103D01*
X135007354Y-118057211D01*
X135006367Y-118054829D01*
X135003725Y-118043868D01*
X134956106Y-117906964D01*
X134947882Y-117889169D01*
X134921936Y-117860027D01*
X134886814Y-117843032D01*
X134847861Y-117840772D01*
X134811009Y-117853590D01*
X134781867Y-117879536D01*
X134764872Y-117914658D01*
X134762612Y-117953611D01*
X134767206Y-117972668D01*
X134809275Y-118093615D01*
X134809275Y-118292461D01*
X134777322Y-118360360D01*
X134748843Y-118392398D01*
X134684506Y-118432609D01*
X134635602Y-118438722D01*
X134580475Y-118418049D01*
X134560325Y-118400418D01*
X134526932Y-118337806D01*
X134482293Y-118164828D01*
X134481309Y-118162139D01*
X134481186Y-118160875D01*
X134478224Y-118153707D01*
X134475558Y-118146418D01*
X134474793Y-118145402D01*
X134473701Y-118142758D01*
X134426081Y-118053471D01*
X134417989Y-118041336D01*
X134417114Y-118039565D01*
X134416061Y-118038443D01*
X134415206Y-118037161D01*
X134413677Y-118035903D01*
X134403697Y-118025273D01*
X134356078Y-117983606D01*
X134344421Y-117975271D01*
X134342931Y-117973879D01*
X134341467Y-117973159D01*
X134340131Y-117972204D01*
X134338186Y-117971546D01*
X134325339Y-117965230D01*
X134230101Y-117929516D01*
X134211160Y-117924465D01*
X134206590Y-117924620D01*
X134202182Y-117923408D01*
X134182585Y-117923921D01*
X134087347Y-117935826D01*
X134068227Y-117940152D01*
X134066391Y-117941195D01*
X134064312Y-117941544D01*
X134046751Y-117950254D01*
X133951513Y-118009778D01*
X133946278Y-118013813D01*
X133944169Y-118014836D01*
X133940231Y-118018475D01*
X133935987Y-118021747D01*
X133934626Y-118023654D01*
X133929772Y-118028141D01*
X133882153Y-118081712D01*
X133878204Y-118087144D01*
X133876457Y-118088735D01*
X133873741Y-118093286D01*
X133870628Y-118097570D01*
X133869854Y-118099800D01*
X133866412Y-118105569D01*
X133818793Y-118206761D01*
X133812224Y-118225231D01*
X133812111Y-118227621D01*
X133811196Y-118229831D01*
X133809275Y-118249340D01*
X133698164Y-118249340D01*
X133698164Y-117201720D01*
X133809275Y-117201720D01*
X133809275Y-117677911D01*
X133811196Y-117697420D01*
X133826128Y-117733468D01*
X133853718Y-117761058D01*
X133889766Y-117775990D01*
X133928784Y-117775990D01*
X133964832Y-117761058D01*
X133992422Y-117733468D01*
X134007354Y-117697420D01*
X134009275Y-117677911D01*
X134009275Y-117289998D01*
X134285465Y-117255474D01*
X134285465Y-117475530D01*
X134287386Y-117495039D01*
X134302318Y-117531087D01*
X134329908Y-117558677D01*
X134365956Y-117573609D01*
X134404974Y-117573609D01*
X134441022Y-117558677D01*
X134468612Y-117531087D01*
X134483544Y-117495039D01*
X134485465Y-117475530D01*
X134485465Y-117230474D01*
X134809275Y-117189998D01*
X134809275Y-117552911D01*
X134811196Y-117572420D01*
X134826128Y-117608468D01*
X134853718Y-117636058D01*
X134889766Y-117650990D01*
X134928784Y-117650990D01*
X134964832Y-117636058D01*
X134992422Y-117608468D01*
X135007354Y-117572420D01*
X135009275Y-117552911D01*
X135009275Y-117296958D01*
X135419219Y-117296958D01*
X135419219Y-117535054D01*
X135421140Y-117554563D01*
X135423020Y-117559103D01*
X135423498Y-117563995D01*
X135430984Y-117582113D01*
X135478603Y-117671398D01*
X135486691Y-117683528D01*
X135487570Y-117685304D01*
X135488626Y-117686429D01*
X135489479Y-117687708D01*
X135491003Y-117688961D01*
X135500987Y-117699596D01*
X135548606Y-117741263D01*
X135560262Y-117749597D01*
X135561753Y-117750990D01*
X135563216Y-117751709D01*
X135564553Y-117752665D01*
X135566497Y-117753322D01*
X135579345Y-117759639D01*
X135674583Y-117795353D01*
X135693524Y-117800404D01*
X135698092Y-117800248D01*
X135702501Y-117801461D01*
X135722098Y-117800948D01*
X135817336Y-117789044D01*
X135825483Y-117787200D01*
X135828064Y-117787105D01*
X135832197Y-117785681D01*
X135836456Y-117784718D01*
X135838698Y-117783442D01*
X135846599Y-117780722D01*
X135989456Y-117715245D01*
X136006391Y-117705370D01*
X136007142Y-117704560D01*
X136008134Y-117704080D01*
X136022531Y-117690775D01*
X136419219Y-117244501D01*
X136419219Y-117600530D01*
X136421140Y-117620039D01*
X136436072Y-117656087D01*
X136463662Y-117683677D01*
X136499710Y-117698609D01*
X136538728Y-117698609D01*
X136574776Y-117683677D01*
X136602366Y-117656087D01*
X136617298Y-117620039D01*
X136619219Y-117600530D01*
X136619219Y-116981482D01*
X136617298Y-116961973D01*
X136616157Y-116959220D01*
X136615983Y-116956247D01*
X136608728Y-116941285D01*
X136602366Y-116925925D01*
X136600259Y-116923818D01*
X136598960Y-116921138D01*
X136586530Y-116910089D01*
X136574776Y-116898335D01*
X136572024Y-116897195D01*
X136569798Y-116895216D01*
X136554090Y-116889766D01*
X136538728Y-116883403D01*
X136535748Y-116883403D01*
X136532935Y-116882427D01*
X136516341Y-116883403D01*
X136499710Y-116883403D01*
X136496957Y-116884543D01*
X136493984Y-116884718D01*
X136479022Y-116891972D01*
X136463662Y-116898335D01*
X136461555Y-116900441D01*
X136458875Y-116901741D01*
X136444478Y-116915046D01*
X135887014Y-117542191D01*
X135777259Y-117592496D01*
X135721738Y-117599436D01*
X135666610Y-117578763D01*
X135646460Y-117561132D01*
X135619219Y-117510054D01*
X135619219Y-117319312D01*
X135651171Y-117251413D01*
X135689198Y-117208633D01*
X135700723Y-117192776D01*
X135713512Y-117155913D01*
X135711221Y-117116962D01*
X135694199Y-117081853D01*
X135665036Y-117055931D01*
X135628174Y-117043142D01*
X135589223Y-117045433D01*
X135554113Y-117062455D01*
X135539716Y-117075760D01*
X135492097Y-117129331D01*
X135488148Y-117134763D01*
X135486401Y-117136354D01*
X135483685Y-117140905D01*
X135480572Y-117145189D01*
X135479798Y-117147419D01*
X135476356Y-117153188D01*
X135428737Y-117254378D01*
X135422168Y-117272848D01*
X135422055Y-117275239D01*
X135421140Y-117277449D01*
X135419219Y-117296958D01*
X135009275Y-117296958D01*
X135009275Y-117076720D01*
X135007354Y-117057211D01*
X135004954Y-117051418D01*
X135004177Y-117045196D01*
X134997550Y-117033542D01*
X134992422Y-117021163D01*
X134987988Y-117016729D01*
X134984889Y-117011279D01*
X134974309Y-117003050D01*
X134964832Y-116993573D01*
X134959039Y-116991173D01*
X134954090Y-116987324D01*
X134941168Y-116983770D01*
X134928784Y-116978641D01*
X134922512Y-116978641D01*
X134916468Y-116976979D01*
X134896871Y-116977492D01*
X133896872Y-117102492D01*
X133891793Y-117103641D01*
X133889766Y-117103641D01*
X133887325Y-117104651D01*
X133877751Y-117106818D01*
X133866097Y-117113444D01*
X133853718Y-117118573D01*
X133849284Y-117123006D01*
X133843834Y-117126106D01*
X133835605Y-117136685D01*
X133826128Y-117146163D01*
X133823728Y-117151955D01*
X133819879Y-117156905D01*
X133816325Y-117169826D01*
X133811196Y-117182211D01*
X133810233Y-117191981D01*
X133809534Y-117194527D01*
X133809785Y-117196537D01*
X133809275Y-117201720D01*
X133698164Y-117201720D01*
X133698164Y-116771316D01*
X137063663Y-116771316D01*
X137063663Y-136696625D01*
G37*
M02*
