%TF.GenerationSoftware,KiCad,Pcbnew,9.0.7*%
%TF.CreationDate,2026-05-29T22:26:38+09:00*%
%TF.ProjectId,ESP32-ROS-IO-V6.0,45535033-322d-4524-9f53-2d494f2d5636,rev?*%
%TF.SameCoordinates,Original*%
%TF.FileFunction,Drillmap*%
%TF.FilePolarity,Positive*%
%FSLAX45Y45*%
G04 Gerber Fmt 4.5, Leading zero omitted, Abs format (unit mm)*
G04 Created by KiCad (PCBNEW 9.0.7) date 2026-05-29 22:26:38*
%MOMM*%
%LPD*%
G01*
G04 APERTURE LIST*
%ADD10C,0.050000*%
%ADD11C,0.200000*%
%ADD12C,0.320000*%
G04 APERTURE END LIST*
D10*
X19500000Y-5600000D02*
X19500000Y-14900000D01*
X9800000Y-5200000D02*
X19100000Y-5200000D01*
X19100000Y-5200000D02*
G75*
G02*
X19500000Y-5600000I0J-400000D01*
G01*
X9500000Y-14900000D02*
X9500000Y-5500000D01*
X9800000Y-15200000D02*
G75*
G02*
X9500000Y-14900000I0J300000D01*
G01*
X19200000Y-15200000D02*
X9800000Y-15200000D01*
X9500000Y-5500000D02*
G75*
G02*
X9800000Y-5200000I300000J0D01*
G01*
X19500000Y-14900000D02*
G75*
G02*
X19200000Y-15200000I-300000J0D01*
G01*
D11*
D12*
X11940000Y-9840000D02*
X12260000Y-10160000D01*
X12260000Y-9840000D02*
X11940000Y-10160000D01*
X11940000Y-12840000D02*
X12260000Y-13160000D01*
X12260000Y-12840000D02*
X11940000Y-13160000D01*
X16540000Y-8840000D02*
X16860000Y-9160000D01*
X16860000Y-8840000D02*
X16540000Y-9160000D01*
X16540000Y-13040000D02*
X16860000Y-13360000D01*
X16860000Y-13040000D02*
X16540000Y-13360000D01*
D11*
X9758277Y-15513984D02*
X9758277Y-15313984D01*
X9758277Y-15313984D02*
X9805896Y-15313984D01*
X9805896Y-15313984D02*
X9834467Y-15323508D01*
X9834467Y-15323508D02*
X9853515Y-15342555D01*
X9853515Y-15342555D02*
X9863039Y-15361603D01*
X9863039Y-15361603D02*
X9872563Y-15399698D01*
X9872563Y-15399698D02*
X9872563Y-15428269D01*
X9872563Y-15428269D02*
X9863039Y-15466365D01*
X9863039Y-15466365D02*
X9853515Y-15485412D01*
X9853515Y-15485412D02*
X9834467Y-15504460D01*
X9834467Y-15504460D02*
X9805896Y-15513984D01*
X9805896Y-15513984D02*
X9758277Y-15513984D01*
X9958277Y-15513984D02*
X9958277Y-15380650D01*
X9958277Y-15418746D02*
X9967801Y-15399698D01*
X9967801Y-15399698D02*
X9977324Y-15390174D01*
X9977324Y-15390174D02*
X9996372Y-15380650D01*
X9996372Y-15380650D02*
X10015420Y-15380650D01*
X10082086Y-15513984D02*
X10082086Y-15380650D01*
X10082086Y-15313984D02*
X10072563Y-15323508D01*
X10072563Y-15323508D02*
X10082086Y-15333031D01*
X10082086Y-15333031D02*
X10091610Y-15323508D01*
X10091610Y-15323508D02*
X10082086Y-15313984D01*
X10082086Y-15313984D02*
X10082086Y-15333031D01*
X10205896Y-15513984D02*
X10186848Y-15504460D01*
X10186848Y-15504460D02*
X10177324Y-15485412D01*
X10177324Y-15485412D02*
X10177324Y-15313984D01*
X10310658Y-15513984D02*
X10291610Y-15504460D01*
X10291610Y-15504460D02*
X10282086Y-15485412D01*
X10282086Y-15485412D02*
X10282086Y-15313984D01*
X10539229Y-15513984D02*
X10539229Y-15313984D01*
X10539229Y-15313984D02*
X10605896Y-15456841D01*
X10605896Y-15456841D02*
X10672563Y-15313984D01*
X10672563Y-15313984D02*
X10672563Y-15513984D01*
X10853515Y-15513984D02*
X10853515Y-15409222D01*
X10853515Y-15409222D02*
X10843991Y-15390174D01*
X10843991Y-15390174D02*
X10824944Y-15380650D01*
X10824944Y-15380650D02*
X10786848Y-15380650D01*
X10786848Y-15380650D02*
X10767801Y-15390174D01*
X10853515Y-15504460D02*
X10834467Y-15513984D01*
X10834467Y-15513984D02*
X10786848Y-15513984D01*
X10786848Y-15513984D02*
X10767801Y-15504460D01*
X10767801Y-15504460D02*
X10758277Y-15485412D01*
X10758277Y-15485412D02*
X10758277Y-15466365D01*
X10758277Y-15466365D02*
X10767801Y-15447317D01*
X10767801Y-15447317D02*
X10786848Y-15437793D01*
X10786848Y-15437793D02*
X10834467Y-15437793D01*
X10834467Y-15437793D02*
X10853515Y-15428269D01*
X10948753Y-15380650D02*
X10948753Y-15580650D01*
X10948753Y-15390174D02*
X10967801Y-15380650D01*
X10967801Y-15380650D02*
X11005896Y-15380650D01*
X11005896Y-15380650D02*
X11024944Y-15390174D01*
X11024944Y-15390174D02*
X11034467Y-15399698D01*
X11034467Y-15399698D02*
X11043991Y-15418746D01*
X11043991Y-15418746D02*
X11043991Y-15475888D01*
X11043991Y-15475888D02*
X11034467Y-15494936D01*
X11034467Y-15494936D02*
X11024944Y-15504460D01*
X11024944Y-15504460D02*
X11005896Y-15513984D01*
X11005896Y-15513984D02*
X10967801Y-15513984D01*
X10967801Y-15513984D02*
X10948753Y-15504460D01*
X11129705Y-15494936D02*
X11139229Y-15504460D01*
X11139229Y-15504460D02*
X11129705Y-15513984D01*
X11129705Y-15513984D02*
X11120182Y-15504460D01*
X11120182Y-15504460D02*
X11129705Y-15494936D01*
X11129705Y-15494936D02*
X11129705Y-15513984D01*
X11129705Y-15390174D02*
X11139229Y-15399698D01*
X11139229Y-15399698D02*
X11129705Y-15409222D01*
X11129705Y-15409222D02*
X11120182Y-15399698D01*
X11120182Y-15399698D02*
X11129705Y-15390174D01*
X11129705Y-15390174D02*
X11129705Y-15409222D01*
X9297500Y-15742500D02*
X9497500Y-15942500D01*
X9497500Y-15742500D02*
X9297500Y-15942500D01*
X9739229Y-15733984D02*
X9863039Y-15733984D01*
X9863039Y-15733984D02*
X9796372Y-15810174D01*
X9796372Y-15810174D02*
X9824944Y-15810174D01*
X9824944Y-15810174D02*
X9843991Y-15819698D01*
X9843991Y-15819698D02*
X9853515Y-15829222D01*
X9853515Y-15829222D02*
X9863039Y-15848269D01*
X9863039Y-15848269D02*
X9863039Y-15895888D01*
X9863039Y-15895888D02*
X9853515Y-15914936D01*
X9853515Y-15914936D02*
X9843991Y-15924460D01*
X9843991Y-15924460D02*
X9824944Y-15933984D01*
X9824944Y-15933984D02*
X9767801Y-15933984D01*
X9767801Y-15933984D02*
X9748753Y-15924460D01*
X9748753Y-15924460D02*
X9739229Y-15914936D01*
X9948753Y-15914936D02*
X9958277Y-15924460D01*
X9958277Y-15924460D02*
X9948753Y-15933984D01*
X9948753Y-15933984D02*
X9939229Y-15924460D01*
X9939229Y-15924460D02*
X9948753Y-15914936D01*
X9948753Y-15914936D02*
X9948753Y-15933984D01*
X10034467Y-15753031D02*
X10043991Y-15743508D01*
X10043991Y-15743508D02*
X10063039Y-15733984D01*
X10063039Y-15733984D02*
X10110658Y-15733984D01*
X10110658Y-15733984D02*
X10129705Y-15743508D01*
X10129705Y-15743508D02*
X10139229Y-15753031D01*
X10139229Y-15753031D02*
X10148753Y-15772079D01*
X10148753Y-15772079D02*
X10148753Y-15791127D01*
X10148753Y-15791127D02*
X10139229Y-15819698D01*
X10139229Y-15819698D02*
X10024944Y-15933984D01*
X10024944Y-15933984D02*
X10148753Y-15933984D01*
X10272563Y-15733984D02*
X10291610Y-15733984D01*
X10291610Y-15733984D02*
X10310658Y-15743508D01*
X10310658Y-15743508D02*
X10320182Y-15753031D01*
X10320182Y-15753031D02*
X10329705Y-15772079D01*
X10329705Y-15772079D02*
X10339229Y-15810174D01*
X10339229Y-15810174D02*
X10339229Y-15857793D01*
X10339229Y-15857793D02*
X10329705Y-15895888D01*
X10329705Y-15895888D02*
X10320182Y-15914936D01*
X10320182Y-15914936D02*
X10310658Y-15924460D01*
X10310658Y-15924460D02*
X10291610Y-15933984D01*
X10291610Y-15933984D02*
X10272563Y-15933984D01*
X10272563Y-15933984D02*
X10253515Y-15924460D01*
X10253515Y-15924460D02*
X10243991Y-15914936D01*
X10243991Y-15914936D02*
X10234467Y-15895888D01*
X10234467Y-15895888D02*
X10224944Y-15857793D01*
X10224944Y-15857793D02*
X10224944Y-15810174D01*
X10224944Y-15810174D02*
X10234467Y-15772079D01*
X10234467Y-15772079D02*
X10243991Y-15753031D01*
X10243991Y-15753031D02*
X10253515Y-15743508D01*
X10253515Y-15743508D02*
X10272563Y-15733984D01*
X10463039Y-15733984D02*
X10482086Y-15733984D01*
X10482086Y-15733984D02*
X10501134Y-15743508D01*
X10501134Y-15743508D02*
X10510658Y-15753031D01*
X10510658Y-15753031D02*
X10520182Y-15772079D01*
X10520182Y-15772079D02*
X10529705Y-15810174D01*
X10529705Y-15810174D02*
X10529705Y-15857793D01*
X10529705Y-15857793D02*
X10520182Y-15895888D01*
X10520182Y-15895888D02*
X10510658Y-15914936D01*
X10510658Y-15914936D02*
X10501134Y-15924460D01*
X10501134Y-15924460D02*
X10482086Y-15933984D01*
X10482086Y-15933984D02*
X10463039Y-15933984D01*
X10463039Y-15933984D02*
X10443991Y-15924460D01*
X10443991Y-15924460D02*
X10434467Y-15914936D01*
X10434467Y-15914936D02*
X10424944Y-15895888D01*
X10424944Y-15895888D02*
X10415420Y-15857793D01*
X10415420Y-15857793D02*
X10415420Y-15810174D01*
X10415420Y-15810174D02*
X10424944Y-15772079D01*
X10424944Y-15772079D02*
X10434467Y-15753031D01*
X10434467Y-15753031D02*
X10443991Y-15743508D01*
X10443991Y-15743508D02*
X10463039Y-15733984D01*
X10615420Y-15933984D02*
X10615420Y-15800650D01*
X10615420Y-15819698D02*
X10624944Y-15810174D01*
X10624944Y-15810174D02*
X10643991Y-15800650D01*
X10643991Y-15800650D02*
X10672563Y-15800650D01*
X10672563Y-15800650D02*
X10691610Y-15810174D01*
X10691610Y-15810174D02*
X10701134Y-15829222D01*
X10701134Y-15829222D02*
X10701134Y-15933984D01*
X10701134Y-15829222D02*
X10710658Y-15810174D01*
X10710658Y-15810174D02*
X10729705Y-15800650D01*
X10729705Y-15800650D02*
X10758277Y-15800650D01*
X10758277Y-15800650D02*
X10777325Y-15810174D01*
X10777325Y-15810174D02*
X10786848Y-15829222D01*
X10786848Y-15829222D02*
X10786848Y-15933984D01*
X10882086Y-15933984D02*
X10882086Y-15800650D01*
X10882086Y-15819698D02*
X10891610Y-15810174D01*
X10891610Y-15810174D02*
X10910658Y-15800650D01*
X10910658Y-15800650D02*
X10939229Y-15800650D01*
X10939229Y-15800650D02*
X10958277Y-15810174D01*
X10958277Y-15810174D02*
X10967801Y-15829222D01*
X10967801Y-15829222D02*
X10967801Y-15933984D01*
X10967801Y-15829222D02*
X10977325Y-15810174D01*
X10977325Y-15810174D02*
X10996372Y-15800650D01*
X10996372Y-15800650D02*
X11024944Y-15800650D01*
X11024944Y-15800650D02*
X11043991Y-15810174D01*
X11043991Y-15810174D02*
X11053515Y-15829222D01*
X11053515Y-15829222D02*
X11053515Y-15933984D01*
X11443991Y-15724460D02*
X11272563Y-15981603D01*
X11701134Y-15733984D02*
X11720182Y-15733984D01*
X11720182Y-15733984D02*
X11739229Y-15743508D01*
X11739229Y-15743508D02*
X11748753Y-15753031D01*
X11748753Y-15753031D02*
X11758277Y-15772079D01*
X11758277Y-15772079D02*
X11767801Y-15810174D01*
X11767801Y-15810174D02*
X11767801Y-15857793D01*
X11767801Y-15857793D02*
X11758277Y-15895888D01*
X11758277Y-15895888D02*
X11748753Y-15914936D01*
X11748753Y-15914936D02*
X11739229Y-15924460D01*
X11739229Y-15924460D02*
X11720182Y-15933984D01*
X11720182Y-15933984D02*
X11701134Y-15933984D01*
X11701134Y-15933984D02*
X11682086Y-15924460D01*
X11682086Y-15924460D02*
X11672563Y-15914936D01*
X11672563Y-15914936D02*
X11663039Y-15895888D01*
X11663039Y-15895888D02*
X11653515Y-15857793D01*
X11653515Y-15857793D02*
X11653515Y-15810174D01*
X11653515Y-15810174D02*
X11663039Y-15772079D01*
X11663039Y-15772079D02*
X11672563Y-15753031D01*
X11672563Y-15753031D02*
X11682086Y-15743508D01*
X11682086Y-15743508D02*
X11701134Y-15733984D01*
X11853515Y-15914936D02*
X11863039Y-15924460D01*
X11863039Y-15924460D02*
X11853515Y-15933984D01*
X11853515Y-15933984D02*
X11843991Y-15924460D01*
X11843991Y-15924460D02*
X11853515Y-15914936D01*
X11853515Y-15914936D02*
X11853515Y-15933984D01*
X12053515Y-15933984D02*
X11939229Y-15933984D01*
X11996372Y-15933984D02*
X11996372Y-15733984D01*
X11996372Y-15733984D02*
X11977325Y-15762555D01*
X11977325Y-15762555D02*
X11958277Y-15781603D01*
X11958277Y-15781603D02*
X11939229Y-15791127D01*
X12129706Y-15753031D02*
X12139229Y-15743508D01*
X12139229Y-15743508D02*
X12158277Y-15733984D01*
X12158277Y-15733984D02*
X12205896Y-15733984D01*
X12205896Y-15733984D02*
X12224944Y-15743508D01*
X12224944Y-15743508D02*
X12234467Y-15753031D01*
X12234467Y-15753031D02*
X12243991Y-15772079D01*
X12243991Y-15772079D02*
X12243991Y-15791127D01*
X12243991Y-15791127D02*
X12234467Y-15819698D01*
X12234467Y-15819698D02*
X12120182Y-15933984D01*
X12120182Y-15933984D02*
X12243991Y-15933984D01*
X12415420Y-15733984D02*
X12377325Y-15733984D01*
X12377325Y-15733984D02*
X12358277Y-15743508D01*
X12358277Y-15743508D02*
X12348753Y-15753031D01*
X12348753Y-15753031D02*
X12329706Y-15781603D01*
X12329706Y-15781603D02*
X12320182Y-15819698D01*
X12320182Y-15819698D02*
X12320182Y-15895888D01*
X12320182Y-15895888D02*
X12329706Y-15914936D01*
X12329706Y-15914936D02*
X12339229Y-15924460D01*
X12339229Y-15924460D02*
X12358277Y-15933984D01*
X12358277Y-15933984D02*
X12396372Y-15933984D01*
X12396372Y-15933984D02*
X12415420Y-15924460D01*
X12415420Y-15924460D02*
X12424944Y-15914936D01*
X12424944Y-15914936D02*
X12434467Y-15895888D01*
X12434467Y-15895888D02*
X12434467Y-15848269D01*
X12434467Y-15848269D02*
X12424944Y-15829222D01*
X12424944Y-15829222D02*
X12415420Y-15819698D01*
X12415420Y-15819698D02*
X12396372Y-15810174D01*
X12396372Y-15810174D02*
X12358277Y-15810174D01*
X12358277Y-15810174D02*
X12339229Y-15819698D01*
X12339229Y-15819698D02*
X12329706Y-15829222D01*
X12329706Y-15829222D02*
X12320182Y-15848269D01*
X12558277Y-15733984D02*
X12577325Y-15733984D01*
X12577325Y-15733984D02*
X12596372Y-15743508D01*
X12596372Y-15743508D02*
X12605896Y-15753031D01*
X12605896Y-15753031D02*
X12615420Y-15772079D01*
X12615420Y-15772079D02*
X12624944Y-15810174D01*
X12624944Y-15810174D02*
X12624944Y-15857793D01*
X12624944Y-15857793D02*
X12615420Y-15895888D01*
X12615420Y-15895888D02*
X12605896Y-15914936D01*
X12605896Y-15914936D02*
X12596372Y-15924460D01*
X12596372Y-15924460D02*
X12577325Y-15933984D01*
X12577325Y-15933984D02*
X12558277Y-15933984D01*
X12558277Y-15933984D02*
X12539229Y-15924460D01*
X12539229Y-15924460D02*
X12529706Y-15914936D01*
X12529706Y-15914936D02*
X12520182Y-15895888D01*
X12520182Y-15895888D02*
X12510658Y-15857793D01*
X12510658Y-15857793D02*
X12510658Y-15810174D01*
X12510658Y-15810174D02*
X12520182Y-15772079D01*
X12520182Y-15772079D02*
X12529706Y-15753031D01*
X12529706Y-15753031D02*
X12539229Y-15743508D01*
X12539229Y-15743508D02*
X12558277Y-15733984D01*
X12701134Y-15733984D02*
X12701134Y-15772079D01*
X12777325Y-15733984D02*
X12777325Y-15772079D01*
X13072563Y-16010174D02*
X13063039Y-16000650D01*
X13063039Y-16000650D02*
X13043991Y-15972079D01*
X13043991Y-15972079D02*
X13034468Y-15953031D01*
X13034468Y-15953031D02*
X13024944Y-15924460D01*
X13024944Y-15924460D02*
X13015420Y-15876841D01*
X13015420Y-15876841D02*
X13015420Y-15838746D01*
X13015420Y-15838746D02*
X13024944Y-15791127D01*
X13024944Y-15791127D02*
X13034468Y-15762555D01*
X13034468Y-15762555D02*
X13043991Y-15743508D01*
X13043991Y-15743508D02*
X13063039Y-15714936D01*
X13063039Y-15714936D02*
X13072563Y-15705412D01*
X13234468Y-15800650D02*
X13234468Y-15933984D01*
X13186848Y-15724460D02*
X13139229Y-15867317D01*
X13139229Y-15867317D02*
X13263039Y-15867317D01*
X13491610Y-15933984D02*
X13491610Y-15733984D01*
X13577325Y-15933984D02*
X13577325Y-15829222D01*
X13577325Y-15829222D02*
X13567801Y-15810174D01*
X13567801Y-15810174D02*
X13548753Y-15800650D01*
X13548753Y-15800650D02*
X13520182Y-15800650D01*
X13520182Y-15800650D02*
X13501134Y-15810174D01*
X13501134Y-15810174D02*
X13491610Y-15819698D01*
X13701134Y-15933984D02*
X13682087Y-15924460D01*
X13682087Y-15924460D02*
X13672563Y-15914936D01*
X13672563Y-15914936D02*
X13663039Y-15895888D01*
X13663039Y-15895888D02*
X13663039Y-15838746D01*
X13663039Y-15838746D02*
X13672563Y-15819698D01*
X13672563Y-15819698D02*
X13682087Y-15810174D01*
X13682087Y-15810174D02*
X13701134Y-15800650D01*
X13701134Y-15800650D02*
X13729706Y-15800650D01*
X13729706Y-15800650D02*
X13748753Y-15810174D01*
X13748753Y-15810174D02*
X13758277Y-15819698D01*
X13758277Y-15819698D02*
X13767801Y-15838746D01*
X13767801Y-15838746D02*
X13767801Y-15895888D01*
X13767801Y-15895888D02*
X13758277Y-15914936D01*
X13758277Y-15914936D02*
X13748753Y-15924460D01*
X13748753Y-15924460D02*
X13729706Y-15933984D01*
X13729706Y-15933984D02*
X13701134Y-15933984D01*
X13882087Y-15933984D02*
X13863039Y-15924460D01*
X13863039Y-15924460D02*
X13853515Y-15905412D01*
X13853515Y-15905412D02*
X13853515Y-15733984D01*
X14034468Y-15924460D02*
X14015420Y-15933984D01*
X14015420Y-15933984D02*
X13977325Y-15933984D01*
X13977325Y-15933984D02*
X13958277Y-15924460D01*
X13958277Y-15924460D02*
X13948753Y-15905412D01*
X13948753Y-15905412D02*
X13948753Y-15829222D01*
X13948753Y-15829222D02*
X13958277Y-15810174D01*
X13958277Y-15810174D02*
X13977325Y-15800650D01*
X13977325Y-15800650D02*
X14015420Y-15800650D01*
X14015420Y-15800650D02*
X14034468Y-15810174D01*
X14034468Y-15810174D02*
X14043991Y-15829222D01*
X14043991Y-15829222D02*
X14043991Y-15848269D01*
X14043991Y-15848269D02*
X13948753Y-15867317D01*
X14120182Y-15924460D02*
X14139230Y-15933984D01*
X14139230Y-15933984D02*
X14177325Y-15933984D01*
X14177325Y-15933984D02*
X14196372Y-15924460D01*
X14196372Y-15924460D02*
X14205896Y-15905412D01*
X14205896Y-15905412D02*
X14205896Y-15895888D01*
X14205896Y-15895888D02*
X14196372Y-15876841D01*
X14196372Y-15876841D02*
X14177325Y-15867317D01*
X14177325Y-15867317D02*
X14148753Y-15867317D01*
X14148753Y-15867317D02*
X14129706Y-15857793D01*
X14129706Y-15857793D02*
X14120182Y-15838746D01*
X14120182Y-15838746D02*
X14120182Y-15829222D01*
X14120182Y-15829222D02*
X14129706Y-15810174D01*
X14129706Y-15810174D02*
X14148753Y-15800650D01*
X14148753Y-15800650D02*
X14177325Y-15800650D01*
X14177325Y-15800650D02*
X14196372Y-15810174D01*
X14272563Y-16010174D02*
X14282087Y-16000650D01*
X14282087Y-16000650D02*
X14301134Y-15972079D01*
X14301134Y-15972079D02*
X14310658Y-15953031D01*
X14310658Y-15953031D02*
X14320182Y-15924460D01*
X14320182Y-15924460D02*
X14329706Y-15876841D01*
X14329706Y-15876841D02*
X14329706Y-15838746D01*
X14329706Y-15838746D02*
X14320182Y-15791127D01*
X14320182Y-15791127D02*
X14310658Y-15762555D01*
X14310658Y-15762555D02*
X14301134Y-15743508D01*
X14301134Y-15743508D02*
X14282087Y-15714936D01*
X14282087Y-15714936D02*
X14272563Y-15705412D01*
X14634468Y-16010174D02*
X14624944Y-16000650D01*
X14624944Y-16000650D02*
X14605896Y-15972079D01*
X14605896Y-15972079D02*
X14596372Y-15953031D01*
X14596372Y-15953031D02*
X14586849Y-15924460D01*
X14586849Y-15924460D02*
X14577325Y-15876841D01*
X14577325Y-15876841D02*
X14577325Y-15838746D01*
X14577325Y-15838746D02*
X14586849Y-15791127D01*
X14586849Y-15791127D02*
X14596372Y-15762555D01*
X14596372Y-15762555D02*
X14605896Y-15743508D01*
X14605896Y-15743508D02*
X14624944Y-15714936D01*
X14624944Y-15714936D02*
X14634468Y-15705412D01*
X14710658Y-15800650D02*
X14710658Y-15933984D01*
X14710658Y-15819698D02*
X14720182Y-15810174D01*
X14720182Y-15810174D02*
X14739230Y-15800650D01*
X14739230Y-15800650D02*
X14767801Y-15800650D01*
X14767801Y-15800650D02*
X14786849Y-15810174D01*
X14786849Y-15810174D02*
X14796372Y-15829222D01*
X14796372Y-15829222D02*
X14796372Y-15933984D01*
X14920182Y-15933984D02*
X14901134Y-15924460D01*
X14901134Y-15924460D02*
X14891611Y-15914936D01*
X14891611Y-15914936D02*
X14882087Y-15895888D01*
X14882087Y-15895888D02*
X14882087Y-15838746D01*
X14882087Y-15838746D02*
X14891611Y-15819698D01*
X14891611Y-15819698D02*
X14901134Y-15810174D01*
X14901134Y-15810174D02*
X14920182Y-15800650D01*
X14920182Y-15800650D02*
X14948753Y-15800650D01*
X14948753Y-15800650D02*
X14967801Y-15810174D01*
X14967801Y-15810174D02*
X14977325Y-15819698D01*
X14977325Y-15819698D02*
X14986849Y-15838746D01*
X14986849Y-15838746D02*
X14986849Y-15895888D01*
X14986849Y-15895888D02*
X14977325Y-15914936D01*
X14977325Y-15914936D02*
X14967801Y-15924460D01*
X14967801Y-15924460D02*
X14948753Y-15933984D01*
X14948753Y-15933984D02*
X14920182Y-15933984D01*
X15043992Y-15800650D02*
X15120182Y-15800650D01*
X15072563Y-15733984D02*
X15072563Y-15905412D01*
X15072563Y-15905412D02*
X15082087Y-15924460D01*
X15082087Y-15924460D02*
X15101134Y-15933984D01*
X15101134Y-15933984D02*
X15120182Y-15933984D01*
X15339230Y-15800650D02*
X15339230Y-16000650D01*
X15339230Y-15810174D02*
X15358277Y-15800650D01*
X15358277Y-15800650D02*
X15396373Y-15800650D01*
X15396373Y-15800650D02*
X15415420Y-15810174D01*
X15415420Y-15810174D02*
X15424944Y-15819698D01*
X15424944Y-15819698D02*
X15434468Y-15838746D01*
X15434468Y-15838746D02*
X15434468Y-15895888D01*
X15434468Y-15895888D02*
X15424944Y-15914936D01*
X15424944Y-15914936D02*
X15415420Y-15924460D01*
X15415420Y-15924460D02*
X15396373Y-15933984D01*
X15396373Y-15933984D02*
X15358277Y-15933984D01*
X15358277Y-15933984D02*
X15339230Y-15924460D01*
X15548753Y-15933984D02*
X15529706Y-15924460D01*
X15529706Y-15924460D02*
X15520182Y-15905412D01*
X15520182Y-15905412D02*
X15520182Y-15733984D01*
X15710658Y-15933984D02*
X15710658Y-15829222D01*
X15710658Y-15829222D02*
X15701134Y-15810174D01*
X15701134Y-15810174D02*
X15682087Y-15800650D01*
X15682087Y-15800650D02*
X15643992Y-15800650D01*
X15643992Y-15800650D02*
X15624944Y-15810174D01*
X15710658Y-15924460D02*
X15691611Y-15933984D01*
X15691611Y-15933984D02*
X15643992Y-15933984D01*
X15643992Y-15933984D02*
X15624944Y-15924460D01*
X15624944Y-15924460D02*
X15615420Y-15905412D01*
X15615420Y-15905412D02*
X15615420Y-15886365D01*
X15615420Y-15886365D02*
X15624944Y-15867317D01*
X15624944Y-15867317D02*
X15643992Y-15857793D01*
X15643992Y-15857793D02*
X15691611Y-15857793D01*
X15691611Y-15857793D02*
X15710658Y-15848269D01*
X15777325Y-15800650D02*
X15853515Y-15800650D01*
X15805896Y-15733984D02*
X15805896Y-15905412D01*
X15805896Y-15905412D02*
X15815420Y-15924460D01*
X15815420Y-15924460D02*
X15834468Y-15933984D01*
X15834468Y-15933984D02*
X15853515Y-15933984D01*
X15996373Y-15924460D02*
X15977325Y-15933984D01*
X15977325Y-15933984D02*
X15939230Y-15933984D01*
X15939230Y-15933984D02*
X15920182Y-15924460D01*
X15920182Y-15924460D02*
X15910658Y-15905412D01*
X15910658Y-15905412D02*
X15910658Y-15829222D01*
X15910658Y-15829222D02*
X15920182Y-15810174D01*
X15920182Y-15810174D02*
X15939230Y-15800650D01*
X15939230Y-15800650D02*
X15977325Y-15800650D01*
X15977325Y-15800650D02*
X15996373Y-15810174D01*
X15996373Y-15810174D02*
X16005896Y-15829222D01*
X16005896Y-15829222D02*
X16005896Y-15848269D01*
X16005896Y-15848269D02*
X15910658Y-15867317D01*
X16177325Y-15933984D02*
X16177325Y-15733984D01*
X16177325Y-15924460D02*
X16158277Y-15933984D01*
X16158277Y-15933984D02*
X16120182Y-15933984D01*
X16120182Y-15933984D02*
X16101134Y-15924460D01*
X16101134Y-15924460D02*
X16091611Y-15914936D01*
X16091611Y-15914936D02*
X16082087Y-15895888D01*
X16082087Y-15895888D02*
X16082087Y-15838746D01*
X16082087Y-15838746D02*
X16091611Y-15819698D01*
X16091611Y-15819698D02*
X16101134Y-15810174D01*
X16101134Y-15810174D02*
X16120182Y-15800650D01*
X16120182Y-15800650D02*
X16158277Y-15800650D01*
X16158277Y-15800650D02*
X16177325Y-15810174D01*
X16253515Y-16010174D02*
X16263039Y-16000650D01*
X16263039Y-16000650D02*
X16282087Y-15972079D01*
X16282087Y-15972079D02*
X16291611Y-15953031D01*
X16291611Y-15953031D02*
X16301134Y-15924460D01*
X16301134Y-15924460D02*
X16310658Y-15876841D01*
X16310658Y-15876841D02*
X16310658Y-15838746D01*
X16310658Y-15838746D02*
X16301134Y-15791127D01*
X16301134Y-15791127D02*
X16291611Y-15762555D01*
X16291611Y-15762555D02*
X16282087Y-15743508D01*
X16282087Y-15743508D02*
X16263039Y-15714936D01*
X16263039Y-15714936D02*
X16253515Y-15705412D01*
M02*
