M48
; DRILL file {KiCad 9.0.7} date 2026-05-29T22:26:38+0900
; FORMAT={-:-/ absolute / metric / decimal}
; #@! TF.CreationDate,2026-05-29T22:26:38+09:00
; #@! TF.GenerationSoftware,Kicad,Pcbnew,9.0.7
; #@! TF.FileFunction,Plated,1,2,PTH
FMAT,2
METRIC
; #@! TA.AperFunction,Plated,PTH,ViaDrill
T1C0.300
; #@! TA.AperFunction,Plated,PTH,ComponentDrill
T2C0.800
; #@! TA.AperFunction,Plated,PTH,ComponentDrill
T3C0.900
; #@! TA.AperFunction,Plated,PTH,ComponentDrill
T4C0.950
; #@! TA.AperFunction,Plated,PTH,ComponentDrill
T5C1.000
; #@! TA.AperFunction,Plated,PTH,ComponentDrill
T6C2.700
; #@! TA.AperFunction,Plated,PTH,ComponentDrill
T7C4.550
%
G90
G05
T1
X96.61Y-99.66
X96.75Y-71.8
X96.77Y-114.8
X96.85Y-86.13
X97.75Y-135.85
X99.321Y-115.261
X100.46Y-67.5
X100.53Y-81.91
X102.93Y-119.73
X103.03Y-98.67
X103.04Y-149.53
X104.288Y-144.732
X105.06Y-54.5
X105.07Y-106.88
X105.88Y-82.26
X106.06Y-67.56
X110.24Y-130.24
X112.8Y-141.41
X112.9Y-71.91
X113.91Y-90.11
X114.09Y-56.51
X115.0Y-130.08
X116.59Y-116.92
X117.002Y-114.474
X121.26Y-117.63
X122.834Y-133.426
X123.23Y-142.68
X123.87Y-58.47
X123.93Y-64.97
X125.21Y-84.58
X126.76Y-95.53
X128.391Y-120.844
X129.211Y-100.092
X133.33Y-75.87
X133.39Y-60.05
X133.44Y-70.73
X133.53Y-84.58
X133.65Y-65.55
X133.89Y-79.82
X134.686Y-100.526
X136.18Y-138.66
X136.326Y-97.382
X136.655Y-120.443
X138.108Y-94.632
X138.272Y-120.443
X139.851Y-102.361
X141.26Y-84.35
X141.312Y-101.674
X141.747Y-92.456
X142.45Y-136.12
X142.78Y-57.46
X142.92Y-66.64
X143.09Y-72.27
X143.527Y-74.002
X144.13Y-102.13
X145.729Y-99.575
X147.302Y-91.683
X148.468Y-95.149
X148.545Y-90.722
X148.76Y-136.28
X149.086Y-88.737
X150.171Y-115.431
X151.83Y-73.65
X152.11Y-59.64
X152.15Y-67.78
X152.41Y-148.59
X153.68Y-91.97
X154.416Y-110.548
X155.954Y-96.938
X158.263Y-91.684
X158.76Y-89.33
X158.98Y-59.18
X159.997Y-87.121
X161.361Y-93.486
X162.05Y-81.81
X162.21Y-116.21
X162.22Y-78.25
X162.23Y-54.56
X162.28Y-73.23
X162.65Y-63.55
X163.11Y-149.28
X163.22Y-136.98
X164.87Y-67.64
X166.2Y-121.06
X166.404Y-81.846
X167.64Y-114.52
X167.93Y-94.688
X168.014Y-120.245
X168.998Y-95.218
X169.22Y-118.36
X171.46Y-76.84
X171.84Y-69.23
X173.26Y-148.79
X173.3Y-136.24
X175.53Y-112.69
X175.7Y-121.46
X178.68Y-54.26
X181.054Y-85.79
X181.17Y-105.75
X182.899Y-85.548
X183.115Y-88.737
X183.15Y-75.99
X184.44Y-123.23
X185.346Y-116.935
X187.54Y-133.68
X187.7Y-140.66
X187.7Y-147.95
X190.6Y-89.33
X190.66Y-98.0
X192.74Y-64.99
T2
X138.848Y-108.05
X138.848Y-112.1
X149.008Y-108.05
X149.008Y-112.1
X163.83Y-96.22
X163.83Y-98.76
X163.83Y-101.3
X163.83Y-103.84
X163.83Y-106.38
X163.83Y-108.92
X163.83Y-111.46
X163.83Y-114.0
X163.83Y-118.46
X163.83Y-121.0
X163.83Y-123.54
X163.83Y-126.08
X171.45Y-96.22
X171.45Y-98.76
X171.45Y-101.3
X171.45Y-103.84
X171.45Y-106.38
X171.45Y-108.92
X171.45Y-111.46
X171.45Y-114.0
X171.45Y-118.46
X171.45Y-121.0
X171.45Y-123.54
X171.45Y-126.08
T3
X146.558Y-80.493
X149.098Y-80.493
T4
X99.348Y-56.284
X99.348Y-58.784
X99.348Y-61.284
X99.348Y-63.784
X108.949Y-56.295
X108.949Y-58.795
X108.949Y-61.295
X108.949Y-63.795
X120.125Y-139.45
X120.125Y-141.95
X120.125Y-144.45
X120.125Y-146.95
X165.677Y-79.654
X165.688Y-64.093
X165.688Y-71.916
X165.728Y-56.236
X167.911Y-139.5
X167.911Y-142.0
X167.911Y-144.5
X167.911Y-147.0
X168.177Y-79.654
X168.188Y-64.093
X168.188Y-71.916
X168.228Y-56.236
X170.677Y-79.654
X170.688Y-64.093
X170.688Y-71.916
X170.728Y-56.236
T5
X106.324Y-123.19
X106.324Y-125.73
X106.324Y-128.27
X106.324Y-130.81
X106.324Y-133.35
X106.324Y-135.89
X106.324Y-138.43
X106.324Y-140.97
X106.324Y-143.51
X106.324Y-146.05
X106.324Y-148.59
X117.831Y-56.132
X117.831Y-63.932
X117.831Y-71.732
X117.831Y-79.532
X120.331Y-56.132
X120.331Y-63.932
X120.331Y-71.732
X120.331Y-79.532
X120.599Y-89.442
X123.099Y-89.442
X127.356Y-56.185
X127.356Y-63.985
X127.356Y-71.806
X127.356Y-79.606
X127.508Y-101.981
X127.508Y-104.521
X127.508Y-107.061
X127.508Y-109.601
X127.508Y-112.141
X127.508Y-114.681
X127.508Y-117.221
X127.508Y-119.761
X127.508Y-122.301
X127.508Y-124.841
X127.508Y-127.381
X127.508Y-129.921
X127.508Y-132.461
X127.508Y-135.001
X127.508Y-137.541
X127.508Y-140.081
X127.508Y-142.621
X127.508Y-145.161
X127.508Y-147.701
X129.856Y-56.185
X129.856Y-63.985
X129.856Y-71.806
X129.856Y-79.606
X130.912Y-89.442
X131.318Y-101.981
X131.318Y-104.521
X131.318Y-107.061
X131.318Y-109.601
X131.318Y-112.141
X131.318Y-114.681
X131.318Y-117.221
X131.318Y-119.761
X131.318Y-122.301
X131.318Y-124.841
X131.318Y-127.381
X131.318Y-129.921
X131.318Y-132.461
X131.318Y-135.001
X131.318Y-137.541
X131.318Y-140.081
X131.318Y-142.621
X131.318Y-145.161
X131.318Y-147.701
X133.412Y-89.442
X137.084Y-56.132
X137.084Y-63.932
X137.084Y-71.732
X137.084Y-79.532
X139.584Y-56.132
X139.584Y-63.932
X139.584Y-71.732
X139.584Y-79.532
X141.224Y-89.408
X143.724Y-89.408
X146.335Y-56.155
X146.335Y-63.955
X146.335Y-71.755
X148.835Y-56.155
X148.835Y-63.955
X148.835Y-71.755
X151.079Y-89.306
X153.579Y-89.306
X155.967Y-56.312
X155.967Y-64.112
X155.967Y-71.912
X156.007Y-79.68
X156.718Y-101.981
X156.718Y-104.521
X156.718Y-107.061
X156.718Y-109.601
X156.718Y-112.141
X156.718Y-114.681
X156.718Y-117.221
X156.718Y-119.761
X156.718Y-122.301
X156.718Y-124.841
X156.718Y-127.381
X156.718Y-129.921
X156.718Y-132.461
X156.718Y-135.001
X156.718Y-137.541
X156.718Y-140.081
X156.718Y-142.621
X156.718Y-145.161
X156.718Y-147.701
X158.467Y-56.312
X158.467Y-64.112
X158.467Y-71.912
X158.507Y-79.68
X160.528Y-101.981
X160.528Y-104.521
X160.528Y-107.061
X160.528Y-109.601
X160.528Y-112.141
X160.528Y-114.681
X160.528Y-117.221
X160.528Y-119.761
X160.528Y-122.301
X160.528Y-124.841
X160.528Y-127.381
X160.528Y-129.921
X160.528Y-132.461
X160.528Y-135.001
X160.528Y-137.541
X160.528Y-140.081
X160.528Y-142.621
X160.528Y-145.161
X160.528Y-147.701
X179.349Y-78.481
X179.349Y-81.021
X184.0Y-93.345
X184.0Y-95.885
X184.0Y-98.425
X184.0Y-100.965
X184.0Y-103.505
X184.0Y-106.045
X184.0Y-108.585
X184.0Y-111.125
X184.0Y-113.665
X184.0Y-116.205
X184.0Y-118.745
X184.455Y-78.481
X184.455Y-81.021
X189.509Y-78.486
X189.509Y-81.026
T6
X100.0Y-126.238
X100.0Y-131.238
X100.0Y-140.208
X100.0Y-145.208
X112.815Y-106.65
X112.815Y-111.65
X112.815Y-120.62
X112.815Y-125.62
X178.816Y-126.38
X178.816Y-131.38
X178.816Y-140.35
X178.816Y-145.35
X190.4Y-105.49
X190.4Y-110.49
X190.4Y-119.46
X190.4Y-124.46
T7
X181.522Y-59.08
X181.522Y-70.739
X188.722Y-59.08
X188.722Y-70.739
M30
