%TF.GenerationSoftware,KiCad,Pcbnew,9.0.7*%
%TF.CreationDate,2026-08-05T13:52:45+09:00*%
%TF.ProjectId,ESP32-ROS-IO-V6.0,45535033-322d-4524-9f53-2d494f2d5636,rev?*%
%TF.SameCoordinates,Original*%
%TF.FileFunction,Drillmap*%
%TF.FilePolarity,Positive*%
%FSLAX45Y45*%
G04 Gerber Fmt 4.5, Leading zero omitted, Abs format (unit mm)*
G04 Created by KiCad (PCBNEW 9.0.7) date 2026-08-05 13:52:45*
%MOMM*%
%LPD*%
G01*
G04 APERTURE LIST*
%ADD10C,0.050000*%
%ADD11C,0.200000*%
%ADD12C,0.100000*%
%ADD13C,0.270000*%
%ADD14C,0.455000*%
G04 APERTURE END LIST*
D10*
X19500000Y-5600000D02*
X19500000Y-14900000D01*
X9800000Y-5200000D02*
X19100000Y-5200000D01*
X19100000Y-5200000D02*
G75*
G02*
X19500000Y-5600000I0J-400000D01*
G01*
X9500000Y-14900000D02*
X9500000Y-5500000D01*
X9800000Y-15200000D02*
G75*
G02*
X9500000Y-14900000I0J300000D01*
G01*
X19200000Y-15200000D02*
X9800000Y-15200000D01*
X9500000Y-5500000D02*
G75*
G02*
X9800000Y-5200000I300000J0D01*
G01*
X19500000Y-14900000D02*
G75*
G02*
X19200000Y-15200000I-300000J0D01*
G01*
D11*
D12*
X9646000Y-9951000D02*
X9676000Y-9981000D01*
X9676000Y-9951000D02*
X9646000Y-9981000D01*
X9660000Y-7165000D02*
X9690000Y-7195000D01*
X9690000Y-7165000D02*
X9660000Y-7195000D01*
X9662000Y-11465000D02*
X9692000Y-11495000D01*
X9692000Y-11465000D02*
X9662000Y-11495000D01*
X9670000Y-8598000D02*
X9700000Y-8628000D01*
X9700000Y-8598000D02*
X9670000Y-8628000D01*
X9760000Y-13570000D02*
X9790000Y-13600000D01*
X9790000Y-13570000D02*
X9760000Y-13600000D01*
X9917070Y-11511120D02*
X9947070Y-11541120D01*
X9947070Y-11511120D02*
X9917070Y-11541120D01*
X10031000Y-6735000D02*
X10061000Y-6765000D01*
X10061000Y-6735000D02*
X10031000Y-6765000D01*
X10038000Y-8176000D02*
X10068000Y-8206000D01*
X10068000Y-8176000D02*
X10038000Y-8206000D01*
X10278000Y-11958000D02*
X10308000Y-11988000D01*
X10308000Y-11958000D02*
X10278000Y-11988000D01*
X10288000Y-9852000D02*
X10318000Y-9882000D01*
X10318000Y-9852000D02*
X10288000Y-9882000D01*
X10289000Y-14938000D02*
X10319000Y-14968000D01*
X10319000Y-14938000D02*
X10289000Y-14968000D01*
X10413800Y-14458220D02*
X10443800Y-14488220D01*
X10443800Y-14458220D02*
X10413800Y-14488220D01*
X10491000Y-5435000D02*
X10521000Y-5465000D01*
X10521000Y-5435000D02*
X10491000Y-5465000D01*
X10492000Y-10673000D02*
X10522000Y-10703000D01*
X10522000Y-10673000D02*
X10492000Y-10703000D01*
X10573000Y-8211000D02*
X10603000Y-8241000D01*
X10603000Y-8211000D02*
X10573000Y-8241000D01*
X10591000Y-6741000D02*
X10621000Y-6771000D01*
X10621000Y-6741000D02*
X10591000Y-6771000D01*
X11009000Y-13009000D02*
X11039000Y-13039000D01*
X11039000Y-13009000D02*
X11009000Y-13039000D01*
X11265000Y-14126000D02*
X11295000Y-14156000D01*
X11295000Y-14126000D02*
X11265000Y-14156000D01*
X11275000Y-7176000D02*
X11305000Y-7206000D01*
X11305000Y-7176000D02*
X11275000Y-7206000D01*
X11376000Y-8996000D02*
X11406000Y-9026000D01*
X11406000Y-8996000D02*
X11376000Y-9026000D01*
X11394000Y-5636000D02*
X11424000Y-5666000D01*
X11424000Y-5636000D02*
X11394000Y-5666000D01*
X11485000Y-12993000D02*
X11515000Y-13023000D01*
X11515000Y-12993000D02*
X11485000Y-13023000D01*
X11644000Y-11677000D02*
X11674000Y-11707000D01*
X11674000Y-11677000D02*
X11644000Y-11707000D01*
X11685170Y-11432440D02*
X11715170Y-11462440D01*
X11715170Y-11432440D02*
X11685170Y-11462440D01*
X12111000Y-11748000D02*
X12141000Y-11778000D01*
X12141000Y-11748000D02*
X12111000Y-11778000D01*
X12268410Y-13327590D02*
X12298410Y-13357590D01*
X12298410Y-13327590D02*
X12268410Y-13357590D01*
X12308000Y-14253000D02*
X12338000Y-14283000D01*
X12338000Y-14253000D02*
X12308000Y-14283000D01*
X12372000Y-5832000D02*
X12402000Y-5862000D01*
X12402000Y-5832000D02*
X12372000Y-5862000D01*
X12378000Y-6482000D02*
X12408000Y-6512000D01*
X12408000Y-6482000D02*
X12378000Y-6512000D01*
X12506000Y-8443000D02*
X12536000Y-8473000D01*
X12536000Y-8443000D02*
X12506000Y-8473000D01*
X12661000Y-9538000D02*
X12691000Y-9568000D01*
X12691000Y-9538000D02*
X12661000Y-9568000D01*
X12824120Y-12069430D02*
X12854120Y-12099430D01*
X12854120Y-12069430D02*
X12824120Y-12099430D01*
X12906140Y-9994160D02*
X12936140Y-10024160D01*
X12936140Y-9994160D02*
X12906140Y-10024160D01*
X13318000Y-7572000D02*
X13348000Y-7602000D01*
X13348000Y-7572000D02*
X13318000Y-7602000D01*
X13324000Y-5990000D02*
X13354000Y-6020000D01*
X13354000Y-5990000D02*
X13324000Y-6020000D01*
X13329000Y-7058000D02*
X13359000Y-7088000D01*
X13359000Y-7058000D02*
X13329000Y-7088000D01*
X13338000Y-8443000D02*
X13368000Y-8473000D01*
X13368000Y-8443000D02*
X13338000Y-8473000D01*
X13350000Y-6540000D02*
X13380000Y-6570000D01*
X13380000Y-6540000D02*
X13350000Y-6570000D01*
X13374000Y-7967000D02*
X13404000Y-7997000D01*
X13404000Y-7967000D02*
X13374000Y-7997000D01*
X13453590Y-10037570D02*
X13483590Y-10067570D01*
X13483590Y-10037570D02*
X13453590Y-10067570D01*
X13603000Y-13851000D02*
X13633000Y-13881000D01*
X13633000Y-13851000D02*
X13603000Y-13881000D01*
X13617620Y-9723250D02*
X13647620Y-9753250D01*
X13647620Y-9723250D02*
X13617620Y-9753250D01*
X13650470Y-12029310D02*
X13680470Y-12059310D01*
X13680470Y-12029310D02*
X13650470Y-12059310D01*
X13795780Y-9448150D02*
X13825780Y-9478150D01*
X13825780Y-9448150D02*
X13795780Y-9478150D01*
X13812170Y-12029310D02*
X13842170Y-12059310D01*
X13842170Y-12029310D02*
X13812170Y-12059310D01*
X13970100Y-10221120D02*
X14000100Y-10251120D01*
X14000100Y-10221120D02*
X13970100Y-10251120D01*
X14111000Y-8420000D02*
X14141000Y-8450000D01*
X14141000Y-8420000D02*
X14111000Y-8450000D01*
X14116250Y-10152370D02*
X14146250Y-10182370D01*
X14146250Y-10152370D02*
X14116250Y-10182370D01*
X14159670Y-9230650D02*
X14189670Y-9260650D01*
X14189670Y-9230650D02*
X14159670Y-9260650D01*
X14230000Y-13597000D02*
X14260000Y-13627000D01*
X14260000Y-13597000D02*
X14230000Y-13627000D01*
X14263000Y-5731000D02*
X14293000Y-5761000D01*
X14293000Y-5731000D02*
X14263000Y-5761000D01*
X14277000Y-6649000D02*
X14307000Y-6679000D01*
X14307000Y-6649000D02*
X14277000Y-6679000D01*
X14294000Y-7212000D02*
X14324000Y-7242000D01*
X14324000Y-7212000D02*
X14294000Y-7242000D01*
X14337720Y-7385180D02*
X14367720Y-7415180D01*
X14367720Y-7385180D02*
X14337720Y-7415180D01*
X14398000Y-10198000D02*
X14428000Y-10228000D01*
X14428000Y-10198000D02*
X14398000Y-10228000D01*
X14557940Y-9942520D02*
X14587940Y-9972520D01*
X14587940Y-9942520D02*
X14557940Y-9972520D01*
X14715170Y-9153320D02*
X14745170Y-9183320D01*
X14745170Y-9153320D02*
X14715170Y-9183320D01*
X14831790Y-9499890D02*
X14861790Y-9529890D01*
X14861790Y-9499890D02*
X14831790Y-9529890D01*
X14839460Y-9057210D02*
X14869460Y-9087210D01*
X14869460Y-9057210D02*
X14839460Y-9087210D01*
X14861000Y-13613000D02*
X14891000Y-13643000D01*
X14891000Y-13613000D02*
X14861000Y-13643000D01*
X14893640Y-8858730D02*
X14923640Y-8888730D01*
X14923640Y-8858730D02*
X14893640Y-8888730D01*
X15002140Y-11528120D02*
X15032140Y-11558120D01*
X15032140Y-11528120D02*
X15002140Y-11558120D01*
X15168000Y-7350000D02*
X15198000Y-7380000D01*
X15198000Y-7350000D02*
X15168000Y-7380000D01*
X15196000Y-5949000D02*
X15226000Y-5979000D01*
X15226000Y-5949000D02*
X15196000Y-5979000D01*
X15200000Y-6763000D02*
X15230000Y-6793000D01*
X15230000Y-6763000D02*
X15200000Y-6793000D01*
X15226000Y-14844000D02*
X15256000Y-14874000D01*
X15256000Y-14844000D02*
X15226000Y-14874000D01*
X15353000Y-9182000D02*
X15383000Y-9212000D01*
X15383000Y-9182000D02*
X15353000Y-9212000D01*
X15426650Y-11039830D02*
X15456650Y-11069830D01*
X15456650Y-11039830D02*
X15426650Y-11069830D01*
X15580370Y-9678840D02*
X15610370Y-9708840D01*
X15610370Y-9678840D02*
X15580370Y-9708840D01*
X15811290Y-9153420D02*
X15841290Y-9183420D01*
X15841290Y-9153420D02*
X15811290Y-9183420D01*
X15861000Y-8918000D02*
X15891000Y-8948000D01*
X15891000Y-8918000D02*
X15861000Y-8948000D01*
X15883000Y-5903000D02*
X15913000Y-5933000D01*
X15913000Y-5903000D02*
X15883000Y-5933000D01*
X15984700Y-8697110D02*
X16014700Y-8727110D01*
X16014700Y-8697110D02*
X15984700Y-8727110D01*
X16121120Y-9333620D02*
X16151120Y-9363620D01*
X16151120Y-9333620D02*
X16121120Y-9363620D01*
X16190000Y-8166000D02*
X16220000Y-8196000D01*
X16220000Y-8166000D02*
X16190000Y-8196000D01*
X16206000Y-11606000D02*
X16236000Y-11636000D01*
X16236000Y-11606000D02*
X16206000Y-11636000D01*
X16207000Y-7810000D02*
X16237000Y-7840000D01*
X16237000Y-7810000D02*
X16207000Y-7840000D01*
X16208000Y-5441000D02*
X16238000Y-5471000D01*
X16238000Y-5441000D02*
X16208000Y-5471000D01*
X16213000Y-7308000D02*
X16243000Y-7338000D01*
X16243000Y-7308000D02*
X16213000Y-7338000D01*
X16250000Y-6340000D02*
X16280000Y-6370000D01*
X16280000Y-6340000D02*
X16250000Y-6370000D01*
X16296000Y-14913000D02*
X16326000Y-14943000D01*
X16326000Y-14913000D02*
X16296000Y-14943000D01*
X16307000Y-13683000D02*
X16337000Y-13713000D01*
X16337000Y-13683000D02*
X16307000Y-13713000D01*
X16472000Y-6749000D02*
X16502000Y-6779000D01*
X16502000Y-6749000D02*
X16472000Y-6779000D01*
X16605000Y-12091000D02*
X16635000Y-12121000D01*
X16635000Y-12091000D02*
X16605000Y-12121000D01*
X16625370Y-8169640D02*
X16655370Y-8199640D01*
X16655370Y-8169640D02*
X16625370Y-8199640D01*
X16749000Y-11437000D02*
X16779000Y-11467000D01*
X16779000Y-11437000D02*
X16749000Y-11467000D01*
X16778040Y-9453770D02*
X16808040Y-9483770D01*
X16808040Y-9453770D02*
X16778040Y-9483770D01*
X16786440Y-12009500D02*
X16816440Y-12039500D01*
X16816440Y-12009500D02*
X16786440Y-12039500D01*
X16884850Y-9506800D02*
X16914850Y-9536800D01*
X16914850Y-9506800D02*
X16884850Y-9536800D01*
X16907000Y-11821000D02*
X16937000Y-11851000D01*
X16937000Y-11821000D02*
X16907000Y-11851000D01*
X17131000Y-7669000D02*
X17161000Y-7699000D01*
X17161000Y-7669000D02*
X17131000Y-7699000D01*
X17169000Y-6908000D02*
X17199000Y-6938000D01*
X17199000Y-6908000D02*
X17169000Y-6938000D01*
X17311000Y-14864000D02*
X17341000Y-14894000D01*
X17341000Y-14864000D02*
X17311000Y-14894000D01*
X17315000Y-13609000D02*
X17345000Y-13639000D01*
X17345000Y-13609000D02*
X17315000Y-13639000D01*
X17538000Y-11254000D02*
X17568000Y-11284000D01*
X17568000Y-11254000D02*
X17538000Y-11284000D01*
X17555000Y-12131000D02*
X17585000Y-12161000D01*
X17585000Y-12131000D02*
X17555000Y-12161000D01*
X17853000Y-5411000D02*
X17883000Y-5441000D01*
X17883000Y-5411000D02*
X17853000Y-5441000D01*
X18090440Y-8564020D02*
X18120440Y-8594020D01*
X18120440Y-8564020D02*
X18090440Y-8594020D01*
X18102000Y-10560050D02*
X18132000Y-10590050D01*
X18132000Y-10560050D02*
X18102000Y-10590050D01*
X18274950Y-8539760D02*
X18304950Y-8569760D01*
X18304950Y-8539760D02*
X18274950Y-8569760D01*
X18296550Y-8858730D02*
X18326550Y-8888730D01*
X18326550Y-8858730D02*
X18296550Y-8888730D01*
X18300000Y-7584000D02*
X18330000Y-7614000D01*
X18330000Y-7584000D02*
X18300000Y-7614000D01*
X18429000Y-12308000D02*
X18459000Y-12338000D01*
X18459000Y-12308000D02*
X18429000Y-12338000D01*
X18519610Y-11678490D02*
X18549610Y-11708490D01*
X18549610Y-11678490D02*
X18519610Y-11708490D01*
X18739000Y-13353000D02*
X18769000Y-13383000D01*
X18769000Y-13353000D02*
X18739000Y-13383000D01*
X18755000Y-14051000D02*
X18785000Y-14081000D01*
X18785000Y-14051000D02*
X18755000Y-14081000D01*
X18755000Y-14780000D02*
X18785000Y-14810000D01*
X18785000Y-14780000D02*
X18755000Y-14810000D01*
X19045000Y-8918000D02*
X19075000Y-8948000D01*
X19075000Y-8918000D02*
X19045000Y-8948000D01*
X19051000Y-9785000D02*
X19081000Y-9815000D01*
X19081000Y-9785000D02*
X19051000Y-9815000D01*
X19259000Y-6484000D02*
X19289000Y-6514000D01*
X19289000Y-6484000D02*
X19259000Y-6514000D01*
X13924800Y-10805000D02*
G75*
G02*
X13844800Y-10805000I-40000J0D01*
G01*
X13844800Y-10805000D02*
G75*
G02*
X13924800Y-10805000I40000J0D01*
G01*
X13924800Y-11210000D02*
G75*
G02*
X13844800Y-11210000I-40000J0D01*
G01*
X13844800Y-11210000D02*
G75*
G02*
X13924800Y-11210000I40000J0D01*
G01*
X14940800Y-10805000D02*
G75*
G02*
X14860800Y-10805000I-40000J0D01*
G01*
X14860800Y-10805000D02*
G75*
G02*
X14940800Y-10805000I40000J0D01*
G01*
X14940800Y-11210000D02*
G75*
G02*
X14860800Y-11210000I-40000J0D01*
G01*
X14860800Y-11210000D02*
G75*
G02*
X14940800Y-11210000I40000J0D01*
G01*
X16423000Y-9622000D02*
G75*
G02*
X16343000Y-9622000I-40000J0D01*
G01*
X16343000Y-9622000D02*
G75*
G02*
X16423000Y-9622000I40000J0D01*
G01*
X16423000Y-9876000D02*
G75*
G02*
X16343000Y-9876000I-40000J0D01*
G01*
X16343000Y-9876000D02*
G75*
G02*
X16423000Y-9876000I40000J0D01*
G01*
X16423000Y-10130000D02*
G75*
G02*
X16343000Y-10130000I-40000J0D01*
G01*
X16343000Y-10130000D02*
G75*
G02*
X16423000Y-10130000I40000J0D01*
G01*
X16423000Y-10384000D02*
G75*
G02*
X16343000Y-10384000I-40000J0D01*
G01*
X16343000Y-10384000D02*
G75*
G02*
X16423000Y-10384000I40000J0D01*
G01*
X16423000Y-10638000D02*
G75*
G02*
X16343000Y-10638000I-40000J0D01*
G01*
X16343000Y-10638000D02*
G75*
G02*
X16423000Y-10638000I40000J0D01*
G01*
X16423000Y-10892000D02*
G75*
G02*
X16343000Y-10892000I-40000J0D01*
G01*
X16343000Y-10892000D02*
G75*
G02*
X16423000Y-10892000I40000J0D01*
G01*
X16423000Y-11146000D02*
G75*
G02*
X16343000Y-11146000I-40000J0D01*
G01*
X16343000Y-11146000D02*
G75*
G02*
X16423000Y-11146000I40000J0D01*
G01*
X16423000Y-11400000D02*
G75*
G02*
X16343000Y-11400000I-40000J0D01*
G01*
X16343000Y-11400000D02*
G75*
G02*
X16423000Y-11400000I40000J0D01*
G01*
X16423000Y-11846000D02*
G75*
G02*
X16343000Y-11846000I-40000J0D01*
G01*
X16343000Y-11846000D02*
G75*
G02*
X16423000Y-11846000I40000J0D01*
G01*
X16423000Y-12100000D02*
G75*
G02*
X16343000Y-12100000I-40000J0D01*
G01*
X16343000Y-12100000D02*
G75*
G02*
X16423000Y-12100000I40000J0D01*
G01*
X16423000Y-12354000D02*
G75*
G02*
X16343000Y-12354000I-40000J0D01*
G01*
X16343000Y-12354000D02*
G75*
G02*
X16423000Y-12354000I40000J0D01*
G01*
X16423000Y-12608000D02*
G75*
G02*
X16343000Y-12608000I-40000J0D01*
G01*
X16343000Y-12608000D02*
G75*
G02*
X16423000Y-12608000I40000J0D01*
G01*
X17185000Y-9622000D02*
G75*
G02*
X17105000Y-9622000I-40000J0D01*
G01*
X17105000Y-9622000D02*
G75*
G02*
X17185000Y-9622000I40000J0D01*
G01*
X17185000Y-9876000D02*
G75*
G02*
X17105000Y-9876000I-40000J0D01*
G01*
X17105000Y-9876000D02*
G75*
G02*
X17185000Y-9876000I40000J0D01*
G01*
X17185000Y-10130000D02*
G75*
G02*
X17105000Y-10130000I-40000J0D01*
G01*
X17105000Y-10130000D02*
G75*
G02*
X17185000Y-10130000I40000J0D01*
G01*
X17185000Y-10384000D02*
G75*
G02*
X17105000Y-10384000I-40000J0D01*
G01*
X17105000Y-10384000D02*
G75*
G02*
X17185000Y-10384000I40000J0D01*
G01*
X17185000Y-10638000D02*
G75*
G02*
X17105000Y-10638000I-40000J0D01*
G01*
X17105000Y-10638000D02*
G75*
G02*
X17185000Y-10638000I40000J0D01*
G01*
X17185000Y-10892000D02*
G75*
G02*
X17105000Y-10892000I-40000J0D01*
G01*
X17105000Y-10892000D02*
G75*
G02*
X17185000Y-10892000I40000J0D01*
G01*
X17185000Y-11146000D02*
G75*
G02*
X17105000Y-11146000I-40000J0D01*
G01*
X17105000Y-11146000D02*
G75*
G02*
X17185000Y-11146000I40000J0D01*
G01*
X17185000Y-11400000D02*
G75*
G02*
X17105000Y-11400000I-40000J0D01*
G01*
X17105000Y-11400000D02*
G75*
G02*
X17185000Y-11400000I40000J0D01*
G01*
X17185000Y-11846000D02*
G75*
G02*
X17105000Y-11846000I-40000J0D01*
G01*
X17105000Y-11846000D02*
G75*
G02*
X17185000Y-11846000I40000J0D01*
G01*
X17185000Y-12100000D02*
G75*
G02*
X17105000Y-12100000I-40000J0D01*
G01*
X17105000Y-12100000D02*
G75*
G02*
X17185000Y-12100000I40000J0D01*
G01*
X17185000Y-12354000D02*
G75*
G02*
X17105000Y-12354000I-40000J0D01*
G01*
X17105000Y-12354000D02*
G75*
G02*
X17185000Y-12354000I40000J0D01*
G01*
X17185000Y-12608000D02*
G75*
G02*
X17105000Y-12608000I-40000J0D01*
G01*
X17105000Y-12608000D02*
G75*
G02*
X17185000Y-12608000I40000J0D01*
G01*
X14655800Y-8004260D02*
X14655800Y-8094260D01*
X14610800Y-8049260D02*
X14700800Y-8049260D01*
X14909800Y-8004260D02*
X14909800Y-8094260D01*
X14864800Y-8049260D02*
X14954800Y-8049260D01*
X9968368Y-5661988D02*
X9968368Y-5594812D01*
X9901192Y-5594812D01*
X9901192Y-5661988D01*
X9968368Y-5661988D01*
X9968368Y-5911988D02*
X9968368Y-5844812D01*
X9901192Y-5844812D01*
X9901192Y-5911988D01*
X9968368Y-5911988D01*
X9968368Y-6161988D02*
X9968368Y-6094812D01*
X9901192Y-6094812D01*
X9901192Y-6161988D01*
X9968368Y-6161988D01*
X9968368Y-6411988D02*
X9968368Y-6344812D01*
X9901192Y-6344812D01*
X9901192Y-6411988D01*
X9968368Y-6411988D01*
X10928488Y-5663068D02*
X10928488Y-5595892D01*
X10861312Y-5595892D01*
X10861312Y-5663068D01*
X10928488Y-5663068D01*
X10928488Y-5913068D02*
X10928488Y-5845892D01*
X10861312Y-5845892D01*
X10861312Y-5913068D01*
X10928488Y-5913068D01*
X10928488Y-6163068D02*
X10928488Y-6095892D01*
X10861312Y-6095892D01*
X10861312Y-6163068D01*
X10928488Y-6163068D01*
X10928488Y-6413068D02*
X10928488Y-6345892D01*
X10861312Y-6345892D01*
X10861312Y-6413068D01*
X10928488Y-6413068D01*
X12046088Y-13978588D02*
X12046088Y-13911412D01*
X11978912Y-13911412D01*
X11978912Y-13978588D01*
X12046088Y-13978588D01*
X12046088Y-14228588D02*
X12046088Y-14161412D01*
X11978912Y-14161412D01*
X11978912Y-14228588D01*
X12046088Y-14228588D01*
X12046088Y-14478588D02*
X12046088Y-14411412D01*
X11978912Y-14411412D01*
X11978912Y-14478588D01*
X12046088Y-14478588D01*
X12046088Y-14728588D02*
X12046088Y-14661412D01*
X11978912Y-14661412D01*
X11978912Y-14728588D01*
X12046088Y-14728588D01*
X16601308Y-7999028D02*
X16601308Y-7931852D01*
X16534132Y-7931852D01*
X16534132Y-7999028D01*
X16601308Y-7999028D01*
X16602388Y-6442848D02*
X16602388Y-6375672D01*
X16535212Y-6375672D01*
X16535212Y-6442848D01*
X16602388Y-6442848D01*
X16602388Y-7225168D02*
X16602388Y-7157992D01*
X16535212Y-7157992D01*
X16535212Y-7225168D01*
X16602388Y-7225168D01*
X16606388Y-5657148D02*
X16606388Y-5589972D01*
X16539212Y-5589972D01*
X16539212Y-5657148D01*
X16606388Y-5657148D01*
X16824688Y-13983588D02*
X16824688Y-13916412D01*
X16757512Y-13916412D01*
X16757512Y-13983588D01*
X16824688Y-13983588D01*
X16824688Y-14233588D02*
X16824688Y-14166412D01*
X16757512Y-14166412D01*
X16757512Y-14233588D01*
X16824688Y-14233588D01*
X16824688Y-14483588D02*
X16824688Y-14416412D01*
X16757512Y-14416412D01*
X16757512Y-14483588D01*
X16824688Y-14483588D01*
X16824688Y-14733588D02*
X16824688Y-14666412D01*
X16757512Y-14666412D01*
X16757512Y-14733588D01*
X16824688Y-14733588D01*
X16851308Y-7999028D02*
X16851308Y-7931852D01*
X16784132Y-7931852D01*
X16784132Y-7999028D01*
X16851308Y-7999028D01*
X16852388Y-6442848D02*
X16852388Y-6375672D01*
X16785212Y-6375672D01*
X16785212Y-6442848D01*
X16852388Y-6442848D01*
X16852388Y-7225168D02*
X16852388Y-7157992D01*
X16785212Y-7157992D01*
X16785212Y-7225168D01*
X16852388Y-7225168D01*
X16856388Y-5657148D02*
X16856388Y-5589972D01*
X16789212Y-5589972D01*
X16789212Y-5657148D01*
X16856388Y-5657148D01*
X17101308Y-7999028D02*
X17101308Y-7931852D01*
X17034132Y-7931852D01*
X17034132Y-7999028D01*
X17101308Y-7999028D01*
X17102388Y-6442848D02*
X17102388Y-6375672D01*
X17035212Y-6375672D01*
X17035212Y-6442848D01*
X17102388Y-6442848D01*
X17102388Y-7225168D02*
X17102388Y-7157992D01*
X17035212Y-7157992D01*
X17035212Y-7225168D01*
X17102388Y-7225168D01*
X17106388Y-5657148D02*
X17106388Y-5589972D01*
X17039212Y-5589972D01*
X17039212Y-5657148D01*
X17106388Y-5657148D01*
X10632440Y-12369000D02*
X10682440Y-12319000D01*
X10632440Y-12269000D01*
X10582440Y-12319000D01*
X10632440Y-12369000D01*
X10632440Y-12623000D02*
X10682440Y-12573000D01*
X10632440Y-12523000D01*
X10582440Y-12573000D01*
X10632440Y-12623000D01*
X10632440Y-12877000D02*
X10682440Y-12827000D01*
X10632440Y-12777000D01*
X10582440Y-12827000D01*
X10632440Y-12877000D01*
X10632440Y-13131000D02*
X10682440Y-13081000D01*
X10632440Y-13031000D01*
X10582440Y-13081000D01*
X10632440Y-13131000D01*
X10632440Y-13385000D02*
X10682440Y-13335000D01*
X10632440Y-13285000D01*
X10582440Y-13335000D01*
X10632440Y-13385000D01*
X10632440Y-13639000D02*
X10682440Y-13589000D01*
X10632440Y-13539000D01*
X10582440Y-13589000D01*
X10632440Y-13639000D01*
X10632440Y-13893000D02*
X10682440Y-13843000D01*
X10632440Y-13793000D01*
X10582440Y-13843000D01*
X10632440Y-13893000D01*
X10632440Y-14147000D02*
X10682440Y-14097000D01*
X10632440Y-14047000D01*
X10582440Y-14097000D01*
X10632440Y-14147000D01*
X10632440Y-14401000D02*
X10682440Y-14351000D01*
X10632440Y-14301000D01*
X10582440Y-14351000D01*
X10632440Y-14401000D01*
X10632440Y-14655000D02*
X10682440Y-14605000D01*
X10632440Y-14555000D01*
X10582440Y-14605000D01*
X10632440Y-14655000D01*
X10632440Y-14909000D02*
X10682440Y-14859000D01*
X10632440Y-14809000D01*
X10582440Y-14859000D01*
X10632440Y-14909000D01*
X11783060Y-5663180D02*
X11833060Y-5613180D01*
X11783060Y-5563180D01*
X11733060Y-5613180D01*
X11783060Y-5663180D01*
X11783060Y-6443180D02*
X11833060Y-6393180D01*
X11783060Y-6343180D01*
X11733060Y-6393180D01*
X11783060Y-6443180D01*
X11783060Y-7223180D02*
X11833060Y-7173180D01*
X11783060Y-7123180D01*
X11733060Y-7173180D01*
X11783060Y-7223180D01*
X11783060Y-8003180D02*
X11833060Y-7953180D01*
X11783060Y-7903180D01*
X11733060Y-7953180D01*
X11783060Y-8003180D01*
X12033060Y-5663180D02*
X12083060Y-5613180D01*
X12033060Y-5563180D01*
X11983060Y-5613180D01*
X12033060Y-5663180D01*
X12033060Y-6443180D02*
X12083060Y-6393180D01*
X12033060Y-6343180D01*
X11983060Y-6393180D01*
X12033060Y-6443180D01*
X12033060Y-7223180D02*
X12083060Y-7173180D01*
X12033060Y-7123180D01*
X11983060Y-7173180D01*
X12033060Y-7223180D01*
X12033060Y-8003180D02*
X12083060Y-7953180D01*
X12033060Y-7903180D01*
X11983060Y-7953180D01*
X12033060Y-8003180D01*
X12059920Y-8994180D02*
X12109920Y-8944180D01*
X12059920Y-8894180D01*
X12009920Y-8944180D01*
X12059920Y-8994180D01*
X12309920Y-8994180D02*
X12359920Y-8944180D01*
X12309920Y-8894180D01*
X12259920Y-8944180D01*
X12309920Y-8994180D01*
X12735560Y-5668480D02*
X12785560Y-5618480D01*
X12735560Y-5568480D01*
X12685560Y-5618480D01*
X12735560Y-5668480D01*
X12735560Y-6448480D02*
X12785560Y-6398480D01*
X12735560Y-6348480D01*
X12685560Y-6398480D01*
X12735560Y-6448480D01*
X12735560Y-7230580D02*
X12785560Y-7180580D01*
X12735560Y-7130580D01*
X12685560Y-7180580D01*
X12735560Y-7230580D01*
X12735560Y-8010580D02*
X12785560Y-7960580D01*
X12735560Y-7910580D01*
X12685560Y-7960580D01*
X12735560Y-8010580D01*
X12750800Y-10248100D02*
X12800800Y-10198100D01*
X12750800Y-10148100D01*
X12700800Y-10198100D01*
X12750800Y-10248100D01*
X12750800Y-10502100D02*
X12800800Y-10452100D01*
X12750800Y-10402100D01*
X12700800Y-10452100D01*
X12750800Y-10502100D01*
X12750800Y-10756100D02*
X12800800Y-10706100D01*
X12750800Y-10656100D01*
X12700800Y-10706100D01*
X12750800Y-10756100D01*
X12750800Y-11010100D02*
X12800800Y-10960100D01*
X12750800Y-10910100D01*
X12700800Y-10960100D01*
X12750800Y-11010100D01*
X12750800Y-11264100D02*
X12800800Y-11214100D01*
X12750800Y-11164100D01*
X12700800Y-11214100D01*
X12750800Y-11264100D01*
X12750800Y-11518100D02*
X12800800Y-11468100D01*
X12750800Y-11418100D01*
X12700800Y-11468100D01*
X12750800Y-11518100D01*
X12750800Y-11772100D02*
X12800800Y-11722100D01*
X12750800Y-11672100D01*
X12700800Y-11722100D01*
X12750800Y-11772100D01*
X12750800Y-12026100D02*
X12800800Y-11976100D01*
X12750800Y-11926100D01*
X12700800Y-11976100D01*
X12750800Y-12026100D01*
X12750800Y-12280100D02*
X12800800Y-12230100D01*
X12750800Y-12180100D01*
X12700800Y-12230100D01*
X12750800Y-12280100D01*
X12750800Y-12534100D02*
X12800800Y-12484100D01*
X12750800Y-12434100D01*
X12700800Y-12484100D01*
X12750800Y-12534100D01*
X12750800Y-12788100D02*
X12800800Y-12738100D01*
X12750800Y-12688100D01*
X12700800Y-12738100D01*
X12750800Y-12788100D01*
X12750800Y-13042100D02*
X12800800Y-12992100D01*
X12750800Y-12942100D01*
X12700800Y-12992100D01*
X12750800Y-13042100D01*
X12750800Y-13296100D02*
X12800800Y-13246100D01*
X12750800Y-13196100D01*
X12700800Y-13246100D01*
X12750800Y-13296100D01*
X12750800Y-13550100D02*
X12800800Y-13500100D01*
X12750800Y-13450100D01*
X12700800Y-13500100D01*
X12750800Y-13550100D01*
X12750800Y-13804100D02*
X12800800Y-13754100D01*
X12750800Y-13704100D01*
X12700800Y-13754100D01*
X12750800Y-13804100D01*
X12750800Y-14058100D02*
X12800800Y-14008100D01*
X12750800Y-13958100D01*
X12700800Y-14008100D01*
X12750800Y-14058100D01*
X12750800Y-14312100D02*
X12800800Y-14262100D01*
X12750800Y-14212100D01*
X12700800Y-14262100D01*
X12750800Y-14312100D01*
X12750800Y-14566100D02*
X12800800Y-14516100D01*
X12750800Y-14466100D01*
X12700800Y-14516100D01*
X12750800Y-14566100D01*
X12750800Y-14820100D02*
X12800800Y-14770100D01*
X12750800Y-14720100D01*
X12700800Y-14770100D01*
X12750800Y-14820100D01*
X12985560Y-5668480D02*
X13035560Y-5618480D01*
X12985560Y-5568480D01*
X12935560Y-5618480D01*
X12985560Y-5668480D01*
X12985560Y-6448480D02*
X13035560Y-6398480D01*
X12985560Y-6348480D01*
X12935560Y-6398480D01*
X12985560Y-6448480D01*
X12985560Y-7230580D02*
X13035560Y-7180580D01*
X12985560Y-7130580D01*
X12935560Y-7180580D01*
X12985560Y-7230580D01*
X12985560Y-8010580D02*
X13035560Y-7960580D01*
X12985560Y-7910580D01*
X12935560Y-7960580D01*
X12985560Y-8010580D01*
X13091160Y-8994180D02*
X13141160Y-8944180D01*
X13091160Y-8894180D01*
X13041160Y-8944180D01*
X13091160Y-8994180D01*
X13131800Y-10248100D02*
X13181800Y-10198100D01*
X13131800Y-10148100D01*
X13081800Y-10198100D01*
X13131800Y-10248100D01*
X13131800Y-10502100D02*
X13181800Y-10452100D01*
X13131800Y-10402100D01*
X13081800Y-10452100D01*
X13131800Y-10502100D01*
X13131800Y-10756100D02*
X13181800Y-10706100D01*
X13131800Y-10656100D01*
X13081800Y-10706100D01*
X13131800Y-10756100D01*
X13131800Y-11010100D02*
X13181800Y-10960100D01*
X13131800Y-10910100D01*
X13081800Y-10960100D01*
X13131800Y-11010100D01*
X13131800Y-11264100D02*
X13181800Y-11214100D01*
X13131800Y-11164100D01*
X13081800Y-11214100D01*
X13131800Y-11264100D01*
X13131800Y-11518100D02*
X13181800Y-11468100D01*
X13131800Y-11418100D01*
X13081800Y-11468100D01*
X13131800Y-11518100D01*
X13131800Y-11772100D02*
X13181800Y-11722100D01*
X13131800Y-11672100D01*
X13081800Y-11722100D01*
X13131800Y-11772100D01*
X13131800Y-12026100D02*
X13181800Y-11976100D01*
X13131800Y-11926100D01*
X13081800Y-11976100D01*
X13131800Y-12026100D01*
X13131800Y-12280100D02*
X13181800Y-12230100D01*
X13131800Y-12180100D01*
X13081800Y-12230100D01*
X13131800Y-12280100D01*
X13131800Y-12534100D02*
X13181800Y-12484100D01*
X13131800Y-12434100D01*
X13081800Y-12484100D01*
X13131800Y-12534100D01*
X13131800Y-12788100D02*
X13181800Y-12738100D01*
X13131800Y-12688100D01*
X13081800Y-12738100D01*
X13131800Y-12788100D01*
X13131800Y-13042100D02*
X13181800Y-12992100D01*
X13131800Y-12942100D01*
X13081800Y-12992100D01*
X13131800Y-13042100D01*
X13131800Y-13296100D02*
X13181800Y-13246100D01*
X13131800Y-13196100D01*
X13081800Y-13246100D01*
X13131800Y-13296100D01*
X13131800Y-13550100D02*
X13181800Y-13500100D01*
X13131800Y-13450100D01*
X13081800Y-13500100D01*
X13131800Y-13550100D01*
X13131800Y-13804100D02*
X13181800Y-13754100D01*
X13131800Y-13704100D01*
X13081800Y-13754100D01*
X13131800Y-13804100D01*
X13131800Y-14058100D02*
X13181800Y-14008100D01*
X13131800Y-13958100D01*
X13081800Y-14008100D01*
X13131800Y-14058100D01*
X13131800Y-14312100D02*
X13181800Y-14262100D01*
X13131800Y-14212100D01*
X13081800Y-14262100D01*
X13131800Y-14312100D01*
X13131800Y-14566100D02*
X13181800Y-14516100D01*
X13131800Y-14466100D01*
X13081800Y-14516100D01*
X13131800Y-14566100D01*
X13131800Y-14820100D02*
X13181800Y-14770100D01*
X13131800Y-14720100D01*
X13081800Y-14770100D01*
X13131800Y-14820100D01*
X13341160Y-8994180D02*
X13391160Y-8944180D01*
X13341160Y-8894180D01*
X13291160Y-8944180D01*
X13341160Y-8994180D01*
X13708380Y-5663180D02*
X13758380Y-5613180D01*
X13708380Y-5563180D01*
X13658380Y-5613180D01*
X13708380Y-5663180D01*
X13708380Y-6443180D02*
X13758380Y-6393180D01*
X13708380Y-6343180D01*
X13658380Y-6393180D01*
X13708380Y-6443180D01*
X13708380Y-7223180D02*
X13758380Y-7173180D01*
X13708380Y-7123180D01*
X13658380Y-7173180D01*
X13708380Y-7223180D01*
X13708380Y-8003180D02*
X13758380Y-7953180D01*
X13708380Y-7903180D01*
X13658380Y-7953180D01*
X13708380Y-8003180D01*
X13958380Y-5663180D02*
X14008380Y-5613180D01*
X13958380Y-5563180D01*
X13908380Y-5613180D01*
X13958380Y-5663180D01*
X13958380Y-6443180D02*
X14008380Y-6393180D01*
X13958380Y-6343180D01*
X13908380Y-6393180D01*
X13958380Y-6443180D01*
X13958380Y-7223180D02*
X14008380Y-7173180D01*
X13958380Y-7123180D01*
X13908380Y-7173180D01*
X13958380Y-7223180D01*
X13958380Y-8003180D02*
X14008380Y-7953180D01*
X13958380Y-7903180D01*
X13908380Y-7953180D01*
X13958380Y-8003180D01*
X14122400Y-8990800D02*
X14172400Y-8940800D01*
X14122400Y-8890800D01*
X14072400Y-8940800D01*
X14122400Y-8990800D01*
X14372400Y-8990800D02*
X14422400Y-8940800D01*
X14372400Y-8890800D01*
X14322400Y-8940800D01*
X14372400Y-8990800D01*
X14633480Y-5665500D02*
X14683480Y-5615500D01*
X14633480Y-5565500D01*
X14583480Y-5615500D01*
X14633480Y-5665500D01*
X14633480Y-6445500D02*
X14683480Y-6395500D01*
X14633480Y-6345500D01*
X14583480Y-6395500D01*
X14633480Y-6445500D01*
X14633480Y-7225500D02*
X14683480Y-7175500D01*
X14633480Y-7125500D01*
X14583480Y-7175500D01*
X14633480Y-7225500D01*
X14883480Y-5665500D02*
X14933480Y-5615500D01*
X14883480Y-5565500D01*
X14833480Y-5615500D01*
X14883480Y-5665500D01*
X14883480Y-6445500D02*
X14933480Y-6395500D01*
X14883480Y-6345500D01*
X14833480Y-6395500D01*
X14883480Y-6445500D01*
X14883480Y-7225500D02*
X14933480Y-7175500D01*
X14883480Y-7125500D01*
X14833480Y-7175500D01*
X14883480Y-7225500D01*
X15107920Y-8980640D02*
X15157920Y-8930640D01*
X15107920Y-8880640D01*
X15057920Y-8930640D01*
X15107920Y-8980640D01*
X15357920Y-8980640D02*
X15407920Y-8930640D01*
X15357920Y-8880640D01*
X15307920Y-8930640D01*
X15357920Y-8980640D01*
X15596680Y-5681180D02*
X15646680Y-5631180D01*
X15596680Y-5581180D01*
X15546680Y-5631180D01*
X15596680Y-5681180D01*
X15596680Y-6461180D02*
X15646680Y-6411180D01*
X15596680Y-6361180D01*
X15546680Y-6411180D01*
X15596680Y-6461180D01*
X15596680Y-7241180D02*
X15646680Y-7191180D01*
X15596680Y-7141180D01*
X15546680Y-7191180D01*
X15596680Y-7241180D01*
X15600680Y-8017980D02*
X15650680Y-7967980D01*
X15600680Y-7917980D01*
X15550680Y-7967980D01*
X15600680Y-8017980D01*
X15671800Y-10248100D02*
X15721800Y-10198100D01*
X15671800Y-10148100D01*
X15621800Y-10198100D01*
X15671800Y-10248100D01*
X15671800Y-10502100D02*
X15721800Y-10452100D01*
X15671800Y-10402100D01*
X15621800Y-10452100D01*
X15671800Y-10502100D01*
X15671800Y-10756100D02*
X15721800Y-10706100D01*
X15671800Y-10656100D01*
X15621800Y-10706100D01*
X15671800Y-10756100D01*
X15671800Y-11010100D02*
X15721800Y-10960100D01*
X15671800Y-10910100D01*
X15621800Y-10960100D01*
X15671800Y-11010100D01*
X15671800Y-11264100D02*
X15721800Y-11214100D01*
X15671800Y-11164100D01*
X15621800Y-11214100D01*
X15671800Y-11264100D01*
X15671800Y-11518100D02*
X15721800Y-11468100D01*
X15671800Y-11418100D01*
X15621800Y-11468100D01*
X15671800Y-11518100D01*
X15671800Y-11772100D02*
X15721800Y-11722100D01*
X15671800Y-11672100D01*
X15621800Y-11722100D01*
X15671800Y-11772100D01*
X15671800Y-12026100D02*
X15721800Y-11976100D01*
X15671800Y-11926100D01*
X15621800Y-11976100D01*
X15671800Y-12026100D01*
X15671800Y-12280100D02*
X15721800Y-12230100D01*
X15671800Y-12180100D01*
X15621800Y-12230100D01*
X15671800Y-12280100D01*
X15671800Y-12534100D02*
X15721800Y-12484100D01*
X15671800Y-12434100D01*
X15621800Y-12484100D01*
X15671800Y-12534100D01*
X15671800Y-12788100D02*
X15721800Y-12738100D01*
X15671800Y-12688100D01*
X15621800Y-12738100D01*
X15671800Y-12788100D01*
X15671800Y-13042100D02*
X15721800Y-12992100D01*
X15671800Y-12942100D01*
X15621800Y-12992100D01*
X15671800Y-13042100D01*
X15671800Y-13296100D02*
X15721800Y-13246100D01*
X15671800Y-13196100D01*
X15621800Y-13246100D01*
X15671800Y-13296100D01*
X15671800Y-13550100D02*
X15721800Y-13500100D01*
X15671800Y-13450100D01*
X15621800Y-13500100D01*
X15671800Y-13550100D01*
X15671800Y-13804100D02*
X15721800Y-13754100D01*
X15671800Y-13704100D01*
X15621800Y-13754100D01*
X15671800Y-13804100D01*
X15671800Y-14058100D02*
X15721800Y-14008100D01*
X15671800Y-13958100D01*
X15621800Y-14008100D01*
X15671800Y-14058100D01*
X15671800Y-14312100D02*
X15721800Y-14262100D01*
X15671800Y-14212100D01*
X15621800Y-14262100D01*
X15671800Y-14312100D01*
X15671800Y-14566100D02*
X15721800Y-14516100D01*
X15671800Y-14466100D01*
X15621800Y-14516100D01*
X15671800Y-14566100D01*
X15671800Y-14820100D02*
X15721800Y-14770100D01*
X15671800Y-14720100D01*
X15621800Y-14770100D01*
X15671800Y-14820100D01*
X15846680Y-5681180D02*
X15896680Y-5631180D01*
X15846680Y-5581180D01*
X15796680Y-5631180D01*
X15846680Y-5681180D01*
X15846680Y-6461180D02*
X15896680Y-6411180D01*
X15846680Y-6361180D01*
X15796680Y-6411180D01*
X15846680Y-6461180D01*
X15846680Y-7241180D02*
X15896680Y-7191180D01*
X15846680Y-7141180D01*
X15796680Y-7191180D01*
X15846680Y-7241180D01*
X15850680Y-8017980D02*
X15900680Y-7967980D01*
X15850680Y-7917980D01*
X15800680Y-7967980D01*
X15850680Y-8017980D01*
X16052800Y-10248100D02*
X16102800Y-10198100D01*
X16052800Y-10148100D01*
X16002800Y-10198100D01*
X16052800Y-10248100D01*
X16052800Y-10502100D02*
X16102800Y-10452100D01*
X16052800Y-10402100D01*
X16002800Y-10452100D01*
X16052800Y-10502100D01*
X16052800Y-10756100D02*
X16102800Y-10706100D01*
X16052800Y-10656100D01*
X16002800Y-10706100D01*
X16052800Y-10756100D01*
X16052800Y-11010100D02*
X16102800Y-10960100D01*
X16052800Y-10910100D01*
X16002800Y-10960100D01*
X16052800Y-11010100D01*
X16052800Y-11264100D02*
X16102800Y-11214100D01*
X16052800Y-11164100D01*
X16002800Y-11214100D01*
X16052800Y-11264100D01*
X16052800Y-11518100D02*
X16102800Y-11468100D01*
X16052800Y-11418100D01*
X16002800Y-11468100D01*
X16052800Y-11518100D01*
X16052800Y-11772100D02*
X16102800Y-11722100D01*
X16052800Y-11672100D01*
X16002800Y-11722100D01*
X16052800Y-11772100D01*
X16052800Y-12026100D02*
X16102800Y-11976100D01*
X16052800Y-11926100D01*
X16002800Y-11976100D01*
X16052800Y-12026100D01*
X16052800Y-12280100D02*
X16102800Y-12230100D01*
X16052800Y-12180100D01*
X16002800Y-12230100D01*
X16052800Y-12280100D01*
X16052800Y-12534100D02*
X16102800Y-12484100D01*
X16052800Y-12434100D01*
X16002800Y-12484100D01*
X16052800Y-12534100D01*
X16052800Y-12788100D02*
X16102800Y-12738100D01*
X16052800Y-12688100D01*
X16002800Y-12738100D01*
X16052800Y-12788100D01*
X16052800Y-13042100D02*
X16102800Y-12992100D01*
X16052800Y-12942100D01*
X16002800Y-12992100D01*
X16052800Y-13042100D01*
X16052800Y-13296100D02*
X16102800Y-13246100D01*
X16052800Y-13196100D01*
X16002800Y-13246100D01*
X16052800Y-13296100D01*
X16052800Y-13550100D02*
X16102800Y-13500100D01*
X16052800Y-13450100D01*
X16002800Y-13500100D01*
X16052800Y-13550100D01*
X16052800Y-13804100D02*
X16102800Y-13754100D01*
X16052800Y-13704100D01*
X16002800Y-13754100D01*
X16052800Y-13804100D01*
X16052800Y-14058100D02*
X16102800Y-14008100D01*
X16052800Y-13958100D01*
X16002800Y-14008100D01*
X16052800Y-14058100D01*
X16052800Y-14312100D02*
X16102800Y-14262100D01*
X16052800Y-14212100D01*
X16002800Y-14262100D01*
X16052800Y-14312100D01*
X16052800Y-14566100D02*
X16102800Y-14516100D01*
X16052800Y-14466100D01*
X16002800Y-14516100D01*
X16052800Y-14566100D01*
X16052800Y-14820100D02*
X16102800Y-14770100D01*
X16052800Y-14720100D01*
X16002800Y-14770100D01*
X16052800Y-14820100D01*
X17934940Y-7898100D02*
X17984940Y-7848100D01*
X17934940Y-7798100D01*
X17884940Y-7848100D01*
X17934940Y-7898100D01*
X17934940Y-8152100D02*
X17984940Y-8102100D01*
X17934940Y-8052100D01*
X17884940Y-8102100D01*
X17934940Y-8152100D01*
X18400000Y-9384500D02*
X18450000Y-9334500D01*
X18400000Y-9284500D01*
X18350000Y-9334500D01*
X18400000Y-9384500D01*
X18400000Y-9638500D02*
X18450000Y-9588500D01*
X18400000Y-9538500D01*
X18350000Y-9588500D01*
X18400000Y-9638500D01*
X18400000Y-9892500D02*
X18450000Y-9842500D01*
X18400000Y-9792500D01*
X18350000Y-9842500D01*
X18400000Y-9892500D01*
X18400000Y-10146500D02*
X18450000Y-10096500D01*
X18400000Y-10046500D01*
X18350000Y-10096500D01*
X18400000Y-10146500D01*
X18400000Y-10400500D02*
X18450000Y-10350500D01*
X18400000Y-10300500D01*
X18350000Y-10350500D01*
X18400000Y-10400500D01*
X18400000Y-10654500D02*
X18450000Y-10604500D01*
X18400000Y-10554500D01*
X18350000Y-10604500D01*
X18400000Y-10654500D01*
X18400000Y-10908500D02*
X18450000Y-10858500D01*
X18400000Y-10808500D01*
X18350000Y-10858500D01*
X18400000Y-10908500D01*
X18400000Y-11162500D02*
X18450000Y-11112500D01*
X18400000Y-11062500D01*
X18350000Y-11112500D01*
X18400000Y-11162500D01*
X18400000Y-11416500D02*
X18450000Y-11366500D01*
X18400000Y-11316500D01*
X18350000Y-11366500D01*
X18400000Y-11416500D01*
X18400000Y-11670500D02*
X18450000Y-11620500D01*
X18400000Y-11570500D01*
X18350000Y-11620500D01*
X18400000Y-11670500D01*
X18400000Y-11924500D02*
X18450000Y-11874500D01*
X18400000Y-11824500D01*
X18350000Y-11874500D01*
X18400000Y-11924500D01*
X18445480Y-7898100D02*
X18495480Y-7848100D01*
X18445480Y-7798100D01*
X18395480Y-7848100D01*
X18445480Y-7898100D01*
X18445480Y-8152100D02*
X18495480Y-8102100D01*
X18445480Y-8052100D01*
X18395480Y-8102100D01*
X18445480Y-8152100D01*
X18950940Y-7898600D02*
X19000940Y-7848600D01*
X18950940Y-7798600D01*
X18900940Y-7848600D01*
X18950940Y-7898600D01*
X18950940Y-8152600D02*
X19000940Y-8102600D01*
X18950940Y-8052600D01*
X18900940Y-8102600D01*
X18950940Y-8152600D01*
D13*
X9865000Y-12488800D02*
X10135000Y-12758800D01*
X10135000Y-12488800D02*
X9865000Y-12758800D01*
X10135000Y-12623800D02*
G75*
G02*
X9865000Y-12623800I-135000J0D01*
G01*
X9865000Y-12623800D02*
G75*
G02*
X10135000Y-12623800I135000J0D01*
G01*
X9865000Y-12988800D02*
X10135000Y-13258800D01*
X10135000Y-12988800D02*
X9865000Y-13258800D01*
X10135000Y-13123800D02*
G75*
G02*
X9865000Y-13123800I-135000J0D01*
G01*
X9865000Y-13123800D02*
G75*
G02*
X10135000Y-13123800I135000J0D01*
G01*
X9865000Y-13885800D02*
X10135000Y-14155800D01*
X10135000Y-13885800D02*
X9865000Y-14155800D01*
X10135000Y-14020800D02*
G75*
G02*
X9865000Y-14020800I-135000J0D01*
G01*
X9865000Y-14020800D02*
G75*
G02*
X10135000Y-14020800I135000J0D01*
G01*
X9865000Y-14385800D02*
X10135000Y-14655800D01*
X10135000Y-14385800D02*
X9865000Y-14655800D01*
X10135000Y-14520800D02*
G75*
G02*
X9865000Y-14520800I-135000J0D01*
G01*
X9865000Y-14520800D02*
G75*
G02*
X10135000Y-14520800I135000J0D01*
G01*
X11146500Y-10530000D02*
X11416500Y-10800000D01*
X11416500Y-10530000D02*
X11146500Y-10800000D01*
X11416500Y-10665000D02*
G75*
G02*
X11146500Y-10665000I-135000J0D01*
G01*
X11146500Y-10665000D02*
G75*
G02*
X11416500Y-10665000I135000J0D01*
G01*
X11146500Y-11030000D02*
X11416500Y-11300000D01*
X11416500Y-11030000D02*
X11146500Y-11300000D01*
X11416500Y-11165000D02*
G75*
G02*
X11146500Y-11165000I-135000J0D01*
G01*
X11146500Y-11165000D02*
G75*
G02*
X11416500Y-11165000I135000J0D01*
G01*
X11146500Y-11927000D02*
X11416500Y-12197000D01*
X11416500Y-11927000D02*
X11146500Y-12197000D01*
X11416500Y-12062000D02*
G75*
G02*
X11146500Y-12062000I-135000J0D01*
G01*
X11146500Y-12062000D02*
G75*
G02*
X11416500Y-12062000I135000J0D01*
G01*
X11146500Y-12427000D02*
X11416500Y-12697000D01*
X11416500Y-12427000D02*
X11146500Y-12697000D01*
X11416500Y-12562000D02*
G75*
G02*
X11146500Y-12562000I-135000J0D01*
G01*
X11146500Y-12562000D02*
G75*
G02*
X11416500Y-12562000I135000J0D01*
G01*
X17746600Y-12503000D02*
X18016600Y-12773000D01*
X18016600Y-12503000D02*
X17746600Y-12773000D01*
X18016600Y-12638000D02*
G75*
G02*
X17746600Y-12638000I-135000J0D01*
G01*
X17746600Y-12638000D02*
G75*
G02*
X18016600Y-12638000I135000J0D01*
G01*
X17746600Y-13003000D02*
X18016600Y-13273000D01*
X18016600Y-13003000D02*
X17746600Y-13273000D01*
X18016600Y-13138000D02*
G75*
G02*
X17746600Y-13138000I-135000J0D01*
G01*
X17746600Y-13138000D02*
G75*
G02*
X18016600Y-13138000I135000J0D01*
G01*
X17746600Y-13900000D02*
X18016600Y-14170000D01*
X18016600Y-13900000D02*
X17746600Y-14170000D01*
X18016600Y-14035000D02*
G75*
G02*
X17746600Y-14035000I-135000J0D01*
G01*
X17746600Y-14035000D02*
G75*
G02*
X18016600Y-14035000I135000J0D01*
G01*
X17746600Y-14400000D02*
X18016600Y-14670000D01*
X18016600Y-14400000D02*
X17746600Y-14670000D01*
X18016600Y-14535000D02*
G75*
G02*
X17746600Y-14535000I-135000J0D01*
G01*
X17746600Y-14535000D02*
G75*
G02*
X18016600Y-14535000I135000J0D01*
G01*
X18905000Y-10414000D02*
X19175000Y-10684000D01*
X19175000Y-10414000D02*
X18905000Y-10684000D01*
X19175000Y-10549000D02*
G75*
G02*
X18905000Y-10549000I-135000J0D01*
G01*
X18905000Y-10549000D02*
G75*
G02*
X19175000Y-10549000I135000J0D01*
G01*
X18905000Y-10914000D02*
X19175000Y-11184000D01*
X19175000Y-10914000D02*
X18905000Y-11184000D01*
X19175000Y-11049000D02*
G75*
G02*
X18905000Y-11049000I-135000J0D01*
G01*
X18905000Y-11049000D02*
G75*
G02*
X19175000Y-11049000I135000J0D01*
G01*
X18905000Y-11811000D02*
X19175000Y-12081000D01*
X19175000Y-11811000D02*
X18905000Y-12081000D01*
X19175000Y-11946000D02*
G75*
G02*
X18905000Y-11946000I-135000J0D01*
G01*
X18905000Y-11946000D02*
G75*
G02*
X19175000Y-11946000I135000J0D01*
G01*
X18905000Y-12311000D02*
X19175000Y-12581000D01*
X19175000Y-12311000D02*
X18905000Y-12581000D01*
X19175000Y-12446000D02*
G75*
G02*
X18905000Y-12446000I-135000J0D01*
G01*
X18905000Y-12446000D02*
G75*
G02*
X19175000Y-12446000I135000J0D01*
G01*
D14*
X17924700Y-5680540D02*
X18379700Y-6135540D01*
X18379700Y-5680540D02*
X17924700Y-6135540D01*
X18152200Y-5680540D02*
X18152200Y-6135540D01*
X17924700Y-5908040D02*
X18379700Y-5908040D01*
X17924700Y-6846400D02*
X18379700Y-7301400D01*
X18379700Y-6846400D02*
X17924700Y-7301400D01*
X18152200Y-6846400D02*
X18152200Y-7301400D01*
X17924700Y-7073900D02*
X18379700Y-7073900D01*
X18644700Y-5680540D02*
X19099700Y-6135540D01*
X19099700Y-5680540D02*
X18644700Y-6135540D01*
X18872200Y-5680540D02*
X18872200Y-6135540D01*
X18644700Y-5908040D02*
X19099700Y-5908040D01*
X18644700Y-6846400D02*
X19099700Y-7301400D01*
X19099700Y-6846400D02*
X18644700Y-7301400D01*
X18872200Y-6846400D02*
X18872200Y-7301400D01*
X18644700Y-7073900D02*
X19099700Y-7073900D01*
D11*
X9758277Y-15513984D02*
X9758277Y-15313984D01*
X9758277Y-15313984D02*
X9805896Y-15313984D01*
X9805896Y-15313984D02*
X9834467Y-15323508D01*
X9834467Y-15323508D02*
X9853515Y-15342555D01*
X9853515Y-15342555D02*
X9863039Y-15361603D01*
X9863039Y-15361603D02*
X9872563Y-15399698D01*
X9872563Y-15399698D02*
X9872563Y-15428269D01*
X9872563Y-15428269D02*
X9863039Y-15466365D01*
X9863039Y-15466365D02*
X9853515Y-15485412D01*
X9853515Y-15485412D02*
X9834467Y-15504460D01*
X9834467Y-15504460D02*
X9805896Y-15513984D01*
X9805896Y-15513984D02*
X9758277Y-15513984D01*
X9958277Y-15513984D02*
X9958277Y-15380650D01*
X9958277Y-15418746D02*
X9967801Y-15399698D01*
X9967801Y-15399698D02*
X9977324Y-15390174D01*
X9977324Y-15390174D02*
X9996372Y-15380650D01*
X9996372Y-15380650D02*
X10015420Y-15380650D01*
X10082086Y-15513984D02*
X10082086Y-15380650D01*
X10082086Y-15313984D02*
X10072563Y-15323508D01*
X10072563Y-15323508D02*
X10082086Y-15333031D01*
X10082086Y-15333031D02*
X10091610Y-15323508D01*
X10091610Y-15323508D02*
X10082086Y-15313984D01*
X10082086Y-15313984D02*
X10082086Y-15333031D01*
X10205896Y-15513984D02*
X10186848Y-15504460D01*
X10186848Y-15504460D02*
X10177324Y-15485412D01*
X10177324Y-15485412D02*
X10177324Y-15313984D01*
X10310658Y-15513984D02*
X10291610Y-15504460D01*
X10291610Y-15504460D02*
X10282086Y-15485412D01*
X10282086Y-15485412D02*
X10282086Y-15313984D01*
X10539229Y-15513984D02*
X10539229Y-15313984D01*
X10539229Y-15313984D02*
X10605896Y-15456841D01*
X10605896Y-15456841D02*
X10672563Y-15313984D01*
X10672563Y-15313984D02*
X10672563Y-15513984D01*
X10853515Y-15513984D02*
X10853515Y-15409222D01*
X10853515Y-15409222D02*
X10843991Y-15390174D01*
X10843991Y-15390174D02*
X10824944Y-15380650D01*
X10824944Y-15380650D02*
X10786848Y-15380650D01*
X10786848Y-15380650D02*
X10767801Y-15390174D01*
X10853515Y-15504460D02*
X10834467Y-15513984D01*
X10834467Y-15513984D02*
X10786848Y-15513984D01*
X10786848Y-15513984D02*
X10767801Y-15504460D01*
X10767801Y-15504460D02*
X10758277Y-15485412D01*
X10758277Y-15485412D02*
X10758277Y-15466365D01*
X10758277Y-15466365D02*
X10767801Y-15447317D01*
X10767801Y-15447317D02*
X10786848Y-15437793D01*
X10786848Y-15437793D02*
X10834467Y-15437793D01*
X10834467Y-15437793D02*
X10853515Y-15428269D01*
X10948753Y-15380650D02*
X10948753Y-15580650D01*
X10948753Y-15390174D02*
X10967801Y-15380650D01*
X10967801Y-15380650D02*
X11005896Y-15380650D01*
X11005896Y-15380650D02*
X11024944Y-15390174D01*
X11024944Y-15390174D02*
X11034467Y-15399698D01*
X11034467Y-15399698D02*
X11043991Y-15418746D01*
X11043991Y-15418746D02*
X11043991Y-15475888D01*
X11043991Y-15475888D02*
X11034467Y-15494936D01*
X11034467Y-15494936D02*
X11024944Y-15504460D01*
X11024944Y-15504460D02*
X11005896Y-15513984D01*
X11005896Y-15513984D02*
X10967801Y-15513984D01*
X10967801Y-15513984D02*
X10948753Y-15504460D01*
X11129705Y-15494936D02*
X11139229Y-15504460D01*
X11139229Y-15504460D02*
X11129705Y-15513984D01*
X11129705Y-15513984D02*
X11120182Y-15504460D01*
X11120182Y-15504460D02*
X11129705Y-15494936D01*
X11129705Y-15494936D02*
X11129705Y-15513984D01*
X11129705Y-15390174D02*
X11139229Y-15399698D01*
X11139229Y-15399698D02*
X11129705Y-15409222D01*
X11129705Y-15409222D02*
X11120182Y-15399698D01*
X11120182Y-15399698D02*
X11129705Y-15390174D01*
X11129705Y-15390174D02*
X11129705Y-15409222D01*
D12*
X9467500Y-15827500D02*
X9497500Y-15857500D01*
X9497500Y-15827500D02*
X9467500Y-15857500D01*
D11*
X9796372Y-15733984D02*
X9815420Y-15733984D01*
X9815420Y-15733984D02*
X9834467Y-15743508D01*
X9834467Y-15743508D02*
X9843991Y-15753031D01*
X9843991Y-15753031D02*
X9853515Y-15772079D01*
X9853515Y-15772079D02*
X9863039Y-15810174D01*
X9863039Y-15810174D02*
X9863039Y-15857793D01*
X9863039Y-15857793D02*
X9853515Y-15895888D01*
X9853515Y-15895888D02*
X9843991Y-15914936D01*
X9843991Y-15914936D02*
X9834467Y-15924460D01*
X9834467Y-15924460D02*
X9815420Y-15933984D01*
X9815420Y-15933984D02*
X9796372Y-15933984D01*
X9796372Y-15933984D02*
X9777324Y-15924460D01*
X9777324Y-15924460D02*
X9767801Y-15914936D01*
X9767801Y-15914936D02*
X9758277Y-15895888D01*
X9758277Y-15895888D02*
X9748753Y-15857793D01*
X9748753Y-15857793D02*
X9748753Y-15810174D01*
X9748753Y-15810174D02*
X9758277Y-15772079D01*
X9758277Y-15772079D02*
X9767801Y-15753031D01*
X9767801Y-15753031D02*
X9777324Y-15743508D01*
X9777324Y-15743508D02*
X9796372Y-15733984D01*
X9948753Y-15914936D02*
X9958277Y-15924460D01*
X9958277Y-15924460D02*
X9948753Y-15933984D01*
X9948753Y-15933984D02*
X9939229Y-15924460D01*
X9939229Y-15924460D02*
X9948753Y-15914936D01*
X9948753Y-15914936D02*
X9948753Y-15933984D01*
X10024944Y-15733984D02*
X10148753Y-15733984D01*
X10148753Y-15733984D02*
X10082086Y-15810174D01*
X10082086Y-15810174D02*
X10110658Y-15810174D01*
X10110658Y-15810174D02*
X10129705Y-15819698D01*
X10129705Y-15819698D02*
X10139229Y-15829222D01*
X10139229Y-15829222D02*
X10148753Y-15848269D01*
X10148753Y-15848269D02*
X10148753Y-15895888D01*
X10148753Y-15895888D02*
X10139229Y-15914936D01*
X10139229Y-15914936D02*
X10129705Y-15924460D01*
X10129705Y-15924460D02*
X10110658Y-15933984D01*
X10110658Y-15933984D02*
X10053515Y-15933984D01*
X10053515Y-15933984D02*
X10034467Y-15924460D01*
X10034467Y-15924460D02*
X10024944Y-15914936D01*
X10272563Y-15733984D02*
X10291610Y-15733984D01*
X10291610Y-15733984D02*
X10310658Y-15743508D01*
X10310658Y-15743508D02*
X10320182Y-15753031D01*
X10320182Y-15753031D02*
X10329705Y-15772079D01*
X10329705Y-15772079D02*
X10339229Y-15810174D01*
X10339229Y-15810174D02*
X10339229Y-15857793D01*
X10339229Y-15857793D02*
X10329705Y-15895888D01*
X10329705Y-15895888D02*
X10320182Y-15914936D01*
X10320182Y-15914936D02*
X10310658Y-15924460D01*
X10310658Y-15924460D02*
X10291610Y-15933984D01*
X10291610Y-15933984D02*
X10272563Y-15933984D01*
X10272563Y-15933984D02*
X10253515Y-15924460D01*
X10253515Y-15924460D02*
X10243991Y-15914936D01*
X10243991Y-15914936D02*
X10234467Y-15895888D01*
X10234467Y-15895888D02*
X10224944Y-15857793D01*
X10224944Y-15857793D02*
X10224944Y-15810174D01*
X10224944Y-15810174D02*
X10234467Y-15772079D01*
X10234467Y-15772079D02*
X10243991Y-15753031D01*
X10243991Y-15753031D02*
X10253515Y-15743508D01*
X10253515Y-15743508D02*
X10272563Y-15733984D01*
X10463039Y-15733984D02*
X10482086Y-15733984D01*
X10482086Y-15733984D02*
X10501134Y-15743508D01*
X10501134Y-15743508D02*
X10510658Y-15753031D01*
X10510658Y-15753031D02*
X10520182Y-15772079D01*
X10520182Y-15772079D02*
X10529705Y-15810174D01*
X10529705Y-15810174D02*
X10529705Y-15857793D01*
X10529705Y-15857793D02*
X10520182Y-15895888D01*
X10520182Y-15895888D02*
X10510658Y-15914936D01*
X10510658Y-15914936D02*
X10501134Y-15924460D01*
X10501134Y-15924460D02*
X10482086Y-15933984D01*
X10482086Y-15933984D02*
X10463039Y-15933984D01*
X10463039Y-15933984D02*
X10443991Y-15924460D01*
X10443991Y-15924460D02*
X10434467Y-15914936D01*
X10434467Y-15914936D02*
X10424944Y-15895888D01*
X10424944Y-15895888D02*
X10415420Y-15857793D01*
X10415420Y-15857793D02*
X10415420Y-15810174D01*
X10415420Y-15810174D02*
X10424944Y-15772079D01*
X10424944Y-15772079D02*
X10434467Y-15753031D01*
X10434467Y-15753031D02*
X10443991Y-15743508D01*
X10443991Y-15743508D02*
X10463039Y-15733984D01*
X10615420Y-15933984D02*
X10615420Y-15800650D01*
X10615420Y-15819698D02*
X10624944Y-15810174D01*
X10624944Y-15810174D02*
X10643991Y-15800650D01*
X10643991Y-15800650D02*
X10672563Y-15800650D01*
X10672563Y-15800650D02*
X10691610Y-15810174D01*
X10691610Y-15810174D02*
X10701134Y-15829222D01*
X10701134Y-15829222D02*
X10701134Y-15933984D01*
X10701134Y-15829222D02*
X10710658Y-15810174D01*
X10710658Y-15810174D02*
X10729705Y-15800650D01*
X10729705Y-15800650D02*
X10758277Y-15800650D01*
X10758277Y-15800650D02*
X10777325Y-15810174D01*
X10777325Y-15810174D02*
X10786848Y-15829222D01*
X10786848Y-15829222D02*
X10786848Y-15933984D01*
X10882086Y-15933984D02*
X10882086Y-15800650D01*
X10882086Y-15819698D02*
X10891610Y-15810174D01*
X10891610Y-15810174D02*
X10910658Y-15800650D01*
X10910658Y-15800650D02*
X10939229Y-15800650D01*
X10939229Y-15800650D02*
X10958277Y-15810174D01*
X10958277Y-15810174D02*
X10967801Y-15829222D01*
X10967801Y-15829222D02*
X10967801Y-15933984D01*
X10967801Y-15829222D02*
X10977325Y-15810174D01*
X10977325Y-15810174D02*
X10996372Y-15800650D01*
X10996372Y-15800650D02*
X11024944Y-15800650D01*
X11024944Y-15800650D02*
X11043991Y-15810174D01*
X11043991Y-15810174D02*
X11053515Y-15829222D01*
X11053515Y-15829222D02*
X11053515Y-15933984D01*
X11443991Y-15724460D02*
X11272563Y-15981603D01*
X11701134Y-15733984D02*
X11720182Y-15733984D01*
X11720182Y-15733984D02*
X11739229Y-15743508D01*
X11739229Y-15743508D02*
X11748753Y-15753031D01*
X11748753Y-15753031D02*
X11758277Y-15772079D01*
X11758277Y-15772079D02*
X11767801Y-15810174D01*
X11767801Y-15810174D02*
X11767801Y-15857793D01*
X11767801Y-15857793D02*
X11758277Y-15895888D01*
X11758277Y-15895888D02*
X11748753Y-15914936D01*
X11748753Y-15914936D02*
X11739229Y-15924460D01*
X11739229Y-15924460D02*
X11720182Y-15933984D01*
X11720182Y-15933984D02*
X11701134Y-15933984D01*
X11701134Y-15933984D02*
X11682086Y-15924460D01*
X11682086Y-15924460D02*
X11672563Y-15914936D01*
X11672563Y-15914936D02*
X11663039Y-15895888D01*
X11663039Y-15895888D02*
X11653515Y-15857793D01*
X11653515Y-15857793D02*
X11653515Y-15810174D01*
X11653515Y-15810174D02*
X11663039Y-15772079D01*
X11663039Y-15772079D02*
X11672563Y-15753031D01*
X11672563Y-15753031D02*
X11682086Y-15743508D01*
X11682086Y-15743508D02*
X11701134Y-15733984D01*
X11853515Y-15914936D02*
X11863039Y-15924460D01*
X11863039Y-15924460D02*
X11853515Y-15933984D01*
X11853515Y-15933984D02*
X11843991Y-15924460D01*
X11843991Y-15924460D02*
X11853515Y-15914936D01*
X11853515Y-15914936D02*
X11853515Y-15933984D01*
X11986848Y-15733984D02*
X12005896Y-15733984D01*
X12005896Y-15733984D02*
X12024944Y-15743508D01*
X12024944Y-15743508D02*
X12034467Y-15753031D01*
X12034467Y-15753031D02*
X12043991Y-15772079D01*
X12043991Y-15772079D02*
X12053515Y-15810174D01*
X12053515Y-15810174D02*
X12053515Y-15857793D01*
X12053515Y-15857793D02*
X12043991Y-15895888D01*
X12043991Y-15895888D02*
X12034467Y-15914936D01*
X12034467Y-15914936D02*
X12024944Y-15924460D01*
X12024944Y-15924460D02*
X12005896Y-15933984D01*
X12005896Y-15933984D02*
X11986848Y-15933984D01*
X11986848Y-15933984D02*
X11967801Y-15924460D01*
X11967801Y-15924460D02*
X11958277Y-15914936D01*
X11958277Y-15914936D02*
X11948753Y-15895888D01*
X11948753Y-15895888D02*
X11939229Y-15857793D01*
X11939229Y-15857793D02*
X11939229Y-15810174D01*
X11939229Y-15810174D02*
X11948753Y-15772079D01*
X11948753Y-15772079D02*
X11958277Y-15753031D01*
X11958277Y-15753031D02*
X11967801Y-15743508D01*
X11967801Y-15743508D02*
X11986848Y-15733984D01*
X12243991Y-15933984D02*
X12129706Y-15933984D01*
X12186848Y-15933984D02*
X12186848Y-15733984D01*
X12186848Y-15733984D02*
X12167801Y-15762555D01*
X12167801Y-15762555D02*
X12148753Y-15781603D01*
X12148753Y-15781603D02*
X12129706Y-15791127D01*
X12434467Y-15933984D02*
X12320182Y-15933984D01*
X12377325Y-15933984D02*
X12377325Y-15733984D01*
X12377325Y-15733984D02*
X12358277Y-15762555D01*
X12358277Y-15762555D02*
X12339229Y-15781603D01*
X12339229Y-15781603D02*
X12320182Y-15791127D01*
X12548753Y-15819698D02*
X12529706Y-15810174D01*
X12529706Y-15810174D02*
X12520182Y-15800650D01*
X12520182Y-15800650D02*
X12510658Y-15781603D01*
X12510658Y-15781603D02*
X12510658Y-15772079D01*
X12510658Y-15772079D02*
X12520182Y-15753031D01*
X12520182Y-15753031D02*
X12529706Y-15743508D01*
X12529706Y-15743508D02*
X12548753Y-15733984D01*
X12548753Y-15733984D02*
X12586848Y-15733984D01*
X12586848Y-15733984D02*
X12605896Y-15743508D01*
X12605896Y-15743508D02*
X12615420Y-15753031D01*
X12615420Y-15753031D02*
X12624944Y-15772079D01*
X12624944Y-15772079D02*
X12624944Y-15781603D01*
X12624944Y-15781603D02*
X12615420Y-15800650D01*
X12615420Y-15800650D02*
X12605896Y-15810174D01*
X12605896Y-15810174D02*
X12586848Y-15819698D01*
X12586848Y-15819698D02*
X12548753Y-15819698D01*
X12548753Y-15819698D02*
X12529706Y-15829222D01*
X12529706Y-15829222D02*
X12520182Y-15838746D01*
X12520182Y-15838746D02*
X12510658Y-15857793D01*
X12510658Y-15857793D02*
X12510658Y-15895888D01*
X12510658Y-15895888D02*
X12520182Y-15914936D01*
X12520182Y-15914936D02*
X12529706Y-15924460D01*
X12529706Y-15924460D02*
X12548753Y-15933984D01*
X12548753Y-15933984D02*
X12586848Y-15933984D01*
X12586848Y-15933984D02*
X12605896Y-15924460D01*
X12605896Y-15924460D02*
X12615420Y-15914936D01*
X12615420Y-15914936D02*
X12624944Y-15895888D01*
X12624944Y-15895888D02*
X12624944Y-15857793D01*
X12624944Y-15857793D02*
X12615420Y-15838746D01*
X12615420Y-15838746D02*
X12605896Y-15829222D01*
X12605896Y-15829222D02*
X12586848Y-15819698D01*
X12701134Y-15733984D02*
X12701134Y-15772079D01*
X12777325Y-15733984D02*
X12777325Y-15772079D01*
X13072563Y-16010174D02*
X13063039Y-16000650D01*
X13063039Y-16000650D02*
X13043991Y-15972079D01*
X13043991Y-15972079D02*
X13034468Y-15953031D01*
X13034468Y-15953031D02*
X13024944Y-15924460D01*
X13024944Y-15924460D02*
X13015420Y-15876841D01*
X13015420Y-15876841D02*
X13015420Y-15838746D01*
X13015420Y-15838746D02*
X13024944Y-15791127D01*
X13024944Y-15791127D02*
X13034468Y-15762555D01*
X13034468Y-15762555D02*
X13043991Y-15743508D01*
X13043991Y-15743508D02*
X13063039Y-15714936D01*
X13063039Y-15714936D02*
X13072563Y-15705412D01*
X13253515Y-15933984D02*
X13139229Y-15933984D01*
X13196372Y-15933984D02*
X13196372Y-15733984D01*
X13196372Y-15733984D02*
X13177325Y-15762555D01*
X13177325Y-15762555D02*
X13158277Y-15781603D01*
X13158277Y-15781603D02*
X13139229Y-15791127D01*
X13443991Y-15933984D02*
X13329706Y-15933984D01*
X13386848Y-15933984D02*
X13386848Y-15733984D01*
X13386848Y-15733984D02*
X13367801Y-15762555D01*
X13367801Y-15762555D02*
X13348753Y-15781603D01*
X13348753Y-15781603D02*
X13329706Y-15791127D01*
X13567801Y-15733984D02*
X13586849Y-15733984D01*
X13586849Y-15733984D02*
X13605896Y-15743508D01*
X13605896Y-15743508D02*
X13615420Y-15753031D01*
X13615420Y-15753031D02*
X13624944Y-15772079D01*
X13624944Y-15772079D02*
X13634468Y-15810174D01*
X13634468Y-15810174D02*
X13634468Y-15857793D01*
X13634468Y-15857793D02*
X13624944Y-15895888D01*
X13624944Y-15895888D02*
X13615420Y-15914936D01*
X13615420Y-15914936D02*
X13605896Y-15924460D01*
X13605896Y-15924460D02*
X13586849Y-15933984D01*
X13586849Y-15933984D02*
X13567801Y-15933984D01*
X13567801Y-15933984D02*
X13548753Y-15924460D01*
X13548753Y-15924460D02*
X13539229Y-15914936D01*
X13539229Y-15914936D02*
X13529706Y-15895888D01*
X13529706Y-15895888D02*
X13520182Y-15857793D01*
X13520182Y-15857793D02*
X13520182Y-15810174D01*
X13520182Y-15810174D02*
X13529706Y-15772079D01*
X13529706Y-15772079D02*
X13539229Y-15753031D01*
X13539229Y-15753031D02*
X13548753Y-15743508D01*
X13548753Y-15743508D02*
X13567801Y-15733984D01*
X13872563Y-15933984D02*
X13872563Y-15733984D01*
X13958277Y-15933984D02*
X13958277Y-15829222D01*
X13958277Y-15829222D02*
X13948753Y-15810174D01*
X13948753Y-15810174D02*
X13929706Y-15800650D01*
X13929706Y-15800650D02*
X13901134Y-15800650D01*
X13901134Y-15800650D02*
X13882087Y-15810174D01*
X13882087Y-15810174D02*
X13872563Y-15819698D01*
X14082087Y-15933984D02*
X14063039Y-15924460D01*
X14063039Y-15924460D02*
X14053515Y-15914936D01*
X14053515Y-15914936D02*
X14043991Y-15895888D01*
X14043991Y-15895888D02*
X14043991Y-15838746D01*
X14043991Y-15838746D02*
X14053515Y-15819698D01*
X14053515Y-15819698D02*
X14063039Y-15810174D01*
X14063039Y-15810174D02*
X14082087Y-15800650D01*
X14082087Y-15800650D02*
X14110658Y-15800650D01*
X14110658Y-15800650D02*
X14129706Y-15810174D01*
X14129706Y-15810174D02*
X14139230Y-15819698D01*
X14139230Y-15819698D02*
X14148753Y-15838746D01*
X14148753Y-15838746D02*
X14148753Y-15895888D01*
X14148753Y-15895888D02*
X14139230Y-15914936D01*
X14139230Y-15914936D02*
X14129706Y-15924460D01*
X14129706Y-15924460D02*
X14110658Y-15933984D01*
X14110658Y-15933984D02*
X14082087Y-15933984D01*
X14263039Y-15933984D02*
X14243991Y-15924460D01*
X14243991Y-15924460D02*
X14234468Y-15905412D01*
X14234468Y-15905412D02*
X14234468Y-15733984D01*
X14415420Y-15924460D02*
X14396372Y-15933984D01*
X14396372Y-15933984D02*
X14358277Y-15933984D01*
X14358277Y-15933984D02*
X14339230Y-15924460D01*
X14339230Y-15924460D02*
X14329706Y-15905412D01*
X14329706Y-15905412D02*
X14329706Y-15829222D01*
X14329706Y-15829222D02*
X14339230Y-15810174D01*
X14339230Y-15810174D02*
X14358277Y-15800650D01*
X14358277Y-15800650D02*
X14396372Y-15800650D01*
X14396372Y-15800650D02*
X14415420Y-15810174D01*
X14415420Y-15810174D02*
X14424944Y-15829222D01*
X14424944Y-15829222D02*
X14424944Y-15848269D01*
X14424944Y-15848269D02*
X14329706Y-15867317D01*
X14501134Y-15924460D02*
X14520182Y-15933984D01*
X14520182Y-15933984D02*
X14558277Y-15933984D01*
X14558277Y-15933984D02*
X14577325Y-15924460D01*
X14577325Y-15924460D02*
X14586849Y-15905412D01*
X14586849Y-15905412D02*
X14586849Y-15895888D01*
X14586849Y-15895888D02*
X14577325Y-15876841D01*
X14577325Y-15876841D02*
X14558277Y-15867317D01*
X14558277Y-15867317D02*
X14529706Y-15867317D01*
X14529706Y-15867317D02*
X14510658Y-15857793D01*
X14510658Y-15857793D02*
X14501134Y-15838746D01*
X14501134Y-15838746D02*
X14501134Y-15829222D01*
X14501134Y-15829222D02*
X14510658Y-15810174D01*
X14510658Y-15810174D02*
X14529706Y-15800650D01*
X14529706Y-15800650D02*
X14558277Y-15800650D01*
X14558277Y-15800650D02*
X14577325Y-15810174D01*
X14653515Y-16010174D02*
X14663039Y-16000650D01*
X14663039Y-16000650D02*
X14682087Y-15972079D01*
X14682087Y-15972079D02*
X14691611Y-15953031D01*
X14691611Y-15953031D02*
X14701134Y-15924460D01*
X14701134Y-15924460D02*
X14710658Y-15876841D01*
X14710658Y-15876841D02*
X14710658Y-15838746D01*
X14710658Y-15838746D02*
X14701134Y-15791127D01*
X14701134Y-15791127D02*
X14691611Y-15762555D01*
X14691611Y-15762555D02*
X14682087Y-15743508D01*
X14682087Y-15743508D02*
X14663039Y-15714936D01*
X14663039Y-15714936D02*
X14653515Y-15705412D01*
D12*
X9497500Y-16106500D02*
G75*
G02*
X9417500Y-16106500I-40000J0D01*
G01*
X9417500Y-16106500D02*
G75*
G02*
X9497500Y-16106500I40000J0D01*
G01*
D11*
X9796372Y-15997984D02*
X9815420Y-15997984D01*
X9815420Y-15997984D02*
X9834467Y-16007508D01*
X9834467Y-16007508D02*
X9843991Y-16017031D01*
X9843991Y-16017031D02*
X9853515Y-16036079D01*
X9853515Y-16036079D02*
X9863039Y-16074174D01*
X9863039Y-16074174D02*
X9863039Y-16121793D01*
X9863039Y-16121793D02*
X9853515Y-16159888D01*
X9853515Y-16159888D02*
X9843991Y-16178936D01*
X9843991Y-16178936D02*
X9834467Y-16188460D01*
X9834467Y-16188460D02*
X9815420Y-16197984D01*
X9815420Y-16197984D02*
X9796372Y-16197984D01*
X9796372Y-16197984D02*
X9777324Y-16188460D01*
X9777324Y-16188460D02*
X9767801Y-16178936D01*
X9767801Y-16178936D02*
X9758277Y-16159888D01*
X9758277Y-16159888D02*
X9748753Y-16121793D01*
X9748753Y-16121793D02*
X9748753Y-16074174D01*
X9748753Y-16074174D02*
X9758277Y-16036079D01*
X9758277Y-16036079D02*
X9767801Y-16017031D01*
X9767801Y-16017031D02*
X9777324Y-16007508D01*
X9777324Y-16007508D02*
X9796372Y-15997984D01*
X9948753Y-16178936D02*
X9958277Y-16188460D01*
X9958277Y-16188460D02*
X9948753Y-16197984D01*
X9948753Y-16197984D02*
X9939229Y-16188460D01*
X9939229Y-16188460D02*
X9948753Y-16178936D01*
X9948753Y-16178936D02*
X9948753Y-16197984D01*
X10072563Y-16083698D02*
X10053515Y-16074174D01*
X10053515Y-16074174D02*
X10043991Y-16064650D01*
X10043991Y-16064650D02*
X10034467Y-16045603D01*
X10034467Y-16045603D02*
X10034467Y-16036079D01*
X10034467Y-16036079D02*
X10043991Y-16017031D01*
X10043991Y-16017031D02*
X10053515Y-16007508D01*
X10053515Y-16007508D02*
X10072563Y-15997984D01*
X10072563Y-15997984D02*
X10110658Y-15997984D01*
X10110658Y-15997984D02*
X10129705Y-16007508D01*
X10129705Y-16007508D02*
X10139229Y-16017031D01*
X10139229Y-16017031D02*
X10148753Y-16036079D01*
X10148753Y-16036079D02*
X10148753Y-16045603D01*
X10148753Y-16045603D02*
X10139229Y-16064650D01*
X10139229Y-16064650D02*
X10129705Y-16074174D01*
X10129705Y-16074174D02*
X10110658Y-16083698D01*
X10110658Y-16083698D02*
X10072563Y-16083698D01*
X10072563Y-16083698D02*
X10053515Y-16093222D01*
X10053515Y-16093222D02*
X10043991Y-16102746D01*
X10043991Y-16102746D02*
X10034467Y-16121793D01*
X10034467Y-16121793D02*
X10034467Y-16159888D01*
X10034467Y-16159888D02*
X10043991Y-16178936D01*
X10043991Y-16178936D02*
X10053515Y-16188460D01*
X10053515Y-16188460D02*
X10072563Y-16197984D01*
X10072563Y-16197984D02*
X10110658Y-16197984D01*
X10110658Y-16197984D02*
X10129705Y-16188460D01*
X10129705Y-16188460D02*
X10139229Y-16178936D01*
X10139229Y-16178936D02*
X10148753Y-16159888D01*
X10148753Y-16159888D02*
X10148753Y-16121793D01*
X10148753Y-16121793D02*
X10139229Y-16102746D01*
X10139229Y-16102746D02*
X10129705Y-16093222D01*
X10129705Y-16093222D02*
X10110658Y-16083698D01*
X10272563Y-15997984D02*
X10291610Y-15997984D01*
X10291610Y-15997984D02*
X10310658Y-16007508D01*
X10310658Y-16007508D02*
X10320182Y-16017031D01*
X10320182Y-16017031D02*
X10329705Y-16036079D01*
X10329705Y-16036079D02*
X10339229Y-16074174D01*
X10339229Y-16074174D02*
X10339229Y-16121793D01*
X10339229Y-16121793D02*
X10329705Y-16159888D01*
X10329705Y-16159888D02*
X10320182Y-16178936D01*
X10320182Y-16178936D02*
X10310658Y-16188460D01*
X10310658Y-16188460D02*
X10291610Y-16197984D01*
X10291610Y-16197984D02*
X10272563Y-16197984D01*
X10272563Y-16197984D02*
X10253515Y-16188460D01*
X10253515Y-16188460D02*
X10243991Y-16178936D01*
X10243991Y-16178936D02*
X10234467Y-16159888D01*
X10234467Y-16159888D02*
X10224944Y-16121793D01*
X10224944Y-16121793D02*
X10224944Y-16074174D01*
X10224944Y-16074174D02*
X10234467Y-16036079D01*
X10234467Y-16036079D02*
X10243991Y-16017031D01*
X10243991Y-16017031D02*
X10253515Y-16007508D01*
X10253515Y-16007508D02*
X10272563Y-15997984D01*
X10463039Y-15997984D02*
X10482086Y-15997984D01*
X10482086Y-15997984D02*
X10501134Y-16007508D01*
X10501134Y-16007508D02*
X10510658Y-16017031D01*
X10510658Y-16017031D02*
X10520182Y-16036079D01*
X10520182Y-16036079D02*
X10529705Y-16074174D01*
X10529705Y-16074174D02*
X10529705Y-16121793D01*
X10529705Y-16121793D02*
X10520182Y-16159888D01*
X10520182Y-16159888D02*
X10510658Y-16178936D01*
X10510658Y-16178936D02*
X10501134Y-16188460D01*
X10501134Y-16188460D02*
X10482086Y-16197984D01*
X10482086Y-16197984D02*
X10463039Y-16197984D01*
X10463039Y-16197984D02*
X10443991Y-16188460D01*
X10443991Y-16188460D02*
X10434467Y-16178936D01*
X10434467Y-16178936D02*
X10424944Y-16159888D01*
X10424944Y-16159888D02*
X10415420Y-16121793D01*
X10415420Y-16121793D02*
X10415420Y-16074174D01*
X10415420Y-16074174D02*
X10424944Y-16036079D01*
X10424944Y-16036079D02*
X10434467Y-16017031D01*
X10434467Y-16017031D02*
X10443991Y-16007508D01*
X10443991Y-16007508D02*
X10463039Y-15997984D01*
X10615420Y-16197984D02*
X10615420Y-16064650D01*
X10615420Y-16083698D02*
X10624944Y-16074174D01*
X10624944Y-16074174D02*
X10643991Y-16064650D01*
X10643991Y-16064650D02*
X10672563Y-16064650D01*
X10672563Y-16064650D02*
X10691610Y-16074174D01*
X10691610Y-16074174D02*
X10701134Y-16093222D01*
X10701134Y-16093222D02*
X10701134Y-16197984D01*
X10701134Y-16093222D02*
X10710658Y-16074174D01*
X10710658Y-16074174D02*
X10729705Y-16064650D01*
X10729705Y-16064650D02*
X10758277Y-16064650D01*
X10758277Y-16064650D02*
X10777325Y-16074174D01*
X10777325Y-16074174D02*
X10786848Y-16093222D01*
X10786848Y-16093222D02*
X10786848Y-16197984D01*
X10882086Y-16197984D02*
X10882086Y-16064650D01*
X10882086Y-16083698D02*
X10891610Y-16074174D01*
X10891610Y-16074174D02*
X10910658Y-16064650D01*
X10910658Y-16064650D02*
X10939229Y-16064650D01*
X10939229Y-16064650D02*
X10958277Y-16074174D01*
X10958277Y-16074174D02*
X10967801Y-16093222D01*
X10967801Y-16093222D02*
X10967801Y-16197984D01*
X10967801Y-16093222D02*
X10977325Y-16074174D01*
X10977325Y-16074174D02*
X10996372Y-16064650D01*
X10996372Y-16064650D02*
X11024944Y-16064650D01*
X11024944Y-16064650D02*
X11043991Y-16074174D01*
X11043991Y-16074174D02*
X11053515Y-16093222D01*
X11053515Y-16093222D02*
X11053515Y-16197984D01*
X11443991Y-15988460D02*
X11272563Y-16245603D01*
X11701134Y-15997984D02*
X11720182Y-15997984D01*
X11720182Y-15997984D02*
X11739229Y-16007508D01*
X11739229Y-16007508D02*
X11748753Y-16017031D01*
X11748753Y-16017031D02*
X11758277Y-16036079D01*
X11758277Y-16036079D02*
X11767801Y-16074174D01*
X11767801Y-16074174D02*
X11767801Y-16121793D01*
X11767801Y-16121793D02*
X11758277Y-16159888D01*
X11758277Y-16159888D02*
X11748753Y-16178936D01*
X11748753Y-16178936D02*
X11739229Y-16188460D01*
X11739229Y-16188460D02*
X11720182Y-16197984D01*
X11720182Y-16197984D02*
X11701134Y-16197984D01*
X11701134Y-16197984D02*
X11682086Y-16188460D01*
X11682086Y-16188460D02*
X11672563Y-16178936D01*
X11672563Y-16178936D02*
X11663039Y-16159888D01*
X11663039Y-16159888D02*
X11653515Y-16121793D01*
X11653515Y-16121793D02*
X11653515Y-16074174D01*
X11653515Y-16074174D02*
X11663039Y-16036079D01*
X11663039Y-16036079D02*
X11672563Y-16017031D01*
X11672563Y-16017031D02*
X11682086Y-16007508D01*
X11682086Y-16007508D02*
X11701134Y-15997984D01*
X11853515Y-16178936D02*
X11863039Y-16188460D01*
X11863039Y-16188460D02*
X11853515Y-16197984D01*
X11853515Y-16197984D02*
X11843991Y-16188460D01*
X11843991Y-16188460D02*
X11853515Y-16178936D01*
X11853515Y-16178936D02*
X11853515Y-16197984D01*
X11986848Y-15997984D02*
X12005896Y-15997984D01*
X12005896Y-15997984D02*
X12024944Y-16007508D01*
X12024944Y-16007508D02*
X12034467Y-16017031D01*
X12034467Y-16017031D02*
X12043991Y-16036079D01*
X12043991Y-16036079D02*
X12053515Y-16074174D01*
X12053515Y-16074174D02*
X12053515Y-16121793D01*
X12053515Y-16121793D02*
X12043991Y-16159888D01*
X12043991Y-16159888D02*
X12034467Y-16178936D01*
X12034467Y-16178936D02*
X12024944Y-16188460D01*
X12024944Y-16188460D02*
X12005896Y-16197984D01*
X12005896Y-16197984D02*
X11986848Y-16197984D01*
X11986848Y-16197984D02*
X11967801Y-16188460D01*
X11967801Y-16188460D02*
X11958277Y-16178936D01*
X11958277Y-16178936D02*
X11948753Y-16159888D01*
X11948753Y-16159888D02*
X11939229Y-16121793D01*
X11939229Y-16121793D02*
X11939229Y-16074174D01*
X11939229Y-16074174D02*
X11948753Y-16036079D01*
X11948753Y-16036079D02*
X11958277Y-16017031D01*
X11958277Y-16017031D02*
X11967801Y-16007508D01*
X11967801Y-16007508D02*
X11986848Y-15997984D01*
X12120182Y-15997984D02*
X12243991Y-15997984D01*
X12243991Y-15997984D02*
X12177325Y-16074174D01*
X12177325Y-16074174D02*
X12205896Y-16074174D01*
X12205896Y-16074174D02*
X12224944Y-16083698D01*
X12224944Y-16083698D02*
X12234467Y-16093222D01*
X12234467Y-16093222D02*
X12243991Y-16112269D01*
X12243991Y-16112269D02*
X12243991Y-16159888D01*
X12243991Y-16159888D02*
X12234467Y-16178936D01*
X12234467Y-16178936D02*
X12224944Y-16188460D01*
X12224944Y-16188460D02*
X12205896Y-16197984D01*
X12205896Y-16197984D02*
X12148753Y-16197984D01*
X12148753Y-16197984D02*
X12129706Y-16188460D01*
X12129706Y-16188460D02*
X12120182Y-16178936D01*
X12434467Y-16197984D02*
X12320182Y-16197984D01*
X12377325Y-16197984D02*
X12377325Y-15997984D01*
X12377325Y-15997984D02*
X12358277Y-16026555D01*
X12358277Y-16026555D02*
X12339229Y-16045603D01*
X12339229Y-16045603D02*
X12320182Y-16055127D01*
X12615420Y-15997984D02*
X12520182Y-15997984D01*
X12520182Y-15997984D02*
X12510658Y-16093222D01*
X12510658Y-16093222D02*
X12520182Y-16083698D01*
X12520182Y-16083698D02*
X12539229Y-16074174D01*
X12539229Y-16074174D02*
X12586848Y-16074174D01*
X12586848Y-16074174D02*
X12605896Y-16083698D01*
X12605896Y-16083698D02*
X12615420Y-16093222D01*
X12615420Y-16093222D02*
X12624944Y-16112269D01*
X12624944Y-16112269D02*
X12624944Y-16159888D01*
X12624944Y-16159888D02*
X12615420Y-16178936D01*
X12615420Y-16178936D02*
X12605896Y-16188460D01*
X12605896Y-16188460D02*
X12586848Y-16197984D01*
X12586848Y-16197984D02*
X12539229Y-16197984D01*
X12539229Y-16197984D02*
X12520182Y-16188460D01*
X12520182Y-16188460D02*
X12510658Y-16178936D01*
X12701134Y-15997984D02*
X12701134Y-16036079D01*
X12777325Y-15997984D02*
X12777325Y-16036079D01*
X13072563Y-16274174D02*
X13063039Y-16264650D01*
X13063039Y-16264650D02*
X13043991Y-16236079D01*
X13043991Y-16236079D02*
X13034468Y-16217031D01*
X13034468Y-16217031D02*
X13024944Y-16188460D01*
X13024944Y-16188460D02*
X13015420Y-16140841D01*
X13015420Y-16140841D02*
X13015420Y-16102746D01*
X13015420Y-16102746D02*
X13024944Y-16055127D01*
X13024944Y-16055127D02*
X13034468Y-16026555D01*
X13034468Y-16026555D02*
X13043991Y-16007508D01*
X13043991Y-16007508D02*
X13063039Y-15978936D01*
X13063039Y-15978936D02*
X13072563Y-15969412D01*
X13139229Y-16017031D02*
X13148753Y-16007508D01*
X13148753Y-16007508D02*
X13167801Y-15997984D01*
X13167801Y-15997984D02*
X13215420Y-15997984D01*
X13215420Y-15997984D02*
X13234468Y-16007508D01*
X13234468Y-16007508D02*
X13243991Y-16017031D01*
X13243991Y-16017031D02*
X13253515Y-16036079D01*
X13253515Y-16036079D02*
X13253515Y-16055127D01*
X13253515Y-16055127D02*
X13243991Y-16083698D01*
X13243991Y-16083698D02*
X13129706Y-16197984D01*
X13129706Y-16197984D02*
X13253515Y-16197984D01*
X13367801Y-16083698D02*
X13348753Y-16074174D01*
X13348753Y-16074174D02*
X13339229Y-16064650D01*
X13339229Y-16064650D02*
X13329706Y-16045603D01*
X13329706Y-16045603D02*
X13329706Y-16036079D01*
X13329706Y-16036079D02*
X13339229Y-16017031D01*
X13339229Y-16017031D02*
X13348753Y-16007508D01*
X13348753Y-16007508D02*
X13367801Y-15997984D01*
X13367801Y-15997984D02*
X13405896Y-15997984D01*
X13405896Y-15997984D02*
X13424944Y-16007508D01*
X13424944Y-16007508D02*
X13434468Y-16017031D01*
X13434468Y-16017031D02*
X13443991Y-16036079D01*
X13443991Y-16036079D02*
X13443991Y-16045603D01*
X13443991Y-16045603D02*
X13434468Y-16064650D01*
X13434468Y-16064650D02*
X13424944Y-16074174D01*
X13424944Y-16074174D02*
X13405896Y-16083698D01*
X13405896Y-16083698D02*
X13367801Y-16083698D01*
X13367801Y-16083698D02*
X13348753Y-16093222D01*
X13348753Y-16093222D02*
X13339229Y-16102746D01*
X13339229Y-16102746D02*
X13329706Y-16121793D01*
X13329706Y-16121793D02*
X13329706Y-16159888D01*
X13329706Y-16159888D02*
X13339229Y-16178936D01*
X13339229Y-16178936D02*
X13348753Y-16188460D01*
X13348753Y-16188460D02*
X13367801Y-16197984D01*
X13367801Y-16197984D02*
X13405896Y-16197984D01*
X13405896Y-16197984D02*
X13424944Y-16188460D01*
X13424944Y-16188460D02*
X13434468Y-16178936D01*
X13434468Y-16178936D02*
X13443991Y-16159888D01*
X13443991Y-16159888D02*
X13443991Y-16121793D01*
X13443991Y-16121793D02*
X13434468Y-16102746D01*
X13434468Y-16102746D02*
X13424944Y-16093222D01*
X13424944Y-16093222D02*
X13405896Y-16083698D01*
X13682087Y-16197984D02*
X13682087Y-15997984D01*
X13767801Y-16197984D02*
X13767801Y-16093222D01*
X13767801Y-16093222D02*
X13758277Y-16074174D01*
X13758277Y-16074174D02*
X13739230Y-16064650D01*
X13739230Y-16064650D02*
X13710658Y-16064650D01*
X13710658Y-16064650D02*
X13691610Y-16074174D01*
X13691610Y-16074174D02*
X13682087Y-16083698D01*
X13891610Y-16197984D02*
X13872563Y-16188460D01*
X13872563Y-16188460D02*
X13863039Y-16178936D01*
X13863039Y-16178936D02*
X13853515Y-16159888D01*
X13853515Y-16159888D02*
X13853515Y-16102746D01*
X13853515Y-16102746D02*
X13863039Y-16083698D01*
X13863039Y-16083698D02*
X13872563Y-16074174D01*
X13872563Y-16074174D02*
X13891610Y-16064650D01*
X13891610Y-16064650D02*
X13920182Y-16064650D01*
X13920182Y-16064650D02*
X13939230Y-16074174D01*
X13939230Y-16074174D02*
X13948753Y-16083698D01*
X13948753Y-16083698D02*
X13958277Y-16102746D01*
X13958277Y-16102746D02*
X13958277Y-16159888D01*
X13958277Y-16159888D02*
X13948753Y-16178936D01*
X13948753Y-16178936D02*
X13939230Y-16188460D01*
X13939230Y-16188460D02*
X13920182Y-16197984D01*
X13920182Y-16197984D02*
X13891610Y-16197984D01*
X14072563Y-16197984D02*
X14053515Y-16188460D01*
X14053515Y-16188460D02*
X14043991Y-16169412D01*
X14043991Y-16169412D02*
X14043991Y-15997984D01*
X14224944Y-16188460D02*
X14205896Y-16197984D01*
X14205896Y-16197984D02*
X14167801Y-16197984D01*
X14167801Y-16197984D02*
X14148753Y-16188460D01*
X14148753Y-16188460D02*
X14139230Y-16169412D01*
X14139230Y-16169412D02*
X14139230Y-16093222D01*
X14139230Y-16093222D02*
X14148753Y-16074174D01*
X14148753Y-16074174D02*
X14167801Y-16064650D01*
X14167801Y-16064650D02*
X14205896Y-16064650D01*
X14205896Y-16064650D02*
X14224944Y-16074174D01*
X14224944Y-16074174D02*
X14234468Y-16093222D01*
X14234468Y-16093222D02*
X14234468Y-16112269D01*
X14234468Y-16112269D02*
X14139230Y-16131317D01*
X14310658Y-16188460D02*
X14329706Y-16197984D01*
X14329706Y-16197984D02*
X14367801Y-16197984D01*
X14367801Y-16197984D02*
X14386849Y-16188460D01*
X14386849Y-16188460D02*
X14396372Y-16169412D01*
X14396372Y-16169412D02*
X14396372Y-16159888D01*
X14396372Y-16159888D02*
X14386849Y-16140841D01*
X14386849Y-16140841D02*
X14367801Y-16131317D01*
X14367801Y-16131317D02*
X14339230Y-16131317D01*
X14339230Y-16131317D02*
X14320182Y-16121793D01*
X14320182Y-16121793D02*
X14310658Y-16102746D01*
X14310658Y-16102746D02*
X14310658Y-16093222D01*
X14310658Y-16093222D02*
X14320182Y-16074174D01*
X14320182Y-16074174D02*
X14339230Y-16064650D01*
X14339230Y-16064650D02*
X14367801Y-16064650D01*
X14367801Y-16064650D02*
X14386849Y-16074174D01*
X14463039Y-16274174D02*
X14472563Y-16264650D01*
X14472563Y-16264650D02*
X14491611Y-16236079D01*
X14491611Y-16236079D02*
X14501134Y-16217031D01*
X14501134Y-16217031D02*
X14510658Y-16188460D01*
X14510658Y-16188460D02*
X14520182Y-16140841D01*
X14520182Y-16140841D02*
X14520182Y-16102746D01*
X14520182Y-16102746D02*
X14510658Y-16055127D01*
X14510658Y-16055127D02*
X14501134Y-16026555D01*
X14501134Y-16026555D02*
X14491611Y-16007508D01*
X14491611Y-16007508D02*
X14472563Y-15978936D01*
X14472563Y-15978936D02*
X14463039Y-15969412D01*
D12*
X9452500Y-16325500D02*
X9452500Y-16415500D01*
X9407500Y-16370500D02*
X9497500Y-16370500D01*
D11*
X9796372Y-16261984D02*
X9815420Y-16261984D01*
X9815420Y-16261984D02*
X9834467Y-16271508D01*
X9834467Y-16271508D02*
X9843991Y-16281031D01*
X9843991Y-16281031D02*
X9853515Y-16300079D01*
X9853515Y-16300079D02*
X9863039Y-16338174D01*
X9863039Y-16338174D02*
X9863039Y-16385793D01*
X9863039Y-16385793D02*
X9853515Y-16423888D01*
X9853515Y-16423888D02*
X9843991Y-16442936D01*
X9843991Y-16442936D02*
X9834467Y-16452460D01*
X9834467Y-16452460D02*
X9815420Y-16461984D01*
X9815420Y-16461984D02*
X9796372Y-16461984D01*
X9796372Y-16461984D02*
X9777324Y-16452460D01*
X9777324Y-16452460D02*
X9767801Y-16442936D01*
X9767801Y-16442936D02*
X9758277Y-16423888D01*
X9758277Y-16423888D02*
X9748753Y-16385793D01*
X9748753Y-16385793D02*
X9748753Y-16338174D01*
X9748753Y-16338174D02*
X9758277Y-16300079D01*
X9758277Y-16300079D02*
X9767801Y-16281031D01*
X9767801Y-16281031D02*
X9777324Y-16271508D01*
X9777324Y-16271508D02*
X9796372Y-16261984D01*
X9948753Y-16442936D02*
X9958277Y-16452460D01*
X9958277Y-16452460D02*
X9948753Y-16461984D01*
X9948753Y-16461984D02*
X9939229Y-16452460D01*
X9939229Y-16452460D02*
X9948753Y-16442936D01*
X9948753Y-16442936D02*
X9948753Y-16461984D01*
X10053515Y-16461984D02*
X10091610Y-16461984D01*
X10091610Y-16461984D02*
X10110658Y-16452460D01*
X10110658Y-16452460D02*
X10120182Y-16442936D01*
X10120182Y-16442936D02*
X10139229Y-16414365D01*
X10139229Y-16414365D02*
X10148753Y-16376269D01*
X10148753Y-16376269D02*
X10148753Y-16300079D01*
X10148753Y-16300079D02*
X10139229Y-16281031D01*
X10139229Y-16281031D02*
X10129705Y-16271508D01*
X10129705Y-16271508D02*
X10110658Y-16261984D01*
X10110658Y-16261984D02*
X10072563Y-16261984D01*
X10072563Y-16261984D02*
X10053515Y-16271508D01*
X10053515Y-16271508D02*
X10043991Y-16281031D01*
X10043991Y-16281031D02*
X10034467Y-16300079D01*
X10034467Y-16300079D02*
X10034467Y-16347698D01*
X10034467Y-16347698D02*
X10043991Y-16366746D01*
X10043991Y-16366746D02*
X10053515Y-16376269D01*
X10053515Y-16376269D02*
X10072563Y-16385793D01*
X10072563Y-16385793D02*
X10110658Y-16385793D01*
X10110658Y-16385793D02*
X10129705Y-16376269D01*
X10129705Y-16376269D02*
X10139229Y-16366746D01*
X10139229Y-16366746D02*
X10148753Y-16347698D01*
X10272563Y-16261984D02*
X10291610Y-16261984D01*
X10291610Y-16261984D02*
X10310658Y-16271508D01*
X10310658Y-16271508D02*
X10320182Y-16281031D01*
X10320182Y-16281031D02*
X10329705Y-16300079D01*
X10329705Y-16300079D02*
X10339229Y-16338174D01*
X10339229Y-16338174D02*
X10339229Y-16385793D01*
X10339229Y-16385793D02*
X10329705Y-16423888D01*
X10329705Y-16423888D02*
X10320182Y-16442936D01*
X10320182Y-16442936D02*
X10310658Y-16452460D01*
X10310658Y-16452460D02*
X10291610Y-16461984D01*
X10291610Y-16461984D02*
X10272563Y-16461984D01*
X10272563Y-16461984D02*
X10253515Y-16452460D01*
X10253515Y-16452460D02*
X10243991Y-16442936D01*
X10243991Y-16442936D02*
X10234467Y-16423888D01*
X10234467Y-16423888D02*
X10224944Y-16385793D01*
X10224944Y-16385793D02*
X10224944Y-16338174D01*
X10224944Y-16338174D02*
X10234467Y-16300079D01*
X10234467Y-16300079D02*
X10243991Y-16281031D01*
X10243991Y-16281031D02*
X10253515Y-16271508D01*
X10253515Y-16271508D02*
X10272563Y-16261984D01*
X10463039Y-16261984D02*
X10482086Y-16261984D01*
X10482086Y-16261984D02*
X10501134Y-16271508D01*
X10501134Y-16271508D02*
X10510658Y-16281031D01*
X10510658Y-16281031D02*
X10520182Y-16300079D01*
X10520182Y-16300079D02*
X10529705Y-16338174D01*
X10529705Y-16338174D02*
X10529705Y-16385793D01*
X10529705Y-16385793D02*
X10520182Y-16423888D01*
X10520182Y-16423888D02*
X10510658Y-16442936D01*
X10510658Y-16442936D02*
X10501134Y-16452460D01*
X10501134Y-16452460D02*
X10482086Y-16461984D01*
X10482086Y-16461984D02*
X10463039Y-16461984D01*
X10463039Y-16461984D02*
X10443991Y-16452460D01*
X10443991Y-16452460D02*
X10434467Y-16442936D01*
X10434467Y-16442936D02*
X10424944Y-16423888D01*
X10424944Y-16423888D02*
X10415420Y-16385793D01*
X10415420Y-16385793D02*
X10415420Y-16338174D01*
X10415420Y-16338174D02*
X10424944Y-16300079D01*
X10424944Y-16300079D02*
X10434467Y-16281031D01*
X10434467Y-16281031D02*
X10443991Y-16271508D01*
X10443991Y-16271508D02*
X10463039Y-16261984D01*
X10615420Y-16461984D02*
X10615420Y-16328650D01*
X10615420Y-16347698D02*
X10624944Y-16338174D01*
X10624944Y-16338174D02*
X10643991Y-16328650D01*
X10643991Y-16328650D02*
X10672563Y-16328650D01*
X10672563Y-16328650D02*
X10691610Y-16338174D01*
X10691610Y-16338174D02*
X10701134Y-16357222D01*
X10701134Y-16357222D02*
X10701134Y-16461984D01*
X10701134Y-16357222D02*
X10710658Y-16338174D01*
X10710658Y-16338174D02*
X10729705Y-16328650D01*
X10729705Y-16328650D02*
X10758277Y-16328650D01*
X10758277Y-16328650D02*
X10777325Y-16338174D01*
X10777325Y-16338174D02*
X10786848Y-16357222D01*
X10786848Y-16357222D02*
X10786848Y-16461984D01*
X10882086Y-16461984D02*
X10882086Y-16328650D01*
X10882086Y-16347698D02*
X10891610Y-16338174D01*
X10891610Y-16338174D02*
X10910658Y-16328650D01*
X10910658Y-16328650D02*
X10939229Y-16328650D01*
X10939229Y-16328650D02*
X10958277Y-16338174D01*
X10958277Y-16338174D02*
X10967801Y-16357222D01*
X10967801Y-16357222D02*
X10967801Y-16461984D01*
X10967801Y-16357222D02*
X10977325Y-16338174D01*
X10977325Y-16338174D02*
X10996372Y-16328650D01*
X10996372Y-16328650D02*
X11024944Y-16328650D01*
X11024944Y-16328650D02*
X11043991Y-16338174D01*
X11043991Y-16338174D02*
X11053515Y-16357222D01*
X11053515Y-16357222D02*
X11053515Y-16461984D01*
X11443991Y-16252460D02*
X11272563Y-16509603D01*
X11701134Y-16261984D02*
X11720182Y-16261984D01*
X11720182Y-16261984D02*
X11739229Y-16271508D01*
X11739229Y-16271508D02*
X11748753Y-16281031D01*
X11748753Y-16281031D02*
X11758277Y-16300079D01*
X11758277Y-16300079D02*
X11767801Y-16338174D01*
X11767801Y-16338174D02*
X11767801Y-16385793D01*
X11767801Y-16385793D02*
X11758277Y-16423888D01*
X11758277Y-16423888D02*
X11748753Y-16442936D01*
X11748753Y-16442936D02*
X11739229Y-16452460D01*
X11739229Y-16452460D02*
X11720182Y-16461984D01*
X11720182Y-16461984D02*
X11701134Y-16461984D01*
X11701134Y-16461984D02*
X11682086Y-16452460D01*
X11682086Y-16452460D02*
X11672563Y-16442936D01*
X11672563Y-16442936D02*
X11663039Y-16423888D01*
X11663039Y-16423888D02*
X11653515Y-16385793D01*
X11653515Y-16385793D02*
X11653515Y-16338174D01*
X11653515Y-16338174D02*
X11663039Y-16300079D01*
X11663039Y-16300079D02*
X11672563Y-16281031D01*
X11672563Y-16281031D02*
X11682086Y-16271508D01*
X11682086Y-16271508D02*
X11701134Y-16261984D01*
X11853515Y-16442936D02*
X11863039Y-16452460D01*
X11863039Y-16452460D02*
X11853515Y-16461984D01*
X11853515Y-16461984D02*
X11843991Y-16452460D01*
X11843991Y-16452460D02*
X11853515Y-16442936D01*
X11853515Y-16442936D02*
X11853515Y-16461984D01*
X11986848Y-16261984D02*
X12005896Y-16261984D01*
X12005896Y-16261984D02*
X12024944Y-16271508D01*
X12024944Y-16271508D02*
X12034467Y-16281031D01*
X12034467Y-16281031D02*
X12043991Y-16300079D01*
X12043991Y-16300079D02*
X12053515Y-16338174D01*
X12053515Y-16338174D02*
X12053515Y-16385793D01*
X12053515Y-16385793D02*
X12043991Y-16423888D01*
X12043991Y-16423888D02*
X12034467Y-16442936D01*
X12034467Y-16442936D02*
X12024944Y-16452460D01*
X12024944Y-16452460D02*
X12005896Y-16461984D01*
X12005896Y-16461984D02*
X11986848Y-16461984D01*
X11986848Y-16461984D02*
X11967801Y-16452460D01*
X11967801Y-16452460D02*
X11958277Y-16442936D01*
X11958277Y-16442936D02*
X11948753Y-16423888D01*
X11948753Y-16423888D02*
X11939229Y-16385793D01*
X11939229Y-16385793D02*
X11939229Y-16338174D01*
X11939229Y-16338174D02*
X11948753Y-16300079D01*
X11948753Y-16300079D02*
X11958277Y-16281031D01*
X11958277Y-16281031D02*
X11967801Y-16271508D01*
X11967801Y-16271508D02*
X11986848Y-16261984D01*
X12120182Y-16261984D02*
X12243991Y-16261984D01*
X12243991Y-16261984D02*
X12177325Y-16338174D01*
X12177325Y-16338174D02*
X12205896Y-16338174D01*
X12205896Y-16338174D02*
X12224944Y-16347698D01*
X12224944Y-16347698D02*
X12234467Y-16357222D01*
X12234467Y-16357222D02*
X12243991Y-16376269D01*
X12243991Y-16376269D02*
X12243991Y-16423888D01*
X12243991Y-16423888D02*
X12234467Y-16442936D01*
X12234467Y-16442936D02*
X12224944Y-16452460D01*
X12224944Y-16452460D02*
X12205896Y-16461984D01*
X12205896Y-16461984D02*
X12148753Y-16461984D01*
X12148753Y-16461984D02*
X12129706Y-16452460D01*
X12129706Y-16452460D02*
X12120182Y-16442936D01*
X12424944Y-16261984D02*
X12329706Y-16261984D01*
X12329706Y-16261984D02*
X12320182Y-16357222D01*
X12320182Y-16357222D02*
X12329706Y-16347698D01*
X12329706Y-16347698D02*
X12348753Y-16338174D01*
X12348753Y-16338174D02*
X12396372Y-16338174D01*
X12396372Y-16338174D02*
X12415420Y-16347698D01*
X12415420Y-16347698D02*
X12424944Y-16357222D01*
X12424944Y-16357222D02*
X12434467Y-16376269D01*
X12434467Y-16376269D02*
X12434467Y-16423888D01*
X12434467Y-16423888D02*
X12424944Y-16442936D01*
X12424944Y-16442936D02*
X12415420Y-16452460D01*
X12415420Y-16452460D02*
X12396372Y-16461984D01*
X12396372Y-16461984D02*
X12348753Y-16461984D01*
X12348753Y-16461984D02*
X12329706Y-16452460D01*
X12329706Y-16452460D02*
X12320182Y-16442936D01*
X12605896Y-16328650D02*
X12605896Y-16461984D01*
X12558277Y-16252460D02*
X12510658Y-16395317D01*
X12510658Y-16395317D02*
X12634467Y-16395317D01*
X12701134Y-16261984D02*
X12701134Y-16300079D01*
X12777325Y-16261984D02*
X12777325Y-16300079D01*
X13072563Y-16538174D02*
X13063039Y-16528650D01*
X13063039Y-16528650D02*
X13043991Y-16500079D01*
X13043991Y-16500079D02*
X13034468Y-16481031D01*
X13034468Y-16481031D02*
X13024944Y-16452460D01*
X13024944Y-16452460D02*
X13015420Y-16404841D01*
X13015420Y-16404841D02*
X13015420Y-16366746D01*
X13015420Y-16366746D02*
X13024944Y-16319127D01*
X13024944Y-16319127D02*
X13034468Y-16290555D01*
X13034468Y-16290555D02*
X13043991Y-16271508D01*
X13043991Y-16271508D02*
X13063039Y-16242936D01*
X13063039Y-16242936D02*
X13072563Y-16233412D01*
X13139229Y-16281031D02*
X13148753Y-16271508D01*
X13148753Y-16271508D02*
X13167801Y-16261984D01*
X13167801Y-16261984D02*
X13215420Y-16261984D01*
X13215420Y-16261984D02*
X13234468Y-16271508D01*
X13234468Y-16271508D02*
X13243991Y-16281031D01*
X13243991Y-16281031D02*
X13253515Y-16300079D01*
X13253515Y-16300079D02*
X13253515Y-16319127D01*
X13253515Y-16319127D02*
X13243991Y-16347698D01*
X13243991Y-16347698D02*
X13129706Y-16461984D01*
X13129706Y-16461984D02*
X13253515Y-16461984D01*
X13491610Y-16461984D02*
X13491610Y-16261984D01*
X13577325Y-16461984D02*
X13577325Y-16357222D01*
X13577325Y-16357222D02*
X13567801Y-16338174D01*
X13567801Y-16338174D02*
X13548753Y-16328650D01*
X13548753Y-16328650D02*
X13520182Y-16328650D01*
X13520182Y-16328650D02*
X13501134Y-16338174D01*
X13501134Y-16338174D02*
X13491610Y-16347698D01*
X13701134Y-16461984D02*
X13682087Y-16452460D01*
X13682087Y-16452460D02*
X13672563Y-16442936D01*
X13672563Y-16442936D02*
X13663039Y-16423888D01*
X13663039Y-16423888D02*
X13663039Y-16366746D01*
X13663039Y-16366746D02*
X13672563Y-16347698D01*
X13672563Y-16347698D02*
X13682087Y-16338174D01*
X13682087Y-16338174D02*
X13701134Y-16328650D01*
X13701134Y-16328650D02*
X13729706Y-16328650D01*
X13729706Y-16328650D02*
X13748753Y-16338174D01*
X13748753Y-16338174D02*
X13758277Y-16347698D01*
X13758277Y-16347698D02*
X13767801Y-16366746D01*
X13767801Y-16366746D02*
X13767801Y-16423888D01*
X13767801Y-16423888D02*
X13758277Y-16442936D01*
X13758277Y-16442936D02*
X13748753Y-16452460D01*
X13748753Y-16452460D02*
X13729706Y-16461984D01*
X13729706Y-16461984D02*
X13701134Y-16461984D01*
X13882087Y-16461984D02*
X13863039Y-16452460D01*
X13863039Y-16452460D02*
X13853515Y-16433412D01*
X13853515Y-16433412D02*
X13853515Y-16261984D01*
X14034468Y-16452460D02*
X14015420Y-16461984D01*
X14015420Y-16461984D02*
X13977325Y-16461984D01*
X13977325Y-16461984D02*
X13958277Y-16452460D01*
X13958277Y-16452460D02*
X13948753Y-16433412D01*
X13948753Y-16433412D02*
X13948753Y-16357222D01*
X13948753Y-16357222D02*
X13958277Y-16338174D01*
X13958277Y-16338174D02*
X13977325Y-16328650D01*
X13977325Y-16328650D02*
X14015420Y-16328650D01*
X14015420Y-16328650D02*
X14034468Y-16338174D01*
X14034468Y-16338174D02*
X14043991Y-16357222D01*
X14043991Y-16357222D02*
X14043991Y-16376269D01*
X14043991Y-16376269D02*
X13948753Y-16395317D01*
X14120182Y-16452460D02*
X14139230Y-16461984D01*
X14139230Y-16461984D02*
X14177325Y-16461984D01*
X14177325Y-16461984D02*
X14196372Y-16452460D01*
X14196372Y-16452460D02*
X14205896Y-16433412D01*
X14205896Y-16433412D02*
X14205896Y-16423888D01*
X14205896Y-16423888D02*
X14196372Y-16404841D01*
X14196372Y-16404841D02*
X14177325Y-16395317D01*
X14177325Y-16395317D02*
X14148753Y-16395317D01*
X14148753Y-16395317D02*
X14129706Y-16385793D01*
X14129706Y-16385793D02*
X14120182Y-16366746D01*
X14120182Y-16366746D02*
X14120182Y-16357222D01*
X14120182Y-16357222D02*
X14129706Y-16338174D01*
X14129706Y-16338174D02*
X14148753Y-16328650D01*
X14148753Y-16328650D02*
X14177325Y-16328650D01*
X14177325Y-16328650D02*
X14196372Y-16338174D01*
X14272563Y-16538174D02*
X14282087Y-16528650D01*
X14282087Y-16528650D02*
X14301134Y-16500079D01*
X14301134Y-16500079D02*
X14310658Y-16481031D01*
X14310658Y-16481031D02*
X14320182Y-16452460D01*
X14320182Y-16452460D02*
X14329706Y-16404841D01*
X14329706Y-16404841D02*
X14329706Y-16366746D01*
X14329706Y-16366746D02*
X14320182Y-16319127D01*
X14320182Y-16319127D02*
X14310658Y-16290555D01*
X14310658Y-16290555D02*
X14301134Y-16271508D01*
X14301134Y-16271508D02*
X14282087Y-16242936D01*
X14282087Y-16242936D02*
X14272563Y-16233412D01*
D12*
X9483588Y-16668088D02*
X9483588Y-16600912D01*
X9416412Y-16600912D01*
X9416412Y-16668088D01*
X9483588Y-16668088D01*
D11*
X9796372Y-16525984D02*
X9815420Y-16525984D01*
X9815420Y-16525984D02*
X9834467Y-16535508D01*
X9834467Y-16535508D02*
X9843991Y-16545031D01*
X9843991Y-16545031D02*
X9853515Y-16564079D01*
X9853515Y-16564079D02*
X9863039Y-16602174D01*
X9863039Y-16602174D02*
X9863039Y-16649793D01*
X9863039Y-16649793D02*
X9853515Y-16687888D01*
X9853515Y-16687888D02*
X9843991Y-16706936D01*
X9843991Y-16706936D02*
X9834467Y-16716460D01*
X9834467Y-16716460D02*
X9815420Y-16725984D01*
X9815420Y-16725984D02*
X9796372Y-16725984D01*
X9796372Y-16725984D02*
X9777324Y-16716460D01*
X9777324Y-16716460D02*
X9767801Y-16706936D01*
X9767801Y-16706936D02*
X9758277Y-16687888D01*
X9758277Y-16687888D02*
X9748753Y-16649793D01*
X9748753Y-16649793D02*
X9748753Y-16602174D01*
X9748753Y-16602174D02*
X9758277Y-16564079D01*
X9758277Y-16564079D02*
X9767801Y-16545031D01*
X9767801Y-16545031D02*
X9777324Y-16535508D01*
X9777324Y-16535508D02*
X9796372Y-16525984D01*
X9948753Y-16706936D02*
X9958277Y-16716460D01*
X9958277Y-16716460D02*
X9948753Y-16725984D01*
X9948753Y-16725984D02*
X9939229Y-16716460D01*
X9939229Y-16716460D02*
X9948753Y-16706936D01*
X9948753Y-16706936D02*
X9948753Y-16725984D01*
X10053515Y-16725984D02*
X10091610Y-16725984D01*
X10091610Y-16725984D02*
X10110658Y-16716460D01*
X10110658Y-16716460D02*
X10120182Y-16706936D01*
X10120182Y-16706936D02*
X10139229Y-16678365D01*
X10139229Y-16678365D02*
X10148753Y-16640269D01*
X10148753Y-16640269D02*
X10148753Y-16564079D01*
X10148753Y-16564079D02*
X10139229Y-16545031D01*
X10139229Y-16545031D02*
X10129705Y-16535508D01*
X10129705Y-16535508D02*
X10110658Y-16525984D01*
X10110658Y-16525984D02*
X10072563Y-16525984D01*
X10072563Y-16525984D02*
X10053515Y-16535508D01*
X10053515Y-16535508D02*
X10043991Y-16545031D01*
X10043991Y-16545031D02*
X10034467Y-16564079D01*
X10034467Y-16564079D02*
X10034467Y-16611698D01*
X10034467Y-16611698D02*
X10043991Y-16630746D01*
X10043991Y-16630746D02*
X10053515Y-16640269D01*
X10053515Y-16640269D02*
X10072563Y-16649793D01*
X10072563Y-16649793D02*
X10110658Y-16649793D01*
X10110658Y-16649793D02*
X10129705Y-16640269D01*
X10129705Y-16640269D02*
X10139229Y-16630746D01*
X10139229Y-16630746D02*
X10148753Y-16611698D01*
X10329705Y-16525984D02*
X10234467Y-16525984D01*
X10234467Y-16525984D02*
X10224944Y-16621222D01*
X10224944Y-16621222D02*
X10234467Y-16611698D01*
X10234467Y-16611698D02*
X10253515Y-16602174D01*
X10253515Y-16602174D02*
X10301134Y-16602174D01*
X10301134Y-16602174D02*
X10320182Y-16611698D01*
X10320182Y-16611698D02*
X10329705Y-16621222D01*
X10329705Y-16621222D02*
X10339229Y-16640269D01*
X10339229Y-16640269D02*
X10339229Y-16687888D01*
X10339229Y-16687888D02*
X10329705Y-16706936D01*
X10329705Y-16706936D02*
X10320182Y-16716460D01*
X10320182Y-16716460D02*
X10301134Y-16725984D01*
X10301134Y-16725984D02*
X10253515Y-16725984D01*
X10253515Y-16725984D02*
X10234467Y-16716460D01*
X10234467Y-16716460D02*
X10224944Y-16706936D01*
X10463039Y-16525984D02*
X10482086Y-16525984D01*
X10482086Y-16525984D02*
X10501134Y-16535508D01*
X10501134Y-16535508D02*
X10510658Y-16545031D01*
X10510658Y-16545031D02*
X10520182Y-16564079D01*
X10520182Y-16564079D02*
X10529705Y-16602174D01*
X10529705Y-16602174D02*
X10529705Y-16649793D01*
X10529705Y-16649793D02*
X10520182Y-16687888D01*
X10520182Y-16687888D02*
X10510658Y-16706936D01*
X10510658Y-16706936D02*
X10501134Y-16716460D01*
X10501134Y-16716460D02*
X10482086Y-16725984D01*
X10482086Y-16725984D02*
X10463039Y-16725984D01*
X10463039Y-16725984D02*
X10443991Y-16716460D01*
X10443991Y-16716460D02*
X10434467Y-16706936D01*
X10434467Y-16706936D02*
X10424944Y-16687888D01*
X10424944Y-16687888D02*
X10415420Y-16649793D01*
X10415420Y-16649793D02*
X10415420Y-16602174D01*
X10415420Y-16602174D02*
X10424944Y-16564079D01*
X10424944Y-16564079D02*
X10434467Y-16545031D01*
X10434467Y-16545031D02*
X10443991Y-16535508D01*
X10443991Y-16535508D02*
X10463039Y-16525984D01*
X10615420Y-16725984D02*
X10615420Y-16592650D01*
X10615420Y-16611698D02*
X10624944Y-16602174D01*
X10624944Y-16602174D02*
X10643991Y-16592650D01*
X10643991Y-16592650D02*
X10672563Y-16592650D01*
X10672563Y-16592650D02*
X10691610Y-16602174D01*
X10691610Y-16602174D02*
X10701134Y-16621222D01*
X10701134Y-16621222D02*
X10701134Y-16725984D01*
X10701134Y-16621222D02*
X10710658Y-16602174D01*
X10710658Y-16602174D02*
X10729705Y-16592650D01*
X10729705Y-16592650D02*
X10758277Y-16592650D01*
X10758277Y-16592650D02*
X10777325Y-16602174D01*
X10777325Y-16602174D02*
X10786848Y-16621222D01*
X10786848Y-16621222D02*
X10786848Y-16725984D01*
X10882086Y-16725984D02*
X10882086Y-16592650D01*
X10882086Y-16611698D02*
X10891610Y-16602174D01*
X10891610Y-16602174D02*
X10910658Y-16592650D01*
X10910658Y-16592650D02*
X10939229Y-16592650D01*
X10939229Y-16592650D02*
X10958277Y-16602174D01*
X10958277Y-16602174D02*
X10967801Y-16621222D01*
X10967801Y-16621222D02*
X10967801Y-16725984D01*
X10967801Y-16621222D02*
X10977325Y-16602174D01*
X10977325Y-16602174D02*
X10996372Y-16592650D01*
X10996372Y-16592650D02*
X11024944Y-16592650D01*
X11024944Y-16592650D02*
X11043991Y-16602174D01*
X11043991Y-16602174D02*
X11053515Y-16621222D01*
X11053515Y-16621222D02*
X11053515Y-16725984D01*
X11443991Y-16516460D02*
X11272563Y-16773603D01*
X11701134Y-16525984D02*
X11720182Y-16525984D01*
X11720182Y-16525984D02*
X11739229Y-16535508D01*
X11739229Y-16535508D02*
X11748753Y-16545031D01*
X11748753Y-16545031D02*
X11758277Y-16564079D01*
X11758277Y-16564079D02*
X11767801Y-16602174D01*
X11767801Y-16602174D02*
X11767801Y-16649793D01*
X11767801Y-16649793D02*
X11758277Y-16687888D01*
X11758277Y-16687888D02*
X11748753Y-16706936D01*
X11748753Y-16706936D02*
X11739229Y-16716460D01*
X11739229Y-16716460D02*
X11720182Y-16725984D01*
X11720182Y-16725984D02*
X11701134Y-16725984D01*
X11701134Y-16725984D02*
X11682086Y-16716460D01*
X11682086Y-16716460D02*
X11672563Y-16706936D01*
X11672563Y-16706936D02*
X11663039Y-16687888D01*
X11663039Y-16687888D02*
X11653515Y-16649793D01*
X11653515Y-16649793D02*
X11653515Y-16602174D01*
X11653515Y-16602174D02*
X11663039Y-16564079D01*
X11663039Y-16564079D02*
X11672563Y-16545031D01*
X11672563Y-16545031D02*
X11682086Y-16535508D01*
X11682086Y-16535508D02*
X11701134Y-16525984D01*
X11853515Y-16706936D02*
X11863039Y-16716460D01*
X11863039Y-16716460D02*
X11853515Y-16725984D01*
X11853515Y-16725984D02*
X11843991Y-16716460D01*
X11843991Y-16716460D02*
X11853515Y-16706936D01*
X11853515Y-16706936D02*
X11853515Y-16725984D01*
X11986848Y-16525984D02*
X12005896Y-16525984D01*
X12005896Y-16525984D02*
X12024944Y-16535508D01*
X12024944Y-16535508D02*
X12034467Y-16545031D01*
X12034467Y-16545031D02*
X12043991Y-16564079D01*
X12043991Y-16564079D02*
X12053515Y-16602174D01*
X12053515Y-16602174D02*
X12053515Y-16649793D01*
X12053515Y-16649793D02*
X12043991Y-16687888D01*
X12043991Y-16687888D02*
X12034467Y-16706936D01*
X12034467Y-16706936D02*
X12024944Y-16716460D01*
X12024944Y-16716460D02*
X12005896Y-16725984D01*
X12005896Y-16725984D02*
X11986848Y-16725984D01*
X11986848Y-16725984D02*
X11967801Y-16716460D01*
X11967801Y-16716460D02*
X11958277Y-16706936D01*
X11958277Y-16706936D02*
X11948753Y-16687888D01*
X11948753Y-16687888D02*
X11939229Y-16649793D01*
X11939229Y-16649793D02*
X11939229Y-16602174D01*
X11939229Y-16602174D02*
X11948753Y-16564079D01*
X11948753Y-16564079D02*
X11958277Y-16545031D01*
X11958277Y-16545031D02*
X11967801Y-16535508D01*
X11967801Y-16535508D02*
X11986848Y-16525984D01*
X12120182Y-16525984D02*
X12243991Y-16525984D01*
X12243991Y-16525984D02*
X12177325Y-16602174D01*
X12177325Y-16602174D02*
X12205896Y-16602174D01*
X12205896Y-16602174D02*
X12224944Y-16611698D01*
X12224944Y-16611698D02*
X12234467Y-16621222D01*
X12234467Y-16621222D02*
X12243991Y-16640269D01*
X12243991Y-16640269D02*
X12243991Y-16687888D01*
X12243991Y-16687888D02*
X12234467Y-16706936D01*
X12234467Y-16706936D02*
X12224944Y-16716460D01*
X12224944Y-16716460D02*
X12205896Y-16725984D01*
X12205896Y-16725984D02*
X12148753Y-16725984D01*
X12148753Y-16725984D02*
X12129706Y-16716460D01*
X12129706Y-16716460D02*
X12120182Y-16706936D01*
X12310658Y-16525984D02*
X12443991Y-16525984D01*
X12443991Y-16525984D02*
X12358277Y-16725984D01*
X12605896Y-16592650D02*
X12605896Y-16725984D01*
X12558277Y-16516460D02*
X12510658Y-16659317D01*
X12510658Y-16659317D02*
X12634467Y-16659317D01*
X12701134Y-16525984D02*
X12701134Y-16564079D01*
X12777325Y-16525984D02*
X12777325Y-16564079D01*
X13072563Y-16802174D02*
X13063039Y-16792650D01*
X13063039Y-16792650D02*
X13043991Y-16764079D01*
X13043991Y-16764079D02*
X13034468Y-16745031D01*
X13034468Y-16745031D02*
X13024944Y-16716460D01*
X13024944Y-16716460D02*
X13015420Y-16668841D01*
X13015420Y-16668841D02*
X13015420Y-16630746D01*
X13015420Y-16630746D02*
X13024944Y-16583127D01*
X13024944Y-16583127D02*
X13034468Y-16554555D01*
X13034468Y-16554555D02*
X13043991Y-16535508D01*
X13043991Y-16535508D02*
X13063039Y-16506936D01*
X13063039Y-16506936D02*
X13072563Y-16497412D01*
X13139229Y-16545031D02*
X13148753Y-16535508D01*
X13148753Y-16535508D02*
X13167801Y-16525984D01*
X13167801Y-16525984D02*
X13215420Y-16525984D01*
X13215420Y-16525984D02*
X13234468Y-16535508D01*
X13234468Y-16535508D02*
X13243991Y-16545031D01*
X13243991Y-16545031D02*
X13253515Y-16564079D01*
X13253515Y-16564079D02*
X13253515Y-16583127D01*
X13253515Y-16583127D02*
X13243991Y-16611698D01*
X13243991Y-16611698D02*
X13129706Y-16725984D01*
X13129706Y-16725984D02*
X13253515Y-16725984D01*
X13367801Y-16611698D02*
X13348753Y-16602174D01*
X13348753Y-16602174D02*
X13339229Y-16592650D01*
X13339229Y-16592650D02*
X13329706Y-16573603D01*
X13329706Y-16573603D02*
X13329706Y-16564079D01*
X13329706Y-16564079D02*
X13339229Y-16545031D01*
X13339229Y-16545031D02*
X13348753Y-16535508D01*
X13348753Y-16535508D02*
X13367801Y-16525984D01*
X13367801Y-16525984D02*
X13405896Y-16525984D01*
X13405896Y-16525984D02*
X13424944Y-16535508D01*
X13424944Y-16535508D02*
X13434468Y-16545031D01*
X13434468Y-16545031D02*
X13443991Y-16564079D01*
X13443991Y-16564079D02*
X13443991Y-16573603D01*
X13443991Y-16573603D02*
X13434468Y-16592650D01*
X13434468Y-16592650D02*
X13424944Y-16602174D01*
X13424944Y-16602174D02*
X13405896Y-16611698D01*
X13405896Y-16611698D02*
X13367801Y-16611698D01*
X13367801Y-16611698D02*
X13348753Y-16621222D01*
X13348753Y-16621222D02*
X13339229Y-16630746D01*
X13339229Y-16630746D02*
X13329706Y-16649793D01*
X13329706Y-16649793D02*
X13329706Y-16687888D01*
X13329706Y-16687888D02*
X13339229Y-16706936D01*
X13339229Y-16706936D02*
X13348753Y-16716460D01*
X13348753Y-16716460D02*
X13367801Y-16725984D01*
X13367801Y-16725984D02*
X13405896Y-16725984D01*
X13405896Y-16725984D02*
X13424944Y-16716460D01*
X13424944Y-16716460D02*
X13434468Y-16706936D01*
X13434468Y-16706936D02*
X13443991Y-16687888D01*
X13443991Y-16687888D02*
X13443991Y-16649793D01*
X13443991Y-16649793D02*
X13434468Y-16630746D01*
X13434468Y-16630746D02*
X13424944Y-16621222D01*
X13424944Y-16621222D02*
X13405896Y-16611698D01*
X13682087Y-16725984D02*
X13682087Y-16525984D01*
X13767801Y-16725984D02*
X13767801Y-16621222D01*
X13767801Y-16621222D02*
X13758277Y-16602174D01*
X13758277Y-16602174D02*
X13739230Y-16592650D01*
X13739230Y-16592650D02*
X13710658Y-16592650D01*
X13710658Y-16592650D02*
X13691610Y-16602174D01*
X13691610Y-16602174D02*
X13682087Y-16611698D01*
X13891610Y-16725984D02*
X13872563Y-16716460D01*
X13872563Y-16716460D02*
X13863039Y-16706936D01*
X13863039Y-16706936D02*
X13853515Y-16687888D01*
X13853515Y-16687888D02*
X13853515Y-16630746D01*
X13853515Y-16630746D02*
X13863039Y-16611698D01*
X13863039Y-16611698D02*
X13872563Y-16602174D01*
X13872563Y-16602174D02*
X13891610Y-16592650D01*
X13891610Y-16592650D02*
X13920182Y-16592650D01*
X13920182Y-16592650D02*
X13939230Y-16602174D01*
X13939230Y-16602174D02*
X13948753Y-16611698D01*
X13948753Y-16611698D02*
X13958277Y-16630746D01*
X13958277Y-16630746D02*
X13958277Y-16687888D01*
X13958277Y-16687888D02*
X13948753Y-16706936D01*
X13948753Y-16706936D02*
X13939230Y-16716460D01*
X13939230Y-16716460D02*
X13920182Y-16725984D01*
X13920182Y-16725984D02*
X13891610Y-16725984D01*
X14072563Y-16725984D02*
X14053515Y-16716460D01*
X14053515Y-16716460D02*
X14043991Y-16697412D01*
X14043991Y-16697412D02*
X14043991Y-16525984D01*
X14224944Y-16716460D02*
X14205896Y-16725984D01*
X14205896Y-16725984D02*
X14167801Y-16725984D01*
X14167801Y-16725984D02*
X14148753Y-16716460D01*
X14148753Y-16716460D02*
X14139230Y-16697412D01*
X14139230Y-16697412D02*
X14139230Y-16621222D01*
X14139230Y-16621222D02*
X14148753Y-16602174D01*
X14148753Y-16602174D02*
X14167801Y-16592650D01*
X14167801Y-16592650D02*
X14205896Y-16592650D01*
X14205896Y-16592650D02*
X14224944Y-16602174D01*
X14224944Y-16602174D02*
X14234468Y-16621222D01*
X14234468Y-16621222D02*
X14234468Y-16640269D01*
X14234468Y-16640269D02*
X14139230Y-16659317D01*
X14310658Y-16716460D02*
X14329706Y-16725984D01*
X14329706Y-16725984D02*
X14367801Y-16725984D01*
X14367801Y-16725984D02*
X14386849Y-16716460D01*
X14386849Y-16716460D02*
X14396372Y-16697412D01*
X14396372Y-16697412D02*
X14396372Y-16687888D01*
X14396372Y-16687888D02*
X14386849Y-16668841D01*
X14386849Y-16668841D02*
X14367801Y-16659317D01*
X14367801Y-16659317D02*
X14339230Y-16659317D01*
X14339230Y-16659317D02*
X14320182Y-16649793D01*
X14320182Y-16649793D02*
X14310658Y-16630746D01*
X14310658Y-16630746D02*
X14310658Y-16621222D01*
X14310658Y-16621222D02*
X14320182Y-16602174D01*
X14320182Y-16602174D02*
X14339230Y-16592650D01*
X14339230Y-16592650D02*
X14367801Y-16592650D01*
X14367801Y-16592650D02*
X14386849Y-16602174D01*
X14463039Y-16802174D02*
X14472563Y-16792650D01*
X14472563Y-16792650D02*
X14491611Y-16764079D01*
X14491611Y-16764079D02*
X14501134Y-16745031D01*
X14501134Y-16745031D02*
X14510658Y-16716460D01*
X14510658Y-16716460D02*
X14520182Y-16668841D01*
X14520182Y-16668841D02*
X14520182Y-16630746D01*
X14520182Y-16630746D02*
X14510658Y-16583127D01*
X14510658Y-16583127D02*
X14501134Y-16554555D01*
X14501134Y-16554555D02*
X14491611Y-16535508D01*
X14491611Y-16535508D02*
X14472563Y-16506936D01*
X14472563Y-16506936D02*
X14463039Y-16497412D01*
D12*
X9447500Y-16948500D02*
X9497500Y-16898500D01*
X9447500Y-16848500D01*
X9397500Y-16898500D01*
X9447500Y-16948500D01*
D11*
X9863039Y-16989984D02*
X9748753Y-16989984D01*
X9805896Y-16989984D02*
X9805896Y-16789984D01*
X9805896Y-16789984D02*
X9786848Y-16818555D01*
X9786848Y-16818555D02*
X9767801Y-16837603D01*
X9767801Y-16837603D02*
X9748753Y-16847127D01*
X9948753Y-16970936D02*
X9958277Y-16980460D01*
X9958277Y-16980460D02*
X9948753Y-16989984D01*
X9948753Y-16989984D02*
X9939229Y-16980460D01*
X9939229Y-16980460D02*
X9948753Y-16970936D01*
X9948753Y-16970936D02*
X9948753Y-16989984D01*
X10082086Y-16789984D02*
X10101134Y-16789984D01*
X10101134Y-16789984D02*
X10120182Y-16799508D01*
X10120182Y-16799508D02*
X10129705Y-16809031D01*
X10129705Y-16809031D02*
X10139229Y-16828079D01*
X10139229Y-16828079D02*
X10148753Y-16866174D01*
X10148753Y-16866174D02*
X10148753Y-16913793D01*
X10148753Y-16913793D02*
X10139229Y-16951889D01*
X10139229Y-16951889D02*
X10129705Y-16970936D01*
X10129705Y-16970936D02*
X10120182Y-16980460D01*
X10120182Y-16980460D02*
X10101134Y-16989984D01*
X10101134Y-16989984D02*
X10082086Y-16989984D01*
X10082086Y-16989984D02*
X10063039Y-16980460D01*
X10063039Y-16980460D02*
X10053515Y-16970936D01*
X10053515Y-16970936D02*
X10043991Y-16951889D01*
X10043991Y-16951889D02*
X10034467Y-16913793D01*
X10034467Y-16913793D02*
X10034467Y-16866174D01*
X10034467Y-16866174D02*
X10043991Y-16828079D01*
X10043991Y-16828079D02*
X10053515Y-16809031D01*
X10053515Y-16809031D02*
X10063039Y-16799508D01*
X10063039Y-16799508D02*
X10082086Y-16789984D01*
X10272563Y-16789984D02*
X10291610Y-16789984D01*
X10291610Y-16789984D02*
X10310658Y-16799508D01*
X10310658Y-16799508D02*
X10320182Y-16809031D01*
X10320182Y-16809031D02*
X10329705Y-16828079D01*
X10329705Y-16828079D02*
X10339229Y-16866174D01*
X10339229Y-16866174D02*
X10339229Y-16913793D01*
X10339229Y-16913793D02*
X10329705Y-16951889D01*
X10329705Y-16951889D02*
X10320182Y-16970936D01*
X10320182Y-16970936D02*
X10310658Y-16980460D01*
X10310658Y-16980460D02*
X10291610Y-16989984D01*
X10291610Y-16989984D02*
X10272563Y-16989984D01*
X10272563Y-16989984D02*
X10253515Y-16980460D01*
X10253515Y-16980460D02*
X10243991Y-16970936D01*
X10243991Y-16970936D02*
X10234467Y-16951889D01*
X10234467Y-16951889D02*
X10224944Y-16913793D01*
X10224944Y-16913793D02*
X10224944Y-16866174D01*
X10224944Y-16866174D02*
X10234467Y-16828079D01*
X10234467Y-16828079D02*
X10243991Y-16809031D01*
X10243991Y-16809031D02*
X10253515Y-16799508D01*
X10253515Y-16799508D02*
X10272563Y-16789984D01*
X10463039Y-16789984D02*
X10482086Y-16789984D01*
X10482086Y-16789984D02*
X10501134Y-16799508D01*
X10501134Y-16799508D02*
X10510658Y-16809031D01*
X10510658Y-16809031D02*
X10520182Y-16828079D01*
X10520182Y-16828079D02*
X10529705Y-16866174D01*
X10529705Y-16866174D02*
X10529705Y-16913793D01*
X10529705Y-16913793D02*
X10520182Y-16951889D01*
X10520182Y-16951889D02*
X10510658Y-16970936D01*
X10510658Y-16970936D02*
X10501134Y-16980460D01*
X10501134Y-16980460D02*
X10482086Y-16989984D01*
X10482086Y-16989984D02*
X10463039Y-16989984D01*
X10463039Y-16989984D02*
X10443991Y-16980460D01*
X10443991Y-16980460D02*
X10434467Y-16970936D01*
X10434467Y-16970936D02*
X10424944Y-16951889D01*
X10424944Y-16951889D02*
X10415420Y-16913793D01*
X10415420Y-16913793D02*
X10415420Y-16866174D01*
X10415420Y-16866174D02*
X10424944Y-16828079D01*
X10424944Y-16828079D02*
X10434467Y-16809031D01*
X10434467Y-16809031D02*
X10443991Y-16799508D01*
X10443991Y-16799508D02*
X10463039Y-16789984D01*
X10615420Y-16989984D02*
X10615420Y-16856650D01*
X10615420Y-16875698D02*
X10624944Y-16866174D01*
X10624944Y-16866174D02*
X10643991Y-16856650D01*
X10643991Y-16856650D02*
X10672563Y-16856650D01*
X10672563Y-16856650D02*
X10691610Y-16866174D01*
X10691610Y-16866174D02*
X10701134Y-16885222D01*
X10701134Y-16885222D02*
X10701134Y-16989984D01*
X10701134Y-16885222D02*
X10710658Y-16866174D01*
X10710658Y-16866174D02*
X10729705Y-16856650D01*
X10729705Y-16856650D02*
X10758277Y-16856650D01*
X10758277Y-16856650D02*
X10777325Y-16866174D01*
X10777325Y-16866174D02*
X10786848Y-16885222D01*
X10786848Y-16885222D02*
X10786848Y-16989984D01*
X10882086Y-16989984D02*
X10882086Y-16856650D01*
X10882086Y-16875698D02*
X10891610Y-16866174D01*
X10891610Y-16866174D02*
X10910658Y-16856650D01*
X10910658Y-16856650D02*
X10939229Y-16856650D01*
X10939229Y-16856650D02*
X10958277Y-16866174D01*
X10958277Y-16866174D02*
X10967801Y-16885222D01*
X10967801Y-16885222D02*
X10967801Y-16989984D01*
X10967801Y-16885222D02*
X10977325Y-16866174D01*
X10977325Y-16866174D02*
X10996372Y-16856650D01*
X10996372Y-16856650D02*
X11024944Y-16856650D01*
X11024944Y-16856650D02*
X11043991Y-16866174D01*
X11043991Y-16866174D02*
X11053515Y-16885222D01*
X11053515Y-16885222D02*
X11053515Y-16989984D01*
X11443991Y-16780460D02*
X11272563Y-17037603D01*
X11701134Y-16789984D02*
X11720182Y-16789984D01*
X11720182Y-16789984D02*
X11739229Y-16799508D01*
X11739229Y-16799508D02*
X11748753Y-16809031D01*
X11748753Y-16809031D02*
X11758277Y-16828079D01*
X11758277Y-16828079D02*
X11767801Y-16866174D01*
X11767801Y-16866174D02*
X11767801Y-16913793D01*
X11767801Y-16913793D02*
X11758277Y-16951889D01*
X11758277Y-16951889D02*
X11748753Y-16970936D01*
X11748753Y-16970936D02*
X11739229Y-16980460D01*
X11739229Y-16980460D02*
X11720182Y-16989984D01*
X11720182Y-16989984D02*
X11701134Y-16989984D01*
X11701134Y-16989984D02*
X11682086Y-16980460D01*
X11682086Y-16980460D02*
X11672563Y-16970936D01*
X11672563Y-16970936D02*
X11663039Y-16951889D01*
X11663039Y-16951889D02*
X11653515Y-16913793D01*
X11653515Y-16913793D02*
X11653515Y-16866174D01*
X11653515Y-16866174D02*
X11663039Y-16828079D01*
X11663039Y-16828079D02*
X11672563Y-16809031D01*
X11672563Y-16809031D02*
X11682086Y-16799508D01*
X11682086Y-16799508D02*
X11701134Y-16789984D01*
X11853515Y-16970936D02*
X11863039Y-16980460D01*
X11863039Y-16980460D02*
X11853515Y-16989984D01*
X11853515Y-16989984D02*
X11843991Y-16980460D01*
X11843991Y-16980460D02*
X11853515Y-16970936D01*
X11853515Y-16970936D02*
X11853515Y-16989984D01*
X11986848Y-16789984D02*
X12005896Y-16789984D01*
X12005896Y-16789984D02*
X12024944Y-16799508D01*
X12024944Y-16799508D02*
X12034467Y-16809031D01*
X12034467Y-16809031D02*
X12043991Y-16828079D01*
X12043991Y-16828079D02*
X12053515Y-16866174D01*
X12053515Y-16866174D02*
X12053515Y-16913793D01*
X12053515Y-16913793D02*
X12043991Y-16951889D01*
X12043991Y-16951889D02*
X12034467Y-16970936D01*
X12034467Y-16970936D02*
X12024944Y-16980460D01*
X12024944Y-16980460D02*
X12005896Y-16989984D01*
X12005896Y-16989984D02*
X11986848Y-16989984D01*
X11986848Y-16989984D02*
X11967801Y-16980460D01*
X11967801Y-16980460D02*
X11958277Y-16970936D01*
X11958277Y-16970936D02*
X11948753Y-16951889D01*
X11948753Y-16951889D02*
X11939229Y-16913793D01*
X11939229Y-16913793D02*
X11939229Y-16866174D01*
X11939229Y-16866174D02*
X11948753Y-16828079D01*
X11948753Y-16828079D02*
X11958277Y-16809031D01*
X11958277Y-16809031D02*
X11967801Y-16799508D01*
X11967801Y-16799508D02*
X11986848Y-16789984D01*
X12120182Y-16789984D02*
X12243991Y-16789984D01*
X12243991Y-16789984D02*
X12177325Y-16866174D01*
X12177325Y-16866174D02*
X12205896Y-16866174D01*
X12205896Y-16866174D02*
X12224944Y-16875698D01*
X12224944Y-16875698D02*
X12234467Y-16885222D01*
X12234467Y-16885222D02*
X12243991Y-16904270D01*
X12243991Y-16904270D02*
X12243991Y-16951889D01*
X12243991Y-16951889D02*
X12234467Y-16970936D01*
X12234467Y-16970936D02*
X12224944Y-16980460D01*
X12224944Y-16980460D02*
X12205896Y-16989984D01*
X12205896Y-16989984D02*
X12148753Y-16989984D01*
X12148753Y-16989984D02*
X12129706Y-16980460D01*
X12129706Y-16980460D02*
X12120182Y-16970936D01*
X12339229Y-16989984D02*
X12377325Y-16989984D01*
X12377325Y-16989984D02*
X12396372Y-16980460D01*
X12396372Y-16980460D02*
X12405896Y-16970936D01*
X12405896Y-16970936D02*
X12424944Y-16942365D01*
X12424944Y-16942365D02*
X12434467Y-16904270D01*
X12434467Y-16904270D02*
X12434467Y-16828079D01*
X12434467Y-16828079D02*
X12424944Y-16809031D01*
X12424944Y-16809031D02*
X12415420Y-16799508D01*
X12415420Y-16799508D02*
X12396372Y-16789984D01*
X12396372Y-16789984D02*
X12358277Y-16789984D01*
X12358277Y-16789984D02*
X12339229Y-16799508D01*
X12339229Y-16799508D02*
X12329706Y-16809031D01*
X12329706Y-16809031D02*
X12320182Y-16828079D01*
X12320182Y-16828079D02*
X12320182Y-16875698D01*
X12320182Y-16875698D02*
X12329706Y-16894746D01*
X12329706Y-16894746D02*
X12339229Y-16904270D01*
X12339229Y-16904270D02*
X12358277Y-16913793D01*
X12358277Y-16913793D02*
X12396372Y-16913793D01*
X12396372Y-16913793D02*
X12415420Y-16904270D01*
X12415420Y-16904270D02*
X12424944Y-16894746D01*
X12424944Y-16894746D02*
X12434467Y-16875698D01*
X12605896Y-16856650D02*
X12605896Y-16989984D01*
X12558277Y-16780460D02*
X12510658Y-16923317D01*
X12510658Y-16923317D02*
X12634467Y-16923317D01*
X12701134Y-16789984D02*
X12701134Y-16828079D01*
X12777325Y-16789984D02*
X12777325Y-16828079D01*
X13072563Y-17066174D02*
X13063039Y-17056650D01*
X13063039Y-17056650D02*
X13043991Y-17028079D01*
X13043991Y-17028079D02*
X13034468Y-17009031D01*
X13034468Y-17009031D02*
X13024944Y-16980460D01*
X13024944Y-16980460D02*
X13015420Y-16932841D01*
X13015420Y-16932841D02*
X13015420Y-16894746D01*
X13015420Y-16894746D02*
X13024944Y-16847127D01*
X13024944Y-16847127D02*
X13034468Y-16818555D01*
X13034468Y-16818555D02*
X13043991Y-16799508D01*
X13043991Y-16799508D02*
X13063039Y-16770936D01*
X13063039Y-16770936D02*
X13072563Y-16761412D01*
X13253515Y-16989984D02*
X13139229Y-16989984D01*
X13196372Y-16989984D02*
X13196372Y-16789984D01*
X13196372Y-16789984D02*
X13177325Y-16818555D01*
X13177325Y-16818555D02*
X13158277Y-16837603D01*
X13158277Y-16837603D02*
X13139229Y-16847127D01*
X13434468Y-16789984D02*
X13339229Y-16789984D01*
X13339229Y-16789984D02*
X13329706Y-16885222D01*
X13329706Y-16885222D02*
X13339229Y-16875698D01*
X13339229Y-16875698D02*
X13358277Y-16866174D01*
X13358277Y-16866174D02*
X13405896Y-16866174D01*
X13405896Y-16866174D02*
X13424944Y-16875698D01*
X13424944Y-16875698D02*
X13434468Y-16885222D01*
X13434468Y-16885222D02*
X13443991Y-16904270D01*
X13443991Y-16904270D02*
X13443991Y-16951889D01*
X13443991Y-16951889D02*
X13434468Y-16970936D01*
X13434468Y-16970936D02*
X13424944Y-16980460D01*
X13424944Y-16980460D02*
X13405896Y-16989984D01*
X13405896Y-16989984D02*
X13358277Y-16989984D01*
X13358277Y-16989984D02*
X13339229Y-16980460D01*
X13339229Y-16980460D02*
X13329706Y-16970936D01*
X13567801Y-16789984D02*
X13586849Y-16789984D01*
X13586849Y-16789984D02*
X13605896Y-16799508D01*
X13605896Y-16799508D02*
X13615420Y-16809031D01*
X13615420Y-16809031D02*
X13624944Y-16828079D01*
X13624944Y-16828079D02*
X13634468Y-16866174D01*
X13634468Y-16866174D02*
X13634468Y-16913793D01*
X13634468Y-16913793D02*
X13624944Y-16951889D01*
X13624944Y-16951889D02*
X13615420Y-16970936D01*
X13615420Y-16970936D02*
X13605896Y-16980460D01*
X13605896Y-16980460D02*
X13586849Y-16989984D01*
X13586849Y-16989984D02*
X13567801Y-16989984D01*
X13567801Y-16989984D02*
X13548753Y-16980460D01*
X13548753Y-16980460D02*
X13539229Y-16970936D01*
X13539229Y-16970936D02*
X13529706Y-16951889D01*
X13529706Y-16951889D02*
X13520182Y-16913793D01*
X13520182Y-16913793D02*
X13520182Y-16866174D01*
X13520182Y-16866174D02*
X13529706Y-16828079D01*
X13529706Y-16828079D02*
X13539229Y-16809031D01*
X13539229Y-16809031D02*
X13548753Y-16799508D01*
X13548753Y-16799508D02*
X13567801Y-16789984D01*
X13872563Y-16989984D02*
X13872563Y-16789984D01*
X13958277Y-16989984D02*
X13958277Y-16885222D01*
X13958277Y-16885222D02*
X13948753Y-16866174D01*
X13948753Y-16866174D02*
X13929706Y-16856650D01*
X13929706Y-16856650D02*
X13901134Y-16856650D01*
X13901134Y-16856650D02*
X13882087Y-16866174D01*
X13882087Y-16866174D02*
X13872563Y-16875698D01*
X14082087Y-16989984D02*
X14063039Y-16980460D01*
X14063039Y-16980460D02*
X14053515Y-16970936D01*
X14053515Y-16970936D02*
X14043991Y-16951889D01*
X14043991Y-16951889D02*
X14043991Y-16894746D01*
X14043991Y-16894746D02*
X14053515Y-16875698D01*
X14053515Y-16875698D02*
X14063039Y-16866174D01*
X14063039Y-16866174D02*
X14082087Y-16856650D01*
X14082087Y-16856650D02*
X14110658Y-16856650D01*
X14110658Y-16856650D02*
X14129706Y-16866174D01*
X14129706Y-16866174D02*
X14139230Y-16875698D01*
X14139230Y-16875698D02*
X14148753Y-16894746D01*
X14148753Y-16894746D02*
X14148753Y-16951889D01*
X14148753Y-16951889D02*
X14139230Y-16970936D01*
X14139230Y-16970936D02*
X14129706Y-16980460D01*
X14129706Y-16980460D02*
X14110658Y-16989984D01*
X14110658Y-16989984D02*
X14082087Y-16989984D01*
X14263039Y-16989984D02*
X14243991Y-16980460D01*
X14243991Y-16980460D02*
X14234468Y-16961412D01*
X14234468Y-16961412D02*
X14234468Y-16789984D01*
X14415420Y-16980460D02*
X14396372Y-16989984D01*
X14396372Y-16989984D02*
X14358277Y-16989984D01*
X14358277Y-16989984D02*
X14339230Y-16980460D01*
X14339230Y-16980460D02*
X14329706Y-16961412D01*
X14329706Y-16961412D02*
X14329706Y-16885222D01*
X14329706Y-16885222D02*
X14339230Y-16866174D01*
X14339230Y-16866174D02*
X14358277Y-16856650D01*
X14358277Y-16856650D02*
X14396372Y-16856650D01*
X14396372Y-16856650D02*
X14415420Y-16866174D01*
X14415420Y-16866174D02*
X14424944Y-16885222D01*
X14424944Y-16885222D02*
X14424944Y-16904270D01*
X14424944Y-16904270D02*
X14329706Y-16923317D01*
X14501134Y-16980460D02*
X14520182Y-16989984D01*
X14520182Y-16989984D02*
X14558277Y-16989984D01*
X14558277Y-16989984D02*
X14577325Y-16980460D01*
X14577325Y-16980460D02*
X14586849Y-16961412D01*
X14586849Y-16961412D02*
X14586849Y-16951889D01*
X14586849Y-16951889D02*
X14577325Y-16932841D01*
X14577325Y-16932841D02*
X14558277Y-16923317D01*
X14558277Y-16923317D02*
X14529706Y-16923317D01*
X14529706Y-16923317D02*
X14510658Y-16913793D01*
X14510658Y-16913793D02*
X14501134Y-16894746D01*
X14501134Y-16894746D02*
X14501134Y-16885222D01*
X14501134Y-16885222D02*
X14510658Y-16866174D01*
X14510658Y-16866174D02*
X14529706Y-16856650D01*
X14529706Y-16856650D02*
X14558277Y-16856650D01*
X14558277Y-16856650D02*
X14577325Y-16866174D01*
X14653515Y-17066174D02*
X14663039Y-17056650D01*
X14663039Y-17056650D02*
X14682087Y-17028079D01*
X14682087Y-17028079D02*
X14691611Y-17009031D01*
X14691611Y-17009031D02*
X14701134Y-16980460D01*
X14701134Y-16980460D02*
X14710658Y-16932841D01*
X14710658Y-16932841D02*
X14710658Y-16894746D01*
X14710658Y-16894746D02*
X14701134Y-16847127D01*
X14701134Y-16847127D02*
X14691611Y-16818555D01*
X14691611Y-16818555D02*
X14682087Y-16799508D01*
X14682087Y-16799508D02*
X14663039Y-16770936D01*
X14663039Y-16770936D02*
X14653515Y-16761412D01*
X9297500Y-17062500D02*
X9497500Y-17262500D01*
X9497500Y-17062500D02*
X9297500Y-17262500D01*
X9497500Y-17162500D02*
G75*
G02*
X9297500Y-17162500I-100000J0D01*
G01*
X9297500Y-17162500D02*
G75*
G02*
X9497500Y-17162500I100000J0D01*
G01*
X9748753Y-17073031D02*
X9758277Y-17063508D01*
X9758277Y-17063508D02*
X9777324Y-17053984D01*
X9777324Y-17053984D02*
X9824944Y-17053984D01*
X9824944Y-17053984D02*
X9843991Y-17063508D01*
X9843991Y-17063508D02*
X9853515Y-17073031D01*
X9853515Y-17073031D02*
X9863039Y-17092079D01*
X9863039Y-17092079D02*
X9863039Y-17111127D01*
X9863039Y-17111127D02*
X9853515Y-17139698D01*
X9853515Y-17139698D02*
X9739229Y-17253984D01*
X9739229Y-17253984D02*
X9863039Y-17253984D01*
X9948753Y-17234936D02*
X9958277Y-17244460D01*
X9958277Y-17244460D02*
X9948753Y-17253984D01*
X9948753Y-17253984D02*
X9939229Y-17244460D01*
X9939229Y-17244460D02*
X9948753Y-17234936D01*
X9948753Y-17234936D02*
X9948753Y-17253984D01*
X10024944Y-17053984D02*
X10158277Y-17053984D01*
X10158277Y-17053984D02*
X10072563Y-17253984D01*
X10272563Y-17053984D02*
X10291610Y-17053984D01*
X10291610Y-17053984D02*
X10310658Y-17063508D01*
X10310658Y-17063508D02*
X10320182Y-17073031D01*
X10320182Y-17073031D02*
X10329705Y-17092079D01*
X10329705Y-17092079D02*
X10339229Y-17130174D01*
X10339229Y-17130174D02*
X10339229Y-17177793D01*
X10339229Y-17177793D02*
X10329705Y-17215889D01*
X10329705Y-17215889D02*
X10320182Y-17234936D01*
X10320182Y-17234936D02*
X10310658Y-17244460D01*
X10310658Y-17244460D02*
X10291610Y-17253984D01*
X10291610Y-17253984D02*
X10272563Y-17253984D01*
X10272563Y-17253984D02*
X10253515Y-17244460D01*
X10253515Y-17244460D02*
X10243991Y-17234936D01*
X10243991Y-17234936D02*
X10234467Y-17215889D01*
X10234467Y-17215889D02*
X10224944Y-17177793D01*
X10224944Y-17177793D02*
X10224944Y-17130174D01*
X10224944Y-17130174D02*
X10234467Y-17092079D01*
X10234467Y-17092079D02*
X10243991Y-17073031D01*
X10243991Y-17073031D02*
X10253515Y-17063508D01*
X10253515Y-17063508D02*
X10272563Y-17053984D01*
X10463039Y-17053984D02*
X10482086Y-17053984D01*
X10482086Y-17053984D02*
X10501134Y-17063508D01*
X10501134Y-17063508D02*
X10510658Y-17073031D01*
X10510658Y-17073031D02*
X10520182Y-17092079D01*
X10520182Y-17092079D02*
X10529705Y-17130174D01*
X10529705Y-17130174D02*
X10529705Y-17177793D01*
X10529705Y-17177793D02*
X10520182Y-17215889D01*
X10520182Y-17215889D02*
X10510658Y-17234936D01*
X10510658Y-17234936D02*
X10501134Y-17244460D01*
X10501134Y-17244460D02*
X10482086Y-17253984D01*
X10482086Y-17253984D02*
X10463039Y-17253984D01*
X10463039Y-17253984D02*
X10443991Y-17244460D01*
X10443991Y-17244460D02*
X10434467Y-17234936D01*
X10434467Y-17234936D02*
X10424944Y-17215889D01*
X10424944Y-17215889D02*
X10415420Y-17177793D01*
X10415420Y-17177793D02*
X10415420Y-17130174D01*
X10415420Y-17130174D02*
X10424944Y-17092079D01*
X10424944Y-17092079D02*
X10434467Y-17073031D01*
X10434467Y-17073031D02*
X10443991Y-17063508D01*
X10443991Y-17063508D02*
X10463039Y-17053984D01*
X10615420Y-17253984D02*
X10615420Y-17120650D01*
X10615420Y-17139698D02*
X10624944Y-17130174D01*
X10624944Y-17130174D02*
X10643991Y-17120650D01*
X10643991Y-17120650D02*
X10672563Y-17120650D01*
X10672563Y-17120650D02*
X10691610Y-17130174D01*
X10691610Y-17130174D02*
X10701134Y-17149222D01*
X10701134Y-17149222D02*
X10701134Y-17253984D01*
X10701134Y-17149222D02*
X10710658Y-17130174D01*
X10710658Y-17130174D02*
X10729705Y-17120650D01*
X10729705Y-17120650D02*
X10758277Y-17120650D01*
X10758277Y-17120650D02*
X10777325Y-17130174D01*
X10777325Y-17130174D02*
X10786848Y-17149222D01*
X10786848Y-17149222D02*
X10786848Y-17253984D01*
X10882086Y-17253984D02*
X10882086Y-17120650D01*
X10882086Y-17139698D02*
X10891610Y-17130174D01*
X10891610Y-17130174D02*
X10910658Y-17120650D01*
X10910658Y-17120650D02*
X10939229Y-17120650D01*
X10939229Y-17120650D02*
X10958277Y-17130174D01*
X10958277Y-17130174D02*
X10967801Y-17149222D01*
X10967801Y-17149222D02*
X10967801Y-17253984D01*
X10967801Y-17149222D02*
X10977325Y-17130174D01*
X10977325Y-17130174D02*
X10996372Y-17120650D01*
X10996372Y-17120650D02*
X11024944Y-17120650D01*
X11024944Y-17120650D02*
X11043991Y-17130174D01*
X11043991Y-17130174D02*
X11053515Y-17149222D01*
X11053515Y-17149222D02*
X11053515Y-17253984D01*
X11443991Y-17044460D02*
X11272563Y-17301603D01*
X11701134Y-17053984D02*
X11720182Y-17053984D01*
X11720182Y-17053984D02*
X11739229Y-17063508D01*
X11739229Y-17063508D02*
X11748753Y-17073031D01*
X11748753Y-17073031D02*
X11758277Y-17092079D01*
X11758277Y-17092079D02*
X11767801Y-17130174D01*
X11767801Y-17130174D02*
X11767801Y-17177793D01*
X11767801Y-17177793D02*
X11758277Y-17215889D01*
X11758277Y-17215889D02*
X11748753Y-17234936D01*
X11748753Y-17234936D02*
X11739229Y-17244460D01*
X11739229Y-17244460D02*
X11720182Y-17253984D01*
X11720182Y-17253984D02*
X11701134Y-17253984D01*
X11701134Y-17253984D02*
X11682086Y-17244460D01*
X11682086Y-17244460D02*
X11672563Y-17234936D01*
X11672563Y-17234936D02*
X11663039Y-17215889D01*
X11663039Y-17215889D02*
X11653515Y-17177793D01*
X11653515Y-17177793D02*
X11653515Y-17130174D01*
X11653515Y-17130174D02*
X11663039Y-17092079D01*
X11663039Y-17092079D02*
X11672563Y-17073031D01*
X11672563Y-17073031D02*
X11682086Y-17063508D01*
X11682086Y-17063508D02*
X11701134Y-17053984D01*
X11853515Y-17234936D02*
X11863039Y-17244460D01*
X11863039Y-17244460D02*
X11853515Y-17253984D01*
X11853515Y-17253984D02*
X11843991Y-17244460D01*
X11843991Y-17244460D02*
X11853515Y-17234936D01*
X11853515Y-17234936D02*
X11853515Y-17253984D01*
X12053515Y-17253984D02*
X11939229Y-17253984D01*
X11996372Y-17253984D02*
X11996372Y-17053984D01*
X11996372Y-17053984D02*
X11977325Y-17082555D01*
X11977325Y-17082555D02*
X11958277Y-17101603D01*
X11958277Y-17101603D02*
X11939229Y-17111127D01*
X12177325Y-17053984D02*
X12196372Y-17053984D01*
X12196372Y-17053984D02*
X12215420Y-17063508D01*
X12215420Y-17063508D02*
X12224944Y-17073031D01*
X12224944Y-17073031D02*
X12234467Y-17092079D01*
X12234467Y-17092079D02*
X12243991Y-17130174D01*
X12243991Y-17130174D02*
X12243991Y-17177793D01*
X12243991Y-17177793D02*
X12234467Y-17215889D01*
X12234467Y-17215889D02*
X12224944Y-17234936D01*
X12224944Y-17234936D02*
X12215420Y-17244460D01*
X12215420Y-17244460D02*
X12196372Y-17253984D01*
X12196372Y-17253984D02*
X12177325Y-17253984D01*
X12177325Y-17253984D02*
X12158277Y-17244460D01*
X12158277Y-17244460D02*
X12148753Y-17234936D01*
X12148753Y-17234936D02*
X12139229Y-17215889D01*
X12139229Y-17215889D02*
X12129706Y-17177793D01*
X12129706Y-17177793D02*
X12129706Y-17130174D01*
X12129706Y-17130174D02*
X12139229Y-17092079D01*
X12139229Y-17092079D02*
X12148753Y-17073031D01*
X12148753Y-17073031D02*
X12158277Y-17063508D01*
X12158277Y-17063508D02*
X12177325Y-17053984D01*
X12415420Y-17053984D02*
X12377325Y-17053984D01*
X12377325Y-17053984D02*
X12358277Y-17063508D01*
X12358277Y-17063508D02*
X12348753Y-17073031D01*
X12348753Y-17073031D02*
X12329706Y-17101603D01*
X12329706Y-17101603D02*
X12320182Y-17139698D01*
X12320182Y-17139698D02*
X12320182Y-17215889D01*
X12320182Y-17215889D02*
X12329706Y-17234936D01*
X12329706Y-17234936D02*
X12339229Y-17244460D01*
X12339229Y-17244460D02*
X12358277Y-17253984D01*
X12358277Y-17253984D02*
X12396372Y-17253984D01*
X12396372Y-17253984D02*
X12415420Y-17244460D01*
X12415420Y-17244460D02*
X12424944Y-17234936D01*
X12424944Y-17234936D02*
X12434467Y-17215889D01*
X12434467Y-17215889D02*
X12434467Y-17168270D01*
X12434467Y-17168270D02*
X12424944Y-17149222D01*
X12424944Y-17149222D02*
X12415420Y-17139698D01*
X12415420Y-17139698D02*
X12396372Y-17130174D01*
X12396372Y-17130174D02*
X12358277Y-17130174D01*
X12358277Y-17130174D02*
X12339229Y-17139698D01*
X12339229Y-17139698D02*
X12329706Y-17149222D01*
X12329706Y-17149222D02*
X12320182Y-17168270D01*
X12501134Y-17053984D02*
X12624944Y-17053984D01*
X12624944Y-17053984D02*
X12558277Y-17130174D01*
X12558277Y-17130174D02*
X12586848Y-17130174D01*
X12586848Y-17130174D02*
X12605896Y-17139698D01*
X12605896Y-17139698D02*
X12615420Y-17149222D01*
X12615420Y-17149222D02*
X12624944Y-17168270D01*
X12624944Y-17168270D02*
X12624944Y-17215889D01*
X12624944Y-17215889D02*
X12615420Y-17234936D01*
X12615420Y-17234936D02*
X12605896Y-17244460D01*
X12605896Y-17244460D02*
X12586848Y-17253984D01*
X12586848Y-17253984D02*
X12529706Y-17253984D01*
X12529706Y-17253984D02*
X12510658Y-17244460D01*
X12510658Y-17244460D02*
X12501134Y-17234936D01*
X12701134Y-17053984D02*
X12701134Y-17092079D01*
X12777325Y-17053984D02*
X12777325Y-17092079D01*
X13072563Y-17330174D02*
X13063039Y-17320650D01*
X13063039Y-17320650D02*
X13043991Y-17292079D01*
X13043991Y-17292079D02*
X13034468Y-17273031D01*
X13034468Y-17273031D02*
X13024944Y-17244460D01*
X13024944Y-17244460D02*
X13015420Y-17196841D01*
X13015420Y-17196841D02*
X13015420Y-17158746D01*
X13015420Y-17158746D02*
X13024944Y-17111127D01*
X13024944Y-17111127D02*
X13034468Y-17082555D01*
X13034468Y-17082555D02*
X13043991Y-17063508D01*
X13043991Y-17063508D02*
X13063039Y-17034936D01*
X13063039Y-17034936D02*
X13072563Y-17025412D01*
X13253515Y-17253984D02*
X13139229Y-17253984D01*
X13196372Y-17253984D02*
X13196372Y-17053984D01*
X13196372Y-17053984D02*
X13177325Y-17082555D01*
X13177325Y-17082555D02*
X13158277Y-17101603D01*
X13158277Y-17101603D02*
X13139229Y-17111127D01*
X13424944Y-17053984D02*
X13386848Y-17053984D01*
X13386848Y-17053984D02*
X13367801Y-17063508D01*
X13367801Y-17063508D02*
X13358277Y-17073031D01*
X13358277Y-17073031D02*
X13339229Y-17101603D01*
X13339229Y-17101603D02*
X13329706Y-17139698D01*
X13329706Y-17139698D02*
X13329706Y-17215889D01*
X13329706Y-17215889D02*
X13339229Y-17234936D01*
X13339229Y-17234936D02*
X13348753Y-17244460D01*
X13348753Y-17244460D02*
X13367801Y-17253984D01*
X13367801Y-17253984D02*
X13405896Y-17253984D01*
X13405896Y-17253984D02*
X13424944Y-17244460D01*
X13424944Y-17244460D02*
X13434468Y-17234936D01*
X13434468Y-17234936D02*
X13443991Y-17215889D01*
X13443991Y-17215889D02*
X13443991Y-17168270D01*
X13443991Y-17168270D02*
X13434468Y-17149222D01*
X13434468Y-17149222D02*
X13424944Y-17139698D01*
X13424944Y-17139698D02*
X13405896Y-17130174D01*
X13405896Y-17130174D02*
X13367801Y-17130174D01*
X13367801Y-17130174D02*
X13348753Y-17139698D01*
X13348753Y-17139698D02*
X13339229Y-17149222D01*
X13339229Y-17149222D02*
X13329706Y-17168270D01*
X13682087Y-17253984D02*
X13682087Y-17053984D01*
X13767801Y-17253984D02*
X13767801Y-17149222D01*
X13767801Y-17149222D02*
X13758277Y-17130174D01*
X13758277Y-17130174D02*
X13739230Y-17120650D01*
X13739230Y-17120650D02*
X13710658Y-17120650D01*
X13710658Y-17120650D02*
X13691610Y-17130174D01*
X13691610Y-17130174D02*
X13682087Y-17139698D01*
X13891610Y-17253984D02*
X13872563Y-17244460D01*
X13872563Y-17244460D02*
X13863039Y-17234936D01*
X13863039Y-17234936D02*
X13853515Y-17215889D01*
X13853515Y-17215889D02*
X13853515Y-17158746D01*
X13853515Y-17158746D02*
X13863039Y-17139698D01*
X13863039Y-17139698D02*
X13872563Y-17130174D01*
X13872563Y-17130174D02*
X13891610Y-17120650D01*
X13891610Y-17120650D02*
X13920182Y-17120650D01*
X13920182Y-17120650D02*
X13939230Y-17130174D01*
X13939230Y-17130174D02*
X13948753Y-17139698D01*
X13948753Y-17139698D02*
X13958277Y-17158746D01*
X13958277Y-17158746D02*
X13958277Y-17215889D01*
X13958277Y-17215889D02*
X13948753Y-17234936D01*
X13948753Y-17234936D02*
X13939230Y-17244460D01*
X13939230Y-17244460D02*
X13920182Y-17253984D01*
X13920182Y-17253984D02*
X13891610Y-17253984D01*
X14072563Y-17253984D02*
X14053515Y-17244460D01*
X14053515Y-17244460D02*
X14043991Y-17225412D01*
X14043991Y-17225412D02*
X14043991Y-17053984D01*
X14224944Y-17244460D02*
X14205896Y-17253984D01*
X14205896Y-17253984D02*
X14167801Y-17253984D01*
X14167801Y-17253984D02*
X14148753Y-17244460D01*
X14148753Y-17244460D02*
X14139230Y-17225412D01*
X14139230Y-17225412D02*
X14139230Y-17149222D01*
X14139230Y-17149222D02*
X14148753Y-17130174D01*
X14148753Y-17130174D02*
X14167801Y-17120650D01*
X14167801Y-17120650D02*
X14205896Y-17120650D01*
X14205896Y-17120650D02*
X14224944Y-17130174D01*
X14224944Y-17130174D02*
X14234468Y-17149222D01*
X14234468Y-17149222D02*
X14234468Y-17168270D01*
X14234468Y-17168270D02*
X14139230Y-17187317D01*
X14310658Y-17244460D02*
X14329706Y-17253984D01*
X14329706Y-17253984D02*
X14367801Y-17253984D01*
X14367801Y-17253984D02*
X14386849Y-17244460D01*
X14386849Y-17244460D02*
X14396372Y-17225412D01*
X14396372Y-17225412D02*
X14396372Y-17215889D01*
X14396372Y-17215889D02*
X14386849Y-17196841D01*
X14386849Y-17196841D02*
X14367801Y-17187317D01*
X14367801Y-17187317D02*
X14339230Y-17187317D01*
X14339230Y-17187317D02*
X14320182Y-17177793D01*
X14320182Y-17177793D02*
X14310658Y-17158746D01*
X14310658Y-17158746D02*
X14310658Y-17149222D01*
X14310658Y-17149222D02*
X14320182Y-17130174D01*
X14320182Y-17130174D02*
X14339230Y-17120650D01*
X14339230Y-17120650D02*
X14367801Y-17120650D01*
X14367801Y-17120650D02*
X14386849Y-17130174D01*
X14463039Y-17330174D02*
X14472563Y-17320650D01*
X14472563Y-17320650D02*
X14491611Y-17292079D01*
X14491611Y-17292079D02*
X14501134Y-17273031D01*
X14501134Y-17273031D02*
X14510658Y-17244460D01*
X14510658Y-17244460D02*
X14520182Y-17196841D01*
X14520182Y-17196841D02*
X14520182Y-17158746D01*
X14520182Y-17158746D02*
X14510658Y-17111127D01*
X14510658Y-17111127D02*
X14501134Y-17082555D01*
X14501134Y-17082555D02*
X14491611Y-17063508D01*
X14491611Y-17063508D02*
X14472563Y-17034936D01*
X14472563Y-17034936D02*
X14463039Y-17025412D01*
X9297500Y-17382500D02*
X9497500Y-17582500D01*
X9497500Y-17382500D02*
X9297500Y-17582500D01*
X9397500Y-17382500D02*
X9397500Y-17582500D01*
X9297500Y-17482500D02*
X9497500Y-17482500D01*
X9843991Y-17440650D02*
X9843991Y-17573984D01*
X9796372Y-17364460D02*
X9748753Y-17507317D01*
X9748753Y-17507317D02*
X9872563Y-17507317D01*
X9948753Y-17554936D02*
X9958277Y-17564460D01*
X9958277Y-17564460D02*
X9948753Y-17573984D01*
X9948753Y-17573984D02*
X9939229Y-17564460D01*
X9939229Y-17564460D02*
X9948753Y-17554936D01*
X9948753Y-17554936D02*
X9948753Y-17573984D01*
X10139229Y-17373984D02*
X10043991Y-17373984D01*
X10043991Y-17373984D02*
X10034467Y-17469222D01*
X10034467Y-17469222D02*
X10043991Y-17459698D01*
X10043991Y-17459698D02*
X10063039Y-17450174D01*
X10063039Y-17450174D02*
X10110658Y-17450174D01*
X10110658Y-17450174D02*
X10129705Y-17459698D01*
X10129705Y-17459698D02*
X10139229Y-17469222D01*
X10139229Y-17469222D02*
X10148753Y-17488270D01*
X10148753Y-17488270D02*
X10148753Y-17535889D01*
X10148753Y-17535889D02*
X10139229Y-17554936D01*
X10139229Y-17554936D02*
X10129705Y-17564460D01*
X10129705Y-17564460D02*
X10110658Y-17573984D01*
X10110658Y-17573984D02*
X10063039Y-17573984D01*
X10063039Y-17573984D02*
X10043991Y-17564460D01*
X10043991Y-17564460D02*
X10034467Y-17554936D01*
X10329705Y-17373984D02*
X10234467Y-17373984D01*
X10234467Y-17373984D02*
X10224944Y-17469222D01*
X10224944Y-17469222D02*
X10234467Y-17459698D01*
X10234467Y-17459698D02*
X10253515Y-17450174D01*
X10253515Y-17450174D02*
X10301134Y-17450174D01*
X10301134Y-17450174D02*
X10320182Y-17459698D01*
X10320182Y-17459698D02*
X10329705Y-17469222D01*
X10329705Y-17469222D02*
X10339229Y-17488270D01*
X10339229Y-17488270D02*
X10339229Y-17535889D01*
X10339229Y-17535889D02*
X10329705Y-17554936D01*
X10329705Y-17554936D02*
X10320182Y-17564460D01*
X10320182Y-17564460D02*
X10301134Y-17573984D01*
X10301134Y-17573984D02*
X10253515Y-17573984D01*
X10253515Y-17573984D02*
X10234467Y-17564460D01*
X10234467Y-17564460D02*
X10224944Y-17554936D01*
X10463039Y-17373984D02*
X10482086Y-17373984D01*
X10482086Y-17373984D02*
X10501134Y-17383508D01*
X10501134Y-17383508D02*
X10510658Y-17393031D01*
X10510658Y-17393031D02*
X10520182Y-17412079D01*
X10520182Y-17412079D02*
X10529705Y-17450174D01*
X10529705Y-17450174D02*
X10529705Y-17497793D01*
X10529705Y-17497793D02*
X10520182Y-17535889D01*
X10520182Y-17535889D02*
X10510658Y-17554936D01*
X10510658Y-17554936D02*
X10501134Y-17564460D01*
X10501134Y-17564460D02*
X10482086Y-17573984D01*
X10482086Y-17573984D02*
X10463039Y-17573984D01*
X10463039Y-17573984D02*
X10443991Y-17564460D01*
X10443991Y-17564460D02*
X10434467Y-17554936D01*
X10434467Y-17554936D02*
X10424944Y-17535889D01*
X10424944Y-17535889D02*
X10415420Y-17497793D01*
X10415420Y-17497793D02*
X10415420Y-17450174D01*
X10415420Y-17450174D02*
X10424944Y-17412079D01*
X10424944Y-17412079D02*
X10434467Y-17393031D01*
X10434467Y-17393031D02*
X10443991Y-17383508D01*
X10443991Y-17383508D02*
X10463039Y-17373984D01*
X10615420Y-17573984D02*
X10615420Y-17440650D01*
X10615420Y-17459698D02*
X10624944Y-17450174D01*
X10624944Y-17450174D02*
X10643991Y-17440650D01*
X10643991Y-17440650D02*
X10672563Y-17440650D01*
X10672563Y-17440650D02*
X10691610Y-17450174D01*
X10691610Y-17450174D02*
X10701134Y-17469222D01*
X10701134Y-17469222D02*
X10701134Y-17573984D01*
X10701134Y-17469222D02*
X10710658Y-17450174D01*
X10710658Y-17450174D02*
X10729705Y-17440650D01*
X10729705Y-17440650D02*
X10758277Y-17440650D01*
X10758277Y-17440650D02*
X10777325Y-17450174D01*
X10777325Y-17450174D02*
X10786848Y-17469222D01*
X10786848Y-17469222D02*
X10786848Y-17573984D01*
X10882086Y-17573984D02*
X10882086Y-17440650D01*
X10882086Y-17459698D02*
X10891610Y-17450174D01*
X10891610Y-17450174D02*
X10910658Y-17440650D01*
X10910658Y-17440650D02*
X10939229Y-17440650D01*
X10939229Y-17440650D02*
X10958277Y-17450174D01*
X10958277Y-17450174D02*
X10967801Y-17469222D01*
X10967801Y-17469222D02*
X10967801Y-17573984D01*
X10967801Y-17469222D02*
X10977325Y-17450174D01*
X10977325Y-17450174D02*
X10996372Y-17440650D01*
X10996372Y-17440650D02*
X11024944Y-17440650D01*
X11024944Y-17440650D02*
X11043991Y-17450174D01*
X11043991Y-17450174D02*
X11053515Y-17469222D01*
X11053515Y-17469222D02*
X11053515Y-17573984D01*
X11443991Y-17364460D02*
X11272563Y-17621603D01*
X11701134Y-17373984D02*
X11720182Y-17373984D01*
X11720182Y-17373984D02*
X11739229Y-17383508D01*
X11739229Y-17383508D02*
X11748753Y-17393031D01*
X11748753Y-17393031D02*
X11758277Y-17412079D01*
X11758277Y-17412079D02*
X11767801Y-17450174D01*
X11767801Y-17450174D02*
X11767801Y-17497793D01*
X11767801Y-17497793D02*
X11758277Y-17535889D01*
X11758277Y-17535889D02*
X11748753Y-17554936D01*
X11748753Y-17554936D02*
X11739229Y-17564460D01*
X11739229Y-17564460D02*
X11720182Y-17573984D01*
X11720182Y-17573984D02*
X11701134Y-17573984D01*
X11701134Y-17573984D02*
X11682086Y-17564460D01*
X11682086Y-17564460D02*
X11672563Y-17554936D01*
X11672563Y-17554936D02*
X11663039Y-17535889D01*
X11663039Y-17535889D02*
X11653515Y-17497793D01*
X11653515Y-17497793D02*
X11653515Y-17450174D01*
X11653515Y-17450174D02*
X11663039Y-17412079D01*
X11663039Y-17412079D02*
X11672563Y-17393031D01*
X11672563Y-17393031D02*
X11682086Y-17383508D01*
X11682086Y-17383508D02*
X11701134Y-17373984D01*
X11853515Y-17554936D02*
X11863039Y-17564460D01*
X11863039Y-17564460D02*
X11853515Y-17573984D01*
X11853515Y-17573984D02*
X11843991Y-17564460D01*
X11843991Y-17564460D02*
X11853515Y-17554936D01*
X11853515Y-17554936D02*
X11853515Y-17573984D01*
X12053515Y-17573984D02*
X11939229Y-17573984D01*
X11996372Y-17573984D02*
X11996372Y-17373984D01*
X11996372Y-17373984D02*
X11977325Y-17402555D01*
X11977325Y-17402555D02*
X11958277Y-17421603D01*
X11958277Y-17421603D02*
X11939229Y-17431127D01*
X12120182Y-17373984D02*
X12253515Y-17373984D01*
X12253515Y-17373984D02*
X12167801Y-17573984D01*
X12339229Y-17573984D02*
X12377325Y-17573984D01*
X12377325Y-17573984D02*
X12396372Y-17564460D01*
X12396372Y-17564460D02*
X12405896Y-17554936D01*
X12405896Y-17554936D02*
X12424944Y-17526365D01*
X12424944Y-17526365D02*
X12434467Y-17488270D01*
X12434467Y-17488270D02*
X12434467Y-17412079D01*
X12434467Y-17412079D02*
X12424944Y-17393031D01*
X12424944Y-17393031D02*
X12415420Y-17383508D01*
X12415420Y-17383508D02*
X12396372Y-17373984D01*
X12396372Y-17373984D02*
X12358277Y-17373984D01*
X12358277Y-17373984D02*
X12339229Y-17383508D01*
X12339229Y-17383508D02*
X12329706Y-17393031D01*
X12329706Y-17393031D02*
X12320182Y-17412079D01*
X12320182Y-17412079D02*
X12320182Y-17459698D01*
X12320182Y-17459698D02*
X12329706Y-17478746D01*
X12329706Y-17478746D02*
X12339229Y-17488270D01*
X12339229Y-17488270D02*
X12358277Y-17497793D01*
X12358277Y-17497793D02*
X12396372Y-17497793D01*
X12396372Y-17497793D02*
X12415420Y-17488270D01*
X12415420Y-17488270D02*
X12424944Y-17478746D01*
X12424944Y-17478746D02*
X12434467Y-17459698D01*
X12624944Y-17573984D02*
X12510658Y-17573984D01*
X12567801Y-17573984D02*
X12567801Y-17373984D01*
X12567801Y-17373984D02*
X12548753Y-17402555D01*
X12548753Y-17402555D02*
X12529706Y-17421603D01*
X12529706Y-17421603D02*
X12510658Y-17431127D01*
X12701134Y-17373984D02*
X12701134Y-17412079D01*
X12777325Y-17373984D02*
X12777325Y-17412079D01*
X13072563Y-17650174D02*
X13063039Y-17640650D01*
X13063039Y-17640650D02*
X13043991Y-17612079D01*
X13043991Y-17612079D02*
X13034468Y-17593031D01*
X13034468Y-17593031D02*
X13024944Y-17564460D01*
X13024944Y-17564460D02*
X13015420Y-17516841D01*
X13015420Y-17516841D02*
X13015420Y-17478746D01*
X13015420Y-17478746D02*
X13024944Y-17431127D01*
X13024944Y-17431127D02*
X13034468Y-17402555D01*
X13034468Y-17402555D02*
X13043991Y-17383508D01*
X13043991Y-17383508D02*
X13063039Y-17354936D01*
X13063039Y-17354936D02*
X13072563Y-17345412D01*
X13234468Y-17440650D02*
X13234468Y-17573984D01*
X13186848Y-17364460D02*
X13139229Y-17507317D01*
X13139229Y-17507317D02*
X13263039Y-17507317D01*
X13491610Y-17573984D02*
X13491610Y-17373984D01*
X13577325Y-17573984D02*
X13577325Y-17469222D01*
X13577325Y-17469222D02*
X13567801Y-17450174D01*
X13567801Y-17450174D02*
X13548753Y-17440650D01*
X13548753Y-17440650D02*
X13520182Y-17440650D01*
X13520182Y-17440650D02*
X13501134Y-17450174D01*
X13501134Y-17450174D02*
X13491610Y-17459698D01*
X13701134Y-17573984D02*
X13682087Y-17564460D01*
X13682087Y-17564460D02*
X13672563Y-17554936D01*
X13672563Y-17554936D02*
X13663039Y-17535889D01*
X13663039Y-17535889D02*
X13663039Y-17478746D01*
X13663039Y-17478746D02*
X13672563Y-17459698D01*
X13672563Y-17459698D02*
X13682087Y-17450174D01*
X13682087Y-17450174D02*
X13701134Y-17440650D01*
X13701134Y-17440650D02*
X13729706Y-17440650D01*
X13729706Y-17440650D02*
X13748753Y-17450174D01*
X13748753Y-17450174D02*
X13758277Y-17459698D01*
X13758277Y-17459698D02*
X13767801Y-17478746D01*
X13767801Y-17478746D02*
X13767801Y-17535889D01*
X13767801Y-17535889D02*
X13758277Y-17554936D01*
X13758277Y-17554936D02*
X13748753Y-17564460D01*
X13748753Y-17564460D02*
X13729706Y-17573984D01*
X13729706Y-17573984D02*
X13701134Y-17573984D01*
X13882087Y-17573984D02*
X13863039Y-17564460D01*
X13863039Y-17564460D02*
X13853515Y-17545412D01*
X13853515Y-17545412D02*
X13853515Y-17373984D01*
X14034468Y-17564460D02*
X14015420Y-17573984D01*
X14015420Y-17573984D02*
X13977325Y-17573984D01*
X13977325Y-17573984D02*
X13958277Y-17564460D01*
X13958277Y-17564460D02*
X13948753Y-17545412D01*
X13948753Y-17545412D02*
X13948753Y-17469222D01*
X13948753Y-17469222D02*
X13958277Y-17450174D01*
X13958277Y-17450174D02*
X13977325Y-17440650D01*
X13977325Y-17440650D02*
X14015420Y-17440650D01*
X14015420Y-17440650D02*
X14034468Y-17450174D01*
X14034468Y-17450174D02*
X14043991Y-17469222D01*
X14043991Y-17469222D02*
X14043991Y-17488270D01*
X14043991Y-17488270D02*
X13948753Y-17507317D01*
X14120182Y-17564460D02*
X14139230Y-17573984D01*
X14139230Y-17573984D02*
X14177325Y-17573984D01*
X14177325Y-17573984D02*
X14196372Y-17564460D01*
X14196372Y-17564460D02*
X14205896Y-17545412D01*
X14205896Y-17545412D02*
X14205896Y-17535889D01*
X14205896Y-17535889D02*
X14196372Y-17516841D01*
X14196372Y-17516841D02*
X14177325Y-17507317D01*
X14177325Y-17507317D02*
X14148753Y-17507317D01*
X14148753Y-17507317D02*
X14129706Y-17497793D01*
X14129706Y-17497793D02*
X14120182Y-17478746D01*
X14120182Y-17478746D02*
X14120182Y-17469222D01*
X14120182Y-17469222D02*
X14129706Y-17450174D01*
X14129706Y-17450174D02*
X14148753Y-17440650D01*
X14148753Y-17440650D02*
X14177325Y-17440650D01*
X14177325Y-17440650D02*
X14196372Y-17450174D01*
X14272563Y-17650174D02*
X14282087Y-17640650D01*
X14282087Y-17640650D02*
X14301134Y-17612079D01*
X14301134Y-17612079D02*
X14310658Y-17593031D01*
X14310658Y-17593031D02*
X14320182Y-17564460D01*
X14320182Y-17564460D02*
X14329706Y-17516841D01*
X14329706Y-17516841D02*
X14329706Y-17478746D01*
X14329706Y-17478746D02*
X14320182Y-17431127D01*
X14320182Y-17431127D02*
X14310658Y-17402555D01*
X14310658Y-17402555D02*
X14301134Y-17383508D01*
X14301134Y-17383508D02*
X14282087Y-17354936D01*
X14282087Y-17354936D02*
X14272563Y-17345412D01*
M02*
