M48
; DRILL file {KiCad 9.0.7} date 2026-02-13T00:51:18+0900
; FORMAT={-:-/ absolute / metric / decimal}
; #@! TF.CreationDate,2026-02-13T00:51:18+09:00
; #@! TF.GenerationSoftware,Kicad,Pcbnew,9.0.7
; #@! TF.FileFunction,Plated,1,2,PTH
FMAT,2
METRIC
; #@! TA.AperFunction,Plated,PTH,ViaDrill
T1C0.300
; #@! TA.AperFunction,Plated,PTH,ComponentDrill
T2C0.800
; #@! TA.AperFunction,Plated,PTH,ComponentDrill
T3C0.900
; #@! TA.AperFunction,Plated,PTH,ComponentDrill
T4C0.950
; #@! TA.AperFunction,Plated,PTH,ComponentDrill
T5C1.000
; #@! TA.AperFunction,Plated,PTH,ComponentDrill
T6C4.550
%
G90
G05
T1
X98.321Y-71.367
X100.5Y-21.75
X100.5Y-35.75
X100.75Y-53.25
X104.215Y-86.102
X106.75Y-77.5
X109.5Y-100.25
X110.75Y-90.25
X114.823Y-97.338
X115.25Y-23.0
X115.25Y-31.25
X115.25Y-39.25
X115.25Y-48.5
X115.75Y-67.0
X121.896Y-93.6
X122.08Y-71.367
X123.75Y-48.5
X124.144Y-61.279
X124.469Y-74.314
X124.638Y-85.536
X124.75Y-23.0
X124.75Y-31.0
X124.75Y-39.25
X126.947Y-63.277
X130.542Y-104.673
X131.096Y-82.474
X132.25Y-23.0
X132.25Y-31.0
X132.25Y-39.25
X134.084Y-91.972
X135.453Y-63.412
X135.848Y-62.524
X136.633Y-53.684
X136.855Y-68.272
X137.531Y-73.759
X138.25Y-45.5
X139.5Y-107.0
X139.862Y-85.904
X142.75Y-53.75
X142.75Y-64.75
X143.0Y-59.5
X144.75Y-23.25
X144.75Y-31.25
X144.75Y-39.25
X145.474Y-103.785
X147.75Y-59.25
X147.75Y-64.5
X148.0Y-53.75
X149.25Y-100.5
X149.681Y-41.229
X150.892Y-91.997
X151.75Y-31.25
X151.917Y-65.473
X152.75Y-39.5
X153.457Y-78.133
X154.171Y-47.439
X154.172Y-71.367
X154.316Y-100.838
X154.333Y-97.873
X154.5Y-23.25
X157.25Y-53.75
X158.49Y-36.425
X160.75Y-53.5
X162.75Y-28.0
X162.75Y-36.5
X162.75Y-42.0
X163.0Y-20.25
X164.5Y-84.25
X166.247Y-77.261
X166.247Y-80.208
X166.731Y-50.274
X167.656Y-47.609
X168.3Y-57.353
X168.888Y-64.731
X168.985Y-92.642
X169.13Y-24.196
X169.995Y-57.143
X171.998Y-80.207
X172.017Y-94.962
X177.89Y-71.366
X181.089Y-100.907
X181.271Y-52.461
X182.25Y-39.5
X182.25Y-45.75
X183.787Y-70.269
X186.734Y-80.208
X187.25Y-39.5
X187.75Y-45.5
X187.75Y-52.75
X187.75Y-105.5
X189.681Y-97.891
X189.944Y-15.176
X191.25Y-55.75
X191.5Y-28.25
X192.572Y-47.79
T2
X115.217Y-99.06
X115.217Y-101.6
X115.217Y-104.14
X115.217Y-106.68
X116.487Y-71.12
X116.487Y-81.28
X120.537Y-71.12
X120.537Y-81.28
X122.837Y-99.06
X122.837Y-101.6
X122.837Y-104.14
X122.837Y-106.68
X167.292Y-90.678
X167.292Y-93.218
X167.292Y-95.758
X167.292Y-98.298
X167.292Y-100.838
X167.292Y-103.378
X167.292Y-105.918
X167.292Y-108.458
X174.912Y-90.678
X174.912Y-93.218
X174.912Y-95.758
X174.912Y-98.298
X174.912Y-100.838
X174.912Y-103.378
X174.912Y-105.918
X174.912Y-108.458
T3
X117.757Y-88.9
X120.297Y-88.9
T4
X114.729Y-60.808
X114.741Y-52.652
X117.229Y-60.808
X117.241Y-52.652
X119.729Y-60.808
X119.741Y-52.652
X122.229Y-60.808
X122.241Y-52.652
X166.45Y-18.525
X166.45Y-26.653
X166.45Y-34.781
X166.45Y-43.036
X167.319Y-52.832
X167.319Y-61.011
X168.95Y-18.525
X168.95Y-26.653
X168.95Y-34.781
X168.95Y-43.036
X169.819Y-52.832
X169.819Y-61.011
X171.45Y-18.525
X171.45Y-26.653
X171.45Y-34.781
X171.45Y-43.036
X172.319Y-52.832
X172.319Y-61.011
X174.819Y-52.832
X174.819Y-61.011
T5
X98.019Y-86.055
X98.019Y-88.595
X98.019Y-91.135
X98.019Y-93.675
X98.019Y-96.215
X98.019Y-98.755
X98.019Y-101.295
X98.019Y-103.835
X98.019Y-106.375
X98.019Y-108.915
X98.019Y-111.455
X109.26Y-18.345
X109.26Y-26.526
X109.26Y-34.781
X109.26Y-43.036
X111.76Y-18.345
X111.76Y-26.526
X111.76Y-34.781
X111.76Y-43.036
X118.76Y-18.347
X118.76Y-26.526
X118.772Y-34.781
X118.772Y-43.036
X121.26Y-18.347
X121.26Y-26.526
X121.272Y-34.781
X121.272Y-43.036
X128.216Y-18.345
X128.216Y-26.509
X128.216Y-34.637
X128.216Y-42.782
X128.425Y-58.268
X128.425Y-60.808
X128.425Y-63.348
X128.425Y-65.888
X128.425Y-68.428
X128.425Y-70.968
X128.425Y-73.508
X128.425Y-76.048
X128.425Y-78.588
X128.425Y-81.128
X128.425Y-83.668
X128.425Y-86.208
X128.425Y-88.748
X128.425Y-91.288
X128.425Y-93.828
X128.425Y-96.368
X128.425Y-98.908
X128.425Y-101.448
X128.425Y-103.988
X128.425Y-106.528
X128.425Y-109.068
X128.425Y-111.608
X130.716Y-18.345
X130.716Y-26.509
X130.716Y-34.637
X130.716Y-42.782
X132.207Y-58.268
X132.207Y-60.808
X132.207Y-63.348
X132.207Y-65.888
X132.207Y-68.428
X132.207Y-70.968
X132.207Y-73.508
X132.207Y-76.048
X132.207Y-78.588
X132.207Y-81.128
X132.207Y-83.668
X132.207Y-86.208
X132.207Y-88.748
X132.207Y-91.288
X132.207Y-93.828
X132.207Y-96.368
X132.207Y-98.908
X132.207Y-101.448
X132.207Y-103.988
X132.207Y-106.528
X132.207Y-109.068
X132.207Y-111.608
X137.657Y-18.345
X137.657Y-26.526
X137.657Y-34.654
X140.157Y-18.345
X140.157Y-26.526
X140.157Y-34.654
X147.32Y-18.525
X147.32Y-26.653
X147.32Y-34.781
X147.32Y-43.036
X149.82Y-18.525
X149.82Y-26.653
X149.82Y-34.781
X149.82Y-43.036
X156.758Y-18.644
X156.758Y-26.772
X156.758Y-34.9
X156.758Y-43.028
X157.607Y-58.268
X157.607Y-60.808
X157.607Y-63.348
X157.607Y-65.888
X157.607Y-68.428
X157.607Y-70.968
X157.607Y-73.508
X157.607Y-76.048
X157.607Y-78.588
X157.607Y-81.128
X157.607Y-83.668
X157.607Y-86.208
X157.607Y-88.748
X157.607Y-91.288
X157.607Y-93.828
X157.607Y-96.368
X157.607Y-98.908
X157.607Y-101.448
X157.607Y-103.988
X157.607Y-106.528
X157.607Y-109.068
X157.607Y-111.608
X159.258Y-18.644
X159.258Y-26.772
X159.258Y-34.9
X159.258Y-43.028
X161.389Y-58.268
X161.389Y-60.808
X161.389Y-63.348
X161.389Y-65.888
X161.389Y-68.428
X161.389Y-70.968
X161.389Y-73.508
X161.389Y-76.048
X161.389Y-78.588
X161.389Y-81.128
X161.389Y-83.668
X161.389Y-86.208
X161.389Y-88.748
X161.389Y-91.288
X161.389Y-93.828
X161.389Y-96.368
X161.389Y-98.908
X161.389Y-101.448
X161.389Y-103.988
X161.389Y-106.528
X161.389Y-109.068
X161.389Y-111.608
X179.763Y-40.861
X179.763Y-43.401
X179.763Y-47.46
X179.763Y-50.0
X184.767Y-47.46
X184.767Y-50.0
X184.785Y-40.861
X184.785Y-43.401
X189.822Y-47.46
X189.822Y-50.0
X189.847Y-40.861
X189.847Y-43.401
X189.992Y-61.341
X189.992Y-63.881
X189.992Y-66.421
X189.992Y-68.961
X189.992Y-71.501
X189.992Y-74.041
X189.992Y-76.581
X189.992Y-79.121
X189.992Y-81.661
X189.992Y-84.201
X189.992Y-86.741
T6
X180.633Y-21.844
X180.633Y-34.544
X187.833Y-21.844
X187.833Y-34.544
M30
