M48
; DRILL file {KiCad 9.0.2} date 2025-11-13T13:08:21+0900
; FORMAT={-:-/ absolute / metric / decimal}
; #@! TF.CreationDate,2025-11-13T13:08:21+09:00
; #@! TF.GenerationSoftware,Kicad,Pcbnew,9.0.2
; #@! TF.FileFunction,Plated,1,2,PTH
FMAT,2
METRIC
; #@! TA.AperFunction,Plated,PTH,ViaDrill
T1C0.300
; #@! TA.AperFunction,Plated,PTH,ComponentDrill
T2C0.600
; #@! TA.AperFunction,Plated,PTH,ComponentDrill
T3C0.800
; #@! TA.AperFunction,Plated,PTH,ComponentDrill
T4C0.900
; #@! TA.AperFunction,Plated,PTH,ComponentDrill
T5C1.000
; #@! TA.AperFunction,Plated,PTH,ComponentDrill
T6C1.118
; #@! TA.AperFunction,Plated,PTH,ComponentDrill
T7C1.700
; #@! TA.AperFunction,Plated,PTH,ComponentDrill
T8C2.700
%
G90
G05
T1
X92.431Y-127.356
X92.431Y-129.979
X93.472Y-144.78
X94.958Y-146.025
X95.504Y-144.78
X96.558Y-146.014
X97.668Y-122.936
X98.84Y-146.016
X100.092Y-151.536
X101.092Y-146.431
X102.092Y-151.536
X103.378Y-161.493
X105.283Y-123.483
X107.137Y-158.953
X117.411Y-113.362
X118.705Y-127.104
X120.396Y-117.602
X120.396Y-120.142
X121.548Y-127.118
X121.628Y-144.983
X122.428Y-139.855
X125.984Y-152.73
X126.34Y-128.829
T3
X95.123Y-125.73
X95.123Y-133.35
X97.663Y-125.73
X97.663Y-133.35
X99.441Y-135.895
X99.441Y-143.515
X100.203Y-125.73
X100.203Y-133.35
X101.981Y-135.895
X101.981Y-143.515
X102.108Y-113.581
X102.108Y-121.115
X102.743Y-125.73
X102.743Y-133.35
X104.261Y-159.713
X104.286Y-148.403
X104.521Y-135.895
X104.521Y-143.515
X105.283Y-125.73
X105.283Y-133.35
X106.85Y-116.84
X106.85Y-120.65
X107.061Y-135.895
X107.061Y-143.515
X107.823Y-125.73
X107.823Y-133.35
X110.363Y-125.73
X110.363Y-133.35
X110.744Y-135.89
X110.744Y-143.51
X111.795Y-159.713
X111.82Y-148.403
X114.384Y-116.84
X114.384Y-120.65
X115.639Y-148.36
X115.703Y-159.742
X116.205Y-125.73
X116.205Y-133.35
X117.099Y-115.062
X117.099Y-117.602
X117.099Y-120.142
X117.099Y-122.682
X117.348Y-135.89
X117.348Y-143.51
X118.745Y-125.73
X118.745Y-133.35
X119.888Y-135.89
X119.888Y-143.51
X121.285Y-125.73
X121.285Y-133.35
X122.428Y-135.89
X122.428Y-143.51
X123.173Y-148.36
X123.237Y-159.742
X123.825Y-125.73
X123.825Y-133.35
X124.719Y-115.062
X124.719Y-117.602
X124.719Y-120.142
X124.719Y-122.682
X124.968Y-135.89
X124.968Y-143.51
X126.365Y-125.73
X126.365Y-133.35
X127.043Y-116.586
X127.043Y-120.856
X128.651Y-135.89
X128.651Y-143.51
X128.905Y-125.73
X128.905Y-133.35
X129.284Y-163.703
X131.445Y-125.73
X131.445Y-133.35
X132.784Y-163.703
X134.577Y-116.586
X134.577Y-120.856
X136.271Y-135.502
X136.271Y-143.036
X140.462Y-135.484
X140.462Y-143.018
X140.939Y-159.004
X141.0Y-151.384
X142.939Y-159.004
X143.0Y-151.384
T4
X95.128Y-119.385
X97.668Y-119.385
X137.922Y-130.556
X137.927Y-122.682
X140.462Y-130.556
X140.467Y-122.682
T5
X88.17Y-146.138
X88.17Y-157.138
X88.3Y-160.108
X88.3Y-171.108
X113.29Y-127.047
X113.29Y-132.047
X113.798Y-136.953
X113.798Y-141.953
X118.411Y-111.626
X123.411Y-111.626
X128.064Y-151.467
X132.334Y-136.953
X132.334Y-141.953
X133.064Y-151.467
X134.373Y-127.08
X134.373Y-132.08
X137.416Y-164.852
X138.686Y-146.056
X142.416Y-164.852
X143.686Y-146.056
T6
X105.359Y-151.85
X105.411Y-163.168
X107.899Y-151.85
X107.951Y-163.168
X110.439Y-151.85
X110.491Y-163.168
X116.84Y-151.814
X116.84Y-163.179
X119.38Y-151.814
X119.38Y-163.179
X121.92Y-151.814
X121.92Y-163.179
X128.905Y-147.955
X128.905Y-156.337
X131.445Y-147.955
X131.445Y-156.337
X133.985Y-147.955
X133.985Y-156.337
T7
X98.17Y-149.138
X98.17Y-154.138
X98.3Y-163.108
X98.3Y-168.108
T8
X107.506Y-171.8
X114.706Y-171.8
X125.94Y-171.8
X133.14Y-171.8
T2
X104.356Y-178.35G85X104.356Y-177.25
G05
X117.856Y-178.35G85X117.856Y-177.25
G05
X122.79Y-178.35G85X122.79Y-177.25
G05
X136.29Y-178.35G85X136.29Y-177.25
G05
M30
