%TF.GenerationSoftware,KiCad,Pcbnew,9.0.2*%
%TF.CreationDate,2025-12-04T17:10:17+09:00*%
%TF.ProjectId,ESP32-ROS-IO-V4.0,45535033-322d-4524-9f53-2d494f2d5634,rev?*%
%TF.SameCoordinates,Original*%
%TF.FileFunction,Drillmap*%
%TF.FilePolarity,Positive*%
%FSLAX45Y45*%
G04 Gerber Fmt 4.5, Leading zero omitted, Abs format (unit mm)*
G04 Created by KiCad (PCBNEW 9.0.2) date 2025-12-04 17:10:17*
%MOMM*%
%LPD*%
G01*
G04 APERTURE LIST*
%ADD10C,0.050000*%
%ADD11C,0.200000*%
%ADD12C,0.320000*%
G04 APERTURE END LIST*
D10*
X16700000Y-5500000D02*
X7300000Y-5500000D01*
X7300000Y-15500000D02*
G75*
G02*
X7000000Y-15200000I0J300000D01*
G01*
X7300000Y-15500000D02*
X16700000Y-15500000D01*
X7000000Y-5800000D02*
G75*
G02*
X7300000Y-5500000I300000J0D01*
G01*
X17000000Y-15200000D02*
X17000000Y-5800000D01*
X7000000Y-5800000D02*
X7000000Y-15200000D01*
X16700000Y-5500000D02*
G75*
G02*
X17000000Y-5800000I0J-300000D01*
G01*
X17000000Y-15200000D02*
G75*
G02*
X16700000Y-15500000I-300000J0D01*
G01*
D11*
D12*
X7240000Y-9440000D02*
X7560000Y-9760000D01*
X7560000Y-9440000D02*
X7240000Y-9760000D01*
X9540000Y-14840000D02*
X9860000Y-15160000D01*
X9860000Y-14840000D02*
X9540000Y-15160000D01*
X14140000Y-14840000D02*
X14460000Y-15160000D01*
X14460000Y-14840000D02*
X14140000Y-15160000D01*
X16440000Y-9440000D02*
X16760000Y-9760000D01*
X16760000Y-9440000D02*
X16440000Y-9760000D01*
D11*
X7258277Y-15813984D02*
X7258277Y-15613984D01*
X7258277Y-15613984D02*
X7305896Y-15613984D01*
X7305896Y-15613984D02*
X7334467Y-15623508D01*
X7334467Y-15623508D02*
X7353515Y-15642555D01*
X7353515Y-15642555D02*
X7363039Y-15661603D01*
X7363039Y-15661603D02*
X7372562Y-15699698D01*
X7372562Y-15699698D02*
X7372562Y-15728269D01*
X7372562Y-15728269D02*
X7363039Y-15766365D01*
X7363039Y-15766365D02*
X7353515Y-15785412D01*
X7353515Y-15785412D02*
X7334467Y-15804460D01*
X7334467Y-15804460D02*
X7305896Y-15813984D01*
X7305896Y-15813984D02*
X7258277Y-15813984D01*
X7458277Y-15813984D02*
X7458277Y-15680650D01*
X7458277Y-15718746D02*
X7467801Y-15699698D01*
X7467801Y-15699698D02*
X7477324Y-15690174D01*
X7477324Y-15690174D02*
X7496372Y-15680650D01*
X7496372Y-15680650D02*
X7515420Y-15680650D01*
X7582086Y-15813984D02*
X7582086Y-15680650D01*
X7582086Y-15613984D02*
X7572562Y-15623508D01*
X7572562Y-15623508D02*
X7582086Y-15633031D01*
X7582086Y-15633031D02*
X7591610Y-15623508D01*
X7591610Y-15623508D02*
X7582086Y-15613984D01*
X7582086Y-15613984D02*
X7582086Y-15633031D01*
X7705896Y-15813984D02*
X7686848Y-15804460D01*
X7686848Y-15804460D02*
X7677324Y-15785412D01*
X7677324Y-15785412D02*
X7677324Y-15613984D01*
X7810658Y-15813984D02*
X7791610Y-15804460D01*
X7791610Y-15804460D02*
X7782086Y-15785412D01*
X7782086Y-15785412D02*
X7782086Y-15613984D01*
X8039229Y-15813984D02*
X8039229Y-15613984D01*
X8039229Y-15613984D02*
X8105896Y-15756841D01*
X8105896Y-15756841D02*
X8172562Y-15613984D01*
X8172562Y-15613984D02*
X8172562Y-15813984D01*
X8353515Y-15813984D02*
X8353515Y-15709222D01*
X8353515Y-15709222D02*
X8343991Y-15690174D01*
X8343991Y-15690174D02*
X8324943Y-15680650D01*
X8324943Y-15680650D02*
X8286848Y-15680650D01*
X8286848Y-15680650D02*
X8267801Y-15690174D01*
X8353515Y-15804460D02*
X8334467Y-15813984D01*
X8334467Y-15813984D02*
X8286848Y-15813984D01*
X8286848Y-15813984D02*
X8267801Y-15804460D01*
X8267801Y-15804460D02*
X8258277Y-15785412D01*
X8258277Y-15785412D02*
X8258277Y-15766365D01*
X8258277Y-15766365D02*
X8267801Y-15747317D01*
X8267801Y-15747317D02*
X8286848Y-15737793D01*
X8286848Y-15737793D02*
X8334467Y-15737793D01*
X8334467Y-15737793D02*
X8353515Y-15728269D01*
X8448753Y-15680650D02*
X8448753Y-15880650D01*
X8448753Y-15690174D02*
X8467801Y-15680650D01*
X8467801Y-15680650D02*
X8505896Y-15680650D01*
X8505896Y-15680650D02*
X8524944Y-15690174D01*
X8524944Y-15690174D02*
X8534467Y-15699698D01*
X8534467Y-15699698D02*
X8543991Y-15718746D01*
X8543991Y-15718746D02*
X8543991Y-15775888D01*
X8543991Y-15775888D02*
X8534467Y-15794936D01*
X8534467Y-15794936D02*
X8524944Y-15804460D01*
X8524944Y-15804460D02*
X8505896Y-15813984D01*
X8505896Y-15813984D02*
X8467801Y-15813984D01*
X8467801Y-15813984D02*
X8448753Y-15804460D01*
X8629705Y-15794936D02*
X8639229Y-15804460D01*
X8639229Y-15804460D02*
X8629705Y-15813984D01*
X8629705Y-15813984D02*
X8620182Y-15804460D01*
X8620182Y-15804460D02*
X8629705Y-15794936D01*
X8629705Y-15794936D02*
X8629705Y-15813984D01*
X8629705Y-15690174D02*
X8639229Y-15699698D01*
X8639229Y-15699698D02*
X8629705Y-15709222D01*
X8629705Y-15709222D02*
X8620182Y-15699698D01*
X8620182Y-15699698D02*
X8629705Y-15690174D01*
X8629705Y-15690174D02*
X8629705Y-15709222D01*
X6797500Y-16042500D02*
X6997500Y-16242500D01*
X6997500Y-16042500D02*
X6797500Y-16242500D01*
X7239229Y-16033984D02*
X7363039Y-16033984D01*
X7363039Y-16033984D02*
X7296372Y-16110174D01*
X7296372Y-16110174D02*
X7324943Y-16110174D01*
X7324943Y-16110174D02*
X7343991Y-16119698D01*
X7343991Y-16119698D02*
X7353515Y-16129222D01*
X7353515Y-16129222D02*
X7363039Y-16148269D01*
X7363039Y-16148269D02*
X7363039Y-16195888D01*
X7363039Y-16195888D02*
X7353515Y-16214936D01*
X7353515Y-16214936D02*
X7343991Y-16224460D01*
X7343991Y-16224460D02*
X7324943Y-16233984D01*
X7324943Y-16233984D02*
X7267801Y-16233984D01*
X7267801Y-16233984D02*
X7248753Y-16224460D01*
X7248753Y-16224460D02*
X7239229Y-16214936D01*
X7448753Y-16214936D02*
X7458277Y-16224460D01*
X7458277Y-16224460D02*
X7448753Y-16233984D01*
X7448753Y-16233984D02*
X7439229Y-16224460D01*
X7439229Y-16224460D02*
X7448753Y-16214936D01*
X7448753Y-16214936D02*
X7448753Y-16233984D01*
X7534467Y-16053031D02*
X7543991Y-16043508D01*
X7543991Y-16043508D02*
X7563039Y-16033984D01*
X7563039Y-16033984D02*
X7610658Y-16033984D01*
X7610658Y-16033984D02*
X7629705Y-16043508D01*
X7629705Y-16043508D02*
X7639229Y-16053031D01*
X7639229Y-16053031D02*
X7648753Y-16072079D01*
X7648753Y-16072079D02*
X7648753Y-16091127D01*
X7648753Y-16091127D02*
X7639229Y-16119698D01*
X7639229Y-16119698D02*
X7524943Y-16233984D01*
X7524943Y-16233984D02*
X7648753Y-16233984D01*
X7772562Y-16033984D02*
X7791610Y-16033984D01*
X7791610Y-16033984D02*
X7810658Y-16043508D01*
X7810658Y-16043508D02*
X7820182Y-16053031D01*
X7820182Y-16053031D02*
X7829705Y-16072079D01*
X7829705Y-16072079D02*
X7839229Y-16110174D01*
X7839229Y-16110174D02*
X7839229Y-16157793D01*
X7839229Y-16157793D02*
X7829705Y-16195888D01*
X7829705Y-16195888D02*
X7820182Y-16214936D01*
X7820182Y-16214936D02*
X7810658Y-16224460D01*
X7810658Y-16224460D02*
X7791610Y-16233984D01*
X7791610Y-16233984D02*
X7772562Y-16233984D01*
X7772562Y-16233984D02*
X7753515Y-16224460D01*
X7753515Y-16224460D02*
X7743991Y-16214936D01*
X7743991Y-16214936D02*
X7734467Y-16195888D01*
X7734467Y-16195888D02*
X7724943Y-16157793D01*
X7724943Y-16157793D02*
X7724943Y-16110174D01*
X7724943Y-16110174D02*
X7734467Y-16072079D01*
X7734467Y-16072079D02*
X7743991Y-16053031D01*
X7743991Y-16053031D02*
X7753515Y-16043508D01*
X7753515Y-16043508D02*
X7772562Y-16033984D01*
X7963039Y-16033984D02*
X7982086Y-16033984D01*
X7982086Y-16033984D02*
X8001134Y-16043508D01*
X8001134Y-16043508D02*
X8010658Y-16053031D01*
X8010658Y-16053031D02*
X8020182Y-16072079D01*
X8020182Y-16072079D02*
X8029705Y-16110174D01*
X8029705Y-16110174D02*
X8029705Y-16157793D01*
X8029705Y-16157793D02*
X8020182Y-16195888D01*
X8020182Y-16195888D02*
X8010658Y-16214936D01*
X8010658Y-16214936D02*
X8001134Y-16224460D01*
X8001134Y-16224460D02*
X7982086Y-16233984D01*
X7982086Y-16233984D02*
X7963039Y-16233984D01*
X7963039Y-16233984D02*
X7943991Y-16224460D01*
X7943991Y-16224460D02*
X7934467Y-16214936D01*
X7934467Y-16214936D02*
X7924943Y-16195888D01*
X7924943Y-16195888D02*
X7915420Y-16157793D01*
X7915420Y-16157793D02*
X7915420Y-16110174D01*
X7915420Y-16110174D02*
X7924943Y-16072079D01*
X7924943Y-16072079D02*
X7934467Y-16053031D01*
X7934467Y-16053031D02*
X7943991Y-16043508D01*
X7943991Y-16043508D02*
X7963039Y-16033984D01*
X8115420Y-16233984D02*
X8115420Y-16100650D01*
X8115420Y-16119698D02*
X8124943Y-16110174D01*
X8124943Y-16110174D02*
X8143991Y-16100650D01*
X8143991Y-16100650D02*
X8172563Y-16100650D01*
X8172563Y-16100650D02*
X8191610Y-16110174D01*
X8191610Y-16110174D02*
X8201134Y-16129222D01*
X8201134Y-16129222D02*
X8201134Y-16233984D01*
X8201134Y-16129222D02*
X8210658Y-16110174D01*
X8210658Y-16110174D02*
X8229705Y-16100650D01*
X8229705Y-16100650D02*
X8258277Y-16100650D01*
X8258277Y-16100650D02*
X8277324Y-16110174D01*
X8277324Y-16110174D02*
X8286848Y-16129222D01*
X8286848Y-16129222D02*
X8286848Y-16233984D01*
X8382086Y-16233984D02*
X8382086Y-16100650D01*
X8382086Y-16119698D02*
X8391610Y-16110174D01*
X8391610Y-16110174D02*
X8410658Y-16100650D01*
X8410658Y-16100650D02*
X8439229Y-16100650D01*
X8439229Y-16100650D02*
X8458277Y-16110174D01*
X8458277Y-16110174D02*
X8467801Y-16129222D01*
X8467801Y-16129222D02*
X8467801Y-16233984D01*
X8467801Y-16129222D02*
X8477325Y-16110174D01*
X8477325Y-16110174D02*
X8496372Y-16100650D01*
X8496372Y-16100650D02*
X8524944Y-16100650D01*
X8524944Y-16100650D02*
X8543991Y-16110174D01*
X8543991Y-16110174D02*
X8553515Y-16129222D01*
X8553515Y-16129222D02*
X8553515Y-16233984D01*
X8943991Y-16024460D02*
X8772563Y-16281603D01*
X9201134Y-16033984D02*
X9220182Y-16033984D01*
X9220182Y-16033984D02*
X9239229Y-16043508D01*
X9239229Y-16043508D02*
X9248753Y-16053031D01*
X9248753Y-16053031D02*
X9258277Y-16072079D01*
X9258277Y-16072079D02*
X9267801Y-16110174D01*
X9267801Y-16110174D02*
X9267801Y-16157793D01*
X9267801Y-16157793D02*
X9258277Y-16195888D01*
X9258277Y-16195888D02*
X9248753Y-16214936D01*
X9248753Y-16214936D02*
X9239229Y-16224460D01*
X9239229Y-16224460D02*
X9220182Y-16233984D01*
X9220182Y-16233984D02*
X9201134Y-16233984D01*
X9201134Y-16233984D02*
X9182087Y-16224460D01*
X9182087Y-16224460D02*
X9172563Y-16214936D01*
X9172563Y-16214936D02*
X9163039Y-16195888D01*
X9163039Y-16195888D02*
X9153515Y-16157793D01*
X9153515Y-16157793D02*
X9153515Y-16110174D01*
X9153515Y-16110174D02*
X9163039Y-16072079D01*
X9163039Y-16072079D02*
X9172563Y-16053031D01*
X9172563Y-16053031D02*
X9182087Y-16043508D01*
X9182087Y-16043508D02*
X9201134Y-16033984D01*
X9353515Y-16214936D02*
X9363039Y-16224460D01*
X9363039Y-16224460D02*
X9353515Y-16233984D01*
X9353515Y-16233984D02*
X9343991Y-16224460D01*
X9343991Y-16224460D02*
X9353515Y-16214936D01*
X9353515Y-16214936D02*
X9353515Y-16233984D01*
X9553515Y-16233984D02*
X9439229Y-16233984D01*
X9496372Y-16233984D02*
X9496372Y-16033984D01*
X9496372Y-16033984D02*
X9477325Y-16062555D01*
X9477325Y-16062555D02*
X9458277Y-16081603D01*
X9458277Y-16081603D02*
X9439229Y-16091127D01*
X9629706Y-16053031D02*
X9639229Y-16043508D01*
X9639229Y-16043508D02*
X9658277Y-16033984D01*
X9658277Y-16033984D02*
X9705896Y-16033984D01*
X9705896Y-16033984D02*
X9724944Y-16043508D01*
X9724944Y-16043508D02*
X9734468Y-16053031D01*
X9734468Y-16053031D02*
X9743991Y-16072079D01*
X9743991Y-16072079D02*
X9743991Y-16091127D01*
X9743991Y-16091127D02*
X9734468Y-16119698D01*
X9734468Y-16119698D02*
X9620182Y-16233984D01*
X9620182Y-16233984D02*
X9743991Y-16233984D01*
X9915420Y-16033984D02*
X9877325Y-16033984D01*
X9877325Y-16033984D02*
X9858277Y-16043508D01*
X9858277Y-16043508D02*
X9848753Y-16053031D01*
X9848753Y-16053031D02*
X9829706Y-16081603D01*
X9829706Y-16081603D02*
X9820182Y-16119698D01*
X9820182Y-16119698D02*
X9820182Y-16195888D01*
X9820182Y-16195888D02*
X9829706Y-16214936D01*
X9829706Y-16214936D02*
X9839229Y-16224460D01*
X9839229Y-16224460D02*
X9858277Y-16233984D01*
X9858277Y-16233984D02*
X9896372Y-16233984D01*
X9896372Y-16233984D02*
X9915420Y-16224460D01*
X9915420Y-16224460D02*
X9924944Y-16214936D01*
X9924944Y-16214936D02*
X9934468Y-16195888D01*
X9934468Y-16195888D02*
X9934468Y-16148269D01*
X9934468Y-16148269D02*
X9924944Y-16129222D01*
X9924944Y-16129222D02*
X9915420Y-16119698D01*
X9915420Y-16119698D02*
X9896372Y-16110174D01*
X9896372Y-16110174D02*
X9858277Y-16110174D01*
X9858277Y-16110174D02*
X9839229Y-16119698D01*
X9839229Y-16119698D02*
X9829706Y-16129222D01*
X9829706Y-16129222D02*
X9820182Y-16148269D01*
X10058277Y-16033984D02*
X10077325Y-16033984D01*
X10077325Y-16033984D02*
X10096372Y-16043508D01*
X10096372Y-16043508D02*
X10105896Y-16053031D01*
X10105896Y-16053031D02*
X10115420Y-16072079D01*
X10115420Y-16072079D02*
X10124944Y-16110174D01*
X10124944Y-16110174D02*
X10124944Y-16157793D01*
X10124944Y-16157793D02*
X10115420Y-16195888D01*
X10115420Y-16195888D02*
X10105896Y-16214936D01*
X10105896Y-16214936D02*
X10096372Y-16224460D01*
X10096372Y-16224460D02*
X10077325Y-16233984D01*
X10077325Y-16233984D02*
X10058277Y-16233984D01*
X10058277Y-16233984D02*
X10039229Y-16224460D01*
X10039229Y-16224460D02*
X10029706Y-16214936D01*
X10029706Y-16214936D02*
X10020182Y-16195888D01*
X10020182Y-16195888D02*
X10010658Y-16157793D01*
X10010658Y-16157793D02*
X10010658Y-16110174D01*
X10010658Y-16110174D02*
X10020182Y-16072079D01*
X10020182Y-16072079D02*
X10029706Y-16053031D01*
X10029706Y-16053031D02*
X10039229Y-16043508D01*
X10039229Y-16043508D02*
X10058277Y-16033984D01*
X10201134Y-16033984D02*
X10201134Y-16072079D01*
X10277325Y-16033984D02*
X10277325Y-16072079D01*
X10572563Y-16310174D02*
X10563039Y-16300650D01*
X10563039Y-16300650D02*
X10543991Y-16272079D01*
X10543991Y-16272079D02*
X10534468Y-16253031D01*
X10534468Y-16253031D02*
X10524944Y-16224460D01*
X10524944Y-16224460D02*
X10515420Y-16176841D01*
X10515420Y-16176841D02*
X10515420Y-16138746D01*
X10515420Y-16138746D02*
X10524944Y-16091127D01*
X10524944Y-16091127D02*
X10534468Y-16062555D01*
X10534468Y-16062555D02*
X10543991Y-16043508D01*
X10543991Y-16043508D02*
X10563039Y-16014936D01*
X10563039Y-16014936D02*
X10572563Y-16005412D01*
X10734468Y-16100650D02*
X10734468Y-16233984D01*
X10686849Y-16024460D02*
X10639230Y-16167317D01*
X10639230Y-16167317D02*
X10763039Y-16167317D01*
X10991611Y-16233984D02*
X10991611Y-16033984D01*
X11077325Y-16233984D02*
X11077325Y-16129222D01*
X11077325Y-16129222D02*
X11067801Y-16110174D01*
X11067801Y-16110174D02*
X11048753Y-16100650D01*
X11048753Y-16100650D02*
X11020182Y-16100650D01*
X11020182Y-16100650D02*
X11001134Y-16110174D01*
X11001134Y-16110174D02*
X10991611Y-16119698D01*
X11201134Y-16233984D02*
X11182087Y-16224460D01*
X11182087Y-16224460D02*
X11172563Y-16214936D01*
X11172563Y-16214936D02*
X11163039Y-16195888D01*
X11163039Y-16195888D02*
X11163039Y-16138746D01*
X11163039Y-16138746D02*
X11172563Y-16119698D01*
X11172563Y-16119698D02*
X11182087Y-16110174D01*
X11182087Y-16110174D02*
X11201134Y-16100650D01*
X11201134Y-16100650D02*
X11229706Y-16100650D01*
X11229706Y-16100650D02*
X11248753Y-16110174D01*
X11248753Y-16110174D02*
X11258277Y-16119698D01*
X11258277Y-16119698D02*
X11267801Y-16138746D01*
X11267801Y-16138746D02*
X11267801Y-16195888D01*
X11267801Y-16195888D02*
X11258277Y-16214936D01*
X11258277Y-16214936D02*
X11248753Y-16224460D01*
X11248753Y-16224460D02*
X11229706Y-16233984D01*
X11229706Y-16233984D02*
X11201134Y-16233984D01*
X11382087Y-16233984D02*
X11363039Y-16224460D01*
X11363039Y-16224460D02*
X11353515Y-16205412D01*
X11353515Y-16205412D02*
X11353515Y-16033984D01*
X11534468Y-16224460D02*
X11515420Y-16233984D01*
X11515420Y-16233984D02*
X11477325Y-16233984D01*
X11477325Y-16233984D02*
X11458277Y-16224460D01*
X11458277Y-16224460D02*
X11448753Y-16205412D01*
X11448753Y-16205412D02*
X11448753Y-16129222D01*
X11448753Y-16129222D02*
X11458277Y-16110174D01*
X11458277Y-16110174D02*
X11477325Y-16100650D01*
X11477325Y-16100650D02*
X11515420Y-16100650D01*
X11515420Y-16100650D02*
X11534468Y-16110174D01*
X11534468Y-16110174D02*
X11543991Y-16129222D01*
X11543991Y-16129222D02*
X11543991Y-16148269D01*
X11543991Y-16148269D02*
X11448753Y-16167317D01*
X11620182Y-16224460D02*
X11639230Y-16233984D01*
X11639230Y-16233984D02*
X11677325Y-16233984D01*
X11677325Y-16233984D02*
X11696372Y-16224460D01*
X11696372Y-16224460D02*
X11705896Y-16205412D01*
X11705896Y-16205412D02*
X11705896Y-16195888D01*
X11705896Y-16195888D02*
X11696372Y-16176841D01*
X11696372Y-16176841D02*
X11677325Y-16167317D01*
X11677325Y-16167317D02*
X11648753Y-16167317D01*
X11648753Y-16167317D02*
X11629706Y-16157793D01*
X11629706Y-16157793D02*
X11620182Y-16138746D01*
X11620182Y-16138746D02*
X11620182Y-16129222D01*
X11620182Y-16129222D02*
X11629706Y-16110174D01*
X11629706Y-16110174D02*
X11648753Y-16100650D01*
X11648753Y-16100650D02*
X11677325Y-16100650D01*
X11677325Y-16100650D02*
X11696372Y-16110174D01*
X11772563Y-16310174D02*
X11782087Y-16300650D01*
X11782087Y-16300650D02*
X11801134Y-16272079D01*
X11801134Y-16272079D02*
X11810658Y-16253031D01*
X11810658Y-16253031D02*
X11820182Y-16224460D01*
X11820182Y-16224460D02*
X11829706Y-16176841D01*
X11829706Y-16176841D02*
X11829706Y-16138746D01*
X11829706Y-16138746D02*
X11820182Y-16091127D01*
X11820182Y-16091127D02*
X11810658Y-16062555D01*
X11810658Y-16062555D02*
X11801134Y-16043508D01*
X11801134Y-16043508D02*
X11782087Y-16014936D01*
X11782087Y-16014936D02*
X11772563Y-16005412D01*
X12134468Y-16310174D02*
X12124944Y-16300650D01*
X12124944Y-16300650D02*
X12105896Y-16272079D01*
X12105896Y-16272079D02*
X12096372Y-16253031D01*
X12096372Y-16253031D02*
X12086849Y-16224460D01*
X12086849Y-16224460D02*
X12077325Y-16176841D01*
X12077325Y-16176841D02*
X12077325Y-16138746D01*
X12077325Y-16138746D02*
X12086849Y-16091127D01*
X12086849Y-16091127D02*
X12096372Y-16062555D01*
X12096372Y-16062555D02*
X12105896Y-16043508D01*
X12105896Y-16043508D02*
X12124944Y-16014936D01*
X12124944Y-16014936D02*
X12134468Y-16005412D01*
X12210658Y-16100650D02*
X12210658Y-16233984D01*
X12210658Y-16119698D02*
X12220182Y-16110174D01*
X12220182Y-16110174D02*
X12239230Y-16100650D01*
X12239230Y-16100650D02*
X12267801Y-16100650D01*
X12267801Y-16100650D02*
X12286849Y-16110174D01*
X12286849Y-16110174D02*
X12296372Y-16129222D01*
X12296372Y-16129222D02*
X12296372Y-16233984D01*
X12420182Y-16233984D02*
X12401134Y-16224460D01*
X12401134Y-16224460D02*
X12391611Y-16214936D01*
X12391611Y-16214936D02*
X12382087Y-16195888D01*
X12382087Y-16195888D02*
X12382087Y-16138746D01*
X12382087Y-16138746D02*
X12391611Y-16119698D01*
X12391611Y-16119698D02*
X12401134Y-16110174D01*
X12401134Y-16110174D02*
X12420182Y-16100650D01*
X12420182Y-16100650D02*
X12448753Y-16100650D01*
X12448753Y-16100650D02*
X12467801Y-16110174D01*
X12467801Y-16110174D02*
X12477325Y-16119698D01*
X12477325Y-16119698D02*
X12486849Y-16138746D01*
X12486849Y-16138746D02*
X12486849Y-16195888D01*
X12486849Y-16195888D02*
X12477325Y-16214936D01*
X12477325Y-16214936D02*
X12467801Y-16224460D01*
X12467801Y-16224460D02*
X12448753Y-16233984D01*
X12448753Y-16233984D02*
X12420182Y-16233984D01*
X12543992Y-16100650D02*
X12620182Y-16100650D01*
X12572563Y-16033984D02*
X12572563Y-16205412D01*
X12572563Y-16205412D02*
X12582087Y-16224460D01*
X12582087Y-16224460D02*
X12601134Y-16233984D01*
X12601134Y-16233984D02*
X12620182Y-16233984D01*
X12839230Y-16100650D02*
X12839230Y-16300650D01*
X12839230Y-16110174D02*
X12858277Y-16100650D01*
X12858277Y-16100650D02*
X12896373Y-16100650D01*
X12896373Y-16100650D02*
X12915420Y-16110174D01*
X12915420Y-16110174D02*
X12924944Y-16119698D01*
X12924944Y-16119698D02*
X12934468Y-16138746D01*
X12934468Y-16138746D02*
X12934468Y-16195888D01*
X12934468Y-16195888D02*
X12924944Y-16214936D01*
X12924944Y-16214936D02*
X12915420Y-16224460D01*
X12915420Y-16224460D02*
X12896373Y-16233984D01*
X12896373Y-16233984D02*
X12858277Y-16233984D01*
X12858277Y-16233984D02*
X12839230Y-16224460D01*
X13048753Y-16233984D02*
X13029706Y-16224460D01*
X13029706Y-16224460D02*
X13020182Y-16205412D01*
X13020182Y-16205412D02*
X13020182Y-16033984D01*
X13210658Y-16233984D02*
X13210658Y-16129222D01*
X13210658Y-16129222D02*
X13201134Y-16110174D01*
X13201134Y-16110174D02*
X13182087Y-16100650D01*
X13182087Y-16100650D02*
X13143992Y-16100650D01*
X13143992Y-16100650D02*
X13124944Y-16110174D01*
X13210658Y-16224460D02*
X13191611Y-16233984D01*
X13191611Y-16233984D02*
X13143992Y-16233984D01*
X13143992Y-16233984D02*
X13124944Y-16224460D01*
X13124944Y-16224460D02*
X13115420Y-16205412D01*
X13115420Y-16205412D02*
X13115420Y-16186365D01*
X13115420Y-16186365D02*
X13124944Y-16167317D01*
X13124944Y-16167317D02*
X13143992Y-16157793D01*
X13143992Y-16157793D02*
X13191611Y-16157793D01*
X13191611Y-16157793D02*
X13210658Y-16148269D01*
X13277325Y-16100650D02*
X13353515Y-16100650D01*
X13305896Y-16033984D02*
X13305896Y-16205412D01*
X13305896Y-16205412D02*
X13315420Y-16224460D01*
X13315420Y-16224460D02*
X13334468Y-16233984D01*
X13334468Y-16233984D02*
X13353515Y-16233984D01*
X13496373Y-16224460D02*
X13477325Y-16233984D01*
X13477325Y-16233984D02*
X13439230Y-16233984D01*
X13439230Y-16233984D02*
X13420182Y-16224460D01*
X13420182Y-16224460D02*
X13410658Y-16205412D01*
X13410658Y-16205412D02*
X13410658Y-16129222D01*
X13410658Y-16129222D02*
X13420182Y-16110174D01*
X13420182Y-16110174D02*
X13439230Y-16100650D01*
X13439230Y-16100650D02*
X13477325Y-16100650D01*
X13477325Y-16100650D02*
X13496373Y-16110174D01*
X13496373Y-16110174D02*
X13505896Y-16129222D01*
X13505896Y-16129222D02*
X13505896Y-16148269D01*
X13505896Y-16148269D02*
X13410658Y-16167317D01*
X13677325Y-16233984D02*
X13677325Y-16033984D01*
X13677325Y-16224460D02*
X13658277Y-16233984D01*
X13658277Y-16233984D02*
X13620182Y-16233984D01*
X13620182Y-16233984D02*
X13601134Y-16224460D01*
X13601134Y-16224460D02*
X13591611Y-16214936D01*
X13591611Y-16214936D02*
X13582087Y-16195888D01*
X13582087Y-16195888D02*
X13582087Y-16138746D01*
X13582087Y-16138746D02*
X13591611Y-16119698D01*
X13591611Y-16119698D02*
X13601134Y-16110174D01*
X13601134Y-16110174D02*
X13620182Y-16100650D01*
X13620182Y-16100650D02*
X13658277Y-16100650D01*
X13658277Y-16100650D02*
X13677325Y-16110174D01*
X13753515Y-16310174D02*
X13763039Y-16300650D01*
X13763039Y-16300650D02*
X13782087Y-16272079D01*
X13782087Y-16272079D02*
X13791611Y-16253031D01*
X13791611Y-16253031D02*
X13801134Y-16224460D01*
X13801134Y-16224460D02*
X13810658Y-16176841D01*
X13810658Y-16176841D02*
X13810658Y-16138746D01*
X13810658Y-16138746D02*
X13801134Y-16091127D01*
X13801134Y-16091127D02*
X13791611Y-16062555D01*
X13791611Y-16062555D02*
X13782087Y-16043508D01*
X13782087Y-16043508D02*
X13763039Y-16014936D01*
X13763039Y-16014936D02*
X13753515Y-16005412D01*
M02*
