M48
; DRILL file {KiCad 9.0.2} date 2025-12-04T17:10:17+0900
; FORMAT={-:-/ absolute / metric / decimal}
; #@! TF.CreationDate,2025-12-04T17:10:17+09:00
; #@! TF.GenerationSoftware,Kicad,Pcbnew,9.0.2
; #@! TF.FileFunction,Plated,1,2,PTH
FMAT,2
METRIC
; #@! TA.AperFunction,Plated,PTH,ViaDrill
T1C0.300
; #@! TA.AperFunction,Plated,PTH,ComponentDrill
T2C0.800
; #@! TA.AperFunction,Plated,PTH,ComponentDrill
T3C0.900
; #@! TA.AperFunction,Plated,PTH,ComponentDrill
T4C0.950
; #@! TA.AperFunction,Plated,PTH,ComponentDrill
T5C1.000
; #@! TA.AperFunction,Plated,PTH,ComponentDrill
T6C2.700
; #@! TA.AperFunction,Plated,PTH,ComponentDrill
T7C4.550
%
G90
G05
T1
X88.89Y-103.526
X89.056Y-138.891
X91.859Y-71.108
X92.003Y-141.838
X100.302Y-91.655
X100.845Y-136.831
X101.631Y-99.472
X101.631Y-131.879
X105.236Y-97.829
X106.739Y-82.896
X106.739Y-99.988
X106.807Y-87.821
X108.708Y-98.17
X108.709Y-87.418
X110.486Y-133.452
X112.54Y-62.438
X115.58Y-134.874
X117.644Y-68.16
X121.039Y-73.763
X124.421Y-104.524
X130.153Y-106.473
X133.758Y-95.698
X134.013Y-132.374
X138.563Y-103.598
X140.143Y-98.213
X141.534Y-86.588
X142.104Y-118.261
X144.235Y-86.202
X144.314Y-70.511
X145.631Y-109.42
X147.998Y-82.388
X148.261Y-61.964
X150.945Y-124.155
X151.257Y-101.874
X156.839Y-94.943
X159.787Y-94.684
X160.8Y-91.737
X165.694Y-100.579
T2
X89.027Y-92.319
X89.027Y-99.939
X91.567Y-92.319
X91.567Y-99.939
X94.107Y-92.319
X94.107Y-99.939
X96.647Y-92.319
X96.647Y-99.939
X105.537Y-92.329
X105.537Y-96.125
X115.697Y-92.329
X115.697Y-96.125
X133.35Y-92.329
X133.35Y-99.949
X135.89Y-92.329
X135.89Y-99.949
X138.43Y-92.329
X138.43Y-99.949
X140.97Y-92.329
X140.97Y-99.949
X143.51Y-92.329
X143.51Y-99.949
X146.05Y-92.329
X146.05Y-99.949
X148.59Y-92.329
X148.59Y-99.949
X151.13Y-92.329
X151.13Y-99.949
T3
X122.169Y-93.345
X124.709Y-93.345
T4
X129.159Y-59.69
X129.159Y-67.85
X129.159Y-75.978
X129.159Y-84.106
X131.659Y-59.69
X131.659Y-67.85
X131.659Y-75.978
X131.659Y-84.106
X134.159Y-59.69
X134.159Y-67.85
X134.159Y-75.978
X134.159Y-84.106
X136.659Y-59.69
X136.659Y-67.85
X136.659Y-75.978
X136.659Y-84.106
X143.51Y-59.69
X143.51Y-67.85
X143.51Y-75.978
X143.51Y-84.36
X146.01Y-59.69
X146.01Y-67.85
X146.01Y-75.978
X146.01Y-84.36
X148.51Y-59.69
X148.51Y-67.85
X148.51Y-75.978
X148.51Y-84.36
T5
X73.7Y-59.69
X73.7Y-67.818
X73.7Y-75.946
X73.7Y-84.074
X76.2Y-59.69
X76.2Y-67.818
X76.2Y-75.946
X76.2Y-84.074
X82.59Y-59.69
X82.59Y-67.818
X82.59Y-75.946
X82.59Y-84.074
X85.09Y-59.69
X85.09Y-67.818
X85.09Y-75.946
X85.09Y-84.074
X92.115Y-59.69
X92.115Y-67.818
X92.115Y-75.946
X92.115Y-84.074
X94.615Y-59.69
X94.615Y-67.818
X94.615Y-75.946
X94.615Y-84.074
X101.005Y-59.69
X101.005Y-67.801
X101.005Y-75.946
X103.505Y-59.69
X103.505Y-67.801
X103.505Y-75.946
X103.505Y-105.664
X103.505Y-108.204
X103.505Y-110.744
X103.505Y-113.284
X103.505Y-115.824
X103.505Y-118.364
X103.505Y-120.904
X103.505Y-123.444
X103.505Y-125.984
X103.505Y-128.524
X103.505Y-131.064
X103.505Y-133.604
X103.505Y-136.144
X103.505Y-138.684
X103.505Y-141.224
X103.505Y-143.764
X103.505Y-146.304
X103.505Y-148.844
X103.505Y-151.384
X107.315Y-105.664
X107.315Y-108.204
X107.315Y-110.744
X107.315Y-113.284
X107.315Y-115.824
X107.315Y-118.364
X107.315Y-120.904
X107.315Y-123.444
X107.315Y-125.984
X107.315Y-128.524
X107.315Y-131.064
X107.315Y-133.604
X107.315Y-136.144
X107.315Y-138.684
X107.315Y-141.224
X107.315Y-143.764
X107.315Y-146.304
X107.315Y-148.844
X107.315Y-151.384
X110.617Y-59.69
X110.617Y-67.818
X110.617Y-75.946
X110.617Y-84.074
X113.117Y-59.69
X113.117Y-67.818
X113.117Y-75.946
X113.117Y-84.074
X119.487Y-59.673
X119.487Y-67.818
X119.487Y-75.946
X119.487Y-84.074
X121.987Y-59.673
X121.987Y-67.818
X121.987Y-75.946
X121.987Y-84.074
X132.715Y-105.664
X132.715Y-108.204
X132.715Y-110.744
X132.715Y-113.284
X132.715Y-115.824
X132.715Y-118.364
X132.715Y-120.904
X132.715Y-123.444
X132.715Y-125.984
X132.715Y-128.524
X132.715Y-131.064
X132.715Y-133.604
X132.715Y-136.144
X132.715Y-138.684
X132.715Y-141.224
X132.715Y-143.764
X132.715Y-146.304
X132.715Y-148.844
X132.715Y-151.384
X136.525Y-105.664
X136.525Y-108.204
X136.525Y-110.744
X136.525Y-113.284
X136.525Y-115.824
X136.525Y-118.364
X136.525Y-120.904
X136.525Y-123.444
X136.525Y-125.984
X136.525Y-128.524
X136.525Y-131.064
X136.525Y-133.604
X136.525Y-136.144
X136.525Y-138.684
X136.525Y-141.224
X136.525Y-143.764
X136.525Y-146.304
X136.525Y-148.844
X136.525Y-151.384
X155.43Y-74.544
X155.43Y-77.084
X156.2Y-58.357
X158.74Y-58.357
X160.02Y-74.544
X160.02Y-77.084
X161.28Y-58.357
X163.82Y-58.357
X164.61Y-74.544
X164.61Y-77.084
T6
X75.184Y-131.144
X75.184Y-136.144
X75.184Y-145.114
X75.184Y-150.114
X86.614Y-113.538
X86.614Y-118.538
X86.614Y-127.642
X86.614Y-132.642
X153.67Y-130.636
X153.67Y-135.636
X153.67Y-144.606
X153.67Y-149.606
X165.1Y-113.411
X165.1Y-118.411
X165.1Y-127.381
X165.1Y-132.381
T7
X156.933Y-65.405
X156.933Y-83.883
X164.133Y-65.405
X164.133Y-83.883
M30
