%TF.GenerationSoftware,KiCad,Pcbnew,9.0.7*%
%TF.CreationDate,2026-03-18T19:08:12+09:00*%
%TF.ProjectId,CAN hub 2,43414e20-6875-4622-9032-2e6b69636164,rev?*%
%TF.SameCoordinates,Original*%
%TF.FileFunction,Drillmap*%
%TF.FilePolarity,Positive*%
%FSLAX45Y45*%
G04 Gerber Fmt 4.5, Leading zero omitted, Abs format (unit mm)*
G04 Created by KiCad (PCBNEW 9.0.7) date 2026-03-18 19:08:12*
%MOMM*%
%LPD*%
G01*
G04 APERTURE LIST*
%ADD10C,0.050000*%
%ADD11C,0.200000*%
%ADD12C,0.100000*%
G04 APERTURE END LIST*
D10*
X5000000Y-5100000D02*
X5000000Y-1900000D01*
X5900000Y-5200000D02*
X5100000Y-5200000D01*
X5100000Y-5200000D02*
G75*
G02*
X5000000Y-5100000I0J100000D01*
G01*
X5900000Y-1800000D02*
G75*
G02*
X6000000Y-1900000I0J-100000D01*
G01*
X6000000Y-5100000D02*
G75*
G02*
X5900000Y-5200000I-100000J0D01*
G01*
X5100000Y-1800000D02*
X5900000Y-1800000D01*
X5000000Y-1900000D02*
G75*
G02*
X5100000Y-1800000I100000J0D01*
G01*
X6000000Y-1900000D02*
X6000000Y-5100000D01*
D11*
D12*
X5330000Y-2970000D02*
X5430000Y-3070000D01*
X5430000Y-2970000D02*
X5330000Y-3070000D01*
X5330000Y-3790000D02*
X5430000Y-3890000D01*
X5430000Y-3790000D02*
X5330000Y-3890000D01*
X5580000Y-2970000D02*
X5680000Y-3070000D01*
X5680000Y-2970000D02*
X5580000Y-3070000D01*
X5580000Y-3790000D02*
X5680000Y-3890000D01*
X5680000Y-3790000D02*
X5580000Y-3890000D01*
D11*
X5258277Y-5513984D02*
X5258277Y-5313984D01*
X5258277Y-5313984D02*
X5305896Y-5313984D01*
X5305896Y-5313984D02*
X5334467Y-5323508D01*
X5334467Y-5323508D02*
X5353515Y-5342555D01*
X5353515Y-5342555D02*
X5363039Y-5361603D01*
X5363039Y-5361603D02*
X5372563Y-5399698D01*
X5372563Y-5399698D02*
X5372563Y-5428270D01*
X5372563Y-5428270D02*
X5363039Y-5466365D01*
X5363039Y-5466365D02*
X5353515Y-5485412D01*
X5353515Y-5485412D02*
X5334467Y-5504460D01*
X5334467Y-5504460D02*
X5305896Y-5513984D01*
X5305896Y-5513984D02*
X5258277Y-5513984D01*
X5458277Y-5513984D02*
X5458277Y-5380650D01*
X5458277Y-5418746D02*
X5467801Y-5399698D01*
X5467801Y-5399698D02*
X5477324Y-5390174D01*
X5477324Y-5390174D02*
X5496372Y-5380650D01*
X5496372Y-5380650D02*
X5515420Y-5380650D01*
X5582086Y-5513984D02*
X5582086Y-5380650D01*
X5582086Y-5313984D02*
X5572563Y-5323508D01*
X5572563Y-5323508D02*
X5582086Y-5333031D01*
X5582086Y-5333031D02*
X5591610Y-5323508D01*
X5591610Y-5323508D02*
X5582086Y-5313984D01*
X5582086Y-5313984D02*
X5582086Y-5333031D01*
X5705896Y-5513984D02*
X5686848Y-5504460D01*
X5686848Y-5504460D02*
X5677324Y-5485412D01*
X5677324Y-5485412D02*
X5677324Y-5313984D01*
X5810658Y-5513984D02*
X5791610Y-5504460D01*
X5791610Y-5504460D02*
X5782086Y-5485412D01*
X5782086Y-5485412D02*
X5782086Y-5313984D01*
X6039229Y-5513984D02*
X6039229Y-5313984D01*
X6039229Y-5313984D02*
X6105896Y-5456841D01*
X6105896Y-5456841D02*
X6172562Y-5313984D01*
X6172562Y-5313984D02*
X6172562Y-5513984D01*
X6353515Y-5513984D02*
X6353515Y-5409222D01*
X6353515Y-5409222D02*
X6343991Y-5390174D01*
X6343991Y-5390174D02*
X6324943Y-5380650D01*
X6324943Y-5380650D02*
X6286848Y-5380650D01*
X6286848Y-5380650D02*
X6267801Y-5390174D01*
X6353515Y-5504460D02*
X6334467Y-5513984D01*
X6334467Y-5513984D02*
X6286848Y-5513984D01*
X6286848Y-5513984D02*
X6267801Y-5504460D01*
X6267801Y-5504460D02*
X6258277Y-5485412D01*
X6258277Y-5485412D02*
X6258277Y-5466365D01*
X6258277Y-5466365D02*
X6267801Y-5447317D01*
X6267801Y-5447317D02*
X6286848Y-5437793D01*
X6286848Y-5437793D02*
X6334467Y-5437793D01*
X6334467Y-5437793D02*
X6353515Y-5428270D01*
X6448753Y-5380650D02*
X6448753Y-5580650D01*
X6448753Y-5390174D02*
X6467801Y-5380650D01*
X6467801Y-5380650D02*
X6505896Y-5380650D01*
X6505896Y-5380650D02*
X6524943Y-5390174D01*
X6524943Y-5390174D02*
X6534467Y-5399698D01*
X6534467Y-5399698D02*
X6543991Y-5418746D01*
X6543991Y-5418746D02*
X6543991Y-5475889D01*
X6543991Y-5475889D02*
X6534467Y-5494936D01*
X6534467Y-5494936D02*
X6524943Y-5504460D01*
X6524943Y-5504460D02*
X6505896Y-5513984D01*
X6505896Y-5513984D02*
X6467801Y-5513984D01*
X6467801Y-5513984D02*
X6448753Y-5504460D01*
X6629705Y-5494936D02*
X6639229Y-5504460D01*
X6639229Y-5504460D02*
X6629705Y-5513984D01*
X6629705Y-5513984D02*
X6620182Y-5504460D01*
X6620182Y-5504460D02*
X6629705Y-5494936D01*
X6629705Y-5494936D02*
X6629705Y-5513984D01*
X6629705Y-5390174D02*
X6639229Y-5399698D01*
X6639229Y-5399698D02*
X6629705Y-5409222D01*
X6629705Y-5409222D02*
X6620182Y-5399698D01*
X6620182Y-5399698D02*
X6629705Y-5390174D01*
X6629705Y-5390174D02*
X6629705Y-5409222D01*
D12*
X4897500Y-5792500D02*
X4997500Y-5892500D01*
X4997500Y-5792500D02*
X4897500Y-5892500D01*
D11*
X5363039Y-5933984D02*
X5248753Y-5933984D01*
X5305896Y-5933984D02*
X5305896Y-5733984D01*
X5305896Y-5733984D02*
X5286848Y-5762555D01*
X5286848Y-5762555D02*
X5267801Y-5781603D01*
X5267801Y-5781603D02*
X5248753Y-5791127D01*
X5448753Y-5914936D02*
X5458277Y-5924460D01*
X5458277Y-5924460D02*
X5448753Y-5933984D01*
X5448753Y-5933984D02*
X5439229Y-5924460D01*
X5439229Y-5924460D02*
X5448753Y-5914936D01*
X5448753Y-5914936D02*
X5448753Y-5933984D01*
X5582086Y-5733984D02*
X5601134Y-5733984D01*
X5601134Y-5733984D02*
X5620182Y-5743508D01*
X5620182Y-5743508D02*
X5629705Y-5753031D01*
X5629705Y-5753031D02*
X5639229Y-5772079D01*
X5639229Y-5772079D02*
X5648753Y-5810174D01*
X5648753Y-5810174D02*
X5648753Y-5857793D01*
X5648753Y-5857793D02*
X5639229Y-5895888D01*
X5639229Y-5895888D02*
X5629705Y-5914936D01*
X5629705Y-5914936D02*
X5620182Y-5924460D01*
X5620182Y-5924460D02*
X5601134Y-5933984D01*
X5601134Y-5933984D02*
X5582086Y-5933984D01*
X5582086Y-5933984D02*
X5563039Y-5924460D01*
X5563039Y-5924460D02*
X5553515Y-5914936D01*
X5553515Y-5914936D02*
X5543991Y-5895888D01*
X5543991Y-5895888D02*
X5534467Y-5857793D01*
X5534467Y-5857793D02*
X5534467Y-5810174D01*
X5534467Y-5810174D02*
X5543991Y-5772079D01*
X5543991Y-5772079D02*
X5553515Y-5753031D01*
X5553515Y-5753031D02*
X5563039Y-5743508D01*
X5563039Y-5743508D02*
X5582086Y-5733984D01*
X5772562Y-5733984D02*
X5791610Y-5733984D01*
X5791610Y-5733984D02*
X5810658Y-5743508D01*
X5810658Y-5743508D02*
X5820182Y-5753031D01*
X5820182Y-5753031D02*
X5829705Y-5772079D01*
X5829705Y-5772079D02*
X5839229Y-5810174D01*
X5839229Y-5810174D02*
X5839229Y-5857793D01*
X5839229Y-5857793D02*
X5829705Y-5895888D01*
X5829705Y-5895888D02*
X5820182Y-5914936D01*
X5820182Y-5914936D02*
X5810658Y-5924460D01*
X5810658Y-5924460D02*
X5791610Y-5933984D01*
X5791610Y-5933984D02*
X5772562Y-5933984D01*
X5772562Y-5933984D02*
X5753515Y-5924460D01*
X5753515Y-5924460D02*
X5743991Y-5914936D01*
X5743991Y-5914936D02*
X5734467Y-5895888D01*
X5734467Y-5895888D02*
X5724943Y-5857793D01*
X5724943Y-5857793D02*
X5724943Y-5810174D01*
X5724943Y-5810174D02*
X5734467Y-5772079D01*
X5734467Y-5772079D02*
X5743991Y-5753031D01*
X5743991Y-5753031D02*
X5753515Y-5743508D01*
X5753515Y-5743508D02*
X5772562Y-5733984D01*
X5963039Y-5733984D02*
X5982086Y-5733984D01*
X5982086Y-5733984D02*
X6001134Y-5743508D01*
X6001134Y-5743508D02*
X6010658Y-5753031D01*
X6010658Y-5753031D02*
X6020182Y-5772079D01*
X6020182Y-5772079D02*
X6029705Y-5810174D01*
X6029705Y-5810174D02*
X6029705Y-5857793D01*
X6029705Y-5857793D02*
X6020182Y-5895888D01*
X6020182Y-5895888D02*
X6010658Y-5914936D01*
X6010658Y-5914936D02*
X6001134Y-5924460D01*
X6001134Y-5924460D02*
X5982086Y-5933984D01*
X5982086Y-5933984D02*
X5963039Y-5933984D01*
X5963039Y-5933984D02*
X5943991Y-5924460D01*
X5943991Y-5924460D02*
X5934467Y-5914936D01*
X5934467Y-5914936D02*
X5924943Y-5895888D01*
X5924943Y-5895888D02*
X5915420Y-5857793D01*
X5915420Y-5857793D02*
X5915420Y-5810174D01*
X5915420Y-5810174D02*
X5924943Y-5772079D01*
X5924943Y-5772079D02*
X5934467Y-5753031D01*
X5934467Y-5753031D02*
X5943991Y-5743508D01*
X5943991Y-5743508D02*
X5963039Y-5733984D01*
X6115420Y-5933984D02*
X6115420Y-5800650D01*
X6115420Y-5819698D02*
X6124943Y-5810174D01*
X6124943Y-5810174D02*
X6143991Y-5800650D01*
X6143991Y-5800650D02*
X6172563Y-5800650D01*
X6172563Y-5800650D02*
X6191610Y-5810174D01*
X6191610Y-5810174D02*
X6201134Y-5829222D01*
X6201134Y-5829222D02*
X6201134Y-5933984D01*
X6201134Y-5829222D02*
X6210658Y-5810174D01*
X6210658Y-5810174D02*
X6229705Y-5800650D01*
X6229705Y-5800650D02*
X6258277Y-5800650D01*
X6258277Y-5800650D02*
X6277324Y-5810174D01*
X6277324Y-5810174D02*
X6286848Y-5829222D01*
X6286848Y-5829222D02*
X6286848Y-5933984D01*
X6382086Y-5933984D02*
X6382086Y-5800650D01*
X6382086Y-5819698D02*
X6391610Y-5810174D01*
X6391610Y-5810174D02*
X6410658Y-5800650D01*
X6410658Y-5800650D02*
X6439229Y-5800650D01*
X6439229Y-5800650D02*
X6458277Y-5810174D01*
X6458277Y-5810174D02*
X6467801Y-5829222D01*
X6467801Y-5829222D02*
X6467801Y-5933984D01*
X6467801Y-5829222D02*
X6477324Y-5810174D01*
X6477324Y-5810174D02*
X6496372Y-5800650D01*
X6496372Y-5800650D02*
X6524943Y-5800650D01*
X6524943Y-5800650D02*
X6543991Y-5810174D01*
X6543991Y-5810174D02*
X6553515Y-5829222D01*
X6553515Y-5829222D02*
X6553515Y-5933984D01*
X6943991Y-5724460D02*
X6772563Y-5981603D01*
X7201134Y-5733984D02*
X7220182Y-5733984D01*
X7220182Y-5733984D02*
X7239229Y-5743508D01*
X7239229Y-5743508D02*
X7248753Y-5753031D01*
X7248753Y-5753031D02*
X7258277Y-5772079D01*
X7258277Y-5772079D02*
X7267801Y-5810174D01*
X7267801Y-5810174D02*
X7267801Y-5857793D01*
X7267801Y-5857793D02*
X7258277Y-5895888D01*
X7258277Y-5895888D02*
X7248753Y-5914936D01*
X7248753Y-5914936D02*
X7239229Y-5924460D01*
X7239229Y-5924460D02*
X7220182Y-5933984D01*
X7220182Y-5933984D02*
X7201134Y-5933984D01*
X7201134Y-5933984D02*
X7182086Y-5924460D01*
X7182086Y-5924460D02*
X7172563Y-5914936D01*
X7172563Y-5914936D02*
X7163039Y-5895888D01*
X7163039Y-5895888D02*
X7153515Y-5857793D01*
X7153515Y-5857793D02*
X7153515Y-5810174D01*
X7153515Y-5810174D02*
X7163039Y-5772079D01*
X7163039Y-5772079D02*
X7172563Y-5753031D01*
X7172563Y-5753031D02*
X7182086Y-5743508D01*
X7182086Y-5743508D02*
X7201134Y-5733984D01*
X7353515Y-5914936D02*
X7363039Y-5924460D01*
X7363039Y-5924460D02*
X7353515Y-5933984D01*
X7353515Y-5933984D02*
X7343991Y-5924460D01*
X7343991Y-5924460D02*
X7353515Y-5914936D01*
X7353515Y-5914936D02*
X7353515Y-5933984D01*
X7486848Y-5733984D02*
X7505896Y-5733984D01*
X7505896Y-5733984D02*
X7524944Y-5743508D01*
X7524944Y-5743508D02*
X7534467Y-5753031D01*
X7534467Y-5753031D02*
X7543991Y-5772079D01*
X7543991Y-5772079D02*
X7553515Y-5810174D01*
X7553515Y-5810174D02*
X7553515Y-5857793D01*
X7553515Y-5857793D02*
X7543991Y-5895888D01*
X7543991Y-5895888D02*
X7534467Y-5914936D01*
X7534467Y-5914936D02*
X7524944Y-5924460D01*
X7524944Y-5924460D02*
X7505896Y-5933984D01*
X7505896Y-5933984D02*
X7486848Y-5933984D01*
X7486848Y-5933984D02*
X7467801Y-5924460D01*
X7467801Y-5924460D02*
X7458277Y-5914936D01*
X7458277Y-5914936D02*
X7448753Y-5895888D01*
X7448753Y-5895888D02*
X7439229Y-5857793D01*
X7439229Y-5857793D02*
X7439229Y-5810174D01*
X7439229Y-5810174D02*
X7448753Y-5772079D01*
X7448753Y-5772079D02*
X7458277Y-5753031D01*
X7458277Y-5753031D02*
X7467801Y-5743508D01*
X7467801Y-5743508D02*
X7486848Y-5733984D01*
X7620182Y-5733984D02*
X7743991Y-5733984D01*
X7743991Y-5733984D02*
X7677325Y-5810174D01*
X7677325Y-5810174D02*
X7705896Y-5810174D01*
X7705896Y-5810174D02*
X7724944Y-5819698D01*
X7724944Y-5819698D02*
X7734467Y-5829222D01*
X7734467Y-5829222D02*
X7743991Y-5848269D01*
X7743991Y-5848269D02*
X7743991Y-5895888D01*
X7743991Y-5895888D02*
X7734467Y-5914936D01*
X7734467Y-5914936D02*
X7724944Y-5924460D01*
X7724944Y-5924460D02*
X7705896Y-5933984D01*
X7705896Y-5933984D02*
X7648753Y-5933984D01*
X7648753Y-5933984D02*
X7629706Y-5924460D01*
X7629706Y-5924460D02*
X7620182Y-5914936D01*
X7839229Y-5933984D02*
X7877325Y-5933984D01*
X7877325Y-5933984D02*
X7896372Y-5924460D01*
X7896372Y-5924460D02*
X7905896Y-5914936D01*
X7905896Y-5914936D02*
X7924944Y-5886365D01*
X7924944Y-5886365D02*
X7934467Y-5848269D01*
X7934467Y-5848269D02*
X7934467Y-5772079D01*
X7934467Y-5772079D02*
X7924944Y-5753031D01*
X7924944Y-5753031D02*
X7915420Y-5743508D01*
X7915420Y-5743508D02*
X7896372Y-5733984D01*
X7896372Y-5733984D02*
X7858277Y-5733984D01*
X7858277Y-5733984D02*
X7839229Y-5743508D01*
X7839229Y-5743508D02*
X7829706Y-5753031D01*
X7829706Y-5753031D02*
X7820182Y-5772079D01*
X7820182Y-5772079D02*
X7820182Y-5819698D01*
X7820182Y-5819698D02*
X7829706Y-5838746D01*
X7829706Y-5838746D02*
X7839229Y-5848269D01*
X7839229Y-5848269D02*
X7858277Y-5857793D01*
X7858277Y-5857793D02*
X7896372Y-5857793D01*
X7896372Y-5857793D02*
X7915420Y-5848269D01*
X7915420Y-5848269D02*
X7924944Y-5838746D01*
X7924944Y-5838746D02*
X7934467Y-5819698D01*
X8105896Y-5800650D02*
X8105896Y-5933984D01*
X8058277Y-5724460D02*
X8010658Y-5867317D01*
X8010658Y-5867317D02*
X8134467Y-5867317D01*
X8201134Y-5733984D02*
X8201134Y-5772079D01*
X8277325Y-5733984D02*
X8277325Y-5772079D01*
X8572563Y-6010174D02*
X8563039Y-6000650D01*
X8563039Y-6000650D02*
X8543991Y-5972079D01*
X8543991Y-5972079D02*
X8534468Y-5953031D01*
X8534468Y-5953031D02*
X8524944Y-5924460D01*
X8524944Y-5924460D02*
X8515420Y-5876841D01*
X8515420Y-5876841D02*
X8515420Y-5838746D01*
X8515420Y-5838746D02*
X8524944Y-5791127D01*
X8524944Y-5791127D02*
X8534468Y-5762555D01*
X8534468Y-5762555D02*
X8543991Y-5743508D01*
X8543991Y-5743508D02*
X8563039Y-5714936D01*
X8563039Y-5714936D02*
X8572563Y-5705412D01*
X8734468Y-5800650D02*
X8734468Y-5933984D01*
X8686849Y-5724460D02*
X8639230Y-5867317D01*
X8639230Y-5867317D02*
X8763039Y-5867317D01*
X8991611Y-5933984D02*
X8991611Y-5733984D01*
X9077325Y-5933984D02*
X9077325Y-5829222D01*
X9077325Y-5829222D02*
X9067801Y-5810174D01*
X9067801Y-5810174D02*
X9048753Y-5800650D01*
X9048753Y-5800650D02*
X9020182Y-5800650D01*
X9020182Y-5800650D02*
X9001134Y-5810174D01*
X9001134Y-5810174D02*
X8991611Y-5819698D01*
X9201134Y-5933984D02*
X9182087Y-5924460D01*
X9182087Y-5924460D02*
X9172563Y-5914936D01*
X9172563Y-5914936D02*
X9163039Y-5895888D01*
X9163039Y-5895888D02*
X9163039Y-5838746D01*
X9163039Y-5838746D02*
X9172563Y-5819698D01*
X9172563Y-5819698D02*
X9182087Y-5810174D01*
X9182087Y-5810174D02*
X9201134Y-5800650D01*
X9201134Y-5800650D02*
X9229706Y-5800650D01*
X9229706Y-5800650D02*
X9248753Y-5810174D01*
X9248753Y-5810174D02*
X9258277Y-5819698D01*
X9258277Y-5819698D02*
X9267801Y-5838746D01*
X9267801Y-5838746D02*
X9267801Y-5895888D01*
X9267801Y-5895888D02*
X9258277Y-5914936D01*
X9258277Y-5914936D02*
X9248753Y-5924460D01*
X9248753Y-5924460D02*
X9229706Y-5933984D01*
X9229706Y-5933984D02*
X9201134Y-5933984D01*
X9382087Y-5933984D02*
X9363039Y-5924460D01*
X9363039Y-5924460D02*
X9353515Y-5905412D01*
X9353515Y-5905412D02*
X9353515Y-5733984D01*
X9534468Y-5924460D02*
X9515420Y-5933984D01*
X9515420Y-5933984D02*
X9477325Y-5933984D01*
X9477325Y-5933984D02*
X9458277Y-5924460D01*
X9458277Y-5924460D02*
X9448753Y-5905412D01*
X9448753Y-5905412D02*
X9448753Y-5829222D01*
X9448753Y-5829222D02*
X9458277Y-5810174D01*
X9458277Y-5810174D02*
X9477325Y-5800650D01*
X9477325Y-5800650D02*
X9515420Y-5800650D01*
X9515420Y-5800650D02*
X9534468Y-5810174D01*
X9534468Y-5810174D02*
X9543992Y-5829222D01*
X9543992Y-5829222D02*
X9543992Y-5848269D01*
X9543992Y-5848269D02*
X9448753Y-5867317D01*
X9620182Y-5924460D02*
X9639230Y-5933984D01*
X9639230Y-5933984D02*
X9677325Y-5933984D01*
X9677325Y-5933984D02*
X9696373Y-5924460D01*
X9696373Y-5924460D02*
X9705896Y-5905412D01*
X9705896Y-5905412D02*
X9705896Y-5895888D01*
X9705896Y-5895888D02*
X9696373Y-5876841D01*
X9696373Y-5876841D02*
X9677325Y-5867317D01*
X9677325Y-5867317D02*
X9648753Y-5867317D01*
X9648753Y-5867317D02*
X9629706Y-5857793D01*
X9629706Y-5857793D02*
X9620182Y-5838746D01*
X9620182Y-5838746D02*
X9620182Y-5829222D01*
X9620182Y-5829222D02*
X9629706Y-5810174D01*
X9629706Y-5810174D02*
X9648753Y-5800650D01*
X9648753Y-5800650D02*
X9677325Y-5800650D01*
X9677325Y-5800650D02*
X9696373Y-5810174D01*
X9772563Y-6010174D02*
X9782087Y-6000650D01*
X9782087Y-6000650D02*
X9801134Y-5972079D01*
X9801134Y-5972079D02*
X9810658Y-5953031D01*
X9810658Y-5953031D02*
X9820182Y-5924460D01*
X9820182Y-5924460D02*
X9829706Y-5876841D01*
X9829706Y-5876841D02*
X9829706Y-5838746D01*
X9829706Y-5838746D02*
X9820182Y-5791127D01*
X9820182Y-5791127D02*
X9810658Y-5762555D01*
X9810658Y-5762555D02*
X9801134Y-5743508D01*
X9801134Y-5743508D02*
X9782087Y-5714936D01*
X9782087Y-5714936D02*
X9772563Y-5705412D01*
M02*
