G04 #@! TF.GenerationSoftware,KiCad,Pcbnew,9.0.7*
G04 #@! TF.CreationDate,2026-03-15T00:28:53+09:00*
G04 #@! TF.ProjectId,ESP32-S3-ROS-IO-V2.0a,45535033-322d-4533-932d-524f532d494f,rev?*
G04 #@! TF.SameCoordinates,Original*
G04 #@! TF.FileFunction,Copper,L1,Top*
G04 #@! TF.FilePolarity,Positive*
%FSLAX46Y46*%
G04 Gerber Fmt 4.6, Leading zero omitted, Abs format (unit mm)*
G04 Created by KiCad (PCBNEW 9.0.7) date 2026-03-15 00:28:53*
%MOMM*%
%LPD*%
G01*
G04 APERTURE LIST*
G04 Aperture macros list*
%AMRoundRect*
0 Rectangle with rounded corners*
0 $1 Rounding radius*
0 $2 $3 $4 $5 $6 $7 $8 $9 X,Y pos of 4 corners*
0 Add a 4 corners polygon primitive as box body*
4,1,4,$2,$3,$4,$5,$6,$7,$8,$9,$2,$3,0*
0 Add four circle primitives for the rounded corners*
1,1,$1+$1,$2,$3*
1,1,$1+$1,$4,$5*
1,1,$1+$1,$6,$7*
1,1,$1+$1,$8,$9*
0 Add four rect primitives between the rounded corners*
20,1,$1+$1,$2,$3,$4,$5,0*
20,1,$1+$1,$4,$5,$6,$7,0*
20,1,$1+$1,$6,$7,$8,$9,0*
20,1,$1+$1,$8,$9,$2,$3,0*%
G04 Aperture macros list end*
G04 #@! TA.AperFunction,ComponentPad*
%ADD10RoundRect,0.250000X-0.600000X-0.750000X0.600000X-0.750000X0.600000X0.750000X-0.600000X0.750000X0*%
G04 #@! TD*
G04 #@! TA.AperFunction,ComponentPad*
%ADD11O,1.700000X2.000000*%
G04 #@! TD*
G04 #@! TA.AperFunction,ComponentPad*
%ADD12C,1.600000*%
G04 #@! TD*
G04 #@! TA.AperFunction,ComponentPad*
%ADD13RoundRect,0.250000X-0.600000X-0.725000X0.600000X-0.725000X0.600000X0.725000X-0.600000X0.725000X0*%
G04 #@! TD*
G04 #@! TA.AperFunction,ComponentPad*
%ADD14O,1.700000X1.950000*%
G04 #@! TD*
G04 #@! TA.AperFunction,ComponentPad*
%ADD15R,1.700000X1.700000*%
G04 #@! TD*
G04 #@! TA.AperFunction,ComponentPad*
%ADD16C,1.700000*%
G04 #@! TD*
G04 #@! TA.AperFunction,ComponentPad*
%ADD17C,6.000000*%
G04 #@! TD*
G04 #@! TA.AperFunction,ComponentPad*
%ADD18R,6.000000X6.000000*%
G04 #@! TD*
G04 #@! TA.AperFunction,ComponentPad*
%ADD19RoundRect,0.250000X-0.550000X-0.550000X0.550000X-0.550000X0.550000X0.550000X-0.550000X0.550000X0*%
G04 #@! TD*
G04 #@! TA.AperFunction,ComponentPad*
%ADD20R,1.800000X1.800000*%
G04 #@! TD*
G04 #@! TA.AperFunction,ComponentPad*
%ADD21C,1.800000*%
G04 #@! TD*
G04 #@! TA.AperFunction,ViaPad*
%ADD22C,0.600000*%
G04 #@! TD*
G04 #@! TA.AperFunction,Conductor*
%ADD23C,0.200000*%
G04 #@! TD*
G04 #@! TA.AperFunction,Conductor*
%ADD24C,4.000000*%
G04 #@! TD*
G04 #@! TA.AperFunction,Conductor*
%ADD25C,2.000000*%
G04 #@! TD*
G04 APERTURE END LIST*
D10*
X121960000Y-46482000D03*
D11*
X124460000Y-46482000D03*
D10*
X121960000Y-54282000D03*
D11*
X124460000Y-54282000D03*
D12*
X175538000Y-122960000D03*
X165378000Y-122960000D03*
D13*
X166450000Y-61885000D03*
D14*
X168950000Y-61885000D03*
X171450000Y-61885000D03*
D15*
X130048000Y-78215000D03*
D16*
X130048000Y-80755000D03*
X130048000Y-83295000D03*
X130048000Y-85835000D03*
X130048000Y-88375000D03*
X130048000Y-90915000D03*
X130048000Y-93455000D03*
X130048000Y-95995000D03*
X130048000Y-98535000D03*
X130048000Y-101075000D03*
X130048000Y-103615000D03*
X130048000Y-106155000D03*
X130048000Y-108695000D03*
X130048000Y-111235000D03*
X130048000Y-113775000D03*
X130048000Y-116315000D03*
X130048000Y-118855000D03*
X130048000Y-121395000D03*
X130048000Y-123935000D03*
X130048000Y-126475000D03*
X130048000Y-129015000D03*
X130048000Y-131555000D03*
D13*
X166450000Y-46285000D03*
D14*
X168950000Y-46285000D03*
X171450000Y-46285000D03*
D17*
X102616000Y-46990000D03*
D18*
X102616000Y-54190000D03*
D19*
X166643000Y-110490000D03*
D12*
X166643000Y-113030000D03*
X166643000Y-115570000D03*
X166643000Y-118110000D03*
X174263000Y-118110000D03*
X174263000Y-115570000D03*
X174263000Y-113030000D03*
X174263000Y-110490000D03*
D17*
X189020000Y-50292000D03*
D18*
X181820000Y-50292000D03*
D10*
X112000000Y-77576000D03*
D11*
X114500000Y-77576000D03*
D10*
X112000000Y-61976000D03*
D11*
X114500000Y-61976000D03*
D15*
X101600000Y-114300000D03*
D16*
X101600000Y-116840000D03*
X101600000Y-119380000D03*
X101600000Y-121920000D03*
X101600000Y-124460000D03*
X101600000Y-127000000D03*
X101600000Y-129540000D03*
X101600000Y-132080000D03*
X101600000Y-134620000D03*
X101600000Y-137160000D03*
X101600000Y-139700000D03*
D15*
X152908000Y-78215000D03*
D16*
X152908000Y-80755000D03*
X152908000Y-83295000D03*
X152908000Y-85835000D03*
X152908000Y-88375000D03*
X152908000Y-90915000D03*
X152908000Y-93455000D03*
X152908000Y-95995000D03*
X152908000Y-98535000D03*
X152908000Y-101075000D03*
X152908000Y-103615000D03*
X152908000Y-106155000D03*
X152908000Y-108695000D03*
X152908000Y-111235000D03*
X152908000Y-113775000D03*
X152908000Y-116315000D03*
X152908000Y-118855000D03*
X152908000Y-121395000D03*
X152908000Y-123935000D03*
X152908000Y-126475000D03*
X152908000Y-129015000D03*
X152908000Y-131555000D03*
D19*
X166638000Y-87630000D03*
D12*
X166638000Y-90170000D03*
X166638000Y-92710000D03*
X166638000Y-95250000D03*
X166638000Y-97790000D03*
X166638000Y-100330000D03*
X166638000Y-102870000D03*
X166638000Y-105410000D03*
X174258000Y-105410000D03*
X174258000Y-102870000D03*
X174258000Y-100330000D03*
X174258000Y-97790000D03*
X174258000Y-95250000D03*
X174258000Y-92710000D03*
X174258000Y-90170000D03*
X174258000Y-87630000D03*
D13*
X166450000Y-54085000D03*
D14*
X168950000Y-54085000D03*
X171450000Y-54085000D03*
D13*
X166450000Y-69685000D03*
D14*
X168950000Y-69685000D03*
X171450000Y-69685000D03*
D10*
X112000000Y-69776000D03*
D11*
X114500000Y-69776000D03*
D10*
X121960000Y-62082000D03*
D11*
X124460000Y-62082000D03*
D13*
X151885000Y-54138000D03*
D14*
X154385000Y-54138000D03*
X156885000Y-54138000D03*
X159385000Y-54138000D03*
D15*
X188600000Y-93980000D03*
D16*
X188600000Y-91440000D03*
X188600000Y-88900000D03*
X188600000Y-86360000D03*
X188600000Y-83820000D03*
X188600000Y-81280000D03*
X188600000Y-78740000D03*
X188600000Y-76200000D03*
X188600000Y-73660000D03*
X188600000Y-71120000D03*
X188600000Y-68580000D03*
D10*
X131914000Y-61705000D03*
D11*
X134414000Y-61705000D03*
D10*
X112040000Y-54138000D03*
D11*
X114540000Y-54138000D03*
D10*
X121960000Y-69882000D03*
D11*
X124460000Y-69882000D03*
D10*
X141859000Y-61705000D03*
D11*
X144359000Y-61705000D03*
D12*
X175538000Y-127010000D03*
X165378000Y-127010000D03*
D13*
X151885000Y-46338000D03*
D14*
X154385000Y-46338000D03*
X156885000Y-46338000D03*
X159385000Y-46338000D03*
D15*
X125448000Y-78215000D03*
D16*
X125448000Y-80755000D03*
X125448000Y-83295000D03*
X125448000Y-85835000D03*
X125448000Y-88375000D03*
X125448000Y-90915000D03*
X125448000Y-93455000D03*
X125448000Y-95995000D03*
X125448000Y-98535000D03*
X125448000Y-101075000D03*
X125448000Y-103615000D03*
X125448000Y-106155000D03*
X125448000Y-108695000D03*
X125448000Y-111235000D03*
X125448000Y-113775000D03*
X125448000Y-116315000D03*
X125448000Y-118855000D03*
X125448000Y-121395000D03*
X125448000Y-123935000D03*
X125448000Y-126475000D03*
X125448000Y-129015000D03*
X125448000Y-131555000D03*
D15*
X157508000Y-78215000D03*
D16*
X157508000Y-80755000D03*
X157508000Y-83295000D03*
X157508000Y-85835000D03*
X157508000Y-88375000D03*
X157508000Y-90915000D03*
X157508000Y-93455000D03*
X157508000Y-95995000D03*
X157508000Y-98535000D03*
X157508000Y-101075000D03*
X157508000Y-103615000D03*
X157508000Y-106155000D03*
X157508000Y-108695000D03*
X157508000Y-111235000D03*
X157508000Y-113775000D03*
X157508000Y-116315000D03*
X157508000Y-118855000D03*
X157508000Y-121395000D03*
X157508000Y-123935000D03*
X157508000Y-126475000D03*
X157508000Y-129015000D03*
X157508000Y-131555000D03*
D10*
X112040000Y-46338000D03*
D11*
X114540000Y-46338000D03*
D10*
X131954000Y-54085000D03*
D11*
X134454000Y-54085000D03*
D10*
X141859000Y-54085000D03*
D11*
X144359000Y-54085000D03*
D20*
X154666000Y-64933000D03*
D21*
X157206000Y-64933000D03*
D10*
X141859000Y-46465000D03*
D11*
X144359000Y-46465000D03*
D15*
X190500000Y-58166000D03*
D16*
X190500000Y-60706000D03*
D10*
X131954000Y-46465000D03*
D11*
X134454000Y-46465000D03*
D22*
X191897000Y-80899000D03*
X192024000Y-88138000D03*
X168910000Y-76835000D03*
X172212000Y-76835000D03*
X159766000Y-77724000D03*
X164084000Y-77724000D03*
X164084000Y-70612000D03*
X176784000Y-98298000D03*
X156718000Y-50546000D03*
X147320000Y-50038000D03*
X163322000Y-53340000D03*
X165100000Y-58166000D03*
X162560000Y-63246000D03*
X155194000Y-62230000D03*
X155448000Y-56642000D03*
X147828000Y-55626000D03*
X148590000Y-62230000D03*
X152654000Y-71628000D03*
X146304000Y-71374000D03*
X180594000Y-91440000D03*
X178816000Y-111760000D03*
X180340000Y-101600000D03*
X173228000Y-107950000D03*
X168910000Y-112522000D03*
X164338000Y-112776000D03*
X168656000Y-129540000D03*
X173228000Y-121412000D03*
X165354000Y-120650000D03*
X169926000Y-117602000D03*
X143256000Y-127762000D03*
X171196000Y-137668000D03*
X163068000Y-137414000D03*
X153924000Y-137414000D03*
X144272000Y-137414000D03*
X134112000Y-137668000D03*
X188214000Y-136906000D03*
X188214000Y-130556000D03*
X188214000Y-123952000D03*
X188214000Y-116078000D03*
X188214000Y-106934000D03*
X188468000Y-98298000D03*
X193294000Y-69596000D03*
X184658000Y-68834000D03*
X183642000Y-59436000D03*
X193294000Y-55372000D03*
X192786000Y-44704000D03*
X173228000Y-43434000D03*
X162814000Y-43434000D03*
X148082000Y-43434000D03*
X138176000Y-44196000D03*
X128016000Y-44196000D03*
X118110000Y-44450000D03*
X107950000Y-48260000D03*
X130302000Y-63246000D03*
X131064000Y-56896000D03*
X127000000Y-65024000D03*
X127254000Y-57912000D03*
X119380000Y-72136000D03*
X119380000Y-64262000D03*
X119380000Y-57912000D03*
X114046000Y-57658000D03*
X115316000Y-66040000D03*
X115316000Y-85344000D03*
X120904000Y-83566000D03*
X122428000Y-94742000D03*
X118872000Y-95504000D03*
X122174000Y-100076000D03*
X118872000Y-100076000D03*
X122428000Y-103632000D03*
X118872000Y-103632000D03*
X121412000Y-111760000D03*
X118872000Y-111760000D03*
X119634000Y-130556000D03*
X117348000Y-121920000D03*
X111506000Y-115824000D03*
X107950000Y-135128000D03*
X98044000Y-135128000D03*
X98044000Y-127508000D03*
X98044000Y-117856000D03*
X102362000Y-110744000D03*
X102362000Y-102616000D03*
X102362000Y-93726000D03*
X102362000Y-84328000D03*
X102362000Y-73660000D03*
X102362000Y-62992000D03*
X98044000Y-54610000D03*
X98044000Y-47752000D03*
X151601000Y-122665000D03*
X142555000Y-100313600D03*
X132055200Y-93472800D03*
X170200000Y-60379500D03*
X137633000Y-90872100D03*
X178294000Y-47248400D03*
X140580100Y-86555000D03*
X149421400Y-105259600D03*
X159047100Y-109012400D03*
X113235300Y-104440400D03*
X114056200Y-96419900D03*
X116251600Y-101521600D03*
X151476500Y-78584400D03*
X114056200Y-105261200D03*
X160388000Y-95600000D03*
X160012100Y-90280000D03*
X131737200Y-49266300D03*
X134738200Y-81678300D03*
X181839500Y-114102500D03*
X162723600Y-113827300D03*
X122897500Y-137679300D03*
X161206700Y-96423000D03*
X131039600Y-66948900D03*
X119950400Y-122943800D03*
X155005900Y-96419900D03*
X143156300Y-51911900D03*
X155136000Y-120125000D03*
X149345800Y-117049600D03*
X130714600Y-66062100D03*
X159047100Y-123591200D03*
X190802200Y-75790200D03*
X170049500Y-75009700D03*
X178892400Y-76205200D03*
D23*
X130048000Y-129015000D02*
X125448000Y-129015000D01*
X159548000Y-122665000D02*
X151601000Y-122665000D01*
X166643000Y-115570000D02*
X159548000Y-122665000D01*
X136398000Y-122665000D02*
X151601000Y-122665000D01*
X130048000Y-129015000D02*
X136398000Y-122665000D01*
X150235000Y-100313600D02*
X142555000Y-100313600D01*
X152202800Y-102281400D02*
X150235000Y-100313600D01*
X158201600Y-102281400D02*
X152202800Y-102281400D01*
X158883000Y-101600000D02*
X158201600Y-102281400D01*
X172988000Y-101600000D02*
X158883000Y-101600000D01*
X174258000Y-100330000D02*
X172988000Y-101600000D01*
X172988000Y-96520000D02*
X174258000Y-97790000D01*
X164383200Y-96520000D02*
X172988000Y-96520000D01*
X162588200Y-94725000D02*
X164383200Y-96520000D01*
X133307400Y-94725000D02*
X162588200Y-94725000D01*
X132055200Y-93472800D02*
X133307400Y-94725000D01*
X148153500Y-60379500D02*
X170200000Y-60379500D01*
X141859000Y-54085000D02*
X148153500Y-60379500D01*
X138945900Y-92185000D02*
X137633000Y-90872100D01*
X159840900Y-92185000D02*
X138945900Y-92185000D01*
X161477100Y-93821200D02*
X159840900Y-92185000D01*
X173146800Y-93821200D02*
X161477100Y-93821200D01*
X174258000Y-92710000D02*
X173146800Y-93821200D01*
X143373300Y-44950700D02*
X141859000Y-46465000D01*
X175996300Y-44950700D02*
X143373300Y-44950700D01*
X178294000Y-47248400D02*
X175996300Y-44950700D01*
X141030100Y-87005000D02*
X140580100Y-86555000D01*
X161818200Y-87005000D02*
X141030100Y-87005000D01*
X162309300Y-86513900D02*
X161818200Y-87005000D01*
X173141900Y-86513900D02*
X162309300Y-86513900D01*
X174258000Y-87630000D02*
X173141900Y-86513900D01*
X133302300Y-53195500D02*
X133302300Y-54085000D01*
X132871600Y-52764800D02*
X133302300Y-53195500D01*
X107342900Y-52764800D02*
X132871600Y-52764800D01*
X105917700Y-54190000D02*
X107342900Y-52764800D01*
X102616000Y-54190000D02*
X105917700Y-54190000D01*
X134454000Y-54085000D02*
X133302300Y-54085000D01*
X144359000Y-46465000D02*
X143207300Y-46465000D01*
X134454000Y-46465000D02*
X135605700Y-46465000D01*
X136773600Y-46465000D02*
X135605700Y-46465000D01*
X138081200Y-47772600D02*
X136773600Y-46465000D01*
X142691500Y-47772600D02*
X138081200Y-47772600D01*
X143207300Y-47256800D02*
X142691500Y-47772600D01*
X143207300Y-46465000D02*
X143207300Y-47256800D01*
X149796000Y-104885000D02*
X149421400Y-105259600D01*
X165418000Y-104885000D02*
X149796000Y-104885000D01*
X166071100Y-104231900D02*
X165418000Y-104885000D01*
X173079900Y-104231900D02*
X166071100Y-104231900D01*
X174258000Y-105410000D02*
X173079900Y-104231900D01*
X174458000Y-49490000D02*
X175260000Y-50292000D01*
X157508000Y-83295000D02*
X152908000Y-83295000D01*
X152908000Y-113775000D02*
X157508000Y-113775000D01*
X152908000Y-88375000D02*
X157508000Y-88375000D01*
X165165400Y-109012400D02*
X166643000Y-110490000D01*
X159047100Y-109012400D02*
X165165400Y-109012400D01*
X157508000Y-106155000D02*
X152908000Y-106155000D01*
X149349600Y-106155000D02*
X152908000Y-106155000D01*
X148055700Y-104861100D02*
X149349600Y-106155000D01*
X114752300Y-104861100D02*
X148055700Y-104861100D01*
X114331600Y-104440400D02*
X114752300Y-104861100D01*
X113235300Y-104440400D02*
X114331600Y-104440400D01*
X151638000Y-97265000D02*
X152908000Y-98535000D01*
X114901300Y-97265000D02*
X151638000Y-97265000D01*
X114056200Y-96419900D02*
X114901300Y-97265000D01*
X157508000Y-98535000D02*
X152908000Y-98535000D01*
X164843000Y-90915000D02*
X157508000Y-90915000D01*
X166638000Y-92710000D02*
X164843000Y-90915000D01*
X152908000Y-90915000D02*
X157508000Y-90915000D01*
X152908000Y-118855000D02*
X157508000Y-118855000D01*
X157508000Y-80755000D02*
X152908000Y-80755000D01*
X157321200Y-95808200D02*
X157508000Y-95995000D01*
X153094800Y-95808200D02*
X157321200Y-95808200D01*
X152908000Y-95995000D02*
X153094800Y-95808200D01*
X152908000Y-103615000D02*
X157508000Y-103615000D01*
X151638000Y-102345000D02*
X152908000Y-103615000D01*
X117075000Y-102345000D02*
X151638000Y-102345000D01*
X116251600Y-101521600D02*
X117075000Y-102345000D01*
X152908000Y-111235000D02*
X157508000Y-111235000D01*
X152908000Y-123935000D02*
X157508000Y-123935000D01*
X157508000Y-101075000D02*
X152908000Y-101075000D01*
X118499800Y-76275800D02*
X112000000Y-69776000D01*
X149167900Y-76275800D02*
X118499800Y-76275800D01*
X151476500Y-78584400D02*
X149167900Y-76275800D01*
X157508000Y-121395000D02*
X152908000Y-121395000D01*
X152908000Y-116315000D02*
X157508000Y-116315000D01*
X157508000Y-108695000D02*
X152908000Y-108695000D01*
X151638000Y-107425000D02*
X152908000Y-108695000D01*
X116220000Y-107425000D02*
X151638000Y-107425000D01*
X114056200Y-105261200D02*
X116220000Y-107425000D01*
X152908000Y-126475000D02*
X157508000Y-126475000D01*
X157508000Y-85835000D02*
X152908000Y-85835000D01*
X161908000Y-95600000D02*
X160388000Y-95600000D01*
X166638000Y-100330000D02*
X161908000Y-95600000D01*
X152908000Y-93455000D02*
X157508000Y-93455000D01*
X166528000Y-90280000D02*
X166638000Y-90170000D01*
X160012100Y-90280000D02*
X166528000Y-90280000D01*
X130048000Y-98535000D02*
X125448000Y-98535000D01*
X132924000Y-48079500D02*
X131737200Y-49266300D01*
X137579400Y-48079500D02*
X132924000Y-48079500D01*
X137617600Y-48117700D02*
X137579400Y-48079500D01*
X137858300Y-48117700D02*
X137617600Y-48117700D01*
X138093700Y-48353100D02*
X137858300Y-48117700D01*
X164381900Y-48353100D02*
X138093700Y-48353100D01*
X166450000Y-46285000D02*
X164381900Y-48353100D01*
X130048000Y-118855000D02*
X125448000Y-118855000D01*
X136931500Y-79485000D02*
X134738200Y-81678300D01*
X165637700Y-79485000D02*
X136931500Y-79485000D01*
X167297200Y-77825500D02*
X165637700Y-79485000D01*
X187685500Y-77825500D02*
X167297200Y-77825500D01*
X188600000Y-78740000D02*
X187685500Y-77825500D01*
X125448000Y-116315000D02*
X130048000Y-116315000D01*
X181642000Y-114300000D02*
X181839500Y-114102500D01*
X166168000Y-114300000D02*
X181642000Y-114300000D01*
X165423000Y-115045000D02*
X166168000Y-114300000D01*
X131318000Y-115045000D02*
X165423000Y-115045000D01*
X130048000Y-116315000D02*
X131318000Y-115045000D01*
X130048000Y-111235000D02*
X125448000Y-111235000D01*
X125448000Y-108695000D02*
X130048000Y-108695000D01*
X133858000Y-112505000D02*
X130048000Y-108695000D01*
X161401300Y-112505000D02*
X133858000Y-112505000D01*
X162723600Y-113827300D02*
X161401300Y-112505000D01*
X125448000Y-113775000D02*
X130048000Y-113775000D01*
X114232200Y-129540000D02*
X101600000Y-129540000D01*
X122206700Y-121565500D02*
X114232200Y-129540000D01*
X122206700Y-117016300D02*
X122206700Y-121565500D01*
X125448000Y-113775000D02*
X122206700Y-117016300D01*
X125448000Y-106155000D02*
X130048000Y-106155000D01*
X120876800Y-139700000D02*
X101600000Y-139700000D01*
X122897500Y-137679300D02*
X120876800Y-139700000D01*
X125448000Y-101075000D02*
X130048000Y-101075000D01*
X161206700Y-96503900D02*
X161206700Y-96423000D01*
X158023900Y-99686700D02*
X161206700Y-96503900D01*
X131436300Y-99686700D02*
X158023900Y-99686700D01*
X130048000Y-101075000D02*
X131436300Y-99686700D01*
X125448000Y-83295000D02*
X130048000Y-83295000D01*
X125448000Y-103615000D02*
X130048000Y-103615000D01*
X161386100Y-66948900D02*
X166450000Y-61885000D01*
X131039600Y-66948900D02*
X161386100Y-66948900D01*
X125448000Y-93455000D02*
X130048000Y-93455000D01*
X133858000Y-89645000D02*
X130048000Y-93455000D01*
X165418000Y-89645000D02*
X133858000Y-89645000D01*
X166304100Y-88758900D02*
X165418000Y-89645000D01*
X183661100Y-88758900D02*
X166304100Y-88758900D01*
X188600000Y-83820000D02*
X183661100Y-88758900D01*
X130048000Y-90915000D02*
X125448000Y-90915000D01*
X130048000Y-90495700D02*
X130048000Y-90915000D01*
X135978700Y-84565000D02*
X130048000Y-90495700D01*
X182894800Y-84565000D02*
X135978700Y-84565000D01*
X187449800Y-80010000D02*
X182894800Y-84565000D01*
X188983000Y-80010000D02*
X187449800Y-80010000D01*
X191438400Y-77554600D02*
X188983000Y-80010000D01*
X191438400Y-75575200D02*
X191438400Y-77554600D01*
X189523200Y-73660000D02*
X191438400Y-75575200D01*
X188600000Y-73660000D02*
X189523200Y-73660000D01*
X118434200Y-124460000D02*
X119950400Y-122943800D01*
X101600000Y-124460000D02*
X118434200Y-124460000D01*
X130048000Y-88375000D02*
X125448000Y-88375000D01*
X130048000Y-85835000D02*
X125448000Y-85835000D01*
X125448000Y-95995000D02*
X130048000Y-95995000D01*
X150996400Y-95995000D02*
X130048000Y-95995000D01*
X152202800Y-97201400D02*
X150996400Y-95995000D01*
X154224400Y-97201400D02*
X152202800Y-97201400D01*
X155005900Y-96419900D02*
X154224400Y-97201400D01*
X130048000Y-126475000D02*
X125448000Y-126475000D01*
X155733300Y-53686300D02*
X155733300Y-54138000D01*
X153958900Y-51911900D02*
X155733300Y-53686300D01*
X143156300Y-51911900D02*
X153958900Y-51911900D01*
X156885000Y-54138000D02*
X155733300Y-54138000D01*
X125448000Y-123935000D02*
X130048000Y-123935000D01*
X133858000Y-120125000D02*
X130048000Y-123935000D01*
X155136000Y-120125000D02*
X133858000Y-120125000D01*
X125448000Y-121395000D02*
X130048000Y-121395000D01*
X134393400Y-117049600D02*
X130048000Y-121395000D01*
X149345800Y-117049600D02*
X134393400Y-117049600D01*
X125448000Y-80755000D02*
X130048000Y-80755000D01*
X156004300Y-66134700D02*
X157206000Y-64933000D01*
X130787200Y-66134700D02*
X156004300Y-66134700D01*
X130714600Y-66062100D02*
X130787200Y-66134700D01*
X174384100Y-124113900D02*
X175538000Y-122960000D01*
X159569800Y-124113900D02*
X174384100Y-124113900D01*
X159047100Y-123591200D02*
X159569800Y-124113900D01*
X124460000Y-69882000D02*
X125611700Y-69882000D01*
X190021700Y-75009700D02*
X170051100Y-75009700D01*
X190802200Y-75790200D02*
X190021700Y-75009700D01*
X130739400Y-75009700D02*
X170051100Y-75009700D01*
X125611700Y-69882000D02*
X130739400Y-75009700D01*
X170051100Y-75009700D02*
X170049500Y-75009700D01*
X127880700Y-75802700D02*
X121960000Y-69882000D01*
X178489900Y-75802700D02*
X127880700Y-75802700D01*
X178892400Y-76205200D02*
X178489900Y-75802700D01*
D24*
X175260000Y-57150000D02*
X175260000Y-64770000D01*
D25*
X168950000Y-54085000D02*
X168950000Y-57110000D01*
X168950000Y-46285000D02*
X168950000Y-49450000D01*
D24*
X175260000Y-50292000D02*
X181820000Y-50292000D01*
D25*
X168910000Y-49490000D02*
X174458000Y-49490000D01*
X168950000Y-61885000D02*
X168950000Y-64730000D01*
X168910000Y-64770000D02*
X175260000Y-64770000D01*
D24*
X175260000Y-57150000D02*
X175260000Y-50292000D01*
D25*
X168950000Y-69685000D02*
X168950000Y-72350000D01*
X168910000Y-57150000D02*
X175260000Y-57150000D01*
D24*
X175260000Y-64770000D02*
X175260000Y-72390000D01*
D25*
X168910000Y-72390000D02*
X175260000Y-72390000D01*
G04 #@! TA.AperFunction,Conductor*
G36*
X192420677Y-42564685D02*
G01*
X192441319Y-42581319D01*
X194273681Y-44413681D01*
X194307166Y-44475004D01*
X194310000Y-44501362D01*
X194310000Y-139013638D01*
X194290315Y-139080677D01*
X194273681Y-139101319D01*
X192441319Y-140933681D01*
X192379996Y-140967166D01*
X192353638Y-140970000D01*
X102531237Y-140970000D01*
X102464198Y-140950315D01*
X102418443Y-140897511D01*
X102408499Y-140828353D01*
X102437524Y-140764797D01*
X102458352Y-140745682D01*
X102479785Y-140730109D01*
X102479783Y-140730109D01*
X102479792Y-140730104D01*
X102630104Y-140579792D01*
X102630106Y-140579788D01*
X102630109Y-140579786D01*
X102689193Y-140498462D01*
X102755051Y-140407816D01*
X102755349Y-140407230D01*
X102775235Y-140368205D01*
X102823209Y-140317409D01*
X102885719Y-140300500D01*
X120790131Y-140300500D01*
X120790147Y-140300501D01*
X120797743Y-140300501D01*
X120955854Y-140300501D01*
X120955857Y-140300501D01*
X121108585Y-140259577D01*
X121158704Y-140230639D01*
X121245516Y-140180520D01*
X121357320Y-140068716D01*
X121357320Y-140068714D01*
X121367528Y-140058507D01*
X121367529Y-140058504D01*
X122912162Y-138513872D01*
X122973483Y-138480389D01*
X122975650Y-138479938D01*
X123033585Y-138468413D01*
X123130997Y-138449037D01*
X123276679Y-138388694D01*
X123407789Y-138301089D01*
X123519289Y-138189589D01*
X123606894Y-138058479D01*
X123667237Y-137912797D01*
X123698000Y-137758142D01*
X123698000Y-137600458D01*
X123698000Y-137600455D01*
X123697999Y-137600453D01*
X123667238Y-137445810D01*
X123667238Y-137445808D01*
X123667237Y-137445803D01*
X123667235Y-137445798D01*
X123606897Y-137300127D01*
X123606890Y-137300114D01*
X123519289Y-137169011D01*
X123519286Y-137169007D01*
X123407792Y-137057513D01*
X123407788Y-137057510D01*
X123276685Y-136969909D01*
X123276672Y-136969902D01*
X123131001Y-136909564D01*
X123130989Y-136909561D01*
X122976345Y-136878800D01*
X122976342Y-136878800D01*
X122818658Y-136878800D01*
X122818655Y-136878800D01*
X122664010Y-136909561D01*
X122663998Y-136909564D01*
X122518327Y-136969902D01*
X122518314Y-136969909D01*
X122387211Y-137057510D01*
X122387207Y-137057513D01*
X122275713Y-137169007D01*
X122275710Y-137169011D01*
X122188109Y-137300114D01*
X122188102Y-137300127D01*
X122127764Y-137445798D01*
X122127761Y-137445808D01*
X122096861Y-137601150D01*
X122064476Y-137663061D01*
X122062925Y-137664639D01*
X120664384Y-139063181D01*
X120603061Y-139096666D01*
X120576703Y-139099500D01*
X102885719Y-139099500D01*
X102818680Y-139079815D01*
X102775235Y-139031795D01*
X102755052Y-138992185D01*
X102755051Y-138992184D01*
X102630109Y-138820213D01*
X102479786Y-138669890D01*
X102307820Y-138544951D01*
X102307115Y-138544591D01*
X102299054Y-138540485D01*
X102248259Y-138492512D01*
X102231463Y-138424692D01*
X102253999Y-138358556D01*
X102299054Y-138319515D01*
X102307816Y-138315051D01*
X102329789Y-138299086D01*
X102479786Y-138190109D01*
X102479788Y-138190106D01*
X102479792Y-138190104D01*
X102630104Y-138039792D01*
X102630106Y-138039788D01*
X102630109Y-138039786D01*
X102755048Y-137867820D01*
X102755047Y-137867820D01*
X102755051Y-137867816D01*
X102851557Y-137678412D01*
X102917246Y-137476243D01*
X102950500Y-137266287D01*
X102950500Y-137053713D01*
X102917246Y-136843757D01*
X102851557Y-136641588D01*
X102755051Y-136452184D01*
X102755049Y-136452181D01*
X102755048Y-136452179D01*
X102630109Y-136280213D01*
X102479786Y-136129890D01*
X102307820Y-136004951D01*
X102307115Y-136004591D01*
X102299054Y-136000485D01*
X102248259Y-135952512D01*
X102231463Y-135884692D01*
X102253999Y-135818556D01*
X102299054Y-135779515D01*
X102307816Y-135775051D01*
X102329789Y-135759086D01*
X102479786Y-135650109D01*
X102479788Y-135650106D01*
X102479792Y-135650104D01*
X102630104Y-135499792D01*
X102630106Y-135499788D01*
X102630109Y-135499786D01*
X102755048Y-135327820D01*
X102755047Y-135327820D01*
X102755051Y-135327816D01*
X102851557Y-135138412D01*
X102917246Y-134936243D01*
X102926358Y-134878711D01*
X113149500Y-134878711D01*
X113149500Y-135121288D01*
X113181161Y-135361785D01*
X113243947Y-135596104D01*
X113336773Y-135820205D01*
X113336777Y-135820214D01*
X113358974Y-135858661D01*
X113458064Y-136030289D01*
X113458066Y-136030292D01*
X113458067Y-136030293D01*
X113605733Y-136222736D01*
X113605739Y-136222743D01*
X113777256Y-136394260D01*
X113777262Y-136394265D01*
X113969711Y-136541936D01*
X114179788Y-136663224D01*
X114403900Y-136756054D01*
X114638211Y-136818838D01*
X114818586Y-136842584D01*
X114878711Y-136850500D01*
X114878712Y-136850500D01*
X115121289Y-136850500D01*
X115172507Y-136843757D01*
X115361789Y-136818838D01*
X115596100Y-136756054D01*
X115820212Y-136663224D01*
X116030289Y-136541936D01*
X116222738Y-136394265D01*
X116394265Y-136222738D01*
X116541936Y-136030289D01*
X116663224Y-135820212D01*
X116756054Y-135596100D01*
X116818838Y-135361789D01*
X116850500Y-135121288D01*
X116850500Y-134878712D01*
X116850500Y-134878711D01*
X173149500Y-134878711D01*
X173149500Y-135121288D01*
X173181161Y-135361785D01*
X173243947Y-135596104D01*
X173336773Y-135820205D01*
X173336777Y-135820214D01*
X173358974Y-135858661D01*
X173458064Y-136030289D01*
X173458066Y-136030292D01*
X173458067Y-136030293D01*
X173605733Y-136222736D01*
X173605739Y-136222743D01*
X173777256Y-136394260D01*
X173777262Y-136394265D01*
X173969711Y-136541936D01*
X174179788Y-136663224D01*
X174403900Y-136756054D01*
X174638211Y-136818838D01*
X174818586Y-136842584D01*
X174878711Y-136850500D01*
X174878712Y-136850500D01*
X175121289Y-136850500D01*
X175172507Y-136843757D01*
X175361789Y-136818838D01*
X175596100Y-136756054D01*
X175820212Y-136663224D01*
X176030289Y-136541936D01*
X176222738Y-136394265D01*
X176394265Y-136222738D01*
X176541936Y-136030289D01*
X176663224Y-135820212D01*
X176756054Y-135596100D01*
X176818838Y-135361789D01*
X176850500Y-135121288D01*
X176850500Y-134878712D01*
X176818838Y-134638211D01*
X176756054Y-134403900D01*
X176663224Y-134179788D01*
X176541936Y-133969711D01*
X176394265Y-133777262D01*
X176394260Y-133777256D01*
X176222743Y-133605739D01*
X176222736Y-133605733D01*
X176030293Y-133458067D01*
X176030292Y-133458066D01*
X176030289Y-133458064D01*
X175820212Y-133336776D01*
X175820205Y-133336773D01*
X175596104Y-133243947D01*
X175361785Y-133181161D01*
X175121289Y-133149500D01*
X175121288Y-133149500D01*
X174878712Y-133149500D01*
X174878711Y-133149500D01*
X174638214Y-133181161D01*
X174403895Y-133243947D01*
X174179794Y-133336773D01*
X174179785Y-133336777D01*
X173969706Y-133458067D01*
X173777263Y-133605733D01*
X173777256Y-133605739D01*
X173605739Y-133777256D01*
X173605733Y-133777263D01*
X173458067Y-133969706D01*
X173336777Y-134179785D01*
X173336773Y-134179794D01*
X173243947Y-134403895D01*
X173181161Y-134638214D01*
X173149500Y-134878711D01*
X116850500Y-134878711D01*
X116818838Y-134638211D01*
X116756054Y-134403900D01*
X116663224Y-134179788D01*
X116541936Y-133969711D01*
X116394265Y-133777262D01*
X116394260Y-133777256D01*
X116222743Y-133605739D01*
X116222736Y-133605733D01*
X116030293Y-133458067D01*
X116030292Y-133458066D01*
X116030289Y-133458064D01*
X115820212Y-133336776D01*
X115820205Y-133336773D01*
X115596104Y-133243947D01*
X115361785Y-133181161D01*
X115121289Y-133149500D01*
X115121288Y-133149500D01*
X114878712Y-133149500D01*
X114878711Y-133149500D01*
X114638214Y-133181161D01*
X114403895Y-133243947D01*
X114179794Y-133336773D01*
X114179785Y-133336777D01*
X113969706Y-133458067D01*
X113777263Y-133605733D01*
X113777256Y-133605739D01*
X113605739Y-133777256D01*
X113605733Y-133777263D01*
X113458067Y-133969706D01*
X113336777Y-134179785D01*
X113336773Y-134179794D01*
X113243947Y-134403895D01*
X113181161Y-134638214D01*
X113149500Y-134878711D01*
X102926358Y-134878711D01*
X102950500Y-134726287D01*
X102950500Y-134513713D01*
X102917246Y-134303757D01*
X102851557Y-134101588D01*
X102755051Y-133912184D01*
X102755049Y-133912181D01*
X102755048Y-133912179D01*
X102630109Y-133740213D01*
X102479786Y-133589890D01*
X102307820Y-133464951D01*
X102307115Y-133464591D01*
X102299054Y-133460485D01*
X102248259Y-133412512D01*
X102231463Y-133344692D01*
X102253999Y-133278556D01*
X102299054Y-133239515D01*
X102307816Y-133235051D01*
X102329789Y-133219086D01*
X102479786Y-133110109D01*
X102479788Y-133110106D01*
X102479792Y-133110104D01*
X102630104Y-132959792D01*
X102630106Y-132959788D01*
X102630109Y-132959786D01*
X102755048Y-132787820D01*
X102755047Y-132787820D01*
X102755051Y-132787816D01*
X102851557Y-132598412D01*
X102917246Y-132396243D01*
X102950500Y-132186287D01*
X102950500Y-131973713D01*
X102917246Y-131763757D01*
X102851557Y-131561588D01*
X102755051Y-131372184D01*
X102755049Y-131372181D01*
X102755048Y-131372179D01*
X102630109Y-131200213D01*
X102479786Y-131049890D01*
X102307820Y-130924951D01*
X102307115Y-130924591D01*
X102299054Y-130920485D01*
X102248259Y-130872512D01*
X102231463Y-130804692D01*
X102253999Y-130738556D01*
X102299054Y-130699515D01*
X102307816Y-130695051D01*
X102329789Y-130679086D01*
X102479786Y-130570109D01*
X102479788Y-130570106D01*
X102479792Y-130570104D01*
X102630104Y-130419792D01*
X102630106Y-130419788D01*
X102630109Y-130419786D01*
X102727012Y-130286408D01*
X102755051Y-130247816D01*
X102767955Y-130222491D01*
X102775235Y-130208205D01*
X102823209Y-130157409D01*
X102885719Y-130140500D01*
X114145531Y-130140500D01*
X114145547Y-130140501D01*
X114153143Y-130140501D01*
X114311254Y-130140501D01*
X114311257Y-130140501D01*
X114463985Y-130099577D01*
X114514104Y-130070639D01*
X114600916Y-130020520D01*
X114712720Y-129908716D01*
X114712720Y-129908714D01*
X114722928Y-129898507D01*
X114722930Y-129898504D01*
X122565206Y-122056228D01*
X122565211Y-122056224D01*
X122575414Y-122046020D01*
X122575416Y-122046020D01*
X122687220Y-121934216D01*
X122756792Y-121813713D01*
X122766277Y-121797285D01*
X122807200Y-121644557D01*
X122807200Y-121486443D01*
X122807200Y-117316396D01*
X122826885Y-117249357D01*
X122843514Y-117228720D01*
X123885819Y-116186414D01*
X123947142Y-116152930D01*
X124016834Y-116157914D01*
X124072767Y-116199786D01*
X124097184Y-116265250D01*
X124097500Y-116274096D01*
X124097500Y-116421286D01*
X124119781Y-116561966D01*
X124130754Y-116631243D01*
X124190821Y-116816110D01*
X124196444Y-116833414D01*
X124292951Y-117022820D01*
X124417890Y-117194786D01*
X124568213Y-117345109D01*
X124740182Y-117470050D01*
X124748946Y-117474516D01*
X124799742Y-117522491D01*
X124816536Y-117590312D01*
X124793998Y-117656447D01*
X124748946Y-117695484D01*
X124740182Y-117699949D01*
X124568213Y-117824890D01*
X124417890Y-117975213D01*
X124292951Y-118147179D01*
X124196444Y-118336585D01*
X124130753Y-118538760D01*
X124119593Y-118609223D01*
X124097500Y-118748713D01*
X124097500Y-118961287D01*
X124100448Y-118979901D01*
X124130753Y-119171239D01*
X124130753Y-119171241D01*
X124130754Y-119171243D01*
X124177535Y-119315220D01*
X124196444Y-119373414D01*
X124292951Y-119562820D01*
X124417890Y-119734786D01*
X124568213Y-119885109D01*
X124740182Y-120010050D01*
X124748946Y-120014516D01*
X124799742Y-120062491D01*
X124816536Y-120130312D01*
X124793998Y-120196447D01*
X124748946Y-120235484D01*
X124740182Y-120239949D01*
X124568213Y-120364890D01*
X124417890Y-120515213D01*
X124292951Y-120687179D01*
X124196444Y-120876585D01*
X124130753Y-121078760D01*
X124130753Y-121078762D01*
X124097500Y-121288713D01*
X124097500Y-121501287D01*
X124101031Y-121523582D01*
X124130753Y-121711239D01*
X124130753Y-121711241D01*
X124130754Y-121711243D01*
X124190546Y-121895264D01*
X124196444Y-121913414D01*
X124292951Y-122102820D01*
X124417890Y-122274786D01*
X124568213Y-122425109D01*
X124740182Y-122550050D01*
X124748946Y-122554516D01*
X124799742Y-122602491D01*
X124816536Y-122670312D01*
X124793998Y-122736447D01*
X124748946Y-122775484D01*
X124740182Y-122779949D01*
X124568213Y-122904890D01*
X124417890Y-123055213D01*
X124292951Y-123227179D01*
X124196444Y-123416585D01*
X124130753Y-123618760D01*
X124109622Y-123752179D01*
X124097500Y-123828713D01*
X124097500Y-124041287D01*
X124102410Y-124072287D01*
X124126411Y-124223826D01*
X124130754Y-124251243D01*
X124195867Y-124451640D01*
X124196444Y-124453414D01*
X124292951Y-124642820D01*
X124417890Y-124814786D01*
X124568213Y-124965109D01*
X124740182Y-125090050D01*
X124748946Y-125094516D01*
X124799742Y-125142491D01*
X124816536Y-125210312D01*
X124793998Y-125276447D01*
X124748946Y-125315484D01*
X124740182Y-125319949D01*
X124568213Y-125444890D01*
X124417890Y-125595213D01*
X124292951Y-125767179D01*
X124196444Y-125956585D01*
X124130753Y-126158760D01*
X124097500Y-126368713D01*
X124097500Y-126581286D01*
X124130753Y-126791239D01*
X124130753Y-126791241D01*
X124130754Y-126791243D01*
X124168576Y-126907648D01*
X124196444Y-126993414D01*
X124292951Y-127182820D01*
X124417890Y-127354786D01*
X124568213Y-127505109D01*
X124740182Y-127630050D01*
X124748946Y-127634516D01*
X124799742Y-127682491D01*
X124816536Y-127750312D01*
X124793998Y-127816447D01*
X124748946Y-127855484D01*
X124740182Y-127859949D01*
X124568213Y-127984890D01*
X124417890Y-128135213D01*
X124292951Y-128307179D01*
X124196444Y-128496585D01*
X124130753Y-128698760D01*
X124097500Y-128908713D01*
X124097500Y-129121286D01*
X124130753Y-129331239D01*
X124196444Y-129533414D01*
X124292951Y-129722820D01*
X124417890Y-129894786D01*
X124568213Y-130045109D01*
X124740179Y-130170048D01*
X124740181Y-130170049D01*
X124740184Y-130170051D01*
X124749493Y-130174794D01*
X124800290Y-130222766D01*
X124817087Y-130290587D01*
X124794552Y-130356722D01*
X124749505Y-130395760D01*
X124740446Y-130400376D01*
X124740440Y-130400380D01*
X124686282Y-130439727D01*
X124686282Y-130439728D01*
X125318591Y-131072037D01*
X125255007Y-131089075D01*
X125140993Y-131154901D01*
X125047901Y-131247993D01*
X124982075Y-131362007D01*
X124965037Y-131425591D01*
X124332728Y-130793282D01*
X124332727Y-130793282D01*
X124293380Y-130847439D01*
X124196904Y-131036782D01*
X124131242Y-131238869D01*
X124131242Y-131238872D01*
X124098000Y-131448753D01*
X124098000Y-131661246D01*
X124131242Y-131871127D01*
X124131242Y-131871130D01*
X124196904Y-132073217D01*
X124293375Y-132262550D01*
X124332728Y-132316716D01*
X124965037Y-131684408D01*
X124982075Y-131747993D01*
X125047901Y-131862007D01*
X125140993Y-131955099D01*
X125255007Y-132020925D01*
X125318590Y-132037962D01*
X124686282Y-132670269D01*
X124686282Y-132670270D01*
X124740449Y-132709624D01*
X124929782Y-132806095D01*
X125131870Y-132871757D01*
X125341754Y-132905000D01*
X125554246Y-132905000D01*
X125764127Y-132871757D01*
X125764130Y-132871757D01*
X125966217Y-132806095D01*
X126155554Y-132709622D01*
X126209716Y-132670270D01*
X126209717Y-132670270D01*
X125577408Y-132037962D01*
X125640993Y-132020925D01*
X125755007Y-131955099D01*
X125848099Y-131862007D01*
X125913925Y-131747993D01*
X125930962Y-131684409D01*
X126563270Y-132316717D01*
X126563270Y-132316716D01*
X126602622Y-132262554D01*
X126699095Y-132073217D01*
X126764757Y-131871130D01*
X126764757Y-131871127D01*
X126798000Y-131661246D01*
X126798000Y-131448753D01*
X126764757Y-131238872D01*
X126764757Y-131238869D01*
X126699095Y-131036782D01*
X126602624Y-130847449D01*
X126563270Y-130793282D01*
X126563269Y-130793282D01*
X125930962Y-131425590D01*
X125913925Y-131362007D01*
X125848099Y-131247993D01*
X125755007Y-131154901D01*
X125640993Y-131089075D01*
X125577409Y-131072037D01*
X126209716Y-130439728D01*
X126155547Y-130400373D01*
X126155547Y-130400372D01*
X126146500Y-130395763D01*
X126095706Y-130347788D01*
X126078912Y-130279966D01*
X126101451Y-130213832D01*
X126146508Y-130174793D01*
X126155816Y-130170051D01*
X126292646Y-130070639D01*
X126327786Y-130045109D01*
X126327788Y-130045106D01*
X126327792Y-130045104D01*
X126478104Y-129894792D01*
X126478106Y-129894788D01*
X126478109Y-129894786D01*
X126563890Y-129776717D01*
X126603051Y-129722816D01*
X126603349Y-129722230D01*
X126623235Y-129683205D01*
X126671209Y-129632409D01*
X126733719Y-129615500D01*
X128762281Y-129615500D01*
X128829320Y-129635185D01*
X128872765Y-129683205D01*
X128892947Y-129722814D01*
X128892948Y-129722815D01*
X129017890Y-129894786D01*
X129168213Y-130045109D01*
X129340179Y-130170048D01*
X129340181Y-130170049D01*
X129340184Y-130170051D01*
X129349493Y-130174794D01*
X129400290Y-130222766D01*
X129417087Y-130290587D01*
X129394552Y-130356722D01*
X129349505Y-130395760D01*
X129340446Y-130400376D01*
X129340440Y-130400380D01*
X129286282Y-130439727D01*
X129286282Y-130439728D01*
X129918591Y-131072037D01*
X129855007Y-131089075D01*
X129740993Y-131154901D01*
X129647901Y-131247993D01*
X129582075Y-131362007D01*
X129565037Y-131425591D01*
X128932728Y-130793282D01*
X128932727Y-130793282D01*
X128893380Y-130847439D01*
X128796904Y-131036782D01*
X128731242Y-131238869D01*
X128731242Y-131238872D01*
X128698000Y-131448753D01*
X128698000Y-131661246D01*
X128731242Y-131871127D01*
X128731242Y-131871130D01*
X128796904Y-132073217D01*
X128893375Y-132262550D01*
X128932728Y-132316716D01*
X129565037Y-131684408D01*
X129582075Y-131747993D01*
X129647901Y-131862007D01*
X129740993Y-131955099D01*
X129855007Y-132020925D01*
X129918590Y-132037962D01*
X129286282Y-132670269D01*
X129286282Y-132670270D01*
X129340449Y-132709624D01*
X129529782Y-132806095D01*
X129731870Y-132871757D01*
X129941754Y-132905000D01*
X130154246Y-132905000D01*
X130364127Y-132871757D01*
X130364130Y-132871757D01*
X130566217Y-132806095D01*
X130755554Y-132709622D01*
X130809716Y-132670270D01*
X130809717Y-132670270D01*
X130177408Y-132037962D01*
X130240993Y-132020925D01*
X130355007Y-131955099D01*
X130448099Y-131862007D01*
X130513925Y-131747993D01*
X130530962Y-131684408D01*
X131163270Y-132316717D01*
X131163270Y-132316716D01*
X131202622Y-132262554D01*
X131299095Y-132073217D01*
X131364757Y-131871130D01*
X131364757Y-131871127D01*
X131398000Y-131661246D01*
X131398000Y-131448753D01*
X131364757Y-131238872D01*
X131364757Y-131238869D01*
X131299095Y-131036782D01*
X131202624Y-130847449D01*
X131163270Y-130793282D01*
X131163269Y-130793282D01*
X130530962Y-131425590D01*
X130513925Y-131362007D01*
X130448099Y-131247993D01*
X130355007Y-131154901D01*
X130240993Y-131089075D01*
X130177409Y-131072037D01*
X130809716Y-130439728D01*
X130755547Y-130400373D01*
X130755547Y-130400372D01*
X130746500Y-130395763D01*
X130695706Y-130347788D01*
X130678912Y-130279966D01*
X130701451Y-130213832D01*
X130746508Y-130174793D01*
X130755816Y-130170051D01*
X130892646Y-130070639D01*
X130927786Y-130045109D01*
X130927788Y-130045106D01*
X130927792Y-130045104D01*
X131078104Y-129894792D01*
X131078106Y-129894788D01*
X131078109Y-129894786D01*
X131203048Y-129722820D01*
X131203047Y-129722820D01*
X131203051Y-129722816D01*
X131299557Y-129533412D01*
X131365246Y-129331243D01*
X131398500Y-129121287D01*
X131398500Y-128908713D01*
X131365246Y-128698757D01*
X131351506Y-128656473D01*
X131349512Y-128586635D01*
X131381755Y-128530478D01*
X136610416Y-123301819D01*
X136671739Y-123268334D01*
X136698097Y-123265500D01*
X151021234Y-123265500D01*
X151088273Y-123285185D01*
X151090125Y-123286398D01*
X151221814Y-123374390D01*
X151221827Y-123374397D01*
X151367498Y-123434735D01*
X151367503Y-123434737D01*
X151398542Y-123440911D01*
X151496501Y-123460397D01*
X151558412Y-123492782D01*
X151592986Y-123553498D01*
X151590519Y-123613680D01*
X151591893Y-123614010D01*
X151590754Y-123618755D01*
X151590753Y-123618762D01*
X151557500Y-123828713D01*
X151557500Y-124041287D01*
X151562410Y-124072287D01*
X151586411Y-124223826D01*
X151590754Y-124251243D01*
X151655867Y-124451640D01*
X151656444Y-124453414D01*
X151752951Y-124642820D01*
X151877890Y-124814786D01*
X152028213Y-124965109D01*
X152200182Y-125090050D01*
X152208946Y-125094516D01*
X152259742Y-125142491D01*
X152276536Y-125210312D01*
X152253998Y-125276447D01*
X152208946Y-125315484D01*
X152200182Y-125319949D01*
X152028213Y-125444890D01*
X151877890Y-125595213D01*
X151752951Y-125767179D01*
X151656444Y-125956585D01*
X151590753Y-126158760D01*
X151557500Y-126368713D01*
X151557500Y-126581286D01*
X151590753Y-126791239D01*
X151590753Y-126791241D01*
X151590754Y-126791243D01*
X151628576Y-126907648D01*
X151656444Y-126993414D01*
X151752951Y-127182820D01*
X151877890Y-127354786D01*
X152028213Y-127505109D01*
X152200179Y-127630048D01*
X152200181Y-127630049D01*
X152200184Y-127630051D01*
X152209493Y-127634794D01*
X152260290Y-127682766D01*
X152277087Y-127750587D01*
X152254552Y-127816722D01*
X152209505Y-127855760D01*
X152200446Y-127860376D01*
X152200440Y-127860380D01*
X152146282Y-127899727D01*
X152146282Y-127899728D01*
X152778591Y-128532037D01*
X152715007Y-128549075D01*
X152600993Y-128614901D01*
X152507901Y-128707993D01*
X152442075Y-128822007D01*
X152425037Y-128885591D01*
X151792728Y-128253282D01*
X151792727Y-128253282D01*
X151753380Y-128307439D01*
X151656904Y-128496782D01*
X151591242Y-128698869D01*
X151591242Y-128698872D01*
X151558000Y-128908753D01*
X151558000Y-129121246D01*
X151591242Y-129331127D01*
X151591242Y-129331130D01*
X151656904Y-129533217D01*
X151753375Y-129722550D01*
X151792728Y-129776716D01*
X152425037Y-129144408D01*
X152442075Y-129207993D01*
X152507901Y-129322007D01*
X152600993Y-129415099D01*
X152715007Y-129480925D01*
X152778591Y-129497962D01*
X152177971Y-130098581D01*
X152256711Y-130215895D01*
X152257920Y-130219729D01*
X152260844Y-130222491D01*
X152268343Y-130252778D01*
X152277727Y-130282529D01*
X152276671Y-130286408D01*
X152277638Y-130290312D01*
X152267573Y-130319844D01*
X152259383Y-130349947D01*
X152256397Y-130352640D01*
X152255100Y-130356447D01*
X152210051Y-130395483D01*
X152200440Y-130400380D01*
X152146282Y-130439727D01*
X152146282Y-130439728D01*
X152778591Y-131072037D01*
X152715007Y-131089075D01*
X152600993Y-131154901D01*
X152507901Y-131247993D01*
X152442075Y-131362007D01*
X152425037Y-131425591D01*
X151792728Y-130793282D01*
X151792727Y-130793282D01*
X151753380Y-130847439D01*
X151656904Y-131036782D01*
X151591242Y-131238869D01*
X151591242Y-131238872D01*
X151558000Y-131448753D01*
X151558000Y-131661246D01*
X151591242Y-131871127D01*
X151591242Y-131871130D01*
X151656904Y-132073217D01*
X151753375Y-132262550D01*
X151792728Y-132316716D01*
X152425037Y-131684408D01*
X152442075Y-131747993D01*
X152507901Y-131862007D01*
X152600993Y-131955099D01*
X152715007Y-132020925D01*
X152778590Y-132037962D01*
X152146282Y-132670269D01*
X152146282Y-132670270D01*
X152200449Y-132709624D01*
X152389782Y-132806095D01*
X152591870Y-132871757D01*
X152801754Y-132905000D01*
X153014246Y-132905000D01*
X153224127Y-132871757D01*
X153224130Y-132871757D01*
X153426217Y-132806095D01*
X153615554Y-132709622D01*
X153669716Y-132670270D01*
X153669717Y-132670270D01*
X153037408Y-132037962D01*
X153100993Y-132020925D01*
X153215007Y-131955099D01*
X153308099Y-131862007D01*
X153373925Y-131747993D01*
X153390962Y-131684408D01*
X154023270Y-132316717D01*
X154023270Y-132316716D01*
X154062622Y-132262554D01*
X154159095Y-132073217D01*
X154224757Y-131871130D01*
X154224757Y-131871127D01*
X154258000Y-131661246D01*
X154258000Y-131448753D01*
X154224757Y-131238872D01*
X154224757Y-131238869D01*
X154159095Y-131036782D01*
X154062624Y-130847449D01*
X154023270Y-130793282D01*
X154023269Y-130793282D01*
X153390962Y-131425590D01*
X153373925Y-131362007D01*
X153308099Y-131247993D01*
X153215007Y-131154901D01*
X153100993Y-131089075D01*
X153037409Y-131072037D01*
X153669716Y-130439728D01*
X153615550Y-130400375D01*
X153605954Y-130395486D01*
X153555157Y-130347512D01*
X153538361Y-130279692D01*
X153559288Y-130215895D01*
X153638027Y-130098581D01*
X153037408Y-129497962D01*
X153100993Y-129480925D01*
X153215007Y-129415099D01*
X153308099Y-129322007D01*
X153373925Y-129207993D01*
X153390962Y-129144408D01*
X154023270Y-129776717D01*
X154023270Y-129776716D01*
X154062622Y-129722554D01*
X154159095Y-129533217D01*
X154224757Y-129331130D01*
X154224757Y-129331127D01*
X154258000Y-129121246D01*
X154258000Y-128908753D01*
X154224757Y-128698872D01*
X154224757Y-128698869D01*
X154159095Y-128496782D01*
X154062624Y-128307449D01*
X154023270Y-128253282D01*
X154023269Y-128253282D01*
X153390962Y-128885590D01*
X153373925Y-128822007D01*
X153308099Y-128707993D01*
X153215007Y-128614901D01*
X153100993Y-128549075D01*
X153037409Y-128532037D01*
X153669716Y-127899728D01*
X153615547Y-127860373D01*
X153615547Y-127860372D01*
X153606500Y-127855763D01*
X153555706Y-127807788D01*
X153538912Y-127739966D01*
X153561451Y-127673832D01*
X153606508Y-127634793D01*
X153615816Y-127630051D01*
X153695007Y-127572515D01*
X153787786Y-127505109D01*
X153787788Y-127505106D01*
X153787792Y-127505104D01*
X153938104Y-127354792D01*
X153938106Y-127354788D01*
X153938109Y-127354786D01*
X153996661Y-127274193D01*
X154063051Y-127182816D01*
X154063349Y-127182230D01*
X154083235Y-127143205D01*
X154131209Y-127092409D01*
X154193719Y-127075500D01*
X156222281Y-127075500D01*
X156289320Y-127095185D01*
X156332765Y-127143205D01*
X156352947Y-127182814D01*
X156352948Y-127182815D01*
X156477890Y-127354786D01*
X156628213Y-127505109D01*
X156800179Y-127630048D01*
X156800181Y-127630049D01*
X156800184Y-127630051D01*
X156809493Y-127634794D01*
X156860290Y-127682766D01*
X156877087Y-127750587D01*
X156854552Y-127816722D01*
X156809505Y-127855760D01*
X156800446Y-127860376D01*
X156800440Y-127860380D01*
X156746282Y-127899727D01*
X156746282Y-127899728D01*
X157378591Y-128532037D01*
X157315007Y-128549075D01*
X157200993Y-128614901D01*
X157107901Y-128707993D01*
X157042075Y-128822007D01*
X157025037Y-128885591D01*
X156392728Y-128253282D01*
X156392727Y-128253282D01*
X156353380Y-128307439D01*
X156256904Y-128496782D01*
X156191242Y-128698869D01*
X156191242Y-128698872D01*
X156158000Y-128908753D01*
X156158000Y-129121246D01*
X156191242Y-129331127D01*
X156191242Y-129331130D01*
X156256904Y-129533217D01*
X156353375Y-129722550D01*
X156392728Y-129776716D01*
X157025037Y-129144408D01*
X157042075Y-129207993D01*
X157107901Y-129322007D01*
X157200993Y-129415099D01*
X157315007Y-129480925D01*
X157378590Y-129497962D01*
X156746282Y-130130269D01*
X156746282Y-130130270D01*
X156800452Y-130169626D01*
X156810048Y-130174516D01*
X156860844Y-130222491D01*
X156877638Y-130290312D01*
X156855100Y-130356447D01*
X156810051Y-130395483D01*
X156800440Y-130400380D01*
X156746282Y-130439727D01*
X156746282Y-130439728D01*
X157378591Y-131072037D01*
X157315007Y-131089075D01*
X157200993Y-131154901D01*
X157107901Y-131247993D01*
X157042075Y-131362007D01*
X157025037Y-131425591D01*
X156392728Y-130793282D01*
X156392727Y-130793282D01*
X156353380Y-130847439D01*
X156256904Y-131036782D01*
X156191242Y-131238869D01*
X156191242Y-131238872D01*
X156158000Y-131448753D01*
X156158000Y-131661246D01*
X156191242Y-131871127D01*
X156191242Y-131871130D01*
X156256904Y-132073217D01*
X156353375Y-132262550D01*
X156392728Y-132316716D01*
X157025037Y-131684408D01*
X157042075Y-131747993D01*
X157107901Y-131862007D01*
X157200993Y-131955099D01*
X157315007Y-132020925D01*
X157378590Y-132037962D01*
X156746282Y-132670269D01*
X156746282Y-132670270D01*
X156800449Y-132709624D01*
X156989782Y-132806095D01*
X157191870Y-132871757D01*
X157401754Y-132905000D01*
X157614246Y-132905000D01*
X157824127Y-132871757D01*
X157824130Y-132871757D01*
X158026217Y-132806095D01*
X158215554Y-132709622D01*
X158269716Y-132670270D01*
X158269717Y-132670270D01*
X157637408Y-132037962D01*
X157700993Y-132020925D01*
X157815007Y-131955099D01*
X157908099Y-131862007D01*
X157973925Y-131747993D01*
X157990962Y-131684408D01*
X158623270Y-132316717D01*
X158623270Y-132316716D01*
X158662622Y-132262554D01*
X158759095Y-132073217D01*
X158824757Y-131871130D01*
X158824757Y-131871127D01*
X158858000Y-131661246D01*
X158858000Y-131448753D01*
X158824757Y-131238872D01*
X158824757Y-131238869D01*
X158759095Y-131036782D01*
X158662624Y-130847449D01*
X158623270Y-130793282D01*
X158623269Y-130793282D01*
X157990962Y-131425590D01*
X157973925Y-131362007D01*
X157908099Y-131247993D01*
X157815007Y-131154901D01*
X157700993Y-131089075D01*
X157637409Y-131072037D01*
X158269716Y-130439728D01*
X158215550Y-130400375D01*
X158205954Y-130395486D01*
X158155157Y-130347512D01*
X158138361Y-130279692D01*
X158160897Y-130213556D01*
X158205954Y-130174514D01*
X158215554Y-130169622D01*
X158269716Y-130130270D01*
X158269717Y-130130270D01*
X157637408Y-129497962D01*
X157700993Y-129480925D01*
X157815007Y-129415099D01*
X157908099Y-129322007D01*
X157973925Y-129207993D01*
X157990962Y-129144408D01*
X158623270Y-129776717D01*
X158623270Y-129776716D01*
X158662622Y-129722554D01*
X158759095Y-129533217D01*
X158824757Y-129331130D01*
X158824757Y-129331127D01*
X158858000Y-129121246D01*
X158858000Y-128908753D01*
X158824757Y-128698872D01*
X158824757Y-128698869D01*
X158759095Y-128496782D01*
X158662624Y-128307449D01*
X158623270Y-128253282D01*
X158623269Y-128253282D01*
X157990962Y-128885590D01*
X157973925Y-128822007D01*
X157908099Y-128707993D01*
X157815007Y-128614901D01*
X157700993Y-128549075D01*
X157637409Y-128532037D01*
X158269716Y-127899728D01*
X158215547Y-127860373D01*
X158215547Y-127860372D01*
X158206500Y-127855763D01*
X158155706Y-127807788D01*
X158138912Y-127739966D01*
X158161451Y-127673832D01*
X158206508Y-127634793D01*
X158215816Y-127630051D01*
X158295007Y-127572515D01*
X158387786Y-127505109D01*
X158387788Y-127505106D01*
X158387792Y-127505104D01*
X158538104Y-127354792D01*
X158538106Y-127354788D01*
X158538109Y-127354786D01*
X158663048Y-127182820D01*
X158663047Y-127182820D01*
X158663051Y-127182816D01*
X158759557Y-126993412D01*
X158787424Y-126907648D01*
X164077500Y-126907648D01*
X164077500Y-127112351D01*
X164109522Y-127314534D01*
X164172781Y-127509223D01*
X164265715Y-127691613D01*
X164386028Y-127857213D01*
X164530786Y-128001971D01*
X164685749Y-128114556D01*
X164696390Y-128122287D01*
X164812607Y-128181503D01*
X164878776Y-128215218D01*
X164878778Y-128215218D01*
X164878781Y-128215220D01*
X164983137Y-128249127D01*
X165073465Y-128278477D01*
X165174557Y-128294488D01*
X165275648Y-128310500D01*
X165275649Y-128310500D01*
X165480351Y-128310500D01*
X165480352Y-128310500D01*
X165682534Y-128278477D01*
X165877219Y-128215220D01*
X166059610Y-128122287D01*
X166152590Y-128054732D01*
X166225213Y-128001971D01*
X166225215Y-128001968D01*
X166225219Y-128001966D01*
X166369966Y-127857219D01*
X166369968Y-127857215D01*
X166369971Y-127857213D01*
X166451497Y-127745000D01*
X166490287Y-127691610D01*
X166583220Y-127509219D01*
X166646477Y-127314534D01*
X166678500Y-127112352D01*
X166678500Y-126907648D01*
X174237500Y-126907648D01*
X174237500Y-127112351D01*
X174269522Y-127314534D01*
X174332781Y-127509223D01*
X174425715Y-127691613D01*
X174546028Y-127857213D01*
X174690786Y-128001971D01*
X174845749Y-128114556D01*
X174856390Y-128122287D01*
X174972607Y-128181503D01*
X175038776Y-128215218D01*
X175038778Y-128215218D01*
X175038781Y-128215220D01*
X175143137Y-128249127D01*
X175233465Y-128278477D01*
X175334557Y-128294488D01*
X175435648Y-128310500D01*
X175435649Y-128310500D01*
X175640351Y-128310500D01*
X175640352Y-128310500D01*
X175842534Y-128278477D01*
X176037219Y-128215220D01*
X176219610Y-128122287D01*
X176312590Y-128054732D01*
X176385213Y-128001971D01*
X176385215Y-128001968D01*
X176385219Y-128001966D01*
X176529966Y-127857219D01*
X176529968Y-127857215D01*
X176529971Y-127857213D01*
X176611497Y-127745000D01*
X176650287Y-127691610D01*
X176743220Y-127509219D01*
X176806477Y-127314534D01*
X176838500Y-127112352D01*
X176838500Y-126907648D01*
X176820063Y-126791243D01*
X176806477Y-126705465D01*
X176743218Y-126510776D01*
X176709503Y-126444607D01*
X176650287Y-126328390D01*
X176623982Y-126292184D01*
X176529971Y-126162786D01*
X176385213Y-126018028D01*
X176219613Y-125897715D01*
X176219612Y-125897714D01*
X176219610Y-125897713D01*
X176162653Y-125868691D01*
X176037223Y-125804781D01*
X175842534Y-125741522D01*
X175653339Y-125711557D01*
X175640352Y-125709500D01*
X175435648Y-125709500D01*
X175422661Y-125711557D01*
X175233465Y-125741522D01*
X175038776Y-125804781D01*
X174856386Y-125897715D01*
X174690786Y-126018028D01*
X174546028Y-126162786D01*
X174425715Y-126328386D01*
X174332781Y-126510776D01*
X174269522Y-126705465D01*
X174237500Y-126907648D01*
X166678500Y-126907648D01*
X166660063Y-126791243D01*
X166646477Y-126705465D01*
X166583218Y-126510776D01*
X166549503Y-126444607D01*
X166490287Y-126328390D01*
X166463982Y-126292184D01*
X166369971Y-126162786D01*
X166225213Y-126018028D01*
X166059613Y-125897715D01*
X166059612Y-125897714D01*
X166059610Y-125897713D01*
X166002653Y-125868691D01*
X165877223Y-125804781D01*
X165682534Y-125741522D01*
X165493339Y-125711557D01*
X165480352Y-125709500D01*
X165275648Y-125709500D01*
X165262661Y-125711557D01*
X165073465Y-125741522D01*
X164878776Y-125804781D01*
X164696386Y-125897715D01*
X164530786Y-126018028D01*
X164386028Y-126162786D01*
X164265715Y-126328386D01*
X164172781Y-126510776D01*
X164109522Y-126705465D01*
X164077500Y-126907648D01*
X158787424Y-126907648D01*
X158825246Y-126791243D01*
X158858500Y-126581287D01*
X158858500Y-126368713D01*
X158825246Y-126158757D01*
X158759557Y-125956588D01*
X158663051Y-125767184D01*
X158663049Y-125767181D01*
X158663048Y-125767179D01*
X158538109Y-125595213D01*
X158387786Y-125444890D01*
X158215820Y-125319951D01*
X158215115Y-125319591D01*
X158207054Y-125315485D01*
X158156259Y-125267512D01*
X158139463Y-125199692D01*
X158161999Y-125133556D01*
X158207054Y-125094515D01*
X158215816Y-125090051D01*
X158256490Y-125060500D01*
X158387786Y-124965109D01*
X158387788Y-124965106D01*
X158387792Y-124965104D01*
X158538104Y-124814792D01*
X158538106Y-124814788D01*
X158538109Y-124814786D01*
X158663048Y-124642820D01*
X158663050Y-124642817D01*
X158663051Y-124642816D01*
X158759557Y-124453412D01*
X158759560Y-124453400D01*
X158760112Y-124452072D01*
X158760459Y-124451640D01*
X158761769Y-124449071D01*
X158762308Y-124449345D01*
X158780031Y-124427350D01*
X158798607Y-124401590D01*
X158801798Y-124400334D01*
X158803949Y-124397665D01*
X158834080Y-124387633D01*
X158863625Y-124376009D01*
X158868249Y-124376256D01*
X158870241Y-124375594D01*
X158898868Y-124377898D01*
X158968949Y-124391838D01*
X159030860Y-124424223D01*
X159032439Y-124425774D01*
X159084939Y-124478274D01*
X159084949Y-124478285D01*
X159089279Y-124482615D01*
X159089280Y-124482616D01*
X159201084Y-124594420D01*
X159201086Y-124594421D01*
X159201090Y-124594424D01*
X159284916Y-124642820D01*
X159338016Y-124673477D01*
X159449819Y-124703434D01*
X159490742Y-124714400D01*
X159490743Y-124714400D01*
X174297431Y-124714400D01*
X174297447Y-124714401D01*
X174305043Y-124714401D01*
X174463154Y-124714401D01*
X174463157Y-124714401D01*
X174615885Y-124673477D01*
X174615887Y-124673475D01*
X174615889Y-124673475D01*
X174615890Y-124673474D01*
X174668990Y-124642817D01*
X174668991Y-124642816D01*
X174752816Y-124594420D01*
X174864620Y-124482616D01*
X174864620Y-124482614D01*
X174874824Y-124472411D01*
X174874828Y-124472406D01*
X175093158Y-124254075D01*
X175154479Y-124220592D01*
X175219151Y-124223825D01*
X175233466Y-124228477D01*
X175435648Y-124260500D01*
X175435649Y-124260500D01*
X175640351Y-124260500D01*
X175640352Y-124260500D01*
X175842534Y-124228477D01*
X176037219Y-124165220D01*
X176219610Y-124072287D01*
X176312590Y-124004732D01*
X176385213Y-123951971D01*
X176385215Y-123951968D01*
X176385219Y-123951966D01*
X176529966Y-123807219D01*
X176529968Y-123807215D01*
X176529971Y-123807213D01*
X176582732Y-123734590D01*
X176650287Y-123641610D01*
X176743220Y-123459219D01*
X176806477Y-123264534D01*
X176838500Y-123062352D01*
X176838500Y-122857648D01*
X176826194Y-122779951D01*
X176806477Y-122655465D01*
X176743218Y-122460776D01*
X176708247Y-122392143D01*
X176650287Y-122278390D01*
X176582059Y-122184481D01*
X176529971Y-122112786D01*
X176385213Y-121968028D01*
X176219613Y-121847715D01*
X176219612Y-121847714D01*
X176219610Y-121847713D01*
X176152905Y-121813725D01*
X176037223Y-121754781D01*
X175842534Y-121691522D01*
X175667995Y-121663878D01*
X175640352Y-121659500D01*
X175435648Y-121659500D01*
X175411329Y-121663351D01*
X175233465Y-121691522D01*
X175038776Y-121754781D01*
X174856386Y-121847715D01*
X174690786Y-121968028D01*
X174690782Y-121968032D01*
X174546035Y-122112780D01*
X174546028Y-122112786D01*
X174425715Y-122278386D01*
X174332781Y-122460776D01*
X174269522Y-122655465D01*
X174237500Y-122857648D01*
X174237500Y-123062351D01*
X174269523Y-123264535D01*
X174274172Y-123278845D01*
X174274606Y-123294054D01*
X174279924Y-123308312D01*
X174275582Y-123328271D01*
X174276165Y-123348687D01*
X174268077Y-123362771D01*
X174265073Y-123376585D01*
X174243922Y-123404840D01*
X174171684Y-123477080D01*
X174110362Y-123510566D01*
X174084002Y-123513400D01*
X166736287Y-123513400D01*
X166669248Y-123493715D01*
X166623493Y-123440911D01*
X166613549Y-123371753D01*
X166618356Y-123351081D01*
X166625768Y-123328271D01*
X166646477Y-123264534D01*
X166678500Y-123062352D01*
X166678500Y-122857648D01*
X166666194Y-122779951D01*
X166646477Y-122655465D01*
X166583218Y-122460776D01*
X166548247Y-122392143D01*
X166490287Y-122278390D01*
X166422059Y-122184481D01*
X166369971Y-122112786D01*
X166225213Y-121968028D01*
X166059613Y-121847715D01*
X166059612Y-121847714D01*
X166059610Y-121847713D01*
X165992905Y-121813725D01*
X165877223Y-121754781D01*
X165682534Y-121691522D01*
X165507995Y-121663878D01*
X165480352Y-121659500D01*
X165275648Y-121659500D01*
X165251329Y-121663351D01*
X165073465Y-121691522D01*
X164878776Y-121754781D01*
X164696386Y-121847715D01*
X164530786Y-121968028D01*
X164530782Y-121968032D01*
X164386035Y-122112780D01*
X164386028Y-122112786D01*
X164265715Y-122278386D01*
X164172781Y-122460776D01*
X164109522Y-122655465D01*
X164077500Y-122857648D01*
X164077500Y-123062351D01*
X164109522Y-123264534D01*
X164137644Y-123351081D01*
X164139639Y-123420922D01*
X164103559Y-123480755D01*
X164040858Y-123511584D01*
X164019713Y-123513400D01*
X159949571Y-123513400D01*
X159923115Y-123505631D01*
X159895903Y-123501184D01*
X159890066Y-123495927D01*
X159882532Y-123493715D01*
X159864479Y-123472881D01*
X159843987Y-123454424D01*
X159840258Y-123444929D01*
X159836777Y-123440911D01*
X159829945Y-123422043D01*
X159828801Y-123417853D01*
X159816837Y-123357703D01*
X159803798Y-123326225D01*
X159801735Y-123318663D01*
X159802261Y-123291260D01*
X159799331Y-123264005D01*
X159802922Y-123256829D01*
X159803077Y-123248806D01*
X159818335Y-123226036D01*
X159830605Y-123201525D01*
X159839516Y-123194431D01*
X159841973Y-123190765D01*
X159846692Y-123188718D01*
X159859360Y-123178633D01*
X159916716Y-123145520D01*
X160028520Y-123033716D01*
X160028520Y-123033714D01*
X160038724Y-123023511D01*
X160038728Y-123023506D01*
X165130819Y-117931415D01*
X165192142Y-117897930D01*
X165261834Y-117902914D01*
X165317767Y-117944786D01*
X165342184Y-118010250D01*
X165342500Y-118019096D01*
X165342500Y-118212352D01*
X165346058Y-118234815D01*
X165374522Y-118414534D01*
X165437781Y-118609223D01*
X165530715Y-118791613D01*
X165651028Y-118957213D01*
X165795786Y-119101971D01*
X165950749Y-119214556D01*
X165961390Y-119222287D01*
X166062398Y-119273753D01*
X166143776Y-119315218D01*
X166143778Y-119315218D01*
X166143781Y-119315220D01*
X166248137Y-119349127D01*
X166338465Y-119378477D01*
X166439557Y-119394488D01*
X166540648Y-119410500D01*
X166540649Y-119410500D01*
X166745351Y-119410500D01*
X166745352Y-119410500D01*
X166947534Y-119378477D01*
X167142219Y-119315220D01*
X167324610Y-119222287D01*
X167417590Y-119154732D01*
X167490213Y-119101971D01*
X167490215Y-119101968D01*
X167490219Y-119101966D01*
X167634966Y-118957219D01*
X167634968Y-118957215D01*
X167634971Y-118957213D01*
X167704304Y-118861782D01*
X167755287Y-118791610D01*
X167848220Y-118609219D01*
X167911477Y-118414534D01*
X167943500Y-118212352D01*
X167943500Y-118007648D01*
X167938362Y-117975208D01*
X167911477Y-117805465D01*
X167867786Y-117670998D01*
X167848220Y-117610781D01*
X167848218Y-117610778D01*
X167848218Y-117610776D01*
X167776514Y-117470051D01*
X167755287Y-117428390D01*
X167704447Y-117358414D01*
X167634971Y-117262786D01*
X167490213Y-117118028D01*
X167324614Y-116997715D01*
X167296136Y-116983205D01*
X167231917Y-116950483D01*
X167181123Y-116902511D01*
X167164328Y-116834690D01*
X167186865Y-116768555D01*
X167231917Y-116729516D01*
X167324610Y-116682287D01*
X167394872Y-116631239D01*
X167490213Y-116561971D01*
X167490215Y-116561968D01*
X167490219Y-116561966D01*
X167634966Y-116417219D01*
X167634968Y-116417215D01*
X167634971Y-116417213D01*
X167704445Y-116321588D01*
X167755287Y-116251610D01*
X167848220Y-116069219D01*
X167911477Y-115874534D01*
X167943500Y-115672352D01*
X167943500Y-115467648D01*
X167931532Y-115392086D01*
X167911477Y-115265465D01*
X167875742Y-115155486D01*
X167848220Y-115070781D01*
X167848218Y-115070777D01*
X167846714Y-115066148D01*
X167848035Y-115065718D01*
X167841236Y-115002486D01*
X167872509Y-114940006D01*
X167932597Y-114904352D01*
X167963266Y-114900500D01*
X172942734Y-114900500D01*
X173009773Y-114920185D01*
X173055528Y-114972989D01*
X173065472Y-115042147D01*
X173058919Y-115066029D01*
X173059286Y-115066148D01*
X173057781Y-115070777D01*
X173057780Y-115070781D01*
X173042942Y-115116447D01*
X172994522Y-115265465D01*
X172967638Y-115435208D01*
X172962500Y-115467648D01*
X172962500Y-115672352D01*
X172963999Y-115681818D01*
X172994522Y-115874534D01*
X173057781Y-116069223D01*
X173089862Y-116132184D01*
X173149434Y-116249100D01*
X173150715Y-116251613D01*
X173271028Y-116417213D01*
X173415786Y-116561971D01*
X173511133Y-116631243D01*
X173581390Y-116682287D01*
X173672840Y-116728883D01*
X173674080Y-116729515D01*
X173724876Y-116777490D01*
X173741671Y-116845311D01*
X173719134Y-116911446D01*
X173674080Y-116950485D01*
X173581386Y-116997715D01*
X173415786Y-117118028D01*
X173271028Y-117262786D01*
X173150715Y-117428386D01*
X173057781Y-117610776D01*
X172994522Y-117805465D01*
X172964495Y-117995051D01*
X172962500Y-118007648D01*
X172962500Y-118212352D01*
X172966058Y-118234815D01*
X172994522Y-118414534D01*
X173057781Y-118609223D01*
X173150715Y-118791613D01*
X173271028Y-118957213D01*
X173415786Y-119101971D01*
X173570749Y-119214556D01*
X173581390Y-119222287D01*
X173682398Y-119273753D01*
X173763776Y-119315218D01*
X173763778Y-119315218D01*
X173763781Y-119315220D01*
X173868137Y-119349127D01*
X173958465Y-119378477D01*
X174059557Y-119394488D01*
X174160648Y-119410500D01*
X174160649Y-119410500D01*
X174365351Y-119410500D01*
X174365352Y-119410500D01*
X174567534Y-119378477D01*
X174762219Y-119315220D01*
X174944610Y-119222287D01*
X175037590Y-119154732D01*
X175110213Y-119101971D01*
X175110215Y-119101968D01*
X175110219Y-119101966D01*
X175254966Y-118957219D01*
X175254968Y-118957215D01*
X175254971Y-118957213D01*
X175324304Y-118861782D01*
X175375287Y-118791610D01*
X175468220Y-118609219D01*
X175531477Y-118414534D01*
X175563500Y-118212352D01*
X175563500Y-118007648D01*
X175558362Y-117975208D01*
X175531477Y-117805465D01*
X175487786Y-117670998D01*
X175468220Y-117610781D01*
X175468218Y-117610778D01*
X175468218Y-117610776D01*
X175396514Y-117470051D01*
X175375287Y-117428390D01*
X175324447Y-117358414D01*
X175254971Y-117262786D01*
X175110213Y-117118028D01*
X174944614Y-116997715D01*
X174916136Y-116983205D01*
X174851917Y-116950483D01*
X174801123Y-116902511D01*
X174784328Y-116834690D01*
X174806865Y-116768555D01*
X174851917Y-116729516D01*
X174944610Y-116682287D01*
X175014872Y-116631239D01*
X175110213Y-116561971D01*
X175110215Y-116561968D01*
X175110219Y-116561966D01*
X175254966Y-116417219D01*
X175254968Y-116417215D01*
X175254971Y-116417213D01*
X175324445Y-116321588D01*
X175375287Y-116251610D01*
X175468220Y-116069219D01*
X175531477Y-115874534D01*
X175563500Y-115672352D01*
X175563500Y-115467648D01*
X175551532Y-115392086D01*
X175531477Y-115265465D01*
X175495742Y-115155486D01*
X175468220Y-115070781D01*
X175468218Y-115070777D01*
X175466714Y-115066148D01*
X175468035Y-115065718D01*
X175461236Y-115002486D01*
X175492509Y-114940006D01*
X175552597Y-114904352D01*
X175583266Y-114900500D01*
X181562939Y-114900500D01*
X181562943Y-114900501D01*
X181721057Y-114900501D01*
X181722924Y-114900000D01*
X181732845Y-114899971D01*
X181738977Y-114901751D01*
X181757409Y-114902353D01*
X181760658Y-114903000D01*
X181760660Y-114903000D01*
X181918344Y-114903000D01*
X181918345Y-114902999D01*
X182072997Y-114872237D01*
X182218679Y-114811894D01*
X182349789Y-114724289D01*
X182461289Y-114612789D01*
X182548894Y-114481679D01*
X182609237Y-114335997D01*
X182640000Y-114181342D01*
X182640000Y-114023658D01*
X182640000Y-114023655D01*
X182639999Y-114023653D01*
X182633900Y-113992993D01*
X182609237Y-113869003D01*
X182598036Y-113841960D01*
X182548897Y-113723327D01*
X182548890Y-113723314D01*
X182461289Y-113592211D01*
X182461286Y-113592207D01*
X182349792Y-113480713D01*
X182349788Y-113480710D01*
X182218685Y-113393109D01*
X182218672Y-113393102D01*
X182073001Y-113332764D01*
X182072989Y-113332761D01*
X181918345Y-113302000D01*
X181918342Y-113302000D01*
X181760658Y-113302000D01*
X181760655Y-113302000D01*
X181606010Y-113332761D01*
X181605998Y-113332764D01*
X181460327Y-113393102D01*
X181460314Y-113393109D01*
X181329211Y-113480710D01*
X181329207Y-113480713D01*
X181217713Y-113592207D01*
X181217710Y-113592211D01*
X181182845Y-113644391D01*
X181129233Y-113689196D01*
X181079743Y-113699500D01*
X175583266Y-113699500D01*
X175516227Y-113679815D01*
X175470472Y-113627011D01*
X175460528Y-113557853D01*
X175467080Y-113533970D01*
X175466714Y-113533852D01*
X175468218Y-113529222D01*
X175468220Y-113529219D01*
X175531477Y-113334534D01*
X175531476Y-113334534D01*
X175531478Y-113334531D01*
X175560296Y-113152580D01*
X175563500Y-113132352D01*
X175563500Y-112927648D01*
X175555257Y-112875606D01*
X175531477Y-112725465D01*
X175483058Y-112576447D01*
X175468220Y-112530781D01*
X175468218Y-112530778D01*
X175468218Y-112530776D01*
X175396514Y-112390051D01*
X175375287Y-112348390D01*
X175343092Y-112304077D01*
X175254971Y-112182786D01*
X175110213Y-112038028D01*
X174944611Y-111917713D01*
X174851369Y-111870203D01*
X174800574Y-111822229D01*
X174783779Y-111754407D01*
X174806317Y-111688273D01*
X174851371Y-111649234D01*
X174944346Y-111601861D01*
X174944347Y-111601861D01*
X174988921Y-111569474D01*
X174309447Y-110890000D01*
X174315661Y-110890000D01*
X174417394Y-110862741D01*
X174508606Y-110810080D01*
X174583080Y-110735606D01*
X174635741Y-110644394D01*
X174663000Y-110542661D01*
X174663000Y-110536447D01*
X175342474Y-111215921D01*
X175374859Y-111171349D01*
X175467755Y-110989031D01*
X175530990Y-110794417D01*
X175563000Y-110592317D01*
X175563000Y-110387682D01*
X175530990Y-110185582D01*
X175467755Y-109990968D01*
X175374859Y-109808650D01*
X175342474Y-109764077D01*
X175342474Y-109764076D01*
X174663000Y-110443551D01*
X174663000Y-110437339D01*
X174635741Y-110335606D01*
X174583080Y-110244394D01*
X174508606Y-110169920D01*
X174417394Y-110117259D01*
X174315661Y-110090000D01*
X174309446Y-110090000D01*
X174988922Y-109410524D01*
X174988921Y-109410523D01*
X174944359Y-109378147D01*
X174944350Y-109378141D01*
X174762031Y-109285244D01*
X174567417Y-109222009D01*
X174365317Y-109190000D01*
X174160683Y-109190000D01*
X173958582Y-109222009D01*
X173763968Y-109285244D01*
X173581644Y-109378143D01*
X173537077Y-109410523D01*
X173537077Y-109410524D01*
X174216554Y-110090000D01*
X174210339Y-110090000D01*
X174108606Y-110117259D01*
X174017394Y-110169920D01*
X173942920Y-110244394D01*
X173890259Y-110335606D01*
X173863000Y-110437339D01*
X173863000Y-110443553D01*
X173183524Y-109764077D01*
X173183523Y-109764077D01*
X173151143Y-109808644D01*
X173058244Y-109990968D01*
X172995009Y-110185582D01*
X172963000Y-110387682D01*
X172963000Y-110592317D01*
X172995009Y-110794417D01*
X173058244Y-110989031D01*
X173151141Y-111171350D01*
X173151147Y-111171359D01*
X173183523Y-111215921D01*
X173183524Y-111215922D01*
X173863000Y-110536446D01*
X173863000Y-110542661D01*
X173890259Y-110644394D01*
X173942920Y-110735606D01*
X174017394Y-110810080D01*
X174108606Y-110862741D01*
X174210339Y-110890000D01*
X174216553Y-110890000D01*
X173537076Y-111569474D01*
X173581652Y-111601861D01*
X173674628Y-111649234D01*
X173725425Y-111697208D01*
X173742220Y-111765029D01*
X173719683Y-111831164D01*
X173674630Y-111870203D01*
X173581388Y-111917713D01*
X173415786Y-112038028D01*
X173271028Y-112182786D01*
X173150715Y-112348386D01*
X173057781Y-112530776D01*
X172994522Y-112725465D01*
X172967638Y-112895208D01*
X172962500Y-112927648D01*
X172962500Y-113132352D01*
X172965704Y-113152580D01*
X172994522Y-113334531D01*
X172994523Y-113334534D01*
X173057780Y-113529219D01*
X173057781Y-113529222D01*
X173059286Y-113533852D01*
X173057964Y-113534281D01*
X173064764Y-113597514D01*
X173033491Y-113659994D01*
X172973403Y-113695648D01*
X172942734Y-113699500D01*
X167962724Y-113699500D01*
X167895685Y-113679815D01*
X167849930Y-113627011D01*
X167839986Y-113557853D01*
X167846591Y-113533770D01*
X167846251Y-113533660D01*
X167910990Y-113334417D01*
X167943000Y-113132317D01*
X167943000Y-112927682D01*
X167910990Y-112725582D01*
X167847755Y-112530968D01*
X167754859Y-112348650D01*
X167722474Y-112304077D01*
X167722474Y-112304076D01*
X167043000Y-112983551D01*
X167043000Y-112977339D01*
X167015741Y-112875606D01*
X166963080Y-112784394D01*
X166888606Y-112709920D01*
X166797394Y-112657259D01*
X166695661Y-112630000D01*
X166689446Y-112630000D01*
X167368922Y-111950524D01*
X167367570Y-111933349D01*
X167353299Y-111914842D01*
X167347320Y-111845229D01*
X167379925Y-111783433D01*
X167429845Y-111752148D01*
X167512334Y-111724814D01*
X167661656Y-111632712D01*
X167785712Y-111508656D01*
X167877814Y-111359334D01*
X167932999Y-111192797D01*
X167943500Y-111090009D01*
X167943499Y-109889992D01*
X167932999Y-109787203D01*
X167877814Y-109620666D01*
X167873036Y-109612920D01*
X167817500Y-109522881D01*
X167817499Y-109522880D01*
X167785712Y-109471344D01*
X167661656Y-109347288D01*
X167512334Y-109255186D01*
X167345797Y-109200001D01*
X167345795Y-109200000D01*
X167243016Y-109189500D01*
X167243009Y-109189500D01*
X166243097Y-109189500D01*
X166176058Y-109169815D01*
X166155416Y-109153181D01*
X165652990Y-108650755D01*
X165652988Y-108650752D01*
X165534117Y-108531881D01*
X165534116Y-108531880D01*
X165447304Y-108481760D01*
X165447304Y-108481759D01*
X165447300Y-108481758D01*
X165397185Y-108452823D01*
X165244457Y-108411899D01*
X165086343Y-108411899D01*
X165078747Y-108411899D01*
X165078731Y-108411900D01*
X159626866Y-108411900D01*
X159559827Y-108392215D01*
X159557975Y-108391002D01*
X159426285Y-108303009D01*
X159426272Y-108303002D01*
X159280601Y-108242664D01*
X159280589Y-108242661D01*
X159125945Y-108211900D01*
X159125942Y-108211900D01*
X158968258Y-108211900D01*
X158936261Y-108218264D01*
X158887161Y-108228031D01*
X158817569Y-108221803D01*
X158762392Y-108178939D01*
X158752485Y-108162708D01*
X158717731Y-108094500D01*
X158663051Y-107987184D01*
X158640134Y-107955641D01*
X158538109Y-107815213D01*
X158387786Y-107664890D01*
X158215820Y-107539951D01*
X158215115Y-107539591D01*
X158207054Y-107535485D01*
X158156259Y-107487512D01*
X158139463Y-107419692D01*
X158161999Y-107353556D01*
X158207054Y-107314515D01*
X158215816Y-107310051D01*
X158237789Y-107294086D01*
X158387786Y-107185109D01*
X158387788Y-107185106D01*
X158387792Y-107185104D01*
X158538104Y-107034792D01*
X158538106Y-107034788D01*
X158538109Y-107034786D01*
X158663048Y-106862820D01*
X158663047Y-106862820D01*
X158663051Y-106862816D01*
X158759557Y-106673412D01*
X158825246Y-106471243D01*
X158858500Y-106261287D01*
X158858500Y-106048713D01*
X158825246Y-105838757D01*
X158763206Y-105647818D01*
X158761211Y-105577977D01*
X158797291Y-105518144D01*
X158859992Y-105487316D01*
X158881137Y-105485500D01*
X165227847Y-105485500D01*
X165294886Y-105505185D01*
X165340641Y-105557989D01*
X165350320Y-105590102D01*
X165370009Y-105714417D01*
X165433244Y-105909031D01*
X165526141Y-106091350D01*
X165526147Y-106091359D01*
X165558523Y-106135921D01*
X165558524Y-106135922D01*
X166238000Y-105456446D01*
X166238000Y-105462661D01*
X166265259Y-105564394D01*
X166317920Y-105655606D01*
X166392394Y-105730080D01*
X166483606Y-105782741D01*
X166585339Y-105810000D01*
X166591553Y-105810000D01*
X165912076Y-106489474D01*
X165956650Y-106521859D01*
X166138968Y-106614755D01*
X166333582Y-106677990D01*
X166535683Y-106710000D01*
X166740317Y-106710000D01*
X166942417Y-106677990D01*
X167137031Y-106614755D01*
X167319349Y-106521859D01*
X167363921Y-106489474D01*
X166684447Y-105810000D01*
X166690661Y-105810000D01*
X166792394Y-105782741D01*
X166883606Y-105730080D01*
X166958080Y-105655606D01*
X167010741Y-105564394D01*
X167038000Y-105462661D01*
X167038000Y-105456447D01*
X167717474Y-106135921D01*
X167749859Y-106091349D01*
X167842755Y-105909031D01*
X167905990Y-105714417D01*
X167938000Y-105512317D01*
X167938000Y-105307682D01*
X167905989Y-105105581D01*
X167905989Y-105105578D01*
X167869968Y-104994718D01*
X167867973Y-104924877D01*
X167904053Y-104865044D01*
X167966754Y-104834216D01*
X167987899Y-104832400D01*
X172779803Y-104832400D01*
X172809243Y-104841044D01*
X172839230Y-104847568D01*
X172844245Y-104851322D01*
X172846842Y-104852085D01*
X172867484Y-104868719D01*
X172963922Y-104965157D01*
X172997407Y-105026480D01*
X172994173Y-105091155D01*
X172989522Y-105105468D01*
X172960704Y-105287419D01*
X172957500Y-105307648D01*
X172957500Y-105512352D01*
X172960943Y-105534089D01*
X172989522Y-105714534D01*
X173052781Y-105909223D01*
X173114799Y-106030938D01*
X173145585Y-106091359D01*
X173145715Y-106091613D01*
X173266028Y-106257213D01*
X173410786Y-106401971D01*
X173506129Y-106471240D01*
X173576390Y-106522287D01*
X173692607Y-106581503D01*
X173758776Y-106615218D01*
X173758778Y-106615218D01*
X173758781Y-106615220D01*
X173821258Y-106635520D01*
X173953465Y-106678477D01*
X173998684Y-106685639D01*
X174155648Y-106710500D01*
X174155649Y-106710500D01*
X174360351Y-106710500D01*
X174360352Y-106710500D01*
X174562534Y-106678477D01*
X174757219Y-106615220D01*
X174939610Y-106522287D01*
X175076520Y-106422817D01*
X175105213Y-106401971D01*
X175105215Y-106401968D01*
X175105219Y-106401966D01*
X175249966Y-106257219D01*
X175249968Y-106257215D01*
X175249971Y-106257213D01*
X175302732Y-106184590D01*
X175370287Y-106091610D01*
X175463220Y-105909219D01*
X175526477Y-105714534D01*
X175558500Y-105512352D01*
X175558500Y-105307648D01*
X175555296Y-105287419D01*
X175526477Y-105105465D01*
X175476187Y-104950689D01*
X175463220Y-104910781D01*
X175463218Y-104910778D01*
X175463218Y-104910776D01*
X175416750Y-104819579D01*
X175370287Y-104728390D01*
X175339258Y-104685682D01*
X175249971Y-104562786D01*
X175105213Y-104418028D01*
X174939614Y-104297715D01*
X174908116Y-104281666D01*
X174846917Y-104250483D01*
X174796123Y-104202511D01*
X174779328Y-104134690D01*
X174801865Y-104068555D01*
X174846917Y-104029516D01*
X174939610Y-103982287D01*
X174960770Y-103966913D01*
X175105213Y-103861971D01*
X175105215Y-103861968D01*
X175105219Y-103861966D01*
X175249966Y-103717219D01*
X175249968Y-103717215D01*
X175249971Y-103717213D01*
X175317132Y-103624772D01*
X175370287Y-103551610D01*
X175463220Y-103369219D01*
X175526477Y-103174534D01*
X175558500Y-102972352D01*
X175558500Y-102767648D01*
X175546907Y-102694452D01*
X175526477Y-102565465D01*
X175463218Y-102370776D01*
X175407492Y-102261409D01*
X175370287Y-102188390D01*
X175337590Y-102143386D01*
X175249971Y-102022786D01*
X175105213Y-101878028D01*
X174939614Y-101757715D01*
X174910114Y-101742684D01*
X174846917Y-101710483D01*
X174796123Y-101662511D01*
X174779328Y-101594690D01*
X174801865Y-101528555D01*
X174846917Y-101489516D01*
X174939610Y-101442287D01*
X175009871Y-101391240D01*
X175105213Y-101321971D01*
X175105215Y-101321968D01*
X175105219Y-101321966D01*
X175249966Y-101177219D01*
X175249968Y-101177215D01*
X175249971Y-101177213D01*
X175318176Y-101083335D01*
X175370287Y-101011610D01*
X175463220Y-100829219D01*
X175526477Y-100634534D01*
X175558500Y-100432352D01*
X175558500Y-100227648D01*
X175531220Y-100055413D01*
X175526477Y-100025465D01*
X175478058Y-99876447D01*
X175463220Y-99830781D01*
X175463218Y-99830778D01*
X175463218Y-99830776D01*
X175391514Y-99690051D01*
X175370287Y-99648390D01*
X175362556Y-99637749D01*
X175249971Y-99482786D01*
X175105213Y-99338028D01*
X174939614Y-99217715D01*
X174911136Y-99203205D01*
X174846917Y-99170483D01*
X174796123Y-99122511D01*
X174779328Y-99054690D01*
X174801865Y-98988555D01*
X174846917Y-98949516D01*
X174939610Y-98902287D01*
X175009872Y-98851239D01*
X175105213Y-98781971D01*
X175105215Y-98781968D01*
X175105219Y-98781966D01*
X175249966Y-98637219D01*
X175249968Y-98637215D01*
X175249971Y-98637213D01*
X175302732Y-98564590D01*
X175370287Y-98471610D01*
X175463220Y-98289219D01*
X175526477Y-98094534D01*
X175558500Y-97892352D01*
X175558500Y-97687648D01*
X175549270Y-97629374D01*
X175526477Y-97485465D01*
X175478058Y-97336447D01*
X175463220Y-97290781D01*
X175463218Y-97290778D01*
X175463218Y-97290776D01*
X175413264Y-97192737D01*
X175370287Y-97108390D01*
X175324079Y-97044789D01*
X175249971Y-96942786D01*
X175105213Y-96798028D01*
X174939614Y-96677715D01*
X174891875Y-96653391D01*
X174846917Y-96630483D01*
X174796123Y-96582511D01*
X174779328Y-96514690D01*
X174801865Y-96448555D01*
X174846917Y-96409516D01*
X174939610Y-96362287D01*
X175009872Y-96311239D01*
X175105213Y-96241971D01*
X175105215Y-96241968D01*
X175105219Y-96241966D01*
X175249966Y-96097219D01*
X175249968Y-96097215D01*
X175249971Y-96097213D01*
X175335731Y-95979172D01*
X175370287Y-95931610D01*
X175463220Y-95749219D01*
X175526477Y-95554534D01*
X175558500Y-95352352D01*
X175558500Y-95147648D01*
X175546532Y-95072086D01*
X175526477Y-94945465D01*
X175478058Y-94796447D01*
X175463220Y-94750781D01*
X175463218Y-94750778D01*
X175463218Y-94750776D01*
X175413681Y-94653556D01*
X175370287Y-94568390D01*
X175343332Y-94531289D01*
X175249971Y-94402786D01*
X175105213Y-94258028D01*
X174939614Y-94137715D01*
X174910114Y-94122684D01*
X174846917Y-94090483D01*
X174796123Y-94042511D01*
X174779328Y-93974690D01*
X174801865Y-93908555D01*
X174846917Y-93869516D01*
X174939610Y-93822287D01*
X175009872Y-93771239D01*
X175105213Y-93701971D01*
X175105215Y-93701968D01*
X175105219Y-93701966D01*
X175249966Y-93557219D01*
X175249968Y-93557215D01*
X175249971Y-93557213D01*
X175346707Y-93424065D01*
X175370287Y-93391610D01*
X175463220Y-93209219D01*
X175526477Y-93014534D01*
X175558500Y-92812352D01*
X175558500Y-92607648D01*
X175530951Y-92433713D01*
X175526477Y-92405465D01*
X175478058Y-92256447D01*
X175463220Y-92210781D01*
X175463218Y-92210778D01*
X175463218Y-92210776D01*
X175391514Y-92070051D01*
X175370287Y-92028390D01*
X175319447Y-91958414D01*
X175249971Y-91862786D01*
X175105213Y-91718028D01*
X174939614Y-91597715D01*
X174933006Y-91594348D01*
X174846917Y-91550483D01*
X174841100Y-91544989D01*
X174833483Y-91542536D01*
X174816068Y-91521348D01*
X174796123Y-91502511D01*
X174794198Y-91494740D01*
X174789118Y-91488559D01*
X174785922Y-91461318D01*
X174779328Y-91434690D01*
X174781909Y-91427114D01*
X174780977Y-91419165D01*
X174793017Y-91394518D01*
X174801865Y-91368555D01*
X174808916Y-91361972D01*
X174811646Y-91356386D01*
X174829357Y-91342893D01*
X174838911Y-91333976D01*
X174842832Y-91331597D01*
X174939610Y-91282287D01*
X175017779Y-91225493D01*
X175017786Y-91225490D01*
X175105212Y-91161971D01*
X175105210Y-91161971D01*
X175105219Y-91161966D01*
X175249966Y-91017219D01*
X175249968Y-91017215D01*
X175249971Y-91017213D01*
X175319445Y-90921588D01*
X175370287Y-90851610D01*
X175463220Y-90669219D01*
X175526477Y-90474534D01*
X175558500Y-90272352D01*
X175558500Y-90067648D01*
X175550204Y-90015269D01*
X175526477Y-89865465D01*
X175478058Y-89716447D01*
X175463220Y-89670781D01*
X175463218Y-89670778D01*
X175463218Y-89670776D01*
X175396428Y-89539695D01*
X175383532Y-89471026D01*
X175409808Y-89406285D01*
X175466914Y-89366028D01*
X175506913Y-89359400D01*
X183574431Y-89359400D01*
X183574447Y-89359401D01*
X183582043Y-89359401D01*
X183740154Y-89359401D01*
X183740157Y-89359401D01*
X183892885Y-89318477D01*
X183977715Y-89269500D01*
X184029816Y-89239420D01*
X184141620Y-89127616D01*
X184141620Y-89127614D01*
X184151824Y-89117411D01*
X184151828Y-89117406D01*
X187037819Y-86231415D01*
X187099142Y-86197930D01*
X187168834Y-86202914D01*
X187224767Y-86244786D01*
X187249184Y-86310250D01*
X187249500Y-86319096D01*
X187249500Y-86466287D01*
X187282754Y-86676243D01*
X187317370Y-86782781D01*
X187348444Y-86878414D01*
X187444951Y-87067820D01*
X187569890Y-87239786D01*
X187720213Y-87390109D01*
X187892179Y-87515048D01*
X187892181Y-87515049D01*
X187892184Y-87515051D01*
X187901493Y-87519794D01*
X187952290Y-87567766D01*
X187969087Y-87635587D01*
X187946552Y-87701722D01*
X187901505Y-87740760D01*
X187892446Y-87745376D01*
X187892440Y-87745380D01*
X187838282Y-87784727D01*
X187838282Y-87784728D01*
X188470591Y-88417037D01*
X188407007Y-88434075D01*
X188292993Y-88499901D01*
X188199901Y-88592993D01*
X188134075Y-88707007D01*
X188117037Y-88770590D01*
X187484728Y-88138282D01*
X187484727Y-88138282D01*
X187445380Y-88192439D01*
X187348904Y-88381782D01*
X187283242Y-88583869D01*
X187283242Y-88583872D01*
X187250000Y-88793753D01*
X187250000Y-89006246D01*
X187283242Y-89216127D01*
X187283242Y-89216130D01*
X187348904Y-89418217D01*
X187445375Y-89607550D01*
X187484728Y-89661716D01*
X188117037Y-89029408D01*
X188134075Y-89092993D01*
X188199901Y-89207007D01*
X188292993Y-89300099D01*
X188407007Y-89365925D01*
X188470590Y-89382962D01*
X187838282Y-90015269D01*
X187838282Y-90015270D01*
X187892452Y-90054626D01*
X187892451Y-90054626D01*
X187901495Y-90059234D01*
X187952292Y-90107208D01*
X187969087Y-90175029D01*
X187946550Y-90241164D01*
X187901499Y-90280202D01*
X187892182Y-90284949D01*
X187720213Y-90409890D01*
X187569890Y-90560213D01*
X187444951Y-90732179D01*
X187348444Y-90921585D01*
X187282753Y-91123760D01*
X187249500Y-91333713D01*
X187249500Y-91546286D01*
X187282723Y-91756052D01*
X187282754Y-91756243D01*
X187317370Y-91862781D01*
X187348444Y-91958414D01*
X187444951Y-92147820D01*
X187569890Y-92319786D01*
X187683818Y-92433714D01*
X187717303Y-92495037D01*
X187712319Y-92564729D01*
X187670447Y-92620662D01*
X187639471Y-92637577D01*
X187507912Y-92686646D01*
X187507906Y-92686649D01*
X187392812Y-92772809D01*
X187392809Y-92772812D01*
X187306649Y-92887906D01*
X187306645Y-92887913D01*
X187256403Y-93022620D01*
X187256401Y-93022627D01*
X187250000Y-93082155D01*
X187250000Y-93730000D01*
X188166988Y-93730000D01*
X188134075Y-93787007D01*
X188100000Y-93914174D01*
X188100000Y-94045826D01*
X188134075Y-94172993D01*
X188166988Y-94230000D01*
X187250000Y-94230000D01*
X187250000Y-94877844D01*
X187256401Y-94937372D01*
X187256403Y-94937379D01*
X187306645Y-95072086D01*
X187306649Y-95072093D01*
X187392809Y-95187187D01*
X187392812Y-95187190D01*
X187507906Y-95273350D01*
X187507913Y-95273354D01*
X187642620Y-95323596D01*
X187642627Y-95323598D01*
X187702155Y-95329999D01*
X187702172Y-95330000D01*
X188350000Y-95330000D01*
X188350000Y-94413012D01*
X188407007Y-94445925D01*
X188534174Y-94480000D01*
X188665826Y-94480000D01*
X188792993Y-94445925D01*
X188850000Y-94413012D01*
X188850000Y-95330000D01*
X189497828Y-95330000D01*
X189497844Y-95329999D01*
X189557372Y-95323598D01*
X189557379Y-95323596D01*
X189692086Y-95273354D01*
X189692093Y-95273350D01*
X189807187Y-95187190D01*
X189807190Y-95187187D01*
X189893350Y-95072093D01*
X189893354Y-95072086D01*
X189943596Y-94937379D01*
X189943598Y-94937372D01*
X189949999Y-94877844D01*
X189950000Y-94877827D01*
X189950000Y-94230000D01*
X189033012Y-94230000D01*
X189065925Y-94172993D01*
X189100000Y-94045826D01*
X189100000Y-93914174D01*
X189065925Y-93787007D01*
X189033012Y-93730000D01*
X189950000Y-93730000D01*
X189950000Y-93082172D01*
X189949999Y-93082155D01*
X189943598Y-93022627D01*
X189943596Y-93022620D01*
X189893354Y-92887913D01*
X189893350Y-92887906D01*
X189807190Y-92772812D01*
X189807187Y-92772809D01*
X189692093Y-92686649D01*
X189692088Y-92686646D01*
X189560528Y-92637577D01*
X189504595Y-92595705D01*
X189480178Y-92530241D01*
X189495030Y-92461968D01*
X189516175Y-92433720D01*
X189630104Y-92319792D01*
X189755051Y-92147816D01*
X189851557Y-91958412D01*
X189917246Y-91756243D01*
X189950500Y-91546287D01*
X189950500Y-91333713D01*
X189917246Y-91123757D01*
X189851557Y-90921588D01*
X189755051Y-90732184D01*
X189755049Y-90732181D01*
X189755048Y-90732179D01*
X189630109Y-90560213D01*
X189479786Y-90409890D01*
X189307817Y-90284949D01*
X189298504Y-90280204D01*
X189247707Y-90232230D01*
X189230912Y-90164409D01*
X189253449Y-90098274D01*
X189298507Y-90059232D01*
X189307555Y-90054622D01*
X189361716Y-90015270D01*
X189361717Y-90015270D01*
X188729408Y-89382962D01*
X188792993Y-89365925D01*
X188907007Y-89300099D01*
X189000099Y-89207007D01*
X189065925Y-89092993D01*
X189082962Y-89029408D01*
X189715270Y-89661717D01*
X189715270Y-89661716D01*
X189754622Y-89607554D01*
X189851095Y-89418217D01*
X189916757Y-89216130D01*
X189916757Y-89216127D01*
X189950000Y-89006246D01*
X189950000Y-88793753D01*
X189916757Y-88583872D01*
X189916757Y-88583869D01*
X189851095Y-88381782D01*
X189754624Y-88192449D01*
X189715270Y-88138282D01*
X189715269Y-88138282D01*
X189082962Y-88770590D01*
X189065925Y-88707007D01*
X189000099Y-88592993D01*
X188907007Y-88499901D01*
X188792993Y-88434075D01*
X188729409Y-88417037D01*
X189361716Y-87784728D01*
X189307547Y-87745373D01*
X189307547Y-87745372D01*
X189298500Y-87740763D01*
X189247706Y-87692788D01*
X189230912Y-87624966D01*
X189253451Y-87558832D01*
X189298508Y-87519793D01*
X189307816Y-87515051D01*
X189387007Y-87457515D01*
X189479786Y-87390109D01*
X189479788Y-87390106D01*
X189479792Y-87390104D01*
X189630104Y-87239792D01*
X189630106Y-87239788D01*
X189630109Y-87239786D01*
X189755048Y-87067820D01*
X189755047Y-87067820D01*
X189755051Y-87067816D01*
X189851557Y-86878412D01*
X189917246Y-86676243D01*
X189950500Y-86466287D01*
X189950500Y-86253713D01*
X189917246Y-86043757D01*
X189851557Y-85841588D01*
X189755051Y-85652184D01*
X189755049Y-85652181D01*
X189755048Y-85652179D01*
X189630109Y-85480213D01*
X189479786Y-85329890D01*
X189307820Y-85204951D01*
X189307115Y-85204591D01*
X189299054Y-85200485D01*
X189248259Y-85152512D01*
X189231463Y-85084692D01*
X189253999Y-85018556D01*
X189299054Y-84979515D01*
X189307816Y-84975051D01*
X189378769Y-84923501D01*
X189479786Y-84850109D01*
X189479788Y-84850106D01*
X189479792Y-84850104D01*
X189630104Y-84699792D01*
X189630106Y-84699788D01*
X189630109Y-84699786D01*
X189755048Y-84527820D01*
X189755047Y-84527820D01*
X189755051Y-84527816D01*
X189851557Y-84338412D01*
X189917246Y-84136243D01*
X189950500Y-83926287D01*
X189950500Y-83713713D01*
X189917246Y-83503757D01*
X189851557Y-83301588D01*
X189755051Y-83112184D01*
X189755049Y-83112181D01*
X189755048Y-83112179D01*
X189630109Y-82940213D01*
X189479786Y-82789890D01*
X189307820Y-82664951D01*
X189307115Y-82664591D01*
X189299054Y-82660485D01*
X189248259Y-82612512D01*
X189231463Y-82544692D01*
X189253999Y-82478556D01*
X189299054Y-82439515D01*
X189307816Y-82435051D01*
X189372998Y-82387694D01*
X189479786Y-82310109D01*
X189479788Y-82310106D01*
X189479792Y-82310104D01*
X189630104Y-82159792D01*
X189630106Y-82159788D01*
X189630109Y-82159786D01*
X189755048Y-81987820D01*
X189755047Y-81987820D01*
X189755051Y-81987816D01*
X189851557Y-81798412D01*
X189917246Y-81596243D01*
X189950500Y-81386287D01*
X189950500Y-81173713D01*
X189917246Y-80963757D01*
X189851557Y-80761588D01*
X189755051Y-80572184D01*
X189755049Y-80572181D01*
X189755048Y-80572179D01*
X189630109Y-80400213D01*
X189623746Y-80393850D01*
X189590261Y-80332527D01*
X189595245Y-80262835D01*
X189623746Y-80218488D01*
X190669752Y-79172482D01*
X191807113Y-78035121D01*
X191807116Y-78035120D01*
X191918920Y-77923316D01*
X191969039Y-77836504D01*
X191997977Y-77786385D01*
X192038901Y-77633657D01*
X192038901Y-77475543D01*
X192038901Y-77467948D01*
X192038900Y-77467930D01*
X192038900Y-75664259D01*
X192038901Y-75664246D01*
X192038901Y-75496145D01*
X192038901Y-75496143D01*
X191997977Y-75343415D01*
X191961313Y-75279911D01*
X191918920Y-75206484D01*
X191807116Y-75094680D01*
X191807115Y-75094679D01*
X191802785Y-75090349D01*
X191802774Y-75090339D01*
X190011606Y-73299171D01*
X190003721Y-73291286D01*
X190003720Y-73291284D01*
X189891916Y-73179480D01*
X189880763Y-73173041D01*
X189869840Y-73162511D01*
X189859744Y-73144803D01*
X189845679Y-73130049D01*
X189845414Y-73129532D01*
X189755051Y-72952184D01*
X189755049Y-72952181D01*
X189755048Y-72952179D01*
X189630109Y-72780213D01*
X189479786Y-72629890D01*
X189307820Y-72504951D01*
X189307115Y-72504591D01*
X189299054Y-72500485D01*
X189248259Y-72452512D01*
X189231463Y-72384692D01*
X189253999Y-72318556D01*
X189299054Y-72279515D01*
X189307816Y-72275051D01*
X189329789Y-72259086D01*
X189479786Y-72150109D01*
X189479788Y-72150106D01*
X189479792Y-72150104D01*
X189630104Y-71999792D01*
X189630106Y-71999788D01*
X189630109Y-71999786D01*
X189755048Y-71827820D01*
X189755047Y-71827820D01*
X189755051Y-71827816D01*
X189851557Y-71638412D01*
X189917246Y-71436243D01*
X189950500Y-71226287D01*
X189950500Y-71013713D01*
X189917246Y-70803757D01*
X189851557Y-70601588D01*
X189755051Y-70412184D01*
X189755049Y-70412181D01*
X189755048Y-70412179D01*
X189630109Y-70240213D01*
X189479786Y-70089890D01*
X189307820Y-69964951D01*
X189307115Y-69964591D01*
X189299054Y-69960485D01*
X189248259Y-69912512D01*
X189231463Y-69844692D01*
X189253999Y-69778556D01*
X189299054Y-69739515D01*
X189307816Y-69735051D01*
X189329789Y-69719086D01*
X189479786Y-69610109D01*
X189479788Y-69610106D01*
X189479792Y-69610104D01*
X189630104Y-69459792D01*
X189630106Y-69459788D01*
X189630109Y-69459786D01*
X189755048Y-69287820D01*
X189755047Y-69287820D01*
X189755051Y-69287816D01*
X189851557Y-69098412D01*
X189917246Y-68896243D01*
X189950500Y-68686287D01*
X189950500Y-68473713D01*
X189917246Y-68263757D01*
X189851557Y-68061588D01*
X189755051Y-67872184D01*
X189755049Y-67872181D01*
X189755048Y-67872179D01*
X189630109Y-67700213D01*
X189479786Y-67549890D01*
X189307820Y-67424951D01*
X189118414Y-67328444D01*
X189118413Y-67328443D01*
X189118412Y-67328443D01*
X188916243Y-67262754D01*
X188916241Y-67262753D01*
X188916240Y-67262753D01*
X188754957Y-67237208D01*
X188706287Y-67229500D01*
X188493713Y-67229500D01*
X188445042Y-67237208D01*
X188283760Y-67262753D01*
X188081585Y-67328444D01*
X187892179Y-67424951D01*
X187720213Y-67549890D01*
X187569890Y-67700213D01*
X187444951Y-67872179D01*
X187348444Y-68061585D01*
X187282753Y-68263760D01*
X187249500Y-68473713D01*
X187249500Y-68686286D01*
X187279104Y-68873203D01*
X187282754Y-68896243D01*
X187343107Y-69081991D01*
X187348444Y-69098414D01*
X187444951Y-69287820D01*
X187569890Y-69459786D01*
X187720213Y-69610109D01*
X187892182Y-69735050D01*
X187900946Y-69739516D01*
X187951742Y-69787491D01*
X187968536Y-69855312D01*
X187945998Y-69921447D01*
X187900946Y-69960484D01*
X187892182Y-69964949D01*
X187720213Y-70089890D01*
X187569890Y-70240213D01*
X187444951Y-70412179D01*
X187348444Y-70601585D01*
X187282753Y-70803760D01*
X187249500Y-71013713D01*
X187249500Y-71226286D01*
X187277359Y-71402184D01*
X187282754Y-71436243D01*
X187290033Y-71458646D01*
X187348444Y-71638414D01*
X187444951Y-71827820D01*
X187569890Y-71999786D01*
X187720213Y-72150109D01*
X187892182Y-72275050D01*
X187900946Y-72279516D01*
X187951742Y-72327491D01*
X187968536Y-72395312D01*
X187945998Y-72461447D01*
X187900946Y-72500484D01*
X187892182Y-72504949D01*
X187720213Y-72629890D01*
X187569890Y-72780213D01*
X187444951Y-72952179D01*
X187348444Y-73141585D01*
X187282753Y-73343760D01*
X187249500Y-73553713D01*
X187249500Y-73766286D01*
X187269173Y-73890500D01*
X187282754Y-73976243D01*
X187309586Y-74058824D01*
X187348445Y-74178417D01*
X187374170Y-74228906D01*
X187387066Y-74297575D01*
X187360789Y-74362315D01*
X187303683Y-74402572D01*
X187263685Y-74409200D01*
X177076403Y-74409200D01*
X177009364Y-74389515D01*
X176963609Y-74336711D01*
X176953665Y-74267553D01*
X176982690Y-74203997D01*
X176988722Y-74197519D01*
X177007829Y-74178412D01*
X177127416Y-74058825D01*
X177302523Y-73839248D01*
X177451945Y-73601445D01*
X177573801Y-73348408D01*
X177666560Y-73083318D01*
X177729055Y-72809509D01*
X177732357Y-72780208D01*
X177760499Y-72530431D01*
X177760500Y-72530427D01*
X177760500Y-57268135D01*
X189149500Y-57268135D01*
X189149500Y-59063870D01*
X189149501Y-59063876D01*
X189155908Y-59123483D01*
X189206202Y-59258328D01*
X189206206Y-59258335D01*
X189292452Y-59373544D01*
X189292455Y-59373547D01*
X189407664Y-59459793D01*
X189407671Y-59459797D01*
X189539082Y-59508810D01*
X189595016Y-59550681D01*
X189619433Y-59616145D01*
X189604582Y-59684418D01*
X189583431Y-59712673D01*
X189469889Y-59826215D01*
X189344951Y-59998179D01*
X189248444Y-60187585D01*
X189182753Y-60389760D01*
X189149500Y-60599713D01*
X189149500Y-60812286D01*
X189181236Y-61012663D01*
X189182754Y-61022243D01*
X189248367Y-61224179D01*
X189248444Y-61224414D01*
X189344951Y-61413820D01*
X189469890Y-61585786D01*
X189620213Y-61736109D01*
X189792179Y-61861048D01*
X189792181Y-61861049D01*
X189792184Y-61861051D01*
X189981588Y-61957557D01*
X190183757Y-62023246D01*
X190393713Y-62056500D01*
X190393714Y-62056500D01*
X190606286Y-62056500D01*
X190606287Y-62056500D01*
X190816243Y-62023246D01*
X191018412Y-61957557D01*
X191207816Y-61861051D01*
X191229789Y-61845086D01*
X191379786Y-61736109D01*
X191379788Y-61736106D01*
X191379792Y-61736104D01*
X191530104Y-61585792D01*
X191530106Y-61585788D01*
X191530109Y-61585786D01*
X191655048Y-61413820D01*
X191655047Y-61413820D01*
X191655051Y-61413816D01*
X191751557Y-61224412D01*
X191817246Y-61022243D01*
X191850500Y-60812287D01*
X191850500Y-60599713D01*
X191817246Y-60389757D01*
X191751557Y-60187588D01*
X191655051Y-59998184D01*
X191655049Y-59998181D01*
X191655048Y-59998179D01*
X191530109Y-59826213D01*
X191416569Y-59712673D01*
X191383084Y-59651350D01*
X191388068Y-59581658D01*
X191429940Y-59525725D01*
X191460915Y-59508810D01*
X191592331Y-59459796D01*
X191707546Y-59373546D01*
X191793796Y-59258331D01*
X191844091Y-59123483D01*
X191850500Y-59063873D01*
X191850499Y-57268128D01*
X191844091Y-57208517D01*
X191793796Y-57073669D01*
X191793795Y-57073668D01*
X191793793Y-57073664D01*
X191707547Y-56958455D01*
X191707544Y-56958452D01*
X191592335Y-56872206D01*
X191592328Y-56872202D01*
X191457482Y-56821908D01*
X191457483Y-56821908D01*
X191397883Y-56815501D01*
X191397881Y-56815500D01*
X191397873Y-56815500D01*
X191397864Y-56815500D01*
X189602129Y-56815500D01*
X189602123Y-56815501D01*
X189542516Y-56821908D01*
X189407671Y-56872202D01*
X189407664Y-56872206D01*
X189292455Y-56958452D01*
X189292452Y-56958455D01*
X189206206Y-57073664D01*
X189206202Y-57073671D01*
X189155908Y-57208517D01*
X189149504Y-57268092D01*
X189149501Y-57268123D01*
X189149500Y-57268135D01*
X177760500Y-57268135D01*
X177760500Y-52916500D01*
X177780185Y-52849461D01*
X177832989Y-52803706D01*
X177884500Y-52792500D01*
X178195501Y-52792500D01*
X178262540Y-52812185D01*
X178308295Y-52864989D01*
X178319501Y-52916500D01*
X178319501Y-53339876D01*
X178325908Y-53399483D01*
X178376202Y-53534328D01*
X178376206Y-53534335D01*
X178462452Y-53649544D01*
X178462455Y-53649547D01*
X178577664Y-53735793D01*
X178577671Y-53735797D01*
X178712517Y-53786091D01*
X178712516Y-53786091D01*
X178719444Y-53786835D01*
X178772127Y-53792500D01*
X184867872Y-53792499D01*
X184927483Y-53786091D01*
X185062331Y-53735796D01*
X185177546Y-53649546D01*
X185263796Y-53534331D01*
X185314091Y-53399483D01*
X185320500Y-53339873D01*
X185320499Y-47244128D01*
X185314091Y-47184517D01*
X185311737Y-47178206D01*
X185263797Y-47049671D01*
X185263793Y-47049664D01*
X185177547Y-46934455D01*
X185177544Y-46934452D01*
X185062335Y-46848206D01*
X185062328Y-46848202D01*
X184927482Y-46797908D01*
X184927483Y-46797908D01*
X184867883Y-46791501D01*
X184867881Y-46791500D01*
X184867873Y-46791500D01*
X184867865Y-46791500D01*
X179017741Y-46791500D01*
X178950702Y-46771815D01*
X178920481Y-46742128D01*
X178919647Y-46742813D01*
X178915783Y-46738104D01*
X178804292Y-46626613D01*
X178804288Y-46626610D01*
X178673185Y-46539009D01*
X178673172Y-46539002D01*
X178527501Y-46478664D01*
X178527491Y-46478661D01*
X178372151Y-46447762D01*
X178310241Y-46415377D01*
X178308662Y-46413826D01*
X176483890Y-44589055D01*
X176483888Y-44589052D01*
X176365017Y-44470181D01*
X176365016Y-44470180D01*
X176278204Y-44420060D01*
X176278204Y-44420059D01*
X176278200Y-44420058D01*
X176228085Y-44391123D01*
X176075357Y-44350199D01*
X175917243Y-44350199D01*
X175909647Y-44350199D01*
X175909631Y-44350200D01*
X143459970Y-44350200D01*
X143459954Y-44350199D01*
X143452358Y-44350199D01*
X143294243Y-44350199D01*
X143217879Y-44370661D01*
X143141514Y-44391123D01*
X143141509Y-44391126D01*
X143004590Y-44470175D01*
X143004582Y-44470181D01*
X142546582Y-44928181D01*
X142485259Y-44961666D01*
X142458901Y-44964500D01*
X141208998Y-44964500D01*
X141208981Y-44964501D01*
X141106203Y-44975000D01*
X141106200Y-44975001D01*
X140939668Y-45030185D01*
X140939663Y-45030187D01*
X140790342Y-45122289D01*
X140666289Y-45246342D01*
X140574187Y-45395663D01*
X140574185Y-45395668D01*
X140568552Y-45412668D01*
X140519001Y-45562203D01*
X140519001Y-45562204D01*
X140519000Y-45562204D01*
X140508500Y-45664983D01*
X140508500Y-45664991D01*
X140508500Y-46415377D01*
X140508501Y-47048100D01*
X140488816Y-47115139D01*
X140436013Y-47160894D01*
X140384501Y-47172100D01*
X138381298Y-47172100D01*
X138314259Y-47152415D01*
X138293617Y-47135781D01*
X137261190Y-46103355D01*
X137261188Y-46103352D01*
X137142317Y-45984481D01*
X137142316Y-45984480D01*
X137054244Y-45933632D01*
X137054243Y-45933631D01*
X137005390Y-45905425D01*
X137005389Y-45905424D01*
X136992863Y-45902067D01*
X136852657Y-45864499D01*
X136694543Y-45864499D01*
X136686947Y-45864499D01*
X136686931Y-45864500D01*
X135816148Y-45864500D01*
X135749109Y-45844815D01*
X135705663Y-45796795D01*
X135645511Y-45678741D01*
X135609051Y-45607184D01*
X135592094Y-45583844D01*
X135484109Y-45435213D01*
X135333786Y-45284890D01*
X135161820Y-45159951D01*
X134972414Y-45063444D01*
X134972413Y-45063443D01*
X134972412Y-45063443D01*
X134770243Y-44997754D01*
X134770241Y-44997753D01*
X134770240Y-44997753D01*
X134608957Y-44972208D01*
X134560287Y-44964500D01*
X134347713Y-44964500D01*
X134299042Y-44972208D01*
X134137760Y-44997753D01*
X133935585Y-45063444D01*
X133746179Y-45159951D01*
X133574215Y-45284889D01*
X133435398Y-45423706D01*
X133374075Y-45457190D01*
X133304383Y-45452206D01*
X133248450Y-45410334D01*
X133242178Y-45401120D01*
X133178045Y-45297144D01*
X133146712Y-45246344D01*
X133022656Y-45122288D01*
X132873334Y-45030186D01*
X132706797Y-44975001D01*
X132706795Y-44975000D01*
X132604010Y-44964500D01*
X131303998Y-44964500D01*
X131303981Y-44964501D01*
X131201203Y-44975000D01*
X131201200Y-44975001D01*
X131034668Y-45030185D01*
X131034663Y-45030187D01*
X130885342Y-45122289D01*
X130761289Y-45246342D01*
X130669187Y-45395663D01*
X130669185Y-45395668D01*
X130663552Y-45412668D01*
X130614001Y-45562203D01*
X130614001Y-45562204D01*
X130614000Y-45562204D01*
X130603500Y-45664983D01*
X130603500Y-47265001D01*
X130603501Y-47265018D01*
X130614000Y-47367796D01*
X130614001Y-47367799D01*
X130669185Y-47534331D01*
X130669187Y-47534336D01*
X130682954Y-47556656D01*
X130761288Y-47683656D01*
X130885344Y-47807712D01*
X131034666Y-47899814D01*
X131201203Y-47954999D01*
X131303991Y-47965500D01*
X131889403Y-47965499D01*
X131956441Y-47985183D01*
X132002196Y-48037987D01*
X132012140Y-48107146D01*
X131983115Y-48170702D01*
X131977083Y-48177180D01*
X131722538Y-48431725D01*
X131661215Y-48465210D01*
X131659049Y-48465661D01*
X131503708Y-48496561D01*
X131503698Y-48496564D01*
X131358027Y-48556902D01*
X131358014Y-48556909D01*
X131226911Y-48644510D01*
X131226907Y-48644513D01*
X131115413Y-48756007D01*
X131115410Y-48756011D01*
X131027809Y-48887114D01*
X131027802Y-48887127D01*
X130967464Y-49032798D01*
X130967461Y-49032810D01*
X130936700Y-49187453D01*
X130936700Y-49345146D01*
X130967461Y-49499789D01*
X130967464Y-49499801D01*
X131027802Y-49645472D01*
X131027809Y-49645485D01*
X131115410Y-49776588D01*
X131115413Y-49776592D01*
X131226907Y-49888086D01*
X131226911Y-49888089D01*
X131358014Y-49975690D01*
X131358027Y-49975697D01*
X131503698Y-50036035D01*
X131503703Y-50036037D01*
X131654296Y-50065992D01*
X131658353Y-50066799D01*
X131658356Y-50066800D01*
X131658358Y-50066800D01*
X131816044Y-50066800D01*
X131816045Y-50066799D01*
X131970697Y-50036037D01*
X132116379Y-49975694D01*
X132247489Y-49888089D01*
X132358989Y-49776589D01*
X132446594Y-49645479D01*
X132506937Y-49499797D01*
X132532377Y-49371902D01*
X132537838Y-49344450D01*
X132570223Y-49282539D01*
X132571715Y-49281019D01*
X133136417Y-48716319D01*
X133197740Y-48682834D01*
X133224098Y-48680000D01*
X137379651Y-48680000D01*
X137405594Y-48682744D01*
X137408688Y-48683406D01*
X137538543Y-48718201D01*
X137571320Y-48718201D01*
X137584145Y-48720945D01*
X137603799Y-48731589D01*
X137625241Y-48737886D01*
X137645368Y-48754104D01*
X137645582Y-48754220D01*
X137645637Y-48754321D01*
X137645883Y-48754519D01*
X137724984Y-48833620D01*
X137811795Y-48883739D01*
X137811797Y-48883741D01*
X137849851Y-48905711D01*
X137861915Y-48912677D01*
X138014643Y-48953601D01*
X138014646Y-48953601D01*
X138180353Y-48953601D01*
X138180369Y-48953600D01*
X164295231Y-48953600D01*
X164295247Y-48953601D01*
X164302843Y-48953601D01*
X164460954Y-48953601D01*
X164460957Y-48953601D01*
X164613685Y-48912677D01*
X164663804Y-48883739D01*
X164750616Y-48833620D01*
X164862420Y-48721816D01*
X164862420Y-48721814D01*
X164872628Y-48711607D01*
X164872630Y-48711604D01*
X165787416Y-47796818D01*
X165848739Y-47763333D01*
X165875097Y-47760499D01*
X167100002Y-47760499D01*
X167100008Y-47760499D01*
X167202797Y-47749999D01*
X167286498Y-47722262D01*
X167356323Y-47719861D01*
X167416365Y-47755592D01*
X167447558Y-47818112D01*
X167449500Y-47839969D01*
X167449500Y-49111240D01*
X167446834Y-49133761D01*
X167447209Y-49133821D01*
X167409500Y-49371902D01*
X167409500Y-49608097D01*
X167446446Y-49841368D01*
X167519433Y-50065996D01*
X167626657Y-50276433D01*
X167765483Y-50467510D01*
X167932490Y-50634517D01*
X168123567Y-50773343D01*
X168222991Y-50824002D01*
X168334003Y-50880566D01*
X168334005Y-50880566D01*
X168334008Y-50880568D01*
X168454412Y-50919689D01*
X168558631Y-50953553D01*
X168791903Y-50990500D01*
X168791908Y-50990500D01*
X172635500Y-50990500D01*
X172702539Y-51010185D01*
X172748294Y-51062989D01*
X172759500Y-51114500D01*
X172759500Y-53083982D01*
X172739815Y-53151021D01*
X172687011Y-53196776D01*
X172617853Y-53206720D01*
X172554297Y-53177695D01*
X172535182Y-53156867D01*
X172479727Y-53080540D01*
X172479723Y-53080535D01*
X172329464Y-52930276D01*
X172329459Y-52930272D01*
X172157557Y-52805379D01*
X171968215Y-52708903D01*
X171766124Y-52643241D01*
X171700000Y-52632768D01*
X171700000Y-53680854D01*
X171633343Y-53642370D01*
X171512535Y-53610000D01*
X171387465Y-53610000D01*
X171266657Y-53642370D01*
X171200000Y-53680854D01*
X171200000Y-52632768D01*
X171199999Y-52632768D01*
X171133875Y-52643241D01*
X170931784Y-52708903D01*
X170742442Y-52805379D01*
X170570540Y-52930272D01*
X170570535Y-52930276D01*
X170420276Y-53080535D01*
X170420272Y-53080540D01*
X170347923Y-53180121D01*
X170292593Y-53222787D01*
X170222980Y-53228766D01*
X170161185Y-53196160D01*
X170147287Y-53180122D01*
X170094517Y-53107490D01*
X169927510Y-52940483D01*
X169736433Y-52801657D01*
X169726934Y-52796817D01*
X169525996Y-52694433D01*
X169301368Y-52621446D01*
X169068097Y-52584500D01*
X169068092Y-52584500D01*
X168831908Y-52584500D01*
X168831903Y-52584500D01*
X168598631Y-52621446D01*
X168374003Y-52694433D01*
X168163566Y-52801657D01*
X167972491Y-52940482D01*
X167898158Y-53014815D01*
X167836834Y-53048299D01*
X167767143Y-53043314D01*
X167711209Y-53001443D01*
X167704938Y-52992229D01*
X167642712Y-52891344D01*
X167518657Y-52767289D01*
X167518656Y-52767288D01*
X167393337Y-52689991D01*
X167369336Y-52675187D01*
X167369331Y-52675185D01*
X167331050Y-52662500D01*
X167202797Y-52620001D01*
X167202795Y-52620000D01*
X167100010Y-52609500D01*
X165799998Y-52609500D01*
X165799981Y-52609501D01*
X165697203Y-52620000D01*
X165697200Y-52620001D01*
X165530668Y-52675185D01*
X165530663Y-52675187D01*
X165381342Y-52767289D01*
X165257289Y-52891342D01*
X165165187Y-53040663D01*
X165165185Y-53040668D01*
X165147623Y-53093668D01*
X165110001Y-53207203D01*
X165110001Y-53207204D01*
X165110000Y-53207204D01*
X165099500Y-53309983D01*
X165099500Y-54860001D01*
X165099501Y-54860018D01*
X165110000Y-54962796D01*
X165110001Y-54962799D01*
X165165185Y-55129331D01*
X165165187Y-55129336D01*
X165188705Y-55167464D01*
X165257288Y-55278656D01*
X165381344Y-55402712D01*
X165530666Y-55494814D01*
X165697203Y-55549999D01*
X165799991Y-55560500D01*
X167100008Y-55560499D01*
X167202797Y-55549999D01*
X167286498Y-55522262D01*
X167356323Y-55519861D01*
X167416365Y-55555592D01*
X167447558Y-55618112D01*
X167449500Y-55639969D01*
X167449500Y-56771240D01*
X167446834Y-56793761D01*
X167447209Y-56793821D01*
X167409500Y-57031902D01*
X167409500Y-57268097D01*
X167446446Y-57501368D01*
X167519433Y-57725996D01*
X167626657Y-57936433D01*
X167765483Y-58127510D01*
X167932490Y-58294517D01*
X168123567Y-58433343D01*
X168222991Y-58484002D01*
X168334003Y-58540566D01*
X168334005Y-58540566D01*
X168334008Y-58540568D01*
X168454412Y-58579689D01*
X168558631Y-58613553D01*
X168791903Y-58650500D01*
X168791908Y-58650500D01*
X172635500Y-58650500D01*
X172702539Y-58670185D01*
X172748294Y-58722989D01*
X172759500Y-58774500D01*
X172759500Y-60883982D01*
X172739815Y-60951021D01*
X172687011Y-60996776D01*
X172617853Y-61006720D01*
X172554297Y-60977695D01*
X172535182Y-60956867D01*
X172479727Y-60880540D01*
X172479723Y-60880535D01*
X172329464Y-60730276D01*
X172329459Y-60730272D01*
X172157557Y-60605379D01*
X171968215Y-60508903D01*
X171766124Y-60443241D01*
X171700000Y-60432768D01*
X171700000Y-61480854D01*
X171633343Y-61442370D01*
X171512535Y-61410000D01*
X171387465Y-61410000D01*
X171266657Y-61442370D01*
X171200000Y-61480854D01*
X171200000Y-60432768D01*
X171199998Y-60432767D01*
X171143898Y-60441653D01*
X171074604Y-60432698D01*
X171021152Y-60387702D01*
X171000513Y-60320951D01*
X171000500Y-60319180D01*
X171000500Y-60300655D01*
X171000499Y-60300653D01*
X170994439Y-60270186D01*
X170969737Y-60146003D01*
X170969735Y-60145998D01*
X170909397Y-60000327D01*
X170909390Y-60000314D01*
X170821789Y-59869211D01*
X170821786Y-59869207D01*
X170710292Y-59757713D01*
X170710288Y-59757710D01*
X170579185Y-59670109D01*
X170579172Y-59670102D01*
X170433501Y-59609764D01*
X170433489Y-59609761D01*
X170278845Y-59579000D01*
X170278842Y-59579000D01*
X170121158Y-59579000D01*
X170121155Y-59579000D01*
X169966510Y-59609761D01*
X169966498Y-59609764D01*
X169820827Y-59670102D01*
X169820814Y-59670109D01*
X169689125Y-59758102D01*
X169622447Y-59778980D01*
X169620234Y-59779000D01*
X148453597Y-59779000D01*
X148386558Y-59759315D01*
X148365916Y-59742681D01*
X144415896Y-55792661D01*
X144382411Y-55731338D01*
X144387395Y-55661646D01*
X144429267Y-55605713D01*
X144484177Y-55582507D01*
X144627316Y-55559836D01*
X144675238Y-55552247D01*
X144675238Y-55552246D01*
X144675243Y-55552246D01*
X144877412Y-55486557D01*
X145066816Y-55390051D01*
X145147189Y-55331657D01*
X145238786Y-55265109D01*
X145238788Y-55265106D01*
X145238792Y-55265104D01*
X145389104Y-55114792D01*
X145389106Y-55114788D01*
X145389109Y-55114786D01*
X145499535Y-54962796D01*
X145514051Y-54942816D01*
X145610557Y-54753412D01*
X145676246Y-54551243D01*
X145709500Y-54341287D01*
X145709500Y-53828713D01*
X145676246Y-53618757D01*
X145610557Y-53416588D01*
X145514051Y-53227184D01*
X145514049Y-53227181D01*
X145514048Y-53227179D01*
X145389109Y-53055213D01*
X145238786Y-52904890D01*
X145066820Y-52779951D01*
X145001924Y-52746885D01*
X144951128Y-52698910D01*
X144934333Y-52631089D01*
X144956870Y-52564955D01*
X145011585Y-52521503D01*
X145058219Y-52512400D01*
X150878272Y-52512400D01*
X150945311Y-52532085D01*
X150991066Y-52584889D01*
X151001010Y-52654047D01*
X150971985Y-52717603D01*
X150943369Y-52741938D01*
X150911746Y-52761444D01*
X150816342Y-52820289D01*
X150692289Y-52944342D01*
X150600187Y-53093663D01*
X150600185Y-53093668D01*
X150595606Y-53107487D01*
X150545001Y-53260203D01*
X150545001Y-53260204D01*
X150545000Y-53260204D01*
X150534500Y-53362983D01*
X150534500Y-54913001D01*
X150534501Y-54913018D01*
X150545000Y-55015796D01*
X150545001Y-55015799D01*
X150600185Y-55182331D01*
X150600187Y-55182336D01*
X150601705Y-55184797D01*
X150692288Y-55331656D01*
X150816344Y-55455712D01*
X150965666Y-55547814D01*
X151132203Y-55602999D01*
X151234991Y-55613500D01*
X152535008Y-55613499D01*
X152637797Y-55602999D01*
X152804334Y-55547814D01*
X152953656Y-55455712D01*
X153077712Y-55331656D01*
X153169814Y-55182334D01*
X153169814Y-55182331D01*
X153173448Y-55176441D01*
X153225395Y-55129716D01*
X153294358Y-55118493D01*
X153358440Y-55146336D01*
X153366668Y-55153856D01*
X153505535Y-55292723D01*
X153505540Y-55292727D01*
X153677442Y-55417620D01*
X153866782Y-55514095D01*
X154068871Y-55579757D01*
X154135000Y-55590231D01*
X154135000Y-54542145D01*
X154201657Y-54580630D01*
X154322465Y-54613000D01*
X154447535Y-54613000D01*
X154568343Y-54580630D01*
X154635000Y-54542145D01*
X154635000Y-55590230D01*
X154701126Y-55579757D01*
X154701129Y-55579757D01*
X154903217Y-55514095D01*
X155092557Y-55417620D01*
X155264459Y-55292727D01*
X155264464Y-55292723D01*
X155414721Y-55142466D01*
X155534371Y-54977781D01*
X155589701Y-54935115D01*
X155659314Y-54929136D01*
X155721110Y-54961741D01*
X155735008Y-54977781D01*
X155854890Y-55142785D01*
X155854894Y-55142790D01*
X156005213Y-55293109D01*
X156177179Y-55418048D01*
X156177181Y-55418049D01*
X156177184Y-55418051D01*
X156366588Y-55514557D01*
X156568757Y-55580246D01*
X156778713Y-55613500D01*
X156778714Y-55613500D01*
X156991286Y-55613500D01*
X156991287Y-55613500D01*
X157201243Y-55580246D01*
X157403412Y-55514557D01*
X157592816Y-55418051D01*
X157666358Y-55364620D01*
X157764786Y-55293109D01*
X157764788Y-55293106D01*
X157764792Y-55293104D01*
X157915104Y-55142792D01*
X158034683Y-54978204D01*
X158090011Y-54935540D01*
X158159624Y-54929561D01*
X158221420Y-54962166D01*
X158235313Y-54978199D01*
X158313647Y-55086017D01*
X158354896Y-55142792D01*
X158505213Y-55293109D01*
X158677179Y-55418048D01*
X158677181Y-55418049D01*
X158677184Y-55418051D01*
X158866588Y-55514557D01*
X159068757Y-55580246D01*
X159278713Y-55613500D01*
X159278714Y-55613500D01*
X159491286Y-55613500D01*
X159491287Y-55613500D01*
X159701243Y-55580246D01*
X159903412Y-55514557D01*
X160092816Y-55418051D01*
X160166358Y-55364620D01*
X160264786Y-55293109D01*
X160264788Y-55293106D01*
X160264792Y-55293104D01*
X160415104Y-55142792D01*
X160415106Y-55142788D01*
X160415109Y-55142786D01*
X160540048Y-54970820D01*
X160540047Y-54970820D01*
X160540051Y-54970816D01*
X160636557Y-54781412D01*
X160702246Y-54579243D01*
X160735500Y-54369287D01*
X160735500Y-53906713D01*
X160702246Y-53696757D01*
X160636557Y-53494588D01*
X160540051Y-53305184D01*
X160540049Y-53305181D01*
X160540048Y-53305179D01*
X160415109Y-53133213D01*
X160264786Y-52982890D01*
X160092820Y-52857951D01*
X159903414Y-52761444D01*
X159903413Y-52761443D01*
X159903412Y-52761443D01*
X159701243Y-52695754D01*
X159701241Y-52695753D01*
X159701240Y-52695753D01*
X159539957Y-52670208D01*
X159491287Y-52662500D01*
X159278713Y-52662500D01*
X159230042Y-52670208D01*
X159068760Y-52695753D01*
X158866585Y-52761444D01*
X158677179Y-52857951D01*
X158505213Y-52982890D01*
X158354894Y-53133209D01*
X158354890Y-53133214D01*
X158235318Y-53297793D01*
X158179989Y-53340459D01*
X158110375Y-53346438D01*
X158048580Y-53313833D01*
X158034682Y-53297793D01*
X157915109Y-53133214D01*
X157915105Y-53133209D01*
X157764786Y-52982890D01*
X157592820Y-52857951D01*
X157403414Y-52761444D01*
X157403413Y-52761443D01*
X157403412Y-52761443D01*
X157201243Y-52695754D01*
X157201241Y-52695753D01*
X157201240Y-52695753D01*
X157039957Y-52670208D01*
X156991287Y-52662500D01*
X156778713Y-52662500D01*
X156730042Y-52670208D01*
X156568760Y-52695753D01*
X156366585Y-52761444D01*
X156177179Y-52857951D01*
X156017864Y-52973700D01*
X155952057Y-52997180D01*
X155884004Y-52981354D01*
X155857298Y-52961063D01*
X154446490Y-51550255D01*
X154446488Y-51550252D01*
X154327617Y-51431381D01*
X154327616Y-51431380D01*
X154240804Y-51381260D01*
X154240804Y-51381259D01*
X154240800Y-51381258D01*
X154190685Y-51352323D01*
X154037957Y-51311399D01*
X153879843Y-51311399D01*
X153872247Y-51311399D01*
X153872231Y-51311400D01*
X143736066Y-51311400D01*
X143669027Y-51291715D01*
X143667175Y-51290502D01*
X143535485Y-51202509D01*
X143535472Y-51202502D01*
X143389801Y-51142164D01*
X143389789Y-51142161D01*
X143235145Y-51111400D01*
X143235142Y-51111400D01*
X143077458Y-51111400D01*
X143077455Y-51111400D01*
X142922810Y-51142161D01*
X142922798Y-51142164D01*
X142777127Y-51202502D01*
X142777114Y-51202509D01*
X142646011Y-51290110D01*
X142646007Y-51290113D01*
X142534513Y-51401607D01*
X142534510Y-51401611D01*
X142446909Y-51532714D01*
X142446902Y-51532727D01*
X142386564Y-51678398D01*
X142386561Y-51678410D01*
X142355800Y-51833053D01*
X142355800Y-51990746D01*
X142386561Y-52145389D01*
X142386564Y-52145401D01*
X142446902Y-52291072D01*
X142446912Y-52291090D01*
X142514077Y-52391610D01*
X142534955Y-52458287D01*
X142516470Y-52525667D01*
X142464491Y-52572357D01*
X142410975Y-52584500D01*
X141208998Y-52584500D01*
X141208981Y-52584501D01*
X141106203Y-52595000D01*
X141106200Y-52595001D01*
X140939668Y-52650185D01*
X140939663Y-52650187D01*
X140790342Y-52742289D01*
X140666289Y-52866342D01*
X140574187Y-53015663D01*
X140574185Y-53015668D01*
X140552689Y-53080540D01*
X140519001Y-53182203D01*
X140519001Y-53182204D01*
X140519000Y-53182204D01*
X140508500Y-53284983D01*
X140508500Y-54885001D01*
X140508501Y-54885018D01*
X140519000Y-54987796D01*
X140519001Y-54987799D01*
X140574185Y-55154331D01*
X140574187Y-55154336D01*
X140591456Y-55182334D01*
X140666288Y-55303656D01*
X140790344Y-55427712D01*
X140939666Y-55519814D01*
X141106203Y-55574999D01*
X141208991Y-55585500D01*
X142458902Y-55585499D01*
X142525941Y-55605184D01*
X142546583Y-55621818D01*
X147668639Y-60743874D01*
X147668649Y-60743885D01*
X147672979Y-60748215D01*
X147672980Y-60748216D01*
X147784784Y-60860020D01*
X147857316Y-60901896D01*
X147921715Y-60939077D01*
X148074442Y-60980000D01*
X148074443Y-60980000D01*
X164975644Y-60980000D01*
X165042683Y-60999685D01*
X165088438Y-61052489D01*
X165098823Y-61106834D01*
X165099500Y-61106834D01*
X165099500Y-62334902D01*
X165079815Y-62401941D01*
X165063181Y-62422583D01*
X161173684Y-66312081D01*
X161112361Y-66345566D01*
X161086003Y-66348400D01*
X158022175Y-66348400D01*
X157955136Y-66328715D01*
X157909381Y-66275911D01*
X157899437Y-66206753D01*
X157928462Y-66143197D01*
X157949290Y-66124082D01*
X158118359Y-66001247D01*
X158118361Y-66001244D01*
X158118365Y-66001242D01*
X158274242Y-65845365D01*
X158403815Y-65667022D01*
X158503895Y-65470606D01*
X158572015Y-65260951D01*
X158606500Y-65043222D01*
X158606500Y-64822778D01*
X158572015Y-64605049D01*
X158537955Y-64500221D01*
X158503896Y-64395396D01*
X158503895Y-64395393D01*
X158469237Y-64327375D01*
X158403815Y-64198978D01*
X158345501Y-64118715D01*
X158274247Y-64020641D01*
X158274243Y-64020636D01*
X158118363Y-63864756D01*
X158118358Y-63864752D01*
X157940025Y-63735187D01*
X157940024Y-63735186D01*
X157940022Y-63735185D01*
X157822791Y-63675452D01*
X157743606Y-63635104D01*
X157743603Y-63635103D01*
X157533952Y-63566985D01*
X157421952Y-63549246D01*
X157316222Y-63532500D01*
X157095778Y-63532500D01*
X157023201Y-63543995D01*
X156878047Y-63566985D01*
X156668396Y-63635103D01*
X156668393Y-63635104D01*
X156471974Y-63735187D01*
X156293641Y-63864752D01*
X156293636Y-63864756D01*
X156243463Y-63914929D01*
X156182140Y-63948413D01*
X156112448Y-63943428D01*
X156056515Y-63901557D01*
X156039601Y-63870580D01*
X156009797Y-63790671D01*
X156009793Y-63790664D01*
X155923547Y-63675455D01*
X155923544Y-63675452D01*
X155808335Y-63589206D01*
X155808328Y-63589202D01*
X155673482Y-63538908D01*
X155673483Y-63538908D01*
X155613883Y-63532501D01*
X155613881Y-63532500D01*
X155613873Y-63532500D01*
X155613864Y-63532500D01*
X153718129Y-63532500D01*
X153718123Y-63532501D01*
X153658516Y-63538908D01*
X153523671Y-63589202D01*
X153523664Y-63589206D01*
X153408455Y-63675452D01*
X153408452Y-63675455D01*
X153322206Y-63790664D01*
X153322202Y-63790671D01*
X153271908Y-63925517D01*
X153265501Y-63985116D01*
X153265500Y-63985135D01*
X153265501Y-65410200D01*
X153245816Y-65477239D01*
X153193013Y-65522994D01*
X153141501Y-65534200D01*
X131370140Y-65534200D01*
X131303101Y-65514515D01*
X131282463Y-65497885D01*
X131224889Y-65440311D01*
X131224888Y-65440310D01*
X131224887Y-65440309D01*
X131093785Y-65352709D01*
X131093772Y-65352702D01*
X130948101Y-65292364D01*
X130948089Y-65292361D01*
X130793445Y-65261600D01*
X130793442Y-65261600D01*
X130635758Y-65261600D01*
X130635755Y-65261600D01*
X130481110Y-65292361D01*
X130481098Y-65292364D01*
X130335427Y-65352702D01*
X130335414Y-65352709D01*
X130204311Y-65440310D01*
X130204307Y-65440313D01*
X130092813Y-65551807D01*
X130092810Y-65551811D01*
X130005209Y-65682914D01*
X130005202Y-65682927D01*
X129944864Y-65828598D01*
X129944861Y-65828610D01*
X129914100Y-65983253D01*
X129914100Y-66140946D01*
X129944861Y-66295589D01*
X129944864Y-66295601D01*
X130005202Y-66441272D01*
X130005209Y-66441285D01*
X130092810Y-66572388D01*
X130092813Y-66572392D01*
X130204304Y-66683883D01*
X130208597Y-66687406D01*
X130247933Y-66745151D01*
X130251553Y-66807453D01*
X130239100Y-66870060D01*
X130239100Y-67027746D01*
X130269861Y-67182389D01*
X130269864Y-67182401D01*
X130330202Y-67328072D01*
X130330209Y-67328085D01*
X130417810Y-67459188D01*
X130417813Y-67459192D01*
X130529307Y-67570686D01*
X130529311Y-67570689D01*
X130660414Y-67658290D01*
X130660427Y-67658297D01*
X130761611Y-67700208D01*
X130806103Y-67718637D01*
X130960753Y-67749399D01*
X130960756Y-67749400D01*
X130960758Y-67749400D01*
X131118444Y-67749400D01*
X131118445Y-67749399D01*
X131273097Y-67718637D01*
X131418779Y-67658294D01*
X131418785Y-67658290D01*
X131550475Y-67570298D01*
X131617153Y-67549420D01*
X131619366Y-67549400D01*
X161299431Y-67549400D01*
X161299447Y-67549401D01*
X161307043Y-67549401D01*
X161465154Y-67549401D01*
X161465157Y-67549401D01*
X161617885Y-67508477D01*
X161668004Y-67479539D01*
X161754816Y-67429420D01*
X161866620Y-67317616D01*
X161866620Y-67317614D01*
X161876828Y-67307407D01*
X161876830Y-67307404D01*
X165787416Y-63396818D01*
X165848739Y-63363333D01*
X165875097Y-63360499D01*
X167100002Y-63360499D01*
X167100008Y-63360499D01*
X167202797Y-63349999D01*
X167286498Y-63322262D01*
X167356323Y-63319861D01*
X167416365Y-63355592D01*
X167447558Y-63418112D01*
X167449500Y-63439969D01*
X167449500Y-64391240D01*
X167446834Y-64413761D01*
X167447209Y-64413821D01*
X167409500Y-64651902D01*
X167409500Y-64888097D01*
X167446446Y-65121368D01*
X167519433Y-65345996D01*
X167596823Y-65497881D01*
X167626657Y-65556433D01*
X167765483Y-65747510D01*
X167932490Y-65914517D01*
X168123567Y-66053343D01*
X168222991Y-66104002D01*
X168334003Y-66160566D01*
X168334005Y-66160566D01*
X168334008Y-66160568D01*
X168454412Y-66199689D01*
X168558631Y-66233553D01*
X168791903Y-66270500D01*
X168791908Y-66270500D01*
X172635500Y-66270500D01*
X172702539Y-66290185D01*
X172748294Y-66342989D01*
X172759500Y-66394500D01*
X172759500Y-68683982D01*
X172739815Y-68751021D01*
X172687011Y-68796776D01*
X172617853Y-68806720D01*
X172554297Y-68777695D01*
X172535182Y-68756867D01*
X172479727Y-68680540D01*
X172479723Y-68680535D01*
X172329464Y-68530276D01*
X172329459Y-68530272D01*
X172157557Y-68405379D01*
X171968215Y-68308903D01*
X171766124Y-68243241D01*
X171700000Y-68232768D01*
X171700000Y-69280854D01*
X171633343Y-69242370D01*
X171512535Y-69210000D01*
X171387465Y-69210000D01*
X171266657Y-69242370D01*
X171200000Y-69280854D01*
X171200000Y-68232768D01*
X171199999Y-68232768D01*
X171133875Y-68243241D01*
X170931784Y-68308903D01*
X170742442Y-68405379D01*
X170570540Y-68530272D01*
X170570535Y-68530276D01*
X170420276Y-68680535D01*
X170420272Y-68680540D01*
X170347923Y-68780121D01*
X170292593Y-68822787D01*
X170222980Y-68828766D01*
X170161185Y-68796160D01*
X170147287Y-68780122D01*
X170094517Y-68707490D01*
X169927510Y-68540483D01*
X169736433Y-68401657D01*
X169696873Y-68381500D01*
X169525996Y-68294433D01*
X169301368Y-68221446D01*
X169068097Y-68184500D01*
X169068092Y-68184500D01*
X168831908Y-68184500D01*
X168831903Y-68184500D01*
X168598631Y-68221446D01*
X168374003Y-68294433D01*
X168163566Y-68401657D01*
X167972491Y-68540482D01*
X167898158Y-68614815D01*
X167836834Y-68648299D01*
X167767143Y-68643314D01*
X167711209Y-68601443D01*
X167704938Y-68592229D01*
X167642712Y-68491344D01*
X167518657Y-68367289D01*
X167518656Y-68367288D01*
X167386868Y-68286001D01*
X167369336Y-68275187D01*
X167369331Y-68275185D01*
X167367862Y-68274698D01*
X167202797Y-68220001D01*
X167202795Y-68220000D01*
X167100010Y-68209500D01*
X165799998Y-68209500D01*
X165799981Y-68209501D01*
X165697203Y-68220000D01*
X165697200Y-68220001D01*
X165530668Y-68275185D01*
X165530663Y-68275187D01*
X165381342Y-68367289D01*
X165257289Y-68491342D01*
X165165187Y-68640663D01*
X165165185Y-68640668D01*
X165157672Y-68663342D01*
X165110001Y-68807203D01*
X165110001Y-68807204D01*
X165110000Y-68807204D01*
X165099500Y-68909983D01*
X165099500Y-70460001D01*
X165099501Y-70460018D01*
X165110000Y-70562796D01*
X165110001Y-70562799D01*
X165149507Y-70682018D01*
X165165186Y-70729334D01*
X165257288Y-70878656D01*
X165381344Y-71002712D01*
X165530666Y-71094814D01*
X165697203Y-71149999D01*
X165799991Y-71160500D01*
X167100008Y-71160499D01*
X167202797Y-71149999D01*
X167286498Y-71122262D01*
X167356323Y-71119861D01*
X167416365Y-71155592D01*
X167447558Y-71218112D01*
X167449500Y-71239969D01*
X167449500Y-72011240D01*
X167446834Y-72033761D01*
X167447209Y-72033821D01*
X167409500Y-72271902D01*
X167409500Y-72508097D01*
X167446446Y-72741368D01*
X167519433Y-72965996D01*
X167610541Y-73144803D01*
X167626657Y-73176433D01*
X167765483Y-73367510D01*
X167932490Y-73534517D01*
X168123567Y-73673343D01*
X168222991Y-73724002D01*
X168334003Y-73780566D01*
X168334005Y-73780566D01*
X168334008Y-73780568D01*
X168454412Y-73819689D01*
X168558631Y-73853553D01*
X168791903Y-73890500D01*
X168791908Y-73890500D01*
X173198634Y-73890500D01*
X173265673Y-73910185D01*
X173295581Y-73937187D01*
X173392583Y-74058824D01*
X173531278Y-74197519D01*
X173564763Y-74258842D01*
X173559779Y-74328534D01*
X173517907Y-74384467D01*
X173452443Y-74408884D01*
X173443597Y-74409200D01*
X170629266Y-74409200D01*
X170562227Y-74389515D01*
X170560375Y-74388302D01*
X170428685Y-74300309D01*
X170428672Y-74300302D01*
X170283001Y-74239964D01*
X170282989Y-74239961D01*
X170128345Y-74209200D01*
X170128342Y-74209200D01*
X169970658Y-74209200D01*
X169970655Y-74209200D01*
X169816010Y-74239961D01*
X169815998Y-74239964D01*
X169670327Y-74300302D01*
X169670314Y-74300309D01*
X169538625Y-74388302D01*
X169471947Y-74409180D01*
X169469734Y-74409200D01*
X131039497Y-74409200D01*
X130972458Y-74389515D01*
X130951816Y-74372881D01*
X126099290Y-69520355D01*
X126099288Y-69520352D01*
X125980417Y-69401481D01*
X125980409Y-69401475D01*
X125871387Y-69338532D01*
X125871384Y-69338530D01*
X125862899Y-69333632D01*
X125843485Y-69322423D01*
X125796496Y-69309832D01*
X125790463Y-69307520D01*
X125767613Y-69290093D01*
X125743082Y-69275140D01*
X125739169Y-69268399D01*
X125734907Y-69265149D01*
X125730948Y-69254239D01*
X125716904Y-69230045D01*
X125711558Y-69213591D01*
X125711557Y-69213587D01*
X125644501Y-69081983D01*
X125615051Y-69024184D01*
X125615049Y-69024181D01*
X125615048Y-69024179D01*
X125490109Y-68852213D01*
X125339786Y-68701890D01*
X125167820Y-68576951D01*
X124978414Y-68480444D01*
X124978413Y-68480443D01*
X124978412Y-68480443D01*
X124776243Y-68414754D01*
X124776241Y-68414753D01*
X124776240Y-68414753D01*
X124614957Y-68389208D01*
X124566287Y-68381500D01*
X124353713Y-68381500D01*
X124305042Y-68389208D01*
X124143760Y-68414753D01*
X123941585Y-68480444D01*
X123752179Y-68576951D01*
X123580215Y-68701889D01*
X123441398Y-68840706D01*
X123380075Y-68874190D01*
X123310383Y-68869206D01*
X123254450Y-68827334D01*
X123248178Y-68818120D01*
X123152712Y-68663344D01*
X123028657Y-68539289D01*
X123028656Y-68539288D01*
X122879334Y-68447186D01*
X122712797Y-68392001D01*
X122712795Y-68392000D01*
X122610010Y-68381500D01*
X121309998Y-68381500D01*
X121309981Y-68381501D01*
X121207203Y-68392000D01*
X121207200Y-68392001D01*
X121040668Y-68447185D01*
X121040663Y-68447187D01*
X120891342Y-68539289D01*
X120767289Y-68663342D01*
X120675187Y-68812663D01*
X120675185Y-68812668D01*
X120671832Y-68822787D01*
X120620001Y-68979203D01*
X120620001Y-68979204D01*
X120620000Y-68979204D01*
X120609500Y-69081983D01*
X120609500Y-70682001D01*
X120609501Y-70682018D01*
X120620000Y-70784796D01*
X120620001Y-70784799D01*
X120675185Y-70951331D01*
X120675187Y-70951336D01*
X120701907Y-70994656D01*
X120767288Y-71100656D01*
X120891344Y-71224712D01*
X121040666Y-71316814D01*
X121207203Y-71371999D01*
X121309991Y-71382500D01*
X122559902Y-71382499D01*
X122626941Y-71402184D01*
X122647583Y-71418818D01*
X126692384Y-75463619D01*
X126725869Y-75524942D01*
X126720885Y-75594634D01*
X126679013Y-75650567D01*
X126613549Y-75674984D01*
X126604703Y-75675300D01*
X118799897Y-75675300D01*
X118732858Y-75655615D01*
X118712216Y-75638981D01*
X114556459Y-71483224D01*
X114522974Y-71421901D01*
X114527958Y-71352209D01*
X114569830Y-71296276D01*
X114624742Y-71273070D01*
X114816127Y-71242757D01*
X114816130Y-71242757D01*
X115018217Y-71177095D01*
X115207557Y-71080620D01*
X115379459Y-70955727D01*
X115379464Y-70955723D01*
X115529723Y-70805464D01*
X115529727Y-70805459D01*
X115654620Y-70633557D01*
X115751095Y-70444217D01*
X115816757Y-70242130D01*
X115816757Y-70242127D01*
X115850000Y-70032246D01*
X115850000Y-70026000D01*
X114933012Y-70026000D01*
X114965925Y-69968993D01*
X115000000Y-69841826D01*
X115000000Y-69710174D01*
X114965925Y-69583007D01*
X114933012Y-69526000D01*
X115850000Y-69526000D01*
X115850000Y-69519753D01*
X115816757Y-69309872D01*
X115816757Y-69309869D01*
X115751095Y-69107782D01*
X115654620Y-68918442D01*
X115529727Y-68746540D01*
X115529723Y-68746535D01*
X115379464Y-68596276D01*
X115379459Y-68596272D01*
X115207557Y-68471379D01*
X115018215Y-68374903D01*
X114816124Y-68309241D01*
X114750000Y-68298768D01*
X114750000Y-69342988D01*
X114692993Y-69310075D01*
X114565826Y-69276000D01*
X114434174Y-69276000D01*
X114307007Y-69310075D01*
X114250000Y-69342988D01*
X114250000Y-68298768D01*
X114249999Y-68298768D01*
X114183875Y-68309241D01*
X113981784Y-68374903D01*
X113792442Y-68471379D01*
X113620541Y-68596271D01*
X113481668Y-68735144D01*
X113420345Y-68768628D01*
X113350653Y-68763644D01*
X113294720Y-68721772D01*
X113288448Y-68712558D01*
X113281867Y-68701889D01*
X113192712Y-68557344D01*
X113068656Y-68433288D01*
X112919334Y-68341186D01*
X112752797Y-68286001D01*
X112752795Y-68286000D01*
X112650010Y-68275500D01*
X111349998Y-68275500D01*
X111349981Y-68275501D01*
X111247203Y-68286000D01*
X111247200Y-68286001D01*
X111080668Y-68341185D01*
X111080663Y-68341187D01*
X110931342Y-68433289D01*
X110807289Y-68557342D01*
X110715187Y-68706663D01*
X110715185Y-68706668D01*
X110710180Y-68721772D01*
X110660001Y-68873203D01*
X110660001Y-68873204D01*
X110660000Y-68873204D01*
X110649500Y-68975983D01*
X110649500Y-70576001D01*
X110649501Y-70576018D01*
X110660000Y-70678796D01*
X110660001Y-70678799D01*
X110701409Y-70803757D01*
X110715186Y-70845334D01*
X110807288Y-70994656D01*
X110931344Y-71118712D01*
X111080666Y-71210814D01*
X111247203Y-71265999D01*
X111349991Y-71276500D01*
X112599902Y-71276499D01*
X112666941Y-71296184D01*
X112687583Y-71312818D01*
X118014939Y-76640174D01*
X118014949Y-76640185D01*
X118019279Y-76644515D01*
X118019280Y-76644516D01*
X118131084Y-76756320D01*
X118204768Y-76798861D01*
X118268015Y-76835377D01*
X118420742Y-76876300D01*
X118420743Y-76876300D01*
X124090914Y-76876300D01*
X124157953Y-76895985D01*
X124203708Y-76948789D01*
X124213652Y-77017947D01*
X124190180Y-77074610D01*
X124186302Y-77079792D01*
X124154204Y-77122668D01*
X124154202Y-77122671D01*
X124103908Y-77257517D01*
X124098711Y-77305865D01*
X124097501Y-77317123D01*
X124097500Y-77317135D01*
X124097500Y-79112870D01*
X124097501Y-79112876D01*
X124103908Y-79172483D01*
X124154202Y-79307328D01*
X124154206Y-79307335D01*
X124240452Y-79422544D01*
X124240455Y-79422547D01*
X124355664Y-79508793D01*
X124355671Y-79508797D01*
X124487082Y-79557810D01*
X124543016Y-79599681D01*
X124567433Y-79665145D01*
X124552582Y-79733418D01*
X124531431Y-79761673D01*
X124417889Y-79875215D01*
X124292951Y-80047179D01*
X124196444Y-80236585D01*
X124130753Y-80438760D01*
X124097500Y-80648713D01*
X124097500Y-80861287D01*
X124104988Y-80908561D01*
X124128420Y-81056511D01*
X124130754Y-81071243D01*
X124184849Y-81237730D01*
X124196444Y-81273414D01*
X124292951Y-81462820D01*
X124417890Y-81634786D01*
X124568213Y-81785109D01*
X124740182Y-81910050D01*
X124748946Y-81914516D01*
X124799742Y-81962491D01*
X124816536Y-82030312D01*
X124793998Y-82096447D01*
X124748946Y-82135484D01*
X124740182Y-82139949D01*
X124568213Y-82264890D01*
X124417890Y-82415213D01*
X124292951Y-82587179D01*
X124196444Y-82776585D01*
X124130753Y-82978760D01*
X124097500Y-83188713D01*
X124097500Y-83401286D01*
X124130753Y-83611239D01*
X124196444Y-83813414D01*
X124292951Y-84002820D01*
X124417890Y-84174786D01*
X124568213Y-84325109D01*
X124740182Y-84450050D01*
X124748946Y-84454516D01*
X124799742Y-84502491D01*
X124816536Y-84570312D01*
X124793998Y-84636447D01*
X124748946Y-84675484D01*
X124740182Y-84679949D01*
X124568213Y-84804890D01*
X124417890Y-84955213D01*
X124292951Y-85127179D01*
X124196444Y-85316585D01*
X124130753Y-85518760D01*
X124097500Y-85728713D01*
X124097500Y-85941286D01*
X124130753Y-86151239D01*
X124130753Y-86151241D01*
X124130754Y-86151243D01*
X124189489Y-86332011D01*
X124196444Y-86353414D01*
X124292951Y-86542820D01*
X124417890Y-86714786D01*
X124568213Y-86865109D01*
X124740182Y-86990050D01*
X124748946Y-86994516D01*
X124799742Y-87042491D01*
X124816536Y-87110312D01*
X124793998Y-87176447D01*
X124748946Y-87215484D01*
X124740182Y-87219949D01*
X124568213Y-87344890D01*
X124417890Y-87495213D01*
X124292951Y-87667179D01*
X124196444Y-87856585D01*
X124130753Y-88058760D01*
X124097500Y-88268713D01*
X124097500Y-88481286D01*
X124130753Y-88691239D01*
X124130753Y-88691241D01*
X124130754Y-88691243D01*
X124177195Y-88834174D01*
X124196444Y-88893414D01*
X124292951Y-89082820D01*
X124417890Y-89254786D01*
X124568213Y-89405109D01*
X124740182Y-89530050D01*
X124748946Y-89534516D01*
X124799742Y-89582491D01*
X124816536Y-89650312D01*
X124793998Y-89716447D01*
X124748946Y-89755484D01*
X124740182Y-89759949D01*
X124568213Y-89884890D01*
X124417890Y-90035213D01*
X124292951Y-90207179D01*
X124196444Y-90396585D01*
X124130753Y-90598760D01*
X124119593Y-90669223D01*
X124097500Y-90808713D01*
X124097500Y-91021287D01*
X124101031Y-91043582D01*
X124130753Y-91231239D01*
X124130753Y-91231241D01*
X124130754Y-91231243D01*
X124183723Y-91394265D01*
X124196444Y-91433414D01*
X124292951Y-91622820D01*
X124417890Y-91794786D01*
X124568213Y-91945109D01*
X124740182Y-92070050D01*
X124748946Y-92074516D01*
X124799742Y-92122491D01*
X124816536Y-92190312D01*
X124793998Y-92256447D01*
X124748946Y-92295484D01*
X124740182Y-92299949D01*
X124568213Y-92424890D01*
X124417890Y-92575213D01*
X124292951Y-92747179D01*
X124196444Y-92936585D01*
X124130753Y-93138760D01*
X124097500Y-93348713D01*
X124097500Y-93561286D01*
X124130753Y-93771239D01*
X124130753Y-93771241D01*
X124130754Y-93771243D01*
X124188948Y-93950346D01*
X124196444Y-93973414D01*
X124292951Y-94162820D01*
X124417890Y-94334786D01*
X124568213Y-94485109D01*
X124740182Y-94610050D01*
X124748946Y-94614516D01*
X124799742Y-94662491D01*
X124816536Y-94730312D01*
X124793998Y-94796447D01*
X124748946Y-94835484D01*
X124740182Y-94839949D01*
X124568213Y-94964890D01*
X124417890Y-95115213D01*
X124292951Y-95287179D01*
X124196444Y-95476585D01*
X124130753Y-95678760D01*
X124097500Y-95888713D01*
X124097500Y-96101286D01*
X124130753Y-96311240D01*
X124192794Y-96502182D01*
X124194789Y-96572023D01*
X124158709Y-96631856D01*
X124096008Y-96662684D01*
X124074863Y-96664500D01*
X115201397Y-96664500D01*
X115134358Y-96644815D01*
X115113716Y-96628181D01*
X114890774Y-96405239D01*
X114857289Y-96343916D01*
X114856838Y-96341749D01*
X114825938Y-96186410D01*
X114825937Y-96186403D01*
X114794410Y-96110289D01*
X114765597Y-96040727D01*
X114765590Y-96040714D01*
X114677989Y-95909611D01*
X114677986Y-95909607D01*
X114566492Y-95798113D01*
X114566488Y-95798110D01*
X114435385Y-95710509D01*
X114435372Y-95710502D01*
X114289701Y-95650164D01*
X114289689Y-95650161D01*
X114135045Y-95619400D01*
X114135042Y-95619400D01*
X113977358Y-95619400D01*
X113977355Y-95619400D01*
X113822710Y-95650161D01*
X113822698Y-95650164D01*
X113677027Y-95710502D01*
X113677014Y-95710509D01*
X113545911Y-95798110D01*
X113545907Y-95798113D01*
X113434413Y-95909607D01*
X113434410Y-95909611D01*
X113346809Y-96040714D01*
X113346802Y-96040727D01*
X113286464Y-96186398D01*
X113286461Y-96186410D01*
X113255700Y-96341053D01*
X113255700Y-96498746D01*
X113286461Y-96653389D01*
X113286464Y-96653401D01*
X113346802Y-96799072D01*
X113346809Y-96799085D01*
X113434410Y-96930188D01*
X113434413Y-96930192D01*
X113545907Y-97041686D01*
X113545911Y-97041689D01*
X113677014Y-97129290D01*
X113677027Y-97129297D01*
X113822698Y-97189635D01*
X113822703Y-97189637D01*
X113880663Y-97201166D01*
X113978049Y-97220538D01*
X114039960Y-97252923D01*
X114041539Y-97254474D01*
X114416439Y-97629374D01*
X114416449Y-97629385D01*
X114420779Y-97633715D01*
X114420780Y-97633716D01*
X114532584Y-97745520D01*
X114614569Y-97792853D01*
X114619395Y-97795639D01*
X114619397Y-97795641D01*
X114657451Y-97817611D01*
X114669515Y-97824577D01*
X114822243Y-97865501D01*
X114822246Y-97865501D01*
X114987953Y-97865501D01*
X114987969Y-97865500D01*
X124074863Y-97865500D01*
X124141902Y-97885185D01*
X124187657Y-97937989D01*
X124197601Y-98007147D01*
X124192794Y-98027818D01*
X124130753Y-98218759D01*
X124097500Y-98428713D01*
X124097500Y-98641286D01*
X124130753Y-98851239D01*
X124130753Y-98851241D01*
X124130754Y-98851243D01*
X124179673Y-99001801D01*
X124196444Y-99053414D01*
X124292951Y-99242820D01*
X124417890Y-99414786D01*
X124568213Y-99565109D01*
X124740182Y-99690050D01*
X124748946Y-99694516D01*
X124799742Y-99742491D01*
X124816536Y-99810312D01*
X124793998Y-99876447D01*
X124748946Y-99915484D01*
X124740182Y-99919949D01*
X124568213Y-100044890D01*
X124417890Y-100195213D01*
X124292951Y-100367179D01*
X124196444Y-100556585D01*
X124130753Y-100758760D01*
X124097500Y-100968713D01*
X124097500Y-101181286D01*
X124130753Y-101391240D01*
X124192794Y-101582182D01*
X124194789Y-101652023D01*
X124158709Y-101711856D01*
X124096008Y-101742684D01*
X124074863Y-101744500D01*
X117375097Y-101744500D01*
X117308058Y-101724815D01*
X117287416Y-101708181D01*
X117086174Y-101506939D01*
X117052689Y-101445616D01*
X117052238Y-101443449D01*
X117021338Y-101288110D01*
X117021337Y-101288103D01*
X116977093Y-101181287D01*
X116960997Y-101142427D01*
X116960990Y-101142414D01*
X116873389Y-101011311D01*
X116873386Y-101011307D01*
X116761892Y-100899813D01*
X116761888Y-100899810D01*
X116630785Y-100812209D01*
X116630772Y-100812202D01*
X116485101Y-100751864D01*
X116485089Y-100751861D01*
X116330445Y-100721100D01*
X116330442Y-100721100D01*
X116172758Y-100721100D01*
X116172755Y-100721100D01*
X116018110Y-100751861D01*
X116018098Y-100751864D01*
X115872427Y-100812202D01*
X115872414Y-100812209D01*
X115741311Y-100899810D01*
X115741307Y-100899813D01*
X115629813Y-101011307D01*
X115629810Y-101011311D01*
X115542209Y-101142414D01*
X115542202Y-101142427D01*
X115481864Y-101288098D01*
X115481861Y-101288110D01*
X115451100Y-101442753D01*
X115451100Y-101600446D01*
X115481861Y-101755089D01*
X115481864Y-101755101D01*
X115542202Y-101900772D01*
X115542209Y-101900785D01*
X115629810Y-102031888D01*
X115629813Y-102031892D01*
X115741307Y-102143386D01*
X115741311Y-102143389D01*
X115872414Y-102230990D01*
X115872427Y-102230997D01*
X115973809Y-102272990D01*
X116018103Y-102291337D01*
X116082747Y-102304195D01*
X116173449Y-102322238D01*
X116235360Y-102354623D01*
X116236939Y-102356174D01*
X116590139Y-102709374D01*
X116590149Y-102709385D01*
X116594479Y-102713715D01*
X116594480Y-102713716D01*
X116706284Y-102825520D01*
X116706286Y-102825521D01*
X116706290Y-102825524D01*
X116803938Y-102881900D01*
X116843216Y-102904577D01*
X116955019Y-102934534D01*
X116995942Y-102945500D01*
X116995943Y-102945500D01*
X124074863Y-102945500D01*
X124141902Y-102965185D01*
X124187657Y-103017989D01*
X124197601Y-103087147D01*
X124192794Y-103107818D01*
X124130753Y-103298759D01*
X124097500Y-103508713D01*
X124097500Y-103721286D01*
X124130753Y-103931239D01*
X124130753Y-103931241D01*
X124130754Y-103931243D01*
X124179673Y-104081801D01*
X124185029Y-104098282D01*
X124187024Y-104168123D01*
X124150944Y-104227956D01*
X124088243Y-104258784D01*
X124067098Y-104260600D01*
X115052398Y-104260600D01*
X114985359Y-104240915D01*
X114964717Y-104224281D01*
X114700317Y-103959881D01*
X114700312Y-103959877D01*
X114608439Y-103906835D01*
X114563385Y-103880823D01*
X114410657Y-103839899D01*
X114252543Y-103839899D01*
X114244947Y-103839899D01*
X114244931Y-103839900D01*
X113815066Y-103839900D01*
X113748027Y-103820215D01*
X113746175Y-103819002D01*
X113614485Y-103731009D01*
X113614472Y-103731002D01*
X113468801Y-103670664D01*
X113468789Y-103670661D01*
X113314145Y-103639900D01*
X113314142Y-103639900D01*
X113156458Y-103639900D01*
X113156455Y-103639900D01*
X113001810Y-103670661D01*
X113001798Y-103670664D01*
X112856127Y-103731002D01*
X112856114Y-103731009D01*
X112725011Y-103818610D01*
X112725007Y-103818613D01*
X112613513Y-103930107D01*
X112613510Y-103930111D01*
X112525909Y-104061214D01*
X112525902Y-104061227D01*
X112465564Y-104206898D01*
X112465561Y-104206910D01*
X112434800Y-104361553D01*
X112434800Y-104519246D01*
X112465561Y-104673889D01*
X112465564Y-104673901D01*
X112525902Y-104819572D01*
X112525909Y-104819585D01*
X112613510Y-104950688D01*
X112613513Y-104950692D01*
X112725007Y-105062186D01*
X112725011Y-105062189D01*
X112856114Y-105149790D01*
X112856127Y-105149797D01*
X113001798Y-105210135D01*
X113001803Y-105210137D01*
X113156458Y-105240900D01*
X113156459Y-105240900D01*
X113157992Y-105241205D01*
X113219903Y-105273589D01*
X113254477Y-105334305D01*
X113255418Y-105338630D01*
X113286461Y-105494691D01*
X113286464Y-105494701D01*
X113346802Y-105640372D01*
X113346809Y-105640385D01*
X113434410Y-105771488D01*
X113434413Y-105771492D01*
X113545907Y-105882986D01*
X113545911Y-105882989D01*
X113677014Y-105970590D01*
X113677027Y-105970597D01*
X113822698Y-106030935D01*
X113822703Y-106030937D01*
X113887347Y-106043795D01*
X113978049Y-106061838D01*
X114039960Y-106094223D01*
X114041539Y-106095774D01*
X115735139Y-107789374D01*
X115735149Y-107789385D01*
X115739479Y-107793715D01*
X115739480Y-107793716D01*
X115851284Y-107905520D01*
X115938095Y-107955639D01*
X115938097Y-107955641D01*
X115988213Y-107984576D01*
X115988215Y-107984577D01*
X116140942Y-108025500D01*
X116140943Y-108025500D01*
X124074863Y-108025500D01*
X124141902Y-108045185D01*
X124187657Y-108097989D01*
X124197601Y-108167147D01*
X124192794Y-108187818D01*
X124130753Y-108378759D01*
X124097500Y-108588713D01*
X124097500Y-108801286D01*
X124130753Y-109011239D01*
X124130753Y-109011241D01*
X124130754Y-109011243D01*
X124192085Y-109200001D01*
X124196444Y-109213414D01*
X124292951Y-109402820D01*
X124417890Y-109574786D01*
X124568213Y-109725109D01*
X124740182Y-109850050D01*
X124748946Y-109854516D01*
X124799742Y-109902491D01*
X124816536Y-109970312D01*
X124793998Y-110036447D01*
X124748946Y-110075484D01*
X124740182Y-110079949D01*
X124568213Y-110204890D01*
X124417890Y-110355213D01*
X124292951Y-110527179D01*
X124196444Y-110716585D01*
X124130753Y-110918760D01*
X124097500Y-111128713D01*
X124097500Y-111341286D01*
X124130753Y-111551239D01*
X124130753Y-111551241D01*
X124130754Y-111551243D01*
X124188673Y-111729500D01*
X124196444Y-111753414D01*
X124292951Y-111942820D01*
X124417890Y-112114786D01*
X124568213Y-112265109D01*
X124740182Y-112390050D01*
X124748946Y-112394516D01*
X124799742Y-112442491D01*
X124816536Y-112510312D01*
X124793998Y-112576447D01*
X124748946Y-112615484D01*
X124740182Y-112619949D01*
X124568213Y-112744890D01*
X124417890Y-112895213D01*
X124292951Y-113067179D01*
X124196444Y-113256585D01*
X124130753Y-113458760D01*
X124108777Y-113597514D01*
X124097500Y-113668713D01*
X124097500Y-113881287D01*
X124105419Y-113931284D01*
X124130754Y-114091244D01*
X124130754Y-114091247D01*
X124144491Y-114133523D01*
X124146486Y-114203364D01*
X124114241Y-114259522D01*
X121837986Y-116535778D01*
X121726181Y-116647582D01*
X121726177Y-116647587D01*
X121676454Y-116733712D01*
X121676454Y-116733713D01*
X121647123Y-116784514D01*
X121647123Y-116784515D01*
X121606199Y-116937243D01*
X121606199Y-116937245D01*
X121606199Y-117105346D01*
X121606200Y-117105359D01*
X121606200Y-121265402D01*
X121586515Y-121332441D01*
X121569881Y-121353083D01*
X120616729Y-122306234D01*
X120555406Y-122339719D01*
X120485714Y-122334735D01*
X120460157Y-122321655D01*
X120329585Y-122234409D01*
X120329572Y-122234402D01*
X120183901Y-122174064D01*
X120183889Y-122174061D01*
X120029245Y-122143300D01*
X120029242Y-122143300D01*
X119871558Y-122143300D01*
X119871555Y-122143300D01*
X119716910Y-122174061D01*
X119716898Y-122174064D01*
X119571227Y-122234402D01*
X119571214Y-122234409D01*
X119440111Y-122322010D01*
X119440107Y-122322013D01*
X119328613Y-122433507D01*
X119328610Y-122433511D01*
X119241009Y-122564614D01*
X119241002Y-122564627D01*
X119180664Y-122710298D01*
X119180661Y-122710308D01*
X119149762Y-122865648D01*
X119117377Y-122927559D01*
X119115826Y-122929137D01*
X118221784Y-123823181D01*
X118160461Y-123856666D01*
X118134103Y-123859500D01*
X102885719Y-123859500D01*
X102818680Y-123839815D01*
X102775235Y-123791795D01*
X102755052Y-123752185D01*
X102755051Y-123752184D01*
X102630109Y-123580213D01*
X102479786Y-123429890D01*
X102307820Y-123304951D01*
X102307115Y-123304591D01*
X102299054Y-123300485D01*
X102248259Y-123252512D01*
X102231463Y-123184692D01*
X102253999Y-123118556D01*
X102299054Y-123079515D01*
X102307816Y-123075051D01*
X102364713Y-123033713D01*
X102479786Y-122950109D01*
X102479788Y-122950106D01*
X102479792Y-122950104D01*
X102630104Y-122799792D01*
X102630106Y-122799788D01*
X102630109Y-122799786D01*
X102755048Y-122627820D01*
X102755047Y-122627820D01*
X102755051Y-122627816D01*
X102851557Y-122438412D01*
X102917246Y-122236243D01*
X102950500Y-122026287D01*
X102950500Y-121813713D01*
X102917246Y-121603757D01*
X102851557Y-121401588D01*
X102755051Y-121212184D01*
X102755049Y-121212181D01*
X102755048Y-121212179D01*
X102630109Y-121040213D01*
X102479786Y-120889890D01*
X102307817Y-120764949D01*
X102298504Y-120760204D01*
X102247707Y-120712230D01*
X102230912Y-120644409D01*
X102253449Y-120578274D01*
X102298507Y-120539232D01*
X102307555Y-120534622D01*
X102361716Y-120495270D01*
X102361717Y-120495270D01*
X101729408Y-119862962D01*
X101792993Y-119845925D01*
X101907007Y-119780099D01*
X102000099Y-119687007D01*
X102065925Y-119572993D01*
X102082962Y-119509409D01*
X102715270Y-120141717D01*
X102715270Y-120141716D01*
X102754622Y-120087554D01*
X102851095Y-119898217D01*
X102916757Y-119696130D01*
X102916757Y-119696127D01*
X102950000Y-119486246D01*
X102950000Y-119273753D01*
X102916757Y-119063872D01*
X102916757Y-119063869D01*
X102851095Y-118861782D01*
X102754624Y-118672449D01*
X102715270Y-118618282D01*
X102715269Y-118618282D01*
X102082962Y-119250590D01*
X102065925Y-119187007D01*
X102000099Y-119072993D01*
X101907007Y-118979901D01*
X101792993Y-118914075D01*
X101729409Y-118897037D01*
X102361716Y-118264728D01*
X102307547Y-118225373D01*
X102307547Y-118225372D01*
X102298500Y-118220763D01*
X102247706Y-118172788D01*
X102230912Y-118104966D01*
X102253451Y-118038832D01*
X102298508Y-117999793D01*
X102307816Y-117995051D01*
X102441493Y-117897930D01*
X102479786Y-117870109D01*
X102479788Y-117870106D01*
X102479792Y-117870104D01*
X102630104Y-117719792D01*
X102630106Y-117719788D01*
X102630109Y-117719786D01*
X102746277Y-117559892D01*
X102755051Y-117547816D01*
X102851557Y-117358412D01*
X102917246Y-117156243D01*
X102950500Y-116946287D01*
X102950500Y-116733713D01*
X102917246Y-116523757D01*
X102851557Y-116321588D01*
X102755051Y-116132184D01*
X102755049Y-116132181D01*
X102755048Y-116132179D01*
X102630109Y-115960213D01*
X102516181Y-115846285D01*
X102482696Y-115784962D01*
X102487680Y-115715270D01*
X102529552Y-115659337D01*
X102560529Y-115642422D01*
X102692086Y-115593354D01*
X102692093Y-115593350D01*
X102807187Y-115507190D01*
X102807190Y-115507187D01*
X102893350Y-115392093D01*
X102893354Y-115392086D01*
X102943596Y-115257379D01*
X102943598Y-115257372D01*
X102949999Y-115197844D01*
X102950000Y-115197827D01*
X102950000Y-114550000D01*
X102033012Y-114550000D01*
X102065925Y-114492993D01*
X102100000Y-114365826D01*
X102100000Y-114234174D01*
X102065925Y-114107007D01*
X102033012Y-114050000D01*
X102950000Y-114050000D01*
X102950000Y-113402172D01*
X102949999Y-113402155D01*
X102943598Y-113342627D01*
X102943596Y-113342620D01*
X102893354Y-113207913D01*
X102893350Y-113207906D01*
X102807190Y-113092812D01*
X102807187Y-113092809D01*
X102692093Y-113006649D01*
X102692086Y-113006645D01*
X102557379Y-112956403D01*
X102557372Y-112956401D01*
X102497844Y-112950000D01*
X101850000Y-112950000D01*
X101850000Y-113866988D01*
X101792993Y-113834075D01*
X101665826Y-113800000D01*
X101534174Y-113800000D01*
X101407007Y-113834075D01*
X101350000Y-113866988D01*
X101350000Y-112950000D01*
X100702155Y-112950000D01*
X100642627Y-112956401D01*
X100642620Y-112956403D01*
X100507913Y-113006645D01*
X100507906Y-113006649D01*
X100392812Y-113092809D01*
X100392809Y-113092812D01*
X100306649Y-113207906D01*
X100306645Y-113207913D01*
X100256403Y-113342620D01*
X100256401Y-113342627D01*
X100250000Y-113402155D01*
X100250000Y-114050000D01*
X101166988Y-114050000D01*
X101134075Y-114107007D01*
X101100000Y-114234174D01*
X101100000Y-114365826D01*
X101134075Y-114492993D01*
X101166988Y-114550000D01*
X100250000Y-114550000D01*
X100250000Y-115197844D01*
X100256401Y-115257372D01*
X100256403Y-115257379D01*
X100306645Y-115392086D01*
X100306649Y-115392093D01*
X100392809Y-115507187D01*
X100392812Y-115507190D01*
X100507906Y-115593350D01*
X100507913Y-115593354D01*
X100639470Y-115642422D01*
X100695404Y-115684293D01*
X100719821Y-115749758D01*
X100704969Y-115818031D01*
X100683819Y-115846285D01*
X100569889Y-115960215D01*
X100444951Y-116132179D01*
X100348444Y-116321585D01*
X100282753Y-116523760D01*
X100249500Y-116733712D01*
X100249500Y-116946286D01*
X100278350Y-117128442D01*
X100282754Y-117156243D01*
X100317370Y-117262781D01*
X100348444Y-117358414D01*
X100444951Y-117547820D01*
X100569890Y-117719786D01*
X100720213Y-117870109D01*
X100892179Y-117995048D01*
X100892181Y-117995049D01*
X100892184Y-117995051D01*
X100901493Y-117999794D01*
X100952290Y-118047766D01*
X100969087Y-118115587D01*
X100946552Y-118181722D01*
X100901505Y-118220760D01*
X100892446Y-118225376D01*
X100892440Y-118225380D01*
X100838282Y-118264727D01*
X100838282Y-118264728D01*
X101470591Y-118897037D01*
X101407007Y-118914075D01*
X101292993Y-118979901D01*
X101199901Y-119072993D01*
X101134075Y-119187007D01*
X101117037Y-119250591D01*
X100484728Y-118618282D01*
X100484727Y-118618282D01*
X100445380Y-118672439D01*
X100348904Y-118861782D01*
X100283242Y-119063869D01*
X100283242Y-119063872D01*
X100250000Y-119273753D01*
X100250000Y-119486246D01*
X100283242Y-119696127D01*
X100283242Y-119696130D01*
X100348904Y-119898217D01*
X100445375Y-120087550D01*
X100484728Y-120141716D01*
X101117037Y-119509408D01*
X101134075Y-119572993D01*
X101199901Y-119687007D01*
X101292993Y-119780099D01*
X101407007Y-119845925D01*
X101470590Y-119862962D01*
X100838282Y-120495269D01*
X100838282Y-120495270D01*
X100892452Y-120534626D01*
X100892451Y-120534626D01*
X100901495Y-120539234D01*
X100952292Y-120587208D01*
X100969087Y-120655029D01*
X100946550Y-120721164D01*
X100901499Y-120760202D01*
X100892182Y-120764949D01*
X100720213Y-120889890D01*
X100569890Y-121040213D01*
X100444951Y-121212179D01*
X100348444Y-121401585D01*
X100282753Y-121603760D01*
X100264978Y-121715990D01*
X100249500Y-121813713D01*
X100249500Y-122026287D01*
X100252626Y-122046021D01*
X100282463Y-122234409D01*
X100282754Y-122236243D01*
X100346849Y-122433507D01*
X100348444Y-122438414D01*
X100444951Y-122627820D01*
X100569890Y-122799786D01*
X100720213Y-122950109D01*
X100892182Y-123075050D01*
X100900946Y-123079516D01*
X100951742Y-123127491D01*
X100968536Y-123195312D01*
X100945998Y-123261447D01*
X100900946Y-123300484D01*
X100892182Y-123304949D01*
X100720213Y-123429890D01*
X100569890Y-123580213D01*
X100444951Y-123752179D01*
X100348444Y-123941585D01*
X100282753Y-124143760D01*
X100249744Y-124352175D01*
X100249500Y-124353713D01*
X100249500Y-124566287D01*
X100282754Y-124776243D01*
X100295279Y-124814792D01*
X100348444Y-124978414D01*
X100444951Y-125167820D01*
X100569890Y-125339786D01*
X100720213Y-125490109D01*
X100892182Y-125615050D01*
X100900946Y-125619516D01*
X100951742Y-125667491D01*
X100968536Y-125735312D01*
X100945998Y-125801447D01*
X100900946Y-125840484D01*
X100892182Y-125844949D01*
X100720213Y-125969890D01*
X100569890Y-126120213D01*
X100444951Y-126292179D01*
X100348444Y-126481585D01*
X100282753Y-126683760D01*
X100265730Y-126791239D01*
X100249500Y-126893713D01*
X100249500Y-127106287D01*
X100282754Y-127316243D01*
X100345457Y-127509223D01*
X100348444Y-127518414D01*
X100444951Y-127707820D01*
X100569890Y-127879786D01*
X100720213Y-128030109D01*
X100892182Y-128155050D01*
X100900946Y-128159516D01*
X100951742Y-128207491D01*
X100968536Y-128275312D01*
X100945998Y-128341447D01*
X100900946Y-128380484D01*
X100892182Y-128384949D01*
X100720213Y-128509890D01*
X100569890Y-128660213D01*
X100444951Y-128832179D01*
X100348444Y-129021585D01*
X100282753Y-129223760D01*
X100265730Y-129331239D01*
X100249500Y-129433713D01*
X100249500Y-129646287D01*
X100282754Y-129856243D01*
X100344119Y-130045105D01*
X100348444Y-130058414D01*
X100444951Y-130247820D01*
X100569890Y-130419786D01*
X100720213Y-130570109D01*
X100892182Y-130695050D01*
X100900946Y-130699516D01*
X100951742Y-130747491D01*
X100968536Y-130815312D01*
X100945998Y-130881447D01*
X100900946Y-130920484D01*
X100892182Y-130924949D01*
X100720213Y-131049890D01*
X100569890Y-131200213D01*
X100444951Y-131372179D01*
X100348444Y-131561585D01*
X100282753Y-131763760D01*
X100259820Y-131908554D01*
X100249500Y-131973713D01*
X100249500Y-132186287D01*
X100282754Y-132396243D01*
X100343985Y-132584693D01*
X100348444Y-132598414D01*
X100444951Y-132787820D01*
X100569890Y-132959786D01*
X100720213Y-133110109D01*
X100892182Y-133235050D01*
X100900946Y-133239516D01*
X100951742Y-133287491D01*
X100968536Y-133355312D01*
X100945998Y-133421447D01*
X100900946Y-133460484D01*
X100892182Y-133464949D01*
X100720213Y-133589890D01*
X100569890Y-133740213D01*
X100444951Y-133912179D01*
X100348444Y-134101585D01*
X100282753Y-134303760D01*
X100249500Y-134513713D01*
X100249500Y-134726286D01*
X100282753Y-134936239D01*
X100348444Y-135138414D01*
X100444951Y-135327820D01*
X100569890Y-135499786D01*
X100720213Y-135650109D01*
X100892182Y-135775050D01*
X100900946Y-135779516D01*
X100951742Y-135827491D01*
X100968536Y-135895312D01*
X100945998Y-135961447D01*
X100900946Y-136000484D01*
X100892182Y-136004949D01*
X100720213Y-136129890D01*
X100569890Y-136280213D01*
X100444951Y-136452179D01*
X100348444Y-136641585D01*
X100282753Y-136843760D01*
X100249500Y-137053713D01*
X100249500Y-137266286D01*
X100277933Y-137445808D01*
X100282754Y-137476243D01*
X100332896Y-137630565D01*
X100348444Y-137678414D01*
X100444951Y-137867820D01*
X100569890Y-138039786D01*
X100720213Y-138190109D01*
X100892182Y-138315050D01*
X100900946Y-138319516D01*
X100951742Y-138367491D01*
X100968536Y-138435312D01*
X100945998Y-138501447D01*
X100900946Y-138540484D01*
X100892182Y-138544949D01*
X100720213Y-138669890D01*
X100569890Y-138820213D01*
X100444951Y-138992179D01*
X100348444Y-139181585D01*
X100282753Y-139383760D01*
X100262086Y-139514250D01*
X100249500Y-139593713D01*
X100249500Y-139806287D01*
X100282754Y-140016243D01*
X100336191Y-140180705D01*
X100348444Y-140218414D01*
X100444951Y-140407820D01*
X100569890Y-140579786D01*
X100720209Y-140730105D01*
X100720214Y-140730109D01*
X100741648Y-140745682D01*
X100784314Y-140801012D01*
X100790293Y-140870625D01*
X100757688Y-140932420D01*
X100696849Y-140966777D01*
X100668763Y-140970000D01*
X97841362Y-140970000D01*
X97774323Y-140950315D01*
X97753681Y-140933681D01*
X95921319Y-139101319D01*
X95887834Y-139039996D01*
X95885000Y-139013638D01*
X95885000Y-89878711D01*
X113149500Y-89878711D01*
X113149500Y-90121288D01*
X113181161Y-90361785D01*
X113243947Y-90596104D01*
X113326795Y-90796116D01*
X113336776Y-90820212D01*
X113458064Y-91030289D01*
X113458066Y-91030292D01*
X113458067Y-91030293D01*
X113605733Y-91222736D01*
X113605739Y-91222743D01*
X113777256Y-91394260D01*
X113777263Y-91394266D01*
X113864647Y-91461318D01*
X113969711Y-91541936D01*
X114179788Y-91663224D01*
X114403900Y-91756054D01*
X114638211Y-91818838D01*
X114818586Y-91842584D01*
X114878711Y-91850500D01*
X114878712Y-91850500D01*
X115121289Y-91850500D01*
X115169388Y-91844167D01*
X115361789Y-91818838D01*
X115596100Y-91756054D01*
X115820212Y-91663224D01*
X116030289Y-91541936D01*
X116222738Y-91394265D01*
X116394265Y-91222738D01*
X116541936Y-91030289D01*
X116663224Y-90820212D01*
X116756054Y-90596100D01*
X116818838Y-90361789D01*
X116850500Y-90121288D01*
X116850500Y-89878712D01*
X116818838Y-89638211D01*
X116756054Y-89403900D01*
X116663224Y-89179788D01*
X116541936Y-88969711D01*
X116394265Y-88777262D01*
X116394260Y-88777256D01*
X116222743Y-88605739D01*
X116222736Y-88605733D01*
X116030293Y-88458067D01*
X116030292Y-88458066D01*
X116030289Y-88458064D01*
X115820212Y-88336776D01*
X115810606Y-88332797D01*
X115596104Y-88243947D01*
X115361785Y-88181161D01*
X115121289Y-88149500D01*
X115121288Y-88149500D01*
X114878712Y-88149500D01*
X114878711Y-88149500D01*
X114638214Y-88181161D01*
X114403895Y-88243947D01*
X114179794Y-88336773D01*
X114179785Y-88336777D01*
X113969706Y-88458067D01*
X113777263Y-88605733D01*
X113777256Y-88605739D01*
X113605739Y-88777256D01*
X113605733Y-88777263D01*
X113458067Y-88969706D01*
X113336777Y-89179785D01*
X113336773Y-89179794D01*
X113243947Y-89403895D01*
X113181161Y-89638214D01*
X113149500Y-89878711D01*
X95885000Y-89878711D01*
X95885000Y-76775983D01*
X110649500Y-76775983D01*
X110649500Y-78376001D01*
X110649501Y-78376018D01*
X110660000Y-78478796D01*
X110660001Y-78478799D01*
X110715185Y-78645331D01*
X110715187Y-78645336D01*
X110750069Y-78701888D01*
X110807288Y-78794656D01*
X110931344Y-78918712D01*
X111080666Y-79010814D01*
X111247203Y-79065999D01*
X111349991Y-79076500D01*
X112650008Y-79076499D01*
X112752797Y-79065999D01*
X112919334Y-79010814D01*
X113068656Y-78918712D01*
X113192712Y-78794656D01*
X113284814Y-78645334D01*
X113284814Y-78645331D01*
X113288448Y-78639441D01*
X113340395Y-78592716D01*
X113409358Y-78581493D01*
X113473440Y-78609336D01*
X113481668Y-78616856D01*
X113620535Y-78755723D01*
X113620540Y-78755727D01*
X113792442Y-78880620D01*
X113981782Y-78977095D01*
X114183871Y-79042757D01*
X114250000Y-79053231D01*
X114250000Y-78009012D01*
X114307007Y-78041925D01*
X114434174Y-78076000D01*
X114565826Y-78076000D01*
X114692993Y-78041925D01*
X114750000Y-78009012D01*
X114750000Y-79053230D01*
X114816126Y-79042757D01*
X114816129Y-79042757D01*
X115018217Y-78977095D01*
X115207557Y-78880620D01*
X115379459Y-78755727D01*
X115379464Y-78755723D01*
X115529723Y-78605464D01*
X115529727Y-78605459D01*
X115654620Y-78433557D01*
X115751095Y-78244217D01*
X115816757Y-78042130D01*
X115816757Y-78042127D01*
X115850000Y-77832246D01*
X115850000Y-77826000D01*
X114933012Y-77826000D01*
X114965925Y-77768993D01*
X115000000Y-77641826D01*
X115000000Y-77510174D01*
X114965925Y-77383007D01*
X114933012Y-77326000D01*
X115850000Y-77326000D01*
X115850000Y-77319753D01*
X115816757Y-77109872D01*
X115816757Y-77109869D01*
X115751095Y-76907782D01*
X115654620Y-76718442D01*
X115529727Y-76546540D01*
X115529723Y-76546535D01*
X115379464Y-76396276D01*
X115379459Y-76396272D01*
X115207557Y-76271379D01*
X115018215Y-76174903D01*
X114816124Y-76109241D01*
X114750000Y-76098768D01*
X114750000Y-77142988D01*
X114692993Y-77110075D01*
X114565826Y-77076000D01*
X114434174Y-77076000D01*
X114307007Y-77110075D01*
X114250000Y-77142988D01*
X114250000Y-76098768D01*
X114249999Y-76098768D01*
X114183875Y-76109241D01*
X113981784Y-76174903D01*
X113792442Y-76271379D01*
X113620541Y-76396271D01*
X113481668Y-76535144D01*
X113420345Y-76568628D01*
X113350653Y-76563644D01*
X113294720Y-76521772D01*
X113288448Y-76512558D01*
X113280449Y-76499590D01*
X113192712Y-76357344D01*
X113068656Y-76233288D01*
X112919334Y-76141186D01*
X112752797Y-76086001D01*
X112752795Y-76086000D01*
X112650010Y-76075500D01*
X111349998Y-76075500D01*
X111349981Y-76075501D01*
X111247203Y-76086000D01*
X111247200Y-76086001D01*
X111080668Y-76141185D01*
X111080663Y-76141187D01*
X110931342Y-76233289D01*
X110807289Y-76357342D01*
X110715187Y-76506663D01*
X110715185Y-76506668D01*
X110697534Y-76559935D01*
X110660001Y-76673203D01*
X110660001Y-76673204D01*
X110660000Y-76673204D01*
X110649500Y-76775983D01*
X95885000Y-76775983D01*
X95885000Y-61175983D01*
X110649500Y-61175983D01*
X110649500Y-62776001D01*
X110649501Y-62776018D01*
X110660000Y-62878796D01*
X110660001Y-62878799D01*
X110715185Y-63045331D01*
X110715187Y-63045336D01*
X110716653Y-63047712D01*
X110807288Y-63194656D01*
X110931344Y-63318712D01*
X111080666Y-63410814D01*
X111247203Y-63465999D01*
X111349991Y-63476500D01*
X112650008Y-63476499D01*
X112752797Y-63465999D01*
X112919334Y-63410814D01*
X113068656Y-63318712D01*
X113192712Y-63194656D01*
X113284814Y-63045334D01*
X113284814Y-63045331D01*
X113288448Y-63039441D01*
X113340395Y-62992716D01*
X113409358Y-62981493D01*
X113473440Y-63009336D01*
X113481668Y-63016856D01*
X113620535Y-63155723D01*
X113620540Y-63155727D01*
X113792442Y-63280620D01*
X113981782Y-63377095D01*
X114183871Y-63442757D01*
X114250000Y-63453231D01*
X114250000Y-62409012D01*
X114307007Y-62441925D01*
X114434174Y-62476000D01*
X114565826Y-62476000D01*
X114692993Y-62441925D01*
X114750000Y-62409012D01*
X114750000Y-63453230D01*
X114816126Y-63442757D01*
X114816129Y-63442757D01*
X115018217Y-63377095D01*
X115207557Y-63280620D01*
X115379459Y-63155727D01*
X115379464Y-63155723D01*
X115529723Y-63005464D01*
X115529727Y-63005459D01*
X115654620Y-62833557D01*
X115751095Y-62644217D01*
X115816757Y-62442130D01*
X115816757Y-62442127D01*
X115850000Y-62232246D01*
X115850000Y-62226000D01*
X114933012Y-62226000D01*
X114965925Y-62168993D01*
X115000000Y-62041826D01*
X115000000Y-61910174D01*
X114965925Y-61783007D01*
X114933012Y-61726000D01*
X115850000Y-61726000D01*
X115850000Y-61719753D01*
X115816757Y-61509872D01*
X115816757Y-61509869D01*
X115754140Y-61317152D01*
X115751094Y-61307781D01*
X115737949Y-61281983D01*
X120609500Y-61281983D01*
X120609500Y-62882001D01*
X120609501Y-62882018D01*
X120620000Y-62984796D01*
X120620001Y-62984799D01*
X120675185Y-63151331D01*
X120675187Y-63151336D01*
X120701906Y-63194655D01*
X120767288Y-63300656D01*
X120891344Y-63424712D01*
X121040666Y-63516814D01*
X121207203Y-63571999D01*
X121309991Y-63582500D01*
X122610008Y-63582499D01*
X122712797Y-63571999D01*
X122879334Y-63516814D01*
X123028656Y-63424712D01*
X123152712Y-63300656D01*
X123244814Y-63151334D01*
X123244814Y-63151331D01*
X123248178Y-63145879D01*
X123300126Y-63099154D01*
X123369088Y-63087931D01*
X123433170Y-63115774D01*
X123441398Y-63123294D01*
X123580213Y-63262109D01*
X123752179Y-63387048D01*
X123752181Y-63387049D01*
X123752184Y-63387051D01*
X123941588Y-63483557D01*
X124143757Y-63549246D01*
X124353713Y-63582500D01*
X124353714Y-63582500D01*
X124566286Y-63582500D01*
X124566287Y-63582500D01*
X124776243Y-63549246D01*
X124978412Y-63483557D01*
X125167816Y-63387051D01*
X125260296Y-63319861D01*
X125339786Y-63262109D01*
X125339788Y-63262106D01*
X125339792Y-63262104D01*
X125490104Y-63111792D01*
X125490106Y-63111788D01*
X125490109Y-63111786D01*
X125615048Y-62939820D01*
X125615047Y-62939820D01*
X125615051Y-62939816D01*
X125711557Y-62750412D01*
X125777246Y-62548243D01*
X125810500Y-62338287D01*
X125810500Y-61825713D01*
X125777246Y-61615757D01*
X125711557Y-61413588D01*
X125615051Y-61224184D01*
X125615049Y-61224181D01*
X125615048Y-61224179D01*
X125490109Y-61052213D01*
X125342879Y-60904983D01*
X130563500Y-60904983D01*
X130563500Y-62505001D01*
X130563501Y-62505018D01*
X130574000Y-62607796D01*
X130574001Y-62607799D01*
X130629185Y-62774331D01*
X130629187Y-62774336D01*
X130643223Y-62797092D01*
X130721288Y-62923656D01*
X130845344Y-63047712D01*
X130994666Y-63139814D01*
X131161203Y-63194999D01*
X131263991Y-63205500D01*
X132564008Y-63205499D01*
X132666797Y-63194999D01*
X132833334Y-63139814D01*
X132982656Y-63047712D01*
X133106712Y-62923656D01*
X133198814Y-62774334D01*
X133198814Y-62774331D01*
X133202178Y-62768879D01*
X133254126Y-62722154D01*
X133323088Y-62710931D01*
X133387170Y-62738774D01*
X133395398Y-62746294D01*
X133534213Y-62885109D01*
X133706179Y-63010048D01*
X133706181Y-63010049D01*
X133706184Y-63010051D01*
X133895588Y-63106557D01*
X134097757Y-63172246D01*
X134307713Y-63205500D01*
X134307714Y-63205500D01*
X134520286Y-63205500D01*
X134520287Y-63205500D01*
X134730243Y-63172246D01*
X134932412Y-63106557D01*
X135121816Y-63010051D01*
X135161123Y-62981493D01*
X135293786Y-62885109D01*
X135293788Y-62885106D01*
X135293792Y-62885104D01*
X135444104Y-62734792D01*
X135444106Y-62734788D01*
X135444109Y-62734786D01*
X135569048Y-62562820D01*
X135569047Y-62562820D01*
X135569051Y-62562816D01*
X135665557Y-62373412D01*
X135731246Y-62171243D01*
X135764500Y-61961287D01*
X135764500Y-61448713D01*
X135731246Y-61238757D01*
X135665557Y-61036588D01*
X135598501Y-60904983D01*
X140508500Y-60904983D01*
X140508500Y-62505001D01*
X140508501Y-62505018D01*
X140519000Y-62607796D01*
X140519001Y-62607799D01*
X140574185Y-62774331D01*
X140574187Y-62774336D01*
X140588223Y-62797092D01*
X140666288Y-62923656D01*
X140790344Y-63047712D01*
X140939666Y-63139814D01*
X141106203Y-63194999D01*
X141208991Y-63205500D01*
X142509008Y-63205499D01*
X142611797Y-63194999D01*
X142778334Y-63139814D01*
X142927656Y-63047712D01*
X143051712Y-62923656D01*
X143143814Y-62774334D01*
X143143814Y-62774331D01*
X143147178Y-62768879D01*
X143199126Y-62722154D01*
X143268088Y-62710931D01*
X143332170Y-62738774D01*
X143340398Y-62746294D01*
X143479213Y-62885109D01*
X143651179Y-63010048D01*
X143651181Y-63010049D01*
X143651184Y-63010051D01*
X143840588Y-63106557D01*
X144042757Y-63172246D01*
X144252713Y-63205500D01*
X144252714Y-63205500D01*
X144465286Y-63205500D01*
X144465287Y-63205500D01*
X144675243Y-63172246D01*
X144877412Y-63106557D01*
X145066816Y-63010051D01*
X145106123Y-62981493D01*
X145238786Y-62885109D01*
X145238788Y-62885106D01*
X145238792Y-62885104D01*
X145389104Y-62734792D01*
X145389106Y-62734788D01*
X145389109Y-62734786D01*
X145514048Y-62562820D01*
X145514047Y-62562820D01*
X145514051Y-62562816D01*
X145610557Y-62373412D01*
X145676246Y-62171243D01*
X145709500Y-61961287D01*
X145709500Y-61448713D01*
X145676246Y-61238757D01*
X145610557Y-61036588D01*
X145514051Y-60847184D01*
X145514049Y-60847181D01*
X145514048Y-60847179D01*
X145389109Y-60675213D01*
X145238786Y-60524890D01*
X145066820Y-60399951D01*
X144877414Y-60303444D01*
X144877413Y-60303443D01*
X144877412Y-60303443D01*
X144675243Y-60237754D01*
X144675241Y-60237753D01*
X144675240Y-60237753D01*
X144513957Y-60212208D01*
X144465287Y-60204500D01*
X144252713Y-60204500D01*
X144204042Y-60212208D01*
X144042760Y-60237753D01*
X143840585Y-60303444D01*
X143651179Y-60399951D01*
X143479215Y-60524889D01*
X143340398Y-60663706D01*
X143279075Y-60697190D01*
X143209383Y-60692206D01*
X143153450Y-60650334D01*
X143147178Y-60641120D01*
X143051712Y-60486344D01*
X142927657Y-60362289D01*
X142927656Y-60362288D01*
X142778334Y-60270186D01*
X142611797Y-60215001D01*
X142611795Y-60215000D01*
X142509010Y-60204500D01*
X141208998Y-60204500D01*
X141208981Y-60204501D01*
X141106203Y-60215000D01*
X141106200Y-60215001D01*
X140939668Y-60270185D01*
X140939663Y-60270187D01*
X140790342Y-60362289D01*
X140666289Y-60486342D01*
X140574187Y-60635663D01*
X140574185Y-60635668D01*
X140570368Y-60647187D01*
X140519001Y-60802203D01*
X140519001Y-60802204D01*
X140519000Y-60802204D01*
X140508500Y-60904983D01*
X135598501Y-60904983D01*
X135569051Y-60847184D01*
X135569049Y-60847181D01*
X135569048Y-60847179D01*
X135444109Y-60675213D01*
X135293786Y-60524890D01*
X135121820Y-60399951D01*
X134932414Y-60303444D01*
X134932413Y-60303443D01*
X134932412Y-60303443D01*
X134730243Y-60237754D01*
X134730241Y-60237753D01*
X134730240Y-60237753D01*
X134568957Y-60212208D01*
X134520287Y-60204500D01*
X134307713Y-60204500D01*
X134259042Y-60212208D01*
X134097760Y-60237753D01*
X133895585Y-60303444D01*
X133706179Y-60399951D01*
X133534215Y-60524889D01*
X133395398Y-60663706D01*
X133334075Y-60697190D01*
X133264383Y-60692206D01*
X133208450Y-60650334D01*
X133202178Y-60641120D01*
X133106712Y-60486344D01*
X132982657Y-60362289D01*
X132982656Y-60362288D01*
X132833334Y-60270186D01*
X132666797Y-60215001D01*
X132666795Y-60215000D01*
X132564010Y-60204500D01*
X131263998Y-60204500D01*
X131263981Y-60204501D01*
X131161203Y-60215000D01*
X131161200Y-60215001D01*
X130994668Y-60270185D01*
X130994663Y-60270187D01*
X130845342Y-60362289D01*
X130721289Y-60486342D01*
X130629187Y-60635663D01*
X130629185Y-60635668D01*
X130625368Y-60647187D01*
X130574001Y-60802203D01*
X130574001Y-60802204D01*
X130574000Y-60802204D01*
X130563500Y-60904983D01*
X125342879Y-60904983D01*
X125339786Y-60901890D01*
X125167820Y-60776951D01*
X124978414Y-60680444D01*
X124978413Y-60680443D01*
X124978412Y-60680443D01*
X124776243Y-60614754D01*
X124776241Y-60614753D01*
X124776240Y-60614753D01*
X124614957Y-60589208D01*
X124566287Y-60581500D01*
X124353713Y-60581500D01*
X124305042Y-60589208D01*
X124143760Y-60614753D01*
X123941585Y-60680444D01*
X123752179Y-60776951D01*
X123580215Y-60901889D01*
X123441398Y-61040706D01*
X123380075Y-61074190D01*
X123310383Y-61069206D01*
X123254450Y-61027334D01*
X123248178Y-61018120D01*
X123211175Y-60958129D01*
X123152712Y-60863344D01*
X123028656Y-60739288D01*
X122918557Y-60671379D01*
X122879336Y-60647187D01*
X122879331Y-60647185D01*
X122844560Y-60635663D01*
X122712797Y-60592001D01*
X122712795Y-60592000D01*
X122610010Y-60581500D01*
X121309998Y-60581500D01*
X121309981Y-60581501D01*
X121207203Y-60592000D01*
X121207200Y-60592001D01*
X121040668Y-60647185D01*
X121040663Y-60647187D01*
X120891342Y-60739289D01*
X120767289Y-60863342D01*
X120675187Y-61012663D01*
X120675185Y-61012668D01*
X120672014Y-61022239D01*
X120620001Y-61179203D01*
X120620001Y-61179204D01*
X120620000Y-61179204D01*
X120609500Y-61281983D01*
X115737949Y-61281983D01*
X115654620Y-61118442D01*
X115529727Y-60946540D01*
X115529723Y-60946535D01*
X115379464Y-60796276D01*
X115379459Y-60796272D01*
X115207557Y-60671379D01*
X115018215Y-60574903D01*
X114816124Y-60509241D01*
X114750000Y-60498768D01*
X114750000Y-61542988D01*
X114692993Y-61510075D01*
X114565826Y-61476000D01*
X114434174Y-61476000D01*
X114307007Y-61510075D01*
X114250000Y-61542988D01*
X114250000Y-60498768D01*
X114249999Y-60498768D01*
X114183875Y-60509241D01*
X113981784Y-60574903D01*
X113792442Y-60671379D01*
X113620541Y-60796271D01*
X113481668Y-60935144D01*
X113420345Y-60968628D01*
X113350653Y-60963644D01*
X113294720Y-60921772D01*
X113288448Y-60912558D01*
X113281867Y-60901889D01*
X113192712Y-60757344D01*
X113068656Y-60633288D01*
X112919334Y-60541186D01*
X112752797Y-60486001D01*
X112752795Y-60486000D01*
X112650010Y-60475500D01*
X111349998Y-60475500D01*
X111349981Y-60475501D01*
X111247203Y-60486000D01*
X111247200Y-60486001D01*
X111080668Y-60541185D01*
X111080663Y-60541187D01*
X110931342Y-60633289D01*
X110807289Y-60757342D01*
X110715187Y-60906663D01*
X110715185Y-60906668D01*
X110710180Y-60921772D01*
X110660001Y-61073203D01*
X110660001Y-61073204D01*
X110660000Y-61073204D01*
X110649500Y-61175983D01*
X95885000Y-61175983D01*
X95885000Y-51142135D01*
X99115500Y-51142135D01*
X99115500Y-57237870D01*
X99115501Y-57237876D01*
X99121908Y-57297483D01*
X99172202Y-57432328D01*
X99172206Y-57432335D01*
X99258452Y-57547544D01*
X99258455Y-57547547D01*
X99373664Y-57633793D01*
X99373671Y-57633797D01*
X99508517Y-57684091D01*
X99508516Y-57684091D01*
X99515444Y-57684835D01*
X99568127Y-57690500D01*
X105663872Y-57690499D01*
X105723483Y-57684091D01*
X105858331Y-57633796D01*
X105973546Y-57547546D01*
X106059796Y-57432331D01*
X106110091Y-57297483D01*
X106116500Y-57237873D01*
X106116499Y-54840210D01*
X106119881Y-54828693D01*
X106118740Y-54816745D01*
X106129542Y-54795790D01*
X106136184Y-54773172D01*
X106146054Y-54763760D01*
X106150755Y-54754642D01*
X106178491Y-54732828D01*
X106199604Y-54720639D01*
X106286416Y-54670520D01*
X106398220Y-54558716D01*
X106398220Y-54558714D01*
X106408428Y-54548507D01*
X106408429Y-54548504D01*
X107555316Y-53401619D01*
X107616639Y-53368134D01*
X107642997Y-53365300D01*
X110565500Y-53365300D01*
X110632539Y-53384985D01*
X110678294Y-53437789D01*
X110689500Y-53489300D01*
X110689500Y-54938001D01*
X110689501Y-54938018D01*
X110700000Y-55040796D01*
X110700001Y-55040799D01*
X110755185Y-55207331D01*
X110755187Y-55207336D01*
X110775166Y-55239727D01*
X110847288Y-55356656D01*
X110971344Y-55480712D01*
X111120666Y-55572814D01*
X111287203Y-55627999D01*
X111389991Y-55638500D01*
X112690008Y-55638499D01*
X112792797Y-55627999D01*
X112959334Y-55572814D01*
X113108656Y-55480712D01*
X113232712Y-55356656D01*
X113324814Y-55207334D01*
X113324814Y-55207331D01*
X113328448Y-55201441D01*
X113380395Y-55154716D01*
X113449358Y-55143493D01*
X113513440Y-55171336D01*
X113521668Y-55178856D01*
X113660535Y-55317723D01*
X113660540Y-55317727D01*
X113832442Y-55442620D01*
X114021782Y-55539095D01*
X114223871Y-55604757D01*
X114290000Y-55615231D01*
X114290000Y-54571012D01*
X114347007Y-54603925D01*
X114474174Y-54638000D01*
X114605826Y-54638000D01*
X114732993Y-54603925D01*
X114790000Y-54571012D01*
X114790000Y-55615230D01*
X114856126Y-55604757D01*
X114856129Y-55604757D01*
X115058217Y-55539095D01*
X115247557Y-55442620D01*
X115419459Y-55317727D01*
X115419464Y-55317723D01*
X115569723Y-55167464D01*
X115569727Y-55167459D01*
X115694620Y-54995557D01*
X115791095Y-54806217D01*
X115856757Y-54604130D01*
X115856757Y-54604127D01*
X115890000Y-54394246D01*
X115890000Y-54388000D01*
X114973012Y-54388000D01*
X115005925Y-54330993D01*
X115040000Y-54203826D01*
X115040000Y-54072174D01*
X115005925Y-53945007D01*
X114973012Y-53888000D01*
X115890000Y-53888000D01*
X115890000Y-53881753D01*
X115856757Y-53671872D01*
X115856757Y-53671869D01*
X115809887Y-53527618D01*
X115807892Y-53457777D01*
X115843972Y-53397944D01*
X115906673Y-53367116D01*
X115927818Y-53365300D01*
X120485500Y-53365300D01*
X120552539Y-53384985D01*
X120598294Y-53437789D01*
X120609500Y-53489300D01*
X120609500Y-55082001D01*
X120609501Y-55082018D01*
X120620000Y-55184796D01*
X120620001Y-55184799D01*
X120675185Y-55351331D01*
X120675187Y-55351336D01*
X120678469Y-55356657D01*
X120767288Y-55500656D01*
X120891344Y-55624712D01*
X121040666Y-55716814D01*
X121207203Y-55771999D01*
X121309991Y-55782500D01*
X122610008Y-55782499D01*
X122712797Y-55771999D01*
X122879334Y-55716814D01*
X123028656Y-55624712D01*
X123152712Y-55500656D01*
X123244814Y-55351334D01*
X123244814Y-55351331D01*
X123248178Y-55345879D01*
X123300126Y-55299154D01*
X123369088Y-55287931D01*
X123433170Y-55315774D01*
X123441398Y-55323294D01*
X123580213Y-55462109D01*
X123752179Y-55587048D01*
X123752181Y-55587049D01*
X123752184Y-55587051D01*
X123941588Y-55683557D01*
X124143757Y-55749246D01*
X124353713Y-55782500D01*
X124353714Y-55782500D01*
X124566286Y-55782500D01*
X124566287Y-55782500D01*
X124776243Y-55749246D01*
X124978412Y-55683557D01*
X125167816Y-55587051D01*
X125218814Y-55549999D01*
X125339786Y-55462109D01*
X125339788Y-55462106D01*
X125339792Y-55462104D01*
X125490104Y-55311792D01*
X125490106Y-55311788D01*
X125490109Y-55311786D01*
X125610314Y-55146336D01*
X125615051Y-55139816D01*
X125711557Y-54950412D01*
X125777246Y-54748243D01*
X125810500Y-54538287D01*
X125810500Y-54025713D01*
X125777246Y-53815757D01*
X125711557Y-53613588D01*
X125676913Y-53545595D01*
X125664017Y-53476926D01*
X125690293Y-53412185D01*
X125747400Y-53371928D01*
X125787398Y-53365300D01*
X130479500Y-53365300D01*
X130546539Y-53384985D01*
X130592294Y-53437789D01*
X130603500Y-53489300D01*
X130603500Y-54885001D01*
X130603501Y-54885018D01*
X130614000Y-54987796D01*
X130614001Y-54987799D01*
X130669185Y-55154331D01*
X130669187Y-55154336D01*
X130686456Y-55182334D01*
X130761288Y-55303656D01*
X130885344Y-55427712D01*
X131034666Y-55519814D01*
X131201203Y-55574999D01*
X131303991Y-55585500D01*
X132604008Y-55585499D01*
X132605154Y-55585382D01*
X132633298Y-55582507D01*
X132706797Y-55574999D01*
X132873334Y-55519814D01*
X133022656Y-55427712D01*
X133146712Y-55303656D01*
X133238814Y-55154334D01*
X133238814Y-55154331D01*
X133242178Y-55148879D01*
X133294126Y-55102154D01*
X133363088Y-55090931D01*
X133427170Y-55118774D01*
X133435398Y-55126294D01*
X133574213Y-55265109D01*
X133746179Y-55390048D01*
X133746181Y-55390049D01*
X133746184Y-55390051D01*
X133935588Y-55486557D01*
X134137757Y-55552246D01*
X134347713Y-55585500D01*
X134347714Y-55585500D01*
X134560286Y-55585500D01*
X134560287Y-55585500D01*
X134770243Y-55552246D01*
X134972412Y-55486557D01*
X135161816Y-55390051D01*
X135242189Y-55331657D01*
X135333786Y-55265109D01*
X135333788Y-55265106D01*
X135333792Y-55265104D01*
X135484104Y-55114792D01*
X135484106Y-55114788D01*
X135484109Y-55114786D01*
X135594535Y-54962796D01*
X135609051Y-54942816D01*
X135705557Y-54753412D01*
X135771246Y-54551243D01*
X135804500Y-54341287D01*
X135804500Y-53828713D01*
X135771246Y-53618757D01*
X135705557Y-53416588D01*
X135609051Y-53227184D01*
X135609049Y-53227181D01*
X135609048Y-53227179D01*
X135484109Y-53055213D01*
X135333786Y-52904890D01*
X135161820Y-52779951D01*
X134972414Y-52683444D01*
X134972413Y-52683443D01*
X134972412Y-52683443D01*
X134770243Y-52617754D01*
X134770241Y-52617753D01*
X134770240Y-52617753D01*
X134608957Y-52592208D01*
X134560287Y-52584500D01*
X134347713Y-52584500D01*
X134299042Y-52592208D01*
X134137760Y-52617753D01*
X133935585Y-52683444D01*
X133819699Y-52742491D01*
X133751029Y-52755387D01*
X133686289Y-52729110D01*
X133675723Y-52719687D01*
X133240317Y-52284281D01*
X133240312Y-52284277D01*
X133129026Y-52220027D01*
X133129024Y-52220025D01*
X133103388Y-52205224D01*
X133103387Y-52205223D01*
X133042293Y-52188853D01*
X132950657Y-52164299D01*
X132792543Y-52164299D01*
X132784947Y-52164299D01*
X132784931Y-52164300D01*
X107421957Y-52164300D01*
X107263843Y-52164300D01*
X107111115Y-52205223D01*
X107111114Y-52205223D01*
X107111112Y-52205224D01*
X107111111Y-52205224D01*
X107085473Y-52220027D01*
X106974187Y-52284277D01*
X106974182Y-52284281D01*
X106328180Y-52930284D01*
X106266857Y-52963769D01*
X106197165Y-52958785D01*
X106141232Y-52916913D01*
X106116815Y-52851449D01*
X106116499Y-52842603D01*
X106116499Y-51142129D01*
X106116498Y-51142123D01*
X106116497Y-51142116D01*
X106110091Y-51082517D01*
X106059796Y-50947669D01*
X106059795Y-50947668D01*
X106059793Y-50947664D01*
X105973547Y-50832455D01*
X105973544Y-50832452D01*
X105858335Y-50746206D01*
X105858328Y-50746202D01*
X105723482Y-50695908D01*
X105723483Y-50695908D01*
X105663883Y-50689501D01*
X105663881Y-50689500D01*
X105663873Y-50689500D01*
X105663864Y-50689500D01*
X99568129Y-50689500D01*
X99568123Y-50689501D01*
X99508516Y-50695908D01*
X99373671Y-50746202D01*
X99373664Y-50746206D01*
X99258455Y-50832452D01*
X99258452Y-50832455D01*
X99172206Y-50947664D01*
X99172202Y-50947671D01*
X99121908Y-51082517D01*
X99118470Y-51114500D01*
X99115501Y-51142123D01*
X99115500Y-51142135D01*
X95885000Y-51142135D01*
X95885000Y-45537983D01*
X110689500Y-45537983D01*
X110689500Y-47138001D01*
X110689501Y-47138018D01*
X110700000Y-47240796D01*
X110700001Y-47240799D01*
X110755185Y-47407331D01*
X110755187Y-47407336D01*
X110775166Y-47439727D01*
X110847288Y-47556656D01*
X110971344Y-47680712D01*
X111120666Y-47772814D01*
X111287203Y-47827999D01*
X111389991Y-47838500D01*
X112690008Y-47838499D01*
X112792797Y-47827999D01*
X112959334Y-47772814D01*
X113108656Y-47680712D01*
X113232712Y-47556656D01*
X113324814Y-47407334D01*
X113324814Y-47407331D01*
X113328448Y-47401441D01*
X113380395Y-47354716D01*
X113449358Y-47343493D01*
X113513440Y-47371336D01*
X113521668Y-47378856D01*
X113660535Y-47517723D01*
X113660540Y-47517727D01*
X113832442Y-47642620D01*
X114021782Y-47739095D01*
X114223871Y-47804757D01*
X114290000Y-47815231D01*
X114290000Y-46771012D01*
X114347007Y-46803925D01*
X114474174Y-46838000D01*
X114605826Y-46838000D01*
X114732993Y-46803925D01*
X114790000Y-46771012D01*
X114790000Y-47815230D01*
X114856126Y-47804757D01*
X114856129Y-47804757D01*
X115058217Y-47739095D01*
X115247557Y-47642620D01*
X115419459Y-47517727D01*
X115419464Y-47517723D01*
X115569723Y-47367464D01*
X115569727Y-47367459D01*
X115694620Y-47195557D01*
X115791095Y-47006217D01*
X115856757Y-46804130D01*
X115856757Y-46804127D01*
X115890000Y-46594246D01*
X115890000Y-46588000D01*
X114973012Y-46588000D01*
X115005925Y-46530993D01*
X115040000Y-46403826D01*
X115040000Y-46272174D01*
X115005925Y-46145007D01*
X114973012Y-46088000D01*
X115890000Y-46088000D01*
X115890000Y-46081753D01*
X115856757Y-45871872D01*
X115856757Y-45871869D01*
X115806487Y-45717152D01*
X115795059Y-45681983D01*
X120609500Y-45681983D01*
X120609500Y-47282001D01*
X120609501Y-47282018D01*
X120620000Y-47384796D01*
X120620001Y-47384799D01*
X120675185Y-47551331D01*
X120675187Y-47551336D01*
X120678469Y-47556657D01*
X120767288Y-47700656D01*
X120891344Y-47824712D01*
X121040666Y-47916814D01*
X121207203Y-47971999D01*
X121309991Y-47982500D01*
X122610008Y-47982499D01*
X122712797Y-47971999D01*
X122879334Y-47916814D01*
X123028656Y-47824712D01*
X123152712Y-47700656D01*
X123244814Y-47551334D01*
X123244814Y-47551331D01*
X123248178Y-47545879D01*
X123300126Y-47499154D01*
X123369088Y-47487931D01*
X123433170Y-47515774D01*
X123441398Y-47523294D01*
X123580213Y-47662109D01*
X123752179Y-47787048D01*
X123752181Y-47787049D01*
X123752184Y-47787051D01*
X123941588Y-47883557D01*
X124143757Y-47949246D01*
X124353713Y-47982500D01*
X124353714Y-47982500D01*
X124566286Y-47982500D01*
X124566287Y-47982500D01*
X124776243Y-47949246D01*
X124978412Y-47883557D01*
X125167816Y-47787051D01*
X125215669Y-47752284D01*
X125339786Y-47662109D01*
X125339788Y-47662106D01*
X125339792Y-47662104D01*
X125490104Y-47511792D01*
X125490106Y-47511788D01*
X125490109Y-47511786D01*
X125604226Y-47354716D01*
X125615051Y-47339816D01*
X125711557Y-47150412D01*
X125777246Y-46948243D01*
X125810500Y-46738287D01*
X125810500Y-46225713D01*
X125777246Y-46015757D01*
X125711557Y-45813588D01*
X125615051Y-45624184D01*
X125615049Y-45624181D01*
X125615048Y-45624179D01*
X125490109Y-45452213D01*
X125339786Y-45301890D01*
X125167820Y-45176951D01*
X124978414Y-45080444D01*
X124978413Y-45080443D01*
X124978412Y-45080443D01*
X124776243Y-45014754D01*
X124776241Y-45014753D01*
X124776240Y-45014753D01*
X124614957Y-44989208D01*
X124566287Y-44981500D01*
X124353713Y-44981500D01*
X124305042Y-44989208D01*
X124143760Y-45014753D01*
X123941585Y-45080444D01*
X123752179Y-45176951D01*
X123580215Y-45301889D01*
X123441398Y-45440706D01*
X123380075Y-45474190D01*
X123310383Y-45469206D01*
X123254450Y-45427334D01*
X123248178Y-45418120D01*
X123234326Y-45395663D01*
X123152712Y-45263344D01*
X123028656Y-45139288D01*
X122933253Y-45080443D01*
X122879336Y-45047187D01*
X122879331Y-45047185D01*
X122837667Y-45033379D01*
X122712797Y-44992001D01*
X122712795Y-44992000D01*
X122610010Y-44981500D01*
X121309998Y-44981500D01*
X121309981Y-44981501D01*
X121207203Y-44992000D01*
X121207200Y-44992001D01*
X121040668Y-45047185D01*
X121040663Y-45047187D01*
X120891342Y-45139289D01*
X120767289Y-45263342D01*
X120675187Y-45412663D01*
X120675185Y-45412668D01*
X120665894Y-45440706D01*
X120620001Y-45579203D01*
X120620001Y-45579204D01*
X120620000Y-45579204D01*
X120609500Y-45681983D01*
X115795059Y-45681983D01*
X115791094Y-45669781D01*
X115694620Y-45480442D01*
X115569727Y-45308540D01*
X115569723Y-45308535D01*
X115419464Y-45158276D01*
X115419459Y-45158272D01*
X115247557Y-45033379D01*
X115058215Y-44936903D01*
X114856124Y-44871241D01*
X114790000Y-44860768D01*
X114790000Y-45904988D01*
X114732993Y-45872075D01*
X114605826Y-45838000D01*
X114474174Y-45838000D01*
X114347007Y-45872075D01*
X114290000Y-45904988D01*
X114290000Y-44860768D01*
X114289999Y-44860768D01*
X114223875Y-44871241D01*
X114021784Y-44936903D01*
X113832442Y-45033379D01*
X113660541Y-45158271D01*
X113521668Y-45297144D01*
X113460345Y-45330628D01*
X113390653Y-45325644D01*
X113334720Y-45283772D01*
X113328448Y-45274558D01*
X113311044Y-45246342D01*
X113232712Y-45119344D01*
X113108656Y-44995288D01*
X112959334Y-44903186D01*
X112792797Y-44848001D01*
X112792795Y-44848000D01*
X112690010Y-44837500D01*
X111389998Y-44837500D01*
X111389981Y-44837501D01*
X111287203Y-44848000D01*
X111287200Y-44848001D01*
X111120668Y-44903185D01*
X111120663Y-44903187D01*
X110971342Y-44995289D01*
X110847289Y-45119342D01*
X110755187Y-45268663D01*
X110755185Y-45268668D01*
X110742379Y-45307314D01*
X110700001Y-45435203D01*
X110700001Y-45435204D01*
X110700000Y-45435204D01*
X110689500Y-45537983D01*
X95885000Y-45537983D01*
X95885000Y-44501362D01*
X95904685Y-44434323D01*
X95921319Y-44413681D01*
X97753681Y-42581319D01*
X97815004Y-42547834D01*
X97841362Y-42545000D01*
X192353638Y-42545000D01*
X192420677Y-42564685D01*
G37*
G04 #@! TD.AperFunction*
G04 #@! TA.AperFunction,Conductor*
G36*
X164932342Y-109632585D02*
G01*
X164952984Y-109649219D01*
X165306181Y-110002416D01*
X165339666Y-110063739D01*
X165342500Y-110090097D01*
X165342500Y-111090001D01*
X165342501Y-111090019D01*
X165353000Y-111192796D01*
X165353001Y-111192799D01*
X165402205Y-111341286D01*
X165408186Y-111359334D01*
X165500288Y-111508656D01*
X165624344Y-111632712D01*
X165773666Y-111724814D01*
X165856152Y-111752147D01*
X165913597Y-111791920D01*
X165940420Y-111856436D01*
X165928105Y-111925212D01*
X165918143Y-111936975D01*
X165917077Y-111950524D01*
X166596554Y-112630000D01*
X166590339Y-112630000D01*
X166488606Y-112657259D01*
X166397394Y-112709920D01*
X166322920Y-112784394D01*
X166270259Y-112875606D01*
X166243000Y-112977339D01*
X166243000Y-112983553D01*
X165563524Y-112304077D01*
X165563523Y-112304077D01*
X165531143Y-112348644D01*
X165438244Y-112530968D01*
X165375009Y-112725582D01*
X165343000Y-112927682D01*
X165343000Y-113132317D01*
X165375009Y-113334417D01*
X165438244Y-113529031D01*
X165531142Y-113711352D01*
X165627229Y-113843605D01*
X165650709Y-113909411D01*
X165634884Y-113977465D01*
X165614592Y-114004171D01*
X165210584Y-114408181D01*
X165149261Y-114441666D01*
X165122903Y-114444500D01*
X163505942Y-114444500D01*
X163438903Y-114424815D01*
X163393148Y-114372011D01*
X163383204Y-114302853D01*
X163402840Y-114251610D01*
X163432987Y-114206490D01*
X163432988Y-114206486D01*
X163432994Y-114206479D01*
X163493337Y-114060797D01*
X163524100Y-113906142D01*
X163524100Y-113748458D01*
X163524100Y-113748455D01*
X163524099Y-113748453D01*
X163519100Y-113723321D01*
X163493337Y-113593803D01*
X163478446Y-113557853D01*
X163432997Y-113448127D01*
X163432990Y-113448114D01*
X163345389Y-113317011D01*
X163345386Y-113317007D01*
X163233892Y-113205513D01*
X163233888Y-113205510D01*
X163102785Y-113117909D01*
X163102772Y-113117902D01*
X162957101Y-113057564D01*
X162957091Y-113057561D01*
X162801751Y-113026662D01*
X162739841Y-112994277D01*
X162738262Y-112992726D01*
X161888890Y-112143355D01*
X161888888Y-112143352D01*
X161770017Y-112024481D01*
X161770016Y-112024480D01*
X161683204Y-111974360D01*
X161683204Y-111974359D01*
X161683200Y-111974358D01*
X161633085Y-111945423D01*
X161480357Y-111904499D01*
X161322243Y-111904499D01*
X161314647Y-111904499D01*
X161314631Y-111904500D01*
X158881137Y-111904500D01*
X158814098Y-111884815D01*
X158768343Y-111832011D01*
X158758399Y-111762853D01*
X158763206Y-111742182D01*
X158780722Y-111688273D01*
X158825246Y-111551243D01*
X158858500Y-111341287D01*
X158858500Y-111128713D01*
X158825246Y-110918757D01*
X158759557Y-110716588D01*
X158663051Y-110527184D01*
X158663049Y-110527181D01*
X158663048Y-110527179D01*
X158538109Y-110355213D01*
X158387786Y-110204890D01*
X158215820Y-110079951D01*
X158215115Y-110079591D01*
X158207054Y-110075485D01*
X158156259Y-110027512D01*
X158139463Y-109959692D01*
X158161999Y-109893556D01*
X158207054Y-109854515D01*
X158215816Y-109850051D01*
X158272808Y-109808644D01*
X158387786Y-109725109D01*
X158387788Y-109725106D01*
X158387792Y-109725104D01*
X158430022Y-109682873D01*
X158491343Y-109649389D01*
X158561034Y-109654373D01*
X158586593Y-109667453D01*
X158667914Y-109721790D01*
X158667927Y-109721797D01*
X158813598Y-109782135D01*
X158813603Y-109782137D01*
X158946862Y-109808644D01*
X158968253Y-109812899D01*
X158968256Y-109812900D01*
X158968258Y-109812900D01*
X159125944Y-109812900D01*
X159125945Y-109812899D01*
X159280597Y-109782137D01*
X159426279Y-109721794D01*
X159426285Y-109721790D01*
X159557975Y-109633798D01*
X159624653Y-109612920D01*
X159626866Y-109612900D01*
X164865303Y-109612900D01*
X164932342Y-109632585D01*
G37*
G04 #@! TD.AperFunction*
G04 #@! TA.AperFunction,Conductor*
G36*
X178092144Y-76422885D02*
G01*
X178137899Y-76475689D01*
X178139666Y-76479747D01*
X178183004Y-76584376D01*
X178183009Y-76584385D01*
X178270610Y-76715488D01*
X178270613Y-76715492D01*
X178382107Y-76826986D01*
X178382111Y-76826989D01*
X178513214Y-76914590D01*
X178513227Y-76914597D01*
X178658898Y-76974935D01*
X178658903Y-76974937D01*
X178668988Y-76976943D01*
X178681252Y-76979383D01*
X178743163Y-77011768D01*
X178777737Y-77072483D01*
X178773998Y-77142253D01*
X178733131Y-77198925D01*
X178668113Y-77224506D01*
X178657061Y-77225000D01*
X167218140Y-77225000D01*
X167177219Y-77235964D01*
X167177219Y-77235965D01*
X167139951Y-77245951D01*
X167065414Y-77265923D01*
X167065409Y-77265926D01*
X166928490Y-77344975D01*
X166928482Y-77344981D01*
X166816678Y-77456786D01*
X165425284Y-78848181D01*
X165363961Y-78881666D01*
X165337603Y-78884500D01*
X158982000Y-78884500D01*
X158914961Y-78864815D01*
X158869206Y-78812011D01*
X158858000Y-78760500D01*
X158858000Y-78465000D01*
X157941012Y-78465000D01*
X157973925Y-78407993D01*
X158008000Y-78280826D01*
X158008000Y-78149174D01*
X157973925Y-78022007D01*
X157941012Y-77965000D01*
X158858000Y-77965000D01*
X158858000Y-77317172D01*
X158857999Y-77317155D01*
X158851598Y-77257627D01*
X158851596Y-77257620D01*
X158801354Y-77122913D01*
X158801350Y-77122906D01*
X158715190Y-77007812D01*
X158715187Y-77007809D01*
X158600093Y-76921649D01*
X158600086Y-76921645D01*
X158465379Y-76871403D01*
X158465372Y-76871401D01*
X158405844Y-76865000D01*
X157758000Y-76865000D01*
X157758000Y-77781988D01*
X157700993Y-77749075D01*
X157573826Y-77715000D01*
X157442174Y-77715000D01*
X157315007Y-77749075D01*
X157258000Y-77781988D01*
X157258000Y-76865000D01*
X156610155Y-76865000D01*
X156550627Y-76871401D01*
X156550620Y-76871403D01*
X156415913Y-76921645D01*
X156415906Y-76921649D01*
X156300812Y-77007809D01*
X156300809Y-77007812D01*
X156214649Y-77122906D01*
X156214645Y-77122913D01*
X156164403Y-77257620D01*
X156164401Y-77257627D01*
X156158000Y-77317155D01*
X156158000Y-77965000D01*
X157074988Y-77965000D01*
X157042075Y-78022007D01*
X157008000Y-78149174D01*
X157008000Y-78280826D01*
X157042075Y-78407993D01*
X157074988Y-78465000D01*
X156158000Y-78465000D01*
X156158000Y-78760500D01*
X156138315Y-78827539D01*
X156085511Y-78873294D01*
X156034000Y-78884500D01*
X154382000Y-78884500D01*
X154314961Y-78864815D01*
X154269206Y-78812011D01*
X154258000Y-78760500D01*
X154258000Y-78465000D01*
X153341012Y-78465000D01*
X153373925Y-78407993D01*
X153408000Y-78280826D01*
X153408000Y-78149174D01*
X153373925Y-78022007D01*
X153341012Y-77965000D01*
X154258000Y-77965000D01*
X154258000Y-77317172D01*
X154257999Y-77317155D01*
X154251598Y-77257627D01*
X154251596Y-77257620D01*
X154201354Y-77122913D01*
X154201350Y-77122906D01*
X154115190Y-77007812D01*
X154115187Y-77007809D01*
X154000093Y-76921649D01*
X154000086Y-76921645D01*
X153865379Y-76871403D01*
X153865372Y-76871401D01*
X153805844Y-76865000D01*
X153158000Y-76865000D01*
X153158000Y-77781988D01*
X153100993Y-77749075D01*
X152973826Y-77715000D01*
X152842174Y-77715000D01*
X152715007Y-77749075D01*
X152658000Y-77781988D01*
X152658000Y-76865000D01*
X152010155Y-76865000D01*
X151950627Y-76871401D01*
X151950620Y-76871403D01*
X151815913Y-76921645D01*
X151815906Y-76921649D01*
X151700812Y-77007809D01*
X151700809Y-77007812D01*
X151614649Y-77122906D01*
X151614645Y-77122913D01*
X151564403Y-77257620D01*
X151564401Y-77257627D01*
X151558000Y-77317155D01*
X151558000Y-77517303D01*
X151538315Y-77584342D01*
X151485511Y-77630097D01*
X151416353Y-77640041D01*
X151352797Y-77611016D01*
X151346319Y-77604984D01*
X150356216Y-76614881D01*
X150322731Y-76553558D01*
X150327715Y-76483866D01*
X150369587Y-76427933D01*
X150435051Y-76403516D01*
X150443897Y-76403200D01*
X178025105Y-76403200D01*
X178092144Y-76422885D01*
G37*
G04 #@! TD.AperFunction*
G04 #@! TA.AperFunction,Conductor*
G36*
X175763242Y-45570885D02*
G01*
X175783884Y-45587519D01*
X177459425Y-47263060D01*
X177492910Y-47324383D01*
X177493361Y-47326549D01*
X177524261Y-47481891D01*
X177524264Y-47481901D01*
X177581486Y-47620048D01*
X177588955Y-47689517D01*
X177557680Y-47751996D01*
X177497590Y-47787648D01*
X177466925Y-47791500D01*
X175119568Y-47791500D01*
X174840505Y-47822942D01*
X174840487Y-47822945D01*
X174566682Y-47885439D01*
X174566670Y-47885443D01*
X174301588Y-47978200D01*
X174298363Y-47979536D01*
X174297942Y-47978520D01*
X174249822Y-47989500D01*
X171682807Y-47989500D01*
X171615768Y-47969815D01*
X171570013Y-47917011D01*
X171560069Y-47847853D01*
X171589094Y-47784297D01*
X171647872Y-47746523D01*
X171663409Y-47743027D01*
X171766127Y-47726757D01*
X171766130Y-47726757D01*
X171968217Y-47661095D01*
X172157557Y-47564620D01*
X172329459Y-47439727D01*
X172329464Y-47439723D01*
X172479723Y-47289464D01*
X172479727Y-47289459D01*
X172604620Y-47117557D01*
X172701095Y-46928217D01*
X172766757Y-46726130D01*
X172766757Y-46726127D01*
X172797030Y-46535000D01*
X171854146Y-46535000D01*
X171892630Y-46468343D01*
X171925000Y-46347535D01*
X171925000Y-46222465D01*
X171892630Y-46101657D01*
X171854146Y-46035000D01*
X172797030Y-46035000D01*
X172766757Y-45843872D01*
X172766757Y-45843869D01*
X172724404Y-45713518D01*
X172722409Y-45643676D01*
X172758490Y-45583844D01*
X172821191Y-45553016D01*
X172842335Y-45551200D01*
X175696203Y-45551200D01*
X175763242Y-45570885D01*
G37*
G04 #@! TD.AperFunction*
G04 #@! TA.AperFunction,Conductor*
G36*
X155536352Y-45559125D02*
G01*
X155564074Y-45563923D01*
X155569428Y-45568837D01*
X155576401Y-45570885D01*
X155594820Y-45592142D01*
X155615549Y-45611167D01*
X155617396Y-45618196D01*
X155622156Y-45623689D01*
X155626159Y-45651535D01*
X155633311Y-45678741D01*
X155631541Y-45688964D01*
X155632100Y-45692847D01*
X155627294Y-45713509D01*
X155584631Y-45844815D01*
X155567753Y-45896760D01*
X155534500Y-46106713D01*
X155534500Y-46569286D01*
X155566577Y-46771815D01*
X155567754Y-46779243D01*
X155622664Y-46948239D01*
X155633444Y-46981414D01*
X155729951Y-47170820D01*
X155854890Y-47342786D01*
X156005209Y-47493105D01*
X156005214Y-47493109D01*
X156053625Y-47528282D01*
X156096291Y-47583612D01*
X156102270Y-47653225D01*
X156069664Y-47715020D01*
X156008826Y-47749377D01*
X155980740Y-47752600D01*
X153156130Y-47752600D01*
X153089091Y-47732915D01*
X153043336Y-47680111D01*
X153033392Y-47610953D01*
X153062417Y-47547397D01*
X153068449Y-47540919D01*
X153077712Y-47531656D01*
X153169814Y-47382334D01*
X153224999Y-47215797D01*
X153235500Y-47113009D01*
X153235499Y-45675199D01*
X153255184Y-45608161D01*
X153307987Y-45562406D01*
X153359499Y-45551200D01*
X155509362Y-45551200D01*
X155536352Y-45559125D01*
G37*
G04 #@! TD.AperFunction*
M02*
