M48
; DRILL file {KiCad 9.0.7} date 2026-03-15T00:28:57+0900
; FORMAT={-:-/ absolute / metric / decimal}
; #@! TF.CreationDate,2026-03-15T00:28:57+09:00
; #@! TF.GenerationSoftware,Kicad,Pcbnew,9.0.7
; #@! TF.FileFunction,Plated,1,2,PTH
FMAT,2
METRIC
; #@! TA.AperFunction,Plated,PTH,ViaDrill
T1C0.300
; #@! TA.AperFunction,Plated,PTH,ComponentDrill
T2C0.800
; #@! TA.AperFunction,Plated,PTH,ComponentDrill
T3C0.900
; #@! TA.AperFunction,Plated,PTH,ComponentDrill
T4C0.950
; #@! TA.AperFunction,Plated,PTH,ComponentDrill
T5C1.000
; #@! TA.AperFunction,Plated,PTH,ComponentDrill
T6C4.550
%
G90
G05
T1
X98.044Y-47.752
X98.044Y-54.61
X98.044Y-117.856
X98.044Y-127.508
X98.044Y-135.128
X102.362Y-62.992
X102.362Y-73.66
X102.362Y-84.328
X102.362Y-93.726
X102.362Y-102.616
X102.362Y-110.744
X107.95Y-48.26
X107.95Y-135.128
X111.506Y-115.824
X113.235Y-104.44
X114.046Y-57.658
X114.056Y-96.42
X114.056Y-105.261
X115.316Y-66.04
X115.316Y-85.344
X116.252Y-101.522
X117.348Y-121.92
X118.11Y-44.45
X118.872Y-95.504
X118.872Y-100.076
X118.872Y-103.632
X118.872Y-111.76
X119.38Y-57.912
X119.38Y-64.262
X119.38Y-72.136
X119.634Y-130.556
X119.95Y-122.944
X120.904Y-83.566
X121.412Y-111.76
X122.174Y-100.076
X122.428Y-94.742
X122.428Y-103.632
X122.897Y-137.679
X127.0Y-65.024
X127.254Y-57.912
X128.016Y-44.196
X130.302Y-63.246
X130.715Y-66.062
X131.04Y-66.949
X131.064Y-56.896
X131.737Y-49.266
X132.055Y-93.473
X134.112Y-137.668
X134.738Y-81.678
X137.633Y-90.872
X138.176Y-44.196
X140.58Y-86.555
X142.555Y-100.314
X143.156Y-51.912
X143.256Y-127.762
X144.272Y-137.414
X146.304Y-71.374
X147.32Y-50.038
X147.828Y-55.626
X148.082Y-43.434
X148.59Y-62.23
X149.346Y-117.05
X149.421Y-105.26
X151.476Y-78.584
X151.601Y-122.665
X152.654Y-71.628
X153.924Y-137.414
X155.006Y-96.42
X155.136Y-120.125
X155.194Y-62.23
X155.448Y-56.642
X156.718Y-50.546
X159.047Y-109.012
X159.047Y-123.591
X159.766Y-77.724
X160.012Y-90.28
X160.388Y-95.6
X161.207Y-96.423
X162.56Y-63.246
X162.724Y-113.827
X162.814Y-43.434
X163.068Y-137.414
X163.322Y-53.34
X164.084Y-70.612
X164.084Y-77.724
X164.338Y-112.776
X165.1Y-58.166
X165.354Y-120.65
X168.656Y-129.54
X168.91Y-76.835
X168.91Y-112.522
X169.926Y-117.602
X170.049Y-75.01
X170.2Y-60.38
X171.196Y-137.668
X172.212Y-76.835
X173.228Y-43.434
X173.228Y-107.95
X173.228Y-121.412
X176.784Y-98.298
X178.294Y-47.248
X178.816Y-111.76
X178.892Y-76.205
X180.34Y-101.6
X180.594Y-91.44
X181.839Y-114.102
X183.642Y-59.436
X184.658Y-68.834
X188.214Y-106.934
X188.214Y-116.078
X188.214Y-123.952
X188.214Y-130.556
X188.214Y-136.906
X188.468Y-98.298
X190.802Y-75.79
X191.897Y-80.899
X192.024Y-88.138
X192.786Y-44.704
X193.294Y-55.372
X193.294Y-69.596
T2
X165.378Y-122.96
X165.378Y-127.01
X166.638Y-87.63
X166.638Y-90.17
X166.638Y-92.71
X166.638Y-95.25
X166.638Y-97.79
X166.638Y-100.33
X166.638Y-102.87
X166.638Y-105.41
X166.643Y-110.49
X166.643Y-113.03
X166.643Y-115.57
X166.643Y-118.11
X174.258Y-87.63
X174.258Y-90.17
X174.258Y-92.71
X174.258Y-95.25
X174.258Y-97.79
X174.258Y-100.33
X174.258Y-102.87
X174.258Y-105.41
X174.263Y-110.49
X174.263Y-113.03
X174.263Y-115.57
X174.263Y-118.11
X175.538Y-122.96
X175.538Y-127.01
T3
X154.666Y-64.933
X157.206Y-64.933
T4
X151.885Y-46.338
X151.885Y-54.138
X154.385Y-46.338
X154.385Y-54.138
X156.885Y-46.338
X156.885Y-54.138
X159.385Y-46.338
X159.385Y-54.138
X166.45Y-46.285
X166.45Y-54.085
X166.45Y-61.885
X166.45Y-69.685
X168.95Y-46.285
X168.95Y-54.085
X168.95Y-61.885
X168.95Y-69.685
X171.45Y-46.285
X171.45Y-54.085
X171.45Y-61.885
X171.45Y-69.685
T5
X101.6Y-114.3
X101.6Y-116.84
X101.6Y-119.38
X101.6Y-121.92
X101.6Y-124.46
X101.6Y-127.0
X101.6Y-129.54
X101.6Y-132.08
X101.6Y-134.62
X101.6Y-137.16
X101.6Y-139.7
X112.0Y-61.976
X112.0Y-69.776
X112.0Y-77.576
X112.04Y-46.338
X112.04Y-54.138
X114.5Y-61.976
X114.5Y-69.776
X114.5Y-77.576
X114.54Y-46.338
X114.54Y-54.138
X121.96Y-46.482
X121.96Y-54.282
X121.96Y-62.082
X121.96Y-69.882
X124.46Y-46.482
X124.46Y-54.282
X124.46Y-62.082
X124.46Y-69.882
X125.448Y-78.215
X125.448Y-80.755
X125.448Y-83.295
X125.448Y-85.835
X125.448Y-88.375
X125.448Y-90.915
X125.448Y-93.455
X125.448Y-95.995
X125.448Y-98.535
X125.448Y-101.075
X125.448Y-103.615
X125.448Y-106.155
X125.448Y-108.695
X125.448Y-111.235
X125.448Y-113.775
X125.448Y-116.315
X125.448Y-118.855
X125.448Y-121.395
X125.448Y-123.935
X125.448Y-126.475
X125.448Y-129.015
X125.448Y-131.555
X130.048Y-78.215
X130.048Y-80.755
X130.048Y-83.295
X130.048Y-85.835
X130.048Y-88.375
X130.048Y-90.915
X130.048Y-93.455
X130.048Y-95.995
X130.048Y-98.535
X130.048Y-101.075
X130.048Y-103.615
X130.048Y-106.155
X130.048Y-108.695
X130.048Y-111.235
X130.048Y-113.775
X130.048Y-116.315
X130.048Y-118.855
X130.048Y-121.395
X130.048Y-123.935
X130.048Y-126.475
X130.048Y-129.015
X130.048Y-131.555
X131.914Y-61.705
X131.954Y-46.465
X131.954Y-54.085
X134.414Y-61.705
X134.454Y-46.465
X134.454Y-54.085
X141.859Y-46.465
X141.859Y-54.085
X141.859Y-61.705
X144.359Y-46.465
X144.359Y-54.085
X144.359Y-61.705
X152.908Y-78.215
X152.908Y-80.755
X152.908Y-83.295
X152.908Y-85.835
X152.908Y-88.375
X152.908Y-90.915
X152.908Y-93.455
X152.908Y-95.995
X152.908Y-98.535
X152.908Y-101.075
X152.908Y-103.615
X152.908Y-106.155
X152.908Y-108.695
X152.908Y-111.235
X152.908Y-113.775
X152.908Y-116.315
X152.908Y-118.855
X152.908Y-121.395
X152.908Y-123.935
X152.908Y-126.475
X152.908Y-129.015
X152.908Y-131.555
X157.508Y-78.215
X157.508Y-80.755
X157.508Y-83.295
X157.508Y-85.835
X157.508Y-88.375
X157.508Y-90.915
X157.508Y-93.455
X157.508Y-95.995
X157.508Y-98.535
X157.508Y-101.075
X157.508Y-103.615
X157.508Y-106.155
X157.508Y-108.695
X157.508Y-111.235
X157.508Y-113.775
X157.508Y-116.315
X157.508Y-118.855
X157.508Y-121.395
X157.508Y-123.935
X157.508Y-126.475
X157.508Y-129.015
X157.508Y-131.555
X188.6Y-68.58
X188.6Y-71.12
X188.6Y-73.66
X188.6Y-76.2
X188.6Y-78.74
X188.6Y-81.28
X188.6Y-83.82
X188.6Y-86.36
X188.6Y-88.9
X188.6Y-91.44
X188.6Y-93.98
X190.5Y-58.166
X190.5Y-60.706
T6
X102.616Y-46.99
X102.616Y-54.19
X181.82Y-50.292
X189.02Y-50.292
M30
