%TF.GenerationSoftware,KiCad,Pcbnew,9.0.7*%
%TF.CreationDate,2026-03-15T00:28:57+09:00*%
%TF.ProjectId,ESP32-S3-ROS-IO-V2.0a,45535033-322d-4533-932d-524f532d494f,rev?*%
%TF.SameCoordinates,Original*%
%TF.FileFunction,Drillmap*%
%TF.FilePolarity,Positive*%
%FSLAX45Y45*%
G04 Gerber Fmt 4.5, Leading zero omitted, Abs format (unit mm)*
G04 Created by KiCad (PCBNEW 9.0.7) date 2026-03-15 00:28:57*
%MOMM*%
%LPD*%
G01*
G04 APERTURE LIST*
%ADD10C,0.050000*%
%ADD11C,0.200000*%
%ADD12C,0.320000*%
G04 APERTURE END LIST*
D10*
X19500000Y-13900000D02*
G75*
G02*
X19200000Y-14200000I-300000J0D01*
G01*
X19500000Y-4500000D02*
X19500000Y-13900000D01*
X9800000Y-4200000D02*
X19200000Y-4200000D01*
X9800000Y-14200000D02*
X19200000Y-14200000D01*
X19200000Y-4200000D02*
G75*
G02*
X19500000Y-4500000I0J-300000D01*
G01*
X9500000Y-4500000D02*
G75*
G02*
X9800000Y-4200000I300000J0D01*
G01*
X9800000Y-14200000D02*
G75*
G02*
X9500000Y-13900000I0J300000D01*
G01*
X9500000Y-13900000D02*
X9500000Y-4500000D01*
D11*
D12*
X11340000Y-8840000D02*
X11660000Y-9160000D01*
X11660000Y-8840000D02*
X11340000Y-9160000D01*
X11340000Y-13340000D02*
X11660000Y-13660000D01*
X11660000Y-13340000D02*
X11340000Y-13660000D01*
X17340000Y-7840000D02*
X17660000Y-8160000D01*
X17660000Y-7840000D02*
X17340000Y-8160000D01*
X17340000Y-13340000D02*
X17660000Y-13660000D01*
X17660000Y-13340000D02*
X17340000Y-13660000D01*
D11*
X9758277Y-14513984D02*
X9758277Y-14313984D01*
X9758277Y-14313984D02*
X9805896Y-14313984D01*
X9805896Y-14313984D02*
X9834467Y-14323508D01*
X9834467Y-14323508D02*
X9853515Y-14342555D01*
X9853515Y-14342555D02*
X9863039Y-14361603D01*
X9863039Y-14361603D02*
X9872563Y-14399698D01*
X9872563Y-14399698D02*
X9872563Y-14428269D01*
X9872563Y-14428269D02*
X9863039Y-14466365D01*
X9863039Y-14466365D02*
X9853515Y-14485412D01*
X9853515Y-14485412D02*
X9834467Y-14504460D01*
X9834467Y-14504460D02*
X9805896Y-14513984D01*
X9805896Y-14513984D02*
X9758277Y-14513984D01*
X9958277Y-14513984D02*
X9958277Y-14380650D01*
X9958277Y-14418746D02*
X9967801Y-14399698D01*
X9967801Y-14399698D02*
X9977324Y-14390174D01*
X9977324Y-14390174D02*
X9996372Y-14380650D01*
X9996372Y-14380650D02*
X10015420Y-14380650D01*
X10082086Y-14513984D02*
X10082086Y-14380650D01*
X10082086Y-14313984D02*
X10072563Y-14323508D01*
X10072563Y-14323508D02*
X10082086Y-14333031D01*
X10082086Y-14333031D02*
X10091610Y-14323508D01*
X10091610Y-14323508D02*
X10082086Y-14313984D01*
X10082086Y-14313984D02*
X10082086Y-14333031D01*
X10205896Y-14513984D02*
X10186848Y-14504460D01*
X10186848Y-14504460D02*
X10177324Y-14485412D01*
X10177324Y-14485412D02*
X10177324Y-14313984D01*
X10310658Y-14513984D02*
X10291610Y-14504460D01*
X10291610Y-14504460D02*
X10282086Y-14485412D01*
X10282086Y-14485412D02*
X10282086Y-14313984D01*
X10539229Y-14513984D02*
X10539229Y-14313984D01*
X10539229Y-14313984D02*
X10605896Y-14456841D01*
X10605896Y-14456841D02*
X10672563Y-14313984D01*
X10672563Y-14313984D02*
X10672563Y-14513984D01*
X10853515Y-14513984D02*
X10853515Y-14409222D01*
X10853515Y-14409222D02*
X10843991Y-14390174D01*
X10843991Y-14390174D02*
X10824944Y-14380650D01*
X10824944Y-14380650D02*
X10786848Y-14380650D01*
X10786848Y-14380650D02*
X10767801Y-14390174D01*
X10853515Y-14504460D02*
X10834467Y-14513984D01*
X10834467Y-14513984D02*
X10786848Y-14513984D01*
X10786848Y-14513984D02*
X10767801Y-14504460D01*
X10767801Y-14504460D02*
X10758277Y-14485412D01*
X10758277Y-14485412D02*
X10758277Y-14466365D01*
X10758277Y-14466365D02*
X10767801Y-14447317D01*
X10767801Y-14447317D02*
X10786848Y-14437793D01*
X10786848Y-14437793D02*
X10834467Y-14437793D01*
X10834467Y-14437793D02*
X10853515Y-14428269D01*
X10948753Y-14380650D02*
X10948753Y-14580650D01*
X10948753Y-14390174D02*
X10967801Y-14380650D01*
X10967801Y-14380650D02*
X11005896Y-14380650D01*
X11005896Y-14380650D02*
X11024944Y-14390174D01*
X11024944Y-14390174D02*
X11034467Y-14399698D01*
X11034467Y-14399698D02*
X11043991Y-14418746D01*
X11043991Y-14418746D02*
X11043991Y-14475888D01*
X11043991Y-14475888D02*
X11034467Y-14494936D01*
X11034467Y-14494936D02*
X11024944Y-14504460D01*
X11024944Y-14504460D02*
X11005896Y-14513984D01*
X11005896Y-14513984D02*
X10967801Y-14513984D01*
X10967801Y-14513984D02*
X10948753Y-14504460D01*
X11129705Y-14494936D02*
X11139229Y-14504460D01*
X11139229Y-14504460D02*
X11129705Y-14513984D01*
X11129705Y-14513984D02*
X11120182Y-14504460D01*
X11120182Y-14504460D02*
X11129705Y-14494936D01*
X11129705Y-14494936D02*
X11129705Y-14513984D01*
X11129705Y-14390174D02*
X11139229Y-14399698D01*
X11139229Y-14399698D02*
X11129705Y-14409222D01*
X11129705Y-14409222D02*
X11120182Y-14399698D01*
X11120182Y-14399698D02*
X11129705Y-14390174D01*
X11129705Y-14390174D02*
X11129705Y-14409222D01*
X9297500Y-14742500D02*
X9497500Y-14942500D01*
X9497500Y-14742500D02*
X9297500Y-14942500D01*
X9739229Y-14733984D02*
X9863039Y-14733984D01*
X9863039Y-14733984D02*
X9796372Y-14810174D01*
X9796372Y-14810174D02*
X9824944Y-14810174D01*
X9824944Y-14810174D02*
X9843991Y-14819698D01*
X9843991Y-14819698D02*
X9853515Y-14829222D01*
X9853515Y-14829222D02*
X9863039Y-14848269D01*
X9863039Y-14848269D02*
X9863039Y-14895888D01*
X9863039Y-14895888D02*
X9853515Y-14914936D01*
X9853515Y-14914936D02*
X9843991Y-14924460D01*
X9843991Y-14924460D02*
X9824944Y-14933984D01*
X9824944Y-14933984D02*
X9767801Y-14933984D01*
X9767801Y-14933984D02*
X9748753Y-14924460D01*
X9748753Y-14924460D02*
X9739229Y-14914936D01*
X9948753Y-14914936D02*
X9958277Y-14924460D01*
X9958277Y-14924460D02*
X9948753Y-14933984D01*
X9948753Y-14933984D02*
X9939229Y-14924460D01*
X9939229Y-14924460D02*
X9948753Y-14914936D01*
X9948753Y-14914936D02*
X9948753Y-14933984D01*
X10034467Y-14753031D02*
X10043991Y-14743508D01*
X10043991Y-14743508D02*
X10063039Y-14733984D01*
X10063039Y-14733984D02*
X10110658Y-14733984D01*
X10110658Y-14733984D02*
X10129705Y-14743508D01*
X10129705Y-14743508D02*
X10139229Y-14753031D01*
X10139229Y-14753031D02*
X10148753Y-14772079D01*
X10148753Y-14772079D02*
X10148753Y-14791127D01*
X10148753Y-14791127D02*
X10139229Y-14819698D01*
X10139229Y-14819698D02*
X10024944Y-14933984D01*
X10024944Y-14933984D02*
X10148753Y-14933984D01*
X10272563Y-14733984D02*
X10291610Y-14733984D01*
X10291610Y-14733984D02*
X10310658Y-14743508D01*
X10310658Y-14743508D02*
X10320182Y-14753031D01*
X10320182Y-14753031D02*
X10329705Y-14772079D01*
X10329705Y-14772079D02*
X10339229Y-14810174D01*
X10339229Y-14810174D02*
X10339229Y-14857793D01*
X10339229Y-14857793D02*
X10329705Y-14895888D01*
X10329705Y-14895888D02*
X10320182Y-14914936D01*
X10320182Y-14914936D02*
X10310658Y-14924460D01*
X10310658Y-14924460D02*
X10291610Y-14933984D01*
X10291610Y-14933984D02*
X10272563Y-14933984D01*
X10272563Y-14933984D02*
X10253515Y-14924460D01*
X10253515Y-14924460D02*
X10243991Y-14914936D01*
X10243991Y-14914936D02*
X10234467Y-14895888D01*
X10234467Y-14895888D02*
X10224944Y-14857793D01*
X10224944Y-14857793D02*
X10224944Y-14810174D01*
X10224944Y-14810174D02*
X10234467Y-14772079D01*
X10234467Y-14772079D02*
X10243991Y-14753031D01*
X10243991Y-14753031D02*
X10253515Y-14743508D01*
X10253515Y-14743508D02*
X10272563Y-14733984D01*
X10463039Y-14733984D02*
X10482086Y-14733984D01*
X10482086Y-14733984D02*
X10501134Y-14743508D01*
X10501134Y-14743508D02*
X10510658Y-14753031D01*
X10510658Y-14753031D02*
X10520182Y-14772079D01*
X10520182Y-14772079D02*
X10529705Y-14810174D01*
X10529705Y-14810174D02*
X10529705Y-14857793D01*
X10529705Y-14857793D02*
X10520182Y-14895888D01*
X10520182Y-14895888D02*
X10510658Y-14914936D01*
X10510658Y-14914936D02*
X10501134Y-14924460D01*
X10501134Y-14924460D02*
X10482086Y-14933984D01*
X10482086Y-14933984D02*
X10463039Y-14933984D01*
X10463039Y-14933984D02*
X10443991Y-14924460D01*
X10443991Y-14924460D02*
X10434467Y-14914936D01*
X10434467Y-14914936D02*
X10424944Y-14895888D01*
X10424944Y-14895888D02*
X10415420Y-14857793D01*
X10415420Y-14857793D02*
X10415420Y-14810174D01*
X10415420Y-14810174D02*
X10424944Y-14772079D01*
X10424944Y-14772079D02*
X10434467Y-14753031D01*
X10434467Y-14753031D02*
X10443991Y-14743508D01*
X10443991Y-14743508D02*
X10463039Y-14733984D01*
X10615420Y-14933984D02*
X10615420Y-14800650D01*
X10615420Y-14819698D02*
X10624944Y-14810174D01*
X10624944Y-14810174D02*
X10643991Y-14800650D01*
X10643991Y-14800650D02*
X10672563Y-14800650D01*
X10672563Y-14800650D02*
X10691610Y-14810174D01*
X10691610Y-14810174D02*
X10701134Y-14829222D01*
X10701134Y-14829222D02*
X10701134Y-14933984D01*
X10701134Y-14829222D02*
X10710658Y-14810174D01*
X10710658Y-14810174D02*
X10729705Y-14800650D01*
X10729705Y-14800650D02*
X10758277Y-14800650D01*
X10758277Y-14800650D02*
X10777325Y-14810174D01*
X10777325Y-14810174D02*
X10786848Y-14829222D01*
X10786848Y-14829222D02*
X10786848Y-14933984D01*
X10882086Y-14933984D02*
X10882086Y-14800650D01*
X10882086Y-14819698D02*
X10891610Y-14810174D01*
X10891610Y-14810174D02*
X10910658Y-14800650D01*
X10910658Y-14800650D02*
X10939229Y-14800650D01*
X10939229Y-14800650D02*
X10958277Y-14810174D01*
X10958277Y-14810174D02*
X10967801Y-14829222D01*
X10967801Y-14829222D02*
X10967801Y-14933984D01*
X10967801Y-14829222D02*
X10977325Y-14810174D01*
X10977325Y-14810174D02*
X10996372Y-14800650D01*
X10996372Y-14800650D02*
X11024944Y-14800650D01*
X11024944Y-14800650D02*
X11043991Y-14810174D01*
X11043991Y-14810174D02*
X11053515Y-14829222D01*
X11053515Y-14829222D02*
X11053515Y-14933984D01*
X11443991Y-14724460D02*
X11272563Y-14981603D01*
X11701134Y-14733984D02*
X11720182Y-14733984D01*
X11720182Y-14733984D02*
X11739229Y-14743508D01*
X11739229Y-14743508D02*
X11748753Y-14753031D01*
X11748753Y-14753031D02*
X11758277Y-14772079D01*
X11758277Y-14772079D02*
X11767801Y-14810174D01*
X11767801Y-14810174D02*
X11767801Y-14857793D01*
X11767801Y-14857793D02*
X11758277Y-14895888D01*
X11758277Y-14895888D02*
X11748753Y-14914936D01*
X11748753Y-14914936D02*
X11739229Y-14924460D01*
X11739229Y-14924460D02*
X11720182Y-14933984D01*
X11720182Y-14933984D02*
X11701134Y-14933984D01*
X11701134Y-14933984D02*
X11682086Y-14924460D01*
X11682086Y-14924460D02*
X11672563Y-14914936D01*
X11672563Y-14914936D02*
X11663039Y-14895888D01*
X11663039Y-14895888D02*
X11653515Y-14857793D01*
X11653515Y-14857793D02*
X11653515Y-14810174D01*
X11653515Y-14810174D02*
X11663039Y-14772079D01*
X11663039Y-14772079D02*
X11672563Y-14753031D01*
X11672563Y-14753031D02*
X11682086Y-14743508D01*
X11682086Y-14743508D02*
X11701134Y-14733984D01*
X11853515Y-14914936D02*
X11863039Y-14924460D01*
X11863039Y-14924460D02*
X11853515Y-14933984D01*
X11853515Y-14933984D02*
X11843991Y-14924460D01*
X11843991Y-14924460D02*
X11853515Y-14914936D01*
X11853515Y-14914936D02*
X11853515Y-14933984D01*
X12053515Y-14933984D02*
X11939229Y-14933984D01*
X11996372Y-14933984D02*
X11996372Y-14733984D01*
X11996372Y-14733984D02*
X11977325Y-14762555D01*
X11977325Y-14762555D02*
X11958277Y-14781603D01*
X11958277Y-14781603D02*
X11939229Y-14791127D01*
X12129706Y-14753031D02*
X12139229Y-14743508D01*
X12139229Y-14743508D02*
X12158277Y-14733984D01*
X12158277Y-14733984D02*
X12205896Y-14733984D01*
X12205896Y-14733984D02*
X12224944Y-14743508D01*
X12224944Y-14743508D02*
X12234467Y-14753031D01*
X12234467Y-14753031D02*
X12243991Y-14772079D01*
X12243991Y-14772079D02*
X12243991Y-14791127D01*
X12243991Y-14791127D02*
X12234467Y-14819698D01*
X12234467Y-14819698D02*
X12120182Y-14933984D01*
X12120182Y-14933984D02*
X12243991Y-14933984D01*
X12415420Y-14733984D02*
X12377325Y-14733984D01*
X12377325Y-14733984D02*
X12358277Y-14743508D01*
X12358277Y-14743508D02*
X12348753Y-14753031D01*
X12348753Y-14753031D02*
X12329706Y-14781603D01*
X12329706Y-14781603D02*
X12320182Y-14819698D01*
X12320182Y-14819698D02*
X12320182Y-14895888D01*
X12320182Y-14895888D02*
X12329706Y-14914936D01*
X12329706Y-14914936D02*
X12339229Y-14924460D01*
X12339229Y-14924460D02*
X12358277Y-14933984D01*
X12358277Y-14933984D02*
X12396372Y-14933984D01*
X12396372Y-14933984D02*
X12415420Y-14924460D01*
X12415420Y-14924460D02*
X12424944Y-14914936D01*
X12424944Y-14914936D02*
X12434467Y-14895888D01*
X12434467Y-14895888D02*
X12434467Y-14848269D01*
X12434467Y-14848269D02*
X12424944Y-14829222D01*
X12424944Y-14829222D02*
X12415420Y-14819698D01*
X12415420Y-14819698D02*
X12396372Y-14810174D01*
X12396372Y-14810174D02*
X12358277Y-14810174D01*
X12358277Y-14810174D02*
X12339229Y-14819698D01*
X12339229Y-14819698D02*
X12329706Y-14829222D01*
X12329706Y-14829222D02*
X12320182Y-14848269D01*
X12558277Y-14733984D02*
X12577325Y-14733984D01*
X12577325Y-14733984D02*
X12596372Y-14743508D01*
X12596372Y-14743508D02*
X12605896Y-14753031D01*
X12605896Y-14753031D02*
X12615420Y-14772079D01*
X12615420Y-14772079D02*
X12624944Y-14810174D01*
X12624944Y-14810174D02*
X12624944Y-14857793D01*
X12624944Y-14857793D02*
X12615420Y-14895888D01*
X12615420Y-14895888D02*
X12605896Y-14914936D01*
X12605896Y-14914936D02*
X12596372Y-14924460D01*
X12596372Y-14924460D02*
X12577325Y-14933984D01*
X12577325Y-14933984D02*
X12558277Y-14933984D01*
X12558277Y-14933984D02*
X12539229Y-14924460D01*
X12539229Y-14924460D02*
X12529706Y-14914936D01*
X12529706Y-14914936D02*
X12520182Y-14895888D01*
X12520182Y-14895888D02*
X12510658Y-14857793D01*
X12510658Y-14857793D02*
X12510658Y-14810174D01*
X12510658Y-14810174D02*
X12520182Y-14772079D01*
X12520182Y-14772079D02*
X12529706Y-14753031D01*
X12529706Y-14753031D02*
X12539229Y-14743508D01*
X12539229Y-14743508D02*
X12558277Y-14733984D01*
X12701134Y-14733984D02*
X12701134Y-14772079D01*
X12777325Y-14733984D02*
X12777325Y-14772079D01*
X13072563Y-15010174D02*
X13063039Y-15000650D01*
X13063039Y-15000650D02*
X13043991Y-14972079D01*
X13043991Y-14972079D02*
X13034468Y-14953031D01*
X13034468Y-14953031D02*
X13024944Y-14924460D01*
X13024944Y-14924460D02*
X13015420Y-14876841D01*
X13015420Y-14876841D02*
X13015420Y-14838746D01*
X13015420Y-14838746D02*
X13024944Y-14791127D01*
X13024944Y-14791127D02*
X13034468Y-14762555D01*
X13034468Y-14762555D02*
X13043991Y-14743508D01*
X13043991Y-14743508D02*
X13063039Y-14714936D01*
X13063039Y-14714936D02*
X13072563Y-14705412D01*
X13234468Y-14800650D02*
X13234468Y-14933984D01*
X13186848Y-14724460D02*
X13139229Y-14867317D01*
X13139229Y-14867317D02*
X13263039Y-14867317D01*
X13491610Y-14933984D02*
X13491610Y-14733984D01*
X13577325Y-14933984D02*
X13577325Y-14829222D01*
X13577325Y-14829222D02*
X13567801Y-14810174D01*
X13567801Y-14810174D02*
X13548753Y-14800650D01*
X13548753Y-14800650D02*
X13520182Y-14800650D01*
X13520182Y-14800650D02*
X13501134Y-14810174D01*
X13501134Y-14810174D02*
X13491610Y-14819698D01*
X13701134Y-14933984D02*
X13682087Y-14924460D01*
X13682087Y-14924460D02*
X13672563Y-14914936D01*
X13672563Y-14914936D02*
X13663039Y-14895888D01*
X13663039Y-14895888D02*
X13663039Y-14838746D01*
X13663039Y-14838746D02*
X13672563Y-14819698D01*
X13672563Y-14819698D02*
X13682087Y-14810174D01*
X13682087Y-14810174D02*
X13701134Y-14800650D01*
X13701134Y-14800650D02*
X13729706Y-14800650D01*
X13729706Y-14800650D02*
X13748753Y-14810174D01*
X13748753Y-14810174D02*
X13758277Y-14819698D01*
X13758277Y-14819698D02*
X13767801Y-14838746D01*
X13767801Y-14838746D02*
X13767801Y-14895888D01*
X13767801Y-14895888D02*
X13758277Y-14914936D01*
X13758277Y-14914936D02*
X13748753Y-14924460D01*
X13748753Y-14924460D02*
X13729706Y-14933984D01*
X13729706Y-14933984D02*
X13701134Y-14933984D01*
X13882087Y-14933984D02*
X13863039Y-14924460D01*
X13863039Y-14924460D02*
X13853515Y-14905412D01*
X13853515Y-14905412D02*
X13853515Y-14733984D01*
X14034468Y-14924460D02*
X14015420Y-14933984D01*
X14015420Y-14933984D02*
X13977325Y-14933984D01*
X13977325Y-14933984D02*
X13958277Y-14924460D01*
X13958277Y-14924460D02*
X13948753Y-14905412D01*
X13948753Y-14905412D02*
X13948753Y-14829222D01*
X13948753Y-14829222D02*
X13958277Y-14810174D01*
X13958277Y-14810174D02*
X13977325Y-14800650D01*
X13977325Y-14800650D02*
X14015420Y-14800650D01*
X14015420Y-14800650D02*
X14034468Y-14810174D01*
X14034468Y-14810174D02*
X14043991Y-14829222D01*
X14043991Y-14829222D02*
X14043991Y-14848269D01*
X14043991Y-14848269D02*
X13948753Y-14867317D01*
X14120182Y-14924460D02*
X14139230Y-14933984D01*
X14139230Y-14933984D02*
X14177325Y-14933984D01*
X14177325Y-14933984D02*
X14196372Y-14924460D01*
X14196372Y-14924460D02*
X14205896Y-14905412D01*
X14205896Y-14905412D02*
X14205896Y-14895888D01*
X14205896Y-14895888D02*
X14196372Y-14876841D01*
X14196372Y-14876841D02*
X14177325Y-14867317D01*
X14177325Y-14867317D02*
X14148753Y-14867317D01*
X14148753Y-14867317D02*
X14129706Y-14857793D01*
X14129706Y-14857793D02*
X14120182Y-14838746D01*
X14120182Y-14838746D02*
X14120182Y-14829222D01*
X14120182Y-14829222D02*
X14129706Y-14810174D01*
X14129706Y-14810174D02*
X14148753Y-14800650D01*
X14148753Y-14800650D02*
X14177325Y-14800650D01*
X14177325Y-14800650D02*
X14196372Y-14810174D01*
X14272563Y-15010174D02*
X14282087Y-15000650D01*
X14282087Y-15000650D02*
X14301134Y-14972079D01*
X14301134Y-14972079D02*
X14310658Y-14953031D01*
X14310658Y-14953031D02*
X14320182Y-14924460D01*
X14320182Y-14924460D02*
X14329706Y-14876841D01*
X14329706Y-14876841D02*
X14329706Y-14838746D01*
X14329706Y-14838746D02*
X14320182Y-14791127D01*
X14320182Y-14791127D02*
X14310658Y-14762555D01*
X14310658Y-14762555D02*
X14301134Y-14743508D01*
X14301134Y-14743508D02*
X14282087Y-14714936D01*
X14282087Y-14714936D02*
X14272563Y-14705412D01*
X14634468Y-15010174D02*
X14624944Y-15000650D01*
X14624944Y-15000650D02*
X14605896Y-14972079D01*
X14605896Y-14972079D02*
X14596372Y-14953031D01*
X14596372Y-14953031D02*
X14586849Y-14924460D01*
X14586849Y-14924460D02*
X14577325Y-14876841D01*
X14577325Y-14876841D02*
X14577325Y-14838746D01*
X14577325Y-14838746D02*
X14586849Y-14791127D01*
X14586849Y-14791127D02*
X14596372Y-14762555D01*
X14596372Y-14762555D02*
X14605896Y-14743508D01*
X14605896Y-14743508D02*
X14624944Y-14714936D01*
X14624944Y-14714936D02*
X14634468Y-14705412D01*
X14710658Y-14800650D02*
X14710658Y-14933984D01*
X14710658Y-14819698D02*
X14720182Y-14810174D01*
X14720182Y-14810174D02*
X14739230Y-14800650D01*
X14739230Y-14800650D02*
X14767801Y-14800650D01*
X14767801Y-14800650D02*
X14786849Y-14810174D01*
X14786849Y-14810174D02*
X14796372Y-14829222D01*
X14796372Y-14829222D02*
X14796372Y-14933984D01*
X14920182Y-14933984D02*
X14901134Y-14924460D01*
X14901134Y-14924460D02*
X14891611Y-14914936D01*
X14891611Y-14914936D02*
X14882087Y-14895888D01*
X14882087Y-14895888D02*
X14882087Y-14838746D01*
X14882087Y-14838746D02*
X14891611Y-14819698D01*
X14891611Y-14819698D02*
X14901134Y-14810174D01*
X14901134Y-14810174D02*
X14920182Y-14800650D01*
X14920182Y-14800650D02*
X14948753Y-14800650D01*
X14948753Y-14800650D02*
X14967801Y-14810174D01*
X14967801Y-14810174D02*
X14977325Y-14819698D01*
X14977325Y-14819698D02*
X14986849Y-14838746D01*
X14986849Y-14838746D02*
X14986849Y-14895888D01*
X14986849Y-14895888D02*
X14977325Y-14914936D01*
X14977325Y-14914936D02*
X14967801Y-14924460D01*
X14967801Y-14924460D02*
X14948753Y-14933984D01*
X14948753Y-14933984D02*
X14920182Y-14933984D01*
X15043992Y-14800650D02*
X15120182Y-14800650D01*
X15072563Y-14733984D02*
X15072563Y-14905412D01*
X15072563Y-14905412D02*
X15082087Y-14924460D01*
X15082087Y-14924460D02*
X15101134Y-14933984D01*
X15101134Y-14933984D02*
X15120182Y-14933984D01*
X15339230Y-14800650D02*
X15339230Y-15000650D01*
X15339230Y-14810174D02*
X15358277Y-14800650D01*
X15358277Y-14800650D02*
X15396373Y-14800650D01*
X15396373Y-14800650D02*
X15415420Y-14810174D01*
X15415420Y-14810174D02*
X15424944Y-14819698D01*
X15424944Y-14819698D02*
X15434468Y-14838746D01*
X15434468Y-14838746D02*
X15434468Y-14895888D01*
X15434468Y-14895888D02*
X15424944Y-14914936D01*
X15424944Y-14914936D02*
X15415420Y-14924460D01*
X15415420Y-14924460D02*
X15396373Y-14933984D01*
X15396373Y-14933984D02*
X15358277Y-14933984D01*
X15358277Y-14933984D02*
X15339230Y-14924460D01*
X15548753Y-14933984D02*
X15529706Y-14924460D01*
X15529706Y-14924460D02*
X15520182Y-14905412D01*
X15520182Y-14905412D02*
X15520182Y-14733984D01*
X15710658Y-14933984D02*
X15710658Y-14829222D01*
X15710658Y-14829222D02*
X15701134Y-14810174D01*
X15701134Y-14810174D02*
X15682087Y-14800650D01*
X15682087Y-14800650D02*
X15643992Y-14800650D01*
X15643992Y-14800650D02*
X15624944Y-14810174D01*
X15710658Y-14924460D02*
X15691611Y-14933984D01*
X15691611Y-14933984D02*
X15643992Y-14933984D01*
X15643992Y-14933984D02*
X15624944Y-14924460D01*
X15624944Y-14924460D02*
X15615420Y-14905412D01*
X15615420Y-14905412D02*
X15615420Y-14886365D01*
X15615420Y-14886365D02*
X15624944Y-14867317D01*
X15624944Y-14867317D02*
X15643992Y-14857793D01*
X15643992Y-14857793D02*
X15691611Y-14857793D01*
X15691611Y-14857793D02*
X15710658Y-14848269D01*
X15777325Y-14800650D02*
X15853515Y-14800650D01*
X15805896Y-14733984D02*
X15805896Y-14905412D01*
X15805896Y-14905412D02*
X15815420Y-14924460D01*
X15815420Y-14924460D02*
X15834468Y-14933984D01*
X15834468Y-14933984D02*
X15853515Y-14933984D01*
X15996373Y-14924460D02*
X15977325Y-14933984D01*
X15977325Y-14933984D02*
X15939230Y-14933984D01*
X15939230Y-14933984D02*
X15920182Y-14924460D01*
X15920182Y-14924460D02*
X15910658Y-14905412D01*
X15910658Y-14905412D02*
X15910658Y-14829222D01*
X15910658Y-14829222D02*
X15920182Y-14810174D01*
X15920182Y-14810174D02*
X15939230Y-14800650D01*
X15939230Y-14800650D02*
X15977325Y-14800650D01*
X15977325Y-14800650D02*
X15996373Y-14810174D01*
X15996373Y-14810174D02*
X16005896Y-14829222D01*
X16005896Y-14829222D02*
X16005896Y-14848269D01*
X16005896Y-14848269D02*
X15910658Y-14867317D01*
X16177325Y-14933984D02*
X16177325Y-14733984D01*
X16177325Y-14924460D02*
X16158277Y-14933984D01*
X16158277Y-14933984D02*
X16120182Y-14933984D01*
X16120182Y-14933984D02*
X16101134Y-14924460D01*
X16101134Y-14924460D02*
X16091611Y-14914936D01*
X16091611Y-14914936D02*
X16082087Y-14895888D01*
X16082087Y-14895888D02*
X16082087Y-14838746D01*
X16082087Y-14838746D02*
X16091611Y-14819698D01*
X16091611Y-14819698D02*
X16101134Y-14810174D01*
X16101134Y-14810174D02*
X16120182Y-14800650D01*
X16120182Y-14800650D02*
X16158277Y-14800650D01*
X16158277Y-14800650D02*
X16177325Y-14810174D01*
X16253515Y-15010174D02*
X16263039Y-15000650D01*
X16263039Y-15000650D02*
X16282087Y-14972079D01*
X16282087Y-14972079D02*
X16291611Y-14953031D01*
X16291611Y-14953031D02*
X16301134Y-14924460D01*
X16301134Y-14924460D02*
X16310658Y-14876841D01*
X16310658Y-14876841D02*
X16310658Y-14838746D01*
X16310658Y-14838746D02*
X16301134Y-14791127D01*
X16301134Y-14791127D02*
X16291611Y-14762555D01*
X16291611Y-14762555D02*
X16282087Y-14743508D01*
X16282087Y-14743508D02*
X16263039Y-14714936D01*
X16263039Y-14714936D02*
X16253515Y-14705412D01*
M02*
