G04 #@! TF.GenerationSoftware,KiCad,Pcbnew,9.0.4*
G04 #@! TF.CreationDate,2025-12-08T20:14:36+09:00*
G04 #@! TF.ProjectId,harurobo,68617275-726f-4626-9f2e-6b696361645f,rev?*
G04 #@! TF.SameCoordinates,Original*
G04 #@! TF.FileFunction,Soldermask,Bot*
G04 #@! TF.FilePolarity,Negative*
%FSLAX46Y46*%
G04 Gerber Fmt 4.6, Leading zero omitted, Abs format (unit mm)*
G04 Created by KiCad (PCBNEW 9.0.4) date 2025-12-08 20:14:36*
%MOMM*%
%LPD*%
G01*
G04 APERTURE LIST*
G04 Aperture macros list*
%AMRoundRect*
0 Rectangle with rounded corners*
0 $1 Rounding radius*
0 $2 $3 $4 $5 $6 $7 $8 $9 X,Y pos of 4 corners*
0 Add a 4 corners polygon primitive as box body*
4,1,4,$2,$3,$4,$5,$6,$7,$8,$9,$2,$3,0*
0 Add four circle primitives for the rounded corners*
1,1,$1+$1,$2,$3*
1,1,$1+$1,$4,$5*
1,1,$1+$1,$6,$7*
1,1,$1+$1,$8,$9*
0 Add four rect primitives between the rounded corners*
20,1,$1+$1,$2,$3,$4,$5,0*
20,1,$1+$1,$4,$5,$6,$7,0*
20,1,$1+$1,$6,$7,$8,$9,0*
20,1,$1+$1,$8,$9,$2,$3,0*%
G04 Aperture macros list end*
%ADD10C,4.300000*%
%ADD11RoundRect,0.102000X-3.000000X-3.000000X3.000000X-3.000000X3.000000X3.000000X-3.000000X3.000000X0*%
%ADD12C,6.204000*%
%ADD13C,1.600000*%
%ADD14RoundRect,0.250000X-0.550000X-0.550000X0.550000X-0.550000X0.550000X0.550000X-0.550000X0.550000X0*%
%ADD15O,1.700000X2.000000*%
%ADD16RoundRect,0.250000X-0.600000X-0.750000X0.600000X-0.750000X0.600000X0.750000X-0.600000X0.750000X0*%
%ADD17O,1.700000X1.950000*%
%ADD18RoundRect,0.250000X0.600000X0.725000X-0.600000X0.725000X-0.600000X-0.725000X0.600000X-0.725000X0*%
%ADD19C,1.700000*%
%ADD20R,1.700000X1.700000*%
%ADD21RoundRect,0.250000X-0.600000X-0.725000X0.600000X-0.725000X0.600000X0.725000X-0.600000X0.725000X0*%
G04 APERTURE END LIST*
D10*
X78000000Y-34000000D03*
X106000000Y-34000000D03*
X68000000Y-85000000D03*
X31000000Y-85000000D03*
D11*
X34500000Y-25400000D03*
D12*
X41700000Y-25400000D03*
D13*
X72395000Y-52070000D03*
X72395000Y-54610000D03*
X72395000Y-57150000D03*
X72395000Y-59690000D03*
X72395000Y-62230000D03*
X72395000Y-64770000D03*
X72395000Y-67310000D03*
X72395000Y-69850000D03*
X64775000Y-69850000D03*
X64775000Y-67310000D03*
X64775000Y-64770000D03*
X64775000Y-62230000D03*
X64775000Y-59690000D03*
X64775000Y-57150000D03*
X64775000Y-54610000D03*
D14*
X64775000Y-52070000D03*
D15*
X48568800Y-75033400D03*
D16*
X46068800Y-75033400D03*
D15*
X58474800Y-63857400D03*
D16*
X55974800Y-63857400D03*
D15*
X48568800Y-63857400D03*
D16*
X46068800Y-63857400D03*
D15*
X58474800Y-75033400D03*
D16*
X55974800Y-75033400D03*
X46048800Y-69272400D03*
D15*
X48548800Y-69272400D03*
X58454800Y-81129400D03*
D16*
X55954800Y-81129400D03*
D15*
X58474800Y-69445400D03*
D16*
X55974800Y-69445400D03*
D15*
X48441800Y-81002400D03*
D16*
X45941800Y-81002400D03*
D15*
X58347800Y-50395400D03*
D16*
X55847800Y-50395400D03*
D15*
X58347800Y-55729400D03*
D16*
X55847800Y-55729400D03*
D15*
X48528800Y-50349400D03*
D16*
X46028800Y-50349400D03*
D15*
X48528800Y-55729400D03*
D16*
X46028800Y-55729400D03*
D17*
X33735000Y-55245000D03*
X36235000Y-55245000D03*
D18*
X38735000Y-55245000D03*
D17*
X33775000Y-48895000D03*
X36275000Y-48895000D03*
D18*
X38775000Y-48895000D03*
D17*
X33775000Y-42210000D03*
X36275000Y-42210000D03*
D18*
X38775000Y-42210000D03*
D17*
X33775000Y-35860000D03*
X36275000Y-35860000D03*
D18*
X38775000Y-35860000D03*
X38775000Y-67945000D03*
D17*
X36275000Y-67945000D03*
X33775000Y-67945000D03*
D18*
X38775000Y-61595000D03*
D17*
X36275000Y-61595000D03*
X33775000Y-61595000D03*
X33815000Y-74295000D03*
X36315000Y-74295000D03*
D18*
X38815000Y-74295000D03*
D19*
X100212000Y-22653000D03*
X97672000Y-22653000D03*
X95132000Y-22653000D03*
X92592000Y-22653000D03*
X90052000Y-22653000D03*
X87512000Y-22653000D03*
X84972000Y-22653000D03*
X82432000Y-22653000D03*
X79892000Y-22653000D03*
X77352000Y-22653000D03*
D20*
X74812000Y-22653000D03*
X24142200Y-78609800D03*
D19*
X21602200Y-78609800D03*
D20*
X79756000Y-41910000D03*
D19*
X79756000Y-44450000D03*
X79756000Y-46990000D03*
X79756000Y-49530000D03*
X79756000Y-52070000D03*
X79756000Y-54610000D03*
X79756000Y-57150000D03*
X79756000Y-59690000D03*
X79756000Y-62230000D03*
X79756000Y-64770000D03*
X79756000Y-67310000D03*
X79756000Y-69850000D03*
X79756000Y-72390000D03*
X79756000Y-74930000D03*
X79756000Y-77470000D03*
X79756000Y-80010000D03*
X79756000Y-82550000D03*
X79756000Y-85090000D03*
X79756000Y-87630000D03*
D20*
X105169000Y-41910000D03*
D19*
X105169000Y-44450000D03*
X105169000Y-46990000D03*
X105169000Y-49530000D03*
X105169000Y-52070000D03*
X105169000Y-54610000D03*
X105169000Y-57150000D03*
X105169000Y-59690000D03*
X105169000Y-62230000D03*
X105169000Y-64770000D03*
X105169000Y-67310000D03*
X105169000Y-69850000D03*
X105169000Y-72390000D03*
X105169000Y-74930000D03*
X105169000Y-77470000D03*
X105169000Y-80010000D03*
X105169000Y-82550000D03*
X105169000Y-85090000D03*
X105169000Y-87630000D03*
D20*
X24145000Y-83562800D03*
D19*
X21605000Y-83562800D03*
D12*
X60115000Y-25400000D03*
D11*
X52915000Y-25400000D03*
D21*
X60960000Y-42200000D03*
D17*
X63460000Y-42200000D03*
X65960000Y-42200000D03*
X68460000Y-42200000D03*
D21*
X46960000Y-42175000D03*
D17*
X49460000Y-42175000D03*
X51960000Y-42175000D03*
X54460000Y-42175000D03*
D20*
X24105000Y-68660000D03*
D19*
X21565000Y-68660000D03*
D20*
X108800200Y-41916200D03*
D19*
X108800200Y-44456200D03*
X108800200Y-46996200D03*
X108800200Y-49536200D03*
X108800200Y-52076200D03*
X108800200Y-54616200D03*
X108800200Y-57156200D03*
X108800200Y-59696200D03*
X108800200Y-62236200D03*
X108800200Y-64776200D03*
X108800200Y-67316200D03*
X108800200Y-69856200D03*
X108800200Y-72396200D03*
X108800200Y-74936200D03*
X108800200Y-77476200D03*
X108800200Y-80016200D03*
X108800200Y-82556200D03*
X108800200Y-85096200D03*
X108800200Y-87636200D03*
D20*
X76135800Y-41916200D03*
D19*
X76135800Y-44456200D03*
X76135800Y-46996200D03*
X76135800Y-49536200D03*
X76135800Y-52076200D03*
X76135800Y-54616200D03*
X76135800Y-57156200D03*
X76135800Y-59696200D03*
X76135800Y-62236200D03*
X76135800Y-64776200D03*
X76135800Y-67316200D03*
X76135800Y-69856200D03*
X76135800Y-72396200D03*
X76135800Y-74936200D03*
X76135800Y-77476200D03*
X76135800Y-80016200D03*
X76135800Y-82556200D03*
X76135800Y-85096200D03*
X76135800Y-87636200D03*
D21*
X46960000Y-34925000D03*
D17*
X49460000Y-34925000D03*
X51960000Y-34925000D03*
X54460000Y-34925000D03*
D20*
X22518000Y-51061000D03*
D19*
X22518000Y-48521000D03*
X22518000Y-45981000D03*
X22518000Y-43441000D03*
X22518000Y-40901000D03*
X22518000Y-38361000D03*
X22518000Y-35821000D03*
X22518000Y-33281000D03*
X22518000Y-30741000D03*
X22518000Y-28201000D03*
X22518000Y-25661000D03*
D20*
X24130000Y-73660000D03*
D19*
X21590000Y-73660000D03*
D20*
X49784000Y-92710000D03*
D19*
X47244000Y-92710000D03*
X44704000Y-92710000D03*
X42164000Y-92710000D03*
X39624000Y-92710000D03*
X37084000Y-92710000D03*
X34544000Y-92710000D03*
X32004000Y-92710000D03*
X29464000Y-92710000D03*
X26924000Y-92710000D03*
X24384000Y-92710000D03*
D21*
X60960000Y-34925000D03*
D17*
X63460000Y-34925000D03*
X65960000Y-34925000D03*
X68460000Y-34925000D03*
M02*
