G04 #@! TF.GenerationSoftware,KiCad,Pcbnew,9.0.4*
G04 #@! TF.CreationDate,2026-01-31T16:01:35+09:00*
G04 #@! TF.ProjectId,harurobo,68617275-726f-4626-9f2e-6b696361645f,rev?*
G04 #@! TF.SameCoordinates,Original*
G04 #@! TF.FileFunction,Soldermask,Top*
G04 #@! TF.FilePolarity,Negative*
%FSLAX46Y46*%
G04 Gerber Fmt 4.6, Leading zero omitted, Abs format (unit mm)*
G04 Created by KiCad (PCBNEW 9.0.4) date 2026-01-31 16:01:35*
%MOMM*%
%LPD*%
G01*
G04 APERTURE LIST*
G04 Aperture macros list*
%AMRoundRect*
0 Rectangle with rounded corners*
0 $1 Rounding radius*
0 $2 $3 $4 $5 $6 $7 $8 $9 X,Y pos of 4 corners*
0 Add a 4 corners polygon primitive as box body*
4,1,4,$2,$3,$4,$5,$6,$7,$8,$9,$2,$3,0*
0 Add four circle primitives for the rounded corners*
1,1,$1+$1,$2,$3*
1,1,$1+$1,$4,$5*
1,1,$1+$1,$6,$7*
1,1,$1+$1,$8,$9*
0 Add four rect primitives between the rounded corners*
20,1,$1+$1,$2,$3,$4,$5,0*
20,1,$1+$1,$4,$5,$6,$7,0*
20,1,$1+$1,$6,$7,$8,$9,0*
20,1,$1+$1,$8,$9,$2,$3,0*%
G04 Aperture macros list end*
%ADD10RoundRect,0.250000X0.600000X0.725000X-0.600000X0.725000X-0.600000X-0.725000X0.600000X-0.725000X0*%
%ADD11O,1.700000X1.950000*%
%ADD12RoundRect,0.250000X-0.600000X-0.750000X0.600000X-0.750000X0.600000X0.750000X-0.600000X0.750000X0*%
%ADD13O,1.700000X2.000000*%
%ADD14C,3.200000*%
%ADD15R,1.700000X1.700000*%
%ADD16C,1.700000*%
%ADD17C,6.204000*%
%ADD18RoundRect,0.102000X-3.000000X-3.000000X3.000000X-3.000000X3.000000X3.000000X-3.000000X3.000000X0*%
%ADD19RoundRect,0.250000X-0.600000X-0.725000X0.600000X-0.725000X0.600000X0.725000X-0.600000X0.725000X0*%
%ADD20RoundRect,0.250000X-0.550000X0.550000X-0.550000X-0.550000X0.550000X-0.550000X0.550000X0.550000X0*%
%ADD21C,1.600000*%
G04 APERTURE END LIST*
D10*
X38608000Y-77216000D03*
D11*
X36108000Y-77216000D03*
X33608000Y-77216000D03*
D12*
X46148600Y-51592600D03*
D13*
X48648600Y-51592600D03*
D14*
X23000000Y-88000000D03*
D12*
X56193800Y-66773900D03*
D13*
X58693800Y-66773900D03*
D10*
X38608000Y-60198000D03*
D11*
X36108000Y-60198000D03*
X33608000Y-60198000D03*
D15*
X23913200Y-73957800D03*
D16*
X21373200Y-73957800D03*
D14*
X79000000Y-33000000D03*
D10*
X38608000Y-52087000D03*
D11*
X36108000Y-52087000D03*
X33608000Y-52087000D03*
D12*
X66594000Y-51545000D03*
D13*
X69094000Y-51545000D03*
D10*
X38608000Y-68834000D03*
D11*
X36108000Y-68834000D03*
X33608000Y-68834000D03*
D15*
X79756000Y-41910000D03*
D16*
X79756000Y-44450000D03*
X79756000Y-46990000D03*
X79756000Y-49530000D03*
X79756000Y-52070000D03*
X79756000Y-54610000D03*
X79756000Y-57150000D03*
X79756000Y-59690000D03*
X79756000Y-62230000D03*
X79756000Y-64770000D03*
X79756000Y-67310000D03*
X79756000Y-69850000D03*
X79756000Y-72390000D03*
X79756000Y-74930000D03*
X79756000Y-77470000D03*
X79756000Y-80010000D03*
X79756000Y-82550000D03*
X79756000Y-85090000D03*
X79756000Y-87630000D03*
D12*
X46268000Y-59272200D03*
D13*
X48768000Y-59272200D03*
D15*
X105169000Y-41910000D03*
D16*
X105169000Y-44450000D03*
X105169000Y-46990000D03*
X105169000Y-49530000D03*
X105169000Y-52070000D03*
X105169000Y-54610000D03*
X105169000Y-57150000D03*
X105169000Y-59690000D03*
X105169000Y-62230000D03*
X105169000Y-64770000D03*
X105169000Y-67310000D03*
X105169000Y-69850000D03*
X105169000Y-72390000D03*
X105169000Y-74930000D03*
X105169000Y-77470000D03*
X105169000Y-80010000D03*
X105169000Y-82550000D03*
X105169000Y-85090000D03*
X105169000Y-87630000D03*
D15*
X23916000Y-78910800D03*
D16*
X21376000Y-78910800D03*
D10*
X38608000Y-44196000D03*
D11*
X36108000Y-44196000D03*
X33608000Y-44196000D03*
D12*
X56174000Y-74422000D03*
D13*
X58674000Y-74422000D03*
D17*
X60115000Y-25400000D03*
D18*
X52915000Y-25400000D03*
D12*
X56257300Y-59155900D03*
D13*
X58757300Y-59155900D03*
D19*
X60960000Y-42200000D03*
D11*
X63460000Y-42200000D03*
X65960000Y-42200000D03*
X68460000Y-42200000D03*
D12*
X56169900Y-51566100D03*
D13*
X58669900Y-51566100D03*
D17*
X41700000Y-25400000D03*
D18*
X34500000Y-25400000D03*
D19*
X46776000Y-42302000D03*
D11*
X49276000Y-42302000D03*
X51776000Y-42302000D03*
X54276000Y-42302000D03*
D12*
X46268000Y-66698600D03*
D13*
X48768000Y-66698600D03*
D15*
X23876000Y-64008000D03*
D16*
X21336000Y-64008000D03*
D15*
X108800200Y-41916200D03*
D16*
X108800200Y-44456200D03*
X108800200Y-46996200D03*
X108800200Y-49536200D03*
X108800200Y-52076200D03*
X108800200Y-54616200D03*
X108800200Y-57156200D03*
X108800200Y-59696200D03*
X108800200Y-62236200D03*
X108800200Y-64776200D03*
X108800200Y-67316200D03*
X108800200Y-69856200D03*
X108800200Y-72396200D03*
X108800200Y-74936200D03*
X108800200Y-77476200D03*
X108800200Y-80016200D03*
X108800200Y-82556200D03*
X108800200Y-85096200D03*
X108800200Y-87636200D03*
D12*
X66614000Y-59182000D03*
D13*
X69114000Y-59182000D03*
D10*
X38528000Y-86360000D03*
D11*
X36028000Y-86360000D03*
X33528000Y-86360000D03*
D12*
X66632200Y-66879100D03*
D13*
X69132200Y-66879100D03*
D15*
X74812000Y-22653000D03*
D16*
X77352000Y-22653000D03*
X79892000Y-22653000D03*
X82432000Y-22653000D03*
X84972000Y-22653000D03*
X87512000Y-22653000D03*
X90052000Y-22653000D03*
X92592000Y-22653000D03*
X95132000Y-22653000D03*
X97672000Y-22653000D03*
X100212000Y-22653000D03*
D15*
X76135800Y-41916200D03*
D16*
X76135800Y-44456200D03*
X76135800Y-46996200D03*
X76135800Y-49536200D03*
X76135800Y-52076200D03*
X76135800Y-54616200D03*
X76135800Y-57156200D03*
X76135800Y-59696200D03*
X76135800Y-62236200D03*
X76135800Y-64776200D03*
X76135800Y-67316200D03*
X76135800Y-69856200D03*
X76135800Y-72396200D03*
X76135800Y-74936200D03*
X76135800Y-77476200D03*
X76135800Y-80016200D03*
X76135800Y-82556200D03*
X76135800Y-85096200D03*
X76135800Y-87636200D03*
D19*
X46776000Y-35052000D03*
D11*
X49276000Y-35052000D03*
X51776000Y-35052000D03*
X54276000Y-35052000D03*
D12*
X66614000Y-74676000D03*
D13*
X69114000Y-74676000D03*
D15*
X22518000Y-51061000D03*
D16*
X22518000Y-48521000D03*
X22518000Y-45981000D03*
X22518000Y-43441000D03*
X22518000Y-40901000D03*
X22518000Y-38361000D03*
X22518000Y-35821000D03*
X22518000Y-33281000D03*
X22518000Y-30741000D03*
X22518000Y-28201000D03*
X22518000Y-25661000D03*
D14*
X70000000Y-88000000D03*
D12*
X46268000Y-74572600D03*
D13*
X48768000Y-74572600D03*
D20*
X64008000Y-81788000D03*
D21*
X61468000Y-81788000D03*
X58928000Y-81788000D03*
X56388000Y-81788000D03*
X53848000Y-81788000D03*
X51308000Y-81788000D03*
X48768000Y-81788000D03*
X46228000Y-81788000D03*
X46228000Y-89408000D03*
X48768000Y-89408000D03*
X51308000Y-89408000D03*
X53848000Y-89408000D03*
X56388000Y-89408000D03*
X58928000Y-89408000D03*
X61468000Y-89408000D03*
X64008000Y-89408000D03*
D10*
X38608000Y-35560000D03*
D11*
X36108000Y-35560000D03*
X33608000Y-35560000D03*
D15*
X23901000Y-69008000D03*
D16*
X21361000Y-69008000D03*
D14*
X108000000Y-33000000D03*
D15*
X51816000Y-97138000D03*
D16*
X49276000Y-97138000D03*
X46736000Y-97138000D03*
X44196000Y-97138000D03*
X41656000Y-97138000D03*
X39116000Y-97138000D03*
X36576000Y-97138000D03*
X34036000Y-97138000D03*
X31496000Y-97138000D03*
X28956000Y-97138000D03*
X26416000Y-97138000D03*
D19*
X60960000Y-34925000D03*
D11*
X63460000Y-34925000D03*
X65960000Y-34925000D03*
X68460000Y-34925000D03*
M02*
