%TF.GenerationSoftware,KiCad,Pcbnew,9.0.4*%
%TF.CreationDate,2026-01-31T16:01:39+09:00*%
%TF.ProjectId,harurobo,68617275-726f-4626-9f2e-6b696361645f,rev?*%
%TF.SameCoordinates,Original*%
%TF.FileFunction,Drillmap*%
%TF.FilePolarity,Positive*%
%FSLAX45Y45*%
G04 Gerber Fmt 4.5, Leading zero omitted, Abs format (unit mm)*
G04 Created by KiCad (PCBNEW 9.0.4) date 2026-01-31 16:01:39*
%MOMM*%
%LPD*%
G01*
G04 APERTURE LIST*
%ADD10C,0.050000*%
%ADD11C,0.200000*%
%ADD12C,0.320000*%
G04 APERTURE END LIST*
D10*
X1905000Y-2006488D02*
X1906493Y-9829800D01*
X2108200Y-10031507D02*
G75*
G02*
X1906493Y-9829800I0J201707D01*
G01*
X11001493Y-1803512D02*
X2101493Y-1803512D01*
X11001493Y-1803512D02*
G75*
G02*
X11200003Y-2003512I-1493J-199998D01*
G01*
X2108200Y-10031507D02*
X10998200Y-10033000D01*
X11200000Y-9833200D02*
X11200000Y-2003400D01*
X11200000Y-9833200D02*
G75*
G02*
X10998200Y-10033010I-201800J2000D01*
G01*
X1905000Y-2006600D02*
G75*
G02*
X2101493Y-1803512I196493J6488D01*
G01*
D11*
D12*
X2140000Y-8640000D02*
X2460000Y-8960000D01*
X2460000Y-8640000D02*
X2140000Y-8960000D01*
X6840000Y-8640000D02*
X7160000Y-8960000D01*
X7160000Y-8640000D02*
X6840000Y-8960000D01*
X7740000Y-3140000D02*
X8060000Y-3460000D01*
X8060000Y-3140000D02*
X7740000Y-3460000D01*
X10640000Y-3140000D02*
X10960000Y-3460000D01*
X10960000Y-3140000D02*
X10640000Y-3460000D01*
D11*
X2163170Y-10346994D02*
X2163170Y-10146994D01*
X2163170Y-10146994D02*
X2210789Y-10146994D01*
X2210789Y-10146994D02*
X2239360Y-10156518D01*
X2239360Y-10156518D02*
X2258408Y-10175565D01*
X2258408Y-10175565D02*
X2267932Y-10194613D01*
X2267932Y-10194613D02*
X2277455Y-10232708D01*
X2277455Y-10232708D02*
X2277455Y-10261279D01*
X2277455Y-10261279D02*
X2267932Y-10299375D01*
X2267932Y-10299375D02*
X2258408Y-10318422D01*
X2258408Y-10318422D02*
X2239360Y-10337470D01*
X2239360Y-10337470D02*
X2210789Y-10346994D01*
X2210789Y-10346994D02*
X2163170Y-10346994D01*
X2363170Y-10346994D02*
X2363170Y-10213660D01*
X2363170Y-10251756D02*
X2372694Y-10232708D01*
X2372694Y-10232708D02*
X2382217Y-10223184D01*
X2382217Y-10223184D02*
X2401265Y-10213660D01*
X2401265Y-10213660D02*
X2420313Y-10213660D01*
X2486979Y-10346994D02*
X2486979Y-10213660D01*
X2486979Y-10146994D02*
X2477455Y-10156518D01*
X2477455Y-10156518D02*
X2486979Y-10166041D01*
X2486979Y-10166041D02*
X2496503Y-10156518D01*
X2496503Y-10156518D02*
X2486979Y-10146994D01*
X2486979Y-10146994D02*
X2486979Y-10166041D01*
X2610789Y-10346994D02*
X2591741Y-10337470D01*
X2591741Y-10337470D02*
X2582217Y-10318422D01*
X2582217Y-10318422D02*
X2582217Y-10146994D01*
X2715551Y-10346994D02*
X2696503Y-10337470D01*
X2696503Y-10337470D02*
X2686979Y-10318422D01*
X2686979Y-10318422D02*
X2686979Y-10146994D01*
X2944122Y-10346994D02*
X2944122Y-10146994D01*
X2944122Y-10146994D02*
X3010789Y-10289851D01*
X3010789Y-10289851D02*
X3077455Y-10146994D01*
X3077455Y-10146994D02*
X3077455Y-10346994D01*
X3258408Y-10346994D02*
X3258408Y-10242232D01*
X3258408Y-10242232D02*
X3248884Y-10223184D01*
X3248884Y-10223184D02*
X3229836Y-10213660D01*
X3229836Y-10213660D02*
X3191741Y-10213660D01*
X3191741Y-10213660D02*
X3172693Y-10223184D01*
X3258408Y-10337470D02*
X3239360Y-10346994D01*
X3239360Y-10346994D02*
X3191741Y-10346994D01*
X3191741Y-10346994D02*
X3172693Y-10337470D01*
X3172693Y-10337470D02*
X3163170Y-10318422D01*
X3163170Y-10318422D02*
X3163170Y-10299375D01*
X3163170Y-10299375D02*
X3172693Y-10280327D01*
X3172693Y-10280327D02*
X3191741Y-10270803D01*
X3191741Y-10270803D02*
X3239360Y-10270803D01*
X3239360Y-10270803D02*
X3258408Y-10261279D01*
X3353646Y-10213660D02*
X3353646Y-10413660D01*
X3353646Y-10223184D02*
X3372693Y-10213660D01*
X3372693Y-10213660D02*
X3410789Y-10213660D01*
X3410789Y-10213660D02*
X3429836Y-10223184D01*
X3429836Y-10223184D02*
X3439360Y-10232708D01*
X3439360Y-10232708D02*
X3448884Y-10251756D01*
X3448884Y-10251756D02*
X3448884Y-10308898D01*
X3448884Y-10308898D02*
X3439360Y-10327946D01*
X3439360Y-10327946D02*
X3429836Y-10337470D01*
X3429836Y-10337470D02*
X3410789Y-10346994D01*
X3410789Y-10346994D02*
X3372693Y-10346994D01*
X3372693Y-10346994D02*
X3353646Y-10337470D01*
X3534598Y-10327946D02*
X3544122Y-10337470D01*
X3544122Y-10337470D02*
X3534598Y-10346994D01*
X3534598Y-10346994D02*
X3525074Y-10337470D01*
X3525074Y-10337470D02*
X3534598Y-10327946D01*
X3534598Y-10327946D02*
X3534598Y-10346994D01*
X3534598Y-10223184D02*
X3544122Y-10232708D01*
X3544122Y-10232708D02*
X3534598Y-10242232D01*
X3534598Y-10242232D02*
X3525074Y-10232708D01*
X3525074Y-10232708D02*
X3534598Y-10223184D01*
X3534598Y-10223184D02*
X3534598Y-10242232D01*
X1702393Y-10575510D02*
X1902393Y-10775510D01*
X1902393Y-10575510D02*
X1702393Y-10775510D01*
X2144122Y-10566994D02*
X2267932Y-10566994D01*
X2267932Y-10566994D02*
X2201265Y-10643184D01*
X2201265Y-10643184D02*
X2229836Y-10643184D01*
X2229836Y-10643184D02*
X2248884Y-10652708D01*
X2248884Y-10652708D02*
X2258408Y-10662232D01*
X2258408Y-10662232D02*
X2267932Y-10681279D01*
X2267932Y-10681279D02*
X2267932Y-10728898D01*
X2267932Y-10728898D02*
X2258408Y-10747946D01*
X2258408Y-10747946D02*
X2248884Y-10757470D01*
X2248884Y-10757470D02*
X2229836Y-10766994D01*
X2229836Y-10766994D02*
X2172694Y-10766994D01*
X2172694Y-10766994D02*
X2153646Y-10757470D01*
X2153646Y-10757470D02*
X2144122Y-10747946D01*
X2353646Y-10747946D02*
X2363170Y-10757470D01*
X2363170Y-10757470D02*
X2353646Y-10766994D01*
X2353646Y-10766994D02*
X2344122Y-10757470D01*
X2344122Y-10757470D02*
X2353646Y-10747946D01*
X2353646Y-10747946D02*
X2353646Y-10766994D01*
X2439360Y-10586041D02*
X2448884Y-10576518D01*
X2448884Y-10576518D02*
X2467932Y-10566994D01*
X2467932Y-10566994D02*
X2515551Y-10566994D01*
X2515551Y-10566994D02*
X2534598Y-10576518D01*
X2534598Y-10576518D02*
X2544122Y-10586041D01*
X2544122Y-10586041D02*
X2553646Y-10605089D01*
X2553646Y-10605089D02*
X2553646Y-10624137D01*
X2553646Y-10624137D02*
X2544122Y-10652708D01*
X2544122Y-10652708D02*
X2429836Y-10766994D01*
X2429836Y-10766994D02*
X2553646Y-10766994D01*
X2677455Y-10566994D02*
X2696503Y-10566994D01*
X2696503Y-10566994D02*
X2715551Y-10576518D01*
X2715551Y-10576518D02*
X2725075Y-10586041D01*
X2725075Y-10586041D02*
X2734598Y-10605089D01*
X2734598Y-10605089D02*
X2744122Y-10643184D01*
X2744122Y-10643184D02*
X2744122Y-10690803D01*
X2744122Y-10690803D02*
X2734598Y-10728898D01*
X2734598Y-10728898D02*
X2725075Y-10747946D01*
X2725075Y-10747946D02*
X2715551Y-10757470D01*
X2715551Y-10757470D02*
X2696503Y-10766994D01*
X2696503Y-10766994D02*
X2677455Y-10766994D01*
X2677455Y-10766994D02*
X2658408Y-10757470D01*
X2658408Y-10757470D02*
X2648884Y-10747946D01*
X2648884Y-10747946D02*
X2639360Y-10728898D01*
X2639360Y-10728898D02*
X2629836Y-10690803D01*
X2629836Y-10690803D02*
X2629836Y-10643184D01*
X2629836Y-10643184D02*
X2639360Y-10605089D01*
X2639360Y-10605089D02*
X2648884Y-10586041D01*
X2648884Y-10586041D02*
X2658408Y-10576518D01*
X2658408Y-10576518D02*
X2677455Y-10566994D01*
X2867932Y-10566994D02*
X2886979Y-10566994D01*
X2886979Y-10566994D02*
X2906027Y-10576518D01*
X2906027Y-10576518D02*
X2915551Y-10586041D01*
X2915551Y-10586041D02*
X2925074Y-10605089D01*
X2925074Y-10605089D02*
X2934598Y-10643184D01*
X2934598Y-10643184D02*
X2934598Y-10690803D01*
X2934598Y-10690803D02*
X2925074Y-10728898D01*
X2925074Y-10728898D02*
X2915551Y-10747946D01*
X2915551Y-10747946D02*
X2906027Y-10757470D01*
X2906027Y-10757470D02*
X2886979Y-10766994D01*
X2886979Y-10766994D02*
X2867932Y-10766994D01*
X2867932Y-10766994D02*
X2848884Y-10757470D01*
X2848884Y-10757470D02*
X2839360Y-10747946D01*
X2839360Y-10747946D02*
X2829836Y-10728898D01*
X2829836Y-10728898D02*
X2820313Y-10690803D01*
X2820313Y-10690803D02*
X2820313Y-10643184D01*
X2820313Y-10643184D02*
X2829836Y-10605089D01*
X2829836Y-10605089D02*
X2839360Y-10586041D01*
X2839360Y-10586041D02*
X2848884Y-10576518D01*
X2848884Y-10576518D02*
X2867932Y-10566994D01*
X3020313Y-10766994D02*
X3020313Y-10633660D01*
X3020313Y-10652708D02*
X3029836Y-10643184D01*
X3029836Y-10643184D02*
X3048884Y-10633660D01*
X3048884Y-10633660D02*
X3077455Y-10633660D01*
X3077455Y-10633660D02*
X3096503Y-10643184D01*
X3096503Y-10643184D02*
X3106027Y-10662232D01*
X3106027Y-10662232D02*
X3106027Y-10766994D01*
X3106027Y-10662232D02*
X3115551Y-10643184D01*
X3115551Y-10643184D02*
X3134598Y-10633660D01*
X3134598Y-10633660D02*
X3163170Y-10633660D01*
X3163170Y-10633660D02*
X3182217Y-10643184D01*
X3182217Y-10643184D02*
X3191741Y-10662232D01*
X3191741Y-10662232D02*
X3191741Y-10766994D01*
X3286979Y-10766994D02*
X3286979Y-10633660D01*
X3286979Y-10652708D02*
X3296503Y-10643184D01*
X3296503Y-10643184D02*
X3315551Y-10633660D01*
X3315551Y-10633660D02*
X3344122Y-10633660D01*
X3344122Y-10633660D02*
X3363170Y-10643184D01*
X3363170Y-10643184D02*
X3372694Y-10662232D01*
X3372694Y-10662232D02*
X3372694Y-10766994D01*
X3372694Y-10662232D02*
X3382217Y-10643184D01*
X3382217Y-10643184D02*
X3401265Y-10633660D01*
X3401265Y-10633660D02*
X3429836Y-10633660D01*
X3429836Y-10633660D02*
X3448884Y-10643184D01*
X3448884Y-10643184D02*
X3458408Y-10662232D01*
X3458408Y-10662232D02*
X3458408Y-10766994D01*
X3848884Y-10557470D02*
X3677456Y-10814613D01*
X4106027Y-10566994D02*
X4125075Y-10566994D01*
X4125075Y-10566994D02*
X4144122Y-10576518D01*
X4144122Y-10576518D02*
X4153646Y-10586041D01*
X4153646Y-10586041D02*
X4163170Y-10605089D01*
X4163170Y-10605089D02*
X4172694Y-10643184D01*
X4172694Y-10643184D02*
X4172694Y-10690803D01*
X4172694Y-10690803D02*
X4163170Y-10728898D01*
X4163170Y-10728898D02*
X4153646Y-10747946D01*
X4153646Y-10747946D02*
X4144122Y-10757470D01*
X4144122Y-10757470D02*
X4125075Y-10766994D01*
X4125075Y-10766994D02*
X4106027Y-10766994D01*
X4106027Y-10766994D02*
X4086979Y-10757470D01*
X4086979Y-10757470D02*
X4077456Y-10747946D01*
X4077456Y-10747946D02*
X4067932Y-10728898D01*
X4067932Y-10728898D02*
X4058408Y-10690803D01*
X4058408Y-10690803D02*
X4058408Y-10643184D01*
X4058408Y-10643184D02*
X4067932Y-10605089D01*
X4067932Y-10605089D02*
X4077456Y-10586041D01*
X4077456Y-10586041D02*
X4086979Y-10576518D01*
X4086979Y-10576518D02*
X4106027Y-10566994D01*
X4258408Y-10747946D02*
X4267932Y-10757470D01*
X4267932Y-10757470D02*
X4258408Y-10766994D01*
X4258408Y-10766994D02*
X4248884Y-10757470D01*
X4248884Y-10757470D02*
X4258408Y-10747946D01*
X4258408Y-10747946D02*
X4258408Y-10766994D01*
X4458408Y-10766994D02*
X4344122Y-10766994D01*
X4401265Y-10766994D02*
X4401265Y-10566994D01*
X4401265Y-10566994D02*
X4382218Y-10595565D01*
X4382218Y-10595565D02*
X4363170Y-10614613D01*
X4363170Y-10614613D02*
X4344122Y-10624137D01*
X4534599Y-10586041D02*
X4544122Y-10576518D01*
X4544122Y-10576518D02*
X4563170Y-10566994D01*
X4563170Y-10566994D02*
X4610789Y-10566994D01*
X4610789Y-10566994D02*
X4629837Y-10576518D01*
X4629837Y-10576518D02*
X4639360Y-10586041D01*
X4639360Y-10586041D02*
X4648884Y-10605089D01*
X4648884Y-10605089D02*
X4648884Y-10624137D01*
X4648884Y-10624137D02*
X4639360Y-10652708D01*
X4639360Y-10652708D02*
X4525075Y-10766994D01*
X4525075Y-10766994D02*
X4648884Y-10766994D01*
X4820313Y-10566994D02*
X4782218Y-10566994D01*
X4782218Y-10566994D02*
X4763170Y-10576518D01*
X4763170Y-10576518D02*
X4753646Y-10586041D01*
X4753646Y-10586041D02*
X4734599Y-10614613D01*
X4734599Y-10614613D02*
X4725075Y-10652708D01*
X4725075Y-10652708D02*
X4725075Y-10728898D01*
X4725075Y-10728898D02*
X4734599Y-10747946D01*
X4734599Y-10747946D02*
X4744122Y-10757470D01*
X4744122Y-10757470D02*
X4763170Y-10766994D01*
X4763170Y-10766994D02*
X4801265Y-10766994D01*
X4801265Y-10766994D02*
X4820313Y-10757470D01*
X4820313Y-10757470D02*
X4829837Y-10747946D01*
X4829837Y-10747946D02*
X4839360Y-10728898D01*
X4839360Y-10728898D02*
X4839360Y-10681279D01*
X4839360Y-10681279D02*
X4829837Y-10662232D01*
X4829837Y-10662232D02*
X4820313Y-10652708D01*
X4820313Y-10652708D02*
X4801265Y-10643184D01*
X4801265Y-10643184D02*
X4763170Y-10643184D01*
X4763170Y-10643184D02*
X4744122Y-10652708D01*
X4744122Y-10652708D02*
X4734599Y-10662232D01*
X4734599Y-10662232D02*
X4725075Y-10681279D01*
X4963170Y-10566994D02*
X4982218Y-10566994D01*
X4982218Y-10566994D02*
X5001265Y-10576518D01*
X5001265Y-10576518D02*
X5010789Y-10586041D01*
X5010789Y-10586041D02*
X5020313Y-10605089D01*
X5020313Y-10605089D02*
X5029837Y-10643184D01*
X5029837Y-10643184D02*
X5029837Y-10690803D01*
X5029837Y-10690803D02*
X5020313Y-10728898D01*
X5020313Y-10728898D02*
X5010789Y-10747946D01*
X5010789Y-10747946D02*
X5001265Y-10757470D01*
X5001265Y-10757470D02*
X4982218Y-10766994D01*
X4982218Y-10766994D02*
X4963170Y-10766994D01*
X4963170Y-10766994D02*
X4944122Y-10757470D01*
X4944122Y-10757470D02*
X4934599Y-10747946D01*
X4934599Y-10747946D02*
X4925075Y-10728898D01*
X4925075Y-10728898D02*
X4915551Y-10690803D01*
X4915551Y-10690803D02*
X4915551Y-10643184D01*
X4915551Y-10643184D02*
X4925075Y-10605089D01*
X4925075Y-10605089D02*
X4934599Y-10586041D01*
X4934599Y-10586041D02*
X4944122Y-10576518D01*
X4944122Y-10576518D02*
X4963170Y-10566994D01*
X5106027Y-10566994D02*
X5106027Y-10605089D01*
X5182218Y-10566994D02*
X5182218Y-10605089D01*
X5477456Y-10843184D02*
X5467932Y-10833660D01*
X5467932Y-10833660D02*
X5448884Y-10805089D01*
X5448884Y-10805089D02*
X5439361Y-10786041D01*
X5439361Y-10786041D02*
X5429837Y-10757470D01*
X5429837Y-10757470D02*
X5420313Y-10709851D01*
X5420313Y-10709851D02*
X5420313Y-10671756D01*
X5420313Y-10671756D02*
X5429837Y-10624137D01*
X5429837Y-10624137D02*
X5439361Y-10595565D01*
X5439361Y-10595565D02*
X5448884Y-10576518D01*
X5448884Y-10576518D02*
X5467932Y-10547946D01*
X5467932Y-10547946D02*
X5477456Y-10538422D01*
X5639360Y-10633660D02*
X5639360Y-10766994D01*
X5591741Y-10557470D02*
X5544122Y-10700327D01*
X5544122Y-10700327D02*
X5667932Y-10700327D01*
X5896503Y-10766994D02*
X5896503Y-10566994D01*
X5982218Y-10766994D02*
X5982218Y-10662232D01*
X5982218Y-10662232D02*
X5972694Y-10643184D01*
X5972694Y-10643184D02*
X5953646Y-10633660D01*
X5953646Y-10633660D02*
X5925075Y-10633660D01*
X5925075Y-10633660D02*
X5906027Y-10643184D01*
X5906027Y-10643184D02*
X5896503Y-10652708D01*
X6106027Y-10766994D02*
X6086980Y-10757470D01*
X6086980Y-10757470D02*
X6077456Y-10747946D01*
X6077456Y-10747946D02*
X6067932Y-10728898D01*
X6067932Y-10728898D02*
X6067932Y-10671756D01*
X6067932Y-10671756D02*
X6077456Y-10652708D01*
X6077456Y-10652708D02*
X6086980Y-10643184D01*
X6086980Y-10643184D02*
X6106027Y-10633660D01*
X6106027Y-10633660D02*
X6134599Y-10633660D01*
X6134599Y-10633660D02*
X6153646Y-10643184D01*
X6153646Y-10643184D02*
X6163170Y-10652708D01*
X6163170Y-10652708D02*
X6172694Y-10671756D01*
X6172694Y-10671756D02*
X6172694Y-10728898D01*
X6172694Y-10728898D02*
X6163170Y-10747946D01*
X6163170Y-10747946D02*
X6153646Y-10757470D01*
X6153646Y-10757470D02*
X6134599Y-10766994D01*
X6134599Y-10766994D02*
X6106027Y-10766994D01*
X6286980Y-10766994D02*
X6267932Y-10757470D01*
X6267932Y-10757470D02*
X6258408Y-10738422D01*
X6258408Y-10738422D02*
X6258408Y-10566994D01*
X6439361Y-10757470D02*
X6420313Y-10766994D01*
X6420313Y-10766994D02*
X6382218Y-10766994D01*
X6382218Y-10766994D02*
X6363170Y-10757470D01*
X6363170Y-10757470D02*
X6353646Y-10738422D01*
X6353646Y-10738422D02*
X6353646Y-10662232D01*
X6353646Y-10662232D02*
X6363170Y-10643184D01*
X6363170Y-10643184D02*
X6382218Y-10633660D01*
X6382218Y-10633660D02*
X6420313Y-10633660D01*
X6420313Y-10633660D02*
X6439361Y-10643184D01*
X6439361Y-10643184D02*
X6448884Y-10662232D01*
X6448884Y-10662232D02*
X6448884Y-10681279D01*
X6448884Y-10681279D02*
X6353646Y-10700327D01*
X6525075Y-10757470D02*
X6544122Y-10766994D01*
X6544122Y-10766994D02*
X6582218Y-10766994D01*
X6582218Y-10766994D02*
X6601265Y-10757470D01*
X6601265Y-10757470D02*
X6610789Y-10738422D01*
X6610789Y-10738422D02*
X6610789Y-10728898D01*
X6610789Y-10728898D02*
X6601265Y-10709851D01*
X6601265Y-10709851D02*
X6582218Y-10700327D01*
X6582218Y-10700327D02*
X6553646Y-10700327D01*
X6553646Y-10700327D02*
X6534599Y-10690803D01*
X6534599Y-10690803D02*
X6525075Y-10671756D01*
X6525075Y-10671756D02*
X6525075Y-10662232D01*
X6525075Y-10662232D02*
X6534599Y-10643184D01*
X6534599Y-10643184D02*
X6553646Y-10633660D01*
X6553646Y-10633660D02*
X6582218Y-10633660D01*
X6582218Y-10633660D02*
X6601265Y-10643184D01*
X6677456Y-10843184D02*
X6686980Y-10833660D01*
X6686980Y-10833660D02*
X6706027Y-10805089D01*
X6706027Y-10805089D02*
X6715551Y-10786041D01*
X6715551Y-10786041D02*
X6725075Y-10757470D01*
X6725075Y-10757470D02*
X6734599Y-10709851D01*
X6734599Y-10709851D02*
X6734599Y-10671756D01*
X6734599Y-10671756D02*
X6725075Y-10624137D01*
X6725075Y-10624137D02*
X6715551Y-10595565D01*
X6715551Y-10595565D02*
X6706027Y-10576518D01*
X6706027Y-10576518D02*
X6686980Y-10547946D01*
X6686980Y-10547946D02*
X6677456Y-10538422D01*
X7039361Y-10843184D02*
X7029837Y-10833660D01*
X7029837Y-10833660D02*
X7010789Y-10805089D01*
X7010789Y-10805089D02*
X7001265Y-10786041D01*
X7001265Y-10786041D02*
X6991742Y-10757470D01*
X6991742Y-10757470D02*
X6982218Y-10709851D01*
X6982218Y-10709851D02*
X6982218Y-10671756D01*
X6982218Y-10671756D02*
X6991742Y-10624137D01*
X6991742Y-10624137D02*
X7001265Y-10595565D01*
X7001265Y-10595565D02*
X7010789Y-10576518D01*
X7010789Y-10576518D02*
X7029837Y-10547946D01*
X7029837Y-10547946D02*
X7039361Y-10538422D01*
X7115551Y-10633660D02*
X7115551Y-10766994D01*
X7115551Y-10652708D02*
X7125075Y-10643184D01*
X7125075Y-10643184D02*
X7144122Y-10633660D01*
X7144122Y-10633660D02*
X7172694Y-10633660D01*
X7172694Y-10633660D02*
X7191742Y-10643184D01*
X7191742Y-10643184D02*
X7201265Y-10662232D01*
X7201265Y-10662232D02*
X7201265Y-10766994D01*
X7325075Y-10766994D02*
X7306027Y-10757470D01*
X7306027Y-10757470D02*
X7296503Y-10747946D01*
X7296503Y-10747946D02*
X7286980Y-10728898D01*
X7286980Y-10728898D02*
X7286980Y-10671756D01*
X7286980Y-10671756D02*
X7296503Y-10652708D01*
X7296503Y-10652708D02*
X7306027Y-10643184D01*
X7306027Y-10643184D02*
X7325075Y-10633660D01*
X7325075Y-10633660D02*
X7353646Y-10633660D01*
X7353646Y-10633660D02*
X7372694Y-10643184D01*
X7372694Y-10643184D02*
X7382218Y-10652708D01*
X7382218Y-10652708D02*
X7391742Y-10671756D01*
X7391742Y-10671756D02*
X7391742Y-10728898D01*
X7391742Y-10728898D02*
X7382218Y-10747946D01*
X7382218Y-10747946D02*
X7372694Y-10757470D01*
X7372694Y-10757470D02*
X7353646Y-10766994D01*
X7353646Y-10766994D02*
X7325075Y-10766994D01*
X7448884Y-10633660D02*
X7525075Y-10633660D01*
X7477456Y-10566994D02*
X7477456Y-10738422D01*
X7477456Y-10738422D02*
X7486980Y-10757470D01*
X7486980Y-10757470D02*
X7506027Y-10766994D01*
X7506027Y-10766994D02*
X7525075Y-10766994D01*
X7744123Y-10633660D02*
X7744123Y-10833660D01*
X7744123Y-10643184D02*
X7763170Y-10633660D01*
X7763170Y-10633660D02*
X7801265Y-10633660D01*
X7801265Y-10633660D02*
X7820313Y-10643184D01*
X7820313Y-10643184D02*
X7829837Y-10652708D01*
X7829837Y-10652708D02*
X7839361Y-10671756D01*
X7839361Y-10671756D02*
X7839361Y-10728898D01*
X7839361Y-10728898D02*
X7829837Y-10747946D01*
X7829837Y-10747946D02*
X7820313Y-10757470D01*
X7820313Y-10757470D02*
X7801265Y-10766994D01*
X7801265Y-10766994D02*
X7763170Y-10766994D01*
X7763170Y-10766994D02*
X7744123Y-10757470D01*
X7953646Y-10766994D02*
X7934599Y-10757470D01*
X7934599Y-10757470D02*
X7925075Y-10738422D01*
X7925075Y-10738422D02*
X7925075Y-10566994D01*
X8115551Y-10766994D02*
X8115551Y-10662232D01*
X8115551Y-10662232D02*
X8106027Y-10643184D01*
X8106027Y-10643184D02*
X8086980Y-10633660D01*
X8086980Y-10633660D02*
X8048884Y-10633660D01*
X8048884Y-10633660D02*
X8029837Y-10643184D01*
X8115551Y-10757470D02*
X8096504Y-10766994D01*
X8096504Y-10766994D02*
X8048884Y-10766994D01*
X8048884Y-10766994D02*
X8029837Y-10757470D01*
X8029837Y-10757470D02*
X8020313Y-10738422D01*
X8020313Y-10738422D02*
X8020313Y-10719375D01*
X8020313Y-10719375D02*
X8029837Y-10700327D01*
X8029837Y-10700327D02*
X8048884Y-10690803D01*
X8048884Y-10690803D02*
X8096504Y-10690803D01*
X8096504Y-10690803D02*
X8115551Y-10681279D01*
X8182218Y-10633660D02*
X8258408Y-10633660D01*
X8210789Y-10566994D02*
X8210789Y-10738422D01*
X8210789Y-10738422D02*
X8220313Y-10757470D01*
X8220313Y-10757470D02*
X8239361Y-10766994D01*
X8239361Y-10766994D02*
X8258408Y-10766994D01*
X8401266Y-10757470D02*
X8382218Y-10766994D01*
X8382218Y-10766994D02*
X8344123Y-10766994D01*
X8344123Y-10766994D02*
X8325075Y-10757470D01*
X8325075Y-10757470D02*
X8315551Y-10738422D01*
X8315551Y-10738422D02*
X8315551Y-10662232D01*
X8315551Y-10662232D02*
X8325075Y-10643184D01*
X8325075Y-10643184D02*
X8344123Y-10633660D01*
X8344123Y-10633660D02*
X8382218Y-10633660D01*
X8382218Y-10633660D02*
X8401266Y-10643184D01*
X8401266Y-10643184D02*
X8410789Y-10662232D01*
X8410789Y-10662232D02*
X8410789Y-10681279D01*
X8410789Y-10681279D02*
X8315551Y-10700327D01*
X8582218Y-10766994D02*
X8582218Y-10566994D01*
X8582218Y-10757470D02*
X8563170Y-10766994D01*
X8563170Y-10766994D02*
X8525075Y-10766994D01*
X8525075Y-10766994D02*
X8506027Y-10757470D01*
X8506027Y-10757470D02*
X8496504Y-10747946D01*
X8496504Y-10747946D02*
X8486980Y-10728898D01*
X8486980Y-10728898D02*
X8486980Y-10671756D01*
X8486980Y-10671756D02*
X8496504Y-10652708D01*
X8496504Y-10652708D02*
X8506027Y-10643184D01*
X8506027Y-10643184D02*
X8525075Y-10633660D01*
X8525075Y-10633660D02*
X8563170Y-10633660D01*
X8563170Y-10633660D02*
X8582218Y-10643184D01*
X8658408Y-10843184D02*
X8667932Y-10833660D01*
X8667932Y-10833660D02*
X8686980Y-10805089D01*
X8686980Y-10805089D02*
X8696504Y-10786041D01*
X8696504Y-10786041D02*
X8706027Y-10757470D01*
X8706027Y-10757470D02*
X8715551Y-10709851D01*
X8715551Y-10709851D02*
X8715551Y-10671756D01*
X8715551Y-10671756D02*
X8706027Y-10624137D01*
X8706027Y-10624137D02*
X8696504Y-10595565D01*
X8696504Y-10595565D02*
X8686980Y-10576518D01*
X8686980Y-10576518D02*
X8667932Y-10547946D01*
X8667932Y-10547946D02*
X8658408Y-10538422D01*
M02*
