M48
; DRILL file {KiCad 9.0.4} date 2025-12-08T20:15:48+0900
; FORMAT={-:-/ absolute / metric / decimal}
; #@! TF.CreationDate,2025-12-08T20:15:48+09:00
; #@! TF.GenerationSoftware,Kicad,Pcbnew,9.0.4
; #@! TF.FileFunction,Plated,1,2,PTH
FMAT,2
METRIC
; #@! TA.AperFunction,Plated,PTH,ViaDrill
T1C0.300
; #@! TA.AperFunction,Plated,PTH,ComponentDrill
T2C0.800
; #@! TA.AperFunction,Plated,PTH,ComponentDrill
T3C0.950
; #@! TA.AperFunction,Plated,PTH,ComponentDrill
T4C1.000
; #@! TA.AperFunction,Plated,PTH,ComponentDrill
T5C4.550
%
G90
G05
T1
X19.875Y-73.186
X20.955Y-89.535
X21.59Y-21.59
X21.59Y-64.77
X21.59Y-91.44
X22.86Y-55.245
X22.86Y-66.04
X22.86Y-88.9
X23.495Y-20.955
X23.495Y-57.785
X24.13Y-60.325
X24.765Y-55.88
X24.765Y-61.595
X25.4Y-24.765
X26.208Y-76.69
X27.305Y-81.28
X27.94Y-19.685
X27.94Y-80.01
X28.554Y-75.099
X35.56Y-80.01
X37.009Y-77.044
X38.1Y-82.55
X38.735Y-86.995
X39.945Y-84.186
X41.297Y-67.16
X41.91Y-86.995
X42.52Y-74.905
X43.733Y-73.692
X45.72Y-86.995
X46.99Y-29.21
X47.625Y-19.05
X47.625Y-22.86
X48.453Y-48.567
X49.469Y-90.959
X49.53Y-87.63
X49.991Y-73.691
X52.705Y-88.9
X55.232Y-39.679
X58.42Y-90.17
X59.115Y-78.102
X62.33Y-46.143
X64.77Y-80.01
X66.675Y-92.075
X66.81Y-70.233
X67.159Y-76.302
X68.821Y-72.876
X69.036Y-64.221
X69.215Y-27.305
X71.12Y-30.48
X71.12Y-78.74
X71.755Y-19.05
X72.781Y-74.236
X74.762Y-46.805
X74.93Y-27.94
X76.797Y-48.268
X80.645Y-27.305
X81.915Y-91.44
X84.455Y-56.515
X85.725Y-48.26
X86.36Y-33.02
X86.36Y-43.18
X86.995Y-66.675
X86.995Y-78.74
X87.344Y-40.313
X87.63Y-28.575
X88.265Y-19.685
X88.9Y-54.61
X88.9Y-85.09
X89.535Y-56.515
X90.17Y-48.26
X90.17Y-72.39
X90.17Y-79.375
X91.44Y-42.545
X91.44Y-57.15
X91.44Y-74.93
X92.075Y-33.655
X93.345Y-28.575
X93.98Y-66.675
X95.25Y-62.23
X95.25Y-87.63
X96.52Y-79.375
X97.155Y-33.655
X97.155Y-69.85
X97.79Y-27.305
X99.06Y-47.625
X100.352Y-40.799
X101.6Y-19.685
X104.819Y-22.382
X106.68Y-26.67
X109.22Y-24.765
T2
X64.775Y-52.07
X64.775Y-54.61
X64.775Y-57.15
X64.775Y-59.69
X64.775Y-62.23
X64.775Y-64.77
X64.775Y-67.31
X64.775Y-69.85
X72.395Y-52.07
X72.395Y-54.61
X72.395Y-57.15
X72.395Y-59.69
X72.395Y-62.23
X72.395Y-64.77
X72.395Y-67.31
X72.395Y-69.85
T3
X33.735Y-55.245
X33.775Y-35.86
X33.775Y-42.21
X33.775Y-48.895
X33.775Y-61.595
X33.775Y-67.945
X33.815Y-74.295
X36.235Y-55.245
X36.275Y-35.86
X36.275Y-42.21
X36.275Y-48.895
X36.275Y-61.595
X36.275Y-67.945
X36.315Y-74.295
X38.735Y-55.245
X38.775Y-35.86
X38.775Y-42.21
X38.775Y-48.895
X38.775Y-61.595
X38.775Y-67.945
X38.815Y-74.295
X46.96Y-34.925
X46.96Y-42.175
X49.46Y-34.925
X49.46Y-42.175
X51.96Y-34.925
X51.96Y-42.175
X54.46Y-34.925
X54.46Y-42.175
X60.96Y-34.925
X60.96Y-42.2
X63.46Y-34.925
X63.46Y-42.2
X65.96Y-34.925
X65.96Y-42.2
X68.46Y-34.925
X68.46Y-42.2
T4
X21.565Y-68.66
X21.59Y-73.66
X21.602Y-78.61
X21.605Y-83.563
X22.518Y-25.661
X22.518Y-28.201
X22.518Y-30.741
X22.518Y-33.281
X22.518Y-35.821
X22.518Y-38.361
X22.518Y-40.901
X22.518Y-43.441
X22.518Y-45.981
X22.518Y-48.521
X22.518Y-51.061
X24.105Y-68.66
X24.13Y-73.66
X24.142Y-78.61
X24.145Y-83.563
X24.384Y-92.71
X26.924Y-92.71
X29.464Y-92.71
X32.004Y-92.71
X34.544Y-92.71
X37.084Y-92.71
X39.624Y-92.71
X42.164Y-92.71
X44.704Y-92.71
X45.942Y-81.002
X46.029Y-50.349
X46.029Y-55.729
X46.049Y-69.272
X46.069Y-63.857
X46.069Y-75.033
X47.244Y-92.71
X48.442Y-81.002
X48.529Y-50.349
X48.529Y-55.729
X48.549Y-69.272
X48.569Y-63.857
X48.569Y-75.033
X49.784Y-92.71
X55.848Y-50.395
X55.848Y-55.729
X55.955Y-81.129
X55.975Y-63.857
X55.975Y-69.445
X55.975Y-75.033
X58.348Y-50.395
X58.348Y-55.729
X58.455Y-81.129
X58.475Y-63.857
X58.475Y-69.445
X58.475Y-75.033
X74.812Y-22.653
X76.136Y-41.916
X76.136Y-44.456
X76.136Y-46.996
X76.136Y-49.536
X76.136Y-52.076
X76.136Y-54.616
X76.136Y-57.156
X76.136Y-59.696
X76.136Y-62.236
X76.136Y-64.776
X76.136Y-67.316
X76.136Y-69.856
X76.136Y-72.396
X76.136Y-74.936
X76.136Y-77.476
X76.136Y-80.016
X76.136Y-82.556
X76.136Y-85.096
X76.136Y-87.636
X77.352Y-22.653
X79.756Y-41.91
X79.756Y-44.45
X79.756Y-46.99
X79.756Y-49.53
X79.756Y-52.07
X79.756Y-54.61
X79.756Y-57.15
X79.756Y-59.69
X79.756Y-62.23
X79.756Y-64.77
X79.756Y-67.31
X79.756Y-69.85
X79.756Y-72.39
X79.756Y-74.93
X79.756Y-77.47
X79.756Y-80.01
X79.756Y-82.55
X79.756Y-85.09
X79.756Y-87.63
X79.892Y-22.653
X82.432Y-22.653
X84.972Y-22.653
X87.512Y-22.653
X90.052Y-22.653
X92.592Y-22.653
X95.132Y-22.653
X97.672Y-22.653
X100.212Y-22.653
X105.169Y-41.91
X105.169Y-44.45
X105.169Y-46.99
X105.169Y-49.53
X105.169Y-52.07
X105.169Y-54.61
X105.169Y-57.15
X105.169Y-59.69
X105.169Y-62.23
X105.169Y-64.77
X105.169Y-67.31
X105.169Y-69.85
X105.169Y-72.39
X105.169Y-74.93
X105.169Y-77.47
X105.169Y-80.01
X105.169Y-82.55
X105.169Y-85.09
X105.169Y-87.63
X108.8Y-41.916
X108.8Y-44.456
X108.8Y-46.996
X108.8Y-49.536
X108.8Y-52.076
X108.8Y-54.616
X108.8Y-57.156
X108.8Y-59.696
X108.8Y-62.236
X108.8Y-64.776
X108.8Y-67.316
X108.8Y-69.856
X108.8Y-72.396
X108.8Y-74.936
X108.8Y-77.476
X108.8Y-80.016
X108.8Y-82.556
X108.8Y-85.096
X108.8Y-87.636
T5
X34.5Y-25.4
X41.7Y-25.4
X52.915Y-25.4
X60.115Y-25.4
M30
