G04 #@! TF.GenerationSoftware,KiCad,Pcbnew,9.0.3*
G04 #@! TF.CreationDate,2025-08-08T01:49:22+09:00*
G04 #@! TF.ProjectId,ESP32-MB-1.0,45535033-322d-44d4-922d-312e302e6b69,rev?*
G04 #@! TF.SameCoordinates,Original*
G04 #@! TF.FileFunction,Soldermask,Bot*
G04 #@! TF.FilePolarity,Negative*
%FSLAX46Y46*%
G04 Gerber Fmt 4.6, Leading zero omitted, Abs format (unit mm)*
G04 Created by KiCad (PCBNEW 9.0.3) date 2025-08-08 01:49:22*
%MOMM*%
%LPD*%
G01*
G04 APERTURE LIST*
G04 Aperture macros list*
%AMRoundRect*
0 Rectangle with rounded corners*
0 $1 Rounding radius*
0 $2 $3 $4 $5 $6 $7 $8 $9 X,Y pos of 4 corners*
0 Add a 4 corners polygon primitive as box body*
4,1,4,$2,$3,$4,$5,$6,$7,$8,$9,$2,$3,0*
0 Add four circle primitives for the rounded corners*
1,1,$1+$1,$2,$3*
1,1,$1+$1,$4,$5*
1,1,$1+$1,$6,$7*
1,1,$1+$1,$8,$9*
0 Add four rect primitives between the rounded corners*
20,1,$1+$1,$2,$3,$4,$5,0*
20,1,$1+$1,$4,$5,$6,$7,0*
20,1,$1+$1,$6,$7,$8,$9,0*
20,1,$1+$1,$8,$9,$2,$3,0*%
G04 Aperture macros list end*
%ADD10C,1.200000*%
%ADD11RoundRect,0.250000X0.600000X0.750000X-0.600000X0.750000X-0.600000X-0.750000X0.600000X-0.750000X0*%
%ADD12O,1.700000X2.000000*%
%ADD13RoundRect,1.500000X-1.500000X-1.500000X1.500000X-1.500000X1.500000X1.500000X-1.500000X1.500000X0*%
%ADD14C,6.000000*%
%ADD15RoundRect,0.250000X-0.725000X0.600000X-0.725000X-0.600000X0.725000X-0.600000X0.725000X0.600000X0*%
%ADD16O,1.950000X1.700000*%
%ADD17R,1.700000X1.700000*%
%ADD18C,1.700000*%
%ADD19R,1.625600X1.625600*%
%ADD20C,1.625600*%
%ADD21C,3.200000*%
%ADD22C,1.600000*%
%ADD23RoundRect,0.250000X0.550000X0.550000X-0.550000X0.550000X-0.550000X-0.550000X0.550000X-0.550000X0*%
G04 APERTURE END LIST*
D10*
X198328000Y-82112000D03*
D11*
X196728000Y-84112000D03*
D12*
X194228000Y-84112000D03*
X194208000Y-97718000D03*
D11*
X196708000Y-97718000D03*
D10*
X198308000Y-95718000D03*
D12*
X194228000Y-104559000D03*
D11*
X196728000Y-104559000D03*
D10*
X198328000Y-102559000D03*
D13*
X103676000Y-66586000D03*
D14*
X110876000Y-66586000D03*
D10*
X198506000Y-116370000D03*
D11*
X196906000Y-118370000D03*
D12*
X194406000Y-118370000D03*
D10*
X138086000Y-76823000D03*
D15*
X140086000Y-78423000D03*
D16*
X140086000Y-80923000D03*
X140086000Y-83423000D03*
D10*
X107066000Y-43612100D03*
D11*
X105466000Y-45612100D03*
D12*
X102966000Y-45612100D03*
D17*
X181063900Y-80768700D03*
D18*
X181063900Y-78228700D03*
X181063900Y-75688700D03*
X181063900Y-73148700D03*
X181063900Y-70608700D03*
X181063900Y-68068700D03*
X181063900Y-65528700D03*
X181063900Y-62988700D03*
X181063900Y-60448700D03*
X181063900Y-57908700D03*
X181063900Y-55368700D03*
D19*
X151686100Y-66825300D03*
D20*
X154226100Y-66825300D03*
X156766100Y-66825300D03*
D13*
X103635000Y-75982000D03*
D14*
X110835000Y-75982000D03*
D19*
X151770000Y-56680000D03*
D20*
X154310000Y-56680000D03*
X156850000Y-56680000D03*
D19*
X151770000Y-51600000D03*
D20*
X154310000Y-51600000D03*
X156850000Y-51600000D03*
D17*
X150495000Y-35879000D03*
D18*
X147955000Y-35879000D03*
X145415000Y-35879000D03*
X142875000Y-35879000D03*
X140335000Y-35879000D03*
X137795000Y-35879000D03*
X135255000Y-35879000D03*
X132715000Y-35879000D03*
X130175000Y-35879000D03*
X127635000Y-35879000D03*
X125095000Y-35879000D03*
D19*
X151770000Y-61760000D03*
D20*
X154310000Y-61760000D03*
X156850000Y-61760000D03*
D19*
X151686100Y-71905300D03*
D20*
X154226100Y-71905300D03*
X156766100Y-71905300D03*
D21*
X91318000Y-151930000D03*
D10*
X129196000Y-43404000D03*
D15*
X131196000Y-45004000D03*
D16*
X131196000Y-47504000D03*
X131196000Y-50004000D03*
D10*
X129274000Y-65556000D03*
D15*
X131274000Y-67156000D03*
D16*
X131274000Y-69656000D03*
X131274000Y-72156000D03*
D10*
X106950300Y-30006100D03*
D11*
X105350300Y-32006100D03*
D12*
X102850300Y-32006100D03*
D10*
X106823300Y-23148100D03*
D11*
X105223300Y-25148100D03*
D12*
X102723300Y-25148100D03*
D10*
X107066000Y-36868000D03*
D11*
X105466000Y-38868000D03*
D12*
X102966000Y-38868000D03*
D10*
X198506000Y-109512000D03*
D11*
X196906000Y-111512000D03*
D12*
X194406000Y-111512000D03*
D10*
X115588000Y-36756000D03*
D11*
X113988000Y-38756000D03*
D12*
X111488000Y-38756000D03*
D10*
X129450000Y-76823000D03*
D15*
X131450000Y-78423000D03*
D16*
X131450000Y-80923000D03*
X131450000Y-83423000D03*
D10*
X198542000Y-123260000D03*
D11*
X196942000Y-125260000D03*
D12*
X194442000Y-125260000D03*
D19*
X151686100Y-76985300D03*
D20*
X154226100Y-76985300D03*
X156766100Y-76985300D03*
D10*
X198328000Y-88970000D03*
D11*
X196728000Y-90970000D03*
D12*
X194228000Y-90970000D03*
D10*
X115484000Y-29788000D03*
D11*
X113884000Y-31788000D03*
D12*
X111384000Y-31788000D03*
D10*
X115484000Y-43758000D03*
D11*
X113884000Y-45758000D03*
D12*
X111384000Y-45758000D03*
D10*
X137910000Y-65556000D03*
D15*
X139910000Y-67156000D03*
D16*
X139910000Y-69656000D03*
X139910000Y-72156000D03*
D10*
X198502000Y-130118000D03*
D11*
X196902000Y-132118000D03*
D12*
X194402000Y-132118000D03*
D19*
X151765000Y-46649000D03*
D20*
X154305000Y-46649000D03*
X156845000Y-46649000D03*
D21*
X91318000Y-19850000D03*
D10*
X137942000Y-54598000D03*
D15*
X139942000Y-56198000D03*
D16*
X139942000Y-58698000D03*
X139942000Y-61198000D03*
D13*
X103945000Y-85424400D03*
D14*
X111145000Y-85424400D03*
D10*
X129306000Y-54580000D03*
D15*
X131306000Y-56180000D03*
D16*
X131306000Y-58680000D03*
X131306000Y-61180000D03*
D19*
X151686100Y-82065300D03*
D20*
X154226100Y-82065300D03*
X156766100Y-82065300D03*
D10*
X115484000Y-22898000D03*
D11*
X113884000Y-24898000D03*
D12*
X111384000Y-24898000D03*
D13*
X103676000Y-57188000D03*
D14*
X110876000Y-57188000D03*
D21*
X197998000Y-151930000D03*
D17*
X165486000Y-100876000D03*
D18*
X165486000Y-103416000D03*
X165486000Y-105956000D03*
X165486000Y-108496000D03*
X165486000Y-111036000D03*
X165486000Y-113576000D03*
X165486000Y-116116000D03*
X165486000Y-118656000D03*
X165486000Y-121196000D03*
X165486000Y-123736000D03*
X165486000Y-126276000D03*
D17*
X168275000Y-141589000D03*
D18*
X170815000Y-141589000D03*
X173355000Y-141589000D03*
X175895000Y-141589000D03*
X178435000Y-141589000D03*
X180975000Y-141589000D03*
X183515000Y-141589000D03*
X186055000Y-141589000D03*
X188595000Y-141589000D03*
X191135000Y-141589000D03*
X193675000Y-141589000D03*
D10*
X137832000Y-43422000D03*
D15*
X139832000Y-45022000D03*
D16*
X139832000Y-47522000D03*
X139832000Y-50022000D03*
D21*
X197998000Y-19850000D03*
D22*
X145928000Y-133628000D03*
X135768000Y-133628000D03*
X145928000Y-129578000D03*
X135768000Y-129578000D03*
D23*
X113919000Y-122466000D03*
D22*
X113919000Y-125006000D03*
X113919000Y-127546000D03*
X113919000Y-130086000D03*
X106299000Y-130086000D03*
X106299000Y-127546000D03*
X106299000Y-125006000D03*
X106299000Y-122466000D03*
X145933000Y-117327000D03*
X135773000Y-117327000D03*
X145928000Y-113378000D03*
X135768000Y-113378000D03*
X145928000Y-109328000D03*
X135768000Y-109328000D03*
D17*
X95263000Y-82236000D03*
D18*
X95263000Y-79696000D03*
X95263000Y-77156000D03*
X95263000Y-74616000D03*
X95263000Y-72076000D03*
X95263000Y-69536000D03*
X95263000Y-66996000D03*
X95263000Y-64456000D03*
X95263000Y-61916000D03*
X95263000Y-59376000D03*
X95263000Y-56836000D03*
X95263000Y-54296000D03*
X95263000Y-51756000D03*
X95263000Y-49216000D03*
X95263000Y-46676000D03*
X95263000Y-44136000D03*
X95263000Y-41596000D03*
X95263000Y-39056000D03*
X95263000Y-36516000D03*
D17*
X120663000Y-82236000D03*
D18*
X120663000Y-79696000D03*
X120663000Y-77156000D03*
X120663000Y-74616000D03*
X120663000Y-72076000D03*
X120663000Y-69536000D03*
X120663000Y-66996000D03*
X120663000Y-64456000D03*
X120663000Y-61916000D03*
X120663000Y-59376000D03*
X120663000Y-56836000D03*
X120663000Y-54296000D03*
X120663000Y-51756000D03*
X120663000Y-49216000D03*
X120663000Y-46676000D03*
X120663000Y-44136000D03*
X120663000Y-41596000D03*
X120663000Y-39056000D03*
X120663000Y-36516000D03*
D22*
X145928000Y-137678000D03*
X135768000Y-137678000D03*
D17*
X120663000Y-101794000D03*
D18*
X120663000Y-104334000D03*
X120663000Y-106874000D03*
X120663000Y-109414000D03*
X120663000Y-111954000D03*
X120663000Y-114494000D03*
X120663000Y-117034000D03*
X120663000Y-119574000D03*
X120663000Y-122114000D03*
X120663000Y-124654000D03*
X120663000Y-127194000D03*
X120663000Y-129734000D03*
X120663000Y-132274000D03*
X120663000Y-134814000D03*
X120663000Y-137354000D03*
X120663000Y-139894000D03*
X120663000Y-142434000D03*
X120663000Y-144974000D03*
X120663000Y-147514000D03*
D22*
X145928000Y-125528000D03*
X135768000Y-125528000D03*
X145928000Y-121478000D03*
X135768000Y-121478000D03*
D17*
X95263000Y-101794000D03*
D18*
X95263000Y-104334000D03*
X95263000Y-106874000D03*
X95263000Y-109414000D03*
X95263000Y-111954000D03*
X95263000Y-114494000D03*
X95263000Y-117034000D03*
X95263000Y-119574000D03*
X95263000Y-122114000D03*
X95263000Y-124654000D03*
X95263000Y-127194000D03*
X95263000Y-129734000D03*
X95263000Y-132274000D03*
X95263000Y-134814000D03*
X95263000Y-137354000D03*
X95263000Y-139894000D03*
X95263000Y-142434000D03*
X95263000Y-144974000D03*
X95263000Y-147514000D03*
M02*
