M48
; DRILL file {KiCad 9.0.3} date 2025-08-08T01:49:32+0900
; FORMAT={-:-/ absolute / metric / decimal}
; #@! TF.CreationDate,2025-08-08T01:49:32+09:00
; #@! TF.GenerationSoftware,Kicad,Pcbnew,9.0.3
; #@! TF.FileFunction,NonPlated,1,2,NPTH
FMAT,2
METRIC
; #@! TA.AperFunction,NonPlated,NPTH,ComponentDrill
T1C1.200
; #@! TA.AperFunction,NonPlated,NPTH,ComponentDrill
T2C3.200
%
G90
G05
T1
X106.823Y-23.148
X106.95Y-30.006
X107.066Y-36.868
X107.066Y-43.612
X115.484Y-22.898
X115.484Y-29.788
X115.484Y-43.758
X115.588Y-36.756
X129.196Y-43.404
X129.274Y-65.556
X129.306Y-54.58
X129.45Y-76.823
X137.832Y-43.422
X137.91Y-65.556
X137.942Y-54.598
X138.086Y-76.823
X198.308Y-95.718
X198.328Y-82.112
X198.328Y-88.97
X198.328Y-102.559
X198.502Y-130.118
X198.506Y-109.512
X198.506Y-116.37
X198.542Y-123.26
T2
X91.318Y-19.85
X91.318Y-151.93
X197.998Y-19.85
X197.998Y-151.93
M30
