%TF.GenerationSoftware,KiCad,Pcbnew,9.0.3*%
%TF.CreationDate,2025-08-08T01:42:35+09:00*%
%TF.ProjectId,ESP32-MB-1.0,45535033-322d-44d4-922d-312e302e6b69,rev?*%
%TF.SameCoordinates,Original*%
%TF.FileFunction,Drillmap*%
%TF.FilePolarity,Positive*%
%FSLAX45Y45*%
G04 Gerber Fmt 4.5, Leading zero omitted, Abs format (unit mm)*
G04 Created by KiCad (PCBNEW 9.0.3) date 2025-08-08 01:42:35*
%MOMM*%
%LPD*%
G01*
G04 APERTURE LIST*
%ADD10C,0.050000*%
%ADD11C,0.200000*%
%ADD12C,0.100000*%
%ADD13C,0.111760*%
%ADD14C,0.450000*%
G04 APERTURE END LIST*
D10*
X20307800Y-15193000D02*
X20307800Y-1985000D01*
X20307800Y-15193000D02*
G75*
G02*
X19799800Y-15701000I-508000J0D01*
G01*
X19799800Y-1477000D02*
X9131800Y-1477000D01*
X9131800Y-15701000D02*
G75*
G02*
X8623800Y-15193000I0J508000D01*
G01*
X8623800Y-1985000D02*
X8623800Y-15193000D01*
X19799800Y-1477000D02*
G75*
G02*
X20307800Y-1985000I0J-508000D01*
G01*
X8623800Y-1985000D02*
G75*
G02*
X9131800Y-1477000I508000J0D01*
G01*
X9131800Y-15701000D02*
X19799800Y-15701000D01*
D11*
D12*
X8862800Y-7812000D02*
X8892800Y-7842000D01*
X8892800Y-7812000D02*
X8862800Y-7842000D01*
X8862800Y-12384000D02*
X8892800Y-12414000D01*
X8892800Y-12384000D02*
X8862800Y-12414000D01*
X8989800Y-3875000D02*
X9019800Y-3905000D01*
X9019800Y-3875000D02*
X8989800Y-3905000D01*
X8989800Y-5018000D02*
X9019800Y-5048000D01*
X9019800Y-5018000D02*
X8989800Y-5048000D01*
X8989800Y-5399000D02*
X9019800Y-5429000D01*
X9019800Y-5399000D02*
X8989800Y-5429000D01*
X8989800Y-6415000D02*
X9019800Y-6445000D01*
X9019800Y-6415000D02*
X8989800Y-6445000D01*
X8989800Y-8701000D02*
X9019800Y-8731000D01*
X9019800Y-8701000D02*
X8989800Y-8731000D01*
X8989800Y-9590000D02*
X9019800Y-9620000D01*
X9019800Y-9590000D02*
X8989800Y-9620000D01*
X8989800Y-10479000D02*
X9019800Y-10509000D01*
X9019800Y-10479000D02*
X8989800Y-10509000D01*
X8989800Y-11368000D02*
X9019800Y-11398000D01*
X9019800Y-11368000D02*
X8989800Y-11398000D01*
X8989800Y-14416000D02*
X9019800Y-14446000D01*
X9019800Y-14416000D02*
X8989800Y-14446000D01*
X9116800Y-2732000D02*
X9146800Y-2762000D01*
X9146800Y-2732000D02*
X9116800Y-2762000D01*
X9116800Y-3113000D02*
X9146800Y-3143000D01*
X9146800Y-3113000D02*
X9116800Y-3143000D01*
X9116800Y-6796000D02*
X9146800Y-6826000D01*
X9146800Y-6796000D02*
X9116800Y-6826000D01*
X9116800Y-12892000D02*
X9146800Y-12922000D01*
X9146800Y-12892000D02*
X9116800Y-12922000D01*
X9116800Y-13400000D02*
X9146800Y-13430000D01*
X9146800Y-13400000D02*
X9116800Y-13430000D01*
X9243800Y-4510000D02*
X9273800Y-4540000D01*
X9273800Y-4510000D02*
X9243800Y-4540000D01*
X9243800Y-14035000D02*
X9273800Y-14065000D01*
X9273800Y-14035000D02*
X9243800Y-14065000D01*
X9305150Y-6354270D02*
X9335150Y-6384270D01*
X9335150Y-6354270D02*
X9305150Y-6384270D01*
X9370800Y-2351000D02*
X9400800Y-2381000D01*
X9400800Y-2351000D02*
X9370800Y-2381000D01*
X9497800Y-9590000D02*
X9527800Y-9620000D01*
X9527800Y-9590000D02*
X9497800Y-9620000D01*
X9624800Y-2732000D02*
X9654800Y-2762000D01*
X9654800Y-2732000D02*
X9624800Y-2762000D01*
X9647830Y-12760180D02*
X9677830Y-12790180D01*
X9677830Y-12760180D02*
X9647830Y-12790180D01*
X9686030Y-6747750D02*
X9716030Y-6777750D01*
X9716030Y-6747750D02*
X9686030Y-6777750D01*
X9751800Y-3113000D02*
X9781800Y-3143000D01*
X9781800Y-3113000D02*
X9751800Y-3143000D01*
X9751800Y-14797000D02*
X9781800Y-14827000D01*
X9781800Y-14797000D02*
X9751800Y-14827000D01*
X9862250Y-6870680D02*
X9892250Y-6900680D01*
X9892250Y-6870680D02*
X9862250Y-6900680D01*
X9878800Y-1716000D02*
X9908800Y-1746000D01*
X9908800Y-1716000D02*
X9878800Y-1746000D01*
X9878800Y-14924000D02*
X9908800Y-14954000D01*
X9908800Y-14924000D02*
X9878800Y-14954000D01*
X9878800Y-15305000D02*
X9908800Y-15335000D01*
X9908800Y-15305000D02*
X9878800Y-15335000D01*
X9888290Y-5160110D02*
X9918290Y-5190110D01*
X9918290Y-5160110D02*
X9888290Y-5190110D01*
X9915500Y-4864620D02*
X9945500Y-4894620D01*
X9945500Y-4864620D02*
X9915500Y-4894620D01*
X9965720Y-11709840D02*
X9995720Y-11739840D01*
X9995720Y-11709840D02*
X9965720Y-11739840D01*
X10132800Y-14289000D02*
X10162800Y-14319000D01*
X10162800Y-14289000D02*
X10132800Y-14319000D01*
X10208100Y-10206120D02*
X10238100Y-10236120D01*
X10238100Y-10206120D02*
X10208100Y-10236120D01*
X10208100Y-13767120D02*
X10238100Y-13797120D01*
X10238100Y-13767120D02*
X10208100Y-13797120D01*
X10513800Y-15432000D02*
X10543800Y-15462000D01*
X10543800Y-15432000D02*
X10513800Y-15462000D01*
X10640800Y-1716000D02*
X10670800Y-1746000D01*
X10670800Y-1716000D02*
X10640800Y-1746000D01*
X10640800Y-14416000D02*
X10670800Y-14446000D01*
X10670800Y-14416000D02*
X10640800Y-14446000D01*
X10640800Y-15051000D02*
X10670800Y-15081000D01*
X10670800Y-15051000D02*
X10640800Y-15081000D01*
X10684880Y-12097120D02*
X10714880Y-12127120D01*
X10714880Y-12097120D02*
X10684880Y-12127120D01*
X10767800Y-10225000D02*
X10797800Y-10255000D01*
X10797800Y-10225000D02*
X10767800Y-10255000D01*
X11021800Y-9717000D02*
X11051800Y-9747000D01*
X11051800Y-9717000D02*
X11021800Y-9747000D01*
X11021800Y-15178000D02*
X11051800Y-15208000D01*
X11051800Y-15178000D02*
X11021800Y-15208000D01*
X11085900Y-14063870D02*
X11115900Y-14093870D01*
X11115900Y-14063870D02*
X11085900Y-14093870D01*
X11148800Y-14543000D02*
X11178800Y-14573000D01*
X11178800Y-14543000D02*
X11148800Y-14573000D01*
X11228720Y-12168290D02*
X11258720Y-12198290D01*
X11258720Y-12168290D02*
X11228720Y-12198290D01*
X11275800Y-10225000D02*
X11305800Y-10255000D01*
X11305800Y-10225000D02*
X11275800Y-10255000D01*
X11402800Y-1843000D02*
X11432800Y-1873000D01*
X11432800Y-1843000D02*
X11402800Y-1873000D01*
X11529800Y-15305000D02*
X11559800Y-15335000D01*
X11559800Y-15305000D02*
X11529800Y-15335000D01*
X11564750Y-4756190D02*
X11594750Y-4786190D01*
X11594750Y-4756190D02*
X11564750Y-4786190D01*
X11588480Y-7535370D02*
X11618480Y-7565370D01*
X11618480Y-7535370D02*
X11588480Y-7565370D01*
X11662160Y-4099400D02*
X11692160Y-4129400D01*
X11692160Y-4099400D02*
X11662160Y-4129400D01*
X11891850Y-8097130D02*
X11921850Y-8127130D01*
X11921850Y-8097130D02*
X11891850Y-8127130D01*
X11910800Y-2097000D02*
X11940800Y-2127000D01*
X11940800Y-2097000D02*
X11910800Y-2127000D01*
X11910800Y-2605000D02*
X11940800Y-2635000D01*
X11940800Y-2605000D02*
X11910800Y-2635000D01*
X11963700Y-3044770D02*
X11993700Y-3074770D01*
X11993700Y-3044770D02*
X11963700Y-3074770D01*
X11963700Y-9704850D02*
X11993700Y-9734850D01*
X11993700Y-9704850D02*
X11963700Y-9734850D01*
X12051850Y-2985260D02*
X12081850Y-3015260D01*
X12081850Y-2985260D02*
X12051850Y-3015260D01*
X12255830Y-9705720D02*
X12285830Y-9735720D01*
X12285830Y-9705720D02*
X12255830Y-9735720D01*
X12418800Y-14289000D02*
X12448800Y-14319000D01*
X12448800Y-14289000D02*
X12418800Y-14319000D01*
X12418800Y-14416000D02*
X12448800Y-14446000D01*
X12448800Y-14416000D02*
X12418800Y-14446000D01*
X12418800Y-14543000D02*
X12448800Y-14573000D01*
X12448800Y-14543000D02*
X12418800Y-14573000D01*
X12418800Y-14670000D02*
X12448800Y-14700000D01*
X12448800Y-14670000D02*
X12418800Y-14700000D01*
X12418800Y-14797000D02*
X12448800Y-14827000D01*
X12448800Y-14797000D02*
X12418800Y-14827000D01*
X12418800Y-14924000D02*
X12448800Y-14954000D01*
X12448800Y-14924000D02*
X12418800Y-14954000D01*
X12418800Y-15051000D02*
X12448800Y-15081000D01*
X12448800Y-15051000D02*
X12418800Y-15081000D01*
X12418800Y-15178000D02*
X12448800Y-15208000D01*
X12448800Y-15178000D02*
X12418800Y-15208000D01*
X12418800Y-15305000D02*
X12448800Y-15335000D01*
X12448800Y-15305000D02*
X12418800Y-15335000D01*
X12418800Y-15432000D02*
X12448800Y-15462000D01*
X12448800Y-15432000D02*
X12418800Y-15462000D01*
X12545800Y-3367000D02*
X12575800Y-3397000D01*
X12575800Y-3367000D02*
X12545800Y-3397000D01*
X12545800Y-13527000D02*
X12575800Y-13557000D01*
X12575800Y-13527000D02*
X12545800Y-13557000D01*
X12545800Y-14289000D02*
X12575800Y-14319000D01*
X12575800Y-14289000D02*
X12545800Y-14319000D01*
X12545800Y-14797000D02*
X12575800Y-14827000D01*
X12575800Y-14797000D02*
X12545800Y-14827000D01*
X12672800Y-9971000D02*
X12702800Y-10001000D01*
X12702800Y-9971000D02*
X12672800Y-10001000D01*
X12672800Y-14289000D02*
X12702800Y-14319000D01*
X12702800Y-14289000D02*
X12672800Y-14319000D01*
X12672800Y-14797000D02*
X12702800Y-14827000D01*
X12702800Y-14797000D02*
X12672800Y-14827000D01*
X12799800Y-1843000D02*
X12829800Y-1873000D01*
X12829800Y-1843000D02*
X12799800Y-1873000D01*
X12799800Y-2605000D02*
X12829800Y-2635000D01*
X12829800Y-2605000D02*
X12799800Y-2635000D01*
X12799800Y-14289000D02*
X12829800Y-14319000D01*
X12829800Y-14289000D02*
X12799800Y-14319000D01*
X12799800Y-14797000D02*
X12829800Y-14827000D01*
X12829800Y-14797000D02*
X12799800Y-14827000D01*
X12799800Y-14924000D02*
X12829800Y-14954000D01*
X12829800Y-14924000D02*
X12799800Y-14954000D01*
X12799800Y-15051000D02*
X12829800Y-15081000D01*
X12829800Y-15051000D02*
X12799800Y-15081000D01*
X12926800Y-10225000D02*
X12956800Y-10255000D01*
X12956800Y-10225000D02*
X12926800Y-10255000D01*
X12926800Y-14289000D02*
X12956800Y-14319000D01*
X12956800Y-14289000D02*
X12926800Y-14319000D01*
X12926800Y-14797000D02*
X12956800Y-14827000D01*
X12956800Y-14797000D02*
X12926800Y-14827000D01*
X12926800Y-15051000D02*
X12956800Y-15081000D01*
X12956800Y-15051000D02*
X12926800Y-15081000D01*
X12926800Y-15178000D02*
X12956800Y-15208000D01*
X12956800Y-15178000D02*
X12926800Y-15208000D01*
X13053800Y-2097000D02*
X13083800Y-2127000D01*
X13083800Y-2097000D02*
X13053800Y-2127000D01*
X13053800Y-13527000D02*
X13083800Y-13557000D01*
X13083800Y-13527000D02*
X13053800Y-13557000D01*
X13053800Y-14416000D02*
X13083800Y-14446000D01*
X13083800Y-14416000D02*
X13053800Y-14446000D01*
X13053800Y-14543000D02*
X13083800Y-14573000D01*
X13083800Y-14543000D02*
X13053800Y-14573000D01*
X13053800Y-14670000D02*
X13083800Y-14700000D01*
X13083800Y-14670000D02*
X13053800Y-14700000D01*
X13053800Y-15178000D02*
X13083800Y-15208000D01*
X13083800Y-15178000D02*
X13053800Y-15208000D01*
X13053800Y-15305000D02*
X13083800Y-15335000D01*
X13083800Y-15305000D02*
X13053800Y-15335000D01*
X13053800Y-15432000D02*
X13083800Y-15462000D01*
X13083800Y-15432000D02*
X13053800Y-15462000D01*
X13180800Y-9971000D02*
X13210800Y-10001000D01*
X13210800Y-9971000D02*
X13180800Y-10001000D01*
X13180800Y-15432000D02*
X13210800Y-15462000D01*
X13210800Y-15432000D02*
X13180800Y-15462000D01*
X13307800Y-14289000D02*
X13337800Y-14319000D01*
X13337800Y-14289000D02*
X13307800Y-14319000D01*
X13307800Y-14416000D02*
X13337800Y-14446000D01*
X13337800Y-14416000D02*
X13307800Y-14446000D01*
X13307800Y-14543000D02*
X13337800Y-14573000D01*
X13337800Y-14543000D02*
X13307800Y-14573000D01*
X13307800Y-14670000D02*
X13337800Y-14700000D01*
X13337800Y-14670000D02*
X13307800Y-14700000D01*
X13307800Y-14797000D02*
X13337800Y-14827000D01*
X13337800Y-14797000D02*
X13307800Y-14827000D01*
X13307800Y-14924000D02*
X13337800Y-14954000D01*
X13337800Y-14924000D02*
X13307800Y-14954000D01*
X13307800Y-15051000D02*
X13337800Y-15081000D01*
X13337800Y-15051000D02*
X13307800Y-15081000D01*
X13307800Y-15178000D02*
X13337800Y-15208000D01*
X13337800Y-15178000D02*
X13307800Y-15208000D01*
X13307800Y-15305000D02*
X13337800Y-15335000D01*
X13337800Y-15305000D02*
X13307800Y-15335000D01*
X13307800Y-15432000D02*
X13337800Y-15462000D01*
X13337800Y-15432000D02*
X13307800Y-15462000D01*
X13434800Y-13527000D02*
X13464800Y-13557000D01*
X13464800Y-13527000D02*
X13434800Y-13557000D01*
X13434800Y-14289000D02*
X13464800Y-14319000D01*
X13464800Y-14289000D02*
X13434800Y-14319000D01*
X13434800Y-14797000D02*
X13464800Y-14827000D01*
X13464800Y-14797000D02*
X13434800Y-14827000D01*
X13511000Y-10722520D02*
X13541000Y-10752520D01*
X13541000Y-10722520D02*
X13511000Y-10752520D01*
X13561800Y-2605000D02*
X13591800Y-2635000D01*
X13591800Y-2605000D02*
X13561800Y-2635000D01*
X13561800Y-14289000D02*
X13591800Y-14319000D01*
X13591800Y-14289000D02*
X13561800Y-14319000D01*
X13561800Y-14797000D02*
X13591800Y-14827000D01*
X13591800Y-14797000D02*
X13561800Y-14827000D01*
X13688800Y-3875000D02*
X13718800Y-3905000D01*
X13718800Y-3875000D02*
X13688800Y-3905000D01*
X13688800Y-10352000D02*
X13718800Y-10382000D01*
X13718800Y-10352000D02*
X13688800Y-10382000D01*
X13688800Y-14289000D02*
X13718800Y-14319000D01*
X13718800Y-14289000D02*
X13688800Y-14319000D01*
X13688800Y-14797000D02*
X13718800Y-14827000D01*
X13718800Y-14797000D02*
X13688800Y-14827000D01*
X13688800Y-14924000D02*
X13718800Y-14954000D01*
X13718800Y-14924000D02*
X13688800Y-14954000D01*
X13688800Y-15051000D02*
X13718800Y-15081000D01*
X13718800Y-15051000D02*
X13688800Y-15081000D01*
X13815800Y-10098000D02*
X13845800Y-10128000D01*
X13845800Y-10098000D02*
X13815800Y-10128000D01*
X13815800Y-14289000D02*
X13845800Y-14319000D01*
X13845800Y-14289000D02*
X13815800Y-14319000D01*
X13815800Y-14797000D02*
X13845800Y-14827000D01*
X13845800Y-14797000D02*
X13815800Y-14827000D01*
X13815800Y-15051000D02*
X13845800Y-15081000D01*
X13845800Y-15051000D02*
X13815800Y-15081000D01*
X13815800Y-15178000D02*
X13845800Y-15208000D01*
X13845800Y-15178000D02*
X13815800Y-15208000D01*
X13942800Y-1970000D02*
X13972800Y-2000000D01*
X13972800Y-1970000D02*
X13942800Y-2000000D01*
X13942800Y-2986000D02*
X13972800Y-3016000D01*
X13972800Y-2986000D02*
X13942800Y-3016000D01*
X13942800Y-9971000D02*
X13972800Y-10001000D01*
X13972800Y-9971000D02*
X13942800Y-10001000D01*
X13942800Y-10352000D02*
X13972800Y-10382000D01*
X13972800Y-10352000D02*
X13942800Y-10382000D01*
X13942800Y-14416000D02*
X13972800Y-14446000D01*
X13972800Y-14416000D02*
X13942800Y-14446000D01*
X13942800Y-14543000D02*
X13972800Y-14573000D01*
X13972800Y-14543000D02*
X13942800Y-14573000D01*
X13942800Y-14670000D02*
X13972800Y-14700000D01*
X13972800Y-14670000D02*
X13942800Y-14700000D01*
X13942800Y-15178000D02*
X13972800Y-15208000D01*
X13972800Y-15178000D02*
X13942800Y-15208000D01*
X13942800Y-15305000D02*
X13972800Y-15335000D01*
X13972800Y-15305000D02*
X13942800Y-15335000D01*
X13942800Y-15432000D02*
X13972800Y-15462000D01*
X13972800Y-15432000D02*
X13942800Y-15462000D01*
X14069800Y-15432000D02*
X14099800Y-15462000D01*
X14099800Y-15432000D02*
X14069800Y-15462000D01*
X14196800Y-3240000D02*
X14226800Y-3270000D01*
X14226800Y-3240000D02*
X14196800Y-3270000D01*
X14196800Y-14416000D02*
X14226800Y-14446000D01*
X14226800Y-14416000D02*
X14196800Y-14446000D01*
X14196800Y-14670000D02*
X14226800Y-14700000D01*
X14226800Y-14670000D02*
X14196800Y-14700000D01*
X14196800Y-15178000D02*
X14226800Y-15208000D01*
X14226800Y-15178000D02*
X14196800Y-15208000D01*
X14323800Y-3875000D02*
X14353800Y-3905000D01*
X14353800Y-3875000D02*
X14323800Y-3905000D01*
X14323800Y-14289000D02*
X14353800Y-14319000D01*
X14353800Y-14289000D02*
X14323800Y-14319000D01*
X14323800Y-14797000D02*
X14353800Y-14827000D01*
X14353800Y-14797000D02*
X14323800Y-14827000D01*
X14323800Y-15305000D02*
X14353800Y-15335000D01*
X14353800Y-15305000D02*
X14323800Y-15335000D01*
X14450800Y-1970000D02*
X14480800Y-2000000D01*
X14480800Y-1970000D02*
X14450800Y-2000000D01*
X14450800Y-2605000D02*
X14480800Y-2635000D01*
X14480800Y-2605000D02*
X14450800Y-2635000D01*
X14450800Y-14289000D02*
X14480800Y-14319000D01*
X14480800Y-14289000D02*
X14450800Y-14319000D01*
X14450800Y-14924000D02*
X14480800Y-14954000D01*
X14480800Y-14924000D02*
X14450800Y-14954000D01*
X14450800Y-15432000D02*
X14480800Y-15462000D01*
X14480800Y-15432000D02*
X14450800Y-15462000D01*
X14555800Y-9707440D02*
X14585800Y-9737440D01*
X14585800Y-9707440D02*
X14555800Y-9737440D01*
X14577800Y-2986000D02*
X14607800Y-3016000D01*
X14607800Y-2986000D02*
X14577800Y-3016000D01*
X14577800Y-14289000D02*
X14607800Y-14319000D01*
X14607800Y-14289000D02*
X14577800Y-14319000D01*
X14577800Y-14924000D02*
X14607800Y-14954000D01*
X14607800Y-14924000D02*
X14577800Y-14954000D01*
X14577800Y-15432000D02*
X14607800Y-15462000D01*
X14607800Y-15432000D02*
X14577800Y-15462000D01*
X14677610Y-9730850D02*
X14707610Y-9760850D01*
X14707610Y-9730850D02*
X14677610Y-9760850D01*
X14704800Y-14289000D02*
X14734800Y-14319000D01*
X14734800Y-14289000D02*
X14704800Y-14319000D01*
X14704800Y-14924000D02*
X14734800Y-14954000D01*
X14734800Y-14924000D02*
X14704800Y-14954000D01*
X14704800Y-15432000D02*
X14734800Y-15462000D01*
X14734800Y-15432000D02*
X14704800Y-15462000D01*
X14831800Y-14416000D02*
X14861800Y-14446000D01*
X14861800Y-14416000D02*
X14831800Y-14446000D01*
X14831800Y-14543000D02*
X14861800Y-14573000D01*
X14861800Y-14543000D02*
X14831800Y-14573000D01*
X14831800Y-15051000D02*
X14861800Y-15081000D01*
X14861800Y-15051000D02*
X14831800Y-15081000D01*
X14831800Y-15178000D02*
X14861800Y-15208000D01*
X14861800Y-15178000D02*
X14831800Y-15208000D01*
X14831800Y-15305000D02*
X14861800Y-15335000D01*
X14861800Y-15305000D02*
X14831800Y-15335000D01*
X14922110Y-9660640D02*
X14952110Y-9690640D01*
X14952110Y-9660640D02*
X14922110Y-9690640D01*
X14923570Y-4229440D02*
X14953570Y-4259440D01*
X14953570Y-4229440D02*
X14923570Y-4259440D01*
X14958800Y-13654000D02*
X14988800Y-13684000D01*
X14988800Y-13654000D02*
X14958800Y-13684000D01*
X14982680Y-6650370D02*
X15012680Y-6680370D01*
X15012680Y-6650370D02*
X14982680Y-6680370D01*
X15042160Y-9244510D02*
X15072160Y-9274510D01*
X15072160Y-9244510D02*
X15042160Y-9274510D01*
X15085800Y-2224000D02*
X15115800Y-2254000D01*
X15115800Y-2224000D02*
X15085800Y-2254000D01*
X15085800Y-3875000D02*
X15115800Y-3905000D01*
X15115800Y-3875000D02*
X15085800Y-3905000D01*
X15085800Y-10098000D02*
X15115800Y-10128000D01*
X15115800Y-10098000D02*
X15085800Y-10128000D01*
X15085800Y-11368000D02*
X15115800Y-11398000D01*
X15115800Y-11368000D02*
X15085800Y-11398000D01*
X15085800Y-14289000D02*
X15115800Y-14319000D01*
X15115800Y-14289000D02*
X15085800Y-14319000D01*
X15097890Y-9019120D02*
X15127890Y-9049120D01*
X15127890Y-9019120D02*
X15097890Y-9049120D01*
X15117590Y-4394480D02*
X15147590Y-4424480D01*
X15147590Y-4394480D02*
X15117590Y-4424480D01*
X15196670Y-3065600D02*
X15226670Y-3095600D01*
X15226670Y-3065600D02*
X15196670Y-3095600D01*
X15212800Y-9844000D02*
X15242800Y-9874000D01*
X15242800Y-9844000D02*
X15212800Y-9874000D01*
X15212800Y-13527000D02*
X15242800Y-13557000D01*
X15242800Y-13527000D02*
X15212800Y-13557000D01*
X15212800Y-14289000D02*
X15242800Y-14319000D01*
X15242800Y-14289000D02*
X15212800Y-14319000D01*
X15267640Y-3380870D02*
X15297640Y-3410870D01*
X15297640Y-3380870D02*
X15267640Y-3410870D01*
X15339800Y-13527000D02*
X15369800Y-13557000D01*
X15369800Y-13527000D02*
X15339800Y-13557000D01*
X15339800Y-13654000D02*
X15369800Y-13684000D01*
X15369800Y-13654000D02*
X15339800Y-13684000D01*
X15339800Y-14289000D02*
X15369800Y-14319000D01*
X15369800Y-14289000D02*
X15339800Y-14319000D01*
X15446360Y-3298270D02*
X15476360Y-3328270D01*
X15476360Y-3298270D02*
X15446360Y-3328270D01*
X15466800Y-10352000D02*
X15496800Y-10382000D01*
X15496800Y-10352000D02*
X15466800Y-10382000D01*
X15466800Y-10733000D02*
X15496800Y-10763000D01*
X15496800Y-10733000D02*
X15466800Y-10763000D01*
X15466800Y-11368000D02*
X15496800Y-11398000D01*
X15496800Y-11368000D02*
X15466800Y-11398000D01*
X15466800Y-14289000D02*
X15496800Y-14319000D01*
X15496800Y-14289000D02*
X15466800Y-14319000D01*
X15466800Y-14416000D02*
X15496800Y-14446000D01*
X15496800Y-14416000D02*
X15466800Y-14446000D01*
X15466800Y-14543000D02*
X15496800Y-14573000D01*
X15496800Y-14543000D02*
X15466800Y-14573000D01*
X15466800Y-14670000D02*
X15496800Y-14700000D01*
X15496800Y-14670000D02*
X15466800Y-14700000D01*
X15466800Y-14797000D02*
X15496800Y-14827000D01*
X15496800Y-14797000D02*
X15466800Y-14827000D01*
X15466800Y-14924000D02*
X15496800Y-14954000D01*
X15496800Y-14924000D02*
X15466800Y-14954000D01*
X15466800Y-15051000D02*
X15496800Y-15081000D01*
X15496800Y-15051000D02*
X15466800Y-15081000D01*
X15466800Y-15178000D02*
X15496800Y-15208000D01*
X15496800Y-15178000D02*
X15466800Y-15208000D01*
X15466800Y-15305000D02*
X15496800Y-15335000D01*
X15496800Y-15305000D02*
X15466800Y-15335000D01*
X15466800Y-15432000D02*
X15496800Y-15462000D01*
X15496800Y-15432000D02*
X15466800Y-15462000D01*
X15593800Y-9717000D02*
X15623800Y-9747000D01*
X15623800Y-9717000D02*
X15593800Y-9747000D01*
X15593800Y-9971000D02*
X15623800Y-10001000D01*
X15623800Y-9971000D02*
X15593800Y-10001000D01*
X15593800Y-11749000D02*
X15623800Y-11779000D01*
X15623800Y-11749000D02*
X15593800Y-11779000D01*
X15593800Y-13527000D02*
X15623800Y-13557000D01*
X15623800Y-13527000D02*
X15593800Y-13557000D01*
X15593800Y-13654000D02*
X15623800Y-13684000D01*
X15623800Y-13654000D02*
X15593800Y-13684000D01*
X15593800Y-14289000D02*
X15623800Y-14319000D01*
X15623800Y-14289000D02*
X15593800Y-14319000D01*
X15669500Y-9367770D02*
X15699500Y-9397770D01*
X15699500Y-9367770D02*
X15669500Y-9397770D01*
X15713270Y-12283370D02*
X15743270Y-12313370D01*
X15743270Y-12283370D02*
X15713270Y-12313370D01*
X15720800Y-3367000D02*
X15750800Y-3397000D01*
X15750800Y-3367000D02*
X15720800Y-3397000D01*
X15720800Y-14289000D02*
X15750800Y-14319000D01*
X15750800Y-14289000D02*
X15720800Y-14319000D01*
X15775200Y-12883260D02*
X15805200Y-12913260D01*
X15805200Y-12883260D02*
X15775200Y-12913260D01*
X15841650Y-5131190D02*
X15871650Y-5161190D01*
X15871650Y-5131190D02*
X15841650Y-5161190D01*
X15846120Y-4802500D02*
X15876120Y-4832500D01*
X15876120Y-4802500D02*
X15846120Y-4832500D01*
X15847800Y-13273000D02*
X15877800Y-13303000D01*
X15877800Y-13273000D02*
X15847800Y-13303000D01*
X15847800Y-13527000D02*
X15877800Y-13557000D01*
X15877800Y-13527000D02*
X15847800Y-13557000D01*
X15847800Y-14289000D02*
X15877800Y-14319000D01*
X15877800Y-14289000D02*
X15847800Y-14319000D01*
X15862360Y-5854170D02*
X15892360Y-5884170D01*
X15892360Y-5854170D02*
X15862360Y-5884170D01*
X15910630Y-12929420D02*
X15940630Y-12959420D01*
X15940630Y-12929420D02*
X15910630Y-12959420D01*
X15933440Y-7009550D02*
X15963440Y-7039550D01*
X15963440Y-7009550D02*
X15933440Y-7039550D01*
X15963070Y-6529610D02*
X15993070Y-6559610D01*
X15993070Y-6529610D02*
X15963070Y-6559610D01*
X15974800Y-1843000D02*
X16004800Y-1873000D01*
X16004800Y-1843000D02*
X15974800Y-1873000D01*
X15974800Y-3875000D02*
X16004800Y-3905000D01*
X16004800Y-3875000D02*
X15974800Y-3905000D01*
X15974800Y-13146000D02*
X16004800Y-13176000D01*
X16004800Y-13146000D02*
X15974800Y-13176000D01*
X15993390Y-5062520D02*
X16023390Y-5092520D01*
X16023390Y-5062520D02*
X15993390Y-5092520D01*
X16060100Y-13470370D02*
X16090100Y-13500370D01*
X16090100Y-13470370D02*
X16060100Y-13500370D01*
X16066550Y-10529810D02*
X16096550Y-10559810D01*
X16096550Y-10529810D02*
X16066550Y-10559810D01*
X16093730Y-5963080D02*
X16123730Y-5993080D01*
X16123730Y-5963080D02*
X16093730Y-5993080D01*
X16122700Y-12018070D02*
X16152700Y-12048070D01*
X16152700Y-12018070D02*
X16122700Y-12048070D01*
X16127560Y-11023840D02*
X16157560Y-11053840D01*
X16157560Y-11023840D02*
X16127560Y-11053840D01*
X16133130Y-5797940D02*
X16163130Y-5827940D01*
X16163130Y-5797940D02*
X16133130Y-5827940D01*
X16138250Y-13173620D02*
X16168250Y-13203620D01*
X16168250Y-13173620D02*
X16138250Y-13203620D01*
X16142390Y-5464070D02*
X16172390Y-5494070D01*
X16172390Y-5464070D02*
X16142390Y-5494070D01*
X16221710Y-6904630D02*
X16251710Y-6934630D01*
X16251710Y-6904630D02*
X16221710Y-6934630D01*
X16228800Y-2478000D02*
X16258800Y-2508000D01*
X16258800Y-2478000D02*
X16228800Y-2508000D01*
X16228800Y-13781000D02*
X16258800Y-13811000D01*
X16258800Y-13781000D02*
X16228800Y-13811000D01*
X16248940Y-5433990D02*
X16278940Y-5463990D01*
X16278940Y-5433990D02*
X16248940Y-5463990D01*
X16269030Y-6401970D02*
X16299030Y-6431970D01*
X16299030Y-6401970D02*
X16269030Y-6431970D01*
X16355800Y-13273000D02*
X16385800Y-13303000D01*
X16385800Y-13273000D02*
X16355800Y-13303000D01*
X16355800Y-13527000D02*
X16385800Y-13557000D01*
X16385800Y-13527000D02*
X16355800Y-13557000D01*
X16430850Y-6251080D02*
X16460850Y-6281080D01*
X16460850Y-6251080D02*
X16430850Y-6281080D01*
X16482800Y-6923000D02*
X16512800Y-6953000D01*
X16512800Y-6923000D02*
X16482800Y-6953000D01*
X16482800Y-13146000D02*
X16512800Y-13176000D01*
X16512800Y-13146000D02*
X16482800Y-13176000D01*
X16609800Y-7558000D02*
X16639800Y-7588000D01*
X16639800Y-7558000D02*
X16609800Y-7588000D01*
X16609800Y-8828000D02*
X16639800Y-8858000D01*
X16639800Y-8828000D02*
X16609800Y-8858000D01*
X16609800Y-9209000D02*
X16639800Y-9239000D01*
X16639800Y-9209000D02*
X16609800Y-9239000D01*
X16736800Y-1970000D02*
X16766800Y-2000000D01*
X16766800Y-1970000D02*
X16736800Y-2000000D01*
X16736800Y-7050000D02*
X16766800Y-7080000D01*
X16766800Y-7050000D02*
X16736800Y-7080000D01*
X16736800Y-8066000D02*
X16766800Y-8096000D01*
X16766800Y-8066000D02*
X16736800Y-8096000D01*
X16736800Y-8574000D02*
X16766800Y-8604000D01*
X16766800Y-8574000D02*
X16736800Y-8604000D01*
X16736800Y-9717000D02*
X16766800Y-9747000D01*
X16766800Y-9717000D02*
X16736800Y-9747000D01*
X16736800Y-13146000D02*
X16766800Y-13176000D01*
X16766800Y-13146000D02*
X16736800Y-13176000D01*
X16736800Y-13654000D02*
X16766800Y-13684000D01*
X16766800Y-13654000D02*
X16736800Y-13684000D01*
X16736800Y-15051000D02*
X16766800Y-15081000D01*
X16766800Y-15051000D02*
X16736800Y-15081000D01*
X16863800Y-4256000D02*
X16893800Y-4286000D01*
X16893800Y-4256000D02*
X16863800Y-4286000D01*
X16937900Y-5141200D02*
X16967900Y-5171200D01*
X16967900Y-5141200D02*
X16937900Y-5171200D01*
X16990800Y-3748000D02*
X17020800Y-3778000D01*
X17020800Y-3748000D02*
X16990800Y-3778000D01*
X16990800Y-13527000D02*
X17020800Y-13557000D01*
X17020800Y-13527000D02*
X16990800Y-13557000D01*
X17117800Y-13146000D02*
X17147800Y-13176000D01*
X17147800Y-13146000D02*
X17117800Y-13176000D01*
X17244800Y-8828000D02*
X17274800Y-8858000D01*
X17274800Y-8828000D02*
X17244800Y-8858000D01*
X17371800Y-1843000D02*
X17401800Y-1873000D01*
X17401800Y-1843000D02*
X17371800Y-1873000D01*
X17371800Y-7177000D02*
X17401800Y-7207000D01*
X17401800Y-7177000D02*
X17371800Y-7207000D01*
X17371800Y-12003000D02*
X17401800Y-12033000D01*
X17401800Y-12003000D02*
X17371800Y-12033000D01*
X17371800Y-15305000D02*
X17401800Y-15335000D01*
X17401800Y-15305000D02*
X17371800Y-15335000D01*
X17498800Y-8574000D02*
X17528800Y-8604000D01*
X17528800Y-8574000D02*
X17498800Y-8604000D01*
X17498800Y-13654000D02*
X17528800Y-13684000D01*
X17528800Y-13654000D02*
X17498800Y-13684000D01*
X17625800Y-4891000D02*
X17655800Y-4921000D01*
X17655800Y-4891000D02*
X17625800Y-4921000D01*
X17625800Y-6796000D02*
X17655800Y-6826000D01*
X17655800Y-6796000D02*
X17625800Y-6826000D01*
X17625800Y-8066000D02*
X17655800Y-8096000D01*
X17655800Y-8066000D02*
X17625800Y-8096000D01*
X17625800Y-10733000D02*
X17655800Y-10763000D01*
X17655800Y-10733000D02*
X17625800Y-10763000D01*
X17625800Y-10733000D02*
X17655800Y-10763000D01*
X17655800Y-10733000D02*
X17625800Y-10763000D01*
X17625800Y-14797000D02*
X17655800Y-14827000D01*
X17655800Y-14797000D02*
X17625800Y-14827000D01*
X17752800Y-9717000D02*
X17782800Y-9747000D01*
X17782800Y-9717000D02*
X17752800Y-9747000D01*
X17752800Y-11114000D02*
X17782800Y-11144000D01*
X17782800Y-11114000D02*
X17752800Y-11144000D01*
X17752800Y-12384000D02*
X17782800Y-12414000D01*
X17782800Y-12384000D02*
X17752800Y-12414000D01*
X17752800Y-13019000D02*
X17782800Y-13049000D01*
X17782800Y-13019000D02*
X17752800Y-13049000D01*
X17879800Y-9844000D02*
X17909800Y-9874000D01*
X17909800Y-9844000D02*
X17879800Y-9874000D01*
X17879800Y-13019000D02*
X17909800Y-13049000D01*
X17909800Y-13019000D02*
X17879800Y-13049000D01*
X17879800Y-13273000D02*
X17909800Y-13303000D01*
X17909800Y-13273000D02*
X17879800Y-13303000D01*
X17879800Y-14416000D02*
X17909800Y-14446000D01*
X17909800Y-14416000D02*
X17879800Y-14446000D01*
X18006800Y-10606000D02*
X18036800Y-10636000D01*
X18036800Y-10606000D02*
X18006800Y-10636000D01*
X18006800Y-15051000D02*
X18036800Y-15081000D01*
X18036800Y-15051000D02*
X18006800Y-15081000D01*
X18133800Y-3621000D02*
X18163800Y-3651000D01*
X18163800Y-3621000D02*
X18133800Y-3651000D01*
X18260800Y-2224000D02*
X18290800Y-2254000D01*
X18290800Y-2224000D02*
X18260800Y-2254000D01*
X18260800Y-11876000D02*
X18290800Y-11906000D01*
X18290800Y-11876000D02*
X18260800Y-11906000D01*
X18260800Y-13019000D02*
X18290800Y-13049000D01*
X18290800Y-13019000D02*
X18260800Y-13049000D01*
X18260800Y-13527000D02*
X18290800Y-13557000D01*
X18290800Y-13527000D02*
X18260800Y-13557000D01*
X18387800Y-4383000D02*
X18417800Y-4413000D01*
X18417800Y-4383000D02*
X18387800Y-4413000D01*
X18387800Y-10225000D02*
X18417800Y-10255000D01*
X18417800Y-10225000D02*
X18387800Y-10255000D01*
X18387800Y-11114000D02*
X18417800Y-11144000D01*
X18417800Y-11114000D02*
X18387800Y-11144000D01*
X18387800Y-12384000D02*
X18417800Y-12414000D01*
X18417800Y-12384000D02*
X18387800Y-12414000D01*
X18387800Y-13146000D02*
X18417800Y-13176000D01*
X18417800Y-13146000D02*
X18387800Y-13176000D01*
X18514800Y-9082000D02*
X18544800Y-9112000D01*
X18544800Y-9082000D02*
X18514800Y-9112000D01*
X18514800Y-13527000D02*
X18544800Y-13557000D01*
X18544800Y-13527000D02*
X18514800Y-13557000D01*
X18641800Y-3748000D02*
X18671800Y-3778000D01*
X18671800Y-3748000D02*
X18641800Y-3778000D01*
X18641800Y-4256000D02*
X18671800Y-4286000D01*
X18671800Y-4256000D02*
X18641800Y-4286000D01*
X18641800Y-15305000D02*
X18671800Y-15335000D01*
X18671800Y-15305000D02*
X18641800Y-15335000D01*
X18693500Y-5161370D02*
X18723500Y-5191370D01*
X18723500Y-5161370D02*
X18693500Y-5191370D01*
X18768800Y-12130000D02*
X18798800Y-12160000D01*
X18798800Y-12130000D02*
X18768800Y-12160000D01*
X18768800Y-13908000D02*
X18798800Y-13938000D01*
X18798800Y-13908000D02*
X18768800Y-13938000D01*
X18768800Y-14924000D02*
X18798800Y-14954000D01*
X18798800Y-14924000D02*
X18768800Y-14954000D01*
X18895800Y-2097000D02*
X18925800Y-2127000D01*
X18925800Y-2097000D02*
X18895800Y-2127000D01*
X18895800Y-5780000D02*
X18925800Y-5810000D01*
X18925800Y-5780000D02*
X18895800Y-5810000D01*
X18895800Y-11749000D02*
X18925800Y-11779000D01*
X18925800Y-11749000D02*
X18895800Y-11779000D01*
X18895800Y-12257000D02*
X18925800Y-12287000D01*
X18925800Y-12257000D02*
X18895800Y-12287000D01*
X19022800Y-15051000D02*
X19052800Y-15081000D01*
X19052800Y-15051000D02*
X19022800Y-15081000D01*
X19149800Y-2986000D02*
X19179800Y-3016000D01*
X19179800Y-2986000D02*
X19149800Y-3016000D01*
X19276800Y-7050000D02*
X19306800Y-7080000D01*
X19306800Y-7050000D02*
X19276800Y-7080000D01*
X19276800Y-14543000D02*
X19306800Y-14573000D01*
X19306800Y-14543000D02*
X19276800Y-14573000D01*
X19403800Y-4891000D02*
X19433800Y-4921000D01*
X19433800Y-4891000D02*
X19403800Y-4921000D01*
X19403800Y-14416000D02*
X19433800Y-14446000D01*
X19433800Y-14416000D02*
X19403800Y-14446000D01*
X19403800Y-14797000D02*
X19433800Y-14827000D01*
X19433800Y-14797000D02*
X19403800Y-14827000D01*
X19530800Y-5907000D02*
X19560800Y-5937000D01*
X19560800Y-5907000D02*
X19530800Y-5937000D01*
X19530800Y-6669000D02*
X19560800Y-6699000D01*
X19560800Y-6669000D02*
X19530800Y-6699000D01*
X19530800Y-7812000D02*
X19560800Y-7842000D01*
X19560800Y-7812000D02*
X19530800Y-7842000D01*
X19530800Y-13908000D02*
X19560800Y-13938000D01*
X19560800Y-13908000D02*
X19530800Y-13938000D01*
X19657800Y-2986000D02*
X19687800Y-3016000D01*
X19687800Y-2986000D02*
X19657800Y-3016000D01*
X19657800Y-4383000D02*
X19687800Y-4413000D01*
X19687800Y-4383000D02*
X19657800Y-4413000D01*
X19784800Y-3494000D02*
X19814800Y-3524000D01*
X19814800Y-3494000D02*
X19784800Y-3524000D01*
X19784800Y-5272000D02*
X19814800Y-5302000D01*
X19814800Y-5272000D02*
X19784800Y-5302000D01*
X19784800Y-14035000D02*
X19814800Y-14065000D01*
X19814800Y-14035000D02*
X19784800Y-14065000D01*
X19911800Y-7177000D02*
X19941800Y-7207000D01*
X19941800Y-7177000D02*
X19911800Y-7207000D01*
X19911800Y-14543000D02*
X19941800Y-14573000D01*
X19941800Y-14543000D02*
X19911800Y-14573000D01*
X20038800Y-6161000D02*
X20068800Y-6191000D01*
X20068800Y-6161000D02*
X20038800Y-6191000D01*
X20038800Y-14289000D02*
X20068800Y-14319000D01*
X20068800Y-14289000D02*
X20038800Y-14319000D01*
X20038800Y-14797000D02*
X20068800Y-14827000D01*
X20068800Y-14797000D02*
X20038800Y-14827000D01*
X20165800Y-2986000D02*
X20195800Y-3016000D01*
X20195800Y-2986000D02*
X20165800Y-3016000D01*
X10669900Y-12246600D02*
G75*
G02*
X10589900Y-12246600I-40000J0D01*
G01*
X10589900Y-12246600D02*
G75*
G02*
X10669900Y-12246600I40000J0D01*
G01*
X10669900Y-12500600D02*
G75*
G02*
X10589900Y-12500600I-40000J0D01*
G01*
X10589900Y-12500600D02*
G75*
G02*
X10669900Y-12500600I40000J0D01*
G01*
X10669900Y-12754600D02*
G75*
G02*
X10589900Y-12754600I-40000J0D01*
G01*
X10589900Y-12754600D02*
G75*
G02*
X10669900Y-12754600I40000J0D01*
G01*
X10669900Y-13008600D02*
G75*
G02*
X10589900Y-13008600I-40000J0D01*
G01*
X10589900Y-13008600D02*
G75*
G02*
X10669900Y-13008600I40000J0D01*
G01*
X11431900Y-12246600D02*
G75*
G02*
X11351900Y-12246600I-40000J0D01*
G01*
X11351900Y-12246600D02*
G75*
G02*
X11431900Y-12246600I40000J0D01*
G01*
X11431900Y-12500600D02*
G75*
G02*
X11351900Y-12500600I-40000J0D01*
G01*
X11351900Y-12500600D02*
G75*
G02*
X11431900Y-12500600I40000J0D01*
G01*
X11431900Y-12754600D02*
G75*
G02*
X11351900Y-12754600I-40000J0D01*
G01*
X11351900Y-12754600D02*
G75*
G02*
X11431900Y-12754600I40000J0D01*
G01*
X11431900Y-13008600D02*
G75*
G02*
X11351900Y-13008600I-40000J0D01*
G01*
X11351900Y-13008600D02*
G75*
G02*
X11431900Y-13008600I40000J0D01*
G01*
X13616800Y-10932800D02*
G75*
G02*
X13536800Y-10932800I-40000J0D01*
G01*
X13536800Y-10932800D02*
G75*
G02*
X13616800Y-10932800I40000J0D01*
G01*
X13616800Y-11337800D02*
G75*
G02*
X13536800Y-11337800I-40000J0D01*
G01*
X13536800Y-11337800D02*
G75*
G02*
X13616800Y-11337800I40000J0D01*
G01*
X13616800Y-12147800D02*
G75*
G02*
X13536800Y-12147800I-40000J0D01*
G01*
X13536800Y-12147800D02*
G75*
G02*
X13616800Y-12147800I40000J0D01*
G01*
X13616800Y-12552800D02*
G75*
G02*
X13536800Y-12552800I-40000J0D01*
G01*
X13536800Y-12552800D02*
G75*
G02*
X13616800Y-12552800I40000J0D01*
G01*
X13616800Y-12957800D02*
G75*
G02*
X13536800Y-12957800I-40000J0D01*
G01*
X13536800Y-12957800D02*
G75*
G02*
X13616800Y-12957800I40000J0D01*
G01*
X13616800Y-13362800D02*
G75*
G02*
X13536800Y-13362800I-40000J0D01*
G01*
X13536800Y-13362800D02*
G75*
G02*
X13616800Y-13362800I40000J0D01*
G01*
X13616800Y-13767800D02*
G75*
G02*
X13536800Y-13767800I-40000J0D01*
G01*
X13536800Y-13767800D02*
G75*
G02*
X13616800Y-13767800I40000J0D01*
G01*
X13617300Y-11732700D02*
G75*
G02*
X13537300Y-11732700I-40000J0D01*
G01*
X13537300Y-11732700D02*
G75*
G02*
X13617300Y-11732700I40000J0D01*
G01*
X14632800Y-10932800D02*
G75*
G02*
X14552800Y-10932800I-40000J0D01*
G01*
X14552800Y-10932800D02*
G75*
G02*
X14632800Y-10932800I40000J0D01*
G01*
X14632800Y-11337800D02*
G75*
G02*
X14552800Y-11337800I-40000J0D01*
G01*
X14552800Y-11337800D02*
G75*
G02*
X14632800Y-11337800I40000J0D01*
G01*
X14632800Y-12147800D02*
G75*
G02*
X14552800Y-12147800I-40000J0D01*
G01*
X14552800Y-12147800D02*
G75*
G02*
X14632800Y-12147800I40000J0D01*
G01*
X14632800Y-12552800D02*
G75*
G02*
X14552800Y-12552800I-40000J0D01*
G01*
X14552800Y-12552800D02*
G75*
G02*
X14632800Y-12552800I40000J0D01*
G01*
X14632800Y-12957800D02*
G75*
G02*
X14552800Y-12957800I-40000J0D01*
G01*
X14552800Y-12957800D02*
G75*
G02*
X14632800Y-12957800I40000J0D01*
G01*
X14632800Y-13362800D02*
G75*
G02*
X14552800Y-13362800I-40000J0D01*
G01*
X14552800Y-13362800D02*
G75*
G02*
X14632800Y-13362800I40000J0D01*
G01*
X14632800Y-13767800D02*
G75*
G02*
X14552800Y-13767800I-40000J0D01*
G01*
X14552800Y-13767800D02*
G75*
G02*
X14632800Y-13767800I40000J0D01*
G01*
X14633300Y-11732700D02*
G75*
G02*
X14553300Y-11732700I-40000J0D01*
G01*
X14553300Y-11732700D02*
G75*
G02*
X14633300Y-11732700I40000J0D01*
G01*
X13119600Y-4452900D02*
X13119600Y-4547900D01*
X13072100Y-4500400D02*
X13167100Y-4500400D01*
X13119600Y-4702900D02*
X13119600Y-4797900D01*
X13072100Y-4750400D02*
X13167100Y-4750400D01*
X13119600Y-4952900D02*
X13119600Y-5047900D01*
X13072100Y-5000400D02*
X13167100Y-5000400D01*
X13127400Y-6668100D02*
X13127400Y-6763100D01*
X13079900Y-6715600D02*
X13174900Y-6715600D01*
X13127400Y-6918100D02*
X13127400Y-7013100D01*
X13079900Y-6965600D02*
X13174900Y-6965600D01*
X13127400Y-7168100D02*
X13127400Y-7263100D01*
X13079900Y-7215600D02*
X13174900Y-7215600D01*
X13130600Y-5570500D02*
X13130600Y-5665500D01*
X13083100Y-5618000D02*
X13178100Y-5618000D01*
X13130600Y-5820500D02*
X13130600Y-5915500D01*
X13083100Y-5868000D02*
X13178100Y-5868000D01*
X13130600Y-6070500D02*
X13130600Y-6165500D01*
X13083100Y-6118000D02*
X13178100Y-6118000D01*
X13145000Y-7794800D02*
X13145000Y-7889800D01*
X13097500Y-7842300D02*
X13192500Y-7842300D01*
X13145000Y-8044800D02*
X13145000Y-8139800D01*
X13097500Y-8092300D02*
X13192500Y-8092300D01*
X13145000Y-8294800D02*
X13145000Y-8389800D01*
X13097500Y-8342300D02*
X13192500Y-8342300D01*
X13983200Y-4454700D02*
X13983200Y-4549700D01*
X13935700Y-4502200D02*
X14030700Y-4502200D01*
X13983200Y-4704700D02*
X13983200Y-4799700D01*
X13935700Y-4752200D02*
X14030700Y-4752200D01*
X13983200Y-4954700D02*
X13983200Y-5049700D01*
X13935700Y-5002200D02*
X14030700Y-5002200D01*
X13991000Y-6668100D02*
X13991000Y-6763100D01*
X13943500Y-6715600D02*
X14038500Y-6715600D01*
X13991000Y-6918100D02*
X13991000Y-7013100D01*
X13943500Y-6965600D02*
X14038500Y-6965600D01*
X13991000Y-7168100D02*
X13991000Y-7263100D01*
X13943500Y-7215600D02*
X14038500Y-7215600D01*
X13994200Y-5572300D02*
X13994200Y-5667300D01*
X13946700Y-5619800D02*
X14041700Y-5619800D01*
X13994200Y-5822300D02*
X13994200Y-5917300D01*
X13946700Y-5869800D02*
X14041700Y-5869800D01*
X13994200Y-6072300D02*
X13994200Y-6167300D01*
X13946700Y-6119800D02*
X14041700Y-6119800D01*
X14008600Y-7794800D02*
X14008600Y-7889800D01*
X13961100Y-7842300D02*
X14056100Y-7842300D01*
X14008600Y-8044800D02*
X14008600Y-8139800D01*
X13961100Y-8092300D02*
X14056100Y-8092300D01*
X14008600Y-8294800D02*
X14008600Y-8389800D01*
X13961100Y-8342300D02*
X14056100Y-8342300D01*
X9561656Y-3686956D02*
X9561656Y-3616244D01*
X9490944Y-3616244D01*
X9490944Y-3686956D01*
X9561656Y-3686956D01*
X9561656Y-3940956D02*
X9561656Y-3870244D01*
X9490944Y-3870244D01*
X9490944Y-3940956D01*
X9561656Y-3940956D01*
X9561656Y-4194956D02*
X9561656Y-4124244D01*
X9490944Y-4124244D01*
X9490944Y-4194956D01*
X9561656Y-4194956D01*
X9561656Y-4448956D02*
X9561656Y-4378244D01*
X9490944Y-4378244D01*
X9490944Y-4448956D01*
X9561656Y-4448956D01*
X9561656Y-4702956D02*
X9561656Y-4632244D01*
X9490944Y-4632244D01*
X9490944Y-4702956D01*
X9561656Y-4702956D01*
X9561656Y-4956956D02*
X9561656Y-4886244D01*
X9490944Y-4886244D01*
X9490944Y-4956956D01*
X9561656Y-4956956D01*
X9561656Y-5210956D02*
X9561656Y-5140244D01*
X9490944Y-5140244D01*
X9490944Y-5210956D01*
X9561656Y-5210956D01*
X9561656Y-5464956D02*
X9561656Y-5394244D01*
X9490944Y-5394244D01*
X9490944Y-5464956D01*
X9561656Y-5464956D01*
X9561656Y-5718956D02*
X9561656Y-5648244D01*
X9490944Y-5648244D01*
X9490944Y-5718956D01*
X9561656Y-5718956D01*
X9561656Y-5972956D02*
X9561656Y-5902244D01*
X9490944Y-5902244D01*
X9490944Y-5972956D01*
X9561656Y-5972956D01*
X9561656Y-6226956D02*
X9561656Y-6156244D01*
X9490944Y-6156244D01*
X9490944Y-6226956D01*
X9561656Y-6226956D01*
X9561656Y-6480956D02*
X9561656Y-6410244D01*
X9490944Y-6410244D01*
X9490944Y-6480956D01*
X9561656Y-6480956D01*
X9561656Y-6734956D02*
X9561656Y-6664244D01*
X9490944Y-6664244D01*
X9490944Y-6734956D01*
X9561656Y-6734956D01*
X9561656Y-6988956D02*
X9561656Y-6918244D01*
X9490944Y-6918244D01*
X9490944Y-6988956D01*
X9561656Y-6988956D01*
X9561656Y-7242956D02*
X9561656Y-7172244D01*
X9490944Y-7172244D01*
X9490944Y-7242956D01*
X9561656Y-7242956D01*
X9561656Y-7496956D02*
X9561656Y-7426244D01*
X9490944Y-7426244D01*
X9490944Y-7496956D01*
X9561656Y-7496956D01*
X9561656Y-7750956D02*
X9561656Y-7680244D01*
X9490944Y-7680244D01*
X9490944Y-7750956D01*
X9561656Y-7750956D01*
X9561656Y-8004956D02*
X9561656Y-7934244D01*
X9490944Y-7934244D01*
X9490944Y-8004956D01*
X9561656Y-8004956D01*
X9561656Y-8258956D02*
X9561656Y-8188244D01*
X9490944Y-8188244D01*
X9490944Y-8258956D01*
X9561656Y-8258956D01*
X9561656Y-10214756D02*
X9561656Y-10144044D01*
X9490944Y-10144044D01*
X9490944Y-10214756D01*
X9561656Y-10214756D01*
X9561656Y-10468756D02*
X9561656Y-10398044D01*
X9490944Y-10398044D01*
X9490944Y-10468756D01*
X9561656Y-10468756D01*
X9561656Y-10722756D02*
X9561656Y-10652044D01*
X9490944Y-10652044D01*
X9490944Y-10722756D01*
X9561656Y-10722756D01*
X9561656Y-10976756D02*
X9561656Y-10906044D01*
X9490944Y-10906044D01*
X9490944Y-10976756D01*
X9561656Y-10976756D01*
X9561656Y-11230756D02*
X9561656Y-11160044D01*
X9490944Y-11160044D01*
X9490944Y-11230756D01*
X9561656Y-11230756D01*
X9561656Y-11484756D02*
X9561656Y-11414044D01*
X9490944Y-11414044D01*
X9490944Y-11484756D01*
X9561656Y-11484756D01*
X9561656Y-11738756D02*
X9561656Y-11668044D01*
X9490944Y-11668044D01*
X9490944Y-11738756D01*
X9561656Y-11738756D01*
X9561656Y-11992756D02*
X9561656Y-11922044D01*
X9490944Y-11922044D01*
X9490944Y-11992756D01*
X9561656Y-11992756D01*
X9561656Y-12246756D02*
X9561656Y-12176044D01*
X9490944Y-12176044D01*
X9490944Y-12246756D01*
X9561656Y-12246756D01*
X9561656Y-12500756D02*
X9561656Y-12430044D01*
X9490944Y-12430044D01*
X9490944Y-12500756D01*
X9561656Y-12500756D01*
X9561656Y-12754756D02*
X9561656Y-12684044D01*
X9490944Y-12684044D01*
X9490944Y-12754756D01*
X9561656Y-12754756D01*
X9561656Y-13008756D02*
X9561656Y-12938044D01*
X9490944Y-12938044D01*
X9490944Y-13008756D01*
X9561656Y-13008756D01*
X9561656Y-13262756D02*
X9561656Y-13192044D01*
X9490944Y-13192044D01*
X9490944Y-13262756D01*
X9561656Y-13262756D01*
X9561656Y-13516756D02*
X9561656Y-13446044D01*
X9490944Y-13446044D01*
X9490944Y-13516756D01*
X9561656Y-13516756D01*
X9561656Y-13770756D02*
X9561656Y-13700044D01*
X9490944Y-13700044D01*
X9490944Y-13770756D01*
X9561656Y-13770756D01*
X9561656Y-14024756D02*
X9561656Y-13954044D01*
X9490944Y-13954044D01*
X9490944Y-14024756D01*
X9561656Y-14024756D01*
X9561656Y-14278756D02*
X9561656Y-14208044D01*
X9490944Y-14208044D01*
X9490944Y-14278756D01*
X9561656Y-14278756D01*
X9561656Y-14532756D02*
X9561656Y-14462044D01*
X9490944Y-14462044D01*
X9490944Y-14532756D01*
X9561656Y-14532756D01*
X9561656Y-14786756D02*
X9561656Y-14716044D01*
X9490944Y-14716044D01*
X9490944Y-14786756D01*
X9561656Y-14786756D01*
X10307686Y-2550166D02*
X10307686Y-2479454D01*
X10236974Y-2479454D01*
X10236974Y-2550166D01*
X10307686Y-2550166D01*
X10320386Y-3235966D02*
X10320386Y-3165254D01*
X10249674Y-3165254D01*
X10249674Y-3235966D01*
X10320386Y-3235966D01*
X10331956Y-3922156D02*
X10331956Y-3851444D01*
X10261244Y-3851444D01*
X10261244Y-3922156D01*
X10331956Y-3922156D01*
X10331956Y-4596566D02*
X10331956Y-4525854D01*
X10261244Y-4525854D01*
X10261244Y-4596566D01*
X10331956Y-4596566D01*
X10557686Y-2550166D02*
X10557686Y-2479454D01*
X10486974Y-2479454D01*
X10486974Y-2550166D01*
X10557686Y-2550166D01*
X10570386Y-3235966D02*
X10570386Y-3165254D01*
X10499674Y-3165254D01*
X10499674Y-3235966D01*
X10570386Y-3235966D01*
X10581956Y-3922156D02*
X10581956Y-3851444D01*
X10511244Y-3851444D01*
X10511244Y-3922156D01*
X10581956Y-3922156D01*
X10581956Y-4596566D02*
X10581956Y-4525854D01*
X10511244Y-4525854D01*
X10511244Y-4596566D01*
X10581956Y-4596566D01*
X11173756Y-2525156D02*
X11173756Y-2454444D01*
X11103044Y-2454444D01*
X11103044Y-2525156D01*
X11173756Y-2525156D01*
X11173756Y-3214156D02*
X11173756Y-3143444D01*
X11103044Y-3143444D01*
X11103044Y-3214156D01*
X11173756Y-3214156D01*
X11173756Y-4611156D02*
X11173756Y-4540444D01*
X11103044Y-4540444D01*
X11103044Y-4611156D01*
X11173756Y-4611156D01*
X11184156Y-3910956D02*
X11184156Y-3840244D01*
X11113444Y-3840244D01*
X11113444Y-3910956D01*
X11184156Y-3910956D01*
X11423756Y-2525156D02*
X11423756Y-2454444D01*
X11353044Y-2454444D01*
X11353044Y-2525156D01*
X11423756Y-2525156D01*
X11423756Y-3214156D02*
X11423756Y-3143444D01*
X11353044Y-3143444D01*
X11353044Y-3214156D01*
X11423756Y-3214156D01*
X11423756Y-4611156D02*
X11423756Y-4540444D01*
X11353044Y-4540444D01*
X11353044Y-4611156D01*
X11423756Y-4611156D01*
X11434156Y-3910956D02*
X11434156Y-3840244D01*
X11363444Y-3840244D01*
X11363444Y-3910956D01*
X11434156Y-3910956D01*
X12101656Y-3686956D02*
X12101656Y-3616244D01*
X12030944Y-3616244D01*
X12030944Y-3686956D01*
X12101656Y-3686956D01*
X12101656Y-3940956D02*
X12101656Y-3870244D01*
X12030944Y-3870244D01*
X12030944Y-3940956D01*
X12101656Y-3940956D01*
X12101656Y-4194956D02*
X12101656Y-4124244D01*
X12030944Y-4124244D01*
X12030944Y-4194956D01*
X12101656Y-4194956D01*
X12101656Y-4448956D02*
X12101656Y-4378244D01*
X12030944Y-4378244D01*
X12030944Y-4448956D01*
X12101656Y-4448956D01*
X12101656Y-4702956D02*
X12101656Y-4632244D01*
X12030944Y-4632244D01*
X12030944Y-4702956D01*
X12101656Y-4702956D01*
X12101656Y-4956956D02*
X12101656Y-4886244D01*
X12030944Y-4886244D01*
X12030944Y-4956956D01*
X12101656Y-4956956D01*
X12101656Y-5210956D02*
X12101656Y-5140244D01*
X12030944Y-5140244D01*
X12030944Y-5210956D01*
X12101656Y-5210956D01*
X12101656Y-5464956D02*
X12101656Y-5394244D01*
X12030944Y-5394244D01*
X12030944Y-5464956D01*
X12101656Y-5464956D01*
X12101656Y-5718956D02*
X12101656Y-5648244D01*
X12030944Y-5648244D01*
X12030944Y-5718956D01*
X12101656Y-5718956D01*
X12101656Y-5972956D02*
X12101656Y-5902244D01*
X12030944Y-5902244D01*
X12030944Y-5972956D01*
X12101656Y-5972956D01*
X12101656Y-6226956D02*
X12101656Y-6156244D01*
X12030944Y-6156244D01*
X12030944Y-6226956D01*
X12101656Y-6226956D01*
X12101656Y-6480956D02*
X12101656Y-6410244D01*
X12030944Y-6410244D01*
X12030944Y-6480956D01*
X12101656Y-6480956D01*
X12101656Y-6734956D02*
X12101656Y-6664244D01*
X12030944Y-6664244D01*
X12030944Y-6734956D01*
X12101656Y-6734956D01*
X12101656Y-6988956D02*
X12101656Y-6918244D01*
X12030944Y-6918244D01*
X12030944Y-6988956D01*
X12101656Y-6988956D01*
X12101656Y-7242956D02*
X12101656Y-7172244D01*
X12030944Y-7172244D01*
X12030944Y-7242956D01*
X12101656Y-7242956D01*
X12101656Y-7496956D02*
X12101656Y-7426244D01*
X12030944Y-7426244D01*
X12030944Y-7496956D01*
X12101656Y-7496956D01*
X12101656Y-7750956D02*
X12101656Y-7680244D01*
X12030944Y-7680244D01*
X12030944Y-7750956D01*
X12101656Y-7750956D01*
X12101656Y-8004956D02*
X12101656Y-7934244D01*
X12030944Y-7934244D01*
X12030944Y-8004956D01*
X12101656Y-8004956D01*
X12101656Y-8258956D02*
X12101656Y-8188244D01*
X12030944Y-8188244D01*
X12030944Y-8258956D01*
X12101656Y-8258956D01*
X12101656Y-10214756D02*
X12101656Y-10144044D01*
X12030944Y-10144044D01*
X12030944Y-10214756D01*
X12101656Y-10214756D01*
X12101656Y-10468756D02*
X12101656Y-10398044D01*
X12030944Y-10398044D01*
X12030944Y-10468756D01*
X12101656Y-10468756D01*
X12101656Y-10722756D02*
X12101656Y-10652044D01*
X12030944Y-10652044D01*
X12030944Y-10722756D01*
X12101656Y-10722756D01*
X12101656Y-10976756D02*
X12101656Y-10906044D01*
X12030944Y-10906044D01*
X12030944Y-10976756D01*
X12101656Y-10976756D01*
X12101656Y-11230756D02*
X12101656Y-11160044D01*
X12030944Y-11160044D01*
X12030944Y-11230756D01*
X12101656Y-11230756D01*
X12101656Y-11484756D02*
X12101656Y-11414044D01*
X12030944Y-11414044D01*
X12030944Y-11484756D01*
X12101656Y-11484756D01*
X12101656Y-11738756D02*
X12101656Y-11668044D01*
X12030944Y-11668044D01*
X12030944Y-11738756D01*
X12101656Y-11738756D01*
X12101656Y-11992756D02*
X12101656Y-11922044D01*
X12030944Y-11922044D01*
X12030944Y-11992756D01*
X12101656Y-11992756D01*
X12101656Y-12246756D02*
X12101656Y-12176044D01*
X12030944Y-12176044D01*
X12030944Y-12246756D01*
X12101656Y-12246756D01*
X12101656Y-12500756D02*
X12101656Y-12430044D01*
X12030944Y-12430044D01*
X12030944Y-12500756D01*
X12101656Y-12500756D01*
X12101656Y-12754756D02*
X12101656Y-12684044D01*
X12030944Y-12684044D01*
X12030944Y-12754756D01*
X12101656Y-12754756D01*
X12101656Y-13008756D02*
X12101656Y-12938044D01*
X12030944Y-12938044D01*
X12030944Y-13008756D01*
X12101656Y-13008756D01*
X12101656Y-13262756D02*
X12101656Y-13192044D01*
X12030944Y-13192044D01*
X12030944Y-13262756D01*
X12101656Y-13262756D01*
X12101656Y-13516756D02*
X12101656Y-13446044D01*
X12030944Y-13446044D01*
X12030944Y-13516756D01*
X12101656Y-13516756D01*
X12101656Y-13770756D02*
X12101656Y-13700044D01*
X12030944Y-13700044D01*
X12030944Y-13770756D01*
X12101656Y-13770756D01*
X12101656Y-14024756D02*
X12101656Y-13954044D01*
X12030944Y-13954044D01*
X12030944Y-14024756D01*
X12101656Y-14024756D01*
X12101656Y-14278756D02*
X12101656Y-14208044D01*
X12030944Y-14208044D01*
X12030944Y-14278756D01*
X12101656Y-14278756D01*
X12101656Y-14532756D02*
X12101656Y-14462044D01*
X12030944Y-14462044D01*
X12030944Y-14532756D01*
X12101656Y-14532756D01*
X12101656Y-14786756D02*
X12101656Y-14716044D01*
X12030944Y-14716044D01*
X12030944Y-14786756D01*
X12101656Y-14786756D01*
X12544856Y-3623256D02*
X12544856Y-3552544D01*
X12474144Y-3552544D01*
X12474144Y-3623256D01*
X12544856Y-3623256D01*
X12798856Y-3623256D02*
X12798856Y-3552544D01*
X12728144Y-3552544D01*
X12728144Y-3623256D01*
X12798856Y-3623256D01*
X13052856Y-3623256D02*
X13052856Y-3552544D01*
X12982144Y-3552544D01*
X12982144Y-3623256D01*
X13052856Y-3623256D01*
X13306856Y-3623256D02*
X13306856Y-3552544D01*
X13236144Y-3552544D01*
X13236144Y-3623256D01*
X13306856Y-3623256D01*
X13560856Y-3623256D02*
X13560856Y-3552544D01*
X13490144Y-3552544D01*
X13490144Y-3623256D01*
X13560856Y-3623256D01*
X13814856Y-3623256D02*
X13814856Y-3552544D01*
X13744144Y-3552544D01*
X13744144Y-3623256D01*
X13814856Y-3623256D01*
X14068856Y-3623256D02*
X14068856Y-3552544D01*
X13998144Y-3552544D01*
X13998144Y-3623256D01*
X14068856Y-3623256D01*
X14322856Y-3623256D02*
X14322856Y-3552544D01*
X14252144Y-3552544D01*
X14252144Y-3623256D01*
X14322856Y-3623256D01*
X14576856Y-3623256D02*
X14576856Y-3552544D01*
X14506144Y-3552544D01*
X14506144Y-3623256D01*
X14576856Y-3623256D01*
X14830856Y-3623256D02*
X14830856Y-3552544D01*
X14760144Y-3552544D01*
X14760144Y-3623256D01*
X14830856Y-3623256D01*
X15084856Y-3623256D02*
X15084856Y-3552544D01*
X15014144Y-3552544D01*
X15014144Y-3623256D01*
X15084856Y-3623256D01*
X16583956Y-10122956D02*
X16583956Y-10052244D01*
X16513244Y-10052244D01*
X16513244Y-10122956D01*
X16583956Y-10122956D01*
X16583956Y-10376956D02*
X16583956Y-10306244D01*
X16513244Y-10306244D01*
X16513244Y-10376956D01*
X16583956Y-10376956D01*
X16583956Y-10630956D02*
X16583956Y-10560244D01*
X16513244Y-10560244D01*
X16513244Y-10630956D01*
X16583956Y-10630956D01*
X16583956Y-10884956D02*
X16583956Y-10814244D01*
X16513244Y-10814244D01*
X16513244Y-10884956D01*
X16583956Y-10884956D01*
X16583956Y-11138956D02*
X16583956Y-11068244D01*
X16513244Y-11068244D01*
X16513244Y-11138956D01*
X16583956Y-11138956D01*
X16583956Y-11392956D02*
X16583956Y-11322244D01*
X16513244Y-11322244D01*
X16513244Y-11392956D01*
X16583956Y-11392956D01*
X16583956Y-11646956D02*
X16583956Y-11576244D01*
X16513244Y-11576244D01*
X16513244Y-11646956D01*
X16583956Y-11646956D01*
X16583956Y-11900956D02*
X16583956Y-11830244D01*
X16513244Y-11830244D01*
X16513244Y-11900956D01*
X16583956Y-11900956D01*
X16583956Y-12154956D02*
X16583956Y-12084244D01*
X16513244Y-12084244D01*
X16513244Y-12154956D01*
X16583956Y-12154956D01*
X16583956Y-12408956D02*
X16583956Y-12338244D01*
X16513244Y-12338244D01*
X16513244Y-12408956D01*
X16583956Y-12408956D01*
X16583956Y-12662956D02*
X16583956Y-12592244D01*
X16513244Y-12592244D01*
X16513244Y-12662956D01*
X16583956Y-12662956D01*
X16862856Y-14194256D02*
X16862856Y-14123544D01*
X16792144Y-14123544D01*
X16792144Y-14194256D01*
X16862856Y-14194256D01*
X17116856Y-14194256D02*
X17116856Y-14123544D01*
X17046144Y-14123544D01*
X17046144Y-14194256D01*
X17116856Y-14194256D01*
X17370856Y-14194256D02*
X17370856Y-14123544D01*
X17300144Y-14123544D01*
X17300144Y-14194256D01*
X17370856Y-14194256D01*
X17624856Y-14194256D02*
X17624856Y-14123544D01*
X17554144Y-14123544D01*
X17554144Y-14194256D01*
X17624856Y-14194256D01*
X17878856Y-14194256D02*
X17878856Y-14123544D01*
X17808144Y-14123544D01*
X17808144Y-14194256D01*
X17878856Y-14194256D01*
X18132856Y-14194256D02*
X18132856Y-14123544D01*
X18062144Y-14123544D01*
X18062144Y-14194256D01*
X18132856Y-14194256D01*
X18141746Y-5572226D02*
X18141746Y-5501514D01*
X18071034Y-5501514D01*
X18071034Y-5572226D01*
X18141746Y-5572226D01*
X18141746Y-5826226D02*
X18141746Y-5755514D01*
X18071034Y-5755514D01*
X18071034Y-5826226D01*
X18141746Y-5826226D01*
X18141746Y-6080226D02*
X18141746Y-6009514D01*
X18071034Y-6009514D01*
X18071034Y-6080226D01*
X18141746Y-6080226D01*
X18141746Y-6334226D02*
X18141746Y-6263514D01*
X18071034Y-6263514D01*
X18071034Y-6334226D01*
X18141746Y-6334226D01*
X18141746Y-6588226D02*
X18141746Y-6517514D01*
X18071034Y-6517514D01*
X18071034Y-6588226D01*
X18141746Y-6588226D01*
X18141746Y-6842226D02*
X18141746Y-6771514D01*
X18071034Y-6771514D01*
X18071034Y-6842226D01*
X18141746Y-6842226D01*
X18141746Y-7096226D02*
X18141746Y-7025514D01*
X18071034Y-7025514D01*
X18071034Y-7096226D01*
X18141746Y-7096226D01*
X18141746Y-7350226D02*
X18141746Y-7279514D01*
X18071034Y-7279514D01*
X18071034Y-7350226D01*
X18141746Y-7350226D01*
X18141746Y-7604226D02*
X18141746Y-7533514D01*
X18071034Y-7533514D01*
X18071034Y-7604226D01*
X18141746Y-7604226D01*
X18141746Y-7858226D02*
X18141746Y-7787514D01*
X18071034Y-7787514D01*
X18071034Y-7858226D01*
X18141746Y-7858226D01*
X18141746Y-8112226D02*
X18141746Y-8041514D01*
X18071034Y-8041514D01*
X18071034Y-8112226D01*
X18141746Y-8112226D01*
X18386856Y-14194256D02*
X18386856Y-14123544D01*
X18316144Y-14123544D01*
X18316144Y-14194256D01*
X18386856Y-14194256D01*
X18640856Y-14194256D02*
X18640856Y-14123544D01*
X18570144Y-14123544D01*
X18570144Y-14194256D01*
X18640856Y-14194256D01*
X18894856Y-14194256D02*
X18894856Y-14123544D01*
X18824144Y-14123544D01*
X18824144Y-14194256D01*
X18894856Y-14194256D01*
X19148856Y-14194256D02*
X19148856Y-14123544D01*
X19078144Y-14123544D01*
X19078144Y-14194256D01*
X19148856Y-14194256D01*
X19402856Y-14194256D02*
X19402856Y-14123544D01*
X19332144Y-14123544D01*
X19332144Y-14194256D01*
X19402856Y-14194256D01*
X19456156Y-9807156D02*
X19456156Y-9736444D01*
X19385444Y-9736444D01*
X19385444Y-9807156D01*
X19456156Y-9807156D01*
X19458156Y-8446556D02*
X19458156Y-8375844D01*
X19387444Y-8375844D01*
X19387444Y-8446556D01*
X19458156Y-8446556D01*
X19458156Y-9132356D02*
X19458156Y-9061644D01*
X19387444Y-9061644D01*
X19387444Y-9132356D01*
X19458156Y-9132356D01*
X19458156Y-10491256D02*
X19458156Y-10420544D01*
X19387444Y-10420544D01*
X19387444Y-10491256D01*
X19458156Y-10491256D01*
X19475556Y-13247156D02*
X19475556Y-13176444D01*
X19404844Y-13176444D01*
X19404844Y-13247156D01*
X19475556Y-13247156D01*
X19475956Y-11186556D02*
X19475956Y-11115844D01*
X19405244Y-11115844D01*
X19405244Y-11186556D01*
X19475956Y-11186556D01*
X19475956Y-11872356D02*
X19475956Y-11801644D01*
X19405244Y-11801644D01*
X19405244Y-11872356D01*
X19475956Y-11872356D01*
X19479556Y-12561356D02*
X19479556Y-12490644D01*
X19408844Y-12490644D01*
X19408844Y-12561356D01*
X19479556Y-12561356D01*
X19706156Y-9807156D02*
X19706156Y-9736444D01*
X19635444Y-9736444D01*
X19635444Y-9807156D01*
X19706156Y-9807156D01*
X19708156Y-8446556D02*
X19708156Y-8375844D01*
X19637444Y-8375844D01*
X19637444Y-8446556D01*
X19708156Y-8446556D01*
X19708156Y-9132356D02*
X19708156Y-9061644D01*
X19637444Y-9061644D01*
X19637444Y-9132356D01*
X19708156Y-9132356D01*
X19708156Y-10491256D02*
X19708156Y-10420544D01*
X19637444Y-10420544D01*
X19637444Y-10491256D01*
X19708156Y-10491256D01*
X19725556Y-13247156D02*
X19725556Y-13176444D01*
X19654844Y-13176444D01*
X19654844Y-13247156D01*
X19725556Y-13247156D01*
X19725956Y-11186556D02*
X19725956Y-11115844D01*
X19655244Y-11115844D01*
X19655244Y-11186556D01*
X19725956Y-11186556D01*
X19725956Y-11872356D02*
X19725956Y-11801644D01*
X19655244Y-11801644D01*
X19655244Y-11872356D01*
X19725956Y-11872356D01*
X19729556Y-12561356D02*
X19729556Y-12490644D01*
X19658844Y-12490644D01*
X19658844Y-12561356D01*
X19729556Y-12561356D01*
D13*
X15168610Y-6738410D02*
X15224490Y-6682530D01*
X15168610Y-6626650D01*
X15112730Y-6682530D01*
X15168610Y-6738410D01*
X15168610Y-7246410D02*
X15224490Y-7190530D01*
X15168610Y-7134650D01*
X15112730Y-7190530D01*
X15168610Y-7246410D01*
X15168610Y-7754410D02*
X15224490Y-7698530D01*
X15168610Y-7642650D01*
X15112730Y-7698530D01*
X15168610Y-7754410D01*
X15168610Y-8262410D02*
X15224490Y-8206530D01*
X15168610Y-8150650D01*
X15112730Y-8206530D01*
X15168610Y-8262410D01*
X15176500Y-4720780D02*
X15232380Y-4664900D01*
X15176500Y-4609020D01*
X15120620Y-4664900D01*
X15176500Y-4720780D01*
X15177000Y-5215880D02*
X15232880Y-5160000D01*
X15177000Y-5104120D01*
X15121120Y-5160000D01*
X15177000Y-5215880D01*
X15177000Y-5723880D02*
X15232880Y-5668000D01*
X15177000Y-5612120D01*
X15121120Y-5668000D01*
X15177000Y-5723880D01*
X15177000Y-6231880D02*
X15232880Y-6176000D01*
X15177000Y-6120120D01*
X15121120Y-6176000D01*
X15177000Y-6231880D01*
X15422610Y-6738410D02*
X15478490Y-6682530D01*
X15422610Y-6626650D01*
X15366730Y-6682530D01*
X15422610Y-6738410D01*
X15422610Y-7246410D02*
X15478490Y-7190530D01*
X15422610Y-7134650D01*
X15366730Y-7190530D01*
X15422610Y-7246410D01*
X15422610Y-7754410D02*
X15478490Y-7698530D01*
X15422610Y-7642650D01*
X15366730Y-7698530D01*
X15422610Y-7754410D01*
X15422610Y-8262410D02*
X15478490Y-8206530D01*
X15422610Y-8150650D01*
X15366730Y-8206530D01*
X15422610Y-8262410D01*
X15430500Y-4720780D02*
X15486380Y-4664900D01*
X15430500Y-4609020D01*
X15374620Y-4664900D01*
X15430500Y-4720780D01*
X15431000Y-5215880D02*
X15486880Y-5160000D01*
X15431000Y-5104120D01*
X15375120Y-5160000D01*
X15431000Y-5215880D01*
X15431000Y-5723880D02*
X15486880Y-5668000D01*
X15431000Y-5612120D01*
X15375120Y-5668000D01*
X15431000Y-5723880D01*
X15431000Y-6231880D02*
X15486880Y-6176000D01*
X15431000Y-6120120D01*
X15375120Y-6176000D01*
X15431000Y-6231880D01*
X15676610Y-6738410D02*
X15732490Y-6682530D01*
X15676610Y-6626650D01*
X15620730Y-6682530D01*
X15676610Y-6738410D01*
X15676610Y-7246410D02*
X15732490Y-7190530D01*
X15676610Y-7134650D01*
X15620730Y-7190530D01*
X15676610Y-7246410D01*
X15676610Y-7754410D02*
X15732490Y-7698530D01*
X15676610Y-7642650D01*
X15620730Y-7698530D01*
X15676610Y-7754410D01*
X15676610Y-8262410D02*
X15732490Y-8206530D01*
X15676610Y-8150650D01*
X15620730Y-8206530D01*
X15676610Y-8262410D01*
X15684500Y-4720780D02*
X15740380Y-4664900D01*
X15684500Y-4609020D01*
X15628620Y-4664900D01*
X15684500Y-4720780D01*
X15685000Y-5215880D02*
X15740880Y-5160000D01*
X15685000Y-5104120D01*
X15629120Y-5160000D01*
X15685000Y-5215880D01*
X15685000Y-5723880D02*
X15740880Y-5668000D01*
X15685000Y-5612120D01*
X15629120Y-5668000D01*
X15685000Y-5723880D01*
X15685000Y-6231880D02*
X15740880Y-6176000D01*
X15685000Y-6120120D01*
X15629120Y-6176000D01*
X15685000Y-6231880D01*
D14*
X10138500Y-7373200D02*
X10588500Y-7823200D01*
X10588500Y-7373200D02*
X10138500Y-7823200D01*
X10588500Y-7598200D02*
G75*
G02*
X10138500Y-7598200I-225000J0D01*
G01*
X10138500Y-7598200D02*
G75*
G02*
X10588500Y-7598200I225000J0D01*
G01*
X10142600Y-5493800D02*
X10592600Y-5943800D01*
X10592600Y-5493800D02*
X10142600Y-5943800D01*
X10592600Y-5718800D02*
G75*
G02*
X10142600Y-5718800I-225000J0D01*
G01*
X10142600Y-5718800D02*
G75*
G02*
X10592600Y-5718800I225000J0D01*
G01*
X10142600Y-6433600D02*
X10592600Y-6883600D01*
X10592600Y-6433600D02*
X10142600Y-6883600D01*
X10592600Y-6658600D02*
G75*
G02*
X10142600Y-6658600I-225000J0D01*
G01*
X10142600Y-6658600D02*
G75*
G02*
X10592600Y-6658600I225000J0D01*
G01*
X10169500Y-8317440D02*
X10619500Y-8767440D01*
X10619500Y-8317440D02*
X10169500Y-8767440D01*
X10619500Y-8542440D02*
G75*
G02*
X10169500Y-8542440I-225000J0D01*
G01*
X10169500Y-8542440D02*
G75*
G02*
X10619500Y-8542440I225000J0D01*
G01*
X10858500Y-7373200D02*
X11308500Y-7823200D01*
X11308500Y-7373200D02*
X10858500Y-7823200D01*
X11308500Y-7598200D02*
G75*
G02*
X10858500Y-7598200I-225000J0D01*
G01*
X10858500Y-7598200D02*
G75*
G02*
X11308500Y-7598200I225000J0D01*
G01*
X10862600Y-5493800D02*
X11312600Y-5943800D01*
X11312600Y-5493800D02*
X10862600Y-5943800D01*
X11312600Y-5718800D02*
G75*
G02*
X10862600Y-5718800I-225000J0D01*
G01*
X10862600Y-5718800D02*
G75*
G02*
X11312600Y-5718800I225000J0D01*
G01*
X10862600Y-6433600D02*
X11312600Y-6883600D01*
X11312600Y-6433600D02*
X10862600Y-6883600D01*
X11312600Y-6658600D02*
G75*
G02*
X10862600Y-6658600I-225000J0D01*
G01*
X10862600Y-6658600D02*
G75*
G02*
X11312600Y-6658600I225000J0D01*
G01*
X10889500Y-8317440D02*
X11339500Y-8767440D01*
X11339500Y-8317440D02*
X10889500Y-8767440D01*
X11339500Y-8542440D02*
G75*
G02*
X10889500Y-8542440I-225000J0D01*
G01*
X10889500Y-8542440D02*
G75*
G02*
X11339500Y-8542440I225000J0D01*
G01*
D11*
X8882077Y-16014984D02*
X8882077Y-15814984D01*
X8882077Y-15814984D02*
X8929696Y-15814984D01*
X8929696Y-15814984D02*
X8958267Y-15824508D01*
X8958267Y-15824508D02*
X8977315Y-15843555D01*
X8977315Y-15843555D02*
X8986839Y-15862603D01*
X8986839Y-15862603D02*
X8996363Y-15900698D01*
X8996363Y-15900698D02*
X8996363Y-15929269D01*
X8996363Y-15929269D02*
X8986839Y-15967365D01*
X8986839Y-15967365D02*
X8977315Y-15986412D01*
X8977315Y-15986412D02*
X8958267Y-16005460D01*
X8958267Y-16005460D02*
X8929696Y-16014984D01*
X8929696Y-16014984D02*
X8882077Y-16014984D01*
X9082077Y-16014984D02*
X9082077Y-15881650D01*
X9082077Y-15919746D02*
X9091601Y-15900698D01*
X9091601Y-15900698D02*
X9101124Y-15891174D01*
X9101124Y-15891174D02*
X9120172Y-15881650D01*
X9120172Y-15881650D02*
X9139220Y-15881650D01*
X9205886Y-16014984D02*
X9205886Y-15881650D01*
X9205886Y-15814984D02*
X9196363Y-15824508D01*
X9196363Y-15824508D02*
X9205886Y-15834031D01*
X9205886Y-15834031D02*
X9215410Y-15824508D01*
X9215410Y-15824508D02*
X9205886Y-15814984D01*
X9205886Y-15814984D02*
X9205886Y-15834031D01*
X9329696Y-16014984D02*
X9310648Y-16005460D01*
X9310648Y-16005460D02*
X9301124Y-15986412D01*
X9301124Y-15986412D02*
X9301124Y-15814984D01*
X9434458Y-16014984D02*
X9415410Y-16005460D01*
X9415410Y-16005460D02*
X9405886Y-15986412D01*
X9405886Y-15986412D02*
X9405886Y-15814984D01*
X9663029Y-16014984D02*
X9663029Y-15814984D01*
X9663029Y-15814984D02*
X9729696Y-15957841D01*
X9729696Y-15957841D02*
X9796363Y-15814984D01*
X9796363Y-15814984D02*
X9796363Y-16014984D01*
X9977315Y-16014984D02*
X9977315Y-15910222D01*
X9977315Y-15910222D02*
X9967791Y-15891174D01*
X9967791Y-15891174D02*
X9948744Y-15881650D01*
X9948744Y-15881650D02*
X9910648Y-15881650D01*
X9910648Y-15881650D02*
X9891601Y-15891174D01*
X9977315Y-16005460D02*
X9958267Y-16014984D01*
X9958267Y-16014984D02*
X9910648Y-16014984D01*
X9910648Y-16014984D02*
X9891601Y-16005460D01*
X9891601Y-16005460D02*
X9882077Y-15986412D01*
X9882077Y-15986412D02*
X9882077Y-15967365D01*
X9882077Y-15967365D02*
X9891601Y-15948317D01*
X9891601Y-15948317D02*
X9910648Y-15938793D01*
X9910648Y-15938793D02*
X9958267Y-15938793D01*
X9958267Y-15938793D02*
X9977315Y-15929269D01*
X10072553Y-15881650D02*
X10072553Y-16081650D01*
X10072553Y-15891174D02*
X10091601Y-15881650D01*
X10091601Y-15881650D02*
X10129696Y-15881650D01*
X10129696Y-15881650D02*
X10148744Y-15891174D01*
X10148744Y-15891174D02*
X10158267Y-15900698D01*
X10158267Y-15900698D02*
X10167791Y-15919746D01*
X10167791Y-15919746D02*
X10167791Y-15976888D01*
X10167791Y-15976888D02*
X10158267Y-15995936D01*
X10158267Y-15995936D02*
X10148744Y-16005460D01*
X10148744Y-16005460D02*
X10129696Y-16014984D01*
X10129696Y-16014984D02*
X10091601Y-16014984D01*
X10091601Y-16014984D02*
X10072553Y-16005460D01*
X10253505Y-15995936D02*
X10263029Y-16005460D01*
X10263029Y-16005460D02*
X10253505Y-16014984D01*
X10253505Y-16014984D02*
X10243982Y-16005460D01*
X10243982Y-16005460D02*
X10253505Y-15995936D01*
X10253505Y-15995936D02*
X10253505Y-16014984D01*
X10253505Y-15891174D02*
X10263029Y-15900698D01*
X10263029Y-15900698D02*
X10253505Y-15910222D01*
X10253505Y-15910222D02*
X10243982Y-15900698D01*
X10243982Y-15900698D02*
X10253505Y-15891174D01*
X10253505Y-15891174D02*
X10253505Y-15910222D01*
D12*
X8591300Y-16328500D02*
X8621300Y-16358500D01*
X8621300Y-16328500D02*
X8591300Y-16358500D01*
D11*
X8920172Y-16234984D02*
X8939220Y-16234984D01*
X8939220Y-16234984D02*
X8958267Y-16244508D01*
X8958267Y-16244508D02*
X8967791Y-16254031D01*
X8967791Y-16254031D02*
X8977315Y-16273079D01*
X8977315Y-16273079D02*
X8986839Y-16311174D01*
X8986839Y-16311174D02*
X8986839Y-16358793D01*
X8986839Y-16358793D02*
X8977315Y-16396888D01*
X8977315Y-16396888D02*
X8967791Y-16415936D01*
X8967791Y-16415936D02*
X8958267Y-16425460D01*
X8958267Y-16425460D02*
X8939220Y-16434984D01*
X8939220Y-16434984D02*
X8920172Y-16434984D01*
X8920172Y-16434984D02*
X8901124Y-16425460D01*
X8901124Y-16425460D02*
X8891601Y-16415936D01*
X8891601Y-16415936D02*
X8882077Y-16396888D01*
X8882077Y-16396888D02*
X8872553Y-16358793D01*
X8872553Y-16358793D02*
X8872553Y-16311174D01*
X8872553Y-16311174D02*
X8882077Y-16273079D01*
X8882077Y-16273079D02*
X8891601Y-16254031D01*
X8891601Y-16254031D02*
X8901124Y-16244508D01*
X8901124Y-16244508D02*
X8920172Y-16234984D01*
X9072553Y-16415936D02*
X9082077Y-16425460D01*
X9082077Y-16425460D02*
X9072553Y-16434984D01*
X9072553Y-16434984D02*
X9063029Y-16425460D01*
X9063029Y-16425460D02*
X9072553Y-16415936D01*
X9072553Y-16415936D02*
X9072553Y-16434984D01*
X9148744Y-16234984D02*
X9272553Y-16234984D01*
X9272553Y-16234984D02*
X9205886Y-16311174D01*
X9205886Y-16311174D02*
X9234458Y-16311174D01*
X9234458Y-16311174D02*
X9253505Y-16320698D01*
X9253505Y-16320698D02*
X9263029Y-16330222D01*
X9263029Y-16330222D02*
X9272553Y-16349269D01*
X9272553Y-16349269D02*
X9272553Y-16396888D01*
X9272553Y-16396888D02*
X9263029Y-16415936D01*
X9263029Y-16415936D02*
X9253505Y-16425460D01*
X9253505Y-16425460D02*
X9234458Y-16434984D01*
X9234458Y-16434984D02*
X9177315Y-16434984D01*
X9177315Y-16434984D02*
X9158267Y-16425460D01*
X9158267Y-16425460D02*
X9148744Y-16415936D01*
X9396363Y-16234984D02*
X9415410Y-16234984D01*
X9415410Y-16234984D02*
X9434458Y-16244508D01*
X9434458Y-16244508D02*
X9443982Y-16254031D01*
X9443982Y-16254031D02*
X9453505Y-16273079D01*
X9453505Y-16273079D02*
X9463029Y-16311174D01*
X9463029Y-16311174D02*
X9463029Y-16358793D01*
X9463029Y-16358793D02*
X9453505Y-16396888D01*
X9453505Y-16396888D02*
X9443982Y-16415936D01*
X9443982Y-16415936D02*
X9434458Y-16425460D01*
X9434458Y-16425460D02*
X9415410Y-16434984D01*
X9415410Y-16434984D02*
X9396363Y-16434984D01*
X9396363Y-16434984D02*
X9377315Y-16425460D01*
X9377315Y-16425460D02*
X9367791Y-16415936D01*
X9367791Y-16415936D02*
X9358267Y-16396888D01*
X9358267Y-16396888D02*
X9348744Y-16358793D01*
X9348744Y-16358793D02*
X9348744Y-16311174D01*
X9348744Y-16311174D02*
X9358267Y-16273079D01*
X9358267Y-16273079D02*
X9367791Y-16254031D01*
X9367791Y-16254031D02*
X9377315Y-16244508D01*
X9377315Y-16244508D02*
X9396363Y-16234984D01*
X9586839Y-16234984D02*
X9605886Y-16234984D01*
X9605886Y-16234984D02*
X9624934Y-16244508D01*
X9624934Y-16244508D02*
X9634458Y-16254031D01*
X9634458Y-16254031D02*
X9643982Y-16273079D01*
X9643982Y-16273079D02*
X9653505Y-16311174D01*
X9653505Y-16311174D02*
X9653505Y-16358793D01*
X9653505Y-16358793D02*
X9643982Y-16396888D01*
X9643982Y-16396888D02*
X9634458Y-16415936D01*
X9634458Y-16415936D02*
X9624934Y-16425460D01*
X9624934Y-16425460D02*
X9605886Y-16434984D01*
X9605886Y-16434984D02*
X9586839Y-16434984D01*
X9586839Y-16434984D02*
X9567791Y-16425460D01*
X9567791Y-16425460D02*
X9558267Y-16415936D01*
X9558267Y-16415936D02*
X9548744Y-16396888D01*
X9548744Y-16396888D02*
X9539220Y-16358793D01*
X9539220Y-16358793D02*
X9539220Y-16311174D01*
X9539220Y-16311174D02*
X9548744Y-16273079D01*
X9548744Y-16273079D02*
X9558267Y-16254031D01*
X9558267Y-16254031D02*
X9567791Y-16244508D01*
X9567791Y-16244508D02*
X9586839Y-16234984D01*
X9739220Y-16434984D02*
X9739220Y-16301650D01*
X9739220Y-16320698D02*
X9748744Y-16311174D01*
X9748744Y-16311174D02*
X9767791Y-16301650D01*
X9767791Y-16301650D02*
X9796363Y-16301650D01*
X9796363Y-16301650D02*
X9815410Y-16311174D01*
X9815410Y-16311174D02*
X9824934Y-16330222D01*
X9824934Y-16330222D02*
X9824934Y-16434984D01*
X9824934Y-16330222D02*
X9834458Y-16311174D01*
X9834458Y-16311174D02*
X9853505Y-16301650D01*
X9853505Y-16301650D02*
X9882077Y-16301650D01*
X9882077Y-16301650D02*
X9901125Y-16311174D01*
X9901125Y-16311174D02*
X9910648Y-16330222D01*
X9910648Y-16330222D02*
X9910648Y-16434984D01*
X10005886Y-16434984D02*
X10005886Y-16301650D01*
X10005886Y-16320698D02*
X10015410Y-16311174D01*
X10015410Y-16311174D02*
X10034458Y-16301650D01*
X10034458Y-16301650D02*
X10063029Y-16301650D01*
X10063029Y-16301650D02*
X10082077Y-16311174D01*
X10082077Y-16311174D02*
X10091601Y-16330222D01*
X10091601Y-16330222D02*
X10091601Y-16434984D01*
X10091601Y-16330222D02*
X10101125Y-16311174D01*
X10101125Y-16311174D02*
X10120172Y-16301650D01*
X10120172Y-16301650D02*
X10148744Y-16301650D01*
X10148744Y-16301650D02*
X10167791Y-16311174D01*
X10167791Y-16311174D02*
X10177315Y-16330222D01*
X10177315Y-16330222D02*
X10177315Y-16434984D01*
X10567791Y-16225460D02*
X10396363Y-16482603D01*
X10824934Y-16234984D02*
X10843982Y-16234984D01*
X10843982Y-16234984D02*
X10863029Y-16244508D01*
X10863029Y-16244508D02*
X10872553Y-16254031D01*
X10872553Y-16254031D02*
X10882077Y-16273079D01*
X10882077Y-16273079D02*
X10891601Y-16311174D01*
X10891601Y-16311174D02*
X10891601Y-16358793D01*
X10891601Y-16358793D02*
X10882077Y-16396888D01*
X10882077Y-16396888D02*
X10872553Y-16415936D01*
X10872553Y-16415936D02*
X10863029Y-16425460D01*
X10863029Y-16425460D02*
X10843982Y-16434984D01*
X10843982Y-16434984D02*
X10824934Y-16434984D01*
X10824934Y-16434984D02*
X10805887Y-16425460D01*
X10805887Y-16425460D02*
X10796363Y-16415936D01*
X10796363Y-16415936D02*
X10786839Y-16396888D01*
X10786839Y-16396888D02*
X10777315Y-16358793D01*
X10777315Y-16358793D02*
X10777315Y-16311174D01*
X10777315Y-16311174D02*
X10786839Y-16273079D01*
X10786839Y-16273079D02*
X10796363Y-16254031D01*
X10796363Y-16254031D02*
X10805887Y-16244508D01*
X10805887Y-16244508D02*
X10824934Y-16234984D01*
X10977315Y-16415936D02*
X10986839Y-16425460D01*
X10986839Y-16425460D02*
X10977315Y-16434984D01*
X10977315Y-16434984D02*
X10967791Y-16425460D01*
X10967791Y-16425460D02*
X10977315Y-16415936D01*
X10977315Y-16415936D02*
X10977315Y-16434984D01*
X11110648Y-16234984D02*
X11129696Y-16234984D01*
X11129696Y-16234984D02*
X11148744Y-16244508D01*
X11148744Y-16244508D02*
X11158268Y-16254031D01*
X11158268Y-16254031D02*
X11167791Y-16273079D01*
X11167791Y-16273079D02*
X11177315Y-16311174D01*
X11177315Y-16311174D02*
X11177315Y-16358793D01*
X11177315Y-16358793D02*
X11167791Y-16396888D01*
X11167791Y-16396888D02*
X11158268Y-16415936D01*
X11158268Y-16415936D02*
X11148744Y-16425460D01*
X11148744Y-16425460D02*
X11129696Y-16434984D01*
X11129696Y-16434984D02*
X11110648Y-16434984D01*
X11110648Y-16434984D02*
X11091601Y-16425460D01*
X11091601Y-16425460D02*
X11082077Y-16415936D01*
X11082077Y-16415936D02*
X11072553Y-16396888D01*
X11072553Y-16396888D02*
X11063029Y-16358793D01*
X11063029Y-16358793D02*
X11063029Y-16311174D01*
X11063029Y-16311174D02*
X11072553Y-16273079D01*
X11072553Y-16273079D02*
X11082077Y-16254031D01*
X11082077Y-16254031D02*
X11091601Y-16244508D01*
X11091601Y-16244508D02*
X11110648Y-16234984D01*
X11367791Y-16434984D02*
X11253506Y-16434984D01*
X11310648Y-16434984D02*
X11310648Y-16234984D01*
X11310648Y-16234984D02*
X11291601Y-16263555D01*
X11291601Y-16263555D02*
X11272553Y-16282603D01*
X11272553Y-16282603D02*
X11253506Y-16292127D01*
X11558267Y-16434984D02*
X11443982Y-16434984D01*
X11501125Y-16434984D02*
X11501125Y-16234984D01*
X11501125Y-16234984D02*
X11482077Y-16263555D01*
X11482077Y-16263555D02*
X11463029Y-16282603D01*
X11463029Y-16282603D02*
X11443982Y-16292127D01*
X11672553Y-16320698D02*
X11653506Y-16311174D01*
X11653506Y-16311174D02*
X11643982Y-16301650D01*
X11643982Y-16301650D02*
X11634458Y-16282603D01*
X11634458Y-16282603D02*
X11634458Y-16273079D01*
X11634458Y-16273079D02*
X11643982Y-16254031D01*
X11643982Y-16254031D02*
X11653506Y-16244508D01*
X11653506Y-16244508D02*
X11672553Y-16234984D01*
X11672553Y-16234984D02*
X11710648Y-16234984D01*
X11710648Y-16234984D02*
X11729696Y-16244508D01*
X11729696Y-16244508D02*
X11739220Y-16254031D01*
X11739220Y-16254031D02*
X11748744Y-16273079D01*
X11748744Y-16273079D02*
X11748744Y-16282603D01*
X11748744Y-16282603D02*
X11739220Y-16301650D01*
X11739220Y-16301650D02*
X11729696Y-16311174D01*
X11729696Y-16311174D02*
X11710648Y-16320698D01*
X11710648Y-16320698D02*
X11672553Y-16320698D01*
X11672553Y-16320698D02*
X11653506Y-16330222D01*
X11653506Y-16330222D02*
X11643982Y-16339746D01*
X11643982Y-16339746D02*
X11634458Y-16358793D01*
X11634458Y-16358793D02*
X11634458Y-16396888D01*
X11634458Y-16396888D02*
X11643982Y-16415936D01*
X11643982Y-16415936D02*
X11653506Y-16425460D01*
X11653506Y-16425460D02*
X11672553Y-16434984D01*
X11672553Y-16434984D02*
X11710648Y-16434984D01*
X11710648Y-16434984D02*
X11729696Y-16425460D01*
X11729696Y-16425460D02*
X11739220Y-16415936D01*
X11739220Y-16415936D02*
X11748744Y-16396888D01*
X11748744Y-16396888D02*
X11748744Y-16358793D01*
X11748744Y-16358793D02*
X11739220Y-16339746D01*
X11739220Y-16339746D02*
X11729696Y-16330222D01*
X11729696Y-16330222D02*
X11710648Y-16320698D01*
X11824934Y-16234984D02*
X11824934Y-16273079D01*
X11901125Y-16234984D02*
X11901125Y-16273079D01*
X12196363Y-16511174D02*
X12186839Y-16501650D01*
X12186839Y-16501650D02*
X12167791Y-16473079D01*
X12167791Y-16473079D02*
X12158268Y-16454031D01*
X12158268Y-16454031D02*
X12148744Y-16425460D01*
X12148744Y-16425460D02*
X12139220Y-16377841D01*
X12139220Y-16377841D02*
X12139220Y-16339746D01*
X12139220Y-16339746D02*
X12148744Y-16292127D01*
X12148744Y-16292127D02*
X12158268Y-16263555D01*
X12158268Y-16263555D02*
X12167791Y-16244508D01*
X12167791Y-16244508D02*
X12186839Y-16215936D01*
X12186839Y-16215936D02*
X12196363Y-16206412D01*
X12253506Y-16234984D02*
X12377315Y-16234984D01*
X12377315Y-16234984D02*
X12310648Y-16311174D01*
X12310648Y-16311174D02*
X12339220Y-16311174D01*
X12339220Y-16311174D02*
X12358268Y-16320698D01*
X12358268Y-16320698D02*
X12367791Y-16330222D01*
X12367791Y-16330222D02*
X12377315Y-16349269D01*
X12377315Y-16349269D02*
X12377315Y-16396888D01*
X12377315Y-16396888D02*
X12367791Y-16415936D01*
X12367791Y-16415936D02*
X12358268Y-16425460D01*
X12358268Y-16425460D02*
X12339220Y-16434984D01*
X12339220Y-16434984D02*
X12282077Y-16434984D01*
X12282077Y-16434984D02*
X12263029Y-16425460D01*
X12263029Y-16425460D02*
X12253506Y-16415936D01*
X12453506Y-16254031D02*
X12463029Y-16244508D01*
X12463029Y-16244508D02*
X12482077Y-16234984D01*
X12482077Y-16234984D02*
X12529696Y-16234984D01*
X12529696Y-16234984D02*
X12548744Y-16244508D01*
X12548744Y-16244508D02*
X12558268Y-16254031D01*
X12558268Y-16254031D02*
X12567791Y-16273079D01*
X12567791Y-16273079D02*
X12567791Y-16292127D01*
X12567791Y-16292127D02*
X12558268Y-16320698D01*
X12558268Y-16320698D02*
X12443982Y-16434984D01*
X12443982Y-16434984D02*
X12567791Y-16434984D01*
X12739220Y-16301650D02*
X12739220Y-16434984D01*
X12691601Y-16225460D02*
X12643982Y-16368317D01*
X12643982Y-16368317D02*
X12767791Y-16368317D01*
X12996363Y-16434984D02*
X12996363Y-16234984D01*
X13082077Y-16434984D02*
X13082077Y-16330222D01*
X13082077Y-16330222D02*
X13072553Y-16311174D01*
X13072553Y-16311174D02*
X13053506Y-16301650D01*
X13053506Y-16301650D02*
X13024934Y-16301650D01*
X13024934Y-16301650D02*
X13005887Y-16311174D01*
X13005887Y-16311174D02*
X12996363Y-16320698D01*
X13205887Y-16434984D02*
X13186839Y-16425460D01*
X13186839Y-16425460D02*
X13177315Y-16415936D01*
X13177315Y-16415936D02*
X13167791Y-16396888D01*
X13167791Y-16396888D02*
X13167791Y-16339746D01*
X13167791Y-16339746D02*
X13177315Y-16320698D01*
X13177315Y-16320698D02*
X13186839Y-16311174D01*
X13186839Y-16311174D02*
X13205887Y-16301650D01*
X13205887Y-16301650D02*
X13234458Y-16301650D01*
X13234458Y-16301650D02*
X13253506Y-16311174D01*
X13253506Y-16311174D02*
X13263030Y-16320698D01*
X13263030Y-16320698D02*
X13272553Y-16339746D01*
X13272553Y-16339746D02*
X13272553Y-16396888D01*
X13272553Y-16396888D02*
X13263030Y-16415936D01*
X13263030Y-16415936D02*
X13253506Y-16425460D01*
X13253506Y-16425460D02*
X13234458Y-16434984D01*
X13234458Y-16434984D02*
X13205887Y-16434984D01*
X13386839Y-16434984D02*
X13367791Y-16425460D01*
X13367791Y-16425460D02*
X13358268Y-16406412D01*
X13358268Y-16406412D02*
X13358268Y-16234984D01*
X13539220Y-16425460D02*
X13520172Y-16434984D01*
X13520172Y-16434984D02*
X13482077Y-16434984D01*
X13482077Y-16434984D02*
X13463030Y-16425460D01*
X13463030Y-16425460D02*
X13453506Y-16406412D01*
X13453506Y-16406412D02*
X13453506Y-16330222D01*
X13453506Y-16330222D02*
X13463030Y-16311174D01*
X13463030Y-16311174D02*
X13482077Y-16301650D01*
X13482077Y-16301650D02*
X13520172Y-16301650D01*
X13520172Y-16301650D02*
X13539220Y-16311174D01*
X13539220Y-16311174D02*
X13548744Y-16330222D01*
X13548744Y-16330222D02*
X13548744Y-16349269D01*
X13548744Y-16349269D02*
X13453506Y-16368317D01*
X13624934Y-16425460D02*
X13643982Y-16434984D01*
X13643982Y-16434984D02*
X13682077Y-16434984D01*
X13682077Y-16434984D02*
X13701125Y-16425460D01*
X13701125Y-16425460D02*
X13710649Y-16406412D01*
X13710649Y-16406412D02*
X13710649Y-16396888D01*
X13710649Y-16396888D02*
X13701125Y-16377841D01*
X13701125Y-16377841D02*
X13682077Y-16368317D01*
X13682077Y-16368317D02*
X13653506Y-16368317D01*
X13653506Y-16368317D02*
X13634458Y-16358793D01*
X13634458Y-16358793D02*
X13624934Y-16339746D01*
X13624934Y-16339746D02*
X13624934Y-16330222D01*
X13624934Y-16330222D02*
X13634458Y-16311174D01*
X13634458Y-16311174D02*
X13653506Y-16301650D01*
X13653506Y-16301650D02*
X13682077Y-16301650D01*
X13682077Y-16301650D02*
X13701125Y-16311174D01*
X13777315Y-16511174D02*
X13786839Y-16501650D01*
X13786839Y-16501650D02*
X13805887Y-16473079D01*
X13805887Y-16473079D02*
X13815411Y-16454031D01*
X13815411Y-16454031D02*
X13824934Y-16425460D01*
X13824934Y-16425460D02*
X13834458Y-16377841D01*
X13834458Y-16377841D02*
X13834458Y-16339746D01*
X13834458Y-16339746D02*
X13824934Y-16292127D01*
X13824934Y-16292127D02*
X13815411Y-16263555D01*
X13815411Y-16263555D02*
X13805887Y-16244508D01*
X13805887Y-16244508D02*
X13786839Y-16215936D01*
X13786839Y-16215936D02*
X13777315Y-16206412D01*
D12*
X8621300Y-16607500D02*
G75*
G02*
X8541300Y-16607500I-40000J0D01*
G01*
X8541300Y-16607500D02*
G75*
G02*
X8621300Y-16607500I40000J0D01*
G01*
D11*
X8920172Y-16498984D02*
X8939220Y-16498984D01*
X8939220Y-16498984D02*
X8958267Y-16508508D01*
X8958267Y-16508508D02*
X8967791Y-16518031D01*
X8967791Y-16518031D02*
X8977315Y-16537079D01*
X8977315Y-16537079D02*
X8986839Y-16575174D01*
X8986839Y-16575174D02*
X8986839Y-16622793D01*
X8986839Y-16622793D02*
X8977315Y-16660888D01*
X8977315Y-16660888D02*
X8967791Y-16679936D01*
X8967791Y-16679936D02*
X8958267Y-16689460D01*
X8958267Y-16689460D02*
X8939220Y-16698984D01*
X8939220Y-16698984D02*
X8920172Y-16698984D01*
X8920172Y-16698984D02*
X8901124Y-16689460D01*
X8901124Y-16689460D02*
X8891601Y-16679936D01*
X8891601Y-16679936D02*
X8882077Y-16660888D01*
X8882077Y-16660888D02*
X8872553Y-16622793D01*
X8872553Y-16622793D02*
X8872553Y-16575174D01*
X8872553Y-16575174D02*
X8882077Y-16537079D01*
X8882077Y-16537079D02*
X8891601Y-16518031D01*
X8891601Y-16518031D02*
X8901124Y-16508508D01*
X8901124Y-16508508D02*
X8920172Y-16498984D01*
X9072553Y-16679936D02*
X9082077Y-16689460D01*
X9082077Y-16689460D02*
X9072553Y-16698984D01*
X9072553Y-16698984D02*
X9063029Y-16689460D01*
X9063029Y-16689460D02*
X9072553Y-16679936D01*
X9072553Y-16679936D02*
X9072553Y-16698984D01*
X9196363Y-16584698D02*
X9177315Y-16575174D01*
X9177315Y-16575174D02*
X9167791Y-16565650D01*
X9167791Y-16565650D02*
X9158267Y-16546603D01*
X9158267Y-16546603D02*
X9158267Y-16537079D01*
X9158267Y-16537079D02*
X9167791Y-16518031D01*
X9167791Y-16518031D02*
X9177315Y-16508508D01*
X9177315Y-16508508D02*
X9196363Y-16498984D01*
X9196363Y-16498984D02*
X9234458Y-16498984D01*
X9234458Y-16498984D02*
X9253505Y-16508508D01*
X9253505Y-16508508D02*
X9263029Y-16518031D01*
X9263029Y-16518031D02*
X9272553Y-16537079D01*
X9272553Y-16537079D02*
X9272553Y-16546603D01*
X9272553Y-16546603D02*
X9263029Y-16565650D01*
X9263029Y-16565650D02*
X9253505Y-16575174D01*
X9253505Y-16575174D02*
X9234458Y-16584698D01*
X9234458Y-16584698D02*
X9196363Y-16584698D01*
X9196363Y-16584698D02*
X9177315Y-16594222D01*
X9177315Y-16594222D02*
X9167791Y-16603746D01*
X9167791Y-16603746D02*
X9158267Y-16622793D01*
X9158267Y-16622793D02*
X9158267Y-16660888D01*
X9158267Y-16660888D02*
X9167791Y-16679936D01*
X9167791Y-16679936D02*
X9177315Y-16689460D01*
X9177315Y-16689460D02*
X9196363Y-16698984D01*
X9196363Y-16698984D02*
X9234458Y-16698984D01*
X9234458Y-16698984D02*
X9253505Y-16689460D01*
X9253505Y-16689460D02*
X9263029Y-16679936D01*
X9263029Y-16679936D02*
X9272553Y-16660888D01*
X9272553Y-16660888D02*
X9272553Y-16622793D01*
X9272553Y-16622793D02*
X9263029Y-16603746D01*
X9263029Y-16603746D02*
X9253505Y-16594222D01*
X9253505Y-16594222D02*
X9234458Y-16584698D01*
X9396363Y-16498984D02*
X9415410Y-16498984D01*
X9415410Y-16498984D02*
X9434458Y-16508508D01*
X9434458Y-16508508D02*
X9443982Y-16518031D01*
X9443982Y-16518031D02*
X9453505Y-16537079D01*
X9453505Y-16537079D02*
X9463029Y-16575174D01*
X9463029Y-16575174D02*
X9463029Y-16622793D01*
X9463029Y-16622793D02*
X9453505Y-16660888D01*
X9453505Y-16660888D02*
X9443982Y-16679936D01*
X9443982Y-16679936D02*
X9434458Y-16689460D01*
X9434458Y-16689460D02*
X9415410Y-16698984D01*
X9415410Y-16698984D02*
X9396363Y-16698984D01*
X9396363Y-16698984D02*
X9377315Y-16689460D01*
X9377315Y-16689460D02*
X9367791Y-16679936D01*
X9367791Y-16679936D02*
X9358267Y-16660888D01*
X9358267Y-16660888D02*
X9348744Y-16622793D01*
X9348744Y-16622793D02*
X9348744Y-16575174D01*
X9348744Y-16575174D02*
X9358267Y-16537079D01*
X9358267Y-16537079D02*
X9367791Y-16518031D01*
X9367791Y-16518031D02*
X9377315Y-16508508D01*
X9377315Y-16508508D02*
X9396363Y-16498984D01*
X9586839Y-16498984D02*
X9605886Y-16498984D01*
X9605886Y-16498984D02*
X9624934Y-16508508D01*
X9624934Y-16508508D02*
X9634458Y-16518031D01*
X9634458Y-16518031D02*
X9643982Y-16537079D01*
X9643982Y-16537079D02*
X9653505Y-16575174D01*
X9653505Y-16575174D02*
X9653505Y-16622793D01*
X9653505Y-16622793D02*
X9643982Y-16660888D01*
X9643982Y-16660888D02*
X9634458Y-16679936D01*
X9634458Y-16679936D02*
X9624934Y-16689460D01*
X9624934Y-16689460D02*
X9605886Y-16698984D01*
X9605886Y-16698984D02*
X9586839Y-16698984D01*
X9586839Y-16698984D02*
X9567791Y-16689460D01*
X9567791Y-16689460D02*
X9558267Y-16679936D01*
X9558267Y-16679936D02*
X9548744Y-16660888D01*
X9548744Y-16660888D02*
X9539220Y-16622793D01*
X9539220Y-16622793D02*
X9539220Y-16575174D01*
X9539220Y-16575174D02*
X9548744Y-16537079D01*
X9548744Y-16537079D02*
X9558267Y-16518031D01*
X9558267Y-16518031D02*
X9567791Y-16508508D01*
X9567791Y-16508508D02*
X9586839Y-16498984D01*
X9739220Y-16698984D02*
X9739220Y-16565650D01*
X9739220Y-16584698D02*
X9748744Y-16575174D01*
X9748744Y-16575174D02*
X9767791Y-16565650D01*
X9767791Y-16565650D02*
X9796363Y-16565650D01*
X9796363Y-16565650D02*
X9815410Y-16575174D01*
X9815410Y-16575174D02*
X9824934Y-16594222D01*
X9824934Y-16594222D02*
X9824934Y-16698984D01*
X9824934Y-16594222D02*
X9834458Y-16575174D01*
X9834458Y-16575174D02*
X9853505Y-16565650D01*
X9853505Y-16565650D02*
X9882077Y-16565650D01*
X9882077Y-16565650D02*
X9901125Y-16575174D01*
X9901125Y-16575174D02*
X9910648Y-16594222D01*
X9910648Y-16594222D02*
X9910648Y-16698984D01*
X10005886Y-16698984D02*
X10005886Y-16565650D01*
X10005886Y-16584698D02*
X10015410Y-16575174D01*
X10015410Y-16575174D02*
X10034458Y-16565650D01*
X10034458Y-16565650D02*
X10063029Y-16565650D01*
X10063029Y-16565650D02*
X10082077Y-16575174D01*
X10082077Y-16575174D02*
X10091601Y-16594222D01*
X10091601Y-16594222D02*
X10091601Y-16698984D01*
X10091601Y-16594222D02*
X10101125Y-16575174D01*
X10101125Y-16575174D02*
X10120172Y-16565650D01*
X10120172Y-16565650D02*
X10148744Y-16565650D01*
X10148744Y-16565650D02*
X10167791Y-16575174D01*
X10167791Y-16575174D02*
X10177315Y-16594222D01*
X10177315Y-16594222D02*
X10177315Y-16698984D01*
X10567791Y-16489460D02*
X10396363Y-16746603D01*
X10824934Y-16498984D02*
X10843982Y-16498984D01*
X10843982Y-16498984D02*
X10863029Y-16508508D01*
X10863029Y-16508508D02*
X10872553Y-16518031D01*
X10872553Y-16518031D02*
X10882077Y-16537079D01*
X10882077Y-16537079D02*
X10891601Y-16575174D01*
X10891601Y-16575174D02*
X10891601Y-16622793D01*
X10891601Y-16622793D02*
X10882077Y-16660888D01*
X10882077Y-16660888D02*
X10872553Y-16679936D01*
X10872553Y-16679936D02*
X10863029Y-16689460D01*
X10863029Y-16689460D02*
X10843982Y-16698984D01*
X10843982Y-16698984D02*
X10824934Y-16698984D01*
X10824934Y-16698984D02*
X10805887Y-16689460D01*
X10805887Y-16689460D02*
X10796363Y-16679936D01*
X10796363Y-16679936D02*
X10786839Y-16660888D01*
X10786839Y-16660888D02*
X10777315Y-16622793D01*
X10777315Y-16622793D02*
X10777315Y-16575174D01*
X10777315Y-16575174D02*
X10786839Y-16537079D01*
X10786839Y-16537079D02*
X10796363Y-16518031D01*
X10796363Y-16518031D02*
X10805887Y-16508508D01*
X10805887Y-16508508D02*
X10824934Y-16498984D01*
X10977315Y-16679936D02*
X10986839Y-16689460D01*
X10986839Y-16689460D02*
X10977315Y-16698984D01*
X10977315Y-16698984D02*
X10967791Y-16689460D01*
X10967791Y-16689460D02*
X10977315Y-16679936D01*
X10977315Y-16679936D02*
X10977315Y-16698984D01*
X11110648Y-16498984D02*
X11129696Y-16498984D01*
X11129696Y-16498984D02*
X11148744Y-16508508D01*
X11148744Y-16508508D02*
X11158268Y-16518031D01*
X11158268Y-16518031D02*
X11167791Y-16537079D01*
X11167791Y-16537079D02*
X11177315Y-16575174D01*
X11177315Y-16575174D02*
X11177315Y-16622793D01*
X11177315Y-16622793D02*
X11167791Y-16660888D01*
X11167791Y-16660888D02*
X11158268Y-16679936D01*
X11158268Y-16679936D02*
X11148744Y-16689460D01*
X11148744Y-16689460D02*
X11129696Y-16698984D01*
X11129696Y-16698984D02*
X11110648Y-16698984D01*
X11110648Y-16698984D02*
X11091601Y-16689460D01*
X11091601Y-16689460D02*
X11082077Y-16679936D01*
X11082077Y-16679936D02*
X11072553Y-16660888D01*
X11072553Y-16660888D02*
X11063029Y-16622793D01*
X11063029Y-16622793D02*
X11063029Y-16575174D01*
X11063029Y-16575174D02*
X11072553Y-16537079D01*
X11072553Y-16537079D02*
X11082077Y-16518031D01*
X11082077Y-16518031D02*
X11091601Y-16508508D01*
X11091601Y-16508508D02*
X11110648Y-16498984D01*
X11243982Y-16498984D02*
X11367791Y-16498984D01*
X11367791Y-16498984D02*
X11301125Y-16575174D01*
X11301125Y-16575174D02*
X11329696Y-16575174D01*
X11329696Y-16575174D02*
X11348744Y-16584698D01*
X11348744Y-16584698D02*
X11358267Y-16594222D01*
X11358267Y-16594222D02*
X11367791Y-16613269D01*
X11367791Y-16613269D02*
X11367791Y-16660888D01*
X11367791Y-16660888D02*
X11358267Y-16679936D01*
X11358267Y-16679936D02*
X11348744Y-16689460D01*
X11348744Y-16689460D02*
X11329696Y-16698984D01*
X11329696Y-16698984D02*
X11272553Y-16698984D01*
X11272553Y-16698984D02*
X11253506Y-16689460D01*
X11253506Y-16689460D02*
X11243982Y-16679936D01*
X11558267Y-16698984D02*
X11443982Y-16698984D01*
X11501125Y-16698984D02*
X11501125Y-16498984D01*
X11501125Y-16498984D02*
X11482077Y-16527555D01*
X11482077Y-16527555D02*
X11463029Y-16546603D01*
X11463029Y-16546603D02*
X11443982Y-16556127D01*
X11739220Y-16498984D02*
X11643982Y-16498984D01*
X11643982Y-16498984D02*
X11634458Y-16594222D01*
X11634458Y-16594222D02*
X11643982Y-16584698D01*
X11643982Y-16584698D02*
X11663029Y-16575174D01*
X11663029Y-16575174D02*
X11710648Y-16575174D01*
X11710648Y-16575174D02*
X11729696Y-16584698D01*
X11729696Y-16584698D02*
X11739220Y-16594222D01*
X11739220Y-16594222D02*
X11748744Y-16613269D01*
X11748744Y-16613269D02*
X11748744Y-16660888D01*
X11748744Y-16660888D02*
X11739220Y-16679936D01*
X11739220Y-16679936D02*
X11729696Y-16689460D01*
X11729696Y-16689460D02*
X11710648Y-16698984D01*
X11710648Y-16698984D02*
X11663029Y-16698984D01*
X11663029Y-16698984D02*
X11643982Y-16689460D01*
X11643982Y-16689460D02*
X11634458Y-16679936D01*
X11824934Y-16498984D02*
X11824934Y-16537079D01*
X11901125Y-16498984D02*
X11901125Y-16537079D01*
X12196363Y-16775174D02*
X12186839Y-16765650D01*
X12186839Y-16765650D02*
X12167791Y-16737079D01*
X12167791Y-16737079D02*
X12158268Y-16718031D01*
X12158268Y-16718031D02*
X12148744Y-16689460D01*
X12148744Y-16689460D02*
X12139220Y-16641841D01*
X12139220Y-16641841D02*
X12139220Y-16603746D01*
X12139220Y-16603746D02*
X12148744Y-16556127D01*
X12148744Y-16556127D02*
X12158268Y-16527555D01*
X12158268Y-16527555D02*
X12167791Y-16508508D01*
X12167791Y-16508508D02*
X12186839Y-16479936D01*
X12186839Y-16479936D02*
X12196363Y-16470412D01*
X12263029Y-16518031D02*
X12272553Y-16508508D01*
X12272553Y-16508508D02*
X12291601Y-16498984D01*
X12291601Y-16498984D02*
X12339220Y-16498984D01*
X12339220Y-16498984D02*
X12358268Y-16508508D01*
X12358268Y-16508508D02*
X12367791Y-16518031D01*
X12367791Y-16518031D02*
X12377315Y-16537079D01*
X12377315Y-16537079D02*
X12377315Y-16556127D01*
X12377315Y-16556127D02*
X12367791Y-16584698D01*
X12367791Y-16584698D02*
X12253506Y-16698984D01*
X12253506Y-16698984D02*
X12377315Y-16698984D01*
X12548744Y-16565650D02*
X12548744Y-16698984D01*
X12501125Y-16489460D02*
X12453506Y-16632317D01*
X12453506Y-16632317D02*
X12577315Y-16632317D01*
X12805887Y-16698984D02*
X12805887Y-16498984D01*
X12891601Y-16698984D02*
X12891601Y-16594222D01*
X12891601Y-16594222D02*
X12882077Y-16575174D01*
X12882077Y-16575174D02*
X12863030Y-16565650D01*
X12863030Y-16565650D02*
X12834458Y-16565650D01*
X12834458Y-16565650D02*
X12815410Y-16575174D01*
X12815410Y-16575174D02*
X12805887Y-16584698D01*
X13015410Y-16698984D02*
X12996363Y-16689460D01*
X12996363Y-16689460D02*
X12986839Y-16679936D01*
X12986839Y-16679936D02*
X12977315Y-16660888D01*
X12977315Y-16660888D02*
X12977315Y-16603746D01*
X12977315Y-16603746D02*
X12986839Y-16584698D01*
X12986839Y-16584698D02*
X12996363Y-16575174D01*
X12996363Y-16575174D02*
X13015410Y-16565650D01*
X13015410Y-16565650D02*
X13043982Y-16565650D01*
X13043982Y-16565650D02*
X13063030Y-16575174D01*
X13063030Y-16575174D02*
X13072553Y-16584698D01*
X13072553Y-16584698D02*
X13082077Y-16603746D01*
X13082077Y-16603746D02*
X13082077Y-16660888D01*
X13082077Y-16660888D02*
X13072553Y-16679936D01*
X13072553Y-16679936D02*
X13063030Y-16689460D01*
X13063030Y-16689460D02*
X13043982Y-16698984D01*
X13043982Y-16698984D02*
X13015410Y-16698984D01*
X13196363Y-16698984D02*
X13177315Y-16689460D01*
X13177315Y-16689460D02*
X13167791Y-16670412D01*
X13167791Y-16670412D02*
X13167791Y-16498984D01*
X13348744Y-16689460D02*
X13329696Y-16698984D01*
X13329696Y-16698984D02*
X13291601Y-16698984D01*
X13291601Y-16698984D02*
X13272553Y-16689460D01*
X13272553Y-16689460D02*
X13263030Y-16670412D01*
X13263030Y-16670412D02*
X13263030Y-16594222D01*
X13263030Y-16594222D02*
X13272553Y-16575174D01*
X13272553Y-16575174D02*
X13291601Y-16565650D01*
X13291601Y-16565650D02*
X13329696Y-16565650D01*
X13329696Y-16565650D02*
X13348744Y-16575174D01*
X13348744Y-16575174D02*
X13358268Y-16594222D01*
X13358268Y-16594222D02*
X13358268Y-16613269D01*
X13358268Y-16613269D02*
X13263030Y-16632317D01*
X13434458Y-16689460D02*
X13453506Y-16698984D01*
X13453506Y-16698984D02*
X13491601Y-16698984D01*
X13491601Y-16698984D02*
X13510649Y-16689460D01*
X13510649Y-16689460D02*
X13520172Y-16670412D01*
X13520172Y-16670412D02*
X13520172Y-16660888D01*
X13520172Y-16660888D02*
X13510649Y-16641841D01*
X13510649Y-16641841D02*
X13491601Y-16632317D01*
X13491601Y-16632317D02*
X13463030Y-16632317D01*
X13463030Y-16632317D02*
X13443982Y-16622793D01*
X13443982Y-16622793D02*
X13434458Y-16603746D01*
X13434458Y-16603746D02*
X13434458Y-16594222D01*
X13434458Y-16594222D02*
X13443982Y-16575174D01*
X13443982Y-16575174D02*
X13463030Y-16565650D01*
X13463030Y-16565650D02*
X13491601Y-16565650D01*
X13491601Y-16565650D02*
X13510649Y-16575174D01*
X13586839Y-16775174D02*
X13596363Y-16765650D01*
X13596363Y-16765650D02*
X13615411Y-16737079D01*
X13615411Y-16737079D02*
X13624934Y-16718031D01*
X13624934Y-16718031D02*
X13634458Y-16689460D01*
X13634458Y-16689460D02*
X13643982Y-16641841D01*
X13643982Y-16641841D02*
X13643982Y-16603746D01*
X13643982Y-16603746D02*
X13634458Y-16556127D01*
X13634458Y-16556127D02*
X13624934Y-16527555D01*
X13624934Y-16527555D02*
X13615411Y-16508508D01*
X13615411Y-16508508D02*
X13596363Y-16479936D01*
X13596363Y-16479936D02*
X13586839Y-16470412D01*
D12*
X8573800Y-16824000D02*
X8573800Y-16919000D01*
X8526300Y-16871500D02*
X8621300Y-16871500D01*
D11*
X8920172Y-16762984D02*
X8939220Y-16762984D01*
X8939220Y-16762984D02*
X8958267Y-16772508D01*
X8958267Y-16772508D02*
X8967791Y-16782031D01*
X8967791Y-16782031D02*
X8977315Y-16801079D01*
X8977315Y-16801079D02*
X8986839Y-16839174D01*
X8986839Y-16839174D02*
X8986839Y-16886793D01*
X8986839Y-16886793D02*
X8977315Y-16924889D01*
X8977315Y-16924889D02*
X8967791Y-16943936D01*
X8967791Y-16943936D02*
X8958267Y-16953460D01*
X8958267Y-16953460D02*
X8939220Y-16962984D01*
X8939220Y-16962984D02*
X8920172Y-16962984D01*
X8920172Y-16962984D02*
X8901124Y-16953460D01*
X8901124Y-16953460D02*
X8891601Y-16943936D01*
X8891601Y-16943936D02*
X8882077Y-16924889D01*
X8882077Y-16924889D02*
X8872553Y-16886793D01*
X8872553Y-16886793D02*
X8872553Y-16839174D01*
X8872553Y-16839174D02*
X8882077Y-16801079D01*
X8882077Y-16801079D02*
X8891601Y-16782031D01*
X8891601Y-16782031D02*
X8901124Y-16772508D01*
X8901124Y-16772508D02*
X8920172Y-16762984D01*
X9072553Y-16943936D02*
X9082077Y-16953460D01*
X9082077Y-16953460D02*
X9072553Y-16962984D01*
X9072553Y-16962984D02*
X9063029Y-16953460D01*
X9063029Y-16953460D02*
X9072553Y-16943936D01*
X9072553Y-16943936D02*
X9072553Y-16962984D01*
X9177315Y-16962984D02*
X9215410Y-16962984D01*
X9215410Y-16962984D02*
X9234458Y-16953460D01*
X9234458Y-16953460D02*
X9243982Y-16943936D01*
X9243982Y-16943936D02*
X9263029Y-16915365D01*
X9263029Y-16915365D02*
X9272553Y-16877270D01*
X9272553Y-16877270D02*
X9272553Y-16801079D01*
X9272553Y-16801079D02*
X9263029Y-16782031D01*
X9263029Y-16782031D02*
X9253505Y-16772508D01*
X9253505Y-16772508D02*
X9234458Y-16762984D01*
X9234458Y-16762984D02*
X9196363Y-16762984D01*
X9196363Y-16762984D02*
X9177315Y-16772508D01*
X9177315Y-16772508D02*
X9167791Y-16782031D01*
X9167791Y-16782031D02*
X9158267Y-16801079D01*
X9158267Y-16801079D02*
X9158267Y-16848698D01*
X9158267Y-16848698D02*
X9167791Y-16867746D01*
X9167791Y-16867746D02*
X9177315Y-16877270D01*
X9177315Y-16877270D02*
X9196363Y-16886793D01*
X9196363Y-16886793D02*
X9234458Y-16886793D01*
X9234458Y-16886793D02*
X9253505Y-16877270D01*
X9253505Y-16877270D02*
X9263029Y-16867746D01*
X9263029Y-16867746D02*
X9272553Y-16848698D01*
X9453505Y-16762984D02*
X9358267Y-16762984D01*
X9358267Y-16762984D02*
X9348744Y-16858222D01*
X9348744Y-16858222D02*
X9358267Y-16848698D01*
X9358267Y-16848698D02*
X9377315Y-16839174D01*
X9377315Y-16839174D02*
X9424934Y-16839174D01*
X9424934Y-16839174D02*
X9443982Y-16848698D01*
X9443982Y-16848698D02*
X9453505Y-16858222D01*
X9453505Y-16858222D02*
X9463029Y-16877270D01*
X9463029Y-16877270D02*
X9463029Y-16924889D01*
X9463029Y-16924889D02*
X9453505Y-16943936D01*
X9453505Y-16943936D02*
X9443982Y-16953460D01*
X9443982Y-16953460D02*
X9424934Y-16962984D01*
X9424934Y-16962984D02*
X9377315Y-16962984D01*
X9377315Y-16962984D02*
X9358267Y-16953460D01*
X9358267Y-16953460D02*
X9348744Y-16943936D01*
X9586839Y-16762984D02*
X9605886Y-16762984D01*
X9605886Y-16762984D02*
X9624934Y-16772508D01*
X9624934Y-16772508D02*
X9634458Y-16782031D01*
X9634458Y-16782031D02*
X9643982Y-16801079D01*
X9643982Y-16801079D02*
X9653505Y-16839174D01*
X9653505Y-16839174D02*
X9653505Y-16886793D01*
X9653505Y-16886793D02*
X9643982Y-16924889D01*
X9643982Y-16924889D02*
X9634458Y-16943936D01*
X9634458Y-16943936D02*
X9624934Y-16953460D01*
X9624934Y-16953460D02*
X9605886Y-16962984D01*
X9605886Y-16962984D02*
X9586839Y-16962984D01*
X9586839Y-16962984D02*
X9567791Y-16953460D01*
X9567791Y-16953460D02*
X9558267Y-16943936D01*
X9558267Y-16943936D02*
X9548744Y-16924889D01*
X9548744Y-16924889D02*
X9539220Y-16886793D01*
X9539220Y-16886793D02*
X9539220Y-16839174D01*
X9539220Y-16839174D02*
X9548744Y-16801079D01*
X9548744Y-16801079D02*
X9558267Y-16782031D01*
X9558267Y-16782031D02*
X9567791Y-16772508D01*
X9567791Y-16772508D02*
X9586839Y-16762984D01*
X9739220Y-16962984D02*
X9739220Y-16829650D01*
X9739220Y-16848698D02*
X9748744Y-16839174D01*
X9748744Y-16839174D02*
X9767791Y-16829650D01*
X9767791Y-16829650D02*
X9796363Y-16829650D01*
X9796363Y-16829650D02*
X9815410Y-16839174D01*
X9815410Y-16839174D02*
X9824934Y-16858222D01*
X9824934Y-16858222D02*
X9824934Y-16962984D01*
X9824934Y-16858222D02*
X9834458Y-16839174D01*
X9834458Y-16839174D02*
X9853505Y-16829650D01*
X9853505Y-16829650D02*
X9882077Y-16829650D01*
X9882077Y-16829650D02*
X9901125Y-16839174D01*
X9901125Y-16839174D02*
X9910648Y-16858222D01*
X9910648Y-16858222D02*
X9910648Y-16962984D01*
X10005886Y-16962984D02*
X10005886Y-16829650D01*
X10005886Y-16848698D02*
X10015410Y-16839174D01*
X10015410Y-16839174D02*
X10034458Y-16829650D01*
X10034458Y-16829650D02*
X10063029Y-16829650D01*
X10063029Y-16829650D02*
X10082077Y-16839174D01*
X10082077Y-16839174D02*
X10091601Y-16858222D01*
X10091601Y-16858222D02*
X10091601Y-16962984D01*
X10091601Y-16858222D02*
X10101125Y-16839174D01*
X10101125Y-16839174D02*
X10120172Y-16829650D01*
X10120172Y-16829650D02*
X10148744Y-16829650D01*
X10148744Y-16829650D02*
X10167791Y-16839174D01*
X10167791Y-16839174D02*
X10177315Y-16858222D01*
X10177315Y-16858222D02*
X10177315Y-16962984D01*
X10567791Y-16753460D02*
X10396363Y-17010603D01*
X10824934Y-16762984D02*
X10843982Y-16762984D01*
X10843982Y-16762984D02*
X10863029Y-16772508D01*
X10863029Y-16772508D02*
X10872553Y-16782031D01*
X10872553Y-16782031D02*
X10882077Y-16801079D01*
X10882077Y-16801079D02*
X10891601Y-16839174D01*
X10891601Y-16839174D02*
X10891601Y-16886793D01*
X10891601Y-16886793D02*
X10882077Y-16924889D01*
X10882077Y-16924889D02*
X10872553Y-16943936D01*
X10872553Y-16943936D02*
X10863029Y-16953460D01*
X10863029Y-16953460D02*
X10843982Y-16962984D01*
X10843982Y-16962984D02*
X10824934Y-16962984D01*
X10824934Y-16962984D02*
X10805887Y-16953460D01*
X10805887Y-16953460D02*
X10796363Y-16943936D01*
X10796363Y-16943936D02*
X10786839Y-16924889D01*
X10786839Y-16924889D02*
X10777315Y-16886793D01*
X10777315Y-16886793D02*
X10777315Y-16839174D01*
X10777315Y-16839174D02*
X10786839Y-16801079D01*
X10786839Y-16801079D02*
X10796363Y-16782031D01*
X10796363Y-16782031D02*
X10805887Y-16772508D01*
X10805887Y-16772508D02*
X10824934Y-16762984D01*
X10977315Y-16943936D02*
X10986839Y-16953460D01*
X10986839Y-16953460D02*
X10977315Y-16962984D01*
X10977315Y-16962984D02*
X10967791Y-16953460D01*
X10967791Y-16953460D02*
X10977315Y-16943936D01*
X10977315Y-16943936D02*
X10977315Y-16962984D01*
X11110648Y-16762984D02*
X11129696Y-16762984D01*
X11129696Y-16762984D02*
X11148744Y-16772508D01*
X11148744Y-16772508D02*
X11158268Y-16782031D01*
X11158268Y-16782031D02*
X11167791Y-16801079D01*
X11167791Y-16801079D02*
X11177315Y-16839174D01*
X11177315Y-16839174D02*
X11177315Y-16886793D01*
X11177315Y-16886793D02*
X11167791Y-16924889D01*
X11167791Y-16924889D02*
X11158268Y-16943936D01*
X11158268Y-16943936D02*
X11148744Y-16953460D01*
X11148744Y-16953460D02*
X11129696Y-16962984D01*
X11129696Y-16962984D02*
X11110648Y-16962984D01*
X11110648Y-16962984D02*
X11091601Y-16953460D01*
X11091601Y-16953460D02*
X11082077Y-16943936D01*
X11082077Y-16943936D02*
X11072553Y-16924889D01*
X11072553Y-16924889D02*
X11063029Y-16886793D01*
X11063029Y-16886793D02*
X11063029Y-16839174D01*
X11063029Y-16839174D02*
X11072553Y-16801079D01*
X11072553Y-16801079D02*
X11082077Y-16782031D01*
X11082077Y-16782031D02*
X11091601Y-16772508D01*
X11091601Y-16772508D02*
X11110648Y-16762984D01*
X11243982Y-16762984D02*
X11367791Y-16762984D01*
X11367791Y-16762984D02*
X11301125Y-16839174D01*
X11301125Y-16839174D02*
X11329696Y-16839174D01*
X11329696Y-16839174D02*
X11348744Y-16848698D01*
X11348744Y-16848698D02*
X11358267Y-16858222D01*
X11358267Y-16858222D02*
X11367791Y-16877270D01*
X11367791Y-16877270D02*
X11367791Y-16924889D01*
X11367791Y-16924889D02*
X11358267Y-16943936D01*
X11358267Y-16943936D02*
X11348744Y-16953460D01*
X11348744Y-16953460D02*
X11329696Y-16962984D01*
X11329696Y-16962984D02*
X11272553Y-16962984D01*
X11272553Y-16962984D02*
X11253506Y-16953460D01*
X11253506Y-16953460D02*
X11243982Y-16943936D01*
X11434458Y-16762984D02*
X11567791Y-16762984D01*
X11567791Y-16762984D02*
X11482077Y-16962984D01*
X11729696Y-16829650D02*
X11729696Y-16962984D01*
X11682077Y-16753460D02*
X11634458Y-16896317D01*
X11634458Y-16896317D02*
X11758267Y-16896317D01*
X11824934Y-16762984D02*
X11824934Y-16801079D01*
X11901125Y-16762984D02*
X11901125Y-16801079D01*
X12196363Y-17039174D02*
X12186839Y-17029650D01*
X12186839Y-17029650D02*
X12167791Y-17001079D01*
X12167791Y-17001079D02*
X12158268Y-16982031D01*
X12158268Y-16982031D02*
X12148744Y-16953460D01*
X12148744Y-16953460D02*
X12139220Y-16905841D01*
X12139220Y-16905841D02*
X12139220Y-16867746D01*
X12139220Y-16867746D02*
X12148744Y-16820127D01*
X12148744Y-16820127D02*
X12158268Y-16791555D01*
X12158268Y-16791555D02*
X12167791Y-16772508D01*
X12167791Y-16772508D02*
X12186839Y-16743936D01*
X12186839Y-16743936D02*
X12196363Y-16734412D01*
X12263029Y-16782031D02*
X12272553Y-16772508D01*
X12272553Y-16772508D02*
X12291601Y-16762984D01*
X12291601Y-16762984D02*
X12339220Y-16762984D01*
X12339220Y-16762984D02*
X12358268Y-16772508D01*
X12358268Y-16772508D02*
X12367791Y-16782031D01*
X12367791Y-16782031D02*
X12377315Y-16801079D01*
X12377315Y-16801079D02*
X12377315Y-16820127D01*
X12377315Y-16820127D02*
X12367791Y-16848698D01*
X12367791Y-16848698D02*
X12253506Y-16962984D01*
X12253506Y-16962984D02*
X12377315Y-16962984D01*
X12548744Y-16829650D02*
X12548744Y-16962984D01*
X12501125Y-16753460D02*
X12453506Y-16896317D01*
X12453506Y-16896317D02*
X12577315Y-16896317D01*
X12805887Y-16962984D02*
X12805887Y-16762984D01*
X12891601Y-16962984D02*
X12891601Y-16858222D01*
X12891601Y-16858222D02*
X12882077Y-16839174D01*
X12882077Y-16839174D02*
X12863030Y-16829650D01*
X12863030Y-16829650D02*
X12834458Y-16829650D01*
X12834458Y-16829650D02*
X12815410Y-16839174D01*
X12815410Y-16839174D02*
X12805887Y-16848698D01*
X13015410Y-16962984D02*
X12996363Y-16953460D01*
X12996363Y-16953460D02*
X12986839Y-16943936D01*
X12986839Y-16943936D02*
X12977315Y-16924889D01*
X12977315Y-16924889D02*
X12977315Y-16867746D01*
X12977315Y-16867746D02*
X12986839Y-16848698D01*
X12986839Y-16848698D02*
X12996363Y-16839174D01*
X12996363Y-16839174D02*
X13015410Y-16829650D01*
X13015410Y-16829650D02*
X13043982Y-16829650D01*
X13043982Y-16829650D02*
X13063030Y-16839174D01*
X13063030Y-16839174D02*
X13072553Y-16848698D01*
X13072553Y-16848698D02*
X13082077Y-16867746D01*
X13082077Y-16867746D02*
X13082077Y-16924889D01*
X13082077Y-16924889D02*
X13072553Y-16943936D01*
X13072553Y-16943936D02*
X13063030Y-16953460D01*
X13063030Y-16953460D02*
X13043982Y-16962984D01*
X13043982Y-16962984D02*
X13015410Y-16962984D01*
X13196363Y-16962984D02*
X13177315Y-16953460D01*
X13177315Y-16953460D02*
X13167791Y-16934412D01*
X13167791Y-16934412D02*
X13167791Y-16762984D01*
X13348744Y-16953460D02*
X13329696Y-16962984D01*
X13329696Y-16962984D02*
X13291601Y-16962984D01*
X13291601Y-16962984D02*
X13272553Y-16953460D01*
X13272553Y-16953460D02*
X13263030Y-16934412D01*
X13263030Y-16934412D02*
X13263030Y-16858222D01*
X13263030Y-16858222D02*
X13272553Y-16839174D01*
X13272553Y-16839174D02*
X13291601Y-16829650D01*
X13291601Y-16829650D02*
X13329696Y-16829650D01*
X13329696Y-16829650D02*
X13348744Y-16839174D01*
X13348744Y-16839174D02*
X13358268Y-16858222D01*
X13358268Y-16858222D02*
X13358268Y-16877270D01*
X13358268Y-16877270D02*
X13263030Y-16896317D01*
X13434458Y-16953460D02*
X13453506Y-16962984D01*
X13453506Y-16962984D02*
X13491601Y-16962984D01*
X13491601Y-16962984D02*
X13510649Y-16953460D01*
X13510649Y-16953460D02*
X13520172Y-16934412D01*
X13520172Y-16934412D02*
X13520172Y-16924889D01*
X13520172Y-16924889D02*
X13510649Y-16905841D01*
X13510649Y-16905841D02*
X13491601Y-16896317D01*
X13491601Y-16896317D02*
X13463030Y-16896317D01*
X13463030Y-16896317D02*
X13443982Y-16886793D01*
X13443982Y-16886793D02*
X13434458Y-16867746D01*
X13434458Y-16867746D02*
X13434458Y-16858222D01*
X13434458Y-16858222D02*
X13443982Y-16839174D01*
X13443982Y-16839174D02*
X13463030Y-16829650D01*
X13463030Y-16829650D02*
X13491601Y-16829650D01*
X13491601Y-16829650D02*
X13510649Y-16839174D01*
X13586839Y-17039174D02*
X13596363Y-17029650D01*
X13596363Y-17029650D02*
X13615411Y-17001079D01*
X13615411Y-17001079D02*
X13624934Y-16982031D01*
X13624934Y-16982031D02*
X13634458Y-16953460D01*
X13634458Y-16953460D02*
X13643982Y-16905841D01*
X13643982Y-16905841D02*
X13643982Y-16867746D01*
X13643982Y-16867746D02*
X13634458Y-16820127D01*
X13634458Y-16820127D02*
X13624934Y-16791555D01*
X13624934Y-16791555D02*
X13615411Y-16772508D01*
X13615411Y-16772508D02*
X13596363Y-16743936D01*
X13596363Y-16743936D02*
X13586839Y-16734412D01*
D12*
X8606656Y-17170856D02*
X8606656Y-17100144D01*
X8535944Y-17100144D01*
X8535944Y-17170856D01*
X8606656Y-17170856D01*
D11*
X8986839Y-17226984D02*
X8872553Y-17226984D01*
X8929696Y-17226984D02*
X8929696Y-17026984D01*
X8929696Y-17026984D02*
X8910648Y-17055555D01*
X8910648Y-17055555D02*
X8891601Y-17074603D01*
X8891601Y-17074603D02*
X8872553Y-17084127D01*
X9072553Y-17207936D02*
X9082077Y-17217460D01*
X9082077Y-17217460D02*
X9072553Y-17226984D01*
X9072553Y-17226984D02*
X9063029Y-17217460D01*
X9063029Y-17217460D02*
X9072553Y-17207936D01*
X9072553Y-17207936D02*
X9072553Y-17226984D01*
X9205886Y-17026984D02*
X9224934Y-17026984D01*
X9224934Y-17026984D02*
X9243982Y-17036508D01*
X9243982Y-17036508D02*
X9253505Y-17046031D01*
X9253505Y-17046031D02*
X9263029Y-17065079D01*
X9263029Y-17065079D02*
X9272553Y-17103174D01*
X9272553Y-17103174D02*
X9272553Y-17150793D01*
X9272553Y-17150793D02*
X9263029Y-17188889D01*
X9263029Y-17188889D02*
X9253505Y-17207936D01*
X9253505Y-17207936D02*
X9243982Y-17217460D01*
X9243982Y-17217460D02*
X9224934Y-17226984D01*
X9224934Y-17226984D02*
X9205886Y-17226984D01*
X9205886Y-17226984D02*
X9186839Y-17217460D01*
X9186839Y-17217460D02*
X9177315Y-17207936D01*
X9177315Y-17207936D02*
X9167791Y-17188889D01*
X9167791Y-17188889D02*
X9158267Y-17150793D01*
X9158267Y-17150793D02*
X9158267Y-17103174D01*
X9158267Y-17103174D02*
X9167791Y-17065079D01*
X9167791Y-17065079D02*
X9177315Y-17046031D01*
X9177315Y-17046031D02*
X9186839Y-17036508D01*
X9186839Y-17036508D02*
X9205886Y-17026984D01*
X9396363Y-17026984D02*
X9415410Y-17026984D01*
X9415410Y-17026984D02*
X9434458Y-17036508D01*
X9434458Y-17036508D02*
X9443982Y-17046031D01*
X9443982Y-17046031D02*
X9453505Y-17065079D01*
X9453505Y-17065079D02*
X9463029Y-17103174D01*
X9463029Y-17103174D02*
X9463029Y-17150793D01*
X9463029Y-17150793D02*
X9453505Y-17188889D01*
X9453505Y-17188889D02*
X9443982Y-17207936D01*
X9443982Y-17207936D02*
X9434458Y-17217460D01*
X9434458Y-17217460D02*
X9415410Y-17226984D01*
X9415410Y-17226984D02*
X9396363Y-17226984D01*
X9396363Y-17226984D02*
X9377315Y-17217460D01*
X9377315Y-17217460D02*
X9367791Y-17207936D01*
X9367791Y-17207936D02*
X9358267Y-17188889D01*
X9358267Y-17188889D02*
X9348744Y-17150793D01*
X9348744Y-17150793D02*
X9348744Y-17103174D01*
X9348744Y-17103174D02*
X9358267Y-17065079D01*
X9358267Y-17065079D02*
X9367791Y-17046031D01*
X9367791Y-17046031D02*
X9377315Y-17036508D01*
X9377315Y-17036508D02*
X9396363Y-17026984D01*
X9586839Y-17026984D02*
X9605886Y-17026984D01*
X9605886Y-17026984D02*
X9624934Y-17036508D01*
X9624934Y-17036508D02*
X9634458Y-17046031D01*
X9634458Y-17046031D02*
X9643982Y-17065079D01*
X9643982Y-17065079D02*
X9653505Y-17103174D01*
X9653505Y-17103174D02*
X9653505Y-17150793D01*
X9653505Y-17150793D02*
X9643982Y-17188889D01*
X9643982Y-17188889D02*
X9634458Y-17207936D01*
X9634458Y-17207936D02*
X9624934Y-17217460D01*
X9624934Y-17217460D02*
X9605886Y-17226984D01*
X9605886Y-17226984D02*
X9586839Y-17226984D01*
X9586839Y-17226984D02*
X9567791Y-17217460D01*
X9567791Y-17217460D02*
X9558267Y-17207936D01*
X9558267Y-17207936D02*
X9548744Y-17188889D01*
X9548744Y-17188889D02*
X9539220Y-17150793D01*
X9539220Y-17150793D02*
X9539220Y-17103174D01*
X9539220Y-17103174D02*
X9548744Y-17065079D01*
X9548744Y-17065079D02*
X9558267Y-17046031D01*
X9558267Y-17046031D02*
X9567791Y-17036508D01*
X9567791Y-17036508D02*
X9586839Y-17026984D01*
X9739220Y-17226984D02*
X9739220Y-17093650D01*
X9739220Y-17112698D02*
X9748744Y-17103174D01*
X9748744Y-17103174D02*
X9767791Y-17093650D01*
X9767791Y-17093650D02*
X9796363Y-17093650D01*
X9796363Y-17093650D02*
X9815410Y-17103174D01*
X9815410Y-17103174D02*
X9824934Y-17122222D01*
X9824934Y-17122222D02*
X9824934Y-17226984D01*
X9824934Y-17122222D02*
X9834458Y-17103174D01*
X9834458Y-17103174D02*
X9853505Y-17093650D01*
X9853505Y-17093650D02*
X9882077Y-17093650D01*
X9882077Y-17093650D02*
X9901125Y-17103174D01*
X9901125Y-17103174D02*
X9910648Y-17122222D01*
X9910648Y-17122222D02*
X9910648Y-17226984D01*
X10005886Y-17226984D02*
X10005886Y-17093650D01*
X10005886Y-17112698D02*
X10015410Y-17103174D01*
X10015410Y-17103174D02*
X10034458Y-17093650D01*
X10034458Y-17093650D02*
X10063029Y-17093650D01*
X10063029Y-17093650D02*
X10082077Y-17103174D01*
X10082077Y-17103174D02*
X10091601Y-17122222D01*
X10091601Y-17122222D02*
X10091601Y-17226984D01*
X10091601Y-17122222D02*
X10101125Y-17103174D01*
X10101125Y-17103174D02*
X10120172Y-17093650D01*
X10120172Y-17093650D02*
X10148744Y-17093650D01*
X10148744Y-17093650D02*
X10167791Y-17103174D01*
X10167791Y-17103174D02*
X10177315Y-17122222D01*
X10177315Y-17122222D02*
X10177315Y-17226984D01*
X10567791Y-17017460D02*
X10396363Y-17274603D01*
X10824934Y-17026984D02*
X10843982Y-17026984D01*
X10843982Y-17026984D02*
X10863029Y-17036508D01*
X10863029Y-17036508D02*
X10872553Y-17046031D01*
X10872553Y-17046031D02*
X10882077Y-17065079D01*
X10882077Y-17065079D02*
X10891601Y-17103174D01*
X10891601Y-17103174D02*
X10891601Y-17150793D01*
X10891601Y-17150793D02*
X10882077Y-17188889D01*
X10882077Y-17188889D02*
X10872553Y-17207936D01*
X10872553Y-17207936D02*
X10863029Y-17217460D01*
X10863029Y-17217460D02*
X10843982Y-17226984D01*
X10843982Y-17226984D02*
X10824934Y-17226984D01*
X10824934Y-17226984D02*
X10805887Y-17217460D01*
X10805887Y-17217460D02*
X10796363Y-17207936D01*
X10796363Y-17207936D02*
X10786839Y-17188889D01*
X10786839Y-17188889D02*
X10777315Y-17150793D01*
X10777315Y-17150793D02*
X10777315Y-17103174D01*
X10777315Y-17103174D02*
X10786839Y-17065079D01*
X10786839Y-17065079D02*
X10796363Y-17046031D01*
X10796363Y-17046031D02*
X10805887Y-17036508D01*
X10805887Y-17036508D02*
X10824934Y-17026984D01*
X10977315Y-17207936D02*
X10986839Y-17217460D01*
X10986839Y-17217460D02*
X10977315Y-17226984D01*
X10977315Y-17226984D02*
X10967791Y-17217460D01*
X10967791Y-17217460D02*
X10977315Y-17207936D01*
X10977315Y-17207936D02*
X10977315Y-17226984D01*
X11110648Y-17026984D02*
X11129696Y-17026984D01*
X11129696Y-17026984D02*
X11148744Y-17036508D01*
X11148744Y-17036508D02*
X11158268Y-17046031D01*
X11158268Y-17046031D02*
X11167791Y-17065079D01*
X11167791Y-17065079D02*
X11177315Y-17103174D01*
X11177315Y-17103174D02*
X11177315Y-17150793D01*
X11177315Y-17150793D02*
X11167791Y-17188889D01*
X11167791Y-17188889D02*
X11158268Y-17207936D01*
X11158268Y-17207936D02*
X11148744Y-17217460D01*
X11148744Y-17217460D02*
X11129696Y-17226984D01*
X11129696Y-17226984D02*
X11110648Y-17226984D01*
X11110648Y-17226984D02*
X11091601Y-17217460D01*
X11091601Y-17217460D02*
X11082077Y-17207936D01*
X11082077Y-17207936D02*
X11072553Y-17188889D01*
X11072553Y-17188889D02*
X11063029Y-17150793D01*
X11063029Y-17150793D02*
X11063029Y-17103174D01*
X11063029Y-17103174D02*
X11072553Y-17065079D01*
X11072553Y-17065079D02*
X11082077Y-17046031D01*
X11082077Y-17046031D02*
X11091601Y-17036508D01*
X11091601Y-17036508D02*
X11110648Y-17026984D01*
X11243982Y-17026984D02*
X11367791Y-17026984D01*
X11367791Y-17026984D02*
X11301125Y-17103174D01*
X11301125Y-17103174D02*
X11329696Y-17103174D01*
X11329696Y-17103174D02*
X11348744Y-17112698D01*
X11348744Y-17112698D02*
X11358267Y-17122222D01*
X11358267Y-17122222D02*
X11367791Y-17141270D01*
X11367791Y-17141270D02*
X11367791Y-17188889D01*
X11367791Y-17188889D02*
X11358267Y-17207936D01*
X11358267Y-17207936D02*
X11348744Y-17217460D01*
X11348744Y-17217460D02*
X11329696Y-17226984D01*
X11329696Y-17226984D02*
X11272553Y-17226984D01*
X11272553Y-17226984D02*
X11253506Y-17217460D01*
X11253506Y-17217460D02*
X11243982Y-17207936D01*
X11463029Y-17226984D02*
X11501125Y-17226984D01*
X11501125Y-17226984D02*
X11520172Y-17217460D01*
X11520172Y-17217460D02*
X11529696Y-17207936D01*
X11529696Y-17207936D02*
X11548744Y-17179365D01*
X11548744Y-17179365D02*
X11558267Y-17141270D01*
X11558267Y-17141270D02*
X11558267Y-17065079D01*
X11558267Y-17065079D02*
X11548744Y-17046031D01*
X11548744Y-17046031D02*
X11539220Y-17036508D01*
X11539220Y-17036508D02*
X11520172Y-17026984D01*
X11520172Y-17026984D02*
X11482077Y-17026984D01*
X11482077Y-17026984D02*
X11463029Y-17036508D01*
X11463029Y-17036508D02*
X11453506Y-17046031D01*
X11453506Y-17046031D02*
X11443982Y-17065079D01*
X11443982Y-17065079D02*
X11443982Y-17112698D01*
X11443982Y-17112698D02*
X11453506Y-17131746D01*
X11453506Y-17131746D02*
X11463029Y-17141270D01*
X11463029Y-17141270D02*
X11482077Y-17150793D01*
X11482077Y-17150793D02*
X11520172Y-17150793D01*
X11520172Y-17150793D02*
X11539220Y-17141270D01*
X11539220Y-17141270D02*
X11548744Y-17131746D01*
X11548744Y-17131746D02*
X11558267Y-17112698D01*
X11729696Y-17093650D02*
X11729696Y-17226984D01*
X11682077Y-17017460D02*
X11634458Y-17160317D01*
X11634458Y-17160317D02*
X11758267Y-17160317D01*
X11824934Y-17026984D02*
X11824934Y-17065079D01*
X11901125Y-17026984D02*
X11901125Y-17065079D01*
X12196363Y-17303174D02*
X12186839Y-17293650D01*
X12186839Y-17293650D02*
X12167791Y-17265079D01*
X12167791Y-17265079D02*
X12158268Y-17246031D01*
X12158268Y-17246031D02*
X12148744Y-17217460D01*
X12148744Y-17217460D02*
X12139220Y-17169841D01*
X12139220Y-17169841D02*
X12139220Y-17131746D01*
X12139220Y-17131746D02*
X12148744Y-17084127D01*
X12148744Y-17084127D02*
X12158268Y-17055555D01*
X12158268Y-17055555D02*
X12167791Y-17036508D01*
X12167791Y-17036508D02*
X12186839Y-17007936D01*
X12186839Y-17007936D02*
X12196363Y-16998412D01*
X12377315Y-17226984D02*
X12263029Y-17226984D01*
X12320172Y-17226984D02*
X12320172Y-17026984D01*
X12320172Y-17026984D02*
X12301125Y-17055555D01*
X12301125Y-17055555D02*
X12282077Y-17074603D01*
X12282077Y-17074603D02*
X12263029Y-17084127D01*
X12558268Y-17026984D02*
X12463029Y-17026984D01*
X12463029Y-17026984D02*
X12453506Y-17122222D01*
X12453506Y-17122222D02*
X12463029Y-17112698D01*
X12463029Y-17112698D02*
X12482077Y-17103174D01*
X12482077Y-17103174D02*
X12529696Y-17103174D01*
X12529696Y-17103174D02*
X12548744Y-17112698D01*
X12548744Y-17112698D02*
X12558268Y-17122222D01*
X12558268Y-17122222D02*
X12567791Y-17141270D01*
X12567791Y-17141270D02*
X12567791Y-17188889D01*
X12567791Y-17188889D02*
X12558268Y-17207936D01*
X12558268Y-17207936D02*
X12548744Y-17217460D01*
X12548744Y-17217460D02*
X12529696Y-17226984D01*
X12529696Y-17226984D02*
X12482077Y-17226984D01*
X12482077Y-17226984D02*
X12463029Y-17217460D01*
X12463029Y-17217460D02*
X12453506Y-17207936D01*
X12643982Y-17046031D02*
X12653506Y-17036508D01*
X12653506Y-17036508D02*
X12672553Y-17026984D01*
X12672553Y-17026984D02*
X12720172Y-17026984D01*
X12720172Y-17026984D02*
X12739220Y-17036508D01*
X12739220Y-17036508D02*
X12748744Y-17046031D01*
X12748744Y-17046031D02*
X12758268Y-17065079D01*
X12758268Y-17065079D02*
X12758268Y-17084127D01*
X12758268Y-17084127D02*
X12748744Y-17112698D01*
X12748744Y-17112698D02*
X12634458Y-17226984D01*
X12634458Y-17226984D02*
X12758268Y-17226984D01*
X12996363Y-17226984D02*
X12996363Y-17026984D01*
X13082077Y-17226984D02*
X13082077Y-17122222D01*
X13082077Y-17122222D02*
X13072553Y-17103174D01*
X13072553Y-17103174D02*
X13053506Y-17093650D01*
X13053506Y-17093650D02*
X13024934Y-17093650D01*
X13024934Y-17093650D02*
X13005887Y-17103174D01*
X13005887Y-17103174D02*
X12996363Y-17112698D01*
X13205887Y-17226984D02*
X13186839Y-17217460D01*
X13186839Y-17217460D02*
X13177315Y-17207936D01*
X13177315Y-17207936D02*
X13167791Y-17188889D01*
X13167791Y-17188889D02*
X13167791Y-17131746D01*
X13167791Y-17131746D02*
X13177315Y-17112698D01*
X13177315Y-17112698D02*
X13186839Y-17103174D01*
X13186839Y-17103174D02*
X13205887Y-17093650D01*
X13205887Y-17093650D02*
X13234458Y-17093650D01*
X13234458Y-17093650D02*
X13253506Y-17103174D01*
X13253506Y-17103174D02*
X13263030Y-17112698D01*
X13263030Y-17112698D02*
X13272553Y-17131746D01*
X13272553Y-17131746D02*
X13272553Y-17188889D01*
X13272553Y-17188889D02*
X13263030Y-17207936D01*
X13263030Y-17207936D02*
X13253506Y-17217460D01*
X13253506Y-17217460D02*
X13234458Y-17226984D01*
X13234458Y-17226984D02*
X13205887Y-17226984D01*
X13386839Y-17226984D02*
X13367791Y-17217460D01*
X13367791Y-17217460D02*
X13358268Y-17198412D01*
X13358268Y-17198412D02*
X13358268Y-17026984D01*
X13539220Y-17217460D02*
X13520172Y-17226984D01*
X13520172Y-17226984D02*
X13482077Y-17226984D01*
X13482077Y-17226984D02*
X13463030Y-17217460D01*
X13463030Y-17217460D02*
X13453506Y-17198412D01*
X13453506Y-17198412D02*
X13453506Y-17122222D01*
X13453506Y-17122222D02*
X13463030Y-17103174D01*
X13463030Y-17103174D02*
X13482077Y-17093650D01*
X13482077Y-17093650D02*
X13520172Y-17093650D01*
X13520172Y-17093650D02*
X13539220Y-17103174D01*
X13539220Y-17103174D02*
X13548744Y-17122222D01*
X13548744Y-17122222D02*
X13548744Y-17141270D01*
X13548744Y-17141270D02*
X13453506Y-17160317D01*
X13624934Y-17217460D02*
X13643982Y-17226984D01*
X13643982Y-17226984D02*
X13682077Y-17226984D01*
X13682077Y-17226984D02*
X13701125Y-17217460D01*
X13701125Y-17217460D02*
X13710649Y-17198412D01*
X13710649Y-17198412D02*
X13710649Y-17188889D01*
X13710649Y-17188889D02*
X13701125Y-17169841D01*
X13701125Y-17169841D02*
X13682077Y-17160317D01*
X13682077Y-17160317D02*
X13653506Y-17160317D01*
X13653506Y-17160317D02*
X13634458Y-17150793D01*
X13634458Y-17150793D02*
X13624934Y-17131746D01*
X13624934Y-17131746D02*
X13624934Y-17122222D01*
X13624934Y-17122222D02*
X13634458Y-17103174D01*
X13634458Y-17103174D02*
X13653506Y-17093650D01*
X13653506Y-17093650D02*
X13682077Y-17093650D01*
X13682077Y-17093650D02*
X13701125Y-17103174D01*
X13777315Y-17303174D02*
X13786839Y-17293650D01*
X13786839Y-17293650D02*
X13805887Y-17265079D01*
X13805887Y-17265079D02*
X13815411Y-17246031D01*
X13815411Y-17246031D02*
X13824934Y-17217460D01*
X13824934Y-17217460D02*
X13834458Y-17169841D01*
X13834458Y-17169841D02*
X13834458Y-17131746D01*
X13834458Y-17131746D02*
X13824934Y-17084127D01*
X13824934Y-17084127D02*
X13815411Y-17055555D01*
X13815411Y-17055555D02*
X13805887Y-17036508D01*
X13805887Y-17036508D02*
X13786839Y-17007936D01*
X13786839Y-17007936D02*
X13777315Y-16998412D01*
D13*
X8565420Y-17455380D02*
X8621300Y-17399500D01*
X8565420Y-17343620D01*
X8509540Y-17399500D01*
X8565420Y-17455380D01*
D11*
X8986839Y-17490984D02*
X8872553Y-17490984D01*
X8929696Y-17490984D02*
X8929696Y-17290984D01*
X8929696Y-17290984D02*
X8910648Y-17319555D01*
X8910648Y-17319555D02*
X8891601Y-17338603D01*
X8891601Y-17338603D02*
X8872553Y-17348127D01*
X9072553Y-17471936D02*
X9082077Y-17481460D01*
X9082077Y-17481460D02*
X9072553Y-17490984D01*
X9072553Y-17490984D02*
X9063029Y-17481460D01*
X9063029Y-17481460D02*
X9072553Y-17471936D01*
X9072553Y-17471936D02*
X9072553Y-17490984D01*
X9272553Y-17490984D02*
X9158267Y-17490984D01*
X9215410Y-17490984D02*
X9215410Y-17290984D01*
X9215410Y-17290984D02*
X9196363Y-17319555D01*
X9196363Y-17319555D02*
X9177315Y-17338603D01*
X9177315Y-17338603D02*
X9158267Y-17348127D01*
X9463029Y-17490984D02*
X9348744Y-17490984D01*
X9405886Y-17490984D02*
X9405886Y-17290984D01*
X9405886Y-17290984D02*
X9386839Y-17319555D01*
X9386839Y-17319555D02*
X9367791Y-17338603D01*
X9367791Y-17338603D02*
X9348744Y-17348127D01*
X9577315Y-17376698D02*
X9558267Y-17367174D01*
X9558267Y-17367174D02*
X9548744Y-17357650D01*
X9548744Y-17357650D02*
X9539220Y-17338603D01*
X9539220Y-17338603D02*
X9539220Y-17329079D01*
X9539220Y-17329079D02*
X9548744Y-17310031D01*
X9548744Y-17310031D02*
X9558267Y-17300508D01*
X9558267Y-17300508D02*
X9577315Y-17290984D01*
X9577315Y-17290984D02*
X9615410Y-17290984D01*
X9615410Y-17290984D02*
X9634458Y-17300508D01*
X9634458Y-17300508D02*
X9643982Y-17310031D01*
X9643982Y-17310031D02*
X9653505Y-17329079D01*
X9653505Y-17329079D02*
X9653505Y-17338603D01*
X9653505Y-17338603D02*
X9643982Y-17357650D01*
X9643982Y-17357650D02*
X9634458Y-17367174D01*
X9634458Y-17367174D02*
X9615410Y-17376698D01*
X9615410Y-17376698D02*
X9577315Y-17376698D01*
X9577315Y-17376698D02*
X9558267Y-17386222D01*
X9558267Y-17386222D02*
X9548744Y-17395746D01*
X9548744Y-17395746D02*
X9539220Y-17414793D01*
X9539220Y-17414793D02*
X9539220Y-17452889D01*
X9539220Y-17452889D02*
X9548744Y-17471936D01*
X9548744Y-17471936D02*
X9558267Y-17481460D01*
X9558267Y-17481460D02*
X9577315Y-17490984D01*
X9577315Y-17490984D02*
X9615410Y-17490984D01*
X9615410Y-17490984D02*
X9634458Y-17481460D01*
X9634458Y-17481460D02*
X9643982Y-17471936D01*
X9643982Y-17471936D02*
X9653505Y-17452889D01*
X9653505Y-17452889D02*
X9653505Y-17414793D01*
X9653505Y-17414793D02*
X9643982Y-17395746D01*
X9643982Y-17395746D02*
X9634458Y-17386222D01*
X9634458Y-17386222D02*
X9615410Y-17376698D01*
X9739220Y-17490984D02*
X9739220Y-17357650D01*
X9739220Y-17376698D02*
X9748744Y-17367174D01*
X9748744Y-17367174D02*
X9767791Y-17357650D01*
X9767791Y-17357650D02*
X9796363Y-17357650D01*
X9796363Y-17357650D02*
X9815410Y-17367174D01*
X9815410Y-17367174D02*
X9824934Y-17386222D01*
X9824934Y-17386222D02*
X9824934Y-17490984D01*
X9824934Y-17386222D02*
X9834458Y-17367174D01*
X9834458Y-17367174D02*
X9853505Y-17357650D01*
X9853505Y-17357650D02*
X9882077Y-17357650D01*
X9882077Y-17357650D02*
X9901125Y-17367174D01*
X9901125Y-17367174D02*
X9910648Y-17386222D01*
X9910648Y-17386222D02*
X9910648Y-17490984D01*
X10005886Y-17490984D02*
X10005886Y-17357650D01*
X10005886Y-17376698D02*
X10015410Y-17367174D01*
X10015410Y-17367174D02*
X10034458Y-17357650D01*
X10034458Y-17357650D02*
X10063029Y-17357650D01*
X10063029Y-17357650D02*
X10082077Y-17367174D01*
X10082077Y-17367174D02*
X10091601Y-17386222D01*
X10091601Y-17386222D02*
X10091601Y-17490984D01*
X10091601Y-17386222D02*
X10101125Y-17367174D01*
X10101125Y-17367174D02*
X10120172Y-17357650D01*
X10120172Y-17357650D02*
X10148744Y-17357650D01*
X10148744Y-17357650D02*
X10167791Y-17367174D01*
X10167791Y-17367174D02*
X10177315Y-17386222D01*
X10177315Y-17386222D02*
X10177315Y-17490984D01*
X10567791Y-17281460D02*
X10396363Y-17538603D01*
X10824934Y-17290984D02*
X10843982Y-17290984D01*
X10843982Y-17290984D02*
X10863029Y-17300508D01*
X10863029Y-17300508D02*
X10872553Y-17310031D01*
X10872553Y-17310031D02*
X10882077Y-17329079D01*
X10882077Y-17329079D02*
X10891601Y-17367174D01*
X10891601Y-17367174D02*
X10891601Y-17414793D01*
X10891601Y-17414793D02*
X10882077Y-17452889D01*
X10882077Y-17452889D02*
X10872553Y-17471936D01*
X10872553Y-17471936D02*
X10863029Y-17481460D01*
X10863029Y-17481460D02*
X10843982Y-17490984D01*
X10843982Y-17490984D02*
X10824934Y-17490984D01*
X10824934Y-17490984D02*
X10805887Y-17481460D01*
X10805887Y-17481460D02*
X10796363Y-17471936D01*
X10796363Y-17471936D02*
X10786839Y-17452889D01*
X10786839Y-17452889D02*
X10777315Y-17414793D01*
X10777315Y-17414793D02*
X10777315Y-17367174D01*
X10777315Y-17367174D02*
X10786839Y-17329079D01*
X10786839Y-17329079D02*
X10796363Y-17310031D01*
X10796363Y-17310031D02*
X10805887Y-17300508D01*
X10805887Y-17300508D02*
X10824934Y-17290984D01*
X10977315Y-17471936D02*
X10986839Y-17481460D01*
X10986839Y-17481460D02*
X10977315Y-17490984D01*
X10977315Y-17490984D02*
X10967791Y-17481460D01*
X10967791Y-17481460D02*
X10977315Y-17471936D01*
X10977315Y-17471936D02*
X10977315Y-17490984D01*
X11110648Y-17290984D02*
X11129696Y-17290984D01*
X11129696Y-17290984D02*
X11148744Y-17300508D01*
X11148744Y-17300508D02*
X11158268Y-17310031D01*
X11158268Y-17310031D02*
X11167791Y-17329079D01*
X11167791Y-17329079D02*
X11177315Y-17367174D01*
X11177315Y-17367174D02*
X11177315Y-17414793D01*
X11177315Y-17414793D02*
X11167791Y-17452889D01*
X11167791Y-17452889D02*
X11158268Y-17471936D01*
X11158268Y-17471936D02*
X11148744Y-17481460D01*
X11148744Y-17481460D02*
X11129696Y-17490984D01*
X11129696Y-17490984D02*
X11110648Y-17490984D01*
X11110648Y-17490984D02*
X11091601Y-17481460D01*
X11091601Y-17481460D02*
X11082077Y-17471936D01*
X11082077Y-17471936D02*
X11072553Y-17452889D01*
X11072553Y-17452889D02*
X11063029Y-17414793D01*
X11063029Y-17414793D02*
X11063029Y-17367174D01*
X11063029Y-17367174D02*
X11072553Y-17329079D01*
X11072553Y-17329079D02*
X11082077Y-17310031D01*
X11082077Y-17310031D02*
X11091601Y-17300508D01*
X11091601Y-17300508D02*
X11110648Y-17290984D01*
X11348744Y-17357650D02*
X11348744Y-17490984D01*
X11301125Y-17281460D02*
X11253506Y-17424317D01*
X11253506Y-17424317D02*
X11377315Y-17424317D01*
X11539220Y-17357650D02*
X11539220Y-17490984D01*
X11491601Y-17281460D02*
X11443982Y-17424317D01*
X11443982Y-17424317D02*
X11567791Y-17424317D01*
X11682077Y-17290984D02*
X11701125Y-17290984D01*
X11701125Y-17290984D02*
X11720172Y-17300508D01*
X11720172Y-17300508D02*
X11729696Y-17310031D01*
X11729696Y-17310031D02*
X11739220Y-17329079D01*
X11739220Y-17329079D02*
X11748744Y-17367174D01*
X11748744Y-17367174D02*
X11748744Y-17414793D01*
X11748744Y-17414793D02*
X11739220Y-17452889D01*
X11739220Y-17452889D02*
X11729696Y-17471936D01*
X11729696Y-17471936D02*
X11720172Y-17481460D01*
X11720172Y-17481460D02*
X11701125Y-17490984D01*
X11701125Y-17490984D02*
X11682077Y-17490984D01*
X11682077Y-17490984D02*
X11663029Y-17481460D01*
X11663029Y-17481460D02*
X11653506Y-17471936D01*
X11653506Y-17471936D02*
X11643982Y-17452889D01*
X11643982Y-17452889D02*
X11634458Y-17414793D01*
X11634458Y-17414793D02*
X11634458Y-17367174D01*
X11634458Y-17367174D02*
X11643982Y-17329079D01*
X11643982Y-17329079D02*
X11653506Y-17310031D01*
X11653506Y-17310031D02*
X11663029Y-17300508D01*
X11663029Y-17300508D02*
X11682077Y-17290984D01*
X11824934Y-17290984D02*
X11824934Y-17329079D01*
X11901125Y-17290984D02*
X11901125Y-17329079D01*
X12196363Y-17567174D02*
X12186839Y-17557650D01*
X12186839Y-17557650D02*
X12167791Y-17529079D01*
X12167791Y-17529079D02*
X12158268Y-17510031D01*
X12158268Y-17510031D02*
X12148744Y-17481460D01*
X12148744Y-17481460D02*
X12139220Y-17433841D01*
X12139220Y-17433841D02*
X12139220Y-17395746D01*
X12139220Y-17395746D02*
X12148744Y-17348127D01*
X12148744Y-17348127D02*
X12158268Y-17319555D01*
X12158268Y-17319555D02*
X12167791Y-17300508D01*
X12167791Y-17300508D02*
X12186839Y-17271936D01*
X12186839Y-17271936D02*
X12196363Y-17262412D01*
X12263029Y-17310031D02*
X12272553Y-17300508D01*
X12272553Y-17300508D02*
X12291601Y-17290984D01*
X12291601Y-17290984D02*
X12339220Y-17290984D01*
X12339220Y-17290984D02*
X12358268Y-17300508D01*
X12358268Y-17300508D02*
X12367791Y-17310031D01*
X12367791Y-17310031D02*
X12377315Y-17329079D01*
X12377315Y-17329079D02*
X12377315Y-17348127D01*
X12377315Y-17348127D02*
X12367791Y-17376698D01*
X12367791Y-17376698D02*
X12253506Y-17490984D01*
X12253506Y-17490984D02*
X12377315Y-17490984D01*
X12548744Y-17357650D02*
X12548744Y-17490984D01*
X12501125Y-17281460D02*
X12453506Y-17424317D01*
X12453506Y-17424317D02*
X12577315Y-17424317D01*
X12805887Y-17490984D02*
X12805887Y-17290984D01*
X12891601Y-17490984D02*
X12891601Y-17386222D01*
X12891601Y-17386222D02*
X12882077Y-17367174D01*
X12882077Y-17367174D02*
X12863030Y-17357650D01*
X12863030Y-17357650D02*
X12834458Y-17357650D01*
X12834458Y-17357650D02*
X12815410Y-17367174D01*
X12815410Y-17367174D02*
X12805887Y-17376698D01*
X13015410Y-17490984D02*
X12996363Y-17481460D01*
X12996363Y-17481460D02*
X12986839Y-17471936D01*
X12986839Y-17471936D02*
X12977315Y-17452889D01*
X12977315Y-17452889D02*
X12977315Y-17395746D01*
X12977315Y-17395746D02*
X12986839Y-17376698D01*
X12986839Y-17376698D02*
X12996363Y-17367174D01*
X12996363Y-17367174D02*
X13015410Y-17357650D01*
X13015410Y-17357650D02*
X13043982Y-17357650D01*
X13043982Y-17357650D02*
X13063030Y-17367174D01*
X13063030Y-17367174D02*
X13072553Y-17376698D01*
X13072553Y-17376698D02*
X13082077Y-17395746D01*
X13082077Y-17395746D02*
X13082077Y-17452889D01*
X13082077Y-17452889D02*
X13072553Y-17471936D01*
X13072553Y-17471936D02*
X13063030Y-17481460D01*
X13063030Y-17481460D02*
X13043982Y-17490984D01*
X13043982Y-17490984D02*
X13015410Y-17490984D01*
X13196363Y-17490984D02*
X13177315Y-17481460D01*
X13177315Y-17481460D02*
X13167791Y-17462412D01*
X13167791Y-17462412D02*
X13167791Y-17290984D01*
X13348744Y-17481460D02*
X13329696Y-17490984D01*
X13329696Y-17490984D02*
X13291601Y-17490984D01*
X13291601Y-17490984D02*
X13272553Y-17481460D01*
X13272553Y-17481460D02*
X13263030Y-17462412D01*
X13263030Y-17462412D02*
X13263030Y-17386222D01*
X13263030Y-17386222D02*
X13272553Y-17367174D01*
X13272553Y-17367174D02*
X13291601Y-17357650D01*
X13291601Y-17357650D02*
X13329696Y-17357650D01*
X13329696Y-17357650D02*
X13348744Y-17367174D01*
X13348744Y-17367174D02*
X13358268Y-17386222D01*
X13358268Y-17386222D02*
X13358268Y-17405270D01*
X13358268Y-17405270D02*
X13263030Y-17424317D01*
X13434458Y-17481460D02*
X13453506Y-17490984D01*
X13453506Y-17490984D02*
X13491601Y-17490984D01*
X13491601Y-17490984D02*
X13510649Y-17481460D01*
X13510649Y-17481460D02*
X13520172Y-17462412D01*
X13520172Y-17462412D02*
X13520172Y-17452889D01*
X13520172Y-17452889D02*
X13510649Y-17433841D01*
X13510649Y-17433841D02*
X13491601Y-17424317D01*
X13491601Y-17424317D02*
X13463030Y-17424317D01*
X13463030Y-17424317D02*
X13443982Y-17414793D01*
X13443982Y-17414793D02*
X13434458Y-17395746D01*
X13434458Y-17395746D02*
X13434458Y-17386222D01*
X13434458Y-17386222D02*
X13443982Y-17367174D01*
X13443982Y-17367174D02*
X13463030Y-17357650D01*
X13463030Y-17357650D02*
X13491601Y-17357650D01*
X13491601Y-17357650D02*
X13510649Y-17367174D01*
X13586839Y-17567174D02*
X13596363Y-17557650D01*
X13596363Y-17557650D02*
X13615411Y-17529079D01*
X13615411Y-17529079D02*
X13624934Y-17510031D01*
X13624934Y-17510031D02*
X13634458Y-17481460D01*
X13634458Y-17481460D02*
X13643982Y-17433841D01*
X13643982Y-17433841D02*
X13643982Y-17395746D01*
X13643982Y-17395746D02*
X13634458Y-17348127D01*
X13634458Y-17348127D02*
X13624934Y-17319555D01*
X13624934Y-17319555D02*
X13615411Y-17300508D01*
X13615411Y-17300508D02*
X13596363Y-17271936D01*
X13596363Y-17271936D02*
X13586839Y-17262412D01*
X8421300Y-17563500D02*
X8621300Y-17763500D01*
X8621300Y-17563500D02*
X8421300Y-17763500D01*
X8621300Y-17663500D02*
G75*
G02*
X8421300Y-17663500I-100000J0D01*
G01*
X8421300Y-17663500D02*
G75*
G02*
X8621300Y-17663500I100000J0D01*
G01*
X8967791Y-17621650D02*
X8967791Y-17754984D01*
X8920172Y-17545460D02*
X8872553Y-17688317D01*
X8872553Y-17688317D02*
X8996363Y-17688317D01*
X9072553Y-17735936D02*
X9082077Y-17745460D01*
X9082077Y-17745460D02*
X9072553Y-17754984D01*
X9072553Y-17754984D02*
X9063029Y-17745460D01*
X9063029Y-17745460D02*
X9072553Y-17735936D01*
X9072553Y-17735936D02*
X9072553Y-17754984D01*
X9263029Y-17554984D02*
X9167791Y-17554984D01*
X9167791Y-17554984D02*
X9158267Y-17650222D01*
X9158267Y-17650222D02*
X9167791Y-17640698D01*
X9167791Y-17640698D02*
X9186839Y-17631174D01*
X9186839Y-17631174D02*
X9234458Y-17631174D01*
X9234458Y-17631174D02*
X9253505Y-17640698D01*
X9253505Y-17640698D02*
X9263029Y-17650222D01*
X9263029Y-17650222D02*
X9272553Y-17669270D01*
X9272553Y-17669270D02*
X9272553Y-17716889D01*
X9272553Y-17716889D02*
X9263029Y-17735936D01*
X9263029Y-17735936D02*
X9253505Y-17745460D01*
X9253505Y-17745460D02*
X9234458Y-17754984D01*
X9234458Y-17754984D02*
X9186839Y-17754984D01*
X9186839Y-17754984D02*
X9167791Y-17745460D01*
X9167791Y-17745460D02*
X9158267Y-17735936D01*
X9396363Y-17554984D02*
X9415410Y-17554984D01*
X9415410Y-17554984D02*
X9434458Y-17564508D01*
X9434458Y-17564508D02*
X9443982Y-17574031D01*
X9443982Y-17574031D02*
X9453505Y-17593079D01*
X9453505Y-17593079D02*
X9463029Y-17631174D01*
X9463029Y-17631174D02*
X9463029Y-17678793D01*
X9463029Y-17678793D02*
X9453505Y-17716889D01*
X9453505Y-17716889D02*
X9443982Y-17735936D01*
X9443982Y-17735936D02*
X9434458Y-17745460D01*
X9434458Y-17745460D02*
X9415410Y-17754984D01*
X9415410Y-17754984D02*
X9396363Y-17754984D01*
X9396363Y-17754984D02*
X9377315Y-17745460D01*
X9377315Y-17745460D02*
X9367791Y-17735936D01*
X9367791Y-17735936D02*
X9358267Y-17716889D01*
X9358267Y-17716889D02*
X9348744Y-17678793D01*
X9348744Y-17678793D02*
X9348744Y-17631174D01*
X9348744Y-17631174D02*
X9358267Y-17593079D01*
X9358267Y-17593079D02*
X9367791Y-17574031D01*
X9367791Y-17574031D02*
X9377315Y-17564508D01*
X9377315Y-17564508D02*
X9396363Y-17554984D01*
X9586839Y-17554984D02*
X9605886Y-17554984D01*
X9605886Y-17554984D02*
X9624934Y-17564508D01*
X9624934Y-17564508D02*
X9634458Y-17574031D01*
X9634458Y-17574031D02*
X9643982Y-17593079D01*
X9643982Y-17593079D02*
X9653505Y-17631174D01*
X9653505Y-17631174D02*
X9653505Y-17678793D01*
X9653505Y-17678793D02*
X9643982Y-17716889D01*
X9643982Y-17716889D02*
X9634458Y-17735936D01*
X9634458Y-17735936D02*
X9624934Y-17745460D01*
X9624934Y-17745460D02*
X9605886Y-17754984D01*
X9605886Y-17754984D02*
X9586839Y-17754984D01*
X9586839Y-17754984D02*
X9567791Y-17745460D01*
X9567791Y-17745460D02*
X9558267Y-17735936D01*
X9558267Y-17735936D02*
X9548744Y-17716889D01*
X9548744Y-17716889D02*
X9539220Y-17678793D01*
X9539220Y-17678793D02*
X9539220Y-17631174D01*
X9539220Y-17631174D02*
X9548744Y-17593079D01*
X9548744Y-17593079D02*
X9558267Y-17574031D01*
X9558267Y-17574031D02*
X9567791Y-17564508D01*
X9567791Y-17564508D02*
X9586839Y-17554984D01*
X9739220Y-17754984D02*
X9739220Y-17621650D01*
X9739220Y-17640698D02*
X9748744Y-17631174D01*
X9748744Y-17631174D02*
X9767791Y-17621650D01*
X9767791Y-17621650D02*
X9796363Y-17621650D01*
X9796363Y-17621650D02*
X9815410Y-17631174D01*
X9815410Y-17631174D02*
X9824934Y-17650222D01*
X9824934Y-17650222D02*
X9824934Y-17754984D01*
X9824934Y-17650222D02*
X9834458Y-17631174D01*
X9834458Y-17631174D02*
X9853505Y-17621650D01*
X9853505Y-17621650D02*
X9882077Y-17621650D01*
X9882077Y-17621650D02*
X9901125Y-17631174D01*
X9901125Y-17631174D02*
X9910648Y-17650222D01*
X9910648Y-17650222D02*
X9910648Y-17754984D01*
X10005886Y-17754984D02*
X10005886Y-17621650D01*
X10005886Y-17640698D02*
X10015410Y-17631174D01*
X10015410Y-17631174D02*
X10034458Y-17621650D01*
X10034458Y-17621650D02*
X10063029Y-17621650D01*
X10063029Y-17621650D02*
X10082077Y-17631174D01*
X10082077Y-17631174D02*
X10091601Y-17650222D01*
X10091601Y-17650222D02*
X10091601Y-17754984D01*
X10091601Y-17650222D02*
X10101125Y-17631174D01*
X10101125Y-17631174D02*
X10120172Y-17621650D01*
X10120172Y-17621650D02*
X10148744Y-17621650D01*
X10148744Y-17621650D02*
X10167791Y-17631174D01*
X10167791Y-17631174D02*
X10177315Y-17650222D01*
X10177315Y-17650222D02*
X10177315Y-17754984D01*
X10567791Y-17545460D02*
X10396363Y-17802603D01*
X10824934Y-17554984D02*
X10843982Y-17554984D01*
X10843982Y-17554984D02*
X10863029Y-17564508D01*
X10863029Y-17564508D02*
X10872553Y-17574031D01*
X10872553Y-17574031D02*
X10882077Y-17593079D01*
X10882077Y-17593079D02*
X10891601Y-17631174D01*
X10891601Y-17631174D02*
X10891601Y-17678793D01*
X10891601Y-17678793D02*
X10882077Y-17716889D01*
X10882077Y-17716889D02*
X10872553Y-17735936D01*
X10872553Y-17735936D02*
X10863029Y-17745460D01*
X10863029Y-17745460D02*
X10843982Y-17754984D01*
X10843982Y-17754984D02*
X10824934Y-17754984D01*
X10824934Y-17754984D02*
X10805887Y-17745460D01*
X10805887Y-17745460D02*
X10796363Y-17735936D01*
X10796363Y-17735936D02*
X10786839Y-17716889D01*
X10786839Y-17716889D02*
X10777315Y-17678793D01*
X10777315Y-17678793D02*
X10777315Y-17631174D01*
X10777315Y-17631174D02*
X10786839Y-17593079D01*
X10786839Y-17593079D02*
X10796363Y-17574031D01*
X10796363Y-17574031D02*
X10805887Y-17564508D01*
X10805887Y-17564508D02*
X10824934Y-17554984D01*
X10977315Y-17735936D02*
X10986839Y-17745460D01*
X10986839Y-17745460D02*
X10977315Y-17754984D01*
X10977315Y-17754984D02*
X10967791Y-17745460D01*
X10967791Y-17745460D02*
X10977315Y-17735936D01*
X10977315Y-17735936D02*
X10977315Y-17754984D01*
X11177315Y-17754984D02*
X11063029Y-17754984D01*
X11120172Y-17754984D02*
X11120172Y-17554984D01*
X11120172Y-17554984D02*
X11101125Y-17583555D01*
X11101125Y-17583555D02*
X11082077Y-17602603D01*
X11082077Y-17602603D02*
X11063029Y-17612127D01*
X11243982Y-17554984D02*
X11377315Y-17554984D01*
X11377315Y-17554984D02*
X11291601Y-17754984D01*
X11434458Y-17554984D02*
X11567791Y-17554984D01*
X11567791Y-17554984D02*
X11482077Y-17754984D01*
X11634458Y-17574031D02*
X11643982Y-17564508D01*
X11643982Y-17564508D02*
X11663029Y-17554984D01*
X11663029Y-17554984D02*
X11710648Y-17554984D01*
X11710648Y-17554984D02*
X11729696Y-17564508D01*
X11729696Y-17564508D02*
X11739220Y-17574031D01*
X11739220Y-17574031D02*
X11748744Y-17593079D01*
X11748744Y-17593079D02*
X11748744Y-17612127D01*
X11748744Y-17612127D02*
X11739220Y-17640698D01*
X11739220Y-17640698D02*
X11624934Y-17754984D01*
X11624934Y-17754984D02*
X11748744Y-17754984D01*
X11824934Y-17554984D02*
X11824934Y-17593079D01*
X11901125Y-17554984D02*
X11901125Y-17593079D01*
X12196363Y-17831174D02*
X12186839Y-17821650D01*
X12186839Y-17821650D02*
X12167791Y-17793079D01*
X12167791Y-17793079D02*
X12158268Y-17774031D01*
X12158268Y-17774031D02*
X12148744Y-17745460D01*
X12148744Y-17745460D02*
X12139220Y-17697841D01*
X12139220Y-17697841D02*
X12139220Y-17659746D01*
X12139220Y-17659746D02*
X12148744Y-17612127D01*
X12148744Y-17612127D02*
X12158268Y-17583555D01*
X12158268Y-17583555D02*
X12167791Y-17564508D01*
X12167791Y-17564508D02*
X12186839Y-17535936D01*
X12186839Y-17535936D02*
X12196363Y-17526412D01*
X12301125Y-17640698D02*
X12282077Y-17631174D01*
X12282077Y-17631174D02*
X12272553Y-17621650D01*
X12272553Y-17621650D02*
X12263029Y-17602603D01*
X12263029Y-17602603D02*
X12263029Y-17593079D01*
X12263029Y-17593079D02*
X12272553Y-17574031D01*
X12272553Y-17574031D02*
X12282077Y-17564508D01*
X12282077Y-17564508D02*
X12301125Y-17554984D01*
X12301125Y-17554984D02*
X12339220Y-17554984D01*
X12339220Y-17554984D02*
X12358268Y-17564508D01*
X12358268Y-17564508D02*
X12367791Y-17574031D01*
X12367791Y-17574031D02*
X12377315Y-17593079D01*
X12377315Y-17593079D02*
X12377315Y-17602603D01*
X12377315Y-17602603D02*
X12367791Y-17621650D01*
X12367791Y-17621650D02*
X12358268Y-17631174D01*
X12358268Y-17631174D02*
X12339220Y-17640698D01*
X12339220Y-17640698D02*
X12301125Y-17640698D01*
X12301125Y-17640698D02*
X12282077Y-17650222D01*
X12282077Y-17650222D02*
X12272553Y-17659746D01*
X12272553Y-17659746D02*
X12263029Y-17678793D01*
X12263029Y-17678793D02*
X12263029Y-17716889D01*
X12263029Y-17716889D02*
X12272553Y-17735936D01*
X12272553Y-17735936D02*
X12282077Y-17745460D01*
X12282077Y-17745460D02*
X12301125Y-17754984D01*
X12301125Y-17754984D02*
X12339220Y-17754984D01*
X12339220Y-17754984D02*
X12358268Y-17745460D01*
X12358268Y-17745460D02*
X12367791Y-17735936D01*
X12367791Y-17735936D02*
X12377315Y-17716889D01*
X12377315Y-17716889D02*
X12377315Y-17678793D01*
X12377315Y-17678793D02*
X12367791Y-17659746D01*
X12367791Y-17659746D02*
X12358268Y-17650222D01*
X12358268Y-17650222D02*
X12339220Y-17640698D01*
X12615410Y-17754984D02*
X12615410Y-17554984D01*
X12701125Y-17754984D02*
X12701125Y-17650222D01*
X12701125Y-17650222D02*
X12691601Y-17631174D01*
X12691601Y-17631174D02*
X12672553Y-17621650D01*
X12672553Y-17621650D02*
X12643982Y-17621650D01*
X12643982Y-17621650D02*
X12624934Y-17631174D01*
X12624934Y-17631174D02*
X12615410Y-17640698D01*
X12824934Y-17754984D02*
X12805887Y-17745460D01*
X12805887Y-17745460D02*
X12796363Y-17735936D01*
X12796363Y-17735936D02*
X12786839Y-17716889D01*
X12786839Y-17716889D02*
X12786839Y-17659746D01*
X12786839Y-17659746D02*
X12796363Y-17640698D01*
X12796363Y-17640698D02*
X12805887Y-17631174D01*
X12805887Y-17631174D02*
X12824934Y-17621650D01*
X12824934Y-17621650D02*
X12853506Y-17621650D01*
X12853506Y-17621650D02*
X12872553Y-17631174D01*
X12872553Y-17631174D02*
X12882077Y-17640698D01*
X12882077Y-17640698D02*
X12891601Y-17659746D01*
X12891601Y-17659746D02*
X12891601Y-17716889D01*
X12891601Y-17716889D02*
X12882077Y-17735936D01*
X12882077Y-17735936D02*
X12872553Y-17745460D01*
X12872553Y-17745460D02*
X12853506Y-17754984D01*
X12853506Y-17754984D02*
X12824934Y-17754984D01*
X13005887Y-17754984D02*
X12986839Y-17745460D01*
X12986839Y-17745460D02*
X12977315Y-17726412D01*
X12977315Y-17726412D02*
X12977315Y-17554984D01*
X13158268Y-17745460D02*
X13139220Y-17754984D01*
X13139220Y-17754984D02*
X13101125Y-17754984D01*
X13101125Y-17754984D02*
X13082077Y-17745460D01*
X13082077Y-17745460D02*
X13072553Y-17726412D01*
X13072553Y-17726412D02*
X13072553Y-17650222D01*
X13072553Y-17650222D02*
X13082077Y-17631174D01*
X13082077Y-17631174D02*
X13101125Y-17621650D01*
X13101125Y-17621650D02*
X13139220Y-17621650D01*
X13139220Y-17621650D02*
X13158268Y-17631174D01*
X13158268Y-17631174D02*
X13167791Y-17650222D01*
X13167791Y-17650222D02*
X13167791Y-17669270D01*
X13167791Y-17669270D02*
X13072553Y-17688317D01*
X13243982Y-17745460D02*
X13263030Y-17754984D01*
X13263030Y-17754984D02*
X13301125Y-17754984D01*
X13301125Y-17754984D02*
X13320172Y-17745460D01*
X13320172Y-17745460D02*
X13329696Y-17726412D01*
X13329696Y-17726412D02*
X13329696Y-17716889D01*
X13329696Y-17716889D02*
X13320172Y-17697841D01*
X13320172Y-17697841D02*
X13301125Y-17688317D01*
X13301125Y-17688317D02*
X13272553Y-17688317D01*
X13272553Y-17688317D02*
X13253506Y-17678793D01*
X13253506Y-17678793D02*
X13243982Y-17659746D01*
X13243982Y-17659746D02*
X13243982Y-17650222D01*
X13243982Y-17650222D02*
X13253506Y-17631174D01*
X13253506Y-17631174D02*
X13272553Y-17621650D01*
X13272553Y-17621650D02*
X13301125Y-17621650D01*
X13301125Y-17621650D02*
X13320172Y-17631174D01*
X13396363Y-17831174D02*
X13405887Y-17821650D01*
X13405887Y-17821650D02*
X13424934Y-17793079D01*
X13424934Y-17793079D02*
X13434458Y-17774031D01*
X13434458Y-17774031D02*
X13443982Y-17745460D01*
X13443982Y-17745460D02*
X13453506Y-17697841D01*
X13453506Y-17697841D02*
X13453506Y-17659746D01*
X13453506Y-17659746D02*
X13443982Y-17612127D01*
X13443982Y-17612127D02*
X13434458Y-17583555D01*
X13434458Y-17583555D02*
X13424934Y-17564508D01*
X13424934Y-17564508D02*
X13405887Y-17535936D01*
X13405887Y-17535936D02*
X13396363Y-17526412D01*
M02*
