G04 #@! TF.GenerationSoftware,KiCad,Pcbnew,9.0.3*
G04 #@! TF.CreationDate,2025-08-08T01:49:22+09:00*
G04 #@! TF.ProjectId,ESP32-MB-1.0,45535033-322d-44d4-922d-312e302e6b69,rev?*
G04 #@! TF.SameCoordinates,Original*
G04 #@! TF.FileFunction,Legend,Top*
G04 #@! TF.FilePolarity,Positive*
%FSLAX46Y46*%
G04 Gerber Fmt 4.6, Leading zero omitted, Abs format (unit mm)*
G04 Created by KiCad (PCBNEW 9.0.3) date 2025-08-08 01:49:22*
%MOMM*%
%LPD*%
G01*
G04 APERTURE LIST*
%ADD10C,0.100000*%
%ADD11C,0.150000*%
%ADD12C,0.300000*%
%ADD13C,0.120000*%
%ADD14C,0.152400*%
%ADD15C,0.000000*%
G04 APERTURE END LIST*
D10*
X195063312Y-137483180D02*
X195015693Y-137530800D01*
X195015693Y-137530800D02*
X194872836Y-137578419D01*
X194872836Y-137578419D02*
X194777598Y-137578419D01*
X194777598Y-137578419D02*
X194634741Y-137530800D01*
X194634741Y-137530800D02*
X194539503Y-137435561D01*
X194539503Y-137435561D02*
X194491884Y-137340323D01*
X194491884Y-137340323D02*
X194444265Y-137149847D01*
X194444265Y-137149847D02*
X194444265Y-137006990D01*
X194444265Y-137006990D02*
X194491884Y-136816514D01*
X194491884Y-136816514D02*
X194539503Y-136721276D01*
X194539503Y-136721276D02*
X194634741Y-136626038D01*
X194634741Y-136626038D02*
X194777598Y-136578419D01*
X194777598Y-136578419D02*
X194872836Y-136578419D01*
X194872836Y-136578419D02*
X195015693Y-136626038D01*
X195015693Y-136626038D02*
X195063312Y-136673657D01*
X195444265Y-137292704D02*
X195920455Y-137292704D01*
X195349027Y-137578419D02*
X195682360Y-136578419D01*
X195682360Y-136578419D02*
X196015693Y-137578419D01*
X196349027Y-137578419D02*
X196349027Y-136578419D01*
X196349027Y-136578419D02*
X196920455Y-137578419D01*
X196920455Y-137578419D02*
X196920455Y-136578419D01*
X194714074Y-136054419D02*
X194237884Y-136054419D01*
X194237884Y-136054419D02*
X194237884Y-135054419D01*
X196571218Y-136054419D02*
X196571218Y-135054419D01*
X196571218Y-135530609D02*
X197142646Y-135530609D01*
X197142646Y-136054419D02*
X197142646Y-135054419D01*
X189870000Y-79540000D02*
X201300000Y-79540000D01*
X201300000Y-137960000D01*
X189870000Y-137960000D01*
X189870000Y-79540000D01*
X148595000Y-43218000D02*
X161041000Y-43218000D01*
X161041000Y-86906000D01*
X148595000Y-86906000D01*
X148595000Y-43218000D01*
X99446000Y-20612000D02*
X117480000Y-20612000D01*
X117480000Y-48806000D01*
X99446000Y-48806000D01*
X99446000Y-20612000D01*
X160660000Y-98590000D02*
X168280000Y-98590000D01*
X168280000Y-129070000D01*
X160660000Y-129070000D01*
X160660000Y-98590000D01*
X122560000Y-31534000D02*
X153548000Y-31534000D01*
X153548000Y-38138000D01*
X122560000Y-38138000D01*
X122560000Y-31534000D01*
X178440000Y-52362000D02*
X186568000Y-52362000D01*
X186568000Y-84112000D01*
X178440000Y-84112000D01*
X178440000Y-52362000D01*
X124846000Y-41186000D02*
X145166000Y-41186000D01*
X145166000Y-88938000D01*
X124846000Y-88938000D01*
X124846000Y-41186000D01*
X165232000Y-138468000D02*
X196982000Y-138468000D01*
X196982000Y-146850000D01*
X165232000Y-146850000D01*
X165232000Y-138468000D01*
D11*
X108625160Y-50152200D02*
X108768017Y-50199819D01*
X108768017Y-50199819D02*
X109006112Y-50199819D01*
X109006112Y-50199819D02*
X109101350Y-50152200D01*
X109101350Y-50152200D02*
X109148969Y-50104580D01*
X109148969Y-50104580D02*
X109196588Y-50009342D01*
X109196588Y-50009342D02*
X109196588Y-49914104D01*
X109196588Y-49914104D02*
X109148969Y-49818866D01*
X109148969Y-49818866D02*
X109101350Y-49771247D01*
X109101350Y-49771247D02*
X109006112Y-49723628D01*
X109006112Y-49723628D02*
X108815636Y-49676009D01*
X108815636Y-49676009D02*
X108720398Y-49628390D01*
X108720398Y-49628390D02*
X108672779Y-49580771D01*
X108672779Y-49580771D02*
X108625160Y-49485533D01*
X108625160Y-49485533D02*
X108625160Y-49390295D01*
X108625160Y-49390295D02*
X108672779Y-49295057D01*
X108672779Y-49295057D02*
X108720398Y-49247438D01*
X108720398Y-49247438D02*
X108815636Y-49199819D01*
X108815636Y-49199819D02*
X109053731Y-49199819D01*
X109053731Y-49199819D02*
X109196588Y-49247438D01*
X109482303Y-49199819D02*
X109815636Y-50199819D01*
X109815636Y-50199819D02*
X110148969Y-49199819D01*
D12*
X153380225Y-84444828D02*
X154237368Y-84444828D01*
X153808796Y-85944828D02*
X153808796Y-84444828D01*
X155594510Y-85944828D02*
X155094510Y-85230542D01*
X154737367Y-85944828D02*
X154737367Y-84444828D01*
X154737367Y-84444828D02*
X155308796Y-84444828D01*
X155308796Y-84444828D02*
X155451653Y-84516257D01*
X155451653Y-84516257D02*
X155523082Y-84587685D01*
X155523082Y-84587685D02*
X155594510Y-84730542D01*
X155594510Y-84730542D02*
X155594510Y-84944828D01*
X155594510Y-84944828D02*
X155523082Y-85087685D01*
X155523082Y-85087685D02*
X155451653Y-85159114D01*
X155451653Y-85159114D02*
X155308796Y-85230542D01*
X155308796Y-85230542D02*
X154737367Y-85230542D01*
D10*
G36*
X147363446Y-32275739D02*
G01*
X147444599Y-32356892D01*
X147486136Y-32439966D01*
X147530931Y-32619145D01*
X147530931Y-32749692D01*
X147486136Y-32928870D01*
X147444599Y-33011944D01*
X147363445Y-33093098D01*
X147239485Y-33134419D01*
X147059503Y-33134419D01*
X147059503Y-32234419D01*
X147239485Y-32234419D01*
X147363446Y-32275739D01*
G37*
G36*
X151172970Y-32275739D02*
G01*
X151254123Y-32356892D01*
X151295660Y-32439966D01*
X151340455Y-32619145D01*
X151340455Y-32749692D01*
X151295660Y-32928870D01*
X151254123Y-33011944D01*
X151172969Y-33093098D01*
X151049009Y-33134419D01*
X150869027Y-33134419D01*
X150869027Y-32234419D01*
X151049009Y-32234419D01*
X151172970Y-32275739D01*
G37*
G36*
X151551566Y-33345530D02*
G01*
X144753154Y-33345530D01*
X144753154Y-32612990D01*
X144864265Y-32612990D01*
X144864265Y-32755847D01*
X144865460Y-32761856D01*
X144865758Y-32767974D01*
X144913377Y-32958450D01*
X144915716Y-32963402D01*
X144917163Y-32968684D01*
X144964781Y-33063921D01*
X144969692Y-33070249D01*
X144974147Y-33076916D01*
X145069386Y-33172155D01*
X145071467Y-33173545D01*
X145071981Y-33174573D01*
X145078946Y-33178543D01*
X145085607Y-33182994D01*
X145086755Y-33182994D01*
X145088930Y-33184234D01*
X145231786Y-33231853D01*
X145239736Y-33232855D01*
X145247598Y-33234419D01*
X145342836Y-33234419D01*
X145350698Y-33232855D01*
X145358647Y-33231853D01*
X145501504Y-33184234D01*
X145503679Y-33182994D01*
X145504828Y-33182994D01*
X145511498Y-33178536D01*
X145518452Y-33174573D01*
X145518964Y-33173547D01*
X145521049Y-33172155D01*
X145568668Y-33124535D01*
X145579506Y-33108314D01*
X145583312Y-33089180D01*
X145583312Y-32755847D01*
X145579506Y-32736713D01*
X145552446Y-32709653D01*
X145533312Y-32705847D01*
X145342836Y-32705847D01*
X145323702Y-32709653D01*
X145296642Y-32736713D01*
X145296642Y-32774981D01*
X145323702Y-32802041D01*
X145342836Y-32805847D01*
X145483312Y-32805847D01*
X145483312Y-33068469D01*
X145458683Y-33093098D01*
X145334723Y-33134419D01*
X145255711Y-33134419D01*
X145131751Y-33093099D01*
X145050595Y-33011942D01*
X145009060Y-32928872D01*
X144964265Y-32749692D01*
X144964265Y-32619145D01*
X145009060Y-32439965D01*
X145050596Y-32356893D01*
X145131749Y-32275739D01*
X145255711Y-32234419D01*
X145378652Y-32234419D01*
X145463332Y-32276759D01*
X145482148Y-32281912D01*
X145518453Y-32269810D01*
X145535567Y-32235582D01*
X145523465Y-32199278D01*
X145508053Y-32187316D01*
X145502259Y-32184419D01*
X145911884Y-32184419D01*
X145911884Y-33184419D01*
X145915690Y-33203553D01*
X145942750Y-33230613D01*
X145981018Y-33230613D01*
X146008078Y-33203553D01*
X146011884Y-33184419D01*
X146011884Y-32372697D01*
X146489900Y-33209226D01*
X146502698Y-33223951D01*
X146509322Y-33225757D01*
X146514178Y-33230613D01*
X146527126Y-33230613D01*
X146539618Y-33234020D01*
X146545580Y-33230613D01*
X146552446Y-33230613D01*
X146561599Y-33221459D01*
X146572844Y-33215034D01*
X146574651Y-33208407D01*
X146579506Y-33203553D01*
X146583312Y-33184419D01*
X146583312Y-32184419D01*
X146959503Y-32184419D01*
X146959503Y-33184419D01*
X146963309Y-33203553D01*
X146990369Y-33230613D01*
X147009503Y-33234419D01*
X147247598Y-33234419D01*
X147255460Y-33232855D01*
X147263409Y-33231853D01*
X147406266Y-33184234D01*
X147408441Y-33182994D01*
X147409590Y-33182994D01*
X147416260Y-33178536D01*
X147423214Y-33174573D01*
X147423726Y-33173547D01*
X147425811Y-33172155D01*
X147521049Y-33076916D01*
X147525502Y-33070250D01*
X147530414Y-33063922D01*
X147578033Y-32968684D01*
X147579479Y-32963402D01*
X147581819Y-32958450D01*
X147629438Y-32767974D01*
X147629735Y-32761856D01*
X147630931Y-32755847D01*
X147630931Y-32612990D01*
X148673789Y-32612990D01*
X148673789Y-32755847D01*
X148674984Y-32761856D01*
X148675282Y-32767974D01*
X148722901Y-32958450D01*
X148725240Y-32963402D01*
X148726687Y-32968684D01*
X148774305Y-33063921D01*
X148779216Y-33070249D01*
X148783671Y-33076916D01*
X148878910Y-33172155D01*
X148880991Y-33173545D01*
X148881505Y-33174573D01*
X148888470Y-33178543D01*
X148895131Y-33182994D01*
X148896279Y-33182994D01*
X148898454Y-33184234D01*
X149041310Y-33231853D01*
X149049260Y-33232855D01*
X149057122Y-33234419D01*
X149152360Y-33234419D01*
X149160222Y-33232855D01*
X149168171Y-33231853D01*
X149311028Y-33184234D01*
X149313203Y-33182994D01*
X149314352Y-33182994D01*
X149321022Y-33178536D01*
X149327976Y-33174573D01*
X149328488Y-33173547D01*
X149330573Y-33172155D01*
X149378192Y-33124535D01*
X149389030Y-33108314D01*
X149392836Y-33089180D01*
X149392836Y-32755847D01*
X149389030Y-32736713D01*
X149361970Y-32709653D01*
X149342836Y-32705847D01*
X149152360Y-32705847D01*
X149133226Y-32709653D01*
X149106166Y-32736713D01*
X149106166Y-32774981D01*
X149133226Y-32802041D01*
X149152360Y-32805847D01*
X149292836Y-32805847D01*
X149292836Y-33068469D01*
X149268207Y-33093098D01*
X149144247Y-33134419D01*
X149065235Y-33134419D01*
X148941275Y-33093099D01*
X148860119Y-33011942D01*
X148818584Y-32928872D01*
X148773789Y-32749692D01*
X148773789Y-32619145D01*
X148818584Y-32439965D01*
X148860120Y-32356893D01*
X148941273Y-32275739D01*
X149065235Y-32234419D01*
X149188176Y-32234419D01*
X149272856Y-32276759D01*
X149291672Y-32281912D01*
X149327977Y-32269810D01*
X149345091Y-32235582D01*
X149332989Y-32199278D01*
X149317577Y-32187316D01*
X149311783Y-32184419D01*
X149721408Y-32184419D01*
X149721408Y-33184419D01*
X149725214Y-33203553D01*
X149752274Y-33230613D01*
X149790542Y-33230613D01*
X149817602Y-33203553D01*
X149821408Y-33184419D01*
X149821408Y-32372697D01*
X150299424Y-33209226D01*
X150312222Y-33223951D01*
X150318846Y-33225757D01*
X150323702Y-33230613D01*
X150336650Y-33230613D01*
X150349142Y-33234020D01*
X150355104Y-33230613D01*
X150361970Y-33230613D01*
X150371123Y-33221459D01*
X150382368Y-33215034D01*
X150384175Y-33208407D01*
X150389030Y-33203553D01*
X150392836Y-33184419D01*
X150392836Y-32184419D01*
X150769027Y-32184419D01*
X150769027Y-33184419D01*
X150772833Y-33203553D01*
X150799893Y-33230613D01*
X150819027Y-33234419D01*
X151057122Y-33234419D01*
X151064984Y-33232855D01*
X151072933Y-33231853D01*
X151215790Y-33184234D01*
X151217965Y-33182994D01*
X151219114Y-33182994D01*
X151225784Y-33178536D01*
X151232738Y-33174573D01*
X151233250Y-33173547D01*
X151235335Y-33172155D01*
X151330573Y-33076916D01*
X151335026Y-33070250D01*
X151339938Y-33063922D01*
X151387557Y-32968684D01*
X151389003Y-32963402D01*
X151391343Y-32958450D01*
X151438962Y-32767974D01*
X151439259Y-32761856D01*
X151440455Y-32755847D01*
X151440455Y-32612990D01*
X151439259Y-32606980D01*
X151438962Y-32600863D01*
X151391343Y-32410387D01*
X151389003Y-32405434D01*
X151387557Y-32400153D01*
X151339938Y-32304915D01*
X151335022Y-32298580D01*
X151330572Y-32291921D01*
X151235334Y-32196683D01*
X151233251Y-32195291D01*
X151232738Y-32194265D01*
X151225777Y-32190297D01*
X151219113Y-32185844D01*
X151217965Y-32185844D01*
X151215790Y-32184604D01*
X151072933Y-32136985D01*
X151064984Y-32135982D01*
X151057122Y-32134419D01*
X150819027Y-32134419D01*
X150799893Y-32138225D01*
X150772833Y-32165285D01*
X150769027Y-32184419D01*
X150392836Y-32184419D01*
X150389030Y-32165285D01*
X150361970Y-32138225D01*
X150323702Y-32138225D01*
X150296642Y-32165285D01*
X150292836Y-32184419D01*
X150292836Y-32996140D01*
X149814820Y-32159612D01*
X149802023Y-32144887D01*
X149795396Y-32143079D01*
X149790542Y-32138225D01*
X149777595Y-32138225D01*
X149765102Y-32134818D01*
X149759140Y-32138225D01*
X149752274Y-32138225D01*
X149743120Y-32147378D01*
X149731876Y-32153804D01*
X149730068Y-32160430D01*
X149725214Y-32165285D01*
X149721408Y-32184419D01*
X149311783Y-32184419D01*
X149222340Y-32139698D01*
X149219924Y-32139036D01*
X149219113Y-32138225D01*
X149211251Y-32136661D01*
X149203524Y-32134545D01*
X149202435Y-32134907D01*
X149199979Y-32134419D01*
X149057122Y-32134419D01*
X149049260Y-32135982D01*
X149041310Y-32136985D01*
X148898454Y-32184604D01*
X148896279Y-32185844D01*
X148895131Y-32185844D01*
X148888470Y-32190294D01*
X148881505Y-32194265D01*
X148880991Y-32195292D01*
X148878910Y-32196683D01*
X148783672Y-32291921D01*
X148779220Y-32298582D01*
X148774305Y-32304916D01*
X148726687Y-32400153D01*
X148725240Y-32405434D01*
X148722901Y-32410387D01*
X148675282Y-32600863D01*
X148674984Y-32606980D01*
X148673789Y-32612990D01*
X147630931Y-32612990D01*
X147629735Y-32606980D01*
X147629438Y-32600863D01*
X147581819Y-32410387D01*
X147579479Y-32405434D01*
X147578033Y-32400153D01*
X147530414Y-32304915D01*
X147525498Y-32298580D01*
X147521048Y-32291921D01*
X147425810Y-32196683D01*
X147423727Y-32195291D01*
X147423214Y-32194265D01*
X147416253Y-32190297D01*
X147409589Y-32185844D01*
X147408441Y-32185844D01*
X147406266Y-32184604D01*
X147263409Y-32136985D01*
X147255460Y-32135982D01*
X147247598Y-32134419D01*
X147009503Y-32134419D01*
X146990369Y-32138225D01*
X146963309Y-32165285D01*
X146959503Y-32184419D01*
X146583312Y-32184419D01*
X146579506Y-32165285D01*
X146552446Y-32138225D01*
X146514178Y-32138225D01*
X146487118Y-32165285D01*
X146483312Y-32184419D01*
X146483312Y-32996140D01*
X146005296Y-32159612D01*
X145992499Y-32144887D01*
X145985872Y-32143079D01*
X145981018Y-32138225D01*
X145968071Y-32138225D01*
X145955578Y-32134818D01*
X145949616Y-32138225D01*
X145942750Y-32138225D01*
X145933596Y-32147378D01*
X145922352Y-32153804D01*
X145920544Y-32160430D01*
X145915690Y-32165285D01*
X145911884Y-32184419D01*
X145502259Y-32184419D01*
X145412816Y-32139698D01*
X145410400Y-32139036D01*
X145409589Y-32138225D01*
X145401727Y-32136661D01*
X145394000Y-32134545D01*
X145392911Y-32134907D01*
X145390455Y-32134419D01*
X145247598Y-32134419D01*
X145239736Y-32135982D01*
X145231786Y-32136985D01*
X145088930Y-32184604D01*
X145086755Y-32185844D01*
X145085607Y-32185844D01*
X145078946Y-32190294D01*
X145071981Y-32194265D01*
X145071467Y-32195292D01*
X145069386Y-32196683D01*
X144974148Y-32291921D01*
X144969696Y-32298582D01*
X144964781Y-32304916D01*
X144917163Y-32400153D01*
X144915716Y-32405434D01*
X144913377Y-32410387D01*
X144865758Y-32600863D01*
X144865460Y-32606980D01*
X144864265Y-32612990D01*
X144753154Y-32612990D01*
X144753154Y-32023308D01*
X151551566Y-32023308D01*
X151551566Y-33345530D01*
G37*
G36*
X144422691Y-61684519D02*
G01*
X143100469Y-61684519D01*
X143100469Y-61237694D01*
X143211580Y-61237694D01*
X143211580Y-61332932D01*
X143213143Y-61340793D01*
X143214146Y-61348744D01*
X143261766Y-61491601D01*
X143263006Y-61493776D01*
X143263006Y-61494923D01*
X143267455Y-61501581D01*
X143271427Y-61508549D01*
X143272454Y-61509062D01*
X143273845Y-61511144D01*
X143321463Y-61558763D01*
X143337684Y-61569602D01*
X143337685Y-61569602D01*
X143356819Y-61573408D01*
X143690152Y-61573408D01*
X143709286Y-61569602D01*
X143736346Y-61542542D01*
X143740152Y-61523408D01*
X143740152Y-61332932D01*
X143736346Y-61313798D01*
X143709286Y-61286738D01*
X143671018Y-61286738D01*
X143643958Y-61313798D01*
X143640152Y-61332932D01*
X143640152Y-61473408D01*
X143377530Y-61473408D01*
X143352901Y-61448780D01*
X143311580Y-61324817D01*
X143311580Y-61245808D01*
X143352901Y-61121845D01*
X143434054Y-61040692D01*
X143517128Y-60999155D01*
X143696307Y-60954361D01*
X143826854Y-60954361D01*
X144006034Y-60999156D01*
X144089106Y-61040692D01*
X144170259Y-61121845D01*
X144211580Y-61245807D01*
X144211580Y-61368747D01*
X144169240Y-61453428D01*
X144164087Y-61472244D01*
X144176188Y-61508549D01*
X144210416Y-61525663D01*
X144246721Y-61513562D01*
X144258682Y-61498150D01*
X144306301Y-61402912D01*
X144306962Y-61400496D01*
X144307774Y-61399685D01*
X144309337Y-61391823D01*
X144311454Y-61384096D01*
X144311091Y-61383007D01*
X144311580Y-61380551D01*
X144311580Y-61237694D01*
X144310016Y-61229832D01*
X144309014Y-61221882D01*
X144261395Y-61079026D01*
X144260155Y-61076850D01*
X144260155Y-61075703D01*
X144255704Y-61069042D01*
X144251734Y-61062077D01*
X144250706Y-61061563D01*
X144249316Y-61059482D01*
X144154078Y-60964244D01*
X144147416Y-60959792D01*
X144141083Y-60954877D01*
X144045846Y-60907259D01*
X144040564Y-60905812D01*
X144035612Y-60903473D01*
X143845136Y-60855854D01*
X143839018Y-60855556D01*
X143833009Y-60854361D01*
X143690152Y-60854361D01*
X143684142Y-60855556D01*
X143678025Y-60855854D01*
X143487549Y-60903473D01*
X143482596Y-60905812D01*
X143477315Y-60907259D01*
X143382077Y-60954878D01*
X143375742Y-60959793D01*
X143369083Y-60964244D01*
X143273845Y-61059482D01*
X143272454Y-61061563D01*
X143271427Y-61062077D01*
X143267455Y-61069044D01*
X143263006Y-61075703D01*
X143263006Y-61076849D01*
X143261766Y-61079025D01*
X143214146Y-61221882D01*
X143213143Y-61229832D01*
X143211580Y-61237694D01*
X143100469Y-61237694D01*
X143100469Y-58551893D01*
X143215386Y-58551893D01*
X143215386Y-58590161D01*
X143242446Y-58617221D01*
X143261580Y-58621027D01*
X143592533Y-58621027D01*
X143592533Y-58951980D01*
X143596339Y-58971114D01*
X143623399Y-58998174D01*
X143661667Y-58998174D01*
X143688727Y-58971114D01*
X143692533Y-58951980D01*
X143692533Y-58621027D01*
X144023485Y-58621027D01*
X144042619Y-58617221D01*
X144069679Y-58590161D01*
X144069679Y-58551893D01*
X144042619Y-58524833D01*
X144023485Y-58521027D01*
X143692533Y-58521027D01*
X143692533Y-58190075D01*
X143688727Y-58170941D01*
X143661667Y-58143881D01*
X143623399Y-58143881D01*
X143596339Y-58170941D01*
X143592533Y-58190075D01*
X143592533Y-58521027D01*
X143261580Y-58521027D01*
X143242446Y-58524833D01*
X143215386Y-58551893D01*
X143100469Y-58551893D01*
X143100469Y-55809122D01*
X143211580Y-55809122D01*
X143211580Y-56047217D01*
X143212068Y-56049673D01*
X143211706Y-56050762D01*
X143213822Y-56058489D01*
X143215386Y-56066351D01*
X143216197Y-56067162D01*
X143216859Y-56069578D01*
X143264479Y-56164816D01*
X143269394Y-56171150D01*
X143273845Y-56177810D01*
X143321463Y-56225429D01*
X143328129Y-56229883D01*
X143334458Y-56234795D01*
X143429696Y-56282414D01*
X143432111Y-56283075D01*
X143432923Y-56283887D01*
X143440784Y-56285450D01*
X143448512Y-56287567D01*
X143449600Y-56287204D01*
X143452057Y-56287693D01*
X143547295Y-56287693D01*
X143549751Y-56287204D01*
X143550840Y-56287567D01*
X143558567Y-56285450D01*
X143566429Y-56283887D01*
X143567240Y-56283075D01*
X143569656Y-56282414D01*
X143664893Y-56234796D01*
X143671226Y-56229880D01*
X143677888Y-56225429D01*
X143725507Y-56177811D01*
X143729961Y-56171144D01*
X143734873Y-56164816D01*
X143782492Y-56069578D01*
X143783938Y-56064296D01*
X143786278Y-56059344D01*
X143832566Y-55874192D01*
X143874101Y-55791120D01*
X143910246Y-55754976D01*
X143987670Y-55716265D01*
X144059301Y-55716265D01*
X144136724Y-55754976D01*
X144172868Y-55791121D01*
X144211580Y-55868544D01*
X144211580Y-56086723D01*
X144166527Y-56221882D01*
X144164087Y-56241237D01*
X144181201Y-56275466D01*
X144217505Y-56287567D01*
X144251734Y-56270453D01*
X144261395Y-56253504D01*
X144309014Y-56110648D01*
X144310016Y-56102697D01*
X144311580Y-56094836D01*
X144311580Y-55856741D01*
X144311091Y-55854284D01*
X144311454Y-55853196D01*
X144309337Y-55845468D01*
X144307774Y-55837607D01*
X144306962Y-55836795D01*
X144306301Y-55834380D01*
X144258682Y-55739142D01*
X144253770Y-55732813D01*
X144249316Y-55726147D01*
X144201697Y-55678529D01*
X144195035Y-55674077D01*
X144188702Y-55669162D01*
X144093465Y-55621544D01*
X144091049Y-55620882D01*
X144090238Y-55620071D01*
X144082376Y-55618507D01*
X144074649Y-55616391D01*
X144073560Y-55616753D01*
X144071104Y-55616265D01*
X143975866Y-55616265D01*
X143973409Y-55616753D01*
X143972321Y-55616391D01*
X143964593Y-55618507D01*
X143956732Y-55620071D01*
X143955920Y-55620882D01*
X143953505Y-55621544D01*
X143858267Y-55669163D01*
X143851938Y-55674074D01*
X143845272Y-55678529D01*
X143797654Y-55726148D01*
X143793202Y-55732809D01*
X143788287Y-55739143D01*
X143740669Y-55834380D01*
X143739222Y-55839661D01*
X143736883Y-55844614D01*
X143690595Y-56029764D01*
X143649059Y-56112836D01*
X143612915Y-56148981D01*
X143535492Y-56187693D01*
X143463861Y-56187693D01*
X143386437Y-56148981D01*
X143350292Y-56112837D01*
X143311580Y-56035413D01*
X143311580Y-55817236D01*
X143356634Y-55682077D01*
X143359074Y-55662721D01*
X143341960Y-55628492D01*
X143305656Y-55616391D01*
X143271427Y-55633505D01*
X143261766Y-55650453D01*
X143214146Y-55793310D01*
X143213143Y-55801260D01*
X143211580Y-55809122D01*
X143100469Y-55809122D01*
X143100469Y-55505154D01*
X144422691Y-55505154D01*
X144422691Y-61684519D01*
G37*
G36*
X163007580Y-106504914D02*
G01*
X162966259Y-106628875D01*
X162885106Y-106710029D01*
X162802034Y-106751565D01*
X162622854Y-106796360D01*
X162492307Y-106796360D01*
X162313128Y-106751565D01*
X162230054Y-106710028D01*
X162148901Y-106628875D01*
X162107580Y-106504912D01*
X162107580Y-106324932D01*
X163007580Y-106324932D01*
X163007580Y-106504914D01*
G37*
G36*
X163007580Y-101933485D02*
G01*
X162966259Y-102057446D01*
X162885106Y-102138600D01*
X162802034Y-102180136D01*
X162622854Y-102224931D01*
X162492307Y-102224931D01*
X162313128Y-102180136D01*
X162230054Y-102138599D01*
X162148901Y-102057446D01*
X162107580Y-101933483D01*
X162107580Y-101753503D01*
X163007580Y-101753503D01*
X163007580Y-101933485D01*
G37*
G36*
X163218691Y-107007471D02*
G01*
X161896469Y-107007471D01*
X161896469Y-106274932D01*
X162007580Y-106274932D01*
X162007580Y-106513027D01*
X162009143Y-106520888D01*
X162010146Y-106528839D01*
X162057766Y-106671696D01*
X162059006Y-106673871D01*
X162059006Y-106675018D01*
X162063455Y-106681676D01*
X162067427Y-106688644D01*
X162068454Y-106689157D01*
X162069845Y-106691239D01*
X162165083Y-106786477D01*
X162171742Y-106790927D01*
X162178077Y-106795843D01*
X162273315Y-106843462D01*
X162278596Y-106844908D01*
X162283549Y-106847248D01*
X162474025Y-106894867D01*
X162480142Y-106895164D01*
X162486152Y-106896360D01*
X162629009Y-106896360D01*
X162635018Y-106895164D01*
X162641136Y-106894867D01*
X162831612Y-106847248D01*
X162836564Y-106844908D01*
X162841846Y-106843462D01*
X162937083Y-106795844D01*
X162943416Y-106790928D01*
X162950078Y-106786477D01*
X163045316Y-106691239D01*
X163046706Y-106689157D01*
X163047734Y-106688644D01*
X163051704Y-106681678D01*
X163056155Y-106675018D01*
X163056155Y-106673870D01*
X163057395Y-106671695D01*
X163105014Y-106528839D01*
X163106016Y-106520888D01*
X163107580Y-106513027D01*
X163107580Y-106274932D01*
X163103774Y-106255798D01*
X163076714Y-106228738D01*
X163057580Y-106224932D01*
X162057580Y-106224932D01*
X162038446Y-106228738D01*
X162011386Y-106255798D01*
X162007580Y-106274932D01*
X161896469Y-106274932D01*
X161896469Y-105805047D01*
X162007979Y-105805047D01*
X162011386Y-105811009D01*
X162011386Y-105817875D01*
X162020539Y-105827028D01*
X162026965Y-105838273D01*
X162033591Y-105840080D01*
X162038446Y-105844935D01*
X162057580Y-105848741D01*
X163057580Y-105848741D01*
X163076714Y-105844935D01*
X163103774Y-105817875D01*
X163103774Y-105779607D01*
X163076714Y-105752547D01*
X163057580Y-105748741D01*
X162245858Y-105748741D01*
X163082387Y-105270725D01*
X163097112Y-105257927D01*
X163098918Y-105251302D01*
X163103774Y-105246447D01*
X163103774Y-105233499D01*
X163107181Y-105221007D01*
X163103774Y-105215044D01*
X163103774Y-105208179D01*
X163094620Y-105199025D01*
X163088195Y-105187781D01*
X163081568Y-105185973D01*
X163076714Y-105181119D01*
X163057580Y-105177313D01*
X162057580Y-105177313D01*
X162038446Y-105181119D01*
X162011386Y-105208179D01*
X162011386Y-105246447D01*
X162038446Y-105273507D01*
X162057580Y-105277313D01*
X162869302Y-105277313D01*
X162032773Y-105755329D01*
X162018048Y-105768126D01*
X162016240Y-105774752D01*
X162011386Y-105779607D01*
X162011386Y-105792554D01*
X162007979Y-105805047D01*
X161896469Y-105805047D01*
X161896469Y-104513027D01*
X162007580Y-104513027D01*
X162007580Y-104608265D01*
X162009143Y-104616126D01*
X162010146Y-104624077D01*
X162057766Y-104766934D01*
X162059006Y-104769109D01*
X162059006Y-104770256D01*
X162063455Y-104776914D01*
X162067427Y-104783882D01*
X162068454Y-104784395D01*
X162069845Y-104786477D01*
X162117463Y-104834096D01*
X162133684Y-104844935D01*
X162133685Y-104844935D01*
X162152819Y-104848741D01*
X162486152Y-104848741D01*
X162505286Y-104844935D01*
X162532346Y-104817875D01*
X162536152Y-104798741D01*
X162536152Y-104608265D01*
X162532346Y-104589131D01*
X162505286Y-104562071D01*
X162467018Y-104562071D01*
X162439958Y-104589131D01*
X162436152Y-104608265D01*
X162436152Y-104748741D01*
X162173530Y-104748741D01*
X162148901Y-104724113D01*
X162107580Y-104600150D01*
X162107580Y-104521141D01*
X162148901Y-104397178D01*
X162230054Y-104316025D01*
X162313128Y-104274488D01*
X162492307Y-104229694D01*
X162622854Y-104229694D01*
X162802034Y-104274489D01*
X162885106Y-104316025D01*
X162966259Y-104397178D01*
X163007580Y-104521140D01*
X163007580Y-104644080D01*
X162965240Y-104728761D01*
X162960087Y-104747577D01*
X162972188Y-104783882D01*
X163006416Y-104800996D01*
X163042721Y-104788895D01*
X163054682Y-104773483D01*
X163102301Y-104678245D01*
X163102962Y-104675829D01*
X163103774Y-104675018D01*
X163105337Y-104667156D01*
X163107454Y-104659429D01*
X163107091Y-104658340D01*
X163107580Y-104655884D01*
X163107580Y-104513027D01*
X163106016Y-104505165D01*
X163105014Y-104497215D01*
X163057395Y-104354359D01*
X163056155Y-104352183D01*
X163056155Y-104351036D01*
X163051704Y-104344375D01*
X163047734Y-104337410D01*
X163046706Y-104336896D01*
X163045316Y-104334815D01*
X162950078Y-104239577D01*
X162943416Y-104235125D01*
X162937083Y-104230210D01*
X162841846Y-104182592D01*
X162836564Y-104181145D01*
X162831612Y-104178806D01*
X162641136Y-104131187D01*
X162635018Y-104130889D01*
X162629009Y-104129694D01*
X162486152Y-104129694D01*
X162480142Y-104130889D01*
X162474025Y-104131187D01*
X162283549Y-104178806D01*
X162278596Y-104181145D01*
X162273315Y-104182592D01*
X162178077Y-104230211D01*
X162171742Y-104235126D01*
X162165083Y-104239577D01*
X162069845Y-104334815D01*
X162068454Y-104336896D01*
X162067427Y-104337410D01*
X162063455Y-104344377D01*
X162059006Y-104351036D01*
X162059006Y-104352182D01*
X162057766Y-104354358D01*
X162010146Y-104497215D01*
X162009143Y-104505165D01*
X162007580Y-104513027D01*
X161896469Y-104513027D01*
X161896469Y-101703503D01*
X162007580Y-101703503D01*
X162007580Y-101941598D01*
X162009143Y-101949459D01*
X162010146Y-101957410D01*
X162057766Y-102100267D01*
X162059006Y-102102442D01*
X162059006Y-102103589D01*
X162063455Y-102110247D01*
X162067427Y-102117215D01*
X162068454Y-102117728D01*
X162069845Y-102119810D01*
X162165083Y-102215048D01*
X162171742Y-102219498D01*
X162178077Y-102224414D01*
X162273315Y-102272033D01*
X162278596Y-102273479D01*
X162283549Y-102275819D01*
X162474025Y-102323438D01*
X162480142Y-102323735D01*
X162486152Y-102324931D01*
X162629009Y-102324931D01*
X162635018Y-102323735D01*
X162641136Y-102323438D01*
X162831612Y-102275819D01*
X162836564Y-102273479D01*
X162841846Y-102272033D01*
X162937083Y-102224415D01*
X162943416Y-102219499D01*
X162950078Y-102215048D01*
X163045316Y-102119810D01*
X163046706Y-102117728D01*
X163047734Y-102117215D01*
X163051704Y-102110249D01*
X163056155Y-102103589D01*
X163056155Y-102102441D01*
X163057395Y-102100266D01*
X163105014Y-101957410D01*
X163106016Y-101949459D01*
X163107580Y-101941598D01*
X163107580Y-101703503D01*
X163103774Y-101684369D01*
X163076714Y-101657309D01*
X163057580Y-101653503D01*
X162057580Y-101653503D01*
X162038446Y-101657309D01*
X162011386Y-101684369D01*
X162007580Y-101703503D01*
X161896469Y-101703503D01*
X161896469Y-101233618D01*
X162007979Y-101233618D01*
X162011386Y-101239580D01*
X162011386Y-101246446D01*
X162020539Y-101255599D01*
X162026965Y-101266844D01*
X162033591Y-101268651D01*
X162038446Y-101273506D01*
X162057580Y-101277312D01*
X163057580Y-101277312D01*
X163076714Y-101273506D01*
X163103774Y-101246446D01*
X163103774Y-101208178D01*
X163076714Y-101181118D01*
X163057580Y-101177312D01*
X162245858Y-101177312D01*
X163082387Y-100699296D01*
X163097112Y-100686498D01*
X163098918Y-100679873D01*
X163103774Y-100675018D01*
X163103774Y-100662070D01*
X163107181Y-100649578D01*
X163103774Y-100643615D01*
X163103774Y-100636750D01*
X163094620Y-100627596D01*
X163088195Y-100616352D01*
X163081568Y-100614544D01*
X163076714Y-100609690D01*
X163057580Y-100605884D01*
X162057580Y-100605884D01*
X162038446Y-100609690D01*
X162011386Y-100636750D01*
X162011386Y-100675018D01*
X162038446Y-100702078D01*
X162057580Y-100705884D01*
X162869302Y-100705884D01*
X162032773Y-101183900D01*
X162018048Y-101196697D01*
X162016240Y-101203323D01*
X162011386Y-101208178D01*
X162011386Y-101221125D01*
X162007979Y-101233618D01*
X161896469Y-101233618D01*
X161896469Y-99941598D01*
X162007580Y-99941598D01*
X162007580Y-100036836D01*
X162009143Y-100044697D01*
X162010146Y-100052648D01*
X162057766Y-100195505D01*
X162059006Y-100197680D01*
X162059006Y-100198827D01*
X162063455Y-100205485D01*
X162067427Y-100212453D01*
X162068454Y-100212966D01*
X162069845Y-100215048D01*
X162117463Y-100262667D01*
X162133684Y-100273506D01*
X162133685Y-100273506D01*
X162152819Y-100277312D01*
X162486152Y-100277312D01*
X162505286Y-100273506D01*
X162532346Y-100246446D01*
X162536152Y-100227312D01*
X162536152Y-100036836D01*
X162532346Y-100017702D01*
X162505286Y-99990642D01*
X162467018Y-99990642D01*
X162439958Y-100017702D01*
X162436152Y-100036836D01*
X162436152Y-100177312D01*
X162173530Y-100177312D01*
X162148901Y-100152684D01*
X162107580Y-100028721D01*
X162107580Y-99949712D01*
X162148901Y-99825749D01*
X162230054Y-99744596D01*
X162313128Y-99703059D01*
X162492307Y-99658265D01*
X162622854Y-99658265D01*
X162802034Y-99703060D01*
X162885106Y-99744596D01*
X162966259Y-99825749D01*
X163007580Y-99949711D01*
X163007580Y-100072651D01*
X162965240Y-100157332D01*
X162960087Y-100176148D01*
X162972188Y-100212453D01*
X163006416Y-100229567D01*
X163042721Y-100217466D01*
X163054682Y-100202054D01*
X163102301Y-100106816D01*
X163102962Y-100104400D01*
X163103774Y-100103589D01*
X163105337Y-100095727D01*
X163107454Y-100088000D01*
X163107091Y-100086911D01*
X163107580Y-100084455D01*
X163107580Y-99941598D01*
X163106016Y-99933736D01*
X163105014Y-99925786D01*
X163057395Y-99782930D01*
X163056155Y-99780754D01*
X163056155Y-99779607D01*
X163051704Y-99772946D01*
X163047734Y-99765981D01*
X163046706Y-99765467D01*
X163045316Y-99763386D01*
X162950078Y-99668148D01*
X162943416Y-99663696D01*
X162937083Y-99658781D01*
X162841846Y-99611163D01*
X162836564Y-99609716D01*
X162831612Y-99607377D01*
X162641136Y-99559758D01*
X162635018Y-99559460D01*
X162629009Y-99558265D01*
X162486152Y-99558265D01*
X162480142Y-99559460D01*
X162474025Y-99559758D01*
X162283549Y-99607377D01*
X162278596Y-99609716D01*
X162273315Y-99611163D01*
X162178077Y-99658782D01*
X162171742Y-99663697D01*
X162165083Y-99668148D01*
X162069845Y-99763386D01*
X162068454Y-99765467D01*
X162067427Y-99765981D01*
X162063455Y-99772948D01*
X162059006Y-99779607D01*
X162059006Y-99780753D01*
X162057766Y-99782929D01*
X162010146Y-99925786D01*
X162009143Y-99933736D01*
X162007580Y-99941598D01*
X161896469Y-99941598D01*
X161896469Y-99447154D01*
X163218691Y-99447154D01*
X163218691Y-107007471D01*
G37*
X183662419Y-66932972D02*
X184662419Y-66599639D01*
X184662419Y-66599639D02*
X183662419Y-66266306D01*
X184662419Y-65932972D02*
X183662419Y-65932972D01*
X183662419Y-65932972D02*
X184376704Y-65599639D01*
X184376704Y-65599639D02*
X183662419Y-65266306D01*
X183662419Y-65266306D02*
X184662419Y-65266306D01*
X184662419Y-64790115D02*
X183662419Y-64790115D01*
X183662419Y-64790115D02*
X183662419Y-64552020D01*
X183662419Y-64552020D02*
X183710038Y-64409163D01*
X183710038Y-64409163D02*
X183805276Y-64313925D01*
X183805276Y-64313925D02*
X183900514Y-64266306D01*
X183900514Y-64266306D02*
X184090990Y-64218687D01*
X184090990Y-64218687D02*
X184233847Y-64218687D01*
X184233847Y-64218687D02*
X184424323Y-64266306D01*
X184424323Y-64266306D02*
X184519561Y-64313925D01*
X184519561Y-64313925D02*
X184614800Y-64409163D01*
X184614800Y-64409163D02*
X184662419Y-64552020D01*
X184662419Y-64552020D02*
X184662419Y-64790115D01*
X183757657Y-63837734D02*
X183710038Y-63790115D01*
X183710038Y-63790115D02*
X183662419Y-63694877D01*
X183662419Y-63694877D02*
X183662419Y-63456782D01*
X183662419Y-63456782D02*
X183710038Y-63361544D01*
X183710038Y-63361544D02*
X183757657Y-63313925D01*
X183757657Y-63313925D02*
X183852895Y-63266306D01*
X183852895Y-63266306D02*
X183948133Y-63266306D01*
X183948133Y-63266306D02*
X184090990Y-63313925D01*
X184090990Y-63313925D02*
X184662419Y-63885353D01*
X184662419Y-63885353D02*
X184662419Y-63266306D01*
X183614800Y-62123449D02*
X184900514Y-62980591D01*
X183662419Y-61932972D02*
X184662419Y-61599639D01*
X184662419Y-61599639D02*
X183662419Y-61266306D01*
X184662419Y-60932972D02*
X183662419Y-60932972D01*
X183662419Y-60932972D02*
X184376704Y-60599639D01*
X184376704Y-60599639D02*
X183662419Y-60266306D01*
X183662419Y-60266306D02*
X184662419Y-60266306D01*
X184662419Y-59790115D02*
X183662419Y-59790115D01*
X183662419Y-59790115D02*
X183662419Y-59552020D01*
X183662419Y-59552020D02*
X183710038Y-59409163D01*
X183710038Y-59409163D02*
X183805276Y-59313925D01*
X183805276Y-59313925D02*
X183900514Y-59266306D01*
X183900514Y-59266306D02*
X184090990Y-59218687D01*
X184090990Y-59218687D02*
X184233847Y-59218687D01*
X184233847Y-59218687D02*
X184424323Y-59266306D01*
X184424323Y-59266306D02*
X184519561Y-59313925D01*
X184519561Y-59313925D02*
X184614800Y-59409163D01*
X184614800Y-59409163D02*
X184662419Y-59552020D01*
X184662419Y-59552020D02*
X184662419Y-59790115D01*
X184662419Y-58266306D02*
X184662419Y-58837734D01*
X184662419Y-58552020D02*
X183662419Y-58552020D01*
X183662419Y-58552020D02*
X183805276Y-58647258D01*
X183805276Y-58647258D02*
X183900514Y-58742496D01*
X183900514Y-58742496D02*
X183948133Y-58837734D01*
G36*
X126642691Y-50538519D02*
G01*
X125320469Y-50538519D01*
X125320469Y-50091694D01*
X125431580Y-50091694D01*
X125431580Y-50186932D01*
X125433143Y-50194793D01*
X125434146Y-50202744D01*
X125481766Y-50345601D01*
X125483006Y-50347776D01*
X125483006Y-50348923D01*
X125487455Y-50355581D01*
X125491427Y-50362549D01*
X125492454Y-50363062D01*
X125493845Y-50365144D01*
X125541463Y-50412763D01*
X125557684Y-50423602D01*
X125557685Y-50423602D01*
X125576819Y-50427408D01*
X125910152Y-50427408D01*
X125929286Y-50423602D01*
X125956346Y-50396542D01*
X125960152Y-50377408D01*
X125960152Y-50186932D01*
X125956346Y-50167798D01*
X125929286Y-50140738D01*
X125891018Y-50140738D01*
X125863958Y-50167798D01*
X125860152Y-50186932D01*
X125860152Y-50327408D01*
X125597530Y-50327408D01*
X125572901Y-50302780D01*
X125531580Y-50178817D01*
X125531580Y-50099808D01*
X125572901Y-49975845D01*
X125654054Y-49894692D01*
X125737128Y-49853155D01*
X125916307Y-49808361D01*
X126046854Y-49808361D01*
X126226034Y-49853156D01*
X126309106Y-49894692D01*
X126390259Y-49975845D01*
X126431580Y-50099807D01*
X126431580Y-50222747D01*
X126389240Y-50307428D01*
X126384087Y-50326244D01*
X126396188Y-50362549D01*
X126430416Y-50379663D01*
X126466721Y-50367562D01*
X126478682Y-50352150D01*
X126526301Y-50256912D01*
X126526962Y-50254496D01*
X126527774Y-50253685D01*
X126529337Y-50245823D01*
X126531454Y-50238096D01*
X126531091Y-50237007D01*
X126531580Y-50234551D01*
X126531580Y-50091694D01*
X126530016Y-50083832D01*
X126529014Y-50075882D01*
X126481395Y-49933026D01*
X126480155Y-49930850D01*
X126480155Y-49929703D01*
X126475704Y-49923042D01*
X126471734Y-49916077D01*
X126470706Y-49915563D01*
X126469316Y-49913482D01*
X126374078Y-49818244D01*
X126367416Y-49813792D01*
X126361083Y-49808877D01*
X126265846Y-49761259D01*
X126260564Y-49759812D01*
X126255612Y-49757473D01*
X126065136Y-49709854D01*
X126059018Y-49709556D01*
X126053009Y-49708361D01*
X125910152Y-49708361D01*
X125904142Y-49709556D01*
X125898025Y-49709854D01*
X125707549Y-49757473D01*
X125702596Y-49759812D01*
X125697315Y-49761259D01*
X125602077Y-49808878D01*
X125595742Y-49813793D01*
X125589083Y-49818244D01*
X125493845Y-49913482D01*
X125492454Y-49915563D01*
X125491427Y-49916077D01*
X125487455Y-49923044D01*
X125483006Y-49929703D01*
X125483006Y-49930849D01*
X125481766Y-49933025D01*
X125434146Y-50075882D01*
X125433143Y-50083832D01*
X125431580Y-50091694D01*
X125320469Y-50091694D01*
X125320469Y-47405893D01*
X125435386Y-47405893D01*
X125435386Y-47444161D01*
X125462446Y-47471221D01*
X125481580Y-47475027D01*
X125812533Y-47475027D01*
X125812533Y-47805980D01*
X125816339Y-47825114D01*
X125843399Y-47852174D01*
X125881667Y-47852174D01*
X125908727Y-47825114D01*
X125912533Y-47805980D01*
X125912533Y-47475027D01*
X126243485Y-47475027D01*
X126262619Y-47471221D01*
X126289679Y-47444161D01*
X126289679Y-47405893D01*
X126262619Y-47378833D01*
X126243485Y-47375027D01*
X125912533Y-47375027D01*
X125912533Y-47044075D01*
X125908727Y-47024941D01*
X125881667Y-46997881D01*
X125843399Y-46997881D01*
X125816339Y-47024941D01*
X125812533Y-47044075D01*
X125812533Y-47375027D01*
X125481580Y-47375027D01*
X125462446Y-47378833D01*
X125435386Y-47405893D01*
X125320469Y-47405893D01*
X125320469Y-44663122D01*
X125431580Y-44663122D01*
X125431580Y-44901217D01*
X125432068Y-44903673D01*
X125431706Y-44904762D01*
X125433822Y-44912489D01*
X125435386Y-44920351D01*
X125436197Y-44921162D01*
X125436859Y-44923578D01*
X125484479Y-45018816D01*
X125489394Y-45025150D01*
X125493845Y-45031810D01*
X125541463Y-45079429D01*
X125548129Y-45083883D01*
X125554458Y-45088795D01*
X125649696Y-45136414D01*
X125652111Y-45137075D01*
X125652923Y-45137887D01*
X125660784Y-45139450D01*
X125668512Y-45141567D01*
X125669600Y-45141204D01*
X125672057Y-45141693D01*
X125767295Y-45141693D01*
X125769751Y-45141204D01*
X125770840Y-45141567D01*
X125778567Y-45139450D01*
X125786429Y-45137887D01*
X125787240Y-45137075D01*
X125789656Y-45136414D01*
X125884893Y-45088796D01*
X125891226Y-45083880D01*
X125897888Y-45079429D01*
X125945507Y-45031811D01*
X125949961Y-45025144D01*
X125954873Y-45018816D01*
X126002492Y-44923578D01*
X126003938Y-44918296D01*
X126006278Y-44913344D01*
X126052566Y-44728192D01*
X126094101Y-44645120D01*
X126130246Y-44608976D01*
X126207670Y-44570265D01*
X126279301Y-44570265D01*
X126356724Y-44608976D01*
X126392868Y-44645121D01*
X126431580Y-44722544D01*
X126431580Y-44940723D01*
X126386527Y-45075882D01*
X126384087Y-45095237D01*
X126401201Y-45129466D01*
X126437505Y-45141567D01*
X126471734Y-45124453D01*
X126481395Y-45107504D01*
X126529014Y-44964648D01*
X126530016Y-44956697D01*
X126531580Y-44948836D01*
X126531580Y-44710741D01*
X126531091Y-44708284D01*
X126531454Y-44707196D01*
X126529337Y-44699468D01*
X126527774Y-44691607D01*
X126526962Y-44690795D01*
X126526301Y-44688380D01*
X126478682Y-44593142D01*
X126473770Y-44586813D01*
X126469316Y-44580147D01*
X126421697Y-44532529D01*
X126415035Y-44528077D01*
X126408702Y-44523162D01*
X126313465Y-44475544D01*
X126311049Y-44474882D01*
X126310238Y-44474071D01*
X126302376Y-44472507D01*
X126294649Y-44470391D01*
X126293560Y-44470753D01*
X126291104Y-44470265D01*
X126195866Y-44470265D01*
X126193409Y-44470753D01*
X126192321Y-44470391D01*
X126184593Y-44472507D01*
X126176732Y-44474071D01*
X126175920Y-44474882D01*
X126173505Y-44475544D01*
X126078267Y-44523163D01*
X126071938Y-44528074D01*
X126065272Y-44532529D01*
X126017654Y-44580148D01*
X126013202Y-44586809D01*
X126008287Y-44593143D01*
X125960669Y-44688380D01*
X125959222Y-44693661D01*
X125956883Y-44698614D01*
X125910595Y-44883764D01*
X125869059Y-44966836D01*
X125832915Y-45002981D01*
X125755492Y-45041693D01*
X125683861Y-45041693D01*
X125606437Y-45002981D01*
X125570292Y-44966837D01*
X125531580Y-44889413D01*
X125531580Y-44671236D01*
X125576634Y-44536077D01*
X125579074Y-44516721D01*
X125561960Y-44482492D01*
X125525656Y-44470391D01*
X125491427Y-44487505D01*
X125481766Y-44504453D01*
X125434146Y-44647310D01*
X125433143Y-44655260D01*
X125431580Y-44663122D01*
X125320469Y-44663122D01*
X125320469Y-44359154D01*
X126642691Y-44359154D01*
X126642691Y-50538519D01*
G37*
G36*
X126642691Y-61684519D02*
G01*
X125320469Y-61684519D01*
X125320469Y-61237694D01*
X125431580Y-61237694D01*
X125431580Y-61332932D01*
X125433143Y-61340793D01*
X125434146Y-61348744D01*
X125481766Y-61491601D01*
X125483006Y-61493776D01*
X125483006Y-61494923D01*
X125487455Y-61501581D01*
X125491427Y-61508549D01*
X125492454Y-61509062D01*
X125493845Y-61511144D01*
X125541463Y-61558763D01*
X125557684Y-61569602D01*
X125557685Y-61569602D01*
X125576819Y-61573408D01*
X125910152Y-61573408D01*
X125929286Y-61569602D01*
X125956346Y-61542542D01*
X125960152Y-61523408D01*
X125960152Y-61332932D01*
X125956346Y-61313798D01*
X125929286Y-61286738D01*
X125891018Y-61286738D01*
X125863958Y-61313798D01*
X125860152Y-61332932D01*
X125860152Y-61473408D01*
X125597530Y-61473408D01*
X125572901Y-61448780D01*
X125531580Y-61324817D01*
X125531580Y-61245808D01*
X125572901Y-61121845D01*
X125654054Y-61040692D01*
X125737128Y-60999155D01*
X125916307Y-60954361D01*
X126046854Y-60954361D01*
X126226034Y-60999156D01*
X126309106Y-61040692D01*
X126390259Y-61121845D01*
X126431580Y-61245807D01*
X126431580Y-61368747D01*
X126389240Y-61453428D01*
X126384087Y-61472244D01*
X126396188Y-61508549D01*
X126430416Y-61525663D01*
X126466721Y-61513562D01*
X126478682Y-61498150D01*
X126526301Y-61402912D01*
X126526962Y-61400496D01*
X126527774Y-61399685D01*
X126529337Y-61391823D01*
X126531454Y-61384096D01*
X126531091Y-61383007D01*
X126531580Y-61380551D01*
X126531580Y-61237694D01*
X126530016Y-61229832D01*
X126529014Y-61221882D01*
X126481395Y-61079026D01*
X126480155Y-61076850D01*
X126480155Y-61075703D01*
X126475704Y-61069042D01*
X126471734Y-61062077D01*
X126470706Y-61061563D01*
X126469316Y-61059482D01*
X126374078Y-60964244D01*
X126367416Y-60959792D01*
X126361083Y-60954877D01*
X126265846Y-60907259D01*
X126260564Y-60905812D01*
X126255612Y-60903473D01*
X126065136Y-60855854D01*
X126059018Y-60855556D01*
X126053009Y-60854361D01*
X125910152Y-60854361D01*
X125904142Y-60855556D01*
X125898025Y-60855854D01*
X125707549Y-60903473D01*
X125702596Y-60905812D01*
X125697315Y-60907259D01*
X125602077Y-60954878D01*
X125595742Y-60959793D01*
X125589083Y-60964244D01*
X125493845Y-61059482D01*
X125492454Y-61061563D01*
X125491427Y-61062077D01*
X125487455Y-61069044D01*
X125483006Y-61075703D01*
X125483006Y-61076849D01*
X125481766Y-61079025D01*
X125434146Y-61221882D01*
X125433143Y-61229832D01*
X125431580Y-61237694D01*
X125320469Y-61237694D01*
X125320469Y-58551893D01*
X125435386Y-58551893D01*
X125435386Y-58590161D01*
X125462446Y-58617221D01*
X125481580Y-58621027D01*
X125812533Y-58621027D01*
X125812533Y-58951980D01*
X125816339Y-58971114D01*
X125843399Y-58998174D01*
X125881667Y-58998174D01*
X125908727Y-58971114D01*
X125912533Y-58951980D01*
X125912533Y-58621027D01*
X126243485Y-58621027D01*
X126262619Y-58617221D01*
X126289679Y-58590161D01*
X126289679Y-58551893D01*
X126262619Y-58524833D01*
X126243485Y-58521027D01*
X125912533Y-58521027D01*
X125912533Y-58190075D01*
X125908727Y-58170941D01*
X125881667Y-58143881D01*
X125843399Y-58143881D01*
X125816339Y-58170941D01*
X125812533Y-58190075D01*
X125812533Y-58521027D01*
X125481580Y-58521027D01*
X125462446Y-58524833D01*
X125435386Y-58551893D01*
X125320469Y-58551893D01*
X125320469Y-55809122D01*
X125431580Y-55809122D01*
X125431580Y-56047217D01*
X125432068Y-56049673D01*
X125431706Y-56050762D01*
X125433822Y-56058489D01*
X125435386Y-56066351D01*
X125436197Y-56067162D01*
X125436859Y-56069578D01*
X125484479Y-56164816D01*
X125489394Y-56171150D01*
X125493845Y-56177810D01*
X125541463Y-56225429D01*
X125548129Y-56229883D01*
X125554458Y-56234795D01*
X125649696Y-56282414D01*
X125652111Y-56283075D01*
X125652923Y-56283887D01*
X125660784Y-56285450D01*
X125668512Y-56287567D01*
X125669600Y-56287204D01*
X125672057Y-56287693D01*
X125767295Y-56287693D01*
X125769751Y-56287204D01*
X125770840Y-56287567D01*
X125778567Y-56285450D01*
X125786429Y-56283887D01*
X125787240Y-56283075D01*
X125789656Y-56282414D01*
X125884893Y-56234796D01*
X125891226Y-56229880D01*
X125897888Y-56225429D01*
X125945507Y-56177811D01*
X125949961Y-56171144D01*
X125954873Y-56164816D01*
X126002492Y-56069578D01*
X126003938Y-56064296D01*
X126006278Y-56059344D01*
X126052566Y-55874192D01*
X126094101Y-55791120D01*
X126130246Y-55754976D01*
X126207670Y-55716265D01*
X126279301Y-55716265D01*
X126356724Y-55754976D01*
X126392868Y-55791121D01*
X126431580Y-55868544D01*
X126431580Y-56086723D01*
X126386527Y-56221882D01*
X126384087Y-56241237D01*
X126401201Y-56275466D01*
X126437505Y-56287567D01*
X126471734Y-56270453D01*
X126481395Y-56253504D01*
X126529014Y-56110648D01*
X126530016Y-56102697D01*
X126531580Y-56094836D01*
X126531580Y-55856741D01*
X126531091Y-55854284D01*
X126531454Y-55853196D01*
X126529337Y-55845468D01*
X126527774Y-55837607D01*
X126526962Y-55836795D01*
X126526301Y-55834380D01*
X126478682Y-55739142D01*
X126473770Y-55732813D01*
X126469316Y-55726147D01*
X126421697Y-55678529D01*
X126415035Y-55674077D01*
X126408702Y-55669162D01*
X126313465Y-55621544D01*
X126311049Y-55620882D01*
X126310238Y-55620071D01*
X126302376Y-55618507D01*
X126294649Y-55616391D01*
X126293560Y-55616753D01*
X126291104Y-55616265D01*
X126195866Y-55616265D01*
X126193409Y-55616753D01*
X126192321Y-55616391D01*
X126184593Y-55618507D01*
X126176732Y-55620071D01*
X126175920Y-55620882D01*
X126173505Y-55621544D01*
X126078267Y-55669163D01*
X126071938Y-55674074D01*
X126065272Y-55678529D01*
X126017654Y-55726148D01*
X126013202Y-55732809D01*
X126008287Y-55739143D01*
X125960669Y-55834380D01*
X125959222Y-55839661D01*
X125956883Y-55844614D01*
X125910595Y-56029764D01*
X125869059Y-56112836D01*
X125832915Y-56148981D01*
X125755492Y-56187693D01*
X125683861Y-56187693D01*
X125606437Y-56148981D01*
X125570292Y-56112837D01*
X125531580Y-56035413D01*
X125531580Y-55817236D01*
X125576634Y-55682077D01*
X125579074Y-55662721D01*
X125561960Y-55628492D01*
X125525656Y-55616391D01*
X125491427Y-55633505D01*
X125481766Y-55650453D01*
X125434146Y-55793310D01*
X125433143Y-55801260D01*
X125431580Y-55809122D01*
X125320469Y-55809122D01*
X125320469Y-55505154D01*
X126642691Y-55505154D01*
X126642691Y-61684519D01*
G37*
G36*
X126896691Y-83782519D02*
G01*
X125574469Y-83782519D01*
X125574469Y-83335694D01*
X125685580Y-83335694D01*
X125685580Y-83430932D01*
X125687143Y-83438793D01*
X125688146Y-83446744D01*
X125735766Y-83589601D01*
X125737006Y-83591776D01*
X125737006Y-83592923D01*
X125741455Y-83599581D01*
X125745427Y-83606549D01*
X125746454Y-83607062D01*
X125747845Y-83609144D01*
X125795463Y-83656763D01*
X125811684Y-83667602D01*
X125811685Y-83667602D01*
X125830819Y-83671408D01*
X126164152Y-83671408D01*
X126183286Y-83667602D01*
X126210346Y-83640542D01*
X126214152Y-83621408D01*
X126214152Y-83430932D01*
X126210346Y-83411798D01*
X126183286Y-83384738D01*
X126145018Y-83384738D01*
X126117958Y-83411798D01*
X126114152Y-83430932D01*
X126114152Y-83571408D01*
X125851530Y-83571408D01*
X125826901Y-83546780D01*
X125785580Y-83422817D01*
X125785580Y-83343808D01*
X125826901Y-83219845D01*
X125908054Y-83138692D01*
X125991128Y-83097155D01*
X126170307Y-83052361D01*
X126300854Y-83052361D01*
X126480034Y-83097156D01*
X126563106Y-83138692D01*
X126644259Y-83219845D01*
X126685580Y-83343807D01*
X126685580Y-83466747D01*
X126643240Y-83551428D01*
X126638087Y-83570244D01*
X126650188Y-83606549D01*
X126684416Y-83623663D01*
X126720721Y-83611562D01*
X126732682Y-83596150D01*
X126780301Y-83500912D01*
X126780962Y-83498496D01*
X126781774Y-83497685D01*
X126783337Y-83489823D01*
X126785454Y-83482096D01*
X126785091Y-83481007D01*
X126785580Y-83478551D01*
X126785580Y-83335694D01*
X126784016Y-83327832D01*
X126783014Y-83319882D01*
X126735395Y-83177026D01*
X126734155Y-83174850D01*
X126734155Y-83173703D01*
X126729704Y-83167042D01*
X126725734Y-83160077D01*
X126724706Y-83159563D01*
X126723316Y-83157482D01*
X126628078Y-83062244D01*
X126621416Y-83057792D01*
X126615083Y-83052877D01*
X126519846Y-83005259D01*
X126514564Y-83003812D01*
X126509612Y-83001473D01*
X126319136Y-82953854D01*
X126313018Y-82953556D01*
X126307009Y-82952361D01*
X126164152Y-82952361D01*
X126158142Y-82953556D01*
X126152025Y-82953854D01*
X125961549Y-83001473D01*
X125956596Y-83003812D01*
X125951315Y-83005259D01*
X125856077Y-83052878D01*
X125849742Y-83057793D01*
X125843083Y-83062244D01*
X125747845Y-83157482D01*
X125746454Y-83159563D01*
X125745427Y-83160077D01*
X125741455Y-83167044D01*
X125737006Y-83173703D01*
X125737006Y-83174849D01*
X125735766Y-83177025D01*
X125688146Y-83319882D01*
X125687143Y-83327832D01*
X125685580Y-83335694D01*
X125574469Y-83335694D01*
X125574469Y-80649893D01*
X125689386Y-80649893D01*
X125689386Y-80688161D01*
X125716446Y-80715221D01*
X125735580Y-80719027D01*
X126066533Y-80719027D01*
X126066533Y-81049980D01*
X126070339Y-81069114D01*
X126097399Y-81096174D01*
X126135667Y-81096174D01*
X126162727Y-81069114D01*
X126166533Y-81049980D01*
X126166533Y-80719027D01*
X126497485Y-80719027D01*
X126516619Y-80715221D01*
X126543679Y-80688161D01*
X126543679Y-80649893D01*
X126516619Y-80622833D01*
X126497485Y-80619027D01*
X126166533Y-80619027D01*
X126166533Y-80288075D01*
X126162727Y-80268941D01*
X126135667Y-80241881D01*
X126097399Y-80241881D01*
X126070339Y-80268941D01*
X126066533Y-80288075D01*
X126066533Y-80619027D01*
X125735580Y-80619027D01*
X125716446Y-80622833D01*
X125689386Y-80649893D01*
X125574469Y-80649893D01*
X125574469Y-77907122D01*
X125685580Y-77907122D01*
X125685580Y-78145217D01*
X125686068Y-78147673D01*
X125685706Y-78148762D01*
X125687822Y-78156489D01*
X125689386Y-78164351D01*
X125690197Y-78165162D01*
X125690859Y-78167578D01*
X125738479Y-78262816D01*
X125743394Y-78269150D01*
X125747845Y-78275810D01*
X125795463Y-78323429D01*
X125802129Y-78327883D01*
X125808458Y-78332795D01*
X125903696Y-78380414D01*
X125906111Y-78381075D01*
X125906923Y-78381887D01*
X125914784Y-78383450D01*
X125922512Y-78385567D01*
X125923600Y-78385204D01*
X125926057Y-78385693D01*
X126021295Y-78385693D01*
X126023751Y-78385204D01*
X126024840Y-78385567D01*
X126032567Y-78383450D01*
X126040429Y-78381887D01*
X126041240Y-78381075D01*
X126043656Y-78380414D01*
X126138893Y-78332796D01*
X126145226Y-78327880D01*
X126151888Y-78323429D01*
X126199507Y-78275811D01*
X126203961Y-78269144D01*
X126208873Y-78262816D01*
X126256492Y-78167578D01*
X126257938Y-78162296D01*
X126260278Y-78157344D01*
X126306566Y-77972192D01*
X126348101Y-77889120D01*
X126384246Y-77852976D01*
X126461670Y-77814265D01*
X126533301Y-77814265D01*
X126610724Y-77852976D01*
X126646868Y-77889121D01*
X126685580Y-77966544D01*
X126685580Y-78184723D01*
X126640527Y-78319882D01*
X126638087Y-78339237D01*
X126655201Y-78373466D01*
X126691505Y-78385567D01*
X126725734Y-78368453D01*
X126735395Y-78351504D01*
X126783014Y-78208648D01*
X126784016Y-78200697D01*
X126785580Y-78192836D01*
X126785580Y-77954741D01*
X126785091Y-77952284D01*
X126785454Y-77951196D01*
X126783337Y-77943468D01*
X126781774Y-77935607D01*
X126780962Y-77934795D01*
X126780301Y-77932380D01*
X126732682Y-77837142D01*
X126727770Y-77830813D01*
X126723316Y-77824147D01*
X126675697Y-77776529D01*
X126669035Y-77772077D01*
X126662702Y-77767162D01*
X126567465Y-77719544D01*
X126565049Y-77718882D01*
X126564238Y-77718071D01*
X126556376Y-77716507D01*
X126548649Y-77714391D01*
X126547560Y-77714753D01*
X126545104Y-77714265D01*
X126449866Y-77714265D01*
X126447409Y-77714753D01*
X126446321Y-77714391D01*
X126438593Y-77716507D01*
X126430732Y-77718071D01*
X126429920Y-77718882D01*
X126427505Y-77719544D01*
X126332267Y-77767163D01*
X126325938Y-77772074D01*
X126319272Y-77776529D01*
X126271654Y-77824148D01*
X126267202Y-77830809D01*
X126262287Y-77837143D01*
X126214669Y-77932380D01*
X126213222Y-77937661D01*
X126210883Y-77942614D01*
X126164595Y-78127764D01*
X126123059Y-78210836D01*
X126086915Y-78246981D01*
X126009492Y-78285693D01*
X125937861Y-78285693D01*
X125860437Y-78246981D01*
X125824292Y-78210837D01*
X125785580Y-78133413D01*
X125785580Y-77915236D01*
X125830634Y-77780077D01*
X125833074Y-77760721D01*
X125815960Y-77726492D01*
X125779656Y-77714391D01*
X125745427Y-77731505D01*
X125735766Y-77748453D01*
X125688146Y-77891310D01*
X125687143Y-77899260D01*
X125685580Y-77907122D01*
X125574469Y-77907122D01*
X125574469Y-77603154D01*
X126896691Y-77603154D01*
X126896691Y-83782519D01*
G37*
X133484265Y-88254800D02*
X133627122Y-88302419D01*
X133627122Y-88302419D02*
X133865217Y-88302419D01*
X133865217Y-88302419D02*
X133960455Y-88254800D01*
X133960455Y-88254800D02*
X134008074Y-88207180D01*
X134008074Y-88207180D02*
X134055693Y-88111942D01*
X134055693Y-88111942D02*
X134055693Y-88016704D01*
X134055693Y-88016704D02*
X134008074Y-87921466D01*
X134008074Y-87921466D02*
X133960455Y-87873847D01*
X133960455Y-87873847D02*
X133865217Y-87826228D01*
X133865217Y-87826228D02*
X133674741Y-87778609D01*
X133674741Y-87778609D02*
X133579503Y-87730990D01*
X133579503Y-87730990D02*
X133531884Y-87683371D01*
X133531884Y-87683371D02*
X133484265Y-87588133D01*
X133484265Y-87588133D02*
X133484265Y-87492895D01*
X133484265Y-87492895D02*
X133531884Y-87397657D01*
X133531884Y-87397657D02*
X133579503Y-87350038D01*
X133579503Y-87350038D02*
X133674741Y-87302419D01*
X133674741Y-87302419D02*
X133912836Y-87302419D01*
X133912836Y-87302419D02*
X134055693Y-87350038D01*
X134865217Y-88254800D02*
X134769979Y-88302419D01*
X134769979Y-88302419D02*
X134579503Y-88302419D01*
X134579503Y-88302419D02*
X134484265Y-88254800D01*
X134484265Y-88254800D02*
X134436646Y-88159561D01*
X134436646Y-88159561D02*
X134436646Y-87778609D01*
X134436646Y-87778609D02*
X134484265Y-87683371D01*
X134484265Y-87683371D02*
X134579503Y-87635752D01*
X134579503Y-87635752D02*
X134769979Y-87635752D01*
X134769979Y-87635752D02*
X134865217Y-87683371D01*
X134865217Y-87683371D02*
X134912836Y-87778609D01*
X134912836Y-87778609D02*
X134912836Y-87873847D01*
X134912836Y-87873847D02*
X134436646Y-87969085D01*
X135341408Y-88302419D02*
X135341408Y-87635752D01*
X135341408Y-87826228D02*
X135389027Y-87730990D01*
X135389027Y-87730990D02*
X135436646Y-87683371D01*
X135436646Y-87683371D02*
X135531884Y-87635752D01*
X135531884Y-87635752D02*
X135627122Y-87635752D01*
X135865218Y-87635752D02*
X136103313Y-88302419D01*
X136103313Y-88302419D02*
X136341408Y-87635752D01*
X136865218Y-88302419D02*
X136769980Y-88254800D01*
X136769980Y-88254800D02*
X136722361Y-88207180D01*
X136722361Y-88207180D02*
X136674742Y-88111942D01*
X136674742Y-88111942D02*
X136674742Y-87826228D01*
X136674742Y-87826228D02*
X136722361Y-87730990D01*
X136722361Y-87730990D02*
X136769980Y-87683371D01*
X136769980Y-87683371D02*
X136865218Y-87635752D01*
X136865218Y-87635752D02*
X137008075Y-87635752D01*
X137008075Y-87635752D02*
X137103313Y-87683371D01*
X137103313Y-87683371D02*
X137150932Y-87730990D01*
X137150932Y-87730990D02*
X137198551Y-87826228D01*
X137198551Y-87826228D02*
X137198551Y-88111942D01*
X137198551Y-88111942D02*
X137150932Y-88207180D01*
X137150932Y-88207180D02*
X137103313Y-88254800D01*
X137103313Y-88254800D02*
X137008075Y-88302419D01*
X137008075Y-88302419D02*
X136865218Y-88302419D01*
G36*
X106723446Y-49293739D02*
G01*
X106804599Y-49374892D01*
X106846136Y-49457966D01*
X106890931Y-49637145D01*
X106890931Y-49767692D01*
X106846136Y-49946870D01*
X106804599Y-50029944D01*
X106723445Y-50111098D01*
X106599485Y-50152419D01*
X106419503Y-50152419D01*
X106419503Y-49252419D01*
X106599485Y-49252419D01*
X106723446Y-49293739D01*
G37*
G36*
X107102042Y-50363530D02*
G01*
X104113154Y-50363530D01*
X104113154Y-49630990D01*
X104224265Y-49630990D01*
X104224265Y-49773847D01*
X104225460Y-49779856D01*
X104225758Y-49785974D01*
X104273377Y-49976450D01*
X104275716Y-49981402D01*
X104277163Y-49986684D01*
X104324781Y-50081921D01*
X104329692Y-50088249D01*
X104334147Y-50094916D01*
X104429386Y-50190155D01*
X104431467Y-50191545D01*
X104431981Y-50192573D01*
X104438946Y-50196543D01*
X104445607Y-50200994D01*
X104446755Y-50200994D01*
X104448930Y-50202234D01*
X104591786Y-50249853D01*
X104599736Y-50250855D01*
X104607598Y-50252419D01*
X104702836Y-50252419D01*
X104710698Y-50250855D01*
X104718647Y-50249853D01*
X104861504Y-50202234D01*
X104863679Y-50200994D01*
X104864828Y-50200994D01*
X104871498Y-50196536D01*
X104878452Y-50192573D01*
X104878964Y-50191547D01*
X104881049Y-50190155D01*
X104928668Y-50142535D01*
X104939506Y-50126314D01*
X104943312Y-50107180D01*
X104943312Y-49773847D01*
X104939506Y-49754713D01*
X104912446Y-49727653D01*
X104893312Y-49723847D01*
X104702836Y-49723847D01*
X104683702Y-49727653D01*
X104656642Y-49754713D01*
X104656642Y-49792981D01*
X104683702Y-49820041D01*
X104702836Y-49823847D01*
X104843312Y-49823847D01*
X104843312Y-50086469D01*
X104818683Y-50111098D01*
X104694723Y-50152419D01*
X104615711Y-50152419D01*
X104491751Y-50111099D01*
X104410595Y-50029942D01*
X104369060Y-49946872D01*
X104324265Y-49767692D01*
X104324265Y-49637145D01*
X104369060Y-49457965D01*
X104410596Y-49374893D01*
X104491749Y-49293739D01*
X104615711Y-49252419D01*
X104738652Y-49252419D01*
X104823332Y-49294759D01*
X104842148Y-49299912D01*
X104878453Y-49287810D01*
X104895567Y-49253582D01*
X104883465Y-49217278D01*
X104868053Y-49205316D01*
X104862259Y-49202419D01*
X105271884Y-49202419D01*
X105271884Y-50202419D01*
X105275690Y-50221553D01*
X105302750Y-50248613D01*
X105341018Y-50248613D01*
X105368078Y-50221553D01*
X105371884Y-50202419D01*
X105371884Y-49390697D01*
X105849900Y-50227226D01*
X105862698Y-50241951D01*
X105869322Y-50243757D01*
X105874178Y-50248613D01*
X105887126Y-50248613D01*
X105899618Y-50252020D01*
X105905580Y-50248613D01*
X105912446Y-50248613D01*
X105921599Y-50239459D01*
X105932844Y-50233034D01*
X105934651Y-50226407D01*
X105939506Y-50221553D01*
X105943312Y-50202419D01*
X105943312Y-49202419D01*
X106319503Y-49202419D01*
X106319503Y-50202419D01*
X106323309Y-50221553D01*
X106350369Y-50248613D01*
X106369503Y-50252419D01*
X106607598Y-50252419D01*
X106615460Y-50250855D01*
X106623409Y-50249853D01*
X106766266Y-50202234D01*
X106768441Y-50200994D01*
X106769590Y-50200994D01*
X106776260Y-50196536D01*
X106783214Y-50192573D01*
X106783726Y-50191547D01*
X106785811Y-50190155D01*
X106881049Y-50094916D01*
X106885502Y-50088250D01*
X106890414Y-50081922D01*
X106938033Y-49986684D01*
X106939479Y-49981402D01*
X106941819Y-49976450D01*
X106989438Y-49785974D01*
X106989735Y-49779856D01*
X106990931Y-49773847D01*
X106990931Y-49630990D01*
X106989735Y-49624980D01*
X106989438Y-49618863D01*
X106941819Y-49428387D01*
X106939479Y-49423434D01*
X106938033Y-49418153D01*
X106890414Y-49322915D01*
X106885498Y-49316580D01*
X106881048Y-49309921D01*
X106785810Y-49214683D01*
X106783727Y-49213291D01*
X106783214Y-49212265D01*
X106776253Y-49208297D01*
X106769589Y-49203844D01*
X106768441Y-49203844D01*
X106766266Y-49202604D01*
X106623409Y-49154985D01*
X106615460Y-49153982D01*
X106607598Y-49152419D01*
X106369503Y-49152419D01*
X106350369Y-49156225D01*
X106323309Y-49183285D01*
X106319503Y-49202419D01*
X105943312Y-49202419D01*
X105939506Y-49183285D01*
X105912446Y-49156225D01*
X105874178Y-49156225D01*
X105847118Y-49183285D01*
X105843312Y-49202419D01*
X105843312Y-50014140D01*
X105365296Y-49177612D01*
X105352499Y-49162887D01*
X105345872Y-49161079D01*
X105341018Y-49156225D01*
X105328071Y-49156225D01*
X105315578Y-49152818D01*
X105309616Y-49156225D01*
X105302750Y-49156225D01*
X105293596Y-49165378D01*
X105282352Y-49171804D01*
X105280544Y-49178430D01*
X105275690Y-49183285D01*
X105271884Y-49202419D01*
X104862259Y-49202419D01*
X104772816Y-49157698D01*
X104770400Y-49157036D01*
X104769589Y-49156225D01*
X104761727Y-49154661D01*
X104754000Y-49152545D01*
X104752911Y-49152907D01*
X104750455Y-49152419D01*
X104607598Y-49152419D01*
X104599736Y-49153982D01*
X104591786Y-49154985D01*
X104448930Y-49202604D01*
X104446755Y-49203844D01*
X104445607Y-49203844D01*
X104438946Y-49208294D01*
X104431981Y-49212265D01*
X104431467Y-49213292D01*
X104429386Y-49214683D01*
X104334148Y-49309921D01*
X104329696Y-49316582D01*
X104324781Y-49322916D01*
X104277163Y-49418153D01*
X104275716Y-49423434D01*
X104273377Y-49428387D01*
X104225758Y-49618863D01*
X104225460Y-49624980D01*
X104224265Y-49630990D01*
X104113154Y-49630990D01*
X104113154Y-49041308D01*
X107102042Y-49041308D01*
X107102042Y-50363530D01*
G37*
G36*
X184406872Y-78997863D02*
G01*
X184489942Y-79039398D01*
X184571099Y-79120554D01*
X184612419Y-79244514D01*
X184612419Y-79424496D01*
X183712419Y-79424496D01*
X183712419Y-79244514D01*
X183753739Y-79120552D01*
X183834892Y-79039399D01*
X183917966Y-78997862D01*
X184097145Y-78953068D01*
X184227692Y-78953068D01*
X184406872Y-78997863D01*
G37*
G36*
X184406872Y-75188339D02*
G01*
X184489942Y-75229874D01*
X184571099Y-75311030D01*
X184612419Y-75434990D01*
X184612419Y-75614972D01*
X183712419Y-75614972D01*
X183712419Y-75434990D01*
X183753739Y-75311028D01*
X183834892Y-75229875D01*
X183917966Y-75188338D01*
X184097145Y-75143544D01*
X184227692Y-75143544D01*
X184406872Y-75188339D01*
G37*
G36*
X184823530Y-81730845D02*
G01*
X183501308Y-81730845D01*
X183501308Y-81093544D01*
X183612419Y-81093544D01*
X183612419Y-81236401D01*
X183613982Y-81244263D01*
X183614985Y-81252212D01*
X183662604Y-81395069D01*
X183663844Y-81397244D01*
X183663844Y-81398392D01*
X183668297Y-81405056D01*
X183672265Y-81412017D01*
X183673291Y-81412530D01*
X183674683Y-81414613D01*
X183769921Y-81509851D01*
X183776580Y-81514301D01*
X183782915Y-81519217D01*
X183878153Y-81566836D01*
X183883434Y-81568282D01*
X183888387Y-81570622D01*
X184078863Y-81618241D01*
X184084980Y-81618538D01*
X184090990Y-81619734D01*
X184233847Y-81619734D01*
X184239856Y-81618538D01*
X184245974Y-81618241D01*
X184436450Y-81570622D01*
X184441402Y-81568282D01*
X184446684Y-81566836D01*
X184541921Y-81519218D01*
X184548249Y-81514306D01*
X184554916Y-81509852D01*
X184650155Y-81414613D01*
X184651545Y-81412531D01*
X184652573Y-81412018D01*
X184656543Y-81405052D01*
X184660994Y-81398392D01*
X184660994Y-81397244D01*
X184662234Y-81395069D01*
X184709853Y-81252213D01*
X184710855Y-81244262D01*
X184712419Y-81236401D01*
X184712419Y-81141163D01*
X184710855Y-81133301D01*
X184709853Y-81125351D01*
X184662234Y-80982495D01*
X184660994Y-80980319D01*
X184660994Y-80979171D01*
X184656539Y-80972504D01*
X184652573Y-80965546D01*
X184651546Y-80965032D01*
X184650155Y-80962950D01*
X184602535Y-80915331D01*
X184586314Y-80904493D01*
X184567180Y-80900687D01*
X184233847Y-80900687D01*
X184214713Y-80904493D01*
X184187653Y-80931553D01*
X184183847Y-80950687D01*
X184183847Y-81141163D01*
X184187653Y-81160297D01*
X184214713Y-81187357D01*
X184252981Y-81187357D01*
X184280041Y-81160297D01*
X184283847Y-81141163D01*
X184283847Y-81000687D01*
X184546469Y-81000687D01*
X184571099Y-81025316D01*
X184612419Y-81149276D01*
X184612419Y-81228288D01*
X184571099Y-81352247D01*
X184489942Y-81433403D01*
X184406872Y-81474939D01*
X184227692Y-81519734D01*
X184097145Y-81519734D01*
X183917966Y-81474939D01*
X183834892Y-81433402D01*
X183753739Y-81352249D01*
X183712419Y-81228287D01*
X183712419Y-81105347D01*
X183754759Y-81020667D01*
X183759912Y-81001851D01*
X183747810Y-80965546D01*
X183713582Y-80948432D01*
X183677278Y-80960534D01*
X183665316Y-80975946D01*
X183617698Y-81071183D01*
X183617036Y-81073598D01*
X183616225Y-81074410D01*
X183614661Y-81082271D01*
X183612545Y-81089999D01*
X183612907Y-81091087D01*
X183612419Y-81093544D01*
X183501308Y-81093544D01*
X183501308Y-80528421D01*
X183612818Y-80528421D01*
X183616225Y-80534383D01*
X183616225Y-80541249D01*
X183625378Y-80550402D01*
X183631804Y-80561647D01*
X183638430Y-80563454D01*
X183643285Y-80568309D01*
X183662419Y-80572115D01*
X184662419Y-80572115D01*
X184681553Y-80568309D01*
X184708613Y-80541249D01*
X184708613Y-80502981D01*
X184681553Y-80475921D01*
X184662419Y-80472115D01*
X183850697Y-80472115D01*
X184687226Y-79994099D01*
X184701951Y-79981301D01*
X184703757Y-79974676D01*
X184708613Y-79969821D01*
X184708613Y-79956873D01*
X184712020Y-79944381D01*
X184708613Y-79938418D01*
X184708613Y-79931553D01*
X184699459Y-79922399D01*
X184693034Y-79911155D01*
X184686407Y-79909347D01*
X184681553Y-79904493D01*
X184662419Y-79900687D01*
X183662419Y-79900687D01*
X183643285Y-79904493D01*
X183616225Y-79931553D01*
X183616225Y-79969821D01*
X183643285Y-79996881D01*
X183662419Y-80000687D01*
X184474141Y-80000687D01*
X183637612Y-80478703D01*
X183622887Y-80491500D01*
X183621079Y-80498126D01*
X183616225Y-80502981D01*
X183616225Y-80515928D01*
X183612818Y-80528421D01*
X183501308Y-80528421D01*
X183501308Y-79236401D01*
X183612419Y-79236401D01*
X183612419Y-79474496D01*
X183616225Y-79493630D01*
X183643285Y-79520690D01*
X183662419Y-79524496D01*
X184662419Y-79524496D01*
X184681553Y-79520690D01*
X184708613Y-79493630D01*
X184712419Y-79474496D01*
X184712419Y-79236401D01*
X184710855Y-79228539D01*
X184709853Y-79220589D01*
X184662234Y-79077733D01*
X184660994Y-79075557D01*
X184660994Y-79074410D01*
X184656543Y-79067749D01*
X184652573Y-79060784D01*
X184651545Y-79060270D01*
X184650155Y-79058189D01*
X184554916Y-78962950D01*
X184548249Y-78958495D01*
X184541921Y-78953584D01*
X184446684Y-78905966D01*
X184441402Y-78904519D01*
X184436450Y-78902180D01*
X184245974Y-78854561D01*
X184239856Y-78854263D01*
X184233847Y-78853068D01*
X184090990Y-78853068D01*
X184084980Y-78854263D01*
X184078863Y-78854561D01*
X183888387Y-78902180D01*
X183883434Y-78904519D01*
X183878153Y-78905966D01*
X183782915Y-78953585D01*
X183776580Y-78958500D01*
X183769921Y-78962951D01*
X183674683Y-79058189D01*
X183673291Y-79060271D01*
X183672265Y-79060785D01*
X183668297Y-79067745D01*
X183663844Y-79074410D01*
X183663844Y-79075557D01*
X183662604Y-79077733D01*
X183614985Y-79220590D01*
X183613982Y-79228538D01*
X183612419Y-79236401D01*
X183501308Y-79236401D01*
X183501308Y-77284020D01*
X183612419Y-77284020D01*
X183612419Y-77426877D01*
X183613982Y-77434739D01*
X183614985Y-77442688D01*
X183662604Y-77585545D01*
X183663844Y-77587720D01*
X183663844Y-77588868D01*
X183668297Y-77595532D01*
X183672265Y-77602493D01*
X183673291Y-77603006D01*
X183674683Y-77605089D01*
X183769921Y-77700327D01*
X183776580Y-77704777D01*
X183782915Y-77709693D01*
X183878153Y-77757312D01*
X183883434Y-77758758D01*
X183888387Y-77761098D01*
X184078863Y-77808717D01*
X184084980Y-77809014D01*
X184090990Y-77810210D01*
X184233847Y-77810210D01*
X184239856Y-77809014D01*
X184245974Y-77808717D01*
X184436450Y-77761098D01*
X184441402Y-77758758D01*
X184446684Y-77757312D01*
X184541921Y-77709694D01*
X184548249Y-77704782D01*
X184554916Y-77700328D01*
X184650155Y-77605089D01*
X184651545Y-77603007D01*
X184652573Y-77602494D01*
X184656543Y-77595528D01*
X184660994Y-77588868D01*
X184660994Y-77587720D01*
X184662234Y-77585545D01*
X184709853Y-77442689D01*
X184710855Y-77434738D01*
X184712419Y-77426877D01*
X184712419Y-77331639D01*
X184710855Y-77323777D01*
X184709853Y-77315827D01*
X184662234Y-77172971D01*
X184660994Y-77170795D01*
X184660994Y-77169647D01*
X184656539Y-77162980D01*
X184652573Y-77156022D01*
X184651546Y-77155508D01*
X184650155Y-77153426D01*
X184602535Y-77105807D01*
X184586314Y-77094969D01*
X184567180Y-77091163D01*
X184233847Y-77091163D01*
X184214713Y-77094969D01*
X184187653Y-77122029D01*
X184183847Y-77141163D01*
X184183847Y-77331639D01*
X184187653Y-77350773D01*
X184214713Y-77377833D01*
X184252981Y-77377833D01*
X184280041Y-77350773D01*
X184283847Y-77331639D01*
X184283847Y-77191163D01*
X184546469Y-77191163D01*
X184571099Y-77215792D01*
X184612419Y-77339752D01*
X184612419Y-77418764D01*
X184571099Y-77542723D01*
X184489942Y-77623879D01*
X184406872Y-77665415D01*
X184227692Y-77710210D01*
X184097145Y-77710210D01*
X183917966Y-77665415D01*
X183834892Y-77623878D01*
X183753739Y-77542725D01*
X183712419Y-77418763D01*
X183712419Y-77295823D01*
X183754759Y-77211143D01*
X183759912Y-77192327D01*
X183747810Y-77156022D01*
X183713582Y-77138908D01*
X183677278Y-77151010D01*
X183665316Y-77166422D01*
X183617698Y-77261659D01*
X183617036Y-77264074D01*
X183616225Y-77264886D01*
X183614661Y-77272747D01*
X183612545Y-77280475D01*
X183612907Y-77281563D01*
X183612419Y-77284020D01*
X183501308Y-77284020D01*
X183501308Y-76718897D01*
X183612818Y-76718897D01*
X183616225Y-76724859D01*
X183616225Y-76731725D01*
X183625378Y-76740878D01*
X183631804Y-76752123D01*
X183638430Y-76753930D01*
X183643285Y-76758785D01*
X183662419Y-76762591D01*
X184662419Y-76762591D01*
X184681553Y-76758785D01*
X184708613Y-76731725D01*
X184708613Y-76693457D01*
X184681553Y-76666397D01*
X184662419Y-76662591D01*
X183850697Y-76662591D01*
X184687226Y-76184575D01*
X184701951Y-76171777D01*
X184703757Y-76165152D01*
X184708613Y-76160297D01*
X184708613Y-76147349D01*
X184712020Y-76134857D01*
X184708613Y-76128894D01*
X184708613Y-76122029D01*
X184699459Y-76112875D01*
X184693034Y-76101631D01*
X184686407Y-76099823D01*
X184681553Y-76094969D01*
X184662419Y-76091163D01*
X183662419Y-76091163D01*
X183643285Y-76094969D01*
X183616225Y-76122029D01*
X183616225Y-76160297D01*
X183643285Y-76187357D01*
X183662419Y-76191163D01*
X184474141Y-76191163D01*
X183637612Y-76669179D01*
X183622887Y-76681976D01*
X183621079Y-76688602D01*
X183616225Y-76693457D01*
X183616225Y-76706404D01*
X183612818Y-76718897D01*
X183501308Y-76718897D01*
X183501308Y-75426877D01*
X183612419Y-75426877D01*
X183612419Y-75664972D01*
X183616225Y-75684106D01*
X183643285Y-75711166D01*
X183662419Y-75714972D01*
X184662419Y-75714972D01*
X184681553Y-75711166D01*
X184708613Y-75684106D01*
X184712419Y-75664972D01*
X184712419Y-75426877D01*
X184710855Y-75419015D01*
X184709853Y-75411065D01*
X184662234Y-75268209D01*
X184660994Y-75266033D01*
X184660994Y-75264886D01*
X184656543Y-75258225D01*
X184652573Y-75251260D01*
X184651545Y-75250746D01*
X184650155Y-75248665D01*
X184554916Y-75153426D01*
X184548249Y-75148971D01*
X184541921Y-75144060D01*
X184446684Y-75096442D01*
X184441402Y-75094995D01*
X184436450Y-75092656D01*
X184245974Y-75045037D01*
X184239856Y-75044739D01*
X184233847Y-75043544D01*
X184090990Y-75043544D01*
X184084980Y-75044739D01*
X184078863Y-75045037D01*
X183888387Y-75092656D01*
X183883434Y-75094995D01*
X183878153Y-75096442D01*
X183782915Y-75144061D01*
X183776580Y-75148976D01*
X183769921Y-75153427D01*
X183674683Y-75248665D01*
X183673291Y-75250747D01*
X183672265Y-75251261D01*
X183668297Y-75258221D01*
X183663844Y-75264886D01*
X183663844Y-75266033D01*
X183662604Y-75268209D01*
X183614985Y-75411066D01*
X183613982Y-75419014D01*
X183612419Y-75426877D01*
X183501308Y-75426877D01*
X183501308Y-74932433D01*
X184823530Y-74932433D01*
X184823530Y-81730845D01*
G37*
G36*
X126642691Y-72606519D02*
G01*
X125320469Y-72606519D01*
X125320469Y-72159694D01*
X125431580Y-72159694D01*
X125431580Y-72254932D01*
X125433143Y-72262793D01*
X125434146Y-72270744D01*
X125481766Y-72413601D01*
X125483006Y-72415776D01*
X125483006Y-72416923D01*
X125487455Y-72423581D01*
X125491427Y-72430549D01*
X125492454Y-72431062D01*
X125493845Y-72433144D01*
X125541463Y-72480763D01*
X125557684Y-72491602D01*
X125557685Y-72491602D01*
X125576819Y-72495408D01*
X125910152Y-72495408D01*
X125929286Y-72491602D01*
X125956346Y-72464542D01*
X125960152Y-72445408D01*
X125960152Y-72254932D01*
X125956346Y-72235798D01*
X125929286Y-72208738D01*
X125891018Y-72208738D01*
X125863958Y-72235798D01*
X125860152Y-72254932D01*
X125860152Y-72395408D01*
X125597530Y-72395408D01*
X125572901Y-72370780D01*
X125531580Y-72246817D01*
X125531580Y-72167808D01*
X125572901Y-72043845D01*
X125654054Y-71962692D01*
X125737128Y-71921155D01*
X125916307Y-71876361D01*
X126046854Y-71876361D01*
X126226034Y-71921156D01*
X126309106Y-71962692D01*
X126390259Y-72043845D01*
X126431580Y-72167807D01*
X126431580Y-72290747D01*
X126389240Y-72375428D01*
X126384087Y-72394244D01*
X126396188Y-72430549D01*
X126430416Y-72447663D01*
X126466721Y-72435562D01*
X126478682Y-72420150D01*
X126526301Y-72324912D01*
X126526962Y-72322496D01*
X126527774Y-72321685D01*
X126529337Y-72313823D01*
X126531454Y-72306096D01*
X126531091Y-72305007D01*
X126531580Y-72302551D01*
X126531580Y-72159694D01*
X126530016Y-72151832D01*
X126529014Y-72143882D01*
X126481395Y-72001026D01*
X126480155Y-71998850D01*
X126480155Y-71997703D01*
X126475704Y-71991042D01*
X126471734Y-71984077D01*
X126470706Y-71983563D01*
X126469316Y-71981482D01*
X126374078Y-71886244D01*
X126367416Y-71881792D01*
X126361083Y-71876877D01*
X126265846Y-71829259D01*
X126260564Y-71827812D01*
X126255612Y-71825473D01*
X126065136Y-71777854D01*
X126059018Y-71777556D01*
X126053009Y-71776361D01*
X125910152Y-71776361D01*
X125904142Y-71777556D01*
X125898025Y-71777854D01*
X125707549Y-71825473D01*
X125702596Y-71827812D01*
X125697315Y-71829259D01*
X125602077Y-71876878D01*
X125595742Y-71881793D01*
X125589083Y-71886244D01*
X125493845Y-71981482D01*
X125492454Y-71983563D01*
X125491427Y-71984077D01*
X125487455Y-71991044D01*
X125483006Y-71997703D01*
X125483006Y-71998849D01*
X125481766Y-72001025D01*
X125434146Y-72143882D01*
X125433143Y-72151832D01*
X125431580Y-72159694D01*
X125320469Y-72159694D01*
X125320469Y-69473893D01*
X125435386Y-69473893D01*
X125435386Y-69512161D01*
X125462446Y-69539221D01*
X125481580Y-69543027D01*
X125812533Y-69543027D01*
X125812533Y-69873980D01*
X125816339Y-69893114D01*
X125843399Y-69920174D01*
X125881667Y-69920174D01*
X125908727Y-69893114D01*
X125912533Y-69873980D01*
X125912533Y-69543027D01*
X126243485Y-69543027D01*
X126262619Y-69539221D01*
X126289679Y-69512161D01*
X126289679Y-69473893D01*
X126262619Y-69446833D01*
X126243485Y-69443027D01*
X125912533Y-69443027D01*
X125912533Y-69112075D01*
X125908727Y-69092941D01*
X125881667Y-69065881D01*
X125843399Y-69065881D01*
X125816339Y-69092941D01*
X125812533Y-69112075D01*
X125812533Y-69443027D01*
X125481580Y-69443027D01*
X125462446Y-69446833D01*
X125435386Y-69473893D01*
X125320469Y-69473893D01*
X125320469Y-66731122D01*
X125431580Y-66731122D01*
X125431580Y-66969217D01*
X125432068Y-66971673D01*
X125431706Y-66972762D01*
X125433822Y-66980489D01*
X125435386Y-66988351D01*
X125436197Y-66989162D01*
X125436859Y-66991578D01*
X125484479Y-67086816D01*
X125489394Y-67093150D01*
X125493845Y-67099810D01*
X125541463Y-67147429D01*
X125548129Y-67151883D01*
X125554458Y-67156795D01*
X125649696Y-67204414D01*
X125652111Y-67205075D01*
X125652923Y-67205887D01*
X125660784Y-67207450D01*
X125668512Y-67209567D01*
X125669600Y-67209204D01*
X125672057Y-67209693D01*
X125767295Y-67209693D01*
X125769751Y-67209204D01*
X125770840Y-67209567D01*
X125778567Y-67207450D01*
X125786429Y-67205887D01*
X125787240Y-67205075D01*
X125789656Y-67204414D01*
X125884893Y-67156796D01*
X125891226Y-67151880D01*
X125897888Y-67147429D01*
X125945507Y-67099811D01*
X125949961Y-67093144D01*
X125954873Y-67086816D01*
X126002492Y-66991578D01*
X126003938Y-66986296D01*
X126006278Y-66981344D01*
X126052566Y-66796192D01*
X126094101Y-66713120D01*
X126130246Y-66676976D01*
X126207670Y-66638265D01*
X126279301Y-66638265D01*
X126356724Y-66676976D01*
X126392868Y-66713121D01*
X126431580Y-66790544D01*
X126431580Y-67008723D01*
X126386527Y-67143882D01*
X126384087Y-67163237D01*
X126401201Y-67197466D01*
X126437505Y-67209567D01*
X126471734Y-67192453D01*
X126481395Y-67175504D01*
X126529014Y-67032648D01*
X126530016Y-67024697D01*
X126531580Y-67016836D01*
X126531580Y-66778741D01*
X126531091Y-66776284D01*
X126531454Y-66775196D01*
X126529337Y-66767468D01*
X126527774Y-66759607D01*
X126526962Y-66758795D01*
X126526301Y-66756380D01*
X126478682Y-66661142D01*
X126473770Y-66654813D01*
X126469316Y-66648147D01*
X126421697Y-66600529D01*
X126415035Y-66596077D01*
X126408702Y-66591162D01*
X126313465Y-66543544D01*
X126311049Y-66542882D01*
X126310238Y-66542071D01*
X126302376Y-66540507D01*
X126294649Y-66538391D01*
X126293560Y-66538753D01*
X126291104Y-66538265D01*
X126195866Y-66538265D01*
X126193409Y-66538753D01*
X126192321Y-66538391D01*
X126184593Y-66540507D01*
X126176732Y-66542071D01*
X126175920Y-66542882D01*
X126173505Y-66543544D01*
X126078267Y-66591163D01*
X126071938Y-66596074D01*
X126065272Y-66600529D01*
X126017654Y-66648148D01*
X126013202Y-66654809D01*
X126008287Y-66661143D01*
X125960669Y-66756380D01*
X125959222Y-66761661D01*
X125956883Y-66766614D01*
X125910595Y-66951764D01*
X125869059Y-67034836D01*
X125832915Y-67070981D01*
X125755492Y-67109693D01*
X125683861Y-67109693D01*
X125606437Y-67070981D01*
X125570292Y-67034837D01*
X125531580Y-66957413D01*
X125531580Y-66739236D01*
X125576634Y-66604077D01*
X125579074Y-66584721D01*
X125561960Y-66550492D01*
X125525656Y-66538391D01*
X125491427Y-66555505D01*
X125481766Y-66572453D01*
X125434146Y-66715310D01*
X125433143Y-66723260D01*
X125431580Y-66731122D01*
X125320469Y-66731122D01*
X125320469Y-66427154D01*
X126642691Y-66427154D01*
X126642691Y-72606519D01*
G37*
X130341027Y-32184419D02*
X130674360Y-33184419D01*
X130674360Y-33184419D02*
X131007693Y-32184419D01*
X131341027Y-33184419D02*
X131341027Y-32184419D01*
X131341027Y-32184419D02*
X131674360Y-32898704D01*
X131674360Y-32898704D02*
X132007693Y-32184419D01*
X132007693Y-32184419D02*
X132007693Y-33184419D01*
X132483884Y-33184419D02*
X132483884Y-32184419D01*
X132483884Y-32184419D02*
X132721979Y-32184419D01*
X132721979Y-32184419D02*
X132864836Y-32232038D01*
X132864836Y-32232038D02*
X132960074Y-32327276D01*
X132960074Y-32327276D02*
X133007693Y-32422514D01*
X133007693Y-32422514D02*
X133055312Y-32612990D01*
X133055312Y-32612990D02*
X133055312Y-32755847D01*
X133055312Y-32755847D02*
X133007693Y-32946323D01*
X133007693Y-32946323D02*
X132960074Y-33041561D01*
X132960074Y-33041561D02*
X132864836Y-33136800D01*
X132864836Y-33136800D02*
X132721979Y-33184419D01*
X132721979Y-33184419D02*
X132483884Y-33184419D01*
X133960074Y-32184419D02*
X133483884Y-32184419D01*
X133483884Y-32184419D02*
X133436265Y-32660609D01*
X133436265Y-32660609D02*
X133483884Y-32612990D01*
X133483884Y-32612990D02*
X133579122Y-32565371D01*
X133579122Y-32565371D02*
X133817217Y-32565371D01*
X133817217Y-32565371D02*
X133912455Y-32612990D01*
X133912455Y-32612990D02*
X133960074Y-32660609D01*
X133960074Y-32660609D02*
X134007693Y-32755847D01*
X134007693Y-32755847D02*
X134007693Y-32993942D01*
X134007693Y-32993942D02*
X133960074Y-33089180D01*
X133960074Y-33089180D02*
X133912455Y-33136800D01*
X133912455Y-33136800D02*
X133817217Y-33184419D01*
X133817217Y-33184419D02*
X133579122Y-33184419D01*
X133579122Y-33184419D02*
X133483884Y-33136800D01*
X133483884Y-33136800D02*
X133436265Y-33089180D01*
X135150550Y-32136800D02*
X134293408Y-33422514D01*
X135341027Y-32184419D02*
X135674360Y-33184419D01*
X135674360Y-33184419D02*
X136007693Y-32184419D01*
X136341027Y-33184419D02*
X136341027Y-32184419D01*
X136341027Y-32184419D02*
X136674360Y-32898704D01*
X136674360Y-32898704D02*
X137007693Y-32184419D01*
X137007693Y-32184419D02*
X137007693Y-33184419D01*
X137483884Y-33184419D02*
X137483884Y-32184419D01*
X137483884Y-32184419D02*
X137721979Y-32184419D01*
X137721979Y-32184419D02*
X137864836Y-32232038D01*
X137864836Y-32232038D02*
X137960074Y-32327276D01*
X137960074Y-32327276D02*
X138007693Y-32422514D01*
X138007693Y-32422514D02*
X138055312Y-32612990D01*
X138055312Y-32612990D02*
X138055312Y-32755847D01*
X138055312Y-32755847D02*
X138007693Y-32946323D01*
X138007693Y-32946323D02*
X137960074Y-33041561D01*
X137960074Y-33041561D02*
X137864836Y-33136800D01*
X137864836Y-33136800D02*
X137721979Y-33184419D01*
X137721979Y-33184419D02*
X137483884Y-33184419D01*
X138912455Y-32184419D02*
X138721979Y-32184419D01*
X138721979Y-32184419D02*
X138626741Y-32232038D01*
X138626741Y-32232038D02*
X138579122Y-32279657D01*
X138579122Y-32279657D02*
X138483884Y-32422514D01*
X138483884Y-32422514D02*
X138436265Y-32612990D01*
X138436265Y-32612990D02*
X138436265Y-32993942D01*
X138436265Y-32993942D02*
X138483884Y-33089180D01*
X138483884Y-33089180D02*
X138531503Y-33136800D01*
X138531503Y-33136800D02*
X138626741Y-33184419D01*
X138626741Y-33184419D02*
X138817217Y-33184419D01*
X138817217Y-33184419D02*
X138912455Y-33136800D01*
X138912455Y-33136800D02*
X138960074Y-33089180D01*
X138960074Y-33089180D02*
X139007693Y-32993942D01*
X139007693Y-32993942D02*
X139007693Y-32755847D01*
X139007693Y-32755847D02*
X138960074Y-32660609D01*
X138960074Y-32660609D02*
X138912455Y-32612990D01*
X138912455Y-32612990D02*
X138817217Y-32565371D01*
X138817217Y-32565371D02*
X138626741Y-32565371D01*
X138626741Y-32565371D02*
X138531503Y-32612990D01*
X138531503Y-32612990D02*
X138483884Y-32660609D01*
X138483884Y-32660609D02*
X138436265Y-32755847D01*
X181141027Y-144198419D02*
X181474360Y-145198419D01*
X181474360Y-145198419D02*
X181807693Y-144198419D01*
X182141027Y-145198419D02*
X182141027Y-144198419D01*
X182141027Y-144198419D02*
X182474360Y-144912704D01*
X182474360Y-144912704D02*
X182807693Y-144198419D01*
X182807693Y-144198419D02*
X182807693Y-145198419D01*
X183283884Y-145198419D02*
X183283884Y-144198419D01*
X183283884Y-144198419D02*
X183521979Y-144198419D01*
X183521979Y-144198419D02*
X183664836Y-144246038D01*
X183664836Y-144246038D02*
X183760074Y-144341276D01*
X183760074Y-144341276D02*
X183807693Y-144436514D01*
X183807693Y-144436514D02*
X183855312Y-144626990D01*
X183855312Y-144626990D02*
X183855312Y-144769847D01*
X183855312Y-144769847D02*
X183807693Y-144960323D01*
X183807693Y-144960323D02*
X183760074Y-145055561D01*
X183760074Y-145055561D02*
X183664836Y-145150800D01*
X183664836Y-145150800D02*
X183521979Y-145198419D01*
X183521979Y-145198419D02*
X183283884Y-145198419D01*
X184712455Y-144531752D02*
X184712455Y-145198419D01*
X184474360Y-144150800D02*
X184236265Y-144865085D01*
X184236265Y-144865085D02*
X184855312Y-144865085D01*
X185950550Y-144150800D02*
X185093408Y-145436514D01*
X186141027Y-144198419D02*
X186474360Y-145198419D01*
X186474360Y-145198419D02*
X186807693Y-144198419D01*
X187141027Y-145198419D02*
X187141027Y-144198419D01*
X187141027Y-144198419D02*
X187474360Y-144912704D01*
X187474360Y-144912704D02*
X187807693Y-144198419D01*
X187807693Y-144198419D02*
X187807693Y-145198419D01*
X188283884Y-145198419D02*
X188283884Y-144198419D01*
X188283884Y-144198419D02*
X188521979Y-144198419D01*
X188521979Y-144198419D02*
X188664836Y-144246038D01*
X188664836Y-144246038D02*
X188760074Y-144341276D01*
X188760074Y-144341276D02*
X188807693Y-144436514D01*
X188807693Y-144436514D02*
X188855312Y-144626990D01*
X188855312Y-144626990D02*
X188855312Y-144769847D01*
X188855312Y-144769847D02*
X188807693Y-144960323D01*
X188807693Y-144960323D02*
X188760074Y-145055561D01*
X188760074Y-145055561D02*
X188664836Y-145150800D01*
X188664836Y-145150800D02*
X188521979Y-145198419D01*
X188521979Y-145198419D02*
X188283884Y-145198419D01*
X189188646Y-144198419D02*
X189807693Y-144198419D01*
X189807693Y-144198419D02*
X189474360Y-144579371D01*
X189474360Y-144579371D02*
X189617217Y-144579371D01*
X189617217Y-144579371D02*
X189712455Y-144626990D01*
X189712455Y-144626990D02*
X189760074Y-144674609D01*
X189760074Y-144674609D02*
X189807693Y-144769847D01*
X189807693Y-144769847D02*
X189807693Y-145007942D01*
X189807693Y-145007942D02*
X189760074Y-145103180D01*
X189760074Y-145103180D02*
X189712455Y-145150800D01*
X189712455Y-145150800D02*
X189617217Y-145198419D01*
X189617217Y-145198419D02*
X189331503Y-145198419D01*
X189331503Y-145198419D02*
X189236265Y-145150800D01*
X189236265Y-145150800D02*
X189188646Y-145103180D01*
G36*
X115105446Y-49293739D02*
G01*
X115186599Y-49374892D01*
X115228136Y-49457966D01*
X115272931Y-49637145D01*
X115272931Y-49767692D01*
X115228136Y-49946870D01*
X115186599Y-50029944D01*
X115105445Y-50111098D01*
X114981485Y-50152419D01*
X114801503Y-50152419D01*
X114801503Y-49252419D01*
X114981485Y-49252419D01*
X115105446Y-49293739D01*
G37*
G36*
X115484042Y-50363530D02*
G01*
X112495154Y-50363530D01*
X112495154Y-49630990D01*
X112606265Y-49630990D01*
X112606265Y-49773847D01*
X112607460Y-49779856D01*
X112607758Y-49785974D01*
X112655377Y-49976450D01*
X112657716Y-49981402D01*
X112659163Y-49986684D01*
X112706781Y-50081921D01*
X112711692Y-50088249D01*
X112716147Y-50094916D01*
X112811386Y-50190155D01*
X112813467Y-50191545D01*
X112813981Y-50192573D01*
X112820946Y-50196543D01*
X112827607Y-50200994D01*
X112828755Y-50200994D01*
X112830930Y-50202234D01*
X112973786Y-50249853D01*
X112981736Y-50250855D01*
X112989598Y-50252419D01*
X113084836Y-50252419D01*
X113092698Y-50250855D01*
X113100647Y-50249853D01*
X113243504Y-50202234D01*
X113245679Y-50200994D01*
X113246828Y-50200994D01*
X113253498Y-50196536D01*
X113260452Y-50192573D01*
X113260964Y-50191547D01*
X113263049Y-50190155D01*
X113310668Y-50142535D01*
X113321506Y-50126314D01*
X113325312Y-50107180D01*
X113325312Y-49773847D01*
X113321506Y-49754713D01*
X113294446Y-49727653D01*
X113275312Y-49723847D01*
X113084836Y-49723847D01*
X113065702Y-49727653D01*
X113038642Y-49754713D01*
X113038642Y-49792981D01*
X113065702Y-49820041D01*
X113084836Y-49823847D01*
X113225312Y-49823847D01*
X113225312Y-50086469D01*
X113200683Y-50111098D01*
X113076723Y-50152419D01*
X112997711Y-50152419D01*
X112873751Y-50111099D01*
X112792595Y-50029942D01*
X112751060Y-49946872D01*
X112706265Y-49767692D01*
X112706265Y-49637145D01*
X112751060Y-49457965D01*
X112792596Y-49374893D01*
X112873749Y-49293739D01*
X112997711Y-49252419D01*
X113120652Y-49252419D01*
X113205332Y-49294759D01*
X113224148Y-49299912D01*
X113260453Y-49287810D01*
X113277567Y-49253582D01*
X113265465Y-49217278D01*
X113250053Y-49205316D01*
X113244259Y-49202419D01*
X113653884Y-49202419D01*
X113653884Y-50202419D01*
X113657690Y-50221553D01*
X113684750Y-50248613D01*
X113723018Y-50248613D01*
X113750078Y-50221553D01*
X113753884Y-50202419D01*
X113753884Y-49390697D01*
X114231900Y-50227226D01*
X114244698Y-50241951D01*
X114251322Y-50243757D01*
X114256178Y-50248613D01*
X114269126Y-50248613D01*
X114281618Y-50252020D01*
X114287580Y-50248613D01*
X114294446Y-50248613D01*
X114303599Y-50239459D01*
X114314844Y-50233034D01*
X114316651Y-50226407D01*
X114321506Y-50221553D01*
X114325312Y-50202419D01*
X114325312Y-49202419D01*
X114701503Y-49202419D01*
X114701503Y-50202419D01*
X114705309Y-50221553D01*
X114732369Y-50248613D01*
X114751503Y-50252419D01*
X114989598Y-50252419D01*
X114997460Y-50250855D01*
X115005409Y-50249853D01*
X115148266Y-50202234D01*
X115150441Y-50200994D01*
X115151590Y-50200994D01*
X115158260Y-50196536D01*
X115165214Y-50192573D01*
X115165726Y-50191547D01*
X115167811Y-50190155D01*
X115263049Y-50094916D01*
X115267502Y-50088250D01*
X115272414Y-50081922D01*
X115320033Y-49986684D01*
X115321479Y-49981402D01*
X115323819Y-49976450D01*
X115371438Y-49785974D01*
X115371735Y-49779856D01*
X115372931Y-49773847D01*
X115372931Y-49630990D01*
X115371735Y-49624980D01*
X115371438Y-49618863D01*
X115323819Y-49428387D01*
X115321479Y-49423434D01*
X115320033Y-49418153D01*
X115272414Y-49322915D01*
X115267498Y-49316580D01*
X115263048Y-49309921D01*
X115167810Y-49214683D01*
X115165727Y-49213291D01*
X115165214Y-49212265D01*
X115158253Y-49208297D01*
X115151589Y-49203844D01*
X115150441Y-49203844D01*
X115148266Y-49202604D01*
X115005409Y-49154985D01*
X114997460Y-49153982D01*
X114989598Y-49152419D01*
X114751503Y-49152419D01*
X114732369Y-49156225D01*
X114705309Y-49183285D01*
X114701503Y-49202419D01*
X114325312Y-49202419D01*
X114321506Y-49183285D01*
X114294446Y-49156225D01*
X114256178Y-49156225D01*
X114229118Y-49183285D01*
X114225312Y-49202419D01*
X114225312Y-50014140D01*
X113747296Y-49177612D01*
X113734499Y-49162887D01*
X113727872Y-49161079D01*
X113723018Y-49156225D01*
X113710071Y-49156225D01*
X113697578Y-49152818D01*
X113691616Y-49156225D01*
X113684750Y-49156225D01*
X113675596Y-49165378D01*
X113664352Y-49171804D01*
X113662544Y-49178430D01*
X113657690Y-49183285D01*
X113653884Y-49202419D01*
X113244259Y-49202419D01*
X113154816Y-49157698D01*
X113152400Y-49157036D01*
X113151589Y-49156225D01*
X113143727Y-49154661D01*
X113136000Y-49152545D01*
X113134911Y-49152907D01*
X113132455Y-49152419D01*
X112989598Y-49152419D01*
X112981736Y-49153982D01*
X112973786Y-49154985D01*
X112830930Y-49202604D01*
X112828755Y-49203844D01*
X112827607Y-49203844D01*
X112820946Y-49208294D01*
X112813981Y-49212265D01*
X112813467Y-49213292D01*
X112811386Y-49214683D01*
X112716148Y-49309921D01*
X112711696Y-49316582D01*
X112706781Y-49322916D01*
X112659163Y-49418153D01*
X112657716Y-49423434D01*
X112655377Y-49428387D01*
X112607758Y-49618863D01*
X112607460Y-49624980D01*
X112606265Y-49630990D01*
X112495154Y-49630990D01*
X112495154Y-49041308D01*
X115484042Y-49041308D01*
X115484042Y-50363530D01*
G37*
D12*
G36*
X154695768Y-41213361D02*
G01*
X154796375Y-41313968D01*
X154849554Y-41420327D01*
X154912510Y-41672148D01*
X154912510Y-41849507D01*
X154849554Y-42101328D01*
X154796375Y-42207688D01*
X154695769Y-42308294D01*
X154538167Y-42360828D01*
X154355367Y-42360828D01*
X154355367Y-41160828D01*
X154538170Y-41160828D01*
X154695768Y-41213361D01*
G37*
G36*
X157950606Y-42827495D02*
G01*
X151174415Y-42827495D01*
X151174415Y-41653685D01*
X151341082Y-41653685D01*
X151341082Y-41867971D01*
X151341584Y-41873074D01*
X151341259Y-41875262D01*
X151342878Y-41886212D01*
X151343964Y-41897235D01*
X151344811Y-41899279D01*
X151345561Y-41904351D01*
X151416989Y-42190065D01*
X151417760Y-42192223D01*
X151417837Y-42193304D01*
X151422495Y-42205478D01*
X151426882Y-42217756D01*
X151427526Y-42218626D01*
X151428346Y-42220767D01*
X151499775Y-42363624D01*
X151507702Y-42376217D01*
X151509218Y-42379877D01*
X151512599Y-42383996D01*
X151515440Y-42388510D01*
X151518433Y-42391106D01*
X151527873Y-42402608D01*
X151670730Y-42545466D01*
X151693460Y-42564121D01*
X151698439Y-42566183D01*
X151702511Y-42569715D01*
X151729362Y-42581703D01*
X151943648Y-42653131D01*
X151958160Y-42656430D01*
X151961818Y-42657946D01*
X151967120Y-42658468D01*
X151972322Y-42659651D01*
X151976276Y-42659369D01*
X151991082Y-42660828D01*
X152133939Y-42660828D01*
X152148744Y-42659369D01*
X152152699Y-42659651D01*
X152157900Y-42658468D01*
X152163203Y-42657946D01*
X152166860Y-42656430D01*
X152181373Y-42653131D01*
X152395659Y-42581703D01*
X152422510Y-42569715D01*
X152426583Y-42566181D01*
X152431561Y-42564120D01*
X152454292Y-42545465D01*
X152525720Y-42474036D01*
X152544374Y-42451306D01*
X152564545Y-42402608D01*
X152566771Y-42397235D01*
X152569653Y-42367971D01*
X152569653Y-41867971D01*
X152566771Y-41838707D01*
X152544373Y-41784635D01*
X152502989Y-41743251D01*
X152448917Y-41720853D01*
X152419653Y-41717971D01*
X152133939Y-41717971D01*
X152104675Y-41720853D01*
X152050603Y-41743251D01*
X152009219Y-41784635D01*
X151986821Y-41838707D01*
X151986821Y-41897235D01*
X152009219Y-41951307D01*
X152050603Y-41992691D01*
X152104675Y-42015089D01*
X152133939Y-42017971D01*
X152269653Y-42017971D01*
X152269653Y-42305839D01*
X152267198Y-42308294D01*
X152109596Y-42360828D01*
X152015425Y-42360828D01*
X151857822Y-42308294D01*
X151757217Y-42207688D01*
X151704036Y-42101328D01*
X151641082Y-41849507D01*
X151641082Y-41672148D01*
X151704036Y-41420327D01*
X151757217Y-41313967D01*
X151857823Y-41213361D01*
X152015425Y-41160828D01*
X152169958Y-41160828D01*
X152281142Y-41216421D01*
X152308606Y-41226930D01*
X152366986Y-41231079D01*
X152422508Y-41212572D01*
X152466724Y-41174225D01*
X152492898Y-41121876D01*
X152497047Y-41063496D01*
X152479491Y-41010828D01*
X154055367Y-41010828D01*
X154055367Y-42510828D01*
X154058249Y-42540092D01*
X154080647Y-42594164D01*
X154122031Y-42635548D01*
X154176103Y-42657946D01*
X154205367Y-42660828D01*
X154562510Y-42660828D01*
X154577315Y-42659369D01*
X154581270Y-42659651D01*
X154586471Y-42658468D01*
X154591774Y-42657946D01*
X154595431Y-42656430D01*
X154609944Y-42653131D01*
X154824230Y-42581703D01*
X154851081Y-42569715D01*
X154855152Y-42566183D01*
X154860132Y-42564121D01*
X154882862Y-42545466D01*
X155025719Y-42402608D01*
X155035157Y-42391106D01*
X155038152Y-42388510D01*
X155040992Y-42383996D01*
X155044374Y-42379877D01*
X155045889Y-42376217D01*
X155053817Y-42363624D01*
X155125246Y-42220768D01*
X155126065Y-42218625D01*
X155126710Y-42217756D01*
X155131094Y-42205484D01*
X155135755Y-42193304D01*
X155135831Y-42192223D01*
X155136603Y-42190065D01*
X155208031Y-41904351D01*
X155208780Y-41899279D01*
X155209628Y-41897235D01*
X155210713Y-41886212D01*
X155212333Y-41875262D01*
X155212007Y-41873074D01*
X155212510Y-41867971D01*
X155212510Y-41653685D01*
X155212007Y-41648581D01*
X155212333Y-41646394D01*
X155210713Y-41635443D01*
X155209628Y-41624421D01*
X155208780Y-41622376D01*
X155208031Y-41617305D01*
X155136603Y-41331591D01*
X155135831Y-41329432D01*
X155135755Y-41328352D01*
X155131094Y-41316171D01*
X155126710Y-41303900D01*
X155126065Y-41303030D01*
X155125246Y-41300888D01*
X155123073Y-41296542D01*
X156626796Y-41296542D01*
X156626796Y-41439400D01*
X156629678Y-41468664D01*
X156631740Y-41473642D01*
X156632122Y-41479018D01*
X156642632Y-41506482D01*
X156714060Y-41649339D01*
X156721988Y-41661934D01*
X156723504Y-41665593D01*
X156726883Y-41669710D01*
X156729725Y-41674225D01*
X156732719Y-41676821D01*
X156742159Y-41688324D01*
X156813588Y-41759752D01*
X156825088Y-41769190D01*
X156827685Y-41772184D01*
X156832197Y-41775024D01*
X156836318Y-41778406D01*
X156839977Y-41779921D01*
X156852571Y-41787849D01*
X156995427Y-41859278D01*
X156997569Y-41860097D01*
X156998439Y-41860742D01*
X157010710Y-41865126D01*
X157022891Y-41869787D01*
X157023971Y-41869863D01*
X157026130Y-41870635D01*
X157295868Y-41938069D01*
X157402227Y-41991248D01*
X157439231Y-42028253D01*
X157483939Y-42117667D01*
X157483939Y-42189703D01*
X157439231Y-42279117D01*
X157402228Y-42316121D01*
X157312815Y-42360828D01*
X157015425Y-42360828D01*
X156824230Y-42297097D01*
X156795556Y-42290577D01*
X156737176Y-42294727D01*
X156684829Y-42320901D01*
X156646481Y-42365115D01*
X156627973Y-42420640D01*
X156632123Y-42479020D01*
X156658297Y-42531367D01*
X156702511Y-42569715D01*
X156729362Y-42581703D01*
X156943648Y-42653131D01*
X156958160Y-42656430D01*
X156961818Y-42657946D01*
X156967120Y-42658468D01*
X156972322Y-42659651D01*
X156976276Y-42659369D01*
X156991082Y-42660828D01*
X157348224Y-42660828D01*
X157377488Y-42657946D01*
X157382466Y-42655883D01*
X157387842Y-42655502D01*
X157415305Y-42644992D01*
X157558164Y-42573564D01*
X157570758Y-42565635D01*
X157574418Y-42564120D01*
X157578538Y-42560738D01*
X157583049Y-42557899D01*
X157585643Y-42554907D01*
X157597149Y-42545465D01*
X157668577Y-42474036D01*
X157678015Y-42462535D01*
X157681009Y-42459939D01*
X157683849Y-42455426D01*
X157687231Y-42451306D01*
X157688746Y-42447646D01*
X157696674Y-42435053D01*
X157768103Y-42292197D01*
X157778612Y-42264733D01*
X157778993Y-42259358D01*
X157781057Y-42254378D01*
X157783939Y-42225114D01*
X157783939Y-42082257D01*
X157781057Y-42052993D01*
X157778993Y-42048012D01*
X157778612Y-42042638D01*
X157768103Y-42015174D01*
X157696674Y-41872318D01*
X157688746Y-41859724D01*
X157687231Y-41856065D01*
X157683849Y-41851944D01*
X157681009Y-41847432D01*
X157678015Y-41844835D01*
X157668577Y-41833335D01*
X157597149Y-41761906D01*
X157585646Y-41752466D01*
X157583050Y-41749472D01*
X157578535Y-41746630D01*
X157574418Y-41743251D01*
X157570759Y-41741735D01*
X157558164Y-41733807D01*
X157415306Y-41662378D01*
X157413165Y-41661558D01*
X157412295Y-41660914D01*
X157400039Y-41656535D01*
X157387843Y-41651868D01*
X157386759Y-41651791D01*
X157384604Y-41651021D01*
X157114866Y-41583586D01*
X157008506Y-41530406D01*
X156971501Y-41493401D01*
X156926796Y-41403990D01*
X156926796Y-41331951D01*
X156971501Y-41242540D01*
X157008506Y-41205535D01*
X157097920Y-41160828D01*
X157395313Y-41160828D01*
X157586504Y-41224559D01*
X157615178Y-41231079D01*
X157673558Y-41226930D01*
X157725905Y-41200756D01*
X157764253Y-41156542D01*
X157782761Y-41101018D01*
X157778612Y-41042638D01*
X157752438Y-40990290D01*
X157708224Y-40951943D01*
X157681373Y-40939954D01*
X157467087Y-40868526D01*
X157452579Y-40865227D01*
X157448917Y-40863710D01*
X157443608Y-40863187D01*
X157438414Y-40862006D01*
X157434464Y-40862286D01*
X157419653Y-40860828D01*
X157062510Y-40860828D01*
X157033246Y-40863710D01*
X157028265Y-40865773D01*
X157022891Y-40866155D01*
X156995427Y-40876664D01*
X156852571Y-40948093D01*
X156839977Y-40956020D01*
X156836318Y-40957536D01*
X156832197Y-40960917D01*
X156827685Y-40963758D01*
X156825088Y-40966751D01*
X156813588Y-40976190D01*
X156742159Y-41047618D01*
X156732719Y-41059120D01*
X156729725Y-41061717D01*
X156726883Y-41066231D01*
X156723504Y-41070349D01*
X156721988Y-41074007D01*
X156714060Y-41086603D01*
X156642632Y-41229460D01*
X156632122Y-41256924D01*
X156631740Y-41262299D01*
X156629678Y-41267278D01*
X156626796Y-41296542D01*
X155123073Y-41296542D01*
X155053817Y-41158032D01*
X155045890Y-41145440D01*
X155044374Y-41141778D01*
X155040990Y-41137655D01*
X155038152Y-41133146D01*
X155035159Y-41130550D01*
X155025719Y-41119048D01*
X154882862Y-40976191D01*
X154860131Y-40957536D01*
X154855151Y-40955473D01*
X154851081Y-40951943D01*
X154824230Y-40939954D01*
X154609944Y-40868526D01*
X154595436Y-40865227D01*
X154591774Y-40863710D01*
X154586465Y-40863187D01*
X154581271Y-40862006D01*
X154577321Y-40862286D01*
X154562510Y-40860828D01*
X154205367Y-40860828D01*
X154176103Y-40863710D01*
X154122031Y-40886108D01*
X154080647Y-40927492D01*
X154058249Y-40981564D01*
X154055367Y-41010828D01*
X152479491Y-41010828D01*
X152478539Y-41007973D01*
X152440193Y-40963758D01*
X152415307Y-40948093D01*
X152272450Y-40876664D01*
X152244987Y-40866155D01*
X152239612Y-40865773D01*
X152234632Y-40863710D01*
X152205368Y-40860828D01*
X151991082Y-40860828D01*
X151976270Y-40862286D01*
X151972321Y-40862006D01*
X151967126Y-40863187D01*
X151961818Y-40863710D01*
X151958156Y-40865226D01*
X151943647Y-40868526D01*
X151729362Y-40939955D01*
X151702511Y-40951943D01*
X151698441Y-40955472D01*
X151693460Y-40957536D01*
X151670730Y-40976191D01*
X151527873Y-41119048D01*
X151518433Y-41130549D01*
X151515440Y-41133146D01*
X151512599Y-41137659D01*
X151509218Y-41141779D01*
X151507702Y-41145438D01*
X151499775Y-41158032D01*
X151428346Y-41300889D01*
X151427526Y-41303029D01*
X151426882Y-41303900D01*
X151422495Y-41316177D01*
X151417837Y-41328352D01*
X151417760Y-41329432D01*
X151416989Y-41331591D01*
X151345561Y-41617305D01*
X151344811Y-41622376D01*
X151343964Y-41624421D01*
X151342878Y-41635443D01*
X151341259Y-41646394D01*
X151341584Y-41648581D01*
X151341082Y-41653685D01*
X151174415Y-41653685D01*
X151174415Y-40694161D01*
X157950606Y-40694161D01*
X157950606Y-42827495D01*
G37*
D10*
G36*
X168953446Y-143781739D02*
G01*
X169034599Y-143862892D01*
X169076136Y-143945966D01*
X169120931Y-144125145D01*
X169120931Y-144255692D01*
X169076136Y-144434870D01*
X169034599Y-144517944D01*
X168953445Y-144599098D01*
X168829485Y-144640419D01*
X168649503Y-144640419D01*
X168649503Y-143740419D01*
X168829485Y-143740419D01*
X168953446Y-143781739D01*
G37*
G36*
X174286780Y-143781739D02*
G01*
X174367933Y-143862892D01*
X174409470Y-143945966D01*
X174454265Y-144125145D01*
X174454265Y-144255692D01*
X174409470Y-144434870D01*
X174367933Y-144517944D01*
X174286779Y-144599098D01*
X174162819Y-144640419D01*
X173982837Y-144640419D01*
X173982837Y-143740419D01*
X174162819Y-143740419D01*
X174286780Y-143781739D01*
G37*
G36*
X174665376Y-144851530D02*
G01*
X166343154Y-144851530D01*
X166343154Y-144118990D01*
X166454265Y-144118990D01*
X166454265Y-144261847D01*
X166455460Y-144267856D01*
X166455758Y-144273974D01*
X166503377Y-144464450D01*
X166505716Y-144469402D01*
X166507163Y-144474684D01*
X166554781Y-144569921D01*
X166559692Y-144576249D01*
X166564147Y-144582916D01*
X166659386Y-144678155D01*
X166661467Y-144679545D01*
X166661981Y-144680573D01*
X166668946Y-144684543D01*
X166675607Y-144688994D01*
X166676755Y-144688994D01*
X166678930Y-144690234D01*
X166821786Y-144737853D01*
X166829736Y-144738855D01*
X166837598Y-144740419D01*
X166932836Y-144740419D01*
X166940698Y-144738855D01*
X166948647Y-144737853D01*
X167091504Y-144690234D01*
X167093679Y-144688994D01*
X167094828Y-144688994D01*
X167101498Y-144684536D01*
X167108452Y-144680573D01*
X167108964Y-144679547D01*
X167111049Y-144678155D01*
X167158668Y-144630535D01*
X167169506Y-144614314D01*
X167173312Y-144595180D01*
X167173312Y-144261847D01*
X167169506Y-144242713D01*
X167142446Y-144215653D01*
X167123312Y-144211847D01*
X166932836Y-144211847D01*
X166913702Y-144215653D01*
X166886642Y-144242713D01*
X166886642Y-144280981D01*
X166913702Y-144308041D01*
X166932836Y-144311847D01*
X167073312Y-144311847D01*
X167073312Y-144574469D01*
X167048683Y-144599098D01*
X166924723Y-144640419D01*
X166845711Y-144640419D01*
X166721751Y-144599099D01*
X166640595Y-144517942D01*
X166599060Y-144434872D01*
X166554265Y-144255692D01*
X166554265Y-144125145D01*
X166599060Y-143945965D01*
X166640596Y-143862893D01*
X166721749Y-143781739D01*
X166845711Y-143740419D01*
X166968652Y-143740419D01*
X167053332Y-143782759D01*
X167072148Y-143787912D01*
X167108453Y-143775810D01*
X167125567Y-143741582D01*
X167113465Y-143705278D01*
X167098053Y-143693316D01*
X167092259Y-143690419D01*
X167501884Y-143690419D01*
X167501884Y-144690419D01*
X167505690Y-144709553D01*
X167532750Y-144736613D01*
X167571018Y-144736613D01*
X167598078Y-144709553D01*
X167601884Y-144690419D01*
X167601884Y-143878697D01*
X168079900Y-144715226D01*
X168092698Y-144729951D01*
X168099322Y-144731757D01*
X168104178Y-144736613D01*
X168117126Y-144736613D01*
X168129618Y-144740020D01*
X168135580Y-144736613D01*
X168142446Y-144736613D01*
X168151599Y-144727459D01*
X168162844Y-144721034D01*
X168164651Y-144714407D01*
X168169506Y-144709553D01*
X168173312Y-144690419D01*
X168173312Y-143690419D01*
X168549503Y-143690419D01*
X168549503Y-144690419D01*
X168553309Y-144709553D01*
X168580369Y-144736613D01*
X168599503Y-144740419D01*
X168837598Y-144740419D01*
X168845460Y-144738855D01*
X168853409Y-144737853D01*
X168996266Y-144690234D01*
X168998441Y-144688994D01*
X168999590Y-144688994D01*
X169006260Y-144684536D01*
X169013214Y-144680573D01*
X169013726Y-144679547D01*
X169015811Y-144678155D01*
X169111049Y-144582916D01*
X169115502Y-144576250D01*
X169120414Y-144569922D01*
X169168033Y-144474684D01*
X169169479Y-144469402D01*
X169171819Y-144464450D01*
X169219438Y-144273974D01*
X169219735Y-144267856D01*
X169220931Y-144261847D01*
X169220931Y-144118990D01*
X171787599Y-144118990D01*
X171787599Y-144261847D01*
X171788794Y-144267856D01*
X171789092Y-144273974D01*
X171836711Y-144464450D01*
X171839050Y-144469402D01*
X171840497Y-144474684D01*
X171888115Y-144569921D01*
X171893026Y-144576249D01*
X171897481Y-144582916D01*
X171992720Y-144678155D01*
X171994801Y-144679545D01*
X171995315Y-144680573D01*
X172002280Y-144684543D01*
X172008941Y-144688994D01*
X172010089Y-144688994D01*
X172012264Y-144690234D01*
X172155120Y-144737853D01*
X172163070Y-144738855D01*
X172170932Y-144740419D01*
X172266170Y-144740419D01*
X172274032Y-144738855D01*
X172281981Y-144737853D01*
X172424838Y-144690234D01*
X172427013Y-144688994D01*
X172428162Y-144688994D01*
X172434832Y-144684536D01*
X172441786Y-144680573D01*
X172442298Y-144679547D01*
X172444383Y-144678155D01*
X172492002Y-144630535D01*
X172502840Y-144614314D01*
X172506646Y-144595180D01*
X172506646Y-144261847D01*
X172502840Y-144242713D01*
X172475780Y-144215653D01*
X172456646Y-144211847D01*
X172266170Y-144211847D01*
X172247036Y-144215653D01*
X172219976Y-144242713D01*
X172219976Y-144280981D01*
X172247036Y-144308041D01*
X172266170Y-144311847D01*
X172406646Y-144311847D01*
X172406646Y-144574469D01*
X172382017Y-144599098D01*
X172258057Y-144640419D01*
X172179045Y-144640419D01*
X172055085Y-144599099D01*
X171973929Y-144517942D01*
X171932394Y-144434872D01*
X171887599Y-144255692D01*
X171887599Y-144125145D01*
X171932394Y-143945965D01*
X171973930Y-143862893D01*
X172055083Y-143781739D01*
X172179045Y-143740419D01*
X172301986Y-143740419D01*
X172386666Y-143782759D01*
X172405482Y-143787912D01*
X172441787Y-143775810D01*
X172458901Y-143741582D01*
X172446799Y-143705278D01*
X172431387Y-143693316D01*
X172425593Y-143690419D01*
X172835218Y-143690419D01*
X172835218Y-144690419D01*
X172839024Y-144709553D01*
X172866084Y-144736613D01*
X172904352Y-144736613D01*
X172931412Y-144709553D01*
X172935218Y-144690419D01*
X172935218Y-143878697D01*
X173413234Y-144715226D01*
X173426032Y-144729951D01*
X173432656Y-144731757D01*
X173437512Y-144736613D01*
X173450460Y-144736613D01*
X173462952Y-144740020D01*
X173468914Y-144736613D01*
X173475780Y-144736613D01*
X173484933Y-144727459D01*
X173496178Y-144721034D01*
X173497985Y-144714407D01*
X173502840Y-144709553D01*
X173506646Y-144690419D01*
X173506646Y-143690419D01*
X173882837Y-143690419D01*
X173882837Y-144690419D01*
X173886643Y-144709553D01*
X173913703Y-144736613D01*
X173932837Y-144740419D01*
X174170932Y-144740419D01*
X174178794Y-144738855D01*
X174186743Y-144737853D01*
X174329600Y-144690234D01*
X174331775Y-144688994D01*
X174332924Y-144688994D01*
X174339594Y-144684536D01*
X174346548Y-144680573D01*
X174347060Y-144679547D01*
X174349145Y-144678155D01*
X174444383Y-144582916D01*
X174448836Y-144576250D01*
X174453748Y-144569922D01*
X174501367Y-144474684D01*
X174502813Y-144469402D01*
X174505153Y-144464450D01*
X174552772Y-144273974D01*
X174553069Y-144267856D01*
X174554265Y-144261847D01*
X174554265Y-144118990D01*
X174553069Y-144112980D01*
X174552772Y-144106863D01*
X174505153Y-143916387D01*
X174502813Y-143911434D01*
X174501367Y-143906153D01*
X174453748Y-143810915D01*
X174448832Y-143804580D01*
X174444382Y-143797921D01*
X174349144Y-143702683D01*
X174347061Y-143701291D01*
X174346548Y-143700265D01*
X174339587Y-143696297D01*
X174332923Y-143691844D01*
X174331775Y-143691844D01*
X174329600Y-143690604D01*
X174186743Y-143642985D01*
X174178794Y-143641982D01*
X174170932Y-143640419D01*
X173932837Y-143640419D01*
X173913703Y-143644225D01*
X173886643Y-143671285D01*
X173882837Y-143690419D01*
X173506646Y-143690419D01*
X173502840Y-143671285D01*
X173475780Y-143644225D01*
X173437512Y-143644225D01*
X173410452Y-143671285D01*
X173406646Y-143690419D01*
X173406646Y-144502140D01*
X172928630Y-143665612D01*
X172915833Y-143650887D01*
X172909206Y-143649079D01*
X172904352Y-143644225D01*
X172891405Y-143644225D01*
X172878912Y-143640818D01*
X172872950Y-143644225D01*
X172866084Y-143644225D01*
X172856930Y-143653378D01*
X172845686Y-143659804D01*
X172843878Y-143666430D01*
X172839024Y-143671285D01*
X172835218Y-143690419D01*
X172425593Y-143690419D01*
X172336150Y-143645698D01*
X172333734Y-143645036D01*
X172332923Y-143644225D01*
X172325061Y-143642661D01*
X172317334Y-143640545D01*
X172316245Y-143640907D01*
X172313789Y-143640419D01*
X172170932Y-143640419D01*
X172163070Y-143641982D01*
X172155120Y-143642985D01*
X172012264Y-143690604D01*
X172010089Y-143691844D01*
X172008941Y-143691844D01*
X172002280Y-143696294D01*
X171995315Y-143700265D01*
X171994801Y-143701292D01*
X171992720Y-143702683D01*
X171897482Y-143797921D01*
X171893030Y-143804582D01*
X171888115Y-143810916D01*
X171840497Y-143906153D01*
X171839050Y-143911434D01*
X171836711Y-143916387D01*
X171789092Y-144106863D01*
X171788794Y-144112980D01*
X171787599Y-144118990D01*
X169220931Y-144118990D01*
X169219735Y-144112980D01*
X169219438Y-144106863D01*
X169171819Y-143916387D01*
X169169479Y-143911434D01*
X169168033Y-143906153D01*
X169120414Y-143810915D01*
X169115498Y-143804580D01*
X169111048Y-143797921D01*
X169015810Y-143702683D01*
X169013727Y-143701291D01*
X169013214Y-143700265D01*
X169006253Y-143696297D01*
X168999589Y-143691844D01*
X168998441Y-143691844D01*
X168996266Y-143690604D01*
X168853409Y-143642985D01*
X168845460Y-143641982D01*
X168837598Y-143640419D01*
X168599503Y-143640419D01*
X168580369Y-143644225D01*
X168553309Y-143671285D01*
X168549503Y-143690419D01*
X168173312Y-143690419D01*
X168169506Y-143671285D01*
X168142446Y-143644225D01*
X168104178Y-143644225D01*
X168077118Y-143671285D01*
X168073312Y-143690419D01*
X168073312Y-144502140D01*
X167595296Y-143665612D01*
X167582499Y-143650887D01*
X167575872Y-143649079D01*
X167571018Y-143644225D01*
X167558071Y-143644225D01*
X167545578Y-143640818D01*
X167539616Y-143644225D01*
X167532750Y-143644225D01*
X167523596Y-143653378D01*
X167512352Y-143659804D01*
X167510544Y-143666430D01*
X167505690Y-143671285D01*
X167501884Y-143690419D01*
X167092259Y-143690419D01*
X167002816Y-143645698D01*
X167000400Y-143645036D01*
X166999589Y-143644225D01*
X166991727Y-143642661D01*
X166984000Y-143640545D01*
X166982911Y-143640907D01*
X166980455Y-143640419D01*
X166837598Y-143640419D01*
X166829736Y-143641982D01*
X166821786Y-143642985D01*
X166678930Y-143690604D01*
X166676755Y-143691844D01*
X166675607Y-143691844D01*
X166668946Y-143696294D01*
X166661981Y-143700265D01*
X166661467Y-143701292D01*
X166659386Y-143702683D01*
X166564148Y-143797921D01*
X166559696Y-143804582D01*
X166554781Y-143810916D01*
X166507163Y-143906153D01*
X166505716Y-143911434D01*
X166503377Y-143916387D01*
X166455758Y-144106863D01*
X166455460Y-144112980D01*
X166454265Y-144118990D01*
X166343154Y-144118990D01*
X166343154Y-143529308D01*
X174665376Y-143529308D01*
X174665376Y-144851530D01*
G37*
G36*
X144168691Y-50508519D02*
G01*
X142846469Y-50508519D01*
X142846469Y-50061694D01*
X142957580Y-50061694D01*
X142957580Y-50156932D01*
X142959143Y-50164793D01*
X142960146Y-50172744D01*
X143007766Y-50315601D01*
X143009006Y-50317776D01*
X143009006Y-50318923D01*
X143013455Y-50325581D01*
X143017427Y-50332549D01*
X143018454Y-50333062D01*
X143019845Y-50335144D01*
X143067463Y-50382763D01*
X143083684Y-50393602D01*
X143083685Y-50393602D01*
X143102819Y-50397408D01*
X143436152Y-50397408D01*
X143455286Y-50393602D01*
X143482346Y-50366542D01*
X143486152Y-50347408D01*
X143486152Y-50156932D01*
X143482346Y-50137798D01*
X143455286Y-50110738D01*
X143417018Y-50110738D01*
X143389958Y-50137798D01*
X143386152Y-50156932D01*
X143386152Y-50297408D01*
X143123530Y-50297408D01*
X143098901Y-50272780D01*
X143057580Y-50148817D01*
X143057580Y-50069808D01*
X143098901Y-49945845D01*
X143180054Y-49864692D01*
X143263128Y-49823155D01*
X143442307Y-49778361D01*
X143572854Y-49778361D01*
X143752034Y-49823156D01*
X143835106Y-49864692D01*
X143916259Y-49945845D01*
X143957580Y-50069807D01*
X143957580Y-50192747D01*
X143915240Y-50277428D01*
X143910087Y-50296244D01*
X143922188Y-50332549D01*
X143956416Y-50349663D01*
X143992721Y-50337562D01*
X144004682Y-50322150D01*
X144052301Y-50226912D01*
X144052962Y-50224496D01*
X144053774Y-50223685D01*
X144055337Y-50215823D01*
X144057454Y-50208096D01*
X144057091Y-50207007D01*
X144057580Y-50204551D01*
X144057580Y-50061694D01*
X144056016Y-50053832D01*
X144055014Y-50045882D01*
X144007395Y-49903026D01*
X144006155Y-49900850D01*
X144006155Y-49899703D01*
X144001704Y-49893042D01*
X143997734Y-49886077D01*
X143996706Y-49885563D01*
X143995316Y-49883482D01*
X143900078Y-49788244D01*
X143893416Y-49783792D01*
X143887083Y-49778877D01*
X143791846Y-49731259D01*
X143786564Y-49729812D01*
X143781612Y-49727473D01*
X143591136Y-49679854D01*
X143585018Y-49679556D01*
X143579009Y-49678361D01*
X143436152Y-49678361D01*
X143430142Y-49679556D01*
X143424025Y-49679854D01*
X143233549Y-49727473D01*
X143228596Y-49729812D01*
X143223315Y-49731259D01*
X143128077Y-49778878D01*
X143121742Y-49783793D01*
X143115083Y-49788244D01*
X143019845Y-49883482D01*
X143018454Y-49885563D01*
X143017427Y-49886077D01*
X143013455Y-49893044D01*
X143009006Y-49899703D01*
X143009006Y-49900849D01*
X143007766Y-49903025D01*
X142960146Y-50045882D01*
X142959143Y-50053832D01*
X142957580Y-50061694D01*
X142846469Y-50061694D01*
X142846469Y-47375893D01*
X142961386Y-47375893D01*
X142961386Y-47414161D01*
X142988446Y-47441221D01*
X143007580Y-47445027D01*
X143338533Y-47445027D01*
X143338533Y-47775980D01*
X143342339Y-47795114D01*
X143369399Y-47822174D01*
X143407667Y-47822174D01*
X143434727Y-47795114D01*
X143438533Y-47775980D01*
X143438533Y-47445027D01*
X143769485Y-47445027D01*
X143788619Y-47441221D01*
X143815679Y-47414161D01*
X143815679Y-47375893D01*
X143788619Y-47348833D01*
X143769485Y-47345027D01*
X143438533Y-47345027D01*
X143438533Y-47014075D01*
X143434727Y-46994941D01*
X143407667Y-46967881D01*
X143369399Y-46967881D01*
X143342339Y-46994941D01*
X143338533Y-47014075D01*
X143338533Y-47345027D01*
X143007580Y-47345027D01*
X142988446Y-47348833D01*
X142961386Y-47375893D01*
X142846469Y-47375893D01*
X142846469Y-44633122D01*
X142957580Y-44633122D01*
X142957580Y-44871217D01*
X142958068Y-44873673D01*
X142957706Y-44874762D01*
X142959822Y-44882489D01*
X142961386Y-44890351D01*
X142962197Y-44891162D01*
X142962859Y-44893578D01*
X143010479Y-44988816D01*
X143015394Y-44995150D01*
X143019845Y-45001810D01*
X143067463Y-45049429D01*
X143074129Y-45053883D01*
X143080458Y-45058795D01*
X143175696Y-45106414D01*
X143178111Y-45107075D01*
X143178923Y-45107887D01*
X143186784Y-45109450D01*
X143194512Y-45111567D01*
X143195600Y-45111204D01*
X143198057Y-45111693D01*
X143293295Y-45111693D01*
X143295751Y-45111204D01*
X143296840Y-45111567D01*
X143304567Y-45109450D01*
X143312429Y-45107887D01*
X143313240Y-45107075D01*
X143315656Y-45106414D01*
X143410893Y-45058796D01*
X143417226Y-45053880D01*
X143423888Y-45049429D01*
X143471507Y-45001811D01*
X143475961Y-44995144D01*
X143480873Y-44988816D01*
X143528492Y-44893578D01*
X143529938Y-44888296D01*
X143532278Y-44883344D01*
X143578566Y-44698192D01*
X143620101Y-44615120D01*
X143656246Y-44578976D01*
X143733670Y-44540265D01*
X143805301Y-44540265D01*
X143882724Y-44578976D01*
X143918868Y-44615121D01*
X143957580Y-44692544D01*
X143957580Y-44910723D01*
X143912527Y-45045882D01*
X143910087Y-45065237D01*
X143927201Y-45099466D01*
X143963505Y-45111567D01*
X143997734Y-45094453D01*
X144007395Y-45077504D01*
X144055014Y-44934648D01*
X144056016Y-44926697D01*
X144057580Y-44918836D01*
X144057580Y-44680741D01*
X144057091Y-44678284D01*
X144057454Y-44677196D01*
X144055337Y-44669468D01*
X144053774Y-44661607D01*
X144052962Y-44660795D01*
X144052301Y-44658380D01*
X144004682Y-44563142D01*
X143999770Y-44556813D01*
X143995316Y-44550147D01*
X143947697Y-44502529D01*
X143941035Y-44498077D01*
X143934702Y-44493162D01*
X143839465Y-44445544D01*
X143837049Y-44444882D01*
X143836238Y-44444071D01*
X143828376Y-44442507D01*
X143820649Y-44440391D01*
X143819560Y-44440753D01*
X143817104Y-44440265D01*
X143721866Y-44440265D01*
X143719409Y-44440753D01*
X143718321Y-44440391D01*
X143710593Y-44442507D01*
X143702732Y-44444071D01*
X143701920Y-44444882D01*
X143699505Y-44445544D01*
X143604267Y-44493163D01*
X143597938Y-44498074D01*
X143591272Y-44502529D01*
X143543654Y-44550148D01*
X143539202Y-44556809D01*
X143534287Y-44563143D01*
X143486669Y-44658380D01*
X143485222Y-44663661D01*
X143482883Y-44668614D01*
X143436595Y-44853764D01*
X143395059Y-44936836D01*
X143358915Y-44972981D01*
X143281492Y-45011693D01*
X143209861Y-45011693D01*
X143132437Y-44972981D01*
X143096292Y-44936837D01*
X143057580Y-44859413D01*
X143057580Y-44641236D01*
X143102634Y-44506077D01*
X143105074Y-44486721D01*
X143087960Y-44452492D01*
X143051656Y-44440391D01*
X143017427Y-44457505D01*
X143007766Y-44474453D01*
X142960146Y-44617310D01*
X142959143Y-44625260D01*
X142957580Y-44633122D01*
X142846469Y-44633122D01*
X142846469Y-44329154D01*
X144168691Y-44329154D01*
X144168691Y-50508519D01*
G37*
G36*
X144676691Y-83782519D02*
G01*
X143354469Y-83782519D01*
X143354469Y-83335694D01*
X143465580Y-83335694D01*
X143465580Y-83430932D01*
X143467143Y-83438793D01*
X143468146Y-83446744D01*
X143515766Y-83589601D01*
X143517006Y-83591776D01*
X143517006Y-83592923D01*
X143521455Y-83599581D01*
X143525427Y-83606549D01*
X143526454Y-83607062D01*
X143527845Y-83609144D01*
X143575463Y-83656763D01*
X143591684Y-83667602D01*
X143591685Y-83667602D01*
X143610819Y-83671408D01*
X143944152Y-83671408D01*
X143963286Y-83667602D01*
X143990346Y-83640542D01*
X143994152Y-83621408D01*
X143994152Y-83430932D01*
X143990346Y-83411798D01*
X143963286Y-83384738D01*
X143925018Y-83384738D01*
X143897958Y-83411798D01*
X143894152Y-83430932D01*
X143894152Y-83571408D01*
X143631530Y-83571408D01*
X143606901Y-83546780D01*
X143565580Y-83422817D01*
X143565580Y-83343808D01*
X143606901Y-83219845D01*
X143688054Y-83138692D01*
X143771128Y-83097155D01*
X143950307Y-83052361D01*
X144080854Y-83052361D01*
X144260034Y-83097156D01*
X144343106Y-83138692D01*
X144424259Y-83219845D01*
X144465580Y-83343807D01*
X144465580Y-83466747D01*
X144423240Y-83551428D01*
X144418087Y-83570244D01*
X144430188Y-83606549D01*
X144464416Y-83623663D01*
X144500721Y-83611562D01*
X144512682Y-83596150D01*
X144560301Y-83500912D01*
X144560962Y-83498496D01*
X144561774Y-83497685D01*
X144563337Y-83489823D01*
X144565454Y-83482096D01*
X144565091Y-83481007D01*
X144565580Y-83478551D01*
X144565580Y-83335694D01*
X144564016Y-83327832D01*
X144563014Y-83319882D01*
X144515395Y-83177026D01*
X144514155Y-83174850D01*
X144514155Y-83173703D01*
X144509704Y-83167042D01*
X144505734Y-83160077D01*
X144504706Y-83159563D01*
X144503316Y-83157482D01*
X144408078Y-83062244D01*
X144401416Y-83057792D01*
X144395083Y-83052877D01*
X144299846Y-83005259D01*
X144294564Y-83003812D01*
X144289612Y-83001473D01*
X144099136Y-82953854D01*
X144093018Y-82953556D01*
X144087009Y-82952361D01*
X143944152Y-82952361D01*
X143938142Y-82953556D01*
X143932025Y-82953854D01*
X143741549Y-83001473D01*
X143736596Y-83003812D01*
X143731315Y-83005259D01*
X143636077Y-83052878D01*
X143629742Y-83057793D01*
X143623083Y-83062244D01*
X143527845Y-83157482D01*
X143526454Y-83159563D01*
X143525427Y-83160077D01*
X143521455Y-83167044D01*
X143517006Y-83173703D01*
X143517006Y-83174849D01*
X143515766Y-83177025D01*
X143468146Y-83319882D01*
X143467143Y-83327832D01*
X143465580Y-83335694D01*
X143354469Y-83335694D01*
X143354469Y-80649893D01*
X143469386Y-80649893D01*
X143469386Y-80688161D01*
X143496446Y-80715221D01*
X143515580Y-80719027D01*
X143846533Y-80719027D01*
X143846533Y-81049980D01*
X143850339Y-81069114D01*
X143877399Y-81096174D01*
X143915667Y-81096174D01*
X143942727Y-81069114D01*
X143946533Y-81049980D01*
X143946533Y-80719027D01*
X144277485Y-80719027D01*
X144296619Y-80715221D01*
X144323679Y-80688161D01*
X144323679Y-80649893D01*
X144296619Y-80622833D01*
X144277485Y-80619027D01*
X143946533Y-80619027D01*
X143946533Y-80288075D01*
X143942727Y-80268941D01*
X143915667Y-80241881D01*
X143877399Y-80241881D01*
X143850339Y-80268941D01*
X143846533Y-80288075D01*
X143846533Y-80619027D01*
X143515580Y-80619027D01*
X143496446Y-80622833D01*
X143469386Y-80649893D01*
X143354469Y-80649893D01*
X143354469Y-77907122D01*
X143465580Y-77907122D01*
X143465580Y-78145217D01*
X143466068Y-78147673D01*
X143465706Y-78148762D01*
X143467822Y-78156489D01*
X143469386Y-78164351D01*
X143470197Y-78165162D01*
X143470859Y-78167578D01*
X143518479Y-78262816D01*
X143523394Y-78269150D01*
X143527845Y-78275810D01*
X143575463Y-78323429D01*
X143582129Y-78327883D01*
X143588458Y-78332795D01*
X143683696Y-78380414D01*
X143686111Y-78381075D01*
X143686923Y-78381887D01*
X143694784Y-78383450D01*
X143702512Y-78385567D01*
X143703600Y-78385204D01*
X143706057Y-78385693D01*
X143801295Y-78385693D01*
X143803751Y-78385204D01*
X143804840Y-78385567D01*
X143812567Y-78383450D01*
X143820429Y-78381887D01*
X143821240Y-78381075D01*
X143823656Y-78380414D01*
X143918893Y-78332796D01*
X143925226Y-78327880D01*
X143931888Y-78323429D01*
X143979507Y-78275811D01*
X143983961Y-78269144D01*
X143988873Y-78262816D01*
X144036492Y-78167578D01*
X144037938Y-78162296D01*
X144040278Y-78157344D01*
X144086566Y-77972192D01*
X144128101Y-77889120D01*
X144164246Y-77852976D01*
X144241670Y-77814265D01*
X144313301Y-77814265D01*
X144390724Y-77852976D01*
X144426868Y-77889121D01*
X144465580Y-77966544D01*
X144465580Y-78184723D01*
X144420527Y-78319882D01*
X144418087Y-78339237D01*
X144435201Y-78373466D01*
X144471505Y-78385567D01*
X144505734Y-78368453D01*
X144515395Y-78351504D01*
X144563014Y-78208648D01*
X144564016Y-78200697D01*
X144565580Y-78192836D01*
X144565580Y-77954741D01*
X144565091Y-77952284D01*
X144565454Y-77951196D01*
X144563337Y-77943468D01*
X144561774Y-77935607D01*
X144560962Y-77934795D01*
X144560301Y-77932380D01*
X144512682Y-77837142D01*
X144507770Y-77830813D01*
X144503316Y-77824147D01*
X144455697Y-77776529D01*
X144449035Y-77772077D01*
X144442702Y-77767162D01*
X144347465Y-77719544D01*
X144345049Y-77718882D01*
X144344238Y-77718071D01*
X144336376Y-77716507D01*
X144328649Y-77714391D01*
X144327560Y-77714753D01*
X144325104Y-77714265D01*
X144229866Y-77714265D01*
X144227409Y-77714753D01*
X144226321Y-77714391D01*
X144218593Y-77716507D01*
X144210732Y-77718071D01*
X144209920Y-77718882D01*
X144207505Y-77719544D01*
X144112267Y-77767163D01*
X144105938Y-77772074D01*
X144099272Y-77776529D01*
X144051654Y-77824148D01*
X144047202Y-77830809D01*
X144042287Y-77837143D01*
X143994669Y-77932380D01*
X143993222Y-77937661D01*
X143990883Y-77942614D01*
X143944595Y-78127764D01*
X143903059Y-78210836D01*
X143866915Y-78246981D01*
X143789492Y-78285693D01*
X143717861Y-78285693D01*
X143640437Y-78246981D01*
X143604292Y-78210837D01*
X143565580Y-78133413D01*
X143565580Y-77915236D01*
X143610634Y-77780077D01*
X143613074Y-77760721D01*
X143595960Y-77726492D01*
X143559656Y-77714391D01*
X143525427Y-77731505D01*
X143515766Y-77748453D01*
X143468146Y-77891310D01*
X143467143Y-77899260D01*
X143465580Y-77907122D01*
X143354469Y-77907122D01*
X143354469Y-77603154D01*
X144676691Y-77603154D01*
X144676691Y-83782519D01*
G37*
G36*
X144422691Y-72606519D02*
G01*
X143100469Y-72606519D01*
X143100469Y-72159694D01*
X143211580Y-72159694D01*
X143211580Y-72254932D01*
X143213143Y-72262793D01*
X143214146Y-72270744D01*
X143261766Y-72413601D01*
X143263006Y-72415776D01*
X143263006Y-72416923D01*
X143267455Y-72423581D01*
X143271427Y-72430549D01*
X143272454Y-72431062D01*
X143273845Y-72433144D01*
X143321463Y-72480763D01*
X143337684Y-72491602D01*
X143337685Y-72491602D01*
X143356819Y-72495408D01*
X143690152Y-72495408D01*
X143709286Y-72491602D01*
X143736346Y-72464542D01*
X143740152Y-72445408D01*
X143740152Y-72254932D01*
X143736346Y-72235798D01*
X143709286Y-72208738D01*
X143671018Y-72208738D01*
X143643958Y-72235798D01*
X143640152Y-72254932D01*
X143640152Y-72395408D01*
X143377530Y-72395408D01*
X143352901Y-72370780D01*
X143311580Y-72246817D01*
X143311580Y-72167808D01*
X143352901Y-72043845D01*
X143434054Y-71962692D01*
X143517128Y-71921155D01*
X143696307Y-71876361D01*
X143826854Y-71876361D01*
X144006034Y-71921156D01*
X144089106Y-71962692D01*
X144170259Y-72043845D01*
X144211580Y-72167807D01*
X144211580Y-72290747D01*
X144169240Y-72375428D01*
X144164087Y-72394244D01*
X144176188Y-72430549D01*
X144210416Y-72447663D01*
X144246721Y-72435562D01*
X144258682Y-72420150D01*
X144306301Y-72324912D01*
X144306962Y-72322496D01*
X144307774Y-72321685D01*
X144309337Y-72313823D01*
X144311454Y-72306096D01*
X144311091Y-72305007D01*
X144311580Y-72302551D01*
X144311580Y-72159694D01*
X144310016Y-72151832D01*
X144309014Y-72143882D01*
X144261395Y-72001026D01*
X144260155Y-71998850D01*
X144260155Y-71997703D01*
X144255704Y-71991042D01*
X144251734Y-71984077D01*
X144250706Y-71983563D01*
X144249316Y-71981482D01*
X144154078Y-71886244D01*
X144147416Y-71881792D01*
X144141083Y-71876877D01*
X144045846Y-71829259D01*
X144040564Y-71827812D01*
X144035612Y-71825473D01*
X143845136Y-71777854D01*
X143839018Y-71777556D01*
X143833009Y-71776361D01*
X143690152Y-71776361D01*
X143684142Y-71777556D01*
X143678025Y-71777854D01*
X143487549Y-71825473D01*
X143482596Y-71827812D01*
X143477315Y-71829259D01*
X143382077Y-71876878D01*
X143375742Y-71881793D01*
X143369083Y-71886244D01*
X143273845Y-71981482D01*
X143272454Y-71983563D01*
X143271427Y-71984077D01*
X143267455Y-71991044D01*
X143263006Y-71997703D01*
X143263006Y-71998849D01*
X143261766Y-72001025D01*
X143214146Y-72143882D01*
X143213143Y-72151832D01*
X143211580Y-72159694D01*
X143100469Y-72159694D01*
X143100469Y-69473893D01*
X143215386Y-69473893D01*
X143215386Y-69512161D01*
X143242446Y-69539221D01*
X143261580Y-69543027D01*
X143592533Y-69543027D01*
X143592533Y-69873980D01*
X143596339Y-69893114D01*
X143623399Y-69920174D01*
X143661667Y-69920174D01*
X143688727Y-69893114D01*
X143692533Y-69873980D01*
X143692533Y-69543027D01*
X144023485Y-69543027D01*
X144042619Y-69539221D01*
X144069679Y-69512161D01*
X144069679Y-69473893D01*
X144042619Y-69446833D01*
X144023485Y-69443027D01*
X143692533Y-69443027D01*
X143692533Y-69112075D01*
X143688727Y-69092941D01*
X143661667Y-69065881D01*
X143623399Y-69065881D01*
X143596339Y-69092941D01*
X143592533Y-69112075D01*
X143592533Y-69443027D01*
X143261580Y-69443027D01*
X143242446Y-69446833D01*
X143215386Y-69473893D01*
X143100469Y-69473893D01*
X143100469Y-66731122D01*
X143211580Y-66731122D01*
X143211580Y-66969217D01*
X143212068Y-66971673D01*
X143211706Y-66972762D01*
X143213822Y-66980489D01*
X143215386Y-66988351D01*
X143216197Y-66989162D01*
X143216859Y-66991578D01*
X143264479Y-67086816D01*
X143269394Y-67093150D01*
X143273845Y-67099810D01*
X143321463Y-67147429D01*
X143328129Y-67151883D01*
X143334458Y-67156795D01*
X143429696Y-67204414D01*
X143432111Y-67205075D01*
X143432923Y-67205887D01*
X143440784Y-67207450D01*
X143448512Y-67209567D01*
X143449600Y-67209204D01*
X143452057Y-67209693D01*
X143547295Y-67209693D01*
X143549751Y-67209204D01*
X143550840Y-67209567D01*
X143558567Y-67207450D01*
X143566429Y-67205887D01*
X143567240Y-67205075D01*
X143569656Y-67204414D01*
X143664893Y-67156796D01*
X143671226Y-67151880D01*
X143677888Y-67147429D01*
X143725507Y-67099811D01*
X143729961Y-67093144D01*
X143734873Y-67086816D01*
X143782492Y-66991578D01*
X143783938Y-66986296D01*
X143786278Y-66981344D01*
X143832566Y-66796192D01*
X143874101Y-66713120D01*
X143910246Y-66676976D01*
X143987670Y-66638265D01*
X144059301Y-66638265D01*
X144136724Y-66676976D01*
X144172868Y-66713121D01*
X144211580Y-66790544D01*
X144211580Y-67008723D01*
X144166527Y-67143882D01*
X144164087Y-67163237D01*
X144181201Y-67197466D01*
X144217505Y-67209567D01*
X144251734Y-67192453D01*
X144261395Y-67175504D01*
X144309014Y-67032648D01*
X144310016Y-67024697D01*
X144311580Y-67016836D01*
X144311580Y-66778741D01*
X144311091Y-66776284D01*
X144311454Y-66775196D01*
X144309337Y-66767468D01*
X144307774Y-66759607D01*
X144306962Y-66758795D01*
X144306301Y-66756380D01*
X144258682Y-66661142D01*
X144253770Y-66654813D01*
X144249316Y-66648147D01*
X144201697Y-66600529D01*
X144195035Y-66596077D01*
X144188702Y-66591162D01*
X144093465Y-66543544D01*
X144091049Y-66542882D01*
X144090238Y-66542071D01*
X144082376Y-66540507D01*
X144074649Y-66538391D01*
X144073560Y-66538753D01*
X144071104Y-66538265D01*
X143975866Y-66538265D01*
X143973409Y-66538753D01*
X143972321Y-66538391D01*
X143964593Y-66540507D01*
X143956732Y-66542071D01*
X143955920Y-66542882D01*
X143953505Y-66543544D01*
X143858267Y-66591163D01*
X143851938Y-66596074D01*
X143845272Y-66600529D01*
X143797654Y-66648148D01*
X143793202Y-66654809D01*
X143788287Y-66661143D01*
X143740669Y-66756380D01*
X143739222Y-66761661D01*
X143736883Y-66766614D01*
X143690595Y-66951764D01*
X143649059Y-67034836D01*
X143612915Y-67070981D01*
X143535492Y-67109693D01*
X143463861Y-67109693D01*
X143386437Y-67070981D01*
X143350292Y-67034837D01*
X143311580Y-66957413D01*
X143311580Y-66739236D01*
X143356634Y-66604077D01*
X143359074Y-66584721D01*
X143341960Y-66550492D01*
X143305656Y-66538391D01*
X143271427Y-66555505D01*
X143261766Y-66572453D01*
X143214146Y-66715310D01*
X143213143Y-66723260D01*
X143211580Y-66731122D01*
X143100469Y-66731122D01*
X143100469Y-66427154D01*
X144422691Y-66427154D01*
X144422691Y-72606519D01*
G37*
X163057580Y-110943027D02*
X162057580Y-111276360D01*
X162057580Y-111276360D02*
X163057580Y-111609693D01*
X162057580Y-111943027D02*
X163057580Y-111943027D01*
X163057580Y-111943027D02*
X162343295Y-112276360D01*
X162343295Y-112276360D02*
X163057580Y-112609693D01*
X163057580Y-112609693D02*
X162057580Y-112609693D01*
X162057580Y-113085884D02*
X163057580Y-113085884D01*
X163057580Y-113085884D02*
X163057580Y-113323979D01*
X163057580Y-113323979D02*
X163009961Y-113466836D01*
X163009961Y-113466836D02*
X162914723Y-113562074D01*
X162914723Y-113562074D02*
X162819485Y-113609693D01*
X162819485Y-113609693D02*
X162629009Y-113657312D01*
X162629009Y-113657312D02*
X162486152Y-113657312D01*
X162486152Y-113657312D02*
X162295676Y-113609693D01*
X162295676Y-113609693D02*
X162200438Y-113562074D01*
X162200438Y-113562074D02*
X162105200Y-113466836D01*
X162105200Y-113466836D02*
X162057580Y-113323979D01*
X162057580Y-113323979D02*
X162057580Y-113085884D01*
X162629009Y-114228741D02*
X162676628Y-114133503D01*
X162676628Y-114133503D02*
X162724247Y-114085884D01*
X162724247Y-114085884D02*
X162819485Y-114038265D01*
X162819485Y-114038265D02*
X162867104Y-114038265D01*
X162867104Y-114038265D02*
X162962342Y-114085884D01*
X162962342Y-114085884D02*
X163009961Y-114133503D01*
X163009961Y-114133503D02*
X163057580Y-114228741D01*
X163057580Y-114228741D02*
X163057580Y-114419217D01*
X163057580Y-114419217D02*
X163009961Y-114514455D01*
X163009961Y-114514455D02*
X162962342Y-114562074D01*
X162962342Y-114562074D02*
X162867104Y-114609693D01*
X162867104Y-114609693D02*
X162819485Y-114609693D01*
X162819485Y-114609693D02*
X162724247Y-114562074D01*
X162724247Y-114562074D02*
X162676628Y-114514455D01*
X162676628Y-114514455D02*
X162629009Y-114419217D01*
X162629009Y-114419217D02*
X162629009Y-114228741D01*
X162629009Y-114228741D02*
X162581390Y-114133503D01*
X162581390Y-114133503D02*
X162533771Y-114085884D01*
X162533771Y-114085884D02*
X162438533Y-114038265D01*
X162438533Y-114038265D02*
X162248057Y-114038265D01*
X162248057Y-114038265D02*
X162152819Y-114085884D01*
X162152819Y-114085884D02*
X162105200Y-114133503D01*
X162105200Y-114133503D02*
X162057580Y-114228741D01*
X162057580Y-114228741D02*
X162057580Y-114419217D01*
X162057580Y-114419217D02*
X162105200Y-114514455D01*
X162105200Y-114514455D02*
X162152819Y-114562074D01*
X162152819Y-114562074D02*
X162248057Y-114609693D01*
X162248057Y-114609693D02*
X162438533Y-114609693D01*
X162438533Y-114609693D02*
X162533771Y-114562074D01*
X162533771Y-114562074D02*
X162581390Y-114514455D01*
X162581390Y-114514455D02*
X162629009Y-114419217D01*
X163105200Y-115752550D02*
X161819485Y-114895408D01*
X163057580Y-115943027D02*
X162057580Y-116276360D01*
X162057580Y-116276360D02*
X163057580Y-116609693D01*
X162057580Y-116943027D02*
X163057580Y-116943027D01*
X163057580Y-116943027D02*
X162343295Y-117276360D01*
X162343295Y-117276360D02*
X163057580Y-117609693D01*
X163057580Y-117609693D02*
X162057580Y-117609693D01*
X162057580Y-118085884D02*
X163057580Y-118085884D01*
X163057580Y-118085884D02*
X163057580Y-118323979D01*
X163057580Y-118323979D02*
X163009961Y-118466836D01*
X163009961Y-118466836D02*
X162914723Y-118562074D01*
X162914723Y-118562074D02*
X162819485Y-118609693D01*
X162819485Y-118609693D02*
X162629009Y-118657312D01*
X162629009Y-118657312D02*
X162486152Y-118657312D01*
X162486152Y-118657312D02*
X162295676Y-118609693D01*
X162295676Y-118609693D02*
X162200438Y-118562074D01*
X162200438Y-118562074D02*
X162105200Y-118466836D01*
X162105200Y-118466836D02*
X162057580Y-118323979D01*
X162057580Y-118323979D02*
X162057580Y-118085884D01*
X163057580Y-118990646D02*
X163057580Y-119657312D01*
X163057580Y-119657312D02*
X162057580Y-119228741D01*
D11*
G36*
X180885176Y-83285079D02*
G01*
X180880018Y-83353394D01*
X180865477Y-83411059D01*
X180842424Y-83459924D01*
X180810987Y-83501418D01*
X180771511Y-83535143D01*
X180724862Y-83559650D01*
X180669609Y-83575037D01*
X180603808Y-83580491D01*
X180524102Y-83573918D01*
X180456774Y-83555334D01*
X180396642Y-83525650D01*
X180349002Y-83489511D01*
X180400781Y-83426496D01*
X180446259Y-83456648D01*
X180489014Y-83477604D01*
X180535435Y-83490376D01*
X180596786Y-83495128D01*
X180650544Y-83488911D01*
X180694366Y-83471325D01*
X180730509Y-83442616D01*
X180756887Y-83404609D01*
X180773933Y-83354271D01*
X180780212Y-83287888D01*
X180780212Y-82669099D01*
X180400781Y-82669099D01*
X180400781Y-82583675D01*
X180885176Y-82583675D01*
X180885176Y-83285079D01*
G37*
G36*
X181546952Y-83345285D02*
G01*
X181075136Y-83345285D01*
X181075136Y-83271097D01*
X181443332Y-82583675D01*
X181548356Y-82583675D01*
X181187182Y-83259922D01*
X181548356Y-83259922D01*
X181567957Y-82971472D01*
X181650572Y-82970128D01*
X181650572Y-83259922D01*
X181789180Y-83259922D01*
X181789180Y-83345285D01*
X181650572Y-83345285D01*
X181650572Y-83563700D01*
X181546952Y-83563700D01*
X181546952Y-83345285D01*
G37*
D13*
X199578000Y-86862000D02*
X199578000Y-85612000D01*
X199288000Y-86572000D02*
X199288000Y-80602000D01*
X199288000Y-80602000D02*
X191668000Y-80602000D01*
X199278000Y-86562000D02*
X199278000Y-85812000D01*
X199278000Y-85812000D02*
X197478000Y-85812000D01*
X199278000Y-84312000D02*
X198528000Y-84312000D01*
X198528000Y-84312000D02*
X198528000Y-82972000D01*
X198328000Y-86862000D02*
X199578000Y-86862000D01*
X197478000Y-86562000D02*
X199278000Y-86562000D01*
X197478000Y-85812000D02*
X197478000Y-86562000D01*
X195978000Y-86562000D02*
X195978000Y-85812000D01*
X195978000Y-85812000D02*
X194978000Y-85812000D01*
X195478000Y-81362000D02*
X197468000Y-81362000D01*
X194978000Y-86562000D02*
X195978000Y-86562000D01*
X194978000Y-85812000D02*
X194978000Y-86562000D01*
X193478000Y-86562000D02*
X193478000Y-85812000D01*
X193478000Y-85812000D02*
X191678000Y-85812000D01*
X192428000Y-84312000D02*
X192428000Y-81362000D01*
X192428000Y-81362000D02*
X195478000Y-81362000D01*
X191678000Y-86562000D02*
X193478000Y-86562000D01*
X191678000Y-85812000D02*
X191678000Y-86562000D01*
X191678000Y-84312000D02*
X192428000Y-84312000D01*
X191668000Y-86572000D02*
X199288000Y-86572000D01*
X191668000Y-80602000D02*
X191668000Y-86572000D01*
X191648000Y-94208000D02*
X191648000Y-100178000D01*
X191648000Y-100178000D02*
X199268000Y-100178000D01*
X191658000Y-97918000D02*
X192408000Y-97918000D01*
X191658000Y-99418000D02*
X191658000Y-100168000D01*
X191658000Y-100168000D02*
X193458000Y-100168000D01*
X192408000Y-94968000D02*
X195458000Y-94968000D01*
X192408000Y-97918000D02*
X192408000Y-94968000D01*
X193458000Y-99418000D02*
X191658000Y-99418000D01*
X193458000Y-100168000D02*
X193458000Y-99418000D01*
X194958000Y-99418000D02*
X194958000Y-100168000D01*
X194958000Y-100168000D02*
X195958000Y-100168000D01*
X195458000Y-94968000D02*
X197448000Y-94968000D01*
X195958000Y-99418000D02*
X194958000Y-99418000D01*
X195958000Y-100168000D02*
X195958000Y-99418000D01*
X197458000Y-99418000D02*
X197458000Y-100168000D01*
X197458000Y-100168000D02*
X199258000Y-100168000D01*
X198308000Y-100468000D02*
X199558000Y-100468000D01*
X198508000Y-97918000D02*
X198508000Y-96578000D01*
X199258000Y-97918000D02*
X198508000Y-97918000D01*
X199258000Y-99418000D02*
X197458000Y-99418000D01*
X199258000Y-100168000D02*
X199258000Y-99418000D01*
X199268000Y-94208000D02*
X191648000Y-94208000D01*
X199268000Y-100178000D02*
X199268000Y-94208000D01*
X199558000Y-100468000D02*
X199558000Y-99218000D01*
X191668000Y-101049000D02*
X191668000Y-107019000D01*
X191668000Y-107019000D02*
X199288000Y-107019000D01*
X191678000Y-104759000D02*
X192428000Y-104759000D01*
X191678000Y-106259000D02*
X191678000Y-107009000D01*
X191678000Y-107009000D02*
X193478000Y-107009000D01*
X192428000Y-101809000D02*
X195478000Y-101809000D01*
X192428000Y-104759000D02*
X192428000Y-101809000D01*
X193478000Y-106259000D02*
X191678000Y-106259000D01*
X193478000Y-107009000D02*
X193478000Y-106259000D01*
X194978000Y-106259000D02*
X194978000Y-107009000D01*
X194978000Y-107009000D02*
X195978000Y-107009000D01*
X195478000Y-101809000D02*
X197468000Y-101809000D01*
X195978000Y-106259000D02*
X194978000Y-106259000D01*
X195978000Y-107009000D02*
X195978000Y-106259000D01*
X197478000Y-106259000D02*
X197478000Y-107009000D01*
X197478000Y-107009000D02*
X199278000Y-107009000D01*
X198328000Y-107309000D02*
X199578000Y-107309000D01*
X198528000Y-104759000D02*
X198528000Y-103419000D01*
X199278000Y-104759000D02*
X198528000Y-104759000D01*
X199278000Y-106259000D02*
X197478000Y-106259000D01*
X199278000Y-107009000D02*
X199278000Y-106259000D01*
X199288000Y-101049000D02*
X191668000Y-101049000D01*
X199288000Y-107019000D02*
X199288000Y-101049000D01*
X199578000Y-107309000D02*
X199578000Y-106059000D01*
X99426000Y-64986000D02*
X99426000Y-68136000D01*
X99426000Y-68136000D02*
X102276000Y-70736000D01*
X102276000Y-62436000D02*
X99426000Y-64986000D01*
X102276000Y-70736000D02*
X115126000Y-70736000D01*
X115126000Y-62436000D02*
X102276000Y-62436000D01*
X115126000Y-70736000D02*
X115126000Y-62436000D01*
X191846000Y-114860000D02*
X191846000Y-120830000D01*
X191846000Y-120830000D02*
X199466000Y-120830000D01*
X191856000Y-118570000D02*
X192606000Y-118570000D01*
X191856000Y-120070000D02*
X191856000Y-120820000D01*
X191856000Y-120820000D02*
X193656000Y-120820000D01*
X192606000Y-115620000D02*
X195656000Y-115620000D01*
X192606000Y-118570000D02*
X192606000Y-115620000D01*
X193656000Y-120070000D02*
X191856000Y-120070000D01*
X193656000Y-120820000D02*
X193656000Y-120070000D01*
X195156000Y-120070000D02*
X195156000Y-120820000D01*
X195156000Y-120820000D02*
X196156000Y-120820000D01*
X195656000Y-115620000D02*
X197646000Y-115620000D01*
X196156000Y-120070000D02*
X195156000Y-120070000D01*
X196156000Y-120820000D02*
X196156000Y-120070000D01*
X197656000Y-120070000D02*
X197656000Y-120820000D01*
X197656000Y-120820000D02*
X199456000Y-120820000D01*
X198506000Y-121120000D02*
X199756000Y-121120000D01*
X198706000Y-118570000D02*
X198706000Y-117230000D01*
X199456000Y-118570000D02*
X198706000Y-118570000D01*
X199456000Y-120070000D02*
X197656000Y-120070000D01*
X199456000Y-120820000D02*
X199456000Y-120070000D01*
X199466000Y-114860000D02*
X191846000Y-114860000D01*
X199466000Y-120830000D02*
X199466000Y-114860000D01*
X199756000Y-121120000D02*
X199756000Y-119870000D01*
X136576000Y-75863000D02*
X136576000Y-85983000D01*
X136576000Y-85983000D02*
X142546000Y-85983000D01*
X137336000Y-80923000D02*
X137336000Y-77683000D01*
X137336000Y-85223000D02*
X137336000Y-80923000D01*
X140286000Y-75873000D02*
X140286000Y-76623000D01*
X140286000Y-76623000D02*
X138946000Y-76623000D01*
X140286000Y-85223000D02*
X137336000Y-85223000D01*
X140286000Y-85973000D02*
X140286000Y-85223000D01*
X141786000Y-75873000D02*
X141786000Y-77673000D01*
X141786000Y-77673000D02*
X142536000Y-77673000D01*
X141786000Y-79173000D02*
X141786000Y-82673000D01*
X141786000Y-82673000D02*
X142536000Y-82673000D01*
X141786000Y-84173000D02*
X141786000Y-85973000D01*
X141786000Y-85973000D02*
X142536000Y-85973000D01*
X142536000Y-75873000D02*
X141786000Y-75873000D01*
X142536000Y-77673000D02*
X142536000Y-75873000D01*
X142536000Y-79173000D02*
X141786000Y-79173000D01*
X142536000Y-82673000D02*
X142536000Y-79173000D01*
X142536000Y-84173000D02*
X141786000Y-84173000D01*
X142536000Y-85973000D02*
X142536000Y-84173000D01*
X142546000Y-75863000D02*
X136576000Y-75863000D01*
X142546000Y-85983000D02*
X142546000Y-75863000D01*
X142836000Y-75573000D02*
X141586000Y-75573000D01*
X142836000Y-76823000D02*
X142836000Y-75573000D01*
X100406000Y-42102100D02*
X100406000Y-48072100D01*
X100406000Y-48072100D02*
X108026000Y-48072100D01*
X100416000Y-45812100D02*
X101166000Y-45812100D01*
X100416000Y-47312100D02*
X100416000Y-48062100D01*
X100416000Y-48062100D02*
X102216000Y-48062100D01*
X101166000Y-42862100D02*
X104216000Y-42862100D01*
X101166000Y-45812100D02*
X101166000Y-42862100D01*
X102216000Y-47312100D02*
X100416000Y-47312100D01*
X102216000Y-48062100D02*
X102216000Y-47312100D01*
X103716000Y-47312100D02*
X103716000Y-48062100D01*
X103716000Y-48062100D02*
X104716000Y-48062100D01*
X104216000Y-42862100D02*
X106206000Y-42862100D01*
X104716000Y-47312100D02*
X103716000Y-47312100D01*
X104716000Y-48062100D02*
X104716000Y-47312100D01*
X106216000Y-47312100D02*
X106216000Y-48062100D01*
X106216000Y-48062100D02*
X108016000Y-48062100D01*
X107066000Y-48362100D02*
X108316000Y-48362100D01*
X107266000Y-45812100D02*
X107266000Y-44472100D01*
X108016000Y-45812100D02*
X107266000Y-45812100D01*
X108016000Y-47312100D02*
X106216000Y-47312100D01*
X108016000Y-48062100D02*
X108016000Y-47312100D01*
X108026000Y-42102100D02*
X100406000Y-42102100D01*
X108026000Y-48072100D02*
X108026000Y-42102100D01*
X108316000Y-48362100D02*
X108316000Y-47112100D01*
X179683900Y-79498700D02*
X179683900Y-53988700D01*
X182443900Y-53988700D02*
X179683900Y-53988700D01*
X182443900Y-79498700D02*
X179683900Y-79498700D01*
X182443900Y-79498700D02*
X182443900Y-53988700D01*
X182443900Y-80768700D02*
X182443900Y-82148700D01*
X182443900Y-82148700D02*
X181063900Y-82148700D01*
D14*
X148993700Y-63878900D02*
X148993700Y-68527100D01*
X148993700Y-68527100D02*
X159458500Y-68527100D01*
X149120700Y-65148900D02*
X159331500Y-65148900D01*
X159458500Y-63878900D02*
X148993700Y-63878900D01*
X159458500Y-68527100D02*
X159458500Y-63878900D01*
X147418900Y-66825300D02*
G75*
G02*
X147012500Y-66825300I-203200J0D01*
G01*
X147012500Y-66825300D02*
G75*
G02*
X147418900Y-66825300I203200J0D01*
G01*
D13*
X99385000Y-74382000D02*
X99385000Y-77532000D01*
X99385000Y-77532000D02*
X102235000Y-80132000D01*
X102235000Y-71832000D02*
X99385000Y-74382000D01*
X102235000Y-80132000D02*
X115085000Y-80132000D01*
X115085000Y-71832000D02*
X102235000Y-71832000D01*
X115085000Y-80132000D02*
X115085000Y-71832000D01*
D14*
X149077600Y-53733600D02*
X149077600Y-58381800D01*
X149077600Y-58381800D02*
X159542400Y-58381800D01*
X149204600Y-55003600D02*
X159415400Y-55003600D01*
X159542400Y-53733600D02*
X149077600Y-53733600D01*
X159542400Y-58381800D02*
X159542400Y-53733600D01*
X147502800Y-56680000D02*
G75*
G02*
X147096400Y-56680000I-203200J0D01*
G01*
X147096400Y-56680000D02*
G75*
G02*
X147502800Y-56680000I203200J0D01*
G01*
X149077600Y-48653600D02*
X149077600Y-53301800D01*
X149077600Y-53301800D02*
X159542400Y-53301800D01*
X149204600Y-49923600D02*
X159415400Y-49923600D01*
X159542400Y-48653600D02*
X149077600Y-48653600D01*
X159542400Y-53301800D02*
X159542400Y-48653600D01*
X147502800Y-51600000D02*
G75*
G02*
X147096400Y-51600000I-203200J0D01*
G01*
X147096400Y-51600000D02*
G75*
G02*
X147502800Y-51600000I203200J0D01*
G01*
D13*
X123715000Y-34499000D02*
X123715000Y-37259000D01*
X149225000Y-34499000D02*
X123715000Y-34499000D01*
X149225000Y-34499000D02*
X149225000Y-37259000D01*
X149225000Y-37259000D02*
X123715000Y-37259000D01*
X150495000Y-34499000D02*
X151875000Y-34499000D01*
X151875000Y-34499000D02*
X151875000Y-35879000D01*
D14*
X149077600Y-58813600D02*
X149077600Y-63461800D01*
X149077600Y-63461800D02*
X159542400Y-63461800D01*
X149204600Y-60083600D02*
X159415400Y-60083600D01*
X159542400Y-58813600D02*
X149077600Y-58813600D01*
X159542400Y-63461800D02*
X159542400Y-58813600D01*
X147502800Y-61760000D02*
G75*
G02*
X147096400Y-61760000I-203200J0D01*
G01*
X147096400Y-61760000D02*
G75*
G02*
X147502800Y-61760000I203200J0D01*
G01*
X148993700Y-68958900D02*
X148993700Y-73607100D01*
X148993700Y-73607100D02*
X159458500Y-73607100D01*
X149120700Y-70228900D02*
X159331500Y-70228900D01*
X159458500Y-68958900D02*
X148993700Y-68958900D01*
X159458500Y-73607100D02*
X159458500Y-68958900D01*
X147418900Y-71905300D02*
G75*
G02*
X147012500Y-71905300I-203200J0D01*
G01*
X147012500Y-71905300D02*
G75*
G02*
X147418900Y-71905300I203200J0D01*
G01*
D13*
X127686000Y-42444000D02*
X127686000Y-52564000D01*
X127686000Y-52564000D02*
X133656000Y-52564000D01*
X128446000Y-47504000D02*
X128446000Y-44264000D01*
X128446000Y-51804000D02*
X128446000Y-47504000D01*
X131396000Y-42454000D02*
X131396000Y-43204000D01*
X131396000Y-43204000D02*
X130056000Y-43204000D01*
X131396000Y-51804000D02*
X128446000Y-51804000D01*
X131396000Y-52554000D02*
X131396000Y-51804000D01*
X132896000Y-42454000D02*
X132896000Y-44254000D01*
X132896000Y-44254000D02*
X133646000Y-44254000D01*
X132896000Y-45754000D02*
X132896000Y-49254000D01*
X132896000Y-49254000D02*
X133646000Y-49254000D01*
X132896000Y-50754000D02*
X132896000Y-52554000D01*
X132896000Y-52554000D02*
X133646000Y-52554000D01*
X133646000Y-42454000D02*
X132896000Y-42454000D01*
X133646000Y-44254000D02*
X133646000Y-42454000D01*
X133646000Y-45754000D02*
X132896000Y-45754000D01*
X133646000Y-49254000D02*
X133646000Y-45754000D01*
X133646000Y-50754000D02*
X132896000Y-50754000D01*
X133646000Y-52554000D02*
X133646000Y-50754000D01*
X133656000Y-42444000D02*
X127686000Y-42444000D01*
X133656000Y-52564000D02*
X133656000Y-42444000D01*
X133946000Y-42154000D02*
X132696000Y-42154000D01*
X133946000Y-43404000D02*
X133946000Y-42154000D01*
X127764000Y-64596000D02*
X127764000Y-74716000D01*
X127764000Y-74716000D02*
X133734000Y-74716000D01*
X128524000Y-69656000D02*
X128524000Y-66416000D01*
X128524000Y-73956000D02*
X128524000Y-69656000D01*
X131474000Y-64606000D02*
X131474000Y-65356000D01*
X131474000Y-65356000D02*
X130134000Y-65356000D01*
X131474000Y-73956000D02*
X128524000Y-73956000D01*
X131474000Y-74706000D02*
X131474000Y-73956000D01*
X132974000Y-64606000D02*
X132974000Y-66406000D01*
X132974000Y-66406000D02*
X133724000Y-66406000D01*
X132974000Y-67906000D02*
X132974000Y-71406000D01*
X132974000Y-71406000D02*
X133724000Y-71406000D01*
X132974000Y-72906000D02*
X132974000Y-74706000D01*
X132974000Y-74706000D02*
X133724000Y-74706000D01*
X133724000Y-64606000D02*
X132974000Y-64606000D01*
X133724000Y-66406000D02*
X133724000Y-64606000D01*
X133724000Y-67906000D02*
X132974000Y-67906000D01*
X133724000Y-71406000D02*
X133724000Y-67906000D01*
X133724000Y-72906000D02*
X132974000Y-72906000D01*
X133724000Y-74706000D02*
X133724000Y-72906000D01*
X133734000Y-64596000D02*
X127764000Y-64596000D01*
X133734000Y-74716000D02*
X133734000Y-64596000D01*
X134024000Y-64306000D02*
X132774000Y-64306000D01*
X134024000Y-65556000D02*
X134024000Y-64306000D01*
X100290300Y-28496100D02*
X100290300Y-34466100D01*
X100290300Y-34466100D02*
X107910300Y-34466100D01*
X100300300Y-32206100D02*
X101050300Y-32206100D01*
X100300300Y-33706100D02*
X100300300Y-34456100D01*
X100300300Y-34456100D02*
X102100300Y-34456100D01*
X101050300Y-29256100D02*
X104100300Y-29256100D01*
X101050300Y-32206100D02*
X101050300Y-29256100D01*
X102100300Y-33706100D02*
X100300300Y-33706100D01*
X102100300Y-34456100D02*
X102100300Y-33706100D01*
X103600300Y-33706100D02*
X103600300Y-34456100D01*
X103600300Y-34456100D02*
X104600300Y-34456100D01*
X104100300Y-29256100D02*
X106090300Y-29256100D01*
X104600300Y-33706100D02*
X103600300Y-33706100D01*
X104600300Y-34456100D02*
X104600300Y-33706100D01*
X106100300Y-33706100D02*
X106100300Y-34456100D01*
X106100300Y-34456100D02*
X107900300Y-34456100D01*
X106950300Y-34756100D02*
X108200300Y-34756100D01*
X107150300Y-32206100D02*
X107150300Y-30866100D01*
X107900300Y-32206100D02*
X107150300Y-32206100D01*
X107900300Y-33706100D02*
X106100300Y-33706100D01*
X107900300Y-34456100D02*
X107900300Y-33706100D01*
X107910300Y-28496100D02*
X100290300Y-28496100D01*
X107910300Y-34466100D02*
X107910300Y-28496100D01*
X108200300Y-34756100D02*
X108200300Y-33506100D01*
X100163300Y-21638100D02*
X100163300Y-27608100D01*
X100163300Y-27608100D02*
X107783300Y-27608100D01*
X100173300Y-25348100D02*
X100923300Y-25348100D01*
X100173300Y-26848100D02*
X100173300Y-27598100D01*
X100173300Y-27598100D02*
X101973300Y-27598100D01*
X100923300Y-22398100D02*
X103973300Y-22398100D01*
X100923300Y-25348100D02*
X100923300Y-22398100D01*
X101973300Y-26848100D02*
X100173300Y-26848100D01*
X101973300Y-27598100D02*
X101973300Y-26848100D01*
X103473300Y-26848100D02*
X103473300Y-27598100D01*
X103473300Y-27598100D02*
X104473300Y-27598100D01*
X103973300Y-22398100D02*
X105963300Y-22398100D01*
X104473300Y-26848100D02*
X103473300Y-26848100D01*
X104473300Y-27598100D02*
X104473300Y-26848100D01*
X105973300Y-26848100D02*
X105973300Y-27598100D01*
X105973300Y-27598100D02*
X107773300Y-27598100D01*
X106823300Y-27898100D02*
X108073300Y-27898100D01*
X107023300Y-25348100D02*
X107023300Y-24008100D01*
X107773300Y-25348100D02*
X107023300Y-25348100D01*
X107773300Y-26848100D02*
X105973300Y-26848100D01*
X107773300Y-27598100D02*
X107773300Y-26848100D01*
X107783300Y-21638100D02*
X100163300Y-21638100D01*
X107783300Y-27608100D02*
X107783300Y-21638100D01*
X108073300Y-27898100D02*
X108073300Y-26648100D01*
X100406000Y-35358000D02*
X100406000Y-41328000D01*
X100406000Y-41328000D02*
X108026000Y-41328000D01*
X100416000Y-39068000D02*
X101166000Y-39068000D01*
X100416000Y-40568000D02*
X100416000Y-41318000D01*
X100416000Y-41318000D02*
X102216000Y-41318000D01*
X101166000Y-36118000D02*
X104216000Y-36118000D01*
X101166000Y-39068000D02*
X101166000Y-36118000D01*
X102216000Y-40568000D02*
X100416000Y-40568000D01*
X102216000Y-41318000D02*
X102216000Y-40568000D01*
X103716000Y-40568000D02*
X103716000Y-41318000D01*
X103716000Y-41318000D02*
X104716000Y-41318000D01*
X104216000Y-36118000D02*
X106206000Y-36118000D01*
X104716000Y-40568000D02*
X103716000Y-40568000D01*
X104716000Y-41318000D02*
X104716000Y-40568000D01*
X106216000Y-40568000D02*
X106216000Y-41318000D01*
X106216000Y-41318000D02*
X108016000Y-41318000D01*
X107066000Y-41618000D02*
X108316000Y-41618000D01*
X107266000Y-39068000D02*
X107266000Y-37728000D01*
X108016000Y-39068000D02*
X107266000Y-39068000D01*
X108016000Y-40568000D02*
X106216000Y-40568000D01*
X108016000Y-41318000D02*
X108016000Y-40568000D01*
X108026000Y-35358000D02*
X100406000Y-35358000D01*
X108026000Y-41328000D02*
X108026000Y-35358000D01*
X108316000Y-41618000D02*
X108316000Y-40368000D01*
X191846000Y-108002000D02*
X191846000Y-113972000D01*
X191846000Y-113972000D02*
X199466000Y-113972000D01*
X191856000Y-111712000D02*
X192606000Y-111712000D01*
X191856000Y-113212000D02*
X191856000Y-113962000D01*
X191856000Y-113962000D02*
X193656000Y-113962000D01*
X192606000Y-108762000D02*
X195656000Y-108762000D01*
X192606000Y-111712000D02*
X192606000Y-108762000D01*
X193656000Y-113212000D02*
X191856000Y-113212000D01*
X193656000Y-113962000D02*
X193656000Y-113212000D01*
X195156000Y-113212000D02*
X195156000Y-113962000D01*
X195156000Y-113962000D02*
X196156000Y-113962000D01*
X195656000Y-108762000D02*
X197646000Y-108762000D01*
X196156000Y-113212000D02*
X195156000Y-113212000D01*
X196156000Y-113962000D02*
X196156000Y-113212000D01*
X197656000Y-113212000D02*
X197656000Y-113962000D01*
X197656000Y-113962000D02*
X199456000Y-113962000D01*
X198506000Y-114262000D02*
X199756000Y-114262000D01*
X198706000Y-111712000D02*
X198706000Y-110372000D01*
X199456000Y-111712000D02*
X198706000Y-111712000D01*
X199456000Y-113212000D02*
X197656000Y-113212000D01*
X199456000Y-113962000D02*
X199456000Y-113212000D01*
X199466000Y-108002000D02*
X191846000Y-108002000D01*
X199466000Y-113972000D02*
X199466000Y-108002000D01*
X199756000Y-114262000D02*
X199756000Y-113012000D01*
X108928000Y-35246000D02*
X108928000Y-41216000D01*
X108928000Y-41216000D02*
X116548000Y-41216000D01*
X108938000Y-38956000D02*
X109688000Y-38956000D01*
X108938000Y-40456000D02*
X108938000Y-41206000D01*
X108938000Y-41206000D02*
X110738000Y-41206000D01*
X109688000Y-36006000D02*
X112738000Y-36006000D01*
X109688000Y-38956000D02*
X109688000Y-36006000D01*
X110738000Y-40456000D02*
X108938000Y-40456000D01*
X110738000Y-41206000D02*
X110738000Y-40456000D01*
X112238000Y-40456000D02*
X112238000Y-41206000D01*
X112238000Y-41206000D02*
X113238000Y-41206000D01*
X112738000Y-36006000D02*
X114728000Y-36006000D01*
X113238000Y-40456000D02*
X112238000Y-40456000D01*
X113238000Y-41206000D02*
X113238000Y-40456000D01*
X114738000Y-40456000D02*
X114738000Y-41206000D01*
X114738000Y-41206000D02*
X116538000Y-41206000D01*
X115588000Y-41506000D02*
X116838000Y-41506000D01*
X115788000Y-38956000D02*
X115788000Y-37616000D01*
X116538000Y-38956000D02*
X115788000Y-38956000D01*
X116538000Y-40456000D02*
X114738000Y-40456000D01*
X116538000Y-41206000D02*
X116538000Y-40456000D01*
X116548000Y-35246000D02*
X108928000Y-35246000D01*
X116548000Y-41216000D02*
X116548000Y-35246000D01*
X116838000Y-41506000D02*
X116838000Y-40256000D01*
X127940000Y-75863000D02*
X127940000Y-85983000D01*
X127940000Y-85983000D02*
X133910000Y-85983000D01*
X128700000Y-80923000D02*
X128700000Y-77683000D01*
X128700000Y-85223000D02*
X128700000Y-80923000D01*
X131650000Y-75873000D02*
X131650000Y-76623000D01*
X131650000Y-76623000D02*
X130310000Y-76623000D01*
X131650000Y-85223000D02*
X128700000Y-85223000D01*
X131650000Y-85973000D02*
X131650000Y-85223000D01*
X133150000Y-75873000D02*
X133150000Y-77673000D01*
X133150000Y-77673000D02*
X133900000Y-77673000D01*
X133150000Y-79173000D02*
X133150000Y-82673000D01*
X133150000Y-82673000D02*
X133900000Y-82673000D01*
X133150000Y-84173000D02*
X133150000Y-85973000D01*
X133150000Y-85973000D02*
X133900000Y-85973000D01*
X133900000Y-75873000D02*
X133150000Y-75873000D01*
X133900000Y-77673000D02*
X133900000Y-75873000D01*
X133900000Y-79173000D02*
X133150000Y-79173000D01*
X133900000Y-82673000D02*
X133900000Y-79173000D01*
X133900000Y-84173000D02*
X133150000Y-84173000D01*
X133900000Y-85973000D02*
X133900000Y-84173000D01*
X133910000Y-75863000D02*
X127940000Y-75863000D01*
X133910000Y-85983000D02*
X133910000Y-75863000D01*
X134200000Y-75573000D02*
X132950000Y-75573000D01*
X134200000Y-76823000D02*
X134200000Y-75573000D01*
X191882000Y-121750000D02*
X191882000Y-127720000D01*
X191882000Y-127720000D02*
X199502000Y-127720000D01*
X191892000Y-125460000D02*
X192642000Y-125460000D01*
X191892000Y-126960000D02*
X191892000Y-127710000D01*
X191892000Y-127710000D02*
X193692000Y-127710000D01*
X192642000Y-122510000D02*
X195692000Y-122510000D01*
X192642000Y-125460000D02*
X192642000Y-122510000D01*
X193692000Y-126960000D02*
X191892000Y-126960000D01*
X193692000Y-127710000D02*
X193692000Y-126960000D01*
X195192000Y-126960000D02*
X195192000Y-127710000D01*
X195192000Y-127710000D02*
X196192000Y-127710000D01*
X195692000Y-122510000D02*
X197682000Y-122510000D01*
X196192000Y-126960000D02*
X195192000Y-126960000D01*
X196192000Y-127710000D02*
X196192000Y-126960000D01*
X197692000Y-126960000D02*
X197692000Y-127710000D01*
X197692000Y-127710000D02*
X199492000Y-127710000D01*
X198542000Y-128010000D02*
X199792000Y-128010000D01*
X198742000Y-125460000D02*
X198742000Y-124120000D01*
X199492000Y-125460000D02*
X198742000Y-125460000D01*
X199492000Y-126960000D02*
X197692000Y-126960000D01*
X199492000Y-127710000D02*
X199492000Y-126960000D01*
X199502000Y-121750000D02*
X191882000Y-121750000D01*
X199502000Y-127720000D02*
X199502000Y-121750000D01*
X199792000Y-128010000D02*
X199792000Y-126760000D01*
D14*
X148993700Y-74038900D02*
X148993700Y-78687100D01*
X148993700Y-78687100D02*
X159458500Y-78687100D01*
X149120700Y-75308900D02*
X159331500Y-75308900D01*
X159458500Y-74038900D02*
X148993700Y-74038900D01*
X159458500Y-78687100D02*
X159458500Y-74038900D01*
X147418900Y-76985300D02*
G75*
G02*
X147012500Y-76985300I-203200J0D01*
G01*
X147012500Y-76985300D02*
G75*
G02*
X147418900Y-76985300I203200J0D01*
G01*
D13*
X191668000Y-87460000D02*
X191668000Y-93430000D01*
X191668000Y-93430000D02*
X199288000Y-93430000D01*
X191678000Y-91170000D02*
X192428000Y-91170000D01*
X191678000Y-92670000D02*
X191678000Y-93420000D01*
X191678000Y-93420000D02*
X193478000Y-93420000D01*
X192428000Y-88220000D02*
X195478000Y-88220000D01*
X192428000Y-91170000D02*
X192428000Y-88220000D01*
X193478000Y-92670000D02*
X191678000Y-92670000D01*
X193478000Y-93420000D02*
X193478000Y-92670000D01*
X194978000Y-92670000D02*
X194978000Y-93420000D01*
X194978000Y-93420000D02*
X195978000Y-93420000D01*
X195478000Y-88220000D02*
X197468000Y-88220000D01*
X195978000Y-92670000D02*
X194978000Y-92670000D01*
X195978000Y-93420000D02*
X195978000Y-92670000D01*
X197478000Y-92670000D02*
X197478000Y-93420000D01*
X197478000Y-93420000D02*
X199278000Y-93420000D01*
X198328000Y-93720000D02*
X199578000Y-93720000D01*
X198528000Y-91170000D02*
X198528000Y-89830000D01*
X199278000Y-91170000D02*
X198528000Y-91170000D01*
X199278000Y-92670000D02*
X197478000Y-92670000D01*
X199278000Y-93420000D02*
X199278000Y-92670000D01*
X199288000Y-87460000D02*
X191668000Y-87460000D01*
X199288000Y-93430000D02*
X199288000Y-87460000D01*
X199578000Y-93720000D02*
X199578000Y-92470000D01*
X108824000Y-28278000D02*
X108824000Y-34248000D01*
X108824000Y-34248000D02*
X116444000Y-34248000D01*
X108834000Y-31988000D02*
X109584000Y-31988000D01*
X108834000Y-33488000D02*
X108834000Y-34238000D01*
X108834000Y-34238000D02*
X110634000Y-34238000D01*
X109584000Y-29038000D02*
X112634000Y-29038000D01*
X109584000Y-31988000D02*
X109584000Y-29038000D01*
X110634000Y-33488000D02*
X108834000Y-33488000D01*
X110634000Y-34238000D02*
X110634000Y-33488000D01*
X112134000Y-33488000D02*
X112134000Y-34238000D01*
X112134000Y-34238000D02*
X113134000Y-34238000D01*
X112634000Y-29038000D02*
X114624000Y-29038000D01*
X113134000Y-33488000D02*
X112134000Y-33488000D01*
X113134000Y-34238000D02*
X113134000Y-33488000D01*
X114634000Y-33488000D02*
X114634000Y-34238000D01*
X114634000Y-34238000D02*
X116434000Y-34238000D01*
X115484000Y-34538000D02*
X116734000Y-34538000D01*
X115684000Y-31988000D02*
X115684000Y-30648000D01*
X116434000Y-31988000D02*
X115684000Y-31988000D01*
X116434000Y-33488000D02*
X114634000Y-33488000D01*
X116434000Y-34238000D02*
X116434000Y-33488000D01*
X116444000Y-28278000D02*
X108824000Y-28278000D01*
X116444000Y-34248000D02*
X116444000Y-28278000D01*
X116734000Y-34538000D02*
X116734000Y-33288000D01*
X108824000Y-42248000D02*
X108824000Y-48218000D01*
X108824000Y-48218000D02*
X116444000Y-48218000D01*
X108834000Y-45958000D02*
X109584000Y-45958000D01*
X108834000Y-47458000D02*
X108834000Y-48208000D01*
X108834000Y-48208000D02*
X110634000Y-48208000D01*
X109584000Y-43008000D02*
X112634000Y-43008000D01*
X109584000Y-45958000D02*
X109584000Y-43008000D01*
X110634000Y-47458000D02*
X108834000Y-47458000D01*
X110634000Y-48208000D02*
X110634000Y-47458000D01*
X112134000Y-47458000D02*
X112134000Y-48208000D01*
X112134000Y-48208000D02*
X113134000Y-48208000D01*
X112634000Y-43008000D02*
X114624000Y-43008000D01*
X113134000Y-47458000D02*
X112134000Y-47458000D01*
X113134000Y-48208000D02*
X113134000Y-47458000D01*
X114634000Y-47458000D02*
X114634000Y-48208000D01*
X114634000Y-48208000D02*
X116434000Y-48208000D01*
X115484000Y-48508000D02*
X116734000Y-48508000D01*
X115684000Y-45958000D02*
X115684000Y-44618000D01*
X116434000Y-45958000D02*
X115684000Y-45958000D01*
X116434000Y-47458000D02*
X114634000Y-47458000D01*
X116434000Y-48208000D02*
X116434000Y-47458000D01*
X116444000Y-42248000D02*
X108824000Y-42248000D01*
X116444000Y-48218000D02*
X116444000Y-42248000D01*
X116734000Y-48508000D02*
X116734000Y-47258000D01*
X136400000Y-64596000D02*
X136400000Y-74716000D01*
X136400000Y-74716000D02*
X142370000Y-74716000D01*
X137160000Y-69656000D02*
X137160000Y-66416000D01*
X137160000Y-73956000D02*
X137160000Y-69656000D01*
X140110000Y-64606000D02*
X140110000Y-65356000D01*
X140110000Y-65356000D02*
X138770000Y-65356000D01*
X140110000Y-73956000D02*
X137160000Y-73956000D01*
X140110000Y-74706000D02*
X140110000Y-73956000D01*
X141610000Y-64606000D02*
X141610000Y-66406000D01*
X141610000Y-66406000D02*
X142360000Y-66406000D01*
X141610000Y-67906000D02*
X141610000Y-71406000D01*
X141610000Y-71406000D02*
X142360000Y-71406000D01*
X141610000Y-72906000D02*
X141610000Y-74706000D01*
X141610000Y-74706000D02*
X142360000Y-74706000D01*
X142360000Y-64606000D02*
X141610000Y-64606000D01*
X142360000Y-66406000D02*
X142360000Y-64606000D01*
X142360000Y-67906000D02*
X141610000Y-67906000D01*
X142360000Y-71406000D02*
X142360000Y-67906000D01*
X142360000Y-72906000D02*
X141610000Y-72906000D01*
X142360000Y-74706000D02*
X142360000Y-72906000D01*
X142370000Y-64596000D02*
X136400000Y-64596000D01*
X142370000Y-74716000D02*
X142370000Y-64596000D01*
X142660000Y-64306000D02*
X141410000Y-64306000D01*
X142660000Y-65556000D02*
X142660000Y-64306000D01*
X191842000Y-128608000D02*
X191842000Y-134578000D01*
X191842000Y-134578000D02*
X199462000Y-134578000D01*
X191852000Y-132318000D02*
X192602000Y-132318000D01*
X191852000Y-133818000D02*
X191852000Y-134568000D01*
X191852000Y-134568000D02*
X193652000Y-134568000D01*
X192602000Y-129368000D02*
X195652000Y-129368000D01*
X192602000Y-132318000D02*
X192602000Y-129368000D01*
X193652000Y-133818000D02*
X191852000Y-133818000D01*
X193652000Y-134568000D02*
X193652000Y-133818000D01*
X195152000Y-133818000D02*
X195152000Y-134568000D01*
X195152000Y-134568000D02*
X196152000Y-134568000D01*
X195652000Y-129368000D02*
X197642000Y-129368000D01*
X196152000Y-133818000D02*
X195152000Y-133818000D01*
X196152000Y-134568000D02*
X196152000Y-133818000D01*
X197652000Y-133818000D02*
X197652000Y-134568000D01*
X197652000Y-134568000D02*
X199452000Y-134568000D01*
X198502000Y-134868000D02*
X199752000Y-134868000D01*
X198702000Y-132318000D02*
X198702000Y-130978000D01*
X199452000Y-132318000D02*
X198702000Y-132318000D01*
X199452000Y-133818000D02*
X197652000Y-133818000D01*
X199452000Y-134568000D02*
X199452000Y-133818000D01*
X199462000Y-128608000D02*
X191842000Y-128608000D01*
X199462000Y-134578000D02*
X199462000Y-128608000D01*
X199752000Y-134868000D02*
X199752000Y-133618000D01*
D14*
X149072600Y-43702600D02*
X149072600Y-48350800D01*
X149072600Y-48350800D02*
X159537400Y-48350800D01*
X149199600Y-44972600D02*
X159410400Y-44972600D01*
X159537400Y-43702600D02*
X149072600Y-43702600D01*
X159537400Y-48350800D02*
X159537400Y-43702600D01*
X147497800Y-46649000D02*
G75*
G02*
X147091400Y-46649000I-203200J0D01*
G01*
X147091400Y-46649000D02*
G75*
G02*
X147497800Y-46649000I203200J0D01*
G01*
D15*
G36*
X159818824Y-28151404D02*
G01*
X159841013Y-29637141D01*
X160436122Y-29661159D01*
X161031231Y-29685177D01*
X161005994Y-29929984D01*
X160980756Y-30174791D01*
X159460839Y-30190902D01*
X157940923Y-30207013D01*
X157910039Y-29942430D01*
X157879156Y-29677847D01*
X158473386Y-29677847D01*
X159067615Y-29677847D01*
X159067615Y-28171757D01*
X159067615Y-26665667D01*
X159432125Y-26665667D01*
X159796635Y-26665667D01*
X159818824Y-28151404D01*
G37*
G36*
X182593679Y-27459417D02*
G01*
X182592178Y-30695475D01*
X181002328Y-27578157D01*
X180665099Y-26916264D01*
X180350168Y-26296856D01*
X180065400Y-25735493D01*
X179818658Y-25247736D01*
X179617806Y-24849146D01*
X179470709Y-24555283D01*
X179385230Y-24381708D01*
X179366914Y-24342099D01*
X179370946Y-24301336D01*
X179431382Y-24270891D01*
X179567324Y-24249340D01*
X179797870Y-24235256D01*
X180142120Y-24227215D01*
X180619173Y-24223791D01*
X180958264Y-24223359D01*
X182595179Y-24223359D01*
X182593679Y-27459417D01*
G37*
G36*
X175490007Y-27366586D02*
G01*
X175691825Y-27489559D01*
X176001838Y-27682624D01*
X176405703Y-27936736D01*
X176889081Y-28242853D01*
X177437630Y-28591929D01*
X178037008Y-28974923D01*
X178422749Y-29222165D01*
X179046412Y-29622805D01*
X179627678Y-29997057D01*
X180152211Y-30335628D01*
X180605672Y-30629223D01*
X180973725Y-30868549D01*
X181242030Y-31044313D01*
X181396251Y-31147221D01*
X181428144Y-31170213D01*
X181362194Y-31182410D01*
X181150765Y-31193654D01*
X180811199Y-31203632D01*
X180360837Y-31212030D01*
X179817018Y-31218535D01*
X179197086Y-31222833D01*
X178518379Y-31224611D01*
X178416120Y-31224641D01*
X175349667Y-31224641D01*
X175349667Y-29270795D01*
X175352093Y-28726630D01*
X175358910Y-28241265D01*
X175369422Y-27836859D01*
X175382936Y-27535571D01*
X175398755Y-27359561D01*
X175410724Y-27322747D01*
X175490007Y-27366586D01*
G37*
G36*
X180367110Y-27539231D02*
G01*
X180715484Y-28219366D01*
X181040946Y-28855129D01*
X181335990Y-29431835D01*
X181593112Y-29934798D01*
X181804807Y-30349333D01*
X181963572Y-30660755D01*
X182061903Y-30854379D01*
X182092333Y-30915308D01*
X182032244Y-30886018D01*
X181849700Y-30777192D01*
X181558932Y-30597768D01*
X181174173Y-30356681D01*
X180709655Y-30062869D01*
X180179609Y-29725267D01*
X179598268Y-29352812D01*
X179365090Y-29202855D01*
X178625004Y-28728313D01*
X177807179Y-28207219D01*
X176949876Y-27663738D01*
X176091358Y-27122036D01*
X175269886Y-26606276D01*
X174523724Y-26140625D01*
X174128513Y-25895599D01*
X173553369Y-25539570D01*
X173021051Y-25208959D01*
X172547711Y-24913882D01*
X172149504Y-24664457D01*
X171842583Y-24470798D01*
X171643102Y-24343022D01*
X171568160Y-24292181D01*
X171630409Y-24277893D01*
X171839530Y-24264609D01*
X172179575Y-24252640D01*
X172634597Y-24242300D01*
X173188649Y-24233900D01*
X173825782Y-24227754D01*
X174530051Y-24224173D01*
X175079514Y-24223359D01*
X178668207Y-24223359D01*
X180367110Y-27539231D01*
G37*
G36*
X167453185Y-30207013D02*
G01*
X166347192Y-30166308D01*
X165241199Y-30125603D01*
X165003766Y-29859735D01*
X164852425Y-29657435D01*
X164782464Y-29448291D01*
X164771960Y-29270652D01*
X165516407Y-29270652D01*
X165610201Y-29473128D01*
X165738949Y-29572752D01*
X165969556Y-29634330D01*
X166220778Y-29661293D01*
X166720179Y-29697416D01*
X166720179Y-29117760D01*
X166720179Y-28538103D01*
X166309428Y-28538103D01*
X166022929Y-28557651D01*
X165828331Y-28631090D01*
X165698851Y-28737928D01*
X165532275Y-28996729D01*
X165516407Y-29270652D01*
X164771960Y-29270652D01*
X164766333Y-29175495D01*
X164778079Y-28918848D01*
X164834263Y-28740782D01*
X164966308Y-28571236D01*
X165093586Y-28445815D01*
X165420839Y-28134507D01*
X164849355Y-27435380D01*
X164619867Y-27151646D01*
X164434355Y-26916596D01*
X164313741Y-26757118D01*
X164277872Y-26700960D01*
X164351498Y-26681567D01*
X164541288Y-26668748D01*
X164722425Y-26665667D01*
X165166977Y-26665667D01*
X165671813Y-27316949D01*
X165909367Y-27616589D01*
X166080057Y-27807806D01*
X166212154Y-27914309D01*
X166333931Y-27959809D01*
X166448414Y-27968231D01*
X166720179Y-27968231D01*
X166720179Y-27316949D01*
X166720179Y-26665667D01*
X167086526Y-26665667D01*
X167452872Y-26665667D01*
X167453029Y-28436340D01*
X167453089Y-29117760D01*
X167453185Y-30207013D01*
G37*
G36*
X171116647Y-30207013D02*
G01*
X170010654Y-30166308D01*
X168904660Y-30125603D01*
X168667228Y-29859735D01*
X168515887Y-29657435D01*
X168445926Y-29448291D01*
X168435422Y-29270652D01*
X169179869Y-29270652D01*
X169273663Y-29473128D01*
X169402410Y-29572752D01*
X169633018Y-29634330D01*
X169884240Y-29661293D01*
X170383641Y-29697416D01*
X170383641Y-29117760D01*
X170383641Y-28538103D01*
X169972889Y-28538103D01*
X169686390Y-28557651D01*
X169491793Y-28631090D01*
X169362312Y-28737928D01*
X169195737Y-28996729D01*
X169179869Y-29270652D01*
X168435422Y-29270652D01*
X168429795Y-29175495D01*
X168441540Y-28918848D01*
X168497724Y-28740782D01*
X168629769Y-28571236D01*
X168757048Y-28445815D01*
X169084301Y-28134507D01*
X168512817Y-27435380D01*
X168283329Y-27151646D01*
X168097816Y-26916596D01*
X167977203Y-26757118D01*
X167941333Y-26700960D01*
X168014942Y-26681530D01*
X168204609Y-26668711D01*
X168383897Y-26665667D01*
X168826460Y-26665667D01*
X169330287Y-27316949D01*
X169567066Y-27616346D01*
X169737051Y-27807403D01*
X169868640Y-27913876D01*
X169990232Y-27959518D01*
X170108877Y-27968231D01*
X170383641Y-27968231D01*
X170383641Y-27316949D01*
X170383641Y-26665667D01*
X170749987Y-26665667D01*
X171116333Y-26665667D01*
X171116490Y-28436340D01*
X171116550Y-29117760D01*
X171116647Y-30207013D01*
G37*
G36*
X163341654Y-26639711D02*
G01*
X163675443Y-26721194D01*
X163880275Y-26799179D01*
X163987387Y-26899315D01*
X164028013Y-27047250D01*
X164033641Y-27207932D01*
X164021734Y-27418805D01*
X163991549Y-27534953D01*
X163972583Y-27543456D01*
X163399015Y-27287390D01*
X162902575Y-27144094D01*
X162493590Y-27115056D01*
X162182386Y-27201767D01*
X162085357Y-27271210D01*
X161923238Y-27481354D01*
X161922136Y-27671681D01*
X162081358Y-27841385D01*
X162400215Y-27989658D01*
X162792472Y-28097400D01*
X163284095Y-28241998D01*
X163630231Y-28431554D01*
X163845049Y-28679089D01*
X163942718Y-28997623D01*
X163952231Y-29163130D01*
X163905417Y-29544512D01*
X163749658Y-29824173D01*
X163461975Y-30037620D01*
X163351220Y-30091920D01*
X163024751Y-30186997D01*
X162607182Y-30235698D01*
X162164023Y-30236180D01*
X161760782Y-30186605D01*
X161591333Y-30141361D01*
X161410262Y-30063539D01*
X161322095Y-29955123D01*
X161286264Y-29757084D01*
X161280949Y-29689717D01*
X161278957Y-29484278D01*
X161303318Y-29374379D01*
X161321655Y-29368368D01*
X161846730Y-29590689D01*
X162311533Y-29706068D01*
X162698669Y-29712539D01*
X162990745Y-29608138D01*
X163048001Y-29563466D01*
X163204141Y-29369390D01*
X163214467Y-29196069D01*
X163074900Y-29039315D01*
X162781358Y-28894942D01*
X162329760Y-28758761D01*
X162243057Y-28737570D01*
X161786666Y-28600754D01*
X161472971Y-28432565D01*
X161282360Y-28214550D01*
X161195220Y-27928253D01*
X161184282Y-27741242D01*
X161242960Y-27345355D01*
X161428017Y-27036925D01*
X161752990Y-26796157D01*
X161869870Y-26738638D01*
X162174221Y-26649555D01*
X162567677Y-26600267D01*
X162980348Y-26595472D01*
X163341654Y-26639711D01*
G37*
D13*
X136432000Y-53638000D02*
X136432000Y-63758000D01*
X136432000Y-63758000D02*
X142402000Y-63758000D01*
X137192000Y-58698000D02*
X137192000Y-55458000D01*
X137192000Y-62998000D02*
X137192000Y-58698000D01*
X140142000Y-53648000D02*
X140142000Y-54398000D01*
X140142000Y-54398000D02*
X138802000Y-54398000D01*
X140142000Y-62998000D02*
X137192000Y-62998000D01*
X140142000Y-63748000D02*
X140142000Y-62998000D01*
X141642000Y-53648000D02*
X141642000Y-55448000D01*
X141642000Y-55448000D02*
X142392000Y-55448000D01*
X141642000Y-56948000D02*
X141642000Y-60448000D01*
X141642000Y-60448000D02*
X142392000Y-60448000D01*
X141642000Y-61948000D02*
X141642000Y-63748000D01*
X141642000Y-63748000D02*
X142392000Y-63748000D01*
X142392000Y-53648000D02*
X141642000Y-53648000D01*
X142392000Y-55448000D02*
X142392000Y-53648000D01*
X142392000Y-56948000D02*
X141642000Y-56948000D01*
X142392000Y-60448000D02*
X142392000Y-56948000D01*
X142392000Y-61948000D02*
X141642000Y-61948000D01*
X142392000Y-63748000D02*
X142392000Y-61948000D01*
X142402000Y-53638000D02*
X136432000Y-53638000D01*
X142402000Y-63758000D02*
X142402000Y-53638000D01*
X142692000Y-53348000D02*
X141442000Y-53348000D01*
X142692000Y-54598000D02*
X142692000Y-53348000D01*
X99695000Y-83824400D02*
X99695000Y-86974400D01*
X99695000Y-86974400D02*
X102545000Y-89574400D01*
X102545000Y-81274400D02*
X99695000Y-83824400D01*
X102545000Y-89574400D02*
X115395000Y-89574400D01*
X115395000Y-81274400D02*
X102545000Y-81274400D01*
X115395000Y-89574400D02*
X115395000Y-81274400D01*
X127796000Y-53620000D02*
X127796000Y-63740000D01*
X127796000Y-63740000D02*
X133766000Y-63740000D01*
X128556000Y-58680000D02*
X128556000Y-55440000D01*
X128556000Y-62980000D02*
X128556000Y-58680000D01*
X131506000Y-53630000D02*
X131506000Y-54380000D01*
X131506000Y-54380000D02*
X130166000Y-54380000D01*
X131506000Y-62980000D02*
X128556000Y-62980000D01*
X131506000Y-63730000D02*
X131506000Y-62980000D01*
X133006000Y-53630000D02*
X133006000Y-55430000D01*
X133006000Y-55430000D02*
X133756000Y-55430000D01*
X133006000Y-56930000D02*
X133006000Y-60430000D01*
X133006000Y-60430000D02*
X133756000Y-60430000D01*
X133006000Y-61930000D02*
X133006000Y-63730000D01*
X133006000Y-63730000D02*
X133756000Y-63730000D01*
X133756000Y-53630000D02*
X133006000Y-53630000D01*
X133756000Y-55430000D02*
X133756000Y-53630000D01*
X133756000Y-56930000D02*
X133006000Y-56930000D01*
X133756000Y-60430000D02*
X133756000Y-56930000D01*
X133756000Y-61930000D02*
X133006000Y-61930000D01*
X133756000Y-63730000D02*
X133756000Y-61930000D01*
X133766000Y-53620000D02*
X127796000Y-53620000D01*
X133766000Y-63740000D02*
X133766000Y-53620000D01*
X134056000Y-53330000D02*
X132806000Y-53330000D01*
X134056000Y-54580000D02*
X134056000Y-53330000D01*
D14*
X148993700Y-79118900D02*
X148993700Y-83767100D01*
X148993700Y-83767100D02*
X159458500Y-83767100D01*
X149120700Y-80388900D02*
X159331500Y-80388900D01*
X159458500Y-79118900D02*
X148993700Y-79118900D01*
X159458500Y-83767100D02*
X159458500Y-79118900D01*
X147418900Y-82065300D02*
G75*
G02*
X147012500Y-82065300I-203200J0D01*
G01*
X147012500Y-82065300D02*
G75*
G02*
X147418900Y-82065300I203200J0D01*
G01*
D13*
X108824000Y-21388000D02*
X108824000Y-27358000D01*
X108824000Y-27358000D02*
X116444000Y-27358000D01*
X108834000Y-25098000D02*
X109584000Y-25098000D01*
X108834000Y-26598000D02*
X108834000Y-27348000D01*
X108834000Y-27348000D02*
X110634000Y-27348000D01*
X109584000Y-22148000D02*
X112634000Y-22148000D01*
X109584000Y-25098000D02*
X109584000Y-22148000D01*
X110634000Y-26598000D02*
X108834000Y-26598000D01*
X110634000Y-27348000D02*
X110634000Y-26598000D01*
X112134000Y-26598000D02*
X112134000Y-27348000D01*
X112134000Y-27348000D02*
X113134000Y-27348000D01*
X112634000Y-22148000D02*
X114624000Y-22148000D01*
X113134000Y-26598000D02*
X112134000Y-26598000D01*
X113134000Y-27348000D02*
X113134000Y-26598000D01*
X114634000Y-26598000D02*
X114634000Y-27348000D01*
X114634000Y-27348000D02*
X116434000Y-27348000D01*
X115484000Y-27648000D02*
X116734000Y-27648000D01*
X115684000Y-25098000D02*
X115684000Y-23758000D01*
X116434000Y-25098000D02*
X115684000Y-25098000D01*
X116434000Y-26598000D02*
X114634000Y-26598000D01*
X116434000Y-27348000D02*
X116434000Y-26598000D01*
X116444000Y-21388000D02*
X108824000Y-21388000D01*
X116444000Y-27358000D02*
X116444000Y-21388000D01*
X116734000Y-27648000D02*
X116734000Y-26398000D01*
X99426000Y-55588000D02*
X99426000Y-58738000D01*
X99426000Y-58738000D02*
X102276000Y-61338000D01*
X102276000Y-53038000D02*
X99426000Y-55588000D01*
X102276000Y-61338000D02*
X115126000Y-61338000D01*
X115126000Y-53038000D02*
X102276000Y-53038000D01*
X115126000Y-61338000D02*
X115126000Y-53038000D01*
X164106000Y-99496000D02*
X165486000Y-99496000D01*
X164106000Y-100876000D02*
X164106000Y-99496000D01*
X164106000Y-102146000D02*
X164106000Y-127656000D01*
X164106000Y-102146000D02*
X166866000Y-102146000D01*
X164106000Y-127656000D02*
X166866000Y-127656000D01*
X166866000Y-102146000D02*
X166866000Y-127656000D01*
X166895000Y-142969000D02*
X166895000Y-141589000D01*
X168275000Y-142969000D02*
X166895000Y-142969000D01*
X169545000Y-140209000D02*
X195055000Y-140209000D01*
X169545000Y-142969000D02*
X169545000Y-140209000D01*
X169545000Y-142969000D02*
X195055000Y-142969000D01*
X195055000Y-142969000D02*
X195055000Y-140209000D01*
X136322000Y-42462000D02*
X136322000Y-52582000D01*
X136322000Y-52582000D02*
X142292000Y-52582000D01*
X137082000Y-47522000D02*
X137082000Y-44282000D01*
X137082000Y-51822000D02*
X137082000Y-47522000D01*
X140032000Y-42472000D02*
X140032000Y-43222000D01*
X140032000Y-43222000D02*
X138692000Y-43222000D01*
X140032000Y-51822000D02*
X137082000Y-51822000D01*
X140032000Y-52572000D02*
X140032000Y-51822000D01*
X141532000Y-42472000D02*
X141532000Y-44272000D01*
X141532000Y-44272000D02*
X142282000Y-44272000D01*
X141532000Y-45772000D02*
X141532000Y-49272000D01*
X141532000Y-49272000D02*
X142282000Y-49272000D01*
X141532000Y-50772000D02*
X141532000Y-52572000D01*
X141532000Y-52572000D02*
X142282000Y-52572000D01*
X142282000Y-42472000D02*
X141532000Y-42472000D01*
X142282000Y-44272000D02*
X142282000Y-42472000D01*
X142282000Y-45772000D02*
X141532000Y-45772000D01*
X142282000Y-49272000D02*
X142282000Y-45772000D01*
X142282000Y-50772000D02*
X141532000Y-50772000D01*
X142282000Y-52572000D02*
X142282000Y-50772000D01*
X142292000Y-42462000D02*
X136322000Y-42462000D01*
X142292000Y-52582000D02*
X142292000Y-42462000D01*
X142582000Y-42172000D02*
X141332000Y-42172000D01*
X142582000Y-43422000D02*
X142582000Y-42172000D01*
M02*
