G04 #@! TF.GenerationSoftware,KiCad,Pcbnew,9.0.7*
G04 #@! TF.CreationDate,2026-03-24T19:31:47+09:00*
G04 #@! TF.ProjectId,XIAO ESP32-S3,5849414f-2045-4535-9033-322d53332e6b,rev?*
G04 #@! TF.SameCoordinates,Original*
G04 #@! TF.FileFunction,Legend,Bot*
G04 #@! TF.FilePolarity,Positive*
%FSLAX46Y46*%
G04 Gerber Fmt 4.6, Leading zero omitted, Abs format (unit mm)*
G04 Created by KiCad (PCBNEW 9.0.7) date 2026-03-24 19:31:47*
%MOMM*%
%LPD*%
G01*
G04 APERTURE LIST*
%ADD10C,0.000000*%
G04 APERTURE END LIST*
D10*
G36*
X56913738Y-50602716D02*
G01*
X56893450Y-50623003D01*
X56873163Y-50602716D01*
X56893450Y-50582428D01*
X56913738Y-50602716D01*
G37*
G36*
X62107348Y-50602716D02*
G01*
X62087061Y-50623003D01*
X62066773Y-50602716D01*
X62087061Y-50582428D01*
X62107348Y-50602716D01*
G37*
G36*
X58415016Y-50683866D02*
G01*
X58394728Y-50704153D01*
X58374441Y-50683866D01*
X58394728Y-50663578D01*
X58415016Y-50683866D01*
G37*
G36*
X59591693Y-50683866D02*
G01*
X59571406Y-50704153D01*
X59551118Y-50683866D01*
X59571406Y-50663578D01*
X59591693Y-50683866D01*
G37*
G36*
X54763259Y-50846166D02*
G01*
X54742971Y-50866454D01*
X54722684Y-50846166D01*
X54742971Y-50825879D01*
X54763259Y-50846166D01*
G37*
G36*
X55006709Y-50846166D02*
G01*
X54986422Y-50866454D01*
X54966134Y-50846166D01*
X54986422Y-50825879D01*
X55006709Y-50846166D01*
G37*
G36*
X56629712Y-50846166D02*
G01*
X56609425Y-50866454D01*
X56589137Y-50846166D01*
X56609425Y-50825879D01*
X56629712Y-50846166D01*
G37*
G36*
X56994888Y-50846166D02*
G01*
X56974600Y-50866454D01*
X56954313Y-50846166D01*
X56974600Y-50825879D01*
X56994888Y-50846166D01*
G37*
G36*
X58171565Y-50846166D02*
G01*
X58151278Y-50866454D01*
X58130990Y-50846166D01*
X58151278Y-50825879D01*
X58171565Y-50846166D01*
G37*
G36*
X58861342Y-50846166D02*
G01*
X58841054Y-50866454D01*
X58820767Y-50846166D01*
X58841054Y-50825879D01*
X58861342Y-50846166D01*
G37*
G36*
X63324600Y-50846166D02*
G01*
X63304313Y-50866454D01*
X63284025Y-50846166D01*
X63304313Y-50825879D01*
X63324600Y-50846166D01*
G37*
G36*
X63595101Y-50595953D02*
G01*
X63601449Y-50608157D01*
X63568051Y-50623003D01*
X63546571Y-50620075D01*
X63541001Y-50595953D01*
X63546948Y-50591097D01*
X63595101Y-50595953D01*
G37*
G36*
X57671139Y-50839404D02*
G01*
X57677487Y-50851608D01*
X57644089Y-50866454D01*
X57622609Y-50863525D01*
X57617039Y-50839404D01*
X57622986Y-50834548D01*
X57671139Y-50839404D01*
G37*
G36*
X62521513Y-50690948D02*
G01*
X62499138Y-50763690D01*
X62462279Y-50822107D01*
X62438265Y-50823214D01*
X62435043Y-50769367D01*
X62462045Y-50697089D01*
X62508008Y-50663578D01*
X62521513Y-50690948D01*
G37*
G36*
X56540629Y-50677467D02*
G01*
X56527322Y-50773270D01*
X56496337Y-50886741D01*
X56467730Y-50785304D01*
X56457291Y-50710055D01*
X56472879Y-50645996D01*
X56482574Y-50636175D01*
X56523440Y-50626457D01*
X56540629Y-50677467D01*
G37*
G36*
X63445844Y-50622224D02*
G01*
X63459433Y-50680219D01*
X63453001Y-50777783D01*
X63431357Y-50886741D01*
X63405072Y-50785304D01*
X63393361Y-50718815D01*
X63395234Y-50640548D01*
X63414467Y-50601394D01*
X63445844Y-50622224D01*
G37*
G36*
X53815805Y-50645864D02*
G01*
X53819799Y-50724441D01*
X53819275Y-50767425D01*
X53813121Y-50825693D01*
X53802153Y-50816208D01*
X53794802Y-50759631D01*
X53801335Y-50653908D01*
X53806640Y-50633943D01*
X53815805Y-50645864D01*
G37*
G36*
X63078578Y-50727822D02*
G01*
X63075212Y-50780704D01*
X63054100Y-50839404D01*
X63022970Y-50858400D01*
X63012515Y-50825651D01*
X63037131Y-50740476D01*
X63057818Y-50691020D01*
X63073756Y-50673898D01*
X63078578Y-50727822D01*
G37*
G36*
X63594737Y-50688763D02*
G01*
X63608626Y-50765016D01*
X63598552Y-50831730D01*
X63568051Y-50866454D01*
X63541365Y-50841269D01*
X63527476Y-50765016D01*
X63537550Y-50698302D01*
X63568051Y-50663578D01*
X63594737Y-50688763D01*
G37*
G36*
X62908963Y-50688993D02*
G01*
X62928780Y-50765016D01*
X62932746Y-50832695D01*
X62913223Y-50866454D01*
X62890249Y-50841297D01*
X62878275Y-50765016D01*
X62882123Y-50698409D01*
X62893832Y-50663578D01*
X62908963Y-50688993D01*
G37*
G36*
X56905828Y-50765016D02*
G01*
X56905884Y-50774625D01*
X56900443Y-50838143D01*
X56887123Y-50836795D01*
X56879680Y-50803454D01*
X56885620Y-50715069D01*
X56887628Y-50708093D01*
X56899977Y-50702086D01*
X56905828Y-50765016D01*
G37*
G36*
X58488256Y-50765016D02*
G01*
X58488312Y-50774625D01*
X58482871Y-50838143D01*
X58469551Y-50836795D01*
X58462108Y-50803454D01*
X58468048Y-50715069D01*
X58470056Y-50708093D01*
X58482405Y-50702086D01*
X58488256Y-50765016D01*
G37*
G36*
X59664933Y-50765016D02*
G01*
X59664989Y-50774625D01*
X59659549Y-50838143D01*
X59646229Y-50836795D01*
X59638785Y-50803454D01*
X59644725Y-50715069D01*
X59646733Y-50708093D01*
X59659082Y-50702086D01*
X59664933Y-50765016D01*
G37*
G36*
X62099438Y-50765016D02*
G01*
X62099494Y-50774625D01*
X62094054Y-50838143D01*
X62080733Y-50836795D01*
X62073290Y-50803454D01*
X62079230Y-50715069D01*
X62081238Y-50708093D01*
X62093587Y-50702086D01*
X62099438Y-50765016D01*
G37*
G36*
X55683352Y-50593472D02*
G01*
X55710608Y-50662006D01*
X55704444Y-50775335D01*
X55697149Y-50810264D01*
X55680056Y-50853229D01*
X55663187Y-50822420D01*
X55642976Y-50714297D01*
X55641246Y-50702313D01*
X55638771Y-50617258D01*
X55656069Y-50582428D01*
X55683352Y-50593472D01*
G37*
G36*
X54865100Y-50690119D02*
G01*
X54910149Y-50757481D01*
X54895309Y-50839684D01*
X54871525Y-50853037D01*
X54852108Y-50797942D01*
X54830991Y-50741488D01*
X54770907Y-50691067D01*
X54763525Y-50689063D01*
X54737274Y-50675405D01*
X54789349Y-50668285D01*
X54865100Y-50690119D01*
G37*
G36*
X58271170Y-50689002D02*
G01*
X58319351Y-50753884D01*
X58311315Y-50829540D01*
X58292504Y-50854171D01*
X58261772Y-50860398D01*
X58267986Y-50804034D01*
X58267459Y-50757087D01*
X58201321Y-50705168D01*
X58150179Y-50683958D01*
X58137183Y-50670039D01*
X58197656Y-50666150D01*
X58271170Y-50689002D01*
G37*
G36*
X59982117Y-50652766D02*
G01*
X59997444Y-50744728D01*
X59997441Y-50746194D01*
X59986494Y-50831179D01*
X59960667Y-50866454D01*
X59942837Y-50850004D01*
X59945112Y-50785304D01*
X59949070Y-50736151D01*
X59918631Y-50704153D01*
X59901867Y-50700848D01*
X59896006Y-50663578D01*
X59944232Y-50622513D01*
X59982117Y-50652766D01*
G37*
G36*
X57079777Y-50672083D02*
G01*
X57143877Y-50720809D01*
X57141770Y-50807534D01*
X57129051Y-50834690D01*
X57098873Y-50866454D01*
X57091884Y-50858376D01*
X57101840Y-50805852D01*
X57099059Y-50758654D01*
X57029560Y-50706987D01*
X56974423Y-50684067D01*
X56962509Y-50670117D01*
X57022925Y-50666150D01*
X57079777Y-50672083D01*
G37*
G36*
X55356652Y-50589187D02*
G01*
X55421868Y-50596176D01*
X55422604Y-50609300D01*
X55387489Y-50656618D01*
X55371885Y-50748110D01*
X55360108Y-50831274D01*
X55331310Y-50866454D01*
X55302796Y-50832104D01*
X55290735Y-50748110D01*
X55276528Y-50660443D01*
X55240016Y-50609300D01*
X55233096Y-50605522D01*
X55252116Y-50593628D01*
X55331310Y-50588835D01*
X55356652Y-50589187D01*
G37*
G36*
X59212182Y-50687121D02*
G01*
X59218074Y-50739307D01*
X59155575Y-50807944D01*
X59108472Y-50835176D01*
X59064345Y-50839531D01*
X59068049Y-50814805D01*
X59117918Y-50765236D01*
X59153688Y-50738129D01*
X59169068Y-50710510D01*
X59117854Y-50692110D01*
X59099409Y-50687082D01*
X59078541Y-50674655D01*
X59135223Y-50668285D01*
X59140330Y-50668077D01*
X59212182Y-50687121D01*
G37*
G36*
X63257224Y-50676634D02*
G01*
X63280685Y-50724830D01*
X63233307Y-50805760D01*
X63198705Y-50839482D01*
X63143690Y-50862868D01*
X63121725Y-50824605D01*
X63131688Y-50799048D01*
X63189765Y-50756647D01*
X63210893Y-50748096D01*
X63232310Y-50726604D01*
X63179621Y-50699910D01*
X63146709Y-50686465D01*
X63131097Y-50671364D01*
X63192731Y-50666430D01*
X63257224Y-50676634D01*
G37*
G36*
X55777636Y-47234984D02*
G01*
X55777636Y-47458147D01*
X55311022Y-47458147D01*
X54844409Y-47458147D01*
X54844409Y-48655112D01*
X54844409Y-49852077D01*
X54540096Y-49852077D01*
X54235783Y-49852077D01*
X54235783Y-48655112D01*
X54235783Y-47458147D01*
X53748882Y-47458147D01*
X53261981Y-47458147D01*
X53261981Y-47234984D01*
X53261981Y-47011821D01*
X54519808Y-47011821D01*
X55777636Y-47011821D01*
X55777636Y-47234984D01*
G37*
G36*
X54333637Y-50665363D02*
G01*
X54384268Y-50693464D01*
X54392557Y-50775160D01*
X54389264Y-50827611D01*
X54382300Y-50848961D01*
X54369448Y-50795447D01*
X54346434Y-50738639D01*
X54296645Y-50704153D01*
X54258441Y-50724112D01*
X54223843Y-50795447D01*
X54214950Y-50837201D01*
X54206265Y-50844813D01*
X54200733Y-50775160D01*
X54200336Y-50734372D01*
X54223048Y-50677147D01*
X54296645Y-50663578D01*
X54333637Y-50665363D01*
G37*
G36*
X62730546Y-50665188D02*
G01*
X62783539Y-50693185D01*
X62794553Y-50775160D01*
X62791836Y-50841647D01*
X62781709Y-50854724D01*
X62755285Y-50795447D01*
X62722908Y-50737301D01*
X62679529Y-50704153D01*
X62651323Y-50724188D01*
X62622884Y-50795447D01*
X62613992Y-50837201D01*
X62605306Y-50844813D01*
X62599775Y-50775160D01*
X62599377Y-50734372D01*
X62622090Y-50677147D01*
X62695687Y-50663578D01*
X62730546Y-50665188D01*
G37*
G36*
X60221316Y-50687068D02*
G01*
X60265380Y-50757228D01*
X60251220Y-50839684D01*
X60226898Y-50851275D01*
X60207385Y-50793109D01*
X60187585Y-50736809D01*
X60146472Y-50716168D01*
X60122200Y-50738726D01*
X60112416Y-50809800D01*
X60113048Y-50813462D01*
X60112475Y-50860926D01*
X60076597Y-50838750D01*
X60074715Y-50836877D01*
X60045590Y-50762848D01*
X60076985Y-50693958D01*
X60154130Y-50663578D01*
X60221316Y-50687068D01*
G37*
G36*
X56228796Y-50717128D02*
G01*
X56251001Y-50753068D01*
X56281911Y-50768242D01*
X56327239Y-50717128D01*
X56331093Y-50712031D01*
X56360665Y-50679780D01*
X56362076Y-50705126D01*
X56336422Y-50797714D01*
X56321655Y-50846324D01*
X56295812Y-50912989D01*
X56272710Y-50914149D01*
X56238184Y-50858576D01*
X56223159Y-50829174D01*
X56194179Y-50751515D01*
X56184611Y-50694195D01*
X56195727Y-50676353D01*
X56228796Y-50717128D01*
G37*
G36*
X60731134Y-50668918D02*
G01*
X60794807Y-50719470D01*
X60793527Y-50807534D01*
X60775486Y-50845654D01*
X60748572Y-50860737D01*
X60742447Y-50799814D01*
X60738771Y-50765224D01*
X60697364Y-50715283D01*
X60663905Y-50722961D01*
X60646024Y-50792066D01*
X60645793Y-50806200D01*
X60636395Y-50854705D01*
X60609203Y-50829558D01*
X60587755Y-50768046D01*
X60612125Y-50694430D01*
X60689167Y-50663578D01*
X60731134Y-50668918D01*
G37*
G36*
X53671070Y-50668918D02*
G01*
X53734744Y-50719470D01*
X53733463Y-50807534D01*
X53709831Y-50851306D01*
X53679762Y-50859742D01*
X53676097Y-50799657D01*
X53675225Y-50763901D01*
X53637300Y-50715125D01*
X53604291Y-50722328D01*
X53586581Y-50790037D01*
X53577323Y-50848949D01*
X53544676Y-50840778D01*
X53539650Y-50835299D01*
X53521003Y-50763605D01*
X53556468Y-50694512D01*
X53629103Y-50663578D01*
X53671070Y-50668918D01*
G37*
G36*
X57649051Y-50610654D02*
G01*
X57670033Y-50666247D01*
X57619857Y-50733460D01*
X57573522Y-50778180D01*
X57552795Y-50828742D01*
X57547626Y-50857701D01*
X57507074Y-50862572D01*
X57462322Y-50827206D01*
X57466332Y-50789589D01*
X57520790Y-50736295D01*
X57581326Y-50690514D01*
X57595944Y-50643245D01*
X57532508Y-50610398D01*
X57519834Y-50606943D01*
X57496184Y-50593876D01*
X57550401Y-50587135D01*
X57566457Y-50586792D01*
X57649051Y-50610654D01*
G37*
G36*
X61972034Y-50645083D02*
G01*
X61976894Y-50724441D01*
X61976742Y-50766098D01*
X61970504Y-50832479D01*
X61958186Y-50834329D01*
X61936751Y-50805841D01*
X61885311Y-50824944D01*
X61874682Y-50833084D01*
X61842327Y-50833938D01*
X61833466Y-50765016D01*
X61833876Y-50742109D01*
X61847197Y-50690383D01*
X61886125Y-50705763D01*
X61891738Y-50710241D01*
X61932891Y-50718878D01*
X61956677Y-50655803D01*
X61962285Y-50634445D01*
X61972034Y-50645083D01*
G37*
G36*
X54100811Y-50686199D02*
G01*
X54114057Y-50762194D01*
X54104658Y-50831625D01*
X54077281Y-50866454D01*
X54059450Y-50850004D01*
X54061726Y-50785304D01*
X54063671Y-50726611D01*
X54012620Y-50704153D01*
X53965800Y-50719619D01*
X53963514Y-50785304D01*
X53968250Y-50834214D01*
X53945136Y-50866454D01*
X53923073Y-50845843D01*
X53918504Y-50775160D01*
X53940735Y-50717105D01*
X54022763Y-50670900D01*
X54047340Y-50668344D01*
X54100811Y-50686199D01*
G37*
G36*
X55967265Y-50686199D02*
G01*
X55980511Y-50762194D01*
X55971111Y-50831625D01*
X55943735Y-50866454D01*
X55925904Y-50850004D01*
X55928179Y-50785304D01*
X55930124Y-50726611D01*
X55879073Y-50704153D01*
X55832253Y-50719619D01*
X55829967Y-50785304D01*
X55834704Y-50834214D01*
X55811590Y-50866454D01*
X55789527Y-50845843D01*
X55784957Y-50775160D01*
X55807188Y-50717105D01*
X55889217Y-50670900D01*
X55913794Y-50668344D01*
X55967265Y-50686199D01*
G37*
G36*
X57387393Y-50686199D02*
G01*
X57400639Y-50762194D01*
X57391239Y-50831625D01*
X57363862Y-50866454D01*
X57346032Y-50850004D01*
X57348307Y-50785304D01*
X57350252Y-50726611D01*
X57299201Y-50704153D01*
X57252381Y-50719619D01*
X57250095Y-50785304D01*
X57254831Y-50834214D01*
X57231718Y-50866454D01*
X57209654Y-50845843D01*
X57205085Y-50775160D01*
X57227316Y-50717105D01*
X57309345Y-50670900D01*
X57333921Y-50668344D01*
X57387393Y-50686199D01*
G37*
G36*
X61415978Y-50664007D02*
G01*
X61481963Y-50687801D01*
X61498722Y-50765016D01*
X61488648Y-50831730D01*
X61458147Y-50866454D01*
X61434564Y-50851237D01*
X61417572Y-50785304D01*
X61416784Y-50766143D01*
X61393914Y-50710083D01*
X61355753Y-50720657D01*
X61324482Y-50795447D01*
X61315589Y-50837201D01*
X61306904Y-50844813D01*
X61301372Y-50775160D01*
X61300975Y-50734372D01*
X61323687Y-50677147D01*
X61397284Y-50663578D01*
X61415978Y-50664007D01*
G37*
G36*
X53179959Y-50665585D02*
G01*
X53185513Y-50713168D01*
X53165280Y-50804210D01*
X53142240Y-50870460D01*
X53111817Y-50911829D01*
X53077027Y-50880817D01*
X53027107Y-50775160D01*
X53003590Y-50695394D01*
X53019400Y-50663578D01*
X53037657Y-50670438D01*
X53059105Y-50724441D01*
X53063683Y-50752439D01*
X53099680Y-50785304D01*
X53118346Y-50778437D01*
X53140255Y-50724441D01*
X53144124Y-50696529D01*
X53174776Y-50663578D01*
X53179959Y-50665585D01*
G37*
G36*
X54670530Y-50636130D02*
G01*
X54673380Y-50724441D01*
X54671884Y-50768660D01*
X54664427Y-50817648D01*
X54653473Y-50795447D01*
X54630460Y-50738639D01*
X54580671Y-50704153D01*
X54542467Y-50724112D01*
X54507868Y-50795447D01*
X54498976Y-50837201D01*
X54490290Y-50844813D01*
X54484759Y-50775160D01*
X54484216Y-50759231D01*
X54499434Y-50684294D01*
X54557002Y-50663578D01*
X54602510Y-50655403D01*
X54655236Y-50612859D01*
X54660620Y-50605228D01*
X54670530Y-50636130D01*
G37*
G36*
X58078836Y-50636130D02*
G01*
X58081686Y-50724441D01*
X58080191Y-50768660D01*
X58072734Y-50817648D01*
X58061780Y-50795447D01*
X58038767Y-50738639D01*
X57988977Y-50704153D01*
X57950773Y-50724112D01*
X57916175Y-50795447D01*
X57907283Y-50837201D01*
X57898597Y-50844813D01*
X57893065Y-50775160D01*
X57892523Y-50759231D01*
X57907740Y-50684294D01*
X57965309Y-50663578D01*
X58010817Y-50655403D01*
X58063543Y-50612859D01*
X58068927Y-50605228D01*
X58078836Y-50636130D01*
G37*
G36*
X59365313Y-50666764D02*
G01*
X59368530Y-50704153D01*
X59365281Y-50725643D01*
X59409105Y-50744728D01*
X59443111Y-50737177D01*
X59446122Y-50694010D01*
X59434114Y-50664027D01*
X59469403Y-50691282D01*
X59492688Y-50725301D01*
X59490919Y-50813007D01*
X59466856Y-50853462D01*
X59441575Y-50836022D01*
X59429243Y-50815818D01*
X59365149Y-50785304D01*
X59338412Y-50778273D01*
X59307668Y-50724441D01*
X59312530Y-50696404D01*
X59350637Y-50663578D01*
X59365313Y-50666764D01*
G37*
G36*
X62246144Y-50666764D02*
G01*
X62249361Y-50704153D01*
X62246111Y-50725643D01*
X62289936Y-50744728D01*
X62323942Y-50737177D01*
X62326953Y-50694010D01*
X62314945Y-50664027D01*
X62350234Y-50691282D01*
X62373519Y-50725301D01*
X62371750Y-50813007D01*
X62347687Y-50853462D01*
X62322406Y-50836022D01*
X62310073Y-50815818D01*
X62245980Y-50785304D01*
X62219243Y-50778273D01*
X62188498Y-50724441D01*
X62193360Y-50696404D01*
X62231468Y-50663578D01*
X62246144Y-50666764D01*
G37*
G36*
X56653874Y-50697884D02*
G01*
X56647325Y-50724328D01*
X56690575Y-50744728D01*
X56723317Y-50737740D01*
X56727275Y-50697884D01*
X56717403Y-50675209D01*
X56745168Y-50679991D01*
X56770325Y-50707943D01*
X56792013Y-50787698D01*
X56784292Y-50832601D01*
X56749043Y-50866454D01*
X56734367Y-50863268D01*
X56731150Y-50825879D01*
X56728786Y-50800923D01*
X56672682Y-50785304D01*
X56618003Y-50775325D01*
X56590737Y-50733611D01*
X56635982Y-50679991D01*
X56658657Y-50670119D01*
X56653874Y-50697884D01*
G37*
G36*
X58708496Y-50668155D02*
G01*
X58732522Y-50676632D01*
X58680927Y-50700188D01*
X58643434Y-50715685D01*
X58629356Y-50734432D01*
X58691070Y-50754401D01*
X58746077Y-50778308D01*
X58780192Y-50822080D01*
X58769125Y-50855294D01*
X58726571Y-50861284D01*
X58685224Y-50815735D01*
X58662094Y-50789140D01*
X58621602Y-50825879D01*
X58605304Y-50846525D01*
X58583830Y-50846839D01*
X58577937Y-50775160D01*
X58578688Y-50744524D01*
X58601123Y-50680713D01*
X58668610Y-50666430D01*
X58708496Y-50668155D01*
G37*
G36*
X60515199Y-50630420D02*
G01*
X60521717Y-50714297D01*
X60521688Y-50741852D01*
X60511023Y-50830647D01*
X60488144Y-50866454D01*
X60470313Y-50850004D01*
X60472588Y-50785304D01*
X60474533Y-50726611D01*
X60423482Y-50704153D01*
X60376662Y-50719619D01*
X60374376Y-50785304D01*
X60379692Y-50834141D01*
X60358821Y-50866454D01*
X60334642Y-50841289D01*
X60322045Y-50765016D01*
X60338307Y-50689229D01*
X60399813Y-50663578D01*
X60445321Y-50655403D01*
X60498048Y-50612859D01*
X60502793Y-50605316D01*
X60515199Y-50630420D01*
G37*
G36*
X61729474Y-50675150D02*
G01*
X61684276Y-50697757D01*
X61659174Y-50708706D01*
X61630419Y-50732782D01*
X61674133Y-50756647D01*
X61709077Y-50777888D01*
X61738969Y-50834749D01*
X61733642Y-50864860D01*
X61715300Y-50836022D01*
X61701263Y-50814856D01*
X61634959Y-50785304D01*
X61608710Y-50790618D01*
X61600160Y-50825879D01*
X61606301Y-50841762D01*
X61579445Y-50866454D01*
X61553431Y-50845755D01*
X61546619Y-50775160D01*
X61574383Y-50709578D01*
X61661022Y-50674421D01*
X61701611Y-50671179D01*
X61729474Y-50675150D01*
G37*
G36*
X55023780Y-50666764D02*
G01*
X55026997Y-50704153D01*
X55023747Y-50725643D01*
X55067572Y-50744728D01*
X55101578Y-50737177D01*
X55104589Y-50694010D01*
X55092580Y-50664027D01*
X55127869Y-50691282D01*
X55150415Y-50723583D01*
X55155383Y-50802864D01*
X55140125Y-50834369D01*
X55107026Y-50866454D01*
X55100100Y-50863727D01*
X55108147Y-50825879D01*
X55105783Y-50800923D01*
X55049679Y-50785304D01*
X55000194Y-50773953D01*
X54966134Y-50724441D01*
X54970996Y-50696404D01*
X55009104Y-50663578D01*
X55023780Y-50666764D01*
G37*
G36*
X58878412Y-50666764D02*
G01*
X58881629Y-50704153D01*
X58878380Y-50725643D01*
X58922204Y-50744728D01*
X58956210Y-50737177D01*
X58959221Y-50694010D01*
X58947213Y-50664027D01*
X58982502Y-50691282D01*
X59005048Y-50723583D01*
X59010016Y-50802864D01*
X58994758Y-50834369D01*
X58961658Y-50866454D01*
X58954732Y-50863727D01*
X58962779Y-50825879D01*
X58960415Y-50800923D01*
X58904311Y-50785304D01*
X58854826Y-50773953D01*
X58820767Y-50724441D01*
X58825629Y-50696404D01*
X58863736Y-50663578D01*
X58878412Y-50666764D01*
G37*
G36*
X72980974Y-49192732D02*
G01*
X72981469Y-51759105D01*
X71678726Y-51759105D01*
X71618119Y-51759096D01*
X71264665Y-51758489D01*
X70983679Y-51756697D01*
X70767627Y-51753387D01*
X70608978Y-51748224D01*
X70500198Y-51740876D01*
X70433755Y-51731009D01*
X70402116Y-51718289D01*
X70397749Y-51702382D01*
X70408068Y-51680596D01*
X70452406Y-51591423D01*
X70528628Y-51439905D01*
X70633698Y-51232022D01*
X70764583Y-50973757D01*
X70918246Y-50671089D01*
X71091654Y-50330000D01*
X71281772Y-49956469D01*
X71485564Y-49556479D01*
X71699997Y-49136009D01*
X72980478Y-46626358D01*
X72980974Y-49192732D01*
G37*
G36*
X53446484Y-50843840D02*
G01*
X53381311Y-50866454D01*
X53332438Y-50875250D01*
X53326718Y-50913298D01*
X53336590Y-50935973D01*
X53308825Y-50931191D01*
X53276508Y-50878073D01*
X53261981Y-50782909D01*
X53262766Y-50765016D01*
X53302556Y-50765016D01*
X53309625Y-50793400D01*
X53363418Y-50825879D01*
X53391802Y-50818809D01*
X53424281Y-50765016D01*
X53417212Y-50736632D01*
X53363418Y-50704153D01*
X53335035Y-50711223D01*
X53302556Y-50765016D01*
X53262766Y-50765016D01*
X53264135Y-50733830D01*
X53290411Y-50677041D01*
X53363418Y-50663578D01*
X53382112Y-50664007D01*
X53448098Y-50687801D01*
X53464856Y-50765016D01*
X53446484Y-50843840D01*
G37*
G36*
X63892030Y-50731763D02*
G01*
X63890256Y-50792845D01*
X63878392Y-50844890D01*
X63853145Y-50826218D01*
X63814991Y-50788454D01*
X63764501Y-50816074D01*
X63763421Y-50817148D01*
X63702825Y-50859875D01*
X63666110Y-50859396D01*
X63675728Y-50815783D01*
X63692226Y-50777538D01*
X63708554Y-50683914D01*
X63715306Y-50661184D01*
X63730351Y-50661184D01*
X63734540Y-50683656D01*
X63775551Y-50724781D01*
X63826130Y-50716575D01*
X63837146Y-50703942D01*
X63847173Y-50647922D01*
X63791214Y-50623003D01*
X63763251Y-50627299D01*
X63730351Y-50661184D01*
X63715306Y-50661184D01*
X63724352Y-50630734D01*
X63801358Y-50589750D01*
X63801878Y-50589676D01*
X63861201Y-50590934D01*
X63886816Y-50631349D01*
X63887677Y-50647922D01*
X63892030Y-50731763D01*
G37*
G36*
X61089768Y-50734585D02*
G01*
X61088499Y-50767902D01*
X61079593Y-50834136D01*
X61066099Y-50836022D01*
X61063600Y-50830582D01*
X61016439Y-50792238D01*
X60958785Y-50789671D01*
X60930671Y-50825879D01*
X60928442Y-50838390D01*
X60885127Y-50866454D01*
X60861359Y-50856720D01*
X60887098Y-50809203D01*
X60912056Y-50767414D01*
X60890096Y-50724441D01*
X60871808Y-50703467D01*
X60882078Y-50656466D01*
X60934200Y-50656466D01*
X60959227Y-50708365D01*
X60985173Y-50727570D01*
X61028191Y-50710492D01*
X61029732Y-50668221D01*
X60989917Y-50631668D01*
X60940820Y-50639904D01*
X60934200Y-50656466D01*
X60882078Y-50656466D01*
X60883155Y-50651537D01*
X60938313Y-50603534D01*
X61016789Y-50582428D01*
X61054052Y-50588696D01*
X61083959Y-50632053D01*
X61086008Y-50668221D01*
X61089768Y-50734585D01*
G37*
G36*
X68885184Y-46207628D02*
G01*
X69297430Y-46208500D01*
X69733324Y-46210080D01*
X72145401Y-46220607D01*
X69713036Y-47771896D01*
X69395040Y-47974544D01*
X69008296Y-48220556D01*
X68645789Y-48450657D01*
X68313036Y-48661373D01*
X68015552Y-48849226D01*
X67758853Y-49010741D01*
X67548457Y-49142441D01*
X67389878Y-49240850D01*
X67288634Y-49302493D01*
X67250239Y-49323893D01*
X67249083Y-49322812D01*
X67242358Y-49271266D01*
X67236192Y-49148834D01*
X67230757Y-48964318D01*
X67226227Y-48726521D01*
X67222777Y-48444246D01*
X67220579Y-48126296D01*
X67219808Y-47781474D01*
X67220288Y-47400242D01*
X67222036Y-47054566D01*
X67225259Y-46778186D01*
X67230158Y-46564909D01*
X67236933Y-46408541D01*
X67245785Y-46302887D01*
X67256916Y-46241755D01*
X67270527Y-46218951D01*
X67313978Y-46215817D01*
X67432212Y-46212985D01*
X67617558Y-46210705D01*
X67862772Y-46209004D01*
X68160611Y-46207906D01*
X68503829Y-46207439D01*
X68885184Y-46207628D01*
G37*
G36*
X72588891Y-46455993D02*
G01*
X72538587Y-46557720D01*
X72456853Y-46720426D01*
X72346558Y-46938470D01*
X72210570Y-47206212D01*
X72051759Y-47518012D01*
X71872994Y-47868231D01*
X71677143Y-48251228D01*
X71467075Y-48661363D01*
X71245660Y-49092997D01*
X69877476Y-51758198D01*
X67000026Y-51758652D01*
X66622795Y-51758589D01*
X66167342Y-51758173D01*
X65741838Y-51757410D01*
X65352683Y-51756331D01*
X65006276Y-51754966D01*
X64709019Y-51753345D01*
X64467311Y-51751501D01*
X64287552Y-51749462D01*
X64176143Y-51747261D01*
X64139483Y-51744928D01*
X64147545Y-51739631D01*
X64212680Y-51698709D01*
X64337602Y-51620912D01*
X64515875Y-51510228D01*
X64741065Y-51370646D01*
X65006735Y-51206152D01*
X65306449Y-51020734D01*
X65633772Y-50818380D01*
X65982268Y-50603079D01*
X66671006Y-50176158D01*
X67496622Y-49660912D01*
X68356305Y-49121061D01*
X69232493Y-48567699D01*
X70107629Y-48011919D01*
X70964153Y-47464814D01*
X71784505Y-46937478D01*
X71938215Y-46838550D01*
X72150894Y-46702489D01*
X72333377Y-46586729D01*
X72476191Y-46497233D01*
X72569864Y-46439966D01*
X72604925Y-46420892D01*
X72588891Y-46455993D01*
G37*
G36*
X60930671Y-48428903D02*
G01*
X60930671Y-49852077D01*
X60626358Y-49852077D01*
X60322045Y-49852077D01*
X60322045Y-49304313D01*
X60322045Y-48756550D01*
X60120299Y-48756550D01*
X59918554Y-48756550D01*
X59501529Y-49302212D01*
X59084505Y-49847874D01*
X58706791Y-49849975D01*
X58599406Y-49849708D01*
X58449308Y-49843637D01*
X58370608Y-49829589D01*
X58357062Y-49806796D01*
X58384834Y-49769291D01*
X58456584Y-49677290D01*
X58562867Y-49543077D01*
X58694955Y-49377668D01*
X58844120Y-49192080D01*
X59303193Y-48622645D01*
X59125416Y-48504890D01*
X59067107Y-48462694D01*
X58902612Y-48290281D01*
X58795798Y-48087891D01*
X58746962Y-47871412D01*
X59381595Y-47871412D01*
X59383470Y-47913562D01*
X59430470Y-48090665D01*
X59541259Y-48217832D01*
X59717220Y-48296815D01*
X59772529Y-48309566D01*
X59941852Y-48335640D01*
X60109025Y-48347533D01*
X60322045Y-48350799D01*
X60322045Y-47884185D01*
X60322045Y-47417572D01*
X60121166Y-47417572D01*
X60065781Y-47418918D01*
X59884798Y-47434465D01*
X59713941Y-47461825D01*
X59615201Y-47489103D01*
X59477544Y-47568515D01*
X59402645Y-47692292D01*
X59381595Y-47871412D01*
X58746962Y-47871412D01*
X58746654Y-47870046D01*
X58755167Y-47651267D01*
X58821328Y-47446075D01*
X58945122Y-47268993D01*
X59126538Y-47134542D01*
X59148670Y-47123252D01*
X59218630Y-47090763D01*
X59289663Y-47066704D01*
X59375116Y-47049533D01*
X59488334Y-47037710D01*
X59642661Y-47029693D01*
X59851443Y-47023944D01*
X60128027Y-47018919D01*
X60930671Y-47005730D01*
X60930671Y-47884185D01*
X60930671Y-48428903D01*
G37*
G36*
X63852077Y-48428903D02*
G01*
X63852077Y-49852077D01*
X63547763Y-49852077D01*
X63243450Y-49852077D01*
X63243450Y-49304313D01*
X63243450Y-48756550D01*
X63042407Y-48756550D01*
X62841363Y-48756550D01*
X62427562Y-49287685D01*
X62327877Y-49414399D01*
X62196131Y-49577848D01*
X62085650Y-49710213D01*
X62005780Y-49800372D01*
X61965869Y-49837199D01*
X61955290Y-49839751D01*
X61874846Y-49845651D01*
X61742593Y-49847088D01*
X61581086Y-49843683D01*
X61244195Y-49831789D01*
X61733673Y-49226738D01*
X62223151Y-48621686D01*
X62053668Y-48508153D01*
X61963558Y-48442332D01*
X61802922Y-48274480D01*
X61708598Y-48075555D01*
X61670567Y-47827761D01*
X61670974Y-47815962D01*
X62295522Y-47815962D01*
X62308888Y-47980663D01*
X62321626Y-48023565D01*
X62390954Y-48159769D01*
X62502855Y-48248678D01*
X62675999Y-48306883D01*
X62712080Y-48314481D01*
X62884001Y-48339298D01*
X63050719Y-48349807D01*
X63243450Y-48350799D01*
X63243450Y-47878159D01*
X63243450Y-47405518D01*
X62899741Y-47429774D01*
X62850049Y-47433685D01*
X62684663Y-47452370D01*
X62549613Y-47475833D01*
X62470267Y-47499930D01*
X62418693Y-47537177D01*
X62335184Y-47659018D01*
X62295522Y-47815962D01*
X61670974Y-47815962D01*
X61677864Y-47615991D01*
X61737078Y-47417970D01*
X61857298Y-47262058D01*
X62045199Y-47135930D01*
X62070066Y-47123254D01*
X62140363Y-47090658D01*
X62211579Y-47066556D01*
X62297085Y-47049390D01*
X62410252Y-47037601D01*
X62564452Y-47029631D01*
X62773055Y-47023923D01*
X63049432Y-47018919D01*
X63852077Y-47005730D01*
X63852077Y-47878159D01*
X63852077Y-48428903D01*
G37*
G36*
X57351035Y-46988026D02*
G01*
X57630799Y-47079934D01*
X57862101Y-47220810D01*
X58035210Y-47408373D01*
X58101338Y-47530618D01*
X58156141Y-47752164D01*
X58141415Y-47976658D01*
X58061497Y-48188719D01*
X57920724Y-48372967D01*
X57723435Y-48514020D01*
X57656588Y-48542519D01*
X57511079Y-48592100D01*
X57327865Y-48645785D01*
X57131350Y-48696070D01*
X56918509Y-48751554D01*
X56726129Y-48819087D01*
X56599260Y-48891361D01*
X56529386Y-48973494D01*
X56507987Y-49070603D01*
X56509304Y-49103734D01*
X56557929Y-49251788D01*
X56675210Y-49359051D01*
X56859198Y-49424304D01*
X57107946Y-49446326D01*
X57280173Y-49436906D01*
X57621835Y-49359026D01*
X57939668Y-49204296D01*
X58022658Y-49152760D01*
X58110898Y-49101138D01*
X58152687Y-49081150D01*
X58154295Y-49082240D01*
X58163056Y-49130963D01*
X58169230Y-49237597D01*
X58171565Y-49382202D01*
X58171565Y-49683255D01*
X57975783Y-49748283D01*
X57924148Y-49764805D01*
X57754571Y-49813454D01*
X57600464Y-49851032D01*
X57556495Y-49858349D01*
X57408995Y-49871528D01*
X57223062Y-49878106D01*
X57028522Y-49876742D01*
X56997575Y-49875743D01*
X56802934Y-49865004D01*
X56658438Y-49844806D01*
X56536761Y-49809737D01*
X56410580Y-49754388D01*
X56313709Y-49700130D01*
X56170464Y-49598334D01*
X56064354Y-49497627D01*
X55959976Y-49333040D01*
X55891874Y-49107680D01*
X55891428Y-48875690D01*
X55958168Y-48654905D01*
X56091623Y-48463158D01*
X56143443Y-48413557D01*
X56236532Y-48343821D01*
X56351619Y-48284118D01*
X56503212Y-48228586D01*
X56705820Y-48171361D01*
X56973952Y-48106579D01*
X57088245Y-48078266D01*
X57291137Y-48011413D01*
X57425358Y-47935534D01*
X57499553Y-47844746D01*
X57522364Y-47733162D01*
X57522069Y-47720463D01*
X57478720Y-47588416D01*
X57369580Y-47484621D01*
X57205748Y-47414031D01*
X56998327Y-47381600D01*
X56758418Y-47392281D01*
X56635906Y-47420466D01*
X56468931Y-47477700D01*
X56305112Y-47549519D01*
X56292131Y-47556003D01*
X56160664Y-47621442D01*
X56059972Y-47671159D01*
X56010942Y-47694835D01*
X56009606Y-47695158D01*
X55994897Y-47659221D01*
X55984471Y-47563032D01*
X55980511Y-47425876D01*
X55980679Y-47363212D01*
X55987355Y-47238626D01*
X56014636Y-47157181D01*
X56077108Y-47103402D01*
X56189358Y-47061813D01*
X56365974Y-47016940D01*
X56685039Y-46960244D01*
X57032538Y-46947369D01*
X57351035Y-46988026D01*
G37*
M02*
