G04 #@! TF.GenerationSoftware,KiCad,Pcbnew,9.0.7*
G04 #@! TF.CreationDate,2026-03-24T19:31:46+09:00*
G04 #@! TF.ProjectId,XIAO ESP32-S3,5849414f-2045-4535-9033-322d53332e6b,rev?*
G04 #@! TF.SameCoordinates,Original*
G04 #@! TF.FileFunction,Copper,L1,Top*
G04 #@! TF.FilePolarity,Positive*
%FSLAX46Y46*%
G04 Gerber Fmt 4.6, Leading zero omitted, Abs format (unit mm)*
G04 Created by KiCad (PCBNEW 9.0.7) date 2026-03-24 19:31:46*
%MOMM*%
%LPD*%
G01*
G04 APERTURE LIST*
G04 Aperture macros list*
%AMRoundRect*
0 Rectangle with rounded corners*
0 $1 Rounding radius*
0 $2 $3 $4 $5 $6 $7 $8 $9 X,Y pos of 4 corners*
0 Add a 4 corners polygon primitive as box body*
4,1,4,$2,$3,$4,$5,$6,$7,$8,$9,$2,$3,0*
0 Add four circle primitives for the rounded corners*
1,1,$1+$1,$2,$3*
1,1,$1+$1,$4,$5*
1,1,$1+$1,$6,$7*
1,1,$1+$1,$8,$9*
0 Add four rect primitives between the rounded corners*
20,1,$1+$1,$2,$3,$4,$5,0*
20,1,$1+$1,$4,$5,$6,$7,0*
20,1,$1+$1,$6,$7,$8,$9,0*
20,1,$1+$1,$8,$9,$2,$3,0*%
G04 Aperture macros list end*
G04 #@! TA.AperFunction,ComponentPad*
%ADD10R,1.700000X1.700000*%
G04 #@! TD*
G04 #@! TA.AperFunction,ComponentPad*
%ADD11C,1.700000*%
G04 #@! TD*
G04 #@! TA.AperFunction,ComponentPad*
%ADD12RoundRect,0.250000X0.600000X0.725000X-0.600000X0.725000X-0.600000X-0.725000X0.600000X-0.725000X0*%
G04 #@! TD*
G04 #@! TA.AperFunction,ComponentPad*
%ADD13O,1.700000X1.950000*%
G04 #@! TD*
G04 #@! TA.AperFunction,ComponentPad*
%ADD14RoundRect,0.250000X0.350000X0.625000X-0.350000X0.625000X-0.350000X-0.625000X0.350000X-0.625000X0*%
G04 #@! TD*
G04 #@! TA.AperFunction,ComponentPad*
%ADD15O,1.200000X1.750000*%
G04 #@! TD*
G04 #@! TA.AperFunction,ViaPad*
%ADD16C,0.600000*%
G04 #@! TD*
G04 #@! TA.AperFunction,Conductor*
%ADD17C,0.200000*%
G04 #@! TD*
G04 APERTURE END LIST*
D10*
X51160000Y-76260000D03*
D11*
X51160000Y-73720000D03*
X51160000Y-71180000D03*
X51160000Y-68640000D03*
X51160000Y-66100000D03*
X51160000Y-63560000D03*
X51160000Y-61020000D03*
D10*
X70200000Y-76240000D03*
D11*
X70200000Y-73700000D03*
X70200000Y-71160000D03*
X70200000Y-68620000D03*
X70200000Y-66080000D03*
X70200000Y-63540000D03*
X70200000Y-61000000D03*
D12*
X59600000Y-55045000D03*
D13*
X57100000Y-55045000D03*
X54600000Y-55045000D03*
X52100000Y-55045000D03*
D10*
X74000000Y-76240000D03*
D11*
X74000000Y-73700000D03*
X74000000Y-71160000D03*
X74000000Y-68620000D03*
X74000000Y-66080000D03*
X74000000Y-63540000D03*
X74000000Y-61000000D03*
D14*
X73500000Y-54600000D03*
D15*
X71500000Y-54600000D03*
X69500000Y-54600000D03*
X67500000Y-54600000D03*
X65500000Y-54600000D03*
D10*
X54960000Y-76240000D03*
D11*
X54960000Y-73700000D03*
X54960000Y-71160000D03*
X54960000Y-68620000D03*
X54960000Y-66080000D03*
X54960000Y-63540000D03*
X54960000Y-61000000D03*
D16*
X53017500Y-72313900D03*
D17*
X74000000Y-73700000D02*
X70200000Y-73700000D01*
X53017500Y-72313900D02*
X68813900Y-72313900D01*
X68813900Y-72313900D02*
X70200000Y-73700000D01*
X74000000Y-76240000D02*
X70200000Y-76240000D01*
X53788300Y-76260000D02*
X53808300Y-76240000D01*
X51160000Y-76260000D02*
X53788300Y-76260000D01*
X54960000Y-76240000D02*
X53808300Y-76240000D01*
X74000000Y-66080000D02*
X70200000Y-66080000D01*
X74000000Y-61000000D02*
X70200000Y-61000000D01*
X54960000Y-63540000D02*
X51180000Y-63540000D01*
X51180000Y-63540000D02*
X51160000Y-63560000D01*
X51180000Y-71160000D02*
X51160000Y-71180000D01*
X54960000Y-71160000D02*
X51180000Y-71160000D01*
X54960000Y-66080000D02*
X51180000Y-66080000D01*
X51180000Y-66080000D02*
X51160000Y-66100000D01*
X74000000Y-63540000D02*
X70200000Y-63540000D01*
X74000000Y-71160000D02*
X70200000Y-71160000D01*
X70200000Y-68620000D02*
X74000000Y-68620000D01*
X51180000Y-61000000D02*
X51160000Y-61020000D01*
X54960000Y-61000000D02*
X51180000Y-61000000D01*
X54940000Y-68640000D02*
X54960000Y-68620000D01*
X51160000Y-68640000D02*
X54940000Y-68640000D01*
G04 #@! TA.AperFunction,Conductor*
G36*
X53709832Y-72934085D02*
G01*
X53755587Y-72986889D01*
X53765531Y-73056047D01*
X53753278Y-73094695D01*
X53708904Y-73181782D01*
X53643242Y-73383869D01*
X53643242Y-73383872D01*
X53610000Y-73593753D01*
X53610000Y-73806246D01*
X53643242Y-74016127D01*
X53643242Y-74016130D01*
X53708904Y-74218217D01*
X53805375Y-74407550D01*
X53844728Y-74461716D01*
X54477036Y-73829407D01*
X54494075Y-73892993D01*
X54559901Y-74007007D01*
X54652993Y-74100099D01*
X54767007Y-74165925D01*
X54830590Y-74182962D01*
X54160370Y-74853181D01*
X54099047Y-74886666D01*
X54072698Y-74889500D01*
X54062134Y-74889500D01*
X54062123Y-74889501D01*
X54002516Y-74895908D01*
X53867671Y-74946202D01*
X53867664Y-74946206D01*
X53752455Y-75032452D01*
X53752452Y-75032455D01*
X53666206Y-75147664D01*
X53666202Y-75147671D01*
X53615908Y-75282517D01*
X53609501Y-75342116D01*
X53609501Y-75342123D01*
X53609500Y-75342135D01*
X53609500Y-75535500D01*
X53589815Y-75602539D01*
X53537011Y-75648294D01*
X53485500Y-75659500D01*
X52634499Y-75659500D01*
X52567460Y-75639815D01*
X52521705Y-75587011D01*
X52510499Y-75535500D01*
X52510499Y-75362129D01*
X52510498Y-75362123D01*
X52510497Y-75362116D01*
X52504091Y-75302517D01*
X52496631Y-75282517D01*
X52453797Y-75167671D01*
X52453793Y-75167664D01*
X52367547Y-75052455D01*
X52367544Y-75052452D01*
X52252335Y-74966206D01*
X52252328Y-74966202D01*
X52117482Y-74915908D01*
X52117483Y-74915908D01*
X52057883Y-74909501D01*
X52057881Y-74909500D01*
X52057873Y-74909500D01*
X52057865Y-74909500D01*
X52047309Y-74909500D01*
X51980270Y-74889815D01*
X51959628Y-74873181D01*
X51289408Y-74202962D01*
X51352993Y-74185925D01*
X51467007Y-74120099D01*
X51560099Y-74027007D01*
X51625925Y-73912993D01*
X51642962Y-73849408D01*
X52275270Y-74481717D01*
X52275270Y-74481716D01*
X52314622Y-74427554D01*
X52411095Y-74238217D01*
X52476757Y-74036130D01*
X52476757Y-74036127D01*
X52510000Y-73826246D01*
X52510000Y-73613753D01*
X52476757Y-73403872D01*
X52476757Y-73403869D01*
X52411094Y-73201780D01*
X52371647Y-73124361D01*
X52358750Y-73055691D01*
X52385026Y-72990951D01*
X52442132Y-72950693D01*
X52511938Y-72947701D01*
X52551022Y-72964963D01*
X52638314Y-73023290D01*
X52638327Y-73023297D01*
X52717394Y-73056047D01*
X52784003Y-73083637D01*
X52938653Y-73114399D01*
X52938656Y-73114400D01*
X52938658Y-73114400D01*
X53096344Y-73114400D01*
X53096345Y-73114399D01*
X53250997Y-73083637D01*
X53376156Y-73031795D01*
X53396672Y-73023297D01*
X53396672Y-73023296D01*
X53396679Y-73023294D01*
X53443237Y-72992185D01*
X53528375Y-72935298D01*
X53546421Y-72929647D01*
X53562331Y-72919423D01*
X53593292Y-72914971D01*
X53595053Y-72914420D01*
X53597266Y-72914400D01*
X53642793Y-72914400D01*
X53709832Y-72934085D01*
G37*
G04 #@! TD.AperFunction*
G04 #@! TA.AperFunction,Conductor*
G36*
X52120760Y-72209022D02*
G01*
X52153975Y-72216747D01*
X52154627Y-72217417D01*
X52155535Y-72217643D01*
X52178926Y-72242421D01*
X52202670Y-72266853D01*
X52202911Y-72267828D01*
X52203498Y-72268450D01*
X52204848Y-72275648D01*
X52217000Y-72324719D01*
X52217000Y-72392746D01*
X52247761Y-72547389D01*
X52247764Y-72547401D01*
X52308102Y-72693072D01*
X52308109Y-72693084D01*
X52354934Y-72763162D01*
X52375812Y-72829839D01*
X52357328Y-72897219D01*
X52305349Y-72943910D01*
X52286053Y-72947498D01*
X51642962Y-73590590D01*
X51625925Y-73527007D01*
X51560099Y-73412993D01*
X51467007Y-73319901D01*
X51352993Y-73254075D01*
X51289409Y-73237037D01*
X51921716Y-72604728D01*
X51867547Y-72565373D01*
X51867547Y-72565372D01*
X51858500Y-72560763D01*
X51807706Y-72512788D01*
X51790912Y-72444966D01*
X51813451Y-72378832D01*
X51843376Y-72348915D01*
X51850610Y-72343817D01*
X51867816Y-72335051D01*
X52020810Y-72223895D01*
X52021578Y-72223354D01*
X52053824Y-72212373D01*
X52085922Y-72200921D01*
X52086833Y-72201133D01*
X52087718Y-72200832D01*
X52120760Y-72209022D01*
G37*
G04 #@! TD.AperFunction*
G04 #@! TA.AperFunction,Conductor*
G36*
X83015677Y-44019685D02*
G01*
X83036319Y-44036319D01*
X83963681Y-44963681D01*
X83997166Y-45025004D01*
X84000000Y-45051362D01*
X84000000Y-76948638D01*
X83980315Y-77015677D01*
X83963681Y-77036319D01*
X83036319Y-77963681D01*
X82974996Y-77997166D01*
X82948638Y-78000000D01*
X42051362Y-78000000D01*
X41984323Y-77980315D01*
X41963681Y-77963681D01*
X41036319Y-77036319D01*
X41002834Y-76974996D01*
X41000000Y-76948638D01*
X41000000Y-73878711D01*
X43149500Y-73878711D01*
X43149500Y-74121288D01*
X43175684Y-74320185D01*
X43181162Y-74361789D01*
X43193495Y-74407815D01*
X43243947Y-74596104D01*
X43284218Y-74693326D01*
X43336776Y-74820212D01*
X43458064Y-75030289D01*
X43458066Y-75030292D01*
X43458067Y-75030293D01*
X43605733Y-75222736D01*
X43605739Y-75222743D01*
X43777256Y-75394260D01*
X43777262Y-75394265D01*
X43969711Y-75541936D01*
X44179788Y-75663224D01*
X44403900Y-75756054D01*
X44638211Y-75818838D01*
X44818586Y-75842584D01*
X44878711Y-75850500D01*
X44878712Y-75850500D01*
X45121289Y-75850500D01*
X45169388Y-75844167D01*
X45361789Y-75818838D01*
X45596100Y-75756054D01*
X45820212Y-75663224D01*
X46030289Y-75541936D01*
X46222738Y-75394265D01*
X46274887Y-75342116D01*
X46345879Y-75271125D01*
X46394260Y-75222743D01*
X46394265Y-75222738D01*
X46541936Y-75030289D01*
X46663224Y-74820212D01*
X46756054Y-74596100D01*
X46818838Y-74361789D01*
X46850500Y-74121288D01*
X46850500Y-73878712D01*
X46818838Y-73638211D01*
X46756054Y-73403900D01*
X46663224Y-73179788D01*
X46541936Y-72969711D01*
X46430273Y-72824189D01*
X46394266Y-72777263D01*
X46394260Y-72777256D01*
X46222743Y-72605739D01*
X46222736Y-72605733D01*
X46030293Y-72458067D01*
X46030292Y-72458066D01*
X46030289Y-72458064D01*
X45820212Y-72336776D01*
X45820205Y-72336773D01*
X45596104Y-72243947D01*
X45361785Y-72181161D01*
X45121289Y-72149500D01*
X45121288Y-72149500D01*
X44878712Y-72149500D01*
X44878711Y-72149500D01*
X44638214Y-72181161D01*
X44403895Y-72243947D01*
X44179794Y-72336773D01*
X44179785Y-72336777D01*
X43969706Y-72458067D01*
X43777263Y-72605733D01*
X43777256Y-72605739D01*
X43605739Y-72777256D01*
X43605733Y-72777263D01*
X43458067Y-72969706D01*
X43336777Y-73179785D01*
X43336773Y-73179794D01*
X43243947Y-73403895D01*
X43181161Y-73638214D01*
X43149500Y-73878711D01*
X41000000Y-73878711D01*
X41000000Y-60913713D01*
X49809500Y-60913713D01*
X49809500Y-61126286D01*
X49839585Y-61316239D01*
X49842754Y-61336243D01*
X49901945Y-61518414D01*
X49908444Y-61538414D01*
X50004951Y-61727820D01*
X50129890Y-61899786D01*
X50280213Y-62050109D01*
X50452182Y-62175050D01*
X50460946Y-62179516D01*
X50511742Y-62227491D01*
X50528536Y-62295312D01*
X50505998Y-62361447D01*
X50460946Y-62400484D01*
X50452182Y-62404949D01*
X50280213Y-62529890D01*
X50129890Y-62680213D01*
X50004951Y-62852179D01*
X49908444Y-63041585D01*
X49842753Y-63243760D01*
X49809500Y-63453713D01*
X49809500Y-63666286D01*
X49839585Y-63856239D01*
X49842754Y-63876243D01*
X49901945Y-64058414D01*
X49908444Y-64078414D01*
X50004951Y-64267820D01*
X50129890Y-64439786D01*
X50280213Y-64590109D01*
X50452182Y-64715050D01*
X50460946Y-64719516D01*
X50511742Y-64767491D01*
X50528536Y-64835312D01*
X50505998Y-64901447D01*
X50460946Y-64940484D01*
X50452182Y-64944949D01*
X50280213Y-65069890D01*
X50129890Y-65220213D01*
X50004951Y-65392179D01*
X49908444Y-65581585D01*
X49842753Y-65783760D01*
X49809500Y-65993713D01*
X49809500Y-66206286D01*
X49839585Y-66396239D01*
X49842754Y-66416243D01*
X49901945Y-66598414D01*
X49908444Y-66618414D01*
X50004951Y-66807820D01*
X50129890Y-66979786D01*
X50280213Y-67130109D01*
X50452182Y-67255050D01*
X50460946Y-67259516D01*
X50511742Y-67307491D01*
X50528536Y-67375312D01*
X50505998Y-67441447D01*
X50460946Y-67480484D01*
X50452182Y-67484949D01*
X50280213Y-67609890D01*
X50129890Y-67760213D01*
X50004951Y-67932179D01*
X49908444Y-68121585D01*
X49842753Y-68323760D01*
X49809500Y-68533713D01*
X49809500Y-68746286D01*
X49839585Y-68936239D01*
X49842754Y-68956243D01*
X49901945Y-69138414D01*
X49908444Y-69158414D01*
X50004951Y-69347820D01*
X50129890Y-69519786D01*
X50280213Y-69670109D01*
X50452182Y-69795050D01*
X50460946Y-69799516D01*
X50511742Y-69847491D01*
X50528536Y-69915312D01*
X50505998Y-69981447D01*
X50460946Y-70020484D01*
X50452182Y-70024949D01*
X50280213Y-70149890D01*
X50129890Y-70300213D01*
X50004951Y-70472179D01*
X49908444Y-70661585D01*
X49842753Y-70863760D01*
X49809500Y-71073713D01*
X49809500Y-71286286D01*
X49839585Y-71476240D01*
X49842754Y-71496243D01*
X49902706Y-71680756D01*
X49908444Y-71698414D01*
X50004951Y-71887820D01*
X50129890Y-72059786D01*
X50280213Y-72210109D01*
X50452179Y-72335048D01*
X50452181Y-72335049D01*
X50452184Y-72335051D01*
X50461493Y-72339794D01*
X50512290Y-72387766D01*
X50529087Y-72455587D01*
X50506552Y-72521722D01*
X50461505Y-72560760D01*
X50452446Y-72565376D01*
X50452440Y-72565380D01*
X50398282Y-72604727D01*
X50398282Y-72604728D01*
X51030591Y-73237037D01*
X50967007Y-73254075D01*
X50852993Y-73319901D01*
X50759901Y-73412993D01*
X50694075Y-73527007D01*
X50677037Y-73590591D01*
X50044728Y-72958282D01*
X50044727Y-72958282D01*
X50005380Y-73012439D01*
X49908904Y-73201782D01*
X49843242Y-73403869D01*
X49843242Y-73403872D01*
X49810000Y-73613753D01*
X49810000Y-73826246D01*
X49843242Y-74036127D01*
X49843242Y-74036130D01*
X49908904Y-74238217D01*
X50005375Y-74427550D01*
X50044728Y-74481716D01*
X50677037Y-73849408D01*
X50694075Y-73912993D01*
X50759901Y-74027007D01*
X50852993Y-74120099D01*
X50967007Y-74185925D01*
X51030590Y-74202962D01*
X50360370Y-74873181D01*
X50299047Y-74906666D01*
X50272698Y-74909500D01*
X50262134Y-74909500D01*
X50262123Y-74909501D01*
X50202516Y-74915908D01*
X50067671Y-74966202D01*
X50067664Y-74966206D01*
X49952455Y-75052452D01*
X49952452Y-75052455D01*
X49866206Y-75167664D01*
X49866202Y-75167671D01*
X49815908Y-75302517D01*
X49811650Y-75342127D01*
X49809501Y-75362123D01*
X49809500Y-75362135D01*
X49809500Y-77157870D01*
X49809501Y-77157876D01*
X49815908Y-77217483D01*
X49866202Y-77352328D01*
X49866206Y-77352335D01*
X49952452Y-77467544D01*
X49952455Y-77467547D01*
X50067664Y-77553793D01*
X50067671Y-77553797D01*
X50202517Y-77604091D01*
X50202516Y-77604091D01*
X50209444Y-77604835D01*
X50262127Y-77610500D01*
X52057872Y-77610499D01*
X52117483Y-77604091D01*
X52252331Y-77553796D01*
X52367546Y-77467546D01*
X52453796Y-77352331D01*
X52504091Y-77217483D01*
X52510500Y-77157873D01*
X52510500Y-76984500D01*
X52530185Y-76917461D01*
X52582989Y-76871706D01*
X52634500Y-76860500D01*
X53485501Y-76860500D01*
X53552540Y-76880185D01*
X53598295Y-76932989D01*
X53609501Y-76984500D01*
X53609501Y-77137876D01*
X53615908Y-77197483D01*
X53666202Y-77332328D01*
X53666206Y-77332335D01*
X53752452Y-77447544D01*
X53752455Y-77447547D01*
X53867664Y-77533793D01*
X53867671Y-77533797D01*
X54002517Y-77584091D01*
X54002516Y-77584091D01*
X54009444Y-77584835D01*
X54062127Y-77590500D01*
X55857872Y-77590499D01*
X55917483Y-77584091D01*
X56052331Y-77533796D01*
X56167546Y-77447546D01*
X56253796Y-77332331D01*
X56304091Y-77197483D01*
X56310500Y-77137873D01*
X56310499Y-75342128D01*
X56304091Y-75282517D01*
X56261256Y-75167671D01*
X56253797Y-75147671D01*
X56253793Y-75147664D01*
X56167547Y-75032455D01*
X56167544Y-75032452D01*
X56052335Y-74946206D01*
X56052328Y-74946202D01*
X55917482Y-74895908D01*
X55917483Y-74895908D01*
X55857883Y-74889501D01*
X55857881Y-74889500D01*
X55857873Y-74889500D01*
X55857865Y-74889500D01*
X55847309Y-74889500D01*
X55780270Y-74869815D01*
X55759628Y-74853181D01*
X55089408Y-74182962D01*
X55152993Y-74165925D01*
X55267007Y-74100099D01*
X55360099Y-74007007D01*
X55425925Y-73892993D01*
X55442962Y-73829409D01*
X56075270Y-74461717D01*
X56075270Y-74461716D01*
X56114622Y-74407554D01*
X56211095Y-74218217D01*
X56276757Y-74016130D01*
X56276757Y-74016127D01*
X56310000Y-73806246D01*
X56310000Y-73593753D01*
X56276757Y-73383872D01*
X56276757Y-73383869D01*
X56211095Y-73181782D01*
X56166722Y-73094695D01*
X56153826Y-73026026D01*
X56180102Y-72961285D01*
X56237209Y-72921028D01*
X56277207Y-72914400D01*
X68513803Y-72914400D01*
X68580842Y-72934085D01*
X68601484Y-72950719D01*
X68866241Y-73215476D01*
X68899726Y-73276799D01*
X68896492Y-73341473D01*
X68882753Y-73383757D01*
X68849500Y-73593713D01*
X68849500Y-73806286D01*
X68882735Y-74016127D01*
X68882754Y-74016243D01*
X68937887Y-74185925D01*
X68948444Y-74218414D01*
X69044951Y-74407820D01*
X69169890Y-74579786D01*
X69283430Y-74693326D01*
X69316915Y-74754649D01*
X69311931Y-74824341D01*
X69270059Y-74880274D01*
X69239083Y-74897189D01*
X69107669Y-74946203D01*
X69107664Y-74946206D01*
X68992455Y-75032452D01*
X68992452Y-75032455D01*
X68906206Y-75147664D01*
X68906202Y-75147671D01*
X68855908Y-75282517D01*
X68849501Y-75342116D01*
X68849501Y-75342123D01*
X68849500Y-75342135D01*
X68849500Y-77137870D01*
X68849501Y-77137876D01*
X68855908Y-77197483D01*
X68906202Y-77332328D01*
X68906206Y-77332335D01*
X68992452Y-77447544D01*
X68992455Y-77447547D01*
X69107664Y-77533793D01*
X69107671Y-77533797D01*
X69242517Y-77584091D01*
X69242516Y-77584091D01*
X69249444Y-77584835D01*
X69302127Y-77590500D01*
X71097872Y-77590499D01*
X71157483Y-77584091D01*
X71292331Y-77533796D01*
X71407546Y-77447546D01*
X71493796Y-77332331D01*
X71544091Y-77197483D01*
X71550500Y-77137873D01*
X71550500Y-76964500D01*
X71570185Y-76897461D01*
X71622989Y-76851706D01*
X71674500Y-76840500D01*
X72525501Y-76840500D01*
X72592540Y-76860185D01*
X72638295Y-76912989D01*
X72649501Y-76964500D01*
X72649501Y-77137876D01*
X72655908Y-77197483D01*
X72706202Y-77332328D01*
X72706206Y-77332335D01*
X72792452Y-77447544D01*
X72792455Y-77447547D01*
X72907664Y-77533793D01*
X72907671Y-77533797D01*
X73042517Y-77584091D01*
X73042516Y-77584091D01*
X73049444Y-77584835D01*
X73102127Y-77590500D01*
X74897872Y-77590499D01*
X74957483Y-77584091D01*
X75092331Y-77533796D01*
X75207546Y-77447546D01*
X75293796Y-77332331D01*
X75344091Y-77197483D01*
X75350500Y-77137873D01*
X75350499Y-75342128D01*
X75344091Y-75282517D01*
X75301256Y-75167671D01*
X75293797Y-75147671D01*
X75293793Y-75147664D01*
X75207547Y-75032455D01*
X75207544Y-75032452D01*
X75092335Y-74946206D01*
X75092328Y-74946202D01*
X74960917Y-74897189D01*
X74904983Y-74855318D01*
X74880566Y-74789853D01*
X74895418Y-74721580D01*
X74916563Y-74693332D01*
X75030104Y-74579792D01*
X75155051Y-74407816D01*
X75251557Y-74218412D01*
X75317246Y-74016243D01*
X75339029Y-73878711D01*
X78149500Y-73878711D01*
X78149500Y-74121288D01*
X78175684Y-74320185D01*
X78181162Y-74361789D01*
X78193495Y-74407815D01*
X78243947Y-74596104D01*
X78284218Y-74693326D01*
X78336776Y-74820212D01*
X78458064Y-75030289D01*
X78458066Y-75030292D01*
X78458067Y-75030293D01*
X78605733Y-75222736D01*
X78605739Y-75222743D01*
X78777256Y-75394260D01*
X78777262Y-75394265D01*
X78969711Y-75541936D01*
X79179788Y-75663224D01*
X79403900Y-75756054D01*
X79638211Y-75818838D01*
X79818586Y-75842584D01*
X79878711Y-75850500D01*
X79878712Y-75850500D01*
X80121289Y-75850500D01*
X80169388Y-75844167D01*
X80361789Y-75818838D01*
X80596100Y-75756054D01*
X80820212Y-75663224D01*
X81030289Y-75541936D01*
X81222738Y-75394265D01*
X81394265Y-75222738D01*
X81541936Y-75030289D01*
X81663224Y-74820212D01*
X81756054Y-74596100D01*
X81818838Y-74361789D01*
X81850500Y-74121288D01*
X81850500Y-73878712D01*
X81818838Y-73638211D01*
X81756054Y-73403900D01*
X81663224Y-73179788D01*
X81541936Y-72969711D01*
X81430273Y-72824189D01*
X81394266Y-72777263D01*
X81394260Y-72777256D01*
X81222743Y-72605739D01*
X81222736Y-72605733D01*
X81030293Y-72458067D01*
X81030292Y-72458066D01*
X81030289Y-72458064D01*
X80820212Y-72336776D01*
X80820205Y-72336773D01*
X80596104Y-72243947D01*
X80361785Y-72181161D01*
X80121289Y-72149500D01*
X80121288Y-72149500D01*
X79878712Y-72149500D01*
X79878711Y-72149500D01*
X79638214Y-72181161D01*
X79403895Y-72243947D01*
X79179794Y-72336773D01*
X79179785Y-72336777D01*
X78969706Y-72458067D01*
X78777263Y-72605733D01*
X78777256Y-72605739D01*
X78605739Y-72777256D01*
X78605733Y-72777263D01*
X78458067Y-72969706D01*
X78336777Y-73179785D01*
X78336773Y-73179794D01*
X78243947Y-73403895D01*
X78181161Y-73638214D01*
X78149500Y-73878711D01*
X75339029Y-73878711D01*
X75350500Y-73806287D01*
X75350500Y-73593713D01*
X75317246Y-73383757D01*
X75251557Y-73181588D01*
X75155051Y-72992184D01*
X75155049Y-72992181D01*
X75155048Y-72992179D01*
X75030109Y-72820213D01*
X74879786Y-72669890D01*
X74707820Y-72544951D01*
X74707115Y-72544591D01*
X74699054Y-72540485D01*
X74648259Y-72492512D01*
X74631463Y-72424692D01*
X74653999Y-72358556D01*
X74699054Y-72319515D01*
X74707816Y-72315051D01*
X74771957Y-72268450D01*
X74879786Y-72190109D01*
X74879788Y-72190106D01*
X74879792Y-72190104D01*
X75030104Y-72039792D01*
X75030106Y-72039788D01*
X75030109Y-72039786D01*
X75155048Y-71867820D01*
X75155047Y-71867820D01*
X75155051Y-71867816D01*
X75251557Y-71678412D01*
X75317246Y-71476243D01*
X75350500Y-71266287D01*
X75350500Y-71053713D01*
X75317246Y-70843757D01*
X75251557Y-70641588D01*
X75155051Y-70452184D01*
X75155049Y-70452181D01*
X75155048Y-70452179D01*
X75030109Y-70280213D01*
X74879786Y-70129890D01*
X74707820Y-70004951D01*
X74707115Y-70004591D01*
X74699054Y-70000485D01*
X74648259Y-69952512D01*
X74631463Y-69884692D01*
X74653999Y-69818556D01*
X74699054Y-69779515D01*
X74707816Y-69775051D01*
X74729789Y-69759086D01*
X74879786Y-69650109D01*
X74879788Y-69650106D01*
X74879792Y-69650104D01*
X75030104Y-69499792D01*
X75030106Y-69499788D01*
X75030109Y-69499786D01*
X75155048Y-69327820D01*
X75155050Y-69327817D01*
X75155051Y-69327816D01*
X75251557Y-69138412D01*
X75317246Y-68936243D01*
X75350500Y-68726287D01*
X75350500Y-68513713D01*
X75317246Y-68303757D01*
X75251557Y-68101588D01*
X75155051Y-67912184D01*
X75155049Y-67912181D01*
X75155048Y-67912179D01*
X75030109Y-67740213D01*
X74879786Y-67589890D01*
X74707820Y-67464951D01*
X74707115Y-67464591D01*
X74699054Y-67460485D01*
X74648259Y-67412512D01*
X74631463Y-67344692D01*
X74653999Y-67278556D01*
X74699054Y-67239515D01*
X74707816Y-67235051D01*
X74729789Y-67219086D01*
X74879786Y-67110109D01*
X74879788Y-67110106D01*
X74879792Y-67110104D01*
X75030104Y-66959792D01*
X75030106Y-66959788D01*
X75030109Y-66959786D01*
X75155048Y-66787820D01*
X75155047Y-66787820D01*
X75155051Y-66787816D01*
X75251557Y-66598412D01*
X75317246Y-66396243D01*
X75350500Y-66186287D01*
X75350500Y-65973713D01*
X75317246Y-65763757D01*
X75251557Y-65561588D01*
X75155051Y-65372184D01*
X75155049Y-65372181D01*
X75155048Y-65372179D01*
X75030109Y-65200213D01*
X74879786Y-65049890D01*
X74707820Y-64924951D01*
X74707115Y-64924591D01*
X74699054Y-64920485D01*
X74648259Y-64872512D01*
X74631463Y-64804692D01*
X74653999Y-64738556D01*
X74699054Y-64699515D01*
X74707816Y-64695051D01*
X74729789Y-64679086D01*
X74879786Y-64570109D01*
X74879788Y-64570106D01*
X74879792Y-64570104D01*
X75030104Y-64419792D01*
X75030106Y-64419788D01*
X75030109Y-64419786D01*
X75155048Y-64247820D01*
X75155047Y-64247820D01*
X75155051Y-64247816D01*
X75251557Y-64058412D01*
X75317246Y-63856243D01*
X75350500Y-63646287D01*
X75350500Y-63433713D01*
X75317246Y-63223757D01*
X75251557Y-63021588D01*
X75155051Y-62832184D01*
X75155049Y-62832181D01*
X75155048Y-62832179D01*
X75030109Y-62660213D01*
X74879786Y-62509890D01*
X74707820Y-62384951D01*
X74707115Y-62384591D01*
X74699054Y-62380485D01*
X74648259Y-62332512D01*
X74631463Y-62264692D01*
X74653999Y-62198556D01*
X74699054Y-62159515D01*
X74707816Y-62155051D01*
X74729789Y-62139086D01*
X74879786Y-62030109D01*
X74879788Y-62030106D01*
X74879792Y-62030104D01*
X75030104Y-61879792D01*
X75030106Y-61879788D01*
X75030109Y-61879786D01*
X75155048Y-61707820D01*
X75155047Y-61707820D01*
X75155051Y-61707816D01*
X75251557Y-61518412D01*
X75317246Y-61316243D01*
X75350500Y-61106287D01*
X75350500Y-60893713D01*
X75317246Y-60683757D01*
X75251557Y-60481588D01*
X75155051Y-60292184D01*
X75155049Y-60292181D01*
X75155048Y-60292179D01*
X75030109Y-60120213D01*
X74879786Y-59969890D01*
X74707820Y-59844951D01*
X74518414Y-59748444D01*
X74518413Y-59748443D01*
X74518412Y-59748443D01*
X74316243Y-59682754D01*
X74316241Y-59682753D01*
X74316240Y-59682753D01*
X74154957Y-59657208D01*
X74106287Y-59649500D01*
X73893713Y-59649500D01*
X73845042Y-59657208D01*
X73683760Y-59682753D01*
X73481585Y-59748444D01*
X73292179Y-59844951D01*
X73120213Y-59969890D01*
X72969890Y-60120213D01*
X72844948Y-60292184D01*
X72844947Y-60292185D01*
X72824765Y-60331795D01*
X72776791Y-60382591D01*
X72714281Y-60399500D01*
X71485719Y-60399500D01*
X71418680Y-60379815D01*
X71375235Y-60331795D01*
X71355052Y-60292185D01*
X71355051Y-60292184D01*
X71230109Y-60120213D01*
X71079786Y-59969890D01*
X70907820Y-59844951D01*
X70718414Y-59748444D01*
X70718413Y-59748443D01*
X70718412Y-59748443D01*
X70516243Y-59682754D01*
X70516241Y-59682753D01*
X70516240Y-59682753D01*
X70354957Y-59657208D01*
X70306287Y-59649500D01*
X70093713Y-59649500D01*
X70045042Y-59657208D01*
X69883760Y-59682753D01*
X69681585Y-59748444D01*
X69492179Y-59844951D01*
X69320213Y-59969890D01*
X69169890Y-60120213D01*
X69044951Y-60292179D01*
X68948444Y-60481585D01*
X68882753Y-60683760D01*
X68849500Y-60893713D01*
X68849500Y-61106287D01*
X68882754Y-61316243D01*
X68889252Y-61336243D01*
X68948444Y-61518414D01*
X69044951Y-61707820D01*
X69169890Y-61879786D01*
X69320213Y-62030109D01*
X69492182Y-62155050D01*
X69500946Y-62159516D01*
X69551742Y-62207491D01*
X69568536Y-62275312D01*
X69545998Y-62341447D01*
X69500946Y-62380484D01*
X69492182Y-62384949D01*
X69320213Y-62509890D01*
X69169890Y-62660213D01*
X69044951Y-62832179D01*
X68948444Y-63021585D01*
X68882753Y-63223760D01*
X68849500Y-63433713D01*
X68849500Y-63646287D01*
X68882754Y-63856243D01*
X68889252Y-63876243D01*
X68948444Y-64058414D01*
X69044951Y-64247820D01*
X69169890Y-64419786D01*
X69320213Y-64570109D01*
X69492182Y-64695050D01*
X69500946Y-64699516D01*
X69551742Y-64747491D01*
X69568536Y-64815312D01*
X69545998Y-64881447D01*
X69500946Y-64920484D01*
X69492182Y-64924949D01*
X69320213Y-65049890D01*
X69169890Y-65200213D01*
X69044951Y-65372179D01*
X68948444Y-65561585D01*
X68882753Y-65763760D01*
X68849500Y-65973713D01*
X68849500Y-66186287D01*
X68882754Y-66396243D01*
X68889252Y-66416243D01*
X68948444Y-66598414D01*
X69044951Y-66787820D01*
X69169890Y-66959786D01*
X69320213Y-67110109D01*
X69492182Y-67235050D01*
X69500946Y-67239516D01*
X69551742Y-67287491D01*
X69568536Y-67355312D01*
X69545998Y-67421447D01*
X69500946Y-67460484D01*
X69492182Y-67464949D01*
X69320213Y-67589890D01*
X69169890Y-67740213D01*
X69044951Y-67912179D01*
X68948444Y-68101585D01*
X68882753Y-68303760D01*
X68849500Y-68513713D01*
X68849500Y-68726287D01*
X68882754Y-68936243D01*
X68889252Y-68956243D01*
X68948444Y-69138414D01*
X69044951Y-69327820D01*
X69169890Y-69499786D01*
X69320213Y-69650109D01*
X69492182Y-69775050D01*
X69500946Y-69779516D01*
X69551742Y-69827491D01*
X69568536Y-69895312D01*
X69545998Y-69961447D01*
X69500946Y-70000484D01*
X69492182Y-70004949D01*
X69320213Y-70129890D01*
X69169890Y-70280213D01*
X69044951Y-70452179D01*
X68948444Y-70641585D01*
X68882753Y-70843760D01*
X68849500Y-71053713D01*
X68849500Y-71266286D01*
X68882753Y-71476240D01*
X68882754Y-71476244D01*
X68907070Y-71551082D01*
X68907873Y-71579198D01*
X68911877Y-71607044D01*
X68908857Y-71613656D01*
X68909065Y-71620923D01*
X68894536Y-71645014D01*
X68882853Y-71670600D01*
X68876738Y-71674529D01*
X68872984Y-71680756D01*
X68847739Y-71693167D01*
X68824076Y-71708376D01*
X68813801Y-71709853D01*
X68810283Y-71711583D01*
X68789141Y-71713399D01*
X68734843Y-71713399D01*
X68734839Y-71713399D01*
X68727233Y-71713400D01*
X68727232Y-71713399D01*
X68727231Y-71713400D01*
X56370860Y-71713400D01*
X56303821Y-71693715D01*
X56258066Y-71640911D01*
X56248122Y-71571753D01*
X56252929Y-71551082D01*
X56277246Y-71476243D01*
X56310500Y-71266287D01*
X56310500Y-71053713D01*
X56277246Y-70843757D01*
X56211557Y-70641588D01*
X56115051Y-70452184D01*
X56115049Y-70452181D01*
X56115048Y-70452179D01*
X55990109Y-70280213D01*
X55839786Y-70129890D01*
X55667820Y-70004951D01*
X55667115Y-70004591D01*
X55659054Y-70000485D01*
X55608259Y-69952512D01*
X55591463Y-69884692D01*
X55613999Y-69818556D01*
X55659054Y-69779515D01*
X55667816Y-69775051D01*
X55689789Y-69759086D01*
X55839786Y-69650109D01*
X55839788Y-69650106D01*
X55839792Y-69650104D01*
X55990104Y-69499792D01*
X55990106Y-69499788D01*
X55990109Y-69499786D01*
X56115048Y-69327820D01*
X56115050Y-69327817D01*
X56115051Y-69327816D01*
X56211557Y-69138412D01*
X56277246Y-68936243D01*
X56310500Y-68726287D01*
X56310500Y-68513713D01*
X56277246Y-68303757D01*
X56211557Y-68101588D01*
X56115051Y-67912184D01*
X56115049Y-67912181D01*
X56115048Y-67912179D01*
X55990109Y-67740213D01*
X55839786Y-67589890D01*
X55667820Y-67464951D01*
X55667115Y-67464591D01*
X55659054Y-67460485D01*
X55608259Y-67412512D01*
X55591463Y-67344692D01*
X55613999Y-67278556D01*
X55659054Y-67239515D01*
X55667816Y-67235051D01*
X55689789Y-67219086D01*
X55839786Y-67110109D01*
X55839788Y-67110106D01*
X55839792Y-67110104D01*
X55990104Y-66959792D01*
X55990106Y-66959788D01*
X55990109Y-66959786D01*
X56115048Y-66787820D01*
X56115047Y-66787820D01*
X56115051Y-66787816D01*
X56211557Y-66598412D01*
X56277246Y-66396243D01*
X56310500Y-66186287D01*
X56310500Y-65973713D01*
X56277246Y-65763757D01*
X56211557Y-65561588D01*
X56115051Y-65372184D01*
X56115049Y-65372181D01*
X56115048Y-65372179D01*
X55990109Y-65200213D01*
X55839786Y-65049890D01*
X55667820Y-64924951D01*
X55667115Y-64924591D01*
X55659054Y-64920485D01*
X55608259Y-64872512D01*
X55591463Y-64804692D01*
X55613999Y-64738556D01*
X55659054Y-64699515D01*
X55667816Y-64695051D01*
X55689789Y-64679086D01*
X55839786Y-64570109D01*
X55839788Y-64570106D01*
X55839792Y-64570104D01*
X55990104Y-64419792D01*
X55990106Y-64419788D01*
X55990109Y-64419786D01*
X56115048Y-64247820D01*
X56115047Y-64247820D01*
X56115051Y-64247816D01*
X56211557Y-64058412D01*
X56277246Y-63856243D01*
X56310500Y-63646287D01*
X56310500Y-63433713D01*
X56277246Y-63223757D01*
X56211557Y-63021588D01*
X56115051Y-62832184D01*
X56115049Y-62832181D01*
X56115048Y-62832179D01*
X55990109Y-62660213D01*
X55839786Y-62509890D01*
X55667820Y-62384951D01*
X55667115Y-62384591D01*
X55659054Y-62380485D01*
X55608259Y-62332512D01*
X55591463Y-62264692D01*
X55613999Y-62198556D01*
X55659054Y-62159515D01*
X55667816Y-62155051D01*
X55689789Y-62139086D01*
X55839786Y-62030109D01*
X55839788Y-62030106D01*
X55839792Y-62030104D01*
X55990104Y-61879792D01*
X55990106Y-61879788D01*
X55990109Y-61879786D01*
X56115048Y-61707820D01*
X56115047Y-61707820D01*
X56115051Y-61707816D01*
X56211557Y-61518412D01*
X56277246Y-61316243D01*
X56310500Y-61106287D01*
X56310500Y-60893713D01*
X56277246Y-60683757D01*
X56211557Y-60481588D01*
X56115051Y-60292184D01*
X56115049Y-60292181D01*
X56115048Y-60292179D01*
X55990109Y-60120213D01*
X55839786Y-59969890D01*
X55667820Y-59844951D01*
X55478414Y-59748444D01*
X55478413Y-59748443D01*
X55478412Y-59748443D01*
X55276243Y-59682754D01*
X55276241Y-59682753D01*
X55276240Y-59682753D01*
X55114957Y-59657208D01*
X55066287Y-59649500D01*
X54853713Y-59649500D01*
X54805042Y-59657208D01*
X54643760Y-59682753D01*
X54441585Y-59748444D01*
X54252179Y-59844951D01*
X54080213Y-59969890D01*
X53929890Y-60120213D01*
X53804948Y-60292184D01*
X53804947Y-60292185D01*
X53784765Y-60331795D01*
X53736791Y-60382591D01*
X53674281Y-60399500D01*
X52435528Y-60399500D01*
X52368489Y-60379815D01*
X52325043Y-60331794D01*
X52315050Y-60312182D01*
X52190109Y-60140213D01*
X52039786Y-59989890D01*
X51867820Y-59864951D01*
X51678414Y-59768444D01*
X51678413Y-59768443D01*
X51678412Y-59768443D01*
X51476243Y-59702754D01*
X51476241Y-59702753D01*
X51476240Y-59702753D01*
X51314957Y-59677208D01*
X51266287Y-59669500D01*
X51053713Y-59669500D01*
X51005042Y-59677208D01*
X50843760Y-59702753D01*
X50641585Y-59768444D01*
X50452179Y-59864951D01*
X50280213Y-59989890D01*
X50129890Y-60140213D01*
X50004951Y-60312179D01*
X49908444Y-60501585D01*
X49842753Y-60703760D01*
X49809500Y-60913713D01*
X41000000Y-60913713D01*
X41000000Y-54813713D01*
X50749500Y-54813713D01*
X50749500Y-55276287D01*
X50759029Y-55336448D01*
X50779529Y-55465886D01*
X50782754Y-55486243D01*
X50817093Y-55591928D01*
X50848444Y-55688414D01*
X50944951Y-55877820D01*
X51069890Y-56049786D01*
X51220213Y-56200109D01*
X51392179Y-56325048D01*
X51392181Y-56325049D01*
X51392184Y-56325051D01*
X51581588Y-56421557D01*
X51783757Y-56487246D01*
X51993713Y-56520500D01*
X51993714Y-56520500D01*
X52206286Y-56520500D01*
X52206287Y-56520500D01*
X52416243Y-56487246D01*
X52618412Y-56421557D01*
X52807816Y-56325051D01*
X52829789Y-56309086D01*
X52979786Y-56200109D01*
X52979788Y-56200106D01*
X52979792Y-56200104D01*
X53130104Y-56049792D01*
X53249683Y-55885204D01*
X53305011Y-55842540D01*
X53374624Y-55836561D01*
X53436420Y-55869166D01*
X53450313Y-55885199D01*
X53515920Y-55975500D01*
X53569896Y-56049792D01*
X53720213Y-56200109D01*
X53892179Y-56325048D01*
X53892181Y-56325049D01*
X53892184Y-56325051D01*
X54081588Y-56421557D01*
X54283757Y-56487246D01*
X54493713Y-56520500D01*
X54493714Y-56520500D01*
X54706286Y-56520500D01*
X54706287Y-56520500D01*
X54916243Y-56487246D01*
X55118412Y-56421557D01*
X55307816Y-56325051D01*
X55329789Y-56309086D01*
X55479786Y-56200109D01*
X55479788Y-56200106D01*
X55479792Y-56200104D01*
X55630104Y-56049792D01*
X55749991Y-55884779D01*
X55805320Y-55842115D01*
X55874933Y-55836136D01*
X55936729Y-55868741D01*
X55950627Y-55884781D01*
X56070272Y-56049459D01*
X56070276Y-56049464D01*
X56220535Y-56199723D01*
X56220540Y-56199727D01*
X56392442Y-56324620D01*
X56581782Y-56421095D01*
X56783871Y-56486757D01*
X56850000Y-56497231D01*
X56850000Y-55449145D01*
X56916657Y-55487630D01*
X57037465Y-55520000D01*
X57162535Y-55520000D01*
X57283343Y-55487630D01*
X57350000Y-55449145D01*
X57350000Y-56497230D01*
X57416126Y-56486757D01*
X57416129Y-56486757D01*
X57618217Y-56421095D01*
X57807557Y-56324620D01*
X57979458Y-56199728D01*
X58118330Y-56060856D01*
X58179653Y-56027371D01*
X58249345Y-56032355D01*
X58305279Y-56074226D01*
X58311551Y-56083440D01*
X58315185Y-56089331D01*
X58315186Y-56089334D01*
X58407288Y-56238656D01*
X58531344Y-56362712D01*
X58680666Y-56454814D01*
X58847203Y-56509999D01*
X58949991Y-56520500D01*
X60250008Y-56520499D01*
X60352797Y-56509999D01*
X60519334Y-56454814D01*
X60668656Y-56362712D01*
X60792712Y-56238656D01*
X60884814Y-56089334D01*
X60939999Y-55922797D01*
X60950500Y-55820009D01*
X60950499Y-54269992D01*
X60947271Y-54238389D01*
X64399500Y-54238389D01*
X64399500Y-54961611D01*
X64426598Y-55132701D01*
X64480127Y-55297445D01*
X64558768Y-55451788D01*
X64660586Y-55591928D01*
X64783072Y-55714414D01*
X64923212Y-55816232D01*
X65077555Y-55894873D01*
X65242299Y-55948402D01*
X65413389Y-55975500D01*
X65413390Y-55975500D01*
X65586610Y-55975500D01*
X65586611Y-55975500D01*
X65757701Y-55948402D01*
X65922445Y-55894873D01*
X66076788Y-55816232D01*
X66216928Y-55714414D01*
X66339414Y-55591928D01*
X66399991Y-55508550D01*
X66455321Y-55465885D01*
X66524934Y-55459906D01*
X66586729Y-55492512D01*
X66600628Y-55508551D01*
X66660967Y-55591602D01*
X66783397Y-55714032D01*
X66923475Y-55815804D01*
X67077744Y-55894408D01*
X67242415Y-55947914D01*
X67242414Y-55947914D01*
X67249999Y-55949115D01*
X67250000Y-55949114D01*
X67250000Y-54880330D01*
X67269745Y-54900075D01*
X67355255Y-54949444D01*
X67450630Y-54975000D01*
X67549370Y-54975000D01*
X67644745Y-54949444D01*
X67730255Y-54900075D01*
X67750000Y-54880330D01*
X67750000Y-55949115D01*
X67757584Y-55947914D01*
X67922255Y-55894408D01*
X68076524Y-55815804D01*
X68216602Y-55714032D01*
X68339036Y-55591598D01*
X68399371Y-55508552D01*
X68454700Y-55465886D01*
X68524313Y-55459905D01*
X68586109Y-55492510D01*
X68600008Y-55508550D01*
X68600318Y-55508976D01*
X68660586Y-55591928D01*
X68783072Y-55714414D01*
X68923212Y-55816232D01*
X69077555Y-55894873D01*
X69242299Y-55948402D01*
X69413389Y-55975500D01*
X69413390Y-55975500D01*
X69586610Y-55975500D01*
X69586611Y-55975500D01*
X69757701Y-55948402D01*
X69922445Y-55894873D01*
X70076788Y-55816232D01*
X70216928Y-55714414D01*
X70339414Y-55591928D01*
X70399682Y-55508975D01*
X70455012Y-55466311D01*
X70524626Y-55460332D01*
X70586421Y-55492938D01*
X70600315Y-55508973D01*
X70660586Y-55591928D01*
X70783072Y-55714414D01*
X70923212Y-55816232D01*
X71077555Y-55894873D01*
X71242299Y-55948402D01*
X71413389Y-55975500D01*
X71413390Y-55975500D01*
X71586610Y-55975500D01*
X71586611Y-55975500D01*
X71757701Y-55948402D01*
X71922445Y-55894873D01*
X72076788Y-55816232D01*
X72216928Y-55714414D01*
X72324472Y-55606869D01*
X72385791Y-55573387D01*
X72455483Y-55578371D01*
X72511417Y-55620242D01*
X72517688Y-55629456D01*
X72557285Y-55693652D01*
X72557288Y-55693656D01*
X72681344Y-55817712D01*
X72830666Y-55909814D01*
X72997203Y-55964999D01*
X73099991Y-55975500D01*
X73900008Y-55975499D01*
X73900016Y-55975498D01*
X73900019Y-55975498D01*
X73956302Y-55969748D01*
X74002797Y-55964999D01*
X74169334Y-55909814D01*
X74318656Y-55817712D01*
X74442712Y-55693656D01*
X74534814Y-55544334D01*
X74589999Y-55377797D01*
X74600500Y-55275009D01*
X74600499Y-53924992D01*
X74589999Y-53822203D01*
X74534814Y-53655666D01*
X74442712Y-53506344D01*
X74318656Y-53382288D01*
X74193559Y-53305128D01*
X74169336Y-53290187D01*
X74169331Y-53290185D01*
X74167862Y-53289698D01*
X74002797Y-53235001D01*
X74002795Y-53235000D01*
X73900010Y-53224500D01*
X73099998Y-53224500D01*
X73099980Y-53224501D01*
X72997203Y-53235000D01*
X72997200Y-53235001D01*
X72830668Y-53290185D01*
X72830663Y-53290187D01*
X72681342Y-53382289D01*
X72557287Y-53506344D01*
X72517688Y-53570544D01*
X72465739Y-53617268D01*
X72396777Y-53628489D01*
X72332695Y-53600645D01*
X72324469Y-53593127D01*
X72216930Y-53485588D01*
X72216928Y-53485586D01*
X72076788Y-53383768D01*
X71922445Y-53305127D01*
X71757701Y-53251598D01*
X71757699Y-53251597D01*
X71757698Y-53251597D01*
X71626271Y-53230781D01*
X71586611Y-53224500D01*
X71413389Y-53224500D01*
X71373728Y-53230781D01*
X71242302Y-53251597D01*
X71077552Y-53305128D01*
X70923211Y-53383768D01*
X70843256Y-53441859D01*
X70783072Y-53485586D01*
X70783070Y-53485588D01*
X70783069Y-53485588D01*
X70660588Y-53608069D01*
X70660581Y-53608078D01*
X70600317Y-53691023D01*
X70544987Y-53733689D01*
X70475374Y-53739667D01*
X70413579Y-53707061D01*
X70399683Y-53691023D01*
X70339653Y-53608401D01*
X70339414Y-53608072D01*
X70216928Y-53485586D01*
X70076788Y-53383768D01*
X69922445Y-53305127D01*
X69757701Y-53251598D01*
X69757699Y-53251597D01*
X69757698Y-53251597D01*
X69626271Y-53230781D01*
X69586611Y-53224500D01*
X69413389Y-53224500D01*
X69373728Y-53230781D01*
X69242302Y-53251597D01*
X69077552Y-53305128D01*
X68923211Y-53383768D01*
X68843256Y-53441859D01*
X68783072Y-53485586D01*
X68783070Y-53485588D01*
X68783069Y-53485588D01*
X68660585Y-53608072D01*
X68600007Y-53691450D01*
X68544677Y-53734115D01*
X68475063Y-53740093D01*
X68413269Y-53707486D01*
X68399371Y-53691447D01*
X68339036Y-53608401D01*
X68216602Y-53485967D01*
X68076524Y-53384195D01*
X67922257Y-53305591D01*
X67757589Y-53252087D01*
X67757581Y-53252085D01*
X67750000Y-53250884D01*
X67750000Y-54319670D01*
X67730255Y-54299925D01*
X67644745Y-54250556D01*
X67549370Y-54225000D01*
X67450630Y-54225000D01*
X67355255Y-54250556D01*
X67269745Y-54299925D01*
X67250000Y-54319670D01*
X67250000Y-53250884D01*
X67249999Y-53250884D01*
X67242418Y-53252085D01*
X67242410Y-53252087D01*
X67077742Y-53305591D01*
X66923475Y-53384195D01*
X66783397Y-53485967D01*
X66660965Y-53608399D01*
X66660961Y-53608404D01*
X66600627Y-53691448D01*
X66545297Y-53734114D01*
X66475684Y-53740093D01*
X66413889Y-53707488D01*
X66399991Y-53691449D01*
X66399990Y-53691447D01*
X66339414Y-53608072D01*
X66216928Y-53485586D01*
X66076788Y-53383768D01*
X65922445Y-53305127D01*
X65757701Y-53251598D01*
X65757699Y-53251597D01*
X65757698Y-53251597D01*
X65626271Y-53230781D01*
X65586611Y-53224500D01*
X65413389Y-53224500D01*
X65373728Y-53230781D01*
X65242302Y-53251597D01*
X65077552Y-53305128D01*
X64923211Y-53383768D01*
X64843256Y-53441859D01*
X64783072Y-53485586D01*
X64783070Y-53485588D01*
X64783069Y-53485588D01*
X64660588Y-53608069D01*
X64660588Y-53608070D01*
X64660586Y-53608072D01*
X64640886Y-53635187D01*
X64558768Y-53748211D01*
X64480128Y-53902552D01*
X64426597Y-54067302D01*
X64410775Y-54167200D01*
X64399500Y-54238389D01*
X60947271Y-54238389D01*
X60939999Y-54167203D01*
X60884814Y-54000666D01*
X60792712Y-53851344D01*
X60668656Y-53727288D01*
X60519334Y-53635186D01*
X60352797Y-53580001D01*
X60352795Y-53580000D01*
X60250010Y-53569500D01*
X58949998Y-53569500D01*
X58949981Y-53569501D01*
X58847203Y-53580000D01*
X58847200Y-53580001D01*
X58680668Y-53635185D01*
X58680663Y-53635187D01*
X58531342Y-53727289D01*
X58407289Y-53851342D01*
X58311551Y-54006559D01*
X58259603Y-54053283D01*
X58190640Y-54064506D01*
X58126558Y-54036662D01*
X58118331Y-54029143D01*
X57979464Y-53890276D01*
X57979459Y-53890272D01*
X57807557Y-53765379D01*
X57618215Y-53668903D01*
X57416124Y-53603241D01*
X57350000Y-53592768D01*
X57350000Y-54640854D01*
X57283343Y-54602370D01*
X57162535Y-54570000D01*
X57037465Y-54570000D01*
X56916657Y-54602370D01*
X56850000Y-54640854D01*
X56850000Y-53592768D01*
X56849999Y-53592768D01*
X56783875Y-53603241D01*
X56581784Y-53668903D01*
X56392442Y-53765379D01*
X56220540Y-53890272D01*
X56220535Y-53890276D01*
X56070276Y-54040535D01*
X56070272Y-54040540D01*
X55950627Y-54205218D01*
X55895297Y-54247884D01*
X55825684Y-54253863D01*
X55763889Y-54221257D01*
X55749991Y-54205218D01*
X55630109Y-54040214D01*
X55630105Y-54040209D01*
X55479786Y-53889890D01*
X55307820Y-53764951D01*
X55118414Y-53668444D01*
X55118413Y-53668443D01*
X55118412Y-53668443D01*
X54916243Y-53602754D01*
X54916241Y-53602753D01*
X54916240Y-53602753D01*
X54754957Y-53577208D01*
X54706287Y-53569500D01*
X54493713Y-53569500D01*
X54445042Y-53577208D01*
X54283760Y-53602753D01*
X54081585Y-53668444D01*
X53892179Y-53764951D01*
X53720213Y-53889890D01*
X53569894Y-54040209D01*
X53569890Y-54040214D01*
X53450318Y-54204793D01*
X53394989Y-54247459D01*
X53325375Y-54253438D01*
X53263580Y-54220833D01*
X53249682Y-54204793D01*
X53130109Y-54040214D01*
X53130105Y-54040209D01*
X52979786Y-53889890D01*
X52807820Y-53764951D01*
X52618414Y-53668444D01*
X52618413Y-53668443D01*
X52618412Y-53668443D01*
X52416243Y-53602754D01*
X52416241Y-53602753D01*
X52416240Y-53602753D01*
X52254957Y-53577208D01*
X52206287Y-53569500D01*
X51993713Y-53569500D01*
X51945042Y-53577208D01*
X51783760Y-53602753D01*
X51581585Y-53668444D01*
X51392179Y-53764951D01*
X51220213Y-53889890D01*
X51069890Y-54040213D01*
X50944951Y-54212179D01*
X50848444Y-54401585D01*
X50782753Y-54603760D01*
X50759062Y-54753343D01*
X50749500Y-54813713D01*
X41000000Y-54813713D01*
X41000000Y-47878711D01*
X43149500Y-47878711D01*
X43149500Y-48121288D01*
X43181161Y-48361785D01*
X43243947Y-48596104D01*
X43336773Y-48820205D01*
X43336776Y-48820212D01*
X43458064Y-49030289D01*
X43458066Y-49030292D01*
X43458067Y-49030293D01*
X43605733Y-49222736D01*
X43605739Y-49222743D01*
X43777256Y-49394260D01*
X43777262Y-49394265D01*
X43969711Y-49541936D01*
X44179788Y-49663224D01*
X44403900Y-49756054D01*
X44638211Y-49818838D01*
X44818586Y-49842584D01*
X44878711Y-49850500D01*
X44878712Y-49850500D01*
X45121289Y-49850500D01*
X45169388Y-49844167D01*
X45361789Y-49818838D01*
X45596100Y-49756054D01*
X45820212Y-49663224D01*
X46030289Y-49541936D01*
X46222738Y-49394265D01*
X46394265Y-49222738D01*
X46541936Y-49030289D01*
X46663224Y-48820212D01*
X46756054Y-48596100D01*
X46818838Y-48361789D01*
X46850500Y-48121288D01*
X46850500Y-47878712D01*
X46850500Y-47878711D01*
X78149500Y-47878711D01*
X78149500Y-48121288D01*
X78181161Y-48361785D01*
X78243947Y-48596104D01*
X78336773Y-48820205D01*
X78336776Y-48820212D01*
X78458064Y-49030289D01*
X78458066Y-49030292D01*
X78458067Y-49030293D01*
X78605733Y-49222736D01*
X78605739Y-49222743D01*
X78777256Y-49394260D01*
X78777262Y-49394265D01*
X78969711Y-49541936D01*
X79179788Y-49663224D01*
X79403900Y-49756054D01*
X79638211Y-49818838D01*
X79818586Y-49842584D01*
X79878711Y-49850500D01*
X79878712Y-49850500D01*
X80121289Y-49850500D01*
X80169388Y-49844167D01*
X80361789Y-49818838D01*
X80596100Y-49756054D01*
X80820212Y-49663224D01*
X81030289Y-49541936D01*
X81222738Y-49394265D01*
X81394265Y-49222738D01*
X81541936Y-49030289D01*
X81663224Y-48820212D01*
X81756054Y-48596100D01*
X81818838Y-48361789D01*
X81850500Y-48121288D01*
X81850500Y-47878712D01*
X81818838Y-47638211D01*
X81756054Y-47403900D01*
X81663224Y-47179788D01*
X81541936Y-46969711D01*
X81394265Y-46777262D01*
X81394260Y-46777256D01*
X81222743Y-46605739D01*
X81222736Y-46605733D01*
X81030293Y-46458067D01*
X81030292Y-46458066D01*
X81030289Y-46458064D01*
X80820212Y-46336776D01*
X80820205Y-46336773D01*
X80596104Y-46243947D01*
X80361785Y-46181161D01*
X80121289Y-46149500D01*
X80121288Y-46149500D01*
X79878712Y-46149500D01*
X79878711Y-46149500D01*
X79638214Y-46181161D01*
X79403895Y-46243947D01*
X79179794Y-46336773D01*
X79179785Y-46336777D01*
X78969706Y-46458067D01*
X78777263Y-46605733D01*
X78777256Y-46605739D01*
X78605739Y-46777256D01*
X78605733Y-46777263D01*
X78458067Y-46969706D01*
X78336777Y-47179785D01*
X78336773Y-47179794D01*
X78243947Y-47403895D01*
X78181161Y-47638214D01*
X78149500Y-47878711D01*
X46850500Y-47878711D01*
X46818838Y-47638211D01*
X46756054Y-47403900D01*
X46663224Y-47179788D01*
X46541936Y-46969711D01*
X46394265Y-46777262D01*
X46394260Y-46777256D01*
X46222743Y-46605739D01*
X46222736Y-46605733D01*
X46030293Y-46458067D01*
X46030292Y-46458066D01*
X46030289Y-46458064D01*
X45820212Y-46336776D01*
X45820205Y-46336773D01*
X45596104Y-46243947D01*
X45361785Y-46181161D01*
X45121289Y-46149500D01*
X45121288Y-46149500D01*
X44878712Y-46149500D01*
X44878711Y-46149500D01*
X44638214Y-46181161D01*
X44403895Y-46243947D01*
X44179794Y-46336773D01*
X44179785Y-46336777D01*
X43969706Y-46458067D01*
X43777263Y-46605733D01*
X43777256Y-46605739D01*
X43605739Y-46777256D01*
X43605733Y-46777263D01*
X43458067Y-46969706D01*
X43336777Y-47179785D01*
X43336773Y-47179794D01*
X43243947Y-47403895D01*
X43181161Y-47638214D01*
X43149500Y-47878711D01*
X41000000Y-47878711D01*
X41000000Y-45051362D01*
X41019685Y-44984323D01*
X41036319Y-44963681D01*
X41963681Y-44036319D01*
X42025004Y-44002834D01*
X42051362Y-44000000D01*
X82948638Y-44000000D01*
X83015677Y-44019685D01*
G37*
G04 #@! TD.AperFunction*
M02*
