M48
; DRILL file {KiCad 9.0.7} date 2026-03-24T19:31:54+0900
; FORMAT={-:-/ absolute / metric / decimal}
; #@! TF.CreationDate,2026-03-24T19:31:54+09:00
; #@! TF.GenerationSoftware,Kicad,Pcbnew,9.0.7
; #@! TF.FileFunction,Plated,1,2,PTH
FMAT,2
METRIC
; #@! TA.AperFunction,Plated,PTH,ViaDrill
T1C0.300
; #@! TA.AperFunction,Plated,PTH,ComponentDrill
T2C0.750
; #@! TA.AperFunction,Plated,PTH,ComponentDrill
T3C0.950
; #@! TA.AperFunction,Plated,PTH,ComponentDrill
T4C1.000
%
G90
G05
T1
X53.017Y-72.314
T2
X65.5Y-54.6
X67.5Y-54.6
X69.5Y-54.6
X71.5Y-54.6
X73.5Y-54.6
T3
X52.1Y-55.045
X54.6Y-55.045
X57.1Y-55.045
X59.6Y-55.045
T4
X51.16Y-61.02
X51.16Y-63.56
X51.16Y-66.1
X51.16Y-68.64
X51.16Y-71.18
X51.16Y-73.72
X51.16Y-76.26
X54.96Y-61.0
X54.96Y-63.54
X54.96Y-66.08
X54.96Y-68.62
X54.96Y-71.16
X54.96Y-73.7
X54.96Y-76.24
X70.2Y-61.0
X70.2Y-63.54
X70.2Y-66.08
X70.2Y-68.62
X70.2Y-71.16
X70.2Y-73.7
X70.2Y-76.24
X74.0Y-61.0
X74.0Y-63.54
X74.0Y-66.08
X74.0Y-68.62
X74.0Y-71.16
X74.0Y-73.7
X74.0Y-76.24
M30
