G04 #@! TF.GenerationSoftware,KiCad,Pcbnew,9.0.7*
G04 #@! TF.CreationDate,2026-03-24T19:31:47+09:00*
G04 #@! TF.ProjectId,XIAO ESP32-S3,5849414f-2045-4535-9033-322d53332e6b,rev?*
G04 #@! TF.SameCoordinates,Original*
G04 #@! TF.FileFunction,Soldermask,Top*
G04 #@! TF.FilePolarity,Negative*
%FSLAX46Y46*%
G04 Gerber Fmt 4.6, Leading zero omitted, Abs format (unit mm)*
G04 Created by KiCad (PCBNEW 9.0.7) date 2026-03-24 19:31:47*
%MOMM*%
%LPD*%
G01*
G04 APERTURE LIST*
G04 Aperture macros list*
%AMRoundRect*
0 Rectangle with rounded corners*
0 $1 Rounding radius*
0 $2 $3 $4 $5 $6 $7 $8 $9 X,Y pos of 4 corners*
0 Add a 4 corners polygon primitive as box body*
4,1,4,$2,$3,$4,$5,$6,$7,$8,$9,$2,$3,0*
0 Add four circle primitives for the rounded corners*
1,1,$1+$1,$2,$3*
1,1,$1+$1,$4,$5*
1,1,$1+$1,$6,$7*
1,1,$1+$1,$8,$9*
0 Add four rect primitives between the rounded corners*
20,1,$1+$1,$2,$3,$4,$5,0*
20,1,$1+$1,$4,$5,$6,$7,0*
20,1,$1+$1,$6,$7,$8,$9,0*
20,1,$1+$1,$8,$9,$2,$3,0*%
G04 Aperture macros list end*
%ADD10C,3.200000*%
%ADD11R,1.700000X1.700000*%
%ADD12C,1.700000*%
%ADD13RoundRect,0.250000X0.600000X0.725000X-0.600000X0.725000X-0.600000X-0.725000X0.600000X-0.725000X0*%
%ADD14O,1.700000X1.950000*%
%ADD15RoundRect,0.250000X0.350000X0.625000X-0.350000X0.625000X-0.350000X-0.625000X0.350000X-0.625000X0*%
%ADD16O,1.200000X1.750000*%
G04 APERTURE END LIST*
D10*
X80000000Y-48000000D03*
D11*
X51160000Y-76260000D03*
D12*
X51160000Y-73720000D03*
X51160000Y-71180000D03*
X51160000Y-68640000D03*
X51160000Y-66100000D03*
X51160000Y-63560000D03*
X51160000Y-61020000D03*
D11*
X70200000Y-76240000D03*
D12*
X70200000Y-73700000D03*
X70200000Y-71160000D03*
X70200000Y-68620000D03*
X70200000Y-66080000D03*
X70200000Y-63540000D03*
X70200000Y-61000000D03*
D10*
X45000000Y-74000000D03*
D13*
X59600000Y-55045000D03*
D14*
X57100000Y-55045000D03*
X54600000Y-55045000D03*
X52100000Y-55045000D03*
D11*
X74000000Y-76240000D03*
D12*
X74000000Y-73700000D03*
X74000000Y-71160000D03*
X74000000Y-68620000D03*
X74000000Y-66080000D03*
X74000000Y-63540000D03*
X74000000Y-61000000D03*
D15*
X73500000Y-54600000D03*
D16*
X71500000Y-54600000D03*
X69500000Y-54600000D03*
X67500000Y-54600000D03*
X65500000Y-54600000D03*
D10*
X45000000Y-48000000D03*
D11*
X54960000Y-76240000D03*
D12*
X54960000Y-73700000D03*
X54960000Y-71160000D03*
X54960000Y-68620000D03*
X54960000Y-66080000D03*
X54960000Y-63540000D03*
X54960000Y-61000000D03*
D10*
X80000000Y-74000000D03*
M02*
