G04 #@! TF.GenerationSoftware,KiCad,Pcbnew,9.0.7*
G04 #@! TF.CreationDate,2026-03-24T19:31:46+09:00*
G04 #@! TF.ProjectId,XIAO ESP32-S3,5849414f-2045-4535-9033-322d53332e6b,rev?*
G04 #@! TF.SameCoordinates,Original*
G04 #@! TF.FileFunction,Legend,Top*
G04 #@! TF.FilePolarity,Positive*
%FSLAX46Y46*%
G04 Gerber Fmt 4.6, Leading zero omitted, Abs format (unit mm)*
G04 Created by KiCad (PCBNEW 9.0.7) date 2026-03-24 19:31:46*
%MOMM*%
%LPD*%
G01*
G04 APERTURE LIST*
%ADD10C,0.200000*%
%ADD11C,0.300000*%
%ADD12C,0.150000*%
%ADD13C,0.120000*%
G04 APERTURE END LIST*
D10*
G36*
X68672342Y-56897024D02*
G01*
X68697011Y-56921692D01*
X68726816Y-56981302D01*
X68726816Y-57076945D01*
X68697011Y-57136554D01*
X68672342Y-57161222D01*
X68612733Y-57191028D01*
X68355388Y-57191028D01*
X68355388Y-56867219D01*
X68612733Y-56867219D01*
X68672342Y-56897024D01*
G37*
G36*
X75132381Y-57978330D02*
G01*
X66234753Y-57978330D01*
X66234753Y-57195790D01*
X66345864Y-57195790D01*
X66345864Y-57338647D01*
X66346199Y-57342049D01*
X66345982Y-57343508D01*
X66347061Y-57350805D01*
X66347785Y-57358156D01*
X66348349Y-57359519D01*
X66348850Y-57362901D01*
X66396469Y-57553376D01*
X66396982Y-57554813D01*
X66397034Y-57555536D01*
X66400142Y-57563660D01*
X66403064Y-57571837D01*
X66403494Y-57572417D01*
X66404040Y-57573844D01*
X66451659Y-57669082D01*
X66456941Y-57677474D01*
X66457954Y-57679918D01*
X66460210Y-57682667D01*
X66462102Y-57685672D01*
X66464096Y-57687401D01*
X66470391Y-57695071D01*
X66565629Y-57790311D01*
X66580782Y-57802747D01*
X66584101Y-57804122D01*
X66586817Y-57806477D01*
X66604717Y-57814468D01*
X66747574Y-57862087D01*
X66757246Y-57864286D01*
X66759688Y-57865298D01*
X66763225Y-57865646D01*
X66766689Y-57866434D01*
X66769323Y-57866246D01*
X66779197Y-57867219D01*
X66874435Y-57867219D01*
X66884308Y-57866246D01*
X66886942Y-57866434D01*
X66890405Y-57865646D01*
X66893944Y-57865298D01*
X66896386Y-57864286D01*
X66906058Y-57862087D01*
X67048914Y-57814468D01*
X67066815Y-57806477D01*
X67069530Y-57804122D01*
X67072850Y-57802747D01*
X67088003Y-57790310D01*
X67135622Y-57742690D01*
X67148059Y-57727537D01*
X67161506Y-57695071D01*
X67162990Y-57691489D01*
X67164911Y-57671980D01*
X67164911Y-57338647D01*
X67162990Y-57319138D01*
X67148058Y-57283090D01*
X67120468Y-57255500D01*
X67084420Y-57240568D01*
X67064911Y-57238647D01*
X66874435Y-57238647D01*
X66854926Y-57240568D01*
X66818878Y-57255500D01*
X66791288Y-57283090D01*
X66776356Y-57319138D01*
X66776356Y-57358156D01*
X66791288Y-57394204D01*
X66818878Y-57421794D01*
X66854926Y-57436726D01*
X66874435Y-57438647D01*
X66964911Y-57438647D01*
X66964911Y-57630559D01*
X66963272Y-57632197D01*
X66858208Y-57667219D01*
X66795423Y-57667219D01*
X66690358Y-57632197D01*
X66623288Y-57565127D01*
X66587834Y-57494218D01*
X66545864Y-57326337D01*
X66545864Y-57208100D01*
X66587834Y-57040218D01*
X66623287Y-56969312D01*
X66690359Y-56902240D01*
X66795423Y-56867219D01*
X66898447Y-56867219D01*
X66972570Y-56904281D01*
X66990879Y-56911287D01*
X67029799Y-56914053D01*
X67066815Y-56901714D01*
X67096292Y-56876149D01*
X67113741Y-56841251D01*
X67116506Y-56802331D01*
X67104803Y-56767219D01*
X68155388Y-56767219D01*
X68155388Y-57767219D01*
X68157309Y-57786728D01*
X68172241Y-57822776D01*
X68199831Y-57850366D01*
X68235879Y-57865298D01*
X68274897Y-57865298D01*
X68310945Y-57850366D01*
X68338535Y-57822776D01*
X68353467Y-57786728D01*
X68355388Y-57767219D01*
X68355388Y-57391028D01*
X68441418Y-57391028D01*
X68744893Y-57824565D01*
X68757654Y-57839446D01*
X68790559Y-57860415D01*
X68828984Y-57867196D01*
X68867078Y-57858756D01*
X68899043Y-57836381D01*
X68920012Y-57803476D01*
X68926793Y-57765052D01*
X68918353Y-57726957D01*
X68908739Y-57709873D01*
X68678771Y-57381347D01*
X68681061Y-57380471D01*
X68776299Y-57332852D01*
X68784695Y-57327566D01*
X68787135Y-57326556D01*
X68789881Y-57324302D01*
X68792889Y-57322409D01*
X68794618Y-57320414D01*
X68802289Y-57314120D01*
X68849907Y-57266501D01*
X68856199Y-57258834D01*
X68858197Y-57257102D01*
X68860090Y-57254093D01*
X68862344Y-57251348D01*
X68863354Y-57248907D01*
X68868640Y-57240511D01*
X68916259Y-57145274D01*
X68923265Y-57126965D01*
X68923519Y-57123381D01*
X68924895Y-57120061D01*
X68926816Y-57100552D01*
X68926816Y-56957695D01*
X68924895Y-56938186D01*
X68923519Y-56934865D01*
X68923265Y-56931282D01*
X68916259Y-56912973D01*
X68868640Y-56817736D01*
X68863354Y-56809339D01*
X68862344Y-56806899D01*
X68860090Y-56804153D01*
X68858197Y-56801145D01*
X68856199Y-56799412D01*
X68849907Y-56791746D01*
X68825276Y-56767114D01*
X69060150Y-56767114D01*
X69067722Y-56805391D01*
X69076945Y-56822689D01*
X69373298Y-57267219D01*
X69076945Y-57711749D01*
X69067722Y-57729047D01*
X69060150Y-57767324D01*
X69067802Y-57805584D01*
X69089513Y-57838004D01*
X69121978Y-57859647D01*
X69160255Y-57867219D01*
X69198515Y-57859567D01*
X69230935Y-57837856D01*
X69243355Y-57822689D01*
X69493483Y-57447496D01*
X69743611Y-57822689D01*
X69756031Y-57837856D01*
X69788451Y-57859567D01*
X69826711Y-57867219D01*
X69864988Y-57859647D01*
X69897453Y-57838004D01*
X69919164Y-57805584D01*
X69926816Y-57767324D01*
X69919244Y-57729047D01*
X69910021Y-57711749D01*
X69613667Y-57267219D01*
X69910021Y-56822689D01*
X69919244Y-56805391D01*
X69926816Y-56767114D01*
X69922935Y-56747710D01*
X70728738Y-56747710D01*
X70728738Y-56786728D01*
X70743670Y-56822776D01*
X70771260Y-56850366D01*
X70807308Y-56865298D01*
X70826817Y-56867219D01*
X71012531Y-56867219D01*
X71012531Y-57767219D01*
X71014452Y-57786728D01*
X71029384Y-57822776D01*
X71056974Y-57850366D01*
X71093022Y-57865298D01*
X71132040Y-57865298D01*
X71168088Y-57850366D01*
X71195678Y-57822776D01*
X71210610Y-57786728D01*
X71212531Y-57767219D01*
X71212531Y-56867219D01*
X71398245Y-56867219D01*
X71417754Y-56865298D01*
X71453802Y-56850366D01*
X71481392Y-56822776D01*
X71496324Y-56786728D01*
X71496324Y-56767114D01*
X71536341Y-56767114D01*
X71543913Y-56805391D01*
X71553136Y-56822689D01*
X71849489Y-57267219D01*
X71553136Y-57711749D01*
X71543913Y-57729047D01*
X71536341Y-57767324D01*
X71543993Y-57805584D01*
X71565704Y-57838004D01*
X71598169Y-57859647D01*
X71636446Y-57867219D01*
X71674706Y-57859567D01*
X71707126Y-57837856D01*
X71719546Y-57822689D01*
X71969674Y-57447496D01*
X72219802Y-57822689D01*
X72232222Y-57837856D01*
X72264642Y-57859567D01*
X72302902Y-57867219D01*
X72341179Y-57859647D01*
X72373644Y-57838004D01*
X72395355Y-57805584D01*
X72403007Y-57767324D01*
X72395435Y-57729047D01*
X72386212Y-57711749D01*
X72089858Y-57267219D01*
X72099296Y-57253062D01*
X73298713Y-57253062D01*
X73300167Y-57257880D01*
X73300167Y-57262918D01*
X73305763Y-57276427D01*
X73309984Y-57290417D01*
X73313171Y-57294313D01*
X73315099Y-57298966D01*
X73325435Y-57309302D01*
X73334691Y-57320615D01*
X73339128Y-57322995D01*
X73342689Y-57326556D01*
X73356194Y-57332150D01*
X73369075Y-57339060D01*
X73374084Y-57339560D01*
X73378737Y-57341488D01*
X73393358Y-57341488D01*
X73407899Y-57342942D01*
X73412718Y-57341488D01*
X73417755Y-57341488D01*
X73431264Y-57335891D01*
X73445254Y-57331671D01*
X73449150Y-57328483D01*
X73453803Y-57326556D01*
X73468957Y-57314120D01*
X73505100Y-57277975D01*
X73564710Y-57248171D01*
X73755591Y-57248171D01*
X73815200Y-57277976D01*
X73839869Y-57302644D01*
X73869674Y-57362254D01*
X73869674Y-57553135D01*
X73839869Y-57612743D01*
X73815200Y-57637413D01*
X73755591Y-57667219D01*
X73564710Y-57667219D01*
X73505100Y-57637414D01*
X73468957Y-57601270D01*
X73453804Y-57588833D01*
X73417756Y-57573902D01*
X73378738Y-57573901D01*
X73342689Y-57588832D01*
X73315099Y-57616422D01*
X73300168Y-57652470D01*
X73300167Y-57691488D01*
X73315098Y-57727537D01*
X73327535Y-57742690D01*
X73375153Y-57790310D01*
X73382821Y-57796603D01*
X73384553Y-57798600D01*
X73387561Y-57800493D01*
X73390307Y-57802747D01*
X73392747Y-57803757D01*
X73401144Y-57809043D01*
X73496381Y-57856662D01*
X73514690Y-57863668D01*
X73518273Y-57863922D01*
X73521594Y-57865298D01*
X73541103Y-57867219D01*
X73779198Y-57867219D01*
X73798707Y-57865298D01*
X73802027Y-57863922D01*
X73805611Y-57863668D01*
X73823919Y-57856662D01*
X73919157Y-57809043D01*
X73927552Y-57803758D01*
X73929994Y-57802747D01*
X73932741Y-57800491D01*
X73935747Y-57798600D01*
X73937477Y-57796605D01*
X73945147Y-57790310D01*
X73992766Y-57742690D01*
X73999058Y-57735023D01*
X74001055Y-57733292D01*
X74002948Y-57730284D01*
X74005203Y-57727537D01*
X74006214Y-57725095D01*
X74011498Y-57716701D01*
X74059117Y-57621464D01*
X74066123Y-57603155D01*
X74066377Y-57599571D01*
X74067753Y-57596251D01*
X74069674Y-57576742D01*
X74069674Y-57338647D01*
X74067753Y-57319138D01*
X74066377Y-57315817D01*
X74066123Y-57312234D01*
X74059117Y-57293925D01*
X74011498Y-57198688D01*
X74006212Y-57190291D01*
X74005202Y-57187851D01*
X74002948Y-57185105D01*
X74001055Y-57182097D01*
X73999057Y-57180364D01*
X73992765Y-57172698D01*
X73945147Y-57125079D01*
X73937476Y-57118784D01*
X73935747Y-57116790D01*
X73932739Y-57114896D01*
X73929993Y-57112643D01*
X73927553Y-57111632D01*
X73919157Y-57106347D01*
X73823919Y-57058728D01*
X73805611Y-57051722D01*
X73802027Y-57051467D01*
X73798707Y-57050092D01*
X73779198Y-57048171D01*
X73541103Y-57048171D01*
X73521594Y-57050092D01*
X73518273Y-57051467D01*
X73517936Y-57051491D01*
X73536364Y-56867219D01*
X73922055Y-56867219D01*
X73941564Y-56865298D01*
X73977612Y-56850366D01*
X74005202Y-56822776D01*
X74020134Y-56786728D01*
X74020134Y-56779726D01*
X74156174Y-56779726D01*
X74160521Y-56798842D01*
X74493854Y-57798841D01*
X74501845Y-57816742D01*
X74506528Y-57822141D01*
X74509723Y-57828531D01*
X74519194Y-57836746D01*
X74527410Y-57846218D01*
X74533798Y-57849412D01*
X74539199Y-57854096D01*
X74551100Y-57858063D01*
X74562309Y-57863667D01*
X74569433Y-57864173D01*
X74576215Y-57866434D01*
X74588724Y-57865544D01*
X74601229Y-57866434D01*
X74608007Y-57864174D01*
X74615135Y-57863668D01*
X74626351Y-57858059D01*
X74638245Y-57854095D01*
X74643642Y-57849414D01*
X74650034Y-57846218D01*
X74658252Y-57836742D01*
X74667721Y-57828530D01*
X74670914Y-57822143D01*
X74675599Y-57816742D01*
X74683590Y-57798842D01*
X75016923Y-56798842D01*
X75021270Y-56779727D01*
X75018504Y-56740807D01*
X75001054Y-56705908D01*
X74971578Y-56680343D01*
X74934562Y-56668004D01*
X74895642Y-56670771D01*
X74860743Y-56688220D01*
X74835178Y-56717696D01*
X74827187Y-56735597D01*
X74588722Y-57450991D01*
X74350257Y-56735596D01*
X74342266Y-56717696D01*
X74316701Y-56688220D01*
X74281802Y-56670770D01*
X74242882Y-56668004D01*
X74205866Y-56680342D01*
X74176390Y-56705907D01*
X74158940Y-56740806D01*
X74156174Y-56779726D01*
X74020134Y-56779726D01*
X74020134Y-56747710D01*
X74005202Y-56711662D01*
X73977612Y-56684072D01*
X73941564Y-56669140D01*
X73922055Y-56667219D01*
X73445865Y-56667219D01*
X73438648Y-56667929D01*
X73436212Y-56667686D01*
X73433833Y-56668403D01*
X73426356Y-56669140D01*
X73412846Y-56674736D01*
X73398857Y-56678957D01*
X73394960Y-56682144D01*
X73390308Y-56684072D01*
X73379971Y-56694408D01*
X73368659Y-56703664D01*
X73366278Y-56708101D01*
X73362718Y-56711662D01*
X73357123Y-56725167D01*
X73350214Y-56738048D01*
X73348737Y-56745412D01*
X73347786Y-56747710D01*
X73347786Y-56750160D01*
X73346361Y-56757269D01*
X73298742Y-57233459D01*
X73298713Y-57253062D01*
X72099296Y-57253062D01*
X72386212Y-56822689D01*
X72395435Y-56805391D01*
X72403007Y-56767114D01*
X72395355Y-56728854D01*
X72373644Y-56696434D01*
X72341179Y-56674791D01*
X72302902Y-56667219D01*
X72264642Y-56674871D01*
X72232222Y-56696582D01*
X72219802Y-56711749D01*
X71969674Y-57086941D01*
X71719546Y-56711749D01*
X71707126Y-56696582D01*
X71674706Y-56674871D01*
X71636446Y-56667219D01*
X71598169Y-56674791D01*
X71565704Y-56696434D01*
X71543993Y-56728854D01*
X71536341Y-56767114D01*
X71496324Y-56767114D01*
X71496324Y-56747710D01*
X71481392Y-56711662D01*
X71453802Y-56684072D01*
X71417754Y-56669140D01*
X71398245Y-56667219D01*
X70826817Y-56667219D01*
X70807308Y-56669140D01*
X70771260Y-56684072D01*
X70743670Y-56711662D01*
X70728738Y-56747710D01*
X69922935Y-56747710D01*
X69919164Y-56728854D01*
X69897453Y-56696434D01*
X69864988Y-56674791D01*
X69826711Y-56667219D01*
X69788451Y-56674871D01*
X69756031Y-56696582D01*
X69743611Y-56711749D01*
X69493483Y-57086941D01*
X69243355Y-56711749D01*
X69230935Y-56696582D01*
X69198515Y-56674871D01*
X69160255Y-56667219D01*
X69121978Y-56674791D01*
X69089513Y-56696434D01*
X69067802Y-56728854D01*
X69060150Y-56767114D01*
X68825276Y-56767114D01*
X68802289Y-56744127D01*
X68794618Y-56737832D01*
X68792889Y-56735838D01*
X68789881Y-56733944D01*
X68787135Y-56731691D01*
X68784695Y-56730680D01*
X68776299Y-56725395D01*
X68681061Y-56677776D01*
X68662753Y-56670770D01*
X68659169Y-56670515D01*
X68655849Y-56669140D01*
X68636340Y-56667219D01*
X68255388Y-56667219D01*
X68235879Y-56669140D01*
X68199831Y-56684072D01*
X68172241Y-56711662D01*
X68157309Y-56747710D01*
X68155388Y-56767219D01*
X67104803Y-56767219D01*
X67104168Y-56765315D01*
X67078603Y-56735838D01*
X67062013Y-56725395D01*
X66966775Y-56677776D01*
X66948467Y-56670770D01*
X66944883Y-56670515D01*
X66941563Y-56669140D01*
X66922054Y-56667219D01*
X66779197Y-56667219D01*
X66769323Y-56668191D01*
X66766689Y-56668004D01*
X66763225Y-56668791D01*
X66759688Y-56669140D01*
X66757246Y-56670151D01*
X66747574Y-56672351D01*
X66604717Y-56719970D01*
X66586817Y-56727961D01*
X66584101Y-56730316D01*
X66580783Y-56731691D01*
X66565629Y-56744127D01*
X66470391Y-56839365D01*
X66464096Y-56847035D01*
X66462102Y-56848765D01*
X66460208Y-56851772D01*
X66457955Y-56854519D01*
X66456944Y-56856958D01*
X66451659Y-56865355D01*
X66404040Y-56960593D01*
X66403494Y-56962019D01*
X66403064Y-56962600D01*
X66400142Y-56970776D01*
X66397034Y-56978901D01*
X66396982Y-56979623D01*
X66396469Y-56981061D01*
X66348850Y-57171536D01*
X66348349Y-57174917D01*
X66347785Y-57176281D01*
X66347061Y-57183631D01*
X66345982Y-57190929D01*
X66346199Y-57192387D01*
X66345864Y-57195790D01*
X66234753Y-57195790D01*
X66234753Y-56556108D01*
X75132381Y-56556108D01*
X75132381Y-57978330D01*
G37*
G36*
X52791844Y-57978430D02*
G01*
X52811296Y-57997882D01*
X52841101Y-58057492D01*
X52841101Y-58153135D01*
X52811296Y-58212743D01*
X52786627Y-58237413D01*
X52727018Y-58267219D01*
X52469673Y-58267219D01*
X52469673Y-57943409D01*
X52686779Y-57943409D01*
X52791844Y-57978430D01*
G37*
G36*
X52739008Y-57497024D02*
G01*
X52763677Y-57521692D01*
X52793482Y-57581302D01*
X52793482Y-57629326D01*
X52763677Y-57688935D01*
X52739008Y-57713603D01*
X52679399Y-57743409D01*
X52469673Y-57743409D01*
X52469673Y-57467219D01*
X52679399Y-57467219D01*
X52739008Y-57497024D01*
G37*
G36*
X54421407Y-57981504D02*
G01*
X54222702Y-57981504D01*
X54322054Y-57683446D01*
X54421407Y-57981504D01*
G37*
G36*
X59199047Y-58578330D02*
G01*
X52158562Y-58578330D01*
X52158562Y-57367219D01*
X52269673Y-57367219D01*
X52269673Y-58367219D01*
X52271594Y-58386728D01*
X52286526Y-58422776D01*
X52314116Y-58450366D01*
X52350164Y-58465298D01*
X52369673Y-58467219D01*
X52750625Y-58467219D01*
X52770134Y-58465298D01*
X52773454Y-58463922D01*
X52777038Y-58463668D01*
X52795346Y-58456662D01*
X52890584Y-58409043D01*
X52898979Y-58403758D01*
X52901421Y-58402747D01*
X52904168Y-58400491D01*
X52907174Y-58398600D01*
X52908904Y-58396605D01*
X52916574Y-58390310D01*
X52952171Y-58354712D01*
X53889506Y-58354712D01*
X53892272Y-58393632D01*
X53909722Y-58428531D01*
X53939198Y-58454096D01*
X53976214Y-58466434D01*
X54015134Y-58463668D01*
X54050033Y-58446218D01*
X54075598Y-58416742D01*
X54083589Y-58398842D01*
X54156035Y-58181504D01*
X54488073Y-58181504D01*
X54560519Y-58398841D01*
X54568510Y-58416742D01*
X54594075Y-58446218D01*
X54628974Y-58463667D01*
X54667894Y-58466434D01*
X54704910Y-58454095D01*
X54734386Y-58428530D01*
X54751836Y-58393631D01*
X54754602Y-58354711D01*
X54750255Y-58335596D01*
X54570320Y-57795790D01*
X55603007Y-57795790D01*
X55603007Y-57938647D01*
X55603342Y-57942049D01*
X55603125Y-57943508D01*
X55604204Y-57950805D01*
X55604928Y-57958156D01*
X55605492Y-57959519D01*
X55605993Y-57962901D01*
X55653612Y-58153376D01*
X55654125Y-58154813D01*
X55654177Y-58155536D01*
X55657285Y-58163660D01*
X55660207Y-58171837D01*
X55660637Y-58172417D01*
X55661183Y-58173844D01*
X55708802Y-58269082D01*
X55714084Y-58277474D01*
X55715097Y-58279918D01*
X55717353Y-58282667D01*
X55719245Y-58285672D01*
X55721239Y-58287401D01*
X55727534Y-58295071D01*
X55822772Y-58390311D01*
X55837925Y-58402747D01*
X55841244Y-58404122D01*
X55843960Y-58406477D01*
X55861860Y-58414468D01*
X56004717Y-58462087D01*
X56014389Y-58464286D01*
X56016831Y-58465298D01*
X56020368Y-58465646D01*
X56023832Y-58466434D01*
X56026466Y-58466246D01*
X56036340Y-58467219D01*
X56131578Y-58467219D01*
X56141451Y-58466246D01*
X56144085Y-58466434D01*
X56147548Y-58465646D01*
X56151087Y-58465298D01*
X56153529Y-58464286D01*
X56163201Y-58462087D01*
X56306057Y-58414468D01*
X56323958Y-58406477D01*
X56326673Y-58404122D01*
X56329993Y-58402747D01*
X56345146Y-58390310D01*
X56392765Y-58342690D01*
X56405202Y-58327537D01*
X56418649Y-58295071D01*
X56420133Y-58291489D01*
X56422054Y-58271980D01*
X56422054Y-57938647D01*
X56420133Y-57919138D01*
X56405201Y-57883090D01*
X56377611Y-57855500D01*
X56371725Y-57853062D01*
X57365379Y-57853062D01*
X57366833Y-57857880D01*
X57366833Y-57862918D01*
X57372429Y-57876427D01*
X57376650Y-57890417D01*
X57379837Y-57894313D01*
X57381765Y-57898966D01*
X57392101Y-57909302D01*
X57401357Y-57920615D01*
X57405794Y-57922995D01*
X57409355Y-57926556D01*
X57422860Y-57932150D01*
X57435741Y-57939060D01*
X57440750Y-57939560D01*
X57445403Y-57941488D01*
X57460024Y-57941488D01*
X57474565Y-57942942D01*
X57479384Y-57941488D01*
X57484421Y-57941488D01*
X57497930Y-57935891D01*
X57511920Y-57931671D01*
X57515816Y-57928483D01*
X57520469Y-57926556D01*
X57535623Y-57914120D01*
X57571766Y-57877975D01*
X57631376Y-57848171D01*
X57822257Y-57848171D01*
X57881866Y-57877976D01*
X57906535Y-57902644D01*
X57936340Y-57962254D01*
X57936340Y-58153135D01*
X57906535Y-58212743D01*
X57881866Y-58237413D01*
X57822257Y-58267219D01*
X57631376Y-58267219D01*
X57571766Y-58237414D01*
X57535623Y-58201270D01*
X57520470Y-58188833D01*
X57484422Y-58173902D01*
X57445404Y-58173901D01*
X57409355Y-58188832D01*
X57381765Y-58216422D01*
X57366834Y-58252470D01*
X57366833Y-58291488D01*
X57381764Y-58327537D01*
X57394201Y-58342690D01*
X57441819Y-58390310D01*
X57449487Y-58396603D01*
X57451219Y-58398600D01*
X57454227Y-58400493D01*
X57456973Y-58402747D01*
X57459413Y-58403757D01*
X57467810Y-58409043D01*
X57563047Y-58456662D01*
X57581356Y-58463668D01*
X57584939Y-58463922D01*
X57588260Y-58465298D01*
X57607769Y-58467219D01*
X57845864Y-58467219D01*
X57865373Y-58465298D01*
X57868693Y-58463922D01*
X57872277Y-58463668D01*
X57890585Y-58456662D01*
X57985823Y-58409043D01*
X57994218Y-58403758D01*
X57996660Y-58402747D01*
X57999407Y-58400491D01*
X58002413Y-58398600D01*
X58004143Y-58396605D01*
X58011813Y-58390310D01*
X58059432Y-58342690D01*
X58065724Y-58335023D01*
X58067721Y-58333292D01*
X58069614Y-58330284D01*
X58071869Y-58327537D01*
X58072880Y-58325095D01*
X58078164Y-58316701D01*
X58125783Y-58221464D01*
X58132789Y-58203155D01*
X58133043Y-58199571D01*
X58134419Y-58196251D01*
X58136340Y-58176742D01*
X58136340Y-57938647D01*
X58134419Y-57919138D01*
X58133043Y-57915817D01*
X58132789Y-57912234D01*
X58125783Y-57893925D01*
X58078164Y-57798688D01*
X58072878Y-57790291D01*
X58071868Y-57787851D01*
X58069614Y-57785105D01*
X58067721Y-57782097D01*
X58065723Y-57780364D01*
X58059431Y-57772698D01*
X58011813Y-57725079D01*
X58004142Y-57718784D01*
X58002413Y-57716790D01*
X57999405Y-57714896D01*
X57996659Y-57712643D01*
X57994219Y-57711632D01*
X57985823Y-57706347D01*
X57890585Y-57658728D01*
X57872277Y-57651722D01*
X57868693Y-57651467D01*
X57865373Y-57650092D01*
X57845864Y-57648171D01*
X57607769Y-57648171D01*
X57588260Y-57650092D01*
X57584939Y-57651467D01*
X57584602Y-57651491D01*
X57603030Y-57467219D01*
X57988721Y-57467219D01*
X58008230Y-57465298D01*
X58044278Y-57450366D01*
X58071868Y-57422776D01*
X58086800Y-57386728D01*
X58086800Y-57379726D01*
X58222840Y-57379726D01*
X58227187Y-57398842D01*
X58560520Y-58398841D01*
X58568511Y-58416742D01*
X58573194Y-58422141D01*
X58576389Y-58428531D01*
X58585860Y-58436746D01*
X58594076Y-58446218D01*
X58600464Y-58449412D01*
X58605865Y-58454096D01*
X58617766Y-58458063D01*
X58628975Y-58463667D01*
X58636099Y-58464173D01*
X58642881Y-58466434D01*
X58655390Y-58465544D01*
X58667895Y-58466434D01*
X58674673Y-58464174D01*
X58681801Y-58463668D01*
X58693017Y-58458059D01*
X58704911Y-58454095D01*
X58710308Y-58449414D01*
X58716700Y-58446218D01*
X58724918Y-58436742D01*
X58734387Y-58428530D01*
X58737580Y-58422143D01*
X58742265Y-58416742D01*
X58750256Y-58398842D01*
X59083589Y-57398842D01*
X59087936Y-57379727D01*
X59085170Y-57340807D01*
X59067720Y-57305908D01*
X59038244Y-57280343D01*
X59001228Y-57268004D01*
X58962308Y-57270771D01*
X58927409Y-57288220D01*
X58901844Y-57317696D01*
X58893853Y-57335597D01*
X58655388Y-58050991D01*
X58416923Y-57335596D01*
X58408932Y-57317696D01*
X58383367Y-57288220D01*
X58348468Y-57270770D01*
X58309548Y-57268004D01*
X58272532Y-57280342D01*
X58243056Y-57305907D01*
X58225606Y-57340806D01*
X58222840Y-57379726D01*
X58086800Y-57379726D01*
X58086800Y-57347710D01*
X58071868Y-57311662D01*
X58044278Y-57284072D01*
X58008230Y-57269140D01*
X57988721Y-57267219D01*
X57512531Y-57267219D01*
X57505314Y-57267929D01*
X57502878Y-57267686D01*
X57500499Y-57268403D01*
X57493022Y-57269140D01*
X57479512Y-57274736D01*
X57465523Y-57278957D01*
X57461626Y-57282144D01*
X57456974Y-57284072D01*
X57446637Y-57294408D01*
X57435325Y-57303664D01*
X57432944Y-57308101D01*
X57429384Y-57311662D01*
X57423789Y-57325167D01*
X57416880Y-57338048D01*
X57415403Y-57345412D01*
X57414452Y-57347710D01*
X57414452Y-57350160D01*
X57413027Y-57357269D01*
X57365408Y-57833459D01*
X57365379Y-57853062D01*
X56371725Y-57853062D01*
X56341563Y-57840568D01*
X56322054Y-57838647D01*
X56131578Y-57838647D01*
X56112069Y-57840568D01*
X56076021Y-57855500D01*
X56048431Y-57883090D01*
X56033499Y-57919138D01*
X56033499Y-57958156D01*
X56048431Y-57994204D01*
X56076021Y-58021794D01*
X56112069Y-58036726D01*
X56131578Y-58038647D01*
X56222054Y-58038647D01*
X56222054Y-58230559D01*
X56220415Y-58232197D01*
X56115351Y-58267219D01*
X56052566Y-58267219D01*
X55947501Y-58232197D01*
X55880431Y-58165127D01*
X55844977Y-58094218D01*
X55803007Y-57926337D01*
X55803007Y-57808100D01*
X55844977Y-57640218D01*
X55880430Y-57569312D01*
X55947502Y-57502240D01*
X56052566Y-57467219D01*
X56155590Y-57467219D01*
X56229713Y-57504281D01*
X56248022Y-57511287D01*
X56286942Y-57514053D01*
X56323958Y-57501714D01*
X56353435Y-57476149D01*
X56370884Y-57441251D01*
X56373649Y-57402331D01*
X56361311Y-57365315D01*
X56335746Y-57335838D01*
X56319156Y-57325395D01*
X56223918Y-57277776D01*
X56205610Y-57270770D01*
X56202026Y-57270515D01*
X56198706Y-57269140D01*
X56179197Y-57267219D01*
X56036340Y-57267219D01*
X56026466Y-57268191D01*
X56023832Y-57268004D01*
X56020368Y-57268791D01*
X56016831Y-57269140D01*
X56014389Y-57270151D01*
X56004717Y-57272351D01*
X55861860Y-57319970D01*
X55843960Y-57327961D01*
X55841244Y-57330316D01*
X55837926Y-57331691D01*
X55822772Y-57344127D01*
X55727534Y-57439365D01*
X55721239Y-57447035D01*
X55719245Y-57448765D01*
X55717351Y-57451772D01*
X55715098Y-57454519D01*
X55714087Y-57456958D01*
X55708802Y-57465355D01*
X55661183Y-57560593D01*
X55660637Y-57562019D01*
X55660207Y-57562600D01*
X55657285Y-57570776D01*
X55654177Y-57578901D01*
X55654125Y-57579623D01*
X55653612Y-57581061D01*
X55605993Y-57771536D01*
X55605492Y-57774917D01*
X55604928Y-57776281D01*
X55604204Y-57783631D01*
X55603125Y-57790929D01*
X55603342Y-57792387D01*
X55603007Y-57795790D01*
X54570320Y-57795790D01*
X54416922Y-57335596D01*
X54408931Y-57317696D01*
X54404246Y-57312294D01*
X54401053Y-57305908D01*
X54391584Y-57297695D01*
X54383366Y-57288220D01*
X54376974Y-57285023D01*
X54371577Y-57280343D01*
X54359683Y-57276378D01*
X54348467Y-57270770D01*
X54341339Y-57270263D01*
X54334561Y-57268004D01*
X54322056Y-57268893D01*
X54309547Y-57268004D01*
X54302765Y-57270264D01*
X54295641Y-57270771D01*
X54284432Y-57276374D01*
X54272531Y-57280342D01*
X54267130Y-57285025D01*
X54260742Y-57288220D01*
X54252526Y-57297691D01*
X54243055Y-57305907D01*
X54239860Y-57312296D01*
X54235177Y-57317696D01*
X54227186Y-57335597D01*
X53893853Y-58335596D01*
X53889506Y-58354712D01*
X52952171Y-58354712D01*
X52964193Y-58342690D01*
X52970485Y-58335023D01*
X52972482Y-58333292D01*
X52974375Y-58330284D01*
X52976630Y-58327537D01*
X52977641Y-58325095D01*
X52982925Y-58316701D01*
X53030544Y-58221464D01*
X53037550Y-58203155D01*
X53037804Y-58199571D01*
X53039180Y-58196251D01*
X53041101Y-58176742D01*
X53041101Y-58033885D01*
X53039180Y-58014376D01*
X53037804Y-58011055D01*
X53037550Y-58007472D01*
X53030544Y-57989163D01*
X52982925Y-57893926D01*
X52977639Y-57885529D01*
X52976629Y-57883089D01*
X52974375Y-57880343D01*
X52972482Y-57877335D01*
X52970484Y-57875602D01*
X52964192Y-57867936D01*
X52916574Y-57820317D01*
X52915785Y-57819669D01*
X52916573Y-57818882D01*
X52922865Y-57811215D01*
X52924863Y-57809483D01*
X52926756Y-57806474D01*
X52929010Y-57803729D01*
X52930020Y-57801288D01*
X52935306Y-57792892D01*
X52982925Y-57697655D01*
X52989931Y-57679346D01*
X52990185Y-57675762D01*
X52991561Y-57672442D01*
X52993482Y-57652933D01*
X52993482Y-57557695D01*
X52991561Y-57538186D01*
X52990185Y-57534865D01*
X52989931Y-57531282D01*
X52982925Y-57512973D01*
X52935306Y-57417736D01*
X52930020Y-57409339D01*
X52929010Y-57406899D01*
X52926756Y-57404153D01*
X52924863Y-57401145D01*
X52922865Y-57399412D01*
X52916573Y-57391746D01*
X52868955Y-57344127D01*
X52861284Y-57337832D01*
X52859555Y-57335838D01*
X52856547Y-57333944D01*
X52853801Y-57331691D01*
X52851361Y-57330680D01*
X52842965Y-57325395D01*
X52747727Y-57277776D01*
X52729419Y-57270770D01*
X52725835Y-57270515D01*
X52722515Y-57269140D01*
X52703006Y-57267219D01*
X52369673Y-57267219D01*
X52350164Y-57269140D01*
X52314116Y-57284072D01*
X52286526Y-57311662D01*
X52271594Y-57347710D01*
X52269673Y-57367219D01*
X52158562Y-57367219D01*
X52158562Y-57156108D01*
X59199047Y-57156108D01*
X59199047Y-58578330D01*
G37*
D11*
G36*
X64544911Y-77418361D02*
G01*
X64597899Y-77471349D01*
X64666415Y-77608381D01*
X64666415Y-77823275D01*
X64597898Y-77960307D01*
X64537084Y-78021122D01*
X64400053Y-78089638D01*
X63823558Y-78089638D01*
X63823558Y-77342019D01*
X64315885Y-77342019D01*
X64544911Y-77418361D01*
G37*
G36*
X64441847Y-76458154D02*
G01*
X64502661Y-76518968D01*
X64571177Y-76656000D01*
X64571177Y-76775656D01*
X64502661Y-76912688D01*
X64441847Y-76973501D01*
X64304814Y-77042019D01*
X63823558Y-77042019D01*
X63823558Y-76389638D01*
X64304815Y-76389638D01*
X64441847Y-76458154D01*
G37*
G36*
X65188637Y-78611860D02*
G01*
X59301336Y-78611860D01*
X59301336Y-76239638D01*
X59523558Y-76239638D01*
X59523558Y-77858685D01*
X59526440Y-77887949D01*
X59528501Y-77892926D01*
X59528884Y-77898304D01*
X59539394Y-77925767D01*
X59634632Y-78116243D01*
X59642559Y-78128836D01*
X59644075Y-78132496D01*
X59647456Y-78136616D01*
X59650297Y-78141129D01*
X59653290Y-78143725D01*
X59662729Y-78155226D01*
X59757968Y-78250466D01*
X59769470Y-78259906D01*
X59772066Y-78262899D01*
X59776575Y-78265737D01*
X59780698Y-78269121D01*
X59784360Y-78270637D01*
X59796952Y-78278564D01*
X59987428Y-78373802D01*
X60014892Y-78384312D01*
X60020267Y-78384693D01*
X60025246Y-78386756D01*
X60054510Y-78389638D01*
X60435463Y-78389638D01*
X60464727Y-78386756D01*
X60469704Y-78384694D01*
X60475082Y-78384312D01*
X60502545Y-78373802D01*
X60693021Y-78278564D01*
X60705616Y-78270635D01*
X60709275Y-78269120D01*
X60713392Y-78265740D01*
X60717907Y-78262899D01*
X60720504Y-78259904D01*
X60732006Y-78250465D01*
X60827244Y-78155226D01*
X60836682Y-78143724D01*
X60839676Y-78141129D01*
X60842516Y-78136616D01*
X60845899Y-78132495D01*
X60847415Y-78128833D01*
X60855341Y-78116243D01*
X60950579Y-77925767D01*
X60961089Y-77898303D01*
X60961470Y-77892927D01*
X60963533Y-77887949D01*
X60966415Y-77858685D01*
X60966415Y-76620590D01*
X61523558Y-76620590D01*
X61523558Y-76811066D01*
X61526440Y-76840330D01*
X61528501Y-76845307D01*
X61528884Y-76850685D01*
X61539394Y-76878148D01*
X61634632Y-77068624D01*
X61642559Y-77081217D01*
X61644075Y-77084877D01*
X61647456Y-77088996D01*
X61650297Y-77093510D01*
X61653291Y-77096106D01*
X61662730Y-77107608D01*
X61757968Y-77202846D01*
X61769469Y-77212285D01*
X61772066Y-77215279D01*
X61776579Y-77218120D01*
X61780699Y-77221501D01*
X61784357Y-77223016D01*
X61796951Y-77230944D01*
X61987427Y-77326183D01*
X61989567Y-77327002D01*
X61990438Y-77327647D01*
X62002717Y-77332034D01*
X62014891Y-77336692D01*
X62015971Y-77336768D01*
X62018130Y-77337540D01*
X62383108Y-77428784D01*
X62537085Y-77505773D01*
X62597899Y-77566587D01*
X62666415Y-77703619D01*
X62666415Y-77823275D01*
X62597898Y-77960307D01*
X62537084Y-78021122D01*
X62400053Y-78089638D01*
X61983612Y-78089638D01*
X61720992Y-78002098D01*
X61692319Y-77995578D01*
X61633938Y-77999727D01*
X61581591Y-78025901D01*
X61543244Y-78070115D01*
X61524736Y-78125639D01*
X61528885Y-78184020D01*
X61555059Y-78236367D01*
X61599273Y-78274714D01*
X61626124Y-78286702D01*
X61911838Y-78381940D01*
X61926345Y-78385238D01*
X61930008Y-78386756D01*
X61935316Y-78387278D01*
X61940511Y-78388460D01*
X61944460Y-78388179D01*
X61959272Y-78389638D01*
X62435463Y-78389638D01*
X62464727Y-78386756D01*
X62469704Y-78384694D01*
X62475082Y-78384312D01*
X62502545Y-78373802D01*
X62693021Y-78278564D01*
X62705616Y-78270635D01*
X62709275Y-78269120D01*
X62713392Y-78265740D01*
X62717907Y-78262899D01*
X62720504Y-78259904D01*
X62732006Y-78250465D01*
X62827244Y-78155226D01*
X62836682Y-78143724D01*
X62839676Y-78141129D01*
X62842516Y-78136616D01*
X62845899Y-78132495D01*
X62847415Y-78128833D01*
X62855341Y-78116243D01*
X62950579Y-77925767D01*
X62961089Y-77898303D01*
X62961470Y-77892927D01*
X62963533Y-77887949D01*
X62966415Y-77858685D01*
X62966415Y-77668209D01*
X62963533Y-77638945D01*
X62961470Y-77633966D01*
X62961089Y-77628591D01*
X62950579Y-77601127D01*
X62855341Y-77410651D01*
X62847413Y-77398057D01*
X62845898Y-77394398D01*
X62842516Y-77390278D01*
X62839676Y-77385765D01*
X62836682Y-77383168D01*
X62827243Y-77371667D01*
X62732005Y-77276429D01*
X62720503Y-77266990D01*
X62717907Y-77263996D01*
X62713393Y-77261155D01*
X62709274Y-77257774D01*
X62705614Y-77256258D01*
X62693021Y-77248331D01*
X62502545Y-77153093D01*
X62500404Y-77152273D01*
X62499534Y-77151629D01*
X62487278Y-77147250D01*
X62475082Y-77142583D01*
X62473998Y-77142506D01*
X62471843Y-77141736D01*
X62106868Y-77050492D01*
X61952887Y-76973501D01*
X61892074Y-76912688D01*
X61823558Y-76775656D01*
X61823558Y-76656000D01*
X61892074Y-76518968D01*
X61952888Y-76458154D01*
X62089920Y-76389638D01*
X62506361Y-76389638D01*
X62768981Y-76477178D01*
X62797654Y-76483698D01*
X62856035Y-76479549D01*
X62908382Y-76453375D01*
X62946729Y-76409161D01*
X62965237Y-76353637D01*
X62961088Y-76295256D01*
X62934914Y-76242909D01*
X62931143Y-76239638D01*
X63523558Y-76239638D01*
X63523558Y-78239638D01*
X63526440Y-78268902D01*
X63548838Y-78322974D01*
X63590222Y-78364358D01*
X63644294Y-78386756D01*
X63673558Y-78389638D01*
X64435463Y-78389638D01*
X64464727Y-78386756D01*
X64469704Y-78384694D01*
X64475082Y-78384312D01*
X64502545Y-78373802D01*
X64693021Y-78278564D01*
X64705616Y-78270635D01*
X64709275Y-78269120D01*
X64713392Y-78265740D01*
X64717907Y-78262899D01*
X64720504Y-78259904D01*
X64732006Y-78250465D01*
X64827244Y-78155226D01*
X64836682Y-78143724D01*
X64839676Y-78141129D01*
X64842516Y-78136616D01*
X64845899Y-78132495D01*
X64847415Y-78128833D01*
X64855341Y-78116243D01*
X64950579Y-77925767D01*
X64961089Y-77898303D01*
X64961470Y-77892927D01*
X64963533Y-77887949D01*
X64966415Y-77858685D01*
X64966415Y-77572971D01*
X64963533Y-77543707D01*
X64961470Y-77538728D01*
X64961089Y-77533353D01*
X64950579Y-77505889D01*
X64855341Y-77315413D01*
X64847413Y-77302819D01*
X64845898Y-77299160D01*
X64842516Y-77295040D01*
X64839676Y-77290527D01*
X64836682Y-77287930D01*
X64827243Y-77276429D01*
X64732005Y-77181191D01*
X64709274Y-77162536D01*
X64704294Y-77160473D01*
X64700224Y-77156943D01*
X64688088Y-77151524D01*
X64732005Y-77107608D01*
X64741444Y-77096106D01*
X64744438Y-77093510D01*
X64747278Y-77088996D01*
X64750660Y-77084877D01*
X64752175Y-77081217D01*
X64760103Y-77068624D01*
X64855341Y-76878148D01*
X64865851Y-76850684D01*
X64866232Y-76845308D01*
X64868295Y-76840330D01*
X64871177Y-76811066D01*
X64871177Y-76620590D01*
X64868295Y-76591326D01*
X64866232Y-76586347D01*
X64865851Y-76580972D01*
X64855341Y-76553508D01*
X64760103Y-76363032D01*
X64752175Y-76350438D01*
X64750660Y-76346779D01*
X64747278Y-76342659D01*
X64744438Y-76338146D01*
X64741444Y-76335549D01*
X64732005Y-76324048D01*
X64636767Y-76228810D01*
X64625265Y-76219371D01*
X64622669Y-76216377D01*
X64618155Y-76213536D01*
X64614036Y-76210155D01*
X64610376Y-76208639D01*
X64597783Y-76200712D01*
X64407307Y-76105474D01*
X64379844Y-76094964D01*
X64374466Y-76094581D01*
X64369489Y-76092520D01*
X64340225Y-76089638D01*
X63673558Y-76089638D01*
X63644294Y-76092520D01*
X63590222Y-76114918D01*
X63548838Y-76156302D01*
X63526440Y-76210374D01*
X63523558Y-76239638D01*
X62931143Y-76239638D01*
X62890700Y-76204562D01*
X62863849Y-76192574D01*
X62578135Y-76097336D01*
X62563627Y-76094037D01*
X62559965Y-76092520D01*
X62554656Y-76091997D01*
X62549462Y-76090816D01*
X62545512Y-76091096D01*
X62530701Y-76089638D01*
X62054510Y-76089638D01*
X62025246Y-76092520D01*
X62020267Y-76094582D01*
X62014892Y-76094964D01*
X61987428Y-76105474D01*
X61796952Y-76200712D01*
X61784358Y-76208639D01*
X61780699Y-76210155D01*
X61776579Y-76213536D01*
X61772066Y-76216377D01*
X61769469Y-76219370D01*
X61757968Y-76228810D01*
X61662730Y-76324048D01*
X61653291Y-76335549D01*
X61650297Y-76338146D01*
X61647456Y-76342659D01*
X61644075Y-76346779D01*
X61642559Y-76350438D01*
X61634632Y-76363032D01*
X61539394Y-76553508D01*
X61528884Y-76580971D01*
X61528501Y-76586348D01*
X61526440Y-76591326D01*
X61523558Y-76620590D01*
X60966415Y-76620590D01*
X60966415Y-76239638D01*
X60963533Y-76210374D01*
X60941135Y-76156302D01*
X60899751Y-76114918D01*
X60845679Y-76092520D01*
X60787151Y-76092520D01*
X60733079Y-76114918D01*
X60691695Y-76156302D01*
X60669297Y-76210374D01*
X60666415Y-76239638D01*
X60666415Y-77823275D01*
X60597898Y-77960307D01*
X60537084Y-78021122D01*
X60400053Y-78089638D01*
X60089920Y-78089638D01*
X59952888Y-78021122D01*
X59892074Y-77960307D01*
X59823558Y-77823275D01*
X59823558Y-76239638D01*
X59820676Y-76210374D01*
X59798278Y-76156302D01*
X59756894Y-76114918D01*
X59702822Y-76092520D01*
X59644294Y-76092520D01*
X59590222Y-76114918D01*
X59548838Y-76156302D01*
X59526440Y-76210374D01*
X59523558Y-76239638D01*
X59301336Y-76239638D01*
X59301336Y-75867416D01*
X65188637Y-75867416D01*
X65188637Y-78611860D01*
G37*
D12*
X54135714Y-44631009D02*
X54469047Y-44631009D01*
X54611904Y-45154819D02*
X54135714Y-45154819D01*
X54135714Y-45154819D02*
X54135714Y-44154819D01*
X54135714Y-44154819D02*
X54611904Y-44154819D01*
X55040476Y-45154819D02*
X55040476Y-44154819D01*
X55040476Y-44154819D02*
X55611904Y-45154819D01*
X55611904Y-45154819D02*
X55611904Y-44154819D01*
X56659523Y-45059580D02*
X56611904Y-45107200D01*
X56611904Y-45107200D02*
X56469047Y-45154819D01*
X56469047Y-45154819D02*
X56373809Y-45154819D01*
X56373809Y-45154819D02*
X56230952Y-45107200D01*
X56230952Y-45107200D02*
X56135714Y-45011961D01*
X56135714Y-45011961D02*
X56088095Y-44916723D01*
X56088095Y-44916723D02*
X56040476Y-44726247D01*
X56040476Y-44726247D02*
X56040476Y-44583390D01*
X56040476Y-44583390D02*
X56088095Y-44392914D01*
X56088095Y-44392914D02*
X56135714Y-44297676D01*
X56135714Y-44297676D02*
X56230952Y-44202438D01*
X56230952Y-44202438D02*
X56373809Y-44154819D01*
X56373809Y-44154819D02*
X56469047Y-44154819D01*
X56469047Y-44154819D02*
X56611904Y-44202438D01*
X56611904Y-44202438D02*
X56659523Y-44250057D01*
X57611904Y-45154819D02*
X57040476Y-45154819D01*
X57326190Y-45154819D02*
X57326190Y-44154819D01*
X57326190Y-44154819D02*
X57230952Y-44297676D01*
X57230952Y-44297676D02*
X57135714Y-44392914D01*
X57135714Y-44392914D02*
X57040476Y-44440533D01*
X67047619Y-47607200D02*
X67190476Y-47654819D01*
X67190476Y-47654819D02*
X67428571Y-47654819D01*
X67428571Y-47654819D02*
X67523809Y-47607200D01*
X67523809Y-47607200D02*
X67571428Y-47559580D01*
X67571428Y-47559580D02*
X67619047Y-47464342D01*
X67619047Y-47464342D02*
X67619047Y-47369104D01*
X67619047Y-47369104D02*
X67571428Y-47273866D01*
X67571428Y-47273866D02*
X67523809Y-47226247D01*
X67523809Y-47226247D02*
X67428571Y-47178628D01*
X67428571Y-47178628D02*
X67238095Y-47131009D01*
X67238095Y-47131009D02*
X67142857Y-47083390D01*
X67142857Y-47083390D02*
X67095238Y-47035771D01*
X67095238Y-47035771D02*
X67047619Y-46940533D01*
X67047619Y-46940533D02*
X67047619Y-46845295D01*
X67047619Y-46845295D02*
X67095238Y-46750057D01*
X67095238Y-46750057D02*
X67142857Y-46702438D01*
X67142857Y-46702438D02*
X67238095Y-46654819D01*
X67238095Y-46654819D02*
X67476190Y-46654819D01*
X67476190Y-46654819D02*
X67619047Y-46702438D01*
X68428571Y-47607200D02*
X68333333Y-47654819D01*
X68333333Y-47654819D02*
X68142857Y-47654819D01*
X68142857Y-47654819D02*
X68047619Y-47607200D01*
X68047619Y-47607200D02*
X68000000Y-47511961D01*
X68000000Y-47511961D02*
X68000000Y-47131009D01*
X68000000Y-47131009D02*
X68047619Y-47035771D01*
X68047619Y-47035771D02*
X68142857Y-46988152D01*
X68142857Y-46988152D02*
X68333333Y-46988152D01*
X68333333Y-46988152D02*
X68428571Y-47035771D01*
X68428571Y-47035771D02*
X68476190Y-47131009D01*
X68476190Y-47131009D02*
X68476190Y-47226247D01*
X68476190Y-47226247D02*
X68000000Y-47321485D01*
X68904762Y-47654819D02*
X68904762Y-46988152D01*
X68904762Y-47178628D02*
X68952381Y-47083390D01*
X68952381Y-47083390D02*
X69000000Y-47035771D01*
X69000000Y-47035771D02*
X69095238Y-46988152D01*
X69095238Y-46988152D02*
X69190476Y-46988152D01*
X69523810Y-47654819D02*
X69523810Y-46988152D01*
X69523810Y-46654819D02*
X69476191Y-46702438D01*
X69476191Y-46702438D02*
X69523810Y-46750057D01*
X69523810Y-46750057D02*
X69571429Y-46702438D01*
X69571429Y-46702438D02*
X69523810Y-46654819D01*
X69523810Y-46654819D02*
X69523810Y-46750057D01*
X70428571Y-47654819D02*
X70428571Y-47131009D01*
X70428571Y-47131009D02*
X70380952Y-47035771D01*
X70380952Y-47035771D02*
X70285714Y-46988152D01*
X70285714Y-46988152D02*
X70095238Y-46988152D01*
X70095238Y-46988152D02*
X70000000Y-47035771D01*
X70428571Y-47607200D02*
X70333333Y-47654819D01*
X70333333Y-47654819D02*
X70095238Y-47654819D01*
X70095238Y-47654819D02*
X70000000Y-47607200D01*
X70000000Y-47607200D02*
X69952381Y-47511961D01*
X69952381Y-47511961D02*
X69952381Y-47416723D01*
X69952381Y-47416723D02*
X70000000Y-47321485D01*
X70000000Y-47321485D02*
X70095238Y-47273866D01*
X70095238Y-47273866D02*
X70333333Y-47273866D01*
X70333333Y-47273866D02*
X70428571Y-47226247D01*
X71047619Y-47654819D02*
X70952381Y-47607200D01*
X70952381Y-47607200D02*
X70904762Y-47511961D01*
X70904762Y-47511961D02*
X70904762Y-46654819D01*
X71952381Y-47654819D02*
X71380953Y-47654819D01*
X71666667Y-47654819D02*
X71666667Y-46654819D01*
X71666667Y-46654819D02*
X71571429Y-46797676D01*
X71571429Y-46797676D02*
X71476191Y-46892914D01*
X71476191Y-46892914D02*
X71380953Y-46940533D01*
D13*
X49830000Y-74990000D02*
X49830000Y-59690000D01*
X49830000Y-77590000D02*
X49830000Y-76260000D01*
X51160000Y-77590000D02*
X49830000Y-77590000D01*
X52490000Y-59690000D02*
X49830000Y-59690000D01*
X52490000Y-74990000D02*
X49830000Y-74990000D01*
X52490000Y-74990000D02*
X52490000Y-59690000D01*
X68870000Y-74970000D02*
X68870000Y-59670000D01*
X68870000Y-77570000D02*
X68870000Y-76240000D01*
X70200000Y-77570000D02*
X68870000Y-77570000D01*
X71530000Y-59670000D02*
X68870000Y-59670000D01*
X71530000Y-74970000D02*
X68870000Y-74970000D01*
X71530000Y-74970000D02*
X71530000Y-59670000D01*
X49540000Y-45735000D02*
X49540000Y-57455000D01*
X49540000Y-57455000D02*
X50960000Y-57455000D01*
X50960000Y-52955000D02*
X55850000Y-52955000D01*
X50960000Y-57455000D02*
X50960000Y-52955000D01*
X55850000Y-45735000D02*
X49540000Y-45735000D01*
X55850000Y-45735000D02*
X62160000Y-45735000D01*
X59300000Y-57145000D02*
X59600000Y-56545000D01*
X59600000Y-56545000D02*
X59900000Y-57145000D01*
X59900000Y-57145000D02*
X59300000Y-57145000D01*
X60740000Y-52955000D02*
X55850000Y-52955000D01*
X60740000Y-57455000D02*
X60740000Y-52955000D01*
X62160000Y-45735000D02*
X62160000Y-57455000D01*
X62160000Y-57455000D02*
X60740000Y-57455000D01*
X52350000Y-51845000D02*
X51850000Y-51845000D01*
X51850000Y-46345000D01*
X52350000Y-46345000D01*
X52350000Y-51845000D01*
X54850000Y-51845000D02*
X54350000Y-51845000D01*
X54350000Y-46345000D01*
X54850000Y-46345000D01*
X54850000Y-51845000D01*
X57350000Y-51845000D02*
X56850000Y-51845000D01*
X56850000Y-46345000D01*
X57350000Y-46345000D01*
X57350000Y-51845000D01*
X59850000Y-51845000D02*
X59350000Y-51845000D01*
X59350000Y-46345000D01*
X59850000Y-46345000D01*
X59850000Y-51845000D01*
X72670000Y-74970000D02*
X72670000Y-59670000D01*
X72670000Y-77570000D02*
X72670000Y-76240000D01*
X74000000Y-77570000D02*
X72670000Y-77570000D01*
X75330000Y-59670000D02*
X72670000Y-59670000D01*
X75330000Y-74970000D02*
X72670000Y-74970000D01*
X75330000Y-74970000D02*
X75330000Y-59670000D01*
X63440000Y-48240000D02*
X63440000Y-56060000D01*
X63440000Y-54460000D02*
X64360000Y-54460000D01*
X63440000Y-56060000D02*
X64360000Y-56060000D01*
X64360000Y-54460000D02*
X64640000Y-54460000D01*
X64360000Y-56060000D02*
X64360000Y-54460000D01*
X66000000Y-52600000D02*
X66000000Y-48240000D01*
X73000000Y-48240000D02*
X73000000Y-52600000D01*
X73000000Y-52600000D02*
X66000000Y-52600000D01*
X73800000Y-50500000D02*
X73800000Y-48240000D01*
X74300000Y-50500000D02*
X74300000Y-48240000D01*
X74360000Y-54460000D02*
X74360000Y-55675000D01*
X74360000Y-54460000D02*
X74640000Y-54460000D01*
X74640000Y-54460000D02*
X74640000Y-56060000D01*
X74640000Y-56060000D02*
X75560000Y-56060000D01*
X75560000Y-48240000D02*
X63440000Y-48240000D01*
X75560000Y-54460000D02*
X74640000Y-54460000D01*
X75560000Y-56060000D02*
X75560000Y-48240000D01*
X65200000Y-52100000D02*
X64200000Y-52100000D01*
X64200000Y-50500000D01*
X65200000Y-50500000D01*
X65200000Y-52100000D01*
X74800000Y-52100000D02*
X73800000Y-52100000D01*
X73800000Y-50500000D01*
X74800000Y-50500000D01*
X74800000Y-52100000D01*
X53630000Y-74970000D02*
X53630000Y-59670000D01*
X53630000Y-77570000D02*
X53630000Y-76240000D01*
X54960000Y-77570000D02*
X53630000Y-77570000D01*
X56290000Y-59670000D02*
X53630000Y-59670000D01*
X56290000Y-74970000D02*
X53630000Y-74970000D01*
X56290000Y-74970000D02*
X56290000Y-59670000D01*
M02*
