M48
; DRILL file {KiCad 9.0.3} date 2025-08-08T01:41:43+0900
; FORMAT={-:-/ absolute / metric / decimal}
; #@! TF.CreationDate,2025-08-08T01:41:43+09:00
; #@! TF.GenerationSoftware,Kicad,Pcbnew,9.0.3
; #@! TF.FileFunction,Plated,1,2,PTH
FMAT,2
METRIC
; #@! TA.AperFunction,Plated,PTH,ViaDrill
T1C0.300
; #@! TA.AperFunction,Plated,PTH,ComponentDrill
T2C0.800
; #@! TA.AperFunction,Plated,PTH,ComponentDrill
T3C0.950
; #@! TA.AperFunction,Plated,PTH,ComponentDrill
T4C1.000
; #@! TA.AperFunction,Plated,PTH,ComponentDrill
T5C1.118
; #@! TA.AperFunction,Plated,PTH,ComponentDrill
T6C4.500
%
G90
G05
T1
X88.778Y-78.27
X88.778Y-123.99
X90.048Y-38.9
X90.048Y-50.33
X90.048Y-54.14
X90.048Y-64.3
X90.048Y-87.16
X90.048Y-96.05
X90.048Y-104.94
X90.048Y-113.83
X90.048Y-144.31
X91.318Y-27.47
X91.318Y-31.28
X91.318Y-68.11
X91.318Y-129.07
X91.318Y-134.15
X92.588Y-45.25
X92.588Y-140.5
X93.201Y-63.693
X93.858Y-23.66
X95.128Y-96.05
X96.398Y-27.47
X96.628Y-127.752
X97.01Y-67.627
X97.668Y-31.28
X97.668Y-148.12
X98.772Y-68.857
X98.938Y-17.31
X98.938Y-149.39
X98.938Y-153.2
X99.033Y-51.751
X99.305Y-48.796
X99.807Y-117.248
X101.478Y-143.04
X102.231Y-102.211
X102.231Y-137.821
X105.288Y-154.47
X106.558Y-17.31
X106.558Y-144.31
X106.558Y-150.66
X106.999Y-121.121
X107.828Y-102.4
X110.368Y-97.32
X110.368Y-151.93
X111.009Y-140.789
X111.638Y-145.58
X112.437Y-121.833
X112.908Y-102.4
X114.178Y-18.58
X115.448Y-153.2
X115.797Y-47.712
X116.035Y-75.504
X116.772Y-41.144
X119.069Y-81.121
X119.258Y-21.12
X119.258Y-26.2
X119.787Y-30.598
X119.787Y-97.198
X120.668Y-30.003
X122.708Y-97.207
X124.338Y-143.04
X124.338Y-144.31
X124.338Y-145.58
X124.338Y-146.85
X124.338Y-148.12
X124.338Y-149.39
X124.338Y-150.66
X124.338Y-151.93
X124.338Y-153.2
X124.338Y-154.47
X125.608Y-33.82
X125.608Y-135.42
X125.608Y-143.04
X125.608Y-148.12
X126.878Y-99.86
X126.878Y-143.04
X126.878Y-148.12
X128.148Y-18.58
X128.148Y-26.2
X128.148Y-143.04
X128.148Y-148.12
X128.148Y-149.39
X128.148Y-150.66
X129.418Y-102.4
X129.418Y-143.04
X129.418Y-148.12
X129.418Y-150.66
X129.418Y-151.93
X130.688Y-21.12
X130.688Y-135.42
X130.688Y-144.31
X130.688Y-145.58
X130.688Y-146.85
X130.688Y-151.93
X130.688Y-153.2
X130.688Y-154.47
X131.958Y-99.86
X131.958Y-154.47
X133.228Y-143.04
X133.228Y-144.31
X133.228Y-145.58
X133.228Y-146.85
X133.228Y-148.12
X133.228Y-149.39
X133.228Y-150.66
X133.228Y-151.93
X133.228Y-153.2
X133.228Y-154.47
X134.498Y-135.42
X134.498Y-143.04
X134.498Y-148.12
X135.26Y-107.375
X135.768Y-26.2
X135.768Y-143.04
X135.768Y-148.12
X137.038Y-38.9
X137.038Y-103.67
X137.038Y-143.04
X137.038Y-148.12
X137.038Y-149.39
X137.038Y-150.66
X138.308Y-101.13
X138.308Y-143.04
X138.308Y-148.12
X138.308Y-150.66
X138.308Y-151.93
X139.578Y-19.85
X139.578Y-30.01
X139.578Y-99.86
X139.578Y-103.67
X139.578Y-144.31
X139.578Y-145.58
X139.578Y-146.85
X139.578Y-151.93
X139.578Y-153.2
X139.578Y-154.47
X140.848Y-154.47
X142.118Y-32.55
X142.118Y-144.31
X142.118Y-146.85
X142.118Y-151.93
X143.388Y-38.9
X143.388Y-143.04
X143.388Y-148.12
X143.388Y-153.2
X144.658Y-19.85
X144.658Y-26.2
X144.658Y-143.04
X144.658Y-149.39
X144.658Y-154.47
X145.708Y-97.224
X145.928Y-30.01
X145.928Y-143.04
X145.928Y-149.39
X145.928Y-154.47
X146.926Y-97.459
X147.198Y-143.04
X147.198Y-149.39
X147.198Y-154.47
X148.468Y-144.31
X148.468Y-145.58
X148.468Y-150.66
X148.468Y-151.93
X148.468Y-153.2
X149.371Y-96.756
X149.386Y-42.444
X149.738Y-136.69
X149.977Y-66.654
X150.572Y-92.595
X151.008Y-22.39
X151.008Y-38.9
X151.008Y-101.13
X151.008Y-113.83
X151.008Y-143.04
X151.129Y-90.341
X151.326Y-44.095
X152.117Y-30.806
X152.278Y-98.59
X152.278Y-135.42
X152.278Y-143.04
X152.826Y-33.959
X153.548Y-135.42
X153.548Y-136.69
X153.548Y-143.04
X154.614Y-33.133
X154.818Y-103.67
X154.818Y-107.48
X154.818Y-113.83
X154.818Y-143.04
X154.818Y-144.31
X154.818Y-145.58
X154.818Y-146.85
X154.818Y-148.12
X154.818Y-149.39
X154.818Y-150.66
X154.818Y-151.93
X154.818Y-153.2
X154.818Y-154.47
X156.088Y-97.32
X156.088Y-99.86
X156.088Y-117.64
X156.088Y-135.42
X156.088Y-136.69
X156.088Y-143.04
X156.845Y-93.828
X157.283Y-122.984
X157.358Y-33.82
X157.358Y-143.04
X157.902Y-128.983
X158.566Y-51.462
X158.611Y-48.175
X158.628Y-132.88
X158.628Y-135.42
X158.628Y-143.04
X158.774Y-58.692
X159.256Y-129.444
X159.484Y-70.245
X159.781Y-65.446
X159.898Y-18.58
X159.898Y-38.9
X159.898Y-131.61
X160.084Y-50.775
X160.751Y-134.854
X160.815Y-105.448
X161.087Y-59.781
X161.377Y-120.331
X161.426Y-110.388
X161.481Y-58.129
X161.532Y-131.886
X161.574Y-54.791
X162.367Y-69.196
X162.438Y-24.93
X162.438Y-137.96
X162.639Y-54.49
X162.84Y-64.17
X163.708Y-132.88
X163.708Y-135.42
X164.458Y-62.661
X164.978Y-69.38
X164.978Y-131.61
X166.248Y-75.73
X166.248Y-88.43
X166.248Y-92.24
X167.518Y-19.85
X167.518Y-70.65
X167.518Y-80.81
X167.518Y-85.89
X167.518Y-97.32
X167.518Y-131.61
X167.518Y-136.69
X167.518Y-150.66
X168.788Y-42.71
X169.529Y-51.562
X170.058Y-37.63
X170.058Y-135.42
X171.328Y-131.61
X172.598Y-88.43
X173.868Y-18.58
X173.868Y-71.92
X173.868Y-120.18
X173.868Y-153.2
X175.138Y-85.89
X175.138Y-136.69
X176.408Y-49.06
X176.408Y-68.11
X176.408Y-80.81
X176.408Y-107.48
X176.408Y-107.48
X176.408Y-148.12
X177.678Y-97.32
X177.678Y-111.29
X177.678Y-123.99
X177.678Y-130.34
X178.948Y-98.59
X178.948Y-130.34
X178.948Y-132.88
X178.948Y-144.31
X180.218Y-106.21
X180.218Y-150.66
X181.488Y-36.36
X182.758Y-22.39
X182.758Y-118.91
X182.758Y-130.34
X182.758Y-135.42
X184.028Y-43.98
X184.028Y-102.4
X184.028Y-111.29
X184.028Y-123.99
X184.028Y-131.61
X185.298Y-90.97
X185.298Y-135.42
X186.568Y-37.63
X186.568Y-42.71
X186.568Y-153.2
X187.085Y-51.764
X187.838Y-121.45
X187.838Y-139.23
X187.838Y-149.39
X189.108Y-21.12
X189.108Y-57.95
X189.108Y-117.64
X189.108Y-122.72
X190.378Y-150.66
X191.648Y-30.01
X192.918Y-70.65
X192.918Y-145.58
X194.188Y-49.06
X194.188Y-144.31
X194.188Y-148.12
X195.458Y-59.22
X195.458Y-66.84
X195.458Y-78.27
X195.458Y-139.23
X196.728Y-30.01
X196.728Y-43.98
X197.998Y-35.09
X197.998Y-52.87
X197.998Y-140.5
X199.268Y-71.92
X199.268Y-145.58
X200.538Y-61.76
X200.538Y-143.04
X200.538Y-148.12
X201.808Y-30.01
T2
X106.299Y-122.466
X106.299Y-125.006
X106.299Y-127.546
X106.299Y-130.086
X113.919Y-122.466
X113.919Y-125.006
X113.919Y-127.546
X113.919Y-130.086
X135.768Y-109.328
X135.768Y-113.378
X135.768Y-121.478
X135.768Y-125.528
X135.768Y-129.578
X135.768Y-133.628
X135.768Y-137.678
X135.773Y-117.327
X145.928Y-109.328
X145.928Y-113.378
X145.928Y-121.478
X145.928Y-125.528
X145.928Y-129.578
X145.928Y-133.628
X145.928Y-137.678
X145.933Y-117.327
T3
X131.196Y-45.004
X131.196Y-47.504
X131.196Y-50.004
X131.274Y-67.156
X131.274Y-69.656
X131.274Y-72.156
X131.306Y-56.18
X131.306Y-58.68
X131.306Y-61.18
X131.45Y-78.423
X131.45Y-80.923
X131.45Y-83.423
X139.832Y-45.022
X139.832Y-47.522
X139.832Y-50.022
X139.91Y-67.156
X139.91Y-69.656
X139.91Y-72.156
X139.942Y-56.198
X139.942Y-58.698
X139.942Y-61.198
X140.086Y-78.423
X140.086Y-80.923
X140.086Y-83.423
T4
X95.263Y-36.516
X95.263Y-39.056
X95.263Y-41.596
X95.263Y-44.136
X95.263Y-46.676
X95.263Y-49.216
X95.263Y-51.756
X95.263Y-54.296
X95.263Y-56.836
X95.263Y-59.376
X95.263Y-61.916
X95.263Y-64.456
X95.263Y-66.996
X95.263Y-69.536
X95.263Y-72.076
X95.263Y-74.616
X95.263Y-77.156
X95.263Y-79.696
X95.263Y-82.236
X95.263Y-101.794
X95.263Y-104.334
X95.263Y-106.874
X95.263Y-109.414
X95.263Y-111.954
X95.263Y-114.494
X95.263Y-117.034
X95.263Y-119.574
X95.263Y-122.114
X95.263Y-124.654
X95.263Y-127.194
X95.263Y-129.734
X95.263Y-132.274
X95.263Y-134.814
X95.263Y-137.354
X95.263Y-139.894
X95.263Y-142.434
X95.263Y-144.974
X95.263Y-147.514
X102.723Y-25.148
X102.85Y-32.006
X102.966Y-38.868
X102.966Y-45.612
X105.223Y-25.148
X105.35Y-32.006
X105.466Y-38.868
X105.466Y-45.612
X111.384Y-24.898
X111.384Y-31.788
X111.384Y-45.758
X111.488Y-38.756
X113.884Y-24.898
X113.884Y-31.788
X113.884Y-45.758
X113.988Y-38.756
X120.663Y-36.516
X120.663Y-39.056
X120.663Y-41.596
X120.663Y-44.136
X120.663Y-46.676
X120.663Y-49.216
X120.663Y-51.756
X120.663Y-54.296
X120.663Y-56.836
X120.663Y-59.376
X120.663Y-61.916
X120.663Y-64.456
X120.663Y-66.996
X120.663Y-69.536
X120.663Y-72.076
X120.663Y-74.616
X120.663Y-77.156
X120.663Y-79.696
X120.663Y-82.236
X120.663Y-101.794
X120.663Y-104.334
X120.663Y-106.874
X120.663Y-109.414
X120.663Y-111.954
X120.663Y-114.494
X120.663Y-117.034
X120.663Y-119.574
X120.663Y-122.114
X120.663Y-124.654
X120.663Y-127.194
X120.663Y-129.734
X120.663Y-132.274
X120.663Y-134.814
X120.663Y-137.354
X120.663Y-139.894
X120.663Y-142.434
X120.663Y-144.974
X120.663Y-147.514
X125.095Y-35.879
X127.635Y-35.879
X130.175Y-35.879
X132.715Y-35.879
X135.255Y-35.879
X137.795Y-35.879
X140.335Y-35.879
X142.875Y-35.879
X145.415Y-35.879
X147.955Y-35.879
X150.495Y-35.879
X165.486Y-100.876
X165.486Y-103.416
X165.486Y-105.956
X165.486Y-108.496
X165.486Y-111.036
X165.486Y-113.576
X165.486Y-116.116
X165.486Y-118.656
X165.486Y-121.196
X165.486Y-123.736
X165.486Y-126.276
X168.275Y-141.589
X170.815Y-141.589
X173.355Y-141.589
X175.895Y-141.589
X178.435Y-141.589
X180.975Y-141.589
X181.064Y-55.369
X181.064Y-57.909
X181.064Y-60.449
X181.064Y-62.989
X181.064Y-65.529
X181.064Y-68.069
X181.064Y-70.609
X181.064Y-73.149
X181.064Y-75.689
X181.064Y-78.229
X181.064Y-80.769
X183.515Y-141.589
X186.055Y-141.589
X188.595Y-141.589
X191.135Y-141.589
X193.675Y-141.589
X194.208Y-97.718
X194.228Y-84.112
X194.228Y-90.97
X194.228Y-104.559
X194.402Y-132.118
X194.406Y-111.512
X194.406Y-118.37
X194.442Y-125.26
X196.708Y-97.718
X196.728Y-84.112
X196.728Y-90.97
X196.728Y-104.559
X196.902Y-132.118
X196.906Y-111.512
X196.906Y-118.37
X196.942Y-125.26
T5
X151.686Y-66.825
X151.686Y-71.905
X151.686Y-76.985
X151.686Y-82.065
X151.765Y-46.649
X151.77Y-51.6
X151.77Y-56.68
X151.77Y-61.76
X154.226Y-66.825
X154.226Y-71.905
X154.226Y-76.985
X154.226Y-82.065
X154.305Y-46.649
X154.31Y-51.6
X154.31Y-56.68
X154.31Y-61.76
X156.766Y-66.825
X156.766Y-71.905
X156.766Y-76.985
X156.766Y-82.065
X156.845Y-46.649
X156.85Y-51.6
X156.85Y-56.68
X156.85Y-61.76
T6
X103.635Y-75.982
X103.676Y-57.188
X103.676Y-66.586
X103.945Y-85.424
X110.835Y-75.982
X110.876Y-57.188
X110.876Y-66.586
X111.145Y-85.424
M30
