%TF.GenerationSoftware,KiCad,Pcbnew,9.0.7*%
%TF.CreationDate,2026-03-18T19:09:17+09:00*%
%TF.ProjectId,CAN hub 5,43414e20-6875-4622-9035-2e6b69636164,rev?*%
%TF.SameCoordinates,Original*%
%TF.FileFunction,Drillmap*%
%TF.FilePolarity,Positive*%
%FSLAX45Y45*%
G04 Gerber Fmt 4.5, Leading zero omitted, Abs format (unit mm)*
G04 Created by KiCad (PCBNEW 9.0.7) date 2026-03-18 19:09:17*
%MOMM*%
%LPD*%
G01*
G04 APERTURE LIST*
%ADD10C,0.050000*%
%ADD11C,0.200000*%
%ADD12C,0.320000*%
G04 APERTURE END LIST*
D10*
X7100000Y-8200000D02*
G75*
G02*
X7000000Y-8100000I0J100000D01*
G01*
X7100000Y-2300000D02*
X7900000Y-2300000D01*
X8000000Y-2400000D02*
X8000000Y-8100000D01*
X8000000Y-8100000D02*
G75*
G02*
X7900000Y-8200000I-100000J0D01*
G01*
X7000000Y-2400000D02*
G75*
G02*
X7100000Y-2300000I100000J0D01*
G01*
X7900000Y-8200000D02*
X7100000Y-8200000D01*
X7900000Y-2300000D02*
G75*
G02*
X8000000Y-2400000I0J-100000D01*
G01*
X7000000Y-8100000D02*
X7000000Y-2400000D01*
D11*
D12*
X7340000Y-2540000D02*
X7660000Y-2860000D01*
X7660000Y-2540000D02*
X7340000Y-2860000D01*
X7340000Y-7640000D02*
X7660000Y-7960000D01*
X7660000Y-7640000D02*
X7340000Y-7960000D01*
D11*
X7258277Y-8513984D02*
X7258277Y-8313984D01*
X7258277Y-8313984D02*
X7305896Y-8313984D01*
X7305896Y-8313984D02*
X7334467Y-8323508D01*
X7334467Y-8323508D02*
X7353515Y-8342555D01*
X7353515Y-8342555D02*
X7363039Y-8361603D01*
X7363039Y-8361603D02*
X7372562Y-8399698D01*
X7372562Y-8399698D02*
X7372562Y-8428270D01*
X7372562Y-8428270D02*
X7363039Y-8466365D01*
X7363039Y-8466365D02*
X7353515Y-8485412D01*
X7353515Y-8485412D02*
X7334467Y-8504460D01*
X7334467Y-8504460D02*
X7305896Y-8513984D01*
X7305896Y-8513984D02*
X7258277Y-8513984D01*
X7458277Y-8513984D02*
X7458277Y-8380650D01*
X7458277Y-8418746D02*
X7467801Y-8399698D01*
X7467801Y-8399698D02*
X7477324Y-8390174D01*
X7477324Y-8390174D02*
X7496372Y-8380650D01*
X7496372Y-8380650D02*
X7515420Y-8380650D01*
X7582086Y-8513984D02*
X7582086Y-8380650D01*
X7582086Y-8313984D02*
X7572562Y-8323508D01*
X7572562Y-8323508D02*
X7582086Y-8333031D01*
X7582086Y-8333031D02*
X7591610Y-8323508D01*
X7591610Y-8323508D02*
X7582086Y-8313984D01*
X7582086Y-8313984D02*
X7582086Y-8333031D01*
X7705896Y-8513984D02*
X7686848Y-8504460D01*
X7686848Y-8504460D02*
X7677324Y-8485412D01*
X7677324Y-8485412D02*
X7677324Y-8313984D01*
X7810658Y-8513984D02*
X7791610Y-8504460D01*
X7791610Y-8504460D02*
X7782086Y-8485412D01*
X7782086Y-8485412D02*
X7782086Y-8313984D01*
X8039229Y-8513984D02*
X8039229Y-8313984D01*
X8039229Y-8313984D02*
X8105896Y-8456841D01*
X8105896Y-8456841D02*
X8172562Y-8313984D01*
X8172562Y-8313984D02*
X8172562Y-8513984D01*
X8353515Y-8513984D02*
X8353515Y-8409222D01*
X8353515Y-8409222D02*
X8343991Y-8390174D01*
X8343991Y-8390174D02*
X8324943Y-8380650D01*
X8324943Y-8380650D02*
X8286848Y-8380650D01*
X8286848Y-8380650D02*
X8267801Y-8390174D01*
X8353515Y-8504460D02*
X8334467Y-8513984D01*
X8334467Y-8513984D02*
X8286848Y-8513984D01*
X8286848Y-8513984D02*
X8267801Y-8504460D01*
X8267801Y-8504460D02*
X8258277Y-8485412D01*
X8258277Y-8485412D02*
X8258277Y-8466365D01*
X8258277Y-8466365D02*
X8267801Y-8447317D01*
X8267801Y-8447317D02*
X8286848Y-8437793D01*
X8286848Y-8437793D02*
X8334467Y-8437793D01*
X8334467Y-8437793D02*
X8353515Y-8428270D01*
X8448753Y-8380650D02*
X8448753Y-8580650D01*
X8448753Y-8390174D02*
X8467801Y-8380650D01*
X8467801Y-8380650D02*
X8505896Y-8380650D01*
X8505896Y-8380650D02*
X8524944Y-8390174D01*
X8524944Y-8390174D02*
X8534467Y-8399698D01*
X8534467Y-8399698D02*
X8543991Y-8418746D01*
X8543991Y-8418746D02*
X8543991Y-8475889D01*
X8543991Y-8475889D02*
X8534467Y-8494936D01*
X8534467Y-8494936D02*
X8524944Y-8504460D01*
X8524944Y-8504460D02*
X8505896Y-8513984D01*
X8505896Y-8513984D02*
X8467801Y-8513984D01*
X8467801Y-8513984D02*
X8448753Y-8504460D01*
X8629705Y-8494936D02*
X8639229Y-8504460D01*
X8639229Y-8504460D02*
X8629705Y-8513984D01*
X8629705Y-8513984D02*
X8620182Y-8504460D01*
X8620182Y-8504460D02*
X8629705Y-8494936D01*
X8629705Y-8494936D02*
X8629705Y-8513984D01*
X8629705Y-8390174D02*
X8639229Y-8399698D01*
X8639229Y-8399698D02*
X8629705Y-8409222D01*
X8629705Y-8409222D02*
X8620182Y-8399698D01*
X8620182Y-8399698D02*
X8629705Y-8390174D01*
X8629705Y-8390174D02*
X8629705Y-8409222D01*
X6797500Y-8742500D02*
X6997500Y-8942500D01*
X6997500Y-8742500D02*
X6797500Y-8942500D01*
X7239229Y-8733984D02*
X7363039Y-8733984D01*
X7363039Y-8733984D02*
X7296372Y-8810174D01*
X7296372Y-8810174D02*
X7324943Y-8810174D01*
X7324943Y-8810174D02*
X7343991Y-8819698D01*
X7343991Y-8819698D02*
X7353515Y-8829222D01*
X7353515Y-8829222D02*
X7363039Y-8848270D01*
X7363039Y-8848270D02*
X7363039Y-8895889D01*
X7363039Y-8895889D02*
X7353515Y-8914936D01*
X7353515Y-8914936D02*
X7343991Y-8924460D01*
X7343991Y-8924460D02*
X7324943Y-8933984D01*
X7324943Y-8933984D02*
X7267801Y-8933984D01*
X7267801Y-8933984D02*
X7248753Y-8924460D01*
X7248753Y-8924460D02*
X7239229Y-8914936D01*
X7448753Y-8914936D02*
X7458277Y-8924460D01*
X7458277Y-8924460D02*
X7448753Y-8933984D01*
X7448753Y-8933984D02*
X7439229Y-8924460D01*
X7439229Y-8924460D02*
X7448753Y-8914936D01*
X7448753Y-8914936D02*
X7448753Y-8933984D01*
X7534467Y-8753031D02*
X7543991Y-8743508D01*
X7543991Y-8743508D02*
X7563039Y-8733984D01*
X7563039Y-8733984D02*
X7610658Y-8733984D01*
X7610658Y-8733984D02*
X7629705Y-8743508D01*
X7629705Y-8743508D02*
X7639229Y-8753031D01*
X7639229Y-8753031D02*
X7648753Y-8772079D01*
X7648753Y-8772079D02*
X7648753Y-8791127D01*
X7648753Y-8791127D02*
X7639229Y-8819698D01*
X7639229Y-8819698D02*
X7524943Y-8933984D01*
X7524943Y-8933984D02*
X7648753Y-8933984D01*
X7772562Y-8733984D02*
X7791610Y-8733984D01*
X7791610Y-8733984D02*
X7810658Y-8743508D01*
X7810658Y-8743508D02*
X7820182Y-8753031D01*
X7820182Y-8753031D02*
X7829705Y-8772079D01*
X7829705Y-8772079D02*
X7839229Y-8810174D01*
X7839229Y-8810174D02*
X7839229Y-8857793D01*
X7839229Y-8857793D02*
X7829705Y-8895889D01*
X7829705Y-8895889D02*
X7820182Y-8914936D01*
X7820182Y-8914936D02*
X7810658Y-8924460D01*
X7810658Y-8924460D02*
X7791610Y-8933984D01*
X7791610Y-8933984D02*
X7772562Y-8933984D01*
X7772562Y-8933984D02*
X7753515Y-8924460D01*
X7753515Y-8924460D02*
X7743991Y-8914936D01*
X7743991Y-8914936D02*
X7734467Y-8895889D01*
X7734467Y-8895889D02*
X7724943Y-8857793D01*
X7724943Y-8857793D02*
X7724943Y-8810174D01*
X7724943Y-8810174D02*
X7734467Y-8772079D01*
X7734467Y-8772079D02*
X7743991Y-8753031D01*
X7743991Y-8753031D02*
X7753515Y-8743508D01*
X7753515Y-8743508D02*
X7772562Y-8733984D01*
X7963039Y-8733984D02*
X7982086Y-8733984D01*
X7982086Y-8733984D02*
X8001134Y-8743508D01*
X8001134Y-8743508D02*
X8010658Y-8753031D01*
X8010658Y-8753031D02*
X8020182Y-8772079D01*
X8020182Y-8772079D02*
X8029705Y-8810174D01*
X8029705Y-8810174D02*
X8029705Y-8857793D01*
X8029705Y-8857793D02*
X8020182Y-8895889D01*
X8020182Y-8895889D02*
X8010658Y-8914936D01*
X8010658Y-8914936D02*
X8001134Y-8924460D01*
X8001134Y-8924460D02*
X7982086Y-8933984D01*
X7982086Y-8933984D02*
X7963039Y-8933984D01*
X7963039Y-8933984D02*
X7943991Y-8924460D01*
X7943991Y-8924460D02*
X7934467Y-8914936D01*
X7934467Y-8914936D02*
X7924943Y-8895889D01*
X7924943Y-8895889D02*
X7915420Y-8857793D01*
X7915420Y-8857793D02*
X7915420Y-8810174D01*
X7915420Y-8810174D02*
X7924943Y-8772079D01*
X7924943Y-8772079D02*
X7934467Y-8753031D01*
X7934467Y-8753031D02*
X7943991Y-8743508D01*
X7943991Y-8743508D02*
X7963039Y-8733984D01*
X8115420Y-8933984D02*
X8115420Y-8800650D01*
X8115420Y-8819698D02*
X8124943Y-8810174D01*
X8124943Y-8810174D02*
X8143991Y-8800650D01*
X8143991Y-8800650D02*
X8172563Y-8800650D01*
X8172563Y-8800650D02*
X8191610Y-8810174D01*
X8191610Y-8810174D02*
X8201134Y-8829222D01*
X8201134Y-8829222D02*
X8201134Y-8933984D01*
X8201134Y-8829222D02*
X8210658Y-8810174D01*
X8210658Y-8810174D02*
X8229705Y-8800650D01*
X8229705Y-8800650D02*
X8258277Y-8800650D01*
X8258277Y-8800650D02*
X8277324Y-8810174D01*
X8277324Y-8810174D02*
X8286848Y-8829222D01*
X8286848Y-8829222D02*
X8286848Y-8933984D01*
X8382086Y-8933984D02*
X8382086Y-8800650D01*
X8382086Y-8819698D02*
X8391610Y-8810174D01*
X8391610Y-8810174D02*
X8410658Y-8800650D01*
X8410658Y-8800650D02*
X8439229Y-8800650D01*
X8439229Y-8800650D02*
X8458277Y-8810174D01*
X8458277Y-8810174D02*
X8467801Y-8829222D01*
X8467801Y-8829222D02*
X8467801Y-8933984D01*
X8467801Y-8829222D02*
X8477325Y-8810174D01*
X8477325Y-8810174D02*
X8496372Y-8800650D01*
X8496372Y-8800650D02*
X8524944Y-8800650D01*
X8524944Y-8800650D02*
X8543991Y-8810174D01*
X8543991Y-8810174D02*
X8553515Y-8829222D01*
X8553515Y-8829222D02*
X8553515Y-8933984D01*
X8943991Y-8724460D02*
X8772563Y-8981603D01*
X9201134Y-8733984D02*
X9220182Y-8733984D01*
X9220182Y-8733984D02*
X9239229Y-8743508D01*
X9239229Y-8743508D02*
X9248753Y-8753031D01*
X9248753Y-8753031D02*
X9258277Y-8772079D01*
X9258277Y-8772079D02*
X9267801Y-8810174D01*
X9267801Y-8810174D02*
X9267801Y-8857793D01*
X9267801Y-8857793D02*
X9258277Y-8895889D01*
X9258277Y-8895889D02*
X9248753Y-8914936D01*
X9248753Y-8914936D02*
X9239229Y-8924460D01*
X9239229Y-8924460D02*
X9220182Y-8933984D01*
X9220182Y-8933984D02*
X9201134Y-8933984D01*
X9201134Y-8933984D02*
X9182087Y-8924460D01*
X9182087Y-8924460D02*
X9172563Y-8914936D01*
X9172563Y-8914936D02*
X9163039Y-8895889D01*
X9163039Y-8895889D02*
X9153515Y-8857793D01*
X9153515Y-8857793D02*
X9153515Y-8810174D01*
X9153515Y-8810174D02*
X9163039Y-8772079D01*
X9163039Y-8772079D02*
X9172563Y-8753031D01*
X9172563Y-8753031D02*
X9182087Y-8743508D01*
X9182087Y-8743508D02*
X9201134Y-8733984D01*
X9353515Y-8914936D02*
X9363039Y-8924460D01*
X9363039Y-8924460D02*
X9353515Y-8933984D01*
X9353515Y-8933984D02*
X9343991Y-8924460D01*
X9343991Y-8924460D02*
X9353515Y-8914936D01*
X9353515Y-8914936D02*
X9353515Y-8933984D01*
X9553515Y-8933984D02*
X9439229Y-8933984D01*
X9496372Y-8933984D02*
X9496372Y-8733984D01*
X9496372Y-8733984D02*
X9477325Y-8762555D01*
X9477325Y-8762555D02*
X9458277Y-8781603D01*
X9458277Y-8781603D02*
X9439229Y-8791127D01*
X9629706Y-8753031D02*
X9639229Y-8743508D01*
X9639229Y-8743508D02*
X9658277Y-8733984D01*
X9658277Y-8733984D02*
X9705896Y-8733984D01*
X9705896Y-8733984D02*
X9724944Y-8743508D01*
X9724944Y-8743508D02*
X9734468Y-8753031D01*
X9734468Y-8753031D02*
X9743991Y-8772079D01*
X9743991Y-8772079D02*
X9743991Y-8791127D01*
X9743991Y-8791127D02*
X9734468Y-8819698D01*
X9734468Y-8819698D02*
X9620182Y-8933984D01*
X9620182Y-8933984D02*
X9743991Y-8933984D01*
X9915420Y-8733984D02*
X9877325Y-8733984D01*
X9877325Y-8733984D02*
X9858277Y-8743508D01*
X9858277Y-8743508D02*
X9848753Y-8753031D01*
X9848753Y-8753031D02*
X9829706Y-8781603D01*
X9829706Y-8781603D02*
X9820182Y-8819698D01*
X9820182Y-8819698D02*
X9820182Y-8895889D01*
X9820182Y-8895889D02*
X9829706Y-8914936D01*
X9829706Y-8914936D02*
X9839229Y-8924460D01*
X9839229Y-8924460D02*
X9858277Y-8933984D01*
X9858277Y-8933984D02*
X9896372Y-8933984D01*
X9896372Y-8933984D02*
X9915420Y-8924460D01*
X9915420Y-8924460D02*
X9924944Y-8914936D01*
X9924944Y-8914936D02*
X9934468Y-8895889D01*
X9934468Y-8895889D02*
X9934468Y-8848270D01*
X9934468Y-8848270D02*
X9924944Y-8829222D01*
X9924944Y-8829222D02*
X9915420Y-8819698D01*
X9915420Y-8819698D02*
X9896372Y-8810174D01*
X9896372Y-8810174D02*
X9858277Y-8810174D01*
X9858277Y-8810174D02*
X9839229Y-8819698D01*
X9839229Y-8819698D02*
X9829706Y-8829222D01*
X9829706Y-8829222D02*
X9820182Y-8848270D01*
X10058277Y-8733984D02*
X10077325Y-8733984D01*
X10077325Y-8733984D02*
X10096372Y-8743508D01*
X10096372Y-8743508D02*
X10105896Y-8753031D01*
X10105896Y-8753031D02*
X10115420Y-8772079D01*
X10115420Y-8772079D02*
X10124944Y-8810174D01*
X10124944Y-8810174D02*
X10124944Y-8857793D01*
X10124944Y-8857793D02*
X10115420Y-8895889D01*
X10115420Y-8895889D02*
X10105896Y-8914936D01*
X10105896Y-8914936D02*
X10096372Y-8924460D01*
X10096372Y-8924460D02*
X10077325Y-8933984D01*
X10077325Y-8933984D02*
X10058277Y-8933984D01*
X10058277Y-8933984D02*
X10039229Y-8924460D01*
X10039229Y-8924460D02*
X10029706Y-8914936D01*
X10029706Y-8914936D02*
X10020182Y-8895889D01*
X10020182Y-8895889D02*
X10010658Y-8857793D01*
X10010658Y-8857793D02*
X10010658Y-8810174D01*
X10010658Y-8810174D02*
X10020182Y-8772079D01*
X10020182Y-8772079D02*
X10029706Y-8753031D01*
X10029706Y-8753031D02*
X10039229Y-8743508D01*
X10039229Y-8743508D02*
X10058277Y-8733984D01*
X10201134Y-8733984D02*
X10201134Y-8772079D01*
X10277325Y-8733984D02*
X10277325Y-8772079D01*
X10572563Y-9010174D02*
X10563039Y-9000650D01*
X10563039Y-9000650D02*
X10543991Y-8972079D01*
X10543991Y-8972079D02*
X10534468Y-8953031D01*
X10534468Y-8953031D02*
X10524944Y-8924460D01*
X10524944Y-8924460D02*
X10515420Y-8876841D01*
X10515420Y-8876841D02*
X10515420Y-8838746D01*
X10515420Y-8838746D02*
X10524944Y-8791127D01*
X10524944Y-8791127D02*
X10534468Y-8762555D01*
X10534468Y-8762555D02*
X10543991Y-8743508D01*
X10543991Y-8743508D02*
X10563039Y-8714936D01*
X10563039Y-8714936D02*
X10572563Y-8705412D01*
X10639230Y-8753031D02*
X10648753Y-8743508D01*
X10648753Y-8743508D02*
X10667801Y-8733984D01*
X10667801Y-8733984D02*
X10715420Y-8733984D01*
X10715420Y-8733984D02*
X10734468Y-8743508D01*
X10734468Y-8743508D02*
X10743991Y-8753031D01*
X10743991Y-8753031D02*
X10753515Y-8772079D01*
X10753515Y-8772079D02*
X10753515Y-8791127D01*
X10753515Y-8791127D02*
X10743991Y-8819698D01*
X10743991Y-8819698D02*
X10629706Y-8933984D01*
X10629706Y-8933984D02*
X10753515Y-8933984D01*
X10991611Y-8933984D02*
X10991611Y-8733984D01*
X11077325Y-8933984D02*
X11077325Y-8829222D01*
X11077325Y-8829222D02*
X11067801Y-8810174D01*
X11067801Y-8810174D02*
X11048753Y-8800650D01*
X11048753Y-8800650D02*
X11020182Y-8800650D01*
X11020182Y-8800650D02*
X11001134Y-8810174D01*
X11001134Y-8810174D02*
X10991611Y-8819698D01*
X11201134Y-8933984D02*
X11182087Y-8924460D01*
X11182087Y-8924460D02*
X11172563Y-8914936D01*
X11172563Y-8914936D02*
X11163039Y-8895889D01*
X11163039Y-8895889D02*
X11163039Y-8838746D01*
X11163039Y-8838746D02*
X11172563Y-8819698D01*
X11172563Y-8819698D02*
X11182087Y-8810174D01*
X11182087Y-8810174D02*
X11201134Y-8800650D01*
X11201134Y-8800650D02*
X11229706Y-8800650D01*
X11229706Y-8800650D02*
X11248753Y-8810174D01*
X11248753Y-8810174D02*
X11258277Y-8819698D01*
X11258277Y-8819698D02*
X11267801Y-8838746D01*
X11267801Y-8838746D02*
X11267801Y-8895889D01*
X11267801Y-8895889D02*
X11258277Y-8914936D01*
X11258277Y-8914936D02*
X11248753Y-8924460D01*
X11248753Y-8924460D02*
X11229706Y-8933984D01*
X11229706Y-8933984D02*
X11201134Y-8933984D01*
X11382087Y-8933984D02*
X11363039Y-8924460D01*
X11363039Y-8924460D02*
X11353515Y-8905412D01*
X11353515Y-8905412D02*
X11353515Y-8733984D01*
X11534468Y-8924460D02*
X11515420Y-8933984D01*
X11515420Y-8933984D02*
X11477325Y-8933984D01*
X11477325Y-8933984D02*
X11458277Y-8924460D01*
X11458277Y-8924460D02*
X11448753Y-8905412D01*
X11448753Y-8905412D02*
X11448753Y-8829222D01*
X11448753Y-8829222D02*
X11458277Y-8810174D01*
X11458277Y-8810174D02*
X11477325Y-8800650D01*
X11477325Y-8800650D02*
X11515420Y-8800650D01*
X11515420Y-8800650D02*
X11534468Y-8810174D01*
X11534468Y-8810174D02*
X11543991Y-8829222D01*
X11543991Y-8829222D02*
X11543991Y-8848270D01*
X11543991Y-8848270D02*
X11448753Y-8867317D01*
X11620182Y-8924460D02*
X11639230Y-8933984D01*
X11639230Y-8933984D02*
X11677325Y-8933984D01*
X11677325Y-8933984D02*
X11696372Y-8924460D01*
X11696372Y-8924460D02*
X11705896Y-8905412D01*
X11705896Y-8905412D02*
X11705896Y-8895889D01*
X11705896Y-8895889D02*
X11696372Y-8876841D01*
X11696372Y-8876841D02*
X11677325Y-8867317D01*
X11677325Y-8867317D02*
X11648753Y-8867317D01*
X11648753Y-8867317D02*
X11629706Y-8857793D01*
X11629706Y-8857793D02*
X11620182Y-8838746D01*
X11620182Y-8838746D02*
X11620182Y-8829222D01*
X11620182Y-8829222D02*
X11629706Y-8810174D01*
X11629706Y-8810174D02*
X11648753Y-8800650D01*
X11648753Y-8800650D02*
X11677325Y-8800650D01*
X11677325Y-8800650D02*
X11696372Y-8810174D01*
X11772563Y-9010174D02*
X11782087Y-9000650D01*
X11782087Y-9000650D02*
X11801134Y-8972079D01*
X11801134Y-8972079D02*
X11810658Y-8953031D01*
X11810658Y-8953031D02*
X11820182Y-8924460D01*
X11820182Y-8924460D02*
X11829706Y-8876841D01*
X11829706Y-8876841D02*
X11829706Y-8838746D01*
X11829706Y-8838746D02*
X11820182Y-8791127D01*
X11820182Y-8791127D02*
X11810658Y-8762555D01*
X11810658Y-8762555D02*
X11801134Y-8743508D01*
X11801134Y-8743508D02*
X11782087Y-8714936D01*
X11782087Y-8714936D02*
X11772563Y-8705412D01*
X12134468Y-9010174D02*
X12124944Y-9000650D01*
X12124944Y-9000650D02*
X12105896Y-8972079D01*
X12105896Y-8972079D02*
X12096372Y-8953031D01*
X12096372Y-8953031D02*
X12086849Y-8924460D01*
X12086849Y-8924460D02*
X12077325Y-8876841D01*
X12077325Y-8876841D02*
X12077325Y-8838746D01*
X12077325Y-8838746D02*
X12086849Y-8791127D01*
X12086849Y-8791127D02*
X12096372Y-8762555D01*
X12096372Y-8762555D02*
X12105896Y-8743508D01*
X12105896Y-8743508D02*
X12124944Y-8714936D01*
X12124944Y-8714936D02*
X12134468Y-8705412D01*
X12210658Y-8800650D02*
X12210658Y-8933984D01*
X12210658Y-8819698D02*
X12220182Y-8810174D01*
X12220182Y-8810174D02*
X12239230Y-8800650D01*
X12239230Y-8800650D02*
X12267801Y-8800650D01*
X12267801Y-8800650D02*
X12286849Y-8810174D01*
X12286849Y-8810174D02*
X12296372Y-8829222D01*
X12296372Y-8829222D02*
X12296372Y-8933984D01*
X12420182Y-8933984D02*
X12401134Y-8924460D01*
X12401134Y-8924460D02*
X12391611Y-8914936D01*
X12391611Y-8914936D02*
X12382087Y-8895889D01*
X12382087Y-8895889D02*
X12382087Y-8838746D01*
X12382087Y-8838746D02*
X12391611Y-8819698D01*
X12391611Y-8819698D02*
X12401134Y-8810174D01*
X12401134Y-8810174D02*
X12420182Y-8800650D01*
X12420182Y-8800650D02*
X12448753Y-8800650D01*
X12448753Y-8800650D02*
X12467801Y-8810174D01*
X12467801Y-8810174D02*
X12477325Y-8819698D01*
X12477325Y-8819698D02*
X12486849Y-8838746D01*
X12486849Y-8838746D02*
X12486849Y-8895889D01*
X12486849Y-8895889D02*
X12477325Y-8914936D01*
X12477325Y-8914936D02*
X12467801Y-8924460D01*
X12467801Y-8924460D02*
X12448753Y-8933984D01*
X12448753Y-8933984D02*
X12420182Y-8933984D01*
X12543992Y-8800650D02*
X12620182Y-8800650D01*
X12572563Y-8733984D02*
X12572563Y-8905412D01*
X12572563Y-8905412D02*
X12582087Y-8924460D01*
X12582087Y-8924460D02*
X12601134Y-8933984D01*
X12601134Y-8933984D02*
X12620182Y-8933984D01*
X12839230Y-8800650D02*
X12839230Y-9000650D01*
X12839230Y-8810174D02*
X12858277Y-8800650D01*
X12858277Y-8800650D02*
X12896373Y-8800650D01*
X12896373Y-8800650D02*
X12915420Y-8810174D01*
X12915420Y-8810174D02*
X12924944Y-8819698D01*
X12924944Y-8819698D02*
X12934468Y-8838746D01*
X12934468Y-8838746D02*
X12934468Y-8895889D01*
X12934468Y-8895889D02*
X12924944Y-8914936D01*
X12924944Y-8914936D02*
X12915420Y-8924460D01*
X12915420Y-8924460D02*
X12896373Y-8933984D01*
X12896373Y-8933984D02*
X12858277Y-8933984D01*
X12858277Y-8933984D02*
X12839230Y-8924460D01*
X13048753Y-8933984D02*
X13029706Y-8924460D01*
X13029706Y-8924460D02*
X13020182Y-8905412D01*
X13020182Y-8905412D02*
X13020182Y-8733984D01*
X13210658Y-8933984D02*
X13210658Y-8829222D01*
X13210658Y-8829222D02*
X13201134Y-8810174D01*
X13201134Y-8810174D02*
X13182087Y-8800650D01*
X13182087Y-8800650D02*
X13143992Y-8800650D01*
X13143992Y-8800650D02*
X13124944Y-8810174D01*
X13210658Y-8924460D02*
X13191611Y-8933984D01*
X13191611Y-8933984D02*
X13143992Y-8933984D01*
X13143992Y-8933984D02*
X13124944Y-8924460D01*
X13124944Y-8924460D02*
X13115420Y-8905412D01*
X13115420Y-8905412D02*
X13115420Y-8886365D01*
X13115420Y-8886365D02*
X13124944Y-8867317D01*
X13124944Y-8867317D02*
X13143992Y-8857793D01*
X13143992Y-8857793D02*
X13191611Y-8857793D01*
X13191611Y-8857793D02*
X13210658Y-8848270D01*
X13277325Y-8800650D02*
X13353515Y-8800650D01*
X13305896Y-8733984D02*
X13305896Y-8905412D01*
X13305896Y-8905412D02*
X13315420Y-8924460D01*
X13315420Y-8924460D02*
X13334468Y-8933984D01*
X13334468Y-8933984D02*
X13353515Y-8933984D01*
X13496373Y-8924460D02*
X13477325Y-8933984D01*
X13477325Y-8933984D02*
X13439230Y-8933984D01*
X13439230Y-8933984D02*
X13420182Y-8924460D01*
X13420182Y-8924460D02*
X13410658Y-8905412D01*
X13410658Y-8905412D02*
X13410658Y-8829222D01*
X13410658Y-8829222D02*
X13420182Y-8810174D01*
X13420182Y-8810174D02*
X13439230Y-8800650D01*
X13439230Y-8800650D02*
X13477325Y-8800650D01*
X13477325Y-8800650D02*
X13496373Y-8810174D01*
X13496373Y-8810174D02*
X13505896Y-8829222D01*
X13505896Y-8829222D02*
X13505896Y-8848270D01*
X13505896Y-8848270D02*
X13410658Y-8867317D01*
X13677325Y-8933984D02*
X13677325Y-8733984D01*
X13677325Y-8924460D02*
X13658277Y-8933984D01*
X13658277Y-8933984D02*
X13620182Y-8933984D01*
X13620182Y-8933984D02*
X13601134Y-8924460D01*
X13601134Y-8924460D02*
X13591611Y-8914936D01*
X13591611Y-8914936D02*
X13582087Y-8895889D01*
X13582087Y-8895889D02*
X13582087Y-8838746D01*
X13582087Y-8838746D02*
X13591611Y-8819698D01*
X13591611Y-8819698D02*
X13601134Y-8810174D01*
X13601134Y-8810174D02*
X13620182Y-8800650D01*
X13620182Y-8800650D02*
X13658277Y-8800650D01*
X13658277Y-8800650D02*
X13677325Y-8810174D01*
X13753515Y-9010174D02*
X13763039Y-9000650D01*
X13763039Y-9000650D02*
X13782087Y-8972079D01*
X13782087Y-8972079D02*
X13791611Y-8953031D01*
X13791611Y-8953031D02*
X13801134Y-8924460D01*
X13801134Y-8924460D02*
X13810658Y-8876841D01*
X13810658Y-8876841D02*
X13810658Y-8838746D01*
X13810658Y-8838746D02*
X13801134Y-8791127D01*
X13801134Y-8791127D02*
X13791611Y-8762555D01*
X13791611Y-8762555D02*
X13782087Y-8743508D01*
X13782087Y-8743508D02*
X13763039Y-8714936D01*
X13763039Y-8714936D02*
X13753515Y-8705412D01*
M02*
