G04 #@! TF.GenerationSoftware,KiCad,Pcbnew,9.0.7*
G04 #@! TF.CreationDate,2026-03-18T19:09:14+09:00*
G04 #@! TF.ProjectId,CAN hub 5,43414e20-6875-4622-9035-2e6b69636164,rev?*
G04 #@! TF.SameCoordinates,Original*
G04 #@! TF.FileFunction,Legend,Top*
G04 #@! TF.FilePolarity,Positive*
%FSLAX46Y46*%
G04 Gerber Fmt 4.6, Leading zero omitted, Abs format (unit mm)*
G04 Created by KiCad (PCBNEW 9.0.7) date 2026-03-18 19:09:14*
%MOMM*%
%LPD*%
G01*
G04 APERTURE LIST*
%ADD10C,0.200000*%
%ADD11C,0.150000*%
%ADD12C,0.120000*%
G04 APERTURE END LIST*
D10*
G36*
X76626482Y-73353330D02*
G01*
X73158562Y-73353330D01*
X73158562Y-72142219D01*
X73269673Y-72142219D01*
X73269673Y-73142219D01*
X73271594Y-73161728D01*
X73286526Y-73197776D01*
X73314116Y-73225366D01*
X73350164Y-73240298D01*
X73389182Y-73240298D01*
X73425230Y-73225366D01*
X73452820Y-73197776D01*
X73467752Y-73161728D01*
X73469673Y-73142219D01*
X73469673Y-72718409D01*
X73841101Y-72718409D01*
X73841101Y-73142219D01*
X73843022Y-73161728D01*
X73857954Y-73197776D01*
X73885544Y-73225366D01*
X73921592Y-73240298D01*
X73960610Y-73240298D01*
X73996658Y-73225366D01*
X74024248Y-73197776D01*
X74039180Y-73161728D01*
X74041101Y-73142219D01*
X74041101Y-72142219D01*
X75841102Y-72142219D01*
X75841102Y-73142219D01*
X75843023Y-73161728D01*
X75857955Y-73197776D01*
X75885545Y-73225366D01*
X75921593Y-73240298D01*
X75941102Y-73242219D01*
X76417292Y-73242219D01*
X76436801Y-73240298D01*
X76472849Y-73225366D01*
X76500439Y-73197776D01*
X76515371Y-73161728D01*
X76515371Y-73122710D01*
X76500439Y-73086662D01*
X76472849Y-73059072D01*
X76436801Y-73044140D01*
X76417292Y-73042219D01*
X76041102Y-73042219D01*
X76041102Y-72142219D01*
X76039181Y-72122710D01*
X76024249Y-72086662D01*
X75996659Y-72059072D01*
X75960611Y-72044140D01*
X75921593Y-72044140D01*
X75885545Y-72059072D01*
X75857955Y-72086662D01*
X75843023Y-72122710D01*
X75841102Y-72142219D01*
X74041101Y-72142219D01*
X74039180Y-72122710D01*
X74024248Y-72086662D01*
X73996658Y-72059072D01*
X73960610Y-72044140D01*
X73921592Y-72044140D01*
X73885544Y-72059072D01*
X73857954Y-72086662D01*
X73843022Y-72122710D01*
X73841101Y-72142219D01*
X73841101Y-72518409D01*
X73469673Y-72518409D01*
X73469673Y-72142219D01*
X73467752Y-72122710D01*
X73452820Y-72086662D01*
X73425230Y-72059072D01*
X73389182Y-72044140D01*
X73350164Y-72044140D01*
X73314116Y-72059072D01*
X73286526Y-72086662D01*
X73271594Y-72122710D01*
X73269673Y-72142219D01*
X73158562Y-72142219D01*
X73158562Y-71933029D01*
X76626482Y-71933029D01*
X76626482Y-73353330D01*
G37*
D11*
X72049999Y-64784580D02*
X72002380Y-64832200D01*
X72002380Y-64832200D02*
X71859523Y-64879819D01*
X71859523Y-64879819D02*
X71764285Y-64879819D01*
X71764285Y-64879819D02*
X71621428Y-64832200D01*
X71621428Y-64832200D02*
X71526190Y-64736961D01*
X71526190Y-64736961D02*
X71478571Y-64641723D01*
X71478571Y-64641723D02*
X71430952Y-64451247D01*
X71430952Y-64451247D02*
X71430952Y-64308390D01*
X71430952Y-64308390D02*
X71478571Y-64117914D01*
X71478571Y-64117914D02*
X71526190Y-64022676D01*
X71526190Y-64022676D02*
X71621428Y-63927438D01*
X71621428Y-63927438D02*
X71764285Y-63879819D01*
X71764285Y-63879819D02*
X71859523Y-63879819D01*
X71859523Y-63879819D02*
X72002380Y-63927438D01*
X72002380Y-63927438D02*
X72049999Y-63975057D01*
X72430952Y-64594104D02*
X72907142Y-64594104D01*
X72335714Y-64879819D02*
X72669047Y-63879819D01*
X72669047Y-63879819D02*
X73002380Y-64879819D01*
X73335714Y-64879819D02*
X73335714Y-63879819D01*
X73335714Y-63879819D02*
X73907142Y-64879819D01*
X73907142Y-64879819D02*
X73907142Y-63879819D01*
X74145238Y-64975057D02*
X74907142Y-64975057D01*
X75478571Y-64356009D02*
X75621428Y-64403628D01*
X75621428Y-64403628D02*
X75669047Y-64451247D01*
X75669047Y-64451247D02*
X75716666Y-64546485D01*
X75716666Y-64546485D02*
X75716666Y-64689342D01*
X75716666Y-64689342D02*
X75669047Y-64784580D01*
X75669047Y-64784580D02*
X75621428Y-64832200D01*
X75621428Y-64832200D02*
X75526190Y-64879819D01*
X75526190Y-64879819D02*
X75145238Y-64879819D01*
X75145238Y-64879819D02*
X75145238Y-63879819D01*
X75145238Y-63879819D02*
X75478571Y-63879819D01*
X75478571Y-63879819D02*
X75573809Y-63927438D01*
X75573809Y-63927438D02*
X75621428Y-63975057D01*
X75621428Y-63975057D02*
X75669047Y-64070295D01*
X75669047Y-64070295D02*
X75669047Y-64165533D01*
X75669047Y-64165533D02*
X75621428Y-64260771D01*
X75621428Y-64260771D02*
X75573809Y-64308390D01*
X75573809Y-64308390D02*
X75478571Y-64356009D01*
X75478571Y-64356009D02*
X75145238Y-64356009D01*
X76145238Y-63879819D02*
X76145238Y-64689342D01*
X76145238Y-64689342D02*
X76192857Y-64784580D01*
X76192857Y-64784580D02*
X76240476Y-64832200D01*
X76240476Y-64832200D02*
X76335714Y-64879819D01*
X76335714Y-64879819D02*
X76526190Y-64879819D01*
X76526190Y-64879819D02*
X76621428Y-64832200D01*
X76621428Y-64832200D02*
X76669047Y-64784580D01*
X76669047Y-64784580D02*
X76716666Y-64689342D01*
X76716666Y-64689342D02*
X76716666Y-63879819D01*
X77145238Y-64832200D02*
X77288095Y-64879819D01*
X77288095Y-64879819D02*
X77526190Y-64879819D01*
X77526190Y-64879819D02*
X77621428Y-64832200D01*
X77621428Y-64832200D02*
X77669047Y-64784580D01*
X77669047Y-64784580D02*
X77716666Y-64689342D01*
X77716666Y-64689342D02*
X77716666Y-64594104D01*
X77716666Y-64594104D02*
X77669047Y-64498866D01*
X77669047Y-64498866D02*
X77621428Y-64451247D01*
X77621428Y-64451247D02*
X77526190Y-64403628D01*
X77526190Y-64403628D02*
X77335714Y-64356009D01*
X77335714Y-64356009D02*
X77240476Y-64308390D01*
X77240476Y-64308390D02*
X77192857Y-64260771D01*
X77192857Y-64260771D02*
X77145238Y-64165533D01*
X77145238Y-64165533D02*
X77145238Y-64070295D01*
X77145238Y-64070295D02*
X77192857Y-63975057D01*
X77192857Y-63975057D02*
X77240476Y-63927438D01*
X77240476Y-63927438D02*
X77335714Y-63879819D01*
X77335714Y-63879819D02*
X77573809Y-63879819D01*
X77573809Y-63879819D02*
X77716666Y-63927438D01*
X78621428Y-63879819D02*
X78145238Y-63879819D01*
X78145238Y-63879819D02*
X78097619Y-64356009D01*
X78097619Y-64356009D02*
X78145238Y-64308390D01*
X78145238Y-64308390D02*
X78240476Y-64260771D01*
X78240476Y-64260771D02*
X78478571Y-64260771D01*
X78478571Y-64260771D02*
X78573809Y-64308390D01*
X78573809Y-64308390D02*
X78621428Y-64356009D01*
X78621428Y-64356009D02*
X78669047Y-64451247D01*
X78669047Y-64451247D02*
X78669047Y-64689342D01*
X78669047Y-64689342D02*
X78621428Y-64784580D01*
X78621428Y-64784580D02*
X78573809Y-64832200D01*
X78573809Y-64832200D02*
X78478571Y-64879819D01*
X78478571Y-64879819D02*
X78240476Y-64879819D01*
X78240476Y-64879819D02*
X78145238Y-64832200D01*
X78145238Y-64832200D02*
X78097619Y-64784580D01*
X72049999Y-32384580D02*
X72002380Y-32432200D01*
X72002380Y-32432200D02*
X71859523Y-32479819D01*
X71859523Y-32479819D02*
X71764285Y-32479819D01*
X71764285Y-32479819D02*
X71621428Y-32432200D01*
X71621428Y-32432200D02*
X71526190Y-32336961D01*
X71526190Y-32336961D02*
X71478571Y-32241723D01*
X71478571Y-32241723D02*
X71430952Y-32051247D01*
X71430952Y-32051247D02*
X71430952Y-31908390D01*
X71430952Y-31908390D02*
X71478571Y-31717914D01*
X71478571Y-31717914D02*
X71526190Y-31622676D01*
X71526190Y-31622676D02*
X71621428Y-31527438D01*
X71621428Y-31527438D02*
X71764285Y-31479819D01*
X71764285Y-31479819D02*
X71859523Y-31479819D01*
X71859523Y-31479819D02*
X72002380Y-31527438D01*
X72002380Y-31527438D02*
X72049999Y-31575057D01*
X72430952Y-32194104D02*
X72907142Y-32194104D01*
X72335714Y-32479819D02*
X72669047Y-31479819D01*
X72669047Y-31479819D02*
X73002380Y-32479819D01*
X73335714Y-32479819D02*
X73335714Y-31479819D01*
X73335714Y-31479819D02*
X73907142Y-32479819D01*
X73907142Y-32479819D02*
X73907142Y-31479819D01*
X74145238Y-32575057D02*
X74907142Y-32575057D01*
X75478571Y-31956009D02*
X75621428Y-32003628D01*
X75621428Y-32003628D02*
X75669047Y-32051247D01*
X75669047Y-32051247D02*
X75716666Y-32146485D01*
X75716666Y-32146485D02*
X75716666Y-32289342D01*
X75716666Y-32289342D02*
X75669047Y-32384580D01*
X75669047Y-32384580D02*
X75621428Y-32432200D01*
X75621428Y-32432200D02*
X75526190Y-32479819D01*
X75526190Y-32479819D02*
X75145238Y-32479819D01*
X75145238Y-32479819D02*
X75145238Y-31479819D01*
X75145238Y-31479819D02*
X75478571Y-31479819D01*
X75478571Y-31479819D02*
X75573809Y-31527438D01*
X75573809Y-31527438D02*
X75621428Y-31575057D01*
X75621428Y-31575057D02*
X75669047Y-31670295D01*
X75669047Y-31670295D02*
X75669047Y-31765533D01*
X75669047Y-31765533D02*
X75621428Y-31860771D01*
X75621428Y-31860771D02*
X75573809Y-31908390D01*
X75573809Y-31908390D02*
X75478571Y-31956009D01*
X75478571Y-31956009D02*
X75145238Y-31956009D01*
X76145238Y-31479819D02*
X76145238Y-32289342D01*
X76145238Y-32289342D02*
X76192857Y-32384580D01*
X76192857Y-32384580D02*
X76240476Y-32432200D01*
X76240476Y-32432200D02*
X76335714Y-32479819D01*
X76335714Y-32479819D02*
X76526190Y-32479819D01*
X76526190Y-32479819D02*
X76621428Y-32432200D01*
X76621428Y-32432200D02*
X76669047Y-32384580D01*
X76669047Y-32384580D02*
X76716666Y-32289342D01*
X76716666Y-32289342D02*
X76716666Y-31479819D01*
X77145238Y-32432200D02*
X77288095Y-32479819D01*
X77288095Y-32479819D02*
X77526190Y-32479819D01*
X77526190Y-32479819D02*
X77621428Y-32432200D01*
X77621428Y-32432200D02*
X77669047Y-32384580D01*
X77669047Y-32384580D02*
X77716666Y-32289342D01*
X77716666Y-32289342D02*
X77716666Y-32194104D01*
X77716666Y-32194104D02*
X77669047Y-32098866D01*
X77669047Y-32098866D02*
X77621428Y-32051247D01*
X77621428Y-32051247D02*
X77526190Y-32003628D01*
X77526190Y-32003628D02*
X77335714Y-31956009D01*
X77335714Y-31956009D02*
X77240476Y-31908390D01*
X77240476Y-31908390D02*
X77192857Y-31860771D01*
X77192857Y-31860771D02*
X77145238Y-31765533D01*
X77145238Y-31765533D02*
X77145238Y-31670295D01*
X77145238Y-31670295D02*
X77192857Y-31575057D01*
X77192857Y-31575057D02*
X77240476Y-31527438D01*
X77240476Y-31527438D02*
X77335714Y-31479819D01*
X77335714Y-31479819D02*
X77573809Y-31479819D01*
X77573809Y-31479819D02*
X77716666Y-31527438D01*
X78669047Y-32479819D02*
X78097619Y-32479819D01*
X78383333Y-32479819D02*
X78383333Y-31479819D01*
X78383333Y-31479819D02*
X78288095Y-31622676D01*
X78288095Y-31622676D02*
X78192857Y-31717914D01*
X78192857Y-31717914D02*
X78097619Y-31765533D01*
X72049999Y-56684580D02*
X72002380Y-56732200D01*
X72002380Y-56732200D02*
X71859523Y-56779819D01*
X71859523Y-56779819D02*
X71764285Y-56779819D01*
X71764285Y-56779819D02*
X71621428Y-56732200D01*
X71621428Y-56732200D02*
X71526190Y-56636961D01*
X71526190Y-56636961D02*
X71478571Y-56541723D01*
X71478571Y-56541723D02*
X71430952Y-56351247D01*
X71430952Y-56351247D02*
X71430952Y-56208390D01*
X71430952Y-56208390D02*
X71478571Y-56017914D01*
X71478571Y-56017914D02*
X71526190Y-55922676D01*
X71526190Y-55922676D02*
X71621428Y-55827438D01*
X71621428Y-55827438D02*
X71764285Y-55779819D01*
X71764285Y-55779819D02*
X71859523Y-55779819D01*
X71859523Y-55779819D02*
X72002380Y-55827438D01*
X72002380Y-55827438D02*
X72049999Y-55875057D01*
X72430952Y-56494104D02*
X72907142Y-56494104D01*
X72335714Y-56779819D02*
X72669047Y-55779819D01*
X72669047Y-55779819D02*
X73002380Y-56779819D01*
X73335714Y-56779819D02*
X73335714Y-55779819D01*
X73335714Y-55779819D02*
X73907142Y-56779819D01*
X73907142Y-56779819D02*
X73907142Y-55779819D01*
X74145238Y-56875057D02*
X74907142Y-56875057D01*
X75478571Y-56256009D02*
X75621428Y-56303628D01*
X75621428Y-56303628D02*
X75669047Y-56351247D01*
X75669047Y-56351247D02*
X75716666Y-56446485D01*
X75716666Y-56446485D02*
X75716666Y-56589342D01*
X75716666Y-56589342D02*
X75669047Y-56684580D01*
X75669047Y-56684580D02*
X75621428Y-56732200D01*
X75621428Y-56732200D02*
X75526190Y-56779819D01*
X75526190Y-56779819D02*
X75145238Y-56779819D01*
X75145238Y-56779819D02*
X75145238Y-55779819D01*
X75145238Y-55779819D02*
X75478571Y-55779819D01*
X75478571Y-55779819D02*
X75573809Y-55827438D01*
X75573809Y-55827438D02*
X75621428Y-55875057D01*
X75621428Y-55875057D02*
X75669047Y-55970295D01*
X75669047Y-55970295D02*
X75669047Y-56065533D01*
X75669047Y-56065533D02*
X75621428Y-56160771D01*
X75621428Y-56160771D02*
X75573809Y-56208390D01*
X75573809Y-56208390D02*
X75478571Y-56256009D01*
X75478571Y-56256009D02*
X75145238Y-56256009D01*
X76145238Y-55779819D02*
X76145238Y-56589342D01*
X76145238Y-56589342D02*
X76192857Y-56684580D01*
X76192857Y-56684580D02*
X76240476Y-56732200D01*
X76240476Y-56732200D02*
X76335714Y-56779819D01*
X76335714Y-56779819D02*
X76526190Y-56779819D01*
X76526190Y-56779819D02*
X76621428Y-56732200D01*
X76621428Y-56732200D02*
X76669047Y-56684580D01*
X76669047Y-56684580D02*
X76716666Y-56589342D01*
X76716666Y-56589342D02*
X76716666Y-55779819D01*
X77145238Y-56732200D02*
X77288095Y-56779819D01*
X77288095Y-56779819D02*
X77526190Y-56779819D01*
X77526190Y-56779819D02*
X77621428Y-56732200D01*
X77621428Y-56732200D02*
X77669047Y-56684580D01*
X77669047Y-56684580D02*
X77716666Y-56589342D01*
X77716666Y-56589342D02*
X77716666Y-56494104D01*
X77716666Y-56494104D02*
X77669047Y-56398866D01*
X77669047Y-56398866D02*
X77621428Y-56351247D01*
X77621428Y-56351247D02*
X77526190Y-56303628D01*
X77526190Y-56303628D02*
X77335714Y-56256009D01*
X77335714Y-56256009D02*
X77240476Y-56208390D01*
X77240476Y-56208390D02*
X77192857Y-56160771D01*
X77192857Y-56160771D02*
X77145238Y-56065533D01*
X77145238Y-56065533D02*
X77145238Y-55970295D01*
X77145238Y-55970295D02*
X77192857Y-55875057D01*
X77192857Y-55875057D02*
X77240476Y-55827438D01*
X77240476Y-55827438D02*
X77335714Y-55779819D01*
X77335714Y-55779819D02*
X77573809Y-55779819D01*
X77573809Y-55779819D02*
X77716666Y-55827438D01*
X78573809Y-56113152D02*
X78573809Y-56779819D01*
X78335714Y-55732200D02*
X78097619Y-56446485D01*
X78097619Y-56446485D02*
X78716666Y-56446485D01*
X72049999Y-40484580D02*
X72002380Y-40532200D01*
X72002380Y-40532200D02*
X71859523Y-40579819D01*
X71859523Y-40579819D02*
X71764285Y-40579819D01*
X71764285Y-40579819D02*
X71621428Y-40532200D01*
X71621428Y-40532200D02*
X71526190Y-40436961D01*
X71526190Y-40436961D02*
X71478571Y-40341723D01*
X71478571Y-40341723D02*
X71430952Y-40151247D01*
X71430952Y-40151247D02*
X71430952Y-40008390D01*
X71430952Y-40008390D02*
X71478571Y-39817914D01*
X71478571Y-39817914D02*
X71526190Y-39722676D01*
X71526190Y-39722676D02*
X71621428Y-39627438D01*
X71621428Y-39627438D02*
X71764285Y-39579819D01*
X71764285Y-39579819D02*
X71859523Y-39579819D01*
X71859523Y-39579819D02*
X72002380Y-39627438D01*
X72002380Y-39627438D02*
X72049999Y-39675057D01*
X72430952Y-40294104D02*
X72907142Y-40294104D01*
X72335714Y-40579819D02*
X72669047Y-39579819D01*
X72669047Y-39579819D02*
X73002380Y-40579819D01*
X73335714Y-40579819D02*
X73335714Y-39579819D01*
X73335714Y-39579819D02*
X73907142Y-40579819D01*
X73907142Y-40579819D02*
X73907142Y-39579819D01*
X74145238Y-40675057D02*
X74907142Y-40675057D01*
X75478571Y-40056009D02*
X75621428Y-40103628D01*
X75621428Y-40103628D02*
X75669047Y-40151247D01*
X75669047Y-40151247D02*
X75716666Y-40246485D01*
X75716666Y-40246485D02*
X75716666Y-40389342D01*
X75716666Y-40389342D02*
X75669047Y-40484580D01*
X75669047Y-40484580D02*
X75621428Y-40532200D01*
X75621428Y-40532200D02*
X75526190Y-40579819D01*
X75526190Y-40579819D02*
X75145238Y-40579819D01*
X75145238Y-40579819D02*
X75145238Y-39579819D01*
X75145238Y-39579819D02*
X75478571Y-39579819D01*
X75478571Y-39579819D02*
X75573809Y-39627438D01*
X75573809Y-39627438D02*
X75621428Y-39675057D01*
X75621428Y-39675057D02*
X75669047Y-39770295D01*
X75669047Y-39770295D02*
X75669047Y-39865533D01*
X75669047Y-39865533D02*
X75621428Y-39960771D01*
X75621428Y-39960771D02*
X75573809Y-40008390D01*
X75573809Y-40008390D02*
X75478571Y-40056009D01*
X75478571Y-40056009D02*
X75145238Y-40056009D01*
X76145238Y-39579819D02*
X76145238Y-40389342D01*
X76145238Y-40389342D02*
X76192857Y-40484580D01*
X76192857Y-40484580D02*
X76240476Y-40532200D01*
X76240476Y-40532200D02*
X76335714Y-40579819D01*
X76335714Y-40579819D02*
X76526190Y-40579819D01*
X76526190Y-40579819D02*
X76621428Y-40532200D01*
X76621428Y-40532200D02*
X76669047Y-40484580D01*
X76669047Y-40484580D02*
X76716666Y-40389342D01*
X76716666Y-40389342D02*
X76716666Y-39579819D01*
X77145238Y-40532200D02*
X77288095Y-40579819D01*
X77288095Y-40579819D02*
X77526190Y-40579819D01*
X77526190Y-40579819D02*
X77621428Y-40532200D01*
X77621428Y-40532200D02*
X77669047Y-40484580D01*
X77669047Y-40484580D02*
X77716666Y-40389342D01*
X77716666Y-40389342D02*
X77716666Y-40294104D01*
X77716666Y-40294104D02*
X77669047Y-40198866D01*
X77669047Y-40198866D02*
X77621428Y-40151247D01*
X77621428Y-40151247D02*
X77526190Y-40103628D01*
X77526190Y-40103628D02*
X77335714Y-40056009D01*
X77335714Y-40056009D02*
X77240476Y-40008390D01*
X77240476Y-40008390D02*
X77192857Y-39960771D01*
X77192857Y-39960771D02*
X77145238Y-39865533D01*
X77145238Y-39865533D02*
X77145238Y-39770295D01*
X77145238Y-39770295D02*
X77192857Y-39675057D01*
X77192857Y-39675057D02*
X77240476Y-39627438D01*
X77240476Y-39627438D02*
X77335714Y-39579819D01*
X77335714Y-39579819D02*
X77573809Y-39579819D01*
X77573809Y-39579819D02*
X77716666Y-39627438D01*
X78097619Y-39675057D02*
X78145238Y-39627438D01*
X78145238Y-39627438D02*
X78240476Y-39579819D01*
X78240476Y-39579819D02*
X78478571Y-39579819D01*
X78478571Y-39579819D02*
X78573809Y-39627438D01*
X78573809Y-39627438D02*
X78621428Y-39675057D01*
X78621428Y-39675057D02*
X78669047Y-39770295D01*
X78669047Y-39770295D02*
X78669047Y-39865533D01*
X78669047Y-39865533D02*
X78621428Y-40008390D01*
X78621428Y-40008390D02*
X78050000Y-40579819D01*
X78050000Y-40579819D02*
X78669047Y-40579819D01*
X72049999Y-48584580D02*
X72002380Y-48632200D01*
X72002380Y-48632200D02*
X71859523Y-48679819D01*
X71859523Y-48679819D02*
X71764285Y-48679819D01*
X71764285Y-48679819D02*
X71621428Y-48632200D01*
X71621428Y-48632200D02*
X71526190Y-48536961D01*
X71526190Y-48536961D02*
X71478571Y-48441723D01*
X71478571Y-48441723D02*
X71430952Y-48251247D01*
X71430952Y-48251247D02*
X71430952Y-48108390D01*
X71430952Y-48108390D02*
X71478571Y-47917914D01*
X71478571Y-47917914D02*
X71526190Y-47822676D01*
X71526190Y-47822676D02*
X71621428Y-47727438D01*
X71621428Y-47727438D02*
X71764285Y-47679819D01*
X71764285Y-47679819D02*
X71859523Y-47679819D01*
X71859523Y-47679819D02*
X72002380Y-47727438D01*
X72002380Y-47727438D02*
X72049999Y-47775057D01*
X72430952Y-48394104D02*
X72907142Y-48394104D01*
X72335714Y-48679819D02*
X72669047Y-47679819D01*
X72669047Y-47679819D02*
X73002380Y-48679819D01*
X73335714Y-48679819D02*
X73335714Y-47679819D01*
X73335714Y-47679819D02*
X73907142Y-48679819D01*
X73907142Y-48679819D02*
X73907142Y-47679819D01*
X74145238Y-48775057D02*
X74907142Y-48775057D01*
X75478571Y-48156009D02*
X75621428Y-48203628D01*
X75621428Y-48203628D02*
X75669047Y-48251247D01*
X75669047Y-48251247D02*
X75716666Y-48346485D01*
X75716666Y-48346485D02*
X75716666Y-48489342D01*
X75716666Y-48489342D02*
X75669047Y-48584580D01*
X75669047Y-48584580D02*
X75621428Y-48632200D01*
X75621428Y-48632200D02*
X75526190Y-48679819D01*
X75526190Y-48679819D02*
X75145238Y-48679819D01*
X75145238Y-48679819D02*
X75145238Y-47679819D01*
X75145238Y-47679819D02*
X75478571Y-47679819D01*
X75478571Y-47679819D02*
X75573809Y-47727438D01*
X75573809Y-47727438D02*
X75621428Y-47775057D01*
X75621428Y-47775057D02*
X75669047Y-47870295D01*
X75669047Y-47870295D02*
X75669047Y-47965533D01*
X75669047Y-47965533D02*
X75621428Y-48060771D01*
X75621428Y-48060771D02*
X75573809Y-48108390D01*
X75573809Y-48108390D02*
X75478571Y-48156009D01*
X75478571Y-48156009D02*
X75145238Y-48156009D01*
X76145238Y-47679819D02*
X76145238Y-48489342D01*
X76145238Y-48489342D02*
X76192857Y-48584580D01*
X76192857Y-48584580D02*
X76240476Y-48632200D01*
X76240476Y-48632200D02*
X76335714Y-48679819D01*
X76335714Y-48679819D02*
X76526190Y-48679819D01*
X76526190Y-48679819D02*
X76621428Y-48632200D01*
X76621428Y-48632200D02*
X76669047Y-48584580D01*
X76669047Y-48584580D02*
X76716666Y-48489342D01*
X76716666Y-48489342D02*
X76716666Y-47679819D01*
X77145238Y-48632200D02*
X77288095Y-48679819D01*
X77288095Y-48679819D02*
X77526190Y-48679819D01*
X77526190Y-48679819D02*
X77621428Y-48632200D01*
X77621428Y-48632200D02*
X77669047Y-48584580D01*
X77669047Y-48584580D02*
X77716666Y-48489342D01*
X77716666Y-48489342D02*
X77716666Y-48394104D01*
X77716666Y-48394104D02*
X77669047Y-48298866D01*
X77669047Y-48298866D02*
X77621428Y-48251247D01*
X77621428Y-48251247D02*
X77526190Y-48203628D01*
X77526190Y-48203628D02*
X77335714Y-48156009D01*
X77335714Y-48156009D02*
X77240476Y-48108390D01*
X77240476Y-48108390D02*
X77192857Y-48060771D01*
X77192857Y-48060771D02*
X77145238Y-47965533D01*
X77145238Y-47965533D02*
X77145238Y-47870295D01*
X77145238Y-47870295D02*
X77192857Y-47775057D01*
X77192857Y-47775057D02*
X77240476Y-47727438D01*
X77240476Y-47727438D02*
X77335714Y-47679819D01*
X77335714Y-47679819D02*
X77573809Y-47679819D01*
X77573809Y-47679819D02*
X77716666Y-47727438D01*
X78050000Y-47679819D02*
X78669047Y-47679819D01*
X78669047Y-47679819D02*
X78335714Y-48060771D01*
X78335714Y-48060771D02*
X78478571Y-48060771D01*
X78478571Y-48060771D02*
X78573809Y-48108390D01*
X78573809Y-48108390D02*
X78621428Y-48156009D01*
X78621428Y-48156009D02*
X78669047Y-48251247D01*
X78669047Y-48251247D02*
X78669047Y-48489342D01*
X78669047Y-48489342D02*
X78621428Y-48584580D01*
X78621428Y-48584580D02*
X78573809Y-48632200D01*
X78573809Y-48632200D02*
X78478571Y-48679819D01*
X78478571Y-48679819D02*
X78192857Y-48679819D01*
X78192857Y-48679819D02*
X78097619Y-48632200D01*
X78097619Y-48632200D02*
X78050000Y-48584580D01*
D12*
X70950000Y-65225000D02*
X70950000Y-66475000D01*
X71250000Y-67775000D02*
X72000000Y-67775000D01*
X72000000Y-67775000D02*
X72000000Y-70725000D01*
X72000000Y-70725000D02*
X75050000Y-70725000D01*
X72200000Y-65225000D02*
X70950000Y-65225000D01*
X78100000Y-67775000D02*
X78100000Y-70725000D01*
X78100000Y-70725000D02*
X75050000Y-70725000D01*
X78850000Y-67775000D02*
X78100000Y-67775000D01*
X71240000Y-65515000D02*
X78860000Y-65515000D01*
X78860000Y-71485000D01*
X71240000Y-71485000D01*
X71240000Y-65515000D01*
X71250000Y-65525000D02*
X73050000Y-65525000D01*
X73050000Y-66275000D01*
X71250000Y-66275000D01*
X71250000Y-65525000D01*
X74550000Y-65525000D02*
X75550000Y-65525000D01*
X75550000Y-66275000D01*
X74550000Y-66275000D01*
X74550000Y-65525000D01*
X77050000Y-65525000D02*
X78850000Y-65525000D01*
X78850000Y-66275000D01*
X77050000Y-66275000D01*
X77050000Y-65525000D01*
X70950000Y-32825000D02*
X70950000Y-34075000D01*
X71250000Y-35375000D02*
X72000000Y-35375000D01*
X72000000Y-35375000D02*
X72000000Y-38325000D01*
X72000000Y-38325000D02*
X75050000Y-38325000D01*
X72200000Y-32825000D02*
X70950000Y-32825000D01*
X78100000Y-35375000D02*
X78100000Y-38325000D01*
X78100000Y-38325000D02*
X75050000Y-38325000D01*
X78850000Y-35375000D02*
X78100000Y-35375000D01*
X71240000Y-33115000D02*
X78860000Y-33115000D01*
X78860000Y-39085000D01*
X71240000Y-39085000D01*
X71240000Y-33115000D01*
X71250000Y-33125000D02*
X73050000Y-33125000D01*
X73050000Y-33875000D01*
X71250000Y-33875000D01*
X71250000Y-33125000D01*
X74550000Y-33125000D02*
X75550000Y-33125000D01*
X75550000Y-33875000D01*
X74550000Y-33875000D01*
X74550000Y-33125000D01*
X77050000Y-33125000D02*
X78850000Y-33125000D01*
X78850000Y-33875000D01*
X77050000Y-33875000D01*
X77050000Y-33125000D01*
X70950000Y-57125000D02*
X70950000Y-58375000D01*
X71250000Y-59675000D02*
X72000000Y-59675000D01*
X72000000Y-59675000D02*
X72000000Y-62625000D01*
X72000000Y-62625000D02*
X75050000Y-62625000D01*
X72200000Y-57125000D02*
X70950000Y-57125000D01*
X78100000Y-59675000D02*
X78100000Y-62625000D01*
X78100000Y-62625000D02*
X75050000Y-62625000D01*
X78850000Y-59675000D02*
X78100000Y-59675000D01*
X71240000Y-57415000D02*
X78860000Y-57415000D01*
X78860000Y-63385000D01*
X71240000Y-63385000D01*
X71240000Y-57415000D01*
X71250000Y-57425000D02*
X73050000Y-57425000D01*
X73050000Y-58175000D01*
X71250000Y-58175000D01*
X71250000Y-57425000D01*
X74550000Y-57425000D02*
X75550000Y-57425000D01*
X75550000Y-58175000D01*
X74550000Y-58175000D01*
X74550000Y-57425000D01*
X77050000Y-57425000D02*
X78850000Y-57425000D01*
X78850000Y-58175000D01*
X77050000Y-58175000D01*
X77050000Y-57425000D01*
X70950000Y-40925000D02*
X70950000Y-42175000D01*
X71250000Y-43475000D02*
X72000000Y-43475000D01*
X72000000Y-43475000D02*
X72000000Y-46425000D01*
X72000000Y-46425000D02*
X75050000Y-46425000D01*
X72200000Y-40925000D02*
X70950000Y-40925000D01*
X78100000Y-43475000D02*
X78100000Y-46425000D01*
X78100000Y-46425000D02*
X75050000Y-46425000D01*
X78850000Y-43475000D02*
X78100000Y-43475000D01*
X71240000Y-41215000D02*
X78860000Y-41215000D01*
X78860000Y-47185000D01*
X71240000Y-47185000D01*
X71240000Y-41215000D01*
X71250000Y-41225000D02*
X73050000Y-41225000D01*
X73050000Y-41975000D01*
X71250000Y-41975000D01*
X71250000Y-41225000D01*
X74550000Y-41225000D02*
X75550000Y-41225000D01*
X75550000Y-41975000D01*
X74550000Y-41975000D01*
X74550000Y-41225000D01*
X77050000Y-41225000D02*
X78850000Y-41225000D01*
X78850000Y-41975000D01*
X77050000Y-41975000D01*
X77050000Y-41225000D01*
X70950000Y-49025000D02*
X70950000Y-50275000D01*
X71250000Y-51575000D02*
X72000000Y-51575000D01*
X72000000Y-51575000D02*
X72000000Y-54525000D01*
X72000000Y-54525000D02*
X75050000Y-54525000D01*
X72200000Y-49025000D02*
X70950000Y-49025000D01*
X78100000Y-51575000D02*
X78100000Y-54525000D01*
X78100000Y-54525000D02*
X75050000Y-54525000D01*
X78850000Y-51575000D02*
X78100000Y-51575000D01*
X71240000Y-49315000D02*
X78860000Y-49315000D01*
X78860000Y-55285000D01*
X71240000Y-55285000D01*
X71240000Y-49315000D01*
X71250000Y-49325000D02*
X73050000Y-49325000D01*
X73050000Y-50075000D01*
X71250000Y-50075000D01*
X71250000Y-49325000D01*
X74550000Y-49325000D02*
X75550000Y-49325000D01*
X75550000Y-50075000D01*
X74550000Y-50075000D01*
X74550000Y-49325000D01*
X77050000Y-49325000D02*
X78850000Y-49325000D01*
X78850000Y-50075000D01*
X77050000Y-50075000D01*
X77050000Y-49325000D01*
M02*
