%TF.GenerationSoftware,KiCad,Pcbnew,9.0.2*%
%TF.CreationDate,2025-11-13T13:08:21+09:00*%
%TF.ProjectId,MDv3,4d447633-2e6b-4696-9361-645f70636258,rev?*%
%TF.SameCoordinates,Original*%
%TF.FileFunction,Drillmap*%
%TF.FilePolarity,Positive*%
%FSLAX45Y45*%
G04 Gerber Fmt 4.5, Leading zero omitted, Abs format (unit mm)*
G04 Created by KiCad (PCBNEW 9.0.2) date 2025-11-13 13:08:21*
%MOMM*%
%LPD*%
G01*
G04 APERTURE LIST*
%ADD10C,0.050000*%
%ADD11C,0.200000*%
%ADD12C,0.100000*%
%ADD13C,0.111760*%
%ADD14C,0.170000*%
%ADD15C,0.270000*%
G04 APERTURE END LIST*
D10*
X8636000Y-10934700D02*
X14566900Y-10934700D01*
X14566900Y-18745200D01*
X8636000Y-18745200D01*
X8636000Y-10934700D01*
D11*
D12*
X9228060Y-12720560D02*
X9258060Y-12750560D01*
X9258060Y-12720560D02*
X9228060Y-12750560D01*
X9228060Y-12982900D02*
X9258060Y-13012900D01*
X9258060Y-12982900D02*
X9228060Y-13012900D01*
X9332200Y-14463000D02*
X9362200Y-14493000D01*
X9362200Y-14463000D02*
X9332200Y-14493000D01*
X9480800Y-14587460D02*
X9510800Y-14617460D01*
X9510800Y-14587460D02*
X9480800Y-14617460D01*
X9535400Y-14463000D02*
X9565400Y-14493000D01*
X9565400Y-14463000D02*
X9535400Y-14493000D01*
X9640800Y-14586377D02*
X9670800Y-14616377D01*
X9670800Y-14586377D02*
X9640800Y-14616377D01*
X9751800Y-12278600D02*
X9781800Y-12308600D01*
X9781800Y-12278600D02*
X9751800Y-12308600D01*
X9869030Y-14586600D02*
X9899030Y-14616600D01*
X9899030Y-14586600D02*
X9869030Y-14616600D01*
X9994200Y-15138640D02*
X10024200Y-15168640D01*
X10024200Y-15138640D02*
X9994200Y-15168640D01*
X10094200Y-14628100D02*
X10124200Y-14658100D01*
X10124200Y-14628100D02*
X10094200Y-14658100D01*
X10194200Y-15138640D02*
X10224200Y-15168640D01*
X10224200Y-15138640D02*
X10194200Y-15168640D01*
X10322800Y-16134320D02*
X10352800Y-16164320D01*
X10352800Y-16134320D02*
X10322800Y-16164320D01*
X10513300Y-12333300D02*
X10543300Y-12363300D01*
X10543300Y-12333300D02*
X10513300Y-12363300D01*
X10698720Y-15880320D02*
X10728720Y-15910320D01*
X10728720Y-15880320D02*
X10698720Y-15910320D01*
X11726150Y-11321248D02*
X11756150Y-11351248D01*
X11756150Y-11321248D02*
X11726150Y-11351248D01*
X11855477Y-12695398D02*
X11885477Y-12725398D01*
X11885477Y-12695398D02*
X11855477Y-12725398D01*
X12024600Y-11745200D02*
X12054600Y-11775200D01*
X12054600Y-11745200D02*
X12024600Y-11775200D01*
X12024600Y-11999200D02*
X12054600Y-12029200D01*
X12054600Y-11999200D02*
X12024600Y-12029200D01*
X12139761Y-12696839D02*
X12169761Y-12726839D01*
X12169761Y-12696839D02*
X12139761Y-12726839D01*
X12147800Y-14483320D02*
X12177800Y-14513320D01*
X12177800Y-14483320D02*
X12147800Y-14513320D01*
X12227800Y-13970550D02*
X12257800Y-14000550D01*
X12257800Y-13970550D02*
X12227800Y-14000550D01*
X12583400Y-15258020D02*
X12613400Y-15288020D01*
X12613400Y-15258020D02*
X12583400Y-15288020D01*
X12618960Y-12867880D02*
X12648960Y-12897880D01*
X12648960Y-12867880D02*
X12618960Y-12897880D01*
X10465600Y-17780000D02*
G75*
G02*
X10405600Y-17780000I-30000J0D01*
G01*
X10405600Y-17780000D02*
G75*
G02*
X10465600Y-17780000I30000J0D01*
G01*
X10465600Y-17835000D02*
X10465600Y-17725000D01*
X10405600Y-17725000D02*
G75*
G02*
X10465600Y-17725000I30000J0D01*
G01*
X10405600Y-17725000D02*
X10405600Y-17835000D01*
X10405600Y-17835000D02*
G75*
G03*
X10465600Y-17835000I30000J0D01*
G01*
X11815600Y-17780000D02*
G75*
G02*
X11755600Y-17780000I-30000J0D01*
G01*
X11755600Y-17780000D02*
G75*
G02*
X11815600Y-17780000I30000J0D01*
G01*
X11815600Y-17835000D02*
X11815600Y-17725000D01*
X11755600Y-17725000D02*
G75*
G02*
X11815600Y-17725000I30000J0D01*
G01*
X11755600Y-17725000D02*
X11755600Y-17835000D01*
X11755600Y-17835000D02*
G75*
G03*
X11815600Y-17835000I30000J0D01*
G01*
X12309000Y-17780000D02*
G75*
G02*
X12249000Y-17780000I-30000J0D01*
G01*
X12249000Y-17780000D02*
G75*
G02*
X12309000Y-17780000I30000J0D01*
G01*
X12309000Y-17835000D02*
X12309000Y-17725000D01*
X12249000Y-17725000D02*
G75*
G02*
X12309000Y-17725000I30000J0D01*
G01*
X12249000Y-17725000D02*
X12249000Y-17835000D01*
X12249000Y-17835000D02*
G75*
G03*
X12309000Y-17835000I30000J0D01*
G01*
X13659000Y-17780000D02*
G75*
G02*
X13599000Y-17780000I-30000J0D01*
G01*
X13599000Y-17780000D02*
G75*
G02*
X13659000Y-17780000I30000J0D01*
G01*
X13659000Y-17835000D02*
X13659000Y-17725000D01*
X13599000Y-17725000D02*
G75*
G02*
X13659000Y-17725000I30000J0D01*
G01*
X13599000Y-17725000D02*
X13599000Y-17835000D01*
X13599000Y-17835000D02*
G75*
G03*
X13659000Y-17835000I30000J0D01*
G01*
X9512300Y-12533000D02*
X9512300Y-12613000D01*
X9472300Y-12573000D02*
X9552300Y-12573000D01*
X9512300Y-13295000D02*
X9512300Y-13375000D01*
X9472300Y-13335000D02*
X9552300Y-13335000D01*
X9766300Y-12533000D02*
X9766300Y-12613000D01*
X9726300Y-12573000D02*
X9806300Y-12573000D01*
X9766300Y-13295000D02*
X9766300Y-13375000D01*
X9726300Y-13335000D02*
X9806300Y-13335000D01*
X9944100Y-13549500D02*
X9944100Y-13629500D01*
X9904100Y-13589500D02*
X9984100Y-13589500D01*
X9944100Y-14311500D02*
X9944100Y-14391500D01*
X9904100Y-14351500D02*
X9984100Y-14351500D01*
X10020300Y-12533000D02*
X10020300Y-12613000D01*
X9980300Y-12573000D02*
X10060300Y-12573000D01*
X10020300Y-13295000D02*
X10020300Y-13375000D01*
X9980300Y-13335000D02*
X10060300Y-13335000D01*
X10198100Y-13549500D02*
X10198100Y-13629500D01*
X10158100Y-13589500D02*
X10238100Y-13589500D01*
X10198100Y-14311500D02*
X10198100Y-14391500D01*
X10158100Y-14351500D02*
X10238100Y-14351500D01*
X10210800Y-11318080D02*
X10210800Y-11398080D01*
X10170800Y-11358080D02*
X10250800Y-11358080D01*
X10210800Y-12071480D02*
X10210800Y-12151480D01*
X10170800Y-12111480D02*
X10250800Y-12111480D01*
X10274300Y-12533000D02*
X10274300Y-12613000D01*
X10234300Y-12573000D02*
X10314300Y-12573000D01*
X10274300Y-13295000D02*
X10274300Y-13375000D01*
X10234300Y-13335000D02*
X10314300Y-13335000D01*
X10426080Y-15931320D02*
X10426080Y-16011320D01*
X10386080Y-15971320D02*
X10466080Y-15971320D01*
X10428620Y-14800320D02*
X10428620Y-14880320D01*
X10388620Y-14840320D02*
X10468620Y-14840320D01*
X10452100Y-13549500D02*
X10452100Y-13629500D01*
X10412100Y-13589500D02*
X10492100Y-13589500D01*
X10452100Y-14311500D02*
X10452100Y-14391500D01*
X10412100Y-14351500D02*
X10492100Y-14351500D01*
X10528300Y-12533000D02*
X10528300Y-12613000D01*
X10488300Y-12573000D02*
X10568300Y-12573000D01*
X10528300Y-13295000D02*
X10528300Y-13375000D01*
X10488300Y-13335000D02*
X10568300Y-13335000D01*
X10685020Y-11644000D02*
X10685020Y-11724000D01*
X10645020Y-11684000D02*
X10725020Y-11684000D01*
X10685020Y-12025000D02*
X10685020Y-12105000D01*
X10645020Y-12065000D02*
X10725020Y-12065000D01*
X10706100Y-13549500D02*
X10706100Y-13629500D01*
X10666100Y-13589500D02*
X10746100Y-13589500D01*
X10706100Y-14311500D02*
X10706100Y-14391500D01*
X10666100Y-14351500D02*
X10746100Y-14351500D01*
X10782300Y-12533000D02*
X10782300Y-12613000D01*
X10742300Y-12573000D02*
X10822300Y-12573000D01*
X10782300Y-13295000D02*
X10782300Y-13375000D01*
X10742300Y-13335000D02*
X10822300Y-13335000D01*
X11036300Y-12533000D02*
X11036300Y-12613000D01*
X10996300Y-12573000D02*
X11076300Y-12573000D01*
X11036300Y-13295000D02*
X11036300Y-13375000D01*
X10996300Y-13335000D02*
X11076300Y-13335000D01*
X11074400Y-13549000D02*
X11074400Y-13629000D01*
X11034400Y-13589000D02*
X11114400Y-13589000D01*
X11074400Y-14311000D02*
X11074400Y-14391000D01*
X11034400Y-14351000D02*
X11114400Y-14351000D01*
X11179480Y-15931320D02*
X11179480Y-16011320D01*
X11139480Y-15971320D02*
X11219480Y-15971320D01*
X11182020Y-14800320D02*
X11182020Y-14880320D01*
X11142020Y-14840320D02*
X11222020Y-14840320D01*
X11438420Y-11644000D02*
X11438420Y-11724000D01*
X11398420Y-11684000D02*
X11478420Y-11684000D01*
X11438420Y-12025000D02*
X11438420Y-12105000D01*
X11398420Y-12065000D02*
X11478420Y-12065000D01*
X11563920Y-14796000D02*
X11563920Y-14876000D01*
X11523920Y-14836000D02*
X11603920Y-14836000D01*
X11570270Y-15934200D02*
X11570270Y-16014200D01*
X11530270Y-15974200D02*
X11610270Y-15974200D01*
X11620500Y-12533000D02*
X11620500Y-12613000D01*
X11580500Y-12573000D02*
X11660500Y-12573000D01*
X11620500Y-13295000D02*
X11620500Y-13375000D01*
X11580500Y-13335000D02*
X11660500Y-13335000D01*
X11709900Y-11466200D02*
X11709900Y-11546200D01*
X11669900Y-11506200D02*
X11749900Y-11506200D01*
X11709900Y-11720200D02*
X11709900Y-11800200D01*
X11669900Y-11760200D02*
X11749900Y-11760200D01*
X11709900Y-11974200D02*
X11709900Y-12054200D01*
X11669900Y-12014200D02*
X11749900Y-12014200D01*
X11709900Y-12228200D02*
X11709900Y-12308200D01*
X11669900Y-12268200D02*
X11749900Y-12268200D01*
X11734800Y-13549000D02*
X11734800Y-13629000D01*
X11694800Y-13589000D02*
X11774800Y-13589000D01*
X11734800Y-14311000D02*
X11734800Y-14391000D01*
X11694800Y-14351000D02*
X11774800Y-14351000D01*
X11874500Y-12533000D02*
X11874500Y-12613000D01*
X11834500Y-12573000D02*
X11914500Y-12573000D01*
X11874500Y-13295000D02*
X11874500Y-13375000D01*
X11834500Y-13335000D02*
X11914500Y-13335000D01*
X11988800Y-13549000D02*
X11988800Y-13629000D01*
X11948800Y-13589000D02*
X12028800Y-13589000D01*
X11988800Y-14311000D02*
X11988800Y-14391000D01*
X11948800Y-14351000D02*
X12028800Y-14351000D01*
X12128500Y-12533000D02*
X12128500Y-12613000D01*
X12088500Y-12573000D02*
X12168500Y-12573000D01*
X12128500Y-13295000D02*
X12128500Y-13375000D01*
X12088500Y-13335000D02*
X12168500Y-13335000D01*
X12242800Y-13549000D02*
X12242800Y-13629000D01*
X12202800Y-13589000D02*
X12282800Y-13589000D01*
X12242800Y-14311000D02*
X12242800Y-14391000D01*
X12202800Y-14351000D02*
X12282800Y-14351000D01*
X12317320Y-14796000D02*
X12317320Y-14876000D01*
X12277320Y-14836000D02*
X12357320Y-14836000D01*
X12323670Y-15934200D02*
X12323670Y-16014200D01*
X12283670Y-15974200D02*
X12363670Y-15974200D01*
X12382500Y-12533000D02*
X12382500Y-12613000D01*
X12342500Y-12573000D02*
X12422500Y-12573000D01*
X12382500Y-13295000D02*
X12382500Y-13375000D01*
X12342500Y-13335000D02*
X12422500Y-13335000D01*
X12471900Y-11466200D02*
X12471900Y-11546200D01*
X12431900Y-11506200D02*
X12511900Y-11506200D01*
X12471900Y-11720200D02*
X12471900Y-11800200D01*
X12431900Y-11760200D02*
X12511900Y-11760200D01*
X12471900Y-11974200D02*
X12471900Y-12054200D01*
X12431900Y-12014200D02*
X12511900Y-12014200D01*
X12471900Y-12228200D02*
X12471900Y-12308200D01*
X12431900Y-12268200D02*
X12511900Y-12268200D01*
X12496800Y-13549000D02*
X12496800Y-13629000D01*
X12456800Y-13589000D02*
X12536800Y-13589000D01*
X12496800Y-14311000D02*
X12496800Y-14391000D01*
X12456800Y-14351000D02*
X12536800Y-14351000D01*
X12636500Y-12533000D02*
X12636500Y-12613000D01*
X12596500Y-12573000D02*
X12676500Y-12573000D01*
X12636500Y-13295000D02*
X12636500Y-13375000D01*
X12596500Y-13335000D02*
X12676500Y-13335000D01*
X12704320Y-11618600D02*
X12704320Y-11698600D01*
X12664320Y-11658600D02*
X12744320Y-11658600D01*
X12704320Y-12045600D02*
X12704320Y-12125600D01*
X12664320Y-12085600D02*
X12744320Y-12085600D01*
X12865100Y-13549000D02*
X12865100Y-13629000D01*
X12825100Y-13589000D02*
X12905100Y-13589000D01*
X12865100Y-14311000D02*
X12865100Y-14391000D01*
X12825100Y-14351000D02*
X12905100Y-14351000D01*
X12890500Y-12533000D02*
X12890500Y-12613000D01*
X12850500Y-12573000D02*
X12930500Y-12573000D01*
X12890500Y-13295000D02*
X12890500Y-13375000D01*
X12850500Y-13335000D02*
X12930500Y-13335000D01*
X12928435Y-16330300D02*
X12928435Y-16410300D01*
X12888435Y-16370300D02*
X12968435Y-16370300D01*
X13144500Y-12533000D02*
X13144500Y-12613000D01*
X13104500Y-12573000D02*
X13184500Y-12573000D01*
X13144500Y-13295000D02*
X13144500Y-13375000D01*
X13104500Y-13335000D02*
X13184500Y-13335000D01*
X13278435Y-16330300D02*
X13278435Y-16410300D01*
X13238435Y-16370300D02*
X13318435Y-16370300D01*
X13457720Y-11618600D02*
X13457720Y-11698600D01*
X13417720Y-11658600D02*
X13497720Y-11658600D01*
X13457720Y-12045600D02*
X13457720Y-12125600D01*
X13417720Y-12085600D02*
X13497720Y-12085600D01*
X13627100Y-13510200D02*
X13627100Y-13590200D01*
X13587100Y-13550200D02*
X13667100Y-13550200D01*
X13627100Y-14263600D02*
X13627100Y-14343600D01*
X13587100Y-14303600D02*
X13667100Y-14303600D01*
X14046200Y-13508360D02*
X14046200Y-13588360D01*
X14006200Y-13548360D02*
X14086200Y-13548360D01*
X14046200Y-14261760D02*
X14046200Y-14341760D01*
X14006200Y-14301760D02*
X14086200Y-14301760D01*
X14093911Y-15860400D02*
X14093911Y-15940400D01*
X14053911Y-15900400D02*
X14133911Y-15900400D01*
X14100000Y-15098400D02*
X14100000Y-15178400D01*
X14060000Y-15138400D02*
X14140000Y-15138400D01*
X14293911Y-15860400D02*
X14293911Y-15940400D01*
X14253911Y-15900400D02*
X14333911Y-15900400D01*
X14300000Y-15098400D02*
X14300000Y-15178400D01*
X14260000Y-15138400D02*
X14340000Y-15138400D01*
X9544620Y-11970320D02*
X9544620Y-11906680D01*
X9480980Y-11906680D01*
X9480980Y-11970320D01*
X9544620Y-11970320D01*
X9798620Y-11970320D02*
X9798620Y-11906680D01*
X9734980Y-11906680D01*
X9734980Y-11970320D01*
X9798620Y-11970320D01*
X13824020Y-13087420D02*
X13824020Y-13023780D01*
X13760380Y-13023780D01*
X13760380Y-13087420D01*
X13824020Y-13087420D01*
X13824520Y-12300020D02*
X13824520Y-12236380D01*
X13760880Y-12236380D01*
X13760880Y-12300020D01*
X13824520Y-12300020D01*
X14078020Y-13087420D02*
X14078020Y-13023780D01*
X14014380Y-13023780D01*
X14014380Y-13087420D01*
X14078020Y-13087420D01*
X14078520Y-12300020D02*
X14078520Y-12236380D01*
X14014880Y-12236380D01*
X14014880Y-12300020D01*
X14078520Y-12300020D01*
X8816975Y-14663800D02*
X8866975Y-14613800D01*
X8816975Y-14563800D01*
X8766975Y-14613800D01*
X8816975Y-14663800D01*
X8816975Y-15763800D02*
X8866975Y-15713800D01*
X8816975Y-15663800D01*
X8766975Y-15713800D01*
X8816975Y-15763800D01*
X8830035Y-16060800D02*
X8880035Y-16010800D01*
X8830035Y-15960800D01*
X8780035Y-16010800D01*
X8830035Y-16060800D01*
X8830035Y-17160800D02*
X8880035Y-17110800D01*
X8830035Y-17060800D01*
X8780035Y-17110800D01*
X8830035Y-17160800D01*
X11329050Y-12754750D02*
X11379050Y-12704750D01*
X11329050Y-12654750D01*
X11279050Y-12704750D01*
X11329050Y-12754750D01*
X11329050Y-13254750D02*
X11379050Y-13204750D01*
X11329050Y-13154750D01*
X11279050Y-13204750D01*
X11329050Y-13254750D01*
X11379850Y-13745350D02*
X11429850Y-13695350D01*
X11379850Y-13645350D01*
X11329850Y-13695350D01*
X11379850Y-13745350D01*
X11379850Y-14245350D02*
X11429850Y-14195350D01*
X11379850Y-14145350D01*
X11329850Y-14195350D01*
X11379850Y-14245350D01*
X11841150Y-11212650D02*
X11891150Y-11162650D01*
X11841150Y-11112650D01*
X11791150Y-11162650D01*
X11841150Y-11212650D01*
X12341150Y-11212650D02*
X12391150Y-11162650D01*
X12341150Y-11112650D01*
X12291150Y-11162650D01*
X12341150Y-11212650D01*
X12806350Y-15196700D02*
X12856350Y-15146700D01*
X12806350Y-15096700D01*
X12756350Y-15146700D01*
X12806350Y-15196700D01*
X13233400Y-13745350D02*
X13283400Y-13695350D01*
X13233400Y-13645350D01*
X13183400Y-13695350D01*
X13233400Y-13745350D01*
X13233400Y-14245350D02*
X13283400Y-14195350D01*
X13233400Y-14145350D01*
X13183400Y-14195350D01*
X13233400Y-14245350D01*
X13306350Y-15196700D02*
X13356350Y-15146700D01*
X13306350Y-15096700D01*
X13256350Y-15146700D01*
X13306350Y-15196700D01*
X13437250Y-12758000D02*
X13487250Y-12708000D01*
X13437250Y-12658000D01*
X13387250Y-12708000D01*
X13437250Y-12758000D01*
X13437250Y-13258000D02*
X13487250Y-13208000D01*
X13437250Y-13158000D01*
X13387250Y-13208000D01*
X13437250Y-13258000D01*
X13741561Y-16535250D02*
X13791561Y-16485250D01*
X13741561Y-16435250D01*
X13691561Y-16485250D01*
X13741561Y-16535250D01*
X13868561Y-14655650D02*
X13918561Y-14605650D01*
X13868561Y-14555650D01*
X13818561Y-14605650D01*
X13868561Y-14655650D01*
X14241561Y-16535250D02*
X14291561Y-16485250D01*
X14241561Y-16435250D01*
X14191561Y-16485250D01*
X14241561Y-16535250D01*
X14368561Y-14655650D02*
X14418561Y-14605650D01*
X14368561Y-14555650D01*
X14318561Y-14605650D01*
X14368561Y-14655650D01*
D13*
X10480040Y-15129140D02*
X10591800Y-15240900D01*
X10591800Y-15129140D02*
X10480040Y-15240900D01*
X10591800Y-15185020D02*
G75*
G02*
X10480040Y-15185020I-55880J0D01*
G01*
X10480040Y-15185020D02*
G75*
G02*
X10591800Y-15185020I55880J0D01*
G01*
X10485200Y-16260880D02*
X10596960Y-16372640D01*
X10596960Y-16260880D02*
X10485200Y-16372640D01*
X10596960Y-16316760D02*
G75*
G02*
X10485200Y-16316760I-55880J0D01*
G01*
X10485200Y-16316760D02*
G75*
G02*
X10596960Y-16316760I55880J0D01*
G01*
X10734040Y-15129140D02*
X10845800Y-15240900D01*
X10845800Y-15129140D02*
X10734040Y-15240900D01*
X10845800Y-15185020D02*
G75*
G02*
X10734040Y-15185020I-55880J0D01*
G01*
X10734040Y-15185020D02*
G75*
G02*
X10845800Y-15185020I55880J0D01*
G01*
X10739200Y-16260880D02*
X10850960Y-16372640D01*
X10850960Y-16260880D02*
X10739200Y-16372640D01*
X10850960Y-16316760D02*
G75*
G02*
X10739200Y-16316760I-55880J0D01*
G01*
X10739200Y-16316760D02*
G75*
G02*
X10850960Y-16316760I55880J0D01*
G01*
X10988040Y-15129140D02*
X11099800Y-15240900D01*
X11099800Y-15129140D02*
X10988040Y-15240900D01*
X11099800Y-15185020D02*
G75*
G02*
X10988040Y-15185020I-55880J0D01*
G01*
X10988040Y-15185020D02*
G75*
G02*
X11099800Y-15185020I55880J0D01*
G01*
X10993200Y-16260880D02*
X11104960Y-16372640D01*
X11104960Y-16260880D02*
X10993200Y-16372640D01*
X11104960Y-16316760D02*
G75*
G02*
X10993200Y-16316760I-55880J0D01*
G01*
X10993200Y-16316760D02*
G75*
G02*
X11104960Y-16316760I55880J0D01*
G01*
X11628120Y-15125560D02*
X11739880Y-15237320D01*
X11739880Y-15125560D02*
X11628120Y-15237320D01*
X11739880Y-15181440D02*
G75*
G02*
X11628120Y-15181440I-55880J0D01*
G01*
X11628120Y-15181440D02*
G75*
G02*
X11739880Y-15181440I55880J0D01*
G01*
X11628120Y-16262010D02*
X11739880Y-16373770D01*
X11739880Y-16262010D02*
X11628120Y-16373770D01*
X11739880Y-16317890D02*
G75*
G02*
X11628120Y-16317890I-55880J0D01*
G01*
X11628120Y-16317890D02*
G75*
G02*
X11739880Y-16317890I55880J0D01*
G01*
X11882120Y-15125560D02*
X11993880Y-15237320D01*
X11993880Y-15125560D02*
X11882120Y-15237320D01*
X11993880Y-15181440D02*
G75*
G02*
X11882120Y-15181440I-55880J0D01*
G01*
X11882120Y-15181440D02*
G75*
G02*
X11993880Y-15181440I55880J0D01*
G01*
X11882120Y-16262010D02*
X11993880Y-16373770D01*
X11993880Y-16262010D02*
X11882120Y-16373770D01*
X11993880Y-16317890D02*
G75*
G02*
X11882120Y-16317890I-55880J0D01*
G01*
X11882120Y-16317890D02*
G75*
G02*
X11993880Y-16317890I55880J0D01*
G01*
X12136120Y-15125560D02*
X12247880Y-15237320D01*
X12247880Y-15125560D02*
X12136120Y-15237320D01*
X12247880Y-15181440D02*
G75*
G02*
X12136120Y-15181440I-55880J0D01*
G01*
X12136120Y-15181440D02*
G75*
G02*
X12247880Y-15181440I55880J0D01*
G01*
X12136120Y-16262010D02*
X12247880Y-16373770D01*
X12247880Y-16262010D02*
X12136120Y-16373770D01*
X12247880Y-16317890D02*
G75*
G02*
X12136120Y-16317890I-55880J0D01*
G01*
X12136120Y-16317890D02*
G75*
G02*
X12247880Y-16317890I55880J0D01*
G01*
X12834620Y-14739620D02*
X12946380Y-14851380D01*
X12946380Y-14739620D02*
X12834620Y-14851380D01*
X12946380Y-14795500D02*
G75*
G02*
X12834620Y-14795500I-55880J0D01*
G01*
X12834620Y-14795500D02*
G75*
G02*
X12946380Y-14795500I55880J0D01*
G01*
X12834620Y-15577820D02*
X12946380Y-15689580D01*
X12946380Y-15577820D02*
X12834620Y-15689580D01*
X12946380Y-15633700D02*
G75*
G02*
X12834620Y-15633700I-55880J0D01*
G01*
X12834620Y-15633700D02*
G75*
G02*
X12946380Y-15633700I55880J0D01*
G01*
X13088620Y-14739620D02*
X13200380Y-14851380D01*
X13200380Y-14739620D02*
X13088620Y-14851380D01*
X13200380Y-14795500D02*
G75*
G02*
X13088620Y-14795500I-55880J0D01*
G01*
X13088620Y-14795500D02*
G75*
G02*
X13200380Y-14795500I55880J0D01*
G01*
X13088620Y-15577820D02*
X13200380Y-15689580D01*
X13200380Y-15577820D02*
X13088620Y-15689580D01*
X13200380Y-15633700D02*
G75*
G02*
X13088620Y-15633700I-55880J0D01*
G01*
X13088620Y-15633700D02*
G75*
G02*
X13200380Y-15633700I55880J0D01*
G01*
X13342620Y-14739620D02*
X13454380Y-14851380D01*
X13454380Y-14739620D02*
X13342620Y-14851380D01*
X13454380Y-14795500D02*
G75*
G02*
X13342620Y-14795500I-55880J0D01*
G01*
X13342620Y-14795500D02*
G75*
G02*
X13454380Y-14795500I55880J0D01*
G01*
X13342620Y-15577820D02*
X13454380Y-15689580D01*
X13454380Y-15577820D02*
X13342620Y-15689580D01*
X13454380Y-15633700D02*
G75*
G02*
X13342620Y-15633700I-55880J0D01*
G01*
X13342620Y-15633700D02*
G75*
G02*
X13454380Y-15633700I55880J0D01*
G01*
D14*
X9731975Y-14828800D02*
X9901975Y-14998800D01*
X9901975Y-14828800D02*
X9731975Y-14998800D01*
X9816975Y-14828800D02*
X9816975Y-14998800D01*
X9731975Y-14913800D02*
X9901975Y-14913800D01*
X9731975Y-15328800D02*
X9901975Y-15498800D01*
X9901975Y-15328800D02*
X9731975Y-15498800D01*
X9816975Y-15328800D02*
X9816975Y-15498800D01*
X9731975Y-15413800D02*
X9901975Y-15413800D01*
X9745035Y-16225800D02*
X9915035Y-16395800D01*
X9915035Y-16225800D02*
X9745035Y-16395800D01*
X9830035Y-16225800D02*
X9830035Y-16395800D01*
X9745035Y-16310800D02*
X9915035Y-16310800D01*
X9745035Y-16725800D02*
X9915035Y-16895800D01*
X9915035Y-16725800D02*
X9745035Y-16895800D01*
X9830035Y-16725800D02*
X9830035Y-16895800D01*
X9745035Y-16810800D02*
X9915035Y-16810800D01*
D15*
X10615600Y-17045000D02*
X10885600Y-17315000D01*
X10885600Y-17045000D02*
X10615600Y-17315000D01*
X10846060Y-17275460D02*
X10846060Y-17084540D01*
X10655140Y-17084540D01*
X10655140Y-17275460D01*
X10846060Y-17275460D01*
X11335600Y-17045000D02*
X11605600Y-17315000D01*
X11605600Y-17045000D02*
X11335600Y-17315000D01*
X11566060Y-17275460D02*
X11566060Y-17084540D01*
X11375140Y-17084540D01*
X11375140Y-17275460D01*
X11566060Y-17275460D01*
X12459000Y-17045000D02*
X12729000Y-17315000D01*
X12729000Y-17045000D02*
X12459000Y-17315000D01*
X12689460Y-17275460D02*
X12689460Y-17084540D01*
X12498540Y-17084540D01*
X12498540Y-17275460D01*
X12689460Y-17275460D01*
X13179000Y-17045000D02*
X13449000Y-17315000D01*
X13449000Y-17045000D02*
X13179000Y-17315000D01*
X13409460Y-17275460D02*
X13409460Y-17084540D01*
X13218540Y-17084540D01*
X13218540Y-17275460D01*
X13409460Y-17275460D01*
D11*
X8894277Y-19059184D02*
X8894277Y-18859184D01*
X8894277Y-18859184D02*
X8941896Y-18859184D01*
X8941896Y-18859184D02*
X8970467Y-18868708D01*
X8970467Y-18868708D02*
X8989515Y-18887755D01*
X8989515Y-18887755D02*
X8999039Y-18906803D01*
X8999039Y-18906803D02*
X9008563Y-18944898D01*
X9008563Y-18944898D02*
X9008563Y-18973470D01*
X9008563Y-18973470D02*
X8999039Y-19011565D01*
X8999039Y-19011565D02*
X8989515Y-19030612D01*
X8989515Y-19030612D02*
X8970467Y-19049660D01*
X8970467Y-19049660D02*
X8941896Y-19059184D01*
X8941896Y-19059184D02*
X8894277Y-19059184D01*
X9094277Y-19059184D02*
X9094277Y-18925850D01*
X9094277Y-18963946D02*
X9103801Y-18944898D01*
X9103801Y-18944898D02*
X9113324Y-18935374D01*
X9113324Y-18935374D02*
X9132372Y-18925850D01*
X9132372Y-18925850D02*
X9151420Y-18925850D01*
X9218086Y-19059184D02*
X9218086Y-18925850D01*
X9218086Y-18859184D02*
X9208563Y-18868708D01*
X9208563Y-18868708D02*
X9218086Y-18878231D01*
X9218086Y-18878231D02*
X9227610Y-18868708D01*
X9227610Y-18868708D02*
X9218086Y-18859184D01*
X9218086Y-18859184D02*
X9218086Y-18878231D01*
X9341896Y-19059184D02*
X9322848Y-19049660D01*
X9322848Y-19049660D02*
X9313324Y-19030612D01*
X9313324Y-19030612D02*
X9313324Y-18859184D01*
X9446658Y-19059184D02*
X9427610Y-19049660D01*
X9427610Y-19049660D02*
X9418086Y-19030612D01*
X9418086Y-19030612D02*
X9418086Y-18859184D01*
X9675229Y-19059184D02*
X9675229Y-18859184D01*
X9675229Y-18859184D02*
X9741896Y-19002041D01*
X9741896Y-19002041D02*
X9808563Y-18859184D01*
X9808563Y-18859184D02*
X9808563Y-19059184D01*
X9989515Y-19059184D02*
X9989515Y-18954422D01*
X9989515Y-18954422D02*
X9979991Y-18935374D01*
X9979991Y-18935374D02*
X9960944Y-18925850D01*
X9960944Y-18925850D02*
X9922848Y-18925850D01*
X9922848Y-18925850D02*
X9903801Y-18935374D01*
X9989515Y-19049660D02*
X9970467Y-19059184D01*
X9970467Y-19059184D02*
X9922848Y-19059184D01*
X9922848Y-19059184D02*
X9903801Y-19049660D01*
X9903801Y-19049660D02*
X9894277Y-19030612D01*
X9894277Y-19030612D02*
X9894277Y-19011565D01*
X9894277Y-19011565D02*
X9903801Y-18992517D01*
X9903801Y-18992517D02*
X9922848Y-18982993D01*
X9922848Y-18982993D02*
X9970467Y-18982993D01*
X9970467Y-18982993D02*
X9989515Y-18973470D01*
X10084753Y-18925850D02*
X10084753Y-19125850D01*
X10084753Y-18935374D02*
X10103801Y-18925850D01*
X10103801Y-18925850D02*
X10141896Y-18925850D01*
X10141896Y-18925850D02*
X10160944Y-18935374D01*
X10160944Y-18935374D02*
X10170467Y-18944898D01*
X10170467Y-18944898D02*
X10179991Y-18963946D01*
X10179991Y-18963946D02*
X10179991Y-19021089D01*
X10179991Y-19021089D02*
X10170467Y-19040136D01*
X10170467Y-19040136D02*
X10160944Y-19049660D01*
X10160944Y-19049660D02*
X10141896Y-19059184D01*
X10141896Y-19059184D02*
X10103801Y-19059184D01*
X10103801Y-19059184D02*
X10084753Y-19049660D01*
X10265705Y-19040136D02*
X10275229Y-19049660D01*
X10275229Y-19049660D02*
X10265705Y-19059184D01*
X10265705Y-19059184D02*
X10256182Y-19049660D01*
X10256182Y-19049660D02*
X10265705Y-19040136D01*
X10265705Y-19040136D02*
X10265705Y-19059184D01*
X10265705Y-18935374D02*
X10275229Y-18944898D01*
X10275229Y-18944898D02*
X10265705Y-18954422D01*
X10265705Y-18954422D02*
X10256182Y-18944898D01*
X10256182Y-18944898D02*
X10265705Y-18935374D01*
X10265705Y-18935374D02*
X10265705Y-18954422D01*
D12*
X8603500Y-19372700D02*
X8633500Y-19402700D01*
X8633500Y-19372700D02*
X8603500Y-19402700D01*
D11*
X8932372Y-19279184D02*
X8951420Y-19279184D01*
X8951420Y-19279184D02*
X8970467Y-19288708D01*
X8970467Y-19288708D02*
X8979991Y-19298231D01*
X8979991Y-19298231D02*
X8989515Y-19317279D01*
X8989515Y-19317279D02*
X8999039Y-19355374D01*
X8999039Y-19355374D02*
X8999039Y-19402993D01*
X8999039Y-19402993D02*
X8989515Y-19441089D01*
X8989515Y-19441089D02*
X8979991Y-19460136D01*
X8979991Y-19460136D02*
X8970467Y-19469660D01*
X8970467Y-19469660D02*
X8951420Y-19479184D01*
X8951420Y-19479184D02*
X8932372Y-19479184D01*
X8932372Y-19479184D02*
X8913324Y-19469660D01*
X8913324Y-19469660D02*
X8903801Y-19460136D01*
X8903801Y-19460136D02*
X8894277Y-19441089D01*
X8894277Y-19441089D02*
X8884753Y-19402993D01*
X8884753Y-19402993D02*
X8884753Y-19355374D01*
X8884753Y-19355374D02*
X8894277Y-19317279D01*
X8894277Y-19317279D02*
X8903801Y-19298231D01*
X8903801Y-19298231D02*
X8913324Y-19288708D01*
X8913324Y-19288708D02*
X8932372Y-19279184D01*
X9084753Y-19460136D02*
X9094277Y-19469660D01*
X9094277Y-19469660D02*
X9084753Y-19479184D01*
X9084753Y-19479184D02*
X9075229Y-19469660D01*
X9075229Y-19469660D02*
X9084753Y-19460136D01*
X9084753Y-19460136D02*
X9084753Y-19479184D01*
X9160944Y-19279184D02*
X9284753Y-19279184D01*
X9284753Y-19279184D02*
X9218086Y-19355374D01*
X9218086Y-19355374D02*
X9246658Y-19355374D01*
X9246658Y-19355374D02*
X9265705Y-19364898D01*
X9265705Y-19364898D02*
X9275229Y-19374422D01*
X9275229Y-19374422D02*
X9284753Y-19393470D01*
X9284753Y-19393470D02*
X9284753Y-19441089D01*
X9284753Y-19441089D02*
X9275229Y-19460136D01*
X9275229Y-19460136D02*
X9265705Y-19469660D01*
X9265705Y-19469660D02*
X9246658Y-19479184D01*
X9246658Y-19479184D02*
X9189515Y-19479184D01*
X9189515Y-19479184D02*
X9170467Y-19469660D01*
X9170467Y-19469660D02*
X9160944Y-19460136D01*
X9408563Y-19279184D02*
X9427610Y-19279184D01*
X9427610Y-19279184D02*
X9446658Y-19288708D01*
X9446658Y-19288708D02*
X9456182Y-19298231D01*
X9456182Y-19298231D02*
X9465705Y-19317279D01*
X9465705Y-19317279D02*
X9475229Y-19355374D01*
X9475229Y-19355374D02*
X9475229Y-19402993D01*
X9475229Y-19402993D02*
X9465705Y-19441089D01*
X9465705Y-19441089D02*
X9456182Y-19460136D01*
X9456182Y-19460136D02*
X9446658Y-19469660D01*
X9446658Y-19469660D02*
X9427610Y-19479184D01*
X9427610Y-19479184D02*
X9408563Y-19479184D01*
X9408563Y-19479184D02*
X9389515Y-19469660D01*
X9389515Y-19469660D02*
X9379991Y-19460136D01*
X9379991Y-19460136D02*
X9370467Y-19441089D01*
X9370467Y-19441089D02*
X9360944Y-19402993D01*
X9360944Y-19402993D02*
X9360944Y-19355374D01*
X9360944Y-19355374D02*
X9370467Y-19317279D01*
X9370467Y-19317279D02*
X9379991Y-19298231D01*
X9379991Y-19298231D02*
X9389515Y-19288708D01*
X9389515Y-19288708D02*
X9408563Y-19279184D01*
X9599039Y-19279184D02*
X9618086Y-19279184D01*
X9618086Y-19279184D02*
X9637134Y-19288708D01*
X9637134Y-19288708D02*
X9646658Y-19298231D01*
X9646658Y-19298231D02*
X9656182Y-19317279D01*
X9656182Y-19317279D02*
X9665705Y-19355374D01*
X9665705Y-19355374D02*
X9665705Y-19402993D01*
X9665705Y-19402993D02*
X9656182Y-19441089D01*
X9656182Y-19441089D02*
X9646658Y-19460136D01*
X9646658Y-19460136D02*
X9637134Y-19469660D01*
X9637134Y-19469660D02*
X9618086Y-19479184D01*
X9618086Y-19479184D02*
X9599039Y-19479184D01*
X9599039Y-19479184D02*
X9579991Y-19469660D01*
X9579991Y-19469660D02*
X9570467Y-19460136D01*
X9570467Y-19460136D02*
X9560944Y-19441089D01*
X9560944Y-19441089D02*
X9551420Y-19402993D01*
X9551420Y-19402993D02*
X9551420Y-19355374D01*
X9551420Y-19355374D02*
X9560944Y-19317279D01*
X9560944Y-19317279D02*
X9570467Y-19298231D01*
X9570467Y-19298231D02*
X9579991Y-19288708D01*
X9579991Y-19288708D02*
X9599039Y-19279184D01*
X9751420Y-19479184D02*
X9751420Y-19345850D01*
X9751420Y-19364898D02*
X9760944Y-19355374D01*
X9760944Y-19355374D02*
X9779991Y-19345850D01*
X9779991Y-19345850D02*
X9808563Y-19345850D01*
X9808563Y-19345850D02*
X9827610Y-19355374D01*
X9827610Y-19355374D02*
X9837134Y-19374422D01*
X9837134Y-19374422D02*
X9837134Y-19479184D01*
X9837134Y-19374422D02*
X9846658Y-19355374D01*
X9846658Y-19355374D02*
X9865705Y-19345850D01*
X9865705Y-19345850D02*
X9894277Y-19345850D01*
X9894277Y-19345850D02*
X9913325Y-19355374D01*
X9913325Y-19355374D02*
X9922848Y-19374422D01*
X9922848Y-19374422D02*
X9922848Y-19479184D01*
X10018086Y-19479184D02*
X10018086Y-19345850D01*
X10018086Y-19364898D02*
X10027610Y-19355374D01*
X10027610Y-19355374D02*
X10046658Y-19345850D01*
X10046658Y-19345850D02*
X10075229Y-19345850D01*
X10075229Y-19345850D02*
X10094277Y-19355374D01*
X10094277Y-19355374D02*
X10103801Y-19374422D01*
X10103801Y-19374422D02*
X10103801Y-19479184D01*
X10103801Y-19374422D02*
X10113325Y-19355374D01*
X10113325Y-19355374D02*
X10132372Y-19345850D01*
X10132372Y-19345850D02*
X10160944Y-19345850D01*
X10160944Y-19345850D02*
X10179991Y-19355374D01*
X10179991Y-19355374D02*
X10189515Y-19374422D01*
X10189515Y-19374422D02*
X10189515Y-19479184D01*
X10579991Y-19269660D02*
X10408563Y-19526803D01*
X10837134Y-19279184D02*
X10856182Y-19279184D01*
X10856182Y-19279184D02*
X10875229Y-19288708D01*
X10875229Y-19288708D02*
X10884753Y-19298231D01*
X10884753Y-19298231D02*
X10894277Y-19317279D01*
X10894277Y-19317279D02*
X10903801Y-19355374D01*
X10903801Y-19355374D02*
X10903801Y-19402993D01*
X10903801Y-19402993D02*
X10894277Y-19441089D01*
X10894277Y-19441089D02*
X10884753Y-19460136D01*
X10884753Y-19460136D02*
X10875229Y-19469660D01*
X10875229Y-19469660D02*
X10856182Y-19479184D01*
X10856182Y-19479184D02*
X10837134Y-19479184D01*
X10837134Y-19479184D02*
X10818087Y-19469660D01*
X10818087Y-19469660D02*
X10808563Y-19460136D01*
X10808563Y-19460136D02*
X10799039Y-19441089D01*
X10799039Y-19441089D02*
X10789515Y-19402993D01*
X10789515Y-19402993D02*
X10789515Y-19355374D01*
X10789515Y-19355374D02*
X10799039Y-19317279D01*
X10799039Y-19317279D02*
X10808563Y-19298231D01*
X10808563Y-19298231D02*
X10818087Y-19288708D01*
X10818087Y-19288708D02*
X10837134Y-19279184D01*
X10989515Y-19460136D02*
X10999039Y-19469660D01*
X10999039Y-19469660D02*
X10989515Y-19479184D01*
X10989515Y-19479184D02*
X10979991Y-19469660D01*
X10979991Y-19469660D02*
X10989515Y-19460136D01*
X10989515Y-19460136D02*
X10989515Y-19479184D01*
X11122848Y-19279184D02*
X11141896Y-19279184D01*
X11141896Y-19279184D02*
X11160944Y-19288708D01*
X11160944Y-19288708D02*
X11170468Y-19298231D01*
X11170468Y-19298231D02*
X11179991Y-19317279D01*
X11179991Y-19317279D02*
X11189515Y-19355374D01*
X11189515Y-19355374D02*
X11189515Y-19402993D01*
X11189515Y-19402993D02*
X11179991Y-19441089D01*
X11179991Y-19441089D02*
X11170468Y-19460136D01*
X11170468Y-19460136D02*
X11160944Y-19469660D01*
X11160944Y-19469660D02*
X11141896Y-19479184D01*
X11141896Y-19479184D02*
X11122848Y-19479184D01*
X11122848Y-19479184D02*
X11103801Y-19469660D01*
X11103801Y-19469660D02*
X11094277Y-19460136D01*
X11094277Y-19460136D02*
X11084753Y-19441089D01*
X11084753Y-19441089D02*
X11075229Y-19402993D01*
X11075229Y-19402993D02*
X11075229Y-19355374D01*
X11075229Y-19355374D02*
X11084753Y-19317279D01*
X11084753Y-19317279D02*
X11094277Y-19298231D01*
X11094277Y-19298231D02*
X11103801Y-19288708D01*
X11103801Y-19288708D02*
X11122848Y-19279184D01*
X11379991Y-19479184D02*
X11265706Y-19479184D01*
X11322848Y-19479184D02*
X11322848Y-19279184D01*
X11322848Y-19279184D02*
X11303801Y-19307755D01*
X11303801Y-19307755D02*
X11284753Y-19326803D01*
X11284753Y-19326803D02*
X11265706Y-19336327D01*
X11570467Y-19479184D02*
X11456182Y-19479184D01*
X11513325Y-19479184D02*
X11513325Y-19279184D01*
X11513325Y-19279184D02*
X11494277Y-19307755D01*
X11494277Y-19307755D02*
X11475229Y-19326803D01*
X11475229Y-19326803D02*
X11456182Y-19336327D01*
X11684753Y-19364898D02*
X11665706Y-19355374D01*
X11665706Y-19355374D02*
X11656182Y-19345850D01*
X11656182Y-19345850D02*
X11646658Y-19326803D01*
X11646658Y-19326803D02*
X11646658Y-19317279D01*
X11646658Y-19317279D02*
X11656182Y-19298231D01*
X11656182Y-19298231D02*
X11665706Y-19288708D01*
X11665706Y-19288708D02*
X11684753Y-19279184D01*
X11684753Y-19279184D02*
X11722848Y-19279184D01*
X11722848Y-19279184D02*
X11741896Y-19288708D01*
X11741896Y-19288708D02*
X11751420Y-19298231D01*
X11751420Y-19298231D02*
X11760944Y-19317279D01*
X11760944Y-19317279D02*
X11760944Y-19326803D01*
X11760944Y-19326803D02*
X11751420Y-19345850D01*
X11751420Y-19345850D02*
X11741896Y-19355374D01*
X11741896Y-19355374D02*
X11722848Y-19364898D01*
X11722848Y-19364898D02*
X11684753Y-19364898D01*
X11684753Y-19364898D02*
X11665706Y-19374422D01*
X11665706Y-19374422D02*
X11656182Y-19383946D01*
X11656182Y-19383946D02*
X11646658Y-19402993D01*
X11646658Y-19402993D02*
X11646658Y-19441089D01*
X11646658Y-19441089D02*
X11656182Y-19460136D01*
X11656182Y-19460136D02*
X11665706Y-19469660D01*
X11665706Y-19469660D02*
X11684753Y-19479184D01*
X11684753Y-19479184D02*
X11722848Y-19479184D01*
X11722848Y-19479184D02*
X11741896Y-19469660D01*
X11741896Y-19469660D02*
X11751420Y-19460136D01*
X11751420Y-19460136D02*
X11760944Y-19441089D01*
X11760944Y-19441089D02*
X11760944Y-19402993D01*
X11760944Y-19402993D02*
X11751420Y-19383946D01*
X11751420Y-19383946D02*
X11741896Y-19374422D01*
X11741896Y-19374422D02*
X11722848Y-19364898D01*
X11837134Y-19279184D02*
X11837134Y-19317279D01*
X11913325Y-19279184D02*
X11913325Y-19317279D01*
X12208563Y-19555374D02*
X12199039Y-19545850D01*
X12199039Y-19545850D02*
X12179991Y-19517279D01*
X12179991Y-19517279D02*
X12170468Y-19498231D01*
X12170468Y-19498231D02*
X12160944Y-19469660D01*
X12160944Y-19469660D02*
X12151420Y-19422041D01*
X12151420Y-19422041D02*
X12151420Y-19383946D01*
X12151420Y-19383946D02*
X12160944Y-19336327D01*
X12160944Y-19336327D02*
X12170468Y-19307755D01*
X12170468Y-19307755D02*
X12179991Y-19288708D01*
X12179991Y-19288708D02*
X12199039Y-19260136D01*
X12199039Y-19260136D02*
X12208563Y-19250612D01*
X12275229Y-19298231D02*
X12284753Y-19288708D01*
X12284753Y-19288708D02*
X12303801Y-19279184D01*
X12303801Y-19279184D02*
X12351420Y-19279184D01*
X12351420Y-19279184D02*
X12370468Y-19288708D01*
X12370468Y-19288708D02*
X12379991Y-19298231D01*
X12379991Y-19298231D02*
X12389515Y-19317279D01*
X12389515Y-19317279D02*
X12389515Y-19336327D01*
X12389515Y-19336327D02*
X12379991Y-19364898D01*
X12379991Y-19364898D02*
X12265706Y-19479184D01*
X12265706Y-19479184D02*
X12389515Y-19479184D01*
X12456182Y-19279184D02*
X12579991Y-19279184D01*
X12579991Y-19279184D02*
X12513325Y-19355374D01*
X12513325Y-19355374D02*
X12541896Y-19355374D01*
X12541896Y-19355374D02*
X12560944Y-19364898D01*
X12560944Y-19364898D02*
X12570468Y-19374422D01*
X12570468Y-19374422D02*
X12579991Y-19393470D01*
X12579991Y-19393470D02*
X12579991Y-19441089D01*
X12579991Y-19441089D02*
X12570468Y-19460136D01*
X12570468Y-19460136D02*
X12560944Y-19469660D01*
X12560944Y-19469660D02*
X12541896Y-19479184D01*
X12541896Y-19479184D02*
X12484753Y-19479184D01*
X12484753Y-19479184D02*
X12465706Y-19469660D01*
X12465706Y-19469660D02*
X12456182Y-19460136D01*
X12818087Y-19479184D02*
X12818087Y-19279184D01*
X12903801Y-19479184D02*
X12903801Y-19374422D01*
X12903801Y-19374422D02*
X12894277Y-19355374D01*
X12894277Y-19355374D02*
X12875230Y-19345850D01*
X12875230Y-19345850D02*
X12846658Y-19345850D01*
X12846658Y-19345850D02*
X12827610Y-19355374D01*
X12827610Y-19355374D02*
X12818087Y-19364898D01*
X13027610Y-19479184D02*
X13008563Y-19469660D01*
X13008563Y-19469660D02*
X12999039Y-19460136D01*
X12999039Y-19460136D02*
X12989515Y-19441089D01*
X12989515Y-19441089D02*
X12989515Y-19383946D01*
X12989515Y-19383946D02*
X12999039Y-19364898D01*
X12999039Y-19364898D02*
X13008563Y-19355374D01*
X13008563Y-19355374D02*
X13027610Y-19345850D01*
X13027610Y-19345850D02*
X13056182Y-19345850D01*
X13056182Y-19345850D02*
X13075230Y-19355374D01*
X13075230Y-19355374D02*
X13084753Y-19364898D01*
X13084753Y-19364898D02*
X13094277Y-19383946D01*
X13094277Y-19383946D02*
X13094277Y-19441089D01*
X13094277Y-19441089D02*
X13084753Y-19460136D01*
X13084753Y-19460136D02*
X13075230Y-19469660D01*
X13075230Y-19469660D02*
X13056182Y-19479184D01*
X13056182Y-19479184D02*
X13027610Y-19479184D01*
X13208563Y-19479184D02*
X13189515Y-19469660D01*
X13189515Y-19469660D02*
X13179991Y-19450612D01*
X13179991Y-19450612D02*
X13179991Y-19279184D01*
X13360944Y-19469660D02*
X13341896Y-19479184D01*
X13341896Y-19479184D02*
X13303801Y-19479184D01*
X13303801Y-19479184D02*
X13284753Y-19469660D01*
X13284753Y-19469660D02*
X13275230Y-19450612D01*
X13275230Y-19450612D02*
X13275230Y-19374422D01*
X13275230Y-19374422D02*
X13284753Y-19355374D01*
X13284753Y-19355374D02*
X13303801Y-19345850D01*
X13303801Y-19345850D02*
X13341896Y-19345850D01*
X13341896Y-19345850D02*
X13360944Y-19355374D01*
X13360944Y-19355374D02*
X13370468Y-19374422D01*
X13370468Y-19374422D02*
X13370468Y-19393470D01*
X13370468Y-19393470D02*
X13275230Y-19412517D01*
X13446658Y-19469660D02*
X13465706Y-19479184D01*
X13465706Y-19479184D02*
X13503801Y-19479184D01*
X13503801Y-19479184D02*
X13522849Y-19469660D01*
X13522849Y-19469660D02*
X13532372Y-19450612D01*
X13532372Y-19450612D02*
X13532372Y-19441089D01*
X13532372Y-19441089D02*
X13522849Y-19422041D01*
X13522849Y-19422041D02*
X13503801Y-19412517D01*
X13503801Y-19412517D02*
X13475230Y-19412517D01*
X13475230Y-19412517D02*
X13456182Y-19402993D01*
X13456182Y-19402993D02*
X13446658Y-19383946D01*
X13446658Y-19383946D02*
X13446658Y-19374422D01*
X13446658Y-19374422D02*
X13456182Y-19355374D01*
X13456182Y-19355374D02*
X13475230Y-19345850D01*
X13475230Y-19345850D02*
X13503801Y-19345850D01*
X13503801Y-19345850D02*
X13522849Y-19355374D01*
X13599039Y-19555374D02*
X13608563Y-19545850D01*
X13608563Y-19545850D02*
X13627611Y-19517279D01*
X13627611Y-19517279D02*
X13637134Y-19498231D01*
X13637134Y-19498231D02*
X13646658Y-19469660D01*
X13646658Y-19469660D02*
X13656182Y-19422041D01*
X13656182Y-19422041D02*
X13656182Y-19383946D01*
X13656182Y-19383946D02*
X13646658Y-19336327D01*
X13646658Y-19336327D02*
X13637134Y-19307755D01*
X13637134Y-19307755D02*
X13627611Y-19288708D01*
X13627611Y-19288708D02*
X13608563Y-19260136D01*
X13608563Y-19260136D02*
X13599039Y-19250612D01*
D12*
X8633500Y-19651700D02*
G75*
G02*
X8573500Y-19651700I-30000J0D01*
G01*
X8573500Y-19651700D02*
G75*
G02*
X8633500Y-19651700I30000J0D01*
G01*
D11*
X8932372Y-19543184D02*
X8951420Y-19543184D01*
X8951420Y-19543184D02*
X8970467Y-19552708D01*
X8970467Y-19552708D02*
X8979991Y-19562231D01*
X8979991Y-19562231D02*
X8989515Y-19581279D01*
X8989515Y-19581279D02*
X8999039Y-19619374D01*
X8999039Y-19619374D02*
X8999039Y-19666993D01*
X8999039Y-19666993D02*
X8989515Y-19705089D01*
X8989515Y-19705089D02*
X8979991Y-19724136D01*
X8979991Y-19724136D02*
X8970467Y-19733660D01*
X8970467Y-19733660D02*
X8951420Y-19743184D01*
X8951420Y-19743184D02*
X8932372Y-19743184D01*
X8932372Y-19743184D02*
X8913324Y-19733660D01*
X8913324Y-19733660D02*
X8903801Y-19724136D01*
X8903801Y-19724136D02*
X8894277Y-19705089D01*
X8894277Y-19705089D02*
X8884753Y-19666993D01*
X8884753Y-19666993D02*
X8884753Y-19619374D01*
X8884753Y-19619374D02*
X8894277Y-19581279D01*
X8894277Y-19581279D02*
X8903801Y-19562231D01*
X8903801Y-19562231D02*
X8913324Y-19552708D01*
X8913324Y-19552708D02*
X8932372Y-19543184D01*
X9084753Y-19724136D02*
X9094277Y-19733660D01*
X9094277Y-19733660D02*
X9084753Y-19743184D01*
X9084753Y-19743184D02*
X9075229Y-19733660D01*
X9075229Y-19733660D02*
X9084753Y-19724136D01*
X9084753Y-19724136D02*
X9084753Y-19743184D01*
X9265705Y-19543184D02*
X9227610Y-19543184D01*
X9227610Y-19543184D02*
X9208563Y-19552708D01*
X9208563Y-19552708D02*
X9199039Y-19562231D01*
X9199039Y-19562231D02*
X9179991Y-19590803D01*
X9179991Y-19590803D02*
X9170467Y-19628898D01*
X9170467Y-19628898D02*
X9170467Y-19705089D01*
X9170467Y-19705089D02*
X9179991Y-19724136D01*
X9179991Y-19724136D02*
X9189515Y-19733660D01*
X9189515Y-19733660D02*
X9208563Y-19743184D01*
X9208563Y-19743184D02*
X9246658Y-19743184D01*
X9246658Y-19743184D02*
X9265705Y-19733660D01*
X9265705Y-19733660D02*
X9275229Y-19724136D01*
X9275229Y-19724136D02*
X9284753Y-19705089D01*
X9284753Y-19705089D02*
X9284753Y-19657470D01*
X9284753Y-19657470D02*
X9275229Y-19638422D01*
X9275229Y-19638422D02*
X9265705Y-19628898D01*
X9265705Y-19628898D02*
X9246658Y-19619374D01*
X9246658Y-19619374D02*
X9208563Y-19619374D01*
X9208563Y-19619374D02*
X9189515Y-19628898D01*
X9189515Y-19628898D02*
X9179991Y-19638422D01*
X9179991Y-19638422D02*
X9170467Y-19657470D01*
X9408563Y-19543184D02*
X9427610Y-19543184D01*
X9427610Y-19543184D02*
X9446658Y-19552708D01*
X9446658Y-19552708D02*
X9456182Y-19562231D01*
X9456182Y-19562231D02*
X9465705Y-19581279D01*
X9465705Y-19581279D02*
X9475229Y-19619374D01*
X9475229Y-19619374D02*
X9475229Y-19666993D01*
X9475229Y-19666993D02*
X9465705Y-19705089D01*
X9465705Y-19705089D02*
X9456182Y-19724136D01*
X9456182Y-19724136D02*
X9446658Y-19733660D01*
X9446658Y-19733660D02*
X9427610Y-19743184D01*
X9427610Y-19743184D02*
X9408563Y-19743184D01*
X9408563Y-19743184D02*
X9389515Y-19733660D01*
X9389515Y-19733660D02*
X9379991Y-19724136D01*
X9379991Y-19724136D02*
X9370467Y-19705089D01*
X9370467Y-19705089D02*
X9360944Y-19666993D01*
X9360944Y-19666993D02*
X9360944Y-19619374D01*
X9360944Y-19619374D02*
X9370467Y-19581279D01*
X9370467Y-19581279D02*
X9379991Y-19562231D01*
X9379991Y-19562231D02*
X9389515Y-19552708D01*
X9389515Y-19552708D02*
X9408563Y-19543184D01*
X9599039Y-19543184D02*
X9618086Y-19543184D01*
X9618086Y-19543184D02*
X9637134Y-19552708D01*
X9637134Y-19552708D02*
X9646658Y-19562231D01*
X9646658Y-19562231D02*
X9656182Y-19581279D01*
X9656182Y-19581279D02*
X9665705Y-19619374D01*
X9665705Y-19619374D02*
X9665705Y-19666993D01*
X9665705Y-19666993D02*
X9656182Y-19705089D01*
X9656182Y-19705089D02*
X9646658Y-19724136D01*
X9646658Y-19724136D02*
X9637134Y-19733660D01*
X9637134Y-19733660D02*
X9618086Y-19743184D01*
X9618086Y-19743184D02*
X9599039Y-19743184D01*
X9599039Y-19743184D02*
X9579991Y-19733660D01*
X9579991Y-19733660D02*
X9570467Y-19724136D01*
X9570467Y-19724136D02*
X9560944Y-19705089D01*
X9560944Y-19705089D02*
X9551420Y-19666993D01*
X9551420Y-19666993D02*
X9551420Y-19619374D01*
X9551420Y-19619374D02*
X9560944Y-19581279D01*
X9560944Y-19581279D02*
X9570467Y-19562231D01*
X9570467Y-19562231D02*
X9579991Y-19552708D01*
X9579991Y-19552708D02*
X9599039Y-19543184D01*
X9751420Y-19743184D02*
X9751420Y-19609850D01*
X9751420Y-19628898D02*
X9760944Y-19619374D01*
X9760944Y-19619374D02*
X9779991Y-19609850D01*
X9779991Y-19609850D02*
X9808563Y-19609850D01*
X9808563Y-19609850D02*
X9827610Y-19619374D01*
X9827610Y-19619374D02*
X9837134Y-19638422D01*
X9837134Y-19638422D02*
X9837134Y-19743184D01*
X9837134Y-19638422D02*
X9846658Y-19619374D01*
X9846658Y-19619374D02*
X9865705Y-19609850D01*
X9865705Y-19609850D02*
X9894277Y-19609850D01*
X9894277Y-19609850D02*
X9913325Y-19619374D01*
X9913325Y-19619374D02*
X9922848Y-19638422D01*
X9922848Y-19638422D02*
X9922848Y-19743184D01*
X10018086Y-19743184D02*
X10018086Y-19609850D01*
X10018086Y-19628898D02*
X10027610Y-19619374D01*
X10027610Y-19619374D02*
X10046658Y-19609850D01*
X10046658Y-19609850D02*
X10075229Y-19609850D01*
X10075229Y-19609850D02*
X10094277Y-19619374D01*
X10094277Y-19619374D02*
X10103801Y-19638422D01*
X10103801Y-19638422D02*
X10103801Y-19743184D01*
X10103801Y-19638422D02*
X10113325Y-19619374D01*
X10113325Y-19619374D02*
X10132372Y-19609850D01*
X10132372Y-19609850D02*
X10160944Y-19609850D01*
X10160944Y-19609850D02*
X10179991Y-19619374D01*
X10179991Y-19619374D02*
X10189515Y-19638422D01*
X10189515Y-19638422D02*
X10189515Y-19743184D01*
X10579991Y-19533660D02*
X10408563Y-19790803D01*
X10837134Y-19543184D02*
X10856182Y-19543184D01*
X10856182Y-19543184D02*
X10875229Y-19552708D01*
X10875229Y-19552708D02*
X10884753Y-19562231D01*
X10884753Y-19562231D02*
X10894277Y-19581279D01*
X10894277Y-19581279D02*
X10903801Y-19619374D01*
X10903801Y-19619374D02*
X10903801Y-19666993D01*
X10903801Y-19666993D02*
X10894277Y-19705089D01*
X10894277Y-19705089D02*
X10884753Y-19724136D01*
X10884753Y-19724136D02*
X10875229Y-19733660D01*
X10875229Y-19733660D02*
X10856182Y-19743184D01*
X10856182Y-19743184D02*
X10837134Y-19743184D01*
X10837134Y-19743184D02*
X10818087Y-19733660D01*
X10818087Y-19733660D02*
X10808563Y-19724136D01*
X10808563Y-19724136D02*
X10799039Y-19705089D01*
X10799039Y-19705089D02*
X10789515Y-19666993D01*
X10789515Y-19666993D02*
X10789515Y-19619374D01*
X10789515Y-19619374D02*
X10799039Y-19581279D01*
X10799039Y-19581279D02*
X10808563Y-19562231D01*
X10808563Y-19562231D02*
X10818087Y-19552708D01*
X10818087Y-19552708D02*
X10837134Y-19543184D01*
X10989515Y-19724136D02*
X10999039Y-19733660D01*
X10999039Y-19733660D02*
X10989515Y-19743184D01*
X10989515Y-19743184D02*
X10979991Y-19733660D01*
X10979991Y-19733660D02*
X10989515Y-19724136D01*
X10989515Y-19724136D02*
X10989515Y-19743184D01*
X11122848Y-19543184D02*
X11141896Y-19543184D01*
X11141896Y-19543184D02*
X11160944Y-19552708D01*
X11160944Y-19552708D02*
X11170468Y-19562231D01*
X11170468Y-19562231D02*
X11179991Y-19581279D01*
X11179991Y-19581279D02*
X11189515Y-19619374D01*
X11189515Y-19619374D02*
X11189515Y-19666993D01*
X11189515Y-19666993D02*
X11179991Y-19705089D01*
X11179991Y-19705089D02*
X11170468Y-19724136D01*
X11170468Y-19724136D02*
X11160944Y-19733660D01*
X11160944Y-19733660D02*
X11141896Y-19743184D01*
X11141896Y-19743184D02*
X11122848Y-19743184D01*
X11122848Y-19743184D02*
X11103801Y-19733660D01*
X11103801Y-19733660D02*
X11094277Y-19724136D01*
X11094277Y-19724136D02*
X11084753Y-19705089D01*
X11084753Y-19705089D02*
X11075229Y-19666993D01*
X11075229Y-19666993D02*
X11075229Y-19619374D01*
X11075229Y-19619374D02*
X11084753Y-19581279D01*
X11084753Y-19581279D02*
X11094277Y-19562231D01*
X11094277Y-19562231D02*
X11103801Y-19552708D01*
X11103801Y-19552708D02*
X11122848Y-19543184D01*
X11265706Y-19562231D02*
X11275229Y-19552708D01*
X11275229Y-19552708D02*
X11294277Y-19543184D01*
X11294277Y-19543184D02*
X11341896Y-19543184D01*
X11341896Y-19543184D02*
X11360944Y-19552708D01*
X11360944Y-19552708D02*
X11370467Y-19562231D01*
X11370467Y-19562231D02*
X11379991Y-19581279D01*
X11379991Y-19581279D02*
X11379991Y-19600327D01*
X11379991Y-19600327D02*
X11370467Y-19628898D01*
X11370467Y-19628898D02*
X11256182Y-19743184D01*
X11256182Y-19743184D02*
X11379991Y-19743184D01*
X11446658Y-19543184D02*
X11570467Y-19543184D01*
X11570467Y-19543184D02*
X11503801Y-19619374D01*
X11503801Y-19619374D02*
X11532372Y-19619374D01*
X11532372Y-19619374D02*
X11551420Y-19628898D01*
X11551420Y-19628898D02*
X11560944Y-19638422D01*
X11560944Y-19638422D02*
X11570467Y-19657470D01*
X11570467Y-19657470D02*
X11570467Y-19705089D01*
X11570467Y-19705089D02*
X11560944Y-19724136D01*
X11560944Y-19724136D02*
X11551420Y-19733660D01*
X11551420Y-19733660D02*
X11532372Y-19743184D01*
X11532372Y-19743184D02*
X11475229Y-19743184D01*
X11475229Y-19743184D02*
X11456182Y-19733660D01*
X11456182Y-19733660D02*
X11446658Y-19724136D01*
X11741896Y-19543184D02*
X11703801Y-19543184D01*
X11703801Y-19543184D02*
X11684753Y-19552708D01*
X11684753Y-19552708D02*
X11675229Y-19562231D01*
X11675229Y-19562231D02*
X11656182Y-19590803D01*
X11656182Y-19590803D02*
X11646658Y-19628898D01*
X11646658Y-19628898D02*
X11646658Y-19705089D01*
X11646658Y-19705089D02*
X11656182Y-19724136D01*
X11656182Y-19724136D02*
X11665706Y-19733660D01*
X11665706Y-19733660D02*
X11684753Y-19743184D01*
X11684753Y-19743184D02*
X11722848Y-19743184D01*
X11722848Y-19743184D02*
X11741896Y-19733660D01*
X11741896Y-19733660D02*
X11751420Y-19724136D01*
X11751420Y-19724136D02*
X11760944Y-19705089D01*
X11760944Y-19705089D02*
X11760944Y-19657470D01*
X11760944Y-19657470D02*
X11751420Y-19638422D01*
X11751420Y-19638422D02*
X11741896Y-19628898D01*
X11741896Y-19628898D02*
X11722848Y-19619374D01*
X11722848Y-19619374D02*
X11684753Y-19619374D01*
X11684753Y-19619374D02*
X11665706Y-19628898D01*
X11665706Y-19628898D02*
X11656182Y-19638422D01*
X11656182Y-19638422D02*
X11646658Y-19657470D01*
X11837134Y-19543184D02*
X11837134Y-19581279D01*
X11913325Y-19543184D02*
X11913325Y-19581279D01*
X12208563Y-19819374D02*
X12199039Y-19809850D01*
X12199039Y-19809850D02*
X12179991Y-19781279D01*
X12179991Y-19781279D02*
X12170468Y-19762231D01*
X12170468Y-19762231D02*
X12160944Y-19733660D01*
X12160944Y-19733660D02*
X12151420Y-19686041D01*
X12151420Y-19686041D02*
X12151420Y-19647946D01*
X12151420Y-19647946D02*
X12160944Y-19600327D01*
X12160944Y-19600327D02*
X12170468Y-19571755D01*
X12170468Y-19571755D02*
X12179991Y-19552708D01*
X12179991Y-19552708D02*
X12199039Y-19524136D01*
X12199039Y-19524136D02*
X12208563Y-19514612D01*
X12322848Y-19543184D02*
X12341896Y-19543184D01*
X12341896Y-19543184D02*
X12360944Y-19552708D01*
X12360944Y-19552708D02*
X12370468Y-19562231D01*
X12370468Y-19562231D02*
X12379991Y-19581279D01*
X12379991Y-19581279D02*
X12389515Y-19619374D01*
X12389515Y-19619374D02*
X12389515Y-19666993D01*
X12389515Y-19666993D02*
X12379991Y-19705089D01*
X12379991Y-19705089D02*
X12370468Y-19724136D01*
X12370468Y-19724136D02*
X12360944Y-19733660D01*
X12360944Y-19733660D02*
X12341896Y-19743184D01*
X12341896Y-19743184D02*
X12322848Y-19743184D01*
X12322848Y-19743184D02*
X12303801Y-19733660D01*
X12303801Y-19733660D02*
X12294277Y-19724136D01*
X12294277Y-19724136D02*
X12284753Y-19705089D01*
X12284753Y-19705089D02*
X12275229Y-19666993D01*
X12275229Y-19666993D02*
X12275229Y-19619374D01*
X12275229Y-19619374D02*
X12284753Y-19581279D01*
X12284753Y-19581279D02*
X12294277Y-19562231D01*
X12294277Y-19562231D02*
X12303801Y-19552708D01*
X12303801Y-19552708D02*
X12322848Y-19543184D01*
X12627610Y-19743184D02*
X12627610Y-19543184D01*
X12713325Y-19743184D02*
X12713325Y-19638422D01*
X12713325Y-19638422D02*
X12703801Y-19619374D01*
X12703801Y-19619374D02*
X12684753Y-19609850D01*
X12684753Y-19609850D02*
X12656182Y-19609850D01*
X12656182Y-19609850D02*
X12637134Y-19619374D01*
X12637134Y-19619374D02*
X12627610Y-19628898D01*
X12837134Y-19743184D02*
X12818087Y-19733660D01*
X12818087Y-19733660D02*
X12808563Y-19724136D01*
X12808563Y-19724136D02*
X12799039Y-19705089D01*
X12799039Y-19705089D02*
X12799039Y-19647946D01*
X12799039Y-19647946D02*
X12808563Y-19628898D01*
X12808563Y-19628898D02*
X12818087Y-19619374D01*
X12818087Y-19619374D02*
X12837134Y-19609850D01*
X12837134Y-19609850D02*
X12865706Y-19609850D01*
X12865706Y-19609850D02*
X12884753Y-19619374D01*
X12884753Y-19619374D02*
X12894277Y-19628898D01*
X12894277Y-19628898D02*
X12903801Y-19647946D01*
X12903801Y-19647946D02*
X12903801Y-19705089D01*
X12903801Y-19705089D02*
X12894277Y-19724136D01*
X12894277Y-19724136D02*
X12884753Y-19733660D01*
X12884753Y-19733660D02*
X12865706Y-19743184D01*
X12865706Y-19743184D02*
X12837134Y-19743184D01*
X13018087Y-19743184D02*
X12999039Y-19733660D01*
X12999039Y-19733660D02*
X12989515Y-19714612D01*
X12989515Y-19714612D02*
X12989515Y-19543184D01*
X13170468Y-19733660D02*
X13151420Y-19743184D01*
X13151420Y-19743184D02*
X13113325Y-19743184D01*
X13113325Y-19743184D02*
X13094277Y-19733660D01*
X13094277Y-19733660D02*
X13084753Y-19714612D01*
X13084753Y-19714612D02*
X13084753Y-19638422D01*
X13084753Y-19638422D02*
X13094277Y-19619374D01*
X13094277Y-19619374D02*
X13113325Y-19609850D01*
X13113325Y-19609850D02*
X13151420Y-19609850D01*
X13151420Y-19609850D02*
X13170468Y-19619374D01*
X13170468Y-19619374D02*
X13179991Y-19638422D01*
X13179991Y-19638422D02*
X13179991Y-19657470D01*
X13179991Y-19657470D02*
X13084753Y-19676517D01*
X13256182Y-19733660D02*
X13275230Y-19743184D01*
X13275230Y-19743184D02*
X13313325Y-19743184D01*
X13313325Y-19743184D02*
X13332372Y-19733660D01*
X13332372Y-19733660D02*
X13341896Y-19714612D01*
X13341896Y-19714612D02*
X13341896Y-19705089D01*
X13341896Y-19705089D02*
X13332372Y-19686041D01*
X13332372Y-19686041D02*
X13313325Y-19676517D01*
X13313325Y-19676517D02*
X13284753Y-19676517D01*
X13284753Y-19676517D02*
X13265706Y-19666993D01*
X13265706Y-19666993D02*
X13256182Y-19647946D01*
X13256182Y-19647946D02*
X13256182Y-19638422D01*
X13256182Y-19638422D02*
X13265706Y-19619374D01*
X13265706Y-19619374D02*
X13284753Y-19609850D01*
X13284753Y-19609850D02*
X13313325Y-19609850D01*
X13313325Y-19609850D02*
X13332372Y-19619374D01*
X13579992Y-19666993D02*
X13732373Y-19666993D01*
X13656182Y-19743184D02*
X13656182Y-19590803D01*
X14065706Y-19609850D02*
X14065706Y-19743184D01*
X14018087Y-19533660D02*
X13970468Y-19676517D01*
X13970468Y-19676517D02*
X14094277Y-19676517D01*
X14313325Y-19733660D02*
X14332373Y-19743184D01*
X14332373Y-19743184D02*
X14370468Y-19743184D01*
X14370468Y-19743184D02*
X14389515Y-19733660D01*
X14389515Y-19733660D02*
X14399039Y-19714612D01*
X14399039Y-19714612D02*
X14399039Y-19705089D01*
X14399039Y-19705089D02*
X14389515Y-19686041D01*
X14389515Y-19686041D02*
X14370468Y-19676517D01*
X14370468Y-19676517D02*
X14341896Y-19676517D01*
X14341896Y-19676517D02*
X14322849Y-19666993D01*
X14322849Y-19666993D02*
X14313325Y-19647946D01*
X14313325Y-19647946D02*
X14313325Y-19638422D01*
X14313325Y-19638422D02*
X14322849Y-19619374D01*
X14322849Y-19619374D02*
X14341896Y-19609850D01*
X14341896Y-19609850D02*
X14370468Y-19609850D01*
X14370468Y-19609850D02*
X14389515Y-19619374D01*
X14513325Y-19743184D02*
X14494277Y-19733660D01*
X14494277Y-19733660D02*
X14484754Y-19714612D01*
X14484754Y-19714612D02*
X14484754Y-19543184D01*
X14618087Y-19743184D02*
X14599039Y-19733660D01*
X14599039Y-19733660D02*
X14589515Y-19724136D01*
X14589515Y-19724136D02*
X14579992Y-19705089D01*
X14579992Y-19705089D02*
X14579992Y-19647946D01*
X14579992Y-19647946D02*
X14589515Y-19628898D01*
X14589515Y-19628898D02*
X14599039Y-19619374D01*
X14599039Y-19619374D02*
X14618087Y-19609850D01*
X14618087Y-19609850D02*
X14646658Y-19609850D01*
X14646658Y-19609850D02*
X14665706Y-19619374D01*
X14665706Y-19619374D02*
X14675230Y-19628898D01*
X14675230Y-19628898D02*
X14684754Y-19647946D01*
X14684754Y-19647946D02*
X14684754Y-19705089D01*
X14684754Y-19705089D02*
X14675230Y-19724136D01*
X14675230Y-19724136D02*
X14665706Y-19733660D01*
X14665706Y-19733660D02*
X14646658Y-19743184D01*
X14646658Y-19743184D02*
X14618087Y-19743184D01*
X14741896Y-19609850D02*
X14818087Y-19609850D01*
X14770468Y-19543184D02*
X14770468Y-19714612D01*
X14770468Y-19714612D02*
X14779992Y-19733660D01*
X14779992Y-19733660D02*
X14799039Y-19743184D01*
X14799039Y-19743184D02*
X14818087Y-19743184D01*
X14875230Y-19733660D02*
X14894277Y-19743184D01*
X14894277Y-19743184D02*
X14932373Y-19743184D01*
X14932373Y-19743184D02*
X14951420Y-19733660D01*
X14951420Y-19733660D02*
X14960944Y-19714612D01*
X14960944Y-19714612D02*
X14960944Y-19705089D01*
X14960944Y-19705089D02*
X14951420Y-19686041D01*
X14951420Y-19686041D02*
X14932373Y-19676517D01*
X14932373Y-19676517D02*
X14903801Y-19676517D01*
X14903801Y-19676517D02*
X14884754Y-19666993D01*
X14884754Y-19666993D02*
X14875230Y-19647946D01*
X14875230Y-19647946D02*
X14875230Y-19638422D01*
X14875230Y-19638422D02*
X14884754Y-19619374D01*
X14884754Y-19619374D02*
X14903801Y-19609850D01*
X14903801Y-19609850D02*
X14932373Y-19609850D01*
X14932373Y-19609850D02*
X14951420Y-19619374D01*
X15027611Y-19819374D02*
X15037135Y-19809850D01*
X15037135Y-19809850D02*
X15056182Y-19781279D01*
X15056182Y-19781279D02*
X15065706Y-19762231D01*
X15065706Y-19762231D02*
X15075230Y-19733660D01*
X15075230Y-19733660D02*
X15084754Y-19686041D01*
X15084754Y-19686041D02*
X15084754Y-19647946D01*
X15084754Y-19647946D02*
X15075230Y-19600327D01*
X15075230Y-19600327D02*
X15065706Y-19571755D01*
X15065706Y-19571755D02*
X15056182Y-19552708D01*
X15056182Y-19552708D02*
X15037135Y-19524136D01*
X15037135Y-19524136D02*
X15027611Y-19514612D01*
D12*
X8593500Y-19875700D02*
X8593500Y-19955700D01*
X8553500Y-19915700D02*
X8633500Y-19915700D01*
D11*
X8932372Y-19807184D02*
X8951420Y-19807184D01*
X8951420Y-19807184D02*
X8970467Y-19816708D01*
X8970467Y-19816708D02*
X8979991Y-19826231D01*
X8979991Y-19826231D02*
X8989515Y-19845279D01*
X8989515Y-19845279D02*
X8999039Y-19883374D01*
X8999039Y-19883374D02*
X8999039Y-19930993D01*
X8999039Y-19930993D02*
X8989515Y-19969089D01*
X8989515Y-19969089D02*
X8979991Y-19988136D01*
X8979991Y-19988136D02*
X8970467Y-19997660D01*
X8970467Y-19997660D02*
X8951420Y-20007184D01*
X8951420Y-20007184D02*
X8932372Y-20007184D01*
X8932372Y-20007184D02*
X8913324Y-19997660D01*
X8913324Y-19997660D02*
X8903801Y-19988136D01*
X8903801Y-19988136D02*
X8894277Y-19969089D01*
X8894277Y-19969089D02*
X8884753Y-19930993D01*
X8884753Y-19930993D02*
X8884753Y-19883374D01*
X8884753Y-19883374D02*
X8894277Y-19845279D01*
X8894277Y-19845279D02*
X8903801Y-19826231D01*
X8903801Y-19826231D02*
X8913324Y-19816708D01*
X8913324Y-19816708D02*
X8932372Y-19807184D01*
X9084753Y-19988136D02*
X9094277Y-19997660D01*
X9094277Y-19997660D02*
X9084753Y-20007184D01*
X9084753Y-20007184D02*
X9075229Y-19997660D01*
X9075229Y-19997660D02*
X9084753Y-19988136D01*
X9084753Y-19988136D02*
X9084753Y-20007184D01*
X9208563Y-19892898D02*
X9189515Y-19883374D01*
X9189515Y-19883374D02*
X9179991Y-19873850D01*
X9179991Y-19873850D02*
X9170467Y-19854803D01*
X9170467Y-19854803D02*
X9170467Y-19845279D01*
X9170467Y-19845279D02*
X9179991Y-19826231D01*
X9179991Y-19826231D02*
X9189515Y-19816708D01*
X9189515Y-19816708D02*
X9208563Y-19807184D01*
X9208563Y-19807184D02*
X9246658Y-19807184D01*
X9246658Y-19807184D02*
X9265705Y-19816708D01*
X9265705Y-19816708D02*
X9275229Y-19826231D01*
X9275229Y-19826231D02*
X9284753Y-19845279D01*
X9284753Y-19845279D02*
X9284753Y-19854803D01*
X9284753Y-19854803D02*
X9275229Y-19873850D01*
X9275229Y-19873850D02*
X9265705Y-19883374D01*
X9265705Y-19883374D02*
X9246658Y-19892898D01*
X9246658Y-19892898D02*
X9208563Y-19892898D01*
X9208563Y-19892898D02*
X9189515Y-19902422D01*
X9189515Y-19902422D02*
X9179991Y-19911946D01*
X9179991Y-19911946D02*
X9170467Y-19930993D01*
X9170467Y-19930993D02*
X9170467Y-19969089D01*
X9170467Y-19969089D02*
X9179991Y-19988136D01*
X9179991Y-19988136D02*
X9189515Y-19997660D01*
X9189515Y-19997660D02*
X9208563Y-20007184D01*
X9208563Y-20007184D02*
X9246658Y-20007184D01*
X9246658Y-20007184D02*
X9265705Y-19997660D01*
X9265705Y-19997660D02*
X9275229Y-19988136D01*
X9275229Y-19988136D02*
X9284753Y-19969089D01*
X9284753Y-19969089D02*
X9284753Y-19930993D01*
X9284753Y-19930993D02*
X9275229Y-19911946D01*
X9275229Y-19911946D02*
X9265705Y-19902422D01*
X9265705Y-19902422D02*
X9246658Y-19892898D01*
X9408563Y-19807184D02*
X9427610Y-19807184D01*
X9427610Y-19807184D02*
X9446658Y-19816708D01*
X9446658Y-19816708D02*
X9456182Y-19826231D01*
X9456182Y-19826231D02*
X9465705Y-19845279D01*
X9465705Y-19845279D02*
X9475229Y-19883374D01*
X9475229Y-19883374D02*
X9475229Y-19930993D01*
X9475229Y-19930993D02*
X9465705Y-19969089D01*
X9465705Y-19969089D02*
X9456182Y-19988136D01*
X9456182Y-19988136D02*
X9446658Y-19997660D01*
X9446658Y-19997660D02*
X9427610Y-20007184D01*
X9427610Y-20007184D02*
X9408563Y-20007184D01*
X9408563Y-20007184D02*
X9389515Y-19997660D01*
X9389515Y-19997660D02*
X9379991Y-19988136D01*
X9379991Y-19988136D02*
X9370467Y-19969089D01*
X9370467Y-19969089D02*
X9360944Y-19930993D01*
X9360944Y-19930993D02*
X9360944Y-19883374D01*
X9360944Y-19883374D02*
X9370467Y-19845279D01*
X9370467Y-19845279D02*
X9379991Y-19826231D01*
X9379991Y-19826231D02*
X9389515Y-19816708D01*
X9389515Y-19816708D02*
X9408563Y-19807184D01*
X9599039Y-19807184D02*
X9618086Y-19807184D01*
X9618086Y-19807184D02*
X9637134Y-19816708D01*
X9637134Y-19816708D02*
X9646658Y-19826231D01*
X9646658Y-19826231D02*
X9656182Y-19845279D01*
X9656182Y-19845279D02*
X9665705Y-19883374D01*
X9665705Y-19883374D02*
X9665705Y-19930993D01*
X9665705Y-19930993D02*
X9656182Y-19969089D01*
X9656182Y-19969089D02*
X9646658Y-19988136D01*
X9646658Y-19988136D02*
X9637134Y-19997660D01*
X9637134Y-19997660D02*
X9618086Y-20007184D01*
X9618086Y-20007184D02*
X9599039Y-20007184D01*
X9599039Y-20007184D02*
X9579991Y-19997660D01*
X9579991Y-19997660D02*
X9570467Y-19988136D01*
X9570467Y-19988136D02*
X9560944Y-19969089D01*
X9560944Y-19969089D02*
X9551420Y-19930993D01*
X9551420Y-19930993D02*
X9551420Y-19883374D01*
X9551420Y-19883374D02*
X9560944Y-19845279D01*
X9560944Y-19845279D02*
X9570467Y-19826231D01*
X9570467Y-19826231D02*
X9579991Y-19816708D01*
X9579991Y-19816708D02*
X9599039Y-19807184D01*
X9751420Y-20007184D02*
X9751420Y-19873850D01*
X9751420Y-19892898D02*
X9760944Y-19883374D01*
X9760944Y-19883374D02*
X9779991Y-19873850D01*
X9779991Y-19873850D02*
X9808563Y-19873850D01*
X9808563Y-19873850D02*
X9827610Y-19883374D01*
X9827610Y-19883374D02*
X9837134Y-19902422D01*
X9837134Y-19902422D02*
X9837134Y-20007184D01*
X9837134Y-19902422D02*
X9846658Y-19883374D01*
X9846658Y-19883374D02*
X9865705Y-19873850D01*
X9865705Y-19873850D02*
X9894277Y-19873850D01*
X9894277Y-19873850D02*
X9913325Y-19883374D01*
X9913325Y-19883374D02*
X9922848Y-19902422D01*
X9922848Y-19902422D02*
X9922848Y-20007184D01*
X10018086Y-20007184D02*
X10018086Y-19873850D01*
X10018086Y-19892898D02*
X10027610Y-19883374D01*
X10027610Y-19883374D02*
X10046658Y-19873850D01*
X10046658Y-19873850D02*
X10075229Y-19873850D01*
X10075229Y-19873850D02*
X10094277Y-19883374D01*
X10094277Y-19883374D02*
X10103801Y-19902422D01*
X10103801Y-19902422D02*
X10103801Y-20007184D01*
X10103801Y-19902422D02*
X10113325Y-19883374D01*
X10113325Y-19883374D02*
X10132372Y-19873850D01*
X10132372Y-19873850D02*
X10160944Y-19873850D01*
X10160944Y-19873850D02*
X10179991Y-19883374D01*
X10179991Y-19883374D02*
X10189515Y-19902422D01*
X10189515Y-19902422D02*
X10189515Y-20007184D01*
X10579991Y-19797660D02*
X10408563Y-20054803D01*
X10837134Y-19807184D02*
X10856182Y-19807184D01*
X10856182Y-19807184D02*
X10875229Y-19816708D01*
X10875229Y-19816708D02*
X10884753Y-19826231D01*
X10884753Y-19826231D02*
X10894277Y-19845279D01*
X10894277Y-19845279D02*
X10903801Y-19883374D01*
X10903801Y-19883374D02*
X10903801Y-19930993D01*
X10903801Y-19930993D02*
X10894277Y-19969089D01*
X10894277Y-19969089D02*
X10884753Y-19988136D01*
X10884753Y-19988136D02*
X10875229Y-19997660D01*
X10875229Y-19997660D02*
X10856182Y-20007184D01*
X10856182Y-20007184D02*
X10837134Y-20007184D01*
X10837134Y-20007184D02*
X10818087Y-19997660D01*
X10818087Y-19997660D02*
X10808563Y-19988136D01*
X10808563Y-19988136D02*
X10799039Y-19969089D01*
X10799039Y-19969089D02*
X10789515Y-19930993D01*
X10789515Y-19930993D02*
X10789515Y-19883374D01*
X10789515Y-19883374D02*
X10799039Y-19845279D01*
X10799039Y-19845279D02*
X10808563Y-19826231D01*
X10808563Y-19826231D02*
X10818087Y-19816708D01*
X10818087Y-19816708D02*
X10837134Y-19807184D01*
X10989515Y-19988136D02*
X10999039Y-19997660D01*
X10999039Y-19997660D02*
X10989515Y-20007184D01*
X10989515Y-20007184D02*
X10979991Y-19997660D01*
X10979991Y-19997660D02*
X10989515Y-19988136D01*
X10989515Y-19988136D02*
X10989515Y-20007184D01*
X11122848Y-19807184D02*
X11141896Y-19807184D01*
X11141896Y-19807184D02*
X11160944Y-19816708D01*
X11160944Y-19816708D02*
X11170468Y-19826231D01*
X11170468Y-19826231D02*
X11179991Y-19845279D01*
X11179991Y-19845279D02*
X11189515Y-19883374D01*
X11189515Y-19883374D02*
X11189515Y-19930993D01*
X11189515Y-19930993D02*
X11179991Y-19969089D01*
X11179991Y-19969089D02*
X11170468Y-19988136D01*
X11170468Y-19988136D02*
X11160944Y-19997660D01*
X11160944Y-19997660D02*
X11141896Y-20007184D01*
X11141896Y-20007184D02*
X11122848Y-20007184D01*
X11122848Y-20007184D02*
X11103801Y-19997660D01*
X11103801Y-19997660D02*
X11094277Y-19988136D01*
X11094277Y-19988136D02*
X11084753Y-19969089D01*
X11084753Y-19969089D02*
X11075229Y-19930993D01*
X11075229Y-19930993D02*
X11075229Y-19883374D01*
X11075229Y-19883374D02*
X11084753Y-19845279D01*
X11084753Y-19845279D02*
X11094277Y-19826231D01*
X11094277Y-19826231D02*
X11103801Y-19816708D01*
X11103801Y-19816708D02*
X11122848Y-19807184D01*
X11256182Y-19807184D02*
X11379991Y-19807184D01*
X11379991Y-19807184D02*
X11313325Y-19883374D01*
X11313325Y-19883374D02*
X11341896Y-19883374D01*
X11341896Y-19883374D02*
X11360944Y-19892898D01*
X11360944Y-19892898D02*
X11370467Y-19902422D01*
X11370467Y-19902422D02*
X11379991Y-19921470D01*
X11379991Y-19921470D02*
X11379991Y-19969089D01*
X11379991Y-19969089D02*
X11370467Y-19988136D01*
X11370467Y-19988136D02*
X11360944Y-19997660D01*
X11360944Y-19997660D02*
X11341896Y-20007184D01*
X11341896Y-20007184D02*
X11284753Y-20007184D01*
X11284753Y-20007184D02*
X11265706Y-19997660D01*
X11265706Y-19997660D02*
X11256182Y-19988136D01*
X11570467Y-20007184D02*
X11456182Y-20007184D01*
X11513325Y-20007184D02*
X11513325Y-19807184D01*
X11513325Y-19807184D02*
X11494277Y-19835755D01*
X11494277Y-19835755D02*
X11475229Y-19854803D01*
X11475229Y-19854803D02*
X11456182Y-19864327D01*
X11751420Y-19807184D02*
X11656182Y-19807184D01*
X11656182Y-19807184D02*
X11646658Y-19902422D01*
X11646658Y-19902422D02*
X11656182Y-19892898D01*
X11656182Y-19892898D02*
X11675229Y-19883374D01*
X11675229Y-19883374D02*
X11722848Y-19883374D01*
X11722848Y-19883374D02*
X11741896Y-19892898D01*
X11741896Y-19892898D02*
X11751420Y-19902422D01*
X11751420Y-19902422D02*
X11760944Y-19921470D01*
X11760944Y-19921470D02*
X11760944Y-19969089D01*
X11760944Y-19969089D02*
X11751420Y-19988136D01*
X11751420Y-19988136D02*
X11741896Y-19997660D01*
X11741896Y-19997660D02*
X11722848Y-20007184D01*
X11722848Y-20007184D02*
X11675229Y-20007184D01*
X11675229Y-20007184D02*
X11656182Y-19997660D01*
X11656182Y-19997660D02*
X11646658Y-19988136D01*
X11837134Y-19807184D02*
X11837134Y-19845279D01*
X11913325Y-19807184D02*
X11913325Y-19845279D01*
X12208563Y-20083374D02*
X12199039Y-20073850D01*
X12199039Y-20073850D02*
X12179991Y-20045279D01*
X12179991Y-20045279D02*
X12170468Y-20026231D01*
X12170468Y-20026231D02*
X12160944Y-19997660D01*
X12160944Y-19997660D02*
X12151420Y-19950041D01*
X12151420Y-19950041D02*
X12151420Y-19911946D01*
X12151420Y-19911946D02*
X12160944Y-19864327D01*
X12160944Y-19864327D02*
X12170468Y-19835755D01*
X12170468Y-19835755D02*
X12179991Y-19816708D01*
X12179991Y-19816708D02*
X12199039Y-19788136D01*
X12199039Y-19788136D02*
X12208563Y-19778612D01*
X12313325Y-19892898D02*
X12294277Y-19883374D01*
X12294277Y-19883374D02*
X12284753Y-19873850D01*
X12284753Y-19873850D02*
X12275229Y-19854803D01*
X12275229Y-19854803D02*
X12275229Y-19845279D01*
X12275229Y-19845279D02*
X12284753Y-19826231D01*
X12284753Y-19826231D02*
X12294277Y-19816708D01*
X12294277Y-19816708D02*
X12313325Y-19807184D01*
X12313325Y-19807184D02*
X12351420Y-19807184D01*
X12351420Y-19807184D02*
X12370468Y-19816708D01*
X12370468Y-19816708D02*
X12379991Y-19826231D01*
X12379991Y-19826231D02*
X12389515Y-19845279D01*
X12389515Y-19845279D02*
X12389515Y-19854803D01*
X12389515Y-19854803D02*
X12379991Y-19873850D01*
X12379991Y-19873850D02*
X12370468Y-19883374D01*
X12370468Y-19883374D02*
X12351420Y-19892898D01*
X12351420Y-19892898D02*
X12313325Y-19892898D01*
X12313325Y-19892898D02*
X12294277Y-19902422D01*
X12294277Y-19902422D02*
X12284753Y-19911946D01*
X12284753Y-19911946D02*
X12275229Y-19930993D01*
X12275229Y-19930993D02*
X12275229Y-19969089D01*
X12275229Y-19969089D02*
X12284753Y-19988136D01*
X12284753Y-19988136D02*
X12294277Y-19997660D01*
X12294277Y-19997660D02*
X12313325Y-20007184D01*
X12313325Y-20007184D02*
X12351420Y-20007184D01*
X12351420Y-20007184D02*
X12370468Y-19997660D01*
X12370468Y-19997660D02*
X12379991Y-19988136D01*
X12379991Y-19988136D02*
X12389515Y-19969089D01*
X12389515Y-19969089D02*
X12389515Y-19930993D01*
X12389515Y-19930993D02*
X12379991Y-19911946D01*
X12379991Y-19911946D02*
X12370468Y-19902422D01*
X12370468Y-19902422D02*
X12351420Y-19892898D01*
X12560944Y-19873850D02*
X12560944Y-20007184D01*
X12513325Y-19797660D02*
X12465706Y-19940517D01*
X12465706Y-19940517D02*
X12589515Y-19940517D01*
X12818087Y-20007184D02*
X12818087Y-19807184D01*
X12903801Y-20007184D02*
X12903801Y-19902422D01*
X12903801Y-19902422D02*
X12894277Y-19883374D01*
X12894277Y-19883374D02*
X12875230Y-19873850D01*
X12875230Y-19873850D02*
X12846658Y-19873850D01*
X12846658Y-19873850D02*
X12827610Y-19883374D01*
X12827610Y-19883374D02*
X12818087Y-19892898D01*
X13027610Y-20007184D02*
X13008563Y-19997660D01*
X13008563Y-19997660D02*
X12999039Y-19988136D01*
X12999039Y-19988136D02*
X12989515Y-19969089D01*
X12989515Y-19969089D02*
X12989515Y-19911946D01*
X12989515Y-19911946D02*
X12999039Y-19892898D01*
X12999039Y-19892898D02*
X13008563Y-19883374D01*
X13008563Y-19883374D02*
X13027610Y-19873850D01*
X13027610Y-19873850D02*
X13056182Y-19873850D01*
X13056182Y-19873850D02*
X13075230Y-19883374D01*
X13075230Y-19883374D02*
X13084753Y-19892898D01*
X13084753Y-19892898D02*
X13094277Y-19911946D01*
X13094277Y-19911946D02*
X13094277Y-19969089D01*
X13094277Y-19969089D02*
X13084753Y-19988136D01*
X13084753Y-19988136D02*
X13075230Y-19997660D01*
X13075230Y-19997660D02*
X13056182Y-20007184D01*
X13056182Y-20007184D02*
X13027610Y-20007184D01*
X13208563Y-20007184D02*
X13189515Y-19997660D01*
X13189515Y-19997660D02*
X13179991Y-19978612D01*
X13179991Y-19978612D02*
X13179991Y-19807184D01*
X13360944Y-19997660D02*
X13341896Y-20007184D01*
X13341896Y-20007184D02*
X13303801Y-20007184D01*
X13303801Y-20007184D02*
X13284753Y-19997660D01*
X13284753Y-19997660D02*
X13275230Y-19978612D01*
X13275230Y-19978612D02*
X13275230Y-19902422D01*
X13275230Y-19902422D02*
X13284753Y-19883374D01*
X13284753Y-19883374D02*
X13303801Y-19873850D01*
X13303801Y-19873850D02*
X13341896Y-19873850D01*
X13341896Y-19873850D02*
X13360944Y-19883374D01*
X13360944Y-19883374D02*
X13370468Y-19902422D01*
X13370468Y-19902422D02*
X13370468Y-19921470D01*
X13370468Y-19921470D02*
X13275230Y-19940517D01*
X13446658Y-19997660D02*
X13465706Y-20007184D01*
X13465706Y-20007184D02*
X13503801Y-20007184D01*
X13503801Y-20007184D02*
X13522849Y-19997660D01*
X13522849Y-19997660D02*
X13532372Y-19978612D01*
X13532372Y-19978612D02*
X13532372Y-19969089D01*
X13532372Y-19969089D02*
X13522849Y-19950041D01*
X13522849Y-19950041D02*
X13503801Y-19940517D01*
X13503801Y-19940517D02*
X13475230Y-19940517D01*
X13475230Y-19940517D02*
X13456182Y-19930993D01*
X13456182Y-19930993D02*
X13446658Y-19911946D01*
X13446658Y-19911946D02*
X13446658Y-19902422D01*
X13446658Y-19902422D02*
X13456182Y-19883374D01*
X13456182Y-19883374D02*
X13475230Y-19873850D01*
X13475230Y-19873850D02*
X13503801Y-19873850D01*
X13503801Y-19873850D02*
X13522849Y-19883374D01*
X13599039Y-20083374D02*
X13608563Y-20073850D01*
X13608563Y-20073850D02*
X13627611Y-20045279D01*
X13627611Y-20045279D02*
X13637134Y-20026231D01*
X13637134Y-20026231D02*
X13646658Y-19997660D01*
X13646658Y-19997660D02*
X13656182Y-19950041D01*
X13656182Y-19950041D02*
X13656182Y-19911946D01*
X13656182Y-19911946D02*
X13646658Y-19864327D01*
X13646658Y-19864327D02*
X13637134Y-19835755D01*
X13637134Y-19835755D02*
X13627611Y-19816708D01*
X13627611Y-19816708D02*
X13608563Y-19788136D01*
X13608563Y-19788136D02*
X13599039Y-19778612D01*
D12*
X8620320Y-20211520D02*
X8620320Y-20147880D01*
X8556680Y-20147880D01*
X8556680Y-20211520D01*
X8620320Y-20211520D01*
D11*
X8932372Y-20071184D02*
X8951420Y-20071184D01*
X8951420Y-20071184D02*
X8970467Y-20080708D01*
X8970467Y-20080708D02*
X8979991Y-20090231D01*
X8979991Y-20090231D02*
X8989515Y-20109279D01*
X8989515Y-20109279D02*
X8999039Y-20147374D01*
X8999039Y-20147374D02*
X8999039Y-20194993D01*
X8999039Y-20194993D02*
X8989515Y-20233089D01*
X8989515Y-20233089D02*
X8979991Y-20252136D01*
X8979991Y-20252136D02*
X8970467Y-20261660D01*
X8970467Y-20261660D02*
X8951420Y-20271184D01*
X8951420Y-20271184D02*
X8932372Y-20271184D01*
X8932372Y-20271184D02*
X8913324Y-20261660D01*
X8913324Y-20261660D02*
X8903801Y-20252136D01*
X8903801Y-20252136D02*
X8894277Y-20233089D01*
X8894277Y-20233089D02*
X8884753Y-20194993D01*
X8884753Y-20194993D02*
X8884753Y-20147374D01*
X8884753Y-20147374D02*
X8894277Y-20109279D01*
X8894277Y-20109279D02*
X8903801Y-20090231D01*
X8903801Y-20090231D02*
X8913324Y-20080708D01*
X8913324Y-20080708D02*
X8932372Y-20071184D01*
X9084753Y-20252136D02*
X9094277Y-20261660D01*
X9094277Y-20261660D02*
X9084753Y-20271184D01*
X9084753Y-20271184D02*
X9075229Y-20261660D01*
X9075229Y-20261660D02*
X9084753Y-20252136D01*
X9084753Y-20252136D02*
X9084753Y-20271184D01*
X9189515Y-20271184D02*
X9227610Y-20271184D01*
X9227610Y-20271184D02*
X9246658Y-20261660D01*
X9246658Y-20261660D02*
X9256182Y-20252136D01*
X9256182Y-20252136D02*
X9275229Y-20223565D01*
X9275229Y-20223565D02*
X9284753Y-20185470D01*
X9284753Y-20185470D02*
X9284753Y-20109279D01*
X9284753Y-20109279D02*
X9275229Y-20090231D01*
X9275229Y-20090231D02*
X9265705Y-20080708D01*
X9265705Y-20080708D02*
X9246658Y-20071184D01*
X9246658Y-20071184D02*
X9208563Y-20071184D01*
X9208563Y-20071184D02*
X9189515Y-20080708D01*
X9189515Y-20080708D02*
X9179991Y-20090231D01*
X9179991Y-20090231D02*
X9170467Y-20109279D01*
X9170467Y-20109279D02*
X9170467Y-20156898D01*
X9170467Y-20156898D02*
X9179991Y-20175946D01*
X9179991Y-20175946D02*
X9189515Y-20185470D01*
X9189515Y-20185470D02*
X9208563Y-20194993D01*
X9208563Y-20194993D02*
X9246658Y-20194993D01*
X9246658Y-20194993D02*
X9265705Y-20185470D01*
X9265705Y-20185470D02*
X9275229Y-20175946D01*
X9275229Y-20175946D02*
X9284753Y-20156898D01*
X9408563Y-20071184D02*
X9427610Y-20071184D01*
X9427610Y-20071184D02*
X9446658Y-20080708D01*
X9446658Y-20080708D02*
X9456182Y-20090231D01*
X9456182Y-20090231D02*
X9465705Y-20109279D01*
X9465705Y-20109279D02*
X9475229Y-20147374D01*
X9475229Y-20147374D02*
X9475229Y-20194993D01*
X9475229Y-20194993D02*
X9465705Y-20233089D01*
X9465705Y-20233089D02*
X9456182Y-20252136D01*
X9456182Y-20252136D02*
X9446658Y-20261660D01*
X9446658Y-20261660D02*
X9427610Y-20271184D01*
X9427610Y-20271184D02*
X9408563Y-20271184D01*
X9408563Y-20271184D02*
X9389515Y-20261660D01*
X9389515Y-20261660D02*
X9379991Y-20252136D01*
X9379991Y-20252136D02*
X9370467Y-20233089D01*
X9370467Y-20233089D02*
X9360944Y-20194993D01*
X9360944Y-20194993D02*
X9360944Y-20147374D01*
X9360944Y-20147374D02*
X9370467Y-20109279D01*
X9370467Y-20109279D02*
X9379991Y-20090231D01*
X9379991Y-20090231D02*
X9389515Y-20080708D01*
X9389515Y-20080708D02*
X9408563Y-20071184D01*
X9599039Y-20071184D02*
X9618086Y-20071184D01*
X9618086Y-20071184D02*
X9637134Y-20080708D01*
X9637134Y-20080708D02*
X9646658Y-20090231D01*
X9646658Y-20090231D02*
X9656182Y-20109279D01*
X9656182Y-20109279D02*
X9665705Y-20147374D01*
X9665705Y-20147374D02*
X9665705Y-20194993D01*
X9665705Y-20194993D02*
X9656182Y-20233089D01*
X9656182Y-20233089D02*
X9646658Y-20252136D01*
X9646658Y-20252136D02*
X9637134Y-20261660D01*
X9637134Y-20261660D02*
X9618086Y-20271184D01*
X9618086Y-20271184D02*
X9599039Y-20271184D01*
X9599039Y-20271184D02*
X9579991Y-20261660D01*
X9579991Y-20261660D02*
X9570467Y-20252136D01*
X9570467Y-20252136D02*
X9560944Y-20233089D01*
X9560944Y-20233089D02*
X9551420Y-20194993D01*
X9551420Y-20194993D02*
X9551420Y-20147374D01*
X9551420Y-20147374D02*
X9560944Y-20109279D01*
X9560944Y-20109279D02*
X9570467Y-20090231D01*
X9570467Y-20090231D02*
X9579991Y-20080708D01*
X9579991Y-20080708D02*
X9599039Y-20071184D01*
X9751420Y-20271184D02*
X9751420Y-20137850D01*
X9751420Y-20156898D02*
X9760944Y-20147374D01*
X9760944Y-20147374D02*
X9779991Y-20137850D01*
X9779991Y-20137850D02*
X9808563Y-20137850D01*
X9808563Y-20137850D02*
X9827610Y-20147374D01*
X9827610Y-20147374D02*
X9837134Y-20166422D01*
X9837134Y-20166422D02*
X9837134Y-20271184D01*
X9837134Y-20166422D02*
X9846658Y-20147374D01*
X9846658Y-20147374D02*
X9865705Y-20137850D01*
X9865705Y-20137850D02*
X9894277Y-20137850D01*
X9894277Y-20137850D02*
X9913325Y-20147374D01*
X9913325Y-20147374D02*
X9922848Y-20166422D01*
X9922848Y-20166422D02*
X9922848Y-20271184D01*
X10018086Y-20271184D02*
X10018086Y-20137850D01*
X10018086Y-20156898D02*
X10027610Y-20147374D01*
X10027610Y-20147374D02*
X10046658Y-20137850D01*
X10046658Y-20137850D02*
X10075229Y-20137850D01*
X10075229Y-20137850D02*
X10094277Y-20147374D01*
X10094277Y-20147374D02*
X10103801Y-20166422D01*
X10103801Y-20166422D02*
X10103801Y-20271184D01*
X10103801Y-20166422D02*
X10113325Y-20147374D01*
X10113325Y-20147374D02*
X10132372Y-20137850D01*
X10132372Y-20137850D02*
X10160944Y-20137850D01*
X10160944Y-20137850D02*
X10179991Y-20147374D01*
X10179991Y-20147374D02*
X10189515Y-20166422D01*
X10189515Y-20166422D02*
X10189515Y-20271184D01*
X10579991Y-20061660D02*
X10408563Y-20318803D01*
X10837134Y-20071184D02*
X10856182Y-20071184D01*
X10856182Y-20071184D02*
X10875229Y-20080708D01*
X10875229Y-20080708D02*
X10884753Y-20090231D01*
X10884753Y-20090231D02*
X10894277Y-20109279D01*
X10894277Y-20109279D02*
X10903801Y-20147374D01*
X10903801Y-20147374D02*
X10903801Y-20194993D01*
X10903801Y-20194993D02*
X10894277Y-20233089D01*
X10894277Y-20233089D02*
X10884753Y-20252136D01*
X10884753Y-20252136D02*
X10875229Y-20261660D01*
X10875229Y-20261660D02*
X10856182Y-20271184D01*
X10856182Y-20271184D02*
X10837134Y-20271184D01*
X10837134Y-20271184D02*
X10818087Y-20261660D01*
X10818087Y-20261660D02*
X10808563Y-20252136D01*
X10808563Y-20252136D02*
X10799039Y-20233089D01*
X10799039Y-20233089D02*
X10789515Y-20194993D01*
X10789515Y-20194993D02*
X10789515Y-20147374D01*
X10789515Y-20147374D02*
X10799039Y-20109279D01*
X10799039Y-20109279D02*
X10808563Y-20090231D01*
X10808563Y-20090231D02*
X10818087Y-20080708D01*
X10818087Y-20080708D02*
X10837134Y-20071184D01*
X10989515Y-20252136D02*
X10999039Y-20261660D01*
X10999039Y-20261660D02*
X10989515Y-20271184D01*
X10989515Y-20271184D02*
X10979991Y-20261660D01*
X10979991Y-20261660D02*
X10989515Y-20252136D01*
X10989515Y-20252136D02*
X10989515Y-20271184D01*
X11122848Y-20071184D02*
X11141896Y-20071184D01*
X11141896Y-20071184D02*
X11160944Y-20080708D01*
X11160944Y-20080708D02*
X11170468Y-20090231D01*
X11170468Y-20090231D02*
X11179991Y-20109279D01*
X11179991Y-20109279D02*
X11189515Y-20147374D01*
X11189515Y-20147374D02*
X11189515Y-20194993D01*
X11189515Y-20194993D02*
X11179991Y-20233089D01*
X11179991Y-20233089D02*
X11170468Y-20252136D01*
X11170468Y-20252136D02*
X11160944Y-20261660D01*
X11160944Y-20261660D02*
X11141896Y-20271184D01*
X11141896Y-20271184D02*
X11122848Y-20271184D01*
X11122848Y-20271184D02*
X11103801Y-20261660D01*
X11103801Y-20261660D02*
X11094277Y-20252136D01*
X11094277Y-20252136D02*
X11084753Y-20233089D01*
X11084753Y-20233089D02*
X11075229Y-20194993D01*
X11075229Y-20194993D02*
X11075229Y-20147374D01*
X11075229Y-20147374D02*
X11084753Y-20109279D01*
X11084753Y-20109279D02*
X11094277Y-20090231D01*
X11094277Y-20090231D02*
X11103801Y-20080708D01*
X11103801Y-20080708D02*
X11122848Y-20071184D01*
X11256182Y-20071184D02*
X11379991Y-20071184D01*
X11379991Y-20071184D02*
X11313325Y-20147374D01*
X11313325Y-20147374D02*
X11341896Y-20147374D01*
X11341896Y-20147374D02*
X11360944Y-20156898D01*
X11360944Y-20156898D02*
X11370467Y-20166422D01*
X11370467Y-20166422D02*
X11379991Y-20185470D01*
X11379991Y-20185470D02*
X11379991Y-20233089D01*
X11379991Y-20233089D02*
X11370467Y-20252136D01*
X11370467Y-20252136D02*
X11360944Y-20261660D01*
X11360944Y-20261660D02*
X11341896Y-20271184D01*
X11341896Y-20271184D02*
X11284753Y-20271184D01*
X11284753Y-20271184D02*
X11265706Y-20261660D01*
X11265706Y-20261660D02*
X11256182Y-20252136D01*
X11560944Y-20071184D02*
X11465706Y-20071184D01*
X11465706Y-20071184D02*
X11456182Y-20166422D01*
X11456182Y-20166422D02*
X11465706Y-20156898D01*
X11465706Y-20156898D02*
X11484753Y-20147374D01*
X11484753Y-20147374D02*
X11532372Y-20147374D01*
X11532372Y-20147374D02*
X11551420Y-20156898D01*
X11551420Y-20156898D02*
X11560944Y-20166422D01*
X11560944Y-20166422D02*
X11570467Y-20185470D01*
X11570467Y-20185470D02*
X11570467Y-20233089D01*
X11570467Y-20233089D02*
X11560944Y-20252136D01*
X11560944Y-20252136D02*
X11551420Y-20261660D01*
X11551420Y-20261660D02*
X11532372Y-20271184D01*
X11532372Y-20271184D02*
X11484753Y-20271184D01*
X11484753Y-20271184D02*
X11465706Y-20261660D01*
X11465706Y-20261660D02*
X11456182Y-20252136D01*
X11741896Y-20137850D02*
X11741896Y-20271184D01*
X11694277Y-20061660D02*
X11646658Y-20204517D01*
X11646658Y-20204517D02*
X11770467Y-20204517D01*
X11837134Y-20071184D02*
X11837134Y-20109279D01*
X11913325Y-20071184D02*
X11913325Y-20109279D01*
X12208563Y-20347374D02*
X12199039Y-20337850D01*
X12199039Y-20337850D02*
X12179991Y-20309279D01*
X12179991Y-20309279D02*
X12170468Y-20290231D01*
X12170468Y-20290231D02*
X12160944Y-20261660D01*
X12160944Y-20261660D02*
X12151420Y-20214041D01*
X12151420Y-20214041D02*
X12151420Y-20175946D01*
X12151420Y-20175946D02*
X12160944Y-20128327D01*
X12160944Y-20128327D02*
X12170468Y-20099755D01*
X12170468Y-20099755D02*
X12179991Y-20080708D01*
X12179991Y-20080708D02*
X12199039Y-20052136D01*
X12199039Y-20052136D02*
X12208563Y-20042612D01*
X12370468Y-20071184D02*
X12332372Y-20071184D01*
X12332372Y-20071184D02*
X12313325Y-20080708D01*
X12313325Y-20080708D02*
X12303801Y-20090231D01*
X12303801Y-20090231D02*
X12284753Y-20118803D01*
X12284753Y-20118803D02*
X12275229Y-20156898D01*
X12275229Y-20156898D02*
X12275229Y-20233089D01*
X12275229Y-20233089D02*
X12284753Y-20252136D01*
X12284753Y-20252136D02*
X12294277Y-20261660D01*
X12294277Y-20261660D02*
X12313325Y-20271184D01*
X12313325Y-20271184D02*
X12351420Y-20271184D01*
X12351420Y-20271184D02*
X12370468Y-20261660D01*
X12370468Y-20261660D02*
X12379991Y-20252136D01*
X12379991Y-20252136D02*
X12389515Y-20233089D01*
X12389515Y-20233089D02*
X12389515Y-20185470D01*
X12389515Y-20185470D02*
X12379991Y-20166422D01*
X12379991Y-20166422D02*
X12370468Y-20156898D01*
X12370468Y-20156898D02*
X12351420Y-20147374D01*
X12351420Y-20147374D02*
X12313325Y-20147374D01*
X12313325Y-20147374D02*
X12294277Y-20156898D01*
X12294277Y-20156898D02*
X12284753Y-20166422D01*
X12284753Y-20166422D02*
X12275229Y-20185470D01*
X12627610Y-20271184D02*
X12627610Y-20071184D01*
X12713325Y-20271184D02*
X12713325Y-20166422D01*
X12713325Y-20166422D02*
X12703801Y-20147374D01*
X12703801Y-20147374D02*
X12684753Y-20137850D01*
X12684753Y-20137850D02*
X12656182Y-20137850D01*
X12656182Y-20137850D02*
X12637134Y-20147374D01*
X12637134Y-20147374D02*
X12627610Y-20156898D01*
X12837134Y-20271184D02*
X12818087Y-20261660D01*
X12818087Y-20261660D02*
X12808563Y-20252136D01*
X12808563Y-20252136D02*
X12799039Y-20233089D01*
X12799039Y-20233089D02*
X12799039Y-20175946D01*
X12799039Y-20175946D02*
X12808563Y-20156898D01*
X12808563Y-20156898D02*
X12818087Y-20147374D01*
X12818087Y-20147374D02*
X12837134Y-20137850D01*
X12837134Y-20137850D02*
X12865706Y-20137850D01*
X12865706Y-20137850D02*
X12884753Y-20147374D01*
X12884753Y-20147374D02*
X12894277Y-20156898D01*
X12894277Y-20156898D02*
X12903801Y-20175946D01*
X12903801Y-20175946D02*
X12903801Y-20233089D01*
X12903801Y-20233089D02*
X12894277Y-20252136D01*
X12894277Y-20252136D02*
X12884753Y-20261660D01*
X12884753Y-20261660D02*
X12865706Y-20271184D01*
X12865706Y-20271184D02*
X12837134Y-20271184D01*
X13018087Y-20271184D02*
X12999039Y-20261660D01*
X12999039Y-20261660D02*
X12989515Y-20242612D01*
X12989515Y-20242612D02*
X12989515Y-20071184D01*
X13170468Y-20261660D02*
X13151420Y-20271184D01*
X13151420Y-20271184D02*
X13113325Y-20271184D01*
X13113325Y-20271184D02*
X13094277Y-20261660D01*
X13094277Y-20261660D02*
X13084753Y-20242612D01*
X13084753Y-20242612D02*
X13084753Y-20166422D01*
X13084753Y-20166422D02*
X13094277Y-20147374D01*
X13094277Y-20147374D02*
X13113325Y-20137850D01*
X13113325Y-20137850D02*
X13151420Y-20137850D01*
X13151420Y-20137850D02*
X13170468Y-20147374D01*
X13170468Y-20147374D02*
X13179991Y-20166422D01*
X13179991Y-20166422D02*
X13179991Y-20185470D01*
X13179991Y-20185470D02*
X13084753Y-20204517D01*
X13256182Y-20261660D02*
X13275230Y-20271184D01*
X13275230Y-20271184D02*
X13313325Y-20271184D01*
X13313325Y-20271184D02*
X13332372Y-20261660D01*
X13332372Y-20261660D02*
X13341896Y-20242612D01*
X13341896Y-20242612D02*
X13341896Y-20233089D01*
X13341896Y-20233089D02*
X13332372Y-20214041D01*
X13332372Y-20214041D02*
X13313325Y-20204517D01*
X13313325Y-20204517D02*
X13284753Y-20204517D01*
X13284753Y-20204517D02*
X13265706Y-20194993D01*
X13265706Y-20194993D02*
X13256182Y-20175946D01*
X13256182Y-20175946D02*
X13256182Y-20166422D01*
X13256182Y-20166422D02*
X13265706Y-20147374D01*
X13265706Y-20147374D02*
X13284753Y-20137850D01*
X13284753Y-20137850D02*
X13313325Y-20137850D01*
X13313325Y-20137850D02*
X13332372Y-20147374D01*
X13408563Y-20347374D02*
X13418087Y-20337850D01*
X13418087Y-20337850D02*
X13437134Y-20309279D01*
X13437134Y-20309279D02*
X13446658Y-20290231D01*
X13446658Y-20290231D02*
X13456182Y-20261660D01*
X13456182Y-20261660D02*
X13465706Y-20214041D01*
X13465706Y-20214041D02*
X13465706Y-20175946D01*
X13465706Y-20175946D02*
X13456182Y-20128327D01*
X13456182Y-20128327D02*
X13446658Y-20099755D01*
X13446658Y-20099755D02*
X13437134Y-20080708D01*
X13437134Y-20080708D02*
X13418087Y-20052136D01*
X13418087Y-20052136D02*
X13408563Y-20042612D01*
D12*
X8583500Y-20493700D02*
X8633500Y-20443700D01*
X8583500Y-20393700D01*
X8533500Y-20443700D01*
X8583500Y-20493700D01*
D11*
X8999039Y-20535184D02*
X8884753Y-20535184D01*
X8941896Y-20535184D02*
X8941896Y-20335184D01*
X8941896Y-20335184D02*
X8922848Y-20363755D01*
X8922848Y-20363755D02*
X8903801Y-20382803D01*
X8903801Y-20382803D02*
X8884753Y-20392327D01*
X9084753Y-20516136D02*
X9094277Y-20525660D01*
X9094277Y-20525660D02*
X9084753Y-20535184D01*
X9084753Y-20535184D02*
X9075229Y-20525660D01*
X9075229Y-20525660D02*
X9084753Y-20516136D01*
X9084753Y-20516136D02*
X9084753Y-20535184D01*
X9218086Y-20335184D02*
X9237134Y-20335184D01*
X9237134Y-20335184D02*
X9256182Y-20344708D01*
X9256182Y-20344708D02*
X9265705Y-20354231D01*
X9265705Y-20354231D02*
X9275229Y-20373279D01*
X9275229Y-20373279D02*
X9284753Y-20411374D01*
X9284753Y-20411374D02*
X9284753Y-20458993D01*
X9284753Y-20458993D02*
X9275229Y-20497089D01*
X9275229Y-20497089D02*
X9265705Y-20516136D01*
X9265705Y-20516136D02*
X9256182Y-20525660D01*
X9256182Y-20525660D02*
X9237134Y-20535184D01*
X9237134Y-20535184D02*
X9218086Y-20535184D01*
X9218086Y-20535184D02*
X9199039Y-20525660D01*
X9199039Y-20525660D02*
X9189515Y-20516136D01*
X9189515Y-20516136D02*
X9179991Y-20497089D01*
X9179991Y-20497089D02*
X9170467Y-20458993D01*
X9170467Y-20458993D02*
X9170467Y-20411374D01*
X9170467Y-20411374D02*
X9179991Y-20373279D01*
X9179991Y-20373279D02*
X9189515Y-20354231D01*
X9189515Y-20354231D02*
X9199039Y-20344708D01*
X9199039Y-20344708D02*
X9218086Y-20335184D01*
X9408563Y-20335184D02*
X9427610Y-20335184D01*
X9427610Y-20335184D02*
X9446658Y-20344708D01*
X9446658Y-20344708D02*
X9456182Y-20354231D01*
X9456182Y-20354231D02*
X9465705Y-20373279D01*
X9465705Y-20373279D02*
X9475229Y-20411374D01*
X9475229Y-20411374D02*
X9475229Y-20458993D01*
X9475229Y-20458993D02*
X9465705Y-20497089D01*
X9465705Y-20497089D02*
X9456182Y-20516136D01*
X9456182Y-20516136D02*
X9446658Y-20525660D01*
X9446658Y-20525660D02*
X9427610Y-20535184D01*
X9427610Y-20535184D02*
X9408563Y-20535184D01*
X9408563Y-20535184D02*
X9389515Y-20525660D01*
X9389515Y-20525660D02*
X9379991Y-20516136D01*
X9379991Y-20516136D02*
X9370467Y-20497089D01*
X9370467Y-20497089D02*
X9360944Y-20458993D01*
X9360944Y-20458993D02*
X9360944Y-20411374D01*
X9360944Y-20411374D02*
X9370467Y-20373279D01*
X9370467Y-20373279D02*
X9379991Y-20354231D01*
X9379991Y-20354231D02*
X9389515Y-20344708D01*
X9389515Y-20344708D02*
X9408563Y-20335184D01*
X9599039Y-20335184D02*
X9618086Y-20335184D01*
X9618086Y-20335184D02*
X9637134Y-20344708D01*
X9637134Y-20344708D02*
X9646658Y-20354231D01*
X9646658Y-20354231D02*
X9656182Y-20373279D01*
X9656182Y-20373279D02*
X9665705Y-20411374D01*
X9665705Y-20411374D02*
X9665705Y-20458993D01*
X9665705Y-20458993D02*
X9656182Y-20497089D01*
X9656182Y-20497089D02*
X9646658Y-20516136D01*
X9646658Y-20516136D02*
X9637134Y-20525660D01*
X9637134Y-20525660D02*
X9618086Y-20535184D01*
X9618086Y-20535184D02*
X9599039Y-20535184D01*
X9599039Y-20535184D02*
X9579991Y-20525660D01*
X9579991Y-20525660D02*
X9570467Y-20516136D01*
X9570467Y-20516136D02*
X9560944Y-20497089D01*
X9560944Y-20497089D02*
X9551420Y-20458993D01*
X9551420Y-20458993D02*
X9551420Y-20411374D01*
X9551420Y-20411374D02*
X9560944Y-20373279D01*
X9560944Y-20373279D02*
X9570467Y-20354231D01*
X9570467Y-20354231D02*
X9579991Y-20344708D01*
X9579991Y-20344708D02*
X9599039Y-20335184D01*
X9751420Y-20535184D02*
X9751420Y-20401850D01*
X9751420Y-20420898D02*
X9760944Y-20411374D01*
X9760944Y-20411374D02*
X9779991Y-20401850D01*
X9779991Y-20401850D02*
X9808563Y-20401850D01*
X9808563Y-20401850D02*
X9827610Y-20411374D01*
X9827610Y-20411374D02*
X9837134Y-20430422D01*
X9837134Y-20430422D02*
X9837134Y-20535184D01*
X9837134Y-20430422D02*
X9846658Y-20411374D01*
X9846658Y-20411374D02*
X9865705Y-20401850D01*
X9865705Y-20401850D02*
X9894277Y-20401850D01*
X9894277Y-20401850D02*
X9913325Y-20411374D01*
X9913325Y-20411374D02*
X9922848Y-20430422D01*
X9922848Y-20430422D02*
X9922848Y-20535184D01*
X10018086Y-20535184D02*
X10018086Y-20401850D01*
X10018086Y-20420898D02*
X10027610Y-20411374D01*
X10027610Y-20411374D02*
X10046658Y-20401850D01*
X10046658Y-20401850D02*
X10075229Y-20401850D01*
X10075229Y-20401850D02*
X10094277Y-20411374D01*
X10094277Y-20411374D02*
X10103801Y-20430422D01*
X10103801Y-20430422D02*
X10103801Y-20535184D01*
X10103801Y-20430422D02*
X10113325Y-20411374D01*
X10113325Y-20411374D02*
X10132372Y-20401850D01*
X10132372Y-20401850D02*
X10160944Y-20401850D01*
X10160944Y-20401850D02*
X10179991Y-20411374D01*
X10179991Y-20411374D02*
X10189515Y-20430422D01*
X10189515Y-20430422D02*
X10189515Y-20535184D01*
X10579991Y-20325660D02*
X10408563Y-20582803D01*
X10837134Y-20335184D02*
X10856182Y-20335184D01*
X10856182Y-20335184D02*
X10875229Y-20344708D01*
X10875229Y-20344708D02*
X10884753Y-20354231D01*
X10884753Y-20354231D02*
X10894277Y-20373279D01*
X10894277Y-20373279D02*
X10903801Y-20411374D01*
X10903801Y-20411374D02*
X10903801Y-20458993D01*
X10903801Y-20458993D02*
X10894277Y-20497089D01*
X10894277Y-20497089D02*
X10884753Y-20516136D01*
X10884753Y-20516136D02*
X10875229Y-20525660D01*
X10875229Y-20525660D02*
X10856182Y-20535184D01*
X10856182Y-20535184D02*
X10837134Y-20535184D01*
X10837134Y-20535184D02*
X10818087Y-20525660D01*
X10818087Y-20525660D02*
X10808563Y-20516136D01*
X10808563Y-20516136D02*
X10799039Y-20497089D01*
X10799039Y-20497089D02*
X10789515Y-20458993D01*
X10789515Y-20458993D02*
X10789515Y-20411374D01*
X10789515Y-20411374D02*
X10799039Y-20373279D01*
X10799039Y-20373279D02*
X10808563Y-20354231D01*
X10808563Y-20354231D02*
X10818087Y-20344708D01*
X10818087Y-20344708D02*
X10837134Y-20335184D01*
X10989515Y-20516136D02*
X10999039Y-20525660D01*
X10999039Y-20525660D02*
X10989515Y-20535184D01*
X10989515Y-20535184D02*
X10979991Y-20525660D01*
X10979991Y-20525660D02*
X10989515Y-20516136D01*
X10989515Y-20516136D02*
X10989515Y-20535184D01*
X11122848Y-20335184D02*
X11141896Y-20335184D01*
X11141896Y-20335184D02*
X11160944Y-20344708D01*
X11160944Y-20344708D02*
X11170468Y-20354231D01*
X11170468Y-20354231D02*
X11179991Y-20373279D01*
X11179991Y-20373279D02*
X11189515Y-20411374D01*
X11189515Y-20411374D02*
X11189515Y-20458993D01*
X11189515Y-20458993D02*
X11179991Y-20497089D01*
X11179991Y-20497089D02*
X11170468Y-20516136D01*
X11170468Y-20516136D02*
X11160944Y-20525660D01*
X11160944Y-20525660D02*
X11141896Y-20535184D01*
X11141896Y-20535184D02*
X11122848Y-20535184D01*
X11122848Y-20535184D02*
X11103801Y-20525660D01*
X11103801Y-20525660D02*
X11094277Y-20516136D01*
X11094277Y-20516136D02*
X11084753Y-20497089D01*
X11084753Y-20497089D02*
X11075229Y-20458993D01*
X11075229Y-20458993D02*
X11075229Y-20411374D01*
X11075229Y-20411374D02*
X11084753Y-20373279D01*
X11084753Y-20373279D02*
X11094277Y-20354231D01*
X11094277Y-20354231D02*
X11103801Y-20344708D01*
X11103801Y-20344708D02*
X11122848Y-20335184D01*
X11256182Y-20335184D02*
X11379991Y-20335184D01*
X11379991Y-20335184D02*
X11313325Y-20411374D01*
X11313325Y-20411374D02*
X11341896Y-20411374D01*
X11341896Y-20411374D02*
X11360944Y-20420898D01*
X11360944Y-20420898D02*
X11370467Y-20430422D01*
X11370467Y-20430422D02*
X11379991Y-20449470D01*
X11379991Y-20449470D02*
X11379991Y-20497089D01*
X11379991Y-20497089D02*
X11370467Y-20516136D01*
X11370467Y-20516136D02*
X11360944Y-20525660D01*
X11360944Y-20525660D02*
X11341896Y-20535184D01*
X11341896Y-20535184D02*
X11284753Y-20535184D01*
X11284753Y-20535184D02*
X11265706Y-20525660D01*
X11265706Y-20525660D02*
X11256182Y-20516136D01*
X11475229Y-20535184D02*
X11513325Y-20535184D01*
X11513325Y-20535184D02*
X11532372Y-20525660D01*
X11532372Y-20525660D02*
X11541896Y-20516136D01*
X11541896Y-20516136D02*
X11560944Y-20487565D01*
X11560944Y-20487565D02*
X11570467Y-20449470D01*
X11570467Y-20449470D02*
X11570467Y-20373279D01*
X11570467Y-20373279D02*
X11560944Y-20354231D01*
X11560944Y-20354231D02*
X11551420Y-20344708D01*
X11551420Y-20344708D02*
X11532372Y-20335184D01*
X11532372Y-20335184D02*
X11494277Y-20335184D01*
X11494277Y-20335184D02*
X11475229Y-20344708D01*
X11475229Y-20344708D02*
X11465706Y-20354231D01*
X11465706Y-20354231D02*
X11456182Y-20373279D01*
X11456182Y-20373279D02*
X11456182Y-20420898D01*
X11456182Y-20420898D02*
X11465706Y-20439946D01*
X11465706Y-20439946D02*
X11475229Y-20449470D01*
X11475229Y-20449470D02*
X11494277Y-20458993D01*
X11494277Y-20458993D02*
X11532372Y-20458993D01*
X11532372Y-20458993D02*
X11551420Y-20449470D01*
X11551420Y-20449470D02*
X11560944Y-20439946D01*
X11560944Y-20439946D02*
X11570467Y-20420898D01*
X11741896Y-20401850D02*
X11741896Y-20535184D01*
X11694277Y-20325660D02*
X11646658Y-20468517D01*
X11646658Y-20468517D02*
X11770467Y-20468517D01*
X11837134Y-20335184D02*
X11837134Y-20373279D01*
X11913325Y-20335184D02*
X11913325Y-20373279D01*
X12208563Y-20611374D02*
X12199039Y-20601850D01*
X12199039Y-20601850D02*
X12179991Y-20573279D01*
X12179991Y-20573279D02*
X12170468Y-20554231D01*
X12170468Y-20554231D02*
X12160944Y-20525660D01*
X12160944Y-20525660D02*
X12151420Y-20478041D01*
X12151420Y-20478041D02*
X12151420Y-20439946D01*
X12151420Y-20439946D02*
X12160944Y-20392327D01*
X12160944Y-20392327D02*
X12170468Y-20363755D01*
X12170468Y-20363755D02*
X12179991Y-20344708D01*
X12179991Y-20344708D02*
X12199039Y-20316136D01*
X12199039Y-20316136D02*
X12208563Y-20306612D01*
X12275229Y-20354231D02*
X12284753Y-20344708D01*
X12284753Y-20344708D02*
X12303801Y-20335184D01*
X12303801Y-20335184D02*
X12351420Y-20335184D01*
X12351420Y-20335184D02*
X12370468Y-20344708D01*
X12370468Y-20344708D02*
X12379991Y-20354231D01*
X12379991Y-20354231D02*
X12389515Y-20373279D01*
X12389515Y-20373279D02*
X12389515Y-20392327D01*
X12389515Y-20392327D02*
X12379991Y-20420898D01*
X12379991Y-20420898D02*
X12265706Y-20535184D01*
X12265706Y-20535184D02*
X12389515Y-20535184D01*
X12513325Y-20335184D02*
X12532372Y-20335184D01*
X12532372Y-20335184D02*
X12551420Y-20344708D01*
X12551420Y-20344708D02*
X12560944Y-20354231D01*
X12560944Y-20354231D02*
X12570468Y-20373279D01*
X12570468Y-20373279D02*
X12579991Y-20411374D01*
X12579991Y-20411374D02*
X12579991Y-20458993D01*
X12579991Y-20458993D02*
X12570468Y-20497089D01*
X12570468Y-20497089D02*
X12560944Y-20516136D01*
X12560944Y-20516136D02*
X12551420Y-20525660D01*
X12551420Y-20525660D02*
X12532372Y-20535184D01*
X12532372Y-20535184D02*
X12513325Y-20535184D01*
X12513325Y-20535184D02*
X12494277Y-20525660D01*
X12494277Y-20525660D02*
X12484753Y-20516136D01*
X12484753Y-20516136D02*
X12475229Y-20497089D01*
X12475229Y-20497089D02*
X12465706Y-20458993D01*
X12465706Y-20458993D02*
X12465706Y-20411374D01*
X12465706Y-20411374D02*
X12475229Y-20373279D01*
X12475229Y-20373279D02*
X12484753Y-20354231D01*
X12484753Y-20354231D02*
X12494277Y-20344708D01*
X12494277Y-20344708D02*
X12513325Y-20335184D01*
X12818087Y-20535184D02*
X12818087Y-20335184D01*
X12903801Y-20535184D02*
X12903801Y-20430422D01*
X12903801Y-20430422D02*
X12894277Y-20411374D01*
X12894277Y-20411374D02*
X12875230Y-20401850D01*
X12875230Y-20401850D02*
X12846658Y-20401850D01*
X12846658Y-20401850D02*
X12827610Y-20411374D01*
X12827610Y-20411374D02*
X12818087Y-20420898D01*
X13027610Y-20535184D02*
X13008563Y-20525660D01*
X13008563Y-20525660D02*
X12999039Y-20516136D01*
X12999039Y-20516136D02*
X12989515Y-20497089D01*
X12989515Y-20497089D02*
X12989515Y-20439946D01*
X12989515Y-20439946D02*
X12999039Y-20420898D01*
X12999039Y-20420898D02*
X13008563Y-20411374D01*
X13008563Y-20411374D02*
X13027610Y-20401850D01*
X13027610Y-20401850D02*
X13056182Y-20401850D01*
X13056182Y-20401850D02*
X13075230Y-20411374D01*
X13075230Y-20411374D02*
X13084753Y-20420898D01*
X13084753Y-20420898D02*
X13094277Y-20439946D01*
X13094277Y-20439946D02*
X13094277Y-20497089D01*
X13094277Y-20497089D02*
X13084753Y-20516136D01*
X13084753Y-20516136D02*
X13075230Y-20525660D01*
X13075230Y-20525660D02*
X13056182Y-20535184D01*
X13056182Y-20535184D02*
X13027610Y-20535184D01*
X13208563Y-20535184D02*
X13189515Y-20525660D01*
X13189515Y-20525660D02*
X13179991Y-20506612D01*
X13179991Y-20506612D02*
X13179991Y-20335184D01*
X13360944Y-20525660D02*
X13341896Y-20535184D01*
X13341896Y-20535184D02*
X13303801Y-20535184D01*
X13303801Y-20535184D02*
X13284753Y-20525660D01*
X13284753Y-20525660D02*
X13275230Y-20506612D01*
X13275230Y-20506612D02*
X13275230Y-20430422D01*
X13275230Y-20430422D02*
X13284753Y-20411374D01*
X13284753Y-20411374D02*
X13303801Y-20401850D01*
X13303801Y-20401850D02*
X13341896Y-20401850D01*
X13341896Y-20401850D02*
X13360944Y-20411374D01*
X13360944Y-20411374D02*
X13370468Y-20430422D01*
X13370468Y-20430422D02*
X13370468Y-20449470D01*
X13370468Y-20449470D02*
X13275230Y-20468517D01*
X13446658Y-20525660D02*
X13465706Y-20535184D01*
X13465706Y-20535184D02*
X13503801Y-20535184D01*
X13503801Y-20535184D02*
X13522849Y-20525660D01*
X13522849Y-20525660D02*
X13532372Y-20506612D01*
X13532372Y-20506612D02*
X13532372Y-20497089D01*
X13532372Y-20497089D02*
X13522849Y-20478041D01*
X13522849Y-20478041D02*
X13503801Y-20468517D01*
X13503801Y-20468517D02*
X13475230Y-20468517D01*
X13475230Y-20468517D02*
X13456182Y-20458993D01*
X13456182Y-20458993D02*
X13446658Y-20439946D01*
X13446658Y-20439946D02*
X13446658Y-20430422D01*
X13446658Y-20430422D02*
X13456182Y-20411374D01*
X13456182Y-20411374D02*
X13475230Y-20401850D01*
X13475230Y-20401850D02*
X13503801Y-20401850D01*
X13503801Y-20401850D02*
X13522849Y-20411374D01*
X13599039Y-20611374D02*
X13608563Y-20601850D01*
X13608563Y-20601850D02*
X13627611Y-20573279D01*
X13627611Y-20573279D02*
X13637134Y-20554231D01*
X13637134Y-20554231D02*
X13646658Y-20525660D01*
X13646658Y-20525660D02*
X13656182Y-20478041D01*
X13656182Y-20478041D02*
X13656182Y-20439946D01*
X13656182Y-20439946D02*
X13646658Y-20392327D01*
X13646658Y-20392327D02*
X13637134Y-20363755D01*
X13637134Y-20363755D02*
X13627611Y-20344708D01*
X13627611Y-20344708D02*
X13608563Y-20316136D01*
X13608563Y-20316136D02*
X13599039Y-20306612D01*
D13*
X8521740Y-20651820D02*
X8633500Y-20763580D01*
X8633500Y-20651820D02*
X8521740Y-20763580D01*
X8633500Y-20707700D02*
G75*
G02*
X8521740Y-20707700I-55880J0D01*
G01*
X8521740Y-20707700D02*
G75*
G02*
X8633500Y-20707700I55880J0D01*
G01*
D11*
X8999039Y-20799184D02*
X8884753Y-20799184D01*
X8941896Y-20799184D02*
X8941896Y-20599184D01*
X8941896Y-20599184D02*
X8922848Y-20627755D01*
X8922848Y-20627755D02*
X8903801Y-20646803D01*
X8903801Y-20646803D02*
X8884753Y-20656327D01*
X9084753Y-20780136D02*
X9094277Y-20789660D01*
X9094277Y-20789660D02*
X9084753Y-20799184D01*
X9084753Y-20799184D02*
X9075229Y-20789660D01*
X9075229Y-20789660D02*
X9084753Y-20780136D01*
X9084753Y-20780136D02*
X9084753Y-20799184D01*
X9284753Y-20799184D02*
X9170467Y-20799184D01*
X9227610Y-20799184D02*
X9227610Y-20599184D01*
X9227610Y-20599184D02*
X9208563Y-20627755D01*
X9208563Y-20627755D02*
X9189515Y-20646803D01*
X9189515Y-20646803D02*
X9170467Y-20656327D01*
X9475229Y-20799184D02*
X9360944Y-20799184D01*
X9418086Y-20799184D02*
X9418086Y-20599184D01*
X9418086Y-20599184D02*
X9399039Y-20627755D01*
X9399039Y-20627755D02*
X9379991Y-20646803D01*
X9379991Y-20646803D02*
X9360944Y-20656327D01*
X9589515Y-20684898D02*
X9570467Y-20675374D01*
X9570467Y-20675374D02*
X9560944Y-20665850D01*
X9560944Y-20665850D02*
X9551420Y-20646803D01*
X9551420Y-20646803D02*
X9551420Y-20637279D01*
X9551420Y-20637279D02*
X9560944Y-20618231D01*
X9560944Y-20618231D02*
X9570467Y-20608708D01*
X9570467Y-20608708D02*
X9589515Y-20599184D01*
X9589515Y-20599184D02*
X9627610Y-20599184D01*
X9627610Y-20599184D02*
X9646658Y-20608708D01*
X9646658Y-20608708D02*
X9656182Y-20618231D01*
X9656182Y-20618231D02*
X9665705Y-20637279D01*
X9665705Y-20637279D02*
X9665705Y-20646803D01*
X9665705Y-20646803D02*
X9656182Y-20665850D01*
X9656182Y-20665850D02*
X9646658Y-20675374D01*
X9646658Y-20675374D02*
X9627610Y-20684898D01*
X9627610Y-20684898D02*
X9589515Y-20684898D01*
X9589515Y-20684898D02*
X9570467Y-20694422D01*
X9570467Y-20694422D02*
X9560944Y-20703946D01*
X9560944Y-20703946D02*
X9551420Y-20722993D01*
X9551420Y-20722993D02*
X9551420Y-20761089D01*
X9551420Y-20761089D02*
X9560944Y-20780136D01*
X9560944Y-20780136D02*
X9570467Y-20789660D01*
X9570467Y-20789660D02*
X9589515Y-20799184D01*
X9589515Y-20799184D02*
X9627610Y-20799184D01*
X9627610Y-20799184D02*
X9646658Y-20789660D01*
X9646658Y-20789660D02*
X9656182Y-20780136D01*
X9656182Y-20780136D02*
X9665705Y-20761089D01*
X9665705Y-20761089D02*
X9665705Y-20722993D01*
X9665705Y-20722993D02*
X9656182Y-20703946D01*
X9656182Y-20703946D02*
X9646658Y-20694422D01*
X9646658Y-20694422D02*
X9627610Y-20684898D01*
X9751420Y-20799184D02*
X9751420Y-20665850D01*
X9751420Y-20684898D02*
X9760944Y-20675374D01*
X9760944Y-20675374D02*
X9779991Y-20665850D01*
X9779991Y-20665850D02*
X9808563Y-20665850D01*
X9808563Y-20665850D02*
X9827610Y-20675374D01*
X9827610Y-20675374D02*
X9837134Y-20694422D01*
X9837134Y-20694422D02*
X9837134Y-20799184D01*
X9837134Y-20694422D02*
X9846658Y-20675374D01*
X9846658Y-20675374D02*
X9865705Y-20665850D01*
X9865705Y-20665850D02*
X9894277Y-20665850D01*
X9894277Y-20665850D02*
X9913325Y-20675374D01*
X9913325Y-20675374D02*
X9922848Y-20694422D01*
X9922848Y-20694422D02*
X9922848Y-20799184D01*
X10018086Y-20799184D02*
X10018086Y-20665850D01*
X10018086Y-20684898D02*
X10027610Y-20675374D01*
X10027610Y-20675374D02*
X10046658Y-20665850D01*
X10046658Y-20665850D02*
X10075229Y-20665850D01*
X10075229Y-20665850D02*
X10094277Y-20675374D01*
X10094277Y-20675374D02*
X10103801Y-20694422D01*
X10103801Y-20694422D02*
X10103801Y-20799184D01*
X10103801Y-20694422D02*
X10113325Y-20675374D01*
X10113325Y-20675374D02*
X10132372Y-20665850D01*
X10132372Y-20665850D02*
X10160944Y-20665850D01*
X10160944Y-20665850D02*
X10179991Y-20675374D01*
X10179991Y-20675374D02*
X10189515Y-20694422D01*
X10189515Y-20694422D02*
X10189515Y-20799184D01*
X10579991Y-20589660D02*
X10408563Y-20846803D01*
X10837134Y-20599184D02*
X10856182Y-20599184D01*
X10856182Y-20599184D02*
X10875229Y-20608708D01*
X10875229Y-20608708D02*
X10884753Y-20618231D01*
X10884753Y-20618231D02*
X10894277Y-20637279D01*
X10894277Y-20637279D02*
X10903801Y-20675374D01*
X10903801Y-20675374D02*
X10903801Y-20722993D01*
X10903801Y-20722993D02*
X10894277Y-20761089D01*
X10894277Y-20761089D02*
X10884753Y-20780136D01*
X10884753Y-20780136D02*
X10875229Y-20789660D01*
X10875229Y-20789660D02*
X10856182Y-20799184D01*
X10856182Y-20799184D02*
X10837134Y-20799184D01*
X10837134Y-20799184D02*
X10818087Y-20789660D01*
X10818087Y-20789660D02*
X10808563Y-20780136D01*
X10808563Y-20780136D02*
X10799039Y-20761089D01*
X10799039Y-20761089D02*
X10789515Y-20722993D01*
X10789515Y-20722993D02*
X10789515Y-20675374D01*
X10789515Y-20675374D02*
X10799039Y-20637279D01*
X10799039Y-20637279D02*
X10808563Y-20618231D01*
X10808563Y-20618231D02*
X10818087Y-20608708D01*
X10818087Y-20608708D02*
X10837134Y-20599184D01*
X10989515Y-20780136D02*
X10999039Y-20789660D01*
X10999039Y-20789660D02*
X10989515Y-20799184D01*
X10989515Y-20799184D02*
X10979991Y-20789660D01*
X10979991Y-20789660D02*
X10989515Y-20780136D01*
X10989515Y-20780136D02*
X10989515Y-20799184D01*
X11122848Y-20599184D02*
X11141896Y-20599184D01*
X11141896Y-20599184D02*
X11160944Y-20608708D01*
X11160944Y-20608708D02*
X11170468Y-20618231D01*
X11170468Y-20618231D02*
X11179991Y-20637279D01*
X11179991Y-20637279D02*
X11189515Y-20675374D01*
X11189515Y-20675374D02*
X11189515Y-20722993D01*
X11189515Y-20722993D02*
X11179991Y-20761089D01*
X11179991Y-20761089D02*
X11170468Y-20780136D01*
X11170468Y-20780136D02*
X11160944Y-20789660D01*
X11160944Y-20789660D02*
X11141896Y-20799184D01*
X11141896Y-20799184D02*
X11122848Y-20799184D01*
X11122848Y-20799184D02*
X11103801Y-20789660D01*
X11103801Y-20789660D02*
X11094277Y-20780136D01*
X11094277Y-20780136D02*
X11084753Y-20761089D01*
X11084753Y-20761089D02*
X11075229Y-20722993D01*
X11075229Y-20722993D02*
X11075229Y-20675374D01*
X11075229Y-20675374D02*
X11084753Y-20637279D01*
X11084753Y-20637279D02*
X11094277Y-20618231D01*
X11094277Y-20618231D02*
X11103801Y-20608708D01*
X11103801Y-20608708D02*
X11122848Y-20599184D01*
X11360944Y-20665850D02*
X11360944Y-20799184D01*
X11313325Y-20589660D02*
X11265706Y-20732517D01*
X11265706Y-20732517D02*
X11389515Y-20732517D01*
X11551420Y-20665850D02*
X11551420Y-20799184D01*
X11503801Y-20589660D02*
X11456182Y-20732517D01*
X11456182Y-20732517D02*
X11579991Y-20732517D01*
X11694277Y-20599184D02*
X11713325Y-20599184D01*
X11713325Y-20599184D02*
X11732372Y-20608708D01*
X11732372Y-20608708D02*
X11741896Y-20618231D01*
X11741896Y-20618231D02*
X11751420Y-20637279D01*
X11751420Y-20637279D02*
X11760944Y-20675374D01*
X11760944Y-20675374D02*
X11760944Y-20722993D01*
X11760944Y-20722993D02*
X11751420Y-20761089D01*
X11751420Y-20761089D02*
X11741896Y-20780136D01*
X11741896Y-20780136D02*
X11732372Y-20789660D01*
X11732372Y-20789660D02*
X11713325Y-20799184D01*
X11713325Y-20799184D02*
X11694277Y-20799184D01*
X11694277Y-20799184D02*
X11675229Y-20789660D01*
X11675229Y-20789660D02*
X11665706Y-20780136D01*
X11665706Y-20780136D02*
X11656182Y-20761089D01*
X11656182Y-20761089D02*
X11646658Y-20722993D01*
X11646658Y-20722993D02*
X11646658Y-20675374D01*
X11646658Y-20675374D02*
X11656182Y-20637279D01*
X11656182Y-20637279D02*
X11665706Y-20618231D01*
X11665706Y-20618231D02*
X11675229Y-20608708D01*
X11675229Y-20608708D02*
X11694277Y-20599184D01*
X11837134Y-20599184D02*
X11837134Y-20637279D01*
X11913325Y-20599184D02*
X11913325Y-20637279D01*
X12208563Y-20875374D02*
X12199039Y-20865850D01*
X12199039Y-20865850D02*
X12179991Y-20837279D01*
X12179991Y-20837279D02*
X12170468Y-20818231D01*
X12170468Y-20818231D02*
X12160944Y-20789660D01*
X12160944Y-20789660D02*
X12151420Y-20742041D01*
X12151420Y-20742041D02*
X12151420Y-20703946D01*
X12151420Y-20703946D02*
X12160944Y-20656327D01*
X12160944Y-20656327D02*
X12170468Y-20627755D01*
X12170468Y-20627755D02*
X12179991Y-20608708D01*
X12179991Y-20608708D02*
X12199039Y-20580136D01*
X12199039Y-20580136D02*
X12208563Y-20570612D01*
X12389515Y-20799184D02*
X12275229Y-20799184D01*
X12332372Y-20799184D02*
X12332372Y-20599184D01*
X12332372Y-20599184D02*
X12313325Y-20627755D01*
X12313325Y-20627755D02*
X12294277Y-20646803D01*
X12294277Y-20646803D02*
X12275229Y-20656327D01*
X12503801Y-20684898D02*
X12484753Y-20675374D01*
X12484753Y-20675374D02*
X12475229Y-20665850D01*
X12475229Y-20665850D02*
X12465706Y-20646803D01*
X12465706Y-20646803D02*
X12465706Y-20637279D01*
X12465706Y-20637279D02*
X12475229Y-20618231D01*
X12475229Y-20618231D02*
X12484753Y-20608708D01*
X12484753Y-20608708D02*
X12503801Y-20599184D01*
X12503801Y-20599184D02*
X12541896Y-20599184D01*
X12541896Y-20599184D02*
X12560944Y-20608708D01*
X12560944Y-20608708D02*
X12570468Y-20618231D01*
X12570468Y-20618231D02*
X12579991Y-20637279D01*
X12579991Y-20637279D02*
X12579991Y-20646803D01*
X12579991Y-20646803D02*
X12570468Y-20665850D01*
X12570468Y-20665850D02*
X12560944Y-20675374D01*
X12560944Y-20675374D02*
X12541896Y-20684898D01*
X12541896Y-20684898D02*
X12503801Y-20684898D01*
X12503801Y-20684898D02*
X12484753Y-20694422D01*
X12484753Y-20694422D02*
X12475229Y-20703946D01*
X12475229Y-20703946D02*
X12465706Y-20722993D01*
X12465706Y-20722993D02*
X12465706Y-20761089D01*
X12465706Y-20761089D02*
X12475229Y-20780136D01*
X12475229Y-20780136D02*
X12484753Y-20789660D01*
X12484753Y-20789660D02*
X12503801Y-20799184D01*
X12503801Y-20799184D02*
X12541896Y-20799184D01*
X12541896Y-20799184D02*
X12560944Y-20789660D01*
X12560944Y-20789660D02*
X12570468Y-20780136D01*
X12570468Y-20780136D02*
X12579991Y-20761089D01*
X12579991Y-20761089D02*
X12579991Y-20722993D01*
X12579991Y-20722993D02*
X12570468Y-20703946D01*
X12570468Y-20703946D02*
X12560944Y-20694422D01*
X12560944Y-20694422D02*
X12541896Y-20684898D01*
X12818087Y-20799184D02*
X12818087Y-20599184D01*
X12903801Y-20799184D02*
X12903801Y-20694422D01*
X12903801Y-20694422D02*
X12894277Y-20675374D01*
X12894277Y-20675374D02*
X12875230Y-20665850D01*
X12875230Y-20665850D02*
X12846658Y-20665850D01*
X12846658Y-20665850D02*
X12827610Y-20675374D01*
X12827610Y-20675374D02*
X12818087Y-20684898D01*
X13027610Y-20799184D02*
X13008563Y-20789660D01*
X13008563Y-20789660D02*
X12999039Y-20780136D01*
X12999039Y-20780136D02*
X12989515Y-20761089D01*
X12989515Y-20761089D02*
X12989515Y-20703946D01*
X12989515Y-20703946D02*
X12999039Y-20684898D01*
X12999039Y-20684898D02*
X13008563Y-20675374D01*
X13008563Y-20675374D02*
X13027610Y-20665850D01*
X13027610Y-20665850D02*
X13056182Y-20665850D01*
X13056182Y-20665850D02*
X13075230Y-20675374D01*
X13075230Y-20675374D02*
X13084753Y-20684898D01*
X13084753Y-20684898D02*
X13094277Y-20703946D01*
X13094277Y-20703946D02*
X13094277Y-20761089D01*
X13094277Y-20761089D02*
X13084753Y-20780136D01*
X13084753Y-20780136D02*
X13075230Y-20789660D01*
X13075230Y-20789660D02*
X13056182Y-20799184D01*
X13056182Y-20799184D02*
X13027610Y-20799184D01*
X13208563Y-20799184D02*
X13189515Y-20789660D01*
X13189515Y-20789660D02*
X13179991Y-20770612D01*
X13179991Y-20770612D02*
X13179991Y-20599184D01*
X13360944Y-20789660D02*
X13341896Y-20799184D01*
X13341896Y-20799184D02*
X13303801Y-20799184D01*
X13303801Y-20799184D02*
X13284753Y-20789660D01*
X13284753Y-20789660D02*
X13275230Y-20770612D01*
X13275230Y-20770612D02*
X13275230Y-20694422D01*
X13275230Y-20694422D02*
X13284753Y-20675374D01*
X13284753Y-20675374D02*
X13303801Y-20665850D01*
X13303801Y-20665850D02*
X13341896Y-20665850D01*
X13341896Y-20665850D02*
X13360944Y-20675374D01*
X13360944Y-20675374D02*
X13370468Y-20694422D01*
X13370468Y-20694422D02*
X13370468Y-20713470D01*
X13370468Y-20713470D02*
X13275230Y-20732517D01*
X13446658Y-20789660D02*
X13465706Y-20799184D01*
X13465706Y-20799184D02*
X13503801Y-20799184D01*
X13503801Y-20799184D02*
X13522849Y-20789660D01*
X13522849Y-20789660D02*
X13532372Y-20770612D01*
X13532372Y-20770612D02*
X13532372Y-20761089D01*
X13532372Y-20761089D02*
X13522849Y-20742041D01*
X13522849Y-20742041D02*
X13503801Y-20732517D01*
X13503801Y-20732517D02*
X13475230Y-20732517D01*
X13475230Y-20732517D02*
X13456182Y-20722993D01*
X13456182Y-20722993D02*
X13446658Y-20703946D01*
X13446658Y-20703946D02*
X13446658Y-20694422D01*
X13446658Y-20694422D02*
X13456182Y-20675374D01*
X13456182Y-20675374D02*
X13475230Y-20665850D01*
X13475230Y-20665850D02*
X13503801Y-20665850D01*
X13503801Y-20665850D02*
X13522849Y-20675374D01*
X13599039Y-20875374D02*
X13608563Y-20865850D01*
X13608563Y-20865850D02*
X13627611Y-20837279D01*
X13627611Y-20837279D02*
X13637134Y-20818231D01*
X13637134Y-20818231D02*
X13646658Y-20789660D01*
X13646658Y-20789660D02*
X13656182Y-20742041D01*
X13656182Y-20742041D02*
X13656182Y-20703946D01*
X13656182Y-20703946D02*
X13646658Y-20656327D01*
X13646658Y-20656327D02*
X13637134Y-20627755D01*
X13637134Y-20627755D02*
X13627611Y-20608708D01*
X13627611Y-20608708D02*
X13608563Y-20580136D01*
X13608563Y-20580136D02*
X13599039Y-20570612D01*
D14*
X8463500Y-20886700D02*
X8633500Y-21056700D01*
X8633500Y-20886700D02*
X8463500Y-21056700D01*
X8548500Y-20886700D02*
X8548500Y-21056700D01*
X8463500Y-20971700D02*
X8633500Y-20971700D01*
D11*
X8999039Y-21063184D02*
X8884753Y-21063184D01*
X8941896Y-21063184D02*
X8941896Y-20863184D01*
X8941896Y-20863184D02*
X8922848Y-20891755D01*
X8922848Y-20891755D02*
X8903801Y-20910803D01*
X8903801Y-20910803D02*
X8884753Y-20920327D01*
X9084753Y-21044136D02*
X9094277Y-21053660D01*
X9094277Y-21053660D02*
X9084753Y-21063184D01*
X9084753Y-21063184D02*
X9075229Y-21053660D01*
X9075229Y-21053660D02*
X9084753Y-21044136D01*
X9084753Y-21044136D02*
X9084753Y-21063184D01*
X9160944Y-20863184D02*
X9294277Y-20863184D01*
X9294277Y-20863184D02*
X9208563Y-21063184D01*
X9408563Y-20863184D02*
X9427610Y-20863184D01*
X9427610Y-20863184D02*
X9446658Y-20872708D01*
X9446658Y-20872708D02*
X9456182Y-20882231D01*
X9456182Y-20882231D02*
X9465705Y-20901279D01*
X9465705Y-20901279D02*
X9475229Y-20939374D01*
X9475229Y-20939374D02*
X9475229Y-20986993D01*
X9475229Y-20986993D02*
X9465705Y-21025089D01*
X9465705Y-21025089D02*
X9456182Y-21044136D01*
X9456182Y-21044136D02*
X9446658Y-21053660D01*
X9446658Y-21053660D02*
X9427610Y-21063184D01*
X9427610Y-21063184D02*
X9408563Y-21063184D01*
X9408563Y-21063184D02*
X9389515Y-21053660D01*
X9389515Y-21053660D02*
X9379991Y-21044136D01*
X9379991Y-21044136D02*
X9370467Y-21025089D01*
X9370467Y-21025089D02*
X9360944Y-20986993D01*
X9360944Y-20986993D02*
X9360944Y-20939374D01*
X9360944Y-20939374D02*
X9370467Y-20901279D01*
X9370467Y-20901279D02*
X9379991Y-20882231D01*
X9379991Y-20882231D02*
X9389515Y-20872708D01*
X9389515Y-20872708D02*
X9408563Y-20863184D01*
X9599039Y-20863184D02*
X9618086Y-20863184D01*
X9618086Y-20863184D02*
X9637134Y-20872708D01*
X9637134Y-20872708D02*
X9646658Y-20882231D01*
X9646658Y-20882231D02*
X9656182Y-20901279D01*
X9656182Y-20901279D02*
X9665705Y-20939374D01*
X9665705Y-20939374D02*
X9665705Y-20986993D01*
X9665705Y-20986993D02*
X9656182Y-21025089D01*
X9656182Y-21025089D02*
X9646658Y-21044136D01*
X9646658Y-21044136D02*
X9637134Y-21053660D01*
X9637134Y-21053660D02*
X9618086Y-21063184D01*
X9618086Y-21063184D02*
X9599039Y-21063184D01*
X9599039Y-21063184D02*
X9579991Y-21053660D01*
X9579991Y-21053660D02*
X9570467Y-21044136D01*
X9570467Y-21044136D02*
X9560944Y-21025089D01*
X9560944Y-21025089D02*
X9551420Y-20986993D01*
X9551420Y-20986993D02*
X9551420Y-20939374D01*
X9551420Y-20939374D02*
X9560944Y-20901279D01*
X9560944Y-20901279D02*
X9570467Y-20882231D01*
X9570467Y-20882231D02*
X9579991Y-20872708D01*
X9579991Y-20872708D02*
X9599039Y-20863184D01*
X9751420Y-21063184D02*
X9751420Y-20929850D01*
X9751420Y-20948898D02*
X9760944Y-20939374D01*
X9760944Y-20939374D02*
X9779991Y-20929850D01*
X9779991Y-20929850D02*
X9808563Y-20929850D01*
X9808563Y-20929850D02*
X9827610Y-20939374D01*
X9827610Y-20939374D02*
X9837134Y-20958422D01*
X9837134Y-20958422D02*
X9837134Y-21063184D01*
X9837134Y-20958422D02*
X9846658Y-20939374D01*
X9846658Y-20939374D02*
X9865705Y-20929850D01*
X9865705Y-20929850D02*
X9894277Y-20929850D01*
X9894277Y-20929850D02*
X9913325Y-20939374D01*
X9913325Y-20939374D02*
X9922848Y-20958422D01*
X9922848Y-20958422D02*
X9922848Y-21063184D01*
X10018086Y-21063184D02*
X10018086Y-20929850D01*
X10018086Y-20948898D02*
X10027610Y-20939374D01*
X10027610Y-20939374D02*
X10046658Y-20929850D01*
X10046658Y-20929850D02*
X10075229Y-20929850D01*
X10075229Y-20929850D02*
X10094277Y-20939374D01*
X10094277Y-20939374D02*
X10103801Y-20958422D01*
X10103801Y-20958422D02*
X10103801Y-21063184D01*
X10103801Y-20958422D02*
X10113325Y-20939374D01*
X10113325Y-20939374D02*
X10132372Y-20929850D01*
X10132372Y-20929850D02*
X10160944Y-20929850D01*
X10160944Y-20929850D02*
X10179991Y-20939374D01*
X10179991Y-20939374D02*
X10189515Y-20958422D01*
X10189515Y-20958422D02*
X10189515Y-21063184D01*
X10579991Y-20853660D02*
X10408563Y-21110803D01*
X10837134Y-20863184D02*
X10856182Y-20863184D01*
X10856182Y-20863184D02*
X10875229Y-20872708D01*
X10875229Y-20872708D02*
X10884753Y-20882231D01*
X10884753Y-20882231D02*
X10894277Y-20901279D01*
X10894277Y-20901279D02*
X10903801Y-20939374D01*
X10903801Y-20939374D02*
X10903801Y-20986993D01*
X10903801Y-20986993D02*
X10894277Y-21025089D01*
X10894277Y-21025089D02*
X10884753Y-21044136D01*
X10884753Y-21044136D02*
X10875229Y-21053660D01*
X10875229Y-21053660D02*
X10856182Y-21063184D01*
X10856182Y-21063184D02*
X10837134Y-21063184D01*
X10837134Y-21063184D02*
X10818087Y-21053660D01*
X10818087Y-21053660D02*
X10808563Y-21044136D01*
X10808563Y-21044136D02*
X10799039Y-21025089D01*
X10799039Y-21025089D02*
X10789515Y-20986993D01*
X10789515Y-20986993D02*
X10789515Y-20939374D01*
X10789515Y-20939374D02*
X10799039Y-20901279D01*
X10799039Y-20901279D02*
X10808563Y-20882231D01*
X10808563Y-20882231D02*
X10818087Y-20872708D01*
X10818087Y-20872708D02*
X10837134Y-20863184D01*
X10989515Y-21044136D02*
X10999039Y-21053660D01*
X10999039Y-21053660D02*
X10989515Y-21063184D01*
X10989515Y-21063184D02*
X10979991Y-21053660D01*
X10979991Y-21053660D02*
X10989515Y-21044136D01*
X10989515Y-21044136D02*
X10989515Y-21063184D01*
X11122848Y-20863184D02*
X11141896Y-20863184D01*
X11141896Y-20863184D02*
X11160944Y-20872708D01*
X11160944Y-20872708D02*
X11170468Y-20882231D01*
X11170468Y-20882231D02*
X11179991Y-20901279D01*
X11179991Y-20901279D02*
X11189515Y-20939374D01*
X11189515Y-20939374D02*
X11189515Y-20986993D01*
X11189515Y-20986993D02*
X11179991Y-21025089D01*
X11179991Y-21025089D02*
X11170468Y-21044136D01*
X11170468Y-21044136D02*
X11160944Y-21053660D01*
X11160944Y-21053660D02*
X11141896Y-21063184D01*
X11141896Y-21063184D02*
X11122848Y-21063184D01*
X11122848Y-21063184D02*
X11103801Y-21053660D01*
X11103801Y-21053660D02*
X11094277Y-21044136D01*
X11094277Y-21044136D02*
X11084753Y-21025089D01*
X11084753Y-21025089D02*
X11075229Y-20986993D01*
X11075229Y-20986993D02*
X11075229Y-20939374D01*
X11075229Y-20939374D02*
X11084753Y-20901279D01*
X11084753Y-20901279D02*
X11094277Y-20882231D01*
X11094277Y-20882231D02*
X11103801Y-20872708D01*
X11103801Y-20872708D02*
X11122848Y-20863184D01*
X11360944Y-20863184D02*
X11322848Y-20863184D01*
X11322848Y-20863184D02*
X11303801Y-20872708D01*
X11303801Y-20872708D02*
X11294277Y-20882231D01*
X11294277Y-20882231D02*
X11275229Y-20910803D01*
X11275229Y-20910803D02*
X11265706Y-20948898D01*
X11265706Y-20948898D02*
X11265706Y-21025089D01*
X11265706Y-21025089D02*
X11275229Y-21044136D01*
X11275229Y-21044136D02*
X11284753Y-21053660D01*
X11284753Y-21053660D02*
X11303801Y-21063184D01*
X11303801Y-21063184D02*
X11341896Y-21063184D01*
X11341896Y-21063184D02*
X11360944Y-21053660D01*
X11360944Y-21053660D02*
X11370467Y-21044136D01*
X11370467Y-21044136D02*
X11379991Y-21025089D01*
X11379991Y-21025089D02*
X11379991Y-20977470D01*
X11379991Y-20977470D02*
X11370467Y-20958422D01*
X11370467Y-20958422D02*
X11360944Y-20948898D01*
X11360944Y-20948898D02*
X11341896Y-20939374D01*
X11341896Y-20939374D02*
X11303801Y-20939374D01*
X11303801Y-20939374D02*
X11284753Y-20948898D01*
X11284753Y-20948898D02*
X11275229Y-20958422D01*
X11275229Y-20958422D02*
X11265706Y-20977470D01*
X11551420Y-20863184D02*
X11513325Y-20863184D01*
X11513325Y-20863184D02*
X11494277Y-20872708D01*
X11494277Y-20872708D02*
X11484753Y-20882231D01*
X11484753Y-20882231D02*
X11465706Y-20910803D01*
X11465706Y-20910803D02*
X11456182Y-20948898D01*
X11456182Y-20948898D02*
X11456182Y-21025089D01*
X11456182Y-21025089D02*
X11465706Y-21044136D01*
X11465706Y-21044136D02*
X11475229Y-21053660D01*
X11475229Y-21053660D02*
X11494277Y-21063184D01*
X11494277Y-21063184D02*
X11532372Y-21063184D01*
X11532372Y-21063184D02*
X11551420Y-21053660D01*
X11551420Y-21053660D02*
X11560944Y-21044136D01*
X11560944Y-21044136D02*
X11570467Y-21025089D01*
X11570467Y-21025089D02*
X11570467Y-20977470D01*
X11570467Y-20977470D02*
X11560944Y-20958422D01*
X11560944Y-20958422D02*
X11551420Y-20948898D01*
X11551420Y-20948898D02*
X11532372Y-20939374D01*
X11532372Y-20939374D02*
X11494277Y-20939374D01*
X11494277Y-20939374D02*
X11475229Y-20948898D01*
X11475229Y-20948898D02*
X11465706Y-20958422D01*
X11465706Y-20958422D02*
X11456182Y-20977470D01*
X11665706Y-21063184D02*
X11703801Y-21063184D01*
X11703801Y-21063184D02*
X11722848Y-21053660D01*
X11722848Y-21053660D02*
X11732372Y-21044136D01*
X11732372Y-21044136D02*
X11751420Y-21015565D01*
X11751420Y-21015565D02*
X11760944Y-20977470D01*
X11760944Y-20977470D02*
X11760944Y-20901279D01*
X11760944Y-20901279D02*
X11751420Y-20882231D01*
X11751420Y-20882231D02*
X11741896Y-20872708D01*
X11741896Y-20872708D02*
X11722848Y-20863184D01*
X11722848Y-20863184D02*
X11684753Y-20863184D01*
X11684753Y-20863184D02*
X11665706Y-20872708D01*
X11665706Y-20872708D02*
X11656182Y-20882231D01*
X11656182Y-20882231D02*
X11646658Y-20901279D01*
X11646658Y-20901279D02*
X11646658Y-20948898D01*
X11646658Y-20948898D02*
X11656182Y-20967946D01*
X11656182Y-20967946D02*
X11665706Y-20977470D01*
X11665706Y-20977470D02*
X11684753Y-20986993D01*
X11684753Y-20986993D02*
X11722848Y-20986993D01*
X11722848Y-20986993D02*
X11741896Y-20977470D01*
X11741896Y-20977470D02*
X11751420Y-20967946D01*
X11751420Y-20967946D02*
X11760944Y-20948898D01*
X11837134Y-20863184D02*
X11837134Y-20901279D01*
X11913325Y-20863184D02*
X11913325Y-20901279D01*
X12208563Y-21139374D02*
X12199039Y-21129850D01*
X12199039Y-21129850D02*
X12179991Y-21101279D01*
X12179991Y-21101279D02*
X12170468Y-21082231D01*
X12170468Y-21082231D02*
X12160944Y-21053660D01*
X12160944Y-21053660D02*
X12151420Y-21006041D01*
X12151420Y-21006041D02*
X12151420Y-20967946D01*
X12151420Y-20967946D02*
X12160944Y-20920327D01*
X12160944Y-20920327D02*
X12170468Y-20891755D01*
X12170468Y-20891755D02*
X12179991Y-20872708D01*
X12179991Y-20872708D02*
X12199039Y-20844136D01*
X12199039Y-20844136D02*
X12208563Y-20834612D01*
X12370468Y-20929850D02*
X12370468Y-21063184D01*
X12322848Y-20853660D02*
X12275229Y-20996517D01*
X12275229Y-20996517D02*
X12399039Y-20996517D01*
X12627610Y-21063184D02*
X12627610Y-20863184D01*
X12713325Y-21063184D02*
X12713325Y-20958422D01*
X12713325Y-20958422D02*
X12703801Y-20939374D01*
X12703801Y-20939374D02*
X12684753Y-20929850D01*
X12684753Y-20929850D02*
X12656182Y-20929850D01*
X12656182Y-20929850D02*
X12637134Y-20939374D01*
X12637134Y-20939374D02*
X12627610Y-20948898D01*
X12837134Y-21063184D02*
X12818087Y-21053660D01*
X12818087Y-21053660D02*
X12808563Y-21044136D01*
X12808563Y-21044136D02*
X12799039Y-21025089D01*
X12799039Y-21025089D02*
X12799039Y-20967946D01*
X12799039Y-20967946D02*
X12808563Y-20948898D01*
X12808563Y-20948898D02*
X12818087Y-20939374D01*
X12818087Y-20939374D02*
X12837134Y-20929850D01*
X12837134Y-20929850D02*
X12865706Y-20929850D01*
X12865706Y-20929850D02*
X12884753Y-20939374D01*
X12884753Y-20939374D02*
X12894277Y-20948898D01*
X12894277Y-20948898D02*
X12903801Y-20967946D01*
X12903801Y-20967946D02*
X12903801Y-21025089D01*
X12903801Y-21025089D02*
X12894277Y-21044136D01*
X12894277Y-21044136D02*
X12884753Y-21053660D01*
X12884753Y-21053660D02*
X12865706Y-21063184D01*
X12865706Y-21063184D02*
X12837134Y-21063184D01*
X13018087Y-21063184D02*
X12999039Y-21053660D01*
X12999039Y-21053660D02*
X12989515Y-21034612D01*
X12989515Y-21034612D02*
X12989515Y-20863184D01*
X13170468Y-21053660D02*
X13151420Y-21063184D01*
X13151420Y-21063184D02*
X13113325Y-21063184D01*
X13113325Y-21063184D02*
X13094277Y-21053660D01*
X13094277Y-21053660D02*
X13084753Y-21034612D01*
X13084753Y-21034612D02*
X13084753Y-20958422D01*
X13084753Y-20958422D02*
X13094277Y-20939374D01*
X13094277Y-20939374D02*
X13113325Y-20929850D01*
X13113325Y-20929850D02*
X13151420Y-20929850D01*
X13151420Y-20929850D02*
X13170468Y-20939374D01*
X13170468Y-20939374D02*
X13179991Y-20958422D01*
X13179991Y-20958422D02*
X13179991Y-20977470D01*
X13179991Y-20977470D02*
X13084753Y-20996517D01*
X13256182Y-21053660D02*
X13275230Y-21063184D01*
X13275230Y-21063184D02*
X13313325Y-21063184D01*
X13313325Y-21063184D02*
X13332372Y-21053660D01*
X13332372Y-21053660D02*
X13341896Y-21034612D01*
X13341896Y-21034612D02*
X13341896Y-21025089D01*
X13341896Y-21025089D02*
X13332372Y-21006041D01*
X13332372Y-21006041D02*
X13313325Y-20996517D01*
X13313325Y-20996517D02*
X13284753Y-20996517D01*
X13284753Y-20996517D02*
X13265706Y-20986993D01*
X13265706Y-20986993D02*
X13256182Y-20967946D01*
X13256182Y-20967946D02*
X13256182Y-20958422D01*
X13256182Y-20958422D02*
X13265706Y-20939374D01*
X13265706Y-20939374D02*
X13284753Y-20929850D01*
X13284753Y-20929850D02*
X13313325Y-20929850D01*
X13313325Y-20929850D02*
X13332372Y-20939374D01*
X13408563Y-21139374D02*
X13418087Y-21129850D01*
X13418087Y-21129850D02*
X13437134Y-21101279D01*
X13437134Y-21101279D02*
X13446658Y-21082231D01*
X13446658Y-21082231D02*
X13456182Y-21053660D01*
X13456182Y-21053660D02*
X13465706Y-21006041D01*
X13465706Y-21006041D02*
X13465706Y-20967946D01*
X13465706Y-20967946D02*
X13456182Y-20920327D01*
X13456182Y-20920327D02*
X13446658Y-20891755D01*
X13446658Y-20891755D02*
X13437134Y-20872708D01*
X13437134Y-20872708D02*
X13418087Y-20844136D01*
X13418087Y-20844136D02*
X13408563Y-20834612D01*
X8433500Y-21161700D02*
X8633500Y-21361700D01*
X8633500Y-21161700D02*
X8433500Y-21361700D01*
X8604211Y-21332411D02*
X8604211Y-21190989D01*
X8462789Y-21190989D01*
X8462789Y-21332411D01*
X8604211Y-21332411D01*
X8884753Y-21172231D02*
X8894277Y-21162708D01*
X8894277Y-21162708D02*
X8913324Y-21153184D01*
X8913324Y-21153184D02*
X8960944Y-21153184D01*
X8960944Y-21153184D02*
X8979991Y-21162708D01*
X8979991Y-21162708D02*
X8989515Y-21172231D01*
X8989515Y-21172231D02*
X8999039Y-21191279D01*
X8999039Y-21191279D02*
X8999039Y-21210327D01*
X8999039Y-21210327D02*
X8989515Y-21238898D01*
X8989515Y-21238898D02*
X8875229Y-21353184D01*
X8875229Y-21353184D02*
X8999039Y-21353184D01*
X9084753Y-21334136D02*
X9094277Y-21343660D01*
X9094277Y-21343660D02*
X9084753Y-21353184D01*
X9084753Y-21353184D02*
X9075229Y-21343660D01*
X9075229Y-21343660D02*
X9084753Y-21334136D01*
X9084753Y-21334136D02*
X9084753Y-21353184D01*
X9160944Y-21153184D02*
X9294277Y-21153184D01*
X9294277Y-21153184D02*
X9208563Y-21353184D01*
X9408563Y-21153184D02*
X9427610Y-21153184D01*
X9427610Y-21153184D02*
X9446658Y-21162708D01*
X9446658Y-21162708D02*
X9456182Y-21172231D01*
X9456182Y-21172231D02*
X9465705Y-21191279D01*
X9465705Y-21191279D02*
X9475229Y-21229374D01*
X9475229Y-21229374D02*
X9475229Y-21276993D01*
X9475229Y-21276993D02*
X9465705Y-21315089D01*
X9465705Y-21315089D02*
X9456182Y-21334136D01*
X9456182Y-21334136D02*
X9446658Y-21343660D01*
X9446658Y-21343660D02*
X9427610Y-21353184D01*
X9427610Y-21353184D02*
X9408563Y-21353184D01*
X9408563Y-21353184D02*
X9389515Y-21343660D01*
X9389515Y-21343660D02*
X9379991Y-21334136D01*
X9379991Y-21334136D02*
X9370467Y-21315089D01*
X9370467Y-21315089D02*
X9360944Y-21276993D01*
X9360944Y-21276993D02*
X9360944Y-21229374D01*
X9360944Y-21229374D02*
X9370467Y-21191279D01*
X9370467Y-21191279D02*
X9379991Y-21172231D01*
X9379991Y-21172231D02*
X9389515Y-21162708D01*
X9389515Y-21162708D02*
X9408563Y-21153184D01*
X9599039Y-21153184D02*
X9618086Y-21153184D01*
X9618086Y-21153184D02*
X9637134Y-21162708D01*
X9637134Y-21162708D02*
X9646658Y-21172231D01*
X9646658Y-21172231D02*
X9656182Y-21191279D01*
X9656182Y-21191279D02*
X9665705Y-21229374D01*
X9665705Y-21229374D02*
X9665705Y-21276993D01*
X9665705Y-21276993D02*
X9656182Y-21315089D01*
X9656182Y-21315089D02*
X9646658Y-21334136D01*
X9646658Y-21334136D02*
X9637134Y-21343660D01*
X9637134Y-21343660D02*
X9618086Y-21353184D01*
X9618086Y-21353184D02*
X9599039Y-21353184D01*
X9599039Y-21353184D02*
X9579991Y-21343660D01*
X9579991Y-21343660D02*
X9570467Y-21334136D01*
X9570467Y-21334136D02*
X9560944Y-21315089D01*
X9560944Y-21315089D02*
X9551420Y-21276993D01*
X9551420Y-21276993D02*
X9551420Y-21229374D01*
X9551420Y-21229374D02*
X9560944Y-21191279D01*
X9560944Y-21191279D02*
X9570467Y-21172231D01*
X9570467Y-21172231D02*
X9579991Y-21162708D01*
X9579991Y-21162708D02*
X9599039Y-21153184D01*
X9751420Y-21353184D02*
X9751420Y-21219850D01*
X9751420Y-21238898D02*
X9760944Y-21229374D01*
X9760944Y-21229374D02*
X9779991Y-21219850D01*
X9779991Y-21219850D02*
X9808563Y-21219850D01*
X9808563Y-21219850D02*
X9827610Y-21229374D01*
X9827610Y-21229374D02*
X9837134Y-21248422D01*
X9837134Y-21248422D02*
X9837134Y-21353184D01*
X9837134Y-21248422D02*
X9846658Y-21229374D01*
X9846658Y-21229374D02*
X9865705Y-21219850D01*
X9865705Y-21219850D02*
X9894277Y-21219850D01*
X9894277Y-21219850D02*
X9913325Y-21229374D01*
X9913325Y-21229374D02*
X9922848Y-21248422D01*
X9922848Y-21248422D02*
X9922848Y-21353184D01*
X10018086Y-21353184D02*
X10018086Y-21219850D01*
X10018086Y-21238898D02*
X10027610Y-21229374D01*
X10027610Y-21229374D02*
X10046658Y-21219850D01*
X10046658Y-21219850D02*
X10075229Y-21219850D01*
X10075229Y-21219850D02*
X10094277Y-21229374D01*
X10094277Y-21229374D02*
X10103801Y-21248422D01*
X10103801Y-21248422D02*
X10103801Y-21353184D01*
X10103801Y-21248422D02*
X10113325Y-21229374D01*
X10113325Y-21229374D02*
X10132372Y-21219850D01*
X10132372Y-21219850D02*
X10160944Y-21219850D01*
X10160944Y-21219850D02*
X10179991Y-21229374D01*
X10179991Y-21229374D02*
X10189515Y-21248422D01*
X10189515Y-21248422D02*
X10189515Y-21353184D01*
X10579991Y-21143660D02*
X10408563Y-21400803D01*
X10837134Y-21153184D02*
X10856182Y-21153184D01*
X10856182Y-21153184D02*
X10875229Y-21162708D01*
X10875229Y-21162708D02*
X10884753Y-21172231D01*
X10884753Y-21172231D02*
X10894277Y-21191279D01*
X10894277Y-21191279D02*
X10903801Y-21229374D01*
X10903801Y-21229374D02*
X10903801Y-21276993D01*
X10903801Y-21276993D02*
X10894277Y-21315089D01*
X10894277Y-21315089D02*
X10884753Y-21334136D01*
X10884753Y-21334136D02*
X10875229Y-21343660D01*
X10875229Y-21343660D02*
X10856182Y-21353184D01*
X10856182Y-21353184D02*
X10837134Y-21353184D01*
X10837134Y-21353184D02*
X10818087Y-21343660D01*
X10818087Y-21343660D02*
X10808563Y-21334136D01*
X10808563Y-21334136D02*
X10799039Y-21315089D01*
X10799039Y-21315089D02*
X10789515Y-21276993D01*
X10789515Y-21276993D02*
X10789515Y-21229374D01*
X10789515Y-21229374D02*
X10799039Y-21191279D01*
X10799039Y-21191279D02*
X10808563Y-21172231D01*
X10808563Y-21172231D02*
X10818087Y-21162708D01*
X10818087Y-21162708D02*
X10837134Y-21153184D01*
X10989515Y-21334136D02*
X10999039Y-21343660D01*
X10999039Y-21343660D02*
X10989515Y-21353184D01*
X10989515Y-21353184D02*
X10979991Y-21343660D01*
X10979991Y-21343660D02*
X10989515Y-21334136D01*
X10989515Y-21334136D02*
X10989515Y-21353184D01*
X11189515Y-21353184D02*
X11075229Y-21353184D01*
X11132372Y-21353184D02*
X11132372Y-21153184D01*
X11132372Y-21153184D02*
X11113325Y-21181755D01*
X11113325Y-21181755D02*
X11094277Y-21200803D01*
X11094277Y-21200803D02*
X11075229Y-21210327D01*
X11313325Y-21153184D02*
X11332372Y-21153184D01*
X11332372Y-21153184D02*
X11351420Y-21162708D01*
X11351420Y-21162708D02*
X11360944Y-21172231D01*
X11360944Y-21172231D02*
X11370467Y-21191279D01*
X11370467Y-21191279D02*
X11379991Y-21229374D01*
X11379991Y-21229374D02*
X11379991Y-21276993D01*
X11379991Y-21276993D02*
X11370467Y-21315089D01*
X11370467Y-21315089D02*
X11360944Y-21334136D01*
X11360944Y-21334136D02*
X11351420Y-21343660D01*
X11351420Y-21343660D02*
X11332372Y-21353184D01*
X11332372Y-21353184D02*
X11313325Y-21353184D01*
X11313325Y-21353184D02*
X11294277Y-21343660D01*
X11294277Y-21343660D02*
X11284753Y-21334136D01*
X11284753Y-21334136D02*
X11275229Y-21315089D01*
X11275229Y-21315089D02*
X11265706Y-21276993D01*
X11265706Y-21276993D02*
X11265706Y-21229374D01*
X11265706Y-21229374D02*
X11275229Y-21191279D01*
X11275229Y-21191279D02*
X11284753Y-21172231D01*
X11284753Y-21172231D02*
X11294277Y-21162708D01*
X11294277Y-21162708D02*
X11313325Y-21153184D01*
X11551420Y-21153184D02*
X11513325Y-21153184D01*
X11513325Y-21153184D02*
X11494277Y-21162708D01*
X11494277Y-21162708D02*
X11484753Y-21172231D01*
X11484753Y-21172231D02*
X11465706Y-21200803D01*
X11465706Y-21200803D02*
X11456182Y-21238898D01*
X11456182Y-21238898D02*
X11456182Y-21315089D01*
X11456182Y-21315089D02*
X11465706Y-21334136D01*
X11465706Y-21334136D02*
X11475229Y-21343660D01*
X11475229Y-21343660D02*
X11494277Y-21353184D01*
X11494277Y-21353184D02*
X11532372Y-21353184D01*
X11532372Y-21353184D02*
X11551420Y-21343660D01*
X11551420Y-21343660D02*
X11560944Y-21334136D01*
X11560944Y-21334136D02*
X11570467Y-21315089D01*
X11570467Y-21315089D02*
X11570467Y-21267470D01*
X11570467Y-21267470D02*
X11560944Y-21248422D01*
X11560944Y-21248422D02*
X11551420Y-21238898D01*
X11551420Y-21238898D02*
X11532372Y-21229374D01*
X11532372Y-21229374D02*
X11494277Y-21229374D01*
X11494277Y-21229374D02*
X11475229Y-21238898D01*
X11475229Y-21238898D02*
X11465706Y-21248422D01*
X11465706Y-21248422D02*
X11456182Y-21267470D01*
X11637134Y-21153184D02*
X11760944Y-21153184D01*
X11760944Y-21153184D02*
X11694277Y-21229374D01*
X11694277Y-21229374D02*
X11722848Y-21229374D01*
X11722848Y-21229374D02*
X11741896Y-21238898D01*
X11741896Y-21238898D02*
X11751420Y-21248422D01*
X11751420Y-21248422D02*
X11760944Y-21267470D01*
X11760944Y-21267470D02*
X11760944Y-21315089D01*
X11760944Y-21315089D02*
X11751420Y-21334136D01*
X11751420Y-21334136D02*
X11741896Y-21343660D01*
X11741896Y-21343660D02*
X11722848Y-21353184D01*
X11722848Y-21353184D02*
X11665706Y-21353184D01*
X11665706Y-21353184D02*
X11646658Y-21343660D01*
X11646658Y-21343660D02*
X11637134Y-21334136D01*
X11837134Y-21153184D02*
X11837134Y-21191279D01*
X11913325Y-21153184D02*
X11913325Y-21191279D01*
X12208563Y-21429374D02*
X12199039Y-21419850D01*
X12199039Y-21419850D02*
X12179991Y-21391279D01*
X12179991Y-21391279D02*
X12170468Y-21372231D01*
X12170468Y-21372231D02*
X12160944Y-21343660D01*
X12160944Y-21343660D02*
X12151420Y-21296041D01*
X12151420Y-21296041D02*
X12151420Y-21257946D01*
X12151420Y-21257946D02*
X12160944Y-21210327D01*
X12160944Y-21210327D02*
X12170468Y-21181755D01*
X12170468Y-21181755D02*
X12179991Y-21162708D01*
X12179991Y-21162708D02*
X12199039Y-21134136D01*
X12199039Y-21134136D02*
X12208563Y-21124612D01*
X12370468Y-21219850D02*
X12370468Y-21353184D01*
X12322848Y-21143660D02*
X12275229Y-21286517D01*
X12275229Y-21286517D02*
X12399039Y-21286517D01*
X12627610Y-21353184D02*
X12627610Y-21153184D01*
X12713325Y-21353184D02*
X12713325Y-21248422D01*
X12713325Y-21248422D02*
X12703801Y-21229374D01*
X12703801Y-21229374D02*
X12684753Y-21219850D01*
X12684753Y-21219850D02*
X12656182Y-21219850D01*
X12656182Y-21219850D02*
X12637134Y-21229374D01*
X12637134Y-21229374D02*
X12627610Y-21238898D01*
X12837134Y-21353184D02*
X12818087Y-21343660D01*
X12818087Y-21343660D02*
X12808563Y-21334136D01*
X12808563Y-21334136D02*
X12799039Y-21315089D01*
X12799039Y-21315089D02*
X12799039Y-21257946D01*
X12799039Y-21257946D02*
X12808563Y-21238898D01*
X12808563Y-21238898D02*
X12818087Y-21229374D01*
X12818087Y-21229374D02*
X12837134Y-21219850D01*
X12837134Y-21219850D02*
X12865706Y-21219850D01*
X12865706Y-21219850D02*
X12884753Y-21229374D01*
X12884753Y-21229374D02*
X12894277Y-21238898D01*
X12894277Y-21238898D02*
X12903801Y-21257946D01*
X12903801Y-21257946D02*
X12903801Y-21315089D01*
X12903801Y-21315089D02*
X12894277Y-21334136D01*
X12894277Y-21334136D02*
X12884753Y-21343660D01*
X12884753Y-21343660D02*
X12865706Y-21353184D01*
X12865706Y-21353184D02*
X12837134Y-21353184D01*
X13018087Y-21353184D02*
X12999039Y-21343660D01*
X12999039Y-21343660D02*
X12989515Y-21324612D01*
X12989515Y-21324612D02*
X12989515Y-21153184D01*
X13170468Y-21343660D02*
X13151420Y-21353184D01*
X13151420Y-21353184D02*
X13113325Y-21353184D01*
X13113325Y-21353184D02*
X13094277Y-21343660D01*
X13094277Y-21343660D02*
X13084753Y-21324612D01*
X13084753Y-21324612D02*
X13084753Y-21248422D01*
X13084753Y-21248422D02*
X13094277Y-21229374D01*
X13094277Y-21229374D02*
X13113325Y-21219850D01*
X13113325Y-21219850D02*
X13151420Y-21219850D01*
X13151420Y-21219850D02*
X13170468Y-21229374D01*
X13170468Y-21229374D02*
X13179991Y-21248422D01*
X13179991Y-21248422D02*
X13179991Y-21267470D01*
X13179991Y-21267470D02*
X13084753Y-21286517D01*
X13256182Y-21343660D02*
X13275230Y-21353184D01*
X13275230Y-21353184D02*
X13313325Y-21353184D01*
X13313325Y-21353184D02*
X13332372Y-21343660D01*
X13332372Y-21343660D02*
X13341896Y-21324612D01*
X13341896Y-21324612D02*
X13341896Y-21315089D01*
X13341896Y-21315089D02*
X13332372Y-21296041D01*
X13332372Y-21296041D02*
X13313325Y-21286517D01*
X13313325Y-21286517D02*
X13284753Y-21286517D01*
X13284753Y-21286517D02*
X13265706Y-21276993D01*
X13265706Y-21276993D02*
X13256182Y-21257946D01*
X13256182Y-21257946D02*
X13256182Y-21248422D01*
X13256182Y-21248422D02*
X13265706Y-21229374D01*
X13265706Y-21229374D02*
X13284753Y-21219850D01*
X13284753Y-21219850D02*
X13313325Y-21219850D01*
X13313325Y-21219850D02*
X13332372Y-21229374D01*
X13408563Y-21429374D02*
X13418087Y-21419850D01*
X13418087Y-21419850D02*
X13437134Y-21391279D01*
X13437134Y-21391279D02*
X13446658Y-21372231D01*
X13446658Y-21372231D02*
X13456182Y-21343660D01*
X13456182Y-21343660D02*
X13465706Y-21296041D01*
X13465706Y-21296041D02*
X13465706Y-21257946D01*
X13465706Y-21257946D02*
X13456182Y-21210327D01*
X13456182Y-21210327D02*
X13446658Y-21181755D01*
X13446658Y-21181755D02*
X13437134Y-21162708D01*
X13437134Y-21162708D02*
X13418087Y-21134136D01*
X13418087Y-21134136D02*
X13408563Y-21124612D01*
M02*
