G04 #@! TF.GenerationSoftware,KiCad,Pcbnew,9.0.2*
G04 #@! TF.CreationDate,2025-11-13T13:07:50+09:00*
G04 #@! TF.ProjectId,MDv3,4d447633-2e6b-4696-9361-645f70636258,rev?*
G04 #@! TF.SameCoordinates,Original*
G04 #@! TF.FileFunction,Copper,L2,Bot*
G04 #@! TF.FilePolarity,Positive*
%FSLAX46Y46*%
G04 Gerber Fmt 4.6, Leading zero omitted, Abs format (unit mm)*
G04 Created by KiCad (PCBNEW 9.0.2) date 2025-11-13 13:07:50*
%MOMM*%
%LPD*%
G01*
G04 APERTURE LIST*
G04 Aperture macros list*
%AMRoundRect*
0 Rectangle with rounded corners*
0 $1 Rounding radius*
0 $2 $3 $4 $5 $6 $7 $8 $9 X,Y pos of 4 corners*
0 Add a 4 corners polygon primitive as box body*
4,1,4,$2,$3,$4,$5,$6,$7,$8,$9,$2,$3,0*
0 Add four circle primitives for the rounded corners*
1,1,$1+$1,$2,$3*
1,1,$1+$1,$4,$5*
1,1,$1+$1,$6,$7*
1,1,$1+$1,$8,$9*
0 Add four rect primitives between the rounded corners*
20,1,$1+$1,$2,$3,$4,$5,0*
20,1,$1+$1,$4,$5,$6,$7,0*
20,1,$1+$1,$6,$7,$8,$9,0*
20,1,$1+$1,$8,$9,$2,$3,0*%
G04 Aperture macros list end*
G04 #@! TA.AperFunction,ComponentPad*
%ADD10C,1.600000*%
G04 #@! TD*
G04 #@! TA.AperFunction,ComponentPad*
%ADD11R,1.800000X1.800000*%
G04 #@! TD*
G04 #@! TA.AperFunction,ComponentPad*
%ADD12C,1.800000*%
G04 #@! TD*
G04 #@! TA.AperFunction,ComponentPad*
%ADD13C,2.550000*%
G04 #@! TD*
G04 #@! TA.AperFunction,ComponentPad*
%ADD14R,2.550000X2.550000*%
G04 #@! TD*
G04 #@! TA.AperFunction,ComponentPad*
%ADD15C,1.508000*%
G04 #@! TD*
G04 #@! TA.AperFunction,ComponentPad*
%ADD16C,2.000000*%
G04 #@! TD*
G04 #@! TA.AperFunction,ComponentPad*
%ADD17RoundRect,0.250000X-0.550000X0.550000X-0.550000X-0.550000X0.550000X-0.550000X0.550000X0.550000X0*%
G04 #@! TD*
G04 #@! TA.AperFunction,ComponentPad*
%ADD18R,1.625600X1.625600*%
G04 #@! TD*
G04 #@! TA.AperFunction,ComponentPad*
%ADD19C,1.625600*%
G04 #@! TD*
G04 #@! TA.AperFunction,ComponentPad*
%ADD20RoundRect,0.250000X-0.550000X-0.550000X0.550000X-0.550000X0.550000X0.550000X-0.550000X0.550000X0*%
G04 #@! TD*
G04 #@! TA.AperFunction,ComponentPad*
%ADD21R,3.716000X3.716000*%
G04 #@! TD*
G04 #@! TA.AperFunction,ComponentPad*
%ADD22C,3.716000*%
G04 #@! TD*
G04 #@! TA.AperFunction,ComponentPad*
%ADD23O,1.200000X2.400000*%
G04 #@! TD*
G04 #@! TA.AperFunction,ComponentPad*
%ADD24RoundRect,0.250000X0.550000X-0.550000X0.550000X0.550000X-0.550000X0.550000X-0.550000X-0.550000X0*%
G04 #@! TD*
G04 #@! TA.AperFunction,ViaPad*
%ADD25C,0.600000*%
G04 #@! TD*
G04 #@! TA.AperFunction,Conductor*
%ADD26C,1.000000*%
G04 #@! TD*
G04 #@! TA.AperFunction,Conductor*
%ADD27C,0.600000*%
G04 #@! TD*
G04 #@! TA.AperFunction,Conductor*
%ADD28C,0.200000*%
G04 #@! TD*
G04 APERTURE END LIST*
D10*
X114384200Y-120650000D03*
X106850200Y-120650000D03*
D11*
X140467000Y-122682000D03*
D12*
X137927000Y-122682000D03*
D13*
X98169750Y-149138000D03*
D14*
X98169750Y-154138000D03*
D15*
X88169750Y-146138000D03*
X88169750Y-157138000D03*
D10*
X111820200Y-148403200D03*
X104286200Y-148403200D03*
D16*
X132334000Y-141953500D03*
X132334000Y-136953500D03*
D17*
X107061000Y-135895000D03*
D10*
X104521000Y-135895000D03*
X101981000Y-135895000D03*
X99441000Y-135895000D03*
X99441000Y-143515000D03*
X101981000Y-143515000D03*
X104521000Y-143515000D03*
X107061000Y-143515000D03*
X111794800Y-159713200D03*
X104260800Y-159713200D03*
D18*
X121920000Y-163178900D03*
D19*
X119380000Y-163178900D03*
X116840000Y-163178900D03*
D18*
X110490800Y-163167600D03*
D19*
X107950800Y-163167600D03*
X105410800Y-163167600D03*
D18*
X121920000Y-151814400D03*
D19*
X119380000Y-151814400D03*
X116840000Y-151814400D03*
D16*
X134372500Y-132080000D03*
X134372500Y-127080000D03*
D20*
X140939112Y-159004000D03*
D10*
X142939112Y-159004000D03*
X102108000Y-113580800D03*
X102108000Y-121114800D03*
D20*
X141000000Y-151384000D03*
D10*
X143000000Y-151384000D03*
D18*
X128905000Y-156337000D03*
D19*
X131445000Y-156337000D03*
X133985000Y-156337000D03*
D11*
X97668000Y-119385000D03*
D12*
X95128000Y-119385000D03*
D10*
X134577200Y-116586000D03*
X127043200Y-116586000D03*
D16*
X113290500Y-132047500D03*
X113290500Y-127047500D03*
D21*
X107506000Y-171800000D03*
D22*
X114706000Y-171800000D03*
D23*
X104356000Y-177800000D03*
X117856000Y-177800000D03*
D24*
X128651000Y-143510000D03*
D10*
X128651000Y-135890000D03*
D17*
X131445000Y-125730000D03*
D10*
X128905000Y-125730000D03*
X126365000Y-125730000D03*
X123825000Y-125730000D03*
X121285000Y-125730000D03*
X118745000Y-125730000D03*
X116205000Y-125730000D03*
X116205000Y-133350000D03*
X118745000Y-133350000D03*
X121285000Y-133350000D03*
X123825000Y-133350000D03*
X126365000Y-133350000D03*
X128905000Y-133350000D03*
X131445000Y-133350000D03*
D18*
X110439200Y-151850200D03*
D19*
X107899200Y-151850200D03*
X105359200Y-151850200D03*
D16*
X113798500Y-141953500D03*
X113798500Y-136953500D03*
D10*
X123173200Y-148360000D03*
X115639200Y-148360000D03*
D16*
X133063500Y-151467000D03*
X128063500Y-151467000D03*
D24*
X110744000Y-143510000D03*
D10*
X110744000Y-135890000D03*
D16*
X137415612Y-164852500D03*
X142415612Y-164852500D03*
X123411500Y-111626500D03*
X118411500Y-111626500D03*
D20*
X117099000Y-115062000D03*
D10*
X117099000Y-117602000D03*
X117099000Y-120142000D03*
X117099000Y-122682000D03*
X124719000Y-122682000D03*
X124719000Y-120142000D03*
X124719000Y-117602000D03*
X124719000Y-115062000D03*
X114384200Y-116840000D03*
X106850200Y-116840000D03*
X134577200Y-120856000D03*
X127043200Y-120856000D03*
D13*
X98300350Y-163108000D03*
D14*
X98300350Y-168108000D03*
D15*
X88300350Y-160108000D03*
X88300350Y-171108000D03*
D17*
X124968000Y-135890000D03*
D10*
X122428000Y-135890000D03*
X119888000Y-135890000D03*
X117348000Y-135890000D03*
X117348000Y-143510000D03*
X119888000Y-143510000D03*
X122428000Y-143510000D03*
X124968000Y-143510000D03*
D20*
X129284349Y-163703000D03*
D10*
X132784349Y-163703000D03*
X140462000Y-143017600D03*
X140462000Y-135483600D03*
D17*
X110363000Y-125730000D03*
D10*
X107823000Y-125730000D03*
X105283000Y-125730000D03*
X102743000Y-125730000D03*
X100203000Y-125730000D03*
X97663000Y-125730000D03*
X95123000Y-125730000D03*
X95123000Y-133350000D03*
X97663000Y-133350000D03*
X100203000Y-133350000D03*
X102743000Y-133350000D03*
X105283000Y-133350000D03*
X107823000Y-133350000D03*
X110363000Y-133350000D03*
D21*
X125940000Y-171800000D03*
D22*
X133140000Y-171800000D03*
D23*
X122790000Y-177800000D03*
X136290000Y-177800000D03*
D10*
X136271000Y-143036000D03*
X136271000Y-135502000D03*
D16*
X138685612Y-146056500D03*
X143685612Y-146056500D03*
D18*
X128905000Y-147955000D03*
D19*
X131445000Y-147955000D03*
X133985000Y-147955000D03*
D11*
X140462000Y-130556000D03*
D12*
X137922000Y-130556000D03*
D10*
X123236700Y-159742000D03*
X115702700Y-159742000D03*
D25*
X101092000Y-146431000D03*
X103378000Y-161493200D03*
X97668000Y-122936000D03*
X125984000Y-152730200D03*
X121628000Y-144983200D03*
X107137200Y-158953200D03*
X94958000Y-146024600D03*
X102092000Y-151536400D03*
X98840299Y-146016000D03*
X96558000Y-146013774D03*
X100092000Y-151536400D03*
X120396000Y-120142000D03*
X117411500Y-113362478D03*
X105283000Y-123483000D03*
X120396000Y-117602000D03*
X118704768Y-127103983D03*
X121547607Y-127118393D03*
X92430600Y-129979000D03*
X122428000Y-139855499D03*
X126339600Y-128828800D03*
X92430600Y-127355600D03*
X95504000Y-144780000D03*
X93472000Y-144780000D03*
D26*
X111381500Y-135252500D02*
X110744000Y-135890000D01*
X136271000Y-143036000D02*
X136271000Y-141859000D01*
X141000000Y-151384000D02*
X141000000Y-152878000D01*
X110744000Y-135890000D02*
X107066000Y-135890000D01*
X107066000Y-135890000D02*
X107061000Y-135895000D01*
X134112000Y-135128000D02*
X129413000Y-135128000D01*
X134112000Y-139700000D02*
X134112000Y-135128000D01*
X136271000Y-143036000D02*
X133824000Y-143036000D01*
X116078000Y-138654500D02*
X116078000Y-136827422D01*
X140917000Y-151467000D02*
X141000000Y-151384000D01*
X133824000Y-143036000D02*
X128905000Y-147955000D01*
X128905000Y-147955000D02*
X132417000Y-151467000D01*
X133063500Y-151467000D02*
X140917000Y-151467000D01*
X128651000Y-135890000D02*
X124968000Y-135890000D01*
X129413000Y-135128000D02*
X128651000Y-135890000D01*
X124968000Y-135890000D02*
X122203500Y-138654500D01*
X136271000Y-141859000D02*
X134112000Y-139700000D01*
X122203500Y-138654500D02*
X116078000Y-138654500D01*
X114503078Y-135252500D02*
X111381500Y-135252500D01*
X132417000Y-151467000D02*
X133063500Y-151467000D01*
X141000000Y-152878000D02*
X137541000Y-156337000D01*
X116078000Y-136827422D02*
X114503078Y-135252500D01*
X137541000Y-156337000D02*
X133985000Y-156337000D01*
X118411500Y-113839500D02*
X118411500Y-111626500D01*
X143685612Y-146056500D02*
X143685612Y-137589612D01*
X138684000Y-133604000D02*
X142726600Y-133604000D01*
X143685612Y-146056500D02*
X141787112Y-147955000D01*
X134577200Y-120856000D02*
X134620000Y-120898800D01*
X113290500Y-132047500D02*
X111665500Y-132047500D01*
X124719000Y-115062000D02*
X119634000Y-115062000D01*
X136144000Y-129540000D02*
X136144000Y-130308500D01*
X119634000Y-115062000D02*
X118411500Y-113839500D01*
X134449500Y-132157000D02*
X134372500Y-132080000D01*
X137160000Y-128524000D02*
X136144000Y-129540000D01*
X142726600Y-128524000D02*
X137160000Y-128524000D01*
X136144000Y-127762000D02*
X134372500Y-129533500D01*
X111665500Y-132047500D02*
X110363000Y-133350000D01*
X138684000Y-137160000D02*
X138684000Y-133604000D01*
X143685612Y-137589612D02*
X143256000Y-137160000D01*
X134577200Y-116586000D02*
X134577200Y-120856000D01*
X136144000Y-130308500D02*
X134372500Y-132080000D01*
X134577200Y-120856000D02*
X134668000Y-120856000D01*
X113290500Y-132047500D02*
X113512000Y-131826000D01*
X133985000Y-147955000D02*
X138922400Y-143017600D01*
X142726600Y-133604000D02*
X142726600Y-128524000D01*
X120577000Y-113792000D02*
X131783200Y-113792000D01*
X134372500Y-132080000D02*
X132715000Y-132080000D01*
X113512000Y-131826000D02*
X129921000Y-131826000D01*
X136144000Y-122332000D02*
X136144000Y-127762000D01*
X143256000Y-137160000D02*
X138684000Y-137160000D01*
X138922400Y-143017600D02*
X140462000Y-143017600D01*
X132715000Y-132080000D02*
X131445000Y-133350000D01*
X134668000Y-120856000D02*
X136144000Y-122332000D01*
X131783200Y-113792000D02*
X134577200Y-116586000D01*
X143685612Y-146056500D02*
X143510000Y-145880888D01*
X134372500Y-129533500D02*
X134372500Y-132080000D01*
X129921000Y-131826000D02*
X131445000Y-133350000D01*
X141787112Y-147955000D02*
X133985000Y-147955000D01*
X118411500Y-111626500D02*
X120577000Y-113792000D01*
D27*
X113798500Y-141953500D02*
X112242000Y-143510000D01*
D28*
X110739000Y-143515000D02*
X110744000Y-143510000D01*
X107066000Y-143510000D02*
X107061000Y-143515000D01*
D27*
X110744000Y-143510000D02*
X107066000Y-143510000D01*
X112242000Y-143510000D02*
X110744000Y-143510000D01*
D26*
X101676200Y-158064200D02*
X101092000Y-157480000D01*
X107542500Y-137953500D02*
X101981000Y-143515000D01*
X103378000Y-161493200D02*
X101676200Y-159791400D01*
X113798500Y-136953500D02*
X112798500Y-137953500D01*
X112798500Y-137953500D02*
X107542500Y-137953500D01*
X101092000Y-157480000D02*
X101092000Y-146431000D01*
X101676200Y-159791400D02*
X101676200Y-158064200D01*
D27*
X130777500Y-143510000D02*
X128651000Y-143510000D01*
X128651000Y-143510000D02*
X124968000Y-143510000D01*
X132334000Y-141953500D02*
X130777500Y-143510000D01*
D26*
X119888000Y-143510000D02*
X119888000Y-144111200D01*
X119888000Y-144111200D02*
X115639200Y-148360000D01*
X119888000Y-141224000D02*
X119888000Y-143510000D01*
X132334000Y-136953500D02*
X130254500Y-136953500D01*
X130254500Y-136953500D02*
X125984000Y-141224000D01*
X125984000Y-141224000D02*
X119888000Y-141224000D01*
X106850200Y-116840000D02*
X106850200Y-120650000D01*
D27*
X87161000Y-144399000D02*
X87161000Y-122936000D01*
X97668000Y-119385000D02*
X105585200Y-119385000D01*
X105585200Y-119385000D02*
X106850200Y-120650000D01*
X98300350Y-163108000D02*
X89458800Y-154266450D01*
X98300350Y-168108000D02*
X98300350Y-163108000D01*
X89458800Y-144399000D02*
X87161000Y-144399000D01*
X89458800Y-154266450D02*
X89458800Y-144399000D01*
X87161000Y-122936000D02*
X97668000Y-122936000D01*
D26*
X137927000Y-120396000D02*
X137927000Y-122682000D01*
X143764000Y-120396000D02*
X137927000Y-120396000D01*
X140462000Y-135483600D02*
X142758385Y-135483600D01*
X143927600Y-134314385D02*
X143927600Y-120559600D01*
X142758385Y-135483600D02*
X143927600Y-134314385D01*
X143927600Y-120559600D02*
X143764000Y-120396000D01*
X136271000Y-132207000D02*
X137922000Y-130556000D01*
X136271000Y-135502000D02*
X136271000Y-132207000D01*
D27*
X121628000Y-144983200D02*
X126136400Y-144983200D01*
D28*
X126136400Y-152577800D02*
X125984000Y-152730200D01*
D27*
X126136400Y-144983200D02*
X126136400Y-152577800D01*
D28*
X96560226Y-146016000D02*
X96558000Y-146013774D01*
D27*
X94958000Y-146024600D02*
X94958000Y-149237800D01*
X102092000Y-156575000D02*
X102092000Y-151536400D01*
X103929200Y-158412200D02*
X102092000Y-156575000D01*
X106596200Y-158412200D02*
X103929200Y-158412200D01*
X111794800Y-161863600D02*
X110490800Y-163167600D01*
X97256600Y-151536400D02*
X100092000Y-151536400D01*
X98840299Y-146016000D02*
X96560226Y-146016000D01*
X107137200Y-158953200D02*
X106596200Y-158412200D01*
X94958000Y-149237800D02*
X97256600Y-151536400D01*
X111794800Y-159713200D02*
X111794800Y-161863600D01*
X123173200Y-150561200D02*
X121920000Y-151814400D01*
X123173200Y-148360000D02*
X123173200Y-150561200D01*
X112454800Y-148403200D02*
X111820200Y-148403200D01*
X111820200Y-150469200D02*
X110439200Y-151850200D01*
X111820200Y-148403200D02*
X111820200Y-150469200D01*
X117348000Y-143510000D02*
X112454800Y-148403200D01*
X127043200Y-120856000D02*
X125433000Y-120856000D01*
X110546500Y-125546500D02*
X110363000Y-125730000D01*
X120396000Y-120142000D02*
X124719000Y-120142000D01*
X125433000Y-120856000D02*
X124719000Y-120142000D01*
X131445000Y-125730000D02*
X130048000Y-124333000D01*
X105915785Y-123983000D02*
X122078000Y-123983000D01*
X122078000Y-123983000D02*
X123825000Y-125730000D01*
X130048000Y-124333000D02*
X125222000Y-124333000D01*
X102743000Y-125730000D02*
X104570107Y-123902893D01*
X104570107Y-123902893D02*
X104951214Y-124284000D01*
X125222000Y-124333000D02*
X123825000Y-125730000D01*
X105614785Y-124284000D02*
X105915785Y-123983000D01*
X104951214Y-124284000D02*
X105614785Y-124284000D01*
X120396000Y-117602000D02*
X124719000Y-117602000D01*
X115798000Y-122402000D02*
X115798000Y-114193998D01*
X124719000Y-117978000D02*
X124719000Y-117602000D01*
X115316000Y-122936000D02*
X105283000Y-122936000D01*
X124719000Y-117602000D02*
X126027200Y-117602000D01*
X115824000Y-122428000D02*
X115316000Y-122936000D01*
X126027200Y-117602000D02*
X127043200Y-116586000D01*
X105283000Y-122936000D02*
X105283000Y-123483000D01*
X115824000Y-122428000D02*
X115798000Y-122402000D01*
X115798000Y-114193998D02*
X116629520Y-113362478D01*
X116629520Y-113362478D02*
X117411500Y-113362478D01*
X118702385Y-127101600D02*
X118704768Y-127103983D01*
X114858800Y-126775908D02*
X114858800Y-125476000D01*
X115102526Y-127019634D02*
X115184492Y-127101600D01*
X111556800Y-127304800D02*
X107950000Y-127304800D01*
X107823000Y-127177800D02*
X107823000Y-125730000D01*
X107950000Y-127304800D02*
X107823000Y-127177800D01*
X111664000Y-126537200D02*
X111664000Y-126598002D01*
X115184492Y-127101600D02*
X118702385Y-127101600D01*
X111664000Y-126598002D02*
X111658400Y-126603602D01*
X114858800Y-125476000D02*
X112725200Y-125476000D01*
X115102526Y-127019634D02*
X114858800Y-126775908D01*
X111658400Y-126603602D02*
X111658400Y-127203200D01*
X111658400Y-127203200D02*
X111556800Y-127304800D01*
X128905000Y-125730000D02*
X127622300Y-127012700D01*
X112725200Y-125476000D02*
X111664000Y-126537200D01*
X121547607Y-127118393D02*
X127516607Y-127118393D01*
X127516607Y-127118393D02*
X127622300Y-127012700D01*
D26*
X90830400Y-137922000D02*
X104521000Y-137922000D01*
D27*
X104182000Y-135556000D02*
X104521000Y-135895000D01*
D26*
X90830400Y-128778000D02*
X121793000Y-128778000D01*
X90830400Y-128778000D02*
X90830400Y-137922000D01*
X121793000Y-128778000D02*
X118745000Y-125730000D01*
X104521000Y-137922000D02*
X104521000Y-135895000D01*
D28*
X90830400Y-128778000D02*
X92202000Y-128778000D01*
D26*
X92906000Y-129979000D02*
X92430600Y-129979000D01*
X98819265Y-145016000D02*
X113719265Y-145016000D01*
X124311593Y-129946400D02*
X124129800Y-129946400D01*
X88366600Y-127508000D02*
X88366600Y-139649200D01*
X113719265Y-145016000D02*
X118879766Y-139855499D01*
X125429193Y-128828800D02*
X124311593Y-129946400D01*
X126339600Y-128828800D02*
X125429193Y-128828800D01*
X124097200Y-129979000D02*
X92906000Y-129979000D01*
X92430600Y-127355600D02*
X88519000Y-127355600D01*
X93452465Y-139649200D02*
X98819265Y-145016000D01*
X88519000Y-127355600D02*
X88366600Y-127508000D01*
X88366600Y-139649200D02*
X93452465Y-139649200D01*
X118879766Y-139855499D02*
X122428000Y-139855499D01*
X124129800Y-129946400D02*
X124097200Y-129979000D01*
D27*
X95758000Y-146726250D02*
X98169750Y-149138000D01*
X95504000Y-144780000D02*
X95758000Y-145034000D01*
X98129750Y-149098000D02*
X98169750Y-149138000D01*
X95758000Y-145034000D02*
X95758000Y-146726250D01*
X93472000Y-144780000D02*
X93472000Y-149440250D01*
X93472000Y-149440250D02*
X98169750Y-154138000D01*
G04 #@! TA.AperFunction,Conductor*
G36*
X113227039Y-146036185D02*
G01*
X113272794Y-146088989D01*
X113284000Y-146140500D01*
X113284000Y-146390559D01*
X113264315Y-146457598D01*
X113247681Y-146478240D01*
X112521260Y-147204660D01*
X112459937Y-147238145D01*
X112390245Y-147233161D01*
X112377293Y-147227468D01*
X112319419Y-147197980D01*
X112319418Y-147197979D01*
X112319415Y-147197978D01*
X112124736Y-147134723D01*
X111989946Y-147113374D01*
X111922552Y-147102700D01*
X111717848Y-147102700D01*
X111693529Y-147106551D01*
X111515665Y-147134722D01*
X111320976Y-147197981D01*
X111138586Y-147290915D01*
X110972986Y-147411228D01*
X110828228Y-147555986D01*
X110707915Y-147721586D01*
X110614981Y-147903976D01*
X110551722Y-148098665D01*
X110519700Y-148300848D01*
X110519700Y-148505551D01*
X110551722Y-148707734D01*
X110614981Y-148902423D01*
X110642026Y-148955500D01*
X110685901Y-149041610D01*
X110707915Y-149084813D01*
X110828228Y-149250413D01*
X110972979Y-149395164D01*
X110976238Y-149397948D01*
X111014427Y-149456458D01*
X111019700Y-149492233D01*
X111019700Y-150086259D01*
X111000015Y-150153298D01*
X110983381Y-150173940D01*
X110656740Y-150500581D01*
X110595417Y-150534066D01*
X110569059Y-150536900D01*
X109578529Y-150536900D01*
X109578523Y-150536901D01*
X109518916Y-150543308D01*
X109384071Y-150593602D01*
X109384064Y-150593606D01*
X109268855Y-150679852D01*
X109268852Y-150679855D01*
X109182606Y-150795064D01*
X109182602Y-150795071D01*
X109132308Y-150929916D01*
X109130829Y-150943678D01*
X109104089Y-151008228D01*
X109046695Y-151048075D01*
X108976870Y-151050566D01*
X108916782Y-151014912D01*
X108907225Y-151003308D01*
X108900929Y-150994642D01*
X108754758Y-150848471D01*
X108587519Y-150726965D01*
X108539898Y-150702701D01*
X108403329Y-150633115D01*
X108206735Y-150569238D01*
X108053602Y-150544984D01*
X108002559Y-150536900D01*
X107795841Y-150536900D01*
X107727783Y-150547679D01*
X107591666Y-150569238D01*
X107591663Y-150569238D01*
X107395070Y-150633115D01*
X107210880Y-150726965D01*
X107043639Y-150848473D01*
X106897473Y-150994639D01*
X106775965Y-151161880D01*
X106682115Y-151346070D01*
X106618238Y-151542663D01*
X106618238Y-151542666D01*
X106585900Y-151746841D01*
X106585900Y-151953558D01*
X106618238Y-152157733D01*
X106618238Y-152157736D01*
X106682115Y-152354329D01*
X106682117Y-152354332D01*
X106775965Y-152538519D01*
X106897471Y-152705758D01*
X107043642Y-152851929D01*
X107210881Y-152973435D01*
X107324807Y-153031483D01*
X107395070Y-153067284D01*
X107591664Y-153131161D01*
X107591665Y-153131161D01*
X107591668Y-153131162D01*
X107795841Y-153163500D01*
X107795842Y-153163500D01*
X108002558Y-153163500D01*
X108002559Y-153163500D01*
X108206732Y-153131162D01*
X108206735Y-153131161D01*
X108206736Y-153131161D01*
X108403329Y-153067284D01*
X108403329Y-153067283D01*
X108403332Y-153067283D01*
X108587519Y-152973435D01*
X108754758Y-152851929D01*
X108900929Y-152705758D01*
X108907222Y-152697095D01*
X108962550Y-152654431D01*
X109032163Y-152648450D01*
X109093959Y-152681055D01*
X109128317Y-152741893D01*
X109130830Y-152756726D01*
X109132309Y-152770483D01*
X109182602Y-152905328D01*
X109182606Y-152905335D01*
X109268852Y-153020544D01*
X109268855Y-153020547D01*
X109384064Y-153106793D01*
X109384071Y-153106797D01*
X109518917Y-153157091D01*
X109518916Y-153157091D01*
X109525844Y-153157835D01*
X109578527Y-153163500D01*
X111299872Y-153163499D01*
X111359483Y-153157091D01*
X111494331Y-153106796D01*
X111609546Y-153020546D01*
X111695796Y-152905331D01*
X111746091Y-152770483D01*
X111752500Y-152710873D01*
X111752499Y-151720339D01*
X111772183Y-151653301D01*
X111788818Y-151632659D01*
X112111210Y-151310268D01*
X112441989Y-150979489D01*
X112529594Y-150848379D01*
X112589937Y-150702697D01*
X112620700Y-150548042D01*
X112620700Y-150390358D01*
X112620700Y-149492233D01*
X112640385Y-149425194D01*
X112664162Y-149397948D01*
X112667410Y-149395172D01*
X112667419Y-149395166D01*
X112812166Y-149250419D01*
X112932487Y-149084810D01*
X112951848Y-149046809D01*
X112953232Y-149044904D01*
X112953499Y-149043681D01*
X112974644Y-149015433D01*
X113072321Y-148917756D01*
X113133643Y-148884274D01*
X113203334Y-148889258D01*
X113259267Y-148931130D01*
X113283684Y-148996595D01*
X113284000Y-149005440D01*
X113284000Y-159305075D01*
X113264315Y-159372114D01*
X113211511Y-159417869D01*
X113142353Y-159427813D01*
X113078797Y-159398788D01*
X113042069Y-159343394D01*
X113029425Y-159304480D01*
X113000020Y-159213981D01*
X113000018Y-159213978D01*
X113000018Y-159213976D01*
X112921761Y-159060390D01*
X112907087Y-159031590D01*
X112899356Y-159020949D01*
X112786771Y-158865986D01*
X112642013Y-158721228D01*
X112476413Y-158600915D01*
X112476412Y-158600914D01*
X112476410Y-158600913D01*
X112419453Y-158571891D01*
X112294023Y-158507981D01*
X112099334Y-158444722D01*
X111924795Y-158417078D01*
X111897152Y-158412700D01*
X111692448Y-158412700D01*
X111668129Y-158416551D01*
X111490265Y-158444722D01*
X111295576Y-158507981D01*
X111113186Y-158600915D01*
X110947586Y-158721228D01*
X110802828Y-158865986D01*
X110682515Y-159031586D01*
X110589581Y-159213976D01*
X110526322Y-159408665D01*
X110494300Y-159610848D01*
X110494300Y-159815551D01*
X110526322Y-160017734D01*
X110589581Y-160212423D01*
X110682515Y-160394813D01*
X110802828Y-160560413D01*
X110947579Y-160705164D01*
X110950838Y-160707948D01*
X110989027Y-160766458D01*
X110994300Y-160802233D01*
X110994300Y-161480659D01*
X110974615Y-161547698D01*
X110957981Y-161568340D01*
X110708340Y-161817981D01*
X110647017Y-161851466D01*
X110620659Y-161854300D01*
X109630129Y-161854300D01*
X109630123Y-161854301D01*
X109570516Y-161860708D01*
X109435671Y-161911002D01*
X109435664Y-161911006D01*
X109320455Y-161997252D01*
X109320452Y-161997255D01*
X109234206Y-162112464D01*
X109234202Y-162112471D01*
X109183908Y-162247316D01*
X109182429Y-162261078D01*
X109155689Y-162325628D01*
X109098295Y-162365475D01*
X109028470Y-162367966D01*
X108968382Y-162332312D01*
X108958825Y-162320708D01*
X108952529Y-162312042D01*
X108806358Y-162165871D01*
X108639119Y-162044365D01*
X108568836Y-162008554D01*
X108454929Y-161950515D01*
X108258335Y-161886638D01*
X108105202Y-161862384D01*
X108054159Y-161854300D01*
X107847441Y-161854300D01*
X107779383Y-161865079D01*
X107643266Y-161886638D01*
X107643263Y-161886638D01*
X107446670Y-161950515D01*
X107262480Y-162044365D01*
X107095239Y-162165873D01*
X106949073Y-162312039D01*
X106827565Y-162479280D01*
X106733715Y-162663470D01*
X106669838Y-162860063D01*
X106669838Y-162860066D01*
X106637500Y-163064241D01*
X106637500Y-163270958D01*
X106669838Y-163475133D01*
X106669838Y-163475136D01*
X106733715Y-163671729D01*
X106827565Y-163855919D01*
X106949071Y-164023158D01*
X107095242Y-164169329D01*
X107262481Y-164290835D01*
X107377119Y-164349246D01*
X107446670Y-164384684D01*
X107643264Y-164448561D01*
X107643265Y-164448561D01*
X107643268Y-164448562D01*
X107847441Y-164480900D01*
X107847442Y-164480900D01*
X108054158Y-164480900D01*
X108054159Y-164480900D01*
X108258332Y-164448562D01*
X108258335Y-164448561D01*
X108258336Y-164448561D01*
X108454929Y-164384684D01*
X108454929Y-164384683D01*
X108454932Y-164384683D01*
X108639119Y-164290835D01*
X108806358Y-164169329D01*
X108952529Y-164023158D01*
X108958822Y-164014495D01*
X109014150Y-163971831D01*
X109083763Y-163965850D01*
X109145559Y-163998455D01*
X109179917Y-164059293D01*
X109182430Y-164074126D01*
X109183909Y-164087883D01*
X109234202Y-164222728D01*
X109234206Y-164222735D01*
X109320452Y-164337944D01*
X109320455Y-164337947D01*
X109435664Y-164424193D01*
X109435671Y-164424197D01*
X109570517Y-164474491D01*
X109570516Y-164474491D01*
X109577444Y-164475235D01*
X109630127Y-164480900D01*
X111351472Y-164480899D01*
X111411083Y-164474491D01*
X111545931Y-164424196D01*
X111661146Y-164337946D01*
X111747396Y-164222731D01*
X111797691Y-164087883D01*
X111804100Y-164028273D01*
X111804099Y-163037739D01*
X111823783Y-162970701D01*
X111840418Y-162950059D01*
X112115710Y-162674768D01*
X112416588Y-162373890D01*
X112428483Y-162356088D01*
X112504194Y-162242779D01*
X112531369Y-162177171D01*
X112546861Y-162139770D01*
X112546862Y-162139768D01*
X112564536Y-162097100D01*
X112564539Y-162097090D01*
X112595299Y-161942447D01*
X112595300Y-161942445D01*
X112595300Y-160802233D01*
X112614985Y-160735194D01*
X112638762Y-160707948D01*
X112642010Y-160705172D01*
X112642019Y-160705166D01*
X112786766Y-160560419D01*
X112786768Y-160560415D01*
X112786771Y-160560413D01*
X112882114Y-160429182D01*
X112907087Y-160394810D01*
X113000020Y-160212419D01*
X113037578Y-160096825D01*
X113042069Y-160083006D01*
X113081507Y-160025330D01*
X113145865Y-159998132D01*
X113214712Y-160010047D01*
X113266187Y-160057291D01*
X113284000Y-160121324D01*
X113284000Y-169857163D01*
X113264315Y-169924202D01*
X113235488Y-169955538D01*
X113147588Y-170022987D01*
X113147587Y-170022989D01*
X112928985Y-170241590D01*
X112928979Y-170241597D01*
X112740770Y-170486876D01*
X112586188Y-170754620D01*
X112586184Y-170754630D01*
X112467873Y-171040257D01*
X112387853Y-171338895D01*
X112347500Y-171645415D01*
X112347500Y-171954584D01*
X112387853Y-172261104D01*
X112467873Y-172559742D01*
X112586184Y-172845369D01*
X112586188Y-172845379D01*
X112740770Y-173113123D01*
X112928979Y-173358402D01*
X112928985Y-173358409D01*
X113147590Y-173577014D01*
X113147597Y-173577020D01*
X113235486Y-173644459D01*
X113276689Y-173700886D01*
X113284000Y-173742835D01*
X113284000Y-175260000D01*
X116332000Y-178308000D01*
X116631500Y-178308000D01*
X116698539Y-178327685D01*
X116744294Y-178380489D01*
X116755500Y-178432000D01*
X116755500Y-178486611D01*
X116782598Y-178657701D01*
X116836127Y-178822445D01*
X116914768Y-178976788D01*
X117016586Y-179116928D01*
X117139072Y-179239414D01*
X117279212Y-179341232D01*
X117433555Y-179419873D01*
X117598299Y-179473402D01*
X117769389Y-179500500D01*
X117769390Y-179500500D01*
X117942610Y-179500500D01*
X117942611Y-179500500D01*
X118113701Y-179473402D01*
X118278445Y-179419873D01*
X118432788Y-179341232D01*
X118572928Y-179239414D01*
X118695414Y-179116928D01*
X118797232Y-178976788D01*
X118875873Y-178822445D01*
X118929402Y-178657701D01*
X118956500Y-178486611D01*
X118956500Y-178432000D01*
X118976185Y-178364961D01*
X119028989Y-178319206D01*
X119080500Y-178308000D01*
X121565500Y-178308000D01*
X121632539Y-178327685D01*
X121678294Y-178380489D01*
X121689500Y-178432000D01*
X121689500Y-178486611D01*
X121716598Y-178657701D01*
X121770127Y-178822445D01*
X121848768Y-178976788D01*
X121950586Y-179116928D01*
X122073072Y-179239414D01*
X122213212Y-179341232D01*
X122367555Y-179419873D01*
X122532299Y-179473402D01*
X122703389Y-179500500D01*
X122703390Y-179500500D01*
X122876610Y-179500500D01*
X122876611Y-179500500D01*
X123047701Y-179473402D01*
X123212445Y-179419873D01*
X123366788Y-179341232D01*
X123506928Y-179239414D01*
X123629414Y-179116928D01*
X123731232Y-178976788D01*
X123809873Y-178822445D01*
X123863402Y-178657701D01*
X123890500Y-178486611D01*
X123890500Y-178432000D01*
X123910185Y-178364961D01*
X123962989Y-178319206D01*
X124014500Y-178308000D01*
X129540000Y-178308000D01*
X129540000Y-177113389D01*
X135189500Y-177113389D01*
X135189500Y-178486611D01*
X135216598Y-178657701D01*
X135270127Y-178822445D01*
X135348768Y-178976788D01*
X135450586Y-179116928D01*
X135573072Y-179239414D01*
X135713212Y-179341232D01*
X135867555Y-179419873D01*
X136032299Y-179473402D01*
X136203389Y-179500500D01*
X136203390Y-179500500D01*
X136376610Y-179500500D01*
X136376611Y-179500500D01*
X136547701Y-179473402D01*
X136712445Y-179419873D01*
X136866788Y-179341232D01*
X137006928Y-179239414D01*
X137129414Y-179116928D01*
X137231232Y-178976788D01*
X137309873Y-178822445D01*
X137363402Y-178657701D01*
X137390500Y-178486611D01*
X137390500Y-177113389D01*
X137363402Y-176942299D01*
X137309873Y-176777555D01*
X137231232Y-176623212D01*
X137129414Y-176483072D01*
X137006928Y-176360586D01*
X136866788Y-176258768D01*
X136712445Y-176180127D01*
X136547701Y-176126598D01*
X136547699Y-176126597D01*
X136547698Y-176126597D01*
X136416271Y-176105781D01*
X136376611Y-176099500D01*
X136203389Y-176099500D01*
X136163728Y-176105781D01*
X136032302Y-176126597D01*
X135867552Y-176180128D01*
X135713211Y-176258768D01*
X135633256Y-176316859D01*
X135573072Y-176360586D01*
X135573070Y-176360588D01*
X135573069Y-176360588D01*
X135450588Y-176483069D01*
X135450588Y-176483070D01*
X135450586Y-176483072D01*
X135406859Y-176543256D01*
X135348768Y-176623211D01*
X135270128Y-176777552D01*
X135216597Y-176942302D01*
X135189500Y-177113389D01*
X129540000Y-177113389D01*
X129540000Y-169288000D01*
X129559685Y-169220961D01*
X129612489Y-169175206D01*
X129664000Y-169164000D01*
X138052000Y-169164000D01*
X138119039Y-169183685D01*
X138164794Y-169236489D01*
X138176000Y-169288000D01*
X138176000Y-186820000D01*
X138156315Y-186887039D01*
X138103511Y-186932794D01*
X138052000Y-186944000D01*
X102740000Y-186944000D01*
X102672961Y-186924315D01*
X102627206Y-186871511D01*
X102616000Y-186820000D01*
X102616000Y-177113389D01*
X103255500Y-177113389D01*
X103255500Y-178486611D01*
X103282598Y-178657701D01*
X103336127Y-178822445D01*
X103414768Y-178976788D01*
X103516586Y-179116928D01*
X103639072Y-179239414D01*
X103779212Y-179341232D01*
X103933555Y-179419873D01*
X104098299Y-179473402D01*
X104269389Y-179500500D01*
X104269390Y-179500500D01*
X104442610Y-179500500D01*
X104442611Y-179500500D01*
X104613701Y-179473402D01*
X104778445Y-179419873D01*
X104932788Y-179341232D01*
X105072928Y-179239414D01*
X105195414Y-179116928D01*
X105297232Y-178976788D01*
X105375873Y-178822445D01*
X105429402Y-178657701D01*
X105456500Y-178486611D01*
X105456500Y-177113389D01*
X105429402Y-176942299D01*
X105375873Y-176777555D01*
X105297232Y-176623212D01*
X105195414Y-176483072D01*
X105072928Y-176360586D01*
X104932788Y-176258768D01*
X104778445Y-176180127D01*
X104613701Y-176126598D01*
X104613699Y-176126597D01*
X104613698Y-176126597D01*
X104482271Y-176105781D01*
X104442611Y-176099500D01*
X104269389Y-176099500D01*
X104229728Y-176105781D01*
X104098302Y-176126597D01*
X103933552Y-176180128D01*
X103779211Y-176258768D01*
X103699256Y-176316859D01*
X103639072Y-176360586D01*
X103639070Y-176360588D01*
X103639069Y-176360588D01*
X103516588Y-176483069D01*
X103516588Y-176483070D01*
X103516586Y-176483072D01*
X103472859Y-176543256D01*
X103414768Y-176623211D01*
X103336128Y-176777552D01*
X103282597Y-176942302D01*
X103255500Y-177113389D01*
X102616000Y-177113389D01*
X102616000Y-169894135D01*
X105147500Y-169894135D01*
X105147500Y-173705870D01*
X105147501Y-173705876D01*
X105153908Y-173765483D01*
X105204202Y-173900328D01*
X105204206Y-173900335D01*
X105290452Y-174015544D01*
X105290455Y-174015547D01*
X105405664Y-174101793D01*
X105405671Y-174101797D01*
X105540517Y-174152091D01*
X105540516Y-174152091D01*
X105547444Y-174152835D01*
X105600127Y-174158500D01*
X109411872Y-174158499D01*
X109471483Y-174152091D01*
X109606331Y-174101796D01*
X109721546Y-174015546D01*
X109807796Y-173900331D01*
X109858091Y-173765483D01*
X109864500Y-173705873D01*
X109864499Y-169894128D01*
X109858091Y-169834517D01*
X109807796Y-169699669D01*
X109807795Y-169699668D01*
X109807793Y-169699664D01*
X109721547Y-169584455D01*
X109721544Y-169584452D01*
X109606335Y-169498206D01*
X109606328Y-169498202D01*
X109471482Y-169447908D01*
X109471483Y-169447908D01*
X109411883Y-169441501D01*
X109411881Y-169441500D01*
X109411873Y-169441500D01*
X109411864Y-169441500D01*
X105600129Y-169441500D01*
X105600123Y-169441501D01*
X105540516Y-169447908D01*
X105405671Y-169498202D01*
X105405664Y-169498206D01*
X105290455Y-169584452D01*
X105290452Y-169584455D01*
X105204206Y-169699664D01*
X105204202Y-169699671D01*
X105153908Y-169834517D01*
X105151474Y-169857163D01*
X105147501Y-169894123D01*
X105147500Y-169894135D01*
X102616000Y-169894135D01*
X102616000Y-162419327D01*
X102635685Y-162352288D01*
X102688489Y-162306533D01*
X102757647Y-162296589D01*
X102808891Y-162316225D01*
X102904079Y-162379828D01*
X102904085Y-162379831D01*
X102904086Y-162379832D01*
X103086165Y-162455252D01*
X103279455Y-162493699D01*
X103279459Y-162493700D01*
X103279460Y-162493700D01*
X103476542Y-162493700D01*
X103476543Y-162493699D01*
X103669836Y-162455252D01*
X103851915Y-162379832D01*
X104015782Y-162270340D01*
X104155140Y-162130982D01*
X104264632Y-161967115D01*
X104340052Y-161785036D01*
X104378500Y-161591741D01*
X104378500Y-161394660D01*
X104340052Y-161201365D01*
X104264632Y-161019286D01*
X104264631Y-161019285D01*
X104264628Y-161019279D01*
X104155140Y-160855419D01*
X104155137Y-160855415D01*
X102713019Y-159413297D01*
X102679534Y-159351974D01*
X102676700Y-159325616D01*
X102676700Y-158591140D01*
X102696385Y-158524101D01*
X102749189Y-158478346D01*
X102818347Y-158468402D01*
X102881903Y-158497427D01*
X102888381Y-158503459D01*
X103307411Y-158922489D01*
X103416508Y-159031586D01*
X103418912Y-159033990D01*
X103550014Y-159121590D01*
X103550027Y-159121597D01*
X103695698Y-159181935D01*
X103695703Y-159181937D01*
X103695707Y-159181937D01*
X103695708Y-159181938D01*
X103850354Y-159212700D01*
X103850357Y-159212700D01*
X103850358Y-159212700D01*
X106213260Y-159212700D01*
X106280299Y-159232385D01*
X106300941Y-159249019D01*
X106626907Y-159574986D01*
X106626911Y-159574989D01*
X106758014Y-159662590D01*
X106758018Y-159662592D01*
X106758021Y-159662594D01*
X106903703Y-159722938D01*
X107058353Y-159753699D01*
X107058357Y-159753700D01*
X107058358Y-159753700D01*
X107216044Y-159753700D01*
X107216045Y-159753699D01*
X107370698Y-159722938D01*
X107516379Y-159662594D01*
X107647490Y-159574989D01*
X107758989Y-159463490D01*
X107846594Y-159332379D01*
X107906938Y-159186698D01*
X107937700Y-159032043D01*
X107937700Y-158874358D01*
X107906938Y-158719703D01*
X107846594Y-158574021D01*
X107846592Y-158574018D01*
X107846590Y-158574014D01*
X107758989Y-158442911D01*
X107758986Y-158442907D01*
X107106492Y-157790413D01*
X107106488Y-157790410D01*
X106975385Y-157702809D01*
X106975372Y-157702802D01*
X106829701Y-157642464D01*
X106829689Y-157642461D01*
X106675045Y-157611700D01*
X106675042Y-157611700D01*
X104312140Y-157611700D01*
X104245101Y-157592015D01*
X104224459Y-157575381D01*
X102928819Y-156279741D01*
X102895334Y-156218418D01*
X102892500Y-156192060D01*
X102892500Y-151457555D01*
X102892499Y-151457553D01*
X102861737Y-151302903D01*
X102808827Y-151175165D01*
X102801397Y-151157227D01*
X102801390Y-151157214D01*
X102713789Y-151026111D01*
X102713786Y-151026107D01*
X102652319Y-150964640D01*
X102618834Y-150903317D01*
X102616000Y-150876959D01*
X102616000Y-146140500D01*
X102635685Y-146073461D01*
X102688489Y-146027706D01*
X102740000Y-146016500D01*
X113160000Y-146016500D01*
X113227039Y-146036185D01*
G37*
G04 #@! TD.AperFunction*
G04 #@! TA.AperFunction,Conductor*
G36*
X125278939Y-145815685D02*
G01*
X125324694Y-145868489D01*
X125335900Y-145920000D01*
X125335900Y-152221672D01*
X125316215Y-152288711D01*
X125315002Y-152290563D01*
X125274609Y-152351014D01*
X125274602Y-152351027D01*
X125214264Y-152496698D01*
X125214261Y-152496710D01*
X125183500Y-152651353D01*
X125183500Y-152809046D01*
X125214261Y-152963689D01*
X125214264Y-152963701D01*
X125274602Y-153109372D01*
X125274609Y-153109385D01*
X125362210Y-153240488D01*
X125362213Y-153240492D01*
X125473707Y-153351986D01*
X125473711Y-153351989D01*
X125604814Y-153439590D01*
X125604827Y-153439597D01*
X125750498Y-153499935D01*
X125750503Y-153499937D01*
X125905153Y-153530699D01*
X125905156Y-153530700D01*
X125920450Y-153530700D01*
X125962674Y-153543098D01*
X125984000Y-153542998D01*
X125984000Y-153543000D01*
X132590424Y-153512272D01*
X132657554Y-153531645D01*
X132703554Y-153584235D01*
X132715000Y-153636271D01*
X132715000Y-155469052D01*
X132695315Y-155536091D01*
X132642511Y-155581846D01*
X132573353Y-155591790D01*
X132509797Y-155562765D01*
X132490682Y-155541938D01*
X132446731Y-155481445D01*
X132446729Y-155481442D01*
X132300558Y-155335271D01*
X132133319Y-155213765D01*
X131949129Y-155119915D01*
X131752535Y-155056038D01*
X131599402Y-155031784D01*
X131548359Y-155023700D01*
X131341641Y-155023700D01*
X131273583Y-155034479D01*
X131137466Y-155056038D01*
X131137463Y-155056038D01*
X130940870Y-155119915D01*
X130756680Y-155213765D01*
X130589439Y-155335273D01*
X130443273Y-155481439D01*
X130443268Y-155481445D01*
X130436533Y-155490715D01*
X130381201Y-155533378D01*
X130311587Y-155539353D01*
X130249794Y-155506744D01*
X130215440Y-155445903D01*
X130212929Y-155431075D01*
X130211397Y-155416821D01*
X130211396Y-155416820D01*
X130161154Y-155282113D01*
X130161150Y-155282106D01*
X130074990Y-155167012D01*
X130074987Y-155167009D01*
X129959893Y-155080849D01*
X129959886Y-155080845D01*
X129825179Y-155030603D01*
X129825172Y-155030601D01*
X129765644Y-155024200D01*
X129155000Y-155024200D01*
X129155000Y-155836090D01*
X129120689Y-155816281D01*
X128978567Y-155778200D01*
X128831433Y-155778200D01*
X128689311Y-155816281D01*
X128655000Y-155836090D01*
X128655000Y-155024200D01*
X128044355Y-155024200D01*
X127984827Y-155030601D01*
X127984820Y-155030603D01*
X127850113Y-155080845D01*
X127850106Y-155080849D01*
X127735012Y-155167009D01*
X127735009Y-155167012D01*
X127648849Y-155282106D01*
X127648845Y-155282113D01*
X127598603Y-155416820D01*
X127598601Y-155416827D01*
X127592200Y-155476355D01*
X127592200Y-156087000D01*
X128404091Y-156087000D01*
X128384281Y-156121311D01*
X128346200Y-156263433D01*
X128346200Y-156410567D01*
X128384281Y-156552689D01*
X128404091Y-156587000D01*
X127592200Y-156587000D01*
X127592200Y-157197644D01*
X127598601Y-157257172D01*
X127598603Y-157257179D01*
X127648845Y-157391886D01*
X127648849Y-157391893D01*
X127735009Y-157506987D01*
X127735012Y-157506990D01*
X127850106Y-157593150D01*
X127850113Y-157593154D01*
X127984820Y-157643396D01*
X127984827Y-157643398D01*
X128044355Y-157649799D01*
X128044372Y-157649800D01*
X128655000Y-157649800D01*
X128655000Y-156837909D01*
X128689311Y-156857719D01*
X128831433Y-156895800D01*
X128978567Y-156895800D01*
X129120689Y-156857719D01*
X129155000Y-156837909D01*
X129155000Y-157649800D01*
X129765628Y-157649800D01*
X129765644Y-157649799D01*
X129825172Y-157643398D01*
X129825179Y-157643396D01*
X129959886Y-157593154D01*
X129959893Y-157593150D01*
X130074987Y-157506990D01*
X130074990Y-157506987D01*
X130161150Y-157391893D01*
X130161154Y-157391886D01*
X130211396Y-157257179D01*
X130212929Y-157242924D01*
X130239665Y-157178372D01*
X130297056Y-157138522D01*
X130366881Y-157136026D01*
X130426971Y-157171676D01*
X130436535Y-157183287D01*
X130443271Y-157192558D01*
X130589442Y-157338729D01*
X130756681Y-157460235D01*
X130937740Y-157552489D01*
X130940870Y-157554084D01*
X131137464Y-157617961D01*
X131137465Y-157617961D01*
X131137468Y-157617962D01*
X131341641Y-157650300D01*
X131341642Y-157650300D01*
X131548358Y-157650300D01*
X131548359Y-157650300D01*
X131752532Y-157617962D01*
X131752535Y-157617961D01*
X131752536Y-157617961D01*
X131949129Y-157554084D01*
X131949129Y-157554083D01*
X131949132Y-157554083D01*
X132133319Y-157460235D01*
X132300558Y-157338729D01*
X132446729Y-157192558D01*
X132490682Y-157132062D01*
X132546012Y-157089396D01*
X132615625Y-157083417D01*
X132677420Y-157116023D01*
X132711777Y-157176861D01*
X132715000Y-157204947D01*
X132715000Y-157480000D01*
X133305702Y-157480000D01*
X133361996Y-157493514D01*
X133477740Y-157552489D01*
X133480870Y-157554084D01*
X133677464Y-157617961D01*
X133677465Y-157617961D01*
X133677468Y-157617962D01*
X133881641Y-157650300D01*
X133881642Y-157650300D01*
X134088358Y-157650300D01*
X134088359Y-157650300D01*
X134292532Y-157617962D01*
X134292535Y-157617961D01*
X134292536Y-157617961D01*
X134489129Y-157554084D01*
X134489129Y-157554083D01*
X134489132Y-157554083D01*
X134608003Y-157493514D01*
X134664298Y-157480000D01*
X140175647Y-157480000D01*
X140242686Y-157499685D01*
X140288441Y-157552489D01*
X140298385Y-157621647D01*
X140269360Y-157685203D01*
X140214651Y-157721706D01*
X140069992Y-157769641D01*
X140069987Y-157769643D01*
X139920766Y-157861684D01*
X139796796Y-157985654D01*
X139704755Y-158134875D01*
X139704753Y-158134880D01*
X139649606Y-158301302D01*
X139649605Y-158301309D01*
X139639112Y-158404013D01*
X139639112Y-158754000D01*
X140623426Y-158754000D01*
X140619032Y-158758394D01*
X140566371Y-158849606D01*
X140539112Y-158951339D01*
X140539112Y-159056661D01*
X140566371Y-159158394D01*
X140619032Y-159249606D01*
X140623426Y-159254000D01*
X139639113Y-159254000D01*
X139639113Y-159603986D01*
X139649606Y-159706697D01*
X139704753Y-159873119D01*
X139704755Y-159873124D01*
X139796796Y-160022345D01*
X139920766Y-160146315D01*
X140069987Y-160238356D01*
X140069992Y-160238358D01*
X140236414Y-160293505D01*
X140236421Y-160293506D01*
X140339131Y-160303999D01*
X140689111Y-160303999D01*
X140689112Y-160303998D01*
X140689112Y-159319686D01*
X140693506Y-159324080D01*
X140784718Y-159376741D01*
X140886451Y-159404000D01*
X140991773Y-159404000D01*
X141093506Y-159376741D01*
X141184718Y-159324080D01*
X141189112Y-159319686D01*
X141189112Y-160303999D01*
X141539084Y-160303999D01*
X141539098Y-160303998D01*
X141641809Y-160293505D01*
X141808231Y-160238358D01*
X141808236Y-160238356D01*
X141957457Y-160146315D01*
X142026224Y-160077549D01*
X142087547Y-160044064D01*
X142157239Y-160049048D01*
X142186786Y-160064909D01*
X142257502Y-160116287D01*
X142316435Y-160146315D01*
X142439888Y-160209218D01*
X142439890Y-160209218D01*
X142439893Y-160209220D01*
X142529571Y-160238358D01*
X142634577Y-160272477D01*
X142735669Y-160288488D01*
X142836760Y-160304500D01*
X142836761Y-160304500D01*
X143041463Y-160304500D01*
X143041464Y-160304500D01*
X143243646Y-160272477D01*
X143438331Y-160209220D01*
X143620722Y-160116287D01*
X143720129Y-160044064D01*
X143786325Y-159995971D01*
X143786327Y-159995968D01*
X143786331Y-159995966D01*
X143931078Y-159851219D01*
X143931080Y-159851215D01*
X143931083Y-159851213D01*
X143983844Y-159778590D01*
X144051399Y-159685610D01*
X144144332Y-159503219D01*
X144207589Y-159308534D01*
X144239612Y-159106352D01*
X144239612Y-158901648D01*
X144219344Y-158773685D01*
X144207589Y-158699465D01*
X144144330Y-158504776D01*
X144092988Y-158404013D01*
X144051399Y-158322390D01*
X144036078Y-158301302D01*
X143931083Y-158156786D01*
X143786325Y-158012028D01*
X143620725Y-157891715D01*
X143620724Y-157891714D01*
X143620722Y-157891713D01*
X143561787Y-157861684D01*
X143438335Y-157798781D01*
X143243646Y-157735522D01*
X143186508Y-157726473D01*
X143123373Y-157696544D01*
X143086442Y-157637232D01*
X143087440Y-157567370D01*
X143126050Y-157509137D01*
X143190014Y-157481023D01*
X143205906Y-157480000D01*
X144656000Y-157480000D01*
X144723039Y-157499685D01*
X144768794Y-157552489D01*
X144780000Y-157604000D01*
X144780000Y-168024000D01*
X144760315Y-168091039D01*
X144707511Y-168136794D01*
X144656000Y-168148000D01*
X129032000Y-168148000D01*
X129032000Y-177676000D01*
X129012315Y-177743039D01*
X128959511Y-177788794D01*
X128908000Y-177800000D01*
X124014500Y-177800000D01*
X123947461Y-177780315D01*
X123901706Y-177727511D01*
X123890500Y-177676000D01*
X123890500Y-177113389D01*
X123863402Y-176942302D01*
X123863402Y-176942299D01*
X123809873Y-176777555D01*
X123731232Y-176623212D01*
X123629414Y-176483072D01*
X123506928Y-176360586D01*
X123366788Y-176258768D01*
X123212445Y-176180127D01*
X123047701Y-176126598D01*
X123047699Y-176126597D01*
X123047698Y-176126597D01*
X122916271Y-176105781D01*
X122876611Y-176099500D01*
X122703389Y-176099500D01*
X122663728Y-176105781D01*
X122532302Y-176126597D01*
X122367552Y-176180128D01*
X122213211Y-176258768D01*
X122133256Y-176316859D01*
X122073072Y-176360586D01*
X122073070Y-176360588D01*
X122073069Y-176360588D01*
X121950588Y-176483069D01*
X121950588Y-176483070D01*
X121950586Y-176483072D01*
X121906859Y-176543256D01*
X121848768Y-176623211D01*
X121770128Y-176777552D01*
X121716597Y-176942302D01*
X121689500Y-177113389D01*
X121689500Y-177676000D01*
X121669815Y-177743039D01*
X121617011Y-177788794D01*
X121565500Y-177800000D01*
X119080500Y-177800000D01*
X119013461Y-177780315D01*
X118967706Y-177727511D01*
X118956500Y-177676000D01*
X118956500Y-177113389D01*
X118929402Y-176942302D01*
X118929402Y-176942299D01*
X118875873Y-176777555D01*
X118797232Y-176623212D01*
X118695414Y-176483072D01*
X118572928Y-176360586D01*
X118432788Y-176258768D01*
X118278445Y-176180127D01*
X118113701Y-176126598D01*
X118113699Y-176126597D01*
X118113698Y-176126597D01*
X117982271Y-176105781D01*
X117942611Y-176099500D01*
X117769389Y-176099500D01*
X117729728Y-176105781D01*
X117598302Y-176126597D01*
X117433552Y-176180128D01*
X117279211Y-176258768D01*
X117199256Y-176316859D01*
X117139072Y-176360586D01*
X117139070Y-176360588D01*
X117139069Y-176360588D01*
X117016588Y-176483069D01*
X117016588Y-176483070D01*
X117016586Y-176483072D01*
X116972859Y-176543256D01*
X116914768Y-176623211D01*
X116836128Y-176777552D01*
X116782597Y-176942302D01*
X116755500Y-177113389D01*
X116755500Y-177416138D01*
X116735815Y-177483177D01*
X116683011Y-177528932D01*
X116613853Y-177538876D01*
X116550297Y-177509851D01*
X116543819Y-177503819D01*
X113828319Y-174788319D01*
X113794834Y-174726996D01*
X113792000Y-174700638D01*
X113792000Y-174158393D01*
X113811685Y-174091354D01*
X113864489Y-174045599D01*
X113933647Y-174035655D01*
X113948078Y-174038614D01*
X114244892Y-174118146D01*
X114474785Y-174148411D01*
X114551415Y-174158500D01*
X114551416Y-174158500D01*
X114860585Y-174158500D01*
X114921888Y-174150429D01*
X115167108Y-174118146D01*
X115465742Y-174038127D01*
X115751376Y-173919813D01*
X116019124Y-173765229D01*
X116264404Y-173577019D01*
X116483019Y-173358404D01*
X116671229Y-173113124D01*
X116825813Y-172845376D01*
X116944127Y-172559742D01*
X117024146Y-172261108D01*
X117064500Y-171954584D01*
X117064500Y-171645416D01*
X117024146Y-171338892D01*
X116944127Y-171040258D01*
X116825813Y-170754624D01*
X116671229Y-170486876D01*
X116483019Y-170241596D01*
X116483014Y-170241590D01*
X116264409Y-170022985D01*
X116264402Y-170022979D01*
X116019123Y-169834770D01*
X115751379Y-169680188D01*
X115751369Y-169680184D01*
X115465742Y-169561873D01*
X115457699Y-169559718D01*
X115167108Y-169481854D01*
X115167107Y-169481853D01*
X115167104Y-169481853D01*
X114860585Y-169441500D01*
X114860584Y-169441500D01*
X114551416Y-169441500D01*
X114551415Y-169441500D01*
X114244893Y-169481853D01*
X113948093Y-169561381D01*
X113878244Y-169559718D01*
X113820381Y-169520555D01*
X113792877Y-169456327D01*
X113792000Y-169441606D01*
X113792000Y-163075541D01*
X115526700Y-163075541D01*
X115526700Y-163282258D01*
X115559038Y-163486433D01*
X115559038Y-163486436D01*
X115622915Y-163683029D01*
X115622917Y-163683032D01*
X115716765Y-163867219D01*
X115838271Y-164034458D01*
X115984442Y-164180629D01*
X116151681Y-164302135D01*
X116250528Y-164352500D01*
X116335870Y-164395984D01*
X116532464Y-164459861D01*
X116532465Y-164459861D01*
X116532468Y-164459862D01*
X116736641Y-164492200D01*
X116736642Y-164492200D01*
X116943358Y-164492200D01*
X116943359Y-164492200D01*
X117147532Y-164459862D01*
X117147535Y-164459861D01*
X117147536Y-164459861D01*
X117344129Y-164395984D01*
X117344129Y-164395983D01*
X117344132Y-164395983D01*
X117528319Y-164302135D01*
X117695558Y-164180629D01*
X117841729Y-164034458D01*
X117963235Y-163867219D01*
X118057083Y-163683032D01*
X118085434Y-163595776D01*
X118120961Y-163486436D01*
X118120961Y-163486435D01*
X118120962Y-163486432D01*
X118153300Y-163282259D01*
X118153300Y-163075541D01*
X118120962Y-162871368D01*
X118120961Y-162871364D01*
X118120961Y-162871363D01*
X118057084Y-162674770D01*
X118014255Y-162590713D01*
X117963235Y-162490581D01*
X117841729Y-162323342D01*
X117836622Y-162318235D01*
X120606700Y-162318235D01*
X120606700Y-164039570D01*
X120606701Y-164039576D01*
X120613108Y-164099183D01*
X120663402Y-164234028D01*
X120663406Y-164234035D01*
X120749652Y-164349244D01*
X120749655Y-164349247D01*
X120864864Y-164435493D01*
X120864871Y-164435497D01*
X120999717Y-164485791D01*
X120999716Y-164485791D01*
X121006644Y-164486535D01*
X121059327Y-164492200D01*
X122780672Y-164492199D01*
X122840283Y-164485791D01*
X122975131Y-164435496D01*
X123090346Y-164349246D01*
X123176596Y-164234031D01*
X123226891Y-164099183D01*
X123233300Y-164039573D01*
X123233300Y-163600648D01*
X131483849Y-163600648D01*
X131483849Y-163805351D01*
X131515871Y-164007534D01*
X131579130Y-164202223D01*
X131672064Y-164384613D01*
X131792377Y-164550213D01*
X131937135Y-164694971D01*
X132063356Y-164786674D01*
X132102739Y-164815287D01*
X132218956Y-164874503D01*
X132285125Y-164908218D01*
X132285127Y-164908218D01*
X132285130Y-164908220D01*
X132389486Y-164942127D01*
X132479814Y-164971477D01*
X132580906Y-164987488D01*
X132681997Y-165003500D01*
X132681998Y-165003500D01*
X132886700Y-165003500D01*
X132886701Y-165003500D01*
X133088883Y-164971477D01*
X133283568Y-164908220D01*
X133465959Y-164815287D01*
X133577227Y-164734447D01*
X135915612Y-164734447D01*
X135915612Y-164970552D01*
X135952546Y-165203747D01*
X136025509Y-165428302D01*
X136132699Y-165638674D01*
X136192950Y-165721604D01*
X136192952Y-165721605D01*
X136932649Y-164981908D01*
X136949687Y-165045493D01*
X137015513Y-165159507D01*
X137108605Y-165252599D01*
X137222619Y-165318425D01*
X137286202Y-165335462D01*
X136546505Y-166075158D01*
X136629440Y-166135414D01*
X136839809Y-166242602D01*
X137064364Y-166315565D01*
X137064363Y-166315565D01*
X137297560Y-166352500D01*
X137533664Y-166352500D01*
X137766859Y-166315565D01*
X137991414Y-166242602D01*
X138201775Y-166135418D01*
X138201781Y-166135414D01*
X138284716Y-166075158D01*
X138284717Y-166075158D01*
X137545020Y-165335462D01*
X137608605Y-165318425D01*
X137722619Y-165252599D01*
X137815711Y-165159507D01*
X137881537Y-165045493D01*
X137898574Y-164981909D01*
X138638270Y-165721605D01*
X138638270Y-165721604D01*
X138698526Y-165638669D01*
X138698530Y-165638663D01*
X138805714Y-165428302D01*
X138878677Y-165203747D01*
X138915612Y-164970552D01*
X138915612Y-164734447D01*
X138915605Y-164734402D01*
X140915112Y-164734402D01*
X140915112Y-164970597D01*
X140952058Y-165203868D01*
X141025045Y-165428496D01*
X141132131Y-165638663D01*
X141132269Y-165638933D01*
X141271095Y-165830010D01*
X141438102Y-165997017D01*
X141629179Y-166135843D01*
X141728603Y-166186502D01*
X141839615Y-166243066D01*
X141839617Y-166243066D01*
X141839620Y-166243068D01*
X141960024Y-166282189D01*
X142064243Y-166316053D01*
X142297515Y-166353000D01*
X142297520Y-166353000D01*
X142533709Y-166353000D01*
X142766980Y-166316053D01*
X142768482Y-166315565D01*
X142991604Y-166243068D01*
X143202045Y-166135843D01*
X143393122Y-165997017D01*
X143560129Y-165830010D01*
X143698955Y-165638933D01*
X143806180Y-165428492D01*
X143879165Y-165203868D01*
X143904249Y-165045493D01*
X143916112Y-164970597D01*
X143916112Y-164734402D01*
X143879165Y-164501131D01*
X143829813Y-164349244D01*
X143806180Y-164276508D01*
X143806178Y-164276505D01*
X143806178Y-164276503D01*
X143699089Y-164066330D01*
X143698955Y-164066067D01*
X143560129Y-163874990D01*
X143393122Y-163707983D01*
X143202045Y-163569157D01*
X142991608Y-163461933D01*
X142766980Y-163388946D01*
X142533709Y-163352000D01*
X142533704Y-163352000D01*
X142297520Y-163352000D01*
X142297515Y-163352000D01*
X142064243Y-163388946D01*
X141839615Y-163461933D01*
X141629178Y-163569157D01*
X141592541Y-163595776D01*
X141438102Y-163707983D01*
X141438100Y-163707985D01*
X141438099Y-163707985D01*
X141271097Y-163874987D01*
X141271097Y-163874988D01*
X141271095Y-163874990D01*
X141211474Y-163957050D01*
X141132269Y-164066066D01*
X141025045Y-164276503D01*
X140952058Y-164501131D01*
X140915112Y-164734402D01*
X138915605Y-164734402D01*
X138878677Y-164501252D01*
X138805714Y-164276697D01*
X138698526Y-164066328D01*
X138638270Y-163983394D01*
X138638270Y-163983393D01*
X137898574Y-164723090D01*
X137881537Y-164659507D01*
X137815711Y-164545493D01*
X137722619Y-164452401D01*
X137608605Y-164386575D01*
X137545021Y-164369537D01*
X138284717Y-163629840D01*
X138284716Y-163629838D01*
X138201786Y-163569587D01*
X137991414Y-163462397D01*
X137766859Y-163389434D01*
X137766860Y-163389434D01*
X137533664Y-163352500D01*
X137297560Y-163352500D01*
X137064364Y-163389434D01*
X136839809Y-163462397D01*
X136629442Y-163569584D01*
X136546506Y-163629840D01*
X137286203Y-164369537D01*
X137222619Y-164386575D01*
X137108605Y-164452401D01*
X137015513Y-164545493D01*
X136949687Y-164659507D01*
X136932649Y-164723091D01*
X136192952Y-163983394D01*
X136132696Y-164066330D01*
X136025509Y-164276697D01*
X135952546Y-164501252D01*
X135915612Y-164734447D01*
X133577227Y-164734447D01*
X133631562Y-164694971D01*
X133631564Y-164694968D01*
X133631568Y-164694966D01*
X133776315Y-164550219D01*
X133776317Y-164550215D01*
X133776320Y-164550213D01*
X133847383Y-164452401D01*
X133896636Y-164384610D01*
X133989569Y-164202219D01*
X134052826Y-164007534D01*
X134084849Y-163805352D01*
X134084849Y-163600648D01*
X134052826Y-163398466D01*
X134049891Y-163389434D01*
X133989567Y-163203776D01*
X133924227Y-163075541D01*
X133896636Y-163021390D01*
X133888905Y-163010749D01*
X133776320Y-162855786D01*
X133631562Y-162711028D01*
X133465962Y-162590715D01*
X133465961Y-162590714D01*
X133465959Y-162590713D01*
X133409002Y-162561691D01*
X133283572Y-162497781D01*
X133088883Y-162434522D01*
X132914344Y-162406878D01*
X132886701Y-162402500D01*
X132681997Y-162402500D01*
X132657678Y-162406351D01*
X132479814Y-162434522D01*
X132285125Y-162497781D01*
X132102735Y-162590715D01*
X131937135Y-162711028D01*
X131792377Y-162855786D01*
X131672064Y-163021386D01*
X131579130Y-163203776D01*
X131515871Y-163398465D01*
X131483849Y-163600648D01*
X123233300Y-163600648D01*
X123233299Y-163075541D01*
X123233299Y-162318229D01*
X123233298Y-162318223D01*
X123233297Y-162318216D01*
X123226891Y-162258617D01*
X123196514Y-162177173D01*
X123176597Y-162123771D01*
X123176593Y-162123764D01*
X123090347Y-162008555D01*
X123090344Y-162008552D01*
X122975135Y-161922306D01*
X122975128Y-161922302D01*
X122840282Y-161872008D01*
X122840283Y-161872008D01*
X122780683Y-161865601D01*
X122780681Y-161865600D01*
X122780673Y-161865600D01*
X122780664Y-161865600D01*
X121059329Y-161865600D01*
X121059323Y-161865601D01*
X120999716Y-161872008D01*
X120864871Y-161922302D01*
X120864864Y-161922306D01*
X120749655Y-162008552D01*
X120749652Y-162008555D01*
X120663406Y-162123764D01*
X120663402Y-162123771D01*
X120613108Y-162258617D01*
X120606701Y-162318216D01*
X120606701Y-162318223D01*
X120606700Y-162318235D01*
X117836622Y-162318235D01*
X117695558Y-162177171D01*
X117528319Y-162055665D01*
X117344129Y-161961815D01*
X117147535Y-161897938D01*
X116994402Y-161873684D01*
X116943359Y-161865600D01*
X116736641Y-161865600D01*
X116668583Y-161876379D01*
X116532466Y-161897938D01*
X116532463Y-161897938D01*
X116335870Y-161961815D01*
X116151680Y-162055665D01*
X115984439Y-162177173D01*
X115838273Y-162323339D01*
X115716765Y-162490580D01*
X115622915Y-162674770D01*
X115559038Y-162871363D01*
X115559038Y-162871366D01*
X115526700Y-163075541D01*
X113792000Y-163075541D01*
X113792000Y-159639648D01*
X114402200Y-159639648D01*
X114402200Y-159844351D01*
X114434222Y-160046534D01*
X114497481Y-160241223D01*
X114590415Y-160423613D01*
X114710728Y-160589213D01*
X114855486Y-160733971D01*
X115010449Y-160846556D01*
X115021090Y-160854287D01*
X115137307Y-160913503D01*
X115203476Y-160947218D01*
X115203478Y-160947218D01*
X115203481Y-160947220D01*
X115307837Y-160981127D01*
X115398165Y-161010477D01*
X115499257Y-161026488D01*
X115600348Y-161042500D01*
X115600349Y-161042500D01*
X115805051Y-161042500D01*
X115805052Y-161042500D01*
X116007234Y-161010477D01*
X116201919Y-160947220D01*
X116384310Y-160854287D01*
X116477290Y-160786732D01*
X116549913Y-160733971D01*
X116549915Y-160733968D01*
X116549919Y-160733966D01*
X116694666Y-160589219D01*
X116694668Y-160589215D01*
X116694671Y-160589213D01*
X116747432Y-160516590D01*
X116814987Y-160423610D01*
X116907920Y-160241219D01*
X116971177Y-160046534D01*
X117003200Y-159844352D01*
X117003200Y-159639648D01*
X121936200Y-159639648D01*
X121936200Y-159844351D01*
X121968222Y-160046534D01*
X122031481Y-160241223D01*
X122124415Y-160423613D01*
X122244728Y-160589213D01*
X122389486Y-160733971D01*
X122544449Y-160846556D01*
X122555090Y-160854287D01*
X122671307Y-160913503D01*
X122737476Y-160947218D01*
X122737478Y-160947218D01*
X122737481Y-160947220D01*
X122841837Y-160981127D01*
X122932165Y-161010477D01*
X123033257Y-161026488D01*
X123134348Y-161042500D01*
X123134349Y-161042500D01*
X123339051Y-161042500D01*
X123339052Y-161042500D01*
X123541234Y-161010477D01*
X123735919Y-160947220D01*
X123918310Y-160854287D01*
X124011290Y-160786732D01*
X124083913Y-160733971D01*
X124083915Y-160733968D01*
X124083919Y-160733966D01*
X124228666Y-160589219D01*
X124228668Y-160589215D01*
X124228671Y-160589213D01*
X124281432Y-160516590D01*
X124348987Y-160423610D01*
X124441920Y-160241219D01*
X124505177Y-160046534D01*
X124537200Y-159844352D01*
X124537200Y-159639648D01*
X124505177Y-159437466D01*
X124505176Y-159437462D01*
X124505176Y-159437461D01*
X124445565Y-159254000D01*
X124441920Y-159242781D01*
X124348987Y-159060390D01*
X124341256Y-159049749D01*
X124228671Y-158894786D01*
X124083913Y-158750028D01*
X123918313Y-158629715D01*
X123918312Y-158629714D01*
X123918310Y-158629713D01*
X123861353Y-158600691D01*
X123735923Y-158536781D01*
X123541234Y-158473522D01*
X123366695Y-158445878D01*
X123339052Y-158441500D01*
X123134348Y-158441500D01*
X123110029Y-158445351D01*
X122932165Y-158473522D01*
X122737476Y-158536781D01*
X122555086Y-158629715D01*
X122389486Y-158750028D01*
X122244728Y-158894786D01*
X122124415Y-159060386D01*
X122031481Y-159242776D01*
X121968222Y-159437465D01*
X121936200Y-159639648D01*
X117003200Y-159639648D01*
X116981592Y-159503223D01*
X116971177Y-159437465D01*
X116911565Y-159254000D01*
X116907920Y-159242781D01*
X116907918Y-159242778D01*
X116907918Y-159242776D01*
X116874203Y-159176607D01*
X116814987Y-159060390D01*
X116807256Y-159049749D01*
X116694671Y-158894786D01*
X116549913Y-158750028D01*
X116384313Y-158629715D01*
X116384312Y-158629714D01*
X116384310Y-158629713D01*
X116327353Y-158600691D01*
X116201923Y-158536781D01*
X116007234Y-158473522D01*
X115832695Y-158445878D01*
X115805052Y-158441500D01*
X115600348Y-158441500D01*
X115576029Y-158445351D01*
X115398165Y-158473522D01*
X115203476Y-158536781D01*
X115021086Y-158629715D01*
X114855486Y-158750028D01*
X114710728Y-158894786D01*
X114590415Y-159060386D01*
X114497481Y-159242776D01*
X114434222Y-159437465D01*
X114402200Y-159639648D01*
X113792000Y-159639648D01*
X113792000Y-151711041D01*
X115526700Y-151711041D01*
X115526700Y-151917758D01*
X115559038Y-152121933D01*
X115559038Y-152121936D01*
X115622915Y-152318529D01*
X115622917Y-152318532D01*
X115716765Y-152502719D01*
X115838271Y-152669958D01*
X115984442Y-152816129D01*
X116151681Y-152937635D01*
X116335868Y-153031483D01*
X116335870Y-153031484D01*
X116532464Y-153095361D01*
X116532465Y-153095361D01*
X116532468Y-153095362D01*
X116736641Y-153127700D01*
X116736642Y-153127700D01*
X116943358Y-153127700D01*
X116943359Y-153127700D01*
X117147532Y-153095362D01*
X117147535Y-153095361D01*
X117147536Y-153095361D01*
X117344129Y-153031484D01*
X117344129Y-153031483D01*
X117344132Y-153031483D01*
X117528319Y-152937635D01*
X117695558Y-152816129D01*
X117841729Y-152669958D01*
X117963235Y-152502719D01*
X118057083Y-152318532D01*
X118066772Y-152288711D01*
X118120961Y-152121936D01*
X118120961Y-152121935D01*
X118120962Y-152121932D01*
X118153300Y-151917759D01*
X118153300Y-151711041D01*
X118120962Y-151506868D01*
X118120961Y-151506864D01*
X118120961Y-151506863D01*
X118057084Y-151310270D01*
X117963234Y-151126080D01*
X117929367Y-151079466D01*
X117841729Y-150958842D01*
X117836622Y-150953735D01*
X120606700Y-150953735D01*
X120606700Y-152675070D01*
X120606701Y-152675076D01*
X120613108Y-152734683D01*
X120663402Y-152869528D01*
X120663406Y-152869535D01*
X120749652Y-152984744D01*
X120749655Y-152984747D01*
X120864864Y-153070993D01*
X120864871Y-153070997D01*
X120999717Y-153121291D01*
X120999716Y-153121291D01*
X121006644Y-153122035D01*
X121059327Y-153127700D01*
X122780672Y-153127699D01*
X122840283Y-153121291D01*
X122975131Y-153070996D01*
X123090346Y-152984746D01*
X123176596Y-152869531D01*
X123226891Y-152734683D01*
X123233300Y-152675073D01*
X123233299Y-151684539D01*
X123252983Y-151617501D01*
X123269618Y-151596859D01*
X123517570Y-151348908D01*
X123794988Y-151071490D01*
X123847376Y-150993086D01*
X123882594Y-150940379D01*
X123936613Y-150809965D01*
X123942937Y-150794698D01*
X123973700Y-150640043D01*
X123973700Y-150482358D01*
X123973700Y-149449033D01*
X123993385Y-149381994D01*
X124017162Y-149354748D01*
X124020412Y-149351971D01*
X124020419Y-149351966D01*
X124165166Y-149207219D01*
X124165168Y-149207215D01*
X124165171Y-149207213D01*
X124224650Y-149125346D01*
X124285487Y-149041610D01*
X124378420Y-148859219D01*
X124441677Y-148664534D01*
X124473700Y-148462352D01*
X124473700Y-148257648D01*
X124459771Y-148169703D01*
X124441677Y-148055465D01*
X124391380Y-147900669D01*
X124378420Y-147860781D01*
X124378418Y-147860778D01*
X124378418Y-147860776D01*
X124344703Y-147794607D01*
X124285487Y-147678390D01*
X124277756Y-147667749D01*
X124165171Y-147512786D01*
X124020413Y-147368028D01*
X123854813Y-147247715D01*
X123854812Y-147247714D01*
X123854810Y-147247713D01*
X123797853Y-147218691D01*
X123672423Y-147154781D01*
X123477734Y-147091522D01*
X123289890Y-147061771D01*
X123275552Y-147059500D01*
X123070848Y-147059500D01*
X123056510Y-147061771D01*
X122868665Y-147091522D01*
X122673976Y-147154781D01*
X122491586Y-147247715D01*
X122325986Y-147368028D01*
X122181228Y-147512786D01*
X122060915Y-147678386D01*
X121967981Y-147860776D01*
X121904722Y-148055465D01*
X121872700Y-148257648D01*
X121872700Y-148462351D01*
X121904722Y-148664534D01*
X121967981Y-148859223D01*
X122060915Y-149041613D01*
X122181228Y-149207213D01*
X122325979Y-149351964D01*
X122329238Y-149354748D01*
X122367427Y-149413258D01*
X122372700Y-149449033D01*
X122372700Y-150178259D01*
X122353015Y-150245298D01*
X122336381Y-150265940D01*
X122137540Y-150464781D01*
X122076217Y-150498266D01*
X122049859Y-150501100D01*
X121059329Y-150501100D01*
X121059323Y-150501101D01*
X120999716Y-150507508D01*
X120864871Y-150557802D01*
X120864864Y-150557806D01*
X120749655Y-150644052D01*
X120749652Y-150644055D01*
X120663406Y-150759264D01*
X120663402Y-150759271D01*
X120613108Y-150894117D01*
X120606701Y-150953716D01*
X120606700Y-150953735D01*
X117836622Y-150953735D01*
X117695558Y-150812671D01*
X117528319Y-150691165D01*
X117507519Y-150680567D01*
X117344129Y-150597315D01*
X117147535Y-150533438D01*
X116994402Y-150509184D01*
X116943359Y-150501100D01*
X116736641Y-150501100D01*
X116668583Y-150511879D01*
X116532466Y-150533438D01*
X116532463Y-150533438D01*
X116335870Y-150597315D01*
X116151680Y-150691165D01*
X115984439Y-150812673D01*
X115838273Y-150958839D01*
X115716765Y-151126080D01*
X115622915Y-151310270D01*
X115559038Y-151506863D01*
X115559038Y-151506866D01*
X115526700Y-151711041D01*
X113792000Y-151711041D01*
X113792000Y-148249440D01*
X113811685Y-148182401D01*
X113828319Y-148161759D01*
X113966057Y-148024021D01*
X114215409Y-147774668D01*
X114276730Y-147741185D01*
X114346421Y-147746169D01*
X114402355Y-147788040D01*
X114426772Y-147853505D01*
X114421019Y-147900669D01*
X114370723Y-148055461D01*
X114370723Y-148055464D01*
X114338700Y-148257648D01*
X114338700Y-148462351D01*
X114370722Y-148664534D01*
X114433981Y-148859223D01*
X114526915Y-149041613D01*
X114647228Y-149207213D01*
X114791986Y-149351971D01*
X114925583Y-149449033D01*
X114957590Y-149472287D01*
X115073807Y-149531503D01*
X115139976Y-149565218D01*
X115139978Y-149565218D01*
X115139981Y-149565220D01*
X115244337Y-149599127D01*
X115334665Y-149628477D01*
X115435757Y-149644488D01*
X115536848Y-149660500D01*
X115536849Y-149660500D01*
X115741551Y-149660500D01*
X115741552Y-149660500D01*
X115943734Y-149628477D01*
X116138419Y-149565220D01*
X116320810Y-149472287D01*
X116445089Y-149381994D01*
X116486413Y-149351971D01*
X116486415Y-149351968D01*
X116486419Y-149351966D01*
X116631166Y-149207219D01*
X116631168Y-149207215D01*
X116631171Y-149207213D01*
X116690650Y-149125346D01*
X116751487Y-149041610D01*
X116844420Y-148859219D01*
X116907677Y-148664534D01*
X116931125Y-148516483D01*
X116961054Y-148453350D01*
X116965899Y-148448219D01*
X119581801Y-145832318D01*
X119643124Y-145798834D01*
X119669482Y-145796000D01*
X125211900Y-145796000D01*
X125278939Y-145815685D01*
G37*
G04 #@! TD.AperFunction*
M02*
