G04 #@! TF.GenerationSoftware,KiCad,Pcbnew,9.0.7*
G04 #@! TF.CreationDate,2026-01-29T20:13:48+09:00*
G04 #@! TF.ProjectId,ESP32-ROS-IO-V5.0.a,45535033-322d-4524-9f53-2d494f2d5635,rev?*
G04 #@! TF.SameCoordinates,Original*
G04 #@! TF.FileFunction,Copper,L2,Bot*
G04 #@! TF.FilePolarity,Positive*
%FSLAX46Y46*%
G04 Gerber Fmt 4.6, Leading zero omitted, Abs format (unit mm)*
G04 Created by KiCad (PCBNEW 9.0.7) date 2026-01-29 20:13:48*
%MOMM*%
%LPD*%
G01*
G04 APERTURE LIST*
G04 Aperture macros list*
%AMRoundRect*
0 Rectangle with rounded corners*
0 $1 Rounding radius*
0 $2 $3 $4 $5 $6 $7 $8 $9 X,Y pos of 4 corners*
0 Add a 4 corners polygon primitive as box body*
4,1,4,$2,$3,$4,$5,$6,$7,$8,$9,$2,$3,0*
0 Add four circle primitives for the rounded corners*
1,1,$1+$1,$2,$3*
1,1,$1+$1,$4,$5*
1,1,$1+$1,$6,$7*
1,1,$1+$1,$8,$9*
0 Add four rect primitives between the rounded corners*
20,1,$1+$1,$2,$3,$4,$5,0*
20,1,$1+$1,$4,$5,$6,$7,0*
20,1,$1+$1,$6,$7,$8,$9,0*
20,1,$1+$1,$8,$9,$2,$3,0*%
G04 Aperture macros list end*
G04 #@! TA.AperFunction,ComponentPad*
%ADD10RoundRect,0.250000X-0.600000X-0.750000X0.600000X-0.750000X0.600000X0.750000X-0.600000X0.750000X0*%
G04 #@! TD*
G04 #@! TA.AperFunction,ComponentPad*
%ADD11O,1.700000X2.000000*%
G04 #@! TD*
G04 #@! TA.AperFunction,ComponentPad*
%ADD12RoundRect,0.250000X-0.600000X-0.725000X0.600000X-0.725000X0.600000X0.725000X-0.600000X0.725000X0*%
G04 #@! TD*
G04 #@! TA.AperFunction,ComponentPad*
%ADD13O,1.700000X1.950000*%
G04 #@! TD*
G04 #@! TA.AperFunction,ComponentPad*
%ADD14R,1.700000X1.700000*%
G04 #@! TD*
G04 #@! TA.AperFunction,ComponentPad*
%ADD15C,1.700000*%
G04 #@! TD*
G04 #@! TA.AperFunction,ComponentPad*
%ADD16R,1.800000X1.800000*%
G04 #@! TD*
G04 #@! TA.AperFunction,ComponentPad*
%ADD17C,1.800000*%
G04 #@! TD*
G04 #@! TA.AperFunction,ComponentPad*
%ADD18C,6.000000*%
G04 #@! TD*
G04 #@! TA.AperFunction,ComponentPad*
%ADD19R,6.000000X6.000000*%
G04 #@! TD*
G04 #@! TA.AperFunction,ComponentPad*
%ADD20C,1.600000*%
G04 #@! TD*
G04 #@! TA.AperFunction,ComponentPad*
%ADD21RoundRect,0.250000X-0.550000X-0.550000X0.550000X-0.550000X0.550000X0.550000X-0.550000X0.550000X0*%
G04 #@! TD*
G04 #@! TA.AperFunction,ViaPad*
%ADD22C,0.600000*%
G04 #@! TD*
G04 #@! TA.AperFunction,Conductor*
%ADD23C,0.200000*%
G04 #@! TD*
G04 #@! TA.AperFunction,Conductor*
%ADD24C,2.000000*%
G04 #@! TD*
G04 #@! TA.AperFunction,Conductor*
%ADD25C,4.000000*%
G04 #@! TD*
G04 APERTURE END LIST*
D10*
X151845000Y-26606000D03*
D11*
X154345000Y-26606000D03*
D12*
X153917000Y-52705000D03*
D13*
X156417000Y-52705000D03*
X158917000Y-52705000D03*
X161417000Y-52705000D03*
D12*
X125008000Y-52705000D03*
D13*
X127508000Y-52705000D03*
X130008000Y-52705000D03*
X132508000Y-52705000D03*
D12*
X161557000Y-18427200D03*
D13*
X164057000Y-18427200D03*
X166557000Y-18427200D03*
D10*
X142808000Y-42912800D03*
D11*
X145308000Y-42912800D03*
D10*
X124500000Y-26606000D03*
D11*
X127000000Y-26606000D03*
D14*
X127635000Y-65532000D03*
D15*
X127635000Y-68072000D03*
X127635000Y-70612000D03*
X127635000Y-73152000D03*
X127635000Y-75692000D03*
X127635000Y-78232000D03*
X127635000Y-80772000D03*
X127635000Y-83312000D03*
X127635000Y-85852000D03*
X127635000Y-88392000D03*
X127635000Y-90932000D03*
X127635000Y-93472000D03*
X127635000Y-96012000D03*
X127635000Y-98552000D03*
X127635000Y-101092000D03*
X127635000Y-103632000D03*
X127635000Y-106172000D03*
X127635000Y-108712000D03*
X127635000Y-111252000D03*
D10*
X115102000Y-42989000D03*
D11*
X117602000Y-42989000D03*
D14*
X173224000Y-40132000D03*
D15*
X173224000Y-42672000D03*
D14*
X160655000Y-65532000D03*
D15*
X160655000Y-68072000D03*
X160655000Y-70612000D03*
X160655000Y-73152000D03*
X160655000Y-75692000D03*
X160655000Y-78232000D03*
X160655000Y-80772000D03*
X160655000Y-83312000D03*
X160655000Y-85852000D03*
X160655000Y-88392000D03*
X160655000Y-90932000D03*
X160655000Y-93472000D03*
X160655000Y-96012000D03*
X160655000Y-98552000D03*
X160655000Y-101092000D03*
X160655000Y-103632000D03*
X160655000Y-106172000D03*
X160655000Y-108712000D03*
X160655000Y-111252000D03*
D14*
X178304000Y-40132000D03*
D15*
X178304000Y-42672000D03*
D10*
X133517000Y-18478000D03*
D11*
X136017000Y-18478000D03*
D16*
X116840000Y-93980000D03*
D17*
X119380000Y-93980000D03*
D14*
X131445000Y-65532000D03*
D15*
X131445000Y-68072000D03*
X131445000Y-70612000D03*
X131445000Y-73152000D03*
X131445000Y-75692000D03*
X131445000Y-78232000D03*
X131445000Y-80772000D03*
X131445000Y-83312000D03*
X131445000Y-85852000D03*
X131445000Y-88392000D03*
X131445000Y-90932000D03*
X131445000Y-93472000D03*
X131445000Y-96012000D03*
X131445000Y-98552000D03*
X131445000Y-101092000D03*
X131445000Y-103632000D03*
X131445000Y-106172000D03*
X131445000Y-108712000D03*
X131445000Y-111252000D03*
D14*
X156845000Y-65532000D03*
D15*
X156845000Y-68072000D03*
X156845000Y-70612000D03*
X156845000Y-73152000D03*
X156845000Y-75692000D03*
X156845000Y-78232000D03*
X156845000Y-80772000D03*
X156845000Y-83312000D03*
X156845000Y-85852000D03*
X156845000Y-88392000D03*
X156845000Y-90932000D03*
X156845000Y-93472000D03*
X156845000Y-96012000D03*
X156845000Y-98552000D03*
X156845000Y-101092000D03*
X156845000Y-103632000D03*
X156845000Y-106172000D03*
X156845000Y-108712000D03*
X156845000Y-111252000D03*
D10*
X106125000Y-26733000D03*
D11*
X108625000Y-26733000D03*
D10*
X115102000Y-18535000D03*
D11*
X117602000Y-18535000D03*
D18*
X182666000Y-21590000D03*
D19*
X175466000Y-21590000D03*
D18*
X182622000Y-33782000D03*
D19*
X175422000Y-33782000D03*
D10*
X124500000Y-42912800D03*
D11*
X127000000Y-42912800D03*
D10*
X106125000Y-18542000D03*
D11*
X108625000Y-18542000D03*
D10*
X133517000Y-26589000D03*
D11*
X136017000Y-26589000D03*
D20*
X120880000Y-86360000D03*
X120880000Y-76200000D03*
D12*
X110610000Y-52705000D03*
D13*
X113110000Y-52705000D03*
X115610000Y-52705000D03*
X118110000Y-52705000D03*
D10*
X142808000Y-18478000D03*
D11*
X145308000Y-18478000D03*
D10*
X142808000Y-26606000D03*
D11*
X145308000Y-26606000D03*
D10*
X106125000Y-42989000D03*
D11*
X108625000Y-42989000D03*
D14*
X182368000Y-47904400D03*
D15*
X179828000Y-47904400D03*
X177288000Y-47904400D03*
X174748000Y-47904400D03*
D10*
X133517000Y-34734000D03*
D11*
X136017000Y-34734000D03*
D12*
X161557000Y-42862000D03*
D13*
X164057000Y-42862000D03*
X166557000Y-42862000D03*
D14*
X96012000Y-84632800D03*
D15*
X96012000Y-87172800D03*
X96012000Y-89712800D03*
X96012000Y-92252800D03*
X96012000Y-94792800D03*
X96012000Y-97332800D03*
X96012000Y-99872800D03*
X96012000Y-102412800D03*
X96012000Y-104952800D03*
X96012000Y-107492800D03*
X96012000Y-110032800D03*
D14*
X183642000Y-86233000D03*
D15*
X183642000Y-83693000D03*
X183642000Y-81153000D03*
X183642000Y-78613000D03*
X183642000Y-76073000D03*
X183642000Y-73533000D03*
X183642000Y-70993000D03*
X183642000Y-68453000D03*
X183642000Y-65913000D03*
X183642000Y-63373000D03*
X183642000Y-60833000D03*
D12*
X139439000Y-52705000D03*
D13*
X141939000Y-52705000D03*
X144439000Y-52705000D03*
X146939000Y-52705000D03*
D10*
X115102000Y-26733000D03*
D11*
X117602000Y-26733000D03*
D14*
X183402000Y-40132000D03*
D15*
X183402000Y-42672000D03*
D10*
X142808000Y-34734000D03*
D11*
X145308000Y-34734000D03*
D21*
X166375000Y-85090000D03*
D20*
X166375000Y-87630000D03*
X166375000Y-90170000D03*
X166375000Y-92710000D03*
X166375000Y-95250000D03*
X166375000Y-97790000D03*
X166375000Y-100330000D03*
X166375000Y-102870000D03*
X173995000Y-102870000D03*
X173995000Y-100330000D03*
X173995000Y-97790000D03*
X173995000Y-95250000D03*
X173995000Y-92710000D03*
X173995000Y-90170000D03*
X173995000Y-87630000D03*
X173995000Y-85090000D03*
D12*
X161557000Y-26555200D03*
D13*
X164057000Y-26555200D03*
X166557000Y-26555200D03*
D12*
X161557000Y-34683200D03*
D13*
X164057000Y-34683200D03*
X166557000Y-34683200D03*
D10*
X124500000Y-34734000D03*
D11*
X127000000Y-34734000D03*
D10*
X151845000Y-34734000D03*
D11*
X154345000Y-34734000D03*
D10*
X106125000Y-34861000D03*
D11*
X108625000Y-34861000D03*
D10*
X151845000Y-18478000D03*
D11*
X154345000Y-18478000D03*
D10*
X151845000Y-42862000D03*
D11*
X154345000Y-42862000D03*
D20*
X116830000Y-86360000D03*
X116830000Y-76200000D03*
D10*
X124500000Y-18478000D03*
D11*
X127000000Y-18478000D03*
D21*
X114305000Y-101600000D03*
D20*
X114305000Y-104140000D03*
X114305000Y-106680000D03*
X114305000Y-109220000D03*
X121925000Y-109220000D03*
X121925000Y-106680000D03*
X121925000Y-104140000D03*
X121925000Y-101600000D03*
D10*
X115102000Y-34861000D03*
D11*
X117602000Y-34861000D03*
D22*
X135511100Y-57732500D03*
X173892400Y-61738900D03*
X134446700Y-97722200D03*
X135627100Y-90817800D03*
X125544600Y-74314100D03*
X175750700Y-79893900D03*
X171846200Y-61819900D03*
X123570200Y-57667900D03*
X171600000Y-66456000D03*
X124961800Y-61355600D03*
X125912600Y-60568500D03*
X172067000Y-63312500D03*
X176852800Y-44226300D03*
X173221000Y-44373500D03*
X140784700Y-89058700D03*
X152868600Y-77261200D03*
X117894000Y-104752800D03*
X139136600Y-62524100D03*
X170945300Y-106704300D03*
X142881400Y-48946200D03*
X135210300Y-50713400D03*
X162541300Y-80376500D03*
X159415200Y-45994400D03*
X134458000Y-46437900D03*
X129450400Y-63655500D03*
X158725000Y-57518300D03*
X160116900Y-56631500D03*
X97940700Y-104334300D03*
X158525000Y-56631500D03*
X158543600Y-51095400D03*
X138639200Y-48957500D03*
D23*
X176352400Y-97972600D02*
X173995000Y-100330000D01*
X176352400Y-76885600D02*
X176352400Y-97972600D01*
X173892400Y-74425600D02*
X176352400Y-76885600D01*
X173892400Y-61738900D02*
X173892400Y-74425600D01*
X133517000Y-36332600D02*
X133517000Y-34734000D01*
X135812000Y-38627600D02*
X133517000Y-36332600D01*
X135812000Y-57431600D02*
X135812000Y-38627600D01*
X135511100Y-57732500D02*
X135812000Y-57431600D01*
X131356300Y-28749700D02*
X133517000Y-26589000D01*
X131356300Y-61224900D02*
X131356300Y-28749700D01*
X130241000Y-62340200D02*
X131356300Y-61224900D01*
X130241000Y-96441300D02*
X130241000Y-62340200D01*
X131081700Y-97282000D02*
X130241000Y-96441300D01*
X134006500Y-97282000D02*
X131081700Y-97282000D01*
X134446700Y-97722200D02*
X134006500Y-97282000D01*
X134862700Y-19823700D02*
X133517000Y-18478000D01*
X134862700Y-36701000D02*
X134862700Y-19823700D01*
X136213700Y-38052000D02*
X134862700Y-36701000D01*
X136213700Y-48898500D02*
X136213700Y-38052000D01*
X136380000Y-49064800D02*
X136213700Y-48898500D01*
X136380000Y-49064800D02*
X136213700Y-48898500D01*
X136380000Y-90064900D02*
X136380000Y-49064800D01*
X135627100Y-90817800D02*
X136380000Y-90064900D01*
X175750700Y-90954300D02*
X173995000Y-92710000D01*
X175750700Y-79893900D02*
X175750700Y-90954300D01*
X125544600Y-63464000D02*
X125544600Y-74314100D01*
X125611900Y-63396700D02*
X125544600Y-63464000D01*
X125611900Y-61118600D02*
X125611900Y-63396700D01*
X125210300Y-60717000D02*
X125611900Y-61118600D01*
X125210300Y-56408100D02*
X125210300Y-60717000D01*
X123401300Y-54599100D02*
X125210300Y-56408100D01*
X123401300Y-44011500D02*
X123401300Y-54599100D01*
X124500000Y-42912800D02*
X123401300Y-44011500D01*
X170978200Y-62687900D02*
X171846200Y-61819900D01*
X170978200Y-67541000D02*
X170978200Y-62687900D01*
X171748400Y-68311200D02*
X170978200Y-67541000D01*
X171748400Y-78868100D02*
X171748400Y-68311200D01*
X172148600Y-79268300D02*
X171748400Y-78868100D01*
X172148600Y-88323600D02*
X172148600Y-79268300D01*
X173995000Y-90170000D02*
X172148600Y-88323600D01*
X123337400Y-57435100D02*
X123570200Y-57667900D01*
X123337400Y-55103300D02*
X123337400Y-57435100D01*
X123235000Y-55000900D02*
X123337400Y-55103300D01*
X123235000Y-55000900D02*
X123337400Y-55103300D01*
X122999600Y-54765500D02*
X123235000Y-55000900D01*
X122999600Y-36234400D02*
X122999600Y-54765500D01*
X124500000Y-34734000D02*
X122999600Y-36234400D01*
X172550300Y-78901800D02*
X172314900Y-78666400D01*
X172550300Y-86185300D02*
X172550300Y-78901800D01*
X173995000Y-87630000D02*
X172550300Y-86185300D01*
X172314900Y-78666400D02*
X172150100Y-78501600D01*
X172314900Y-78666400D02*
X172150100Y-78501600D01*
X172150100Y-67006100D02*
X171600000Y-66456000D01*
X172150100Y-78501600D02*
X172150100Y-67006100D01*
X123337400Y-59731200D02*
X124961800Y-61355600D01*
X123337400Y-58285800D02*
X123337400Y-59731200D01*
X123337300Y-58285800D02*
X123337400Y-58285800D01*
X122935700Y-57884200D02*
X123337300Y-58285800D01*
X122935700Y-55269600D02*
X122935700Y-57884200D01*
X122833300Y-55167200D02*
X122935700Y-55269600D01*
X122833300Y-55167200D02*
X122935700Y-55269600D01*
X122597900Y-54931800D02*
X122833300Y-55167200D01*
X122597900Y-28508100D02*
X122597900Y-54931800D01*
X124500000Y-26606000D02*
X122597900Y-28508100D01*
X125677500Y-19655500D02*
X124500000Y-18478000D01*
X125677500Y-49929000D02*
X125677500Y-19655500D01*
X123853000Y-51753500D02*
X125677500Y-49929000D01*
X123853000Y-54229000D02*
X123853000Y-51753500D01*
X125912600Y-56288600D02*
X123853000Y-54229000D01*
X125912600Y-60568500D02*
X125912600Y-56288600D01*
X173995000Y-78986900D02*
X173995000Y-85090000D01*
X172950500Y-77942400D02*
X173995000Y-78986900D01*
X172950500Y-64196000D02*
X172950500Y-77942400D01*
X172067000Y-63312500D02*
X172950500Y-64196000D01*
X127000000Y-18478000D02*
X127000000Y-26606000D01*
X127000000Y-42912800D02*
X127000000Y-34734000D01*
X127000000Y-34734000D02*
X127000000Y-26606000D01*
X136017000Y-18478000D02*
X136017000Y-26589000D01*
X175422000Y-33782000D02*
X175422000Y-37083700D01*
X136017000Y-26589000D02*
X136017000Y-34734000D01*
X176136200Y-37797900D02*
X175422000Y-37083700D01*
X176136200Y-37798000D02*
X176136200Y-37797900D01*
X178096700Y-37798000D02*
X176136200Y-37798000D01*
X179455700Y-39157000D02*
X178096700Y-37798000D01*
X179455700Y-43149100D02*
X179455700Y-39157000D01*
X178378500Y-44226300D02*
X179455700Y-43149100D01*
X176852800Y-44226300D02*
X178378500Y-44226300D01*
X176106400Y-44972700D02*
X176852800Y-44226300D01*
X176106400Y-76036300D02*
X176106400Y-44972700D01*
X176754100Y-76684000D02*
X176106400Y-76036300D01*
X176754100Y-100110900D02*
X176754100Y-76684000D01*
X173995000Y-102870000D02*
X176754100Y-100110900D01*
X169006100Y-95158900D02*
X166375000Y-97790000D01*
X169006100Y-57128000D02*
X169006100Y-95158900D01*
X172209000Y-53925100D02*
X169006100Y-57128000D01*
X172209000Y-45385500D02*
X172209000Y-53925100D01*
X173221000Y-44373500D02*
X172209000Y-45385500D01*
X173224000Y-40132000D02*
X173224000Y-41283700D01*
X170476500Y-96228500D02*
X166375000Y-100330000D01*
X170476500Y-68416500D02*
X170476500Y-96228500D01*
X170310200Y-68250200D02*
X170476500Y-68416500D01*
X170310200Y-68250200D02*
X170476500Y-68416500D01*
X170074800Y-68014800D02*
X170310200Y-68250200D01*
X170074800Y-56827500D02*
X170074800Y-68014800D01*
X172635500Y-54266800D02*
X170074800Y-56827500D01*
X172635500Y-45809900D02*
X172635500Y-54266800D01*
X174375700Y-44069700D02*
X172635500Y-45809900D01*
X174375700Y-42147400D02*
X174375700Y-44069700D01*
X173512000Y-41283700D02*
X174375700Y-42147400D01*
X173224000Y-41283700D02*
X173512000Y-41283700D01*
X143960700Y-19630700D02*
X142808000Y-18478000D01*
X143960700Y-48729100D02*
X143960700Y-19630700D01*
X140784700Y-51905100D02*
X143960700Y-48729100D01*
X140784700Y-89058700D02*
X140784700Y-51905100D01*
X152868600Y-94575600D02*
X156845000Y-98552000D01*
X152868600Y-77261200D02*
X152868600Y-94575600D01*
X114305000Y-108341800D02*
X117894000Y-104752800D01*
X114305000Y-109220000D02*
X114305000Y-108341800D01*
X137802100Y-89654900D02*
X131445000Y-96012000D01*
X137802100Y-50697900D02*
X137802100Y-89654900D01*
X137979600Y-50520400D02*
X137802100Y-50697900D01*
X137979600Y-49716700D02*
X137979600Y-50520400D01*
X137635800Y-49372900D02*
X137979600Y-49716700D01*
X137635800Y-31778200D02*
X137635800Y-49372900D01*
X142808000Y-26606000D02*
X137635800Y-31778200D01*
X138570900Y-62525700D02*
X139135000Y-62525700D01*
X138223800Y-62178600D02*
X138570900Y-62525700D01*
X138223800Y-50844200D02*
X138223800Y-62178600D01*
X138381300Y-50686700D02*
X138223800Y-50844200D01*
X138381300Y-49550400D02*
X138381300Y-50686700D01*
X138037500Y-49206600D02*
X138381300Y-49550400D01*
X138037500Y-39504500D02*
X138037500Y-49206600D01*
X142808000Y-34734000D02*
X138037500Y-39504500D01*
X139135000Y-62525700D02*
X139135000Y-62524100D01*
X139135000Y-62524100D02*
X139136600Y-62524100D01*
X139136600Y-62524100D02*
X139135000Y-62524100D01*
X139135000Y-62524100D02*
X139136600Y-62524100D01*
X138570900Y-94448900D02*
X138570900Y-62525700D01*
X131927800Y-101092000D02*
X138570900Y-94448900D01*
X131445000Y-101092000D02*
X131927800Y-101092000D01*
X171467500Y-92053200D02*
X171632300Y-92218000D01*
X171467500Y-92053200D02*
X171632300Y-92218000D01*
X171632300Y-106017300D02*
X170945300Y-106704300D01*
X171632300Y-92218000D02*
X171632300Y-106017300D01*
X170878200Y-91463900D02*
X171467500Y-92053200D01*
X170878200Y-68250100D02*
X170878200Y-91463900D01*
X170526700Y-67898600D02*
X170878200Y-68250100D01*
X170526700Y-62288600D02*
X170526700Y-67898600D01*
X174748000Y-58067300D02*
X170526700Y-62288600D01*
X174748000Y-47904400D02*
X174748000Y-58067300D01*
X184852100Y-74862900D02*
X183642000Y-76073000D01*
X184852100Y-51540200D02*
X184852100Y-74862900D01*
X182368000Y-49056100D02*
X184852100Y-51540200D01*
X182368000Y-47904400D02*
X182368000Y-49056100D01*
X142881300Y-48946200D02*
X142881400Y-48946200D01*
X142881300Y-42986100D02*
X142881300Y-48946200D01*
X142808000Y-42912800D02*
X142881300Y-42986100D01*
X133928200Y-90988800D02*
X131445000Y-93472000D01*
X133928200Y-51995500D02*
X133928200Y-90988800D01*
X135210300Y-50713400D02*
X133928200Y-51995500D01*
X162541300Y-91416300D02*
X166375000Y-95250000D01*
X162541300Y-80376500D02*
X162541300Y-91416300D01*
X158917000Y-52705000D02*
X157765300Y-52705000D01*
X157765300Y-52299500D02*
X154974900Y-49509100D01*
X157765300Y-52705000D02*
X157765300Y-52299500D01*
X153190600Y-36079600D02*
X151845000Y-34734000D01*
X153190600Y-47724800D02*
X153190600Y-36079600D01*
X154974900Y-49509100D02*
X153190600Y-47724800D01*
X152764300Y-51719700D02*
X154974900Y-49509100D01*
X152764300Y-57296000D02*
X152764300Y-51719700D01*
X154851400Y-59383100D02*
X152764300Y-57296000D01*
X154851400Y-88938400D02*
X154851400Y-59383100D01*
X156845000Y-90932000D02*
X154851400Y-88938400D01*
X179828000Y-67179000D02*
X179828000Y-47904400D01*
X183642000Y-70993000D02*
X179828000Y-67179000D01*
X160265300Y-53856700D02*
X160265300Y-52705000D01*
X159503300Y-54618700D02*
X160265300Y-53856700D01*
X159503300Y-84700300D02*
X159503300Y-54618700D01*
X160655000Y-85852000D02*
X159503300Y-84700300D01*
X161417000Y-52705000D02*
X160265300Y-52705000D01*
X160265300Y-50795300D02*
X160265300Y-52705000D01*
X159415200Y-49945200D02*
X160265300Y-50795300D01*
X159415200Y-45994400D02*
X159415200Y-49945200D01*
X144439000Y-52705000D02*
X145590700Y-52705000D01*
X145590700Y-51551200D02*
X145590700Y-52705000D01*
X147198400Y-49943500D02*
X145590700Y-51551200D01*
X147198400Y-23124600D02*
X147198400Y-49943500D01*
X151845000Y-18478000D02*
X147198400Y-23124600D01*
X145590700Y-92377700D02*
X145590700Y-52705000D01*
X156845000Y-103632000D02*
X145590700Y-92377700D01*
X148090700Y-30360300D02*
X148090700Y-52705000D01*
X151845000Y-26606000D02*
X148090700Y-30360300D01*
X146939000Y-52705000D02*
X148090700Y-52705000D01*
X148090700Y-57565400D02*
X153881700Y-63356400D01*
X148090700Y-52705000D02*
X148090700Y-57565400D01*
X153881700Y-63356400D02*
X154048000Y-63522700D01*
X153881700Y-63356400D02*
X154048000Y-63522700D01*
X154048000Y-90675000D02*
X154048000Y-63522700D01*
X156845000Y-93472000D02*
X154048000Y-90675000D01*
X162983900Y-44288900D02*
X161557000Y-42862000D01*
X162983900Y-65743100D02*
X162983900Y-44288900D01*
X160655000Y-68072000D02*
X162983900Y-65743100D01*
X132508000Y-48387900D02*
X134458000Y-46437900D01*
X132508000Y-52705000D02*
X132508000Y-48387900D01*
X165232000Y-38358200D02*
X161557000Y-34683200D01*
X165232000Y-45637500D02*
X165232000Y-38358200D01*
X171024300Y-45637500D02*
X165232000Y-45637500D01*
X173224000Y-43437800D02*
X171024300Y-45637500D01*
X173224000Y-42672000D02*
X173224000Y-43437800D01*
X165232000Y-66035000D02*
X165232000Y-45637500D01*
X160655000Y-70612000D02*
X165232000Y-66035000D01*
X129450400Y-54539300D02*
X130008000Y-53981700D01*
X129450400Y-63655500D02*
X129450400Y-54539300D01*
X129450400Y-63655500D02*
X129450400Y-63813400D01*
X129450400Y-63813400D02*
X129450400Y-63655500D01*
X130008000Y-52705000D02*
X130008000Y-53981700D01*
X158725000Y-81432000D02*
X158725000Y-57518300D01*
X156845000Y-83312000D02*
X158725000Y-81432000D01*
X162582200Y-54166200D02*
X160116900Y-56631500D01*
X162582200Y-51440400D02*
X162582200Y-54166200D01*
X160366900Y-49225100D02*
X162582200Y-51440400D01*
X160366900Y-31734500D02*
X160366900Y-49225100D01*
X162709700Y-29391700D02*
X160366900Y-31734500D01*
X162709700Y-19579900D02*
X162709700Y-29391700D01*
X161557000Y-18427200D02*
X162709700Y-19579900D01*
D24*
X169608000Y-42862000D02*
X170053000Y-43307000D01*
X166557000Y-42862000D02*
X169608000Y-42862000D01*
D23*
X170041000Y-34683200D02*
X170053000Y-34671000D01*
D24*
X166557000Y-34683200D02*
X170041000Y-34683200D01*
D25*
X170053000Y-28067000D02*
X170053000Y-34671000D01*
D24*
X168541000Y-26555200D02*
X170053000Y-28067000D01*
X166557000Y-26555200D02*
X168541000Y-26555200D01*
D23*
X170041000Y-18427200D02*
X170053000Y-18415000D01*
D24*
X166557000Y-18427200D02*
X170041000Y-18427200D01*
D25*
X170053000Y-28067000D02*
X170053000Y-18415000D01*
X170053000Y-34671000D02*
X170053000Y-43307000D01*
D23*
X182666000Y-27646000D02*
X182626000Y-27686000D01*
D25*
X182666000Y-21590000D02*
X182666000Y-27646000D01*
D23*
X183354000Y-85081300D02*
X183642000Y-85081300D01*
X182490300Y-84217600D02*
X183354000Y-85081300D01*
X182490300Y-82304700D02*
X182490300Y-84217600D01*
X183642000Y-81153000D02*
X182490300Y-82304700D01*
X183642000Y-86233000D02*
X183642000Y-85081300D01*
X154345000Y-26606000D02*
X154345000Y-34734000D01*
X182622000Y-28063000D02*
X182622000Y-33782000D01*
X182435500Y-27876500D02*
X182622000Y-28063000D01*
D25*
X182626000Y-27686000D02*
X182435500Y-27876500D01*
X182245000Y-28067000D02*
X170053000Y-28067000D01*
X182435500Y-27876500D02*
X182245000Y-28067000D01*
D23*
X156417000Y-52705000D02*
X155265300Y-52705000D01*
X145308000Y-18478000D02*
X145308000Y-26606000D01*
X154345000Y-18478000D02*
X154345000Y-26606000D01*
X95724000Y-85784500D02*
X96012000Y-85784500D01*
X94860300Y-86648200D02*
X95724000Y-85784500D01*
X94860300Y-88561100D02*
X94860300Y-86648200D01*
X96012000Y-89712800D02*
X94860300Y-88561100D01*
X96012000Y-84632800D02*
X96012000Y-85784500D01*
X145308000Y-34734000D02*
X145308000Y-26606000D01*
X97940700Y-91641500D02*
X97940700Y-104334300D01*
X96012000Y-89712800D02*
X97940700Y-91641500D01*
X156585000Y-66683700D02*
X156845000Y-66683700D01*
X155686800Y-67581900D02*
X156585000Y-66683700D01*
X155686800Y-79613800D02*
X155686800Y-67581900D01*
X156845000Y-80772000D02*
X155686800Y-79613800D01*
X154345000Y-34734000D02*
X154345000Y-42862000D01*
X156845000Y-66107800D02*
X156845000Y-66683700D01*
X156845000Y-66107800D02*
X156845000Y-65532000D01*
X155265300Y-62800600D02*
X155265300Y-52705000D01*
X156845000Y-64380300D02*
X155265300Y-62800600D01*
X156845000Y-65532000D02*
X156845000Y-64380300D01*
X180853000Y-35551000D02*
X182622000Y-33782000D01*
X180853000Y-44339400D02*
X180853000Y-35551000D01*
X177288000Y-47904400D02*
X180853000Y-44339400D01*
X145308000Y-42912800D02*
X145308000Y-34734000D01*
X145308000Y-49336000D02*
X145308000Y-42912800D01*
X143090700Y-51553300D02*
X145308000Y-49336000D01*
X143090700Y-52705000D02*
X143090700Y-51553300D01*
X141939000Y-52705000D02*
X143090700Y-52705000D01*
X162044800Y-82161800D02*
X160655000Y-80772000D01*
X162044800Y-98539800D02*
X162044800Y-82161800D01*
X166375000Y-102870000D02*
X162044800Y-98539800D01*
X124973000Y-98552000D02*
X121925000Y-101600000D01*
X126466800Y-98552000D02*
X124973000Y-98552000D01*
X127635000Y-98552000D02*
X126466800Y-98552000D01*
X127508000Y-63532300D02*
X127508000Y-52705000D01*
X126466800Y-64573500D02*
X127508000Y-63532300D01*
X126466800Y-73817400D02*
X126466800Y-64573500D01*
X126548000Y-73898600D02*
X126466800Y-73817400D01*
X126548000Y-74729600D02*
X126548000Y-73898600D01*
X126466800Y-74810800D02*
X126548000Y-74729600D01*
X126466800Y-98552000D02*
X126466800Y-74810800D01*
X158123300Y-76953700D02*
X156845000Y-78232000D01*
X158123300Y-57033200D02*
X158123300Y-76953700D01*
X158525000Y-56631500D02*
X158123300Y-57033200D01*
X158543600Y-29568600D02*
X158543600Y-51095400D01*
X161557000Y-26555200D02*
X158543600Y-29568600D01*
X139439000Y-49757300D02*
X138639200Y-48957500D01*
X139439000Y-52705000D02*
X139439000Y-49757300D01*
X116840000Y-90400000D02*
X116840000Y-93980000D01*
X120880000Y-86360000D02*
X116840000Y-90400000D01*
X127635000Y-65532000D02*
X127635000Y-64380300D01*
X128659700Y-63355600D02*
X127635000Y-64380300D01*
X128659700Y-52102900D02*
X128659700Y-63355600D01*
X127985100Y-51428300D02*
X128659700Y-52102900D01*
X127030900Y-51428300D02*
X127985100Y-51428300D01*
X126347100Y-52112100D02*
X127030900Y-51428300D01*
X126347100Y-60152100D02*
X126347100Y-52112100D01*
X126514300Y-60319300D02*
X126347100Y-60152100D01*
X126514300Y-63825000D02*
X126514300Y-60319300D01*
X125946300Y-64393000D02*
X126514300Y-63825000D01*
X125946300Y-73864900D02*
X125946300Y-64393000D01*
X126146300Y-74064900D02*
X125946300Y-73864900D01*
X126146300Y-74563300D02*
X126146300Y-74064900D01*
X125923900Y-74785700D02*
X126146300Y-74563300D01*
X125923900Y-87436100D02*
X125923900Y-74785700D01*
X119380000Y-93980000D02*
X125923900Y-87436100D01*
X115102000Y-42989000D02*
X115102000Y-34861000D01*
X115102000Y-26733000D02*
X115102000Y-34861000D01*
X106125000Y-18542000D02*
X106125000Y-26733000D01*
X106125000Y-34861000D02*
X106125000Y-42989000D01*
X115102000Y-18535000D02*
X115102000Y-26733000D01*
X115615600Y-87574400D02*
X116830000Y-86360000D01*
X115615600Y-97830600D02*
X115615600Y-87574400D01*
X121925000Y-104140000D02*
X115615600Y-97830600D01*
X116860000Y-44747000D02*
X115102000Y-42989000D01*
X116860000Y-53480000D02*
X116860000Y-44747000D01*
X117959300Y-54579300D02*
X116860000Y-53480000D01*
X117959300Y-85230700D02*
X117959300Y-54579300D01*
X116830000Y-86360000D02*
X117959300Y-85230700D01*
X106125000Y-26733000D02*
X106125000Y-34861000D01*
X117602000Y-34861000D02*
X117602000Y-26733000D01*
X117602000Y-18535000D02*
X117602000Y-26733000D01*
X108625000Y-42989000D02*
X108625000Y-34861000D01*
X108625000Y-26733000D02*
X108625000Y-34861000D01*
X117602000Y-42413200D02*
X117602000Y-34861000D01*
X117026200Y-42989000D02*
X117602000Y-42413200D01*
X117602000Y-42989000D02*
X117026200Y-42989000D01*
X108625000Y-18542000D02*
X108625000Y-26733000D01*
X115162800Y-99917800D02*
X121925000Y-106680000D01*
X115162800Y-77867200D02*
X115162800Y-99917800D01*
X116830000Y-76200000D02*
X115162800Y-77867200D01*
X108625000Y-67995000D02*
X116830000Y-76200000D01*
X108625000Y-42989000D02*
X108625000Y-67995000D01*
M02*
