G04 #@! TF.GenerationSoftware,KiCad,Pcbnew,9.0.7*
G04 #@! TF.CreationDate,2026-01-29T20:13:48+09:00*
G04 #@! TF.ProjectId,ESP32-ROS-IO-V5.0.a,45535033-322d-4524-9f53-2d494f2d5635,rev?*
G04 #@! TF.SameCoordinates,Original*
G04 #@! TF.FileFunction,Legend,Bot*
G04 #@! TF.FilePolarity,Positive*
%FSLAX46Y46*%
G04 Gerber Fmt 4.6, Leading zero omitted, Abs format (unit mm)*
G04 Created by KiCad (PCBNEW 9.0.7) date 2026-01-29 20:13:48*
%MOMM*%
%LPD*%
G01*
G04 APERTURE LIST*
%ADD10C,0.200000*%
%ADD11C,0.000000*%
G04 APERTURE END LIST*
D10*
G36*
X136324028Y-96172604D02*
G01*
X136292075Y-96240503D01*
X136263598Y-96272539D01*
X136199258Y-96312752D01*
X136102738Y-96324817D01*
X136047610Y-96304144D01*
X136027460Y-96286513D01*
X136000219Y-96235435D01*
X136000219Y-95967760D01*
X136324028Y-95927284D01*
X136324028Y-96172604D01*
G37*
G36*
X135075711Y-95590344D02*
G01*
X135142882Y-95615533D01*
X135163033Y-95633164D01*
X135190275Y-95684243D01*
X135190275Y-95732127D01*
X135158322Y-95800026D01*
X135129843Y-95832064D01*
X135055300Y-95878653D01*
X134885233Y-95942428D01*
X134671226Y-95969179D01*
X134504837Y-95948380D01*
X134437666Y-95923191D01*
X134417516Y-95905560D01*
X134390275Y-95854482D01*
X134390275Y-95806597D01*
X134422226Y-95738699D01*
X134450702Y-95706663D01*
X134525249Y-95660071D01*
X134695314Y-95596296D01*
X134909321Y-95569545D01*
X135075711Y-95590344D01*
G37*
G36*
X136324028Y-95172604D02*
G01*
X136292075Y-95240503D01*
X136263598Y-95272539D01*
X136199258Y-95312752D01*
X136102738Y-95324817D01*
X136047610Y-95304144D01*
X136027460Y-95286513D01*
X136000219Y-95235435D01*
X136000219Y-94967760D01*
X136324028Y-94927284D01*
X136324028Y-95172604D01*
G37*
G36*
X136387468Y-91622067D02*
G01*
X136351637Y-91608630D01*
X136333552Y-91574720D01*
X136333552Y-91431597D01*
X136359123Y-91377257D01*
X136410701Y-91345021D01*
X136442296Y-91341072D01*
X136387468Y-91622067D01*
G37*
G36*
X135142882Y-91139343D02*
G01*
X135163033Y-91156974D01*
X135190275Y-91208053D01*
X135190275Y-91351175D01*
X135175618Y-91382321D01*
X134727087Y-91438387D01*
X134723608Y-91431863D01*
X134723608Y-91288740D01*
X134755559Y-91220842D01*
X134784035Y-91188806D01*
X134848377Y-91148592D01*
X135087754Y-91118670D01*
X135142882Y-91139343D01*
G37*
G36*
X136752826Y-89948867D02*
G01*
X136772977Y-89966498D01*
X136800219Y-90017577D01*
X136800219Y-90113080D01*
X136768266Y-90180979D01*
X136739787Y-90213017D01*
X136675450Y-90253228D01*
X136436072Y-90283150D01*
X136380942Y-90262477D01*
X136360794Y-90244847D01*
X136333552Y-90193768D01*
X136333552Y-90098264D01*
X136365503Y-90030366D01*
X136393979Y-89998330D01*
X136458321Y-89958116D01*
X136697698Y-89928194D01*
X136752826Y-89948867D01*
G37*
G36*
X135172189Y-89602714D02*
G01*
X135190275Y-89636623D01*
X135190275Y-89827365D01*
X135175618Y-89858511D01*
X135009322Y-89879298D01*
X135009322Y-89681597D01*
X135034893Y-89627257D01*
X135086472Y-89595020D01*
X135135373Y-89588908D01*
X135172189Y-89602714D01*
G37*
G36*
X135142882Y-88710771D02*
G01*
X135163033Y-88728402D01*
X135190275Y-88779481D01*
X135190275Y-88874984D01*
X135158322Y-88942883D01*
X135129843Y-88974921D01*
X135065506Y-89015132D01*
X134826128Y-89045054D01*
X134770998Y-89024381D01*
X134750850Y-89006751D01*
X134723608Y-88955672D01*
X134723608Y-88860168D01*
X134755559Y-88792270D01*
X134784035Y-88760234D01*
X134848377Y-88720020D01*
X135087754Y-88690098D01*
X135142882Y-88710771D01*
G37*
G36*
X136324028Y-88648794D02*
G01*
X136292075Y-88716693D01*
X136263598Y-88748729D01*
X136199258Y-88788942D01*
X136102738Y-88801007D01*
X136047610Y-88780334D01*
X136027460Y-88762703D01*
X136000219Y-88711625D01*
X136000219Y-88443950D01*
X136324028Y-88403474D01*
X136324028Y-88648794D01*
G37*
G36*
X134666465Y-87988079D02*
G01*
X134634511Y-88055981D01*
X134606037Y-88088014D01*
X134541695Y-88128228D01*
X134492794Y-88134340D01*
X134437666Y-88113667D01*
X134417516Y-88096036D01*
X134390275Y-88044958D01*
X134390275Y-87824902D01*
X134666465Y-87790378D01*
X134666465Y-87988079D01*
G37*
G36*
X135190275Y-87970222D02*
G01*
X135158322Y-88038121D01*
X135129843Y-88070159D01*
X135065506Y-88110370D01*
X134968984Y-88122435D01*
X134913855Y-88101762D01*
X134899843Y-88089501D01*
X134866465Y-87993538D01*
X134866465Y-87765378D01*
X135190275Y-87724902D01*
X135190275Y-87970222D01*
G37*
G36*
X135104619Y-85439196D02*
G01*
X135163033Y-85490307D01*
X135190275Y-85541386D01*
X135190275Y-85684508D01*
X135158322Y-85752407D01*
X135089123Y-85830256D01*
X134932853Y-85888857D01*
X134623607Y-85927512D01*
X134475929Y-85909053D01*
X134417516Y-85857941D01*
X134390275Y-85806863D01*
X134390275Y-85663740D01*
X134422227Y-85595840D01*
X134491425Y-85517992D01*
X134647693Y-85459392D01*
X134956940Y-85420736D01*
X135104619Y-85439196D01*
G37*
G36*
X134714084Y-81124985D02*
G01*
X134682131Y-81192884D01*
X134653654Y-81224920D01*
X134589314Y-81265133D01*
X134492794Y-81277198D01*
X134437666Y-81256525D01*
X134417516Y-81238894D01*
X134390275Y-81187816D01*
X134390275Y-80920141D01*
X134714084Y-80879665D01*
X134714084Y-81124985D01*
G37*
G36*
X136685655Y-79923678D02*
G01*
X136752826Y-79948867D01*
X136772977Y-79966498D01*
X136800219Y-80017577D01*
X136800219Y-80065461D01*
X136768266Y-80133360D01*
X136739787Y-80165398D01*
X136665244Y-80211987D01*
X136495177Y-80275762D01*
X136281170Y-80302513D01*
X136114781Y-80281714D01*
X136047610Y-80256525D01*
X136027460Y-80238894D01*
X136000219Y-80187816D01*
X136000219Y-80139931D01*
X136032170Y-80072033D01*
X136060646Y-80039997D01*
X136135193Y-79993405D01*
X136305258Y-79929630D01*
X136519265Y-79902879D01*
X136685655Y-79923678D01*
G37*
G36*
X137444663Y-98469625D02*
G01*
X134032811Y-98469625D01*
X134032811Y-97689006D01*
X135800219Y-97689006D01*
X135800219Y-98260435D01*
X135802140Y-98279944D01*
X135817072Y-98315992D01*
X135844662Y-98343582D01*
X135880710Y-98358514D01*
X135919728Y-98358514D01*
X135955776Y-98343582D01*
X135983366Y-98315992D01*
X135998298Y-98279944D01*
X136000219Y-98260435D01*
X136000219Y-98062999D01*
X136912622Y-97948949D01*
X136931742Y-97944623D01*
X136965660Y-97925335D01*
X136989615Y-97894536D01*
X136999960Y-97856914D01*
X136995121Y-97818197D01*
X136975833Y-97784280D01*
X136945034Y-97760325D01*
X136907412Y-97749980D01*
X136887815Y-97750493D01*
X136000219Y-97861442D01*
X136000219Y-97689006D01*
X135998298Y-97669497D01*
X135983366Y-97633449D01*
X135955776Y-97605859D01*
X135919728Y-97590927D01*
X135880710Y-97590927D01*
X135844662Y-97605859D01*
X135817072Y-97633449D01*
X135802140Y-97669497D01*
X135800219Y-97689006D01*
X134032811Y-97689006D01*
X134032811Y-97022340D01*
X135800219Y-97022340D01*
X135800219Y-97260435D01*
X135801324Y-97271658D01*
X135801175Y-97274230D01*
X135801855Y-97277051D01*
X135802140Y-97279944D01*
X135803126Y-97282325D01*
X135805769Y-97293287D01*
X135853388Y-97430192D01*
X135861612Y-97447987D01*
X135887557Y-97477129D01*
X135922680Y-97494124D01*
X135961633Y-97496384D01*
X135998485Y-97483566D01*
X136027627Y-97457620D01*
X136044622Y-97422498D01*
X136046882Y-97383545D01*
X136042288Y-97364488D01*
X136000219Y-97243539D01*
X136000219Y-97044693D01*
X136032170Y-96976795D01*
X136060646Y-96944759D01*
X136124988Y-96904545D01*
X136173890Y-96898432D01*
X136229017Y-96919105D01*
X136249166Y-96936736D01*
X136282560Y-96999349D01*
X136327200Y-97172327D01*
X136328183Y-97175015D01*
X136328307Y-97176281D01*
X136331267Y-97183447D01*
X136333935Y-97190738D01*
X136334700Y-97191754D01*
X136335793Y-97194399D01*
X136383412Y-97283684D01*
X136391500Y-97295814D01*
X136392379Y-97297590D01*
X136393435Y-97298715D01*
X136394288Y-97299994D01*
X136395812Y-97301247D01*
X136405796Y-97311882D01*
X136453415Y-97353549D01*
X136465071Y-97361883D01*
X136466562Y-97363276D01*
X136468025Y-97363995D01*
X136469362Y-97364951D01*
X136471306Y-97365608D01*
X136484154Y-97371925D01*
X136579392Y-97407639D01*
X136598333Y-97412690D01*
X136602902Y-97412534D01*
X136607311Y-97413747D01*
X136626908Y-97413234D01*
X136722146Y-97401329D01*
X136741266Y-97397003D01*
X136743099Y-97395960D01*
X136745180Y-97395612D01*
X136762741Y-97386901D01*
X136857980Y-97327378D01*
X136863213Y-97323343D01*
X136865324Y-97322320D01*
X136869265Y-97318677D01*
X136873505Y-97315409D01*
X136874863Y-97313503D01*
X136879721Y-97309015D01*
X136927340Y-97255443D01*
X136931287Y-97250011D01*
X136933037Y-97248420D01*
X136935754Y-97243866D01*
X136938866Y-97239585D01*
X136939639Y-97237354D01*
X136943082Y-97231586D01*
X136990701Y-97130396D01*
X136997270Y-97111925D01*
X136997382Y-97109534D01*
X136998298Y-97107325D01*
X137000219Y-97087816D01*
X137000219Y-96849720D01*
X136999113Y-96838496D01*
X136999263Y-96835925D01*
X136998582Y-96833103D01*
X136998298Y-96830211D01*
X136997311Y-96827829D01*
X136994669Y-96816868D01*
X136947050Y-96679964D01*
X136938826Y-96662169D01*
X136912880Y-96633027D01*
X136877758Y-96616032D01*
X136838805Y-96613772D01*
X136801953Y-96626590D01*
X136772811Y-96652536D01*
X136755816Y-96687658D01*
X136753556Y-96726611D01*
X136758150Y-96745668D01*
X136800219Y-96866615D01*
X136800219Y-97065461D01*
X136768266Y-97133360D01*
X136739787Y-97165398D01*
X136675450Y-97205609D01*
X136626546Y-97211722D01*
X136571419Y-97191049D01*
X136551269Y-97173418D01*
X136517876Y-97110806D01*
X136473237Y-96937828D01*
X136472253Y-96935139D01*
X136472130Y-96933875D01*
X136469168Y-96926707D01*
X136466502Y-96919418D01*
X136465737Y-96918402D01*
X136464645Y-96915758D01*
X136417025Y-96826471D01*
X136408933Y-96814336D01*
X136408058Y-96812565D01*
X136407005Y-96811443D01*
X136406150Y-96810161D01*
X136404621Y-96808903D01*
X136394641Y-96798273D01*
X136347022Y-96756606D01*
X136335365Y-96748271D01*
X136333875Y-96746879D01*
X136332411Y-96746159D01*
X136331075Y-96745204D01*
X136329130Y-96744546D01*
X136316283Y-96738230D01*
X136221045Y-96702516D01*
X136202104Y-96697465D01*
X136197534Y-96697620D01*
X136193126Y-96696408D01*
X136173529Y-96696921D01*
X136078291Y-96708826D01*
X136059171Y-96713152D01*
X136057335Y-96714195D01*
X136055256Y-96714544D01*
X136037695Y-96723254D01*
X135942457Y-96782778D01*
X135937222Y-96786813D01*
X135935113Y-96787836D01*
X135931175Y-96791475D01*
X135926931Y-96794747D01*
X135925570Y-96796654D01*
X135920716Y-96801141D01*
X135873097Y-96854712D01*
X135869148Y-96860144D01*
X135867401Y-96861735D01*
X135864685Y-96866286D01*
X135861572Y-96870570D01*
X135860798Y-96872800D01*
X135857356Y-96878569D01*
X135809737Y-96979761D01*
X135803168Y-96998231D01*
X135803055Y-97000621D01*
X135802140Y-97002831D01*
X135800219Y-97022340D01*
X134032811Y-97022340D01*
X134032811Y-95784244D01*
X134190275Y-95784244D01*
X134190275Y-95879482D01*
X134192196Y-95898991D01*
X134194076Y-95903531D01*
X134194554Y-95908423D01*
X134202040Y-95926541D01*
X134249659Y-96015826D01*
X134257747Y-96027956D01*
X134258626Y-96029732D01*
X134259682Y-96030857D01*
X134260535Y-96032136D01*
X134262059Y-96033389D01*
X134272043Y-96044024D01*
X134319662Y-96085691D01*
X134331318Y-96094025D01*
X134332809Y-96095418D01*
X134334272Y-96096137D01*
X134335609Y-96097093D01*
X134337553Y-96097750D01*
X134350401Y-96104067D01*
X134445639Y-96139781D01*
X134448193Y-96140462D01*
X134449227Y-96141050D01*
X134456951Y-96142797D01*
X134464580Y-96144832D01*
X134465764Y-96144791D01*
X134468347Y-96145376D01*
X134658823Y-96169186D01*
X134662520Y-96169282D01*
X134664034Y-96169699D01*
X134671227Y-96169510D01*
X134678420Y-96169699D01*
X134679933Y-96169282D01*
X134683631Y-96169186D01*
X134921726Y-96139424D01*
X134924308Y-96138839D01*
X134925493Y-96138880D01*
X134933124Y-96136845D01*
X134940846Y-96135098D01*
X134941878Y-96134510D01*
X134944435Y-96133829D01*
X135134911Y-96062400D01*
X135135119Y-96062297D01*
X135135236Y-96062278D01*
X135143826Y-96058016D01*
X135152503Y-96053751D01*
X135152590Y-96053669D01*
X135152797Y-96053567D01*
X135248036Y-95994044D01*
X135253269Y-95990009D01*
X135255380Y-95988986D01*
X135259321Y-95985343D01*
X135263561Y-95982075D01*
X135264919Y-95980169D01*
X135269777Y-95975681D01*
X135317396Y-95922109D01*
X135321343Y-95916677D01*
X135323093Y-95915086D01*
X135325810Y-95910532D01*
X135328922Y-95906251D01*
X135329695Y-95904020D01*
X135333138Y-95898252D01*
X135341971Y-95879482D01*
X135800219Y-95879482D01*
X135800219Y-96260435D01*
X135802140Y-96279944D01*
X135804020Y-96284484D01*
X135804498Y-96289376D01*
X135811984Y-96307494D01*
X135859603Y-96396779D01*
X135867691Y-96408909D01*
X135868570Y-96410685D01*
X135869626Y-96411810D01*
X135870479Y-96413089D01*
X135872003Y-96414342D01*
X135881987Y-96424977D01*
X135929606Y-96466644D01*
X135941262Y-96474978D01*
X135942753Y-96476371D01*
X135944216Y-96477090D01*
X135945553Y-96478046D01*
X135947497Y-96478703D01*
X135960345Y-96485020D01*
X136055583Y-96520734D01*
X136074524Y-96525785D01*
X136079093Y-96525629D01*
X136083502Y-96526842D01*
X136103098Y-96526329D01*
X136245956Y-96508472D01*
X136265076Y-96504146D01*
X136266909Y-96503103D01*
X136268990Y-96502755D01*
X136286552Y-96494044D01*
X136381790Y-96434520D01*
X136387023Y-96430485D01*
X136389134Y-96429462D01*
X136393075Y-96425819D01*
X136397315Y-96422551D01*
X136398673Y-96420646D01*
X136403531Y-96416157D01*
X136451150Y-96362585D01*
X136455097Y-96357154D01*
X136456846Y-96355563D01*
X136459562Y-96351009D01*
X136462675Y-96346728D01*
X136463448Y-96344497D01*
X136466891Y-96338729D01*
X136514510Y-96237539D01*
X136519841Y-96222546D01*
X136850372Y-96412601D01*
X136868242Y-96420661D01*
X136906935Y-96425685D01*
X136944606Y-96415520D01*
X136975519Y-96391713D01*
X136994969Y-96357888D01*
X136999993Y-96319195D01*
X136989828Y-96281524D01*
X136966021Y-96250610D01*
X136950066Y-96239220D01*
X136524028Y-95994247D01*
X136524028Y-95902284D01*
X136912622Y-95853710D01*
X136931742Y-95849384D01*
X136965660Y-95830096D01*
X136989615Y-95799297D01*
X136999960Y-95761675D01*
X136995121Y-95722958D01*
X136975833Y-95689041D01*
X136945034Y-95665086D01*
X136907412Y-95654741D01*
X136887815Y-95655254D01*
X135887816Y-95780254D01*
X135882737Y-95781403D01*
X135880710Y-95781403D01*
X135878269Y-95782413D01*
X135868695Y-95784580D01*
X135857041Y-95791206D01*
X135844662Y-95796335D01*
X135840228Y-95800768D01*
X135834778Y-95803868D01*
X135826549Y-95814447D01*
X135817072Y-95823925D01*
X135814672Y-95829717D01*
X135810823Y-95834667D01*
X135807269Y-95847588D01*
X135802140Y-95859973D01*
X135801177Y-95869743D01*
X135800478Y-95872289D01*
X135800729Y-95874299D01*
X135800219Y-95879482D01*
X135341971Y-95879482D01*
X135380757Y-95797062D01*
X135387326Y-95778591D01*
X135387438Y-95776200D01*
X135388354Y-95773991D01*
X135390275Y-95754482D01*
X135390275Y-95659244D01*
X135388354Y-95639735D01*
X135386473Y-95635194D01*
X135385996Y-95630303D01*
X135378511Y-95612186D01*
X135330891Y-95522899D01*
X135322796Y-95510758D01*
X135321923Y-95508993D01*
X135320873Y-95507874D01*
X135320016Y-95506589D01*
X135318483Y-95505329D01*
X135308506Y-95494700D01*
X135260886Y-95453033D01*
X135249232Y-95444701D01*
X135247740Y-95443307D01*
X135246273Y-95442585D01*
X135244939Y-95441632D01*
X135242997Y-95440975D01*
X135230148Y-95434658D01*
X135134910Y-95398944D01*
X135132353Y-95398262D01*
X135131321Y-95397675D01*
X135123603Y-95395928D01*
X135115969Y-95393893D01*
X135114783Y-95393933D01*
X135112201Y-95393349D01*
X134921726Y-95369539D01*
X134918028Y-95369442D01*
X134916515Y-95369026D01*
X134909322Y-95369214D01*
X134902129Y-95369026D01*
X134900615Y-95369442D01*
X134896919Y-95369539D01*
X134658823Y-95399301D01*
X134656240Y-95399885D01*
X134655056Y-95399845D01*
X134647427Y-95401879D01*
X134639703Y-95403627D01*
X134638669Y-95404214D01*
X134636115Y-95404896D01*
X134445638Y-95476325D01*
X134445426Y-95476428D01*
X134445312Y-95476448D01*
X134436726Y-95480706D01*
X134428046Y-95484974D01*
X134427960Y-95485054D01*
X134427751Y-95485158D01*
X134332513Y-95544682D01*
X134327278Y-95548717D01*
X134325169Y-95549740D01*
X134321231Y-95553379D01*
X134316987Y-95556651D01*
X134315626Y-95558558D01*
X134310772Y-95563045D01*
X134263153Y-95616616D01*
X134259204Y-95622048D01*
X134257457Y-95623639D01*
X134254741Y-95628190D01*
X134251628Y-95632474D01*
X134250854Y-95634704D01*
X134247412Y-95640473D01*
X134199793Y-95741665D01*
X134193224Y-95760135D01*
X134193111Y-95762525D01*
X134192196Y-95764735D01*
X134190275Y-95784244D01*
X134032811Y-95784244D01*
X134032811Y-94997289D01*
X135095295Y-94997289D01*
X135097315Y-95013456D01*
X135098272Y-95029715D01*
X135098446Y-95030074D01*
X135098473Y-95030473D01*
X135099770Y-95033096D01*
X135100134Y-95036006D01*
X135108189Y-95050171D01*
X135115294Y-95064825D01*
X135115591Y-95065089D01*
X135115769Y-95065448D01*
X135118579Y-95068442D01*
X135119422Y-95069923D01*
X135121452Y-95071502D01*
X135129186Y-95079740D01*
X135176806Y-95121407D01*
X135191557Y-95131953D01*
X135192078Y-95132416D01*
X135192324Y-95132501D01*
X135192753Y-95132808D01*
X135210851Y-95138928D01*
X135228941Y-95145204D01*
X135229338Y-95145180D01*
X135229715Y-95145308D01*
X135248797Y-95144036D01*
X135267891Y-95142913D01*
X135268248Y-95142739D01*
X135268647Y-95142713D01*
X135285806Y-95134226D01*
X135303001Y-95125890D01*
X135303389Y-95125531D01*
X135303622Y-95125416D01*
X135304079Y-95124893D01*
X135317397Y-95112585D01*
X135365017Y-95059013D01*
X135376542Y-95043155D01*
X135376672Y-95042778D01*
X135376934Y-95042480D01*
X135377872Y-95039703D01*
X135379671Y-95037392D01*
X135383989Y-95021686D01*
X135389330Y-95006292D01*
X135389306Y-95005894D01*
X135389434Y-95005518D01*
X135389239Y-95002595D01*
X135390016Y-94999770D01*
X135387995Y-94983604D01*
X135387039Y-94967341D01*
X135386864Y-94966980D01*
X135386838Y-94966586D01*
X135385540Y-94963962D01*
X135385177Y-94961053D01*
X135377125Y-94946894D01*
X135370016Y-94932232D01*
X135369718Y-94931967D01*
X135369542Y-94931611D01*
X135366731Y-94928616D01*
X135365889Y-94927136D01*
X135363858Y-94925556D01*
X135356125Y-94917319D01*
X135312882Y-94879482D01*
X135800219Y-94879482D01*
X135800219Y-95260435D01*
X135802140Y-95279944D01*
X135804020Y-95284484D01*
X135804498Y-95289376D01*
X135811984Y-95307494D01*
X135859603Y-95396779D01*
X135867691Y-95408909D01*
X135868570Y-95410685D01*
X135869626Y-95411810D01*
X135870479Y-95413089D01*
X135872003Y-95414342D01*
X135881987Y-95424977D01*
X135929606Y-95466644D01*
X135941262Y-95474978D01*
X135942753Y-95476371D01*
X135944216Y-95477090D01*
X135945553Y-95478046D01*
X135947497Y-95478703D01*
X135960345Y-95485020D01*
X136055583Y-95520734D01*
X136074524Y-95525785D01*
X136079093Y-95525629D01*
X136083502Y-95526842D01*
X136103098Y-95526329D01*
X136245956Y-95508472D01*
X136265076Y-95504146D01*
X136266909Y-95503103D01*
X136268990Y-95502755D01*
X136286552Y-95494044D01*
X136381790Y-95434520D01*
X136387023Y-95430485D01*
X136389134Y-95429462D01*
X136393075Y-95425819D01*
X136397315Y-95422551D01*
X136398673Y-95420646D01*
X136403531Y-95416157D01*
X136451150Y-95362585D01*
X136455097Y-95357154D01*
X136456846Y-95355563D01*
X136459562Y-95351009D01*
X136462675Y-95346728D01*
X136463448Y-95344497D01*
X136466891Y-95338729D01*
X136514510Y-95237539D01*
X136519841Y-95222546D01*
X136850372Y-95412601D01*
X136868242Y-95420661D01*
X136906935Y-95425685D01*
X136944606Y-95415520D01*
X136975519Y-95391713D01*
X136994969Y-95357888D01*
X136999993Y-95319195D01*
X136989828Y-95281524D01*
X136966021Y-95250610D01*
X136950066Y-95239220D01*
X136524028Y-94994247D01*
X136524028Y-94902284D01*
X136912622Y-94853710D01*
X136931742Y-94849384D01*
X136965660Y-94830096D01*
X136989615Y-94799297D01*
X136999960Y-94761675D01*
X136995121Y-94722958D01*
X136975833Y-94689041D01*
X136945034Y-94665086D01*
X136907412Y-94654741D01*
X136887815Y-94655254D01*
X135887816Y-94780254D01*
X135882737Y-94781403D01*
X135880710Y-94781403D01*
X135878269Y-94782413D01*
X135868695Y-94784580D01*
X135857041Y-94791206D01*
X135844662Y-94796335D01*
X135840228Y-94800768D01*
X135834778Y-94803868D01*
X135826549Y-94814447D01*
X135817072Y-94823925D01*
X135814672Y-94829717D01*
X135810823Y-94834667D01*
X135807269Y-94847588D01*
X135802140Y-94859973D01*
X135801177Y-94869743D01*
X135800478Y-94872289D01*
X135800729Y-94874299D01*
X135800219Y-94879482D01*
X135312882Y-94879482D01*
X135308506Y-94875653D01*
X135293753Y-94865105D01*
X135293236Y-94864646D01*
X135292991Y-94864561D01*
X135292559Y-94864252D01*
X135274369Y-94858100D01*
X135256373Y-94851857D01*
X135255976Y-94851880D01*
X135255597Y-94851752D01*
X135236503Y-94853025D01*
X135217422Y-94854147D01*
X135217062Y-94854321D01*
X135216665Y-94854348D01*
X135199535Y-94862819D01*
X135182313Y-94871169D01*
X135181924Y-94871528D01*
X135181690Y-94871644D01*
X135181229Y-94872170D01*
X135167916Y-94884474D01*
X135120296Y-94938045D01*
X135108770Y-94953902D01*
X135108639Y-94954279D01*
X135108377Y-94954579D01*
X135107438Y-94957355D01*
X135105640Y-94959667D01*
X135101322Y-94975368D01*
X135095981Y-94990765D01*
X135096004Y-94991164D01*
X135095877Y-94991541D01*
X135096071Y-94994463D01*
X135095295Y-94997289D01*
X134032811Y-94997289D01*
X134032811Y-94345764D01*
X134143922Y-94345764D01*
X134145367Y-94384755D01*
X134161624Y-94420225D01*
X134190218Y-94446774D01*
X134226795Y-94460359D01*
X134265786Y-94458914D01*
X134284322Y-94452531D01*
X134856941Y-94190080D01*
X134856941Y-94422156D01*
X134611205Y-94452873D01*
X134592085Y-94457199D01*
X134558167Y-94476487D01*
X134534212Y-94507286D01*
X134523867Y-94544908D01*
X134528706Y-94583624D01*
X134547994Y-94617542D01*
X134578793Y-94641497D01*
X134616415Y-94651842D01*
X134636011Y-94651329D01*
X134856941Y-94623712D01*
X134856941Y-94653292D01*
X134858862Y-94672801D01*
X134873794Y-94708849D01*
X134901384Y-94736439D01*
X134937432Y-94751371D01*
X134976450Y-94751371D01*
X135012498Y-94736439D01*
X135040088Y-94708849D01*
X135055020Y-94672801D01*
X135056941Y-94653292D01*
X135056941Y-94598712D01*
X135302678Y-94567996D01*
X135321798Y-94563670D01*
X135355716Y-94544382D01*
X135379671Y-94513583D01*
X135390016Y-94475961D01*
X135385177Y-94437245D01*
X135365889Y-94403327D01*
X135335090Y-94379372D01*
X135297468Y-94369027D01*
X135277871Y-94369540D01*
X135056941Y-94397156D01*
X135056941Y-94034244D01*
X135055020Y-94014735D01*
X135054298Y-94012993D01*
X135054229Y-94011114D01*
X135046862Y-93995040D01*
X135040088Y-93978687D01*
X135038756Y-93977355D01*
X135037972Y-93975644D01*
X135025010Y-93963609D01*
X135012498Y-93951097D01*
X135010757Y-93950376D01*
X135009379Y-93949096D01*
X134992808Y-93942941D01*
X134976450Y-93936165D01*
X134974565Y-93936165D01*
X134972802Y-93935510D01*
X134955128Y-93936165D01*
X134937432Y-93936165D01*
X134935693Y-93936885D01*
X134933811Y-93936955D01*
X134915275Y-93943338D01*
X134200990Y-94270719D01*
X134184056Y-94280593D01*
X134157507Y-94309187D01*
X134143922Y-94345764D01*
X134032811Y-94345764D01*
X134032811Y-93164291D01*
X134190279Y-93164291D01*
X134197545Y-93202627D01*
X134218928Y-93235264D01*
X134251172Y-93257234D01*
X134269880Y-93263094D01*
X134972050Y-93409380D01*
X134248610Y-93740957D01*
X134231675Y-93750831D01*
X134205127Y-93779425D01*
X134191541Y-93816002D01*
X134192986Y-93854993D01*
X134209243Y-93890463D01*
X134237837Y-93917011D01*
X134274414Y-93930597D01*
X134313405Y-93929152D01*
X134331940Y-93922769D01*
X135117401Y-93562767D01*
X136752858Y-93562767D01*
X136757699Y-93601484D01*
X136776987Y-93635401D01*
X136807786Y-93659356D01*
X136845408Y-93669701D01*
X136865005Y-93669187D01*
X136912624Y-93663234D01*
X136931744Y-93658907D01*
X136933575Y-93657865D01*
X136935657Y-93657517D01*
X136953218Y-93648806D01*
X137048457Y-93589283D01*
X137053692Y-93585246D01*
X137055802Y-93584224D01*
X137059740Y-93580584D01*
X137063982Y-93577314D01*
X137065342Y-93575406D01*
X137070198Y-93570919D01*
X137117818Y-93517347D01*
X137129343Y-93501489D01*
X137142131Y-93464626D01*
X137139840Y-93425675D01*
X137122817Y-93390566D01*
X137093655Y-93364644D01*
X137056792Y-93351856D01*
X137017841Y-93354147D01*
X136982732Y-93371170D01*
X136968335Y-93384475D01*
X136930266Y-93427302D01*
X136865927Y-93467514D01*
X136840195Y-93470731D01*
X136821075Y-93475058D01*
X136787158Y-93494346D01*
X136763203Y-93525145D01*
X136752858Y-93562767D01*
X135117401Y-93562767D01*
X135331940Y-93464437D01*
X135348875Y-93454562D01*
X135354021Y-93449018D01*
X135360343Y-93444877D01*
X135367171Y-93434855D01*
X135375423Y-93425968D01*
X135378054Y-93418882D01*
X135382313Y-93412633D01*
X135384786Y-93400759D01*
X135389009Y-93389392D01*
X135388728Y-93381837D01*
X135390271Y-93374435D01*
X135388012Y-93362518D01*
X135387563Y-93350400D01*
X135384412Y-93343526D01*
X135383005Y-93336099D01*
X135376359Y-93325956D01*
X135371306Y-93314930D01*
X135365764Y-93309785D01*
X135361622Y-93303462D01*
X135351599Y-93296633D01*
X135342713Y-93288382D01*
X135335627Y-93285750D01*
X135329378Y-93281492D01*
X135310670Y-93275632D01*
X134310670Y-93067298D01*
X134291180Y-93065200D01*
X134252844Y-93072466D01*
X134220207Y-93093849D01*
X134198237Y-93126093D01*
X134190279Y-93164291D01*
X134032811Y-93164291D01*
X134032811Y-93062765D01*
X135800478Y-93062765D01*
X135805317Y-93101481D01*
X135824605Y-93135399D01*
X135855404Y-93159354D01*
X135893026Y-93169699D01*
X135912622Y-93169186D01*
X136133552Y-93141569D01*
X136133552Y-93266387D01*
X136135473Y-93285896D01*
X136150405Y-93321944D01*
X136177995Y-93349534D01*
X136214043Y-93364466D01*
X136253061Y-93364466D01*
X136289109Y-93349534D01*
X136316699Y-93321944D01*
X136331631Y-93285896D01*
X136333552Y-93266387D01*
X136333552Y-93116570D01*
X136745318Y-93065099D01*
X136782133Y-93078905D01*
X136800219Y-93112815D01*
X136800219Y-93183054D01*
X136802140Y-93202563D01*
X136817072Y-93238611D01*
X136844662Y-93266201D01*
X136880710Y-93281133D01*
X136919728Y-93281133D01*
X136955776Y-93266201D01*
X136983366Y-93238611D01*
X136998298Y-93202563D01*
X137000219Y-93183054D01*
X137000219Y-93087816D01*
X136998298Y-93068307D01*
X136996417Y-93063766D01*
X136995940Y-93058875D01*
X136988455Y-93040758D01*
X136940835Y-92951471D01*
X136934895Y-92942562D01*
X136933814Y-92940184D01*
X136932474Y-92938932D01*
X136929960Y-92935161D01*
X136917279Y-92924735D01*
X136905304Y-92913546D01*
X136901240Y-92911548D01*
X136899821Y-92910381D01*
X136897315Y-92909618D01*
X136887712Y-92904897D01*
X136792473Y-92869183D01*
X136773531Y-92864132D01*
X136768962Y-92864287D01*
X136764554Y-92863075D01*
X136744957Y-92863588D01*
X136333552Y-92915013D01*
X136333552Y-92885435D01*
X136331631Y-92865926D01*
X136316699Y-92829878D01*
X136289109Y-92802288D01*
X136253061Y-92787356D01*
X136214043Y-92787356D01*
X136177995Y-92802288D01*
X136150405Y-92829878D01*
X136135473Y-92865926D01*
X136133552Y-92885435D01*
X136133552Y-92940013D01*
X135887816Y-92970730D01*
X135868696Y-92975056D01*
X135834778Y-92994344D01*
X135810823Y-93025143D01*
X135800478Y-93062765D01*
X134032811Y-93062765D01*
X134032811Y-91992577D01*
X134809322Y-91992577D01*
X134809322Y-92754482D01*
X134811243Y-92773991D01*
X134826175Y-92810039D01*
X134853765Y-92837629D01*
X134889813Y-92852561D01*
X134928831Y-92852561D01*
X134964879Y-92837629D01*
X134992469Y-92810039D01*
X135007401Y-92773991D01*
X135009322Y-92754482D01*
X135009322Y-92314006D01*
X136133552Y-92314006D01*
X136133552Y-92504482D01*
X136135473Y-92523991D01*
X136137353Y-92528531D01*
X136137831Y-92533423D01*
X136145317Y-92551541D01*
X136192936Y-92640827D01*
X136203811Y-92657137D01*
X136233950Y-92681917D01*
X136271278Y-92693278D01*
X136310112Y-92689489D01*
X136344540Y-92671128D01*
X136369320Y-92640989D01*
X136380681Y-92603661D01*
X136376892Y-92564827D01*
X136369407Y-92546710D01*
X136333552Y-92479482D01*
X136333552Y-92336359D01*
X136365503Y-92268461D01*
X136393979Y-92236425D01*
X136458321Y-92196211D01*
X136697698Y-92166289D01*
X136752826Y-92186962D01*
X136772977Y-92204593D01*
X136800219Y-92255672D01*
X136800219Y-92398794D01*
X136762118Y-92479759D01*
X136755549Y-92498229D01*
X136753711Y-92537204D01*
X136766927Y-92573916D01*
X136793186Y-92602776D01*
X136828490Y-92619390D01*
X136867465Y-92621228D01*
X136904177Y-92608012D01*
X136933037Y-92581753D01*
X136943082Y-92564919D01*
X136990701Y-92463729D01*
X136997270Y-92445258D01*
X136997382Y-92442867D01*
X136998298Y-92440658D01*
X137000219Y-92421149D01*
X137000219Y-92230673D01*
X136998298Y-92211164D01*
X136996417Y-92206623D01*
X136995940Y-92201732D01*
X136988455Y-92183615D01*
X136940835Y-92094328D01*
X136932740Y-92082187D01*
X136931867Y-92080422D01*
X136930817Y-92079303D01*
X136929960Y-92078018D01*
X136928427Y-92076758D01*
X136918450Y-92066129D01*
X136870830Y-92024462D01*
X136859176Y-92016130D01*
X136857684Y-92014736D01*
X136856217Y-92014014D01*
X136854883Y-92013061D01*
X136852941Y-92012404D01*
X136840092Y-92006087D01*
X136744854Y-91970373D01*
X136725913Y-91965322D01*
X136721343Y-91965477D01*
X136716935Y-91964265D01*
X136697338Y-91964778D01*
X136411625Y-92000492D01*
X136392505Y-92004818D01*
X136390669Y-92005861D01*
X136388589Y-92006210D01*
X136371028Y-92014920D01*
X136275790Y-92074444D01*
X136270555Y-92078479D01*
X136268446Y-92079502D01*
X136264508Y-92083141D01*
X136260264Y-92086413D01*
X136258903Y-92088320D01*
X136254049Y-92092807D01*
X136206430Y-92146378D01*
X136202481Y-92151810D01*
X136200734Y-92153401D01*
X136198018Y-92157952D01*
X136194905Y-92162236D01*
X136194131Y-92164466D01*
X136190689Y-92170235D01*
X136143070Y-92271427D01*
X136136501Y-92289897D01*
X136136388Y-92292287D01*
X136135473Y-92294497D01*
X136133552Y-92314006D01*
X135009322Y-92314006D01*
X135009322Y-91992577D01*
X135007401Y-91973068D01*
X134992469Y-91937020D01*
X134964879Y-91909430D01*
X134928831Y-91894498D01*
X134889813Y-91894498D01*
X134853765Y-91909430D01*
X134826175Y-91937020D01*
X134811243Y-91973068D01*
X134809322Y-91992577D01*
X134032811Y-91992577D01*
X134032811Y-91586575D01*
X134190534Y-91586575D01*
X134195373Y-91625292D01*
X134214661Y-91659209D01*
X134245460Y-91683164D01*
X134283082Y-91693509D01*
X134302678Y-91692996D01*
X135302678Y-91567996D01*
X135321798Y-91563670D01*
X135355716Y-91544382D01*
X135379671Y-91513583D01*
X135390016Y-91475961D01*
X135385177Y-91437244D01*
X135377316Y-91423421D01*
X135380757Y-91416110D01*
X135383199Y-91409244D01*
X136133552Y-91409244D01*
X136133552Y-91599720D01*
X136135473Y-91619229D01*
X136137353Y-91623769D01*
X136137831Y-91628661D01*
X136145317Y-91646779D01*
X136192936Y-91736065D01*
X136198875Y-91744973D01*
X136199957Y-91747352D01*
X136201296Y-91748603D01*
X136203811Y-91752375D01*
X136216491Y-91762800D01*
X136228467Y-91773990D01*
X136232530Y-91775987D01*
X136233950Y-91777155D01*
X136236455Y-91777917D01*
X136246059Y-91782639D01*
X136341297Y-91818353D01*
X136360238Y-91823404D01*
X136364807Y-91823248D01*
X136369216Y-91824461D01*
X136388813Y-91823948D01*
X136484051Y-91812043D01*
X136503171Y-91807717D01*
X136506500Y-91805823D01*
X136510252Y-91805063D01*
X136523351Y-91796240D01*
X136537088Y-91788429D01*
X136539439Y-91785405D01*
X136542615Y-91783267D01*
X136551342Y-91770102D01*
X136561043Y-91757630D01*
X136562058Y-91753937D01*
X136564174Y-91750746D01*
X136569796Y-91731966D01*
X136651162Y-91314963D01*
X136745317Y-91303194D01*
X136782133Y-91317000D01*
X136800219Y-91350909D01*
X136800219Y-91494032D01*
X136762118Y-91574997D01*
X136755549Y-91593467D01*
X136753711Y-91632442D01*
X136766927Y-91669154D01*
X136793186Y-91698014D01*
X136828490Y-91714628D01*
X136867465Y-91716466D01*
X136904177Y-91703250D01*
X136933037Y-91676991D01*
X136943082Y-91660157D01*
X136990701Y-91558967D01*
X136997270Y-91540496D01*
X136997382Y-91538105D01*
X136998298Y-91535896D01*
X137000219Y-91516387D01*
X137000219Y-91325910D01*
X136998298Y-91306401D01*
X136996417Y-91301860D01*
X136995940Y-91296969D01*
X136988454Y-91278851D01*
X136940835Y-91189566D01*
X136934895Y-91180658D01*
X136933814Y-91178280D01*
X136932474Y-91177028D01*
X136929959Y-91173256D01*
X136917288Y-91162838D01*
X136905305Y-91151641D01*
X136901237Y-91149641D01*
X136899820Y-91148476D01*
X136897318Y-91147714D01*
X136887712Y-91142992D01*
X136792474Y-91107277D01*
X136773532Y-91102226D01*
X136768962Y-91102381D01*
X136764554Y-91101169D01*
X136744957Y-91101682D01*
X136364005Y-91149302D01*
X136344885Y-91153628D01*
X136343051Y-91154670D01*
X136340972Y-91155019D01*
X136323410Y-91163730D01*
X136228172Y-91223253D01*
X136212646Y-91235222D01*
X136207408Y-91242565D01*
X136200734Y-91248639D01*
X136190689Y-91265473D01*
X136143070Y-91366665D01*
X136136501Y-91385135D01*
X136136388Y-91387525D01*
X136135473Y-91389735D01*
X136133552Y-91409244D01*
X135383199Y-91409244D01*
X135387326Y-91397639D01*
X135387438Y-91395248D01*
X135388354Y-91393039D01*
X135390275Y-91373530D01*
X135390275Y-91183054D01*
X135388354Y-91163545D01*
X135386473Y-91159004D01*
X135385996Y-91154113D01*
X135378511Y-91135996D01*
X135330891Y-91046709D01*
X135322796Y-91034568D01*
X135321923Y-91032803D01*
X135320873Y-91031684D01*
X135320016Y-91030399D01*
X135318483Y-91029139D01*
X135308506Y-91018510D01*
X135260886Y-90976843D01*
X135249232Y-90968511D01*
X135247740Y-90967117D01*
X135246273Y-90966395D01*
X135244939Y-90965442D01*
X135242997Y-90964785D01*
X135230148Y-90958468D01*
X135134910Y-90922754D01*
X135115969Y-90917703D01*
X135111399Y-90917858D01*
X135106991Y-90916646D01*
X135087394Y-90917159D01*
X134801681Y-90952873D01*
X134782561Y-90957199D01*
X134780725Y-90958242D01*
X134778645Y-90958591D01*
X134761084Y-90967301D01*
X134665846Y-91026825D01*
X134660611Y-91030860D01*
X134658502Y-91031883D01*
X134654564Y-91035522D01*
X134650320Y-91038794D01*
X134648959Y-91040701D01*
X134644105Y-91045188D01*
X134596486Y-91098759D01*
X134592537Y-91104191D01*
X134590790Y-91105782D01*
X134588074Y-91110333D01*
X134584961Y-91114617D01*
X134584187Y-91116847D01*
X134580745Y-91122616D01*
X134533126Y-91223808D01*
X134526557Y-91242278D01*
X134526444Y-91244668D01*
X134525529Y-91246878D01*
X134523608Y-91266387D01*
X134523608Y-91456863D01*
X134524284Y-91463738D01*
X134277872Y-91494540D01*
X134258751Y-91498866D01*
X134224834Y-91518154D01*
X134200879Y-91548953D01*
X134190534Y-91586575D01*
X134032811Y-91586575D01*
X134032811Y-90694958D01*
X134523608Y-90694958D01*
X134523608Y-90790196D01*
X134525529Y-90809705D01*
X134540461Y-90845753D01*
X134568051Y-90873343D01*
X134604099Y-90888275D01*
X134643117Y-90888275D01*
X134679165Y-90873343D01*
X134680220Y-90872288D01*
X135800478Y-90872288D01*
X135802498Y-90888453D01*
X135803455Y-90904716D01*
X135803628Y-90905073D01*
X135803655Y-90905472D01*
X135804953Y-90908098D01*
X135805317Y-90911005D01*
X135813367Y-90925162D01*
X135820477Y-90939826D01*
X135820774Y-90940090D01*
X135820951Y-90940447D01*
X135823763Y-90943442D01*
X135824605Y-90944923D01*
X135826635Y-90946502D01*
X135834368Y-90954739D01*
X135881987Y-90996406D01*
X135896743Y-91006956D01*
X135897259Y-91007415D01*
X135897502Y-91007499D01*
X135897934Y-91007808D01*
X135916088Y-91013947D01*
X135934122Y-91020204D01*
X135934519Y-91020180D01*
X135934896Y-91020308D01*
X135953978Y-91019036D01*
X135973072Y-91017913D01*
X135973429Y-91017739D01*
X135973828Y-91017713D01*
X135990985Y-91009228D01*
X136008182Y-91000891D01*
X136008570Y-91000531D01*
X136008803Y-91000417D01*
X136009259Y-90999894D01*
X136022579Y-90987586D01*
X136070198Y-90934014D01*
X136081723Y-90918157D01*
X136081852Y-90917782D01*
X136082116Y-90917482D01*
X136083054Y-90914705D01*
X136084853Y-90912394D01*
X136089173Y-90896682D01*
X136094512Y-90881294D01*
X136094488Y-90880896D01*
X136094616Y-90880520D01*
X136094421Y-90877597D01*
X136095198Y-90874772D01*
X136093177Y-90858606D01*
X136092221Y-90842343D01*
X136092047Y-90841984D01*
X136092021Y-90841589D01*
X136090722Y-90838963D01*
X136090359Y-90836055D01*
X136087270Y-90830623D01*
X136133811Y-90830623D01*
X136138650Y-90869340D01*
X136157938Y-90903257D01*
X136188737Y-90927212D01*
X136226359Y-90937557D01*
X136245955Y-90937044D01*
X137103098Y-90829901D01*
X137122218Y-90825575D01*
X137124051Y-90824532D01*
X137126133Y-90824184D01*
X137143695Y-90815473D01*
X137238933Y-90755949D01*
X137254458Y-90743980D01*
X137259694Y-90736636D01*
X137266370Y-90730563D01*
X137276415Y-90713729D01*
X137324034Y-90612539D01*
X137330603Y-90594068D01*
X137330715Y-90591677D01*
X137331631Y-90589468D01*
X137333552Y-90569959D01*
X137333552Y-90522340D01*
X137331631Y-90502831D01*
X137316699Y-90466783D01*
X137289109Y-90439193D01*
X137253061Y-90424261D01*
X137214043Y-90424261D01*
X137177995Y-90439193D01*
X137150405Y-90466783D01*
X137135473Y-90502831D01*
X137133552Y-90522340D01*
X137133552Y-90547604D01*
X137107980Y-90601944D01*
X137056401Y-90634181D01*
X136221149Y-90738588D01*
X136202028Y-90742914D01*
X136168111Y-90762202D01*
X136144156Y-90793001D01*
X136133811Y-90830623D01*
X136087270Y-90830623D01*
X136082309Y-90821900D01*
X136075199Y-90807234D01*
X136074901Y-90806969D01*
X136074725Y-90806613D01*
X136071912Y-90803617D01*
X136071071Y-90802137D01*
X136069040Y-90800557D01*
X136061308Y-90792321D01*
X136013689Y-90750654D01*
X135998932Y-90740103D01*
X135998417Y-90739645D01*
X135998173Y-90739560D01*
X135997742Y-90739252D01*
X135979607Y-90733119D01*
X135961555Y-90726856D01*
X135961156Y-90726879D01*
X135960780Y-90726752D01*
X135941693Y-90728024D01*
X135922604Y-90729147D01*
X135922246Y-90729320D01*
X135921848Y-90729347D01*
X135904690Y-90737831D01*
X135887494Y-90746169D01*
X135887105Y-90746528D01*
X135886873Y-90746643D01*
X135886416Y-90747165D01*
X135873097Y-90759474D01*
X135825478Y-90813045D01*
X135813953Y-90828903D01*
X135813823Y-90829277D01*
X135813560Y-90829578D01*
X135812621Y-90832354D01*
X135810823Y-90834666D01*
X135806502Y-90850377D01*
X135801164Y-90865766D01*
X135801187Y-90866163D01*
X135801060Y-90866540D01*
X135801254Y-90869462D01*
X135800478Y-90872288D01*
X134680220Y-90872288D01*
X134706755Y-90845753D01*
X134721687Y-90809705D01*
X134723608Y-90790196D01*
X134723608Y-90717311D01*
X134755559Y-90649413D01*
X134784035Y-90617377D01*
X134848376Y-90577164D01*
X135302678Y-90520376D01*
X135321798Y-90516050D01*
X135355716Y-90496762D01*
X135379671Y-90465963D01*
X135390016Y-90428341D01*
X135385177Y-90389624D01*
X135365889Y-90355707D01*
X135335090Y-90331752D01*
X135297468Y-90321407D01*
X135277871Y-90321920D01*
X134611204Y-90405254D01*
X134592084Y-90409580D01*
X134558167Y-90428868D01*
X134534212Y-90459667D01*
X134523867Y-90497289D01*
X134528706Y-90536006D01*
X134547994Y-90569923D01*
X134565515Y-90583550D01*
X134533126Y-90652379D01*
X134526557Y-90670849D01*
X134526444Y-90673239D01*
X134525529Y-90675449D01*
X134523608Y-90694958D01*
X134032811Y-90694958D01*
X134032811Y-89694958D01*
X134523608Y-89694958D01*
X134523608Y-89885434D01*
X134525529Y-89904943D01*
X134527409Y-89909483D01*
X134527887Y-89914375D01*
X134535373Y-89932493D01*
X134582992Y-90021779D01*
X134588931Y-90030687D01*
X134590013Y-90033066D01*
X134591352Y-90034317D01*
X134593867Y-90038089D01*
X134606547Y-90048514D01*
X134618523Y-90059704D01*
X134622586Y-90061701D01*
X134624006Y-90062869D01*
X134626511Y-90063631D01*
X134636115Y-90068353D01*
X134731353Y-90104067D01*
X134750294Y-90109118D01*
X134754863Y-90108962D01*
X134759272Y-90110175D01*
X134778868Y-90109662D01*
X135048877Y-90075911D01*
X136133552Y-90075911D01*
X136133552Y-90218768D01*
X136135473Y-90238277D01*
X136137353Y-90242817D01*
X136137831Y-90247709D01*
X136145317Y-90265827D01*
X136192936Y-90355113D01*
X136201029Y-90367250D01*
X136201904Y-90369020D01*
X136202955Y-90370140D01*
X136203811Y-90371423D01*
X136205340Y-90372680D01*
X136215321Y-90383312D01*
X136262940Y-90424978D01*
X136274589Y-90433306D01*
X136276085Y-90434704D01*
X136277555Y-90435426D01*
X136278887Y-90436379D01*
X136280825Y-90437034D01*
X136293677Y-90443353D01*
X136388915Y-90479068D01*
X136407856Y-90484119D01*
X136412426Y-90483963D01*
X136416835Y-90485176D01*
X136436432Y-90484663D01*
X136722146Y-90448948D01*
X136741266Y-90444622D01*
X136743099Y-90443579D01*
X136745180Y-90443231D01*
X136762741Y-90434520D01*
X136857980Y-90374997D01*
X136863213Y-90370962D01*
X136865324Y-90369939D01*
X136869265Y-90366296D01*
X136873505Y-90363028D01*
X136874863Y-90361122D01*
X136879721Y-90356634D01*
X136927340Y-90303062D01*
X136931287Y-90297630D01*
X136933037Y-90296039D01*
X136935754Y-90291485D01*
X136938866Y-90287204D01*
X136939639Y-90284973D01*
X136943082Y-90279205D01*
X136990701Y-90178015D01*
X136997270Y-90159544D01*
X136997382Y-90157153D01*
X136998298Y-90154944D01*
X137000219Y-90135435D01*
X137000219Y-89992578D01*
X136998298Y-89973069D01*
X136996417Y-89968528D01*
X136995940Y-89963637D01*
X136988455Y-89945520D01*
X136940835Y-89856233D01*
X136932740Y-89844092D01*
X136931867Y-89842327D01*
X136930817Y-89841208D01*
X136929960Y-89839923D01*
X136928427Y-89838663D01*
X136918450Y-89828034D01*
X136870830Y-89786367D01*
X136859176Y-89778035D01*
X136857684Y-89776641D01*
X136856217Y-89775919D01*
X136854883Y-89774966D01*
X136852941Y-89774309D01*
X136840092Y-89767992D01*
X136744854Y-89732278D01*
X136725913Y-89727227D01*
X136721343Y-89727382D01*
X136716935Y-89726170D01*
X136697338Y-89726683D01*
X136411625Y-89762397D01*
X136392505Y-89766723D01*
X136390669Y-89767766D01*
X136388589Y-89768115D01*
X136371028Y-89776825D01*
X136275790Y-89836349D01*
X136270555Y-89840384D01*
X136268446Y-89841407D01*
X136264508Y-89845046D01*
X136260264Y-89848318D01*
X136258903Y-89850225D01*
X136254049Y-89854712D01*
X136206430Y-89908283D01*
X136202481Y-89913715D01*
X136200734Y-89915306D01*
X136198018Y-89919857D01*
X136194905Y-89924141D01*
X136194131Y-89926371D01*
X136190689Y-89932140D01*
X136143070Y-90033332D01*
X136136501Y-90051802D01*
X136136388Y-90054192D01*
X136135473Y-90056402D01*
X136133552Y-90075911D01*
X135048877Y-90075911D01*
X135302678Y-90044186D01*
X135321798Y-90039860D01*
X135355716Y-90020572D01*
X135379671Y-89989773D01*
X135390016Y-89952151D01*
X135385176Y-89913435D01*
X135377315Y-89899612D01*
X135380757Y-89892300D01*
X135387326Y-89873829D01*
X135387438Y-89871438D01*
X135388354Y-89869229D01*
X135390275Y-89849720D01*
X135390275Y-89611624D01*
X135388354Y-89592115D01*
X135386473Y-89587574D01*
X135385996Y-89582683D01*
X135378510Y-89564565D01*
X135346466Y-89504482D01*
X136133552Y-89504482D01*
X136133552Y-89599720D01*
X136135473Y-89619229D01*
X136150405Y-89655277D01*
X136177995Y-89682867D01*
X136214043Y-89697799D01*
X136253061Y-89697799D01*
X136289109Y-89682867D01*
X136316699Y-89655277D01*
X136331631Y-89619229D01*
X136333552Y-89599720D01*
X136333552Y-89526835D01*
X136365503Y-89458937D01*
X136393979Y-89426901D01*
X136458320Y-89386688D01*
X136912622Y-89329900D01*
X136931742Y-89325574D01*
X136965660Y-89306286D01*
X136989615Y-89275487D01*
X136999960Y-89237865D01*
X136995121Y-89199148D01*
X136975833Y-89165231D01*
X136945034Y-89141276D01*
X136907412Y-89130931D01*
X136887815Y-89131444D01*
X136221148Y-89214778D01*
X136202028Y-89219104D01*
X136168111Y-89238392D01*
X136144156Y-89269191D01*
X136133811Y-89306813D01*
X136138650Y-89345530D01*
X136157938Y-89379447D01*
X136175459Y-89393074D01*
X136143070Y-89461903D01*
X136136501Y-89480373D01*
X136136388Y-89482763D01*
X136135473Y-89484973D01*
X136133552Y-89504482D01*
X135346466Y-89504482D01*
X135330891Y-89475280D01*
X135324951Y-89466372D01*
X135323870Y-89463994D01*
X135322530Y-89462742D01*
X135320015Y-89458970D01*
X135307344Y-89448552D01*
X135295361Y-89437355D01*
X135291293Y-89435355D01*
X135289876Y-89434190D01*
X135287374Y-89433428D01*
X135277768Y-89428706D01*
X135182530Y-89392991D01*
X135163588Y-89387940D01*
X135159018Y-89388095D01*
X135154610Y-89386883D01*
X135135013Y-89387396D01*
X135039775Y-89399301D01*
X135020655Y-89403627D01*
X135018819Y-89404670D01*
X135016740Y-89405019D01*
X134999179Y-89413729D01*
X134903941Y-89473253D01*
X134888415Y-89485222D01*
X134883176Y-89492567D01*
X134876504Y-89498639D01*
X134866459Y-89515473D01*
X134818840Y-89616665D01*
X134812271Y-89635135D01*
X134812158Y-89637525D01*
X134811243Y-89639735D01*
X134809322Y-89659244D01*
X134809322Y-89874984D01*
X134794665Y-89906130D01*
X134778508Y-89908150D01*
X134741693Y-89894344D01*
X134723608Y-89860434D01*
X134723608Y-89717311D01*
X134761709Y-89636346D01*
X134768278Y-89617876D01*
X134770116Y-89578901D01*
X134756900Y-89542189D01*
X134730641Y-89513330D01*
X134695337Y-89496716D01*
X134656362Y-89494878D01*
X134619650Y-89508094D01*
X134590790Y-89534353D01*
X134580745Y-89551187D01*
X134533126Y-89652379D01*
X134526557Y-89670849D01*
X134526444Y-89673239D01*
X134525529Y-89675449D01*
X134523608Y-89694958D01*
X134032811Y-89694958D01*
X134032811Y-88837815D01*
X134523608Y-88837815D01*
X134523608Y-88980672D01*
X134525529Y-89000181D01*
X134527409Y-89004721D01*
X134527887Y-89009613D01*
X134535373Y-89027731D01*
X134582992Y-89117017D01*
X134591085Y-89129154D01*
X134591960Y-89130924D01*
X134593011Y-89132044D01*
X134593867Y-89133327D01*
X134595396Y-89134584D01*
X134605377Y-89145216D01*
X134652996Y-89186882D01*
X134664645Y-89195210D01*
X134666141Y-89196608D01*
X134667611Y-89197330D01*
X134668943Y-89198283D01*
X134670881Y-89198938D01*
X134683733Y-89205257D01*
X134778971Y-89240972D01*
X134797912Y-89246023D01*
X134802482Y-89245867D01*
X134806891Y-89247080D01*
X134826488Y-89246567D01*
X135112202Y-89210852D01*
X135131322Y-89206526D01*
X135133155Y-89205483D01*
X135135236Y-89205135D01*
X135152797Y-89196424D01*
X135248036Y-89136901D01*
X135253269Y-89132866D01*
X135255380Y-89131843D01*
X135259321Y-89128200D01*
X135263561Y-89124932D01*
X135264919Y-89123026D01*
X135269777Y-89118538D01*
X135317396Y-89064966D01*
X135321343Y-89059534D01*
X135323093Y-89057943D01*
X135325810Y-89053389D01*
X135328922Y-89049108D01*
X135329695Y-89046877D01*
X135333138Y-89041109D01*
X135380757Y-88939919D01*
X135387326Y-88921448D01*
X135387438Y-88919057D01*
X135388354Y-88916848D01*
X135390275Y-88897339D01*
X135390275Y-88754482D01*
X135388354Y-88734973D01*
X135386473Y-88730432D01*
X135385996Y-88725541D01*
X135378511Y-88707424D01*
X135330891Y-88618137D01*
X135322796Y-88605996D01*
X135321923Y-88604231D01*
X135320873Y-88603112D01*
X135320016Y-88601827D01*
X135318483Y-88600567D01*
X135308506Y-88589938D01*
X135260886Y-88548271D01*
X135249232Y-88539939D01*
X135247740Y-88538545D01*
X135246273Y-88537823D01*
X135244939Y-88536870D01*
X135242997Y-88536213D01*
X135230148Y-88529896D01*
X135134910Y-88494182D01*
X135115969Y-88489131D01*
X135111399Y-88489286D01*
X135106991Y-88488074D01*
X135087394Y-88488587D01*
X134801681Y-88524301D01*
X134782561Y-88528627D01*
X134780725Y-88529670D01*
X134778645Y-88530019D01*
X134761084Y-88538729D01*
X134665846Y-88598253D01*
X134660611Y-88602288D01*
X134658502Y-88603311D01*
X134654564Y-88606950D01*
X134650320Y-88610222D01*
X134648959Y-88612129D01*
X134644105Y-88616616D01*
X134596486Y-88670187D01*
X134592537Y-88675619D01*
X134590790Y-88677210D01*
X134588074Y-88681761D01*
X134584961Y-88686045D01*
X134584187Y-88688275D01*
X134580745Y-88694044D01*
X134533126Y-88795236D01*
X134526557Y-88813706D01*
X134526444Y-88816096D01*
X134525529Y-88818306D01*
X134523608Y-88837815D01*
X134032811Y-88837815D01*
X134032811Y-88355672D01*
X135800219Y-88355672D01*
X135800219Y-88736625D01*
X135802140Y-88756134D01*
X135804020Y-88760674D01*
X135804498Y-88765566D01*
X135811984Y-88783684D01*
X135859603Y-88872969D01*
X135867691Y-88885099D01*
X135868570Y-88886875D01*
X135869626Y-88888000D01*
X135870479Y-88889279D01*
X135872003Y-88890532D01*
X135881987Y-88901167D01*
X135929606Y-88942834D01*
X135941262Y-88951168D01*
X135942753Y-88952561D01*
X135944216Y-88953280D01*
X135945553Y-88954236D01*
X135947497Y-88954893D01*
X135960345Y-88961210D01*
X136055583Y-88996924D01*
X136074524Y-89001975D01*
X136079093Y-89001819D01*
X136083502Y-89003032D01*
X136103098Y-89002519D01*
X136245956Y-88984662D01*
X136265076Y-88980336D01*
X136266909Y-88979293D01*
X136268990Y-88978945D01*
X136286552Y-88970234D01*
X136381790Y-88910710D01*
X136387023Y-88906675D01*
X136389134Y-88905652D01*
X136393075Y-88902009D01*
X136397315Y-88898741D01*
X136398673Y-88896836D01*
X136403531Y-88892347D01*
X136451150Y-88838775D01*
X136455097Y-88833344D01*
X136456846Y-88831753D01*
X136459562Y-88827199D01*
X136462675Y-88822918D01*
X136463448Y-88820687D01*
X136466891Y-88814919D01*
X136514510Y-88713729D01*
X136521079Y-88695258D01*
X136521191Y-88692867D01*
X136522107Y-88690658D01*
X136524028Y-88671149D01*
X136524028Y-88378474D01*
X136912622Y-88329900D01*
X136931742Y-88325574D01*
X136965660Y-88306286D01*
X136989615Y-88275487D01*
X136999960Y-88237865D01*
X136995121Y-88199148D01*
X136975833Y-88165231D01*
X136945034Y-88141276D01*
X136907412Y-88130931D01*
X136887815Y-88131444D01*
X135887816Y-88256444D01*
X135882737Y-88257593D01*
X135880710Y-88257593D01*
X135878269Y-88258603D01*
X135868695Y-88260770D01*
X135857041Y-88267396D01*
X135844662Y-88272525D01*
X135840228Y-88276958D01*
X135834778Y-88280058D01*
X135826549Y-88290637D01*
X135817072Y-88300115D01*
X135814672Y-88305907D01*
X135810823Y-88310857D01*
X135807269Y-88323778D01*
X135802140Y-88336163D01*
X135801177Y-88345933D01*
X135800478Y-88348479D01*
X135800729Y-88350489D01*
X135800219Y-88355672D01*
X134032811Y-88355672D01*
X134032811Y-87736624D01*
X134190275Y-87736624D01*
X134190275Y-88069958D01*
X134192196Y-88089467D01*
X134194076Y-88094007D01*
X134194554Y-88098899D01*
X134202040Y-88117017D01*
X134249659Y-88206302D01*
X134257747Y-88218432D01*
X134258626Y-88220208D01*
X134259682Y-88221333D01*
X134260535Y-88222612D01*
X134262059Y-88223865D01*
X134272043Y-88234500D01*
X134319662Y-88276167D01*
X134331318Y-88284501D01*
X134332809Y-88285894D01*
X134334272Y-88286613D01*
X134335609Y-88287569D01*
X134337553Y-88288226D01*
X134350401Y-88294543D01*
X134445639Y-88330257D01*
X134464580Y-88335308D01*
X134469148Y-88335152D01*
X134473557Y-88336365D01*
X134493154Y-88335852D01*
X134588392Y-88323948D01*
X134607512Y-88319622D01*
X134609345Y-88318579D01*
X134611427Y-88318231D01*
X134628989Y-88309520D01*
X134724227Y-88249996D01*
X134729462Y-88245959D01*
X134731572Y-88244937D01*
X134735510Y-88241297D01*
X134739752Y-88238027D01*
X134741111Y-88236120D01*
X134745968Y-88231632D01*
X134751476Y-88225434D01*
X134795853Y-88264263D01*
X134807502Y-88272591D01*
X134808998Y-88273989D01*
X134810468Y-88274711D01*
X134811800Y-88275664D01*
X134813738Y-88276319D01*
X134826590Y-88282638D01*
X134921828Y-88318353D01*
X134940769Y-88323404D01*
X134945339Y-88323248D01*
X134949748Y-88324461D01*
X134969345Y-88323948D01*
X135112202Y-88306090D01*
X135131322Y-88301764D01*
X135133155Y-88300721D01*
X135135236Y-88300373D01*
X135152797Y-88291662D01*
X135248036Y-88232139D01*
X135253269Y-88228104D01*
X135255380Y-88227081D01*
X135259321Y-88223438D01*
X135263561Y-88220170D01*
X135264919Y-88218264D01*
X135269777Y-88213776D01*
X135317396Y-88160204D01*
X135321343Y-88154772D01*
X135323093Y-88153181D01*
X135325810Y-88148627D01*
X135328922Y-88144346D01*
X135329695Y-88142115D01*
X135333138Y-88136347D01*
X135380757Y-88035157D01*
X135387326Y-88016686D01*
X135387438Y-88014295D01*
X135388354Y-88012086D01*
X135390275Y-87992577D01*
X135390275Y-87611624D01*
X135388354Y-87592115D01*
X135385954Y-87586322D01*
X135385177Y-87580100D01*
X135378550Y-87568446D01*
X135373422Y-87556067D01*
X135368988Y-87551633D01*
X135365889Y-87546183D01*
X135355309Y-87537954D01*
X135345832Y-87528477D01*
X135340039Y-87526077D01*
X135335090Y-87522228D01*
X135322168Y-87518674D01*
X135309784Y-87513545D01*
X135303512Y-87513545D01*
X135297468Y-87511883D01*
X135277871Y-87512396D01*
X134277872Y-87637396D01*
X134272793Y-87638545D01*
X134270766Y-87638545D01*
X134268325Y-87639555D01*
X134258751Y-87641722D01*
X134247097Y-87648348D01*
X134234718Y-87653477D01*
X134230284Y-87657910D01*
X134224834Y-87661010D01*
X134216605Y-87671589D01*
X134207128Y-87681067D01*
X134204728Y-87686859D01*
X134200879Y-87691809D01*
X134197325Y-87704730D01*
X134192196Y-87717115D01*
X134191233Y-87726885D01*
X134190534Y-87729431D01*
X134190785Y-87731441D01*
X134190275Y-87736624D01*
X134032811Y-87736624D01*
X134032811Y-86421148D01*
X134809322Y-86421148D01*
X134809322Y-87183053D01*
X134811243Y-87202562D01*
X134826175Y-87238610D01*
X134853765Y-87266200D01*
X134889813Y-87281132D01*
X134928831Y-87281132D01*
X134964879Y-87266200D01*
X134992469Y-87238610D01*
X135007401Y-87202562D01*
X135009322Y-87183053D01*
X135009322Y-87040196D01*
X136419266Y-87040196D01*
X136419266Y-87802101D01*
X136421187Y-87821610D01*
X136436119Y-87857658D01*
X136463709Y-87885248D01*
X136499757Y-87900180D01*
X136538775Y-87900180D01*
X136574823Y-87885248D01*
X136602413Y-87857658D01*
X136617345Y-87821610D01*
X136619266Y-87802101D01*
X136619266Y-87040196D01*
X136617345Y-87020687D01*
X136602413Y-86984639D01*
X136574823Y-86957049D01*
X136538775Y-86942117D01*
X136499757Y-86942117D01*
X136463709Y-86957049D01*
X136436119Y-86984639D01*
X136421187Y-87020687D01*
X136419266Y-87040196D01*
X135009322Y-87040196D01*
X135009322Y-86421148D01*
X135007401Y-86401639D01*
X134992469Y-86365591D01*
X134964879Y-86338001D01*
X134928831Y-86323069D01*
X134889813Y-86323069D01*
X134853765Y-86338001D01*
X134826175Y-86365591D01*
X134811243Y-86401639D01*
X134809322Y-86421148D01*
X134032811Y-86421148D01*
X134032811Y-85641387D01*
X134190275Y-85641387D01*
X134190275Y-85831863D01*
X134192196Y-85851372D01*
X134194076Y-85855912D01*
X134194554Y-85860804D01*
X134202040Y-85878922D01*
X134249659Y-85968207D01*
X134257747Y-85980337D01*
X134258626Y-85982113D01*
X134259682Y-85983238D01*
X134260535Y-85984517D01*
X134262059Y-85985770D01*
X134272043Y-85996405D01*
X134367281Y-86079740D01*
X134367580Y-86079954D01*
X134367691Y-86080096D01*
X134368120Y-86080340D01*
X134383228Y-86091141D01*
X134392815Y-86094383D01*
X134401609Y-86099384D01*
X134419716Y-86103481D01*
X134420190Y-86103641D01*
X134420370Y-86103628D01*
X134420729Y-86103710D01*
X134611205Y-86127519D01*
X134614901Y-86127615D01*
X134616415Y-86128032D01*
X134623608Y-86127843D01*
X134630801Y-86128032D01*
X134632314Y-86127615D01*
X134636011Y-86127519D01*
X134773093Y-86110384D01*
X135800478Y-86110384D01*
X135805317Y-86149101D01*
X135824605Y-86183018D01*
X135855404Y-86206973D01*
X135893026Y-86217318D01*
X135912622Y-86216805D01*
X136220349Y-86178339D01*
X135825478Y-86622570D01*
X135813953Y-86638427D01*
X135801164Y-86675290D01*
X135803455Y-86714241D01*
X135820478Y-86749350D01*
X135849640Y-86775272D01*
X135886503Y-86788061D01*
X135925454Y-86785770D01*
X135960563Y-86768747D01*
X135974960Y-86755442D01*
X136347416Y-86336429D01*
X136847219Y-86648806D01*
X136864781Y-86657516D01*
X136903263Y-86663960D01*
X136941282Y-86655186D01*
X136973050Y-86632531D01*
X136993729Y-86599444D01*
X137000172Y-86560961D01*
X136991399Y-86522942D01*
X136968744Y-86491175D01*
X136953219Y-86479206D01*
X136482187Y-86184811D01*
X136521389Y-86140709D01*
X136912622Y-86091805D01*
X136931742Y-86087479D01*
X136965660Y-86068191D01*
X136989615Y-86037392D01*
X136999960Y-85999770D01*
X136995121Y-85961053D01*
X136975833Y-85927136D01*
X136945034Y-85903181D01*
X136907412Y-85892836D01*
X136887815Y-85893349D01*
X135887816Y-86018349D01*
X135868695Y-86022675D01*
X135834778Y-86041963D01*
X135810823Y-86072762D01*
X135800478Y-86110384D01*
X134773093Y-86110384D01*
X134969344Y-86085853D01*
X134971926Y-86085268D01*
X134973112Y-86085309D01*
X134980748Y-86083272D01*
X134988464Y-86081527D01*
X134989496Y-86080940D01*
X134992054Y-86080258D01*
X135182530Y-86008829D01*
X135200122Y-86000180D01*
X135203544Y-85996982D01*
X135207761Y-85994938D01*
X135222158Y-85981633D01*
X135317397Y-85874490D01*
X135321345Y-85869057D01*
X135323093Y-85867467D01*
X135325808Y-85862915D01*
X135328922Y-85858632D01*
X135329695Y-85856401D01*
X135333138Y-85850633D01*
X135380757Y-85749443D01*
X135387326Y-85730972D01*
X135387438Y-85728581D01*
X135388354Y-85726372D01*
X135390275Y-85706863D01*
X135390275Y-85516387D01*
X135388354Y-85496878D01*
X135386473Y-85492337D01*
X135385996Y-85487446D01*
X135378511Y-85469329D01*
X135330891Y-85380042D01*
X135322798Y-85367904D01*
X135321923Y-85366135D01*
X135320871Y-85365014D01*
X135320016Y-85363732D01*
X135318486Y-85362474D01*
X135308506Y-85351843D01*
X135213267Y-85268510D01*
X135212969Y-85268297D01*
X135212858Y-85268154D01*
X135212423Y-85267906D01*
X135197320Y-85257109D01*
X135187735Y-85253867D01*
X135178940Y-85248866D01*
X135160829Y-85244768D01*
X135160358Y-85244609D01*
X135160178Y-85244621D01*
X135159820Y-85244540D01*
X134969345Y-85220730D01*
X134965647Y-85220633D01*
X134964134Y-85220217D01*
X134956941Y-85220405D01*
X134949748Y-85220217D01*
X134948234Y-85220633D01*
X134944537Y-85220730D01*
X134611204Y-85262397D01*
X134608621Y-85262981D01*
X134607437Y-85262941D01*
X134599808Y-85264975D01*
X134592084Y-85266723D01*
X134591050Y-85267310D01*
X134588496Y-85267992D01*
X134398020Y-85339420D01*
X134380428Y-85348069D01*
X134377004Y-85351267D01*
X134372788Y-85353312D01*
X134358391Y-85366617D01*
X134263153Y-85473760D01*
X134259205Y-85479190D01*
X134257457Y-85480782D01*
X134254740Y-85485335D01*
X134251628Y-85489617D01*
X134250854Y-85491847D01*
X134247412Y-85497616D01*
X134199793Y-85598808D01*
X134193224Y-85617278D01*
X134193111Y-85619668D01*
X134192196Y-85621878D01*
X134190275Y-85641387D01*
X134032811Y-85641387D01*
X134032811Y-84967527D01*
X134190534Y-84967527D01*
X134195373Y-85006244D01*
X134214661Y-85040161D01*
X134245460Y-85064116D01*
X134283082Y-85074461D01*
X134302678Y-85073948D01*
X134392142Y-85062765D01*
X135800478Y-85062765D01*
X135805317Y-85101482D01*
X135824605Y-85135399D01*
X135855404Y-85159354D01*
X135893026Y-85169699D01*
X135912622Y-85169186D01*
X136276409Y-85123712D01*
X136276409Y-85493584D01*
X135887816Y-85542159D01*
X135868695Y-85546485D01*
X135834778Y-85565773D01*
X135810823Y-85596572D01*
X135800478Y-85634194D01*
X135805317Y-85672911D01*
X135824605Y-85706828D01*
X135855404Y-85730783D01*
X135893026Y-85741128D01*
X135912622Y-85740615D01*
X136912622Y-85615615D01*
X136931742Y-85611289D01*
X136965660Y-85592001D01*
X136989615Y-85561202D01*
X136999960Y-85523580D01*
X136995121Y-85484863D01*
X136975833Y-85450946D01*
X136945034Y-85426991D01*
X136907412Y-85416646D01*
X136887815Y-85417159D01*
X136476409Y-85468584D01*
X136476409Y-85098712D01*
X136912622Y-85044186D01*
X136931742Y-85039860D01*
X136965660Y-85020572D01*
X136989615Y-84989773D01*
X136999960Y-84952151D01*
X136995121Y-84913434D01*
X136975833Y-84879517D01*
X136945034Y-84855562D01*
X136907412Y-84845217D01*
X136887815Y-84845730D01*
X135887816Y-84970730D01*
X135868695Y-84975056D01*
X135834778Y-84994344D01*
X135810823Y-85025143D01*
X135800478Y-85062765D01*
X134392142Y-85062765D01*
X135302678Y-84948948D01*
X135321798Y-84944622D01*
X135355716Y-84925334D01*
X135379671Y-84894535D01*
X135390016Y-84856913D01*
X135385177Y-84818196D01*
X135365889Y-84784279D01*
X135335090Y-84760324D01*
X135297468Y-84749979D01*
X135277871Y-84750492D01*
X134277872Y-84875492D01*
X134258751Y-84879818D01*
X134224834Y-84899106D01*
X134200879Y-84929905D01*
X134190534Y-84967527D01*
X134032811Y-84967527D01*
X134032811Y-83659244D01*
X134809322Y-83659244D01*
X134809322Y-84421149D01*
X134811243Y-84440658D01*
X134826175Y-84476706D01*
X134853765Y-84504296D01*
X134889813Y-84519228D01*
X134928831Y-84519228D01*
X134964879Y-84504296D01*
X134992469Y-84476706D01*
X135007401Y-84440658D01*
X135009322Y-84421149D01*
X135009322Y-84015146D01*
X135800478Y-84015146D01*
X135801973Y-84027113D01*
X135801646Y-84039175D01*
X135804371Y-84046295D01*
X135805317Y-84053863D01*
X135811282Y-84064352D01*
X135815593Y-84075616D01*
X135820835Y-84081151D01*
X135824605Y-84087780D01*
X135834126Y-84095185D01*
X135842423Y-84103946D01*
X135853525Y-84110274D01*
X135855404Y-84111735D01*
X135856727Y-84112098D01*
X135859454Y-84113653D01*
X136532209Y-84413990D01*
X135887816Y-84494540D01*
X135868695Y-84498866D01*
X135834778Y-84518154D01*
X135810823Y-84548953D01*
X135800478Y-84586575D01*
X135805317Y-84625292D01*
X135824605Y-84659209D01*
X135855404Y-84683164D01*
X135893026Y-84693509D01*
X135912622Y-84692996D01*
X136912622Y-84567996D01*
X136915682Y-84567303D01*
X136917055Y-84567341D01*
X136919278Y-84566489D01*
X136931742Y-84563670D01*
X136942230Y-84557705D01*
X136953496Y-84553394D01*
X136959032Y-84548151D01*
X136965660Y-84544382D01*
X136973065Y-84534860D01*
X136981826Y-84526564D01*
X136984934Y-84519600D01*
X136989615Y-84513583D01*
X136992813Y-84501952D01*
X136997731Y-84490936D01*
X136997938Y-84483313D01*
X136999960Y-84475961D01*
X136998463Y-84463991D01*
X136998792Y-84451932D01*
X136996066Y-84444811D01*
X136995121Y-84437244D01*
X136989155Y-84426754D01*
X136984845Y-84415491D01*
X136979602Y-84409955D01*
X136975833Y-84403327D01*
X136966311Y-84395921D01*
X136958015Y-84387161D01*
X136946912Y-84380832D01*
X136945034Y-84379372D01*
X136943710Y-84379008D01*
X136940984Y-84377454D01*
X136268228Y-84077116D01*
X136912622Y-83996567D01*
X136931742Y-83992241D01*
X136965660Y-83972953D01*
X136989615Y-83942154D01*
X136999960Y-83904532D01*
X136995121Y-83865815D01*
X136975833Y-83831898D01*
X136945034Y-83807943D01*
X136907412Y-83797598D01*
X136887815Y-83798111D01*
X135887816Y-83923111D01*
X135884755Y-83923803D01*
X135883383Y-83923766D01*
X135881159Y-83924616D01*
X135868695Y-83927437D01*
X135858205Y-83933402D01*
X135846942Y-83937713D01*
X135841406Y-83942955D01*
X135834778Y-83946725D01*
X135827372Y-83956246D01*
X135818612Y-83964543D01*
X135815502Y-83971506D01*
X135810823Y-83977524D01*
X135807625Y-83989150D01*
X135802706Y-84000171D01*
X135802498Y-84007797D01*
X135800478Y-84015146D01*
X135009322Y-84015146D01*
X135009322Y-83659244D01*
X135007401Y-83639735D01*
X134992469Y-83603687D01*
X134964879Y-83576097D01*
X134928831Y-83561165D01*
X134889813Y-83561165D01*
X134853765Y-83576097D01*
X134826175Y-83603687D01*
X134811243Y-83639735D01*
X134809322Y-83659244D01*
X134032811Y-83659244D01*
X134032811Y-82879482D01*
X134190275Y-82879482D01*
X134190275Y-83117578D01*
X134192196Y-83137087D01*
X134194076Y-83141627D01*
X134194554Y-83146519D01*
X134202040Y-83164637D01*
X134249659Y-83253922D01*
X134257747Y-83266052D01*
X134258626Y-83267828D01*
X134259682Y-83268953D01*
X134260535Y-83270232D01*
X134262059Y-83271485D01*
X134272043Y-83282120D01*
X134319662Y-83323787D01*
X134331318Y-83332121D01*
X134332809Y-83333514D01*
X134334272Y-83334233D01*
X134335609Y-83335189D01*
X134337553Y-83335846D01*
X134350401Y-83342163D01*
X134445639Y-83377877D01*
X134464580Y-83382928D01*
X134469148Y-83382772D01*
X134473557Y-83383985D01*
X134493154Y-83383472D01*
X134588392Y-83371568D01*
X134596539Y-83369724D01*
X134599120Y-83369629D01*
X134603253Y-83368205D01*
X134607512Y-83367242D01*
X134609754Y-83365966D01*
X134617655Y-83363246D01*
X134760512Y-83297769D01*
X134777447Y-83287894D01*
X134778198Y-83287084D01*
X134779190Y-83286604D01*
X134793587Y-83273299D01*
X135190275Y-82827025D01*
X135190275Y-83183054D01*
X135192196Y-83202563D01*
X135207128Y-83238611D01*
X135234718Y-83266201D01*
X135270766Y-83281133D01*
X135309784Y-83281133D01*
X135345832Y-83266201D01*
X135373422Y-83238611D01*
X135388354Y-83202563D01*
X135390275Y-83183054D01*
X135390275Y-82705624D01*
X136752858Y-82705624D01*
X136757699Y-82744341D01*
X136776987Y-82778258D01*
X136807786Y-82802213D01*
X136845408Y-82812558D01*
X136865005Y-82812044D01*
X136912624Y-82806091D01*
X136931744Y-82801764D01*
X136933575Y-82800722D01*
X136935657Y-82800374D01*
X136953218Y-82791663D01*
X137048457Y-82732140D01*
X137053692Y-82728103D01*
X137055802Y-82727081D01*
X137059740Y-82723441D01*
X137063982Y-82720171D01*
X137065342Y-82718263D01*
X137070198Y-82713776D01*
X137117818Y-82660204D01*
X137129343Y-82644346D01*
X137142131Y-82607483D01*
X137139840Y-82568532D01*
X137122817Y-82533423D01*
X137093655Y-82507501D01*
X137056792Y-82494713D01*
X137017841Y-82497004D01*
X136982732Y-82514027D01*
X136968335Y-82527332D01*
X136930266Y-82570159D01*
X136865927Y-82610371D01*
X136840195Y-82613588D01*
X136821075Y-82617915D01*
X136787158Y-82637203D01*
X136763203Y-82668002D01*
X136752858Y-82705624D01*
X135390275Y-82705624D01*
X135390275Y-82564006D01*
X135388354Y-82544497D01*
X135387213Y-82541744D01*
X135387039Y-82538771D01*
X135379784Y-82523809D01*
X135373422Y-82508449D01*
X135371315Y-82506342D01*
X135370016Y-82503662D01*
X135357586Y-82492613D01*
X135345832Y-82480859D01*
X135343080Y-82479719D01*
X135340854Y-82477740D01*
X135325146Y-82472290D01*
X135309784Y-82465927D01*
X135306804Y-82465927D01*
X135303991Y-82464951D01*
X135287397Y-82465927D01*
X135270766Y-82465927D01*
X135268013Y-82467067D01*
X135265040Y-82467242D01*
X135250078Y-82474496D01*
X135234718Y-82480859D01*
X135232611Y-82482965D01*
X135229931Y-82484265D01*
X135215534Y-82497570D01*
X134658070Y-83124715D01*
X134548315Y-83175020D01*
X134492794Y-83181960D01*
X134437666Y-83161287D01*
X134417516Y-83143656D01*
X134390275Y-83092578D01*
X134390275Y-82901836D01*
X134422227Y-82833937D01*
X134460254Y-82791157D01*
X134471779Y-82775300D01*
X134484568Y-82738437D01*
X134482277Y-82699486D01*
X134465255Y-82664377D01*
X134436092Y-82638455D01*
X134399230Y-82625666D01*
X134360279Y-82627957D01*
X134325169Y-82644979D01*
X134310772Y-82658284D01*
X134263153Y-82711855D01*
X134259204Y-82717287D01*
X134257457Y-82718878D01*
X134254741Y-82723429D01*
X134251628Y-82727713D01*
X134250854Y-82729943D01*
X134247412Y-82735712D01*
X134199793Y-82836902D01*
X134193224Y-82855372D01*
X134193111Y-82857763D01*
X134192196Y-82859973D01*
X134190275Y-82879482D01*
X134032811Y-82879482D01*
X134032811Y-81736625D01*
X134190275Y-81736625D01*
X134190275Y-82355673D01*
X134192196Y-82375182D01*
X134207128Y-82411230D01*
X134234718Y-82438820D01*
X134270766Y-82453752D01*
X134309784Y-82453752D01*
X134345832Y-82438820D01*
X134360986Y-82426384D01*
X134596814Y-82190554D01*
X134630611Y-82253922D01*
X134638699Y-82266052D01*
X134639578Y-82267828D01*
X134640634Y-82268953D01*
X134641487Y-82270232D01*
X134643011Y-82271485D01*
X134652995Y-82282120D01*
X134700614Y-82323787D01*
X134712270Y-82332121D01*
X134713761Y-82333514D01*
X134715224Y-82334233D01*
X134716561Y-82335189D01*
X134718505Y-82335846D01*
X134731353Y-82342163D01*
X134826591Y-82377877D01*
X134845532Y-82382928D01*
X134850101Y-82382772D01*
X134854510Y-82383985D01*
X134874107Y-82383472D01*
X135112202Y-82353710D01*
X135131322Y-82349384D01*
X135133155Y-82348341D01*
X135135236Y-82347993D01*
X135152797Y-82339282D01*
X135248036Y-82279759D01*
X135253269Y-82275724D01*
X135255380Y-82274701D01*
X135259321Y-82271058D01*
X135263561Y-82267790D01*
X135264919Y-82265884D01*
X135269777Y-82261396D01*
X135317396Y-82207824D01*
X135321343Y-82202392D01*
X135323093Y-82200801D01*
X135325810Y-82196247D01*
X135328922Y-82191966D01*
X135329695Y-82189735D01*
X135333138Y-82183967D01*
X135380757Y-82082777D01*
X135387326Y-82064306D01*
X135387438Y-82061915D01*
X135388354Y-82059706D01*
X135390275Y-82040197D01*
X135390275Y-81831863D01*
X135800219Y-81831863D01*
X135800219Y-82308054D01*
X135802140Y-82327563D01*
X135817072Y-82363611D01*
X135844662Y-82391201D01*
X135880710Y-82406133D01*
X135919728Y-82406133D01*
X135955776Y-82391201D01*
X135983366Y-82363611D01*
X135998298Y-82327563D01*
X136000219Y-82308054D01*
X136000219Y-81911863D01*
X136182010Y-81870960D01*
X136181171Y-81879482D01*
X136181171Y-82117578D01*
X136183092Y-82137087D01*
X136184972Y-82141627D01*
X136185450Y-82146519D01*
X136192936Y-82164637D01*
X136240555Y-82253922D01*
X136248643Y-82266052D01*
X136249522Y-82267828D01*
X136250578Y-82268953D01*
X136251431Y-82270232D01*
X136252955Y-82271485D01*
X136262939Y-82282120D01*
X136310558Y-82323787D01*
X136322214Y-82332121D01*
X136323705Y-82333514D01*
X136325168Y-82334233D01*
X136326505Y-82335189D01*
X136328449Y-82335846D01*
X136341297Y-82342163D01*
X136436535Y-82377877D01*
X136455476Y-82382928D01*
X136460045Y-82382772D01*
X136464454Y-82383985D01*
X136484051Y-82383472D01*
X136722146Y-82353710D01*
X136741266Y-82349384D01*
X136743099Y-82348341D01*
X136745180Y-82347993D01*
X136762741Y-82339282D01*
X136857980Y-82279759D01*
X136863213Y-82275724D01*
X136865324Y-82274701D01*
X136869265Y-82271058D01*
X136873505Y-82267790D01*
X136874863Y-82265884D01*
X136879721Y-82261396D01*
X136927340Y-82207824D01*
X136931287Y-82202392D01*
X136933037Y-82200801D01*
X136935754Y-82196247D01*
X136938866Y-82191966D01*
X136939639Y-82189735D01*
X136943082Y-82183967D01*
X136990701Y-82082777D01*
X136997270Y-82064306D01*
X136997382Y-82061915D01*
X136998298Y-82059706D01*
X137000219Y-82040197D01*
X137000219Y-81802101D01*
X136998298Y-81782592D01*
X136996417Y-81778051D01*
X136995940Y-81773160D01*
X136988454Y-81755042D01*
X136940835Y-81665757D01*
X136932742Y-81653621D01*
X136931867Y-81651851D01*
X136930814Y-81650729D01*
X136929959Y-81649447D01*
X136928431Y-81648190D01*
X136918450Y-81637558D01*
X136870830Y-81595891D01*
X136854883Y-81584490D01*
X136817921Y-81571990D01*
X136778989Y-81574586D01*
X136744014Y-81591882D01*
X136718321Y-81621246D01*
X136705821Y-81658208D01*
X136708417Y-81697140D01*
X136725713Y-81732115D01*
X136739130Y-81746407D01*
X136772977Y-81776023D01*
X136800219Y-81827100D01*
X136800219Y-82017842D01*
X136768266Y-82085741D01*
X136739787Y-82117779D01*
X136675450Y-82157990D01*
X136483689Y-82181960D01*
X136428562Y-82161287D01*
X136408412Y-82143656D01*
X136381171Y-82092578D01*
X136381171Y-81901836D01*
X136413123Y-81833937D01*
X136451150Y-81791157D01*
X136462675Y-81775300D01*
X136465353Y-81767578D01*
X136469724Y-81760671D01*
X136471689Y-81749316D01*
X136475464Y-81738437D01*
X136474984Y-81730281D01*
X136476379Y-81722225D01*
X136473849Y-81710980D01*
X136473173Y-81699486D01*
X136469608Y-81692134D01*
X136467814Y-81684158D01*
X136461176Y-81674741D01*
X136456151Y-81664377D01*
X136450041Y-81658946D01*
X136445333Y-81652267D01*
X136435597Y-81646107D01*
X136426988Y-81638455D01*
X136419268Y-81635776D01*
X136412360Y-81631406D01*
X136401007Y-81629441D01*
X136390126Y-81625666D01*
X136381966Y-81626145D01*
X136373913Y-81624752D01*
X136354458Y-81627160D01*
X135878268Y-81734302D01*
X135859656Y-81740459D01*
X135852616Y-81745420D01*
X135844662Y-81748716D01*
X135836826Y-81756551D01*
X135827765Y-81762939D01*
X135823160Y-81770217D01*
X135817072Y-81776306D01*
X135812829Y-81786547D01*
X135806905Y-81795913D01*
X135805436Y-81804395D01*
X135802140Y-81812354D01*
X135800219Y-81831863D01*
X135390275Y-81831863D01*
X135390275Y-81754482D01*
X135388354Y-81734973D01*
X135386473Y-81730432D01*
X135385996Y-81725541D01*
X135378510Y-81707423D01*
X135330891Y-81618138D01*
X135322798Y-81606002D01*
X135321923Y-81604232D01*
X135320870Y-81603110D01*
X135320015Y-81601828D01*
X135318487Y-81600571D01*
X135308506Y-81589939D01*
X135260886Y-81548272D01*
X135244939Y-81536871D01*
X135207977Y-81524371D01*
X135169045Y-81526967D01*
X135134070Y-81544263D01*
X135108377Y-81573627D01*
X135095877Y-81610589D01*
X135098473Y-81649521D01*
X135115769Y-81684496D01*
X135129186Y-81698788D01*
X135163033Y-81728404D01*
X135190275Y-81779481D01*
X135190275Y-82017842D01*
X135158322Y-82085741D01*
X135129843Y-82117779D01*
X135065506Y-82157990D01*
X134873745Y-82181960D01*
X134818618Y-82161287D01*
X134798468Y-82143656D01*
X134771227Y-82092578D01*
X134771227Y-81974721D01*
X134769306Y-81955212D01*
X134754374Y-81919164D01*
X134726784Y-81891574D01*
X134690736Y-81876642D01*
X134651718Y-81876642D01*
X134626227Y-81887200D01*
X134615669Y-81891574D01*
X134600516Y-81904011D01*
X134390275Y-82114251D01*
X134390275Y-81736625D01*
X134388354Y-81717116D01*
X134373422Y-81681068D01*
X134345832Y-81653478D01*
X134309784Y-81638546D01*
X134270766Y-81638546D01*
X134234718Y-81653478D01*
X134207128Y-81681068D01*
X134192196Y-81717116D01*
X134190275Y-81736625D01*
X134032811Y-81736625D01*
X134032811Y-80831863D01*
X134190275Y-80831863D01*
X134190275Y-81212816D01*
X134192196Y-81232325D01*
X134194076Y-81236865D01*
X134194554Y-81241757D01*
X134202040Y-81259875D01*
X134249659Y-81349160D01*
X134257747Y-81361290D01*
X134258626Y-81363066D01*
X134259682Y-81364191D01*
X134260535Y-81365470D01*
X134262059Y-81366723D01*
X134272043Y-81377358D01*
X134319662Y-81419025D01*
X134331318Y-81427359D01*
X134332809Y-81428752D01*
X134334272Y-81429471D01*
X134335609Y-81430427D01*
X134337553Y-81431084D01*
X134350401Y-81437401D01*
X134445639Y-81473115D01*
X134464580Y-81478166D01*
X134469149Y-81478010D01*
X134473558Y-81479223D01*
X134493154Y-81478710D01*
X134636012Y-81460853D01*
X134655132Y-81456527D01*
X134656965Y-81455484D01*
X134659046Y-81455136D01*
X134676608Y-81446425D01*
X134771846Y-81386901D01*
X134777079Y-81382866D01*
X134779190Y-81381843D01*
X134783131Y-81378200D01*
X134787371Y-81374932D01*
X134788729Y-81373027D01*
X134793587Y-81368538D01*
X134841206Y-81314966D01*
X134845153Y-81309535D01*
X134846902Y-81307944D01*
X134849618Y-81303390D01*
X134852731Y-81299109D01*
X134853504Y-81296878D01*
X134856947Y-81291110D01*
X134904566Y-81189920D01*
X134911135Y-81171449D01*
X134911247Y-81169058D01*
X134912163Y-81166849D01*
X134914084Y-81147340D01*
X134914084Y-80974720D01*
X135800219Y-80974720D01*
X135800219Y-81212816D01*
X135802140Y-81232325D01*
X135804020Y-81236865D01*
X135804498Y-81241757D01*
X135811984Y-81259875D01*
X135859603Y-81349160D01*
X135867691Y-81361290D01*
X135868570Y-81363066D01*
X135869626Y-81364191D01*
X135870479Y-81365470D01*
X135872003Y-81366723D01*
X135881987Y-81377358D01*
X135929606Y-81419025D01*
X135941262Y-81427359D01*
X135942753Y-81428752D01*
X135944216Y-81429471D01*
X135945553Y-81430427D01*
X135947497Y-81431084D01*
X135960345Y-81437401D01*
X136055583Y-81473115D01*
X136074524Y-81478166D01*
X136079092Y-81478010D01*
X136083501Y-81479223D01*
X136103098Y-81478710D01*
X136198336Y-81466806D01*
X136206483Y-81464962D01*
X136209064Y-81464867D01*
X136213197Y-81463443D01*
X136217456Y-81462480D01*
X136219698Y-81461204D01*
X136227599Y-81458484D01*
X136370456Y-81393007D01*
X136387391Y-81383132D01*
X136388142Y-81382322D01*
X136389134Y-81381842D01*
X136403531Y-81368537D01*
X136800219Y-80922263D01*
X136800219Y-81278292D01*
X136802140Y-81297801D01*
X136817072Y-81333849D01*
X136844662Y-81361439D01*
X136880710Y-81376371D01*
X136919728Y-81376371D01*
X136955776Y-81361439D01*
X136983366Y-81333849D01*
X136998298Y-81297801D01*
X137000219Y-81278292D01*
X137000219Y-80659244D01*
X136998298Y-80639735D01*
X136997157Y-80636982D01*
X136996983Y-80634009D01*
X136989728Y-80619047D01*
X136983366Y-80603687D01*
X136981259Y-80601580D01*
X136979960Y-80598900D01*
X136967530Y-80587851D01*
X136955776Y-80576097D01*
X136953024Y-80574957D01*
X136950798Y-80572978D01*
X136935090Y-80567528D01*
X136919728Y-80561165D01*
X136916748Y-80561165D01*
X136913935Y-80560189D01*
X136897341Y-80561165D01*
X136880710Y-80561165D01*
X136877957Y-80562305D01*
X136874984Y-80562480D01*
X136860022Y-80569734D01*
X136844662Y-80576097D01*
X136842555Y-80578203D01*
X136839875Y-80579503D01*
X136825478Y-80592808D01*
X136268014Y-81219953D01*
X136158259Y-81270258D01*
X136102738Y-81277198D01*
X136047610Y-81256525D01*
X136027460Y-81238894D01*
X136000219Y-81187816D01*
X136000219Y-80997074D01*
X136032171Y-80929175D01*
X136070198Y-80886395D01*
X136081723Y-80870538D01*
X136094512Y-80833675D01*
X136092221Y-80794724D01*
X136075199Y-80759615D01*
X136046036Y-80733693D01*
X136009174Y-80720904D01*
X135970223Y-80723195D01*
X135935113Y-80740217D01*
X135920716Y-80753522D01*
X135873097Y-80807093D01*
X135869148Y-80812525D01*
X135867401Y-80814116D01*
X135864685Y-80818667D01*
X135861572Y-80822951D01*
X135860798Y-80825181D01*
X135857356Y-80830950D01*
X135809737Y-80932140D01*
X135803168Y-80950610D01*
X135803055Y-80953001D01*
X135802140Y-80955211D01*
X135800219Y-80974720D01*
X134914084Y-80974720D01*
X134914084Y-80854665D01*
X135302678Y-80806091D01*
X135321798Y-80801765D01*
X135355716Y-80782477D01*
X135379671Y-80751678D01*
X135390016Y-80714056D01*
X135385177Y-80675339D01*
X135365889Y-80641422D01*
X135335090Y-80617467D01*
X135297468Y-80607122D01*
X135277871Y-80607635D01*
X134277872Y-80732635D01*
X134272793Y-80733784D01*
X134270766Y-80733784D01*
X134268325Y-80734794D01*
X134258751Y-80736961D01*
X134247097Y-80743587D01*
X134234718Y-80748716D01*
X134230284Y-80753149D01*
X134224834Y-80756249D01*
X134216605Y-80766828D01*
X134207128Y-80776306D01*
X134204728Y-80782098D01*
X134200879Y-80787048D01*
X134197325Y-80799969D01*
X134192196Y-80812354D01*
X134191233Y-80822124D01*
X134190534Y-80824670D01*
X134190785Y-80826680D01*
X134190275Y-80831863D01*
X134032811Y-80831863D01*
X134032811Y-80022340D01*
X134190275Y-80022340D01*
X134190275Y-80260435D01*
X134191380Y-80271658D01*
X134191231Y-80274230D01*
X134191911Y-80277051D01*
X134192196Y-80279944D01*
X134193182Y-80282325D01*
X134195825Y-80293287D01*
X134243444Y-80430192D01*
X134251668Y-80447987D01*
X134277613Y-80477129D01*
X134312736Y-80494124D01*
X134351689Y-80496384D01*
X134388541Y-80483566D01*
X134417683Y-80457620D01*
X134434678Y-80422498D01*
X134436938Y-80383545D01*
X134432344Y-80364488D01*
X134390275Y-80243539D01*
X134390275Y-80044693D01*
X134422226Y-79976795D01*
X134450702Y-79944759D01*
X134515044Y-79904545D01*
X134563946Y-79898432D01*
X134619073Y-79919105D01*
X134639222Y-79936736D01*
X134672616Y-79999349D01*
X134717256Y-80172327D01*
X134718239Y-80175015D01*
X134718363Y-80176281D01*
X134721323Y-80183447D01*
X134723991Y-80190738D01*
X134724756Y-80191754D01*
X134725849Y-80194399D01*
X134773468Y-80283684D01*
X134781556Y-80295814D01*
X134782435Y-80297590D01*
X134783491Y-80298715D01*
X134784344Y-80299994D01*
X134785868Y-80301247D01*
X134795852Y-80311882D01*
X134843471Y-80353549D01*
X134855127Y-80361883D01*
X134856618Y-80363276D01*
X134858081Y-80363995D01*
X134859418Y-80364951D01*
X134861362Y-80365608D01*
X134874210Y-80371925D01*
X134969448Y-80407639D01*
X134988389Y-80412690D01*
X134992958Y-80412534D01*
X134997367Y-80413747D01*
X135016964Y-80413234D01*
X135112202Y-80401329D01*
X135131322Y-80397003D01*
X135133155Y-80395960D01*
X135135236Y-80395612D01*
X135152797Y-80386901D01*
X135248036Y-80327378D01*
X135253269Y-80323343D01*
X135255380Y-80322320D01*
X135259321Y-80318677D01*
X135263561Y-80315409D01*
X135264919Y-80313503D01*
X135269777Y-80309015D01*
X135317396Y-80255443D01*
X135321343Y-80250011D01*
X135323093Y-80248420D01*
X135325810Y-80243866D01*
X135328922Y-80239585D01*
X135329695Y-80237354D01*
X135333138Y-80231586D01*
X135380757Y-80130396D01*
X135385316Y-80117578D01*
X135800219Y-80117578D01*
X135800219Y-80212816D01*
X135802140Y-80232325D01*
X135804020Y-80236865D01*
X135804498Y-80241757D01*
X135811984Y-80259875D01*
X135859603Y-80349160D01*
X135867691Y-80361290D01*
X135868570Y-80363066D01*
X135869626Y-80364191D01*
X135870479Y-80365470D01*
X135872003Y-80366723D01*
X135881987Y-80377358D01*
X135929606Y-80419025D01*
X135941262Y-80427359D01*
X135942753Y-80428752D01*
X135944216Y-80429471D01*
X135945553Y-80430427D01*
X135947497Y-80431084D01*
X135960345Y-80437401D01*
X136055583Y-80473115D01*
X136058137Y-80473796D01*
X136059171Y-80474384D01*
X136066895Y-80476131D01*
X136074524Y-80478166D01*
X136075708Y-80478125D01*
X136078291Y-80478710D01*
X136268767Y-80502520D01*
X136272464Y-80502616D01*
X136273978Y-80503033D01*
X136281171Y-80502844D01*
X136288364Y-80503033D01*
X136289877Y-80502616D01*
X136293575Y-80502520D01*
X136531670Y-80472758D01*
X136534252Y-80472173D01*
X136535437Y-80472214D01*
X136543068Y-80470179D01*
X136550790Y-80468432D01*
X136551822Y-80467844D01*
X136554379Y-80467163D01*
X136744855Y-80395734D01*
X136745063Y-80395631D01*
X136745180Y-80395612D01*
X136753770Y-80391350D01*
X136762447Y-80387085D01*
X136762534Y-80387003D01*
X136762741Y-80386901D01*
X136857980Y-80327378D01*
X136863213Y-80323343D01*
X136865324Y-80322320D01*
X136869265Y-80318677D01*
X136873505Y-80315409D01*
X136874863Y-80313503D01*
X136879721Y-80309015D01*
X136927340Y-80255443D01*
X136931287Y-80250011D01*
X136933037Y-80248420D01*
X136935754Y-80243866D01*
X136938866Y-80239585D01*
X136939639Y-80237354D01*
X136943082Y-80231586D01*
X136990701Y-80130396D01*
X136997270Y-80111925D01*
X136997382Y-80109534D01*
X136998298Y-80107325D01*
X137000219Y-80087816D01*
X137000219Y-79992578D01*
X136998298Y-79973069D01*
X136996417Y-79968528D01*
X136995940Y-79963637D01*
X136988455Y-79945520D01*
X136940835Y-79856233D01*
X136932740Y-79844092D01*
X136931867Y-79842327D01*
X136930817Y-79841208D01*
X136929960Y-79839923D01*
X136928427Y-79838663D01*
X136918450Y-79828034D01*
X136870830Y-79786367D01*
X136859176Y-79778035D01*
X136857684Y-79776641D01*
X136856217Y-79775919D01*
X136854883Y-79774966D01*
X136852941Y-79774309D01*
X136840092Y-79767992D01*
X136744854Y-79732278D01*
X136742297Y-79731596D01*
X136741265Y-79731009D01*
X136733547Y-79729262D01*
X136725913Y-79727227D01*
X136724727Y-79727267D01*
X136722145Y-79726683D01*
X136531670Y-79702873D01*
X136527972Y-79702776D01*
X136526459Y-79702360D01*
X136519266Y-79702548D01*
X136512073Y-79702360D01*
X136510559Y-79702776D01*
X136506863Y-79702873D01*
X136268767Y-79732635D01*
X136266184Y-79733219D01*
X136265000Y-79733179D01*
X136257371Y-79735213D01*
X136249647Y-79736961D01*
X136248613Y-79737548D01*
X136246059Y-79738230D01*
X136055582Y-79809659D01*
X136055370Y-79809762D01*
X136055256Y-79809782D01*
X136046670Y-79814040D01*
X136037990Y-79818308D01*
X136037904Y-79818388D01*
X136037695Y-79818492D01*
X135942457Y-79878016D01*
X135937222Y-79882051D01*
X135935113Y-79883074D01*
X135931175Y-79886713D01*
X135926931Y-79889985D01*
X135925570Y-79891892D01*
X135920716Y-79896379D01*
X135873097Y-79949950D01*
X135869148Y-79955382D01*
X135867401Y-79956973D01*
X135864685Y-79961524D01*
X135861572Y-79965808D01*
X135860798Y-79968038D01*
X135857356Y-79973807D01*
X135809737Y-80074999D01*
X135803168Y-80093469D01*
X135803055Y-80095859D01*
X135802140Y-80098069D01*
X135800219Y-80117578D01*
X135385316Y-80117578D01*
X135387326Y-80111925D01*
X135387438Y-80109534D01*
X135388354Y-80107325D01*
X135390275Y-80087816D01*
X135390275Y-79849720D01*
X135389169Y-79838496D01*
X135389319Y-79835925D01*
X135388638Y-79833103D01*
X135388354Y-79830211D01*
X135387367Y-79827829D01*
X135384725Y-79816868D01*
X135337106Y-79679964D01*
X135328882Y-79662169D01*
X135302936Y-79633027D01*
X135267814Y-79616032D01*
X135228861Y-79613772D01*
X135192009Y-79626590D01*
X135162867Y-79652536D01*
X135145872Y-79687658D01*
X135143612Y-79726611D01*
X135148206Y-79745668D01*
X135190275Y-79866615D01*
X135190275Y-80065461D01*
X135158322Y-80133360D01*
X135129843Y-80165398D01*
X135065506Y-80205609D01*
X135016602Y-80211722D01*
X134961475Y-80191049D01*
X134941325Y-80173418D01*
X134907932Y-80110806D01*
X134863293Y-79937828D01*
X134862309Y-79935139D01*
X134862186Y-79933875D01*
X134859224Y-79926707D01*
X134856558Y-79919418D01*
X134855793Y-79918402D01*
X134854701Y-79915758D01*
X134807081Y-79826471D01*
X134798989Y-79814336D01*
X134798114Y-79812565D01*
X134797061Y-79811443D01*
X134796206Y-79810161D01*
X134794677Y-79808903D01*
X134784697Y-79798273D01*
X134737078Y-79756606D01*
X134725421Y-79748271D01*
X134723931Y-79746879D01*
X134722467Y-79746159D01*
X134721131Y-79745204D01*
X134719186Y-79744546D01*
X134706339Y-79738230D01*
X134611101Y-79702516D01*
X134592160Y-79697465D01*
X134587590Y-79697620D01*
X134583182Y-79696408D01*
X134563585Y-79696921D01*
X134468347Y-79708826D01*
X134449227Y-79713152D01*
X134447391Y-79714195D01*
X134445312Y-79714544D01*
X134427751Y-79723254D01*
X134332513Y-79782778D01*
X134327278Y-79786813D01*
X134325169Y-79787836D01*
X134321231Y-79791475D01*
X134316987Y-79794747D01*
X134315626Y-79796654D01*
X134310772Y-79801141D01*
X134263153Y-79854712D01*
X134259204Y-79860144D01*
X134257457Y-79861735D01*
X134254741Y-79866286D01*
X134251628Y-79870570D01*
X134250854Y-79872800D01*
X134247412Y-79878569D01*
X134199793Y-79979761D01*
X134193224Y-79998231D01*
X134193111Y-80000621D01*
X134192196Y-80002831D01*
X134190275Y-80022340D01*
X134032811Y-80022340D01*
X134032811Y-78974720D01*
X134190275Y-78974720D01*
X134190275Y-79450911D01*
X134192196Y-79470420D01*
X134207128Y-79506468D01*
X134234718Y-79534058D01*
X134270766Y-79548990D01*
X134309784Y-79548990D01*
X134345832Y-79534058D01*
X134373422Y-79506468D01*
X134388354Y-79470420D01*
X134390275Y-79450911D01*
X134390275Y-79062998D01*
X134666465Y-79028474D01*
X134666465Y-79248530D01*
X134668386Y-79268039D01*
X134683318Y-79304087D01*
X134710908Y-79331677D01*
X134746956Y-79346609D01*
X134785974Y-79346609D01*
X134822022Y-79331677D01*
X134849612Y-79304087D01*
X134864544Y-79268039D01*
X134866465Y-79248530D01*
X134866465Y-79003474D01*
X135190275Y-78962998D01*
X135190275Y-79325911D01*
X135192196Y-79345420D01*
X135207128Y-79381468D01*
X135234718Y-79409058D01*
X135270766Y-79423990D01*
X135309784Y-79423990D01*
X135345832Y-79409058D01*
X135373422Y-79381468D01*
X135388354Y-79345420D01*
X135390275Y-79325911D01*
X135390275Y-79069958D01*
X135800219Y-79069958D01*
X135800219Y-79308054D01*
X135802140Y-79327563D01*
X135804020Y-79332103D01*
X135804498Y-79336995D01*
X135811984Y-79355113D01*
X135859603Y-79444398D01*
X135867691Y-79456528D01*
X135868570Y-79458304D01*
X135869626Y-79459429D01*
X135870479Y-79460708D01*
X135872003Y-79461961D01*
X135881987Y-79472596D01*
X135929606Y-79514263D01*
X135941262Y-79522597D01*
X135942753Y-79523990D01*
X135944216Y-79524709D01*
X135945553Y-79525665D01*
X135947497Y-79526322D01*
X135960345Y-79532639D01*
X136055583Y-79568353D01*
X136074524Y-79573404D01*
X136079092Y-79573248D01*
X136083501Y-79574461D01*
X136103098Y-79573948D01*
X136198336Y-79562044D01*
X136206483Y-79560200D01*
X136209064Y-79560105D01*
X136213197Y-79558681D01*
X136217456Y-79557718D01*
X136219698Y-79556442D01*
X136227599Y-79553722D01*
X136370456Y-79488245D01*
X136387391Y-79478370D01*
X136388142Y-79477560D01*
X136389134Y-79477080D01*
X136403531Y-79463775D01*
X136800219Y-79017501D01*
X136800219Y-79373530D01*
X136802140Y-79393039D01*
X136817072Y-79429087D01*
X136844662Y-79456677D01*
X136880710Y-79471609D01*
X136919728Y-79471609D01*
X136955776Y-79456677D01*
X136983366Y-79429087D01*
X136998298Y-79393039D01*
X137000219Y-79373530D01*
X137000219Y-78754482D01*
X136998298Y-78734973D01*
X136997157Y-78732220D01*
X136996983Y-78729247D01*
X136989728Y-78714285D01*
X136983366Y-78698925D01*
X136981259Y-78696818D01*
X136979960Y-78694138D01*
X136967530Y-78683089D01*
X136955776Y-78671335D01*
X136953024Y-78670195D01*
X136950798Y-78668216D01*
X136935090Y-78662766D01*
X136919728Y-78656403D01*
X136916748Y-78656403D01*
X136913935Y-78655427D01*
X136897341Y-78656403D01*
X136880710Y-78656403D01*
X136877957Y-78657543D01*
X136874984Y-78657718D01*
X136860022Y-78664972D01*
X136844662Y-78671335D01*
X136842555Y-78673441D01*
X136839875Y-78674741D01*
X136825478Y-78688046D01*
X136268014Y-79315191D01*
X136158259Y-79365496D01*
X136102738Y-79372436D01*
X136047610Y-79351763D01*
X136027460Y-79334132D01*
X136000219Y-79283054D01*
X136000219Y-79092312D01*
X136032171Y-79024413D01*
X136070198Y-78981633D01*
X136081723Y-78965776D01*
X136094512Y-78928913D01*
X136092221Y-78889962D01*
X136075199Y-78854853D01*
X136046036Y-78828931D01*
X136009174Y-78816142D01*
X135970223Y-78818433D01*
X135935113Y-78835455D01*
X135920716Y-78848760D01*
X135873097Y-78902331D01*
X135869148Y-78907763D01*
X135867401Y-78909354D01*
X135864685Y-78913905D01*
X135861572Y-78918189D01*
X135860798Y-78920419D01*
X135857356Y-78926188D01*
X135809737Y-79027378D01*
X135803168Y-79045848D01*
X135803055Y-79048239D01*
X135802140Y-79050449D01*
X135800219Y-79069958D01*
X135390275Y-79069958D01*
X135390275Y-78849720D01*
X135388354Y-78830211D01*
X135385954Y-78824418D01*
X135385177Y-78818196D01*
X135378550Y-78806542D01*
X135373422Y-78794163D01*
X135368988Y-78789729D01*
X135365889Y-78784279D01*
X135355309Y-78776050D01*
X135345832Y-78766573D01*
X135340039Y-78764173D01*
X135335090Y-78760324D01*
X135322168Y-78756770D01*
X135309784Y-78751641D01*
X135303512Y-78751641D01*
X135297468Y-78749979D01*
X135277871Y-78750492D01*
X134277872Y-78875492D01*
X134272793Y-78876641D01*
X134270766Y-78876641D01*
X134268325Y-78877651D01*
X134258751Y-78879818D01*
X134247097Y-78886444D01*
X134234718Y-78891573D01*
X134230284Y-78896006D01*
X134224834Y-78899106D01*
X134216605Y-78909685D01*
X134207128Y-78919163D01*
X134204728Y-78924955D01*
X134200879Y-78929905D01*
X134197325Y-78942826D01*
X134192196Y-78955211D01*
X134191233Y-78964981D01*
X134190534Y-78967527D01*
X134190785Y-78969537D01*
X134190275Y-78974720D01*
X134032811Y-78974720D01*
X134032811Y-78544316D01*
X137444663Y-78544316D01*
X137444663Y-98469625D01*
G37*
D11*
G36*
X140662083Y-83433122D02*
G01*
X140662083Y-83893082D01*
X140202123Y-83893082D01*
X139742163Y-83893082D01*
X139742163Y-83433122D01*
X139742163Y-82973163D01*
X140202123Y-82973163D01*
X140662083Y-82973163D01*
X140662083Y-83433122D01*
G37*
G36*
X141888642Y-90792478D02*
G01*
X141888642Y-90945798D01*
X141582002Y-90945798D01*
X141275363Y-90945798D01*
X141275363Y-90792478D01*
X141275363Y-90639159D01*
X141582002Y-90639159D01*
X141888642Y-90639159D01*
X141888642Y-90792478D01*
G37*
G36*
X147408159Y-82666523D02*
G01*
X147408159Y-82973163D01*
X147101520Y-82973163D01*
X146794880Y-82973163D01*
X146794880Y-82666523D01*
X146794880Y-82359883D01*
X147101520Y-82359883D01*
X147408159Y-82359883D01*
X147408159Y-82666523D01*
G37*
G36*
X151087837Y-83433122D02*
G01*
X151087837Y-83893082D01*
X150627878Y-83893082D01*
X150167918Y-83893082D01*
X150167918Y-83433122D01*
X150167918Y-82973163D01*
X150627878Y-82973163D01*
X151087837Y-82973163D01*
X151087837Y-83433122D01*
G37*
G36*
X151087837Y-93858877D02*
G01*
X151087837Y-94318837D01*
X150627878Y-94318837D01*
X150167918Y-94318837D01*
X150167918Y-93858877D01*
X150167918Y-93398917D01*
X150627878Y-93398917D01*
X151087837Y-93398917D01*
X151087837Y-93858877D01*
G37*
G36*
X150781198Y-91405758D02*
G01*
X150781198Y-91865718D01*
X150627878Y-91865718D01*
X150474558Y-91865718D01*
X150474558Y-91405758D01*
X150474558Y-90945798D01*
X150627878Y-90945798D01*
X150781198Y-90945798D01*
X150781198Y-91405758D01*
G37*
G36*
X139363125Y-86044258D02*
G01*
X139422860Y-86084284D01*
X139435524Y-86192881D01*
X139430827Y-86273802D01*
X139390800Y-86333537D01*
X139282204Y-86346201D01*
X139201282Y-86341504D01*
X139141547Y-86301477D01*
X139128884Y-86192881D01*
X139133581Y-86111959D01*
X139173607Y-86052224D01*
X139282204Y-86039561D01*
X139363125Y-86044258D01*
G37*
G36*
X141202964Y-92790334D02*
G01*
X141262699Y-92830361D01*
X141275363Y-92938957D01*
X141270666Y-93019879D01*
X141230639Y-93079614D01*
X141122043Y-93092277D01*
X141041121Y-93087580D01*
X140981386Y-93047554D01*
X140968723Y-92938957D01*
X140973420Y-92858036D01*
X141013446Y-92798301D01*
X141122043Y-92785637D01*
X141202964Y-92790334D01*
G37*
G36*
X142122884Y-86964177D02*
G01*
X142182619Y-87004204D01*
X142195282Y-87112800D01*
X142190585Y-87193722D01*
X142150559Y-87253457D01*
X142041962Y-87266120D01*
X141961041Y-87261423D01*
X141901306Y-87221397D01*
X141888642Y-87112800D01*
X141893339Y-87031879D01*
X141933366Y-86972144D01*
X142041962Y-86959480D01*
X142122884Y-86964177D01*
G37*
G36*
X142429524Y-87577457D02*
G01*
X142489258Y-87617484D01*
X142501922Y-87726080D01*
X142497225Y-87807002D01*
X142457198Y-87866736D01*
X142348602Y-87879400D01*
X142267680Y-87874703D01*
X142207946Y-87834676D01*
X142195282Y-87726080D01*
X142199979Y-87645158D01*
X142240006Y-87585424D01*
X142348602Y-87572760D01*
X142429524Y-87577457D01*
G37*
G36*
X142736163Y-86964177D02*
G01*
X142795898Y-87004204D01*
X142808562Y-87112800D01*
X142803865Y-87193722D01*
X142763838Y-87253457D01*
X142655242Y-87266120D01*
X142574320Y-87261423D01*
X142514586Y-87221397D01*
X142501922Y-87112800D01*
X142506619Y-87031879D01*
X142546645Y-86972144D01*
X142655242Y-86959480D01*
X142736163Y-86964177D01*
G37*
G36*
X143042803Y-84204419D02*
G01*
X143102538Y-84244445D01*
X143115202Y-84353042D01*
X143110505Y-84433963D01*
X143070478Y-84493698D01*
X142961882Y-84506362D01*
X142880960Y-84501665D01*
X142821225Y-84461638D01*
X142808562Y-84353042D01*
X142813259Y-84272120D01*
X142853285Y-84212385D01*
X142961882Y-84199722D01*
X143042803Y-84204419D01*
G37*
G36*
X143349443Y-86964177D02*
G01*
X143409178Y-87004204D01*
X143421841Y-87112800D01*
X143417144Y-87193722D01*
X143377118Y-87253457D01*
X143268522Y-87266120D01*
X143187600Y-87261423D01*
X143127865Y-87221397D01*
X143115202Y-87112800D01*
X143119899Y-87031879D01*
X143159925Y-86972144D01*
X143268522Y-86959480D01*
X143349443Y-86964177D01*
G37*
G36*
X144576003Y-86044258D02*
G01*
X144635737Y-86084284D01*
X144648401Y-86192881D01*
X144643704Y-86273802D01*
X144603677Y-86333537D01*
X144495081Y-86346201D01*
X144414159Y-86341504D01*
X144354425Y-86301477D01*
X144341761Y-86192881D01*
X144346458Y-86111959D01*
X144386484Y-86052224D01*
X144495081Y-86039561D01*
X144576003Y-86044258D01*
G37*
G36*
X145495922Y-82977860D02*
G01*
X145555657Y-83017886D01*
X145568320Y-83126482D01*
X145563623Y-83207404D01*
X145523597Y-83267139D01*
X145415000Y-83279802D01*
X145334079Y-83275105D01*
X145274344Y-83235079D01*
X145261681Y-83126482D01*
X145266378Y-83045561D01*
X145306404Y-82985826D01*
X145415000Y-82973163D01*
X145495922Y-82977860D01*
G37*
G36*
X145495922Y-85124338D02*
G01*
X145555657Y-85164365D01*
X145568320Y-85272961D01*
X145563623Y-85353883D01*
X145523597Y-85413618D01*
X145415000Y-85426281D01*
X145334079Y-85421584D01*
X145274344Y-85381558D01*
X145261681Y-85272961D01*
X145266378Y-85192040D01*
X145306404Y-85132305D01*
X145415000Y-85119641D01*
X145495922Y-85124338D01*
G37*
G36*
X145802562Y-84511059D02*
G01*
X145862297Y-84551085D01*
X145874960Y-84659682D01*
X145870263Y-84740603D01*
X145830237Y-84800338D01*
X145721640Y-84813002D01*
X145640719Y-84808305D01*
X145580984Y-84768278D01*
X145568320Y-84659682D01*
X145573017Y-84578760D01*
X145613044Y-84519025D01*
X145721640Y-84506362D01*
X145802562Y-84511059D01*
G37*
G36*
X145802562Y-88190737D02*
G01*
X145862297Y-88230763D01*
X145874960Y-88339360D01*
X145870263Y-88420281D01*
X145830237Y-88480016D01*
X145721640Y-88492680D01*
X145640719Y-88487983D01*
X145580984Y-88447956D01*
X145568320Y-88339360D01*
X145573017Y-88258438D01*
X145613044Y-88198703D01*
X145721640Y-88186040D01*
X145802562Y-88190737D01*
G37*
G36*
X147335761Y-85737618D02*
G01*
X147395496Y-85777645D01*
X147408159Y-85886241D01*
X147403462Y-85967163D01*
X147363436Y-86026897D01*
X147254839Y-86039561D01*
X147173918Y-86034864D01*
X147114183Y-85994837D01*
X147101520Y-85886241D01*
X147106217Y-85805319D01*
X147146243Y-85745585D01*
X147254839Y-85732921D01*
X147335761Y-85737618D01*
G37*
G36*
X148255681Y-87577457D02*
G01*
X148315415Y-87617484D01*
X148328079Y-87726080D01*
X148323382Y-87807002D01*
X148283355Y-87866736D01*
X148174759Y-87879400D01*
X148093837Y-87874703D01*
X148034103Y-87834676D01*
X148021439Y-87726080D01*
X148026136Y-87645158D01*
X148066163Y-87585424D01*
X148174759Y-87572760D01*
X148255681Y-87577457D01*
G37*
G36*
X150708799Y-86964177D02*
G01*
X150768534Y-87004204D01*
X150781198Y-87112800D01*
X150776501Y-87193722D01*
X150736474Y-87253457D01*
X150627878Y-87266120D01*
X150546956Y-87261423D01*
X150487221Y-87221397D01*
X150474558Y-87112800D01*
X150479255Y-87031879D01*
X150519281Y-86972144D01*
X150627878Y-86959480D01*
X150708799Y-86964177D01*
G37*
G36*
X151015439Y-92177055D02*
G01*
X151075174Y-92217081D01*
X151087837Y-92325678D01*
X151083140Y-92406599D01*
X151043114Y-92466334D01*
X150934518Y-92478998D01*
X150853596Y-92474301D01*
X150793861Y-92434274D01*
X150781198Y-92325678D01*
X150785895Y-92244756D01*
X150825921Y-92185021D01*
X150934518Y-92172358D01*
X151015439Y-92177055D01*
G37*
G36*
X151628719Y-92177055D02*
G01*
X151688454Y-92217081D01*
X151701117Y-92325678D01*
X151696420Y-92406599D01*
X151656394Y-92466334D01*
X151547797Y-92478998D01*
X151466876Y-92474301D01*
X151407141Y-92434274D01*
X151394477Y-92325678D01*
X151399174Y-92244756D01*
X151439201Y-92185021D01*
X151547797Y-92172358D01*
X151628719Y-92177055D01*
G37*
G36*
X141275363Y-84506362D02*
G01*
X140202123Y-84506362D01*
X139128884Y-84506362D01*
X139128884Y-83433122D01*
X139128884Y-82666523D01*
X139435524Y-82666523D01*
X139435524Y-83433122D01*
X139435524Y-84199722D01*
X140202123Y-84199722D01*
X140968723Y-84199722D01*
X140968723Y-83433122D01*
X140968723Y-82666523D01*
X140202123Y-82666523D01*
X139435524Y-82666523D01*
X139128884Y-82666523D01*
X139128884Y-82359883D01*
X140202123Y-82359883D01*
X141275363Y-82359883D01*
X141275363Y-83433122D01*
X141275363Y-84506362D01*
G37*
G36*
X151701117Y-84506362D02*
G01*
X150627878Y-84506362D01*
X149554638Y-84506362D01*
X149554638Y-83433122D01*
X149554638Y-82666523D01*
X149861278Y-82666523D01*
X149861278Y-83433122D01*
X149861278Y-84199722D01*
X150627878Y-84199722D01*
X151394477Y-84199722D01*
X151394477Y-83433122D01*
X151394477Y-82666523D01*
X150627878Y-82666523D01*
X149861278Y-82666523D01*
X149554638Y-82666523D01*
X149554638Y-82359883D01*
X150627878Y-82359883D01*
X151701117Y-82359883D01*
X151701117Y-83433122D01*
X151701117Y-84506362D01*
G37*
G36*
X151701117Y-94932116D02*
G01*
X150627878Y-94932116D01*
X149554638Y-94932116D01*
X149554638Y-93858877D01*
X149554638Y-93092277D01*
X149861278Y-93092277D01*
X149861278Y-93858877D01*
X149861278Y-94625476D01*
X150627878Y-94625476D01*
X151394477Y-94625476D01*
X151394477Y-93858877D01*
X151394477Y-93092277D01*
X150627878Y-93092277D01*
X149861278Y-93092277D01*
X149554638Y-93092277D01*
X149554638Y-92785637D01*
X150627878Y-92785637D01*
X151701117Y-92785637D01*
X151701117Y-93858877D01*
X151701117Y-94932116D01*
G37*
G36*
X144341761Y-91865718D02*
G01*
X144648401Y-91865718D01*
X144648401Y-92172358D01*
X144648401Y-92478998D01*
X144495081Y-92478998D01*
X144414159Y-92474301D01*
X144354425Y-92434274D01*
X144341761Y-92325678D01*
X144337064Y-92244756D01*
X144297038Y-92185021D01*
X144188441Y-92172358D01*
X144107519Y-92167661D01*
X144047785Y-92127634D01*
X144035121Y-92019038D01*
X144035121Y-91865718D01*
X144341761Y-91865718D01*
G37*
G36*
X144035121Y-91712398D02*
G01*
X144035121Y-91865718D01*
X143728481Y-91865718D01*
X143421841Y-91865718D01*
X143421841Y-91712398D01*
X143421841Y-91559078D01*
X143728481Y-91559078D01*
X144035121Y-91559078D01*
X144035121Y-91712398D01*
G37*
G36*
X146722481Y-84204419D02*
G01*
X146782216Y-84244445D01*
X146794880Y-84353042D01*
X146790183Y-84433963D01*
X146750156Y-84493698D01*
X146641560Y-84506362D01*
X146560638Y-84511059D01*
X146500903Y-84551085D01*
X146488240Y-84659682D01*
X146483543Y-84740603D01*
X146443516Y-84800338D01*
X146334920Y-84813002D01*
X146253998Y-84808305D01*
X146194264Y-84768278D01*
X146181600Y-84659682D01*
X146186297Y-84578760D01*
X146226324Y-84519025D01*
X146334920Y-84506362D01*
X146415842Y-84501665D01*
X146475576Y-84461638D01*
X146488240Y-84353042D01*
X146492937Y-84272120D01*
X146532963Y-84212385D01*
X146641560Y-84199722D01*
X146722481Y-84204419D01*
G37*
G36*
X150708799Y-84817699D02*
G01*
X150768534Y-84857725D01*
X150781198Y-84966321D01*
X150785895Y-85047243D01*
X150825921Y-85106978D01*
X150934518Y-85119641D01*
X151015439Y-85114944D01*
X151075174Y-85074918D01*
X151087837Y-84966321D01*
X151087837Y-84813002D01*
X151394477Y-84813002D01*
X151701117Y-84813002D01*
X151701117Y-84966321D01*
X151696420Y-85047243D01*
X151656394Y-85106978D01*
X151547797Y-85119641D01*
X151466876Y-85124338D01*
X151407141Y-85164365D01*
X151394477Y-85272961D01*
X151394477Y-85426281D01*
X150934518Y-85426281D01*
X150474558Y-85426281D01*
X150474558Y-85119641D01*
X150474558Y-84813002D01*
X150627878Y-84813002D01*
X150708799Y-84817699D01*
G37*
G36*
X147408159Y-84506362D02*
G01*
X147408159Y-84813002D01*
X147561479Y-84813002D01*
X147642401Y-84817699D01*
X147702136Y-84857725D01*
X147714799Y-84966321D01*
X147714799Y-85119641D01*
X148174759Y-85119641D01*
X148634719Y-85119641D01*
X148634719Y-85426281D01*
X148634719Y-85732921D01*
X148481399Y-85732921D01*
X148400477Y-85728224D01*
X148340742Y-85688198D01*
X148328079Y-85579601D01*
X148328079Y-85426281D01*
X148021439Y-85426281D01*
X147714799Y-85426281D01*
X147714799Y-85272961D01*
X147710102Y-85192040D01*
X147670076Y-85132305D01*
X147561479Y-85119641D01*
X147480558Y-85114944D01*
X147420823Y-85074918D01*
X147408159Y-84966321D01*
X147403462Y-84885400D01*
X147363436Y-84825665D01*
X147254839Y-84813002D01*
X147101520Y-84813002D01*
X147101520Y-84506362D01*
X147101520Y-84199722D01*
X147254839Y-84199722D01*
X147408159Y-84199722D01*
X147408159Y-84506362D01*
G37*
G36*
X145261681Y-89565919D02*
G01*
X145261681Y-90025879D01*
X145108361Y-90025879D01*
X145027439Y-90030576D01*
X144967704Y-90070602D01*
X144955041Y-90179199D01*
X144950344Y-90260120D01*
X144910317Y-90319855D01*
X144801721Y-90332519D01*
X144720799Y-90327822D01*
X144661064Y-90287795D01*
X144648401Y-90179199D01*
X144653098Y-90098277D01*
X144693124Y-90038542D01*
X144801721Y-90025879D01*
X144882642Y-90021182D01*
X144942377Y-89981155D01*
X144955041Y-89872559D01*
X144955041Y-89719239D01*
X144648401Y-89719239D01*
X144341761Y-89719239D01*
X144341761Y-89872559D01*
X144341761Y-90025879D01*
X144035121Y-90025879D01*
X143728481Y-90025879D01*
X143728481Y-89719239D01*
X143728481Y-89412599D01*
X143881801Y-89412599D01*
X143962723Y-89417296D01*
X144022458Y-89457323D01*
X144035121Y-89565919D01*
X144039818Y-89646841D01*
X144079845Y-89706575D01*
X144188441Y-89719239D01*
X144269363Y-89714542D01*
X144329097Y-89674516D01*
X144341761Y-89565919D01*
X144346458Y-89484997D01*
X144386484Y-89425263D01*
X144495081Y-89412599D01*
X144576003Y-89407902D01*
X144635737Y-89367876D01*
X144648401Y-89259279D01*
X144648401Y-89105959D01*
X144955041Y-89105959D01*
X145261681Y-89105959D01*
X145261681Y-89565919D01*
G37*
G36*
X147714799Y-86806161D02*
G01*
X147714799Y-87266120D01*
X147561479Y-87266120D01*
X147480558Y-87270817D01*
X147420823Y-87310844D01*
X147408159Y-87419440D01*
X147412856Y-87500362D01*
X147452883Y-87560097D01*
X147561479Y-87572760D01*
X147642401Y-87577457D01*
X147702136Y-87617484D01*
X147714799Y-87726080D01*
X147710102Y-87807002D01*
X147670076Y-87866736D01*
X147561479Y-87879400D01*
X147408159Y-87879400D01*
X147408159Y-88186040D01*
X147408159Y-88492680D01*
X147101520Y-88492680D01*
X146794880Y-88492680D01*
X146794880Y-88339360D01*
X146799577Y-88258438D01*
X146839603Y-88198703D01*
X146948200Y-88186040D01*
X147029121Y-88181343D01*
X147088856Y-88141316D01*
X147101520Y-88032720D01*
X147106217Y-87951798D01*
X147146243Y-87892064D01*
X147254839Y-87879400D01*
X147335761Y-87874703D01*
X147395496Y-87834676D01*
X147408159Y-87726080D01*
X147403462Y-87645158D01*
X147363436Y-87585424D01*
X147254839Y-87572760D01*
X147101520Y-87572760D01*
X147101520Y-87112800D01*
X147101520Y-86652841D01*
X147254839Y-86652841D01*
X147335761Y-86648144D01*
X147395496Y-86608117D01*
X147408159Y-86499521D01*
X147412856Y-86418599D01*
X147452883Y-86358864D01*
X147561479Y-86346201D01*
X147714799Y-86346201D01*
X147714799Y-86806161D01*
G37*
G36*
X149856581Y-88726921D02*
G01*
X149816555Y-88786656D01*
X149707958Y-88799319D01*
X149627037Y-88804016D01*
X149567302Y-88844043D01*
X149554638Y-88952639D01*
X149549941Y-89033561D01*
X149509915Y-89093296D01*
X149401318Y-89105959D01*
X149320397Y-89101262D01*
X149260662Y-89061236D01*
X149247998Y-88952639D01*
X149243301Y-88871718D01*
X149203275Y-88811983D01*
X149094679Y-88799319D01*
X148941359Y-88799319D01*
X148941359Y-88646000D01*
X149247998Y-88646000D01*
X149252695Y-88726921D01*
X149292722Y-88786656D01*
X149401318Y-88799319D01*
X149482240Y-88794622D01*
X149541975Y-88754596D01*
X149554638Y-88646000D01*
X149549941Y-88565078D01*
X149509915Y-88505343D01*
X149401318Y-88492680D01*
X149320397Y-88497377D01*
X149260662Y-88537403D01*
X149247998Y-88646000D01*
X148941359Y-88646000D01*
X148941359Y-88492680D01*
X148941359Y-88186040D01*
X149247998Y-88186040D01*
X149554638Y-88186040D01*
X149554638Y-88339360D01*
X149559335Y-88420281D01*
X149599362Y-88480016D01*
X149707958Y-88492680D01*
X149788880Y-88497377D01*
X149848615Y-88537403D01*
X149861278Y-88646000D01*
X149856581Y-88726921D01*
G37*
G36*
X148868960Y-87884097D02*
G01*
X148928695Y-87924123D01*
X148941359Y-88032720D01*
X148941359Y-88186040D01*
X148788039Y-88186040D01*
X148707117Y-88181343D01*
X148647382Y-88141316D01*
X148634719Y-88032720D01*
X148639416Y-87951798D01*
X148679442Y-87892064D01*
X148788039Y-87879400D01*
X148868960Y-87884097D01*
G37*
G36*
X148946056Y-86887082D02*
G01*
X148986082Y-86946817D01*
X149094679Y-86959480D01*
X149175600Y-86954783D01*
X149235335Y-86914757D01*
X149247998Y-86806161D01*
X149247998Y-86652841D01*
X149554638Y-86652841D01*
X149861278Y-86652841D01*
X149861278Y-86806161D01*
X149856581Y-86887082D01*
X149816555Y-86946817D01*
X149707958Y-86959480D01*
X149627037Y-86964177D01*
X149567302Y-87004204D01*
X149554638Y-87112800D01*
X149559335Y-87193722D01*
X149599362Y-87253457D01*
X149707958Y-87266120D01*
X149788880Y-87270817D01*
X149848615Y-87310844D01*
X149861278Y-87419440D01*
X149861278Y-87572760D01*
X149554638Y-87572760D01*
X149247998Y-87572760D01*
X149247998Y-87419440D01*
X149243301Y-87338519D01*
X149203275Y-87278784D01*
X149094679Y-87266120D01*
X149013757Y-87270817D01*
X148954022Y-87310844D01*
X148941359Y-87419440D01*
X148936662Y-87500362D01*
X148896635Y-87560097D01*
X148788039Y-87572760D01*
X148707117Y-87568063D01*
X148647382Y-87528037D01*
X148634719Y-87419440D01*
X148634719Y-87266120D01*
X148328079Y-87266120D01*
X148021439Y-87266120D01*
X148021439Y-86806161D01*
X148328079Y-86806161D01*
X148332776Y-86887082D01*
X148372802Y-86946817D01*
X148481399Y-86959480D01*
X148562320Y-86954783D01*
X148622055Y-86914757D01*
X148634719Y-86806161D01*
X148630022Y-86725239D01*
X148589995Y-86665504D01*
X148481399Y-86652841D01*
X148400477Y-86657538D01*
X148340742Y-86697564D01*
X148328079Y-86806161D01*
X148021439Y-86806161D01*
X148021439Y-86346201D01*
X148174759Y-86346201D01*
X148255681Y-86341504D01*
X148315415Y-86301477D01*
X148328079Y-86192881D01*
X148332776Y-86111959D01*
X148372802Y-86052224D01*
X148481399Y-86039561D01*
X148634719Y-86039561D01*
X148634719Y-86346201D01*
X148634719Y-86652841D01*
X148788039Y-86652841D01*
X148868960Y-86657538D01*
X148928695Y-86697564D01*
X148941359Y-86806161D01*
X148946056Y-86887082D01*
G37*
G36*
X149243301Y-93939798D02*
G01*
X149203275Y-93999533D01*
X149094679Y-94012197D01*
X149013757Y-94016894D01*
X148954022Y-94056920D01*
X148941359Y-94165517D01*
X148946056Y-94246438D01*
X148986082Y-94306173D01*
X149094679Y-94318837D01*
X149247998Y-94318837D01*
X149247998Y-94472156D01*
X149247998Y-94625476D01*
X149247998Y-94932116D01*
X148481399Y-94932116D01*
X147714799Y-94932116D01*
X147714799Y-94778796D01*
X147710102Y-94697875D01*
X147670076Y-94638140D01*
X147561479Y-94625476D01*
X147480558Y-94620779D01*
X147420823Y-94580753D01*
X147408159Y-94472156D01*
X147403462Y-94391235D01*
X147363436Y-94331500D01*
X147254839Y-94318837D01*
X147173918Y-94314140D01*
X147114183Y-94274113D01*
X147101520Y-94165517D01*
X147096823Y-94084595D01*
X147056796Y-94024860D01*
X146948200Y-94012197D01*
X146867278Y-94007500D01*
X146807543Y-93967473D01*
X146794880Y-93858877D01*
X146799577Y-93777955D01*
X146839603Y-93718220D01*
X146948200Y-93705557D01*
X147029121Y-93700860D01*
X147088856Y-93660833D01*
X147101520Y-93552237D01*
X147106217Y-93471315D01*
X147146243Y-93411581D01*
X147254839Y-93398917D01*
X147408159Y-93398917D01*
X147408159Y-93858877D01*
X147408159Y-94318837D01*
X147561479Y-94318837D01*
X147714799Y-94318837D01*
X147714799Y-94012197D01*
X148021439Y-94012197D01*
X148021439Y-94318837D01*
X148021439Y-94625476D01*
X148328079Y-94625476D01*
X148634719Y-94625476D01*
X148634719Y-94472156D01*
X148630022Y-94391235D01*
X148589995Y-94331500D01*
X148481399Y-94318837D01*
X148400477Y-94314140D01*
X148340742Y-94274113D01*
X148328079Y-94165517D01*
X148323382Y-94084595D01*
X148283355Y-94024860D01*
X148174759Y-94012197D01*
X148021439Y-94012197D01*
X147714799Y-94012197D01*
X147714799Y-93858877D01*
X147714799Y-93398917D01*
X147561479Y-93398917D01*
X147408159Y-93398917D01*
X147254839Y-93398917D01*
X147335761Y-93394220D01*
X147395496Y-93354194D01*
X147408159Y-93245597D01*
X147403462Y-93164676D01*
X147363436Y-93104941D01*
X147254839Y-93092277D01*
X147101520Y-93092277D01*
X147101520Y-92785637D01*
X147101520Y-92478998D01*
X147254839Y-92478998D01*
X147335761Y-92474301D01*
X147395496Y-92434274D01*
X147408159Y-92325678D01*
X147412856Y-92244756D01*
X147452883Y-92185021D01*
X147561479Y-92172358D01*
X147714799Y-92172358D01*
X147714799Y-92478998D01*
X147714799Y-92785637D01*
X147868119Y-92785637D01*
X148021439Y-92785637D01*
X148021439Y-93245597D01*
X148021439Y-93705557D01*
X148328079Y-93705557D01*
X148634719Y-93705557D01*
X148634719Y-93552237D01*
X148639416Y-93471315D01*
X148679442Y-93411581D01*
X148788039Y-93398917D01*
X148868960Y-93403614D01*
X148928695Y-93443641D01*
X148941359Y-93552237D01*
X148946056Y-93633159D01*
X148986082Y-93692893D01*
X149094679Y-93705557D01*
X149175600Y-93710254D01*
X149235335Y-93750280D01*
X149247998Y-93858877D01*
X149243301Y-93939798D01*
G37*
G36*
X143115202Y-89412599D02*
G01*
X143421841Y-89412599D01*
X143421841Y-89565919D01*
X143417144Y-89646841D01*
X143377118Y-89706575D01*
X143268522Y-89719239D01*
X143187600Y-89723936D01*
X143127865Y-89763962D01*
X143115202Y-89872559D01*
X143119899Y-89953481D01*
X143159925Y-90013215D01*
X143268522Y-90025879D01*
X143349443Y-90030576D01*
X143409178Y-90070602D01*
X143421841Y-90179199D01*
X143417144Y-90260120D01*
X143377118Y-90319855D01*
X143268522Y-90332519D01*
X143187600Y-90327822D01*
X143127865Y-90287795D01*
X143115202Y-90179199D01*
X143110505Y-90098277D01*
X143070478Y-90038542D01*
X142961882Y-90025879D01*
X142808562Y-90025879D01*
X142808562Y-89719239D01*
X142808562Y-89412599D01*
X143115202Y-89412599D01*
G37*
G36*
X144039818Y-88726921D02*
G01*
X144079845Y-88786656D01*
X144188441Y-88799319D01*
X144269363Y-88804016D01*
X144329097Y-88844043D01*
X144341761Y-88952639D01*
X144337064Y-89033561D01*
X144297038Y-89093296D01*
X144188441Y-89105959D01*
X144107519Y-89101262D01*
X144047785Y-89061236D01*
X144035121Y-88952639D01*
X144035121Y-88799319D01*
X143575161Y-88799319D01*
X143115202Y-88799319D01*
X143115202Y-88952639D01*
X143110505Y-89033561D01*
X143070478Y-89093296D01*
X142961882Y-89105959D01*
X142880960Y-89110656D01*
X142821225Y-89150683D01*
X142808562Y-89259279D01*
X142808562Y-89412599D01*
X142195282Y-89412599D01*
X141582002Y-89412599D01*
X141582002Y-89259279D01*
X141582002Y-89105959D01*
X141888642Y-89105959D01*
X142195282Y-89105959D01*
X142195282Y-88799319D01*
X142195282Y-88646000D01*
X142501922Y-88646000D01*
X142506619Y-88726921D01*
X142546645Y-88786656D01*
X142655242Y-88799319D01*
X142736163Y-88794622D01*
X142795898Y-88754596D01*
X142808562Y-88646000D01*
X142803865Y-88565078D01*
X142763838Y-88505343D01*
X142655242Y-88492680D01*
X142574320Y-88497377D01*
X142514586Y-88537403D01*
X142501922Y-88646000D01*
X142195282Y-88646000D01*
X142195282Y-88492680D01*
X142041962Y-88492680D01*
X141961041Y-88497377D01*
X141901306Y-88537403D01*
X141888642Y-88646000D01*
X141883945Y-88726921D01*
X141843919Y-88786656D01*
X141735322Y-88799319D01*
X141654401Y-88794622D01*
X141594666Y-88754596D01*
X141582002Y-88646000D01*
X141586699Y-88565078D01*
X141626726Y-88505343D01*
X141735322Y-88492680D01*
X141816244Y-88487983D01*
X141875979Y-88447956D01*
X141888642Y-88339360D01*
X141888642Y-88186040D01*
X142348602Y-88186040D01*
X142808562Y-88186040D01*
X142808562Y-87879400D01*
X142808562Y-87572760D01*
X143421841Y-87572760D01*
X144035121Y-87572760D01*
X144035121Y-87419440D01*
X144039818Y-87338519D01*
X144079845Y-87278784D01*
X144188441Y-87266120D01*
X144269363Y-87270817D01*
X144329097Y-87310844D01*
X144341761Y-87419440D01*
X144346458Y-87500362D01*
X144386484Y-87560097D01*
X144495081Y-87572760D01*
X144576003Y-87577457D01*
X144635737Y-87617484D01*
X144648401Y-87726080D01*
X144648401Y-87879400D01*
X143881801Y-87879400D01*
X143115202Y-87879400D01*
X143115202Y-88032720D01*
X143119899Y-88113641D01*
X143159925Y-88173376D01*
X143268522Y-88186040D01*
X143349443Y-88190737D01*
X143409178Y-88230763D01*
X143421841Y-88339360D01*
X143421841Y-88492680D01*
X143728481Y-88492680D01*
X144035121Y-88492680D01*
X144035121Y-88339360D01*
X144039818Y-88258438D01*
X144079845Y-88198703D01*
X144188441Y-88186040D01*
X144269363Y-88190737D01*
X144329097Y-88230763D01*
X144341761Y-88339360D01*
X144337064Y-88420281D01*
X144297038Y-88480016D01*
X144188441Y-88492680D01*
X144107519Y-88497377D01*
X144047785Y-88537403D01*
X144035121Y-88646000D01*
X144039818Y-88726921D01*
G37*
G36*
X150167918Y-85579601D02*
G01*
X150167918Y-86039561D01*
X150321238Y-86039561D01*
X150402159Y-86044258D01*
X150461894Y-86084284D01*
X150474558Y-86192881D01*
X150474558Y-86346201D01*
X150781198Y-86346201D01*
X151087837Y-86346201D01*
X151087837Y-86192881D01*
X151092534Y-86111959D01*
X151132561Y-86052224D01*
X151241157Y-86039561D01*
X151322079Y-86034864D01*
X151381814Y-85994837D01*
X151394477Y-85886241D01*
X151399174Y-85805319D01*
X151439201Y-85745585D01*
X151547797Y-85732921D01*
X151701117Y-85732921D01*
X151701117Y-86499521D01*
X151701117Y-87266120D01*
X151547797Y-87266120D01*
X151466876Y-87270817D01*
X151407141Y-87310844D01*
X151394477Y-87419440D01*
X151399174Y-87500362D01*
X151439201Y-87560097D01*
X151547797Y-87572760D01*
X151628719Y-87577457D01*
X151688454Y-87617484D01*
X151701117Y-87726080D01*
X151696420Y-87807002D01*
X151656394Y-87866736D01*
X151547797Y-87879400D01*
X151466876Y-87884097D01*
X151407141Y-87924123D01*
X151394477Y-88032720D01*
X151399174Y-88113641D01*
X151439201Y-88173376D01*
X151547797Y-88186040D01*
X151701117Y-88186040D01*
X151701117Y-88952639D01*
X151701117Y-89565919D01*
X151701117Y-89719239D01*
X151701117Y-91252438D01*
X151547797Y-91252438D01*
X151466876Y-91257135D01*
X151407141Y-91297162D01*
X151394477Y-91405758D01*
X151399174Y-91486680D01*
X151439201Y-91546414D01*
X151547797Y-91559078D01*
X151628719Y-91563775D01*
X151688454Y-91603802D01*
X151701117Y-91712398D01*
X151696420Y-91793320D01*
X151656394Y-91853054D01*
X151547797Y-91865718D01*
X151466876Y-91861021D01*
X151407141Y-91820994D01*
X151394477Y-91712398D01*
X151389780Y-91631476D01*
X151349754Y-91571742D01*
X151241157Y-91559078D01*
X151087837Y-91559078D01*
X151087837Y-91252438D01*
X151087837Y-90945798D01*
X151241157Y-90945798D01*
X151322079Y-90941101D01*
X151381814Y-90901075D01*
X151394477Y-90792478D01*
X151394477Y-90639159D01*
X151087837Y-90639159D01*
X150781198Y-90639159D01*
X150781198Y-90332519D01*
X150781198Y-90025879D01*
X150474558Y-90025879D01*
X150167918Y-90025879D01*
X150167918Y-90179199D01*
X150172615Y-90260120D01*
X150212641Y-90319855D01*
X150321238Y-90332519D01*
X150402159Y-90337216D01*
X150461894Y-90377242D01*
X150474558Y-90485839D01*
X150469861Y-90566760D01*
X150429834Y-90626495D01*
X150321238Y-90639159D01*
X150240316Y-90634462D01*
X150180582Y-90594435D01*
X150167918Y-90485839D01*
X150163221Y-90404917D01*
X150123194Y-90345182D01*
X150014598Y-90332519D01*
X149933676Y-90337216D01*
X149873942Y-90377242D01*
X149861278Y-90485839D01*
X149856581Y-90566760D01*
X149816555Y-90626495D01*
X149707958Y-90639159D01*
X149627037Y-90643856D01*
X149567302Y-90683882D01*
X149554638Y-90792478D01*
X149554638Y-90945798D01*
X149861278Y-90945798D01*
X150167918Y-90945798D01*
X150167918Y-91099118D01*
X150167918Y-91252438D01*
X149861278Y-91252438D01*
X149554638Y-91252438D01*
X149554638Y-91405758D01*
X149559335Y-91486680D01*
X149599362Y-91546414D01*
X149707958Y-91559078D01*
X149788880Y-91563775D01*
X149848615Y-91603802D01*
X149861278Y-91712398D01*
X149856581Y-91793320D01*
X149816555Y-91853054D01*
X149707958Y-91865718D01*
X149627037Y-91870415D01*
X149567302Y-91910441D01*
X149554638Y-92019038D01*
X149554638Y-92172358D01*
X149861278Y-92172358D01*
X150167918Y-92172358D01*
X150167918Y-92019038D01*
X150172615Y-91938116D01*
X150212641Y-91878381D01*
X150321238Y-91865718D01*
X150474558Y-91865718D01*
X150474558Y-92172358D01*
X150474558Y-92478998D01*
X149861278Y-92478998D01*
X149247998Y-92478998D01*
X149247998Y-92785637D01*
X149247998Y-93092277D01*
X149094679Y-93092277D01*
X149013757Y-93087580D01*
X148954022Y-93047554D01*
X148941359Y-92938957D01*
X148936662Y-92858036D01*
X148896635Y-92798301D01*
X148788039Y-92785637D01*
X148707117Y-92790334D01*
X148647382Y-92830361D01*
X148634719Y-92938957D01*
X148630022Y-93019879D01*
X148589995Y-93079614D01*
X148481399Y-93092277D01*
X148328079Y-93092277D01*
X148328079Y-92785637D01*
X148328079Y-92478998D01*
X148174759Y-92478998D01*
X148021439Y-92478998D01*
X148021439Y-92172358D01*
X148021439Y-91865718D01*
X148174759Y-91865718D01*
X148328079Y-91865718D01*
X148328079Y-92172358D01*
X148328079Y-92478998D01*
X148481399Y-92478998D01*
X148634719Y-92478998D01*
X148634719Y-92172358D01*
X148634719Y-91865718D01*
X148481399Y-91865718D01*
X148328079Y-91865718D01*
X148328079Y-91559078D01*
X148328079Y-91252438D01*
X148481399Y-91252438D01*
X148634719Y-91252438D01*
X148634719Y-91559078D01*
X148634719Y-91865718D01*
X149094679Y-91865718D01*
X149554638Y-91865718D01*
X149554638Y-91712398D01*
X149554638Y-91559078D01*
X149247998Y-91559078D01*
X148941359Y-91559078D01*
X148941359Y-91252438D01*
X148941359Y-90945798D01*
X148481399Y-90945798D01*
X148021439Y-90945798D01*
X148021439Y-90639159D01*
X148021439Y-90332519D01*
X147868119Y-90332519D01*
X147787198Y-90337216D01*
X147727463Y-90377242D01*
X147714799Y-90485839D01*
X147714799Y-90639159D01*
X147408159Y-90639159D01*
X147101520Y-90639159D01*
X147101520Y-90179199D01*
X148021439Y-90179199D01*
X148026136Y-90260120D01*
X148066163Y-90319855D01*
X148174759Y-90332519D01*
X148255681Y-90327822D01*
X148315415Y-90287795D01*
X148328079Y-90179199D01*
X148323382Y-90098277D01*
X148283355Y-90038542D01*
X148174759Y-90025879D01*
X148093837Y-90030576D01*
X148034103Y-90070602D01*
X148021439Y-90179199D01*
X147101520Y-90179199D01*
X147101520Y-89719239D01*
X146794880Y-89719239D01*
X146488240Y-89719239D01*
X146488240Y-89565919D01*
X146488240Y-89412599D01*
X146028280Y-89412599D01*
X145568320Y-89412599D01*
X145568320Y-89259279D01*
X145568320Y-89105959D01*
X145874960Y-89105959D01*
X146181600Y-89105959D01*
X146181600Y-88952639D01*
X146181600Y-88799319D01*
X146488240Y-88799319D01*
X146794880Y-88799319D01*
X146794880Y-89105959D01*
X146794880Y-89412599D01*
X146948200Y-89412599D01*
X147029121Y-89417296D01*
X147088856Y-89457323D01*
X147101520Y-89565919D01*
X147106217Y-89646841D01*
X147146243Y-89706575D01*
X147254839Y-89719239D01*
X148634719Y-89719239D01*
X148634719Y-89872559D01*
X148639416Y-89953481D01*
X148679442Y-90013215D01*
X148788039Y-90025879D01*
X148941359Y-90025879D01*
X148941359Y-90179199D01*
X148941359Y-90485839D01*
X148941359Y-90945798D01*
X149094679Y-90945798D01*
X149175600Y-90941101D01*
X149235335Y-90901075D01*
X149247998Y-90792478D01*
X149252695Y-90711557D01*
X149292722Y-90651822D01*
X149401318Y-90639159D01*
X149482240Y-90634462D01*
X149541975Y-90594435D01*
X149554638Y-90485839D01*
X149559335Y-90404917D01*
X149599362Y-90345182D01*
X149707958Y-90332519D01*
X149788880Y-90327822D01*
X149848615Y-90287795D01*
X149861278Y-90179199D01*
X149861278Y-90025879D01*
X149554638Y-90025879D01*
X149247998Y-90025879D01*
X149247998Y-89872559D01*
X149247998Y-89719239D01*
X148941359Y-89719239D01*
X148634719Y-89719239D01*
X147254839Y-89719239D01*
X147335761Y-89714542D01*
X147395496Y-89674516D01*
X147408159Y-89565919D01*
X147403462Y-89484997D01*
X147363436Y-89425263D01*
X147254839Y-89412599D01*
X147101520Y-89412599D01*
X147101520Y-89105959D01*
X147101520Y-88799319D01*
X147408159Y-88799319D01*
X147714799Y-88799319D01*
X147714799Y-88339360D01*
X147714799Y-87879400D01*
X147868119Y-87879400D01*
X148021439Y-87879400D01*
X148021439Y-88186040D01*
X148021439Y-88492680D01*
X148174759Y-88492680D01*
X148255681Y-88487983D01*
X148315415Y-88447956D01*
X148328079Y-88339360D01*
X148332776Y-88258438D01*
X148372802Y-88198703D01*
X148481399Y-88186040D01*
X148634719Y-88186040D01*
X148634719Y-88492680D01*
X148634719Y-88799319D01*
X148481399Y-88799319D01*
X148328079Y-88799319D01*
X148328079Y-89105959D01*
X148328079Y-89412599D01*
X148481399Y-89412599D01*
X148562320Y-89407902D01*
X148622055Y-89367876D01*
X148634719Y-89259279D01*
X148634719Y-89105959D01*
X148941359Y-89105959D01*
X149247998Y-89105959D01*
X149247998Y-89412599D01*
X149247998Y-89719239D01*
X149554638Y-89719239D01*
X149861278Y-89719239D01*
X149861278Y-89565919D01*
X149856581Y-89484997D01*
X149816555Y-89425263D01*
X149707958Y-89412599D01*
X149627037Y-89407902D01*
X149567302Y-89367876D01*
X149554638Y-89259279D01*
X149559335Y-89178358D01*
X149599362Y-89118623D01*
X149707958Y-89105959D01*
X149788880Y-89101262D01*
X149848615Y-89061236D01*
X149861278Y-88952639D01*
X149865975Y-88871718D01*
X149906002Y-88811983D01*
X150014598Y-88799319D01*
X150167918Y-88799319D01*
X150167918Y-89259279D01*
X150167918Y-89719239D01*
X150321238Y-89719239D01*
X150474558Y-89719239D01*
X150474558Y-89565919D01*
X150781198Y-89565919D01*
X150785895Y-89646841D01*
X150825921Y-89706575D01*
X150934518Y-89719239D01*
X151015439Y-89714542D01*
X151075174Y-89674516D01*
X151087837Y-89565919D01*
X151083140Y-89484997D01*
X151043114Y-89425263D01*
X150934518Y-89412599D01*
X150853596Y-89417296D01*
X150793861Y-89457323D01*
X150781198Y-89565919D01*
X150474558Y-89565919D01*
X150474558Y-89412599D01*
X150474558Y-89105959D01*
X150627878Y-89105959D01*
X150708799Y-89101262D01*
X150768534Y-89061236D01*
X150781198Y-88952639D01*
X151087837Y-88952639D01*
X151092534Y-89033561D01*
X151132561Y-89093296D01*
X151241157Y-89105959D01*
X151322079Y-89101262D01*
X151381814Y-89061236D01*
X151394477Y-88952639D01*
X151389780Y-88871718D01*
X151349754Y-88811983D01*
X151241157Y-88799319D01*
X151160236Y-88804016D01*
X151100501Y-88844043D01*
X151087837Y-88952639D01*
X150781198Y-88952639D01*
X150776501Y-88871718D01*
X150736474Y-88811983D01*
X150627878Y-88799319D01*
X150546956Y-88794622D01*
X150487221Y-88754596D01*
X150474558Y-88646000D01*
X150479255Y-88565078D01*
X150519281Y-88505343D01*
X150627878Y-88492680D01*
X150708799Y-88487983D01*
X150768534Y-88447956D01*
X150781198Y-88339360D01*
X150776501Y-88258438D01*
X150736474Y-88198703D01*
X150627878Y-88186040D01*
X150546956Y-88190737D01*
X150487221Y-88230763D01*
X150474558Y-88339360D01*
X150474558Y-88492680D01*
X150167918Y-88492680D01*
X149861278Y-88492680D01*
X149861278Y-88339360D01*
X149856581Y-88258438D01*
X149816555Y-88198703D01*
X149707958Y-88186040D01*
X149627037Y-88181343D01*
X149567302Y-88141316D01*
X149554638Y-88032720D01*
X149559335Y-87951798D01*
X149599362Y-87892064D01*
X149707958Y-87879400D01*
X149788880Y-87874703D01*
X149848615Y-87834676D01*
X149861278Y-87726080D01*
X149861278Y-87572760D01*
X150167918Y-87572760D01*
X150474558Y-87572760D01*
X150474558Y-87726080D01*
X150474558Y-87879400D01*
X150781198Y-87879400D01*
X151087837Y-87879400D01*
X151087837Y-87572760D01*
X151087837Y-87266120D01*
X151241157Y-87266120D01*
X151394477Y-87266120D01*
X151394477Y-86806161D01*
X151394477Y-86346201D01*
X151241157Y-86346201D01*
X151087837Y-86346201D01*
X151087837Y-86652841D01*
X151087837Y-86959480D01*
X150934518Y-86959480D01*
X150853596Y-86954783D01*
X150793861Y-86914757D01*
X150781198Y-86806161D01*
X150776501Y-86725239D01*
X150736474Y-86665504D01*
X150627878Y-86652841D01*
X150546956Y-86648144D01*
X150487221Y-86608117D01*
X150474558Y-86499521D01*
X150469861Y-86418599D01*
X150429834Y-86358864D01*
X150321238Y-86346201D01*
X150240316Y-86350898D01*
X150180582Y-86390924D01*
X150167918Y-86499521D01*
X150163221Y-86580442D01*
X150123194Y-86640177D01*
X150014598Y-86652841D01*
X149933676Y-86648144D01*
X149873942Y-86608117D01*
X149861278Y-86499521D01*
X149856581Y-86418599D01*
X149816555Y-86358864D01*
X149707958Y-86346201D01*
X149627037Y-86341504D01*
X149567302Y-86301477D01*
X149554638Y-86192881D01*
X149559335Y-86111959D01*
X149599362Y-86052224D01*
X149707958Y-86039561D01*
X149788880Y-86034864D01*
X149848615Y-85994837D01*
X149861278Y-85886241D01*
X149861278Y-85732921D01*
X149554638Y-85732921D01*
X149247998Y-85732921D01*
X149247998Y-86039561D01*
X149247998Y-86346201D01*
X149094679Y-86346201D01*
X149013757Y-86341504D01*
X148954022Y-86301477D01*
X148941359Y-86192881D01*
X148936662Y-86111959D01*
X148896635Y-86052224D01*
X148788039Y-86039561D01*
X148707117Y-86034864D01*
X148647382Y-85994837D01*
X148634719Y-85886241D01*
X148639416Y-85805319D01*
X148679442Y-85745585D01*
X148788039Y-85732921D01*
X148868960Y-85728224D01*
X148928695Y-85688198D01*
X148941359Y-85579601D01*
X148946056Y-85498680D01*
X148986082Y-85438945D01*
X149094679Y-85426281D01*
X149247998Y-85426281D01*
X149247998Y-85272961D01*
X149554638Y-85272961D01*
X149559335Y-85353883D01*
X149599362Y-85413618D01*
X149707958Y-85426281D01*
X149788880Y-85421584D01*
X149848615Y-85381558D01*
X149861278Y-85272961D01*
X149856581Y-85192040D01*
X149816555Y-85132305D01*
X149707958Y-85119641D01*
X149627037Y-85124338D01*
X149567302Y-85164365D01*
X149554638Y-85272961D01*
X149247998Y-85272961D01*
X149247998Y-85119641D01*
X149247998Y-84813002D01*
X149554638Y-84813002D01*
X149861278Y-84813002D01*
X149861278Y-84966321D01*
X149865975Y-85047243D01*
X149906002Y-85106978D01*
X150014598Y-85119641D01*
X150167918Y-85119641D01*
X150167918Y-85272961D01*
X150167918Y-85579601D01*
G37*
G36*
X149247998Y-83279802D02*
G01*
X149094679Y-83279802D01*
X149013757Y-83284499D01*
X148954022Y-83324526D01*
X148941359Y-83433122D01*
X148946056Y-83514044D01*
X148986082Y-83573779D01*
X149094679Y-83586442D01*
X149247998Y-83586442D01*
X149247998Y-84199722D01*
X149247998Y-84353042D01*
X149247998Y-84813002D01*
X148788039Y-84813002D01*
X148328079Y-84813002D01*
X148328079Y-84506362D01*
X148328079Y-84353042D01*
X148634719Y-84353042D01*
X148639416Y-84433963D01*
X148679442Y-84493698D01*
X148788039Y-84506362D01*
X148868960Y-84501665D01*
X148928695Y-84461638D01*
X148941359Y-84353042D01*
X148936662Y-84272120D01*
X148896635Y-84212385D01*
X148788039Y-84199722D01*
X148707117Y-84204419D01*
X148647382Y-84244445D01*
X148634719Y-84353042D01*
X148328079Y-84353042D01*
X148328079Y-84199722D01*
X148174759Y-84199722D01*
X148093837Y-84204419D01*
X148034103Y-84244445D01*
X148021439Y-84353042D01*
X148016742Y-84433963D01*
X147976716Y-84493698D01*
X147868119Y-84506362D01*
X147787198Y-84501665D01*
X147727463Y-84461638D01*
X147714799Y-84353042D01*
X147710102Y-84272120D01*
X147670076Y-84212385D01*
X147561479Y-84199722D01*
X147480558Y-84195025D01*
X147420823Y-84154998D01*
X147408159Y-84046402D01*
X147403462Y-83965480D01*
X147363436Y-83905746D01*
X147254839Y-83893082D01*
X147173918Y-83897779D01*
X147114183Y-83937806D01*
X147101520Y-84046402D01*
X147096823Y-84127324D01*
X147056796Y-84187058D01*
X146948200Y-84199722D01*
X146794880Y-84199722D01*
X146794880Y-83893082D01*
X146794880Y-83586442D01*
X146641560Y-83586442D01*
X146560638Y-83581745D01*
X146500903Y-83541719D01*
X146488240Y-83433122D01*
X146483543Y-83352201D01*
X146443516Y-83292466D01*
X146334920Y-83279802D01*
X146253998Y-83284499D01*
X146194264Y-83324526D01*
X146181600Y-83433122D01*
X146186297Y-83514044D01*
X146226324Y-83573779D01*
X146334920Y-83586442D01*
X146415842Y-83591139D01*
X146475576Y-83631166D01*
X146488240Y-83739762D01*
X146483543Y-83820684D01*
X146443516Y-83880418D01*
X146334920Y-83893082D01*
X146181600Y-83893082D01*
X146181600Y-83739762D01*
X146176903Y-83658841D01*
X146136877Y-83599106D01*
X146028280Y-83586442D01*
X145947359Y-83581745D01*
X145887624Y-83541719D01*
X145874960Y-83433122D01*
X145879657Y-83352201D01*
X145919684Y-83292466D01*
X146028280Y-83279802D01*
X146109202Y-83275105D01*
X146168936Y-83235079D01*
X146181600Y-83126482D01*
X146176903Y-83045561D01*
X146136877Y-82985826D01*
X146028280Y-82973163D01*
X145947359Y-82968466D01*
X145887624Y-82928439D01*
X145874960Y-82819843D01*
X145870263Y-82738921D01*
X145830237Y-82679186D01*
X145721640Y-82666523D01*
X145640719Y-82661826D01*
X145580984Y-82621799D01*
X145568320Y-82513203D01*
X145568320Y-82359883D01*
X146028280Y-82359883D01*
X146488240Y-82359883D01*
X146488240Y-82513203D01*
X146483543Y-82594124D01*
X146443516Y-82653859D01*
X146334920Y-82666523D01*
X146253998Y-82671220D01*
X146194264Y-82711246D01*
X146181600Y-82819843D01*
X146186297Y-82900764D01*
X146226324Y-82960499D01*
X146334920Y-82973163D01*
X146415842Y-82977860D01*
X146475576Y-83017886D01*
X146488240Y-83126482D01*
X146488240Y-83279802D01*
X146794880Y-83279802D01*
X147101520Y-83279802D01*
X147101520Y-83433122D01*
X147106217Y-83514044D01*
X147146243Y-83573779D01*
X147254839Y-83586442D01*
X147335761Y-83581745D01*
X147395496Y-83541719D01*
X147408159Y-83433122D01*
X147412856Y-83352201D01*
X147452883Y-83292466D01*
X147561479Y-83279802D01*
X147714799Y-83279802D01*
X147714799Y-83739762D01*
X147714799Y-84199722D01*
X147868119Y-84199722D01*
X147949041Y-84195025D01*
X148008776Y-84154998D01*
X148021439Y-84046402D01*
X148021439Y-83893082D01*
X148328079Y-83893082D01*
X148634719Y-83893082D01*
X148634719Y-83739762D01*
X148634719Y-83586442D01*
X148328079Y-83586442D01*
X148021439Y-83586442D01*
X148021439Y-83433122D01*
X148026136Y-83352201D01*
X148066163Y-83292466D01*
X148174759Y-83279802D01*
X148255681Y-83275105D01*
X148315415Y-83235079D01*
X148328079Y-83126482D01*
X148634719Y-83126482D01*
X148639416Y-83207404D01*
X148679442Y-83267139D01*
X148788039Y-83279802D01*
X148868960Y-83275105D01*
X148928695Y-83235079D01*
X148941359Y-83126482D01*
X148936662Y-83045561D01*
X148896635Y-82985826D01*
X148788039Y-82973163D01*
X148707117Y-82977860D01*
X148647382Y-83017886D01*
X148634719Y-83126482D01*
X148328079Y-83126482D01*
X148328079Y-82973163D01*
X148021439Y-82973163D01*
X147714799Y-82973163D01*
X147714799Y-82819843D01*
X147714799Y-82666523D01*
X148481399Y-82666523D01*
X149247998Y-82666523D01*
X149247998Y-82973163D01*
X149247998Y-83126482D01*
X149247998Y-83279802D01*
G37*
G36*
X147106217Y-91180040D02*
G01*
X147146243Y-91239775D01*
X147254839Y-91252438D01*
X147335761Y-91247741D01*
X147395496Y-91207715D01*
X147408159Y-91099118D01*
X147412856Y-91018197D01*
X147452883Y-90958462D01*
X147561479Y-90945798D01*
X147714799Y-90945798D01*
X147714799Y-91252438D01*
X147714799Y-91559078D01*
X147408159Y-91559078D01*
X147101520Y-91559078D01*
X147101520Y-91405758D01*
X147096823Y-91324837D01*
X147056796Y-91265102D01*
X146948200Y-91252438D01*
X146794880Y-91252438D01*
X146794880Y-91712398D01*
X146794880Y-91865718D01*
X146794880Y-92478998D01*
X146641560Y-92478998D01*
X146560638Y-92474301D01*
X146500903Y-92434274D01*
X146488240Y-92325678D01*
X146488240Y-92172358D01*
X146181600Y-92172358D01*
X145874960Y-92172358D01*
X145874960Y-92325678D01*
X145879657Y-92406599D01*
X145919684Y-92466334D01*
X146028280Y-92478998D01*
X146109202Y-92483695D01*
X146168936Y-92523721D01*
X146181600Y-92632317D01*
X146181600Y-92785637D01*
X146488240Y-92785637D01*
X146794880Y-92785637D01*
X146794880Y-92938957D01*
X146794880Y-93092277D01*
X146488240Y-93092277D01*
X146181600Y-93092277D01*
X146181600Y-93245597D01*
X146176903Y-93326519D01*
X146136877Y-93386253D01*
X146028280Y-93398917D01*
X145947359Y-93403614D01*
X145887624Y-93443641D01*
X145874960Y-93552237D01*
X145874960Y-93705557D01*
X146181600Y-93705557D01*
X146488240Y-93705557D01*
X146488240Y-93858877D01*
X146488240Y-94012197D01*
X145874960Y-94012197D01*
X145261681Y-94012197D01*
X145261681Y-94318837D01*
X145261681Y-94625476D01*
X145568320Y-94625476D01*
X145874960Y-94625476D01*
X145874960Y-94472156D01*
X145874960Y-94318837D01*
X146334920Y-94318837D01*
X146794880Y-94318837D01*
X146794880Y-94472156D01*
X146799577Y-94553078D01*
X146839603Y-94612813D01*
X146948200Y-94625476D01*
X147029121Y-94630173D01*
X147088856Y-94670200D01*
X147101520Y-94778796D01*
X147101520Y-94932116D01*
X146641560Y-94932116D01*
X146181600Y-94932116D01*
X146181600Y-94778796D01*
X146176903Y-94697875D01*
X146136877Y-94638140D01*
X146028280Y-94625476D01*
X145947359Y-94630173D01*
X145887624Y-94670200D01*
X145874960Y-94778796D01*
X145874960Y-94932116D01*
X144955041Y-94932116D01*
X144035121Y-94932116D01*
X144035121Y-94778796D01*
X144035121Y-94625476D01*
X143728481Y-94625476D01*
X143421841Y-94625476D01*
X143421841Y-94318837D01*
X143421841Y-94012197D01*
X143575161Y-94012197D01*
X143656083Y-94016894D01*
X143715818Y-94056920D01*
X143728481Y-94165517D01*
X143728481Y-94318837D01*
X144035121Y-94318837D01*
X144341761Y-94318837D01*
X144341761Y-94165517D01*
X144337064Y-94084595D01*
X144297038Y-94024860D01*
X144188441Y-94012197D01*
X144107519Y-94007500D01*
X144047785Y-93967473D01*
X144035121Y-93858877D01*
X144035121Y-93705557D01*
X143421841Y-93705557D01*
X142808562Y-93705557D01*
X142808562Y-93858877D01*
X142813259Y-93939798D01*
X142853285Y-93999533D01*
X142961882Y-94012197D01*
X143042803Y-94016894D01*
X143102538Y-94056920D01*
X143115202Y-94165517D01*
X143110505Y-94246438D01*
X143070478Y-94306173D01*
X142961882Y-94318837D01*
X142808562Y-94318837D01*
X142808562Y-94625476D01*
X142808562Y-94932116D01*
X142195282Y-94932116D01*
X141582002Y-94932116D01*
X141582002Y-94625476D01*
X141582002Y-94318837D01*
X141735322Y-94318837D01*
X141816244Y-94323534D01*
X141875979Y-94363560D01*
X141888642Y-94472156D01*
X141888642Y-94625476D01*
X142195282Y-94625476D01*
X142501922Y-94625476D01*
X142501922Y-94012197D01*
X142501922Y-93398917D01*
X142195282Y-93398917D01*
X141888642Y-93398917D01*
X141888642Y-93705557D01*
X141888642Y-94012197D01*
X141735322Y-94012197D01*
X141654401Y-94007500D01*
X141594666Y-93967473D01*
X141582002Y-93858877D01*
X141577305Y-93777955D01*
X141537279Y-93718220D01*
X141428683Y-93705557D01*
X141347761Y-93710254D01*
X141288026Y-93750280D01*
X141275363Y-93858877D01*
X141270666Y-93939798D01*
X141230639Y-93999533D01*
X141122043Y-94012197D01*
X141041121Y-94016894D01*
X140981386Y-94056920D01*
X140968723Y-94165517D01*
X140964026Y-94246438D01*
X140923999Y-94306173D01*
X140815403Y-94318837D01*
X140734481Y-94323534D01*
X140674747Y-94363560D01*
X140662083Y-94472156D01*
X140662083Y-94625476D01*
X140968723Y-94625476D01*
X141275363Y-94625476D01*
X141275363Y-94778796D01*
X141275363Y-94932116D01*
X140968723Y-94932116D01*
X140662083Y-94932116D01*
X140662083Y-94778796D01*
X140657386Y-94697875D01*
X140617359Y-94638140D01*
X140508763Y-94625476D01*
X140427841Y-94630173D01*
X140368107Y-94670200D01*
X140355443Y-94778796D01*
X140350746Y-94859718D01*
X140310720Y-94919453D01*
X140202123Y-94932116D01*
X140121202Y-94927419D01*
X140061467Y-94887393D01*
X140048803Y-94778796D01*
X140053500Y-94697875D01*
X140093527Y-94638140D01*
X140202123Y-94625476D01*
X140355443Y-94625476D01*
X140355443Y-94318837D01*
X140355443Y-94012197D01*
X140202123Y-94012197D01*
X140121202Y-94016894D01*
X140061467Y-94056920D01*
X140048803Y-94165517D01*
X140044106Y-94246438D01*
X140004080Y-94306173D01*
X139895483Y-94318837D01*
X139742163Y-94318837D01*
X139742163Y-94625476D01*
X139742163Y-94932116D01*
X139588844Y-94932116D01*
X139435524Y-94932116D01*
X139435524Y-94625476D01*
X139435524Y-94318837D01*
X139282204Y-94318837D01*
X139201282Y-94314140D01*
X139141547Y-94274113D01*
X139128884Y-94165517D01*
X139128884Y-94012197D01*
X139588844Y-94012197D01*
X140048803Y-94012197D01*
X140048803Y-93858877D01*
X140053500Y-93777955D01*
X140093527Y-93718220D01*
X140202123Y-93705557D01*
X140283045Y-93700860D01*
X140342780Y-93660833D01*
X140355443Y-93552237D01*
X140355443Y-93398917D01*
X139895483Y-93398917D01*
X139435524Y-93398917D01*
X139435524Y-93245597D01*
X139435524Y-93092277D01*
X139742163Y-93092277D01*
X140048803Y-93092277D01*
X140048803Y-92938957D01*
X140044106Y-92858036D01*
X140004080Y-92798301D01*
X139895483Y-92785637D01*
X139814562Y-92780940D01*
X139754827Y-92740914D01*
X139742163Y-92632317D01*
X139737466Y-92551396D01*
X139697440Y-92491661D01*
X139588844Y-92478998D01*
X139507922Y-92483695D01*
X139448187Y-92523721D01*
X139435524Y-92632317D01*
X139430827Y-92713239D01*
X139390800Y-92772974D01*
X139282204Y-92785637D01*
X139201282Y-92780940D01*
X139141547Y-92740914D01*
X139128884Y-92632317D01*
X139133581Y-92551396D01*
X139173607Y-92491661D01*
X139282204Y-92478998D01*
X139435524Y-92478998D01*
X139435524Y-92172358D01*
X139435524Y-91865718D01*
X139282204Y-91865718D01*
X139128884Y-91865718D01*
X139128884Y-91405758D01*
X139128884Y-91099118D01*
X139435524Y-91099118D01*
X139435524Y-91252438D01*
X139895483Y-91252438D01*
X140355443Y-91252438D01*
X140355443Y-91405758D01*
X140360140Y-91486680D01*
X140400167Y-91546414D01*
X140508763Y-91559078D01*
X140589685Y-91563775D01*
X140649419Y-91603802D01*
X140662083Y-91712398D01*
X140657386Y-91793320D01*
X140617359Y-91853054D01*
X140508763Y-91865718D01*
X140427841Y-91870415D01*
X140368107Y-91910441D01*
X140355443Y-92019038D01*
X140350746Y-92099959D01*
X140310720Y-92159694D01*
X140202123Y-92172358D01*
X140048803Y-92172358D01*
X140048803Y-91865718D01*
X140048803Y-91559078D01*
X139895483Y-91559078D01*
X139742163Y-91559078D01*
X139742163Y-91865718D01*
X139742163Y-92172358D01*
X139895483Y-92172358D01*
X139976405Y-92177055D01*
X140036140Y-92217081D01*
X140048803Y-92325678D01*
X140053500Y-92406599D01*
X140093527Y-92466334D01*
X140202123Y-92478998D01*
X140662083Y-92478998D01*
X140662083Y-92938957D01*
X140662083Y-93398917D01*
X141122043Y-93398917D01*
X141582002Y-93398917D01*
X141582002Y-92938957D01*
X141888642Y-92938957D01*
X141893339Y-93019879D01*
X141933366Y-93079614D01*
X142041962Y-93092277D01*
X142501922Y-93092277D01*
X142501922Y-93398917D01*
X142655242Y-93398917D01*
X142808562Y-93398917D01*
X142808562Y-93092277D01*
X142808562Y-92785637D01*
X142655242Y-92785637D01*
X142501922Y-92785637D01*
X142501922Y-92938957D01*
X142501922Y-93092277D01*
X142041962Y-93092277D01*
X142122884Y-93087580D01*
X142182619Y-93047554D01*
X142195282Y-92938957D01*
X142190585Y-92858036D01*
X142150559Y-92798301D01*
X142041962Y-92785637D01*
X141961041Y-92790334D01*
X141901306Y-92830361D01*
X141888642Y-92938957D01*
X141582002Y-92938957D01*
X141582002Y-92478998D01*
X141122043Y-92478998D01*
X140662083Y-92478998D01*
X140202123Y-92478998D01*
X140283045Y-92474301D01*
X140342780Y-92434274D01*
X140355443Y-92325678D01*
X140355443Y-92172358D01*
X140662083Y-92172358D01*
X140968723Y-92172358D01*
X140968723Y-91712398D01*
X140968723Y-91252438D01*
X140815403Y-91252438D01*
X140734481Y-91247741D01*
X140674747Y-91207715D01*
X140662083Y-91099118D01*
X140662083Y-90945798D01*
X140355443Y-90945798D01*
X140048803Y-90945798D01*
X140048803Y-90792478D01*
X140044106Y-90711557D01*
X140004080Y-90651822D01*
X139895483Y-90639159D01*
X139814562Y-90643856D01*
X139754827Y-90683882D01*
X139742163Y-90792478D01*
X139737466Y-90873400D01*
X139697440Y-90933135D01*
X139588844Y-90945798D01*
X139507922Y-90950495D01*
X139448187Y-90990522D01*
X139435524Y-91099118D01*
X139128884Y-91099118D01*
X139128884Y-90945798D01*
X139282204Y-90945798D01*
X139363125Y-90941101D01*
X139422860Y-90901075D01*
X139435524Y-90792478D01*
X139430827Y-90711557D01*
X139390800Y-90651822D01*
X139282204Y-90639159D01*
X139201282Y-90634462D01*
X139141547Y-90594435D01*
X139128884Y-90485839D01*
X139133581Y-90404917D01*
X139173607Y-90345182D01*
X139282204Y-90332519D01*
X139363125Y-90337216D01*
X139422860Y-90377242D01*
X139435524Y-90485839D01*
X139440221Y-90566760D01*
X139480247Y-90626495D01*
X139588844Y-90639159D01*
X139669765Y-90634462D01*
X139729500Y-90594435D01*
X139742163Y-90485839D01*
X139742163Y-90332519D01*
X140048803Y-90332519D01*
X140355443Y-90332519D01*
X140355443Y-90485839D01*
X140360140Y-90566760D01*
X140400167Y-90626495D01*
X140508763Y-90639159D01*
X140589685Y-90643856D01*
X140649419Y-90683882D01*
X140662083Y-90792478D01*
X140666780Y-90873400D01*
X140706806Y-90933135D01*
X140815403Y-90945798D01*
X140896324Y-90950495D01*
X140956059Y-90990522D01*
X140968723Y-91099118D01*
X140973420Y-91180040D01*
X141013446Y-91239775D01*
X141122043Y-91252438D01*
X141202964Y-91257135D01*
X141262699Y-91297162D01*
X141275363Y-91405758D01*
X141280060Y-91486680D01*
X141320086Y-91546414D01*
X141428683Y-91559078D01*
X141509604Y-91554381D01*
X141569339Y-91514355D01*
X141582002Y-91405758D01*
X141586699Y-91324837D01*
X141626726Y-91265102D01*
X141735322Y-91252438D01*
X141816244Y-91257135D01*
X141875979Y-91297162D01*
X141888642Y-91405758D01*
X141883945Y-91486680D01*
X141843919Y-91546414D01*
X141735322Y-91559078D01*
X141654401Y-91563775D01*
X141594666Y-91603802D01*
X141582002Y-91712398D01*
X141577305Y-91793320D01*
X141537279Y-91853054D01*
X141428683Y-91865718D01*
X141347761Y-91870415D01*
X141288026Y-91910441D01*
X141275363Y-92019038D01*
X141275363Y-92172358D01*
X141582002Y-92172358D01*
X141888642Y-92172358D01*
X141888642Y-92325678D01*
X141888642Y-92478998D01*
X142195282Y-92478998D01*
X142501922Y-92478998D01*
X142501922Y-92325678D01*
X142501922Y-92172358D01*
X142195282Y-92172358D01*
X141888642Y-92172358D01*
X141888642Y-92019038D01*
X141893339Y-91938116D01*
X141933366Y-91878381D01*
X142041962Y-91865718D01*
X142122884Y-91861021D01*
X142182619Y-91820994D01*
X142195282Y-91712398D01*
X142195282Y-91559078D01*
X142501922Y-91559078D01*
X142808562Y-91559078D01*
X142808562Y-91405758D01*
X142803865Y-91324837D01*
X142763838Y-91265102D01*
X142655242Y-91252438D01*
X142501922Y-91252438D01*
X142501922Y-90945798D01*
X142501922Y-90639159D01*
X142348602Y-90639159D01*
X142267680Y-90634462D01*
X142207946Y-90594435D01*
X142195282Y-90485839D01*
X142195282Y-90332519D01*
X141888642Y-90332519D01*
X141582002Y-90332519D01*
X141582002Y-90179199D01*
X141582002Y-90025879D01*
X141275363Y-90025879D01*
X140968723Y-90025879D01*
X140968723Y-89872559D01*
X140973420Y-89791637D01*
X141013446Y-89731903D01*
X141122043Y-89719239D01*
X141202964Y-89714542D01*
X141262699Y-89674516D01*
X141275363Y-89565919D01*
X141275363Y-89412599D01*
X141428683Y-89412599D01*
X141509604Y-89417296D01*
X141569339Y-89457323D01*
X141582002Y-89565919D01*
X141586699Y-89646841D01*
X141626726Y-89706575D01*
X141735322Y-89719239D01*
X141816244Y-89723936D01*
X141875979Y-89763962D01*
X141888642Y-89872559D01*
X141888642Y-90025879D01*
X142195282Y-90025879D01*
X142501922Y-90025879D01*
X142501922Y-90179199D01*
X142501922Y-90332519D01*
X142808562Y-90332519D01*
X143115202Y-90332519D01*
X143115202Y-90639159D01*
X143115202Y-90945798D01*
X142961882Y-90945798D01*
X142880960Y-90950495D01*
X142821225Y-90990522D01*
X142808562Y-91099118D01*
X142813259Y-91180040D01*
X142853285Y-91239775D01*
X142961882Y-91252438D01*
X143115202Y-91252438D01*
X143115202Y-91865718D01*
X143115202Y-92325678D01*
X143115202Y-92478998D01*
X143268522Y-92478998D01*
X143349443Y-92483695D01*
X143409178Y-92523721D01*
X143421841Y-92632317D01*
X143417144Y-92713239D01*
X143377118Y-92772974D01*
X143268522Y-92785637D01*
X143187600Y-92790334D01*
X143127865Y-92830361D01*
X143115202Y-92938957D01*
X143119899Y-93019879D01*
X143159925Y-93079614D01*
X143268522Y-93092277D01*
X143349443Y-93096974D01*
X143409178Y-93137001D01*
X143421841Y-93245597D01*
X143426538Y-93326519D01*
X143466565Y-93386253D01*
X143575161Y-93398917D01*
X143656083Y-93394220D01*
X143715818Y-93354194D01*
X143728481Y-93245597D01*
X143723784Y-93164676D01*
X143683758Y-93104941D01*
X143575161Y-93092277D01*
X143494240Y-93087580D01*
X143434505Y-93047554D01*
X143421841Y-92938957D01*
X143426538Y-92858036D01*
X143466565Y-92798301D01*
X143575161Y-92785637D01*
X143656083Y-92780940D01*
X143715818Y-92740914D01*
X143728481Y-92632317D01*
X143723784Y-92551396D01*
X143683758Y-92491661D01*
X143575161Y-92478998D01*
X143494240Y-92474301D01*
X143434505Y-92434274D01*
X143421841Y-92325678D01*
X143421841Y-92172358D01*
X143728481Y-92172358D01*
X144035121Y-92172358D01*
X144035121Y-92325678D01*
X144039818Y-92406599D01*
X144079845Y-92466334D01*
X144188441Y-92478998D01*
X144269363Y-92483695D01*
X144329097Y-92523721D01*
X144341761Y-92632317D01*
X144337064Y-92713239D01*
X144297038Y-92772974D01*
X144188441Y-92785637D01*
X144035121Y-92785637D01*
X144035121Y-93092277D01*
X144035121Y-93398917D01*
X144188441Y-93398917D01*
X144341761Y-93398917D01*
X144341761Y-93705557D01*
X144341761Y-94012197D01*
X144495081Y-94012197D01*
X144576003Y-94016894D01*
X144635737Y-94056920D01*
X144648401Y-94165517D01*
X144643704Y-94246438D01*
X144603677Y-94306173D01*
X144495081Y-94318837D01*
X144414159Y-94323534D01*
X144354425Y-94363560D01*
X144341761Y-94472156D01*
X144346458Y-94553078D01*
X144386484Y-94612813D01*
X144495081Y-94625476D01*
X144576003Y-94620779D01*
X144635737Y-94580753D01*
X144648401Y-94472156D01*
X144653098Y-94391235D01*
X144693124Y-94331500D01*
X144801721Y-94318837D01*
X144882642Y-94314140D01*
X144942377Y-94274113D01*
X144955041Y-94165517D01*
X144959738Y-94084595D01*
X144999764Y-94024860D01*
X145108361Y-94012197D01*
X145189282Y-94007500D01*
X145249017Y-93967473D01*
X145261681Y-93858877D01*
X145261681Y-93705557D01*
X144955041Y-93705557D01*
X144648401Y-93705557D01*
X144648401Y-93552237D01*
X144643704Y-93471315D01*
X144603677Y-93411581D01*
X144495081Y-93398917D01*
X144414159Y-93394220D01*
X144354425Y-93354194D01*
X144341761Y-93245597D01*
X144341761Y-93092277D01*
X144648401Y-93092277D01*
X144955041Y-93092277D01*
X145261681Y-93092277D01*
X145261681Y-93245597D01*
X145261681Y-93398917D01*
X145568320Y-93398917D01*
X145874960Y-93398917D01*
X145874960Y-93245597D01*
X145879657Y-93164676D01*
X145919684Y-93104941D01*
X146028280Y-93092277D01*
X146109202Y-93087580D01*
X146168936Y-93047554D01*
X146181600Y-92938957D01*
X146176903Y-92858036D01*
X146136877Y-92798301D01*
X146028280Y-92785637D01*
X145947359Y-92780940D01*
X145887624Y-92740914D01*
X145874960Y-92632317D01*
X145870263Y-92551396D01*
X145830237Y-92491661D01*
X145721640Y-92478998D01*
X145640719Y-92483695D01*
X145580984Y-92523721D01*
X145568320Y-92632317D01*
X145573017Y-92713239D01*
X145613044Y-92772974D01*
X145721640Y-92785637D01*
X145802562Y-92790334D01*
X145862297Y-92830361D01*
X145874960Y-92938957D01*
X145874960Y-93092277D01*
X145568320Y-93092277D01*
X145261681Y-93092277D01*
X144955041Y-93092277D01*
X144955041Y-92478998D01*
X144955041Y-91865718D01*
X144801721Y-91865718D01*
X144720799Y-91861021D01*
X144661064Y-91820994D01*
X144648401Y-91712398D01*
X144648401Y-91559078D01*
X144341761Y-91559078D01*
X144035121Y-91559078D01*
X144035121Y-91405758D01*
X144035121Y-91252438D01*
X144341761Y-91252438D01*
X144648401Y-91252438D01*
X145261681Y-91252438D01*
X145261681Y-91712398D01*
X145261681Y-92172358D01*
X145568320Y-92172358D01*
X145874960Y-92172358D01*
X145874960Y-92019038D01*
X145874960Y-91865718D01*
X146181600Y-91865718D01*
X146488240Y-91865718D01*
X146488240Y-91712398D01*
X146483543Y-91631476D01*
X146443516Y-91571742D01*
X146334920Y-91559078D01*
X146181600Y-91559078D01*
X146181600Y-91252438D01*
X146181600Y-91099118D01*
X146488240Y-91099118D01*
X146492937Y-91180040D01*
X146532963Y-91239775D01*
X146641560Y-91252438D01*
X146722481Y-91247741D01*
X146782216Y-91207715D01*
X146794880Y-91099118D01*
X146790183Y-91018197D01*
X146750156Y-90958462D01*
X146641560Y-90945798D01*
X146560638Y-90950495D01*
X146500903Y-90990522D01*
X146488240Y-91099118D01*
X146181600Y-91099118D01*
X146181600Y-90945798D01*
X146028280Y-90945798D01*
X145947359Y-90950495D01*
X145887624Y-90990522D01*
X145874960Y-91099118D01*
X145874960Y-91252438D01*
X145568320Y-91252438D01*
X145261681Y-91252438D01*
X144648401Y-91252438D01*
X144648401Y-91099118D01*
X144648401Y-90945798D01*
X144188441Y-90945798D01*
X143728481Y-90945798D01*
X143728481Y-91099118D01*
X143728481Y-91252438D01*
X143421841Y-91252438D01*
X143115202Y-91252438D01*
X143115202Y-91099118D01*
X143119899Y-91018197D01*
X143159925Y-90958462D01*
X143268522Y-90945798D01*
X143349443Y-90941101D01*
X143409178Y-90901075D01*
X143421841Y-90792478D01*
X143426538Y-90711557D01*
X143466565Y-90651822D01*
X143575161Y-90639159D01*
X143656083Y-90634462D01*
X143715818Y-90594435D01*
X143728481Y-90485839D01*
X143728481Y-90332519D01*
X144188441Y-90332519D01*
X144648401Y-90332519D01*
X144648401Y-90485839D01*
X144653098Y-90566760D01*
X144693124Y-90626495D01*
X144801721Y-90639159D01*
X144882642Y-90634462D01*
X144942377Y-90594435D01*
X144955041Y-90485839D01*
X144959738Y-90404917D01*
X144999764Y-90345182D01*
X145108361Y-90332519D01*
X145189282Y-90337216D01*
X145249017Y-90377242D01*
X145261681Y-90485839D01*
X145261681Y-90639159D01*
X145568320Y-90639159D01*
X145874960Y-90639159D01*
X145874960Y-90485839D01*
X145874960Y-90332519D01*
X146181600Y-90332519D01*
X146488240Y-90332519D01*
X146488240Y-90485839D01*
X146492937Y-90566760D01*
X146532963Y-90626495D01*
X146641560Y-90639159D01*
X146722481Y-90643856D01*
X146782216Y-90683882D01*
X146794880Y-90792478D01*
X146799577Y-90873400D01*
X146839603Y-90933135D01*
X146948200Y-90945798D01*
X147029121Y-90950495D01*
X147088856Y-90990522D01*
X147101520Y-91099118D01*
X147106217Y-91180040D01*
G37*
G36*
X146488240Y-89872559D02*
G01*
X146488240Y-90025879D01*
X146181600Y-90025879D01*
X145874960Y-90025879D01*
X145874960Y-90179199D01*
X145874960Y-90332519D01*
X145568320Y-90332519D01*
X145261681Y-90332519D01*
X145261681Y-90179199D01*
X145266378Y-90098277D01*
X145306404Y-90038542D01*
X145415000Y-90025879D01*
X145495922Y-90021182D01*
X145555657Y-89981155D01*
X145568320Y-89872559D01*
X145568320Y-89719239D01*
X146028280Y-89719239D01*
X146488240Y-89719239D01*
X146488240Y-89872559D01*
G37*
G36*
X140355443Y-88646000D02*
G01*
X140355443Y-89105959D01*
X140508763Y-89105959D01*
X140589685Y-89101262D01*
X140649419Y-89061236D01*
X140662083Y-88952639D01*
X140666780Y-88871718D01*
X140706806Y-88811983D01*
X140815403Y-88799319D01*
X140896324Y-88794622D01*
X140956059Y-88754596D01*
X140968723Y-88646000D01*
X140973420Y-88565078D01*
X141013446Y-88505343D01*
X141122043Y-88492680D01*
X141202964Y-88487983D01*
X141262699Y-88447956D01*
X141275363Y-88339360D01*
X141275363Y-88186040D01*
X140968723Y-88186040D01*
X140662083Y-88186040D01*
X140662083Y-87879400D01*
X140662083Y-87572760D01*
X140968723Y-87572760D01*
X141275363Y-87572760D01*
X141275363Y-87266120D01*
X141275363Y-86959480D01*
X141122043Y-86959480D01*
X141041121Y-86964177D01*
X140981386Y-87004204D01*
X140968723Y-87112800D01*
X140964026Y-87193722D01*
X140923999Y-87253457D01*
X140815403Y-87266120D01*
X140662083Y-87266120D01*
X140662083Y-86959480D01*
X140662083Y-86652841D01*
X140968723Y-86652841D01*
X141275363Y-86652841D01*
X141275363Y-86499521D01*
X141270666Y-86418599D01*
X141230639Y-86358864D01*
X141122043Y-86346201D01*
X141041121Y-86341504D01*
X140981386Y-86301477D01*
X140968723Y-86192881D01*
X140968723Y-86039561D01*
X142195282Y-86039561D01*
X143421841Y-86039561D01*
X143421841Y-85426281D01*
X143421841Y-84813002D01*
X144035121Y-84813002D01*
X144648401Y-84813002D01*
X144648401Y-84966321D01*
X144653098Y-85047243D01*
X144693124Y-85106978D01*
X144801721Y-85119641D01*
X144955041Y-85119641D01*
X144955041Y-84813002D01*
X144955041Y-84506362D01*
X144801721Y-84506362D01*
X144720799Y-84501665D01*
X144661064Y-84461638D01*
X144648401Y-84353042D01*
X144653098Y-84272120D01*
X144693124Y-84212385D01*
X144801721Y-84199722D01*
X144882642Y-84204419D01*
X144942377Y-84244445D01*
X144955041Y-84353042D01*
X144959738Y-84433963D01*
X144999764Y-84493698D01*
X145108361Y-84506362D01*
X145261681Y-84506362D01*
X145261681Y-84199722D01*
X145261681Y-83893082D01*
X145721640Y-83893082D01*
X146181600Y-83893082D01*
X146181600Y-84199722D01*
X146181600Y-84506362D01*
X146028280Y-84506362D01*
X145947359Y-84501665D01*
X145887624Y-84461638D01*
X145874960Y-84353042D01*
X145870263Y-84272120D01*
X145830237Y-84212385D01*
X145721640Y-84199722D01*
X145640719Y-84204419D01*
X145580984Y-84244445D01*
X145568320Y-84353042D01*
X145563623Y-84433963D01*
X145523597Y-84493698D01*
X145415000Y-84506362D01*
X145261681Y-84506362D01*
X145261681Y-84813002D01*
X145261681Y-85119641D01*
X145108361Y-85119641D01*
X145027439Y-85124338D01*
X144967704Y-85164365D01*
X144955041Y-85272961D01*
X144959738Y-85353883D01*
X144999764Y-85413618D01*
X145108361Y-85426281D01*
X145261681Y-85426281D01*
X145261681Y-85886241D01*
X145261681Y-86346201D01*
X145415000Y-86346201D01*
X145495922Y-86341504D01*
X145555657Y-86301477D01*
X145568320Y-86192881D01*
X145573017Y-86111959D01*
X145613044Y-86052224D01*
X145721640Y-86039561D01*
X145802562Y-86034864D01*
X145862297Y-85994837D01*
X145874960Y-85886241D01*
X145870263Y-85805319D01*
X145830237Y-85745585D01*
X145721640Y-85732921D01*
X145640719Y-85728224D01*
X145580984Y-85688198D01*
X145568320Y-85579601D01*
X145568320Y-85426281D01*
X145874960Y-85426281D01*
X146181600Y-85426281D01*
X146181600Y-85272961D01*
X146186297Y-85192040D01*
X146226324Y-85132305D01*
X146334920Y-85119641D01*
X146415842Y-85114944D01*
X146475576Y-85074918D01*
X146488240Y-84966321D01*
X146488240Y-84813002D01*
X146794880Y-84813002D01*
X147101520Y-84813002D01*
X147101520Y-84966321D01*
X147096823Y-85047243D01*
X147056796Y-85106978D01*
X146948200Y-85119641D01*
X146867278Y-85124338D01*
X146807543Y-85164365D01*
X146794880Y-85272961D01*
X146790183Y-85353883D01*
X146750156Y-85413618D01*
X146641560Y-85426281D01*
X146560638Y-85430978D01*
X146500903Y-85471005D01*
X146488240Y-85579601D01*
X146483543Y-85660523D01*
X146443516Y-85720258D01*
X146334920Y-85732921D01*
X146253998Y-85737618D01*
X146194264Y-85777645D01*
X146181600Y-85886241D01*
X146181600Y-86039561D01*
X146488240Y-86039561D01*
X146794880Y-86039561D01*
X146794880Y-87112800D01*
X146794880Y-88186040D01*
X146641560Y-88186040D01*
X146560638Y-88190737D01*
X146500903Y-88230763D01*
X146488240Y-88339360D01*
X146483543Y-88420281D01*
X146443516Y-88480016D01*
X146334920Y-88492680D01*
X146253998Y-88487983D01*
X146194264Y-88447956D01*
X146181600Y-88339360D01*
X146176903Y-88258438D01*
X146136877Y-88198703D01*
X146028280Y-88186040D01*
X145874960Y-88186040D01*
X145874960Y-87879400D01*
X145874960Y-87572760D01*
X146028280Y-87572760D01*
X146109202Y-87577457D01*
X146168936Y-87617484D01*
X146181600Y-87726080D01*
X146186297Y-87807002D01*
X146226324Y-87866736D01*
X146334920Y-87879400D01*
X146415842Y-87874703D01*
X146475576Y-87834676D01*
X146488240Y-87726080D01*
X146483543Y-87645158D01*
X146443516Y-87585424D01*
X146334920Y-87572760D01*
X146253998Y-87568063D01*
X146194264Y-87528037D01*
X146181600Y-87419440D01*
X146176903Y-87338519D01*
X146136877Y-87278784D01*
X146028280Y-87266120D01*
X145947359Y-87261423D01*
X145887624Y-87221397D01*
X145874960Y-87112800D01*
X145879657Y-87031879D01*
X145919684Y-86972144D01*
X146028280Y-86959480D01*
X146109202Y-86954783D01*
X146168936Y-86914757D01*
X146181600Y-86806161D01*
X146181600Y-86652841D01*
X145874960Y-86652841D01*
X145568320Y-86652841D01*
X145568320Y-87112800D01*
X145568320Y-87572760D01*
X145415000Y-87572760D01*
X145334079Y-87577457D01*
X145274344Y-87617484D01*
X145261681Y-87726080D01*
X145266378Y-87807002D01*
X145306404Y-87866736D01*
X145415000Y-87879400D01*
X145495922Y-87884097D01*
X145555657Y-87924123D01*
X145568320Y-88032720D01*
X145563623Y-88113641D01*
X145523597Y-88173376D01*
X145415000Y-88186040D01*
X145261681Y-88186040D01*
X145261681Y-88492680D01*
X145261681Y-88799319D01*
X145108361Y-88799319D01*
X145027439Y-88794622D01*
X144967704Y-88754596D01*
X144955041Y-88646000D01*
X144950344Y-88565078D01*
X144910317Y-88505343D01*
X144801721Y-88492680D01*
X144648401Y-88492680D01*
X144648401Y-88186040D01*
X144648401Y-87879400D01*
X144801721Y-87879400D01*
X144882642Y-87874703D01*
X144942377Y-87834676D01*
X144955041Y-87726080D01*
X144950344Y-87645158D01*
X144910317Y-87585424D01*
X144801721Y-87572760D01*
X144720799Y-87568063D01*
X144661064Y-87528037D01*
X144648401Y-87419440D01*
X144653098Y-87338519D01*
X144693124Y-87278784D01*
X144801721Y-87266120D01*
X144882642Y-87261423D01*
X144942377Y-87221397D01*
X144955041Y-87112800D01*
X144950344Y-87031879D01*
X144910317Y-86972144D01*
X144801721Y-86959480D01*
X144720799Y-86964177D01*
X144661064Y-87004204D01*
X144648401Y-87112800D01*
X144643704Y-87193722D01*
X144603677Y-87253457D01*
X144495081Y-87266120D01*
X144414159Y-87261423D01*
X144354425Y-87221397D01*
X144341761Y-87112800D01*
X144337064Y-87031879D01*
X144297038Y-86972144D01*
X144188441Y-86959480D01*
X144107519Y-86964177D01*
X144047785Y-87004204D01*
X144035121Y-87112800D01*
X144030424Y-87193722D01*
X143990398Y-87253457D01*
X143881801Y-87266120D01*
X143728481Y-87266120D01*
X143728481Y-86959480D01*
X143728481Y-86652841D01*
X144341761Y-86652841D01*
X144955041Y-86652841D01*
X144955041Y-86346201D01*
X144955041Y-86039561D01*
X144801721Y-86039561D01*
X144648401Y-86039561D01*
X144648401Y-85579601D01*
X144648401Y-85119641D01*
X144495081Y-85119641D01*
X144414159Y-85124338D01*
X144354425Y-85164365D01*
X144341761Y-85272961D01*
X144337064Y-85353883D01*
X144297038Y-85413618D01*
X144188441Y-85426281D01*
X144107519Y-85430978D01*
X144047785Y-85471005D01*
X144035121Y-85579601D01*
X144039818Y-85660523D01*
X144079845Y-85720258D01*
X144188441Y-85732921D01*
X144269363Y-85737618D01*
X144329097Y-85777645D01*
X144341761Y-85886241D01*
X144337064Y-85967163D01*
X144297038Y-86026897D01*
X144188441Y-86039561D01*
X144107519Y-86044258D01*
X144047785Y-86084284D01*
X144035121Y-86192881D01*
X144030424Y-86273802D01*
X143990398Y-86333537D01*
X143881801Y-86346201D01*
X143800880Y-86350898D01*
X143741145Y-86390924D01*
X143728481Y-86499521D01*
X143723784Y-86580442D01*
X143683758Y-86640177D01*
X143575161Y-86652841D01*
X143494240Y-86648144D01*
X143434505Y-86608117D01*
X143421841Y-86499521D01*
X143421841Y-86346201D01*
X143115202Y-86346201D01*
X142808562Y-86346201D01*
X142808562Y-86499521D01*
X142803865Y-86580442D01*
X142763838Y-86640177D01*
X142655242Y-86652841D01*
X142574320Y-86657538D01*
X142514586Y-86697564D01*
X142501922Y-86806161D01*
X142497225Y-86887082D01*
X142457198Y-86946817D01*
X142348602Y-86959480D01*
X142267680Y-86954783D01*
X142207946Y-86914757D01*
X142195282Y-86806161D01*
X142190585Y-86725239D01*
X142150559Y-86665504D01*
X142041962Y-86652841D01*
X141961041Y-86657538D01*
X141901306Y-86697564D01*
X141888642Y-86806161D01*
X141883945Y-86887082D01*
X141843919Y-86946817D01*
X141735322Y-86959480D01*
X141654401Y-86964177D01*
X141594666Y-87004204D01*
X141582002Y-87112800D01*
X141586699Y-87193722D01*
X141626726Y-87253457D01*
X141735322Y-87266120D01*
X141816244Y-87270817D01*
X141875979Y-87310844D01*
X141888642Y-87419440D01*
X141883945Y-87500362D01*
X141843919Y-87560097D01*
X141735322Y-87572760D01*
X141654401Y-87577457D01*
X141594666Y-87617484D01*
X141582002Y-87726080D01*
X141577305Y-87807002D01*
X141537279Y-87866736D01*
X141428683Y-87879400D01*
X141347761Y-87884097D01*
X141288026Y-87924123D01*
X141275363Y-88032720D01*
X141280060Y-88113641D01*
X141320086Y-88173376D01*
X141428683Y-88186040D01*
X141509604Y-88190737D01*
X141569339Y-88230763D01*
X141582002Y-88339360D01*
X141577305Y-88420281D01*
X141537279Y-88480016D01*
X141428683Y-88492680D01*
X141275363Y-88492680D01*
X141275363Y-88952639D01*
X141275363Y-89412599D01*
X140968723Y-89412599D01*
X140662083Y-89412599D01*
X140662083Y-89565919D01*
X140657386Y-89646841D01*
X140617359Y-89706575D01*
X140508763Y-89719239D01*
X140427841Y-89714542D01*
X140368107Y-89674516D01*
X140355443Y-89565919D01*
X140350746Y-89484997D01*
X140310720Y-89425263D01*
X140202123Y-89412599D01*
X140121202Y-89417296D01*
X140061467Y-89457323D01*
X140048803Y-89565919D01*
X140048803Y-89719239D01*
X139742163Y-89719239D01*
X139435524Y-89719239D01*
X139435524Y-89412599D01*
X139435524Y-89105959D01*
X139282204Y-89105959D01*
X139128884Y-89105959D01*
X139128884Y-88799319D01*
X139435524Y-88799319D01*
X139435524Y-88952639D01*
X139440221Y-89033561D01*
X139480247Y-89093296D01*
X139588844Y-89105959D01*
X139669765Y-89110656D01*
X139729500Y-89150683D01*
X139742163Y-89259279D01*
X139746860Y-89340201D01*
X139786887Y-89399936D01*
X139895483Y-89412599D01*
X140048803Y-89412599D01*
X140048803Y-89105959D01*
X140048803Y-88799319D01*
X139742163Y-88799319D01*
X139435524Y-88799319D01*
X139128884Y-88799319D01*
X139128884Y-88492680D01*
X139282204Y-88492680D01*
X139363125Y-88487983D01*
X139422860Y-88447956D01*
X139435524Y-88339360D01*
X139742163Y-88339360D01*
X139746860Y-88420281D01*
X139786887Y-88480016D01*
X139895483Y-88492680D01*
X139976405Y-88487983D01*
X140036140Y-88447956D01*
X140048803Y-88339360D01*
X140044106Y-88258438D01*
X140004080Y-88198703D01*
X139895483Y-88186040D01*
X139814562Y-88190737D01*
X139754827Y-88230763D01*
X139742163Y-88339360D01*
X139435524Y-88339360D01*
X139430827Y-88258438D01*
X139390800Y-88198703D01*
X139282204Y-88186040D01*
X139128884Y-88186040D01*
X139128884Y-87879400D01*
X139128884Y-87572760D01*
X139282204Y-87572760D01*
X139435524Y-87572760D01*
X139435524Y-87266120D01*
X139435524Y-86959480D01*
X139282204Y-86959480D01*
X139201282Y-86954783D01*
X139141547Y-86914757D01*
X139128884Y-86806161D01*
X139128884Y-86652841D01*
X139742163Y-86652841D01*
X140355443Y-86652841D01*
X140355443Y-86806161D01*
X140355443Y-86959480D01*
X140048803Y-86959480D01*
X139742163Y-86959480D01*
X139742163Y-87266120D01*
X139742163Y-87572760D01*
X139895483Y-87572760D01*
X139976405Y-87568063D01*
X140036140Y-87528037D01*
X140048803Y-87419440D01*
X140053500Y-87338519D01*
X140093527Y-87278784D01*
X140202123Y-87266120D01*
X140355443Y-87266120D01*
X140355443Y-87572760D01*
X140355443Y-87879400D01*
X140202123Y-87879400D01*
X140121202Y-87884097D01*
X140061467Y-87924123D01*
X140048803Y-88032720D01*
X140053500Y-88113641D01*
X140093527Y-88173376D01*
X140202123Y-88186040D01*
X140355443Y-88186040D01*
X140355443Y-88339360D01*
X140355443Y-88646000D01*
G37*
G36*
X142808562Y-82973163D02*
G01*
X142808562Y-83279802D01*
X142655242Y-83279802D01*
X142574320Y-83284499D01*
X142514586Y-83324526D01*
X142501922Y-83433122D01*
X142501922Y-83586442D01*
X142961882Y-83586442D01*
X143421841Y-83586442D01*
X143421841Y-83739762D01*
X143426538Y-83820684D01*
X143466565Y-83880418D01*
X143575161Y-83893082D01*
X143656083Y-83888385D01*
X143715818Y-83848359D01*
X143728481Y-83739762D01*
X143733178Y-83658841D01*
X143773205Y-83599106D01*
X143881801Y-83586442D01*
X144035121Y-83586442D01*
X144035121Y-83279802D01*
X144035121Y-82973163D01*
X143881801Y-82973163D01*
X143800880Y-82977860D01*
X143741145Y-83017886D01*
X143728481Y-83126482D01*
X143723784Y-83207404D01*
X143683758Y-83267139D01*
X143575161Y-83279802D01*
X143494240Y-83275105D01*
X143434505Y-83235079D01*
X143421841Y-83126482D01*
X143417144Y-83045561D01*
X143377118Y-82985826D01*
X143268522Y-82973163D01*
X143187600Y-82968466D01*
X143127865Y-82928439D01*
X143115202Y-82819843D01*
X143119899Y-82738921D01*
X143159925Y-82679186D01*
X143268522Y-82666523D01*
X143349443Y-82671220D01*
X143409178Y-82711246D01*
X143421841Y-82819843D01*
X143426538Y-82900764D01*
X143466565Y-82960499D01*
X143575161Y-82973163D01*
X143656083Y-82968466D01*
X143715818Y-82928439D01*
X143728481Y-82819843D01*
X143728481Y-82666523D01*
X144035121Y-82666523D01*
X144341761Y-82666523D01*
X144341761Y-82513203D01*
X144341761Y-82359883D01*
X144648401Y-82359883D01*
X144955041Y-82359883D01*
X144955041Y-82819843D01*
X144955041Y-83279802D01*
X144648401Y-83279802D01*
X144341761Y-83279802D01*
X144341761Y-83433122D01*
X144346458Y-83514044D01*
X144386484Y-83573779D01*
X144495081Y-83586442D01*
X144576003Y-83591139D01*
X144635737Y-83631166D01*
X144648401Y-83739762D01*
X144643704Y-83820684D01*
X144603677Y-83880418D01*
X144495081Y-83893082D01*
X144341761Y-83893082D01*
X144341761Y-84199722D01*
X144341761Y-84506362D01*
X144188441Y-84506362D01*
X144107519Y-84501665D01*
X144047785Y-84461638D01*
X144035121Y-84353042D01*
X144030424Y-84272120D01*
X143990398Y-84212385D01*
X143881801Y-84199722D01*
X143800880Y-84204419D01*
X143741145Y-84244445D01*
X143728481Y-84353042D01*
X143723784Y-84433963D01*
X143683758Y-84493698D01*
X143575161Y-84506362D01*
X143494240Y-84511059D01*
X143434505Y-84551085D01*
X143421841Y-84659682D01*
X143421841Y-84813002D01*
X143268522Y-84813002D01*
X143187600Y-84817699D01*
X143127865Y-84857725D01*
X143115202Y-84966321D01*
X143110505Y-85047243D01*
X143070478Y-85106978D01*
X142961882Y-85119641D01*
X142880960Y-85124338D01*
X142821225Y-85164365D01*
X142808562Y-85272961D01*
X142813259Y-85353883D01*
X142853285Y-85413618D01*
X142961882Y-85426281D01*
X143042803Y-85430978D01*
X143102538Y-85471005D01*
X143115202Y-85579601D01*
X143115202Y-85732921D01*
X142808562Y-85732921D01*
X142501922Y-85732921D01*
X142501922Y-85579601D01*
X142497225Y-85498680D01*
X142457198Y-85438945D01*
X142348602Y-85426281D01*
X142267680Y-85430978D01*
X142207946Y-85471005D01*
X142195282Y-85579601D01*
X142190585Y-85660523D01*
X142150559Y-85720258D01*
X142041962Y-85732921D01*
X141961041Y-85728224D01*
X141901306Y-85688198D01*
X141888642Y-85579601D01*
X141883945Y-85498680D01*
X141843919Y-85438945D01*
X141735322Y-85426281D01*
X141654401Y-85430978D01*
X141594666Y-85471005D01*
X141582002Y-85579601D01*
X141577305Y-85660523D01*
X141537279Y-85720258D01*
X141428683Y-85732921D01*
X141347761Y-85728224D01*
X141288026Y-85688198D01*
X141275363Y-85579601D01*
X141270666Y-85498680D01*
X141230639Y-85438945D01*
X141122043Y-85426281D01*
X141041121Y-85430978D01*
X140981386Y-85471005D01*
X140968723Y-85579601D01*
X140964026Y-85660523D01*
X140923999Y-85720258D01*
X140815403Y-85732921D01*
X140734481Y-85737618D01*
X140674747Y-85777645D01*
X140662083Y-85886241D01*
X140657386Y-85967163D01*
X140617359Y-86026897D01*
X140508763Y-86039561D01*
X140427841Y-86044258D01*
X140368107Y-86084284D01*
X140355443Y-86192881D01*
X140350746Y-86273802D01*
X140310720Y-86333537D01*
X140202123Y-86346201D01*
X140121202Y-86341504D01*
X140061467Y-86301477D01*
X140048803Y-86192881D01*
X140044106Y-86111959D01*
X140004080Y-86052224D01*
X139895483Y-86039561D01*
X139814562Y-86034864D01*
X139754827Y-85994837D01*
X139742163Y-85886241D01*
X140048803Y-85886241D01*
X140053500Y-85967163D01*
X140093527Y-86026897D01*
X140202123Y-86039561D01*
X140283045Y-86034864D01*
X140342780Y-85994837D01*
X140355443Y-85886241D01*
X140350746Y-85805319D01*
X140310720Y-85745585D01*
X140202123Y-85732921D01*
X140121202Y-85737618D01*
X140061467Y-85777645D01*
X140048803Y-85886241D01*
X139742163Y-85886241D01*
X139737466Y-85805319D01*
X139697440Y-85745585D01*
X139588844Y-85732921D01*
X139507922Y-85728224D01*
X139448187Y-85688198D01*
X139435524Y-85579601D01*
X139430827Y-85498680D01*
X139390800Y-85438945D01*
X139282204Y-85426281D01*
X139201282Y-85421584D01*
X139141547Y-85381558D01*
X139128884Y-85272961D01*
X139133581Y-85192040D01*
X139173607Y-85132305D01*
X139282204Y-85119641D01*
X139363125Y-85114944D01*
X139422860Y-85074918D01*
X139435524Y-84966321D01*
X139435524Y-84813002D01*
X139742163Y-84813002D01*
X140048803Y-84813002D01*
X140048803Y-84966321D01*
X140044106Y-85047243D01*
X140004080Y-85106978D01*
X139895483Y-85119641D01*
X139814562Y-85124338D01*
X139754827Y-85164365D01*
X139742163Y-85272961D01*
X139742163Y-85426281D01*
X140355443Y-85426281D01*
X140968723Y-85426281D01*
X140968723Y-85272961D01*
X140968723Y-85119641D01*
X140662083Y-85119641D01*
X140355443Y-85119641D01*
X140355443Y-84966321D01*
X140355443Y-84813002D01*
X140815403Y-84813002D01*
X141275363Y-84813002D01*
X141275363Y-85119641D01*
X141275363Y-85426281D01*
X141428683Y-85426281D01*
X141509604Y-85421584D01*
X141569339Y-85381558D01*
X141582002Y-85272961D01*
X141586699Y-85192040D01*
X141626726Y-85132305D01*
X141735322Y-85119641D01*
X141816244Y-85124338D01*
X141875979Y-85164365D01*
X141888642Y-85272961D01*
X141893339Y-85353883D01*
X141933366Y-85413618D01*
X142041962Y-85426281D01*
X142122884Y-85421584D01*
X142182619Y-85381558D01*
X142195282Y-85272961D01*
X142199979Y-85192040D01*
X142240006Y-85132305D01*
X142348602Y-85119641D01*
X142429524Y-85114944D01*
X142489258Y-85074918D01*
X142501922Y-84966321D01*
X142501922Y-84813002D01*
X142195282Y-84813002D01*
X141888642Y-84813002D01*
X141888642Y-84659682D01*
X141883945Y-84578760D01*
X141843919Y-84519025D01*
X141735322Y-84506362D01*
X141582002Y-84506362D01*
X141582002Y-84353042D01*
X141888642Y-84353042D01*
X141893339Y-84433963D01*
X141933366Y-84493698D01*
X142041962Y-84506362D01*
X142122884Y-84501665D01*
X142182619Y-84461638D01*
X142195282Y-84353042D01*
X142501922Y-84353042D01*
X142506619Y-84433963D01*
X142546645Y-84493698D01*
X142655242Y-84506362D01*
X142736163Y-84511059D01*
X142795898Y-84551085D01*
X142808562Y-84659682D01*
X142813259Y-84740603D01*
X142853285Y-84800338D01*
X142961882Y-84813002D01*
X143042803Y-84808305D01*
X143102538Y-84768278D01*
X143115202Y-84659682D01*
X143119899Y-84578760D01*
X143159925Y-84519025D01*
X143268522Y-84506362D01*
X143349443Y-84501665D01*
X143409178Y-84461638D01*
X143421841Y-84353042D01*
X143417144Y-84272120D01*
X143377118Y-84212385D01*
X143268522Y-84199722D01*
X143187600Y-84195025D01*
X143127865Y-84154998D01*
X143115202Y-84046402D01*
X143110505Y-83965480D01*
X143070478Y-83905746D01*
X142961882Y-83893082D01*
X142880960Y-83897779D01*
X142821225Y-83937806D01*
X142808562Y-84046402D01*
X142803865Y-84127324D01*
X142763838Y-84187058D01*
X142655242Y-84199722D01*
X142574320Y-84204419D01*
X142514586Y-84244445D01*
X142501922Y-84353042D01*
X142195282Y-84353042D01*
X142190585Y-84272120D01*
X142150559Y-84212385D01*
X142041962Y-84199722D01*
X141961041Y-84204419D01*
X141901306Y-84244445D01*
X141888642Y-84353042D01*
X141582002Y-84353042D01*
X141582002Y-83433122D01*
X141582002Y-82666523D01*
X141888642Y-82666523D01*
X141888642Y-83279802D01*
X141888642Y-83893082D01*
X142041962Y-83893082D01*
X142195282Y-83893082D01*
X142195282Y-83433122D01*
X142195282Y-82973163D01*
X142348602Y-82973163D01*
X142429524Y-82968466D01*
X142489258Y-82928439D01*
X142501922Y-82819843D01*
X142501922Y-82666523D01*
X142195282Y-82666523D01*
X141888642Y-82666523D01*
X141582002Y-82666523D01*
X141582002Y-82359883D01*
X142041962Y-82359883D01*
X142501922Y-82359883D01*
X142501922Y-82513203D01*
X142506619Y-82594124D01*
X142546645Y-82653859D01*
X142655242Y-82666523D01*
X142808562Y-82666523D01*
X142808562Y-82819843D01*
X142808562Y-82973163D01*
G37*
M02*
