%TF.GenerationSoftware,KiCad,Pcbnew,9.0.7*%
%TF.CreationDate,2026-01-29T20:13:54+09:00*%
%TF.ProjectId,ESP32-ROS-IO-V5.0.a,45535033-322d-4524-9f53-2d494f2d5635,rev?*%
%TF.SameCoordinates,Original*%
%TF.FileFunction,Drillmap*%
%TF.FilePolarity,Positive*%
%FSLAX45Y45*%
G04 Gerber Fmt 4.5, Leading zero omitted, Abs format (unit mm)*
G04 Created by KiCad (PCBNEW 9.0.7) date 2026-01-29 20:13:54*
%MOMM*%
%LPD*%
G01*
G04 APERTURE LIST*
%ADD10C,0.050000*%
%ADD11C,0.200000*%
%ADD12C,0.100000*%
%ADD13C,0.455000*%
G04 APERTURE END LIST*
D10*
X18700000Y-1400000D02*
G75*
G02*
X19000000Y-1700000I0J-300000D01*
G01*
X19000000Y-11100000D02*
X19000000Y-1700000D01*
X19000000Y-11100000D02*
G75*
G02*
X18700000Y-11400000I-300000J0D01*
G01*
X9300000Y-11400000D02*
G75*
G02*
X9000000Y-11100000I0J300000D01*
G01*
X9300000Y-11400000D02*
X18700000Y-11400000D01*
X9000000Y-1700000D02*
X9000000Y-11100000D01*
X9000000Y-1700000D02*
G75*
G02*
X9300000Y-1400000I300000J0D01*
G01*
X18700000Y-1400000D02*
X9300000Y-1400000D01*
D11*
D12*
X9779070Y-10418430D02*
X9809070Y-10448430D01*
X9809070Y-10418430D02*
X9779070Y-10448430D01*
X11774400Y-10460280D02*
X11804400Y-10490280D01*
X11804400Y-10460280D02*
X11774400Y-10490280D01*
X12342020Y-5751790D02*
X12372020Y-5781790D01*
X12372020Y-5751790D02*
X12342020Y-5781790D01*
X12481180Y-6120560D02*
X12511180Y-6150560D01*
X12511180Y-6120560D02*
X12481180Y-6150560D01*
X12539460Y-7416410D02*
X12569460Y-7446410D01*
X12569460Y-7416410D02*
X12539460Y-7446410D01*
X12576260Y-6041850D02*
X12606260Y-6071850D01*
X12606260Y-6041850D02*
X12576260Y-6071850D01*
X12930040Y-6350550D02*
X12960040Y-6380550D01*
X12960040Y-6350550D02*
X12930040Y-6380550D01*
X13429670Y-9757220D02*
X13459670Y-9787220D01*
X13459670Y-9757220D02*
X13429670Y-9787220D01*
X13430800Y-4628790D02*
X13460800Y-4658790D01*
X13460800Y-4628790D02*
X13430800Y-4658790D01*
X13506030Y-5056340D02*
X13536030Y-5086340D01*
X13536030Y-5056340D02*
X13506030Y-5086340D01*
X13536110Y-5758250D02*
X13566110Y-5788250D01*
X13566110Y-5758250D02*
X13536110Y-5788250D01*
X13547710Y-9066780D02*
X13577710Y-9096780D01*
X13577710Y-9066780D02*
X13547710Y-9096780D01*
X13848920Y-4880750D02*
X13878920Y-4910750D01*
X13878920Y-4880750D02*
X13848920Y-4910750D01*
X13898660Y-6237410D02*
X13928660Y-6267410D01*
X13928660Y-6237410D02*
X13898660Y-6267410D01*
X14063470Y-8890870D02*
X14093470Y-8920870D01*
X14093470Y-8890870D02*
X14063470Y-8920870D01*
X14273140Y-4879620D02*
X14303140Y-4909620D01*
X14303140Y-4879620D02*
X14273140Y-4909620D01*
X15271860Y-7711120D02*
X15301860Y-7741120D01*
X15301860Y-7711120D02*
X15271860Y-7741120D01*
X15837500Y-5648150D02*
X15867500Y-5678150D01*
X15867500Y-5648150D02*
X15837500Y-5678150D01*
X15839360Y-5094540D02*
X15869360Y-5124540D01*
X15869360Y-5094540D02*
X15839360Y-5124540D01*
X15857500Y-5736830D02*
X15887500Y-5766830D01*
X15887500Y-5736830D02*
X15857500Y-5766830D01*
X15926520Y-4584440D02*
X15956520Y-4614440D01*
X15956520Y-4584440D02*
X15926520Y-4614440D01*
X15996690Y-5648150D02*
X16026690Y-5678150D01*
X16026690Y-5648150D02*
X15996690Y-5678150D01*
X16239130Y-8022650D02*
X16269130Y-8052650D01*
X16269130Y-8022650D02*
X16239130Y-8052650D01*
X17079530Y-10655430D02*
X17109530Y-10685430D01*
X17109530Y-10655430D02*
X17079530Y-10685430D01*
X17145000Y-6630600D02*
X17175000Y-6660600D01*
X17175000Y-6630600D02*
X17145000Y-6660600D01*
X17169620Y-6166990D02*
X17199620Y-6196990D01*
X17199620Y-6166990D02*
X17169620Y-6196990D01*
X17191700Y-6316250D02*
X17221700Y-6346250D01*
X17221700Y-6316250D02*
X17191700Y-6346250D01*
X17307100Y-4422350D02*
X17337100Y-4452350D01*
X17337100Y-4422350D02*
X17307100Y-4452350D01*
X17374240Y-6158890D02*
X17404240Y-6188890D01*
X17404240Y-6158890D02*
X17374240Y-6188890D01*
X17560070Y-7974390D02*
X17590070Y-8004390D01*
X17590070Y-7974390D02*
X17560070Y-8004390D01*
X17670280Y-4407630D02*
X17700280Y-4437630D01*
X17700280Y-4407630D02*
X17670280Y-4437630D01*
X11470500Y-10160000D02*
G75*
G02*
X11390500Y-10160000I-40000J0D01*
G01*
X11390500Y-10160000D02*
G75*
G02*
X11470500Y-10160000I40000J0D01*
G01*
X11470500Y-10414000D02*
G75*
G02*
X11390500Y-10414000I-40000J0D01*
G01*
X11390500Y-10414000D02*
G75*
G02*
X11470500Y-10414000I40000J0D01*
G01*
X11470500Y-10668000D02*
G75*
G02*
X11390500Y-10668000I-40000J0D01*
G01*
X11390500Y-10668000D02*
G75*
G02*
X11470500Y-10668000I40000J0D01*
G01*
X11470500Y-10922000D02*
G75*
G02*
X11390500Y-10922000I-40000J0D01*
G01*
X11390500Y-10922000D02*
G75*
G02*
X11470500Y-10922000I40000J0D01*
G01*
X11723000Y-7620000D02*
G75*
G02*
X11643000Y-7620000I-40000J0D01*
G01*
X11643000Y-7620000D02*
G75*
G02*
X11723000Y-7620000I40000J0D01*
G01*
X11723000Y-8636000D02*
G75*
G02*
X11643000Y-8636000I-40000J0D01*
G01*
X11643000Y-8636000D02*
G75*
G02*
X11723000Y-8636000I40000J0D01*
G01*
X12128000Y-7620000D02*
G75*
G02*
X12048000Y-7620000I-40000J0D01*
G01*
X12048000Y-7620000D02*
G75*
G02*
X12128000Y-7620000I40000J0D01*
G01*
X12128000Y-8636000D02*
G75*
G02*
X12048000Y-8636000I-40000J0D01*
G01*
X12048000Y-8636000D02*
G75*
G02*
X12128000Y-8636000I40000J0D01*
G01*
X12232500Y-10160000D02*
G75*
G02*
X12152500Y-10160000I-40000J0D01*
G01*
X12152500Y-10160000D02*
G75*
G02*
X12232500Y-10160000I40000J0D01*
G01*
X12232500Y-10414000D02*
G75*
G02*
X12152500Y-10414000I-40000J0D01*
G01*
X12152500Y-10414000D02*
G75*
G02*
X12232500Y-10414000I40000J0D01*
G01*
X12232500Y-10668000D02*
G75*
G02*
X12152500Y-10668000I-40000J0D01*
G01*
X12152500Y-10668000D02*
G75*
G02*
X12232500Y-10668000I40000J0D01*
G01*
X12232500Y-10922000D02*
G75*
G02*
X12152500Y-10922000I-40000J0D01*
G01*
X12152500Y-10922000D02*
G75*
G02*
X12232500Y-10922000I40000J0D01*
G01*
X16677500Y-8509000D02*
G75*
G02*
X16597500Y-8509000I-40000J0D01*
G01*
X16597500Y-8509000D02*
G75*
G02*
X16677500Y-8509000I40000J0D01*
G01*
X16677500Y-8763000D02*
G75*
G02*
X16597500Y-8763000I-40000J0D01*
G01*
X16597500Y-8763000D02*
G75*
G02*
X16677500Y-8763000I40000J0D01*
G01*
X16677500Y-9017000D02*
G75*
G02*
X16597500Y-9017000I-40000J0D01*
G01*
X16597500Y-9017000D02*
G75*
G02*
X16677500Y-9017000I40000J0D01*
G01*
X16677500Y-9271000D02*
G75*
G02*
X16597500Y-9271000I-40000J0D01*
G01*
X16597500Y-9271000D02*
G75*
G02*
X16677500Y-9271000I40000J0D01*
G01*
X16677500Y-9525000D02*
G75*
G02*
X16597500Y-9525000I-40000J0D01*
G01*
X16597500Y-9525000D02*
G75*
G02*
X16677500Y-9525000I40000J0D01*
G01*
X16677500Y-9779000D02*
G75*
G02*
X16597500Y-9779000I-40000J0D01*
G01*
X16597500Y-9779000D02*
G75*
G02*
X16677500Y-9779000I40000J0D01*
G01*
X16677500Y-10033000D02*
G75*
G02*
X16597500Y-10033000I-40000J0D01*
G01*
X16597500Y-10033000D02*
G75*
G02*
X16677500Y-10033000I40000J0D01*
G01*
X16677500Y-10287000D02*
G75*
G02*
X16597500Y-10287000I-40000J0D01*
G01*
X16597500Y-10287000D02*
G75*
G02*
X16677500Y-10287000I40000J0D01*
G01*
X17439500Y-8509000D02*
G75*
G02*
X17359500Y-8509000I-40000J0D01*
G01*
X17359500Y-8509000D02*
G75*
G02*
X17439500Y-8509000I40000J0D01*
G01*
X17439500Y-8763000D02*
G75*
G02*
X17359500Y-8763000I-40000J0D01*
G01*
X17359500Y-8763000D02*
G75*
G02*
X17439500Y-8763000I40000J0D01*
G01*
X17439500Y-9017000D02*
G75*
G02*
X17359500Y-9017000I-40000J0D01*
G01*
X17359500Y-9017000D02*
G75*
G02*
X17439500Y-9017000I40000J0D01*
G01*
X17439500Y-9271000D02*
G75*
G02*
X17359500Y-9271000I-40000J0D01*
G01*
X17359500Y-9271000D02*
G75*
G02*
X17439500Y-9271000I40000J0D01*
G01*
X17439500Y-9525000D02*
G75*
G02*
X17359500Y-9525000I-40000J0D01*
G01*
X17359500Y-9525000D02*
G75*
G02*
X17439500Y-9525000I40000J0D01*
G01*
X17439500Y-9779000D02*
G75*
G02*
X17359500Y-9779000I-40000J0D01*
G01*
X17359500Y-9779000D02*
G75*
G02*
X17439500Y-9779000I40000J0D01*
G01*
X17439500Y-10033000D02*
G75*
G02*
X17359500Y-10033000I-40000J0D01*
G01*
X17359500Y-10033000D02*
G75*
G02*
X17439500Y-10033000I40000J0D01*
G01*
X17439500Y-10287000D02*
G75*
G02*
X17359500Y-10287000I-40000J0D01*
G01*
X17359500Y-10287000D02*
G75*
G02*
X17439500Y-10287000I40000J0D01*
G01*
X11684000Y-9353000D02*
X11684000Y-9443000D01*
X11639000Y-9398000D02*
X11729000Y-9398000D01*
X11938000Y-9353000D02*
X11938000Y-9443000D01*
X11893000Y-9398000D02*
X11983000Y-9398000D01*
X11094588Y-5304088D02*
X11094588Y-5236912D01*
X11027412Y-5236912D01*
X11027412Y-5304088D01*
X11094588Y-5304088D01*
X11344588Y-5304088D02*
X11344588Y-5236912D01*
X11277412Y-5236912D01*
X11277412Y-5304088D01*
X11344588Y-5304088D01*
X11594588Y-5304088D02*
X11594588Y-5236912D01*
X11527412Y-5236912D01*
X11527412Y-5304088D01*
X11594588Y-5304088D01*
X11844588Y-5304088D02*
X11844588Y-5236912D01*
X11777412Y-5236912D01*
X11777412Y-5304088D01*
X11844588Y-5304088D01*
X12534388Y-5304088D02*
X12534388Y-5236912D01*
X12467212Y-5236912D01*
X12467212Y-5304088D01*
X12534388Y-5304088D01*
X12784388Y-5304088D02*
X12784388Y-5236912D01*
X12717212Y-5236912D01*
X12717212Y-5304088D01*
X12784388Y-5304088D01*
X13034388Y-5304088D02*
X13034388Y-5236912D01*
X12967212Y-5236912D01*
X12967212Y-5304088D01*
X13034388Y-5304088D01*
X13284388Y-5304088D02*
X13284388Y-5236912D01*
X13217212Y-5236912D01*
X13217212Y-5304088D01*
X13284388Y-5304088D01*
X13977488Y-5304088D02*
X13977488Y-5236912D01*
X13910312Y-5236912D01*
X13910312Y-5304088D01*
X13977488Y-5304088D01*
X14227488Y-5304088D02*
X14227488Y-5236912D01*
X14160312Y-5236912D01*
X14160312Y-5304088D01*
X14227488Y-5304088D01*
X14477488Y-5304088D02*
X14477488Y-5236912D01*
X14410312Y-5236912D01*
X14410312Y-5304088D01*
X14477488Y-5304088D01*
X14727488Y-5304088D02*
X14727488Y-5236912D01*
X14660312Y-5236912D01*
X14660312Y-5304088D01*
X14727488Y-5304088D01*
X15425288Y-5304088D02*
X15425288Y-5236912D01*
X15358112Y-5236912D01*
X15358112Y-5304088D01*
X15425288Y-5304088D01*
X15675288Y-5304088D02*
X15675288Y-5236912D01*
X15608112Y-5236912D01*
X15608112Y-5304088D01*
X15675288Y-5304088D01*
X15925288Y-5304088D02*
X15925288Y-5236912D01*
X15858112Y-5236912D01*
X15858112Y-5304088D01*
X15925288Y-5304088D01*
X16175288Y-5304088D02*
X16175288Y-5236912D01*
X16108112Y-5236912D01*
X16108112Y-5304088D01*
X16175288Y-5304088D01*
X16189288Y-1876308D02*
X16189288Y-1809132D01*
X16122112Y-1809132D01*
X16122112Y-1876308D01*
X16189288Y-1876308D01*
X16189288Y-2689108D02*
X16189288Y-2621932D01*
X16122112Y-2621932D01*
X16122112Y-2689108D01*
X16189288Y-2689108D01*
X16189288Y-3501908D02*
X16189288Y-3434732D01*
X16122112Y-3434732D01*
X16122112Y-3501908D01*
X16189288Y-3501908D01*
X16189288Y-4319788D02*
X16189288Y-4252612D01*
X16122112Y-4252612D01*
X16122112Y-4319788D01*
X16189288Y-4319788D01*
X16439288Y-1876308D02*
X16439288Y-1809132D01*
X16372112Y-1809132D01*
X16372112Y-1876308D01*
X16439288Y-1876308D01*
X16439288Y-2689108D02*
X16439288Y-2621932D01*
X16372112Y-2621932D01*
X16372112Y-2689108D01*
X16439288Y-2689108D01*
X16439288Y-3501908D02*
X16439288Y-3434732D01*
X16372112Y-3434732D01*
X16372112Y-3501908D01*
X16439288Y-3501908D01*
X16439288Y-4319788D02*
X16439288Y-4252612D01*
X16372112Y-4252612D01*
X16372112Y-4319788D01*
X16439288Y-4319788D01*
X16689288Y-1876308D02*
X16689288Y-1809132D01*
X16622112Y-1809132D01*
X16622112Y-1876308D01*
X16689288Y-1876308D01*
X16689288Y-2689108D02*
X16689288Y-2621932D01*
X16622112Y-2621932D01*
X16622112Y-2689108D01*
X16689288Y-2689108D01*
X16689288Y-3501908D02*
X16689288Y-3434732D01*
X16622112Y-3434732D01*
X16622112Y-3501908D01*
X16689288Y-3501908D01*
X16689288Y-4319788D02*
X16689288Y-4252612D01*
X16622112Y-4252612D01*
X16622112Y-4319788D01*
X16689288Y-4319788D01*
X9601200Y-8513280D02*
X9651200Y-8463280D01*
X9601200Y-8413280D01*
X9551200Y-8463280D01*
X9601200Y-8513280D01*
X9601200Y-8767280D02*
X9651200Y-8717280D01*
X9601200Y-8667280D01*
X9551200Y-8717280D01*
X9601200Y-8767280D01*
X9601200Y-9021280D02*
X9651200Y-8971280D01*
X9601200Y-8921280D01*
X9551200Y-8971280D01*
X9601200Y-9021280D01*
X9601200Y-9275280D02*
X9651200Y-9225280D01*
X9601200Y-9175280D01*
X9551200Y-9225280D01*
X9601200Y-9275280D01*
X9601200Y-9529280D02*
X9651200Y-9479280D01*
X9601200Y-9429280D01*
X9551200Y-9479280D01*
X9601200Y-9529280D01*
X9601200Y-9783280D02*
X9651200Y-9733280D01*
X9601200Y-9683280D01*
X9551200Y-9733280D01*
X9601200Y-9783280D01*
X9601200Y-10037280D02*
X9651200Y-9987280D01*
X9601200Y-9937280D01*
X9551200Y-9987280D01*
X9601200Y-10037280D01*
X9601200Y-10291280D02*
X9651200Y-10241280D01*
X9601200Y-10191280D01*
X9551200Y-10241280D01*
X9601200Y-10291280D01*
X9601200Y-10545280D02*
X9651200Y-10495280D01*
X9601200Y-10445280D01*
X9551200Y-10495280D01*
X9601200Y-10545280D01*
X9601200Y-10799280D02*
X9651200Y-10749280D01*
X9601200Y-10699280D01*
X9551200Y-10749280D01*
X9601200Y-10799280D01*
X9601200Y-11053280D02*
X9651200Y-11003280D01*
X9601200Y-10953280D01*
X9551200Y-11003280D01*
X9601200Y-11053280D01*
X10612500Y-1904200D02*
X10662500Y-1854200D01*
X10612500Y-1804200D01*
X10562500Y-1854200D01*
X10612500Y-1904200D01*
X10612500Y-2723300D02*
X10662500Y-2673300D01*
X10612500Y-2623300D01*
X10562500Y-2673300D01*
X10612500Y-2723300D01*
X10612500Y-3536100D02*
X10662500Y-3486100D01*
X10612500Y-3436100D01*
X10562500Y-3486100D01*
X10612500Y-3536100D01*
X10612500Y-4348900D02*
X10662500Y-4298900D01*
X10612500Y-4248900D01*
X10562500Y-4298900D01*
X10612500Y-4348900D01*
X10862500Y-1904200D02*
X10912500Y-1854200D01*
X10862500Y-1804200D01*
X10812500Y-1854200D01*
X10862500Y-1904200D01*
X10862500Y-2723300D02*
X10912500Y-2673300D01*
X10862500Y-2623300D01*
X10812500Y-2673300D01*
X10862500Y-2723300D01*
X10862500Y-3536100D02*
X10912500Y-3486100D01*
X10862500Y-3436100D01*
X10812500Y-3486100D01*
X10862500Y-3536100D01*
X10862500Y-4348900D02*
X10912500Y-4298900D01*
X10862500Y-4248900D01*
X10812500Y-4298900D01*
X10862500Y-4348900D01*
X11510200Y-1903500D02*
X11560200Y-1853500D01*
X11510200Y-1803500D01*
X11460200Y-1853500D01*
X11510200Y-1903500D01*
X11510200Y-2723300D02*
X11560200Y-2673300D01*
X11510200Y-2623300D01*
X11460200Y-2673300D01*
X11510200Y-2723300D01*
X11510200Y-3536100D02*
X11560200Y-3486100D01*
X11510200Y-3436100D01*
X11460200Y-3486100D01*
X11510200Y-3536100D01*
X11510200Y-4348900D02*
X11560200Y-4298900D01*
X11510200Y-4248900D01*
X11460200Y-4298900D01*
X11510200Y-4348900D01*
X11760200Y-1903500D02*
X11810200Y-1853500D01*
X11760200Y-1803500D01*
X11710200Y-1853500D01*
X11760200Y-1903500D01*
X11760200Y-2723300D02*
X11810200Y-2673300D01*
X11760200Y-2623300D01*
X11710200Y-2673300D01*
X11760200Y-2723300D01*
X11760200Y-3536100D02*
X11810200Y-3486100D01*
X11760200Y-3436100D01*
X11710200Y-3486100D01*
X11760200Y-3536100D01*
X11760200Y-4348900D02*
X11810200Y-4298900D01*
X11760200Y-4248900D01*
X11710200Y-4298900D01*
X11760200Y-4348900D01*
X12450000Y-1897800D02*
X12500000Y-1847800D01*
X12450000Y-1797800D01*
X12400000Y-1847800D01*
X12450000Y-1897800D01*
X12450000Y-2710600D02*
X12500000Y-2660600D01*
X12450000Y-2610600D01*
X12400000Y-2660600D01*
X12450000Y-2710600D01*
X12450000Y-3523400D02*
X12500000Y-3473400D01*
X12450000Y-3423400D01*
X12400000Y-3473400D01*
X12450000Y-3523400D01*
X12450000Y-4341280D02*
X12500000Y-4291280D01*
X12450000Y-4241280D01*
X12400000Y-4291280D01*
X12450000Y-4341280D01*
X12700000Y-1897800D02*
X12750000Y-1847800D01*
X12700000Y-1797800D01*
X12650000Y-1847800D01*
X12700000Y-1897800D01*
X12700000Y-2710600D02*
X12750000Y-2660600D01*
X12700000Y-2610600D01*
X12650000Y-2660600D01*
X12700000Y-2710600D01*
X12700000Y-3523400D02*
X12750000Y-3473400D01*
X12700000Y-3423400D01*
X12650000Y-3473400D01*
X12700000Y-3523400D01*
X12700000Y-4341280D02*
X12750000Y-4291280D01*
X12700000Y-4241280D01*
X12650000Y-4291280D01*
X12700000Y-4341280D01*
X12763500Y-6603200D02*
X12813500Y-6553200D01*
X12763500Y-6503200D01*
X12713500Y-6553200D01*
X12763500Y-6603200D01*
X12763500Y-6857200D02*
X12813500Y-6807200D01*
X12763500Y-6757200D01*
X12713500Y-6807200D01*
X12763500Y-6857200D01*
X12763500Y-7111200D02*
X12813500Y-7061200D01*
X12763500Y-7011200D01*
X12713500Y-7061200D01*
X12763500Y-7111200D01*
X12763500Y-7365200D02*
X12813500Y-7315200D01*
X12763500Y-7265200D01*
X12713500Y-7315200D01*
X12763500Y-7365200D01*
X12763500Y-7619200D02*
X12813500Y-7569200D01*
X12763500Y-7519200D01*
X12713500Y-7569200D01*
X12763500Y-7619200D01*
X12763500Y-7873200D02*
X12813500Y-7823200D01*
X12763500Y-7773200D01*
X12713500Y-7823200D01*
X12763500Y-7873200D01*
X12763500Y-8127200D02*
X12813500Y-8077200D01*
X12763500Y-8027200D01*
X12713500Y-8077200D01*
X12763500Y-8127200D01*
X12763500Y-8381200D02*
X12813500Y-8331200D01*
X12763500Y-8281200D01*
X12713500Y-8331200D01*
X12763500Y-8381200D01*
X12763500Y-8635200D02*
X12813500Y-8585200D01*
X12763500Y-8535200D01*
X12713500Y-8585200D01*
X12763500Y-8635200D01*
X12763500Y-8889200D02*
X12813500Y-8839200D01*
X12763500Y-8789200D01*
X12713500Y-8839200D01*
X12763500Y-8889200D01*
X12763500Y-9143200D02*
X12813500Y-9093200D01*
X12763500Y-9043200D01*
X12713500Y-9093200D01*
X12763500Y-9143200D01*
X12763500Y-9397200D02*
X12813500Y-9347200D01*
X12763500Y-9297200D01*
X12713500Y-9347200D01*
X12763500Y-9397200D01*
X12763500Y-9651200D02*
X12813500Y-9601200D01*
X12763500Y-9551200D01*
X12713500Y-9601200D01*
X12763500Y-9651200D01*
X12763500Y-9905200D02*
X12813500Y-9855200D01*
X12763500Y-9805200D01*
X12713500Y-9855200D01*
X12763500Y-9905200D01*
X12763500Y-10159200D02*
X12813500Y-10109200D01*
X12763500Y-10059200D01*
X12713500Y-10109200D01*
X12763500Y-10159200D01*
X12763500Y-10413200D02*
X12813500Y-10363200D01*
X12763500Y-10313200D01*
X12713500Y-10363200D01*
X12763500Y-10413200D01*
X12763500Y-10667200D02*
X12813500Y-10617200D01*
X12763500Y-10567200D01*
X12713500Y-10617200D01*
X12763500Y-10667200D01*
X12763500Y-10921200D02*
X12813500Y-10871200D01*
X12763500Y-10821200D01*
X12713500Y-10871200D01*
X12763500Y-10921200D01*
X12763500Y-11175200D02*
X12813500Y-11125200D01*
X12763500Y-11075200D01*
X12713500Y-11125200D01*
X12763500Y-11175200D01*
X13144500Y-6603200D02*
X13194500Y-6553200D01*
X13144500Y-6503200D01*
X13094500Y-6553200D01*
X13144500Y-6603200D01*
X13144500Y-6857200D02*
X13194500Y-6807200D01*
X13144500Y-6757200D01*
X13094500Y-6807200D01*
X13144500Y-6857200D01*
X13144500Y-7111200D02*
X13194500Y-7061200D01*
X13144500Y-7011200D01*
X13094500Y-7061200D01*
X13144500Y-7111200D01*
X13144500Y-7365200D02*
X13194500Y-7315200D01*
X13144500Y-7265200D01*
X13094500Y-7315200D01*
X13144500Y-7365200D01*
X13144500Y-7619200D02*
X13194500Y-7569200D01*
X13144500Y-7519200D01*
X13094500Y-7569200D01*
X13144500Y-7619200D01*
X13144500Y-7873200D02*
X13194500Y-7823200D01*
X13144500Y-7773200D01*
X13094500Y-7823200D01*
X13144500Y-7873200D01*
X13144500Y-8127200D02*
X13194500Y-8077200D01*
X13144500Y-8027200D01*
X13094500Y-8077200D01*
X13144500Y-8127200D01*
X13144500Y-8381200D02*
X13194500Y-8331200D01*
X13144500Y-8281200D01*
X13094500Y-8331200D01*
X13144500Y-8381200D01*
X13144500Y-8635200D02*
X13194500Y-8585200D01*
X13144500Y-8535200D01*
X13094500Y-8585200D01*
X13144500Y-8635200D01*
X13144500Y-8889200D02*
X13194500Y-8839200D01*
X13144500Y-8789200D01*
X13094500Y-8839200D01*
X13144500Y-8889200D01*
X13144500Y-9143200D02*
X13194500Y-9093200D01*
X13144500Y-9043200D01*
X13094500Y-9093200D01*
X13144500Y-9143200D01*
X13144500Y-9397200D02*
X13194500Y-9347200D01*
X13144500Y-9297200D01*
X13094500Y-9347200D01*
X13144500Y-9397200D01*
X13144500Y-9651200D02*
X13194500Y-9601200D01*
X13144500Y-9551200D01*
X13094500Y-9601200D01*
X13144500Y-9651200D01*
X13144500Y-9905200D02*
X13194500Y-9855200D01*
X13144500Y-9805200D01*
X13094500Y-9855200D01*
X13144500Y-9905200D01*
X13144500Y-10159200D02*
X13194500Y-10109200D01*
X13144500Y-10059200D01*
X13094500Y-10109200D01*
X13144500Y-10159200D01*
X13144500Y-10413200D02*
X13194500Y-10363200D01*
X13144500Y-10313200D01*
X13094500Y-10363200D01*
X13144500Y-10413200D01*
X13144500Y-10667200D02*
X13194500Y-10617200D01*
X13144500Y-10567200D01*
X13094500Y-10617200D01*
X13144500Y-10667200D01*
X13144500Y-10921200D02*
X13194500Y-10871200D01*
X13144500Y-10821200D01*
X13094500Y-10871200D01*
X13144500Y-10921200D01*
X13144500Y-11175200D02*
X13194500Y-11125200D01*
X13144500Y-11075200D01*
X13094500Y-11125200D01*
X13144500Y-11175200D01*
X13351700Y-1897800D02*
X13401700Y-1847800D01*
X13351700Y-1797800D01*
X13301700Y-1847800D01*
X13351700Y-1897800D01*
X13351700Y-2708900D02*
X13401700Y-2658900D01*
X13351700Y-2608900D01*
X13301700Y-2658900D01*
X13351700Y-2708900D01*
X13351700Y-3523400D02*
X13401700Y-3473400D01*
X13351700Y-3423400D01*
X13301700Y-3473400D01*
X13351700Y-3523400D01*
X13601700Y-1897800D02*
X13651700Y-1847800D01*
X13601700Y-1797800D01*
X13551700Y-1847800D01*
X13601700Y-1897800D01*
X13601700Y-2708900D02*
X13651700Y-2658900D01*
X13601700Y-2608900D01*
X13551700Y-2658900D01*
X13601700Y-2708900D01*
X13601700Y-3523400D02*
X13651700Y-3473400D01*
X13601700Y-3423400D01*
X13551700Y-3473400D01*
X13601700Y-3523400D01*
X14280800Y-1897800D02*
X14330800Y-1847800D01*
X14280800Y-1797800D01*
X14230800Y-1847800D01*
X14280800Y-1897800D01*
X14280800Y-2710600D02*
X14330800Y-2660600D01*
X14280800Y-2610600D01*
X14230800Y-2660600D01*
X14280800Y-2710600D01*
X14280800Y-3523400D02*
X14330800Y-3473400D01*
X14280800Y-3423400D01*
X14230800Y-3473400D01*
X14280800Y-3523400D01*
X14280800Y-4341280D02*
X14330800Y-4291280D01*
X14280800Y-4241280D01*
X14230800Y-4291280D01*
X14280800Y-4341280D01*
X14530800Y-1897800D02*
X14580800Y-1847800D01*
X14530800Y-1797800D01*
X14480800Y-1847800D01*
X14530800Y-1897800D01*
X14530800Y-2710600D02*
X14580800Y-2660600D01*
X14530800Y-2610600D01*
X14480800Y-2660600D01*
X14530800Y-2710600D01*
X14530800Y-3523400D02*
X14580800Y-3473400D01*
X14530800Y-3423400D01*
X14480800Y-3473400D01*
X14530800Y-3523400D01*
X14530800Y-4341280D02*
X14580800Y-4291280D01*
X14530800Y-4241280D01*
X14480800Y-4291280D01*
X14530800Y-4341280D01*
X15184500Y-1897800D02*
X15234500Y-1847800D01*
X15184500Y-1797800D01*
X15134500Y-1847800D01*
X15184500Y-1897800D01*
X15184500Y-2710600D02*
X15234500Y-2660600D01*
X15184500Y-2610600D01*
X15134500Y-2660600D01*
X15184500Y-2710600D01*
X15184500Y-3523400D02*
X15234500Y-3473400D01*
X15184500Y-3423400D01*
X15134500Y-3473400D01*
X15184500Y-3523400D01*
X15184500Y-4336200D02*
X15234500Y-4286200D01*
X15184500Y-4236200D01*
X15134500Y-4286200D01*
X15184500Y-4336200D01*
X15434500Y-1897800D02*
X15484500Y-1847800D01*
X15434500Y-1797800D01*
X15384500Y-1847800D01*
X15434500Y-1897800D01*
X15434500Y-2710600D02*
X15484500Y-2660600D01*
X15434500Y-2610600D01*
X15384500Y-2660600D01*
X15434500Y-2710600D01*
X15434500Y-3523400D02*
X15484500Y-3473400D01*
X15434500Y-3423400D01*
X15384500Y-3473400D01*
X15434500Y-3523400D01*
X15434500Y-4336200D02*
X15484500Y-4286200D01*
X15434500Y-4236200D01*
X15384500Y-4286200D01*
X15434500Y-4336200D01*
X15684500Y-6603200D02*
X15734500Y-6553200D01*
X15684500Y-6503200D01*
X15634500Y-6553200D01*
X15684500Y-6603200D01*
X15684500Y-6857200D02*
X15734500Y-6807200D01*
X15684500Y-6757200D01*
X15634500Y-6807200D01*
X15684500Y-6857200D01*
X15684500Y-7111200D02*
X15734500Y-7061200D01*
X15684500Y-7011200D01*
X15634500Y-7061200D01*
X15684500Y-7111200D01*
X15684500Y-7365200D02*
X15734500Y-7315200D01*
X15684500Y-7265200D01*
X15634500Y-7315200D01*
X15684500Y-7365200D01*
X15684500Y-7619200D02*
X15734500Y-7569200D01*
X15684500Y-7519200D01*
X15634500Y-7569200D01*
X15684500Y-7619200D01*
X15684500Y-7873200D02*
X15734500Y-7823200D01*
X15684500Y-7773200D01*
X15634500Y-7823200D01*
X15684500Y-7873200D01*
X15684500Y-8127200D02*
X15734500Y-8077200D01*
X15684500Y-8027200D01*
X15634500Y-8077200D01*
X15684500Y-8127200D01*
X15684500Y-8381200D02*
X15734500Y-8331200D01*
X15684500Y-8281200D01*
X15634500Y-8331200D01*
X15684500Y-8381200D01*
X15684500Y-8635200D02*
X15734500Y-8585200D01*
X15684500Y-8535200D01*
X15634500Y-8585200D01*
X15684500Y-8635200D01*
X15684500Y-8889200D02*
X15734500Y-8839200D01*
X15684500Y-8789200D01*
X15634500Y-8839200D01*
X15684500Y-8889200D01*
X15684500Y-9143200D02*
X15734500Y-9093200D01*
X15684500Y-9043200D01*
X15634500Y-9093200D01*
X15684500Y-9143200D01*
X15684500Y-9397200D02*
X15734500Y-9347200D01*
X15684500Y-9297200D01*
X15634500Y-9347200D01*
X15684500Y-9397200D01*
X15684500Y-9651200D02*
X15734500Y-9601200D01*
X15684500Y-9551200D01*
X15634500Y-9601200D01*
X15684500Y-9651200D01*
X15684500Y-9905200D02*
X15734500Y-9855200D01*
X15684500Y-9805200D01*
X15634500Y-9855200D01*
X15684500Y-9905200D01*
X15684500Y-10159200D02*
X15734500Y-10109200D01*
X15684500Y-10059200D01*
X15634500Y-10109200D01*
X15684500Y-10159200D01*
X15684500Y-10413200D02*
X15734500Y-10363200D01*
X15684500Y-10313200D01*
X15634500Y-10363200D01*
X15684500Y-10413200D01*
X15684500Y-10667200D02*
X15734500Y-10617200D01*
X15684500Y-10567200D01*
X15634500Y-10617200D01*
X15684500Y-10667200D01*
X15684500Y-10921200D02*
X15734500Y-10871200D01*
X15684500Y-10821200D01*
X15634500Y-10871200D01*
X15684500Y-10921200D01*
X15684500Y-11175200D02*
X15734500Y-11125200D01*
X15684500Y-11075200D01*
X15634500Y-11125200D01*
X15684500Y-11175200D01*
X16065500Y-6603200D02*
X16115500Y-6553200D01*
X16065500Y-6503200D01*
X16015500Y-6553200D01*
X16065500Y-6603200D01*
X16065500Y-6857200D02*
X16115500Y-6807200D01*
X16065500Y-6757200D01*
X16015500Y-6807200D01*
X16065500Y-6857200D01*
X16065500Y-7111200D02*
X16115500Y-7061200D01*
X16065500Y-7011200D01*
X16015500Y-7061200D01*
X16065500Y-7111200D01*
X16065500Y-7365200D02*
X16115500Y-7315200D01*
X16065500Y-7265200D01*
X16015500Y-7315200D01*
X16065500Y-7365200D01*
X16065500Y-7619200D02*
X16115500Y-7569200D01*
X16065500Y-7519200D01*
X16015500Y-7569200D01*
X16065500Y-7619200D01*
X16065500Y-7873200D02*
X16115500Y-7823200D01*
X16065500Y-7773200D01*
X16015500Y-7823200D01*
X16065500Y-7873200D01*
X16065500Y-8127200D02*
X16115500Y-8077200D01*
X16065500Y-8027200D01*
X16015500Y-8077200D01*
X16065500Y-8127200D01*
X16065500Y-8381200D02*
X16115500Y-8331200D01*
X16065500Y-8281200D01*
X16015500Y-8331200D01*
X16065500Y-8381200D01*
X16065500Y-8635200D02*
X16115500Y-8585200D01*
X16065500Y-8535200D01*
X16015500Y-8585200D01*
X16065500Y-8635200D01*
X16065500Y-8889200D02*
X16115500Y-8839200D01*
X16065500Y-8789200D01*
X16015500Y-8839200D01*
X16065500Y-8889200D01*
X16065500Y-9143200D02*
X16115500Y-9093200D01*
X16065500Y-9043200D01*
X16015500Y-9093200D01*
X16065500Y-9143200D01*
X16065500Y-9397200D02*
X16115500Y-9347200D01*
X16065500Y-9297200D01*
X16015500Y-9347200D01*
X16065500Y-9397200D01*
X16065500Y-9651200D02*
X16115500Y-9601200D01*
X16065500Y-9551200D01*
X16015500Y-9601200D01*
X16065500Y-9651200D01*
X16065500Y-9905200D02*
X16115500Y-9855200D01*
X16065500Y-9805200D01*
X16015500Y-9855200D01*
X16065500Y-9905200D01*
X16065500Y-10159200D02*
X16115500Y-10109200D01*
X16065500Y-10059200D01*
X16015500Y-10109200D01*
X16065500Y-10159200D01*
X16065500Y-10413200D02*
X16115500Y-10363200D01*
X16065500Y-10313200D01*
X16015500Y-10363200D01*
X16065500Y-10413200D01*
X16065500Y-10667200D02*
X16115500Y-10617200D01*
X16065500Y-10567200D01*
X16015500Y-10617200D01*
X16065500Y-10667200D01*
X16065500Y-10921200D02*
X16115500Y-10871200D01*
X16065500Y-10821200D01*
X16015500Y-10871200D01*
X16065500Y-10921200D01*
X16065500Y-11175200D02*
X16115500Y-11125200D01*
X16065500Y-11075200D01*
X16015500Y-11125200D01*
X16065500Y-11175200D01*
X17322400Y-4063200D02*
X17372400Y-4013200D01*
X17322400Y-3963200D01*
X17272400Y-4013200D01*
X17322400Y-4063200D01*
X17322400Y-4317200D02*
X17372400Y-4267200D01*
X17322400Y-4217200D01*
X17272400Y-4267200D01*
X17322400Y-4317200D01*
X17474800Y-4840440D02*
X17524800Y-4790440D01*
X17474800Y-4740440D01*
X17424800Y-4790440D01*
X17474800Y-4840440D01*
X17728800Y-4840440D02*
X17778800Y-4790440D01*
X17728800Y-4740440D01*
X17678800Y-4790440D01*
X17728800Y-4840440D01*
X17830400Y-4063200D02*
X17880400Y-4013200D01*
X17830400Y-3963200D01*
X17780400Y-4013200D01*
X17830400Y-4063200D01*
X17830400Y-4317200D02*
X17880400Y-4267200D01*
X17830400Y-4217200D01*
X17780400Y-4267200D01*
X17830400Y-4317200D01*
X17982800Y-4840440D02*
X18032800Y-4790440D01*
X17982800Y-4740440D01*
X17932800Y-4790440D01*
X17982800Y-4840440D01*
X18236800Y-4840440D02*
X18286800Y-4790440D01*
X18236800Y-4740440D01*
X18186800Y-4790440D01*
X18236800Y-4840440D01*
X18340200Y-4063200D02*
X18390200Y-4013200D01*
X18340200Y-3963200D01*
X18290200Y-4013200D01*
X18340200Y-4063200D01*
X18340200Y-4317200D02*
X18390200Y-4267200D01*
X18340200Y-4217200D01*
X18290200Y-4267200D01*
X18340200Y-4317200D01*
X18364200Y-6133300D02*
X18414200Y-6083300D01*
X18364200Y-6033300D01*
X18314200Y-6083300D01*
X18364200Y-6133300D01*
X18364200Y-6387300D02*
X18414200Y-6337300D01*
X18364200Y-6287300D01*
X18314200Y-6337300D01*
X18364200Y-6387300D01*
X18364200Y-6641300D02*
X18414200Y-6591300D01*
X18364200Y-6541300D01*
X18314200Y-6591300D01*
X18364200Y-6641300D01*
X18364200Y-6895300D02*
X18414200Y-6845300D01*
X18364200Y-6795300D01*
X18314200Y-6845300D01*
X18364200Y-6895300D01*
X18364200Y-7149300D02*
X18414200Y-7099300D01*
X18364200Y-7049300D01*
X18314200Y-7099300D01*
X18364200Y-7149300D01*
X18364200Y-7403300D02*
X18414200Y-7353300D01*
X18364200Y-7303300D01*
X18314200Y-7353300D01*
X18364200Y-7403300D01*
X18364200Y-7657300D02*
X18414200Y-7607300D01*
X18364200Y-7557300D01*
X18314200Y-7607300D01*
X18364200Y-7657300D01*
X18364200Y-7911300D02*
X18414200Y-7861300D01*
X18364200Y-7811300D01*
X18314200Y-7861300D01*
X18364200Y-7911300D01*
X18364200Y-8165300D02*
X18414200Y-8115300D01*
X18364200Y-8065300D01*
X18314200Y-8115300D01*
X18364200Y-8165300D01*
X18364200Y-8419300D02*
X18414200Y-8369300D01*
X18364200Y-8319300D01*
X18314200Y-8369300D01*
X18364200Y-8419300D01*
X18364200Y-8673300D02*
X18414200Y-8623300D01*
X18364200Y-8573300D01*
X18314200Y-8623300D01*
X18364200Y-8673300D01*
D13*
X17314700Y-3150700D02*
X17769700Y-3605700D01*
X17769700Y-3150700D02*
X17314700Y-3605700D01*
X17769700Y-3378200D02*
G75*
G02*
X17314700Y-3378200I-227500J0D01*
G01*
X17314700Y-3378200D02*
G75*
G02*
X17769700Y-3378200I227500J0D01*
G01*
X17319100Y-1931500D02*
X17774100Y-2386500D01*
X17774100Y-1931500D02*
X17319100Y-2386500D01*
X17774100Y-2159000D02*
G75*
G02*
X17319100Y-2159000I-227500J0D01*
G01*
X17319100Y-2159000D02*
G75*
G02*
X17774100Y-2159000I227500J0D01*
G01*
X18034700Y-3150700D02*
X18489700Y-3605700D01*
X18489700Y-3150700D02*
X18034700Y-3605700D01*
X18489700Y-3378200D02*
G75*
G02*
X18034700Y-3378200I-227500J0D01*
G01*
X18034700Y-3378200D02*
G75*
G02*
X18489700Y-3378200I227500J0D01*
G01*
X18039100Y-1931500D02*
X18494100Y-2386500D01*
X18494100Y-1931500D02*
X18039100Y-2386500D01*
X18494100Y-2159000D02*
G75*
G02*
X18039100Y-2159000I-227500J0D01*
G01*
X18039100Y-2159000D02*
G75*
G02*
X18494100Y-2159000I227500J0D01*
G01*
D11*
X9258277Y-11713984D02*
X9258277Y-11513984D01*
X9258277Y-11513984D02*
X9305896Y-11513984D01*
X9305896Y-11513984D02*
X9334467Y-11523508D01*
X9334467Y-11523508D02*
X9353515Y-11542555D01*
X9353515Y-11542555D02*
X9363039Y-11561603D01*
X9363039Y-11561603D02*
X9372563Y-11599698D01*
X9372563Y-11599698D02*
X9372563Y-11628269D01*
X9372563Y-11628269D02*
X9363039Y-11666365D01*
X9363039Y-11666365D02*
X9353515Y-11685412D01*
X9353515Y-11685412D02*
X9334467Y-11704460D01*
X9334467Y-11704460D02*
X9305896Y-11713984D01*
X9305896Y-11713984D02*
X9258277Y-11713984D01*
X9458277Y-11713984D02*
X9458277Y-11580650D01*
X9458277Y-11618746D02*
X9467801Y-11599698D01*
X9467801Y-11599698D02*
X9477324Y-11590174D01*
X9477324Y-11590174D02*
X9496372Y-11580650D01*
X9496372Y-11580650D02*
X9515420Y-11580650D01*
X9582086Y-11713984D02*
X9582086Y-11580650D01*
X9582086Y-11513984D02*
X9572563Y-11523508D01*
X9572563Y-11523508D02*
X9582086Y-11533031D01*
X9582086Y-11533031D02*
X9591610Y-11523508D01*
X9591610Y-11523508D02*
X9582086Y-11513984D01*
X9582086Y-11513984D02*
X9582086Y-11533031D01*
X9705896Y-11713984D02*
X9686848Y-11704460D01*
X9686848Y-11704460D02*
X9677324Y-11685412D01*
X9677324Y-11685412D02*
X9677324Y-11513984D01*
X9810658Y-11713984D02*
X9791610Y-11704460D01*
X9791610Y-11704460D02*
X9782086Y-11685412D01*
X9782086Y-11685412D02*
X9782086Y-11513984D01*
X10039229Y-11713984D02*
X10039229Y-11513984D01*
X10039229Y-11513984D02*
X10105896Y-11656841D01*
X10105896Y-11656841D02*
X10172563Y-11513984D01*
X10172563Y-11513984D02*
X10172563Y-11713984D01*
X10353515Y-11713984D02*
X10353515Y-11609222D01*
X10353515Y-11609222D02*
X10343991Y-11590174D01*
X10343991Y-11590174D02*
X10324944Y-11580650D01*
X10324944Y-11580650D02*
X10286848Y-11580650D01*
X10286848Y-11580650D02*
X10267801Y-11590174D01*
X10353515Y-11704460D02*
X10334467Y-11713984D01*
X10334467Y-11713984D02*
X10286848Y-11713984D01*
X10286848Y-11713984D02*
X10267801Y-11704460D01*
X10267801Y-11704460D02*
X10258277Y-11685412D01*
X10258277Y-11685412D02*
X10258277Y-11666365D01*
X10258277Y-11666365D02*
X10267801Y-11647317D01*
X10267801Y-11647317D02*
X10286848Y-11637793D01*
X10286848Y-11637793D02*
X10334467Y-11637793D01*
X10334467Y-11637793D02*
X10353515Y-11628269D01*
X10448753Y-11580650D02*
X10448753Y-11780650D01*
X10448753Y-11590174D02*
X10467801Y-11580650D01*
X10467801Y-11580650D02*
X10505896Y-11580650D01*
X10505896Y-11580650D02*
X10524944Y-11590174D01*
X10524944Y-11590174D02*
X10534467Y-11599698D01*
X10534467Y-11599698D02*
X10543991Y-11618746D01*
X10543991Y-11618746D02*
X10543991Y-11675888D01*
X10543991Y-11675888D02*
X10534467Y-11694936D01*
X10534467Y-11694936D02*
X10524944Y-11704460D01*
X10524944Y-11704460D02*
X10505896Y-11713984D01*
X10505896Y-11713984D02*
X10467801Y-11713984D01*
X10467801Y-11713984D02*
X10448753Y-11704460D01*
X10629705Y-11694936D02*
X10639229Y-11704460D01*
X10639229Y-11704460D02*
X10629705Y-11713984D01*
X10629705Y-11713984D02*
X10620182Y-11704460D01*
X10620182Y-11704460D02*
X10629705Y-11694936D01*
X10629705Y-11694936D02*
X10629705Y-11713984D01*
X10629705Y-11590174D02*
X10639229Y-11599698D01*
X10639229Y-11599698D02*
X10629705Y-11609222D01*
X10629705Y-11609222D02*
X10620182Y-11599698D01*
X10620182Y-11599698D02*
X10629705Y-11590174D01*
X10629705Y-11590174D02*
X10629705Y-11609222D01*
D12*
X8967500Y-12027500D02*
X8997500Y-12057500D01*
X8997500Y-12027500D02*
X8967500Y-12057500D01*
D11*
X9296372Y-11933984D02*
X9315420Y-11933984D01*
X9315420Y-11933984D02*
X9334467Y-11943508D01*
X9334467Y-11943508D02*
X9343991Y-11953031D01*
X9343991Y-11953031D02*
X9353515Y-11972079D01*
X9353515Y-11972079D02*
X9363039Y-12010174D01*
X9363039Y-12010174D02*
X9363039Y-12057793D01*
X9363039Y-12057793D02*
X9353515Y-12095888D01*
X9353515Y-12095888D02*
X9343991Y-12114936D01*
X9343991Y-12114936D02*
X9334467Y-12124460D01*
X9334467Y-12124460D02*
X9315420Y-12133984D01*
X9315420Y-12133984D02*
X9296372Y-12133984D01*
X9296372Y-12133984D02*
X9277324Y-12124460D01*
X9277324Y-12124460D02*
X9267801Y-12114936D01*
X9267801Y-12114936D02*
X9258277Y-12095888D01*
X9258277Y-12095888D02*
X9248753Y-12057793D01*
X9248753Y-12057793D02*
X9248753Y-12010174D01*
X9248753Y-12010174D02*
X9258277Y-11972079D01*
X9258277Y-11972079D02*
X9267801Y-11953031D01*
X9267801Y-11953031D02*
X9277324Y-11943508D01*
X9277324Y-11943508D02*
X9296372Y-11933984D01*
X9448753Y-12114936D02*
X9458277Y-12124460D01*
X9458277Y-12124460D02*
X9448753Y-12133984D01*
X9448753Y-12133984D02*
X9439229Y-12124460D01*
X9439229Y-12124460D02*
X9448753Y-12114936D01*
X9448753Y-12114936D02*
X9448753Y-12133984D01*
X9524944Y-11933984D02*
X9648753Y-11933984D01*
X9648753Y-11933984D02*
X9582086Y-12010174D01*
X9582086Y-12010174D02*
X9610658Y-12010174D01*
X9610658Y-12010174D02*
X9629705Y-12019698D01*
X9629705Y-12019698D02*
X9639229Y-12029222D01*
X9639229Y-12029222D02*
X9648753Y-12048269D01*
X9648753Y-12048269D02*
X9648753Y-12095888D01*
X9648753Y-12095888D02*
X9639229Y-12114936D01*
X9639229Y-12114936D02*
X9629705Y-12124460D01*
X9629705Y-12124460D02*
X9610658Y-12133984D01*
X9610658Y-12133984D02*
X9553515Y-12133984D01*
X9553515Y-12133984D02*
X9534467Y-12124460D01*
X9534467Y-12124460D02*
X9524944Y-12114936D01*
X9772563Y-11933984D02*
X9791610Y-11933984D01*
X9791610Y-11933984D02*
X9810658Y-11943508D01*
X9810658Y-11943508D02*
X9820182Y-11953031D01*
X9820182Y-11953031D02*
X9829705Y-11972079D01*
X9829705Y-11972079D02*
X9839229Y-12010174D01*
X9839229Y-12010174D02*
X9839229Y-12057793D01*
X9839229Y-12057793D02*
X9829705Y-12095888D01*
X9829705Y-12095888D02*
X9820182Y-12114936D01*
X9820182Y-12114936D02*
X9810658Y-12124460D01*
X9810658Y-12124460D02*
X9791610Y-12133984D01*
X9791610Y-12133984D02*
X9772563Y-12133984D01*
X9772563Y-12133984D02*
X9753515Y-12124460D01*
X9753515Y-12124460D02*
X9743991Y-12114936D01*
X9743991Y-12114936D02*
X9734467Y-12095888D01*
X9734467Y-12095888D02*
X9724944Y-12057793D01*
X9724944Y-12057793D02*
X9724944Y-12010174D01*
X9724944Y-12010174D02*
X9734467Y-11972079D01*
X9734467Y-11972079D02*
X9743991Y-11953031D01*
X9743991Y-11953031D02*
X9753515Y-11943508D01*
X9753515Y-11943508D02*
X9772563Y-11933984D01*
X9963039Y-11933984D02*
X9982086Y-11933984D01*
X9982086Y-11933984D02*
X10001134Y-11943508D01*
X10001134Y-11943508D02*
X10010658Y-11953031D01*
X10010658Y-11953031D02*
X10020182Y-11972079D01*
X10020182Y-11972079D02*
X10029705Y-12010174D01*
X10029705Y-12010174D02*
X10029705Y-12057793D01*
X10029705Y-12057793D02*
X10020182Y-12095888D01*
X10020182Y-12095888D02*
X10010658Y-12114936D01*
X10010658Y-12114936D02*
X10001134Y-12124460D01*
X10001134Y-12124460D02*
X9982086Y-12133984D01*
X9982086Y-12133984D02*
X9963039Y-12133984D01*
X9963039Y-12133984D02*
X9943991Y-12124460D01*
X9943991Y-12124460D02*
X9934467Y-12114936D01*
X9934467Y-12114936D02*
X9924944Y-12095888D01*
X9924944Y-12095888D02*
X9915420Y-12057793D01*
X9915420Y-12057793D02*
X9915420Y-12010174D01*
X9915420Y-12010174D02*
X9924944Y-11972079D01*
X9924944Y-11972079D02*
X9934467Y-11953031D01*
X9934467Y-11953031D02*
X9943991Y-11943508D01*
X9943991Y-11943508D02*
X9963039Y-11933984D01*
X10115420Y-12133984D02*
X10115420Y-12000650D01*
X10115420Y-12019698D02*
X10124944Y-12010174D01*
X10124944Y-12010174D02*
X10143991Y-12000650D01*
X10143991Y-12000650D02*
X10172563Y-12000650D01*
X10172563Y-12000650D02*
X10191610Y-12010174D01*
X10191610Y-12010174D02*
X10201134Y-12029222D01*
X10201134Y-12029222D02*
X10201134Y-12133984D01*
X10201134Y-12029222D02*
X10210658Y-12010174D01*
X10210658Y-12010174D02*
X10229705Y-12000650D01*
X10229705Y-12000650D02*
X10258277Y-12000650D01*
X10258277Y-12000650D02*
X10277325Y-12010174D01*
X10277325Y-12010174D02*
X10286848Y-12029222D01*
X10286848Y-12029222D02*
X10286848Y-12133984D01*
X10382086Y-12133984D02*
X10382086Y-12000650D01*
X10382086Y-12019698D02*
X10391610Y-12010174D01*
X10391610Y-12010174D02*
X10410658Y-12000650D01*
X10410658Y-12000650D02*
X10439229Y-12000650D01*
X10439229Y-12000650D02*
X10458277Y-12010174D01*
X10458277Y-12010174D02*
X10467801Y-12029222D01*
X10467801Y-12029222D02*
X10467801Y-12133984D01*
X10467801Y-12029222D02*
X10477325Y-12010174D01*
X10477325Y-12010174D02*
X10496372Y-12000650D01*
X10496372Y-12000650D02*
X10524944Y-12000650D01*
X10524944Y-12000650D02*
X10543991Y-12010174D01*
X10543991Y-12010174D02*
X10553515Y-12029222D01*
X10553515Y-12029222D02*
X10553515Y-12133984D01*
X10943991Y-11924460D02*
X10772563Y-12181603D01*
X11201134Y-11933984D02*
X11220182Y-11933984D01*
X11220182Y-11933984D02*
X11239229Y-11943508D01*
X11239229Y-11943508D02*
X11248753Y-11953031D01*
X11248753Y-11953031D02*
X11258277Y-11972079D01*
X11258277Y-11972079D02*
X11267801Y-12010174D01*
X11267801Y-12010174D02*
X11267801Y-12057793D01*
X11267801Y-12057793D02*
X11258277Y-12095888D01*
X11258277Y-12095888D02*
X11248753Y-12114936D01*
X11248753Y-12114936D02*
X11239229Y-12124460D01*
X11239229Y-12124460D02*
X11220182Y-12133984D01*
X11220182Y-12133984D02*
X11201134Y-12133984D01*
X11201134Y-12133984D02*
X11182087Y-12124460D01*
X11182087Y-12124460D02*
X11172563Y-12114936D01*
X11172563Y-12114936D02*
X11163039Y-12095888D01*
X11163039Y-12095888D02*
X11153515Y-12057793D01*
X11153515Y-12057793D02*
X11153515Y-12010174D01*
X11153515Y-12010174D02*
X11163039Y-11972079D01*
X11163039Y-11972079D02*
X11172563Y-11953031D01*
X11172563Y-11953031D02*
X11182087Y-11943508D01*
X11182087Y-11943508D02*
X11201134Y-11933984D01*
X11353515Y-12114936D02*
X11363039Y-12124460D01*
X11363039Y-12124460D02*
X11353515Y-12133984D01*
X11353515Y-12133984D02*
X11343991Y-12124460D01*
X11343991Y-12124460D02*
X11353515Y-12114936D01*
X11353515Y-12114936D02*
X11353515Y-12133984D01*
X11486848Y-11933984D02*
X11505896Y-11933984D01*
X11505896Y-11933984D02*
X11524944Y-11943508D01*
X11524944Y-11943508D02*
X11534467Y-11953031D01*
X11534467Y-11953031D02*
X11543991Y-11972079D01*
X11543991Y-11972079D02*
X11553515Y-12010174D01*
X11553515Y-12010174D02*
X11553515Y-12057793D01*
X11553515Y-12057793D02*
X11543991Y-12095888D01*
X11543991Y-12095888D02*
X11534467Y-12114936D01*
X11534467Y-12114936D02*
X11524944Y-12124460D01*
X11524944Y-12124460D02*
X11505896Y-12133984D01*
X11505896Y-12133984D02*
X11486848Y-12133984D01*
X11486848Y-12133984D02*
X11467801Y-12124460D01*
X11467801Y-12124460D02*
X11458277Y-12114936D01*
X11458277Y-12114936D02*
X11448753Y-12095888D01*
X11448753Y-12095888D02*
X11439229Y-12057793D01*
X11439229Y-12057793D02*
X11439229Y-12010174D01*
X11439229Y-12010174D02*
X11448753Y-11972079D01*
X11448753Y-11972079D02*
X11458277Y-11953031D01*
X11458277Y-11953031D02*
X11467801Y-11943508D01*
X11467801Y-11943508D02*
X11486848Y-11933984D01*
X11743991Y-12133984D02*
X11629706Y-12133984D01*
X11686848Y-12133984D02*
X11686848Y-11933984D01*
X11686848Y-11933984D02*
X11667801Y-11962555D01*
X11667801Y-11962555D02*
X11648753Y-11981603D01*
X11648753Y-11981603D02*
X11629706Y-11991127D01*
X11934467Y-12133984D02*
X11820182Y-12133984D01*
X11877325Y-12133984D02*
X11877325Y-11933984D01*
X11877325Y-11933984D02*
X11858277Y-11962555D01*
X11858277Y-11962555D02*
X11839229Y-11981603D01*
X11839229Y-11981603D02*
X11820182Y-11991127D01*
X12048753Y-12019698D02*
X12029706Y-12010174D01*
X12029706Y-12010174D02*
X12020182Y-12000650D01*
X12020182Y-12000650D02*
X12010658Y-11981603D01*
X12010658Y-11981603D02*
X12010658Y-11972079D01*
X12010658Y-11972079D02*
X12020182Y-11953031D01*
X12020182Y-11953031D02*
X12029706Y-11943508D01*
X12029706Y-11943508D02*
X12048753Y-11933984D01*
X12048753Y-11933984D02*
X12086848Y-11933984D01*
X12086848Y-11933984D02*
X12105896Y-11943508D01*
X12105896Y-11943508D02*
X12115420Y-11953031D01*
X12115420Y-11953031D02*
X12124944Y-11972079D01*
X12124944Y-11972079D02*
X12124944Y-11981603D01*
X12124944Y-11981603D02*
X12115420Y-12000650D01*
X12115420Y-12000650D02*
X12105896Y-12010174D01*
X12105896Y-12010174D02*
X12086848Y-12019698D01*
X12086848Y-12019698D02*
X12048753Y-12019698D01*
X12048753Y-12019698D02*
X12029706Y-12029222D01*
X12029706Y-12029222D02*
X12020182Y-12038746D01*
X12020182Y-12038746D02*
X12010658Y-12057793D01*
X12010658Y-12057793D02*
X12010658Y-12095888D01*
X12010658Y-12095888D02*
X12020182Y-12114936D01*
X12020182Y-12114936D02*
X12029706Y-12124460D01*
X12029706Y-12124460D02*
X12048753Y-12133984D01*
X12048753Y-12133984D02*
X12086848Y-12133984D01*
X12086848Y-12133984D02*
X12105896Y-12124460D01*
X12105896Y-12124460D02*
X12115420Y-12114936D01*
X12115420Y-12114936D02*
X12124944Y-12095888D01*
X12124944Y-12095888D02*
X12124944Y-12057793D01*
X12124944Y-12057793D02*
X12115420Y-12038746D01*
X12115420Y-12038746D02*
X12105896Y-12029222D01*
X12105896Y-12029222D02*
X12086848Y-12019698D01*
X12201134Y-11933984D02*
X12201134Y-11972079D01*
X12277325Y-11933984D02*
X12277325Y-11972079D01*
X12572563Y-12210174D02*
X12563039Y-12200650D01*
X12563039Y-12200650D02*
X12543991Y-12172079D01*
X12543991Y-12172079D02*
X12534468Y-12153031D01*
X12534468Y-12153031D02*
X12524944Y-12124460D01*
X12524944Y-12124460D02*
X12515420Y-12076841D01*
X12515420Y-12076841D02*
X12515420Y-12038746D01*
X12515420Y-12038746D02*
X12524944Y-11991127D01*
X12524944Y-11991127D02*
X12534468Y-11962555D01*
X12534468Y-11962555D02*
X12543991Y-11943508D01*
X12543991Y-11943508D02*
X12563039Y-11914936D01*
X12563039Y-11914936D02*
X12572563Y-11905412D01*
X12629706Y-11933984D02*
X12753515Y-11933984D01*
X12753515Y-11933984D02*
X12686848Y-12010174D01*
X12686848Y-12010174D02*
X12715420Y-12010174D01*
X12715420Y-12010174D02*
X12734468Y-12019698D01*
X12734468Y-12019698D02*
X12743991Y-12029222D01*
X12743991Y-12029222D02*
X12753515Y-12048269D01*
X12753515Y-12048269D02*
X12753515Y-12095888D01*
X12753515Y-12095888D02*
X12743991Y-12114936D01*
X12743991Y-12114936D02*
X12734468Y-12124460D01*
X12734468Y-12124460D02*
X12715420Y-12133984D01*
X12715420Y-12133984D02*
X12658277Y-12133984D01*
X12658277Y-12133984D02*
X12639229Y-12124460D01*
X12639229Y-12124460D02*
X12629706Y-12114936D01*
X12943991Y-12133984D02*
X12829706Y-12133984D01*
X12886848Y-12133984D02*
X12886848Y-11933984D01*
X12886848Y-11933984D02*
X12867801Y-11962555D01*
X12867801Y-11962555D02*
X12848753Y-11981603D01*
X12848753Y-11981603D02*
X12829706Y-11991127D01*
X13182087Y-12133984D02*
X13182087Y-11933984D01*
X13267801Y-12133984D02*
X13267801Y-12029222D01*
X13267801Y-12029222D02*
X13258277Y-12010174D01*
X13258277Y-12010174D02*
X13239230Y-12000650D01*
X13239230Y-12000650D02*
X13210658Y-12000650D01*
X13210658Y-12000650D02*
X13191610Y-12010174D01*
X13191610Y-12010174D02*
X13182087Y-12019698D01*
X13391610Y-12133984D02*
X13372563Y-12124460D01*
X13372563Y-12124460D02*
X13363039Y-12114936D01*
X13363039Y-12114936D02*
X13353515Y-12095888D01*
X13353515Y-12095888D02*
X13353515Y-12038746D01*
X13353515Y-12038746D02*
X13363039Y-12019698D01*
X13363039Y-12019698D02*
X13372563Y-12010174D01*
X13372563Y-12010174D02*
X13391610Y-12000650D01*
X13391610Y-12000650D02*
X13420182Y-12000650D01*
X13420182Y-12000650D02*
X13439230Y-12010174D01*
X13439230Y-12010174D02*
X13448753Y-12019698D01*
X13448753Y-12019698D02*
X13458277Y-12038746D01*
X13458277Y-12038746D02*
X13458277Y-12095888D01*
X13458277Y-12095888D02*
X13448753Y-12114936D01*
X13448753Y-12114936D02*
X13439230Y-12124460D01*
X13439230Y-12124460D02*
X13420182Y-12133984D01*
X13420182Y-12133984D02*
X13391610Y-12133984D01*
X13572563Y-12133984D02*
X13553515Y-12124460D01*
X13553515Y-12124460D02*
X13543991Y-12105412D01*
X13543991Y-12105412D02*
X13543991Y-11933984D01*
X13724944Y-12124460D02*
X13705896Y-12133984D01*
X13705896Y-12133984D02*
X13667801Y-12133984D01*
X13667801Y-12133984D02*
X13648753Y-12124460D01*
X13648753Y-12124460D02*
X13639230Y-12105412D01*
X13639230Y-12105412D02*
X13639230Y-12029222D01*
X13639230Y-12029222D02*
X13648753Y-12010174D01*
X13648753Y-12010174D02*
X13667801Y-12000650D01*
X13667801Y-12000650D02*
X13705896Y-12000650D01*
X13705896Y-12000650D02*
X13724944Y-12010174D01*
X13724944Y-12010174D02*
X13734468Y-12029222D01*
X13734468Y-12029222D02*
X13734468Y-12048269D01*
X13734468Y-12048269D02*
X13639230Y-12067317D01*
X13810658Y-12124460D02*
X13829706Y-12133984D01*
X13829706Y-12133984D02*
X13867801Y-12133984D01*
X13867801Y-12133984D02*
X13886849Y-12124460D01*
X13886849Y-12124460D02*
X13896372Y-12105412D01*
X13896372Y-12105412D02*
X13896372Y-12095888D01*
X13896372Y-12095888D02*
X13886849Y-12076841D01*
X13886849Y-12076841D02*
X13867801Y-12067317D01*
X13867801Y-12067317D02*
X13839230Y-12067317D01*
X13839230Y-12067317D02*
X13820182Y-12057793D01*
X13820182Y-12057793D02*
X13810658Y-12038746D01*
X13810658Y-12038746D02*
X13810658Y-12029222D01*
X13810658Y-12029222D02*
X13820182Y-12010174D01*
X13820182Y-12010174D02*
X13839230Y-12000650D01*
X13839230Y-12000650D02*
X13867801Y-12000650D01*
X13867801Y-12000650D02*
X13886849Y-12010174D01*
X13963039Y-12210174D02*
X13972563Y-12200650D01*
X13972563Y-12200650D02*
X13991611Y-12172079D01*
X13991611Y-12172079D02*
X14001134Y-12153031D01*
X14001134Y-12153031D02*
X14010658Y-12124460D01*
X14010658Y-12124460D02*
X14020182Y-12076841D01*
X14020182Y-12076841D02*
X14020182Y-12038746D01*
X14020182Y-12038746D02*
X14010658Y-11991127D01*
X14010658Y-11991127D02*
X14001134Y-11962555D01*
X14001134Y-11962555D02*
X13991611Y-11943508D01*
X13991611Y-11943508D02*
X13972563Y-11914936D01*
X13972563Y-11914936D02*
X13963039Y-11905412D01*
D12*
X8997500Y-12306500D02*
G75*
G02*
X8917500Y-12306500I-40000J0D01*
G01*
X8917500Y-12306500D02*
G75*
G02*
X8997500Y-12306500I40000J0D01*
G01*
D11*
X9296372Y-12197984D02*
X9315420Y-12197984D01*
X9315420Y-12197984D02*
X9334467Y-12207508D01*
X9334467Y-12207508D02*
X9343991Y-12217031D01*
X9343991Y-12217031D02*
X9353515Y-12236079D01*
X9353515Y-12236079D02*
X9363039Y-12274174D01*
X9363039Y-12274174D02*
X9363039Y-12321793D01*
X9363039Y-12321793D02*
X9353515Y-12359888D01*
X9353515Y-12359888D02*
X9343991Y-12378936D01*
X9343991Y-12378936D02*
X9334467Y-12388460D01*
X9334467Y-12388460D02*
X9315420Y-12397984D01*
X9315420Y-12397984D02*
X9296372Y-12397984D01*
X9296372Y-12397984D02*
X9277324Y-12388460D01*
X9277324Y-12388460D02*
X9267801Y-12378936D01*
X9267801Y-12378936D02*
X9258277Y-12359888D01*
X9258277Y-12359888D02*
X9248753Y-12321793D01*
X9248753Y-12321793D02*
X9248753Y-12274174D01*
X9248753Y-12274174D02*
X9258277Y-12236079D01*
X9258277Y-12236079D02*
X9267801Y-12217031D01*
X9267801Y-12217031D02*
X9277324Y-12207508D01*
X9277324Y-12207508D02*
X9296372Y-12197984D01*
X9448753Y-12378936D02*
X9458277Y-12388460D01*
X9458277Y-12388460D02*
X9448753Y-12397984D01*
X9448753Y-12397984D02*
X9439229Y-12388460D01*
X9439229Y-12388460D02*
X9448753Y-12378936D01*
X9448753Y-12378936D02*
X9448753Y-12397984D01*
X9572563Y-12283698D02*
X9553515Y-12274174D01*
X9553515Y-12274174D02*
X9543991Y-12264650D01*
X9543991Y-12264650D02*
X9534467Y-12245603D01*
X9534467Y-12245603D02*
X9534467Y-12236079D01*
X9534467Y-12236079D02*
X9543991Y-12217031D01*
X9543991Y-12217031D02*
X9553515Y-12207508D01*
X9553515Y-12207508D02*
X9572563Y-12197984D01*
X9572563Y-12197984D02*
X9610658Y-12197984D01*
X9610658Y-12197984D02*
X9629705Y-12207508D01*
X9629705Y-12207508D02*
X9639229Y-12217031D01*
X9639229Y-12217031D02*
X9648753Y-12236079D01*
X9648753Y-12236079D02*
X9648753Y-12245603D01*
X9648753Y-12245603D02*
X9639229Y-12264650D01*
X9639229Y-12264650D02*
X9629705Y-12274174D01*
X9629705Y-12274174D02*
X9610658Y-12283698D01*
X9610658Y-12283698D02*
X9572563Y-12283698D01*
X9572563Y-12283698D02*
X9553515Y-12293222D01*
X9553515Y-12293222D02*
X9543991Y-12302746D01*
X9543991Y-12302746D02*
X9534467Y-12321793D01*
X9534467Y-12321793D02*
X9534467Y-12359888D01*
X9534467Y-12359888D02*
X9543991Y-12378936D01*
X9543991Y-12378936D02*
X9553515Y-12388460D01*
X9553515Y-12388460D02*
X9572563Y-12397984D01*
X9572563Y-12397984D02*
X9610658Y-12397984D01*
X9610658Y-12397984D02*
X9629705Y-12388460D01*
X9629705Y-12388460D02*
X9639229Y-12378936D01*
X9639229Y-12378936D02*
X9648753Y-12359888D01*
X9648753Y-12359888D02*
X9648753Y-12321793D01*
X9648753Y-12321793D02*
X9639229Y-12302746D01*
X9639229Y-12302746D02*
X9629705Y-12293222D01*
X9629705Y-12293222D02*
X9610658Y-12283698D01*
X9772563Y-12197984D02*
X9791610Y-12197984D01*
X9791610Y-12197984D02*
X9810658Y-12207508D01*
X9810658Y-12207508D02*
X9820182Y-12217031D01*
X9820182Y-12217031D02*
X9829705Y-12236079D01*
X9829705Y-12236079D02*
X9839229Y-12274174D01*
X9839229Y-12274174D02*
X9839229Y-12321793D01*
X9839229Y-12321793D02*
X9829705Y-12359888D01*
X9829705Y-12359888D02*
X9820182Y-12378936D01*
X9820182Y-12378936D02*
X9810658Y-12388460D01*
X9810658Y-12388460D02*
X9791610Y-12397984D01*
X9791610Y-12397984D02*
X9772563Y-12397984D01*
X9772563Y-12397984D02*
X9753515Y-12388460D01*
X9753515Y-12388460D02*
X9743991Y-12378936D01*
X9743991Y-12378936D02*
X9734467Y-12359888D01*
X9734467Y-12359888D02*
X9724944Y-12321793D01*
X9724944Y-12321793D02*
X9724944Y-12274174D01*
X9724944Y-12274174D02*
X9734467Y-12236079D01*
X9734467Y-12236079D02*
X9743991Y-12217031D01*
X9743991Y-12217031D02*
X9753515Y-12207508D01*
X9753515Y-12207508D02*
X9772563Y-12197984D01*
X9963039Y-12197984D02*
X9982086Y-12197984D01*
X9982086Y-12197984D02*
X10001134Y-12207508D01*
X10001134Y-12207508D02*
X10010658Y-12217031D01*
X10010658Y-12217031D02*
X10020182Y-12236079D01*
X10020182Y-12236079D02*
X10029705Y-12274174D01*
X10029705Y-12274174D02*
X10029705Y-12321793D01*
X10029705Y-12321793D02*
X10020182Y-12359888D01*
X10020182Y-12359888D02*
X10010658Y-12378936D01*
X10010658Y-12378936D02*
X10001134Y-12388460D01*
X10001134Y-12388460D02*
X9982086Y-12397984D01*
X9982086Y-12397984D02*
X9963039Y-12397984D01*
X9963039Y-12397984D02*
X9943991Y-12388460D01*
X9943991Y-12388460D02*
X9934467Y-12378936D01*
X9934467Y-12378936D02*
X9924944Y-12359888D01*
X9924944Y-12359888D02*
X9915420Y-12321793D01*
X9915420Y-12321793D02*
X9915420Y-12274174D01*
X9915420Y-12274174D02*
X9924944Y-12236079D01*
X9924944Y-12236079D02*
X9934467Y-12217031D01*
X9934467Y-12217031D02*
X9943991Y-12207508D01*
X9943991Y-12207508D02*
X9963039Y-12197984D01*
X10115420Y-12397984D02*
X10115420Y-12264650D01*
X10115420Y-12283698D02*
X10124944Y-12274174D01*
X10124944Y-12274174D02*
X10143991Y-12264650D01*
X10143991Y-12264650D02*
X10172563Y-12264650D01*
X10172563Y-12264650D02*
X10191610Y-12274174D01*
X10191610Y-12274174D02*
X10201134Y-12293222D01*
X10201134Y-12293222D02*
X10201134Y-12397984D01*
X10201134Y-12293222D02*
X10210658Y-12274174D01*
X10210658Y-12274174D02*
X10229705Y-12264650D01*
X10229705Y-12264650D02*
X10258277Y-12264650D01*
X10258277Y-12264650D02*
X10277325Y-12274174D01*
X10277325Y-12274174D02*
X10286848Y-12293222D01*
X10286848Y-12293222D02*
X10286848Y-12397984D01*
X10382086Y-12397984D02*
X10382086Y-12264650D01*
X10382086Y-12283698D02*
X10391610Y-12274174D01*
X10391610Y-12274174D02*
X10410658Y-12264650D01*
X10410658Y-12264650D02*
X10439229Y-12264650D01*
X10439229Y-12264650D02*
X10458277Y-12274174D01*
X10458277Y-12274174D02*
X10467801Y-12293222D01*
X10467801Y-12293222D02*
X10467801Y-12397984D01*
X10467801Y-12293222D02*
X10477325Y-12274174D01*
X10477325Y-12274174D02*
X10496372Y-12264650D01*
X10496372Y-12264650D02*
X10524944Y-12264650D01*
X10524944Y-12264650D02*
X10543991Y-12274174D01*
X10543991Y-12274174D02*
X10553515Y-12293222D01*
X10553515Y-12293222D02*
X10553515Y-12397984D01*
X10943991Y-12188460D02*
X10772563Y-12445603D01*
X11201134Y-12197984D02*
X11220182Y-12197984D01*
X11220182Y-12197984D02*
X11239229Y-12207508D01*
X11239229Y-12207508D02*
X11248753Y-12217031D01*
X11248753Y-12217031D02*
X11258277Y-12236079D01*
X11258277Y-12236079D02*
X11267801Y-12274174D01*
X11267801Y-12274174D02*
X11267801Y-12321793D01*
X11267801Y-12321793D02*
X11258277Y-12359888D01*
X11258277Y-12359888D02*
X11248753Y-12378936D01*
X11248753Y-12378936D02*
X11239229Y-12388460D01*
X11239229Y-12388460D02*
X11220182Y-12397984D01*
X11220182Y-12397984D02*
X11201134Y-12397984D01*
X11201134Y-12397984D02*
X11182087Y-12388460D01*
X11182087Y-12388460D02*
X11172563Y-12378936D01*
X11172563Y-12378936D02*
X11163039Y-12359888D01*
X11163039Y-12359888D02*
X11153515Y-12321793D01*
X11153515Y-12321793D02*
X11153515Y-12274174D01*
X11153515Y-12274174D02*
X11163039Y-12236079D01*
X11163039Y-12236079D02*
X11172563Y-12217031D01*
X11172563Y-12217031D02*
X11182087Y-12207508D01*
X11182087Y-12207508D02*
X11201134Y-12197984D01*
X11353515Y-12378936D02*
X11363039Y-12388460D01*
X11363039Y-12388460D02*
X11353515Y-12397984D01*
X11353515Y-12397984D02*
X11343991Y-12388460D01*
X11343991Y-12388460D02*
X11353515Y-12378936D01*
X11353515Y-12378936D02*
X11353515Y-12397984D01*
X11486848Y-12197984D02*
X11505896Y-12197984D01*
X11505896Y-12197984D02*
X11524944Y-12207508D01*
X11524944Y-12207508D02*
X11534467Y-12217031D01*
X11534467Y-12217031D02*
X11543991Y-12236079D01*
X11543991Y-12236079D02*
X11553515Y-12274174D01*
X11553515Y-12274174D02*
X11553515Y-12321793D01*
X11553515Y-12321793D02*
X11543991Y-12359888D01*
X11543991Y-12359888D02*
X11534467Y-12378936D01*
X11534467Y-12378936D02*
X11524944Y-12388460D01*
X11524944Y-12388460D02*
X11505896Y-12397984D01*
X11505896Y-12397984D02*
X11486848Y-12397984D01*
X11486848Y-12397984D02*
X11467801Y-12388460D01*
X11467801Y-12388460D02*
X11458277Y-12378936D01*
X11458277Y-12378936D02*
X11448753Y-12359888D01*
X11448753Y-12359888D02*
X11439229Y-12321793D01*
X11439229Y-12321793D02*
X11439229Y-12274174D01*
X11439229Y-12274174D02*
X11448753Y-12236079D01*
X11448753Y-12236079D02*
X11458277Y-12217031D01*
X11458277Y-12217031D02*
X11467801Y-12207508D01*
X11467801Y-12207508D02*
X11486848Y-12197984D01*
X11620182Y-12197984D02*
X11743991Y-12197984D01*
X11743991Y-12197984D02*
X11677325Y-12274174D01*
X11677325Y-12274174D02*
X11705896Y-12274174D01*
X11705896Y-12274174D02*
X11724944Y-12283698D01*
X11724944Y-12283698D02*
X11734467Y-12293222D01*
X11734467Y-12293222D02*
X11743991Y-12312269D01*
X11743991Y-12312269D02*
X11743991Y-12359888D01*
X11743991Y-12359888D02*
X11734467Y-12378936D01*
X11734467Y-12378936D02*
X11724944Y-12388460D01*
X11724944Y-12388460D02*
X11705896Y-12397984D01*
X11705896Y-12397984D02*
X11648753Y-12397984D01*
X11648753Y-12397984D02*
X11629706Y-12388460D01*
X11629706Y-12388460D02*
X11620182Y-12378936D01*
X11934467Y-12397984D02*
X11820182Y-12397984D01*
X11877325Y-12397984D02*
X11877325Y-12197984D01*
X11877325Y-12197984D02*
X11858277Y-12226555D01*
X11858277Y-12226555D02*
X11839229Y-12245603D01*
X11839229Y-12245603D02*
X11820182Y-12255127D01*
X12115420Y-12197984D02*
X12020182Y-12197984D01*
X12020182Y-12197984D02*
X12010658Y-12293222D01*
X12010658Y-12293222D02*
X12020182Y-12283698D01*
X12020182Y-12283698D02*
X12039229Y-12274174D01*
X12039229Y-12274174D02*
X12086848Y-12274174D01*
X12086848Y-12274174D02*
X12105896Y-12283698D01*
X12105896Y-12283698D02*
X12115420Y-12293222D01*
X12115420Y-12293222D02*
X12124944Y-12312269D01*
X12124944Y-12312269D02*
X12124944Y-12359888D01*
X12124944Y-12359888D02*
X12115420Y-12378936D01*
X12115420Y-12378936D02*
X12105896Y-12388460D01*
X12105896Y-12388460D02*
X12086848Y-12397984D01*
X12086848Y-12397984D02*
X12039229Y-12397984D01*
X12039229Y-12397984D02*
X12020182Y-12388460D01*
X12020182Y-12388460D02*
X12010658Y-12378936D01*
X12201134Y-12197984D02*
X12201134Y-12236079D01*
X12277325Y-12197984D02*
X12277325Y-12236079D01*
X12572563Y-12474174D02*
X12563039Y-12464650D01*
X12563039Y-12464650D02*
X12543991Y-12436079D01*
X12543991Y-12436079D02*
X12534468Y-12417031D01*
X12534468Y-12417031D02*
X12524944Y-12388460D01*
X12524944Y-12388460D02*
X12515420Y-12340841D01*
X12515420Y-12340841D02*
X12515420Y-12302746D01*
X12515420Y-12302746D02*
X12524944Y-12255127D01*
X12524944Y-12255127D02*
X12534468Y-12226555D01*
X12534468Y-12226555D02*
X12543991Y-12207508D01*
X12543991Y-12207508D02*
X12563039Y-12178936D01*
X12563039Y-12178936D02*
X12572563Y-12169412D01*
X12639229Y-12217031D02*
X12648753Y-12207508D01*
X12648753Y-12207508D02*
X12667801Y-12197984D01*
X12667801Y-12197984D02*
X12715420Y-12197984D01*
X12715420Y-12197984D02*
X12734468Y-12207508D01*
X12734468Y-12207508D02*
X12743991Y-12217031D01*
X12743991Y-12217031D02*
X12753515Y-12236079D01*
X12753515Y-12236079D02*
X12753515Y-12255127D01*
X12753515Y-12255127D02*
X12743991Y-12283698D01*
X12743991Y-12283698D02*
X12629706Y-12397984D01*
X12629706Y-12397984D02*
X12753515Y-12397984D01*
X12867801Y-12283698D02*
X12848753Y-12274174D01*
X12848753Y-12274174D02*
X12839229Y-12264650D01*
X12839229Y-12264650D02*
X12829706Y-12245603D01*
X12829706Y-12245603D02*
X12829706Y-12236079D01*
X12829706Y-12236079D02*
X12839229Y-12217031D01*
X12839229Y-12217031D02*
X12848753Y-12207508D01*
X12848753Y-12207508D02*
X12867801Y-12197984D01*
X12867801Y-12197984D02*
X12905896Y-12197984D01*
X12905896Y-12197984D02*
X12924944Y-12207508D01*
X12924944Y-12207508D02*
X12934468Y-12217031D01*
X12934468Y-12217031D02*
X12943991Y-12236079D01*
X12943991Y-12236079D02*
X12943991Y-12245603D01*
X12943991Y-12245603D02*
X12934468Y-12264650D01*
X12934468Y-12264650D02*
X12924944Y-12274174D01*
X12924944Y-12274174D02*
X12905896Y-12283698D01*
X12905896Y-12283698D02*
X12867801Y-12283698D01*
X12867801Y-12283698D02*
X12848753Y-12293222D01*
X12848753Y-12293222D02*
X12839229Y-12302746D01*
X12839229Y-12302746D02*
X12829706Y-12321793D01*
X12829706Y-12321793D02*
X12829706Y-12359888D01*
X12829706Y-12359888D02*
X12839229Y-12378936D01*
X12839229Y-12378936D02*
X12848753Y-12388460D01*
X12848753Y-12388460D02*
X12867801Y-12397984D01*
X12867801Y-12397984D02*
X12905896Y-12397984D01*
X12905896Y-12397984D02*
X12924944Y-12388460D01*
X12924944Y-12388460D02*
X12934468Y-12378936D01*
X12934468Y-12378936D02*
X12943991Y-12359888D01*
X12943991Y-12359888D02*
X12943991Y-12321793D01*
X12943991Y-12321793D02*
X12934468Y-12302746D01*
X12934468Y-12302746D02*
X12924944Y-12293222D01*
X12924944Y-12293222D02*
X12905896Y-12283698D01*
X13182087Y-12397984D02*
X13182087Y-12197984D01*
X13267801Y-12397984D02*
X13267801Y-12293222D01*
X13267801Y-12293222D02*
X13258277Y-12274174D01*
X13258277Y-12274174D02*
X13239230Y-12264650D01*
X13239230Y-12264650D02*
X13210658Y-12264650D01*
X13210658Y-12264650D02*
X13191610Y-12274174D01*
X13191610Y-12274174D02*
X13182087Y-12283698D01*
X13391610Y-12397984D02*
X13372563Y-12388460D01*
X13372563Y-12388460D02*
X13363039Y-12378936D01*
X13363039Y-12378936D02*
X13353515Y-12359888D01*
X13353515Y-12359888D02*
X13353515Y-12302746D01*
X13353515Y-12302746D02*
X13363039Y-12283698D01*
X13363039Y-12283698D02*
X13372563Y-12274174D01*
X13372563Y-12274174D02*
X13391610Y-12264650D01*
X13391610Y-12264650D02*
X13420182Y-12264650D01*
X13420182Y-12264650D02*
X13439230Y-12274174D01*
X13439230Y-12274174D02*
X13448753Y-12283698D01*
X13448753Y-12283698D02*
X13458277Y-12302746D01*
X13458277Y-12302746D02*
X13458277Y-12359888D01*
X13458277Y-12359888D02*
X13448753Y-12378936D01*
X13448753Y-12378936D02*
X13439230Y-12388460D01*
X13439230Y-12388460D02*
X13420182Y-12397984D01*
X13420182Y-12397984D02*
X13391610Y-12397984D01*
X13572563Y-12397984D02*
X13553515Y-12388460D01*
X13553515Y-12388460D02*
X13543991Y-12369412D01*
X13543991Y-12369412D02*
X13543991Y-12197984D01*
X13724944Y-12388460D02*
X13705896Y-12397984D01*
X13705896Y-12397984D02*
X13667801Y-12397984D01*
X13667801Y-12397984D02*
X13648753Y-12388460D01*
X13648753Y-12388460D02*
X13639230Y-12369412D01*
X13639230Y-12369412D02*
X13639230Y-12293222D01*
X13639230Y-12293222D02*
X13648753Y-12274174D01*
X13648753Y-12274174D02*
X13667801Y-12264650D01*
X13667801Y-12264650D02*
X13705896Y-12264650D01*
X13705896Y-12264650D02*
X13724944Y-12274174D01*
X13724944Y-12274174D02*
X13734468Y-12293222D01*
X13734468Y-12293222D02*
X13734468Y-12312269D01*
X13734468Y-12312269D02*
X13639230Y-12331317D01*
X13810658Y-12388460D02*
X13829706Y-12397984D01*
X13829706Y-12397984D02*
X13867801Y-12397984D01*
X13867801Y-12397984D02*
X13886849Y-12388460D01*
X13886849Y-12388460D02*
X13896372Y-12369412D01*
X13896372Y-12369412D02*
X13896372Y-12359888D01*
X13896372Y-12359888D02*
X13886849Y-12340841D01*
X13886849Y-12340841D02*
X13867801Y-12331317D01*
X13867801Y-12331317D02*
X13839230Y-12331317D01*
X13839230Y-12331317D02*
X13820182Y-12321793D01*
X13820182Y-12321793D02*
X13810658Y-12302746D01*
X13810658Y-12302746D02*
X13810658Y-12293222D01*
X13810658Y-12293222D02*
X13820182Y-12274174D01*
X13820182Y-12274174D02*
X13839230Y-12264650D01*
X13839230Y-12264650D02*
X13867801Y-12264650D01*
X13867801Y-12264650D02*
X13886849Y-12274174D01*
X13963039Y-12474174D02*
X13972563Y-12464650D01*
X13972563Y-12464650D02*
X13991611Y-12436079D01*
X13991611Y-12436079D02*
X14001134Y-12417031D01*
X14001134Y-12417031D02*
X14010658Y-12388460D01*
X14010658Y-12388460D02*
X14020182Y-12340841D01*
X14020182Y-12340841D02*
X14020182Y-12302746D01*
X14020182Y-12302746D02*
X14010658Y-12255127D01*
X14010658Y-12255127D02*
X14001134Y-12226555D01*
X14001134Y-12226555D02*
X13991611Y-12207508D01*
X13991611Y-12207508D02*
X13972563Y-12178936D01*
X13972563Y-12178936D02*
X13963039Y-12169412D01*
D12*
X8952500Y-12525500D02*
X8952500Y-12615500D01*
X8907500Y-12570500D02*
X8997500Y-12570500D01*
D11*
X9296372Y-12461984D02*
X9315420Y-12461984D01*
X9315420Y-12461984D02*
X9334467Y-12471508D01*
X9334467Y-12471508D02*
X9343991Y-12481031D01*
X9343991Y-12481031D02*
X9353515Y-12500079D01*
X9353515Y-12500079D02*
X9363039Y-12538174D01*
X9363039Y-12538174D02*
X9363039Y-12585793D01*
X9363039Y-12585793D02*
X9353515Y-12623888D01*
X9353515Y-12623888D02*
X9343991Y-12642936D01*
X9343991Y-12642936D02*
X9334467Y-12652460D01*
X9334467Y-12652460D02*
X9315420Y-12661984D01*
X9315420Y-12661984D02*
X9296372Y-12661984D01*
X9296372Y-12661984D02*
X9277324Y-12652460D01*
X9277324Y-12652460D02*
X9267801Y-12642936D01*
X9267801Y-12642936D02*
X9258277Y-12623888D01*
X9258277Y-12623888D02*
X9248753Y-12585793D01*
X9248753Y-12585793D02*
X9248753Y-12538174D01*
X9248753Y-12538174D02*
X9258277Y-12500079D01*
X9258277Y-12500079D02*
X9267801Y-12481031D01*
X9267801Y-12481031D02*
X9277324Y-12471508D01*
X9277324Y-12471508D02*
X9296372Y-12461984D01*
X9448753Y-12642936D02*
X9458277Y-12652460D01*
X9458277Y-12652460D02*
X9448753Y-12661984D01*
X9448753Y-12661984D02*
X9439229Y-12652460D01*
X9439229Y-12652460D02*
X9448753Y-12642936D01*
X9448753Y-12642936D02*
X9448753Y-12661984D01*
X9553515Y-12661984D02*
X9591610Y-12661984D01*
X9591610Y-12661984D02*
X9610658Y-12652460D01*
X9610658Y-12652460D02*
X9620182Y-12642936D01*
X9620182Y-12642936D02*
X9639229Y-12614365D01*
X9639229Y-12614365D02*
X9648753Y-12576269D01*
X9648753Y-12576269D02*
X9648753Y-12500079D01*
X9648753Y-12500079D02*
X9639229Y-12481031D01*
X9639229Y-12481031D02*
X9629705Y-12471508D01*
X9629705Y-12471508D02*
X9610658Y-12461984D01*
X9610658Y-12461984D02*
X9572563Y-12461984D01*
X9572563Y-12461984D02*
X9553515Y-12471508D01*
X9553515Y-12471508D02*
X9543991Y-12481031D01*
X9543991Y-12481031D02*
X9534467Y-12500079D01*
X9534467Y-12500079D02*
X9534467Y-12547698D01*
X9534467Y-12547698D02*
X9543991Y-12566746D01*
X9543991Y-12566746D02*
X9553515Y-12576269D01*
X9553515Y-12576269D02*
X9572563Y-12585793D01*
X9572563Y-12585793D02*
X9610658Y-12585793D01*
X9610658Y-12585793D02*
X9629705Y-12576269D01*
X9629705Y-12576269D02*
X9639229Y-12566746D01*
X9639229Y-12566746D02*
X9648753Y-12547698D01*
X9772563Y-12461984D02*
X9791610Y-12461984D01*
X9791610Y-12461984D02*
X9810658Y-12471508D01*
X9810658Y-12471508D02*
X9820182Y-12481031D01*
X9820182Y-12481031D02*
X9829705Y-12500079D01*
X9829705Y-12500079D02*
X9839229Y-12538174D01*
X9839229Y-12538174D02*
X9839229Y-12585793D01*
X9839229Y-12585793D02*
X9829705Y-12623888D01*
X9829705Y-12623888D02*
X9820182Y-12642936D01*
X9820182Y-12642936D02*
X9810658Y-12652460D01*
X9810658Y-12652460D02*
X9791610Y-12661984D01*
X9791610Y-12661984D02*
X9772563Y-12661984D01*
X9772563Y-12661984D02*
X9753515Y-12652460D01*
X9753515Y-12652460D02*
X9743991Y-12642936D01*
X9743991Y-12642936D02*
X9734467Y-12623888D01*
X9734467Y-12623888D02*
X9724944Y-12585793D01*
X9724944Y-12585793D02*
X9724944Y-12538174D01*
X9724944Y-12538174D02*
X9734467Y-12500079D01*
X9734467Y-12500079D02*
X9743991Y-12481031D01*
X9743991Y-12481031D02*
X9753515Y-12471508D01*
X9753515Y-12471508D02*
X9772563Y-12461984D01*
X9963039Y-12461984D02*
X9982086Y-12461984D01*
X9982086Y-12461984D02*
X10001134Y-12471508D01*
X10001134Y-12471508D02*
X10010658Y-12481031D01*
X10010658Y-12481031D02*
X10020182Y-12500079D01*
X10020182Y-12500079D02*
X10029705Y-12538174D01*
X10029705Y-12538174D02*
X10029705Y-12585793D01*
X10029705Y-12585793D02*
X10020182Y-12623888D01*
X10020182Y-12623888D02*
X10010658Y-12642936D01*
X10010658Y-12642936D02*
X10001134Y-12652460D01*
X10001134Y-12652460D02*
X9982086Y-12661984D01*
X9982086Y-12661984D02*
X9963039Y-12661984D01*
X9963039Y-12661984D02*
X9943991Y-12652460D01*
X9943991Y-12652460D02*
X9934467Y-12642936D01*
X9934467Y-12642936D02*
X9924944Y-12623888D01*
X9924944Y-12623888D02*
X9915420Y-12585793D01*
X9915420Y-12585793D02*
X9915420Y-12538174D01*
X9915420Y-12538174D02*
X9924944Y-12500079D01*
X9924944Y-12500079D02*
X9934467Y-12481031D01*
X9934467Y-12481031D02*
X9943991Y-12471508D01*
X9943991Y-12471508D02*
X9963039Y-12461984D01*
X10115420Y-12661984D02*
X10115420Y-12528650D01*
X10115420Y-12547698D02*
X10124944Y-12538174D01*
X10124944Y-12538174D02*
X10143991Y-12528650D01*
X10143991Y-12528650D02*
X10172563Y-12528650D01*
X10172563Y-12528650D02*
X10191610Y-12538174D01*
X10191610Y-12538174D02*
X10201134Y-12557222D01*
X10201134Y-12557222D02*
X10201134Y-12661984D01*
X10201134Y-12557222D02*
X10210658Y-12538174D01*
X10210658Y-12538174D02*
X10229705Y-12528650D01*
X10229705Y-12528650D02*
X10258277Y-12528650D01*
X10258277Y-12528650D02*
X10277325Y-12538174D01*
X10277325Y-12538174D02*
X10286848Y-12557222D01*
X10286848Y-12557222D02*
X10286848Y-12661984D01*
X10382086Y-12661984D02*
X10382086Y-12528650D01*
X10382086Y-12547698D02*
X10391610Y-12538174D01*
X10391610Y-12538174D02*
X10410658Y-12528650D01*
X10410658Y-12528650D02*
X10439229Y-12528650D01*
X10439229Y-12528650D02*
X10458277Y-12538174D01*
X10458277Y-12538174D02*
X10467801Y-12557222D01*
X10467801Y-12557222D02*
X10467801Y-12661984D01*
X10467801Y-12557222D02*
X10477325Y-12538174D01*
X10477325Y-12538174D02*
X10496372Y-12528650D01*
X10496372Y-12528650D02*
X10524944Y-12528650D01*
X10524944Y-12528650D02*
X10543991Y-12538174D01*
X10543991Y-12538174D02*
X10553515Y-12557222D01*
X10553515Y-12557222D02*
X10553515Y-12661984D01*
X10943991Y-12452460D02*
X10772563Y-12709603D01*
X11201134Y-12461984D02*
X11220182Y-12461984D01*
X11220182Y-12461984D02*
X11239229Y-12471508D01*
X11239229Y-12471508D02*
X11248753Y-12481031D01*
X11248753Y-12481031D02*
X11258277Y-12500079D01*
X11258277Y-12500079D02*
X11267801Y-12538174D01*
X11267801Y-12538174D02*
X11267801Y-12585793D01*
X11267801Y-12585793D02*
X11258277Y-12623888D01*
X11258277Y-12623888D02*
X11248753Y-12642936D01*
X11248753Y-12642936D02*
X11239229Y-12652460D01*
X11239229Y-12652460D02*
X11220182Y-12661984D01*
X11220182Y-12661984D02*
X11201134Y-12661984D01*
X11201134Y-12661984D02*
X11182087Y-12652460D01*
X11182087Y-12652460D02*
X11172563Y-12642936D01*
X11172563Y-12642936D02*
X11163039Y-12623888D01*
X11163039Y-12623888D02*
X11153515Y-12585793D01*
X11153515Y-12585793D02*
X11153515Y-12538174D01*
X11153515Y-12538174D02*
X11163039Y-12500079D01*
X11163039Y-12500079D02*
X11172563Y-12481031D01*
X11172563Y-12481031D02*
X11182087Y-12471508D01*
X11182087Y-12471508D02*
X11201134Y-12461984D01*
X11353515Y-12642936D02*
X11363039Y-12652460D01*
X11363039Y-12652460D02*
X11353515Y-12661984D01*
X11353515Y-12661984D02*
X11343991Y-12652460D01*
X11343991Y-12652460D02*
X11353515Y-12642936D01*
X11353515Y-12642936D02*
X11353515Y-12661984D01*
X11486848Y-12461984D02*
X11505896Y-12461984D01*
X11505896Y-12461984D02*
X11524944Y-12471508D01*
X11524944Y-12471508D02*
X11534467Y-12481031D01*
X11534467Y-12481031D02*
X11543991Y-12500079D01*
X11543991Y-12500079D02*
X11553515Y-12538174D01*
X11553515Y-12538174D02*
X11553515Y-12585793D01*
X11553515Y-12585793D02*
X11543991Y-12623888D01*
X11543991Y-12623888D02*
X11534467Y-12642936D01*
X11534467Y-12642936D02*
X11524944Y-12652460D01*
X11524944Y-12652460D02*
X11505896Y-12661984D01*
X11505896Y-12661984D02*
X11486848Y-12661984D01*
X11486848Y-12661984D02*
X11467801Y-12652460D01*
X11467801Y-12652460D02*
X11458277Y-12642936D01*
X11458277Y-12642936D02*
X11448753Y-12623888D01*
X11448753Y-12623888D02*
X11439229Y-12585793D01*
X11439229Y-12585793D02*
X11439229Y-12538174D01*
X11439229Y-12538174D02*
X11448753Y-12500079D01*
X11448753Y-12500079D02*
X11458277Y-12481031D01*
X11458277Y-12481031D02*
X11467801Y-12471508D01*
X11467801Y-12471508D02*
X11486848Y-12461984D01*
X11620182Y-12461984D02*
X11743991Y-12461984D01*
X11743991Y-12461984D02*
X11677325Y-12538174D01*
X11677325Y-12538174D02*
X11705896Y-12538174D01*
X11705896Y-12538174D02*
X11724944Y-12547698D01*
X11724944Y-12547698D02*
X11734467Y-12557222D01*
X11734467Y-12557222D02*
X11743991Y-12576269D01*
X11743991Y-12576269D02*
X11743991Y-12623888D01*
X11743991Y-12623888D02*
X11734467Y-12642936D01*
X11734467Y-12642936D02*
X11724944Y-12652460D01*
X11724944Y-12652460D02*
X11705896Y-12661984D01*
X11705896Y-12661984D02*
X11648753Y-12661984D01*
X11648753Y-12661984D02*
X11629706Y-12652460D01*
X11629706Y-12652460D02*
X11620182Y-12642936D01*
X11924944Y-12461984D02*
X11829706Y-12461984D01*
X11829706Y-12461984D02*
X11820182Y-12557222D01*
X11820182Y-12557222D02*
X11829706Y-12547698D01*
X11829706Y-12547698D02*
X11848753Y-12538174D01*
X11848753Y-12538174D02*
X11896372Y-12538174D01*
X11896372Y-12538174D02*
X11915420Y-12547698D01*
X11915420Y-12547698D02*
X11924944Y-12557222D01*
X11924944Y-12557222D02*
X11934467Y-12576269D01*
X11934467Y-12576269D02*
X11934467Y-12623888D01*
X11934467Y-12623888D02*
X11924944Y-12642936D01*
X11924944Y-12642936D02*
X11915420Y-12652460D01*
X11915420Y-12652460D02*
X11896372Y-12661984D01*
X11896372Y-12661984D02*
X11848753Y-12661984D01*
X11848753Y-12661984D02*
X11829706Y-12652460D01*
X11829706Y-12652460D02*
X11820182Y-12642936D01*
X12105896Y-12528650D02*
X12105896Y-12661984D01*
X12058277Y-12452460D02*
X12010658Y-12595317D01*
X12010658Y-12595317D02*
X12134467Y-12595317D01*
X12201134Y-12461984D02*
X12201134Y-12500079D01*
X12277325Y-12461984D02*
X12277325Y-12500079D01*
X12572563Y-12738174D02*
X12563039Y-12728650D01*
X12563039Y-12728650D02*
X12543991Y-12700079D01*
X12543991Y-12700079D02*
X12534468Y-12681031D01*
X12534468Y-12681031D02*
X12524944Y-12652460D01*
X12524944Y-12652460D02*
X12515420Y-12604841D01*
X12515420Y-12604841D02*
X12515420Y-12566746D01*
X12515420Y-12566746D02*
X12524944Y-12519127D01*
X12524944Y-12519127D02*
X12534468Y-12490555D01*
X12534468Y-12490555D02*
X12543991Y-12471508D01*
X12543991Y-12471508D02*
X12563039Y-12442936D01*
X12563039Y-12442936D02*
X12572563Y-12433412D01*
X12639229Y-12481031D02*
X12648753Y-12471508D01*
X12648753Y-12471508D02*
X12667801Y-12461984D01*
X12667801Y-12461984D02*
X12715420Y-12461984D01*
X12715420Y-12461984D02*
X12734468Y-12471508D01*
X12734468Y-12471508D02*
X12743991Y-12481031D01*
X12743991Y-12481031D02*
X12753515Y-12500079D01*
X12753515Y-12500079D02*
X12753515Y-12519127D01*
X12753515Y-12519127D02*
X12743991Y-12547698D01*
X12743991Y-12547698D02*
X12629706Y-12661984D01*
X12629706Y-12661984D02*
X12753515Y-12661984D01*
X12991610Y-12661984D02*
X12991610Y-12461984D01*
X13077325Y-12661984D02*
X13077325Y-12557222D01*
X13077325Y-12557222D02*
X13067801Y-12538174D01*
X13067801Y-12538174D02*
X13048753Y-12528650D01*
X13048753Y-12528650D02*
X13020182Y-12528650D01*
X13020182Y-12528650D02*
X13001134Y-12538174D01*
X13001134Y-12538174D02*
X12991610Y-12547698D01*
X13201134Y-12661984D02*
X13182087Y-12652460D01*
X13182087Y-12652460D02*
X13172563Y-12642936D01*
X13172563Y-12642936D02*
X13163039Y-12623888D01*
X13163039Y-12623888D02*
X13163039Y-12566746D01*
X13163039Y-12566746D02*
X13172563Y-12547698D01*
X13172563Y-12547698D02*
X13182087Y-12538174D01*
X13182087Y-12538174D02*
X13201134Y-12528650D01*
X13201134Y-12528650D02*
X13229706Y-12528650D01*
X13229706Y-12528650D02*
X13248753Y-12538174D01*
X13248753Y-12538174D02*
X13258277Y-12547698D01*
X13258277Y-12547698D02*
X13267801Y-12566746D01*
X13267801Y-12566746D02*
X13267801Y-12623888D01*
X13267801Y-12623888D02*
X13258277Y-12642936D01*
X13258277Y-12642936D02*
X13248753Y-12652460D01*
X13248753Y-12652460D02*
X13229706Y-12661984D01*
X13229706Y-12661984D02*
X13201134Y-12661984D01*
X13382087Y-12661984D02*
X13363039Y-12652460D01*
X13363039Y-12652460D02*
X13353515Y-12633412D01*
X13353515Y-12633412D02*
X13353515Y-12461984D01*
X13534468Y-12652460D02*
X13515420Y-12661984D01*
X13515420Y-12661984D02*
X13477325Y-12661984D01*
X13477325Y-12661984D02*
X13458277Y-12652460D01*
X13458277Y-12652460D02*
X13448753Y-12633412D01*
X13448753Y-12633412D02*
X13448753Y-12557222D01*
X13448753Y-12557222D02*
X13458277Y-12538174D01*
X13458277Y-12538174D02*
X13477325Y-12528650D01*
X13477325Y-12528650D02*
X13515420Y-12528650D01*
X13515420Y-12528650D02*
X13534468Y-12538174D01*
X13534468Y-12538174D02*
X13543991Y-12557222D01*
X13543991Y-12557222D02*
X13543991Y-12576269D01*
X13543991Y-12576269D02*
X13448753Y-12595317D01*
X13620182Y-12652460D02*
X13639230Y-12661984D01*
X13639230Y-12661984D02*
X13677325Y-12661984D01*
X13677325Y-12661984D02*
X13696372Y-12652460D01*
X13696372Y-12652460D02*
X13705896Y-12633412D01*
X13705896Y-12633412D02*
X13705896Y-12623888D01*
X13705896Y-12623888D02*
X13696372Y-12604841D01*
X13696372Y-12604841D02*
X13677325Y-12595317D01*
X13677325Y-12595317D02*
X13648753Y-12595317D01*
X13648753Y-12595317D02*
X13629706Y-12585793D01*
X13629706Y-12585793D02*
X13620182Y-12566746D01*
X13620182Y-12566746D02*
X13620182Y-12557222D01*
X13620182Y-12557222D02*
X13629706Y-12538174D01*
X13629706Y-12538174D02*
X13648753Y-12528650D01*
X13648753Y-12528650D02*
X13677325Y-12528650D01*
X13677325Y-12528650D02*
X13696372Y-12538174D01*
X13772563Y-12738174D02*
X13782087Y-12728650D01*
X13782087Y-12728650D02*
X13801134Y-12700079D01*
X13801134Y-12700079D02*
X13810658Y-12681031D01*
X13810658Y-12681031D02*
X13820182Y-12652460D01*
X13820182Y-12652460D02*
X13829706Y-12604841D01*
X13829706Y-12604841D02*
X13829706Y-12566746D01*
X13829706Y-12566746D02*
X13820182Y-12519127D01*
X13820182Y-12519127D02*
X13810658Y-12490555D01*
X13810658Y-12490555D02*
X13801134Y-12471508D01*
X13801134Y-12471508D02*
X13782087Y-12442936D01*
X13782087Y-12442936D02*
X13772563Y-12433412D01*
D12*
X8983588Y-12868088D02*
X8983588Y-12800912D01*
X8916412Y-12800912D01*
X8916412Y-12868088D01*
X8983588Y-12868088D01*
D11*
X9296372Y-12725984D02*
X9315420Y-12725984D01*
X9315420Y-12725984D02*
X9334467Y-12735508D01*
X9334467Y-12735508D02*
X9343991Y-12745031D01*
X9343991Y-12745031D02*
X9353515Y-12764079D01*
X9353515Y-12764079D02*
X9363039Y-12802174D01*
X9363039Y-12802174D02*
X9363039Y-12849793D01*
X9363039Y-12849793D02*
X9353515Y-12887888D01*
X9353515Y-12887888D02*
X9343991Y-12906936D01*
X9343991Y-12906936D02*
X9334467Y-12916460D01*
X9334467Y-12916460D02*
X9315420Y-12925984D01*
X9315420Y-12925984D02*
X9296372Y-12925984D01*
X9296372Y-12925984D02*
X9277324Y-12916460D01*
X9277324Y-12916460D02*
X9267801Y-12906936D01*
X9267801Y-12906936D02*
X9258277Y-12887888D01*
X9258277Y-12887888D02*
X9248753Y-12849793D01*
X9248753Y-12849793D02*
X9248753Y-12802174D01*
X9248753Y-12802174D02*
X9258277Y-12764079D01*
X9258277Y-12764079D02*
X9267801Y-12745031D01*
X9267801Y-12745031D02*
X9277324Y-12735508D01*
X9277324Y-12735508D02*
X9296372Y-12725984D01*
X9448753Y-12906936D02*
X9458277Y-12916460D01*
X9458277Y-12916460D02*
X9448753Y-12925984D01*
X9448753Y-12925984D02*
X9439229Y-12916460D01*
X9439229Y-12916460D02*
X9448753Y-12906936D01*
X9448753Y-12906936D02*
X9448753Y-12925984D01*
X9553515Y-12925984D02*
X9591610Y-12925984D01*
X9591610Y-12925984D02*
X9610658Y-12916460D01*
X9610658Y-12916460D02*
X9620182Y-12906936D01*
X9620182Y-12906936D02*
X9639229Y-12878365D01*
X9639229Y-12878365D02*
X9648753Y-12840269D01*
X9648753Y-12840269D02*
X9648753Y-12764079D01*
X9648753Y-12764079D02*
X9639229Y-12745031D01*
X9639229Y-12745031D02*
X9629705Y-12735508D01*
X9629705Y-12735508D02*
X9610658Y-12725984D01*
X9610658Y-12725984D02*
X9572563Y-12725984D01*
X9572563Y-12725984D02*
X9553515Y-12735508D01*
X9553515Y-12735508D02*
X9543991Y-12745031D01*
X9543991Y-12745031D02*
X9534467Y-12764079D01*
X9534467Y-12764079D02*
X9534467Y-12811698D01*
X9534467Y-12811698D02*
X9543991Y-12830746D01*
X9543991Y-12830746D02*
X9553515Y-12840269D01*
X9553515Y-12840269D02*
X9572563Y-12849793D01*
X9572563Y-12849793D02*
X9610658Y-12849793D01*
X9610658Y-12849793D02*
X9629705Y-12840269D01*
X9629705Y-12840269D02*
X9639229Y-12830746D01*
X9639229Y-12830746D02*
X9648753Y-12811698D01*
X9829705Y-12725984D02*
X9734467Y-12725984D01*
X9734467Y-12725984D02*
X9724944Y-12821222D01*
X9724944Y-12821222D02*
X9734467Y-12811698D01*
X9734467Y-12811698D02*
X9753515Y-12802174D01*
X9753515Y-12802174D02*
X9801134Y-12802174D01*
X9801134Y-12802174D02*
X9820182Y-12811698D01*
X9820182Y-12811698D02*
X9829705Y-12821222D01*
X9829705Y-12821222D02*
X9839229Y-12840269D01*
X9839229Y-12840269D02*
X9839229Y-12887888D01*
X9839229Y-12887888D02*
X9829705Y-12906936D01*
X9829705Y-12906936D02*
X9820182Y-12916460D01*
X9820182Y-12916460D02*
X9801134Y-12925984D01*
X9801134Y-12925984D02*
X9753515Y-12925984D01*
X9753515Y-12925984D02*
X9734467Y-12916460D01*
X9734467Y-12916460D02*
X9724944Y-12906936D01*
X9963039Y-12725984D02*
X9982086Y-12725984D01*
X9982086Y-12725984D02*
X10001134Y-12735508D01*
X10001134Y-12735508D02*
X10010658Y-12745031D01*
X10010658Y-12745031D02*
X10020182Y-12764079D01*
X10020182Y-12764079D02*
X10029705Y-12802174D01*
X10029705Y-12802174D02*
X10029705Y-12849793D01*
X10029705Y-12849793D02*
X10020182Y-12887888D01*
X10020182Y-12887888D02*
X10010658Y-12906936D01*
X10010658Y-12906936D02*
X10001134Y-12916460D01*
X10001134Y-12916460D02*
X9982086Y-12925984D01*
X9982086Y-12925984D02*
X9963039Y-12925984D01*
X9963039Y-12925984D02*
X9943991Y-12916460D01*
X9943991Y-12916460D02*
X9934467Y-12906936D01*
X9934467Y-12906936D02*
X9924944Y-12887888D01*
X9924944Y-12887888D02*
X9915420Y-12849793D01*
X9915420Y-12849793D02*
X9915420Y-12802174D01*
X9915420Y-12802174D02*
X9924944Y-12764079D01*
X9924944Y-12764079D02*
X9934467Y-12745031D01*
X9934467Y-12745031D02*
X9943991Y-12735508D01*
X9943991Y-12735508D02*
X9963039Y-12725984D01*
X10115420Y-12925984D02*
X10115420Y-12792650D01*
X10115420Y-12811698D02*
X10124944Y-12802174D01*
X10124944Y-12802174D02*
X10143991Y-12792650D01*
X10143991Y-12792650D02*
X10172563Y-12792650D01*
X10172563Y-12792650D02*
X10191610Y-12802174D01*
X10191610Y-12802174D02*
X10201134Y-12821222D01*
X10201134Y-12821222D02*
X10201134Y-12925984D01*
X10201134Y-12821222D02*
X10210658Y-12802174D01*
X10210658Y-12802174D02*
X10229705Y-12792650D01*
X10229705Y-12792650D02*
X10258277Y-12792650D01*
X10258277Y-12792650D02*
X10277325Y-12802174D01*
X10277325Y-12802174D02*
X10286848Y-12821222D01*
X10286848Y-12821222D02*
X10286848Y-12925984D01*
X10382086Y-12925984D02*
X10382086Y-12792650D01*
X10382086Y-12811698D02*
X10391610Y-12802174D01*
X10391610Y-12802174D02*
X10410658Y-12792650D01*
X10410658Y-12792650D02*
X10439229Y-12792650D01*
X10439229Y-12792650D02*
X10458277Y-12802174D01*
X10458277Y-12802174D02*
X10467801Y-12821222D01*
X10467801Y-12821222D02*
X10467801Y-12925984D01*
X10467801Y-12821222D02*
X10477325Y-12802174D01*
X10477325Y-12802174D02*
X10496372Y-12792650D01*
X10496372Y-12792650D02*
X10524944Y-12792650D01*
X10524944Y-12792650D02*
X10543991Y-12802174D01*
X10543991Y-12802174D02*
X10553515Y-12821222D01*
X10553515Y-12821222D02*
X10553515Y-12925984D01*
X10943991Y-12716460D02*
X10772563Y-12973603D01*
X11201134Y-12725984D02*
X11220182Y-12725984D01*
X11220182Y-12725984D02*
X11239229Y-12735508D01*
X11239229Y-12735508D02*
X11248753Y-12745031D01*
X11248753Y-12745031D02*
X11258277Y-12764079D01*
X11258277Y-12764079D02*
X11267801Y-12802174D01*
X11267801Y-12802174D02*
X11267801Y-12849793D01*
X11267801Y-12849793D02*
X11258277Y-12887888D01*
X11258277Y-12887888D02*
X11248753Y-12906936D01*
X11248753Y-12906936D02*
X11239229Y-12916460D01*
X11239229Y-12916460D02*
X11220182Y-12925984D01*
X11220182Y-12925984D02*
X11201134Y-12925984D01*
X11201134Y-12925984D02*
X11182087Y-12916460D01*
X11182087Y-12916460D02*
X11172563Y-12906936D01*
X11172563Y-12906936D02*
X11163039Y-12887888D01*
X11163039Y-12887888D02*
X11153515Y-12849793D01*
X11153515Y-12849793D02*
X11153515Y-12802174D01*
X11153515Y-12802174D02*
X11163039Y-12764079D01*
X11163039Y-12764079D02*
X11172563Y-12745031D01*
X11172563Y-12745031D02*
X11182087Y-12735508D01*
X11182087Y-12735508D02*
X11201134Y-12725984D01*
X11353515Y-12906936D02*
X11363039Y-12916460D01*
X11363039Y-12916460D02*
X11353515Y-12925984D01*
X11353515Y-12925984D02*
X11343991Y-12916460D01*
X11343991Y-12916460D02*
X11353515Y-12906936D01*
X11353515Y-12906936D02*
X11353515Y-12925984D01*
X11486848Y-12725984D02*
X11505896Y-12725984D01*
X11505896Y-12725984D02*
X11524944Y-12735508D01*
X11524944Y-12735508D02*
X11534467Y-12745031D01*
X11534467Y-12745031D02*
X11543991Y-12764079D01*
X11543991Y-12764079D02*
X11553515Y-12802174D01*
X11553515Y-12802174D02*
X11553515Y-12849793D01*
X11553515Y-12849793D02*
X11543991Y-12887888D01*
X11543991Y-12887888D02*
X11534467Y-12906936D01*
X11534467Y-12906936D02*
X11524944Y-12916460D01*
X11524944Y-12916460D02*
X11505896Y-12925984D01*
X11505896Y-12925984D02*
X11486848Y-12925984D01*
X11486848Y-12925984D02*
X11467801Y-12916460D01*
X11467801Y-12916460D02*
X11458277Y-12906936D01*
X11458277Y-12906936D02*
X11448753Y-12887888D01*
X11448753Y-12887888D02*
X11439229Y-12849793D01*
X11439229Y-12849793D02*
X11439229Y-12802174D01*
X11439229Y-12802174D02*
X11448753Y-12764079D01*
X11448753Y-12764079D02*
X11458277Y-12745031D01*
X11458277Y-12745031D02*
X11467801Y-12735508D01*
X11467801Y-12735508D02*
X11486848Y-12725984D01*
X11620182Y-12725984D02*
X11743991Y-12725984D01*
X11743991Y-12725984D02*
X11677325Y-12802174D01*
X11677325Y-12802174D02*
X11705896Y-12802174D01*
X11705896Y-12802174D02*
X11724944Y-12811698D01*
X11724944Y-12811698D02*
X11734467Y-12821222D01*
X11734467Y-12821222D02*
X11743991Y-12840269D01*
X11743991Y-12840269D02*
X11743991Y-12887888D01*
X11743991Y-12887888D02*
X11734467Y-12906936D01*
X11734467Y-12906936D02*
X11724944Y-12916460D01*
X11724944Y-12916460D02*
X11705896Y-12925984D01*
X11705896Y-12925984D02*
X11648753Y-12925984D01*
X11648753Y-12925984D02*
X11629706Y-12916460D01*
X11629706Y-12916460D02*
X11620182Y-12906936D01*
X11810658Y-12725984D02*
X11943991Y-12725984D01*
X11943991Y-12725984D02*
X11858277Y-12925984D01*
X12105896Y-12792650D02*
X12105896Y-12925984D01*
X12058277Y-12716460D02*
X12010658Y-12859317D01*
X12010658Y-12859317D02*
X12134467Y-12859317D01*
X12201134Y-12725984D02*
X12201134Y-12764079D01*
X12277325Y-12725984D02*
X12277325Y-12764079D01*
X12572563Y-13002174D02*
X12563039Y-12992650D01*
X12563039Y-12992650D02*
X12543991Y-12964079D01*
X12543991Y-12964079D02*
X12534468Y-12945031D01*
X12534468Y-12945031D02*
X12524944Y-12916460D01*
X12524944Y-12916460D02*
X12515420Y-12868841D01*
X12515420Y-12868841D02*
X12515420Y-12830746D01*
X12515420Y-12830746D02*
X12524944Y-12783127D01*
X12524944Y-12783127D02*
X12534468Y-12754555D01*
X12534468Y-12754555D02*
X12543991Y-12735508D01*
X12543991Y-12735508D02*
X12563039Y-12706936D01*
X12563039Y-12706936D02*
X12572563Y-12697412D01*
X12639229Y-12745031D02*
X12648753Y-12735508D01*
X12648753Y-12735508D02*
X12667801Y-12725984D01*
X12667801Y-12725984D02*
X12715420Y-12725984D01*
X12715420Y-12725984D02*
X12734468Y-12735508D01*
X12734468Y-12735508D02*
X12743991Y-12745031D01*
X12743991Y-12745031D02*
X12753515Y-12764079D01*
X12753515Y-12764079D02*
X12753515Y-12783127D01*
X12753515Y-12783127D02*
X12743991Y-12811698D01*
X12743991Y-12811698D02*
X12629706Y-12925984D01*
X12629706Y-12925984D02*
X12753515Y-12925984D01*
X12867801Y-12811698D02*
X12848753Y-12802174D01*
X12848753Y-12802174D02*
X12839229Y-12792650D01*
X12839229Y-12792650D02*
X12829706Y-12773603D01*
X12829706Y-12773603D02*
X12829706Y-12764079D01*
X12829706Y-12764079D02*
X12839229Y-12745031D01*
X12839229Y-12745031D02*
X12848753Y-12735508D01*
X12848753Y-12735508D02*
X12867801Y-12725984D01*
X12867801Y-12725984D02*
X12905896Y-12725984D01*
X12905896Y-12725984D02*
X12924944Y-12735508D01*
X12924944Y-12735508D02*
X12934468Y-12745031D01*
X12934468Y-12745031D02*
X12943991Y-12764079D01*
X12943991Y-12764079D02*
X12943991Y-12773603D01*
X12943991Y-12773603D02*
X12934468Y-12792650D01*
X12934468Y-12792650D02*
X12924944Y-12802174D01*
X12924944Y-12802174D02*
X12905896Y-12811698D01*
X12905896Y-12811698D02*
X12867801Y-12811698D01*
X12867801Y-12811698D02*
X12848753Y-12821222D01*
X12848753Y-12821222D02*
X12839229Y-12830746D01*
X12839229Y-12830746D02*
X12829706Y-12849793D01*
X12829706Y-12849793D02*
X12829706Y-12887888D01*
X12829706Y-12887888D02*
X12839229Y-12906936D01*
X12839229Y-12906936D02*
X12848753Y-12916460D01*
X12848753Y-12916460D02*
X12867801Y-12925984D01*
X12867801Y-12925984D02*
X12905896Y-12925984D01*
X12905896Y-12925984D02*
X12924944Y-12916460D01*
X12924944Y-12916460D02*
X12934468Y-12906936D01*
X12934468Y-12906936D02*
X12943991Y-12887888D01*
X12943991Y-12887888D02*
X12943991Y-12849793D01*
X12943991Y-12849793D02*
X12934468Y-12830746D01*
X12934468Y-12830746D02*
X12924944Y-12821222D01*
X12924944Y-12821222D02*
X12905896Y-12811698D01*
X13182087Y-12925984D02*
X13182087Y-12725984D01*
X13267801Y-12925984D02*
X13267801Y-12821222D01*
X13267801Y-12821222D02*
X13258277Y-12802174D01*
X13258277Y-12802174D02*
X13239230Y-12792650D01*
X13239230Y-12792650D02*
X13210658Y-12792650D01*
X13210658Y-12792650D02*
X13191610Y-12802174D01*
X13191610Y-12802174D02*
X13182087Y-12811698D01*
X13391610Y-12925984D02*
X13372563Y-12916460D01*
X13372563Y-12916460D02*
X13363039Y-12906936D01*
X13363039Y-12906936D02*
X13353515Y-12887888D01*
X13353515Y-12887888D02*
X13353515Y-12830746D01*
X13353515Y-12830746D02*
X13363039Y-12811698D01*
X13363039Y-12811698D02*
X13372563Y-12802174D01*
X13372563Y-12802174D02*
X13391610Y-12792650D01*
X13391610Y-12792650D02*
X13420182Y-12792650D01*
X13420182Y-12792650D02*
X13439230Y-12802174D01*
X13439230Y-12802174D02*
X13448753Y-12811698D01*
X13448753Y-12811698D02*
X13458277Y-12830746D01*
X13458277Y-12830746D02*
X13458277Y-12887888D01*
X13458277Y-12887888D02*
X13448753Y-12906936D01*
X13448753Y-12906936D02*
X13439230Y-12916460D01*
X13439230Y-12916460D02*
X13420182Y-12925984D01*
X13420182Y-12925984D02*
X13391610Y-12925984D01*
X13572563Y-12925984D02*
X13553515Y-12916460D01*
X13553515Y-12916460D02*
X13543991Y-12897412D01*
X13543991Y-12897412D02*
X13543991Y-12725984D01*
X13724944Y-12916460D02*
X13705896Y-12925984D01*
X13705896Y-12925984D02*
X13667801Y-12925984D01*
X13667801Y-12925984D02*
X13648753Y-12916460D01*
X13648753Y-12916460D02*
X13639230Y-12897412D01*
X13639230Y-12897412D02*
X13639230Y-12821222D01*
X13639230Y-12821222D02*
X13648753Y-12802174D01*
X13648753Y-12802174D02*
X13667801Y-12792650D01*
X13667801Y-12792650D02*
X13705896Y-12792650D01*
X13705896Y-12792650D02*
X13724944Y-12802174D01*
X13724944Y-12802174D02*
X13734468Y-12821222D01*
X13734468Y-12821222D02*
X13734468Y-12840269D01*
X13734468Y-12840269D02*
X13639230Y-12859317D01*
X13810658Y-12916460D02*
X13829706Y-12925984D01*
X13829706Y-12925984D02*
X13867801Y-12925984D01*
X13867801Y-12925984D02*
X13886849Y-12916460D01*
X13886849Y-12916460D02*
X13896372Y-12897412D01*
X13896372Y-12897412D02*
X13896372Y-12887888D01*
X13896372Y-12887888D02*
X13886849Y-12868841D01*
X13886849Y-12868841D02*
X13867801Y-12859317D01*
X13867801Y-12859317D02*
X13839230Y-12859317D01*
X13839230Y-12859317D02*
X13820182Y-12849793D01*
X13820182Y-12849793D02*
X13810658Y-12830746D01*
X13810658Y-12830746D02*
X13810658Y-12821222D01*
X13810658Y-12821222D02*
X13820182Y-12802174D01*
X13820182Y-12802174D02*
X13839230Y-12792650D01*
X13839230Y-12792650D02*
X13867801Y-12792650D01*
X13867801Y-12792650D02*
X13886849Y-12802174D01*
X13963039Y-13002174D02*
X13972563Y-12992650D01*
X13972563Y-12992650D02*
X13991611Y-12964079D01*
X13991611Y-12964079D02*
X14001134Y-12945031D01*
X14001134Y-12945031D02*
X14010658Y-12916460D01*
X14010658Y-12916460D02*
X14020182Y-12868841D01*
X14020182Y-12868841D02*
X14020182Y-12830746D01*
X14020182Y-12830746D02*
X14010658Y-12783127D01*
X14010658Y-12783127D02*
X14001134Y-12754555D01*
X14001134Y-12754555D02*
X13991611Y-12735508D01*
X13991611Y-12735508D02*
X13972563Y-12706936D01*
X13972563Y-12706936D02*
X13963039Y-12697412D01*
D12*
X8947500Y-13148500D02*
X8997500Y-13098500D01*
X8947500Y-13048500D01*
X8897500Y-13098500D01*
X8947500Y-13148500D01*
D11*
X9363039Y-13189984D02*
X9248753Y-13189984D01*
X9305896Y-13189984D02*
X9305896Y-12989984D01*
X9305896Y-12989984D02*
X9286848Y-13018555D01*
X9286848Y-13018555D02*
X9267801Y-13037603D01*
X9267801Y-13037603D02*
X9248753Y-13047127D01*
X9448753Y-13170936D02*
X9458277Y-13180460D01*
X9458277Y-13180460D02*
X9448753Y-13189984D01*
X9448753Y-13189984D02*
X9439229Y-13180460D01*
X9439229Y-13180460D02*
X9448753Y-13170936D01*
X9448753Y-13170936D02*
X9448753Y-13189984D01*
X9582086Y-12989984D02*
X9601134Y-12989984D01*
X9601134Y-12989984D02*
X9620182Y-12999508D01*
X9620182Y-12999508D02*
X9629705Y-13009031D01*
X9629705Y-13009031D02*
X9639229Y-13028079D01*
X9639229Y-13028079D02*
X9648753Y-13066174D01*
X9648753Y-13066174D02*
X9648753Y-13113793D01*
X9648753Y-13113793D02*
X9639229Y-13151888D01*
X9639229Y-13151888D02*
X9629705Y-13170936D01*
X9629705Y-13170936D02*
X9620182Y-13180460D01*
X9620182Y-13180460D02*
X9601134Y-13189984D01*
X9601134Y-13189984D02*
X9582086Y-13189984D01*
X9582086Y-13189984D02*
X9563039Y-13180460D01*
X9563039Y-13180460D02*
X9553515Y-13170936D01*
X9553515Y-13170936D02*
X9543991Y-13151888D01*
X9543991Y-13151888D02*
X9534467Y-13113793D01*
X9534467Y-13113793D02*
X9534467Y-13066174D01*
X9534467Y-13066174D02*
X9543991Y-13028079D01*
X9543991Y-13028079D02*
X9553515Y-13009031D01*
X9553515Y-13009031D02*
X9563039Y-12999508D01*
X9563039Y-12999508D02*
X9582086Y-12989984D01*
X9772563Y-12989984D02*
X9791610Y-12989984D01*
X9791610Y-12989984D02*
X9810658Y-12999508D01*
X9810658Y-12999508D02*
X9820182Y-13009031D01*
X9820182Y-13009031D02*
X9829705Y-13028079D01*
X9829705Y-13028079D02*
X9839229Y-13066174D01*
X9839229Y-13066174D02*
X9839229Y-13113793D01*
X9839229Y-13113793D02*
X9829705Y-13151888D01*
X9829705Y-13151888D02*
X9820182Y-13170936D01*
X9820182Y-13170936D02*
X9810658Y-13180460D01*
X9810658Y-13180460D02*
X9791610Y-13189984D01*
X9791610Y-13189984D02*
X9772563Y-13189984D01*
X9772563Y-13189984D02*
X9753515Y-13180460D01*
X9753515Y-13180460D02*
X9743991Y-13170936D01*
X9743991Y-13170936D02*
X9734467Y-13151888D01*
X9734467Y-13151888D02*
X9724944Y-13113793D01*
X9724944Y-13113793D02*
X9724944Y-13066174D01*
X9724944Y-13066174D02*
X9734467Y-13028079D01*
X9734467Y-13028079D02*
X9743991Y-13009031D01*
X9743991Y-13009031D02*
X9753515Y-12999508D01*
X9753515Y-12999508D02*
X9772563Y-12989984D01*
X9963039Y-12989984D02*
X9982086Y-12989984D01*
X9982086Y-12989984D02*
X10001134Y-12999508D01*
X10001134Y-12999508D02*
X10010658Y-13009031D01*
X10010658Y-13009031D02*
X10020182Y-13028079D01*
X10020182Y-13028079D02*
X10029705Y-13066174D01*
X10029705Y-13066174D02*
X10029705Y-13113793D01*
X10029705Y-13113793D02*
X10020182Y-13151888D01*
X10020182Y-13151888D02*
X10010658Y-13170936D01*
X10010658Y-13170936D02*
X10001134Y-13180460D01*
X10001134Y-13180460D02*
X9982086Y-13189984D01*
X9982086Y-13189984D02*
X9963039Y-13189984D01*
X9963039Y-13189984D02*
X9943991Y-13180460D01*
X9943991Y-13180460D02*
X9934467Y-13170936D01*
X9934467Y-13170936D02*
X9924944Y-13151888D01*
X9924944Y-13151888D02*
X9915420Y-13113793D01*
X9915420Y-13113793D02*
X9915420Y-13066174D01*
X9915420Y-13066174D02*
X9924944Y-13028079D01*
X9924944Y-13028079D02*
X9934467Y-13009031D01*
X9934467Y-13009031D02*
X9943991Y-12999508D01*
X9943991Y-12999508D02*
X9963039Y-12989984D01*
X10115420Y-13189984D02*
X10115420Y-13056650D01*
X10115420Y-13075698D02*
X10124944Y-13066174D01*
X10124944Y-13066174D02*
X10143991Y-13056650D01*
X10143991Y-13056650D02*
X10172563Y-13056650D01*
X10172563Y-13056650D02*
X10191610Y-13066174D01*
X10191610Y-13066174D02*
X10201134Y-13085222D01*
X10201134Y-13085222D02*
X10201134Y-13189984D01*
X10201134Y-13085222D02*
X10210658Y-13066174D01*
X10210658Y-13066174D02*
X10229705Y-13056650D01*
X10229705Y-13056650D02*
X10258277Y-13056650D01*
X10258277Y-13056650D02*
X10277325Y-13066174D01*
X10277325Y-13066174D02*
X10286848Y-13085222D01*
X10286848Y-13085222D02*
X10286848Y-13189984D01*
X10382086Y-13189984D02*
X10382086Y-13056650D01*
X10382086Y-13075698D02*
X10391610Y-13066174D01*
X10391610Y-13066174D02*
X10410658Y-13056650D01*
X10410658Y-13056650D02*
X10439229Y-13056650D01*
X10439229Y-13056650D02*
X10458277Y-13066174D01*
X10458277Y-13066174D02*
X10467801Y-13085222D01*
X10467801Y-13085222D02*
X10467801Y-13189984D01*
X10467801Y-13085222D02*
X10477325Y-13066174D01*
X10477325Y-13066174D02*
X10496372Y-13056650D01*
X10496372Y-13056650D02*
X10524944Y-13056650D01*
X10524944Y-13056650D02*
X10543991Y-13066174D01*
X10543991Y-13066174D02*
X10553515Y-13085222D01*
X10553515Y-13085222D02*
X10553515Y-13189984D01*
X10943991Y-12980460D02*
X10772563Y-13237603D01*
X11201134Y-12989984D02*
X11220182Y-12989984D01*
X11220182Y-12989984D02*
X11239229Y-12999508D01*
X11239229Y-12999508D02*
X11248753Y-13009031D01*
X11248753Y-13009031D02*
X11258277Y-13028079D01*
X11258277Y-13028079D02*
X11267801Y-13066174D01*
X11267801Y-13066174D02*
X11267801Y-13113793D01*
X11267801Y-13113793D02*
X11258277Y-13151888D01*
X11258277Y-13151888D02*
X11248753Y-13170936D01*
X11248753Y-13170936D02*
X11239229Y-13180460D01*
X11239229Y-13180460D02*
X11220182Y-13189984D01*
X11220182Y-13189984D02*
X11201134Y-13189984D01*
X11201134Y-13189984D02*
X11182087Y-13180460D01*
X11182087Y-13180460D02*
X11172563Y-13170936D01*
X11172563Y-13170936D02*
X11163039Y-13151888D01*
X11163039Y-13151888D02*
X11153515Y-13113793D01*
X11153515Y-13113793D02*
X11153515Y-13066174D01*
X11153515Y-13066174D02*
X11163039Y-13028079D01*
X11163039Y-13028079D02*
X11172563Y-13009031D01*
X11172563Y-13009031D02*
X11182087Y-12999508D01*
X11182087Y-12999508D02*
X11201134Y-12989984D01*
X11353515Y-13170936D02*
X11363039Y-13180460D01*
X11363039Y-13180460D02*
X11353515Y-13189984D01*
X11353515Y-13189984D02*
X11343991Y-13180460D01*
X11343991Y-13180460D02*
X11353515Y-13170936D01*
X11353515Y-13170936D02*
X11353515Y-13189984D01*
X11486848Y-12989984D02*
X11505896Y-12989984D01*
X11505896Y-12989984D02*
X11524944Y-12999508D01*
X11524944Y-12999508D02*
X11534467Y-13009031D01*
X11534467Y-13009031D02*
X11543991Y-13028079D01*
X11543991Y-13028079D02*
X11553515Y-13066174D01*
X11553515Y-13066174D02*
X11553515Y-13113793D01*
X11553515Y-13113793D02*
X11543991Y-13151888D01*
X11543991Y-13151888D02*
X11534467Y-13170936D01*
X11534467Y-13170936D02*
X11524944Y-13180460D01*
X11524944Y-13180460D02*
X11505896Y-13189984D01*
X11505896Y-13189984D02*
X11486848Y-13189984D01*
X11486848Y-13189984D02*
X11467801Y-13180460D01*
X11467801Y-13180460D02*
X11458277Y-13170936D01*
X11458277Y-13170936D02*
X11448753Y-13151888D01*
X11448753Y-13151888D02*
X11439229Y-13113793D01*
X11439229Y-13113793D02*
X11439229Y-13066174D01*
X11439229Y-13066174D02*
X11448753Y-13028079D01*
X11448753Y-13028079D02*
X11458277Y-13009031D01*
X11458277Y-13009031D02*
X11467801Y-12999508D01*
X11467801Y-12999508D02*
X11486848Y-12989984D01*
X11620182Y-12989984D02*
X11743991Y-12989984D01*
X11743991Y-12989984D02*
X11677325Y-13066174D01*
X11677325Y-13066174D02*
X11705896Y-13066174D01*
X11705896Y-13066174D02*
X11724944Y-13075698D01*
X11724944Y-13075698D02*
X11734467Y-13085222D01*
X11734467Y-13085222D02*
X11743991Y-13104269D01*
X11743991Y-13104269D02*
X11743991Y-13151888D01*
X11743991Y-13151888D02*
X11734467Y-13170936D01*
X11734467Y-13170936D02*
X11724944Y-13180460D01*
X11724944Y-13180460D02*
X11705896Y-13189984D01*
X11705896Y-13189984D02*
X11648753Y-13189984D01*
X11648753Y-13189984D02*
X11629706Y-13180460D01*
X11629706Y-13180460D02*
X11620182Y-13170936D01*
X11839229Y-13189984D02*
X11877325Y-13189984D01*
X11877325Y-13189984D02*
X11896372Y-13180460D01*
X11896372Y-13180460D02*
X11905896Y-13170936D01*
X11905896Y-13170936D02*
X11924944Y-13142365D01*
X11924944Y-13142365D02*
X11934467Y-13104269D01*
X11934467Y-13104269D02*
X11934467Y-13028079D01*
X11934467Y-13028079D02*
X11924944Y-13009031D01*
X11924944Y-13009031D02*
X11915420Y-12999508D01*
X11915420Y-12999508D02*
X11896372Y-12989984D01*
X11896372Y-12989984D02*
X11858277Y-12989984D01*
X11858277Y-12989984D02*
X11839229Y-12999508D01*
X11839229Y-12999508D02*
X11829706Y-13009031D01*
X11829706Y-13009031D02*
X11820182Y-13028079D01*
X11820182Y-13028079D02*
X11820182Y-13075698D01*
X11820182Y-13075698D02*
X11829706Y-13094746D01*
X11829706Y-13094746D02*
X11839229Y-13104269D01*
X11839229Y-13104269D02*
X11858277Y-13113793D01*
X11858277Y-13113793D02*
X11896372Y-13113793D01*
X11896372Y-13113793D02*
X11915420Y-13104269D01*
X11915420Y-13104269D02*
X11924944Y-13094746D01*
X11924944Y-13094746D02*
X11934467Y-13075698D01*
X12105896Y-13056650D02*
X12105896Y-13189984D01*
X12058277Y-12980460D02*
X12010658Y-13123317D01*
X12010658Y-13123317D02*
X12134467Y-13123317D01*
X12201134Y-12989984D02*
X12201134Y-13028079D01*
X12277325Y-12989984D02*
X12277325Y-13028079D01*
X12572563Y-13266174D02*
X12563039Y-13256650D01*
X12563039Y-13256650D02*
X12543991Y-13228079D01*
X12543991Y-13228079D02*
X12534468Y-13209031D01*
X12534468Y-13209031D02*
X12524944Y-13180460D01*
X12524944Y-13180460D02*
X12515420Y-13132841D01*
X12515420Y-13132841D02*
X12515420Y-13094746D01*
X12515420Y-13094746D02*
X12524944Y-13047127D01*
X12524944Y-13047127D02*
X12534468Y-13018555D01*
X12534468Y-13018555D02*
X12543991Y-12999508D01*
X12543991Y-12999508D02*
X12563039Y-12970936D01*
X12563039Y-12970936D02*
X12572563Y-12961412D01*
X12753515Y-13189984D02*
X12639229Y-13189984D01*
X12696372Y-13189984D02*
X12696372Y-12989984D01*
X12696372Y-12989984D02*
X12677325Y-13018555D01*
X12677325Y-13018555D02*
X12658277Y-13037603D01*
X12658277Y-13037603D02*
X12639229Y-13047127D01*
X12934468Y-12989984D02*
X12839229Y-12989984D01*
X12839229Y-12989984D02*
X12829706Y-13085222D01*
X12829706Y-13085222D02*
X12839229Y-13075698D01*
X12839229Y-13075698D02*
X12858277Y-13066174D01*
X12858277Y-13066174D02*
X12905896Y-13066174D01*
X12905896Y-13066174D02*
X12924944Y-13075698D01*
X12924944Y-13075698D02*
X12934468Y-13085222D01*
X12934468Y-13085222D02*
X12943991Y-13104269D01*
X12943991Y-13104269D02*
X12943991Y-13151888D01*
X12943991Y-13151888D02*
X12934468Y-13170936D01*
X12934468Y-13170936D02*
X12924944Y-13180460D01*
X12924944Y-13180460D02*
X12905896Y-13189984D01*
X12905896Y-13189984D02*
X12858277Y-13189984D01*
X12858277Y-13189984D02*
X12839229Y-13180460D01*
X12839229Y-13180460D02*
X12829706Y-13170936D01*
X13115420Y-13056650D02*
X13115420Y-13189984D01*
X13067801Y-12980460D02*
X13020182Y-13123317D01*
X13020182Y-13123317D02*
X13143991Y-13123317D01*
X13372563Y-13189984D02*
X13372563Y-12989984D01*
X13458277Y-13189984D02*
X13458277Y-13085222D01*
X13458277Y-13085222D02*
X13448753Y-13066174D01*
X13448753Y-13066174D02*
X13429706Y-13056650D01*
X13429706Y-13056650D02*
X13401134Y-13056650D01*
X13401134Y-13056650D02*
X13382087Y-13066174D01*
X13382087Y-13066174D02*
X13372563Y-13075698D01*
X13582087Y-13189984D02*
X13563039Y-13180460D01*
X13563039Y-13180460D02*
X13553515Y-13170936D01*
X13553515Y-13170936D02*
X13543991Y-13151888D01*
X13543991Y-13151888D02*
X13543991Y-13094746D01*
X13543991Y-13094746D02*
X13553515Y-13075698D01*
X13553515Y-13075698D02*
X13563039Y-13066174D01*
X13563039Y-13066174D02*
X13582087Y-13056650D01*
X13582087Y-13056650D02*
X13610658Y-13056650D01*
X13610658Y-13056650D02*
X13629706Y-13066174D01*
X13629706Y-13066174D02*
X13639230Y-13075698D01*
X13639230Y-13075698D02*
X13648753Y-13094746D01*
X13648753Y-13094746D02*
X13648753Y-13151888D01*
X13648753Y-13151888D02*
X13639230Y-13170936D01*
X13639230Y-13170936D02*
X13629706Y-13180460D01*
X13629706Y-13180460D02*
X13610658Y-13189984D01*
X13610658Y-13189984D02*
X13582087Y-13189984D01*
X13763039Y-13189984D02*
X13743991Y-13180460D01*
X13743991Y-13180460D02*
X13734468Y-13161412D01*
X13734468Y-13161412D02*
X13734468Y-12989984D01*
X13915420Y-13180460D02*
X13896372Y-13189984D01*
X13896372Y-13189984D02*
X13858277Y-13189984D01*
X13858277Y-13189984D02*
X13839230Y-13180460D01*
X13839230Y-13180460D02*
X13829706Y-13161412D01*
X13829706Y-13161412D02*
X13829706Y-13085222D01*
X13829706Y-13085222D02*
X13839230Y-13066174D01*
X13839230Y-13066174D02*
X13858277Y-13056650D01*
X13858277Y-13056650D02*
X13896372Y-13056650D01*
X13896372Y-13056650D02*
X13915420Y-13066174D01*
X13915420Y-13066174D02*
X13924944Y-13085222D01*
X13924944Y-13085222D02*
X13924944Y-13104269D01*
X13924944Y-13104269D02*
X13829706Y-13123317D01*
X14001134Y-13180460D02*
X14020182Y-13189984D01*
X14020182Y-13189984D02*
X14058277Y-13189984D01*
X14058277Y-13189984D02*
X14077325Y-13180460D01*
X14077325Y-13180460D02*
X14086849Y-13161412D01*
X14086849Y-13161412D02*
X14086849Y-13151888D01*
X14086849Y-13151888D02*
X14077325Y-13132841D01*
X14077325Y-13132841D02*
X14058277Y-13123317D01*
X14058277Y-13123317D02*
X14029706Y-13123317D01*
X14029706Y-13123317D02*
X14010658Y-13113793D01*
X14010658Y-13113793D02*
X14001134Y-13094746D01*
X14001134Y-13094746D02*
X14001134Y-13085222D01*
X14001134Y-13085222D02*
X14010658Y-13066174D01*
X14010658Y-13066174D02*
X14029706Y-13056650D01*
X14029706Y-13056650D02*
X14058277Y-13056650D01*
X14058277Y-13056650D02*
X14077325Y-13066174D01*
X14153515Y-13266174D02*
X14163039Y-13256650D01*
X14163039Y-13256650D02*
X14182087Y-13228079D01*
X14182087Y-13228079D02*
X14191611Y-13209031D01*
X14191611Y-13209031D02*
X14201134Y-13180460D01*
X14201134Y-13180460D02*
X14210658Y-13132841D01*
X14210658Y-13132841D02*
X14210658Y-13094746D01*
X14210658Y-13094746D02*
X14201134Y-13047127D01*
X14201134Y-13047127D02*
X14191611Y-13018555D01*
X14191611Y-13018555D02*
X14182087Y-12999508D01*
X14182087Y-12999508D02*
X14163039Y-12970936D01*
X14163039Y-12970936D02*
X14153515Y-12961412D01*
X8797500Y-13262500D02*
X8997500Y-13462500D01*
X8997500Y-13262500D02*
X8797500Y-13462500D01*
X8997500Y-13362500D02*
G75*
G02*
X8797500Y-13362500I-100000J0D01*
G01*
X8797500Y-13362500D02*
G75*
G02*
X8997500Y-13362500I100000J0D01*
G01*
X9343991Y-13320650D02*
X9343991Y-13453984D01*
X9296372Y-13244460D02*
X9248753Y-13387317D01*
X9248753Y-13387317D02*
X9372563Y-13387317D01*
X9448753Y-13434936D02*
X9458277Y-13444460D01*
X9458277Y-13444460D02*
X9448753Y-13453984D01*
X9448753Y-13453984D02*
X9439229Y-13444460D01*
X9439229Y-13444460D02*
X9448753Y-13434936D01*
X9448753Y-13434936D02*
X9448753Y-13453984D01*
X9639229Y-13253984D02*
X9543991Y-13253984D01*
X9543991Y-13253984D02*
X9534467Y-13349222D01*
X9534467Y-13349222D02*
X9543991Y-13339698D01*
X9543991Y-13339698D02*
X9563039Y-13330174D01*
X9563039Y-13330174D02*
X9610658Y-13330174D01*
X9610658Y-13330174D02*
X9629705Y-13339698D01*
X9629705Y-13339698D02*
X9639229Y-13349222D01*
X9639229Y-13349222D02*
X9648753Y-13368269D01*
X9648753Y-13368269D02*
X9648753Y-13415888D01*
X9648753Y-13415888D02*
X9639229Y-13434936D01*
X9639229Y-13434936D02*
X9629705Y-13444460D01*
X9629705Y-13444460D02*
X9610658Y-13453984D01*
X9610658Y-13453984D02*
X9563039Y-13453984D01*
X9563039Y-13453984D02*
X9543991Y-13444460D01*
X9543991Y-13444460D02*
X9534467Y-13434936D01*
X9829705Y-13253984D02*
X9734467Y-13253984D01*
X9734467Y-13253984D02*
X9724944Y-13349222D01*
X9724944Y-13349222D02*
X9734467Y-13339698D01*
X9734467Y-13339698D02*
X9753515Y-13330174D01*
X9753515Y-13330174D02*
X9801134Y-13330174D01*
X9801134Y-13330174D02*
X9820182Y-13339698D01*
X9820182Y-13339698D02*
X9829705Y-13349222D01*
X9829705Y-13349222D02*
X9839229Y-13368269D01*
X9839229Y-13368269D02*
X9839229Y-13415888D01*
X9839229Y-13415888D02*
X9829705Y-13434936D01*
X9829705Y-13434936D02*
X9820182Y-13444460D01*
X9820182Y-13444460D02*
X9801134Y-13453984D01*
X9801134Y-13453984D02*
X9753515Y-13453984D01*
X9753515Y-13453984D02*
X9734467Y-13444460D01*
X9734467Y-13444460D02*
X9724944Y-13434936D01*
X9963039Y-13253984D02*
X9982086Y-13253984D01*
X9982086Y-13253984D02*
X10001134Y-13263508D01*
X10001134Y-13263508D02*
X10010658Y-13273031D01*
X10010658Y-13273031D02*
X10020182Y-13292079D01*
X10020182Y-13292079D02*
X10029705Y-13330174D01*
X10029705Y-13330174D02*
X10029705Y-13377793D01*
X10029705Y-13377793D02*
X10020182Y-13415888D01*
X10020182Y-13415888D02*
X10010658Y-13434936D01*
X10010658Y-13434936D02*
X10001134Y-13444460D01*
X10001134Y-13444460D02*
X9982086Y-13453984D01*
X9982086Y-13453984D02*
X9963039Y-13453984D01*
X9963039Y-13453984D02*
X9943991Y-13444460D01*
X9943991Y-13444460D02*
X9934467Y-13434936D01*
X9934467Y-13434936D02*
X9924944Y-13415888D01*
X9924944Y-13415888D02*
X9915420Y-13377793D01*
X9915420Y-13377793D02*
X9915420Y-13330174D01*
X9915420Y-13330174D02*
X9924944Y-13292079D01*
X9924944Y-13292079D02*
X9934467Y-13273031D01*
X9934467Y-13273031D02*
X9943991Y-13263508D01*
X9943991Y-13263508D02*
X9963039Y-13253984D01*
X10115420Y-13453984D02*
X10115420Y-13320650D01*
X10115420Y-13339698D02*
X10124944Y-13330174D01*
X10124944Y-13330174D02*
X10143991Y-13320650D01*
X10143991Y-13320650D02*
X10172563Y-13320650D01*
X10172563Y-13320650D02*
X10191610Y-13330174D01*
X10191610Y-13330174D02*
X10201134Y-13349222D01*
X10201134Y-13349222D02*
X10201134Y-13453984D01*
X10201134Y-13349222D02*
X10210658Y-13330174D01*
X10210658Y-13330174D02*
X10229705Y-13320650D01*
X10229705Y-13320650D02*
X10258277Y-13320650D01*
X10258277Y-13320650D02*
X10277325Y-13330174D01*
X10277325Y-13330174D02*
X10286848Y-13349222D01*
X10286848Y-13349222D02*
X10286848Y-13453984D01*
X10382086Y-13453984D02*
X10382086Y-13320650D01*
X10382086Y-13339698D02*
X10391610Y-13330174D01*
X10391610Y-13330174D02*
X10410658Y-13320650D01*
X10410658Y-13320650D02*
X10439229Y-13320650D01*
X10439229Y-13320650D02*
X10458277Y-13330174D01*
X10458277Y-13330174D02*
X10467801Y-13349222D01*
X10467801Y-13349222D02*
X10467801Y-13453984D01*
X10467801Y-13349222D02*
X10477325Y-13330174D01*
X10477325Y-13330174D02*
X10496372Y-13320650D01*
X10496372Y-13320650D02*
X10524944Y-13320650D01*
X10524944Y-13320650D02*
X10543991Y-13330174D01*
X10543991Y-13330174D02*
X10553515Y-13349222D01*
X10553515Y-13349222D02*
X10553515Y-13453984D01*
X10943991Y-13244460D02*
X10772563Y-13501603D01*
X11201134Y-13253984D02*
X11220182Y-13253984D01*
X11220182Y-13253984D02*
X11239229Y-13263508D01*
X11239229Y-13263508D02*
X11248753Y-13273031D01*
X11248753Y-13273031D02*
X11258277Y-13292079D01*
X11258277Y-13292079D02*
X11267801Y-13330174D01*
X11267801Y-13330174D02*
X11267801Y-13377793D01*
X11267801Y-13377793D02*
X11258277Y-13415888D01*
X11258277Y-13415888D02*
X11248753Y-13434936D01*
X11248753Y-13434936D02*
X11239229Y-13444460D01*
X11239229Y-13444460D02*
X11220182Y-13453984D01*
X11220182Y-13453984D02*
X11201134Y-13453984D01*
X11201134Y-13453984D02*
X11182087Y-13444460D01*
X11182087Y-13444460D02*
X11172563Y-13434936D01*
X11172563Y-13434936D02*
X11163039Y-13415888D01*
X11163039Y-13415888D02*
X11153515Y-13377793D01*
X11153515Y-13377793D02*
X11153515Y-13330174D01*
X11153515Y-13330174D02*
X11163039Y-13292079D01*
X11163039Y-13292079D02*
X11172563Y-13273031D01*
X11172563Y-13273031D02*
X11182087Y-13263508D01*
X11182087Y-13263508D02*
X11201134Y-13253984D01*
X11353515Y-13434936D02*
X11363039Y-13444460D01*
X11363039Y-13444460D02*
X11353515Y-13453984D01*
X11353515Y-13453984D02*
X11343991Y-13444460D01*
X11343991Y-13444460D02*
X11353515Y-13434936D01*
X11353515Y-13434936D02*
X11353515Y-13453984D01*
X11553515Y-13453984D02*
X11439229Y-13453984D01*
X11496372Y-13453984D02*
X11496372Y-13253984D01*
X11496372Y-13253984D02*
X11477325Y-13282555D01*
X11477325Y-13282555D02*
X11458277Y-13301603D01*
X11458277Y-13301603D02*
X11439229Y-13311127D01*
X11620182Y-13253984D02*
X11753515Y-13253984D01*
X11753515Y-13253984D02*
X11667801Y-13453984D01*
X11839229Y-13453984D02*
X11877325Y-13453984D01*
X11877325Y-13453984D02*
X11896372Y-13444460D01*
X11896372Y-13444460D02*
X11905896Y-13434936D01*
X11905896Y-13434936D02*
X11924944Y-13406365D01*
X11924944Y-13406365D02*
X11934467Y-13368269D01*
X11934467Y-13368269D02*
X11934467Y-13292079D01*
X11934467Y-13292079D02*
X11924944Y-13273031D01*
X11924944Y-13273031D02*
X11915420Y-13263508D01*
X11915420Y-13263508D02*
X11896372Y-13253984D01*
X11896372Y-13253984D02*
X11858277Y-13253984D01*
X11858277Y-13253984D02*
X11839229Y-13263508D01*
X11839229Y-13263508D02*
X11829706Y-13273031D01*
X11829706Y-13273031D02*
X11820182Y-13292079D01*
X11820182Y-13292079D02*
X11820182Y-13339698D01*
X11820182Y-13339698D02*
X11829706Y-13358746D01*
X11829706Y-13358746D02*
X11839229Y-13368269D01*
X11839229Y-13368269D02*
X11858277Y-13377793D01*
X11858277Y-13377793D02*
X11896372Y-13377793D01*
X11896372Y-13377793D02*
X11915420Y-13368269D01*
X11915420Y-13368269D02*
X11924944Y-13358746D01*
X11924944Y-13358746D02*
X11934467Y-13339698D01*
X12124944Y-13453984D02*
X12010658Y-13453984D01*
X12067801Y-13453984D02*
X12067801Y-13253984D01*
X12067801Y-13253984D02*
X12048753Y-13282555D01*
X12048753Y-13282555D02*
X12029706Y-13301603D01*
X12029706Y-13301603D02*
X12010658Y-13311127D01*
X12201134Y-13253984D02*
X12201134Y-13292079D01*
X12277325Y-13253984D02*
X12277325Y-13292079D01*
X12572563Y-13530174D02*
X12563039Y-13520650D01*
X12563039Y-13520650D02*
X12543991Y-13492079D01*
X12543991Y-13492079D02*
X12534468Y-13473031D01*
X12534468Y-13473031D02*
X12524944Y-13444460D01*
X12524944Y-13444460D02*
X12515420Y-13396841D01*
X12515420Y-13396841D02*
X12515420Y-13358746D01*
X12515420Y-13358746D02*
X12524944Y-13311127D01*
X12524944Y-13311127D02*
X12534468Y-13282555D01*
X12534468Y-13282555D02*
X12543991Y-13263508D01*
X12543991Y-13263508D02*
X12563039Y-13234936D01*
X12563039Y-13234936D02*
X12572563Y-13225412D01*
X12734468Y-13320650D02*
X12734468Y-13453984D01*
X12686848Y-13244460D02*
X12639229Y-13387317D01*
X12639229Y-13387317D02*
X12763039Y-13387317D01*
X12991610Y-13453984D02*
X12991610Y-13253984D01*
X13077325Y-13453984D02*
X13077325Y-13349222D01*
X13077325Y-13349222D02*
X13067801Y-13330174D01*
X13067801Y-13330174D02*
X13048753Y-13320650D01*
X13048753Y-13320650D02*
X13020182Y-13320650D01*
X13020182Y-13320650D02*
X13001134Y-13330174D01*
X13001134Y-13330174D02*
X12991610Y-13339698D01*
X13201134Y-13453984D02*
X13182087Y-13444460D01*
X13182087Y-13444460D02*
X13172563Y-13434936D01*
X13172563Y-13434936D02*
X13163039Y-13415888D01*
X13163039Y-13415888D02*
X13163039Y-13358746D01*
X13163039Y-13358746D02*
X13172563Y-13339698D01*
X13172563Y-13339698D02*
X13182087Y-13330174D01*
X13182087Y-13330174D02*
X13201134Y-13320650D01*
X13201134Y-13320650D02*
X13229706Y-13320650D01*
X13229706Y-13320650D02*
X13248753Y-13330174D01*
X13248753Y-13330174D02*
X13258277Y-13339698D01*
X13258277Y-13339698D02*
X13267801Y-13358746D01*
X13267801Y-13358746D02*
X13267801Y-13415888D01*
X13267801Y-13415888D02*
X13258277Y-13434936D01*
X13258277Y-13434936D02*
X13248753Y-13444460D01*
X13248753Y-13444460D02*
X13229706Y-13453984D01*
X13229706Y-13453984D02*
X13201134Y-13453984D01*
X13382087Y-13453984D02*
X13363039Y-13444460D01*
X13363039Y-13444460D02*
X13353515Y-13425412D01*
X13353515Y-13425412D02*
X13353515Y-13253984D01*
X13534468Y-13444460D02*
X13515420Y-13453984D01*
X13515420Y-13453984D02*
X13477325Y-13453984D01*
X13477325Y-13453984D02*
X13458277Y-13444460D01*
X13458277Y-13444460D02*
X13448753Y-13425412D01*
X13448753Y-13425412D02*
X13448753Y-13349222D01*
X13448753Y-13349222D02*
X13458277Y-13330174D01*
X13458277Y-13330174D02*
X13477325Y-13320650D01*
X13477325Y-13320650D02*
X13515420Y-13320650D01*
X13515420Y-13320650D02*
X13534468Y-13330174D01*
X13534468Y-13330174D02*
X13543991Y-13349222D01*
X13543991Y-13349222D02*
X13543991Y-13368269D01*
X13543991Y-13368269D02*
X13448753Y-13387317D01*
X13620182Y-13444460D02*
X13639230Y-13453984D01*
X13639230Y-13453984D02*
X13677325Y-13453984D01*
X13677325Y-13453984D02*
X13696372Y-13444460D01*
X13696372Y-13444460D02*
X13705896Y-13425412D01*
X13705896Y-13425412D02*
X13705896Y-13415888D01*
X13705896Y-13415888D02*
X13696372Y-13396841D01*
X13696372Y-13396841D02*
X13677325Y-13387317D01*
X13677325Y-13387317D02*
X13648753Y-13387317D01*
X13648753Y-13387317D02*
X13629706Y-13377793D01*
X13629706Y-13377793D02*
X13620182Y-13358746D01*
X13620182Y-13358746D02*
X13620182Y-13349222D01*
X13620182Y-13349222D02*
X13629706Y-13330174D01*
X13629706Y-13330174D02*
X13648753Y-13320650D01*
X13648753Y-13320650D02*
X13677325Y-13320650D01*
X13677325Y-13320650D02*
X13696372Y-13330174D01*
X13772563Y-13530174D02*
X13782087Y-13520650D01*
X13782087Y-13520650D02*
X13801134Y-13492079D01*
X13801134Y-13492079D02*
X13810658Y-13473031D01*
X13810658Y-13473031D02*
X13820182Y-13444460D01*
X13820182Y-13444460D02*
X13829706Y-13396841D01*
X13829706Y-13396841D02*
X13829706Y-13358746D01*
X13829706Y-13358746D02*
X13820182Y-13311127D01*
X13820182Y-13311127D02*
X13810658Y-13282555D01*
X13810658Y-13282555D02*
X13801134Y-13263508D01*
X13801134Y-13263508D02*
X13782087Y-13234936D01*
X13782087Y-13234936D02*
X13772563Y-13225412D01*
M02*
