M48
; DRILL file {KiCad 9.0.7} date 2026-01-29T20:13:54+0900
; FORMAT={-:-/ absolute / metric / decimal}
; #@! TF.CreationDate,2026-01-29T20:13:54+09:00
; #@! TF.GenerationSoftware,Kicad,Pcbnew,9.0.7
; #@! TF.FileFunction,Plated,1,2,PTH
FMAT,2
METRIC
; #@! TA.AperFunction,Plated,PTH,ViaDrill
T1C0.300
; #@! TA.AperFunction,Plated,PTH,ComponentDrill
T2C0.800
; #@! TA.AperFunction,Plated,PTH,ComponentDrill
T3C0.900
; #@! TA.AperFunction,Plated,PTH,ComponentDrill
T4C0.950
; #@! TA.AperFunction,Plated,PTH,ComponentDrill
T5C1.000
; #@! TA.AperFunction,Plated,PTH,ComponentDrill
T6C4.550
%
G90
G05
T1
X97.941Y-104.334
X117.894Y-104.753
X123.57Y-57.668
X124.962Y-61.356
X125.545Y-74.314
X125.913Y-60.569
X129.45Y-63.655
X134.447Y-97.722
X134.458Y-46.438
X135.21Y-50.713
X135.511Y-57.732
X135.627Y-90.818
X138.639Y-48.957
X139.137Y-62.524
X140.785Y-89.059
X142.881Y-48.946
X152.869Y-77.261
X158.525Y-56.631
X158.544Y-51.095
X158.725Y-57.518
X159.415Y-45.994
X160.117Y-56.631
X162.541Y-80.376
X170.945Y-106.704
X171.6Y-66.456
X171.846Y-61.82
X172.067Y-63.312
X173.221Y-44.373
X173.892Y-61.739
X175.751Y-79.894
X176.853Y-44.226
T2
X114.305Y-101.6
X114.305Y-104.14
X114.305Y-106.68
X114.305Y-109.22
X116.83Y-76.2
X116.83Y-86.36
X120.88Y-76.2
X120.88Y-86.36
X121.925Y-101.6
X121.925Y-104.14
X121.925Y-106.68
X121.925Y-109.22
X166.375Y-85.09
X166.375Y-87.63
X166.375Y-90.17
X166.375Y-92.71
X166.375Y-95.25
X166.375Y-97.79
X166.375Y-100.33
X166.375Y-102.87
X173.995Y-85.09
X173.995Y-87.63
X173.995Y-90.17
X173.995Y-92.71
X173.995Y-95.25
X173.995Y-97.79
X173.995Y-100.33
X173.995Y-102.87
T3
X116.84Y-93.98
X119.38Y-93.98
T4
X110.61Y-52.705
X113.11Y-52.705
X115.61Y-52.705
X118.11Y-52.705
X125.008Y-52.705
X127.508Y-52.705
X130.008Y-52.705
X132.508Y-52.705
X139.439Y-52.705
X141.939Y-52.705
X144.439Y-52.705
X146.939Y-52.705
X153.917Y-52.705
X156.417Y-52.705
X158.917Y-52.705
X161.417Y-52.705
X161.557Y-18.427
X161.557Y-26.555
X161.557Y-34.683
X161.557Y-42.862
X164.057Y-18.427
X164.057Y-26.555
X164.057Y-34.683
X164.057Y-42.862
X166.557Y-18.427
X166.557Y-26.555
X166.557Y-34.683
X166.557Y-42.862
T5
X96.012Y-84.633
X96.012Y-87.173
X96.012Y-89.713
X96.012Y-92.253
X96.012Y-94.793
X96.012Y-97.333
X96.012Y-99.873
X96.012Y-102.413
X96.012Y-104.953
X96.012Y-107.493
X96.012Y-110.033
X106.125Y-18.542
X106.125Y-26.733
X106.125Y-34.861
X106.125Y-42.989
X108.625Y-18.542
X108.625Y-26.733
X108.625Y-34.861
X108.625Y-42.989
X115.102Y-18.535
X115.102Y-26.733
X115.102Y-34.861
X115.102Y-42.989
X117.602Y-18.535
X117.602Y-26.733
X117.602Y-34.861
X117.602Y-42.989
X124.5Y-18.478
X124.5Y-26.606
X124.5Y-34.734
X124.5Y-42.913
X127.0Y-18.478
X127.0Y-26.606
X127.0Y-34.734
X127.0Y-42.913
X127.635Y-65.532
X127.635Y-68.072
X127.635Y-70.612
X127.635Y-73.152
X127.635Y-75.692
X127.635Y-78.232
X127.635Y-80.772
X127.635Y-83.312
X127.635Y-85.852
X127.635Y-88.392
X127.635Y-90.932
X127.635Y-93.472
X127.635Y-96.012
X127.635Y-98.552
X127.635Y-101.092
X127.635Y-103.632
X127.635Y-106.172
X127.635Y-108.712
X127.635Y-111.252
X131.445Y-65.532
X131.445Y-68.072
X131.445Y-70.612
X131.445Y-73.152
X131.445Y-75.692
X131.445Y-78.232
X131.445Y-80.772
X131.445Y-83.312
X131.445Y-85.852
X131.445Y-88.392
X131.445Y-90.932
X131.445Y-93.472
X131.445Y-96.012
X131.445Y-98.552
X131.445Y-101.092
X131.445Y-103.632
X131.445Y-106.172
X131.445Y-108.712
X131.445Y-111.252
X133.517Y-18.478
X133.517Y-26.589
X133.517Y-34.734
X136.017Y-18.478
X136.017Y-26.589
X136.017Y-34.734
X142.808Y-18.478
X142.808Y-26.606
X142.808Y-34.734
X142.808Y-42.913
X145.308Y-18.478
X145.308Y-26.606
X145.308Y-34.734
X145.308Y-42.913
X151.845Y-18.478
X151.845Y-26.606
X151.845Y-34.734
X151.845Y-42.862
X154.345Y-18.478
X154.345Y-26.606
X154.345Y-34.734
X154.345Y-42.862
X156.845Y-65.532
X156.845Y-68.072
X156.845Y-70.612
X156.845Y-73.152
X156.845Y-75.692
X156.845Y-78.232
X156.845Y-80.772
X156.845Y-83.312
X156.845Y-85.852
X156.845Y-88.392
X156.845Y-90.932
X156.845Y-93.472
X156.845Y-96.012
X156.845Y-98.552
X156.845Y-101.092
X156.845Y-103.632
X156.845Y-106.172
X156.845Y-108.712
X156.845Y-111.252
X160.655Y-65.532
X160.655Y-68.072
X160.655Y-70.612
X160.655Y-73.152
X160.655Y-75.692
X160.655Y-78.232
X160.655Y-80.772
X160.655Y-83.312
X160.655Y-85.852
X160.655Y-88.392
X160.655Y-90.932
X160.655Y-93.472
X160.655Y-96.012
X160.655Y-98.552
X160.655Y-101.092
X160.655Y-103.632
X160.655Y-106.172
X160.655Y-108.712
X160.655Y-111.252
X173.224Y-40.132
X173.224Y-42.672
X174.748Y-47.904
X177.288Y-47.904
X178.304Y-40.132
X178.304Y-42.672
X179.828Y-47.904
X182.368Y-47.904
X183.402Y-40.132
X183.402Y-42.672
X183.642Y-60.833
X183.642Y-63.373
X183.642Y-65.913
X183.642Y-68.453
X183.642Y-70.993
X183.642Y-73.533
X183.642Y-76.073
X183.642Y-78.613
X183.642Y-81.153
X183.642Y-83.693
X183.642Y-86.233
T6
X175.422Y-33.782
X175.466Y-21.59
X182.622Y-33.782
X182.666Y-21.59
M30
