%TF.GenerationSoftware,KiCad,Pcbnew,9.0.7*%
%TF.CreationDate,2026-01-29T20:13:54+09:00*%
%TF.ProjectId,ESP32-ROS-IO-V5.0.a,45535033-322d-4524-9f53-2d494f2d5635,rev?*%
%TF.SameCoordinates,Original*%
%TF.FileFunction,Drillmap*%
%TF.FilePolarity,Positive*%
%FSLAX45Y45*%
G04 Gerber Fmt 4.5, Leading zero omitted, Abs format (unit mm)*
G04 Created by KiCad (PCBNEW 9.0.7) date 2026-01-29 20:13:54*
%MOMM*%
%LPD*%
G01*
G04 APERTURE LIST*
%ADD10C,0.050000*%
%ADD11C,0.200000*%
%ADD12C,0.320000*%
G04 APERTURE END LIST*
D10*
X18700000Y-1400000D02*
G75*
G02*
X19000000Y-1700000I0J-300000D01*
G01*
X19000000Y-11100000D02*
X19000000Y-1700000D01*
X19000000Y-11100000D02*
G75*
G02*
X18700000Y-11400000I-300000J0D01*
G01*
X9300000Y-11400000D02*
G75*
G02*
X9000000Y-11100000I0J300000D01*
G01*
X9300000Y-11400000D02*
X18700000Y-11400000D01*
X9000000Y-1700000D02*
X9000000Y-11100000D01*
X9000000Y-1700000D02*
G75*
G02*
X9300000Y-1400000I300000J0D01*
G01*
X18700000Y-1400000D02*
X9300000Y-1400000D01*
D11*
D12*
X10240000Y-5110500D02*
X10560000Y-5430500D01*
X10560000Y-5110500D02*
X10240000Y-5430500D01*
X10240000Y-10840000D02*
X10560000Y-11160000D01*
X10560000Y-10840000D02*
X10240000Y-11160000D01*
X16740000Y-5140000D02*
X17060000Y-5460000D01*
X17060000Y-5140000D02*
X16740000Y-5460000D01*
X16740000Y-10840000D02*
X17060000Y-11160000D01*
X17060000Y-10840000D02*
X16740000Y-11160000D01*
D11*
X9258277Y-11713984D02*
X9258277Y-11513984D01*
X9258277Y-11513984D02*
X9305896Y-11513984D01*
X9305896Y-11513984D02*
X9334467Y-11523508D01*
X9334467Y-11523508D02*
X9353515Y-11542555D01*
X9353515Y-11542555D02*
X9363039Y-11561603D01*
X9363039Y-11561603D02*
X9372563Y-11599698D01*
X9372563Y-11599698D02*
X9372563Y-11628269D01*
X9372563Y-11628269D02*
X9363039Y-11666365D01*
X9363039Y-11666365D02*
X9353515Y-11685412D01*
X9353515Y-11685412D02*
X9334467Y-11704460D01*
X9334467Y-11704460D02*
X9305896Y-11713984D01*
X9305896Y-11713984D02*
X9258277Y-11713984D01*
X9458277Y-11713984D02*
X9458277Y-11580650D01*
X9458277Y-11618746D02*
X9467801Y-11599698D01*
X9467801Y-11599698D02*
X9477324Y-11590174D01*
X9477324Y-11590174D02*
X9496372Y-11580650D01*
X9496372Y-11580650D02*
X9515420Y-11580650D01*
X9582086Y-11713984D02*
X9582086Y-11580650D01*
X9582086Y-11513984D02*
X9572563Y-11523508D01*
X9572563Y-11523508D02*
X9582086Y-11533031D01*
X9582086Y-11533031D02*
X9591610Y-11523508D01*
X9591610Y-11523508D02*
X9582086Y-11513984D01*
X9582086Y-11513984D02*
X9582086Y-11533031D01*
X9705896Y-11713984D02*
X9686848Y-11704460D01*
X9686848Y-11704460D02*
X9677324Y-11685412D01*
X9677324Y-11685412D02*
X9677324Y-11513984D01*
X9810658Y-11713984D02*
X9791610Y-11704460D01*
X9791610Y-11704460D02*
X9782086Y-11685412D01*
X9782086Y-11685412D02*
X9782086Y-11513984D01*
X10039229Y-11713984D02*
X10039229Y-11513984D01*
X10039229Y-11513984D02*
X10105896Y-11656841D01*
X10105896Y-11656841D02*
X10172563Y-11513984D01*
X10172563Y-11513984D02*
X10172563Y-11713984D01*
X10353515Y-11713984D02*
X10353515Y-11609222D01*
X10353515Y-11609222D02*
X10343991Y-11590174D01*
X10343991Y-11590174D02*
X10324944Y-11580650D01*
X10324944Y-11580650D02*
X10286848Y-11580650D01*
X10286848Y-11580650D02*
X10267801Y-11590174D01*
X10353515Y-11704460D02*
X10334467Y-11713984D01*
X10334467Y-11713984D02*
X10286848Y-11713984D01*
X10286848Y-11713984D02*
X10267801Y-11704460D01*
X10267801Y-11704460D02*
X10258277Y-11685412D01*
X10258277Y-11685412D02*
X10258277Y-11666365D01*
X10258277Y-11666365D02*
X10267801Y-11647317D01*
X10267801Y-11647317D02*
X10286848Y-11637793D01*
X10286848Y-11637793D02*
X10334467Y-11637793D01*
X10334467Y-11637793D02*
X10353515Y-11628269D01*
X10448753Y-11580650D02*
X10448753Y-11780650D01*
X10448753Y-11590174D02*
X10467801Y-11580650D01*
X10467801Y-11580650D02*
X10505896Y-11580650D01*
X10505896Y-11580650D02*
X10524944Y-11590174D01*
X10524944Y-11590174D02*
X10534467Y-11599698D01*
X10534467Y-11599698D02*
X10543991Y-11618746D01*
X10543991Y-11618746D02*
X10543991Y-11675888D01*
X10543991Y-11675888D02*
X10534467Y-11694936D01*
X10534467Y-11694936D02*
X10524944Y-11704460D01*
X10524944Y-11704460D02*
X10505896Y-11713984D01*
X10505896Y-11713984D02*
X10467801Y-11713984D01*
X10467801Y-11713984D02*
X10448753Y-11704460D01*
X10629705Y-11694936D02*
X10639229Y-11704460D01*
X10639229Y-11704460D02*
X10629705Y-11713984D01*
X10629705Y-11713984D02*
X10620182Y-11704460D01*
X10620182Y-11704460D02*
X10629705Y-11694936D01*
X10629705Y-11694936D02*
X10629705Y-11713984D01*
X10629705Y-11590174D02*
X10639229Y-11599698D01*
X10639229Y-11599698D02*
X10629705Y-11609222D01*
X10629705Y-11609222D02*
X10620182Y-11599698D01*
X10620182Y-11599698D02*
X10629705Y-11590174D01*
X10629705Y-11590174D02*
X10629705Y-11609222D01*
X8797500Y-11942500D02*
X8997500Y-12142500D01*
X8997500Y-11942500D02*
X8797500Y-12142500D01*
X9239229Y-11933984D02*
X9363039Y-11933984D01*
X9363039Y-11933984D02*
X9296372Y-12010174D01*
X9296372Y-12010174D02*
X9324944Y-12010174D01*
X9324944Y-12010174D02*
X9343991Y-12019698D01*
X9343991Y-12019698D02*
X9353515Y-12029222D01*
X9353515Y-12029222D02*
X9363039Y-12048269D01*
X9363039Y-12048269D02*
X9363039Y-12095888D01*
X9363039Y-12095888D02*
X9353515Y-12114936D01*
X9353515Y-12114936D02*
X9343991Y-12124460D01*
X9343991Y-12124460D02*
X9324944Y-12133984D01*
X9324944Y-12133984D02*
X9267801Y-12133984D01*
X9267801Y-12133984D02*
X9248753Y-12124460D01*
X9248753Y-12124460D02*
X9239229Y-12114936D01*
X9448753Y-12114936D02*
X9458277Y-12124460D01*
X9458277Y-12124460D02*
X9448753Y-12133984D01*
X9448753Y-12133984D02*
X9439229Y-12124460D01*
X9439229Y-12124460D02*
X9448753Y-12114936D01*
X9448753Y-12114936D02*
X9448753Y-12133984D01*
X9534467Y-11953031D02*
X9543991Y-11943508D01*
X9543991Y-11943508D02*
X9563039Y-11933984D01*
X9563039Y-11933984D02*
X9610658Y-11933984D01*
X9610658Y-11933984D02*
X9629705Y-11943508D01*
X9629705Y-11943508D02*
X9639229Y-11953031D01*
X9639229Y-11953031D02*
X9648753Y-11972079D01*
X9648753Y-11972079D02*
X9648753Y-11991127D01*
X9648753Y-11991127D02*
X9639229Y-12019698D01*
X9639229Y-12019698D02*
X9524944Y-12133984D01*
X9524944Y-12133984D02*
X9648753Y-12133984D01*
X9772563Y-11933984D02*
X9791610Y-11933984D01*
X9791610Y-11933984D02*
X9810658Y-11943508D01*
X9810658Y-11943508D02*
X9820182Y-11953031D01*
X9820182Y-11953031D02*
X9829705Y-11972079D01*
X9829705Y-11972079D02*
X9839229Y-12010174D01*
X9839229Y-12010174D02*
X9839229Y-12057793D01*
X9839229Y-12057793D02*
X9829705Y-12095888D01*
X9829705Y-12095888D02*
X9820182Y-12114936D01*
X9820182Y-12114936D02*
X9810658Y-12124460D01*
X9810658Y-12124460D02*
X9791610Y-12133984D01*
X9791610Y-12133984D02*
X9772563Y-12133984D01*
X9772563Y-12133984D02*
X9753515Y-12124460D01*
X9753515Y-12124460D02*
X9743991Y-12114936D01*
X9743991Y-12114936D02*
X9734467Y-12095888D01*
X9734467Y-12095888D02*
X9724944Y-12057793D01*
X9724944Y-12057793D02*
X9724944Y-12010174D01*
X9724944Y-12010174D02*
X9734467Y-11972079D01*
X9734467Y-11972079D02*
X9743991Y-11953031D01*
X9743991Y-11953031D02*
X9753515Y-11943508D01*
X9753515Y-11943508D02*
X9772563Y-11933984D01*
X9963039Y-11933984D02*
X9982086Y-11933984D01*
X9982086Y-11933984D02*
X10001134Y-11943508D01*
X10001134Y-11943508D02*
X10010658Y-11953031D01*
X10010658Y-11953031D02*
X10020182Y-11972079D01*
X10020182Y-11972079D02*
X10029705Y-12010174D01*
X10029705Y-12010174D02*
X10029705Y-12057793D01*
X10029705Y-12057793D02*
X10020182Y-12095888D01*
X10020182Y-12095888D02*
X10010658Y-12114936D01*
X10010658Y-12114936D02*
X10001134Y-12124460D01*
X10001134Y-12124460D02*
X9982086Y-12133984D01*
X9982086Y-12133984D02*
X9963039Y-12133984D01*
X9963039Y-12133984D02*
X9943991Y-12124460D01*
X9943991Y-12124460D02*
X9934467Y-12114936D01*
X9934467Y-12114936D02*
X9924944Y-12095888D01*
X9924944Y-12095888D02*
X9915420Y-12057793D01*
X9915420Y-12057793D02*
X9915420Y-12010174D01*
X9915420Y-12010174D02*
X9924944Y-11972079D01*
X9924944Y-11972079D02*
X9934467Y-11953031D01*
X9934467Y-11953031D02*
X9943991Y-11943508D01*
X9943991Y-11943508D02*
X9963039Y-11933984D01*
X10115420Y-12133984D02*
X10115420Y-12000650D01*
X10115420Y-12019698D02*
X10124944Y-12010174D01*
X10124944Y-12010174D02*
X10143991Y-12000650D01*
X10143991Y-12000650D02*
X10172563Y-12000650D01*
X10172563Y-12000650D02*
X10191610Y-12010174D01*
X10191610Y-12010174D02*
X10201134Y-12029222D01*
X10201134Y-12029222D02*
X10201134Y-12133984D01*
X10201134Y-12029222D02*
X10210658Y-12010174D01*
X10210658Y-12010174D02*
X10229705Y-12000650D01*
X10229705Y-12000650D02*
X10258277Y-12000650D01*
X10258277Y-12000650D02*
X10277325Y-12010174D01*
X10277325Y-12010174D02*
X10286848Y-12029222D01*
X10286848Y-12029222D02*
X10286848Y-12133984D01*
X10382086Y-12133984D02*
X10382086Y-12000650D01*
X10382086Y-12019698D02*
X10391610Y-12010174D01*
X10391610Y-12010174D02*
X10410658Y-12000650D01*
X10410658Y-12000650D02*
X10439229Y-12000650D01*
X10439229Y-12000650D02*
X10458277Y-12010174D01*
X10458277Y-12010174D02*
X10467801Y-12029222D01*
X10467801Y-12029222D02*
X10467801Y-12133984D01*
X10467801Y-12029222D02*
X10477325Y-12010174D01*
X10477325Y-12010174D02*
X10496372Y-12000650D01*
X10496372Y-12000650D02*
X10524944Y-12000650D01*
X10524944Y-12000650D02*
X10543991Y-12010174D01*
X10543991Y-12010174D02*
X10553515Y-12029222D01*
X10553515Y-12029222D02*
X10553515Y-12133984D01*
X10943991Y-11924460D02*
X10772563Y-12181603D01*
X11201134Y-11933984D02*
X11220182Y-11933984D01*
X11220182Y-11933984D02*
X11239229Y-11943508D01*
X11239229Y-11943508D02*
X11248753Y-11953031D01*
X11248753Y-11953031D02*
X11258277Y-11972079D01*
X11258277Y-11972079D02*
X11267801Y-12010174D01*
X11267801Y-12010174D02*
X11267801Y-12057793D01*
X11267801Y-12057793D02*
X11258277Y-12095888D01*
X11258277Y-12095888D02*
X11248753Y-12114936D01*
X11248753Y-12114936D02*
X11239229Y-12124460D01*
X11239229Y-12124460D02*
X11220182Y-12133984D01*
X11220182Y-12133984D02*
X11201134Y-12133984D01*
X11201134Y-12133984D02*
X11182087Y-12124460D01*
X11182087Y-12124460D02*
X11172563Y-12114936D01*
X11172563Y-12114936D02*
X11163039Y-12095888D01*
X11163039Y-12095888D02*
X11153515Y-12057793D01*
X11153515Y-12057793D02*
X11153515Y-12010174D01*
X11153515Y-12010174D02*
X11163039Y-11972079D01*
X11163039Y-11972079D02*
X11172563Y-11953031D01*
X11172563Y-11953031D02*
X11182087Y-11943508D01*
X11182087Y-11943508D02*
X11201134Y-11933984D01*
X11353515Y-12114936D02*
X11363039Y-12124460D01*
X11363039Y-12124460D02*
X11353515Y-12133984D01*
X11353515Y-12133984D02*
X11343991Y-12124460D01*
X11343991Y-12124460D02*
X11353515Y-12114936D01*
X11353515Y-12114936D02*
X11353515Y-12133984D01*
X11553515Y-12133984D02*
X11439229Y-12133984D01*
X11496372Y-12133984D02*
X11496372Y-11933984D01*
X11496372Y-11933984D02*
X11477325Y-11962555D01*
X11477325Y-11962555D02*
X11458277Y-11981603D01*
X11458277Y-11981603D02*
X11439229Y-11991127D01*
X11629706Y-11953031D02*
X11639229Y-11943508D01*
X11639229Y-11943508D02*
X11658277Y-11933984D01*
X11658277Y-11933984D02*
X11705896Y-11933984D01*
X11705896Y-11933984D02*
X11724944Y-11943508D01*
X11724944Y-11943508D02*
X11734467Y-11953031D01*
X11734467Y-11953031D02*
X11743991Y-11972079D01*
X11743991Y-11972079D02*
X11743991Y-11991127D01*
X11743991Y-11991127D02*
X11734467Y-12019698D01*
X11734467Y-12019698D02*
X11620182Y-12133984D01*
X11620182Y-12133984D02*
X11743991Y-12133984D01*
X11915420Y-11933984D02*
X11877325Y-11933984D01*
X11877325Y-11933984D02*
X11858277Y-11943508D01*
X11858277Y-11943508D02*
X11848753Y-11953031D01*
X11848753Y-11953031D02*
X11829706Y-11981603D01*
X11829706Y-11981603D02*
X11820182Y-12019698D01*
X11820182Y-12019698D02*
X11820182Y-12095888D01*
X11820182Y-12095888D02*
X11829706Y-12114936D01*
X11829706Y-12114936D02*
X11839229Y-12124460D01*
X11839229Y-12124460D02*
X11858277Y-12133984D01*
X11858277Y-12133984D02*
X11896372Y-12133984D01*
X11896372Y-12133984D02*
X11915420Y-12124460D01*
X11915420Y-12124460D02*
X11924944Y-12114936D01*
X11924944Y-12114936D02*
X11934467Y-12095888D01*
X11934467Y-12095888D02*
X11934467Y-12048269D01*
X11934467Y-12048269D02*
X11924944Y-12029222D01*
X11924944Y-12029222D02*
X11915420Y-12019698D01*
X11915420Y-12019698D02*
X11896372Y-12010174D01*
X11896372Y-12010174D02*
X11858277Y-12010174D01*
X11858277Y-12010174D02*
X11839229Y-12019698D01*
X11839229Y-12019698D02*
X11829706Y-12029222D01*
X11829706Y-12029222D02*
X11820182Y-12048269D01*
X12058277Y-11933984D02*
X12077325Y-11933984D01*
X12077325Y-11933984D02*
X12096372Y-11943508D01*
X12096372Y-11943508D02*
X12105896Y-11953031D01*
X12105896Y-11953031D02*
X12115420Y-11972079D01*
X12115420Y-11972079D02*
X12124944Y-12010174D01*
X12124944Y-12010174D02*
X12124944Y-12057793D01*
X12124944Y-12057793D02*
X12115420Y-12095888D01*
X12115420Y-12095888D02*
X12105896Y-12114936D01*
X12105896Y-12114936D02*
X12096372Y-12124460D01*
X12096372Y-12124460D02*
X12077325Y-12133984D01*
X12077325Y-12133984D02*
X12058277Y-12133984D01*
X12058277Y-12133984D02*
X12039229Y-12124460D01*
X12039229Y-12124460D02*
X12029706Y-12114936D01*
X12029706Y-12114936D02*
X12020182Y-12095888D01*
X12020182Y-12095888D02*
X12010658Y-12057793D01*
X12010658Y-12057793D02*
X12010658Y-12010174D01*
X12010658Y-12010174D02*
X12020182Y-11972079D01*
X12020182Y-11972079D02*
X12029706Y-11953031D01*
X12029706Y-11953031D02*
X12039229Y-11943508D01*
X12039229Y-11943508D02*
X12058277Y-11933984D01*
X12201134Y-11933984D02*
X12201134Y-11972079D01*
X12277325Y-11933984D02*
X12277325Y-11972079D01*
X12572563Y-12210174D02*
X12563039Y-12200650D01*
X12563039Y-12200650D02*
X12543991Y-12172079D01*
X12543991Y-12172079D02*
X12534468Y-12153031D01*
X12534468Y-12153031D02*
X12524944Y-12124460D01*
X12524944Y-12124460D02*
X12515420Y-12076841D01*
X12515420Y-12076841D02*
X12515420Y-12038746D01*
X12515420Y-12038746D02*
X12524944Y-11991127D01*
X12524944Y-11991127D02*
X12534468Y-11962555D01*
X12534468Y-11962555D02*
X12543991Y-11943508D01*
X12543991Y-11943508D02*
X12563039Y-11914936D01*
X12563039Y-11914936D02*
X12572563Y-11905412D01*
X12734468Y-12000650D02*
X12734468Y-12133984D01*
X12686848Y-11924460D02*
X12639229Y-12067317D01*
X12639229Y-12067317D02*
X12763039Y-12067317D01*
X12991610Y-12133984D02*
X12991610Y-11933984D01*
X13077325Y-12133984D02*
X13077325Y-12029222D01*
X13077325Y-12029222D02*
X13067801Y-12010174D01*
X13067801Y-12010174D02*
X13048753Y-12000650D01*
X13048753Y-12000650D02*
X13020182Y-12000650D01*
X13020182Y-12000650D02*
X13001134Y-12010174D01*
X13001134Y-12010174D02*
X12991610Y-12019698D01*
X13201134Y-12133984D02*
X13182087Y-12124460D01*
X13182087Y-12124460D02*
X13172563Y-12114936D01*
X13172563Y-12114936D02*
X13163039Y-12095888D01*
X13163039Y-12095888D02*
X13163039Y-12038746D01*
X13163039Y-12038746D02*
X13172563Y-12019698D01*
X13172563Y-12019698D02*
X13182087Y-12010174D01*
X13182087Y-12010174D02*
X13201134Y-12000650D01*
X13201134Y-12000650D02*
X13229706Y-12000650D01*
X13229706Y-12000650D02*
X13248753Y-12010174D01*
X13248753Y-12010174D02*
X13258277Y-12019698D01*
X13258277Y-12019698D02*
X13267801Y-12038746D01*
X13267801Y-12038746D02*
X13267801Y-12095888D01*
X13267801Y-12095888D02*
X13258277Y-12114936D01*
X13258277Y-12114936D02*
X13248753Y-12124460D01*
X13248753Y-12124460D02*
X13229706Y-12133984D01*
X13229706Y-12133984D02*
X13201134Y-12133984D01*
X13382087Y-12133984D02*
X13363039Y-12124460D01*
X13363039Y-12124460D02*
X13353515Y-12105412D01*
X13353515Y-12105412D02*
X13353515Y-11933984D01*
X13534468Y-12124460D02*
X13515420Y-12133984D01*
X13515420Y-12133984D02*
X13477325Y-12133984D01*
X13477325Y-12133984D02*
X13458277Y-12124460D01*
X13458277Y-12124460D02*
X13448753Y-12105412D01*
X13448753Y-12105412D02*
X13448753Y-12029222D01*
X13448753Y-12029222D02*
X13458277Y-12010174D01*
X13458277Y-12010174D02*
X13477325Y-12000650D01*
X13477325Y-12000650D02*
X13515420Y-12000650D01*
X13515420Y-12000650D02*
X13534468Y-12010174D01*
X13534468Y-12010174D02*
X13543991Y-12029222D01*
X13543991Y-12029222D02*
X13543991Y-12048269D01*
X13543991Y-12048269D02*
X13448753Y-12067317D01*
X13620182Y-12124460D02*
X13639230Y-12133984D01*
X13639230Y-12133984D02*
X13677325Y-12133984D01*
X13677325Y-12133984D02*
X13696372Y-12124460D01*
X13696372Y-12124460D02*
X13705896Y-12105412D01*
X13705896Y-12105412D02*
X13705896Y-12095888D01*
X13705896Y-12095888D02*
X13696372Y-12076841D01*
X13696372Y-12076841D02*
X13677325Y-12067317D01*
X13677325Y-12067317D02*
X13648753Y-12067317D01*
X13648753Y-12067317D02*
X13629706Y-12057793D01*
X13629706Y-12057793D02*
X13620182Y-12038746D01*
X13620182Y-12038746D02*
X13620182Y-12029222D01*
X13620182Y-12029222D02*
X13629706Y-12010174D01*
X13629706Y-12010174D02*
X13648753Y-12000650D01*
X13648753Y-12000650D02*
X13677325Y-12000650D01*
X13677325Y-12000650D02*
X13696372Y-12010174D01*
X13772563Y-12210174D02*
X13782087Y-12200650D01*
X13782087Y-12200650D02*
X13801134Y-12172079D01*
X13801134Y-12172079D02*
X13810658Y-12153031D01*
X13810658Y-12153031D02*
X13820182Y-12124460D01*
X13820182Y-12124460D02*
X13829706Y-12076841D01*
X13829706Y-12076841D02*
X13829706Y-12038746D01*
X13829706Y-12038746D02*
X13820182Y-11991127D01*
X13820182Y-11991127D02*
X13810658Y-11962555D01*
X13810658Y-11962555D02*
X13801134Y-11943508D01*
X13801134Y-11943508D02*
X13782087Y-11914936D01*
X13782087Y-11914936D02*
X13772563Y-11905412D01*
X14134468Y-12210174D02*
X14124944Y-12200650D01*
X14124944Y-12200650D02*
X14105896Y-12172079D01*
X14105896Y-12172079D02*
X14096372Y-12153031D01*
X14096372Y-12153031D02*
X14086849Y-12124460D01*
X14086849Y-12124460D02*
X14077325Y-12076841D01*
X14077325Y-12076841D02*
X14077325Y-12038746D01*
X14077325Y-12038746D02*
X14086849Y-11991127D01*
X14086849Y-11991127D02*
X14096372Y-11962555D01*
X14096372Y-11962555D02*
X14105896Y-11943508D01*
X14105896Y-11943508D02*
X14124944Y-11914936D01*
X14124944Y-11914936D02*
X14134468Y-11905412D01*
X14210658Y-12000650D02*
X14210658Y-12133984D01*
X14210658Y-12019698D02*
X14220182Y-12010174D01*
X14220182Y-12010174D02*
X14239230Y-12000650D01*
X14239230Y-12000650D02*
X14267801Y-12000650D01*
X14267801Y-12000650D02*
X14286849Y-12010174D01*
X14286849Y-12010174D02*
X14296372Y-12029222D01*
X14296372Y-12029222D02*
X14296372Y-12133984D01*
X14420182Y-12133984D02*
X14401134Y-12124460D01*
X14401134Y-12124460D02*
X14391611Y-12114936D01*
X14391611Y-12114936D02*
X14382087Y-12095888D01*
X14382087Y-12095888D02*
X14382087Y-12038746D01*
X14382087Y-12038746D02*
X14391611Y-12019698D01*
X14391611Y-12019698D02*
X14401134Y-12010174D01*
X14401134Y-12010174D02*
X14420182Y-12000650D01*
X14420182Y-12000650D02*
X14448753Y-12000650D01*
X14448753Y-12000650D02*
X14467801Y-12010174D01*
X14467801Y-12010174D02*
X14477325Y-12019698D01*
X14477325Y-12019698D02*
X14486849Y-12038746D01*
X14486849Y-12038746D02*
X14486849Y-12095888D01*
X14486849Y-12095888D02*
X14477325Y-12114936D01*
X14477325Y-12114936D02*
X14467801Y-12124460D01*
X14467801Y-12124460D02*
X14448753Y-12133984D01*
X14448753Y-12133984D02*
X14420182Y-12133984D01*
X14543992Y-12000650D02*
X14620182Y-12000650D01*
X14572563Y-11933984D02*
X14572563Y-12105412D01*
X14572563Y-12105412D02*
X14582087Y-12124460D01*
X14582087Y-12124460D02*
X14601134Y-12133984D01*
X14601134Y-12133984D02*
X14620182Y-12133984D01*
X14839230Y-12000650D02*
X14839230Y-12200650D01*
X14839230Y-12010174D02*
X14858277Y-12000650D01*
X14858277Y-12000650D02*
X14896373Y-12000650D01*
X14896373Y-12000650D02*
X14915420Y-12010174D01*
X14915420Y-12010174D02*
X14924944Y-12019698D01*
X14924944Y-12019698D02*
X14934468Y-12038746D01*
X14934468Y-12038746D02*
X14934468Y-12095888D01*
X14934468Y-12095888D02*
X14924944Y-12114936D01*
X14924944Y-12114936D02*
X14915420Y-12124460D01*
X14915420Y-12124460D02*
X14896373Y-12133984D01*
X14896373Y-12133984D02*
X14858277Y-12133984D01*
X14858277Y-12133984D02*
X14839230Y-12124460D01*
X15048753Y-12133984D02*
X15029706Y-12124460D01*
X15029706Y-12124460D02*
X15020182Y-12105412D01*
X15020182Y-12105412D02*
X15020182Y-11933984D01*
X15210658Y-12133984D02*
X15210658Y-12029222D01*
X15210658Y-12029222D02*
X15201134Y-12010174D01*
X15201134Y-12010174D02*
X15182087Y-12000650D01*
X15182087Y-12000650D02*
X15143992Y-12000650D01*
X15143992Y-12000650D02*
X15124944Y-12010174D01*
X15210658Y-12124460D02*
X15191611Y-12133984D01*
X15191611Y-12133984D02*
X15143992Y-12133984D01*
X15143992Y-12133984D02*
X15124944Y-12124460D01*
X15124944Y-12124460D02*
X15115420Y-12105412D01*
X15115420Y-12105412D02*
X15115420Y-12086365D01*
X15115420Y-12086365D02*
X15124944Y-12067317D01*
X15124944Y-12067317D02*
X15143992Y-12057793D01*
X15143992Y-12057793D02*
X15191611Y-12057793D01*
X15191611Y-12057793D02*
X15210658Y-12048269D01*
X15277325Y-12000650D02*
X15353515Y-12000650D01*
X15305896Y-11933984D02*
X15305896Y-12105412D01*
X15305896Y-12105412D02*
X15315420Y-12124460D01*
X15315420Y-12124460D02*
X15334468Y-12133984D01*
X15334468Y-12133984D02*
X15353515Y-12133984D01*
X15496373Y-12124460D02*
X15477325Y-12133984D01*
X15477325Y-12133984D02*
X15439230Y-12133984D01*
X15439230Y-12133984D02*
X15420182Y-12124460D01*
X15420182Y-12124460D02*
X15410658Y-12105412D01*
X15410658Y-12105412D02*
X15410658Y-12029222D01*
X15410658Y-12029222D02*
X15420182Y-12010174D01*
X15420182Y-12010174D02*
X15439230Y-12000650D01*
X15439230Y-12000650D02*
X15477325Y-12000650D01*
X15477325Y-12000650D02*
X15496373Y-12010174D01*
X15496373Y-12010174D02*
X15505896Y-12029222D01*
X15505896Y-12029222D02*
X15505896Y-12048269D01*
X15505896Y-12048269D02*
X15410658Y-12067317D01*
X15677325Y-12133984D02*
X15677325Y-11933984D01*
X15677325Y-12124460D02*
X15658277Y-12133984D01*
X15658277Y-12133984D02*
X15620182Y-12133984D01*
X15620182Y-12133984D02*
X15601134Y-12124460D01*
X15601134Y-12124460D02*
X15591611Y-12114936D01*
X15591611Y-12114936D02*
X15582087Y-12095888D01*
X15582087Y-12095888D02*
X15582087Y-12038746D01*
X15582087Y-12038746D02*
X15591611Y-12019698D01*
X15591611Y-12019698D02*
X15601134Y-12010174D01*
X15601134Y-12010174D02*
X15620182Y-12000650D01*
X15620182Y-12000650D02*
X15658277Y-12000650D01*
X15658277Y-12000650D02*
X15677325Y-12010174D01*
X15753515Y-12210174D02*
X15763039Y-12200650D01*
X15763039Y-12200650D02*
X15782087Y-12172079D01*
X15782087Y-12172079D02*
X15791611Y-12153031D01*
X15791611Y-12153031D02*
X15801134Y-12124460D01*
X15801134Y-12124460D02*
X15810658Y-12076841D01*
X15810658Y-12076841D02*
X15810658Y-12038746D01*
X15810658Y-12038746D02*
X15801134Y-11991127D01*
X15801134Y-11991127D02*
X15791611Y-11962555D01*
X15791611Y-11962555D02*
X15782087Y-11943508D01*
X15782087Y-11943508D02*
X15763039Y-11914936D01*
X15763039Y-11914936D02*
X15753515Y-11905412D01*
M02*
