M48
; DRILL file {KiCad 9.0.4} date 2026-01-31T16:01:39+0900
; FORMAT={-:-/ absolute / metric / decimal}
; #@! TF.CreationDate,2026-01-31T16:01:39+09:00
; #@! TF.GenerationSoftware,Kicad,Pcbnew,9.0.4
; #@! TF.FileFunction,Plated,1,2,PTH
FMAT,2
METRIC
; #@! TA.AperFunction,Plated,PTH,ViaDrill
T1C0.300
; #@! TA.AperFunction,Plated,PTH,ComponentDrill
T2C0.800
; #@! TA.AperFunction,Plated,PTH,ComponentDrill
T3C0.950
; #@! TA.AperFunction,Plated,PTH,ComponentDrill
T4C1.000
; #@! TA.AperFunction,Plated,PTH,ComponentDrill
T5C4.550
%
G90
G05
T1
X23.245Y-22.283
X25.354Y-22.251
X29.299Y-86.753
X39.517Y-84.135
X40.781Y-57.709
X41.024Y-86.705
X41.267Y-75.386
X43.319Y-60.655
X43.563Y-92.935
X44.694Y-77.486
X44.92Y-78.385
X47.869Y-72.15
X50.848Y-64.208
X51.619Y-37.908
X52.426Y-69.494
X52.426Y-95.413
X55.466Y-48.87
X60.938Y-72.349
X61.201Y-68.234
X64.07Y-64.974
X69.625Y-24.563
X69.716Y-23.759
X78.227Y-58.361
X96.402Y-42.977
X100.212Y-39.972
X104.825Y-22.353
X104.825Y-37.084
T2
X46.228Y-81.788
X46.228Y-89.408
X48.768Y-81.788
X48.768Y-89.408
X51.308Y-81.788
X51.308Y-89.408
X53.848Y-81.788
X53.848Y-89.408
X56.388Y-81.788
X56.388Y-89.408
X58.928Y-81.788
X58.928Y-89.408
X61.468Y-81.788
X61.468Y-89.408
X64.008Y-81.788
X64.008Y-89.408
T3
X33.528Y-86.36
X33.608Y-35.56
X33.608Y-44.196
X33.608Y-52.087
X33.608Y-60.198
X33.608Y-68.834
X33.608Y-77.216
X36.028Y-86.36
X36.108Y-35.56
X36.108Y-44.196
X36.108Y-52.087
X36.108Y-60.198
X36.108Y-68.834
X36.108Y-77.216
X38.528Y-86.36
X38.608Y-35.56
X38.608Y-44.196
X38.608Y-52.087
X38.608Y-60.198
X38.608Y-68.834
X38.608Y-77.216
X46.776Y-35.052
X46.776Y-42.302
X49.276Y-35.052
X49.276Y-42.302
X51.776Y-35.052
X51.776Y-42.302
X54.276Y-35.052
X54.276Y-42.302
X60.96Y-34.925
X60.96Y-42.2
X63.46Y-34.925
X63.46Y-42.2
X65.96Y-34.925
X65.96Y-42.2
X68.46Y-34.925
X68.46Y-42.2
T4
X21.336Y-64.008
X21.361Y-69.008
X21.373Y-73.958
X21.376Y-78.911
X22.518Y-25.661
X22.518Y-28.201
X22.518Y-30.741
X22.518Y-33.281
X22.518Y-35.821
X22.518Y-38.361
X22.518Y-40.901
X22.518Y-43.441
X22.518Y-45.981
X22.518Y-48.521
X22.518Y-51.061
X23.876Y-64.008
X23.901Y-69.008
X23.913Y-73.958
X23.916Y-78.911
X26.416Y-97.138
X28.956Y-97.138
X31.496Y-97.138
X34.036Y-97.138
X36.576Y-97.138
X39.116Y-97.138
X41.656Y-97.138
X44.196Y-97.138
X46.149Y-51.593
X46.268Y-59.272
X46.268Y-66.699
X46.268Y-74.573
X46.736Y-97.138
X48.649Y-51.593
X48.768Y-59.272
X48.768Y-66.699
X48.768Y-74.573
X49.276Y-97.138
X51.816Y-97.138
X56.17Y-51.566
X56.174Y-74.422
X56.194Y-66.774
X56.257Y-59.156
X58.67Y-51.566
X58.674Y-74.422
X58.694Y-66.774
X58.757Y-59.156
X66.594Y-51.545
X66.614Y-59.182
X66.614Y-74.676
X66.632Y-66.879
X69.094Y-51.545
X69.114Y-59.182
X69.114Y-74.676
X69.132Y-66.879
X74.812Y-22.653
X76.136Y-41.916
X76.136Y-44.456
X76.136Y-46.996
X76.136Y-49.536
X76.136Y-52.076
X76.136Y-54.616
X76.136Y-57.156
X76.136Y-59.696
X76.136Y-62.236
X76.136Y-64.776
X76.136Y-67.316
X76.136Y-69.856
X76.136Y-72.396
X76.136Y-74.936
X76.136Y-77.476
X76.136Y-80.016
X76.136Y-82.556
X76.136Y-85.096
X76.136Y-87.636
X77.352Y-22.653
X79.756Y-41.91
X79.756Y-44.45
X79.756Y-46.99
X79.756Y-49.53
X79.756Y-52.07
X79.756Y-54.61
X79.756Y-57.15
X79.756Y-59.69
X79.756Y-62.23
X79.756Y-64.77
X79.756Y-67.31
X79.756Y-69.85
X79.756Y-72.39
X79.756Y-74.93
X79.756Y-77.47
X79.756Y-80.01
X79.756Y-82.55
X79.756Y-85.09
X79.756Y-87.63
X79.892Y-22.653
X82.432Y-22.653
X84.972Y-22.653
X87.512Y-22.653
X90.052Y-22.653
X92.592Y-22.653
X95.132Y-22.653
X97.672Y-22.653
X100.212Y-22.653
X105.169Y-41.91
X105.169Y-44.45
X105.169Y-46.99
X105.169Y-49.53
X105.169Y-52.07
X105.169Y-54.61
X105.169Y-57.15
X105.169Y-59.69
X105.169Y-62.23
X105.169Y-64.77
X105.169Y-67.31
X105.169Y-69.85
X105.169Y-72.39
X105.169Y-74.93
X105.169Y-77.47
X105.169Y-80.01
X105.169Y-82.55
X105.169Y-85.09
X105.169Y-87.63
X108.8Y-41.916
X108.8Y-44.456
X108.8Y-46.996
X108.8Y-49.536
X108.8Y-52.076
X108.8Y-54.616
X108.8Y-57.156
X108.8Y-59.696
X108.8Y-62.236
X108.8Y-64.776
X108.8Y-67.316
X108.8Y-69.856
X108.8Y-72.396
X108.8Y-74.936
X108.8Y-77.476
X108.8Y-80.016
X108.8Y-82.556
X108.8Y-85.096
X108.8Y-87.636
T5
X34.5Y-25.4
X41.7Y-25.4
X52.915Y-25.4
X60.115Y-25.4
M30
