%TF.GenerationSoftware,KiCad,Pcbnew,9.0.4*%
%TF.CreationDate,2026-01-31T16:01:39+09:00*%
%TF.ProjectId,harurobo,68617275-726f-4626-9f2e-6b696361645f,rev?*%
%TF.SameCoordinates,Original*%
%TF.FileFunction,Drillmap*%
%TF.FilePolarity,Positive*%
%FSLAX45Y45*%
G04 Gerber Fmt 4.5, Leading zero omitted, Abs format (unit mm)*
G04 Created by KiCad (PCBNEW 9.0.4) date 2026-01-31 16:01:39*
%MOMM*%
%LPD*%
G01*
G04 APERTURE LIST*
%ADD10C,0.050000*%
%ADD11C,0.200000*%
%ADD12C,0.100000*%
%ADD13C,0.455000*%
G04 APERTURE END LIST*
D10*
X1905000Y-2006488D02*
X1906493Y-9829800D01*
X2108200Y-10031507D02*
G75*
G02*
X1906493Y-9829800I0J201707D01*
G01*
X11001493Y-1803512D02*
X2101493Y-1803512D01*
X11001493Y-1803512D02*
G75*
G02*
X11200003Y-2003512I-1493J-199998D01*
G01*
X2108200Y-10031507D02*
X10998200Y-10033000D01*
X11200000Y-9833200D02*
X11200000Y-2003400D01*
X11200000Y-9833200D02*
G75*
G02*
X10998200Y-10033010I-201800J2000D01*
G01*
X1905000Y-2006600D02*
G75*
G02*
X2101493Y-1803512I196493J6488D01*
G01*
D11*
D12*
X2309470Y-2213320D02*
X2339470Y-2243320D01*
X2339470Y-2213320D02*
X2309470Y-2243320D01*
X2520400Y-2210130D02*
X2550400Y-2240130D01*
X2550400Y-2210130D02*
X2520400Y-2240130D01*
X2914930Y-8660310D02*
X2944930Y-8690310D01*
X2944930Y-8660310D02*
X2914930Y-8690310D01*
X3936680Y-8398500D02*
X3966680Y-8428500D01*
X3966680Y-8398500D02*
X3936680Y-8428500D01*
X4063120Y-5755860D02*
X4093120Y-5785860D01*
X4093120Y-5755860D02*
X4063120Y-5785860D01*
X4087400Y-8655480D02*
X4117400Y-8685480D01*
X4117400Y-8655480D02*
X4087400Y-8685480D01*
X4111660Y-7523640D02*
X4141660Y-7553640D01*
X4141660Y-7523640D02*
X4111660Y-7553640D01*
X4316870Y-6050490D02*
X4346870Y-6080490D01*
X4346870Y-6050490D02*
X4316870Y-6080490D01*
X4341320Y-9278520D02*
X4371320Y-9308520D01*
X4371320Y-9278520D02*
X4341320Y-9308520D01*
X4454380Y-7733600D02*
X4484380Y-7763600D01*
X4484380Y-7733600D02*
X4454380Y-7763600D01*
X4476980Y-7823470D02*
X4506980Y-7853470D01*
X4506980Y-7823470D02*
X4476980Y-7853470D01*
X4771930Y-7199980D02*
X4801930Y-7229980D01*
X4801930Y-7199980D02*
X4771930Y-7229980D01*
X5069840Y-6405840D02*
X5099840Y-6435840D01*
X5099840Y-6405840D02*
X5069840Y-6435840D01*
X5146940Y-3775830D02*
X5176940Y-3805830D01*
X5176940Y-3775830D02*
X5146940Y-3805830D01*
X5227560Y-6934380D02*
X5257560Y-6964380D01*
X5257560Y-6934380D02*
X5227560Y-6964380D01*
X5227560Y-9526270D02*
X5257560Y-9556270D01*
X5257560Y-9526270D02*
X5227560Y-9556270D01*
X5531640Y-4871970D02*
X5561640Y-4901970D01*
X5561640Y-4871970D02*
X5531640Y-4901970D01*
X6078780Y-7219870D02*
X6108780Y-7249870D01*
X6108780Y-7219870D02*
X6078780Y-7249870D01*
X6105140Y-6808400D02*
X6135140Y-6838400D01*
X6135140Y-6808400D02*
X6105140Y-6838400D01*
X6392000Y-6482370D02*
X6422000Y-6512370D01*
X6422000Y-6482370D02*
X6392000Y-6512370D01*
X6947500Y-2441310D02*
X6977500Y-2471310D01*
X6977500Y-2441310D02*
X6947500Y-2471310D01*
X6956610Y-2360890D02*
X6986610Y-2390890D01*
X6986610Y-2360890D02*
X6956610Y-2390890D01*
X7807690Y-5821140D02*
X7837690Y-5851140D01*
X7837690Y-5821140D02*
X7807690Y-5851140D01*
X9625200Y-4282710D02*
X9655200Y-4312710D01*
X9655200Y-4282710D02*
X9625200Y-4312710D01*
X10006200Y-3982220D02*
X10036200Y-4012220D01*
X10036200Y-3982220D02*
X10006200Y-4012220D01*
X10467540Y-2220300D02*
X10497540Y-2250300D01*
X10497540Y-2220300D02*
X10467540Y-2250300D01*
X10467540Y-3693450D02*
X10497540Y-3723450D01*
X10497540Y-3693450D02*
X10467540Y-3723450D01*
X4662800Y-8178800D02*
G75*
G02*
X4582800Y-8178800I-40000J0D01*
G01*
X4582800Y-8178800D02*
G75*
G02*
X4662800Y-8178800I40000J0D01*
G01*
X4662800Y-8940800D02*
G75*
G02*
X4582800Y-8940800I-40000J0D01*
G01*
X4582800Y-8940800D02*
G75*
G02*
X4662800Y-8940800I40000J0D01*
G01*
X4916800Y-8178800D02*
G75*
G02*
X4836800Y-8178800I-40000J0D01*
G01*
X4836800Y-8178800D02*
G75*
G02*
X4916800Y-8178800I40000J0D01*
G01*
X4916800Y-8940800D02*
G75*
G02*
X4836800Y-8940800I-40000J0D01*
G01*
X4836800Y-8940800D02*
G75*
G02*
X4916800Y-8940800I40000J0D01*
G01*
X5170800Y-8178800D02*
G75*
G02*
X5090800Y-8178800I-40000J0D01*
G01*
X5090800Y-8178800D02*
G75*
G02*
X5170800Y-8178800I40000J0D01*
G01*
X5170800Y-8940800D02*
G75*
G02*
X5090800Y-8940800I-40000J0D01*
G01*
X5090800Y-8940800D02*
G75*
G02*
X5170800Y-8940800I40000J0D01*
G01*
X5424800Y-8178800D02*
G75*
G02*
X5344800Y-8178800I-40000J0D01*
G01*
X5344800Y-8178800D02*
G75*
G02*
X5424800Y-8178800I40000J0D01*
G01*
X5424800Y-8940800D02*
G75*
G02*
X5344800Y-8940800I-40000J0D01*
G01*
X5344800Y-8940800D02*
G75*
G02*
X5424800Y-8940800I40000J0D01*
G01*
X5678800Y-8178800D02*
G75*
G02*
X5598800Y-8178800I-40000J0D01*
G01*
X5598800Y-8178800D02*
G75*
G02*
X5678800Y-8178800I40000J0D01*
G01*
X5678800Y-8940800D02*
G75*
G02*
X5598800Y-8940800I-40000J0D01*
G01*
X5598800Y-8940800D02*
G75*
G02*
X5678800Y-8940800I40000J0D01*
G01*
X5932800Y-8178800D02*
G75*
G02*
X5852800Y-8178800I-40000J0D01*
G01*
X5852800Y-8178800D02*
G75*
G02*
X5932800Y-8178800I40000J0D01*
G01*
X5932800Y-8940800D02*
G75*
G02*
X5852800Y-8940800I-40000J0D01*
G01*
X5852800Y-8940800D02*
G75*
G02*
X5932800Y-8940800I40000J0D01*
G01*
X6186800Y-8178800D02*
G75*
G02*
X6106800Y-8178800I-40000J0D01*
G01*
X6106800Y-8178800D02*
G75*
G02*
X6186800Y-8178800I40000J0D01*
G01*
X6186800Y-8940800D02*
G75*
G02*
X6106800Y-8940800I-40000J0D01*
G01*
X6106800Y-8940800D02*
G75*
G02*
X6186800Y-8940800I40000J0D01*
G01*
X6440800Y-8178800D02*
G75*
G02*
X6360800Y-8178800I-40000J0D01*
G01*
X6360800Y-8178800D02*
G75*
G02*
X6440800Y-8178800I40000J0D01*
G01*
X6440800Y-8940800D02*
G75*
G02*
X6360800Y-8940800I-40000J0D01*
G01*
X6360800Y-8940800D02*
G75*
G02*
X6440800Y-8940800I40000J0D01*
G01*
X3352800Y-8588500D02*
X3352800Y-8683500D01*
X3305300Y-8636000D02*
X3400300Y-8636000D01*
X3360800Y-3508500D02*
X3360800Y-3603500D01*
X3313300Y-3556000D02*
X3408300Y-3556000D01*
X3360800Y-4372100D02*
X3360800Y-4467100D01*
X3313300Y-4419600D02*
X3408300Y-4419600D01*
X3360800Y-5161200D02*
X3360800Y-5256200D01*
X3313300Y-5208700D02*
X3408300Y-5208700D01*
X3360800Y-5972300D02*
X3360800Y-6067300D01*
X3313300Y-6019800D02*
X3408300Y-6019800D01*
X3360800Y-6835900D02*
X3360800Y-6930900D01*
X3313300Y-6883400D02*
X3408300Y-6883400D01*
X3360800Y-7674100D02*
X3360800Y-7769100D01*
X3313300Y-7721600D02*
X3408300Y-7721600D01*
X3602800Y-8588500D02*
X3602800Y-8683500D01*
X3555300Y-8636000D02*
X3650300Y-8636000D01*
X3610800Y-3508500D02*
X3610800Y-3603500D01*
X3563300Y-3556000D02*
X3658300Y-3556000D01*
X3610800Y-4372100D02*
X3610800Y-4467100D01*
X3563300Y-4419600D02*
X3658300Y-4419600D01*
X3610800Y-5161200D02*
X3610800Y-5256200D01*
X3563300Y-5208700D02*
X3658300Y-5208700D01*
X3610800Y-5972300D02*
X3610800Y-6067300D01*
X3563300Y-6019800D02*
X3658300Y-6019800D01*
X3610800Y-6835900D02*
X3610800Y-6930900D01*
X3563300Y-6883400D02*
X3658300Y-6883400D01*
X3610800Y-7674100D02*
X3610800Y-7769100D01*
X3563300Y-7721600D02*
X3658300Y-7721600D01*
X3852800Y-8588500D02*
X3852800Y-8683500D01*
X3805300Y-8636000D02*
X3900300Y-8636000D01*
X3860800Y-3508500D02*
X3860800Y-3603500D01*
X3813300Y-3556000D02*
X3908300Y-3556000D01*
X3860800Y-4372100D02*
X3860800Y-4467100D01*
X3813300Y-4419600D02*
X3908300Y-4419600D01*
X3860800Y-5161200D02*
X3860800Y-5256200D01*
X3813300Y-5208700D02*
X3908300Y-5208700D01*
X3860800Y-5972300D02*
X3860800Y-6067300D01*
X3813300Y-6019800D02*
X3908300Y-6019800D01*
X3860800Y-6835900D02*
X3860800Y-6930900D01*
X3813300Y-6883400D02*
X3908300Y-6883400D01*
X3860800Y-7674100D02*
X3860800Y-7769100D01*
X3813300Y-7721600D02*
X3908300Y-7721600D01*
X4677600Y-3457700D02*
X4677600Y-3552700D01*
X4630100Y-3505200D02*
X4725100Y-3505200D01*
X4677600Y-4182700D02*
X4677600Y-4277700D01*
X4630100Y-4230200D02*
X4725100Y-4230200D01*
X4927600Y-3457700D02*
X4927600Y-3552700D01*
X4880100Y-3505200D02*
X4975100Y-3505200D01*
X4927600Y-4182700D02*
X4927600Y-4277700D01*
X4880100Y-4230200D02*
X4975100Y-4230200D01*
X5177600Y-3457700D02*
X5177600Y-3552700D01*
X5130100Y-3505200D02*
X5225100Y-3505200D01*
X5177600Y-4182700D02*
X5177600Y-4277700D01*
X5130100Y-4230200D02*
X5225100Y-4230200D01*
X5427600Y-3457700D02*
X5427600Y-3552700D01*
X5380100Y-3505200D02*
X5475100Y-3505200D01*
X5427600Y-4182700D02*
X5427600Y-4277700D01*
X5380100Y-4230200D02*
X5475100Y-4230200D01*
X6096000Y-3445000D02*
X6096000Y-3540000D01*
X6048500Y-3492500D02*
X6143500Y-3492500D01*
X6096000Y-4172500D02*
X6096000Y-4267500D01*
X6048500Y-4220000D02*
X6143500Y-4220000D01*
X6346000Y-3445000D02*
X6346000Y-3540000D01*
X6298500Y-3492500D02*
X6393500Y-3492500D01*
X6346000Y-4172500D02*
X6346000Y-4267500D01*
X6298500Y-4220000D02*
X6393500Y-4220000D01*
X6596000Y-3445000D02*
X6596000Y-3540000D01*
X6548500Y-3492500D02*
X6643500Y-3492500D01*
X6596000Y-4172500D02*
X6596000Y-4267500D01*
X6548500Y-4220000D02*
X6643500Y-4220000D01*
X6846000Y-3445000D02*
X6846000Y-3540000D01*
X6798500Y-3492500D02*
X6893500Y-3492500D01*
X6846000Y-4172500D02*
X6846000Y-4267500D01*
X6798500Y-4220000D02*
X6893500Y-4220000D01*
X2168956Y-6436156D02*
X2168956Y-6365444D01*
X2098244Y-6365444D01*
X2098244Y-6436156D01*
X2168956Y-6436156D01*
X2171456Y-6936156D02*
X2171456Y-6865444D01*
X2100744Y-6865444D01*
X2100744Y-6936156D01*
X2171456Y-6936156D01*
X2172676Y-7431136D02*
X2172676Y-7360424D01*
X2101964Y-7360424D01*
X2101964Y-7431136D01*
X2172676Y-7431136D01*
X2172956Y-7926436D02*
X2172956Y-7855724D01*
X2102244Y-7855724D01*
X2102244Y-7926436D01*
X2172956Y-7926436D01*
X2287156Y-2601456D02*
X2287156Y-2530744D01*
X2216444Y-2530744D01*
X2216444Y-2601456D01*
X2287156Y-2601456D01*
X2287156Y-2855456D02*
X2287156Y-2784744D01*
X2216444Y-2784744D01*
X2216444Y-2855456D01*
X2287156Y-2855456D01*
X2287156Y-3109456D02*
X2287156Y-3038744D01*
X2216444Y-3038744D01*
X2216444Y-3109456D01*
X2287156Y-3109456D01*
X2287156Y-3363456D02*
X2287156Y-3292744D01*
X2216444Y-3292744D01*
X2216444Y-3363456D01*
X2287156Y-3363456D01*
X2287156Y-3617456D02*
X2287156Y-3546744D01*
X2216444Y-3546744D01*
X2216444Y-3617456D01*
X2287156Y-3617456D01*
X2287156Y-3871456D02*
X2287156Y-3800744D01*
X2216444Y-3800744D01*
X2216444Y-3871456D01*
X2287156Y-3871456D01*
X2287156Y-4125456D02*
X2287156Y-4054744D01*
X2216444Y-4054744D01*
X2216444Y-4125456D01*
X2287156Y-4125456D01*
X2287156Y-4379456D02*
X2287156Y-4308744D01*
X2216444Y-4308744D01*
X2216444Y-4379456D01*
X2287156Y-4379456D01*
X2287156Y-4633456D02*
X2287156Y-4562744D01*
X2216444Y-4562744D01*
X2216444Y-4633456D01*
X2287156Y-4633456D01*
X2287156Y-4887456D02*
X2287156Y-4816744D01*
X2216444Y-4816744D01*
X2216444Y-4887456D01*
X2287156Y-4887456D01*
X2287156Y-5141456D02*
X2287156Y-5070744D01*
X2216444Y-5070744D01*
X2216444Y-5141456D01*
X2287156Y-5141456D01*
X2422956Y-6436156D02*
X2422956Y-6365444D01*
X2352244Y-6365444D01*
X2352244Y-6436156D01*
X2422956Y-6436156D01*
X2425456Y-6936156D02*
X2425456Y-6865444D01*
X2354744Y-6865444D01*
X2354744Y-6936156D01*
X2425456Y-6936156D01*
X2426676Y-7431136D02*
X2426676Y-7360424D01*
X2355964Y-7360424D01*
X2355964Y-7431136D01*
X2426676Y-7431136D01*
X2426956Y-7926436D02*
X2426956Y-7855724D01*
X2356244Y-7855724D01*
X2356244Y-7926436D01*
X2426956Y-7926436D01*
X2676956Y-9749156D02*
X2676956Y-9678444D01*
X2606244Y-9678444D01*
X2606244Y-9749156D01*
X2676956Y-9749156D01*
X2930956Y-9749156D02*
X2930956Y-9678444D01*
X2860244Y-9678444D01*
X2860244Y-9749156D01*
X2930956Y-9749156D01*
X3184956Y-9749156D02*
X3184956Y-9678444D01*
X3114244Y-9678444D01*
X3114244Y-9749156D01*
X3184956Y-9749156D01*
X3438956Y-9749156D02*
X3438956Y-9678444D01*
X3368244Y-9678444D01*
X3368244Y-9749156D01*
X3438956Y-9749156D01*
X3692956Y-9749156D02*
X3692956Y-9678444D01*
X3622244Y-9678444D01*
X3622244Y-9749156D01*
X3692956Y-9749156D01*
X3946956Y-9749156D02*
X3946956Y-9678444D01*
X3876244Y-9678444D01*
X3876244Y-9749156D01*
X3946956Y-9749156D01*
X4200956Y-9749156D02*
X4200956Y-9678444D01*
X4130244Y-9678444D01*
X4130244Y-9749156D01*
X4200956Y-9749156D01*
X4454956Y-9749156D02*
X4454956Y-9678444D01*
X4384244Y-9678444D01*
X4384244Y-9749156D01*
X4454956Y-9749156D01*
X4650216Y-5194616D02*
X4650216Y-5123904D01*
X4579504Y-5123904D01*
X4579504Y-5194616D01*
X4650216Y-5194616D01*
X4662156Y-5962576D02*
X4662156Y-5891864D01*
X4591444Y-5891864D01*
X4591444Y-5962576D01*
X4662156Y-5962576D01*
X4662156Y-6705216D02*
X4662156Y-6634504D01*
X4591444Y-6634504D01*
X4591444Y-6705216D01*
X4662156Y-6705216D01*
X4662156Y-7492616D02*
X4662156Y-7421904D01*
X4591444Y-7421904D01*
X4591444Y-7492616D01*
X4662156Y-7492616D01*
X4708956Y-9749156D02*
X4708956Y-9678444D01*
X4638244Y-9678444D01*
X4638244Y-9749156D01*
X4708956Y-9749156D01*
X4900216Y-5194616D02*
X4900216Y-5123904D01*
X4829504Y-5123904D01*
X4829504Y-5194616D01*
X4900216Y-5194616D01*
X4912156Y-5962576D02*
X4912156Y-5891864D01*
X4841444Y-5891864D01*
X4841444Y-5962576D01*
X4912156Y-5962576D01*
X4912156Y-6705216D02*
X4912156Y-6634504D01*
X4841444Y-6634504D01*
X4841444Y-6705216D01*
X4912156Y-6705216D01*
X4912156Y-7492616D02*
X4912156Y-7421904D01*
X4841444Y-7421904D01*
X4841444Y-7492616D01*
X4912156Y-7492616D01*
X4962956Y-9749156D02*
X4962956Y-9678444D01*
X4892244Y-9678444D01*
X4892244Y-9749156D01*
X4962956Y-9749156D01*
X5216956Y-9749156D02*
X5216956Y-9678444D01*
X5146244Y-9678444D01*
X5146244Y-9749156D01*
X5216956Y-9749156D01*
X5652346Y-5191966D02*
X5652346Y-5121254D01*
X5581634Y-5121254D01*
X5581634Y-5191966D01*
X5652346Y-5191966D01*
X5652756Y-7477556D02*
X5652756Y-7406844D01*
X5582044Y-7406844D01*
X5582044Y-7477556D01*
X5652756Y-7477556D01*
X5654736Y-6712746D02*
X5654736Y-6642034D01*
X5584024Y-6642034D01*
X5584024Y-6712746D01*
X5654736Y-6712746D01*
X5661086Y-5950946D02*
X5661086Y-5880234D01*
X5590374Y-5880234D01*
X5590374Y-5950946D01*
X5661086Y-5950946D01*
X5902346Y-5191966D02*
X5902346Y-5121254D01*
X5831634Y-5121254D01*
X5831634Y-5191966D01*
X5902346Y-5191966D01*
X5902756Y-7477556D02*
X5902756Y-7406844D01*
X5832044Y-7406844D01*
X5832044Y-7477556D01*
X5902756Y-7477556D01*
X5904736Y-6712746D02*
X5904736Y-6642034D01*
X5834024Y-6642034D01*
X5834024Y-6712746D01*
X5904736Y-6712746D01*
X5911086Y-5950946D02*
X5911086Y-5880234D01*
X5840374Y-5880234D01*
X5840374Y-5950946D01*
X5911086Y-5950946D01*
X6694756Y-5189856D02*
X6694756Y-5119144D01*
X6624044Y-5119144D01*
X6624044Y-5189856D01*
X6694756Y-5189856D01*
X6696756Y-5953556D02*
X6696756Y-5882844D01*
X6626044Y-5882844D01*
X6626044Y-5953556D01*
X6696756Y-5953556D01*
X6696756Y-7502956D02*
X6696756Y-7432244D01*
X6626044Y-7432244D01*
X6626044Y-7502956D01*
X6696756Y-7502956D01*
X6698576Y-6723266D02*
X6698576Y-6652554D01*
X6627864Y-6652554D01*
X6627864Y-6723266D01*
X6698576Y-6723266D01*
X6944756Y-5189856D02*
X6944756Y-5119144D01*
X6874044Y-5119144D01*
X6874044Y-5189856D01*
X6944756Y-5189856D01*
X6946756Y-5953556D02*
X6946756Y-5882844D01*
X6876044Y-5882844D01*
X6876044Y-5953556D01*
X6946756Y-5953556D01*
X6946756Y-7502956D02*
X6946756Y-7432244D01*
X6876044Y-7432244D01*
X6876044Y-7502956D01*
X6946756Y-7502956D01*
X6948576Y-6723266D02*
X6948576Y-6652554D01*
X6877864Y-6652554D01*
X6877864Y-6723266D01*
X6948576Y-6723266D01*
X7516556Y-2300656D02*
X7516556Y-2229944D01*
X7445844Y-2229944D01*
X7445844Y-2300656D01*
X7516556Y-2300656D01*
X7648936Y-4226976D02*
X7648936Y-4156264D01*
X7578224Y-4156264D01*
X7578224Y-4226976D01*
X7648936Y-4226976D01*
X7648936Y-4480976D02*
X7648936Y-4410264D01*
X7578224Y-4410264D01*
X7578224Y-4480976D01*
X7648936Y-4480976D01*
X7648936Y-4734976D02*
X7648936Y-4664264D01*
X7578224Y-4664264D01*
X7578224Y-4734976D01*
X7648936Y-4734976D01*
X7648936Y-4988976D02*
X7648936Y-4918264D01*
X7578224Y-4918264D01*
X7578224Y-4988976D01*
X7648936Y-4988976D01*
X7648936Y-5242976D02*
X7648936Y-5172264D01*
X7578224Y-5172264D01*
X7578224Y-5242976D01*
X7648936Y-5242976D01*
X7648936Y-5496976D02*
X7648936Y-5426264D01*
X7578224Y-5426264D01*
X7578224Y-5496976D01*
X7648936Y-5496976D01*
X7648936Y-5750976D02*
X7648936Y-5680264D01*
X7578224Y-5680264D01*
X7578224Y-5750976D01*
X7648936Y-5750976D01*
X7648936Y-6004976D02*
X7648936Y-5934264D01*
X7578224Y-5934264D01*
X7578224Y-6004976D01*
X7648936Y-6004976D01*
X7648936Y-6258976D02*
X7648936Y-6188264D01*
X7578224Y-6188264D01*
X7578224Y-6258976D01*
X7648936Y-6258976D01*
X7648936Y-6512976D02*
X7648936Y-6442264D01*
X7578224Y-6442264D01*
X7578224Y-6512976D01*
X7648936Y-6512976D01*
X7648936Y-6766976D02*
X7648936Y-6696264D01*
X7578224Y-6696264D01*
X7578224Y-6766976D01*
X7648936Y-6766976D01*
X7648936Y-7020976D02*
X7648936Y-6950264D01*
X7578224Y-6950264D01*
X7578224Y-7020976D01*
X7648936Y-7020976D01*
X7648936Y-7274976D02*
X7648936Y-7204264D01*
X7578224Y-7204264D01*
X7578224Y-7274976D01*
X7648936Y-7274976D01*
X7648936Y-7528976D02*
X7648936Y-7458264D01*
X7578224Y-7458264D01*
X7578224Y-7528976D01*
X7648936Y-7528976D01*
X7648936Y-7782976D02*
X7648936Y-7712264D01*
X7578224Y-7712264D01*
X7578224Y-7782976D01*
X7648936Y-7782976D01*
X7648936Y-8036976D02*
X7648936Y-7966264D01*
X7578224Y-7966264D01*
X7578224Y-8036976D01*
X7648936Y-8036976D01*
X7648936Y-8290976D02*
X7648936Y-8220264D01*
X7578224Y-8220264D01*
X7578224Y-8290976D01*
X7648936Y-8290976D01*
X7648936Y-8544976D02*
X7648936Y-8474264D01*
X7578224Y-8474264D01*
X7578224Y-8544976D01*
X7648936Y-8544976D01*
X7648936Y-8798976D02*
X7648936Y-8728264D01*
X7578224Y-8728264D01*
X7578224Y-8798976D01*
X7648936Y-8798976D01*
X7770556Y-2300656D02*
X7770556Y-2229944D01*
X7699844Y-2229944D01*
X7699844Y-2300656D01*
X7770556Y-2300656D01*
X8010956Y-4226356D02*
X8010956Y-4155644D01*
X7940244Y-4155644D01*
X7940244Y-4226356D01*
X8010956Y-4226356D01*
X8010956Y-4480356D02*
X8010956Y-4409644D01*
X7940244Y-4409644D01*
X7940244Y-4480356D01*
X8010956Y-4480356D01*
X8010956Y-4734356D02*
X8010956Y-4663644D01*
X7940244Y-4663644D01*
X7940244Y-4734356D01*
X8010956Y-4734356D01*
X8010956Y-4988356D02*
X8010956Y-4917644D01*
X7940244Y-4917644D01*
X7940244Y-4988356D01*
X8010956Y-4988356D01*
X8010956Y-5242356D02*
X8010956Y-5171644D01*
X7940244Y-5171644D01*
X7940244Y-5242356D01*
X8010956Y-5242356D01*
X8010956Y-5496356D02*
X8010956Y-5425644D01*
X7940244Y-5425644D01*
X7940244Y-5496356D01*
X8010956Y-5496356D01*
X8010956Y-5750356D02*
X8010956Y-5679644D01*
X7940244Y-5679644D01*
X7940244Y-5750356D01*
X8010956Y-5750356D01*
X8010956Y-6004356D02*
X8010956Y-5933644D01*
X7940244Y-5933644D01*
X7940244Y-6004356D01*
X8010956Y-6004356D01*
X8010956Y-6258356D02*
X8010956Y-6187644D01*
X7940244Y-6187644D01*
X7940244Y-6258356D01*
X8010956Y-6258356D01*
X8010956Y-6512356D02*
X8010956Y-6441644D01*
X7940244Y-6441644D01*
X7940244Y-6512356D01*
X8010956Y-6512356D01*
X8010956Y-6766356D02*
X8010956Y-6695644D01*
X7940244Y-6695644D01*
X7940244Y-6766356D01*
X8010956Y-6766356D01*
X8010956Y-7020356D02*
X8010956Y-6949644D01*
X7940244Y-6949644D01*
X7940244Y-7020356D01*
X8010956Y-7020356D01*
X8010956Y-7274356D02*
X8010956Y-7203644D01*
X7940244Y-7203644D01*
X7940244Y-7274356D01*
X8010956Y-7274356D01*
X8010956Y-7528356D02*
X8010956Y-7457644D01*
X7940244Y-7457644D01*
X7940244Y-7528356D01*
X8010956Y-7528356D01*
X8010956Y-7782356D02*
X8010956Y-7711644D01*
X7940244Y-7711644D01*
X7940244Y-7782356D01*
X8010956Y-7782356D01*
X8010956Y-8036356D02*
X8010956Y-7965644D01*
X7940244Y-7965644D01*
X7940244Y-8036356D01*
X8010956Y-8036356D01*
X8010956Y-8290356D02*
X8010956Y-8219644D01*
X7940244Y-8219644D01*
X7940244Y-8290356D01*
X8010956Y-8290356D01*
X8010956Y-8544356D02*
X8010956Y-8473644D01*
X7940244Y-8473644D01*
X7940244Y-8544356D01*
X8010956Y-8544356D01*
X8010956Y-8798356D02*
X8010956Y-8727644D01*
X7940244Y-8727644D01*
X7940244Y-8798356D01*
X8010956Y-8798356D01*
X8024556Y-2300656D02*
X8024556Y-2229944D01*
X7953844Y-2229944D01*
X7953844Y-2300656D01*
X8024556Y-2300656D01*
X8278556Y-2300656D02*
X8278556Y-2229944D01*
X8207844Y-2229944D01*
X8207844Y-2300656D01*
X8278556Y-2300656D01*
X8532556Y-2300656D02*
X8532556Y-2229944D01*
X8461844Y-2229944D01*
X8461844Y-2300656D01*
X8532556Y-2300656D01*
X8786556Y-2300656D02*
X8786556Y-2229944D01*
X8715844Y-2229944D01*
X8715844Y-2300656D01*
X8786556Y-2300656D01*
X9040556Y-2300656D02*
X9040556Y-2229944D01*
X8969844Y-2229944D01*
X8969844Y-2300656D01*
X9040556Y-2300656D01*
X9294556Y-2300656D02*
X9294556Y-2229944D01*
X9223844Y-2229944D01*
X9223844Y-2300656D01*
X9294556Y-2300656D01*
X9548556Y-2300656D02*
X9548556Y-2229944D01*
X9477844Y-2229944D01*
X9477844Y-2300656D01*
X9548556Y-2300656D01*
X9802556Y-2300656D02*
X9802556Y-2229944D01*
X9731844Y-2229944D01*
X9731844Y-2300656D01*
X9802556Y-2300656D01*
X10056556Y-2300656D02*
X10056556Y-2229944D01*
X9985844Y-2229944D01*
X9985844Y-2300656D01*
X10056556Y-2300656D01*
X10552256Y-4226356D02*
X10552256Y-4155644D01*
X10481544Y-4155644D01*
X10481544Y-4226356D01*
X10552256Y-4226356D01*
X10552256Y-4480356D02*
X10552256Y-4409644D01*
X10481544Y-4409644D01*
X10481544Y-4480356D01*
X10552256Y-4480356D01*
X10552256Y-4734356D02*
X10552256Y-4663644D01*
X10481544Y-4663644D01*
X10481544Y-4734356D01*
X10552256Y-4734356D01*
X10552256Y-4988356D02*
X10552256Y-4917644D01*
X10481544Y-4917644D01*
X10481544Y-4988356D01*
X10552256Y-4988356D01*
X10552256Y-5242356D02*
X10552256Y-5171644D01*
X10481544Y-5171644D01*
X10481544Y-5242356D01*
X10552256Y-5242356D01*
X10552256Y-5496356D02*
X10552256Y-5425644D01*
X10481544Y-5425644D01*
X10481544Y-5496356D01*
X10552256Y-5496356D01*
X10552256Y-5750356D02*
X10552256Y-5679644D01*
X10481544Y-5679644D01*
X10481544Y-5750356D01*
X10552256Y-5750356D01*
X10552256Y-6004356D02*
X10552256Y-5933644D01*
X10481544Y-5933644D01*
X10481544Y-6004356D01*
X10552256Y-6004356D01*
X10552256Y-6258356D02*
X10552256Y-6187644D01*
X10481544Y-6187644D01*
X10481544Y-6258356D01*
X10552256Y-6258356D01*
X10552256Y-6512356D02*
X10552256Y-6441644D01*
X10481544Y-6441644D01*
X10481544Y-6512356D01*
X10552256Y-6512356D01*
X10552256Y-6766356D02*
X10552256Y-6695644D01*
X10481544Y-6695644D01*
X10481544Y-6766356D01*
X10552256Y-6766356D01*
X10552256Y-7020356D02*
X10552256Y-6949644D01*
X10481544Y-6949644D01*
X10481544Y-7020356D01*
X10552256Y-7020356D01*
X10552256Y-7274356D02*
X10552256Y-7203644D01*
X10481544Y-7203644D01*
X10481544Y-7274356D01*
X10552256Y-7274356D01*
X10552256Y-7528356D02*
X10552256Y-7457644D01*
X10481544Y-7457644D01*
X10481544Y-7528356D01*
X10552256Y-7528356D01*
X10552256Y-7782356D02*
X10552256Y-7711644D01*
X10481544Y-7711644D01*
X10481544Y-7782356D01*
X10552256Y-7782356D01*
X10552256Y-8036356D02*
X10552256Y-7965644D01*
X10481544Y-7965644D01*
X10481544Y-8036356D01*
X10552256Y-8036356D01*
X10552256Y-8290356D02*
X10552256Y-8219644D01*
X10481544Y-8219644D01*
X10481544Y-8290356D01*
X10552256Y-8290356D01*
X10552256Y-8544356D02*
X10552256Y-8473644D01*
X10481544Y-8473644D01*
X10481544Y-8544356D01*
X10552256Y-8544356D01*
X10552256Y-8798356D02*
X10552256Y-8727644D01*
X10481544Y-8727644D01*
X10481544Y-8798356D01*
X10552256Y-8798356D01*
X10915376Y-4226976D02*
X10915376Y-4156264D01*
X10844664Y-4156264D01*
X10844664Y-4226976D01*
X10915376Y-4226976D01*
X10915376Y-4480976D02*
X10915376Y-4410264D01*
X10844664Y-4410264D01*
X10844664Y-4480976D01*
X10915376Y-4480976D01*
X10915376Y-4734976D02*
X10915376Y-4664264D01*
X10844664Y-4664264D01*
X10844664Y-4734976D01*
X10915376Y-4734976D01*
X10915376Y-4988976D02*
X10915376Y-4918264D01*
X10844664Y-4918264D01*
X10844664Y-4988976D01*
X10915376Y-4988976D01*
X10915376Y-5242976D02*
X10915376Y-5172264D01*
X10844664Y-5172264D01*
X10844664Y-5242976D01*
X10915376Y-5242976D01*
X10915376Y-5496976D02*
X10915376Y-5426264D01*
X10844664Y-5426264D01*
X10844664Y-5496976D01*
X10915376Y-5496976D01*
X10915376Y-5750976D02*
X10915376Y-5680264D01*
X10844664Y-5680264D01*
X10844664Y-5750976D01*
X10915376Y-5750976D01*
X10915376Y-6004976D02*
X10915376Y-5934264D01*
X10844664Y-5934264D01*
X10844664Y-6004976D01*
X10915376Y-6004976D01*
X10915376Y-6258976D02*
X10915376Y-6188264D01*
X10844664Y-6188264D01*
X10844664Y-6258976D01*
X10915376Y-6258976D01*
X10915376Y-6512976D02*
X10915376Y-6442264D01*
X10844664Y-6442264D01*
X10844664Y-6512976D01*
X10915376Y-6512976D01*
X10915376Y-6766976D02*
X10915376Y-6696264D01*
X10844664Y-6696264D01*
X10844664Y-6766976D01*
X10915376Y-6766976D01*
X10915376Y-7020976D02*
X10915376Y-6950264D01*
X10844664Y-6950264D01*
X10844664Y-7020976D01*
X10915376Y-7020976D01*
X10915376Y-7274976D02*
X10915376Y-7204264D01*
X10844664Y-7204264D01*
X10844664Y-7274976D01*
X10915376Y-7274976D01*
X10915376Y-7528976D02*
X10915376Y-7458264D01*
X10844664Y-7458264D01*
X10844664Y-7528976D01*
X10915376Y-7528976D01*
X10915376Y-7782976D02*
X10915376Y-7712264D01*
X10844664Y-7712264D01*
X10844664Y-7782976D01*
X10915376Y-7782976D01*
X10915376Y-8036976D02*
X10915376Y-7966264D01*
X10844664Y-7966264D01*
X10844664Y-8036976D01*
X10915376Y-8036976D01*
X10915376Y-8290976D02*
X10915376Y-8220264D01*
X10844664Y-8220264D01*
X10844664Y-8290976D01*
X10915376Y-8290976D01*
X10915376Y-8544976D02*
X10915376Y-8474264D01*
X10844664Y-8474264D01*
X10844664Y-8544976D01*
X10915376Y-8544976D01*
X10915376Y-8798976D02*
X10915376Y-8728264D01*
X10844664Y-8728264D01*
X10844664Y-8798976D01*
X10915376Y-8798976D01*
D13*
X3450000Y-2767500D02*
X3677500Y-2540000D01*
X3450000Y-2312500D01*
X3222500Y-2540000D01*
X3450000Y-2767500D01*
X4170000Y-2767500D02*
X4397500Y-2540000D01*
X4170000Y-2312500D01*
X3942500Y-2540000D01*
X4170000Y-2767500D01*
X5291500Y-2767500D02*
X5519000Y-2540000D01*
X5291500Y-2312500D01*
X5064000Y-2540000D01*
X5291500Y-2767500D01*
X6011500Y-2767500D02*
X6239000Y-2540000D01*
X6011500Y-2312500D01*
X5784000Y-2540000D01*
X6011500Y-2767500D01*
D11*
X2163170Y-10346994D02*
X2163170Y-10146994D01*
X2163170Y-10146994D02*
X2210789Y-10146994D01*
X2210789Y-10146994D02*
X2239360Y-10156518D01*
X2239360Y-10156518D02*
X2258408Y-10175565D01*
X2258408Y-10175565D02*
X2267932Y-10194613D01*
X2267932Y-10194613D02*
X2277455Y-10232708D01*
X2277455Y-10232708D02*
X2277455Y-10261279D01*
X2277455Y-10261279D02*
X2267932Y-10299375D01*
X2267932Y-10299375D02*
X2258408Y-10318422D01*
X2258408Y-10318422D02*
X2239360Y-10337470D01*
X2239360Y-10337470D02*
X2210789Y-10346994D01*
X2210789Y-10346994D02*
X2163170Y-10346994D01*
X2363170Y-10346994D02*
X2363170Y-10213660D01*
X2363170Y-10251756D02*
X2372694Y-10232708D01*
X2372694Y-10232708D02*
X2382217Y-10223184D01*
X2382217Y-10223184D02*
X2401265Y-10213660D01*
X2401265Y-10213660D02*
X2420313Y-10213660D01*
X2486979Y-10346994D02*
X2486979Y-10213660D01*
X2486979Y-10146994D02*
X2477455Y-10156518D01*
X2477455Y-10156518D02*
X2486979Y-10166041D01*
X2486979Y-10166041D02*
X2496503Y-10156518D01*
X2496503Y-10156518D02*
X2486979Y-10146994D01*
X2486979Y-10146994D02*
X2486979Y-10166041D01*
X2610789Y-10346994D02*
X2591741Y-10337470D01*
X2591741Y-10337470D02*
X2582217Y-10318422D01*
X2582217Y-10318422D02*
X2582217Y-10146994D01*
X2715551Y-10346994D02*
X2696503Y-10337470D01*
X2696503Y-10337470D02*
X2686979Y-10318422D01*
X2686979Y-10318422D02*
X2686979Y-10146994D01*
X2944122Y-10346994D02*
X2944122Y-10146994D01*
X2944122Y-10146994D02*
X3010789Y-10289851D01*
X3010789Y-10289851D02*
X3077455Y-10146994D01*
X3077455Y-10146994D02*
X3077455Y-10346994D01*
X3258408Y-10346994D02*
X3258408Y-10242232D01*
X3258408Y-10242232D02*
X3248884Y-10223184D01*
X3248884Y-10223184D02*
X3229836Y-10213660D01*
X3229836Y-10213660D02*
X3191741Y-10213660D01*
X3191741Y-10213660D02*
X3172693Y-10223184D01*
X3258408Y-10337470D02*
X3239360Y-10346994D01*
X3239360Y-10346994D02*
X3191741Y-10346994D01*
X3191741Y-10346994D02*
X3172693Y-10337470D01*
X3172693Y-10337470D02*
X3163170Y-10318422D01*
X3163170Y-10318422D02*
X3163170Y-10299375D01*
X3163170Y-10299375D02*
X3172693Y-10280327D01*
X3172693Y-10280327D02*
X3191741Y-10270803D01*
X3191741Y-10270803D02*
X3239360Y-10270803D01*
X3239360Y-10270803D02*
X3258408Y-10261279D01*
X3353646Y-10213660D02*
X3353646Y-10413660D01*
X3353646Y-10223184D02*
X3372693Y-10213660D01*
X3372693Y-10213660D02*
X3410789Y-10213660D01*
X3410789Y-10213660D02*
X3429836Y-10223184D01*
X3429836Y-10223184D02*
X3439360Y-10232708D01*
X3439360Y-10232708D02*
X3448884Y-10251756D01*
X3448884Y-10251756D02*
X3448884Y-10308898D01*
X3448884Y-10308898D02*
X3439360Y-10327946D01*
X3439360Y-10327946D02*
X3429836Y-10337470D01*
X3429836Y-10337470D02*
X3410789Y-10346994D01*
X3410789Y-10346994D02*
X3372693Y-10346994D01*
X3372693Y-10346994D02*
X3353646Y-10337470D01*
X3534598Y-10327946D02*
X3544122Y-10337470D01*
X3544122Y-10337470D02*
X3534598Y-10346994D01*
X3534598Y-10346994D02*
X3525074Y-10337470D01*
X3525074Y-10337470D02*
X3534598Y-10327946D01*
X3534598Y-10327946D02*
X3534598Y-10346994D01*
X3534598Y-10223184D02*
X3544122Y-10232708D01*
X3544122Y-10232708D02*
X3534598Y-10242232D01*
X3534598Y-10242232D02*
X3525074Y-10232708D01*
X3525074Y-10232708D02*
X3534598Y-10223184D01*
X3534598Y-10223184D02*
X3534598Y-10242232D01*
D12*
X1872393Y-10660510D02*
X1902393Y-10690510D01*
X1902393Y-10660510D02*
X1872393Y-10690510D01*
D11*
X2201265Y-10566994D02*
X2220313Y-10566994D01*
X2220313Y-10566994D02*
X2239360Y-10576518D01*
X2239360Y-10576518D02*
X2248884Y-10586041D01*
X2248884Y-10586041D02*
X2258408Y-10605089D01*
X2258408Y-10605089D02*
X2267932Y-10643184D01*
X2267932Y-10643184D02*
X2267932Y-10690803D01*
X2267932Y-10690803D02*
X2258408Y-10728898D01*
X2258408Y-10728898D02*
X2248884Y-10747946D01*
X2248884Y-10747946D02*
X2239360Y-10757470D01*
X2239360Y-10757470D02*
X2220313Y-10766994D01*
X2220313Y-10766994D02*
X2201265Y-10766994D01*
X2201265Y-10766994D02*
X2182217Y-10757470D01*
X2182217Y-10757470D02*
X2172694Y-10747946D01*
X2172694Y-10747946D02*
X2163170Y-10728898D01*
X2163170Y-10728898D02*
X2153646Y-10690803D01*
X2153646Y-10690803D02*
X2153646Y-10643184D01*
X2153646Y-10643184D02*
X2163170Y-10605089D01*
X2163170Y-10605089D02*
X2172694Y-10586041D01*
X2172694Y-10586041D02*
X2182217Y-10576518D01*
X2182217Y-10576518D02*
X2201265Y-10566994D01*
X2353646Y-10747946D02*
X2363170Y-10757470D01*
X2363170Y-10757470D02*
X2353646Y-10766994D01*
X2353646Y-10766994D02*
X2344122Y-10757470D01*
X2344122Y-10757470D02*
X2353646Y-10747946D01*
X2353646Y-10747946D02*
X2353646Y-10766994D01*
X2429836Y-10566994D02*
X2553646Y-10566994D01*
X2553646Y-10566994D02*
X2486979Y-10643184D01*
X2486979Y-10643184D02*
X2515551Y-10643184D01*
X2515551Y-10643184D02*
X2534598Y-10652708D01*
X2534598Y-10652708D02*
X2544122Y-10662232D01*
X2544122Y-10662232D02*
X2553646Y-10681279D01*
X2553646Y-10681279D02*
X2553646Y-10728898D01*
X2553646Y-10728898D02*
X2544122Y-10747946D01*
X2544122Y-10747946D02*
X2534598Y-10757470D01*
X2534598Y-10757470D02*
X2515551Y-10766994D01*
X2515551Y-10766994D02*
X2458408Y-10766994D01*
X2458408Y-10766994D02*
X2439360Y-10757470D01*
X2439360Y-10757470D02*
X2429836Y-10747946D01*
X2677455Y-10566994D02*
X2696503Y-10566994D01*
X2696503Y-10566994D02*
X2715551Y-10576518D01*
X2715551Y-10576518D02*
X2725075Y-10586041D01*
X2725075Y-10586041D02*
X2734598Y-10605089D01*
X2734598Y-10605089D02*
X2744122Y-10643184D01*
X2744122Y-10643184D02*
X2744122Y-10690803D01*
X2744122Y-10690803D02*
X2734598Y-10728898D01*
X2734598Y-10728898D02*
X2725075Y-10747946D01*
X2725075Y-10747946D02*
X2715551Y-10757470D01*
X2715551Y-10757470D02*
X2696503Y-10766994D01*
X2696503Y-10766994D02*
X2677455Y-10766994D01*
X2677455Y-10766994D02*
X2658408Y-10757470D01*
X2658408Y-10757470D02*
X2648884Y-10747946D01*
X2648884Y-10747946D02*
X2639360Y-10728898D01*
X2639360Y-10728898D02*
X2629836Y-10690803D01*
X2629836Y-10690803D02*
X2629836Y-10643184D01*
X2629836Y-10643184D02*
X2639360Y-10605089D01*
X2639360Y-10605089D02*
X2648884Y-10586041D01*
X2648884Y-10586041D02*
X2658408Y-10576518D01*
X2658408Y-10576518D02*
X2677455Y-10566994D01*
X2867932Y-10566994D02*
X2886979Y-10566994D01*
X2886979Y-10566994D02*
X2906027Y-10576518D01*
X2906027Y-10576518D02*
X2915551Y-10586041D01*
X2915551Y-10586041D02*
X2925074Y-10605089D01*
X2925074Y-10605089D02*
X2934598Y-10643184D01*
X2934598Y-10643184D02*
X2934598Y-10690803D01*
X2934598Y-10690803D02*
X2925074Y-10728898D01*
X2925074Y-10728898D02*
X2915551Y-10747946D01*
X2915551Y-10747946D02*
X2906027Y-10757470D01*
X2906027Y-10757470D02*
X2886979Y-10766994D01*
X2886979Y-10766994D02*
X2867932Y-10766994D01*
X2867932Y-10766994D02*
X2848884Y-10757470D01*
X2848884Y-10757470D02*
X2839360Y-10747946D01*
X2839360Y-10747946D02*
X2829836Y-10728898D01*
X2829836Y-10728898D02*
X2820313Y-10690803D01*
X2820313Y-10690803D02*
X2820313Y-10643184D01*
X2820313Y-10643184D02*
X2829836Y-10605089D01*
X2829836Y-10605089D02*
X2839360Y-10586041D01*
X2839360Y-10586041D02*
X2848884Y-10576518D01*
X2848884Y-10576518D02*
X2867932Y-10566994D01*
X3020313Y-10766994D02*
X3020313Y-10633660D01*
X3020313Y-10652708D02*
X3029836Y-10643184D01*
X3029836Y-10643184D02*
X3048884Y-10633660D01*
X3048884Y-10633660D02*
X3077455Y-10633660D01*
X3077455Y-10633660D02*
X3096503Y-10643184D01*
X3096503Y-10643184D02*
X3106027Y-10662232D01*
X3106027Y-10662232D02*
X3106027Y-10766994D01*
X3106027Y-10662232D02*
X3115551Y-10643184D01*
X3115551Y-10643184D02*
X3134598Y-10633660D01*
X3134598Y-10633660D02*
X3163170Y-10633660D01*
X3163170Y-10633660D02*
X3182217Y-10643184D01*
X3182217Y-10643184D02*
X3191741Y-10662232D01*
X3191741Y-10662232D02*
X3191741Y-10766994D01*
X3286979Y-10766994D02*
X3286979Y-10633660D01*
X3286979Y-10652708D02*
X3296503Y-10643184D01*
X3296503Y-10643184D02*
X3315551Y-10633660D01*
X3315551Y-10633660D02*
X3344122Y-10633660D01*
X3344122Y-10633660D02*
X3363170Y-10643184D01*
X3363170Y-10643184D02*
X3372694Y-10662232D01*
X3372694Y-10662232D02*
X3372694Y-10766994D01*
X3372694Y-10662232D02*
X3382217Y-10643184D01*
X3382217Y-10643184D02*
X3401265Y-10633660D01*
X3401265Y-10633660D02*
X3429836Y-10633660D01*
X3429836Y-10633660D02*
X3448884Y-10643184D01*
X3448884Y-10643184D02*
X3458408Y-10662232D01*
X3458408Y-10662232D02*
X3458408Y-10766994D01*
X3848884Y-10557470D02*
X3677456Y-10814613D01*
X4106027Y-10566994D02*
X4125075Y-10566994D01*
X4125075Y-10566994D02*
X4144122Y-10576518D01*
X4144122Y-10576518D02*
X4153646Y-10586041D01*
X4153646Y-10586041D02*
X4163170Y-10605089D01*
X4163170Y-10605089D02*
X4172694Y-10643184D01*
X4172694Y-10643184D02*
X4172694Y-10690803D01*
X4172694Y-10690803D02*
X4163170Y-10728898D01*
X4163170Y-10728898D02*
X4153646Y-10747946D01*
X4153646Y-10747946D02*
X4144122Y-10757470D01*
X4144122Y-10757470D02*
X4125075Y-10766994D01*
X4125075Y-10766994D02*
X4106027Y-10766994D01*
X4106027Y-10766994D02*
X4086979Y-10757470D01*
X4086979Y-10757470D02*
X4077456Y-10747946D01*
X4077456Y-10747946D02*
X4067932Y-10728898D01*
X4067932Y-10728898D02*
X4058408Y-10690803D01*
X4058408Y-10690803D02*
X4058408Y-10643184D01*
X4058408Y-10643184D02*
X4067932Y-10605089D01*
X4067932Y-10605089D02*
X4077456Y-10586041D01*
X4077456Y-10586041D02*
X4086979Y-10576518D01*
X4086979Y-10576518D02*
X4106027Y-10566994D01*
X4258408Y-10747946D02*
X4267932Y-10757470D01*
X4267932Y-10757470D02*
X4258408Y-10766994D01*
X4258408Y-10766994D02*
X4248884Y-10757470D01*
X4248884Y-10757470D02*
X4258408Y-10747946D01*
X4258408Y-10747946D02*
X4258408Y-10766994D01*
X4391741Y-10566994D02*
X4410789Y-10566994D01*
X4410789Y-10566994D02*
X4429837Y-10576518D01*
X4429837Y-10576518D02*
X4439360Y-10586041D01*
X4439360Y-10586041D02*
X4448884Y-10605089D01*
X4448884Y-10605089D02*
X4458408Y-10643184D01*
X4458408Y-10643184D02*
X4458408Y-10690803D01*
X4458408Y-10690803D02*
X4448884Y-10728898D01*
X4448884Y-10728898D02*
X4439360Y-10747946D01*
X4439360Y-10747946D02*
X4429837Y-10757470D01*
X4429837Y-10757470D02*
X4410789Y-10766994D01*
X4410789Y-10766994D02*
X4391741Y-10766994D01*
X4391741Y-10766994D02*
X4372694Y-10757470D01*
X4372694Y-10757470D02*
X4363170Y-10747946D01*
X4363170Y-10747946D02*
X4353646Y-10728898D01*
X4353646Y-10728898D02*
X4344122Y-10690803D01*
X4344122Y-10690803D02*
X4344122Y-10643184D01*
X4344122Y-10643184D02*
X4353646Y-10605089D01*
X4353646Y-10605089D02*
X4363170Y-10586041D01*
X4363170Y-10586041D02*
X4372694Y-10576518D01*
X4372694Y-10576518D02*
X4391741Y-10566994D01*
X4648884Y-10766994D02*
X4534599Y-10766994D01*
X4591741Y-10766994D02*
X4591741Y-10566994D01*
X4591741Y-10566994D02*
X4572694Y-10595565D01*
X4572694Y-10595565D02*
X4553646Y-10614613D01*
X4553646Y-10614613D02*
X4534599Y-10624137D01*
X4839360Y-10766994D02*
X4725075Y-10766994D01*
X4782218Y-10766994D02*
X4782218Y-10566994D01*
X4782218Y-10566994D02*
X4763170Y-10595565D01*
X4763170Y-10595565D02*
X4744122Y-10614613D01*
X4744122Y-10614613D02*
X4725075Y-10624137D01*
X4953646Y-10652708D02*
X4934599Y-10643184D01*
X4934599Y-10643184D02*
X4925075Y-10633660D01*
X4925075Y-10633660D02*
X4915551Y-10614613D01*
X4915551Y-10614613D02*
X4915551Y-10605089D01*
X4915551Y-10605089D02*
X4925075Y-10586041D01*
X4925075Y-10586041D02*
X4934599Y-10576518D01*
X4934599Y-10576518D02*
X4953646Y-10566994D01*
X4953646Y-10566994D02*
X4991741Y-10566994D01*
X4991741Y-10566994D02*
X5010789Y-10576518D01*
X5010789Y-10576518D02*
X5020313Y-10586041D01*
X5020313Y-10586041D02*
X5029837Y-10605089D01*
X5029837Y-10605089D02*
X5029837Y-10614613D01*
X5029837Y-10614613D02*
X5020313Y-10633660D01*
X5020313Y-10633660D02*
X5010789Y-10643184D01*
X5010789Y-10643184D02*
X4991741Y-10652708D01*
X4991741Y-10652708D02*
X4953646Y-10652708D01*
X4953646Y-10652708D02*
X4934599Y-10662232D01*
X4934599Y-10662232D02*
X4925075Y-10671756D01*
X4925075Y-10671756D02*
X4915551Y-10690803D01*
X4915551Y-10690803D02*
X4915551Y-10728898D01*
X4915551Y-10728898D02*
X4925075Y-10747946D01*
X4925075Y-10747946D02*
X4934599Y-10757470D01*
X4934599Y-10757470D02*
X4953646Y-10766994D01*
X4953646Y-10766994D02*
X4991741Y-10766994D01*
X4991741Y-10766994D02*
X5010789Y-10757470D01*
X5010789Y-10757470D02*
X5020313Y-10747946D01*
X5020313Y-10747946D02*
X5029837Y-10728898D01*
X5029837Y-10728898D02*
X5029837Y-10690803D01*
X5029837Y-10690803D02*
X5020313Y-10671756D01*
X5020313Y-10671756D02*
X5010789Y-10662232D01*
X5010789Y-10662232D02*
X4991741Y-10652708D01*
X5106027Y-10566994D02*
X5106027Y-10605089D01*
X5182218Y-10566994D02*
X5182218Y-10605089D01*
X5477456Y-10843184D02*
X5467932Y-10833660D01*
X5467932Y-10833660D02*
X5448884Y-10805089D01*
X5448884Y-10805089D02*
X5439361Y-10786041D01*
X5439361Y-10786041D02*
X5429837Y-10757470D01*
X5429837Y-10757470D02*
X5420313Y-10709851D01*
X5420313Y-10709851D02*
X5420313Y-10671756D01*
X5420313Y-10671756D02*
X5429837Y-10624137D01*
X5429837Y-10624137D02*
X5439361Y-10595565D01*
X5439361Y-10595565D02*
X5448884Y-10576518D01*
X5448884Y-10576518D02*
X5467932Y-10547946D01*
X5467932Y-10547946D02*
X5477456Y-10538422D01*
X5544122Y-10586041D02*
X5553646Y-10576518D01*
X5553646Y-10576518D02*
X5572694Y-10566994D01*
X5572694Y-10566994D02*
X5620313Y-10566994D01*
X5620313Y-10566994D02*
X5639360Y-10576518D01*
X5639360Y-10576518D02*
X5648884Y-10586041D01*
X5648884Y-10586041D02*
X5658408Y-10605089D01*
X5658408Y-10605089D02*
X5658408Y-10624137D01*
X5658408Y-10624137D02*
X5648884Y-10652708D01*
X5648884Y-10652708D02*
X5534599Y-10766994D01*
X5534599Y-10766994D02*
X5658408Y-10766994D01*
X5725075Y-10566994D02*
X5858408Y-10566994D01*
X5858408Y-10566994D02*
X5772694Y-10766994D01*
X6086980Y-10766994D02*
X6086980Y-10566994D01*
X6172694Y-10766994D02*
X6172694Y-10662232D01*
X6172694Y-10662232D02*
X6163170Y-10643184D01*
X6163170Y-10643184D02*
X6144122Y-10633660D01*
X6144122Y-10633660D02*
X6115551Y-10633660D01*
X6115551Y-10633660D02*
X6096503Y-10643184D01*
X6096503Y-10643184D02*
X6086980Y-10652708D01*
X6296503Y-10766994D02*
X6277456Y-10757470D01*
X6277456Y-10757470D02*
X6267932Y-10747946D01*
X6267932Y-10747946D02*
X6258408Y-10728898D01*
X6258408Y-10728898D02*
X6258408Y-10671756D01*
X6258408Y-10671756D02*
X6267932Y-10652708D01*
X6267932Y-10652708D02*
X6277456Y-10643184D01*
X6277456Y-10643184D02*
X6296503Y-10633660D01*
X6296503Y-10633660D02*
X6325075Y-10633660D01*
X6325075Y-10633660D02*
X6344122Y-10643184D01*
X6344122Y-10643184D02*
X6353646Y-10652708D01*
X6353646Y-10652708D02*
X6363170Y-10671756D01*
X6363170Y-10671756D02*
X6363170Y-10728898D01*
X6363170Y-10728898D02*
X6353646Y-10747946D01*
X6353646Y-10747946D02*
X6344122Y-10757470D01*
X6344122Y-10757470D02*
X6325075Y-10766994D01*
X6325075Y-10766994D02*
X6296503Y-10766994D01*
X6477456Y-10766994D02*
X6458408Y-10757470D01*
X6458408Y-10757470D02*
X6448884Y-10738422D01*
X6448884Y-10738422D02*
X6448884Y-10566994D01*
X6629837Y-10757470D02*
X6610789Y-10766994D01*
X6610789Y-10766994D02*
X6572694Y-10766994D01*
X6572694Y-10766994D02*
X6553646Y-10757470D01*
X6553646Y-10757470D02*
X6544122Y-10738422D01*
X6544122Y-10738422D02*
X6544122Y-10662232D01*
X6544122Y-10662232D02*
X6553646Y-10643184D01*
X6553646Y-10643184D02*
X6572694Y-10633660D01*
X6572694Y-10633660D02*
X6610789Y-10633660D01*
X6610789Y-10633660D02*
X6629837Y-10643184D01*
X6629837Y-10643184D02*
X6639361Y-10662232D01*
X6639361Y-10662232D02*
X6639361Y-10681279D01*
X6639361Y-10681279D02*
X6544122Y-10700327D01*
X6715551Y-10757470D02*
X6734599Y-10766994D01*
X6734599Y-10766994D02*
X6772694Y-10766994D01*
X6772694Y-10766994D02*
X6791742Y-10757470D01*
X6791742Y-10757470D02*
X6801265Y-10738422D01*
X6801265Y-10738422D02*
X6801265Y-10728898D01*
X6801265Y-10728898D02*
X6791742Y-10709851D01*
X6791742Y-10709851D02*
X6772694Y-10700327D01*
X6772694Y-10700327D02*
X6744122Y-10700327D01*
X6744122Y-10700327D02*
X6725075Y-10690803D01*
X6725075Y-10690803D02*
X6715551Y-10671756D01*
X6715551Y-10671756D02*
X6715551Y-10662232D01*
X6715551Y-10662232D02*
X6725075Y-10643184D01*
X6725075Y-10643184D02*
X6744122Y-10633660D01*
X6744122Y-10633660D02*
X6772694Y-10633660D01*
X6772694Y-10633660D02*
X6791742Y-10643184D01*
X6867932Y-10843184D02*
X6877456Y-10833660D01*
X6877456Y-10833660D02*
X6896503Y-10805089D01*
X6896503Y-10805089D02*
X6906027Y-10786041D01*
X6906027Y-10786041D02*
X6915551Y-10757470D01*
X6915551Y-10757470D02*
X6925075Y-10709851D01*
X6925075Y-10709851D02*
X6925075Y-10671756D01*
X6925075Y-10671756D02*
X6915551Y-10624137D01*
X6915551Y-10624137D02*
X6906027Y-10595565D01*
X6906027Y-10595565D02*
X6896503Y-10576518D01*
X6896503Y-10576518D02*
X6877456Y-10547946D01*
X6877456Y-10547946D02*
X6867932Y-10538422D01*
D12*
X1902393Y-10939510D02*
G75*
G02*
X1822393Y-10939510I-40000J0D01*
G01*
X1822393Y-10939510D02*
G75*
G02*
X1902393Y-10939510I40000J0D01*
G01*
D11*
X2201265Y-10830994D02*
X2220313Y-10830994D01*
X2220313Y-10830994D02*
X2239360Y-10840518D01*
X2239360Y-10840518D02*
X2248884Y-10850041D01*
X2248884Y-10850041D02*
X2258408Y-10869089D01*
X2258408Y-10869089D02*
X2267932Y-10907184D01*
X2267932Y-10907184D02*
X2267932Y-10954803D01*
X2267932Y-10954803D02*
X2258408Y-10992898D01*
X2258408Y-10992898D02*
X2248884Y-11011946D01*
X2248884Y-11011946D02*
X2239360Y-11021470D01*
X2239360Y-11021470D02*
X2220313Y-11030994D01*
X2220313Y-11030994D02*
X2201265Y-11030994D01*
X2201265Y-11030994D02*
X2182217Y-11021470D01*
X2182217Y-11021470D02*
X2172694Y-11011946D01*
X2172694Y-11011946D02*
X2163170Y-10992898D01*
X2163170Y-10992898D02*
X2153646Y-10954803D01*
X2153646Y-10954803D02*
X2153646Y-10907184D01*
X2153646Y-10907184D02*
X2163170Y-10869089D01*
X2163170Y-10869089D02*
X2172694Y-10850041D01*
X2172694Y-10850041D02*
X2182217Y-10840518D01*
X2182217Y-10840518D02*
X2201265Y-10830994D01*
X2353646Y-11011946D02*
X2363170Y-11021470D01*
X2363170Y-11021470D02*
X2353646Y-11030994D01*
X2353646Y-11030994D02*
X2344122Y-11021470D01*
X2344122Y-11021470D02*
X2353646Y-11011946D01*
X2353646Y-11011946D02*
X2353646Y-11030994D01*
X2477455Y-10916708D02*
X2458408Y-10907184D01*
X2458408Y-10907184D02*
X2448884Y-10897660D01*
X2448884Y-10897660D02*
X2439360Y-10878613D01*
X2439360Y-10878613D02*
X2439360Y-10869089D01*
X2439360Y-10869089D02*
X2448884Y-10850041D01*
X2448884Y-10850041D02*
X2458408Y-10840518D01*
X2458408Y-10840518D02*
X2477455Y-10830994D01*
X2477455Y-10830994D02*
X2515551Y-10830994D01*
X2515551Y-10830994D02*
X2534598Y-10840518D01*
X2534598Y-10840518D02*
X2544122Y-10850041D01*
X2544122Y-10850041D02*
X2553646Y-10869089D01*
X2553646Y-10869089D02*
X2553646Y-10878613D01*
X2553646Y-10878613D02*
X2544122Y-10897660D01*
X2544122Y-10897660D02*
X2534598Y-10907184D01*
X2534598Y-10907184D02*
X2515551Y-10916708D01*
X2515551Y-10916708D02*
X2477455Y-10916708D01*
X2477455Y-10916708D02*
X2458408Y-10926232D01*
X2458408Y-10926232D02*
X2448884Y-10935756D01*
X2448884Y-10935756D02*
X2439360Y-10954803D01*
X2439360Y-10954803D02*
X2439360Y-10992898D01*
X2439360Y-10992898D02*
X2448884Y-11011946D01*
X2448884Y-11011946D02*
X2458408Y-11021470D01*
X2458408Y-11021470D02*
X2477455Y-11030994D01*
X2477455Y-11030994D02*
X2515551Y-11030994D01*
X2515551Y-11030994D02*
X2534598Y-11021470D01*
X2534598Y-11021470D02*
X2544122Y-11011946D01*
X2544122Y-11011946D02*
X2553646Y-10992898D01*
X2553646Y-10992898D02*
X2553646Y-10954803D01*
X2553646Y-10954803D02*
X2544122Y-10935756D01*
X2544122Y-10935756D02*
X2534598Y-10926232D01*
X2534598Y-10926232D02*
X2515551Y-10916708D01*
X2677455Y-10830994D02*
X2696503Y-10830994D01*
X2696503Y-10830994D02*
X2715551Y-10840518D01*
X2715551Y-10840518D02*
X2725075Y-10850041D01*
X2725075Y-10850041D02*
X2734598Y-10869089D01*
X2734598Y-10869089D02*
X2744122Y-10907184D01*
X2744122Y-10907184D02*
X2744122Y-10954803D01*
X2744122Y-10954803D02*
X2734598Y-10992898D01*
X2734598Y-10992898D02*
X2725075Y-11011946D01*
X2725075Y-11011946D02*
X2715551Y-11021470D01*
X2715551Y-11021470D02*
X2696503Y-11030994D01*
X2696503Y-11030994D02*
X2677455Y-11030994D01*
X2677455Y-11030994D02*
X2658408Y-11021470D01*
X2658408Y-11021470D02*
X2648884Y-11011946D01*
X2648884Y-11011946D02*
X2639360Y-10992898D01*
X2639360Y-10992898D02*
X2629836Y-10954803D01*
X2629836Y-10954803D02*
X2629836Y-10907184D01*
X2629836Y-10907184D02*
X2639360Y-10869089D01*
X2639360Y-10869089D02*
X2648884Y-10850041D01*
X2648884Y-10850041D02*
X2658408Y-10840518D01*
X2658408Y-10840518D02*
X2677455Y-10830994D01*
X2867932Y-10830994D02*
X2886979Y-10830994D01*
X2886979Y-10830994D02*
X2906027Y-10840518D01*
X2906027Y-10840518D02*
X2915551Y-10850041D01*
X2915551Y-10850041D02*
X2925074Y-10869089D01*
X2925074Y-10869089D02*
X2934598Y-10907184D01*
X2934598Y-10907184D02*
X2934598Y-10954803D01*
X2934598Y-10954803D02*
X2925074Y-10992898D01*
X2925074Y-10992898D02*
X2915551Y-11011946D01*
X2915551Y-11011946D02*
X2906027Y-11021470D01*
X2906027Y-11021470D02*
X2886979Y-11030994D01*
X2886979Y-11030994D02*
X2867932Y-11030994D01*
X2867932Y-11030994D02*
X2848884Y-11021470D01*
X2848884Y-11021470D02*
X2839360Y-11011946D01*
X2839360Y-11011946D02*
X2829836Y-10992898D01*
X2829836Y-10992898D02*
X2820313Y-10954803D01*
X2820313Y-10954803D02*
X2820313Y-10907184D01*
X2820313Y-10907184D02*
X2829836Y-10869089D01*
X2829836Y-10869089D02*
X2839360Y-10850041D01*
X2839360Y-10850041D02*
X2848884Y-10840518D01*
X2848884Y-10840518D02*
X2867932Y-10830994D01*
X3020313Y-11030994D02*
X3020313Y-10897660D01*
X3020313Y-10916708D02*
X3029836Y-10907184D01*
X3029836Y-10907184D02*
X3048884Y-10897660D01*
X3048884Y-10897660D02*
X3077455Y-10897660D01*
X3077455Y-10897660D02*
X3096503Y-10907184D01*
X3096503Y-10907184D02*
X3106027Y-10926232D01*
X3106027Y-10926232D02*
X3106027Y-11030994D01*
X3106027Y-10926232D02*
X3115551Y-10907184D01*
X3115551Y-10907184D02*
X3134598Y-10897660D01*
X3134598Y-10897660D02*
X3163170Y-10897660D01*
X3163170Y-10897660D02*
X3182217Y-10907184D01*
X3182217Y-10907184D02*
X3191741Y-10926232D01*
X3191741Y-10926232D02*
X3191741Y-11030994D01*
X3286979Y-11030994D02*
X3286979Y-10897660D01*
X3286979Y-10916708D02*
X3296503Y-10907184D01*
X3296503Y-10907184D02*
X3315551Y-10897660D01*
X3315551Y-10897660D02*
X3344122Y-10897660D01*
X3344122Y-10897660D02*
X3363170Y-10907184D01*
X3363170Y-10907184D02*
X3372694Y-10926232D01*
X3372694Y-10926232D02*
X3372694Y-11030994D01*
X3372694Y-10926232D02*
X3382217Y-10907184D01*
X3382217Y-10907184D02*
X3401265Y-10897660D01*
X3401265Y-10897660D02*
X3429836Y-10897660D01*
X3429836Y-10897660D02*
X3448884Y-10907184D01*
X3448884Y-10907184D02*
X3458408Y-10926232D01*
X3458408Y-10926232D02*
X3458408Y-11030994D01*
X3848884Y-10821470D02*
X3677456Y-11078613D01*
X4106027Y-10830994D02*
X4125075Y-10830994D01*
X4125075Y-10830994D02*
X4144122Y-10840518D01*
X4144122Y-10840518D02*
X4153646Y-10850041D01*
X4153646Y-10850041D02*
X4163170Y-10869089D01*
X4163170Y-10869089D02*
X4172694Y-10907184D01*
X4172694Y-10907184D02*
X4172694Y-10954803D01*
X4172694Y-10954803D02*
X4163170Y-10992898D01*
X4163170Y-10992898D02*
X4153646Y-11011946D01*
X4153646Y-11011946D02*
X4144122Y-11021470D01*
X4144122Y-11021470D02*
X4125075Y-11030994D01*
X4125075Y-11030994D02*
X4106027Y-11030994D01*
X4106027Y-11030994D02*
X4086979Y-11021470D01*
X4086979Y-11021470D02*
X4077456Y-11011946D01*
X4077456Y-11011946D02*
X4067932Y-10992898D01*
X4067932Y-10992898D02*
X4058408Y-10954803D01*
X4058408Y-10954803D02*
X4058408Y-10907184D01*
X4058408Y-10907184D02*
X4067932Y-10869089D01*
X4067932Y-10869089D02*
X4077456Y-10850041D01*
X4077456Y-10850041D02*
X4086979Y-10840518D01*
X4086979Y-10840518D02*
X4106027Y-10830994D01*
X4258408Y-11011946D02*
X4267932Y-11021470D01*
X4267932Y-11021470D02*
X4258408Y-11030994D01*
X4258408Y-11030994D02*
X4248884Y-11021470D01*
X4248884Y-11021470D02*
X4258408Y-11011946D01*
X4258408Y-11011946D02*
X4258408Y-11030994D01*
X4391741Y-10830994D02*
X4410789Y-10830994D01*
X4410789Y-10830994D02*
X4429837Y-10840518D01*
X4429837Y-10840518D02*
X4439360Y-10850041D01*
X4439360Y-10850041D02*
X4448884Y-10869089D01*
X4448884Y-10869089D02*
X4458408Y-10907184D01*
X4458408Y-10907184D02*
X4458408Y-10954803D01*
X4458408Y-10954803D02*
X4448884Y-10992898D01*
X4448884Y-10992898D02*
X4439360Y-11011946D01*
X4439360Y-11011946D02*
X4429837Y-11021470D01*
X4429837Y-11021470D02*
X4410789Y-11030994D01*
X4410789Y-11030994D02*
X4391741Y-11030994D01*
X4391741Y-11030994D02*
X4372694Y-11021470D01*
X4372694Y-11021470D02*
X4363170Y-11011946D01*
X4363170Y-11011946D02*
X4353646Y-10992898D01*
X4353646Y-10992898D02*
X4344122Y-10954803D01*
X4344122Y-10954803D02*
X4344122Y-10907184D01*
X4344122Y-10907184D02*
X4353646Y-10869089D01*
X4353646Y-10869089D02*
X4363170Y-10850041D01*
X4363170Y-10850041D02*
X4372694Y-10840518D01*
X4372694Y-10840518D02*
X4391741Y-10830994D01*
X4525075Y-10830994D02*
X4648884Y-10830994D01*
X4648884Y-10830994D02*
X4582218Y-10907184D01*
X4582218Y-10907184D02*
X4610789Y-10907184D01*
X4610789Y-10907184D02*
X4629837Y-10916708D01*
X4629837Y-10916708D02*
X4639360Y-10926232D01*
X4639360Y-10926232D02*
X4648884Y-10945279D01*
X4648884Y-10945279D02*
X4648884Y-10992898D01*
X4648884Y-10992898D02*
X4639360Y-11011946D01*
X4639360Y-11011946D02*
X4629837Y-11021470D01*
X4629837Y-11021470D02*
X4610789Y-11030994D01*
X4610789Y-11030994D02*
X4553646Y-11030994D01*
X4553646Y-11030994D02*
X4534599Y-11021470D01*
X4534599Y-11021470D02*
X4525075Y-11011946D01*
X4839360Y-11030994D02*
X4725075Y-11030994D01*
X4782218Y-11030994D02*
X4782218Y-10830994D01*
X4782218Y-10830994D02*
X4763170Y-10859565D01*
X4763170Y-10859565D02*
X4744122Y-10878613D01*
X4744122Y-10878613D02*
X4725075Y-10888137D01*
X5020313Y-10830994D02*
X4925075Y-10830994D01*
X4925075Y-10830994D02*
X4915551Y-10926232D01*
X4915551Y-10926232D02*
X4925075Y-10916708D01*
X4925075Y-10916708D02*
X4944122Y-10907184D01*
X4944122Y-10907184D02*
X4991741Y-10907184D01*
X4991741Y-10907184D02*
X5010789Y-10916708D01*
X5010789Y-10916708D02*
X5020313Y-10926232D01*
X5020313Y-10926232D02*
X5029837Y-10945279D01*
X5029837Y-10945279D02*
X5029837Y-10992898D01*
X5029837Y-10992898D02*
X5020313Y-11011946D01*
X5020313Y-11011946D02*
X5010789Y-11021470D01*
X5010789Y-11021470D02*
X4991741Y-11030994D01*
X4991741Y-11030994D02*
X4944122Y-11030994D01*
X4944122Y-11030994D02*
X4925075Y-11021470D01*
X4925075Y-11021470D02*
X4915551Y-11011946D01*
X5106027Y-10830994D02*
X5106027Y-10869089D01*
X5182218Y-10830994D02*
X5182218Y-10869089D01*
X5477456Y-11107184D02*
X5467932Y-11097660D01*
X5467932Y-11097660D02*
X5448884Y-11069089D01*
X5448884Y-11069089D02*
X5439361Y-11050041D01*
X5439361Y-11050041D02*
X5429837Y-11021470D01*
X5429837Y-11021470D02*
X5420313Y-10973851D01*
X5420313Y-10973851D02*
X5420313Y-10935756D01*
X5420313Y-10935756D02*
X5429837Y-10888137D01*
X5429837Y-10888137D02*
X5439361Y-10859565D01*
X5439361Y-10859565D02*
X5448884Y-10840518D01*
X5448884Y-10840518D02*
X5467932Y-10811946D01*
X5467932Y-10811946D02*
X5477456Y-10802422D01*
X5658408Y-11030994D02*
X5544122Y-11030994D01*
X5601265Y-11030994D02*
X5601265Y-10830994D01*
X5601265Y-10830994D02*
X5582218Y-10859565D01*
X5582218Y-10859565D02*
X5563170Y-10878613D01*
X5563170Y-10878613D02*
X5544122Y-10888137D01*
X5829837Y-10830994D02*
X5791741Y-10830994D01*
X5791741Y-10830994D02*
X5772694Y-10840518D01*
X5772694Y-10840518D02*
X5763170Y-10850041D01*
X5763170Y-10850041D02*
X5744122Y-10878613D01*
X5744122Y-10878613D02*
X5734599Y-10916708D01*
X5734599Y-10916708D02*
X5734599Y-10992898D01*
X5734599Y-10992898D02*
X5744122Y-11011946D01*
X5744122Y-11011946D02*
X5753646Y-11021470D01*
X5753646Y-11021470D02*
X5772694Y-11030994D01*
X5772694Y-11030994D02*
X5810789Y-11030994D01*
X5810789Y-11030994D02*
X5829837Y-11021470D01*
X5829837Y-11021470D02*
X5839360Y-11011946D01*
X5839360Y-11011946D02*
X5848884Y-10992898D01*
X5848884Y-10992898D02*
X5848884Y-10945279D01*
X5848884Y-10945279D02*
X5839360Y-10926232D01*
X5839360Y-10926232D02*
X5829837Y-10916708D01*
X5829837Y-10916708D02*
X5810789Y-10907184D01*
X5810789Y-10907184D02*
X5772694Y-10907184D01*
X5772694Y-10907184D02*
X5753646Y-10916708D01*
X5753646Y-10916708D02*
X5744122Y-10926232D01*
X5744122Y-10926232D02*
X5734599Y-10945279D01*
X6086980Y-11030994D02*
X6086980Y-10830994D01*
X6172694Y-11030994D02*
X6172694Y-10926232D01*
X6172694Y-10926232D02*
X6163170Y-10907184D01*
X6163170Y-10907184D02*
X6144122Y-10897660D01*
X6144122Y-10897660D02*
X6115551Y-10897660D01*
X6115551Y-10897660D02*
X6096503Y-10907184D01*
X6096503Y-10907184D02*
X6086980Y-10916708D01*
X6296503Y-11030994D02*
X6277456Y-11021470D01*
X6277456Y-11021470D02*
X6267932Y-11011946D01*
X6267932Y-11011946D02*
X6258408Y-10992898D01*
X6258408Y-10992898D02*
X6258408Y-10935756D01*
X6258408Y-10935756D02*
X6267932Y-10916708D01*
X6267932Y-10916708D02*
X6277456Y-10907184D01*
X6277456Y-10907184D02*
X6296503Y-10897660D01*
X6296503Y-10897660D02*
X6325075Y-10897660D01*
X6325075Y-10897660D02*
X6344122Y-10907184D01*
X6344122Y-10907184D02*
X6353646Y-10916708D01*
X6353646Y-10916708D02*
X6363170Y-10935756D01*
X6363170Y-10935756D02*
X6363170Y-10992898D01*
X6363170Y-10992898D02*
X6353646Y-11011946D01*
X6353646Y-11011946D02*
X6344122Y-11021470D01*
X6344122Y-11021470D02*
X6325075Y-11030994D01*
X6325075Y-11030994D02*
X6296503Y-11030994D01*
X6477456Y-11030994D02*
X6458408Y-11021470D01*
X6458408Y-11021470D02*
X6448884Y-11002422D01*
X6448884Y-11002422D02*
X6448884Y-10830994D01*
X6629837Y-11021470D02*
X6610789Y-11030994D01*
X6610789Y-11030994D02*
X6572694Y-11030994D01*
X6572694Y-11030994D02*
X6553646Y-11021470D01*
X6553646Y-11021470D02*
X6544122Y-11002422D01*
X6544122Y-11002422D02*
X6544122Y-10926232D01*
X6544122Y-10926232D02*
X6553646Y-10907184D01*
X6553646Y-10907184D02*
X6572694Y-10897660D01*
X6572694Y-10897660D02*
X6610789Y-10897660D01*
X6610789Y-10897660D02*
X6629837Y-10907184D01*
X6629837Y-10907184D02*
X6639361Y-10926232D01*
X6639361Y-10926232D02*
X6639361Y-10945279D01*
X6639361Y-10945279D02*
X6544122Y-10964327D01*
X6715551Y-11021470D02*
X6734599Y-11030994D01*
X6734599Y-11030994D02*
X6772694Y-11030994D01*
X6772694Y-11030994D02*
X6791742Y-11021470D01*
X6791742Y-11021470D02*
X6801265Y-11002422D01*
X6801265Y-11002422D02*
X6801265Y-10992898D01*
X6801265Y-10992898D02*
X6791742Y-10973851D01*
X6791742Y-10973851D02*
X6772694Y-10964327D01*
X6772694Y-10964327D02*
X6744122Y-10964327D01*
X6744122Y-10964327D02*
X6725075Y-10954803D01*
X6725075Y-10954803D02*
X6715551Y-10935756D01*
X6715551Y-10935756D02*
X6715551Y-10926232D01*
X6715551Y-10926232D02*
X6725075Y-10907184D01*
X6725075Y-10907184D02*
X6744122Y-10897660D01*
X6744122Y-10897660D02*
X6772694Y-10897660D01*
X6772694Y-10897660D02*
X6791742Y-10907184D01*
X6867932Y-11107184D02*
X6877456Y-11097660D01*
X6877456Y-11097660D02*
X6896503Y-11069089D01*
X6896503Y-11069089D02*
X6906027Y-11050041D01*
X6906027Y-11050041D02*
X6915551Y-11021470D01*
X6915551Y-11021470D02*
X6925075Y-10973851D01*
X6925075Y-10973851D02*
X6925075Y-10935756D01*
X6925075Y-10935756D02*
X6915551Y-10888137D01*
X6915551Y-10888137D02*
X6906027Y-10859565D01*
X6906027Y-10859565D02*
X6896503Y-10840518D01*
X6896503Y-10840518D02*
X6877456Y-10811946D01*
X6877456Y-10811946D02*
X6867932Y-10802422D01*
D12*
X1854893Y-11156010D02*
X1854893Y-11251010D01*
X1807393Y-11203510D02*
X1902393Y-11203510D01*
D11*
X2201265Y-11094994D02*
X2220313Y-11094994D01*
X2220313Y-11094994D02*
X2239360Y-11104518D01*
X2239360Y-11104518D02*
X2248884Y-11114041D01*
X2248884Y-11114041D02*
X2258408Y-11133089D01*
X2258408Y-11133089D02*
X2267932Y-11171184D01*
X2267932Y-11171184D02*
X2267932Y-11218803D01*
X2267932Y-11218803D02*
X2258408Y-11256898D01*
X2258408Y-11256898D02*
X2248884Y-11275946D01*
X2248884Y-11275946D02*
X2239360Y-11285470D01*
X2239360Y-11285470D02*
X2220313Y-11294994D01*
X2220313Y-11294994D02*
X2201265Y-11294994D01*
X2201265Y-11294994D02*
X2182217Y-11285470D01*
X2182217Y-11285470D02*
X2172694Y-11275946D01*
X2172694Y-11275946D02*
X2163170Y-11256898D01*
X2163170Y-11256898D02*
X2153646Y-11218803D01*
X2153646Y-11218803D02*
X2153646Y-11171184D01*
X2153646Y-11171184D02*
X2163170Y-11133089D01*
X2163170Y-11133089D02*
X2172694Y-11114041D01*
X2172694Y-11114041D02*
X2182217Y-11104518D01*
X2182217Y-11104518D02*
X2201265Y-11094994D01*
X2353646Y-11275946D02*
X2363170Y-11285470D01*
X2363170Y-11285470D02*
X2353646Y-11294994D01*
X2353646Y-11294994D02*
X2344122Y-11285470D01*
X2344122Y-11285470D02*
X2353646Y-11275946D01*
X2353646Y-11275946D02*
X2353646Y-11294994D01*
X2458408Y-11294994D02*
X2496503Y-11294994D01*
X2496503Y-11294994D02*
X2515551Y-11285470D01*
X2515551Y-11285470D02*
X2525075Y-11275946D01*
X2525075Y-11275946D02*
X2544122Y-11247375D01*
X2544122Y-11247375D02*
X2553646Y-11209279D01*
X2553646Y-11209279D02*
X2553646Y-11133089D01*
X2553646Y-11133089D02*
X2544122Y-11114041D01*
X2544122Y-11114041D02*
X2534598Y-11104518D01*
X2534598Y-11104518D02*
X2515551Y-11094994D01*
X2515551Y-11094994D02*
X2477455Y-11094994D01*
X2477455Y-11094994D02*
X2458408Y-11104518D01*
X2458408Y-11104518D02*
X2448884Y-11114041D01*
X2448884Y-11114041D02*
X2439360Y-11133089D01*
X2439360Y-11133089D02*
X2439360Y-11180708D01*
X2439360Y-11180708D02*
X2448884Y-11199756D01*
X2448884Y-11199756D02*
X2458408Y-11209279D01*
X2458408Y-11209279D02*
X2477455Y-11218803D01*
X2477455Y-11218803D02*
X2515551Y-11218803D01*
X2515551Y-11218803D02*
X2534598Y-11209279D01*
X2534598Y-11209279D02*
X2544122Y-11199756D01*
X2544122Y-11199756D02*
X2553646Y-11180708D01*
X2734598Y-11094994D02*
X2639360Y-11094994D01*
X2639360Y-11094994D02*
X2629836Y-11190232D01*
X2629836Y-11190232D02*
X2639360Y-11180708D01*
X2639360Y-11180708D02*
X2658408Y-11171184D01*
X2658408Y-11171184D02*
X2706027Y-11171184D01*
X2706027Y-11171184D02*
X2725075Y-11180708D01*
X2725075Y-11180708D02*
X2734598Y-11190232D01*
X2734598Y-11190232D02*
X2744122Y-11209279D01*
X2744122Y-11209279D02*
X2744122Y-11256898D01*
X2744122Y-11256898D02*
X2734598Y-11275946D01*
X2734598Y-11275946D02*
X2725075Y-11285470D01*
X2725075Y-11285470D02*
X2706027Y-11294994D01*
X2706027Y-11294994D02*
X2658408Y-11294994D01*
X2658408Y-11294994D02*
X2639360Y-11285470D01*
X2639360Y-11285470D02*
X2629836Y-11275946D01*
X2867932Y-11094994D02*
X2886979Y-11094994D01*
X2886979Y-11094994D02*
X2906027Y-11104518D01*
X2906027Y-11104518D02*
X2915551Y-11114041D01*
X2915551Y-11114041D02*
X2925074Y-11133089D01*
X2925074Y-11133089D02*
X2934598Y-11171184D01*
X2934598Y-11171184D02*
X2934598Y-11218803D01*
X2934598Y-11218803D02*
X2925074Y-11256898D01*
X2925074Y-11256898D02*
X2915551Y-11275946D01*
X2915551Y-11275946D02*
X2906027Y-11285470D01*
X2906027Y-11285470D02*
X2886979Y-11294994D01*
X2886979Y-11294994D02*
X2867932Y-11294994D01*
X2867932Y-11294994D02*
X2848884Y-11285470D01*
X2848884Y-11285470D02*
X2839360Y-11275946D01*
X2839360Y-11275946D02*
X2829836Y-11256898D01*
X2829836Y-11256898D02*
X2820313Y-11218803D01*
X2820313Y-11218803D02*
X2820313Y-11171184D01*
X2820313Y-11171184D02*
X2829836Y-11133089D01*
X2829836Y-11133089D02*
X2839360Y-11114041D01*
X2839360Y-11114041D02*
X2848884Y-11104518D01*
X2848884Y-11104518D02*
X2867932Y-11094994D01*
X3020313Y-11294994D02*
X3020313Y-11161660D01*
X3020313Y-11180708D02*
X3029836Y-11171184D01*
X3029836Y-11171184D02*
X3048884Y-11161660D01*
X3048884Y-11161660D02*
X3077455Y-11161660D01*
X3077455Y-11161660D02*
X3096503Y-11171184D01*
X3096503Y-11171184D02*
X3106027Y-11190232D01*
X3106027Y-11190232D02*
X3106027Y-11294994D01*
X3106027Y-11190232D02*
X3115551Y-11171184D01*
X3115551Y-11171184D02*
X3134598Y-11161660D01*
X3134598Y-11161660D02*
X3163170Y-11161660D01*
X3163170Y-11161660D02*
X3182217Y-11171184D01*
X3182217Y-11171184D02*
X3191741Y-11190232D01*
X3191741Y-11190232D02*
X3191741Y-11294994D01*
X3286979Y-11294994D02*
X3286979Y-11161660D01*
X3286979Y-11180708D02*
X3296503Y-11171184D01*
X3296503Y-11171184D02*
X3315551Y-11161660D01*
X3315551Y-11161660D02*
X3344122Y-11161660D01*
X3344122Y-11161660D02*
X3363170Y-11171184D01*
X3363170Y-11171184D02*
X3372694Y-11190232D01*
X3372694Y-11190232D02*
X3372694Y-11294994D01*
X3372694Y-11190232D02*
X3382217Y-11171184D01*
X3382217Y-11171184D02*
X3401265Y-11161660D01*
X3401265Y-11161660D02*
X3429836Y-11161660D01*
X3429836Y-11161660D02*
X3448884Y-11171184D01*
X3448884Y-11171184D02*
X3458408Y-11190232D01*
X3458408Y-11190232D02*
X3458408Y-11294994D01*
X3848884Y-11085470D02*
X3677456Y-11342613D01*
X4106027Y-11094994D02*
X4125075Y-11094994D01*
X4125075Y-11094994D02*
X4144122Y-11104518D01*
X4144122Y-11104518D02*
X4153646Y-11114041D01*
X4153646Y-11114041D02*
X4163170Y-11133089D01*
X4163170Y-11133089D02*
X4172694Y-11171184D01*
X4172694Y-11171184D02*
X4172694Y-11218803D01*
X4172694Y-11218803D02*
X4163170Y-11256898D01*
X4163170Y-11256898D02*
X4153646Y-11275946D01*
X4153646Y-11275946D02*
X4144122Y-11285470D01*
X4144122Y-11285470D02*
X4125075Y-11294994D01*
X4125075Y-11294994D02*
X4106027Y-11294994D01*
X4106027Y-11294994D02*
X4086979Y-11285470D01*
X4086979Y-11285470D02*
X4077456Y-11275946D01*
X4077456Y-11275946D02*
X4067932Y-11256898D01*
X4067932Y-11256898D02*
X4058408Y-11218803D01*
X4058408Y-11218803D02*
X4058408Y-11171184D01*
X4058408Y-11171184D02*
X4067932Y-11133089D01*
X4067932Y-11133089D02*
X4077456Y-11114041D01*
X4077456Y-11114041D02*
X4086979Y-11104518D01*
X4086979Y-11104518D02*
X4106027Y-11094994D01*
X4258408Y-11275946D02*
X4267932Y-11285470D01*
X4267932Y-11285470D02*
X4258408Y-11294994D01*
X4258408Y-11294994D02*
X4248884Y-11285470D01*
X4248884Y-11285470D02*
X4258408Y-11275946D01*
X4258408Y-11275946D02*
X4258408Y-11294994D01*
X4391741Y-11094994D02*
X4410789Y-11094994D01*
X4410789Y-11094994D02*
X4429837Y-11104518D01*
X4429837Y-11104518D02*
X4439360Y-11114041D01*
X4439360Y-11114041D02*
X4448884Y-11133089D01*
X4448884Y-11133089D02*
X4458408Y-11171184D01*
X4458408Y-11171184D02*
X4458408Y-11218803D01*
X4458408Y-11218803D02*
X4448884Y-11256898D01*
X4448884Y-11256898D02*
X4439360Y-11275946D01*
X4439360Y-11275946D02*
X4429837Y-11285470D01*
X4429837Y-11285470D02*
X4410789Y-11294994D01*
X4410789Y-11294994D02*
X4391741Y-11294994D01*
X4391741Y-11294994D02*
X4372694Y-11285470D01*
X4372694Y-11285470D02*
X4363170Y-11275946D01*
X4363170Y-11275946D02*
X4353646Y-11256898D01*
X4353646Y-11256898D02*
X4344122Y-11218803D01*
X4344122Y-11218803D02*
X4344122Y-11171184D01*
X4344122Y-11171184D02*
X4353646Y-11133089D01*
X4353646Y-11133089D02*
X4363170Y-11114041D01*
X4363170Y-11114041D02*
X4372694Y-11104518D01*
X4372694Y-11104518D02*
X4391741Y-11094994D01*
X4525075Y-11094994D02*
X4648884Y-11094994D01*
X4648884Y-11094994D02*
X4582218Y-11171184D01*
X4582218Y-11171184D02*
X4610789Y-11171184D01*
X4610789Y-11171184D02*
X4629837Y-11180708D01*
X4629837Y-11180708D02*
X4639360Y-11190232D01*
X4639360Y-11190232D02*
X4648884Y-11209279D01*
X4648884Y-11209279D02*
X4648884Y-11256898D01*
X4648884Y-11256898D02*
X4639360Y-11275946D01*
X4639360Y-11275946D02*
X4629837Y-11285470D01*
X4629837Y-11285470D02*
X4610789Y-11294994D01*
X4610789Y-11294994D02*
X4553646Y-11294994D01*
X4553646Y-11294994D02*
X4534599Y-11285470D01*
X4534599Y-11285470D02*
X4525075Y-11275946D01*
X4715551Y-11094994D02*
X4848884Y-11094994D01*
X4848884Y-11094994D02*
X4763170Y-11294994D01*
X5010789Y-11161660D02*
X5010789Y-11294994D01*
X4963170Y-11085470D02*
X4915551Y-11228327D01*
X4915551Y-11228327D02*
X5039360Y-11228327D01*
X5106027Y-11094994D02*
X5106027Y-11133089D01*
X5182218Y-11094994D02*
X5182218Y-11133089D01*
X5477456Y-11371184D02*
X5467932Y-11361660D01*
X5467932Y-11361660D02*
X5448884Y-11333089D01*
X5448884Y-11333089D02*
X5439361Y-11314041D01*
X5439361Y-11314041D02*
X5429837Y-11285470D01*
X5429837Y-11285470D02*
X5420313Y-11237851D01*
X5420313Y-11237851D02*
X5420313Y-11199756D01*
X5420313Y-11199756D02*
X5429837Y-11152137D01*
X5429837Y-11152137D02*
X5439361Y-11123565D01*
X5439361Y-11123565D02*
X5448884Y-11104518D01*
X5448884Y-11104518D02*
X5467932Y-11075946D01*
X5467932Y-11075946D02*
X5477456Y-11066422D01*
X5534599Y-11094994D02*
X5658408Y-11094994D01*
X5658408Y-11094994D02*
X5591741Y-11171184D01*
X5591741Y-11171184D02*
X5620313Y-11171184D01*
X5620313Y-11171184D02*
X5639360Y-11180708D01*
X5639360Y-11180708D02*
X5648884Y-11190232D01*
X5648884Y-11190232D02*
X5658408Y-11209279D01*
X5658408Y-11209279D02*
X5658408Y-11256898D01*
X5658408Y-11256898D02*
X5648884Y-11275946D01*
X5648884Y-11275946D02*
X5639360Y-11285470D01*
X5639360Y-11285470D02*
X5620313Y-11294994D01*
X5620313Y-11294994D02*
X5563170Y-11294994D01*
X5563170Y-11294994D02*
X5544122Y-11285470D01*
X5544122Y-11285470D02*
X5534599Y-11275946D01*
X5725075Y-11094994D02*
X5858408Y-11094994D01*
X5858408Y-11094994D02*
X5772694Y-11294994D01*
X6086980Y-11294994D02*
X6086980Y-11094994D01*
X6172694Y-11294994D02*
X6172694Y-11190232D01*
X6172694Y-11190232D02*
X6163170Y-11171184D01*
X6163170Y-11171184D02*
X6144122Y-11161660D01*
X6144122Y-11161660D02*
X6115551Y-11161660D01*
X6115551Y-11161660D02*
X6096503Y-11171184D01*
X6096503Y-11171184D02*
X6086980Y-11180708D01*
X6296503Y-11294994D02*
X6277456Y-11285470D01*
X6277456Y-11285470D02*
X6267932Y-11275946D01*
X6267932Y-11275946D02*
X6258408Y-11256898D01*
X6258408Y-11256898D02*
X6258408Y-11199756D01*
X6258408Y-11199756D02*
X6267932Y-11180708D01*
X6267932Y-11180708D02*
X6277456Y-11171184D01*
X6277456Y-11171184D02*
X6296503Y-11161660D01*
X6296503Y-11161660D02*
X6325075Y-11161660D01*
X6325075Y-11161660D02*
X6344122Y-11171184D01*
X6344122Y-11171184D02*
X6353646Y-11180708D01*
X6353646Y-11180708D02*
X6363170Y-11199756D01*
X6363170Y-11199756D02*
X6363170Y-11256898D01*
X6363170Y-11256898D02*
X6353646Y-11275946D01*
X6353646Y-11275946D02*
X6344122Y-11285470D01*
X6344122Y-11285470D02*
X6325075Y-11294994D01*
X6325075Y-11294994D02*
X6296503Y-11294994D01*
X6477456Y-11294994D02*
X6458408Y-11285470D01*
X6458408Y-11285470D02*
X6448884Y-11266422D01*
X6448884Y-11266422D02*
X6448884Y-11094994D01*
X6629837Y-11285470D02*
X6610789Y-11294994D01*
X6610789Y-11294994D02*
X6572694Y-11294994D01*
X6572694Y-11294994D02*
X6553646Y-11285470D01*
X6553646Y-11285470D02*
X6544122Y-11266422D01*
X6544122Y-11266422D02*
X6544122Y-11190232D01*
X6544122Y-11190232D02*
X6553646Y-11171184D01*
X6553646Y-11171184D02*
X6572694Y-11161660D01*
X6572694Y-11161660D02*
X6610789Y-11161660D01*
X6610789Y-11161660D02*
X6629837Y-11171184D01*
X6629837Y-11171184D02*
X6639361Y-11190232D01*
X6639361Y-11190232D02*
X6639361Y-11209279D01*
X6639361Y-11209279D02*
X6544122Y-11228327D01*
X6715551Y-11285470D02*
X6734599Y-11294994D01*
X6734599Y-11294994D02*
X6772694Y-11294994D01*
X6772694Y-11294994D02*
X6791742Y-11285470D01*
X6791742Y-11285470D02*
X6801265Y-11266422D01*
X6801265Y-11266422D02*
X6801265Y-11256898D01*
X6801265Y-11256898D02*
X6791742Y-11237851D01*
X6791742Y-11237851D02*
X6772694Y-11228327D01*
X6772694Y-11228327D02*
X6744122Y-11228327D01*
X6744122Y-11228327D02*
X6725075Y-11218803D01*
X6725075Y-11218803D02*
X6715551Y-11199756D01*
X6715551Y-11199756D02*
X6715551Y-11190232D01*
X6715551Y-11190232D02*
X6725075Y-11171184D01*
X6725075Y-11171184D02*
X6744122Y-11161660D01*
X6744122Y-11161660D02*
X6772694Y-11161660D01*
X6772694Y-11161660D02*
X6791742Y-11171184D01*
X6867932Y-11371184D02*
X6877456Y-11361660D01*
X6877456Y-11361660D02*
X6896503Y-11333089D01*
X6896503Y-11333089D02*
X6906027Y-11314041D01*
X6906027Y-11314041D02*
X6915551Y-11285470D01*
X6915551Y-11285470D02*
X6925075Y-11237851D01*
X6925075Y-11237851D02*
X6925075Y-11199756D01*
X6925075Y-11199756D02*
X6915551Y-11152137D01*
X6915551Y-11152137D02*
X6906027Y-11123565D01*
X6906027Y-11123565D02*
X6896503Y-11104518D01*
X6896503Y-11104518D02*
X6877456Y-11075946D01*
X6877456Y-11075946D02*
X6867932Y-11066422D01*
D12*
X1887749Y-11502866D02*
X1887749Y-11432154D01*
X1817037Y-11432154D01*
X1817037Y-11502866D01*
X1887749Y-11502866D01*
D11*
X2267932Y-11558994D02*
X2153646Y-11558994D01*
X2210789Y-11558994D02*
X2210789Y-11358994D01*
X2210789Y-11358994D02*
X2191741Y-11387565D01*
X2191741Y-11387565D02*
X2172694Y-11406613D01*
X2172694Y-11406613D02*
X2153646Y-11416136D01*
X2353646Y-11539946D02*
X2363170Y-11549470D01*
X2363170Y-11549470D02*
X2353646Y-11558994D01*
X2353646Y-11558994D02*
X2344122Y-11549470D01*
X2344122Y-11549470D02*
X2353646Y-11539946D01*
X2353646Y-11539946D02*
X2353646Y-11558994D01*
X2486979Y-11358994D02*
X2506027Y-11358994D01*
X2506027Y-11358994D02*
X2525075Y-11368517D01*
X2525075Y-11368517D02*
X2534598Y-11378041D01*
X2534598Y-11378041D02*
X2544122Y-11397089D01*
X2544122Y-11397089D02*
X2553646Y-11435184D01*
X2553646Y-11435184D02*
X2553646Y-11482803D01*
X2553646Y-11482803D02*
X2544122Y-11520898D01*
X2544122Y-11520898D02*
X2534598Y-11539946D01*
X2534598Y-11539946D02*
X2525075Y-11549470D01*
X2525075Y-11549470D02*
X2506027Y-11558994D01*
X2506027Y-11558994D02*
X2486979Y-11558994D01*
X2486979Y-11558994D02*
X2467932Y-11549470D01*
X2467932Y-11549470D02*
X2458408Y-11539946D01*
X2458408Y-11539946D02*
X2448884Y-11520898D01*
X2448884Y-11520898D02*
X2439360Y-11482803D01*
X2439360Y-11482803D02*
X2439360Y-11435184D01*
X2439360Y-11435184D02*
X2448884Y-11397089D01*
X2448884Y-11397089D02*
X2458408Y-11378041D01*
X2458408Y-11378041D02*
X2467932Y-11368517D01*
X2467932Y-11368517D02*
X2486979Y-11358994D01*
X2677455Y-11358994D02*
X2696503Y-11358994D01*
X2696503Y-11358994D02*
X2715551Y-11368517D01*
X2715551Y-11368517D02*
X2725075Y-11378041D01*
X2725075Y-11378041D02*
X2734598Y-11397089D01*
X2734598Y-11397089D02*
X2744122Y-11435184D01*
X2744122Y-11435184D02*
X2744122Y-11482803D01*
X2744122Y-11482803D02*
X2734598Y-11520898D01*
X2734598Y-11520898D02*
X2725075Y-11539946D01*
X2725075Y-11539946D02*
X2715551Y-11549470D01*
X2715551Y-11549470D02*
X2696503Y-11558994D01*
X2696503Y-11558994D02*
X2677455Y-11558994D01*
X2677455Y-11558994D02*
X2658408Y-11549470D01*
X2658408Y-11549470D02*
X2648884Y-11539946D01*
X2648884Y-11539946D02*
X2639360Y-11520898D01*
X2639360Y-11520898D02*
X2629836Y-11482803D01*
X2629836Y-11482803D02*
X2629836Y-11435184D01*
X2629836Y-11435184D02*
X2639360Y-11397089D01*
X2639360Y-11397089D02*
X2648884Y-11378041D01*
X2648884Y-11378041D02*
X2658408Y-11368517D01*
X2658408Y-11368517D02*
X2677455Y-11358994D01*
X2867932Y-11358994D02*
X2886979Y-11358994D01*
X2886979Y-11358994D02*
X2906027Y-11368517D01*
X2906027Y-11368517D02*
X2915551Y-11378041D01*
X2915551Y-11378041D02*
X2925074Y-11397089D01*
X2925074Y-11397089D02*
X2934598Y-11435184D01*
X2934598Y-11435184D02*
X2934598Y-11482803D01*
X2934598Y-11482803D02*
X2925074Y-11520898D01*
X2925074Y-11520898D02*
X2915551Y-11539946D01*
X2915551Y-11539946D02*
X2906027Y-11549470D01*
X2906027Y-11549470D02*
X2886979Y-11558994D01*
X2886979Y-11558994D02*
X2867932Y-11558994D01*
X2867932Y-11558994D02*
X2848884Y-11549470D01*
X2848884Y-11549470D02*
X2839360Y-11539946D01*
X2839360Y-11539946D02*
X2829836Y-11520898D01*
X2829836Y-11520898D02*
X2820313Y-11482803D01*
X2820313Y-11482803D02*
X2820313Y-11435184D01*
X2820313Y-11435184D02*
X2829836Y-11397089D01*
X2829836Y-11397089D02*
X2839360Y-11378041D01*
X2839360Y-11378041D02*
X2848884Y-11368517D01*
X2848884Y-11368517D02*
X2867932Y-11358994D01*
X3020313Y-11558994D02*
X3020313Y-11425660D01*
X3020313Y-11444708D02*
X3029836Y-11435184D01*
X3029836Y-11435184D02*
X3048884Y-11425660D01*
X3048884Y-11425660D02*
X3077455Y-11425660D01*
X3077455Y-11425660D02*
X3096503Y-11435184D01*
X3096503Y-11435184D02*
X3106027Y-11454232D01*
X3106027Y-11454232D02*
X3106027Y-11558994D01*
X3106027Y-11454232D02*
X3115551Y-11435184D01*
X3115551Y-11435184D02*
X3134598Y-11425660D01*
X3134598Y-11425660D02*
X3163170Y-11425660D01*
X3163170Y-11425660D02*
X3182217Y-11435184D01*
X3182217Y-11435184D02*
X3191741Y-11454232D01*
X3191741Y-11454232D02*
X3191741Y-11558994D01*
X3286979Y-11558994D02*
X3286979Y-11425660D01*
X3286979Y-11444708D02*
X3296503Y-11435184D01*
X3296503Y-11435184D02*
X3315551Y-11425660D01*
X3315551Y-11425660D02*
X3344122Y-11425660D01*
X3344122Y-11425660D02*
X3363170Y-11435184D01*
X3363170Y-11435184D02*
X3372694Y-11454232D01*
X3372694Y-11454232D02*
X3372694Y-11558994D01*
X3372694Y-11454232D02*
X3382217Y-11435184D01*
X3382217Y-11435184D02*
X3401265Y-11425660D01*
X3401265Y-11425660D02*
X3429836Y-11425660D01*
X3429836Y-11425660D02*
X3448884Y-11435184D01*
X3448884Y-11435184D02*
X3458408Y-11454232D01*
X3458408Y-11454232D02*
X3458408Y-11558994D01*
X3848884Y-11349470D02*
X3677456Y-11606613D01*
X4106027Y-11358994D02*
X4125075Y-11358994D01*
X4125075Y-11358994D02*
X4144122Y-11368517D01*
X4144122Y-11368517D02*
X4153646Y-11378041D01*
X4153646Y-11378041D02*
X4163170Y-11397089D01*
X4163170Y-11397089D02*
X4172694Y-11435184D01*
X4172694Y-11435184D02*
X4172694Y-11482803D01*
X4172694Y-11482803D02*
X4163170Y-11520898D01*
X4163170Y-11520898D02*
X4153646Y-11539946D01*
X4153646Y-11539946D02*
X4144122Y-11549470D01*
X4144122Y-11549470D02*
X4125075Y-11558994D01*
X4125075Y-11558994D02*
X4106027Y-11558994D01*
X4106027Y-11558994D02*
X4086979Y-11549470D01*
X4086979Y-11549470D02*
X4077456Y-11539946D01*
X4077456Y-11539946D02*
X4067932Y-11520898D01*
X4067932Y-11520898D02*
X4058408Y-11482803D01*
X4058408Y-11482803D02*
X4058408Y-11435184D01*
X4058408Y-11435184D02*
X4067932Y-11397089D01*
X4067932Y-11397089D02*
X4077456Y-11378041D01*
X4077456Y-11378041D02*
X4086979Y-11368517D01*
X4086979Y-11368517D02*
X4106027Y-11358994D01*
X4258408Y-11539946D02*
X4267932Y-11549470D01*
X4267932Y-11549470D02*
X4258408Y-11558994D01*
X4258408Y-11558994D02*
X4248884Y-11549470D01*
X4248884Y-11549470D02*
X4258408Y-11539946D01*
X4258408Y-11539946D02*
X4258408Y-11558994D01*
X4391741Y-11358994D02*
X4410789Y-11358994D01*
X4410789Y-11358994D02*
X4429837Y-11368517D01*
X4429837Y-11368517D02*
X4439360Y-11378041D01*
X4439360Y-11378041D02*
X4448884Y-11397089D01*
X4448884Y-11397089D02*
X4458408Y-11435184D01*
X4458408Y-11435184D02*
X4458408Y-11482803D01*
X4458408Y-11482803D02*
X4448884Y-11520898D01*
X4448884Y-11520898D02*
X4439360Y-11539946D01*
X4439360Y-11539946D02*
X4429837Y-11549470D01*
X4429837Y-11549470D02*
X4410789Y-11558994D01*
X4410789Y-11558994D02*
X4391741Y-11558994D01*
X4391741Y-11558994D02*
X4372694Y-11549470D01*
X4372694Y-11549470D02*
X4363170Y-11539946D01*
X4363170Y-11539946D02*
X4353646Y-11520898D01*
X4353646Y-11520898D02*
X4344122Y-11482803D01*
X4344122Y-11482803D02*
X4344122Y-11435184D01*
X4344122Y-11435184D02*
X4353646Y-11397089D01*
X4353646Y-11397089D02*
X4363170Y-11378041D01*
X4363170Y-11378041D02*
X4372694Y-11368517D01*
X4372694Y-11368517D02*
X4391741Y-11358994D01*
X4525075Y-11358994D02*
X4648884Y-11358994D01*
X4648884Y-11358994D02*
X4582218Y-11435184D01*
X4582218Y-11435184D02*
X4610789Y-11435184D01*
X4610789Y-11435184D02*
X4629837Y-11444708D01*
X4629837Y-11444708D02*
X4639360Y-11454232D01*
X4639360Y-11454232D02*
X4648884Y-11473279D01*
X4648884Y-11473279D02*
X4648884Y-11520898D01*
X4648884Y-11520898D02*
X4639360Y-11539946D01*
X4639360Y-11539946D02*
X4629837Y-11549470D01*
X4629837Y-11549470D02*
X4610789Y-11558994D01*
X4610789Y-11558994D02*
X4553646Y-11558994D01*
X4553646Y-11558994D02*
X4534599Y-11549470D01*
X4534599Y-11549470D02*
X4525075Y-11539946D01*
X4744122Y-11558994D02*
X4782218Y-11558994D01*
X4782218Y-11558994D02*
X4801265Y-11549470D01*
X4801265Y-11549470D02*
X4810789Y-11539946D01*
X4810789Y-11539946D02*
X4829837Y-11511375D01*
X4829837Y-11511375D02*
X4839360Y-11473279D01*
X4839360Y-11473279D02*
X4839360Y-11397089D01*
X4839360Y-11397089D02*
X4829837Y-11378041D01*
X4829837Y-11378041D02*
X4820313Y-11368517D01*
X4820313Y-11368517D02*
X4801265Y-11358994D01*
X4801265Y-11358994D02*
X4763170Y-11358994D01*
X4763170Y-11358994D02*
X4744122Y-11368517D01*
X4744122Y-11368517D02*
X4734599Y-11378041D01*
X4734599Y-11378041D02*
X4725075Y-11397089D01*
X4725075Y-11397089D02*
X4725075Y-11444708D01*
X4725075Y-11444708D02*
X4734599Y-11463756D01*
X4734599Y-11463756D02*
X4744122Y-11473279D01*
X4744122Y-11473279D02*
X4763170Y-11482803D01*
X4763170Y-11482803D02*
X4801265Y-11482803D01*
X4801265Y-11482803D02*
X4820313Y-11473279D01*
X4820313Y-11473279D02*
X4829837Y-11463756D01*
X4829837Y-11463756D02*
X4839360Y-11444708D01*
X5010789Y-11425660D02*
X5010789Y-11558994D01*
X4963170Y-11349470D02*
X4915551Y-11492327D01*
X4915551Y-11492327D02*
X5039360Y-11492327D01*
X5106027Y-11358994D02*
X5106027Y-11397089D01*
X5182218Y-11358994D02*
X5182218Y-11397089D01*
X5477456Y-11635184D02*
X5467932Y-11625660D01*
X5467932Y-11625660D02*
X5448884Y-11597089D01*
X5448884Y-11597089D02*
X5439361Y-11578041D01*
X5439361Y-11578041D02*
X5429837Y-11549470D01*
X5429837Y-11549470D02*
X5420313Y-11501851D01*
X5420313Y-11501851D02*
X5420313Y-11463756D01*
X5420313Y-11463756D02*
X5429837Y-11416136D01*
X5429837Y-11416136D02*
X5439361Y-11387565D01*
X5439361Y-11387565D02*
X5448884Y-11368517D01*
X5448884Y-11368517D02*
X5467932Y-11339946D01*
X5467932Y-11339946D02*
X5477456Y-11330422D01*
X5658408Y-11558994D02*
X5544122Y-11558994D01*
X5601265Y-11558994D02*
X5601265Y-11358994D01*
X5601265Y-11358994D02*
X5582218Y-11387565D01*
X5582218Y-11387565D02*
X5563170Y-11406613D01*
X5563170Y-11406613D02*
X5544122Y-11416136D01*
X5829837Y-11425660D02*
X5829837Y-11558994D01*
X5782218Y-11349470D02*
X5734599Y-11492327D01*
X5734599Y-11492327D02*
X5858408Y-11492327D01*
X6039360Y-11558994D02*
X5925075Y-11558994D01*
X5982218Y-11558994D02*
X5982218Y-11358994D01*
X5982218Y-11358994D02*
X5963170Y-11387565D01*
X5963170Y-11387565D02*
X5944122Y-11406613D01*
X5944122Y-11406613D02*
X5925075Y-11416136D01*
X6277456Y-11558994D02*
X6277456Y-11358994D01*
X6363170Y-11558994D02*
X6363170Y-11454232D01*
X6363170Y-11454232D02*
X6353646Y-11435184D01*
X6353646Y-11435184D02*
X6334599Y-11425660D01*
X6334599Y-11425660D02*
X6306027Y-11425660D01*
X6306027Y-11425660D02*
X6286980Y-11435184D01*
X6286980Y-11435184D02*
X6277456Y-11444708D01*
X6486980Y-11558994D02*
X6467932Y-11549470D01*
X6467932Y-11549470D02*
X6458408Y-11539946D01*
X6458408Y-11539946D02*
X6448884Y-11520898D01*
X6448884Y-11520898D02*
X6448884Y-11463756D01*
X6448884Y-11463756D02*
X6458408Y-11444708D01*
X6458408Y-11444708D02*
X6467932Y-11435184D01*
X6467932Y-11435184D02*
X6486980Y-11425660D01*
X6486980Y-11425660D02*
X6515551Y-11425660D01*
X6515551Y-11425660D02*
X6534599Y-11435184D01*
X6534599Y-11435184D02*
X6544122Y-11444708D01*
X6544122Y-11444708D02*
X6553646Y-11463756D01*
X6553646Y-11463756D02*
X6553646Y-11520898D01*
X6553646Y-11520898D02*
X6544122Y-11539946D01*
X6544122Y-11539946D02*
X6534599Y-11549470D01*
X6534599Y-11549470D02*
X6515551Y-11558994D01*
X6515551Y-11558994D02*
X6486980Y-11558994D01*
X6667932Y-11558994D02*
X6648884Y-11549470D01*
X6648884Y-11549470D02*
X6639361Y-11530422D01*
X6639361Y-11530422D02*
X6639361Y-11358994D01*
X6820313Y-11549470D02*
X6801265Y-11558994D01*
X6801265Y-11558994D02*
X6763170Y-11558994D01*
X6763170Y-11558994D02*
X6744122Y-11549470D01*
X6744122Y-11549470D02*
X6734599Y-11530422D01*
X6734599Y-11530422D02*
X6734599Y-11454232D01*
X6734599Y-11454232D02*
X6744122Y-11435184D01*
X6744122Y-11435184D02*
X6763170Y-11425660D01*
X6763170Y-11425660D02*
X6801265Y-11425660D01*
X6801265Y-11425660D02*
X6820313Y-11435184D01*
X6820313Y-11435184D02*
X6829837Y-11454232D01*
X6829837Y-11454232D02*
X6829837Y-11473279D01*
X6829837Y-11473279D02*
X6734599Y-11492327D01*
X6906027Y-11549470D02*
X6925075Y-11558994D01*
X6925075Y-11558994D02*
X6963170Y-11558994D01*
X6963170Y-11558994D02*
X6982218Y-11549470D01*
X6982218Y-11549470D02*
X6991742Y-11530422D01*
X6991742Y-11530422D02*
X6991742Y-11520898D01*
X6991742Y-11520898D02*
X6982218Y-11501851D01*
X6982218Y-11501851D02*
X6963170Y-11492327D01*
X6963170Y-11492327D02*
X6934599Y-11492327D01*
X6934599Y-11492327D02*
X6915551Y-11482803D01*
X6915551Y-11482803D02*
X6906027Y-11463756D01*
X6906027Y-11463756D02*
X6906027Y-11454232D01*
X6906027Y-11454232D02*
X6915551Y-11435184D01*
X6915551Y-11435184D02*
X6934599Y-11425660D01*
X6934599Y-11425660D02*
X6963170Y-11425660D01*
X6963170Y-11425660D02*
X6982218Y-11435184D01*
X7058408Y-11635184D02*
X7067932Y-11625660D01*
X7067932Y-11625660D02*
X7086980Y-11597089D01*
X7086980Y-11597089D02*
X7096503Y-11578041D01*
X7096503Y-11578041D02*
X7106027Y-11549470D01*
X7106027Y-11549470D02*
X7115551Y-11501851D01*
X7115551Y-11501851D02*
X7115551Y-11463756D01*
X7115551Y-11463756D02*
X7106027Y-11416136D01*
X7106027Y-11416136D02*
X7096503Y-11387565D01*
X7096503Y-11387565D02*
X7086980Y-11368517D01*
X7086980Y-11368517D02*
X7067932Y-11339946D01*
X7067932Y-11339946D02*
X7058408Y-11330422D01*
X1802393Y-11831510D02*
X1902393Y-11731510D01*
X1802393Y-11631510D01*
X1702393Y-11731510D01*
X1802393Y-11831510D01*
X2248884Y-11689660D02*
X2248884Y-11822994D01*
X2201265Y-11613470D02*
X2153646Y-11756327D01*
X2153646Y-11756327D02*
X2277455Y-11756327D01*
X2353646Y-11803946D02*
X2363170Y-11813470D01*
X2363170Y-11813470D02*
X2353646Y-11822994D01*
X2353646Y-11822994D02*
X2344122Y-11813470D01*
X2344122Y-11813470D02*
X2353646Y-11803946D01*
X2353646Y-11803946D02*
X2353646Y-11822994D01*
X2544122Y-11622994D02*
X2448884Y-11622994D01*
X2448884Y-11622994D02*
X2439360Y-11718232D01*
X2439360Y-11718232D02*
X2448884Y-11708708D01*
X2448884Y-11708708D02*
X2467932Y-11699184D01*
X2467932Y-11699184D02*
X2515551Y-11699184D01*
X2515551Y-11699184D02*
X2534598Y-11708708D01*
X2534598Y-11708708D02*
X2544122Y-11718232D01*
X2544122Y-11718232D02*
X2553646Y-11737279D01*
X2553646Y-11737279D02*
X2553646Y-11784898D01*
X2553646Y-11784898D02*
X2544122Y-11803946D01*
X2544122Y-11803946D02*
X2534598Y-11813470D01*
X2534598Y-11813470D02*
X2515551Y-11822994D01*
X2515551Y-11822994D02*
X2467932Y-11822994D01*
X2467932Y-11822994D02*
X2448884Y-11813470D01*
X2448884Y-11813470D02*
X2439360Y-11803946D01*
X2734598Y-11622994D02*
X2639360Y-11622994D01*
X2639360Y-11622994D02*
X2629836Y-11718232D01*
X2629836Y-11718232D02*
X2639360Y-11708708D01*
X2639360Y-11708708D02*
X2658408Y-11699184D01*
X2658408Y-11699184D02*
X2706027Y-11699184D01*
X2706027Y-11699184D02*
X2725075Y-11708708D01*
X2725075Y-11708708D02*
X2734598Y-11718232D01*
X2734598Y-11718232D02*
X2744122Y-11737279D01*
X2744122Y-11737279D02*
X2744122Y-11784898D01*
X2744122Y-11784898D02*
X2734598Y-11803946D01*
X2734598Y-11803946D02*
X2725075Y-11813470D01*
X2725075Y-11813470D02*
X2706027Y-11822994D01*
X2706027Y-11822994D02*
X2658408Y-11822994D01*
X2658408Y-11822994D02*
X2639360Y-11813470D01*
X2639360Y-11813470D02*
X2629836Y-11803946D01*
X2867932Y-11622994D02*
X2886979Y-11622994D01*
X2886979Y-11622994D02*
X2906027Y-11632517D01*
X2906027Y-11632517D02*
X2915551Y-11642041D01*
X2915551Y-11642041D02*
X2925074Y-11661089D01*
X2925074Y-11661089D02*
X2934598Y-11699184D01*
X2934598Y-11699184D02*
X2934598Y-11746803D01*
X2934598Y-11746803D02*
X2925074Y-11784898D01*
X2925074Y-11784898D02*
X2915551Y-11803946D01*
X2915551Y-11803946D02*
X2906027Y-11813470D01*
X2906027Y-11813470D02*
X2886979Y-11822994D01*
X2886979Y-11822994D02*
X2867932Y-11822994D01*
X2867932Y-11822994D02*
X2848884Y-11813470D01*
X2848884Y-11813470D02*
X2839360Y-11803946D01*
X2839360Y-11803946D02*
X2829836Y-11784898D01*
X2829836Y-11784898D02*
X2820313Y-11746803D01*
X2820313Y-11746803D02*
X2820313Y-11699184D01*
X2820313Y-11699184D02*
X2829836Y-11661089D01*
X2829836Y-11661089D02*
X2839360Y-11642041D01*
X2839360Y-11642041D02*
X2848884Y-11632517D01*
X2848884Y-11632517D02*
X2867932Y-11622994D01*
X3020313Y-11822994D02*
X3020313Y-11689660D01*
X3020313Y-11708708D02*
X3029836Y-11699184D01*
X3029836Y-11699184D02*
X3048884Y-11689660D01*
X3048884Y-11689660D02*
X3077455Y-11689660D01*
X3077455Y-11689660D02*
X3096503Y-11699184D01*
X3096503Y-11699184D02*
X3106027Y-11718232D01*
X3106027Y-11718232D02*
X3106027Y-11822994D01*
X3106027Y-11718232D02*
X3115551Y-11699184D01*
X3115551Y-11699184D02*
X3134598Y-11689660D01*
X3134598Y-11689660D02*
X3163170Y-11689660D01*
X3163170Y-11689660D02*
X3182217Y-11699184D01*
X3182217Y-11699184D02*
X3191741Y-11718232D01*
X3191741Y-11718232D02*
X3191741Y-11822994D01*
X3286979Y-11822994D02*
X3286979Y-11689660D01*
X3286979Y-11708708D02*
X3296503Y-11699184D01*
X3296503Y-11699184D02*
X3315551Y-11689660D01*
X3315551Y-11689660D02*
X3344122Y-11689660D01*
X3344122Y-11689660D02*
X3363170Y-11699184D01*
X3363170Y-11699184D02*
X3372694Y-11718232D01*
X3372694Y-11718232D02*
X3372694Y-11822994D01*
X3372694Y-11718232D02*
X3382217Y-11699184D01*
X3382217Y-11699184D02*
X3401265Y-11689660D01*
X3401265Y-11689660D02*
X3429836Y-11689660D01*
X3429836Y-11689660D02*
X3448884Y-11699184D01*
X3448884Y-11699184D02*
X3458408Y-11718232D01*
X3458408Y-11718232D02*
X3458408Y-11822994D01*
X3848884Y-11613470D02*
X3677456Y-11870613D01*
X4106027Y-11622994D02*
X4125075Y-11622994D01*
X4125075Y-11622994D02*
X4144122Y-11632517D01*
X4144122Y-11632517D02*
X4153646Y-11642041D01*
X4153646Y-11642041D02*
X4163170Y-11661089D01*
X4163170Y-11661089D02*
X4172694Y-11699184D01*
X4172694Y-11699184D02*
X4172694Y-11746803D01*
X4172694Y-11746803D02*
X4163170Y-11784898D01*
X4163170Y-11784898D02*
X4153646Y-11803946D01*
X4153646Y-11803946D02*
X4144122Y-11813470D01*
X4144122Y-11813470D02*
X4125075Y-11822994D01*
X4125075Y-11822994D02*
X4106027Y-11822994D01*
X4106027Y-11822994D02*
X4086979Y-11813470D01*
X4086979Y-11813470D02*
X4077456Y-11803946D01*
X4077456Y-11803946D02*
X4067932Y-11784898D01*
X4067932Y-11784898D02*
X4058408Y-11746803D01*
X4058408Y-11746803D02*
X4058408Y-11699184D01*
X4058408Y-11699184D02*
X4067932Y-11661089D01*
X4067932Y-11661089D02*
X4077456Y-11642041D01*
X4077456Y-11642041D02*
X4086979Y-11632517D01*
X4086979Y-11632517D02*
X4106027Y-11622994D01*
X4258408Y-11803946D02*
X4267932Y-11813470D01*
X4267932Y-11813470D02*
X4258408Y-11822994D01*
X4258408Y-11822994D02*
X4248884Y-11813470D01*
X4248884Y-11813470D02*
X4258408Y-11803946D01*
X4258408Y-11803946D02*
X4258408Y-11822994D01*
X4458408Y-11822994D02*
X4344122Y-11822994D01*
X4401265Y-11822994D02*
X4401265Y-11622994D01*
X4401265Y-11622994D02*
X4382218Y-11651565D01*
X4382218Y-11651565D02*
X4363170Y-11670613D01*
X4363170Y-11670613D02*
X4344122Y-11680136D01*
X4525075Y-11622994D02*
X4658408Y-11622994D01*
X4658408Y-11622994D02*
X4572694Y-11822994D01*
X4744122Y-11822994D02*
X4782218Y-11822994D01*
X4782218Y-11822994D02*
X4801265Y-11813470D01*
X4801265Y-11813470D02*
X4810789Y-11803946D01*
X4810789Y-11803946D02*
X4829837Y-11775375D01*
X4829837Y-11775375D02*
X4839360Y-11737279D01*
X4839360Y-11737279D02*
X4839360Y-11661089D01*
X4839360Y-11661089D02*
X4829837Y-11642041D01*
X4829837Y-11642041D02*
X4820313Y-11632517D01*
X4820313Y-11632517D02*
X4801265Y-11622994D01*
X4801265Y-11622994D02*
X4763170Y-11622994D01*
X4763170Y-11622994D02*
X4744122Y-11632517D01*
X4744122Y-11632517D02*
X4734599Y-11642041D01*
X4734599Y-11642041D02*
X4725075Y-11661089D01*
X4725075Y-11661089D02*
X4725075Y-11708708D01*
X4725075Y-11708708D02*
X4734599Y-11727756D01*
X4734599Y-11727756D02*
X4744122Y-11737279D01*
X4744122Y-11737279D02*
X4763170Y-11746803D01*
X4763170Y-11746803D02*
X4801265Y-11746803D01*
X4801265Y-11746803D02*
X4820313Y-11737279D01*
X4820313Y-11737279D02*
X4829837Y-11727756D01*
X4829837Y-11727756D02*
X4839360Y-11708708D01*
X5029837Y-11822994D02*
X4915551Y-11822994D01*
X4972694Y-11822994D02*
X4972694Y-11622994D01*
X4972694Y-11622994D02*
X4953646Y-11651565D01*
X4953646Y-11651565D02*
X4934599Y-11670613D01*
X4934599Y-11670613D02*
X4915551Y-11680136D01*
X5106027Y-11622994D02*
X5106027Y-11661089D01*
X5182218Y-11622994D02*
X5182218Y-11661089D01*
X5477456Y-11899184D02*
X5467932Y-11889660D01*
X5467932Y-11889660D02*
X5448884Y-11861089D01*
X5448884Y-11861089D02*
X5439361Y-11842041D01*
X5439361Y-11842041D02*
X5429837Y-11813470D01*
X5429837Y-11813470D02*
X5420313Y-11765851D01*
X5420313Y-11765851D02*
X5420313Y-11727756D01*
X5420313Y-11727756D02*
X5429837Y-11680136D01*
X5429837Y-11680136D02*
X5439361Y-11651565D01*
X5439361Y-11651565D02*
X5448884Y-11632517D01*
X5448884Y-11632517D02*
X5467932Y-11603946D01*
X5467932Y-11603946D02*
X5477456Y-11594422D01*
X5639360Y-11689660D02*
X5639360Y-11822994D01*
X5591741Y-11613470D02*
X5544122Y-11756327D01*
X5544122Y-11756327D02*
X5667932Y-11756327D01*
X5896503Y-11822994D02*
X5896503Y-11622994D01*
X5982218Y-11822994D02*
X5982218Y-11718232D01*
X5982218Y-11718232D02*
X5972694Y-11699184D01*
X5972694Y-11699184D02*
X5953646Y-11689660D01*
X5953646Y-11689660D02*
X5925075Y-11689660D01*
X5925075Y-11689660D02*
X5906027Y-11699184D01*
X5906027Y-11699184D02*
X5896503Y-11708708D01*
X6106027Y-11822994D02*
X6086980Y-11813470D01*
X6086980Y-11813470D02*
X6077456Y-11803946D01*
X6077456Y-11803946D02*
X6067932Y-11784898D01*
X6067932Y-11784898D02*
X6067932Y-11727756D01*
X6067932Y-11727756D02*
X6077456Y-11708708D01*
X6077456Y-11708708D02*
X6086980Y-11699184D01*
X6086980Y-11699184D02*
X6106027Y-11689660D01*
X6106027Y-11689660D02*
X6134599Y-11689660D01*
X6134599Y-11689660D02*
X6153646Y-11699184D01*
X6153646Y-11699184D02*
X6163170Y-11708708D01*
X6163170Y-11708708D02*
X6172694Y-11727756D01*
X6172694Y-11727756D02*
X6172694Y-11784898D01*
X6172694Y-11784898D02*
X6163170Y-11803946D01*
X6163170Y-11803946D02*
X6153646Y-11813470D01*
X6153646Y-11813470D02*
X6134599Y-11822994D01*
X6134599Y-11822994D02*
X6106027Y-11822994D01*
X6286980Y-11822994D02*
X6267932Y-11813470D01*
X6267932Y-11813470D02*
X6258408Y-11794422D01*
X6258408Y-11794422D02*
X6258408Y-11622994D01*
X6439361Y-11813470D02*
X6420313Y-11822994D01*
X6420313Y-11822994D02*
X6382218Y-11822994D01*
X6382218Y-11822994D02*
X6363170Y-11813470D01*
X6363170Y-11813470D02*
X6353646Y-11794422D01*
X6353646Y-11794422D02*
X6353646Y-11718232D01*
X6353646Y-11718232D02*
X6363170Y-11699184D01*
X6363170Y-11699184D02*
X6382218Y-11689660D01*
X6382218Y-11689660D02*
X6420313Y-11689660D01*
X6420313Y-11689660D02*
X6439361Y-11699184D01*
X6439361Y-11699184D02*
X6448884Y-11718232D01*
X6448884Y-11718232D02*
X6448884Y-11737279D01*
X6448884Y-11737279D02*
X6353646Y-11756327D01*
X6525075Y-11813470D02*
X6544122Y-11822994D01*
X6544122Y-11822994D02*
X6582218Y-11822994D01*
X6582218Y-11822994D02*
X6601265Y-11813470D01*
X6601265Y-11813470D02*
X6610789Y-11794422D01*
X6610789Y-11794422D02*
X6610789Y-11784898D01*
X6610789Y-11784898D02*
X6601265Y-11765851D01*
X6601265Y-11765851D02*
X6582218Y-11756327D01*
X6582218Y-11756327D02*
X6553646Y-11756327D01*
X6553646Y-11756327D02*
X6534599Y-11746803D01*
X6534599Y-11746803D02*
X6525075Y-11727756D01*
X6525075Y-11727756D02*
X6525075Y-11718232D01*
X6525075Y-11718232D02*
X6534599Y-11699184D01*
X6534599Y-11699184D02*
X6553646Y-11689660D01*
X6553646Y-11689660D02*
X6582218Y-11689660D01*
X6582218Y-11689660D02*
X6601265Y-11699184D01*
X6677456Y-11899184D02*
X6686980Y-11889660D01*
X6686980Y-11889660D02*
X6706027Y-11861089D01*
X6706027Y-11861089D02*
X6715551Y-11842041D01*
X6715551Y-11842041D02*
X6725075Y-11813470D01*
X6725075Y-11813470D02*
X6734599Y-11765851D01*
X6734599Y-11765851D02*
X6734599Y-11727756D01*
X6734599Y-11727756D02*
X6725075Y-11680136D01*
X6725075Y-11680136D02*
X6715551Y-11651565D01*
X6715551Y-11651565D02*
X6706027Y-11632517D01*
X6706027Y-11632517D02*
X6686980Y-11603946D01*
X6686980Y-11603946D02*
X6677456Y-11594422D01*
M02*
