G04 #@! TF.GenerationSoftware,KiCad,Pcbnew,9.0.4*
G04 #@! TF.CreationDate,2026-01-31T16:01:34+09:00*
G04 #@! TF.ProjectId,harurobo,68617275-726f-4626-9f2e-6b696361645f,rev?*
G04 #@! TF.SameCoordinates,Original*
G04 #@! TF.FileFunction,Copper,L2,Bot*
G04 #@! TF.FilePolarity,Positive*
%FSLAX46Y46*%
G04 Gerber Fmt 4.6, Leading zero omitted, Abs format (unit mm)*
G04 Created by KiCad (PCBNEW 9.0.4) date 2026-01-31 16:01:34*
%MOMM*%
%LPD*%
G01*
G04 APERTURE LIST*
G04 Aperture macros list*
%AMRoundRect*
0 Rectangle with rounded corners*
0 $1 Rounding radius*
0 $2 $3 $4 $5 $6 $7 $8 $9 X,Y pos of 4 corners*
0 Add a 4 corners polygon primitive as box body*
4,1,4,$2,$3,$4,$5,$6,$7,$8,$9,$2,$3,0*
0 Add four circle primitives for the rounded corners*
1,1,$1+$1,$2,$3*
1,1,$1+$1,$4,$5*
1,1,$1+$1,$6,$7*
1,1,$1+$1,$8,$9*
0 Add four rect primitives between the rounded corners*
20,1,$1+$1,$2,$3,$4,$5,0*
20,1,$1+$1,$4,$5,$6,$7,0*
20,1,$1+$1,$6,$7,$8,$9,0*
20,1,$1+$1,$8,$9,$2,$3,0*%
G04 Aperture macros list end*
G04 #@! TA.AperFunction,ComponentPad*
%ADD10RoundRect,0.250000X0.600000X0.725000X-0.600000X0.725000X-0.600000X-0.725000X0.600000X-0.725000X0*%
G04 #@! TD*
G04 #@! TA.AperFunction,ComponentPad*
%ADD11O,1.700000X1.950000*%
G04 #@! TD*
G04 #@! TA.AperFunction,ComponentPad*
%ADD12RoundRect,0.250000X-0.600000X-0.750000X0.600000X-0.750000X0.600000X0.750000X-0.600000X0.750000X0*%
G04 #@! TD*
G04 #@! TA.AperFunction,ComponentPad*
%ADD13O,1.700000X2.000000*%
G04 #@! TD*
G04 #@! TA.AperFunction,ComponentPad*
%ADD14R,1.700000X1.700000*%
G04 #@! TD*
G04 #@! TA.AperFunction,ComponentPad*
%ADD15C,1.700000*%
G04 #@! TD*
G04 #@! TA.AperFunction,ComponentPad*
%ADD16C,6.000000*%
G04 #@! TD*
G04 #@! TA.AperFunction,ComponentPad*
%ADD17R,6.000000X6.000000*%
G04 #@! TD*
G04 #@! TA.AperFunction,ComponentPad*
%ADD18RoundRect,0.250000X-0.600000X-0.725000X0.600000X-0.725000X0.600000X0.725000X-0.600000X0.725000X0*%
G04 #@! TD*
G04 #@! TA.AperFunction,ComponentPad*
%ADD19RoundRect,0.250000X-0.550000X0.550000X-0.550000X-0.550000X0.550000X-0.550000X0.550000X0.550000X0*%
G04 #@! TD*
G04 #@! TA.AperFunction,ComponentPad*
%ADD20C,1.600000*%
G04 #@! TD*
G04 #@! TA.AperFunction,ViaPad*
%ADD21C,0.600000*%
G04 #@! TD*
G04 #@! TA.AperFunction,Conductor*
%ADD22C,0.200000*%
G04 #@! TD*
G04 #@! TA.AperFunction,Conductor*
%ADD23C,2.000000*%
G04 #@! TD*
G04 #@! TA.AperFunction,Conductor*
%ADD24C,4.000000*%
G04 #@! TD*
G04 APERTURE END LIST*
D10*
X38608000Y-77216000D03*
D11*
X36108000Y-77216000D03*
X33608000Y-77216000D03*
D12*
X46148600Y-51592600D03*
D13*
X48648600Y-51592600D03*
D12*
X56193800Y-66773900D03*
D13*
X58693800Y-66773900D03*
D10*
X38608000Y-60198000D03*
D11*
X36108000Y-60198000D03*
X33608000Y-60198000D03*
D14*
X23913200Y-73957800D03*
D15*
X21373200Y-73957800D03*
D10*
X38608000Y-52087000D03*
D11*
X36108000Y-52087000D03*
X33608000Y-52087000D03*
D12*
X66594000Y-51545000D03*
D13*
X69094000Y-51545000D03*
D10*
X38608000Y-68834000D03*
D11*
X36108000Y-68834000D03*
X33608000Y-68834000D03*
D14*
X79756000Y-41910000D03*
D15*
X79756000Y-44450000D03*
X79756000Y-46990000D03*
X79756000Y-49530000D03*
X79756000Y-52070000D03*
X79756000Y-54610000D03*
X79756000Y-57150000D03*
X79756000Y-59690000D03*
X79756000Y-62230000D03*
X79756000Y-64770000D03*
X79756000Y-67310000D03*
X79756000Y-69850000D03*
X79756000Y-72390000D03*
X79756000Y-74930000D03*
X79756000Y-77470000D03*
X79756000Y-80010000D03*
X79756000Y-82550000D03*
X79756000Y-85090000D03*
X79756000Y-87630000D03*
D12*
X46268000Y-59272200D03*
D13*
X48768000Y-59272200D03*
D14*
X105169000Y-41910000D03*
D15*
X105169000Y-44450000D03*
X105169000Y-46990000D03*
X105169000Y-49530000D03*
X105169000Y-52070000D03*
X105169000Y-54610000D03*
X105169000Y-57150000D03*
X105169000Y-59690000D03*
X105169000Y-62230000D03*
X105169000Y-64770000D03*
X105169000Y-67310000D03*
X105169000Y-69850000D03*
X105169000Y-72390000D03*
X105169000Y-74930000D03*
X105169000Y-77470000D03*
X105169000Y-80010000D03*
X105169000Y-82550000D03*
X105169000Y-85090000D03*
X105169000Y-87630000D03*
D14*
X23916000Y-78910800D03*
D15*
X21376000Y-78910800D03*
D10*
X38608000Y-44196000D03*
D11*
X36108000Y-44196000D03*
X33608000Y-44196000D03*
D12*
X56174000Y-74422000D03*
D13*
X58674000Y-74422000D03*
D16*
X60115000Y-25400000D03*
D17*
X52915000Y-25400000D03*
D12*
X56257300Y-59155900D03*
D13*
X58757300Y-59155900D03*
D18*
X60960000Y-42200000D03*
D11*
X63460000Y-42200000D03*
X65960000Y-42200000D03*
X68460000Y-42200000D03*
D12*
X56169900Y-51566100D03*
D13*
X58669900Y-51566100D03*
D16*
X41700000Y-25400000D03*
D17*
X34500000Y-25400000D03*
D18*
X46776000Y-42302000D03*
D11*
X49276000Y-42302000D03*
X51776000Y-42302000D03*
X54276000Y-42302000D03*
D12*
X46268000Y-66698600D03*
D13*
X48768000Y-66698600D03*
D14*
X23876000Y-64008000D03*
D15*
X21336000Y-64008000D03*
D14*
X108800200Y-41916200D03*
D15*
X108800200Y-44456200D03*
X108800200Y-46996200D03*
X108800200Y-49536200D03*
X108800200Y-52076200D03*
X108800200Y-54616200D03*
X108800200Y-57156200D03*
X108800200Y-59696200D03*
X108800200Y-62236200D03*
X108800200Y-64776200D03*
X108800200Y-67316200D03*
X108800200Y-69856200D03*
X108800200Y-72396200D03*
X108800200Y-74936200D03*
X108800200Y-77476200D03*
X108800200Y-80016200D03*
X108800200Y-82556200D03*
X108800200Y-85096200D03*
X108800200Y-87636200D03*
D12*
X66614000Y-59182000D03*
D13*
X69114000Y-59182000D03*
D10*
X38528000Y-86360000D03*
D11*
X36028000Y-86360000D03*
X33528000Y-86360000D03*
D12*
X66632200Y-66879100D03*
D13*
X69132200Y-66879100D03*
D14*
X74812000Y-22653000D03*
D15*
X77352000Y-22653000D03*
X79892000Y-22653000D03*
X82432000Y-22653000D03*
X84972000Y-22653000D03*
X87512000Y-22653000D03*
X90052000Y-22653000D03*
X92592000Y-22653000D03*
X95132000Y-22653000D03*
X97672000Y-22653000D03*
X100212000Y-22653000D03*
D14*
X76135800Y-41916200D03*
D15*
X76135800Y-44456200D03*
X76135800Y-46996200D03*
X76135800Y-49536200D03*
X76135800Y-52076200D03*
X76135800Y-54616200D03*
X76135800Y-57156200D03*
X76135800Y-59696200D03*
X76135800Y-62236200D03*
X76135800Y-64776200D03*
X76135800Y-67316200D03*
X76135800Y-69856200D03*
X76135800Y-72396200D03*
X76135800Y-74936200D03*
X76135800Y-77476200D03*
X76135800Y-80016200D03*
X76135800Y-82556200D03*
X76135800Y-85096200D03*
X76135800Y-87636200D03*
D18*
X46776000Y-35052000D03*
D11*
X49276000Y-35052000D03*
X51776000Y-35052000D03*
X54276000Y-35052000D03*
D12*
X66614000Y-74676000D03*
D13*
X69114000Y-74676000D03*
D14*
X22518000Y-51061000D03*
D15*
X22518000Y-48521000D03*
X22518000Y-45981000D03*
X22518000Y-43441000D03*
X22518000Y-40901000D03*
X22518000Y-38361000D03*
X22518000Y-35821000D03*
X22518000Y-33281000D03*
X22518000Y-30741000D03*
X22518000Y-28201000D03*
X22518000Y-25661000D03*
D12*
X46268000Y-74572600D03*
D13*
X48768000Y-74572600D03*
D19*
X64008000Y-81788000D03*
D20*
X61468000Y-81788000D03*
X58928000Y-81788000D03*
X56388000Y-81788000D03*
X53848000Y-81788000D03*
X51308000Y-81788000D03*
X48768000Y-81788000D03*
X46228000Y-81788000D03*
X46228000Y-89408000D03*
X48768000Y-89408000D03*
X51308000Y-89408000D03*
X53848000Y-89408000D03*
X56388000Y-89408000D03*
X58928000Y-89408000D03*
X61468000Y-89408000D03*
X64008000Y-89408000D03*
D10*
X38608000Y-35560000D03*
D11*
X36108000Y-35560000D03*
X33608000Y-35560000D03*
D14*
X23901000Y-69008000D03*
D15*
X21361000Y-69008000D03*
D14*
X51816000Y-97138000D03*
D15*
X49276000Y-97138000D03*
X46736000Y-97138000D03*
X44196000Y-97138000D03*
X41656000Y-97138000D03*
X39116000Y-97138000D03*
X36576000Y-97138000D03*
X34036000Y-97138000D03*
X31496000Y-97138000D03*
X28956000Y-97138000D03*
X26416000Y-97138000D03*
D18*
X60960000Y-34925000D03*
D11*
X63460000Y-34925000D03*
X65960000Y-34925000D03*
X68460000Y-34925000D03*
D21*
X51619400Y-37908300D03*
X29299300Y-86753100D03*
X50848400Y-64208400D03*
X39516800Y-84135000D03*
X43563200Y-92935200D03*
X44919800Y-78384700D03*
X64070000Y-64973700D03*
X61201400Y-68234000D03*
X52425600Y-95412700D03*
X47869300Y-72149800D03*
X60937800Y-72348700D03*
X100212000Y-39972200D03*
X96402000Y-42977100D03*
X55466400Y-48869700D03*
X69625000Y-24563100D03*
X41266600Y-75386400D03*
X40781200Y-57708600D03*
X78226900Y-58361400D03*
X41024000Y-86704800D03*
X43318700Y-60654900D03*
X25354000Y-22251300D03*
X69716100Y-23758900D03*
X104825400Y-22353000D03*
X23244700Y-22283200D03*
X44693800Y-77486000D03*
X52425600Y-69493800D03*
X104825400Y-37084500D03*
D22*
X48648600Y-51592600D02*
X48648600Y-44206100D01*
D23*
X33608000Y-64088000D02*
X33020000Y-63500000D01*
D22*
X58757300Y-52955200D02*
X58757300Y-59155900D01*
D23*
X33528000Y-81788000D02*
X33020000Y-81280000D01*
D22*
X106327100Y-55991900D02*
X105169000Y-57150000D01*
D23*
X33608000Y-48848000D02*
X33020000Y-48260000D01*
D22*
X58693800Y-66773900D02*
X58693800Y-65472200D01*
X22041000Y-47369300D02*
X21366300Y-48044000D01*
D24*
X27940000Y-50144700D02*
X27940000Y-55880000D01*
D22*
X105169000Y-41910000D02*
X105169000Y-43061700D01*
D24*
X27940000Y-30480000D02*
X27940000Y-38100000D01*
X28528000Y-31068000D02*
X27940000Y-30480000D01*
D22*
X49919700Y-74572600D02*
X49919700Y-94090000D01*
X41700000Y-31057400D02*
X41706800Y-31064200D01*
D24*
X27940000Y-55880000D02*
X27940000Y-63500000D01*
D22*
X63460000Y-28745000D02*
X60115000Y-25400000D01*
D23*
X33608000Y-74248000D02*
X33020000Y-73660000D01*
X33608000Y-38688000D02*
X33020000Y-38100000D01*
D22*
X48768000Y-66698600D02*
X48768000Y-59272200D01*
D23*
X33020000Y-55880000D02*
X27940000Y-55880000D01*
D24*
X33608000Y-31068000D02*
X28528000Y-31068000D01*
D22*
X58693800Y-66773900D02*
X58693800Y-68075600D01*
X48648600Y-57851100D02*
X48648600Y-51592600D01*
D23*
X33528000Y-86360000D02*
X33528000Y-81788000D01*
D22*
X58669900Y-52867800D02*
X58757300Y-52955200D01*
D23*
X33608000Y-68834000D02*
X33608000Y-64088000D01*
D22*
X58757300Y-60457600D02*
X58757300Y-65408700D01*
D24*
X41700000Y-25400000D02*
X41700000Y-31057400D01*
D22*
X62308300Y-43351700D02*
X62308300Y-42200000D01*
X48768000Y-57970500D02*
X48648600Y-57851100D01*
X22518000Y-45981000D02*
X22518000Y-47369300D01*
X58757300Y-59155900D02*
X58757300Y-60457600D01*
X63460000Y-42200000D02*
X63460000Y-34925000D01*
X63460000Y-34925000D02*
X63460000Y-28745000D01*
X58757300Y-65408700D02*
X58693800Y-65472200D01*
X58674000Y-68095400D02*
X58693800Y-68075600D01*
X49276000Y-42302000D02*
X49276000Y-43578700D01*
D23*
X33608000Y-35560000D02*
X33608000Y-31068000D01*
D22*
X58669900Y-46990100D02*
X62308300Y-43351700D01*
X22447800Y-49839000D02*
X22447800Y-49839100D01*
D23*
X33608000Y-77216000D02*
X33608000Y-74248000D01*
D22*
X58669900Y-51566100D02*
X58669900Y-46990100D01*
D23*
X33608000Y-52087000D02*
X33608000Y-48848000D01*
D22*
X22207300Y-49839000D02*
X22447800Y-49839000D01*
D24*
X27940000Y-73660000D02*
X27940000Y-81280000D01*
D22*
X21366300Y-48044000D02*
X21366300Y-48998000D01*
D24*
X27940000Y-63500000D02*
X27940000Y-73660000D01*
D22*
X105456900Y-43061700D02*
X106327100Y-43931900D01*
X25164600Y-47369300D02*
X22518000Y-47369300D01*
X49919700Y-94090000D02*
X51816000Y-95986300D01*
D24*
X41703000Y-31068000D02*
X33608000Y-31068000D01*
D22*
X41706800Y-31064200D02*
X41703000Y-31068000D01*
X58669900Y-52216900D02*
X58669900Y-52867800D01*
X49276000Y-35052000D02*
X49276000Y-42302000D01*
D23*
X33608000Y-44196000D02*
X33608000Y-38688000D01*
D22*
X48768000Y-74572600D02*
X49919700Y-74572600D01*
X27940000Y-50144700D02*
X25164600Y-47369300D01*
D23*
X33020000Y-73660000D02*
X27940000Y-73660000D01*
D22*
X51816000Y-97138000D02*
X51816000Y-95986300D01*
D23*
X33020000Y-63500000D02*
X27940000Y-63500000D01*
D22*
X58674000Y-74422000D02*
X58674000Y-68095400D01*
D24*
X27940000Y-38100000D02*
X27940000Y-48260000D01*
D22*
X63460000Y-42200000D02*
X62308300Y-42200000D01*
D23*
X33020000Y-48260000D02*
X27940000Y-48260000D01*
X33608000Y-56468000D02*
X33020000Y-55880000D01*
X33020000Y-38100000D02*
X27940000Y-38100000D01*
D22*
X21366300Y-48998000D02*
X22207300Y-49839000D01*
D23*
X33608000Y-60198000D02*
X33608000Y-56468000D01*
D24*
X27940000Y-48260000D02*
X27940000Y-50144700D01*
D22*
X22518000Y-47369300D02*
X22041000Y-47369300D01*
X22447800Y-49839100D02*
X22518000Y-49909300D01*
X106327100Y-43931900D02*
X106327100Y-55991900D01*
X48768000Y-59272200D02*
X48768000Y-57970500D01*
X22518000Y-51061000D02*
X22518000Y-49909300D01*
D23*
X33020000Y-81280000D02*
X27940000Y-81280000D01*
D22*
X58669900Y-52216900D02*
X58669900Y-51566100D01*
X105169000Y-43061700D02*
X105456900Y-43061700D01*
X48648600Y-44206100D02*
X49276000Y-43578700D01*
X36451500Y-87709600D02*
X37306700Y-86854400D01*
X37306700Y-62942900D02*
X37425800Y-62823800D01*
X35196200Y-87709600D02*
X36451500Y-87709600D01*
X28940100Y-88111300D02*
X34794500Y-88111300D01*
X25053800Y-84793000D02*
X27151100Y-86890300D01*
X35029900Y-87875900D02*
X35196200Y-87709600D01*
X37425800Y-36742200D02*
X38608000Y-35560000D01*
X37306700Y-86854400D02*
X37306700Y-62942900D01*
X35029900Y-87875900D02*
X35196200Y-87709600D01*
X25053800Y-82588600D02*
X25053800Y-84793000D01*
X37425800Y-62823800D02*
X37425800Y-36742200D01*
X27151100Y-86890300D02*
X27719100Y-86890300D01*
X21376000Y-78910800D02*
X25053800Y-82588600D01*
X27719100Y-86890300D02*
X28940100Y-88111300D01*
X34794500Y-88111300D02*
X35029900Y-87875900D01*
X60960000Y-42200000D02*
X60960000Y-34925000D01*
X46776000Y-42302000D02*
X46776000Y-35052000D01*
X28039500Y-88914700D02*
X35127100Y-88914700D01*
X19762500Y-75568500D02*
X19762500Y-80637700D01*
X54276000Y-35052000D02*
X53124300Y-35052000D01*
X40196400Y-84874300D02*
X40598100Y-84472600D01*
X53124300Y-35052000D02*
X53124300Y-36403400D01*
X40362700Y-67189800D02*
X40196400Y-67023500D01*
X39961000Y-58720100D02*
X39794700Y-58553800D01*
X35362500Y-88679300D02*
X35470000Y-88571800D01*
X39073400Y-88571800D02*
X40196400Y-87448800D01*
X35127100Y-88914700D02*
X35362500Y-88679300D01*
X40362700Y-67189800D02*
X40196400Y-67023500D01*
X40196400Y-87448800D02*
X40196400Y-84874300D01*
X21373200Y-73957800D02*
X19762500Y-75568500D01*
X35470000Y-88571800D02*
X39073400Y-88571800D01*
X40196400Y-67023500D02*
X40196400Y-58955500D01*
X39794700Y-58553800D02*
X39794700Y-45382700D01*
X40196400Y-58955500D02*
X39961000Y-58720100D01*
X40598100Y-67425200D02*
X40362700Y-67189800D01*
X35362500Y-88679300D02*
X35470000Y-88571800D01*
X53124300Y-36403400D02*
X51619400Y-37908300D01*
X39961000Y-58720100D02*
X39794700Y-58553800D01*
X39794700Y-45382700D02*
X38608000Y-44196000D01*
X40598100Y-84472600D02*
X40598100Y-67425200D01*
X19762500Y-80637700D02*
X28039500Y-88914700D01*
X39516800Y-84135000D02*
X39516800Y-79314300D01*
X29034800Y-86488600D02*
X29299300Y-86753100D01*
X54276000Y-42302000D02*
X53124300Y-42302000D01*
X25496800Y-68168800D02*
X25496800Y-84668000D01*
X50848400Y-45729600D02*
X53124300Y-43453700D01*
X53124300Y-43453700D02*
X53124300Y-42302000D01*
X38608000Y-66727500D02*
X38608000Y-60198000D01*
X25496800Y-84668000D02*
X27317400Y-86488600D01*
X39794700Y-79036400D02*
X39794700Y-67914200D01*
X50848400Y-64208400D02*
X50848400Y-45729600D01*
X39516800Y-79314300D02*
X39794700Y-79036400D01*
X39794700Y-67914200D02*
X38608000Y-66727500D01*
X21336000Y-64008000D02*
X25496800Y-68168800D01*
X27317400Y-86488600D02*
X29034800Y-86488600D01*
X34960800Y-88513000D02*
X35196200Y-88277600D01*
X28742700Y-88513000D02*
X34960800Y-88513000D01*
X40118500Y-84384200D02*
X40118500Y-79398300D01*
X40196400Y-79320400D02*
X40196400Y-67591500D01*
X21361000Y-69008000D02*
X22586400Y-70233400D01*
X24652100Y-84959300D02*
X26984800Y-87292000D01*
X35196200Y-88277600D02*
X35345900Y-88127900D01*
X39961000Y-67356100D02*
X39794700Y-67189800D01*
X35345900Y-88127900D02*
X38878300Y-88127900D01*
X39794700Y-59278200D02*
X38608000Y-58091500D01*
X40118500Y-79398300D02*
X40196400Y-79320400D01*
X26984800Y-87292000D02*
X27521700Y-87292000D01*
X22586400Y-75461400D02*
X20164200Y-77883600D01*
X24652100Y-84422400D02*
X24652100Y-84959300D01*
X39794700Y-87211500D02*
X39794700Y-84708000D01*
X20164200Y-77883600D02*
X20164200Y-79934500D01*
X27521700Y-87292000D02*
X28742700Y-88513000D01*
X35196200Y-88277600D02*
X35345900Y-88127900D01*
X38878300Y-88127900D02*
X39794700Y-87211500D01*
X39794700Y-84708000D02*
X40118500Y-84384200D01*
X39961000Y-67356100D02*
X39794700Y-67189800D01*
X39794700Y-67189800D02*
X39794700Y-59278200D01*
X40196400Y-67591500D02*
X39961000Y-67356100D01*
X38608000Y-58091500D02*
X38608000Y-52087000D01*
X22586400Y-70233400D02*
X22586400Y-75461400D01*
X20164200Y-79934500D02*
X24652100Y-84422400D01*
X44919900Y-76861200D02*
X44919900Y-68046700D01*
X44919800Y-78384700D02*
X45295500Y-78009000D01*
X45295500Y-77236800D02*
X44919900Y-76861200D01*
X69616000Y-48973000D02*
X67939800Y-50649200D01*
X44919900Y-68046700D02*
X46268000Y-66698600D01*
X65960000Y-34925000D02*
X67258700Y-33626300D01*
X69616000Y-34326500D02*
X69616000Y-48973000D01*
X67258700Y-33626300D02*
X68915800Y-33626300D01*
X45295500Y-78009000D02*
X45295500Y-77236800D01*
X67939800Y-50649200D02*
X67939800Y-61103900D01*
X43563200Y-92935200D02*
X44919800Y-91578600D01*
X44919800Y-91578600D02*
X44919800Y-78384700D01*
X67939800Y-61103900D02*
X64070000Y-64973700D01*
X68915800Y-33626300D02*
X69616000Y-34326500D01*
X67308300Y-36076700D02*
X67308300Y-34925000D01*
X52425600Y-95412700D02*
X52425600Y-70542100D01*
X52425600Y-70542100D02*
X56193800Y-66773900D01*
X64710000Y-44243000D02*
X64710000Y-38675000D01*
X68460000Y-34925000D02*
X67308300Y-34925000D01*
X61201400Y-47751600D02*
X64710000Y-44243000D01*
X61201400Y-68234000D02*
X61201400Y-47751600D01*
X64710000Y-38675000D02*
X67308300Y-36076700D01*
X105539300Y-58420000D02*
X107410400Y-60291100D01*
X107410400Y-65926400D02*
X108800200Y-67316200D01*
X47869300Y-72971300D02*
X47869300Y-72149800D01*
X100212000Y-39972200D02*
X100212000Y-53872600D01*
X62299600Y-70986900D02*
X62299600Y-47707100D01*
X62299600Y-47707100D02*
X65960000Y-44046700D01*
X107410400Y-60291100D02*
X107410400Y-65926400D01*
X100212000Y-22653000D02*
X100212000Y-39972200D01*
X104759400Y-58420000D02*
X105539300Y-58420000D01*
X65960000Y-44046700D02*
X65960000Y-42200000D01*
X46268000Y-74572600D02*
X47869300Y-72971300D01*
X60937800Y-72348700D02*
X62299600Y-70986900D01*
X100212000Y-53872600D02*
X104759400Y-58420000D01*
X56174000Y-74422000D02*
X57525600Y-75773600D01*
X67308300Y-43351700D02*
X67308300Y-42200000D01*
X96402000Y-42977100D02*
X96402000Y-22228100D01*
X96402000Y-22228100D02*
X95603300Y-21429400D01*
X68460000Y-42200000D02*
X67308300Y-42200000D01*
X59126800Y-75773600D02*
X63316300Y-71584100D01*
X95603300Y-21429400D02*
X91275600Y-21429400D01*
X63316300Y-47343700D02*
X67308300Y-43351700D01*
X57525600Y-75773600D02*
X59126800Y-75773600D01*
X63316300Y-71584100D02*
X63316300Y-47343700D01*
X96402000Y-53463000D02*
X96402000Y-42977100D01*
X91275600Y-21429400D02*
X90052000Y-22653000D01*
X105169000Y-62230000D02*
X96402000Y-53463000D01*
X55466400Y-31253100D02*
X55466400Y-48869700D01*
X69114000Y-58855100D02*
X69114000Y-59182000D01*
X69132200Y-68180800D02*
X69114000Y-68199000D01*
X52915000Y-28701700D02*
X55466400Y-31253100D01*
X69114000Y-68199000D02*
X69114000Y-74676000D01*
X69114000Y-59182000D02*
X69114000Y-65559200D01*
X69132200Y-66879100D02*
X69132200Y-68180800D01*
X69114000Y-58855100D02*
X69114000Y-57880300D01*
X52915000Y-25400000D02*
X52915000Y-28701700D01*
X69132200Y-66879100D02*
X69132200Y-65577400D01*
X69114000Y-57880300D02*
X69094000Y-57860300D01*
X69114000Y-65559200D02*
X69132200Y-65577400D01*
X69094000Y-57860300D02*
X69094000Y-51545000D01*
X74344300Y-29282400D02*
X74344300Y-75684700D01*
X69625000Y-24563100D02*
X74344300Y-29282400D01*
X74344300Y-75684700D02*
X76135800Y-77476200D01*
X41266600Y-75386400D02*
X41266600Y-58194000D01*
X41266600Y-58194000D02*
X40781200Y-57708600D01*
X84972000Y-32954600D02*
X84972000Y-22653000D01*
X76135800Y-72396200D02*
X78226900Y-70305100D01*
X78226900Y-58361400D02*
X78226900Y-39699700D01*
X78226900Y-70305100D02*
X78226900Y-58361400D01*
X78226900Y-39699700D02*
X84972000Y-32954600D01*
X43318700Y-84410100D02*
X41024000Y-86704800D01*
X43318700Y-60654900D02*
X43318700Y-84410100D01*
X74946200Y-28989000D02*
X69716100Y-23758900D01*
X20919800Y-39302800D02*
X20919800Y-23693700D01*
X22518000Y-40901000D02*
X20919800Y-39302800D01*
X24755500Y-21652800D02*
X25354000Y-22251300D01*
X20919800Y-23693700D02*
X22960700Y-21652800D01*
X74946200Y-68666600D02*
X74946200Y-28989000D01*
X76135800Y-69856200D02*
X74946200Y-68666600D01*
X22960700Y-21652800D02*
X24755500Y-21652800D01*
X21333400Y-30292500D02*
X22273200Y-29352700D01*
X23054900Y-29352700D02*
X23673200Y-28734400D01*
X103992300Y-53433300D02*
X103992300Y-23186100D01*
X22273200Y-29352700D02*
X23054900Y-29352700D01*
X23673200Y-28734400D02*
X23673200Y-22711700D01*
X22518000Y-35821000D02*
X21333400Y-34636400D01*
X103992300Y-23186100D02*
X104825400Y-22353000D01*
X21333400Y-34636400D02*
X21333400Y-30292500D01*
X23673200Y-22711700D02*
X23244700Y-22283200D01*
X105169000Y-54610000D02*
X103992300Y-53433300D01*
X95132000Y-22653000D02*
X95132000Y-54733000D01*
X95132000Y-54733000D02*
X105169000Y-64770000D01*
X31496000Y-97138000D02*
X44266100Y-84367900D01*
X44266100Y-84367900D02*
X44266100Y-77913700D01*
X44266100Y-77913700D02*
X44693800Y-77486000D01*
X46148600Y-51592600D02*
X44500600Y-53240600D01*
X44500600Y-77292800D02*
X44693800Y-77486000D01*
X44500600Y-53240600D02*
X44500600Y-77292800D01*
X47498000Y-74056000D02*
X52242900Y-69311100D01*
X41656000Y-97138000D02*
X47498000Y-91296000D01*
X52242900Y-69311100D02*
X52242900Y-55493100D01*
X47498000Y-91296000D02*
X47498000Y-74056000D01*
X52242900Y-55493100D02*
X56169900Y-51566100D01*
X52242900Y-69311100D02*
X52425600Y-69493800D01*
X106983100Y-39242200D02*
X104825400Y-37084500D01*
X108800200Y-59696200D02*
X106983100Y-57879100D01*
X106983100Y-57879100D02*
X106983100Y-39242200D01*
M02*
