G04 #@! TF.GenerationSoftware,KiCad,Pcbnew,9.0.7*
G04 #@! TF.CreationDate,2026-03-15T00:28:53+09:00*
G04 #@! TF.ProjectId,ESP32-S3-ROS-IO-V2.0a,45535033-322d-4533-932d-524f532d494f,rev?*
G04 #@! TF.SameCoordinates,Original*
G04 #@! TF.FileFunction,Legend,Bot*
G04 #@! TF.FilePolarity,Positive*
%FSLAX46Y46*%
G04 Gerber Fmt 4.6, Leading zero omitted, Abs format (unit mm)*
G04 Created by KiCad (PCBNEW 9.0.7) date 2026-03-15 00:28:53*
%MOMM*%
%LPD*%
G01*
G04 APERTURE LIST*
%ADD10C,0.200000*%
G04 APERTURE END LIST*
D10*
G36*
X133140189Y-120859333D02*
G01*
X133158275Y-120893242D01*
X133158275Y-121083984D01*
X133143618Y-121115130D01*
X132977322Y-121135917D01*
X132977322Y-120938216D01*
X133002893Y-120883876D01*
X133054472Y-120851639D01*
X133103373Y-120845527D01*
X133140189Y-120859333D01*
G37*
G36*
X133043711Y-119942201D02*
G01*
X133110882Y-119967390D01*
X133131033Y-119985021D01*
X133158275Y-120036100D01*
X133158275Y-120083984D01*
X133126322Y-120151883D01*
X133097843Y-120183921D01*
X133023300Y-120230510D01*
X132853233Y-120294285D01*
X132639226Y-120321036D01*
X132472837Y-120300237D01*
X132405666Y-120275048D01*
X132385516Y-120257417D01*
X132358275Y-120206339D01*
X132358275Y-120158454D01*
X132390226Y-120090556D01*
X132418702Y-120058520D01*
X132493249Y-120011928D01*
X132663314Y-119948153D01*
X132877321Y-119921402D01*
X133043711Y-119942201D01*
G37*
G36*
X134292028Y-117381604D02*
G01*
X134260075Y-117449503D01*
X134231598Y-117481539D01*
X134167258Y-117521752D01*
X134070738Y-117533817D01*
X134015610Y-117513144D01*
X133995460Y-117495513D01*
X133968219Y-117444435D01*
X133968219Y-117176760D01*
X134292028Y-117136284D01*
X134292028Y-117381604D01*
G37*
G36*
X134292028Y-116381604D02*
G01*
X134260075Y-116449503D01*
X134231598Y-116481539D01*
X134167258Y-116521752D01*
X134070738Y-116533817D01*
X134015610Y-116513144D01*
X133995460Y-116495513D01*
X133968219Y-116444435D01*
X133968219Y-116176760D01*
X134292028Y-116136284D01*
X134292028Y-116381604D01*
G37*
G36*
X133110882Y-115491200D02*
G01*
X133131033Y-115508831D01*
X133158275Y-115559910D01*
X133158275Y-115703032D01*
X133143618Y-115734178D01*
X132695087Y-115790244D01*
X132691608Y-115783720D01*
X132691608Y-115640597D01*
X132723559Y-115572699D01*
X132752035Y-115540663D01*
X132816377Y-115500449D01*
X133055754Y-115470527D01*
X133110882Y-115491200D01*
G37*
G36*
X133140189Y-113954571D02*
G01*
X133158275Y-113988480D01*
X133158275Y-114179222D01*
X133143618Y-114210368D01*
X132977322Y-114231155D01*
X132977322Y-114033454D01*
X133002893Y-113979114D01*
X133054472Y-113946877D01*
X133103373Y-113940765D01*
X133140189Y-113954571D01*
G37*
G36*
X133110882Y-113062628D02*
G01*
X133131033Y-113080259D01*
X133158275Y-113131338D01*
X133158275Y-113226841D01*
X133126322Y-113294740D01*
X133097843Y-113326778D01*
X133033506Y-113366989D01*
X132794128Y-113396911D01*
X132738998Y-113376238D01*
X132718850Y-113358608D01*
X132691608Y-113307529D01*
X132691608Y-113212025D01*
X132723559Y-113144127D01*
X132752035Y-113112091D01*
X132816377Y-113071877D01*
X133055754Y-113041955D01*
X133110882Y-113062628D01*
G37*
G36*
X134355468Y-112831067D02*
G01*
X134319637Y-112817630D01*
X134301552Y-112783720D01*
X134301552Y-112640597D01*
X134327123Y-112586257D01*
X134378701Y-112554021D01*
X134410296Y-112550072D01*
X134355468Y-112831067D01*
G37*
G36*
X132634465Y-112339936D02*
G01*
X132602511Y-112407838D01*
X132574037Y-112439871D01*
X132509695Y-112480085D01*
X132460794Y-112486197D01*
X132405666Y-112465524D01*
X132385516Y-112447893D01*
X132358275Y-112396815D01*
X132358275Y-112176759D01*
X132634465Y-112142235D01*
X132634465Y-112339936D01*
G37*
G36*
X133158275Y-112322079D02*
G01*
X133126322Y-112389978D01*
X133097843Y-112422016D01*
X133033506Y-112462227D01*
X132936984Y-112474292D01*
X132881855Y-112453619D01*
X132867843Y-112441358D01*
X132834465Y-112345395D01*
X132834465Y-112117235D01*
X133158275Y-112076759D01*
X133158275Y-112322079D01*
G37*
G36*
X134720826Y-111157867D02*
G01*
X134740977Y-111175498D01*
X134768219Y-111226577D01*
X134768219Y-111322080D01*
X134736266Y-111389979D01*
X134707787Y-111422017D01*
X134643450Y-111462228D01*
X134404072Y-111492150D01*
X134348942Y-111471477D01*
X134328794Y-111453847D01*
X134301552Y-111402768D01*
X134301552Y-111307264D01*
X134333503Y-111239366D01*
X134361979Y-111207330D01*
X134426321Y-111167116D01*
X134665698Y-111137194D01*
X134720826Y-111157867D01*
G37*
G36*
X133072619Y-109791053D02*
G01*
X133131033Y-109842164D01*
X133158275Y-109893243D01*
X133158275Y-110036365D01*
X133126322Y-110104264D01*
X133057123Y-110182113D01*
X132900853Y-110240714D01*
X132591607Y-110279369D01*
X132443929Y-110260910D01*
X132385516Y-110209798D01*
X132358275Y-110158720D01*
X132358275Y-110015597D01*
X132390227Y-109947697D01*
X132459425Y-109869849D01*
X132615693Y-109811249D01*
X132924940Y-109772593D01*
X133072619Y-109791053D01*
G37*
G36*
X134292028Y-109857794D02*
G01*
X134260075Y-109925693D01*
X134231598Y-109957729D01*
X134167258Y-109997942D01*
X134070738Y-110010007D01*
X134015610Y-109989334D01*
X133995460Y-109971703D01*
X133968219Y-109920625D01*
X133968219Y-109652950D01*
X134292028Y-109612474D01*
X134292028Y-109857794D01*
G37*
G36*
X134720826Y-103015010D02*
G01*
X134740977Y-103032641D01*
X134768219Y-103083720D01*
X134768219Y-103226842D01*
X134736266Y-103294741D01*
X134707787Y-103326779D01*
X134643450Y-103366990D01*
X134451689Y-103390960D01*
X134396562Y-103370287D01*
X134376412Y-103352656D01*
X134349171Y-103301578D01*
X134349171Y-103158455D01*
X134381123Y-103090556D01*
X134409598Y-103058521D01*
X134473940Y-103018307D01*
X134665699Y-102994337D01*
X134720826Y-103015010D01*
G37*
G36*
X132682084Y-102333985D02*
G01*
X132650131Y-102401884D01*
X132621654Y-102433920D01*
X132557314Y-102474133D01*
X132460794Y-102486198D01*
X132405666Y-102465525D01*
X132385516Y-102447894D01*
X132358275Y-102396816D01*
X132358275Y-102129141D01*
X132682084Y-102088665D01*
X132682084Y-102333985D01*
G37*
G36*
X134653655Y-101132678D02*
G01*
X134720826Y-101157867D01*
X134740977Y-101175498D01*
X134768219Y-101226577D01*
X134768219Y-101274461D01*
X134736266Y-101342360D01*
X134707787Y-101374398D01*
X134633244Y-101420987D01*
X134463177Y-101484762D01*
X134249170Y-101511513D01*
X134082781Y-101490714D01*
X134015610Y-101465525D01*
X133995460Y-101447894D01*
X133968219Y-101396816D01*
X133968219Y-101348931D01*
X134000170Y-101281033D01*
X134028646Y-101248997D01*
X134103193Y-101202405D01*
X134273258Y-101138630D01*
X134487265Y-101111879D01*
X134653655Y-101132678D01*
G37*
G36*
X135412663Y-121477905D02*
G01*
X132047164Y-121477905D01*
X132047164Y-120951577D01*
X132491608Y-120951577D01*
X132491608Y-121142053D01*
X132493529Y-121161562D01*
X132495409Y-121166102D01*
X132495887Y-121170994D01*
X132503373Y-121189112D01*
X132550992Y-121278398D01*
X132556931Y-121287306D01*
X132558013Y-121289685D01*
X132559352Y-121290936D01*
X132561867Y-121294708D01*
X132574547Y-121305133D01*
X132586523Y-121316323D01*
X132590586Y-121318320D01*
X132592006Y-121319488D01*
X132594511Y-121320250D01*
X132604115Y-121324972D01*
X132699353Y-121360686D01*
X132718294Y-121365737D01*
X132722863Y-121365581D01*
X132727272Y-121366794D01*
X132746868Y-121366281D01*
X133270678Y-121300805D01*
X133289798Y-121296479D01*
X133323716Y-121277191D01*
X133347671Y-121246392D01*
X133358016Y-121208770D01*
X133353176Y-121170054D01*
X133345315Y-121156231D01*
X133348757Y-121148919D01*
X133355326Y-121130448D01*
X133355438Y-121128057D01*
X133356354Y-121125848D01*
X133358275Y-121106339D01*
X133358275Y-120868243D01*
X133356354Y-120848734D01*
X133354473Y-120844193D01*
X133353996Y-120839302D01*
X133346510Y-120821184D01*
X133298891Y-120731899D01*
X133292951Y-120722991D01*
X133291870Y-120720613D01*
X133290530Y-120719361D01*
X133288015Y-120715589D01*
X133275344Y-120705171D01*
X133263361Y-120693974D01*
X133259293Y-120691974D01*
X133257876Y-120690809D01*
X133255374Y-120690047D01*
X133245768Y-120685325D01*
X133150530Y-120649610D01*
X133131588Y-120644559D01*
X133127018Y-120644714D01*
X133122610Y-120643502D01*
X133103013Y-120644015D01*
X133007775Y-120655920D01*
X132988655Y-120660246D01*
X132986819Y-120661289D01*
X132984740Y-120661638D01*
X132967179Y-120670348D01*
X132871941Y-120729872D01*
X132856415Y-120741841D01*
X132851176Y-120749186D01*
X132844504Y-120755258D01*
X132834459Y-120772092D01*
X132786840Y-120873284D01*
X132780271Y-120891754D01*
X132780158Y-120894144D01*
X132779243Y-120896354D01*
X132777322Y-120915863D01*
X132777322Y-121131603D01*
X132762665Y-121162749D01*
X132746508Y-121164769D01*
X132709693Y-121150963D01*
X132691608Y-121117053D01*
X132691608Y-120973930D01*
X132729709Y-120892965D01*
X132736278Y-120874495D01*
X132738116Y-120835520D01*
X132724900Y-120798808D01*
X132698641Y-120769949D01*
X132663337Y-120753335D01*
X132624362Y-120751497D01*
X132587650Y-120764713D01*
X132558790Y-120790972D01*
X132548745Y-120807806D01*
X132501126Y-120908998D01*
X132494557Y-120927468D01*
X132494444Y-120929858D01*
X132493529Y-120932068D01*
X132491608Y-120951577D01*
X132047164Y-120951577D01*
X132047164Y-120136101D01*
X132158275Y-120136101D01*
X132158275Y-120231339D01*
X132160196Y-120250848D01*
X132162076Y-120255388D01*
X132162554Y-120260280D01*
X132170040Y-120278398D01*
X132217659Y-120367683D01*
X132225747Y-120379813D01*
X132226626Y-120381589D01*
X132227682Y-120382714D01*
X132228535Y-120383993D01*
X132230059Y-120385246D01*
X132240043Y-120395881D01*
X132287662Y-120437548D01*
X132299318Y-120445882D01*
X132300809Y-120447275D01*
X132302272Y-120447994D01*
X132303609Y-120448950D01*
X132305553Y-120449607D01*
X132318401Y-120455924D01*
X132413639Y-120491638D01*
X132416193Y-120492319D01*
X132417227Y-120492907D01*
X132424951Y-120494654D01*
X132432580Y-120496689D01*
X132433764Y-120496648D01*
X132436347Y-120497233D01*
X132626823Y-120521043D01*
X132630520Y-120521139D01*
X132632034Y-120521556D01*
X132639227Y-120521367D01*
X132646420Y-120521556D01*
X132647933Y-120521139D01*
X132651631Y-120521043D01*
X132889726Y-120491281D01*
X132892308Y-120490696D01*
X132893493Y-120490737D01*
X132901124Y-120488702D01*
X132908846Y-120486955D01*
X132909878Y-120486367D01*
X132912435Y-120485686D01*
X133102911Y-120414257D01*
X133103119Y-120414154D01*
X133103236Y-120414135D01*
X133111826Y-120409873D01*
X133120503Y-120405608D01*
X133120590Y-120405526D01*
X133120797Y-120405424D01*
X133216036Y-120345901D01*
X133221269Y-120341866D01*
X133223380Y-120340843D01*
X133227321Y-120337200D01*
X133231561Y-120333932D01*
X133232919Y-120332026D01*
X133237777Y-120327538D01*
X133285396Y-120273966D01*
X133289343Y-120268534D01*
X133291093Y-120266943D01*
X133293810Y-120262389D01*
X133296922Y-120258108D01*
X133297695Y-120255877D01*
X133301138Y-120250109D01*
X133348757Y-120148919D01*
X133355326Y-120130448D01*
X133355438Y-120128057D01*
X133356354Y-120125848D01*
X133358275Y-120106339D01*
X133358275Y-120011101D01*
X133356354Y-119991592D01*
X133354473Y-119987051D01*
X133353996Y-119982160D01*
X133346511Y-119964043D01*
X133298891Y-119874756D01*
X133290796Y-119862615D01*
X133289923Y-119860850D01*
X133288873Y-119859731D01*
X133288016Y-119858446D01*
X133286483Y-119857186D01*
X133276506Y-119846557D01*
X133228886Y-119804890D01*
X133217232Y-119796558D01*
X133215740Y-119795164D01*
X133214273Y-119794442D01*
X133212939Y-119793489D01*
X133210997Y-119792832D01*
X133198148Y-119786515D01*
X133102910Y-119750801D01*
X133100353Y-119750119D01*
X133099321Y-119749532D01*
X133091603Y-119747785D01*
X133083969Y-119745750D01*
X133082783Y-119745790D01*
X133080201Y-119745206D01*
X132889726Y-119721396D01*
X132886028Y-119721299D01*
X132884515Y-119720883D01*
X132877322Y-119721071D01*
X132870129Y-119720883D01*
X132868615Y-119721299D01*
X132864919Y-119721396D01*
X132626823Y-119751158D01*
X132624240Y-119751742D01*
X132623056Y-119751702D01*
X132615427Y-119753736D01*
X132607703Y-119755484D01*
X132606669Y-119756071D01*
X132604115Y-119756753D01*
X132413638Y-119828182D01*
X132413426Y-119828285D01*
X132413312Y-119828305D01*
X132404726Y-119832563D01*
X132396046Y-119836831D01*
X132395960Y-119836911D01*
X132395751Y-119837015D01*
X132300513Y-119896539D01*
X132295278Y-119900574D01*
X132293169Y-119901597D01*
X132289231Y-119905236D01*
X132284987Y-119908508D01*
X132283626Y-119910415D01*
X132278772Y-119914902D01*
X132231153Y-119968473D01*
X132227204Y-119973905D01*
X132225457Y-119975496D01*
X132222741Y-119980047D01*
X132219628Y-119984331D01*
X132218854Y-119986561D01*
X132215412Y-119992330D01*
X132167793Y-120093522D01*
X132161224Y-120111992D01*
X132161111Y-120114382D01*
X132160196Y-120116592D01*
X132158275Y-120136101D01*
X132047164Y-120136101D01*
X132047164Y-119349146D01*
X133063295Y-119349146D01*
X133065315Y-119365313D01*
X133066272Y-119381572D01*
X133066446Y-119381931D01*
X133066473Y-119382330D01*
X133067770Y-119384953D01*
X133068134Y-119387863D01*
X133076189Y-119402028D01*
X133083294Y-119416682D01*
X133083591Y-119416946D01*
X133083769Y-119417305D01*
X133086579Y-119420299D01*
X133087422Y-119421780D01*
X133089452Y-119423359D01*
X133097186Y-119431597D01*
X133144806Y-119473264D01*
X133159557Y-119483810D01*
X133160078Y-119484273D01*
X133160324Y-119484358D01*
X133160753Y-119484665D01*
X133178851Y-119490785D01*
X133196941Y-119497061D01*
X133197338Y-119497037D01*
X133197715Y-119497165D01*
X133216797Y-119495893D01*
X133235891Y-119494770D01*
X133236248Y-119494596D01*
X133236647Y-119494570D01*
X133253806Y-119486083D01*
X133271001Y-119477747D01*
X133271389Y-119477388D01*
X133271622Y-119477273D01*
X133272079Y-119476750D01*
X133285397Y-119464442D01*
X133333017Y-119410870D01*
X133344542Y-119395012D01*
X133344672Y-119394635D01*
X133344934Y-119394337D01*
X133345872Y-119391560D01*
X133347671Y-119389249D01*
X133351989Y-119373543D01*
X133357330Y-119358149D01*
X133357306Y-119357751D01*
X133357434Y-119357375D01*
X133357239Y-119354452D01*
X133358016Y-119351627D01*
X133355995Y-119335461D01*
X133355039Y-119319198D01*
X133354864Y-119318837D01*
X133354838Y-119318443D01*
X133353540Y-119315819D01*
X133353177Y-119312910D01*
X133345125Y-119298751D01*
X133338016Y-119284089D01*
X133337718Y-119283824D01*
X133337542Y-119283468D01*
X133334731Y-119280473D01*
X133333889Y-119278993D01*
X133331858Y-119277413D01*
X133324125Y-119269176D01*
X133276506Y-119227510D01*
X133261753Y-119216962D01*
X133261236Y-119216503D01*
X133260991Y-119216418D01*
X133260559Y-119216109D01*
X133242369Y-119209957D01*
X133224373Y-119203714D01*
X133223976Y-119203737D01*
X133223597Y-119203609D01*
X133204503Y-119204882D01*
X133185422Y-119206004D01*
X133185062Y-119206178D01*
X133184665Y-119206205D01*
X133167535Y-119214676D01*
X133150313Y-119223026D01*
X133149924Y-119223385D01*
X133149690Y-119223501D01*
X133149229Y-119224027D01*
X133135916Y-119236331D01*
X133088296Y-119289902D01*
X133076770Y-119305759D01*
X133076639Y-119306136D01*
X133076377Y-119306436D01*
X133075438Y-119309212D01*
X133073640Y-119311524D01*
X133069322Y-119327225D01*
X133063981Y-119342622D01*
X133064004Y-119343021D01*
X133063877Y-119343398D01*
X133064071Y-119346320D01*
X133063295Y-119349146D01*
X132047164Y-119349146D01*
X132047164Y-118612291D01*
X132158275Y-118612291D01*
X132158275Y-118850387D01*
X132160196Y-118869896D01*
X132162076Y-118874436D01*
X132162554Y-118879328D01*
X132170040Y-118897446D01*
X132217659Y-118986731D01*
X132225747Y-118998861D01*
X132226626Y-119000637D01*
X132227682Y-119001762D01*
X132228535Y-119003041D01*
X132230059Y-119004294D01*
X132240043Y-119014929D01*
X132287662Y-119056596D01*
X132299318Y-119064930D01*
X132300809Y-119066323D01*
X132302272Y-119067042D01*
X132303609Y-119067998D01*
X132305553Y-119068655D01*
X132318401Y-119074972D01*
X132413639Y-119110686D01*
X132432580Y-119115737D01*
X132437148Y-119115581D01*
X132441557Y-119116794D01*
X132461154Y-119116281D01*
X132556392Y-119104377D01*
X132564539Y-119102533D01*
X132567120Y-119102438D01*
X132571253Y-119101014D01*
X132575512Y-119100051D01*
X132577754Y-119098775D01*
X132585655Y-119096055D01*
X132728512Y-119030578D01*
X132745447Y-119020703D01*
X132746198Y-119019893D01*
X132747190Y-119019413D01*
X132761587Y-119006108D01*
X133158275Y-118559834D01*
X133158275Y-118915863D01*
X133160196Y-118935372D01*
X133175128Y-118971420D01*
X133202718Y-118999010D01*
X133238766Y-119013942D01*
X133277784Y-119013942D01*
X133313832Y-118999010D01*
X133341422Y-118971420D01*
X133356354Y-118935372D01*
X133358275Y-118915863D01*
X133358275Y-118898006D01*
X133768219Y-118898006D01*
X133768219Y-119469435D01*
X133770140Y-119488944D01*
X133785072Y-119524992D01*
X133812662Y-119552582D01*
X133848710Y-119567514D01*
X133887728Y-119567514D01*
X133923776Y-119552582D01*
X133951366Y-119524992D01*
X133966298Y-119488944D01*
X133968219Y-119469435D01*
X133968219Y-119271999D01*
X134880622Y-119157949D01*
X134899742Y-119153623D01*
X134933660Y-119134335D01*
X134957615Y-119103536D01*
X134967960Y-119065914D01*
X134963121Y-119027197D01*
X134943833Y-118993280D01*
X134913034Y-118969325D01*
X134875412Y-118958980D01*
X134855815Y-118959493D01*
X133968219Y-119070442D01*
X133968219Y-118898006D01*
X133966298Y-118878497D01*
X133951366Y-118842449D01*
X133923776Y-118814859D01*
X133887728Y-118799927D01*
X133848710Y-118799927D01*
X133812662Y-118814859D01*
X133785072Y-118842449D01*
X133770140Y-118878497D01*
X133768219Y-118898006D01*
X133358275Y-118898006D01*
X133358275Y-118296815D01*
X133356354Y-118277306D01*
X133355213Y-118274553D01*
X133355039Y-118271580D01*
X133347784Y-118256618D01*
X133341422Y-118241258D01*
X133339315Y-118239151D01*
X133338016Y-118236471D01*
X133332244Y-118231340D01*
X133768219Y-118231340D01*
X133768219Y-118469435D01*
X133769324Y-118480658D01*
X133769175Y-118483230D01*
X133769855Y-118486051D01*
X133770140Y-118488944D01*
X133771126Y-118491325D01*
X133773769Y-118502287D01*
X133821388Y-118639192D01*
X133829612Y-118656987D01*
X133855557Y-118686129D01*
X133890680Y-118703124D01*
X133929633Y-118705384D01*
X133966485Y-118692566D01*
X133995627Y-118666620D01*
X134012622Y-118631498D01*
X134014882Y-118592545D01*
X134010288Y-118573488D01*
X133968219Y-118452539D01*
X133968219Y-118253693D01*
X134000170Y-118185795D01*
X134028646Y-118153759D01*
X134092988Y-118113545D01*
X134141890Y-118107432D01*
X134197017Y-118128105D01*
X134217166Y-118145736D01*
X134250560Y-118208349D01*
X134295200Y-118381327D01*
X134296183Y-118384015D01*
X134296307Y-118385281D01*
X134299267Y-118392447D01*
X134301935Y-118399738D01*
X134302700Y-118400754D01*
X134303793Y-118403399D01*
X134351412Y-118492684D01*
X134359500Y-118504814D01*
X134360379Y-118506590D01*
X134361435Y-118507715D01*
X134362288Y-118508994D01*
X134363812Y-118510247D01*
X134373796Y-118520882D01*
X134421415Y-118562549D01*
X134433071Y-118570883D01*
X134434562Y-118572276D01*
X134436025Y-118572995D01*
X134437362Y-118573951D01*
X134439306Y-118574608D01*
X134452154Y-118580925D01*
X134547392Y-118616639D01*
X134566333Y-118621690D01*
X134570902Y-118621534D01*
X134575311Y-118622747D01*
X134594908Y-118622234D01*
X134690146Y-118610329D01*
X134709266Y-118606003D01*
X134711099Y-118604960D01*
X134713180Y-118604612D01*
X134730741Y-118595901D01*
X134825980Y-118536378D01*
X134831213Y-118532343D01*
X134833324Y-118531320D01*
X134837265Y-118527677D01*
X134841505Y-118524409D01*
X134842863Y-118522503D01*
X134847721Y-118518015D01*
X134895340Y-118464443D01*
X134899287Y-118459011D01*
X134901037Y-118457420D01*
X134903754Y-118452866D01*
X134906866Y-118448585D01*
X134907639Y-118446354D01*
X134911082Y-118440586D01*
X134958701Y-118339396D01*
X134965270Y-118320925D01*
X134965382Y-118318534D01*
X134966298Y-118316325D01*
X134968219Y-118296816D01*
X134968219Y-118058720D01*
X134967113Y-118047496D01*
X134967263Y-118044925D01*
X134966582Y-118042103D01*
X134966298Y-118039211D01*
X134965311Y-118036829D01*
X134962669Y-118025868D01*
X134915050Y-117888964D01*
X134906826Y-117871169D01*
X134880880Y-117842027D01*
X134845758Y-117825032D01*
X134806805Y-117822772D01*
X134769953Y-117835590D01*
X134740811Y-117861536D01*
X134723816Y-117896658D01*
X134721556Y-117935611D01*
X134726150Y-117954668D01*
X134768219Y-118075615D01*
X134768219Y-118274461D01*
X134736266Y-118342360D01*
X134707787Y-118374398D01*
X134643450Y-118414609D01*
X134594546Y-118420722D01*
X134539419Y-118400049D01*
X134519269Y-118382418D01*
X134485876Y-118319806D01*
X134441237Y-118146828D01*
X134440253Y-118144139D01*
X134440130Y-118142875D01*
X134437168Y-118135707D01*
X134434502Y-118128418D01*
X134433737Y-118127402D01*
X134432645Y-118124758D01*
X134385025Y-118035471D01*
X134376933Y-118023336D01*
X134376058Y-118021565D01*
X134375005Y-118020443D01*
X134374150Y-118019161D01*
X134372621Y-118017903D01*
X134362641Y-118007273D01*
X134315022Y-117965606D01*
X134303365Y-117957271D01*
X134301875Y-117955879D01*
X134300411Y-117955159D01*
X134299075Y-117954204D01*
X134297130Y-117953546D01*
X134284283Y-117947230D01*
X134189045Y-117911516D01*
X134170104Y-117906465D01*
X134165534Y-117906620D01*
X134161126Y-117905408D01*
X134141529Y-117905921D01*
X134046291Y-117917826D01*
X134027171Y-117922152D01*
X134025335Y-117923195D01*
X134023256Y-117923544D01*
X134005695Y-117932254D01*
X133910457Y-117991778D01*
X133905222Y-117995813D01*
X133903113Y-117996836D01*
X133899175Y-118000475D01*
X133894931Y-118003747D01*
X133893570Y-118005654D01*
X133888716Y-118010141D01*
X133841097Y-118063712D01*
X133837148Y-118069144D01*
X133835401Y-118070735D01*
X133832685Y-118075286D01*
X133829572Y-118079570D01*
X133828798Y-118081800D01*
X133825356Y-118087569D01*
X133777737Y-118188761D01*
X133771168Y-118207231D01*
X133771055Y-118209621D01*
X133770140Y-118211831D01*
X133768219Y-118231340D01*
X133332244Y-118231340D01*
X133325586Y-118225422D01*
X133313832Y-118213668D01*
X133311080Y-118212528D01*
X133308854Y-118210549D01*
X133293146Y-118205099D01*
X133277784Y-118198736D01*
X133274804Y-118198736D01*
X133271991Y-118197760D01*
X133255397Y-118198736D01*
X133238766Y-118198736D01*
X133236013Y-118199876D01*
X133233040Y-118200051D01*
X133218078Y-118207305D01*
X133202718Y-118213668D01*
X133200611Y-118215774D01*
X133197931Y-118217074D01*
X133183534Y-118230379D01*
X132626070Y-118857524D01*
X132516315Y-118907829D01*
X132460794Y-118914769D01*
X132405666Y-118894096D01*
X132385516Y-118876465D01*
X132358275Y-118825387D01*
X132358275Y-118634645D01*
X132390227Y-118566746D01*
X132428254Y-118523966D01*
X132439779Y-118508109D01*
X132452568Y-118471246D01*
X132450277Y-118432295D01*
X132433255Y-118397186D01*
X132404092Y-118371264D01*
X132367230Y-118358475D01*
X132328279Y-118360766D01*
X132293169Y-118377788D01*
X132278772Y-118391093D01*
X132231153Y-118444664D01*
X132227204Y-118450096D01*
X132225457Y-118451687D01*
X132222741Y-118456238D01*
X132219628Y-118460522D01*
X132218854Y-118462752D01*
X132215412Y-118468521D01*
X132167793Y-118569711D01*
X132161224Y-118588181D01*
X132161111Y-118590572D01*
X132160196Y-118592782D01*
X132158275Y-118612291D01*
X132047164Y-118612291D01*
X132047164Y-117516148D01*
X132158279Y-117516148D01*
X132165545Y-117554484D01*
X132186928Y-117587121D01*
X132219172Y-117609091D01*
X132237880Y-117614951D01*
X132940050Y-117761237D01*
X132216610Y-118092814D01*
X132199675Y-118102688D01*
X132173127Y-118131282D01*
X132159541Y-118167859D01*
X132160986Y-118206850D01*
X132177243Y-118242320D01*
X132205837Y-118268868D01*
X132242414Y-118282454D01*
X132281405Y-118281009D01*
X132299940Y-118274626D01*
X133299940Y-117816294D01*
X133316875Y-117806419D01*
X133322021Y-117800875D01*
X133328343Y-117796734D01*
X133335171Y-117786712D01*
X133343423Y-117777825D01*
X133346054Y-117770739D01*
X133350313Y-117764490D01*
X133352786Y-117752616D01*
X133357009Y-117741249D01*
X133356728Y-117733694D01*
X133358271Y-117726292D01*
X133356012Y-117714375D01*
X133355563Y-117702257D01*
X133352412Y-117695383D01*
X133351005Y-117687956D01*
X133344359Y-117677813D01*
X133339306Y-117666787D01*
X133333764Y-117661642D01*
X133329622Y-117655319D01*
X133319599Y-117648490D01*
X133310713Y-117640239D01*
X133303627Y-117637607D01*
X133297378Y-117633349D01*
X133278670Y-117627489D01*
X132278670Y-117419155D01*
X132259180Y-117417057D01*
X132220844Y-117424323D01*
X132188207Y-117445706D01*
X132166237Y-117477950D01*
X132158279Y-117516148D01*
X132047164Y-117516148D01*
X132047164Y-116344434D01*
X132777322Y-116344434D01*
X132777322Y-117106339D01*
X132779243Y-117125848D01*
X132794175Y-117161896D01*
X132821765Y-117189486D01*
X132857813Y-117204418D01*
X132896831Y-117204418D01*
X132932879Y-117189486D01*
X132960469Y-117161896D01*
X132975401Y-117125848D01*
X132977322Y-117106339D01*
X132977322Y-117088482D01*
X133768219Y-117088482D01*
X133768219Y-117469435D01*
X133770140Y-117488944D01*
X133772020Y-117493484D01*
X133772498Y-117498376D01*
X133779984Y-117516494D01*
X133827603Y-117605779D01*
X133835691Y-117617909D01*
X133836570Y-117619685D01*
X133837626Y-117620810D01*
X133838479Y-117622089D01*
X133840003Y-117623342D01*
X133849987Y-117633977D01*
X133897606Y-117675644D01*
X133909262Y-117683978D01*
X133910753Y-117685371D01*
X133912216Y-117686090D01*
X133913553Y-117687046D01*
X133915497Y-117687703D01*
X133928345Y-117694020D01*
X134023583Y-117729734D01*
X134042524Y-117734785D01*
X134047093Y-117734629D01*
X134051502Y-117735842D01*
X134071098Y-117735329D01*
X134213956Y-117717472D01*
X134233076Y-117713146D01*
X134234909Y-117712103D01*
X134236990Y-117711755D01*
X134254552Y-117703044D01*
X134349790Y-117643520D01*
X134355023Y-117639485D01*
X134357134Y-117638462D01*
X134361075Y-117634819D01*
X134365315Y-117631551D01*
X134366673Y-117629646D01*
X134371531Y-117625157D01*
X134419150Y-117571585D01*
X134423097Y-117566154D01*
X134424846Y-117564563D01*
X134427562Y-117560009D01*
X134430675Y-117555728D01*
X134431448Y-117553497D01*
X134434891Y-117547729D01*
X134482510Y-117446539D01*
X134487841Y-117431546D01*
X134818372Y-117621601D01*
X134836242Y-117629661D01*
X134874935Y-117634685D01*
X134912606Y-117624520D01*
X134943519Y-117600713D01*
X134962969Y-117566888D01*
X134967993Y-117528195D01*
X134957828Y-117490524D01*
X134934021Y-117459610D01*
X134918066Y-117448220D01*
X134492028Y-117203247D01*
X134492028Y-117111284D01*
X134880622Y-117062710D01*
X134899742Y-117058384D01*
X134933660Y-117039096D01*
X134957615Y-117008297D01*
X134967960Y-116970675D01*
X134963121Y-116931958D01*
X134943833Y-116898041D01*
X134913034Y-116874086D01*
X134875412Y-116863741D01*
X134855815Y-116864254D01*
X133855816Y-116989254D01*
X133850737Y-116990403D01*
X133848710Y-116990403D01*
X133846269Y-116991413D01*
X133836695Y-116993580D01*
X133825041Y-117000206D01*
X133812662Y-117005335D01*
X133808228Y-117009768D01*
X133802778Y-117012868D01*
X133794549Y-117023447D01*
X133785072Y-117032925D01*
X133782672Y-117038717D01*
X133778823Y-117043667D01*
X133775269Y-117056588D01*
X133770140Y-117068973D01*
X133769177Y-117078743D01*
X133768478Y-117081289D01*
X133768729Y-117083299D01*
X133768219Y-117088482D01*
X132977322Y-117088482D01*
X132977322Y-116344434D01*
X132975401Y-116324925D01*
X132960469Y-116288877D01*
X132932879Y-116261287D01*
X132896831Y-116246355D01*
X132857813Y-116246355D01*
X132821765Y-116261287D01*
X132794175Y-116288877D01*
X132779243Y-116324925D01*
X132777322Y-116344434D01*
X132047164Y-116344434D01*
X132047164Y-116088482D01*
X133768219Y-116088482D01*
X133768219Y-116469435D01*
X133770140Y-116488944D01*
X133772020Y-116493484D01*
X133772498Y-116498376D01*
X133779984Y-116516494D01*
X133827603Y-116605779D01*
X133835691Y-116617909D01*
X133836570Y-116619685D01*
X133837626Y-116620810D01*
X133838479Y-116622089D01*
X133840003Y-116623342D01*
X133849987Y-116633977D01*
X133897606Y-116675644D01*
X133909262Y-116683978D01*
X133910753Y-116685371D01*
X133912216Y-116686090D01*
X133913553Y-116687046D01*
X133915497Y-116687703D01*
X133928345Y-116694020D01*
X134023583Y-116729734D01*
X134042524Y-116734785D01*
X134047093Y-116734629D01*
X134051502Y-116735842D01*
X134071098Y-116735329D01*
X134213956Y-116717472D01*
X134233076Y-116713146D01*
X134234909Y-116712103D01*
X134236990Y-116711755D01*
X134254552Y-116703044D01*
X134349790Y-116643520D01*
X134355023Y-116639485D01*
X134357134Y-116638462D01*
X134361075Y-116634819D01*
X134365315Y-116631551D01*
X134366673Y-116629646D01*
X134371531Y-116625157D01*
X134419150Y-116571585D01*
X134423097Y-116566154D01*
X134424846Y-116564563D01*
X134427562Y-116560009D01*
X134430675Y-116555728D01*
X134431448Y-116553497D01*
X134434891Y-116547729D01*
X134482510Y-116446539D01*
X134487841Y-116431546D01*
X134818372Y-116621601D01*
X134836242Y-116629661D01*
X134874935Y-116634685D01*
X134912606Y-116624520D01*
X134943519Y-116600713D01*
X134962969Y-116566888D01*
X134967993Y-116528195D01*
X134957828Y-116490524D01*
X134934021Y-116459610D01*
X134918066Y-116448220D01*
X134492028Y-116203247D01*
X134492028Y-116111284D01*
X134880622Y-116062710D01*
X134899742Y-116058384D01*
X134933660Y-116039096D01*
X134957615Y-116008297D01*
X134967960Y-115970675D01*
X134963121Y-115931958D01*
X134943833Y-115898041D01*
X134913034Y-115874086D01*
X134875412Y-115863741D01*
X134855815Y-115864254D01*
X133855816Y-115989254D01*
X133850737Y-115990403D01*
X133848710Y-115990403D01*
X133846269Y-115991413D01*
X133836695Y-115993580D01*
X133825041Y-116000206D01*
X133812662Y-116005335D01*
X133808228Y-116009768D01*
X133802778Y-116012868D01*
X133794549Y-116023447D01*
X133785072Y-116032925D01*
X133782672Y-116038717D01*
X133778823Y-116043667D01*
X133775269Y-116056588D01*
X133770140Y-116068973D01*
X133769177Y-116078743D01*
X133768478Y-116081289D01*
X133768729Y-116083299D01*
X133768219Y-116088482D01*
X132047164Y-116088482D01*
X132047164Y-115938432D01*
X132158534Y-115938432D01*
X132163373Y-115977149D01*
X132182661Y-116011066D01*
X132213460Y-116035021D01*
X132251082Y-116045366D01*
X132270678Y-116044853D01*
X133270678Y-115919853D01*
X133289798Y-115915527D01*
X133323716Y-115896239D01*
X133347671Y-115865440D01*
X133358016Y-115827818D01*
X133353177Y-115789101D01*
X133345316Y-115775278D01*
X133348757Y-115767967D01*
X133355326Y-115749496D01*
X133355438Y-115747105D01*
X133356354Y-115744896D01*
X133358275Y-115725387D01*
X133358275Y-115534911D01*
X133356354Y-115515402D01*
X133354473Y-115510861D01*
X133353996Y-115505970D01*
X133346511Y-115487853D01*
X133298891Y-115398566D01*
X133290796Y-115386425D01*
X133289923Y-115384660D01*
X133288873Y-115383541D01*
X133288016Y-115382256D01*
X133286483Y-115380996D01*
X133276506Y-115370367D01*
X133228886Y-115328700D01*
X133217232Y-115320368D01*
X133215740Y-115318974D01*
X133214273Y-115318252D01*
X133212939Y-115317299D01*
X133210997Y-115316642D01*
X133198148Y-115310325D01*
X133102910Y-115274611D01*
X133083969Y-115269560D01*
X133079399Y-115269715D01*
X133074991Y-115268503D01*
X133055394Y-115269016D01*
X132769681Y-115304730D01*
X132750561Y-115309056D01*
X132748725Y-115310099D01*
X132746645Y-115310448D01*
X132729084Y-115319158D01*
X132633846Y-115378682D01*
X132628611Y-115382717D01*
X132626502Y-115383740D01*
X132622564Y-115387379D01*
X132618320Y-115390651D01*
X132616959Y-115392558D01*
X132612105Y-115397045D01*
X132564486Y-115450616D01*
X132560537Y-115456048D01*
X132558790Y-115457639D01*
X132556074Y-115462190D01*
X132552961Y-115466474D01*
X132552187Y-115468704D01*
X132548745Y-115474473D01*
X132501126Y-115575665D01*
X132494557Y-115594135D01*
X132494444Y-115596525D01*
X132493529Y-115598735D01*
X132491608Y-115618244D01*
X132491608Y-115808720D01*
X132492284Y-115815595D01*
X132245872Y-115846397D01*
X132226751Y-115850723D01*
X132192834Y-115870011D01*
X132168879Y-115900810D01*
X132158534Y-115938432D01*
X132047164Y-115938432D01*
X132047164Y-115046815D01*
X132491608Y-115046815D01*
X132491608Y-115142053D01*
X132493529Y-115161562D01*
X132508461Y-115197610D01*
X132536051Y-115225200D01*
X132572099Y-115240132D01*
X132611117Y-115240132D01*
X132647165Y-115225200D01*
X132674755Y-115197610D01*
X132689687Y-115161562D01*
X132691608Y-115142053D01*
X132691608Y-115069168D01*
X132723559Y-115001270D01*
X132752035Y-114969234D01*
X132816376Y-114929021D01*
X133270678Y-114872233D01*
X133289798Y-114867907D01*
X133323716Y-114848619D01*
X133347671Y-114817820D01*
X133358016Y-114780198D01*
X133356962Y-114771767D01*
X134720858Y-114771767D01*
X134725699Y-114810484D01*
X134744987Y-114844401D01*
X134775786Y-114868356D01*
X134813408Y-114878701D01*
X134833005Y-114878187D01*
X134880624Y-114872234D01*
X134899744Y-114867907D01*
X134901575Y-114866865D01*
X134903657Y-114866517D01*
X134921218Y-114857806D01*
X135016457Y-114798283D01*
X135021692Y-114794246D01*
X135023802Y-114793224D01*
X135027740Y-114789584D01*
X135031982Y-114786314D01*
X135033342Y-114784406D01*
X135038198Y-114779919D01*
X135085818Y-114726347D01*
X135097343Y-114710489D01*
X135110131Y-114673626D01*
X135107840Y-114634675D01*
X135090817Y-114599566D01*
X135061655Y-114573644D01*
X135024792Y-114560856D01*
X134985841Y-114563147D01*
X134950732Y-114580170D01*
X134936335Y-114593475D01*
X134898266Y-114636302D01*
X134833927Y-114676514D01*
X134808195Y-114679731D01*
X134789075Y-114684058D01*
X134755158Y-114703346D01*
X134731203Y-114734145D01*
X134720858Y-114771767D01*
X133356962Y-114771767D01*
X133353177Y-114741481D01*
X133333889Y-114707564D01*
X133303090Y-114683609D01*
X133265468Y-114673264D01*
X133245871Y-114673777D01*
X132579204Y-114757111D01*
X132560084Y-114761437D01*
X132526167Y-114780725D01*
X132502212Y-114811524D01*
X132491867Y-114849146D01*
X132496706Y-114887863D01*
X132515994Y-114921780D01*
X132533515Y-114935407D01*
X132501126Y-115004236D01*
X132494557Y-115022706D01*
X132494444Y-115025096D01*
X132493529Y-115027306D01*
X132491608Y-115046815D01*
X132047164Y-115046815D01*
X132047164Y-114046815D01*
X132491608Y-114046815D01*
X132491608Y-114237291D01*
X132493529Y-114256800D01*
X132495409Y-114261340D01*
X132495887Y-114266232D01*
X132503373Y-114284350D01*
X132550992Y-114373636D01*
X132556931Y-114382544D01*
X132558013Y-114384923D01*
X132559352Y-114386174D01*
X132561867Y-114389946D01*
X132574547Y-114400371D01*
X132586523Y-114411561D01*
X132590586Y-114413558D01*
X132592006Y-114414726D01*
X132594511Y-114415488D01*
X132604115Y-114420210D01*
X132699353Y-114455924D01*
X132718294Y-114460975D01*
X132722863Y-114460819D01*
X132727272Y-114462032D01*
X132746868Y-114461519D01*
X133270678Y-114396043D01*
X133289798Y-114391717D01*
X133323716Y-114372429D01*
X133347671Y-114341630D01*
X133358016Y-114304008D01*
X133353985Y-114271765D01*
X133768478Y-114271765D01*
X133773317Y-114310481D01*
X133792605Y-114344399D01*
X133823404Y-114368354D01*
X133861026Y-114378699D01*
X133880622Y-114378186D01*
X134101552Y-114350569D01*
X134101552Y-114475387D01*
X134103473Y-114494896D01*
X134118405Y-114530944D01*
X134145995Y-114558534D01*
X134182043Y-114573466D01*
X134221061Y-114573466D01*
X134257109Y-114558534D01*
X134284699Y-114530944D01*
X134299631Y-114494896D01*
X134301552Y-114475387D01*
X134301552Y-114325570D01*
X134713318Y-114274099D01*
X134750133Y-114287905D01*
X134768219Y-114321815D01*
X134768219Y-114392054D01*
X134770140Y-114411563D01*
X134785072Y-114447611D01*
X134812662Y-114475201D01*
X134848710Y-114490133D01*
X134887728Y-114490133D01*
X134923776Y-114475201D01*
X134951366Y-114447611D01*
X134966298Y-114411563D01*
X134968219Y-114392054D01*
X134968219Y-114296816D01*
X134966298Y-114277307D01*
X134964417Y-114272766D01*
X134963940Y-114267875D01*
X134956455Y-114249758D01*
X134908835Y-114160471D01*
X134902895Y-114151562D01*
X134901814Y-114149184D01*
X134900474Y-114147932D01*
X134897960Y-114144161D01*
X134885279Y-114133735D01*
X134873304Y-114122546D01*
X134869240Y-114120548D01*
X134867821Y-114119381D01*
X134865315Y-114118618D01*
X134855712Y-114113897D01*
X134760473Y-114078183D01*
X134741531Y-114073132D01*
X134736962Y-114073287D01*
X134732554Y-114072075D01*
X134712957Y-114072588D01*
X134301552Y-114124013D01*
X134301552Y-114094435D01*
X134299631Y-114074926D01*
X134284699Y-114038878D01*
X134257109Y-114011288D01*
X134221061Y-113996356D01*
X134182043Y-113996356D01*
X134145995Y-114011288D01*
X134118405Y-114038878D01*
X134103473Y-114074926D01*
X134101552Y-114094435D01*
X134101552Y-114149013D01*
X133855816Y-114179730D01*
X133836696Y-114184056D01*
X133802778Y-114203344D01*
X133778823Y-114234143D01*
X133768478Y-114271765D01*
X133353985Y-114271765D01*
X133353176Y-114265292D01*
X133345315Y-114251469D01*
X133348757Y-114244157D01*
X133355326Y-114225686D01*
X133355438Y-114223295D01*
X133356354Y-114221086D01*
X133358275Y-114201577D01*
X133358275Y-113963481D01*
X133356354Y-113943972D01*
X133354473Y-113939431D01*
X133353996Y-113934540D01*
X133346510Y-113916422D01*
X133298891Y-113827137D01*
X133292951Y-113818229D01*
X133291870Y-113815851D01*
X133290530Y-113814599D01*
X133288015Y-113810827D01*
X133275344Y-113800409D01*
X133263361Y-113789212D01*
X133259293Y-113787212D01*
X133257876Y-113786047D01*
X133255374Y-113785285D01*
X133245768Y-113780563D01*
X133150530Y-113744848D01*
X133131588Y-113739797D01*
X133127018Y-113739952D01*
X133122610Y-113738740D01*
X133103013Y-113739253D01*
X133007775Y-113751158D01*
X132988655Y-113755484D01*
X132986819Y-113756527D01*
X132984740Y-113756876D01*
X132967179Y-113765586D01*
X132871941Y-113825110D01*
X132856415Y-113837079D01*
X132851176Y-113844424D01*
X132844504Y-113850496D01*
X132834459Y-113867330D01*
X132786840Y-113968522D01*
X132780271Y-113986992D01*
X132780158Y-113989382D01*
X132779243Y-113991592D01*
X132777322Y-114011101D01*
X132777322Y-114226841D01*
X132762665Y-114257987D01*
X132746508Y-114260007D01*
X132709693Y-114246201D01*
X132691608Y-114212291D01*
X132691608Y-114069168D01*
X132729709Y-113988203D01*
X132736278Y-113969733D01*
X132738116Y-113930758D01*
X132724900Y-113894046D01*
X132698641Y-113865187D01*
X132663337Y-113848573D01*
X132624362Y-113846735D01*
X132587650Y-113859951D01*
X132558790Y-113886210D01*
X132548745Y-113903044D01*
X132501126Y-114004236D01*
X132494557Y-114022706D01*
X132494444Y-114025096D01*
X132493529Y-114027306D01*
X132491608Y-114046815D01*
X132047164Y-114046815D01*
X132047164Y-113189672D01*
X132491608Y-113189672D01*
X132491608Y-113332529D01*
X132493529Y-113352038D01*
X132495409Y-113356578D01*
X132495887Y-113361470D01*
X132503373Y-113379588D01*
X132550992Y-113468874D01*
X132559085Y-113481011D01*
X132559960Y-113482781D01*
X132561011Y-113483901D01*
X132561867Y-113485184D01*
X132563396Y-113486441D01*
X132573377Y-113497073D01*
X132620996Y-113538739D01*
X132632645Y-113547067D01*
X132634141Y-113548465D01*
X132635611Y-113549187D01*
X132636943Y-113550140D01*
X132638881Y-113550795D01*
X132651733Y-113557114D01*
X132746971Y-113592829D01*
X132765912Y-113597880D01*
X132770482Y-113597724D01*
X132774891Y-113598937D01*
X132794488Y-113598424D01*
X133080202Y-113562709D01*
X133099322Y-113558383D01*
X133101155Y-113557340D01*
X133103236Y-113556992D01*
X133120797Y-113548281D01*
X133161238Y-113523006D01*
X134101552Y-113523006D01*
X134101552Y-113713482D01*
X134103473Y-113732991D01*
X134105353Y-113737531D01*
X134105831Y-113742423D01*
X134113317Y-113760541D01*
X134160936Y-113849827D01*
X134171811Y-113866137D01*
X134201950Y-113890917D01*
X134239278Y-113902278D01*
X134278112Y-113898489D01*
X134312540Y-113880128D01*
X134337320Y-113849989D01*
X134348681Y-113812661D01*
X134344892Y-113773827D01*
X134337407Y-113755710D01*
X134301552Y-113688482D01*
X134301552Y-113545359D01*
X134333503Y-113477461D01*
X134361979Y-113445425D01*
X134426321Y-113405211D01*
X134665698Y-113375289D01*
X134720826Y-113395962D01*
X134740977Y-113413593D01*
X134768219Y-113464672D01*
X134768219Y-113607794D01*
X134730118Y-113688759D01*
X134723549Y-113707229D01*
X134721711Y-113746204D01*
X134734927Y-113782916D01*
X134761186Y-113811776D01*
X134796490Y-113828390D01*
X134835465Y-113830228D01*
X134872177Y-113817012D01*
X134901037Y-113790753D01*
X134911082Y-113773919D01*
X134958701Y-113672729D01*
X134965270Y-113654258D01*
X134965382Y-113651867D01*
X134966298Y-113649658D01*
X134968219Y-113630149D01*
X134968219Y-113439673D01*
X134966298Y-113420164D01*
X134964417Y-113415623D01*
X134963940Y-113410732D01*
X134956455Y-113392615D01*
X134908835Y-113303328D01*
X134900740Y-113291187D01*
X134899867Y-113289422D01*
X134898817Y-113288303D01*
X134897960Y-113287018D01*
X134896427Y-113285758D01*
X134886450Y-113275129D01*
X134838830Y-113233462D01*
X134827176Y-113225130D01*
X134825684Y-113223736D01*
X134824217Y-113223014D01*
X134822883Y-113222061D01*
X134820941Y-113221404D01*
X134808092Y-113215087D01*
X134712854Y-113179373D01*
X134693913Y-113174322D01*
X134689343Y-113174477D01*
X134684935Y-113173265D01*
X134665338Y-113173778D01*
X134379625Y-113209492D01*
X134360505Y-113213818D01*
X134358669Y-113214861D01*
X134356589Y-113215210D01*
X134339028Y-113223920D01*
X134243790Y-113283444D01*
X134238555Y-113287479D01*
X134236446Y-113288502D01*
X134232508Y-113292141D01*
X134228264Y-113295413D01*
X134226903Y-113297320D01*
X134222049Y-113301807D01*
X134174430Y-113355378D01*
X134170481Y-113360810D01*
X134168734Y-113362401D01*
X134166018Y-113366952D01*
X134162905Y-113371236D01*
X134162131Y-113373466D01*
X134158689Y-113379235D01*
X134111070Y-113480427D01*
X134104501Y-113498897D01*
X134104388Y-113501287D01*
X134103473Y-113503497D01*
X134101552Y-113523006D01*
X133161238Y-113523006D01*
X133216036Y-113488758D01*
X133221269Y-113484723D01*
X133223380Y-113483700D01*
X133227321Y-113480057D01*
X133231561Y-113476789D01*
X133232919Y-113474883D01*
X133237777Y-113470395D01*
X133285396Y-113416823D01*
X133289343Y-113411391D01*
X133291093Y-113409800D01*
X133293810Y-113405246D01*
X133296922Y-113400965D01*
X133297695Y-113398734D01*
X133301138Y-113392966D01*
X133348757Y-113291776D01*
X133355326Y-113273305D01*
X133355438Y-113270914D01*
X133356354Y-113268705D01*
X133358275Y-113249196D01*
X133358275Y-113106339D01*
X133356354Y-113086830D01*
X133354473Y-113082289D01*
X133353996Y-113077398D01*
X133346511Y-113059281D01*
X133298891Y-112969994D01*
X133290796Y-112957853D01*
X133289923Y-112956088D01*
X133288873Y-112954969D01*
X133288016Y-112953684D01*
X133286483Y-112952424D01*
X133276506Y-112941795D01*
X133228886Y-112900128D01*
X133217232Y-112891796D01*
X133215740Y-112890402D01*
X133214273Y-112889680D01*
X133212939Y-112888727D01*
X133210997Y-112888070D01*
X133198148Y-112881753D01*
X133102910Y-112846039D01*
X133083969Y-112840988D01*
X133079399Y-112841143D01*
X133074991Y-112839931D01*
X133055394Y-112840444D01*
X132769681Y-112876158D01*
X132750561Y-112880484D01*
X132748725Y-112881527D01*
X132746645Y-112881876D01*
X132729084Y-112890586D01*
X132633846Y-112950110D01*
X132628611Y-112954145D01*
X132626502Y-112955168D01*
X132622564Y-112958807D01*
X132618320Y-112962079D01*
X132616959Y-112963986D01*
X132612105Y-112968473D01*
X132564486Y-113022044D01*
X132560537Y-113027476D01*
X132558790Y-113029067D01*
X132556074Y-113033618D01*
X132552961Y-113037902D01*
X132552187Y-113040132D01*
X132548745Y-113045901D01*
X132501126Y-113147093D01*
X132494557Y-113165563D01*
X132494444Y-113167953D01*
X132493529Y-113170163D01*
X132491608Y-113189672D01*
X132047164Y-113189672D01*
X132047164Y-112088481D01*
X132158275Y-112088481D01*
X132158275Y-112421815D01*
X132160196Y-112441324D01*
X132162076Y-112445864D01*
X132162554Y-112450756D01*
X132170040Y-112468874D01*
X132217659Y-112558159D01*
X132225747Y-112570289D01*
X132226626Y-112572065D01*
X132227682Y-112573190D01*
X132228535Y-112574469D01*
X132230059Y-112575722D01*
X132240043Y-112586357D01*
X132287662Y-112628024D01*
X132299318Y-112636358D01*
X132300809Y-112637751D01*
X132302272Y-112638470D01*
X132303609Y-112639426D01*
X132305553Y-112640083D01*
X132318401Y-112646400D01*
X132413639Y-112682114D01*
X132432580Y-112687165D01*
X132437148Y-112687009D01*
X132441557Y-112688222D01*
X132461154Y-112687709D01*
X132556392Y-112675805D01*
X132575512Y-112671479D01*
X132577345Y-112670436D01*
X132579427Y-112670088D01*
X132596989Y-112661377D01*
X132692227Y-112601853D01*
X132697462Y-112597816D01*
X132699572Y-112596794D01*
X132703510Y-112593154D01*
X132707752Y-112589884D01*
X132709111Y-112587977D01*
X132713968Y-112583489D01*
X132719476Y-112577291D01*
X132763853Y-112616120D01*
X132775502Y-112624448D01*
X132776998Y-112625846D01*
X132778468Y-112626568D01*
X132779800Y-112627521D01*
X132781738Y-112628176D01*
X132794590Y-112634495D01*
X132889828Y-112670210D01*
X132908769Y-112675261D01*
X132913339Y-112675105D01*
X132917748Y-112676318D01*
X132937345Y-112675805D01*
X133080202Y-112657947D01*
X133099322Y-112653621D01*
X133101155Y-112652578D01*
X133103236Y-112652230D01*
X133120797Y-112643519D01*
X133161238Y-112618244D01*
X134101552Y-112618244D01*
X134101552Y-112808720D01*
X134103473Y-112828229D01*
X134105353Y-112832769D01*
X134105831Y-112837661D01*
X134113317Y-112855779D01*
X134160936Y-112945065D01*
X134166875Y-112953973D01*
X134167957Y-112956352D01*
X134169296Y-112957603D01*
X134171811Y-112961375D01*
X134184491Y-112971800D01*
X134196467Y-112982990D01*
X134200530Y-112984987D01*
X134201950Y-112986155D01*
X134204455Y-112986917D01*
X134214059Y-112991639D01*
X134309297Y-113027353D01*
X134328238Y-113032404D01*
X134332807Y-113032248D01*
X134337216Y-113033461D01*
X134356813Y-113032948D01*
X134452051Y-113021043D01*
X134471171Y-113016717D01*
X134474500Y-113014823D01*
X134478252Y-113014063D01*
X134491351Y-113005240D01*
X134505088Y-112997429D01*
X134507439Y-112994405D01*
X134510615Y-112992267D01*
X134519342Y-112979102D01*
X134529043Y-112966630D01*
X134530058Y-112962937D01*
X134532174Y-112959746D01*
X134537796Y-112940966D01*
X134619162Y-112523963D01*
X134713317Y-112512194D01*
X134750133Y-112526000D01*
X134768219Y-112559909D01*
X134768219Y-112703032D01*
X134730118Y-112783997D01*
X134723549Y-112802467D01*
X134721711Y-112841442D01*
X134734927Y-112878154D01*
X134761186Y-112907014D01*
X134796490Y-112923628D01*
X134835465Y-112925466D01*
X134872177Y-112912250D01*
X134901037Y-112885991D01*
X134911082Y-112869157D01*
X134958701Y-112767967D01*
X134965270Y-112749496D01*
X134965382Y-112747105D01*
X134966298Y-112744896D01*
X134968219Y-112725387D01*
X134968219Y-112534910D01*
X134966298Y-112515401D01*
X134964417Y-112510860D01*
X134963940Y-112505969D01*
X134956454Y-112487851D01*
X134908835Y-112398566D01*
X134902895Y-112389658D01*
X134901814Y-112387280D01*
X134900474Y-112386028D01*
X134897959Y-112382256D01*
X134885288Y-112371838D01*
X134873305Y-112360641D01*
X134869237Y-112358641D01*
X134867820Y-112357476D01*
X134865318Y-112356714D01*
X134855712Y-112351992D01*
X134760474Y-112316277D01*
X134741532Y-112311226D01*
X134736962Y-112311381D01*
X134732554Y-112310169D01*
X134712957Y-112310682D01*
X134332005Y-112358302D01*
X134312885Y-112362628D01*
X134311051Y-112363670D01*
X134308972Y-112364019D01*
X134291410Y-112372730D01*
X134196172Y-112432253D01*
X134180646Y-112444222D01*
X134175408Y-112451565D01*
X134168734Y-112457639D01*
X134158689Y-112474473D01*
X134111070Y-112575665D01*
X134104501Y-112594135D01*
X134104388Y-112596525D01*
X134103473Y-112598735D01*
X134101552Y-112618244D01*
X133161238Y-112618244D01*
X133216036Y-112583996D01*
X133221269Y-112579961D01*
X133223380Y-112578938D01*
X133227321Y-112575295D01*
X133231561Y-112572027D01*
X133232919Y-112570121D01*
X133237777Y-112565633D01*
X133285396Y-112512061D01*
X133289343Y-112506629D01*
X133291093Y-112505038D01*
X133293810Y-112500484D01*
X133296922Y-112496203D01*
X133297695Y-112493972D01*
X133301138Y-112488204D01*
X133348757Y-112387014D01*
X133355326Y-112368543D01*
X133355438Y-112366152D01*
X133356354Y-112363943D01*
X133358275Y-112344434D01*
X133358275Y-112081288D01*
X133768478Y-112081288D01*
X133770498Y-112097453D01*
X133771455Y-112113716D01*
X133771628Y-112114073D01*
X133771655Y-112114472D01*
X133772953Y-112117098D01*
X133773317Y-112120005D01*
X133781367Y-112134162D01*
X133788477Y-112148826D01*
X133788774Y-112149090D01*
X133788951Y-112149447D01*
X133791763Y-112152442D01*
X133792605Y-112153923D01*
X133794635Y-112155502D01*
X133802368Y-112163739D01*
X133849987Y-112205406D01*
X133864743Y-112215956D01*
X133865259Y-112216415D01*
X133865502Y-112216499D01*
X133865934Y-112216808D01*
X133884088Y-112222947D01*
X133902122Y-112229204D01*
X133902519Y-112229180D01*
X133902896Y-112229308D01*
X133921978Y-112228036D01*
X133941072Y-112226913D01*
X133941429Y-112226739D01*
X133941828Y-112226713D01*
X133958985Y-112218228D01*
X133976182Y-112209891D01*
X133976570Y-112209531D01*
X133976803Y-112209417D01*
X133977259Y-112208894D01*
X133990579Y-112196586D01*
X134038198Y-112143014D01*
X134049723Y-112127157D01*
X134049852Y-112126782D01*
X134050116Y-112126482D01*
X134051054Y-112123705D01*
X134052853Y-112121394D01*
X134057173Y-112105682D01*
X134062512Y-112090294D01*
X134062488Y-112089896D01*
X134062616Y-112089520D01*
X134062421Y-112086597D01*
X134063198Y-112083772D01*
X134061177Y-112067606D01*
X134060221Y-112051343D01*
X134060047Y-112050984D01*
X134060021Y-112050589D01*
X134058722Y-112047963D01*
X134058359Y-112045055D01*
X134055270Y-112039623D01*
X134101811Y-112039623D01*
X134106650Y-112078340D01*
X134125938Y-112112257D01*
X134156737Y-112136212D01*
X134194359Y-112146557D01*
X134213955Y-112146044D01*
X135071098Y-112038901D01*
X135090218Y-112034575D01*
X135092051Y-112033532D01*
X135094133Y-112033184D01*
X135111695Y-112024473D01*
X135206933Y-111964949D01*
X135222458Y-111952980D01*
X135227694Y-111945636D01*
X135234370Y-111939563D01*
X135244415Y-111922729D01*
X135292034Y-111821539D01*
X135298603Y-111803068D01*
X135298715Y-111800677D01*
X135299631Y-111798468D01*
X135301552Y-111778959D01*
X135301552Y-111731340D01*
X135299631Y-111711831D01*
X135284699Y-111675783D01*
X135257109Y-111648193D01*
X135221061Y-111633261D01*
X135182043Y-111633261D01*
X135145995Y-111648193D01*
X135118405Y-111675783D01*
X135103473Y-111711831D01*
X135101552Y-111731340D01*
X135101552Y-111756604D01*
X135075980Y-111810944D01*
X135024401Y-111843181D01*
X134189149Y-111947588D01*
X134170028Y-111951914D01*
X134136111Y-111971202D01*
X134112156Y-112002001D01*
X134101811Y-112039623D01*
X134055270Y-112039623D01*
X134050309Y-112030900D01*
X134043199Y-112016234D01*
X134042901Y-112015969D01*
X134042725Y-112015613D01*
X134039912Y-112012617D01*
X134039071Y-112011137D01*
X134037040Y-112009557D01*
X134029308Y-112001321D01*
X133981689Y-111959654D01*
X133966932Y-111949103D01*
X133966417Y-111948645D01*
X133966173Y-111948560D01*
X133965742Y-111948252D01*
X133947607Y-111942119D01*
X133929555Y-111935856D01*
X133929156Y-111935879D01*
X133928780Y-111935752D01*
X133909693Y-111937024D01*
X133890604Y-111938147D01*
X133890246Y-111938320D01*
X133889848Y-111938347D01*
X133872690Y-111946831D01*
X133855494Y-111955169D01*
X133855105Y-111955528D01*
X133854873Y-111955643D01*
X133854416Y-111956165D01*
X133841097Y-111968474D01*
X133793478Y-112022045D01*
X133781953Y-112037903D01*
X133781823Y-112038277D01*
X133781560Y-112038578D01*
X133780621Y-112041354D01*
X133778823Y-112043666D01*
X133774502Y-112059377D01*
X133769164Y-112074766D01*
X133769187Y-112075163D01*
X133769060Y-112075540D01*
X133769254Y-112078462D01*
X133768478Y-112081288D01*
X133358275Y-112081288D01*
X133358275Y-111963481D01*
X133356354Y-111943972D01*
X133353954Y-111938179D01*
X133353177Y-111931957D01*
X133346550Y-111920303D01*
X133341422Y-111907924D01*
X133336988Y-111903490D01*
X133333889Y-111898040D01*
X133323309Y-111889811D01*
X133313832Y-111880334D01*
X133308039Y-111877934D01*
X133303090Y-111874085D01*
X133290168Y-111870531D01*
X133277784Y-111865402D01*
X133271512Y-111865402D01*
X133265468Y-111863740D01*
X133245871Y-111864253D01*
X132245872Y-111989253D01*
X132240793Y-111990402D01*
X132238766Y-111990402D01*
X132236325Y-111991412D01*
X132226751Y-111993579D01*
X132215097Y-112000205D01*
X132202718Y-112005334D01*
X132198284Y-112009767D01*
X132192834Y-112012867D01*
X132184605Y-112023446D01*
X132175128Y-112032924D01*
X132172728Y-112038716D01*
X132168879Y-112043666D01*
X132165325Y-112056587D01*
X132160196Y-112068972D01*
X132159233Y-112078742D01*
X132158534Y-112081288D01*
X132158785Y-112083298D01*
X132158275Y-112088481D01*
X132047164Y-112088481D01*
X132047164Y-110773005D01*
X132777322Y-110773005D01*
X132777322Y-111534910D01*
X132779243Y-111554419D01*
X132794175Y-111590467D01*
X132821765Y-111618057D01*
X132857813Y-111632989D01*
X132896831Y-111632989D01*
X132932879Y-111618057D01*
X132960469Y-111590467D01*
X132975401Y-111554419D01*
X132977322Y-111534910D01*
X132977322Y-111284911D01*
X134101552Y-111284911D01*
X134101552Y-111427768D01*
X134103473Y-111447277D01*
X134105353Y-111451817D01*
X134105831Y-111456709D01*
X134113317Y-111474827D01*
X134160936Y-111564113D01*
X134169029Y-111576250D01*
X134169904Y-111578020D01*
X134170955Y-111579140D01*
X134171811Y-111580423D01*
X134173340Y-111581680D01*
X134183321Y-111592312D01*
X134230940Y-111633978D01*
X134242589Y-111642306D01*
X134244085Y-111643704D01*
X134245555Y-111644426D01*
X134246887Y-111645379D01*
X134248825Y-111646034D01*
X134261677Y-111652353D01*
X134356915Y-111688068D01*
X134375856Y-111693119D01*
X134380426Y-111692963D01*
X134384835Y-111694176D01*
X134404432Y-111693663D01*
X134690146Y-111657948D01*
X134709266Y-111653622D01*
X134711099Y-111652579D01*
X134713180Y-111652231D01*
X134730741Y-111643520D01*
X134825980Y-111583997D01*
X134831213Y-111579962D01*
X134833324Y-111578939D01*
X134837265Y-111575296D01*
X134841505Y-111572028D01*
X134842863Y-111570122D01*
X134847721Y-111565634D01*
X134895340Y-111512062D01*
X134899287Y-111506630D01*
X134901037Y-111505039D01*
X134903754Y-111500485D01*
X134906866Y-111496204D01*
X134907639Y-111493973D01*
X134911082Y-111488205D01*
X134958701Y-111387015D01*
X134965270Y-111368544D01*
X134965382Y-111366153D01*
X134966298Y-111363944D01*
X134968219Y-111344435D01*
X134968219Y-111201578D01*
X134966298Y-111182069D01*
X134964417Y-111177528D01*
X134963940Y-111172637D01*
X134956455Y-111154520D01*
X134908835Y-111065233D01*
X134900740Y-111053092D01*
X134899867Y-111051327D01*
X134898817Y-111050208D01*
X134897960Y-111048923D01*
X134896427Y-111047663D01*
X134886450Y-111037034D01*
X134838830Y-110995367D01*
X134827176Y-110987035D01*
X134825684Y-110985641D01*
X134824217Y-110984919D01*
X134822883Y-110983966D01*
X134820941Y-110983309D01*
X134808092Y-110976992D01*
X134712854Y-110941278D01*
X134693913Y-110936227D01*
X134689343Y-110936382D01*
X134684935Y-110935170D01*
X134665338Y-110935683D01*
X134379625Y-110971397D01*
X134360505Y-110975723D01*
X134358669Y-110976766D01*
X134356589Y-110977115D01*
X134339028Y-110985825D01*
X134243790Y-111045349D01*
X134238555Y-111049384D01*
X134236446Y-111050407D01*
X134232508Y-111054046D01*
X134228264Y-111057318D01*
X134226903Y-111059225D01*
X134222049Y-111063712D01*
X134174430Y-111117283D01*
X134170481Y-111122715D01*
X134168734Y-111124306D01*
X134166018Y-111128857D01*
X134162905Y-111133141D01*
X134162131Y-111135371D01*
X134158689Y-111141140D01*
X134111070Y-111242332D01*
X134104501Y-111260802D01*
X134104388Y-111263192D01*
X134103473Y-111265402D01*
X134101552Y-111284911D01*
X132977322Y-111284911D01*
X132977322Y-110773005D01*
X132975401Y-110753496D01*
X132960469Y-110717448D01*
X132956503Y-110713482D01*
X134101552Y-110713482D01*
X134101552Y-110808720D01*
X134103473Y-110828229D01*
X134118405Y-110864277D01*
X134145995Y-110891867D01*
X134182043Y-110906799D01*
X134221061Y-110906799D01*
X134257109Y-110891867D01*
X134284699Y-110864277D01*
X134299631Y-110828229D01*
X134301552Y-110808720D01*
X134301552Y-110735835D01*
X134333503Y-110667937D01*
X134361979Y-110635901D01*
X134426320Y-110595688D01*
X134880622Y-110538900D01*
X134899742Y-110534574D01*
X134933660Y-110515286D01*
X134957615Y-110484487D01*
X134967960Y-110446865D01*
X134963121Y-110408148D01*
X134943833Y-110374231D01*
X134913034Y-110350276D01*
X134875412Y-110339931D01*
X134855815Y-110340444D01*
X134189148Y-110423778D01*
X134170028Y-110428104D01*
X134136111Y-110447392D01*
X134112156Y-110478191D01*
X134101811Y-110515813D01*
X134106650Y-110554530D01*
X134125938Y-110588447D01*
X134143459Y-110602074D01*
X134111070Y-110670903D01*
X134104501Y-110689373D01*
X134104388Y-110691763D01*
X134103473Y-110693973D01*
X134101552Y-110713482D01*
X132956503Y-110713482D01*
X132932879Y-110689858D01*
X132896831Y-110674926D01*
X132857813Y-110674926D01*
X132821765Y-110689858D01*
X132794175Y-110717448D01*
X132779243Y-110753496D01*
X132777322Y-110773005D01*
X132047164Y-110773005D01*
X132047164Y-109993244D01*
X132158275Y-109993244D01*
X132158275Y-110183720D01*
X132160196Y-110203229D01*
X132162076Y-110207769D01*
X132162554Y-110212661D01*
X132170040Y-110230779D01*
X132217659Y-110320064D01*
X132225747Y-110332194D01*
X132226626Y-110333970D01*
X132227682Y-110335095D01*
X132228535Y-110336374D01*
X132230059Y-110337627D01*
X132240043Y-110348262D01*
X132335281Y-110431597D01*
X132335580Y-110431811D01*
X132335691Y-110431953D01*
X132336120Y-110432197D01*
X132351228Y-110442998D01*
X132360815Y-110446240D01*
X132369609Y-110451241D01*
X132387716Y-110455338D01*
X132388190Y-110455498D01*
X132388370Y-110455485D01*
X132388729Y-110455567D01*
X132579205Y-110479376D01*
X132582901Y-110479472D01*
X132584415Y-110479889D01*
X132591608Y-110479700D01*
X132598801Y-110479889D01*
X132600314Y-110479472D01*
X132604011Y-110479376D01*
X132937344Y-110437710D01*
X132939926Y-110437125D01*
X132941112Y-110437166D01*
X132948748Y-110435129D01*
X132956464Y-110433384D01*
X132957496Y-110432797D01*
X132960054Y-110432115D01*
X133150530Y-110360686D01*
X133168122Y-110352037D01*
X133171544Y-110348839D01*
X133175761Y-110346795D01*
X133190158Y-110333490D01*
X133285397Y-110226347D01*
X133289345Y-110220914D01*
X133291093Y-110219324D01*
X133293808Y-110214772D01*
X133296922Y-110210489D01*
X133297695Y-110208258D01*
X133301138Y-110202490D01*
X133348757Y-110101300D01*
X133355326Y-110082829D01*
X133355438Y-110080438D01*
X133356354Y-110078229D01*
X133358275Y-110058720D01*
X133358275Y-109868244D01*
X133356354Y-109848735D01*
X133354473Y-109844194D01*
X133353996Y-109839303D01*
X133346511Y-109821186D01*
X133298891Y-109731899D01*
X133290798Y-109719761D01*
X133289923Y-109717992D01*
X133288871Y-109716871D01*
X133288016Y-109715589D01*
X133286486Y-109714331D01*
X133276506Y-109703700D01*
X133181267Y-109620367D01*
X133180969Y-109620154D01*
X133180858Y-109620011D01*
X133180423Y-109619763D01*
X133165320Y-109608966D01*
X133155735Y-109605724D01*
X133146940Y-109600723D01*
X133128829Y-109596625D01*
X133128358Y-109596466D01*
X133128178Y-109596478D01*
X133127820Y-109596397D01*
X132937345Y-109572587D01*
X132933647Y-109572490D01*
X132932134Y-109572074D01*
X132924941Y-109572262D01*
X132917748Y-109572074D01*
X132916234Y-109572490D01*
X132912537Y-109572587D01*
X132579204Y-109614254D01*
X132576621Y-109614838D01*
X132575437Y-109614798D01*
X132567808Y-109616832D01*
X132560084Y-109618580D01*
X132559050Y-109619167D01*
X132556496Y-109619849D01*
X132366020Y-109691277D01*
X132348428Y-109699926D01*
X132345004Y-109703124D01*
X132340788Y-109705169D01*
X132326391Y-109718474D01*
X132231153Y-109825617D01*
X132227205Y-109831047D01*
X132225457Y-109832639D01*
X132222740Y-109837192D01*
X132219628Y-109841474D01*
X132218854Y-109843704D01*
X132215412Y-109849473D01*
X132167793Y-109950665D01*
X132161224Y-109969135D01*
X132161111Y-109971525D01*
X132160196Y-109973735D01*
X132158275Y-109993244D01*
X132047164Y-109993244D01*
X132047164Y-109564672D01*
X133768219Y-109564672D01*
X133768219Y-109945625D01*
X133770140Y-109965134D01*
X133772020Y-109969674D01*
X133772498Y-109974566D01*
X133779984Y-109992684D01*
X133827603Y-110081969D01*
X133835691Y-110094099D01*
X133836570Y-110095875D01*
X133837626Y-110097000D01*
X133838479Y-110098279D01*
X133840003Y-110099532D01*
X133849987Y-110110167D01*
X133897606Y-110151834D01*
X133909262Y-110160168D01*
X133910753Y-110161561D01*
X133912216Y-110162280D01*
X133913553Y-110163236D01*
X133915497Y-110163893D01*
X133928345Y-110170210D01*
X134023583Y-110205924D01*
X134042524Y-110210975D01*
X134047093Y-110210819D01*
X134051502Y-110212032D01*
X134071098Y-110211519D01*
X134213956Y-110193662D01*
X134233076Y-110189336D01*
X134234909Y-110188293D01*
X134236990Y-110187945D01*
X134254552Y-110179234D01*
X134349790Y-110119710D01*
X134355023Y-110115675D01*
X134357134Y-110114652D01*
X134361075Y-110111009D01*
X134365315Y-110107741D01*
X134366673Y-110105836D01*
X134371531Y-110101347D01*
X134419150Y-110047775D01*
X134423097Y-110042344D01*
X134424846Y-110040753D01*
X134427562Y-110036199D01*
X134430675Y-110031918D01*
X134431448Y-110029687D01*
X134434891Y-110023919D01*
X134482510Y-109922729D01*
X134489079Y-109904258D01*
X134489191Y-109901867D01*
X134490107Y-109899658D01*
X134492028Y-109880149D01*
X134492028Y-109587474D01*
X134880622Y-109538900D01*
X134899742Y-109534574D01*
X134933660Y-109515286D01*
X134957615Y-109484487D01*
X134967960Y-109446865D01*
X134963121Y-109408148D01*
X134943833Y-109374231D01*
X134913034Y-109350276D01*
X134875412Y-109339931D01*
X134855815Y-109340444D01*
X133855816Y-109465444D01*
X133850737Y-109466593D01*
X133848710Y-109466593D01*
X133846269Y-109467603D01*
X133836695Y-109469770D01*
X133825041Y-109476396D01*
X133812662Y-109481525D01*
X133808228Y-109485958D01*
X133802778Y-109489058D01*
X133794549Y-109499637D01*
X133785072Y-109509115D01*
X133782672Y-109514907D01*
X133778823Y-109519857D01*
X133775269Y-109532778D01*
X133770140Y-109545163D01*
X133769177Y-109554933D01*
X133768478Y-109557479D01*
X133768729Y-109559489D01*
X133768219Y-109564672D01*
X132047164Y-109564672D01*
X132047164Y-109319384D01*
X132158534Y-109319384D01*
X132163373Y-109358101D01*
X132182661Y-109392018D01*
X132213460Y-109415973D01*
X132251082Y-109426318D01*
X132270678Y-109425805D01*
X133270678Y-109300805D01*
X133289798Y-109296479D01*
X133323716Y-109277191D01*
X133347671Y-109246392D01*
X133358016Y-109208770D01*
X133353177Y-109170053D01*
X133333889Y-109136136D01*
X133303090Y-109112181D01*
X133265468Y-109101836D01*
X133245871Y-109102349D01*
X132245872Y-109227349D01*
X132226751Y-109231675D01*
X132192834Y-109250963D01*
X132168879Y-109281762D01*
X132158534Y-109319384D01*
X132047164Y-109319384D01*
X132047164Y-108011101D01*
X132777322Y-108011101D01*
X132777322Y-108773006D01*
X132779243Y-108792515D01*
X132794175Y-108828563D01*
X132821765Y-108856153D01*
X132857813Y-108871085D01*
X132896831Y-108871085D01*
X132932879Y-108856153D01*
X132960469Y-108828563D01*
X132975401Y-108792515D01*
X132977322Y-108773006D01*
X132977322Y-108249196D01*
X134387266Y-108249196D01*
X134387266Y-109011101D01*
X134389187Y-109030610D01*
X134404119Y-109066658D01*
X134431709Y-109094248D01*
X134467757Y-109109180D01*
X134506775Y-109109180D01*
X134542823Y-109094248D01*
X134570413Y-109066658D01*
X134585345Y-109030610D01*
X134587266Y-109011101D01*
X134587266Y-108249196D01*
X134585345Y-108229687D01*
X134570413Y-108193639D01*
X134542823Y-108166049D01*
X134506775Y-108151117D01*
X134467757Y-108151117D01*
X134431709Y-108166049D01*
X134404119Y-108193639D01*
X134389187Y-108229687D01*
X134387266Y-108249196D01*
X132977322Y-108249196D01*
X132977322Y-108011101D01*
X132975401Y-107991592D01*
X132960469Y-107955544D01*
X132932879Y-107927954D01*
X132896831Y-107913022D01*
X132857813Y-107913022D01*
X132821765Y-107927954D01*
X132794175Y-107955544D01*
X132779243Y-107991592D01*
X132777322Y-108011101D01*
X132047164Y-108011101D01*
X132047164Y-107040863D01*
X132158275Y-107040863D01*
X132158275Y-107659911D01*
X132160196Y-107679420D01*
X132175128Y-107715468D01*
X132202718Y-107743058D01*
X132238766Y-107757990D01*
X132277784Y-107757990D01*
X132313832Y-107743058D01*
X132328986Y-107730622D01*
X132564814Y-107494792D01*
X132598611Y-107558160D01*
X132606699Y-107570290D01*
X132607578Y-107572066D01*
X132608634Y-107573191D01*
X132609487Y-107574470D01*
X132611011Y-107575723D01*
X132620995Y-107586358D01*
X132668614Y-107628025D01*
X132680270Y-107636359D01*
X132681761Y-107637752D01*
X132683224Y-107638471D01*
X132684561Y-107639427D01*
X132686505Y-107640084D01*
X132699353Y-107646401D01*
X132794591Y-107682115D01*
X132813532Y-107687166D01*
X132818101Y-107687010D01*
X132822510Y-107688223D01*
X132842107Y-107687710D01*
X133080202Y-107657948D01*
X133099322Y-107653622D01*
X133101155Y-107652579D01*
X133103236Y-107652231D01*
X133120797Y-107643520D01*
X133216036Y-107583997D01*
X133221269Y-107579962D01*
X133223380Y-107578939D01*
X133227321Y-107575296D01*
X133231561Y-107572028D01*
X133232919Y-107570122D01*
X133237777Y-107565634D01*
X133285396Y-107512062D01*
X133289343Y-107506630D01*
X133291093Y-107505039D01*
X133293810Y-107500485D01*
X133296922Y-107496204D01*
X133297695Y-107493973D01*
X133301138Y-107488205D01*
X133348757Y-107387015D01*
X133355326Y-107368544D01*
X133355438Y-107366153D01*
X133356354Y-107363944D01*
X133358275Y-107344435D01*
X133358275Y-107319384D01*
X133768478Y-107319384D01*
X133773317Y-107358101D01*
X133792605Y-107392018D01*
X133823404Y-107415973D01*
X133861026Y-107426318D01*
X133880622Y-107425805D01*
X134188349Y-107387339D01*
X133793478Y-107831570D01*
X133781953Y-107847427D01*
X133769164Y-107884290D01*
X133771455Y-107923241D01*
X133788478Y-107958350D01*
X133817640Y-107984272D01*
X133854503Y-107997061D01*
X133893454Y-107994770D01*
X133928563Y-107977747D01*
X133942960Y-107964442D01*
X134315416Y-107545429D01*
X134815219Y-107857806D01*
X134832781Y-107866516D01*
X134871263Y-107872960D01*
X134909282Y-107864186D01*
X134941050Y-107841531D01*
X134961729Y-107808444D01*
X134968172Y-107769961D01*
X134959399Y-107731942D01*
X134936744Y-107700175D01*
X134921219Y-107688206D01*
X134450187Y-107393811D01*
X134489389Y-107349709D01*
X134880622Y-107300805D01*
X134899742Y-107296479D01*
X134933660Y-107277191D01*
X134957615Y-107246392D01*
X134967960Y-107208770D01*
X134963121Y-107170053D01*
X134943833Y-107136136D01*
X134913034Y-107112181D01*
X134875412Y-107101836D01*
X134855815Y-107102349D01*
X133855816Y-107227349D01*
X133836695Y-107231675D01*
X133802778Y-107250963D01*
X133778823Y-107281762D01*
X133768478Y-107319384D01*
X133358275Y-107319384D01*
X133358275Y-107058720D01*
X133356354Y-107039211D01*
X133354473Y-107034670D01*
X133353996Y-107029779D01*
X133346510Y-107011661D01*
X133298891Y-106922376D01*
X133290798Y-106910240D01*
X133289923Y-106908470D01*
X133288870Y-106907348D01*
X133288015Y-106906066D01*
X133286487Y-106904809D01*
X133276506Y-106894177D01*
X133228886Y-106852510D01*
X133212939Y-106841109D01*
X133175977Y-106828609D01*
X133137045Y-106831205D01*
X133102070Y-106848501D01*
X133076377Y-106877865D01*
X133063877Y-106914827D01*
X133066473Y-106953759D01*
X133083769Y-106988734D01*
X133097186Y-107003026D01*
X133131033Y-107032642D01*
X133158275Y-107083719D01*
X133158275Y-107322080D01*
X133126322Y-107389979D01*
X133097843Y-107422017D01*
X133033506Y-107462228D01*
X132841745Y-107486198D01*
X132786618Y-107465525D01*
X132766468Y-107447894D01*
X132739227Y-107396816D01*
X132739227Y-107278959D01*
X132737306Y-107259450D01*
X132722374Y-107223402D01*
X132694784Y-107195812D01*
X132658736Y-107180880D01*
X132619718Y-107180880D01*
X132594227Y-107191438D01*
X132583669Y-107195812D01*
X132568516Y-107208249D01*
X132358275Y-107418489D01*
X132358275Y-107040863D01*
X132356354Y-107021354D01*
X132341422Y-106985306D01*
X132313832Y-106957716D01*
X132277784Y-106942784D01*
X132238766Y-106942784D01*
X132202718Y-106957716D01*
X132175128Y-106985306D01*
X132160196Y-107021354D01*
X132158275Y-107040863D01*
X132047164Y-107040863D01*
X132047164Y-106326578D01*
X132158275Y-106326578D01*
X132158275Y-106564673D01*
X132159380Y-106575896D01*
X132159231Y-106578468D01*
X132159911Y-106581289D01*
X132160196Y-106584182D01*
X132161182Y-106586563D01*
X132163825Y-106597525D01*
X132211444Y-106734430D01*
X132219668Y-106752225D01*
X132245613Y-106781367D01*
X132280736Y-106798362D01*
X132319689Y-106800622D01*
X132356541Y-106787804D01*
X132385683Y-106761858D01*
X132402678Y-106726736D01*
X132404938Y-106687783D01*
X132400344Y-106668726D01*
X132358275Y-106547777D01*
X132358275Y-106348931D01*
X132390226Y-106281033D01*
X132418702Y-106248997D01*
X132483044Y-106208783D01*
X132531946Y-106202670D01*
X132587073Y-106223343D01*
X132607222Y-106240974D01*
X132640616Y-106303587D01*
X132685256Y-106476565D01*
X132686239Y-106479253D01*
X132686363Y-106480519D01*
X132689323Y-106487685D01*
X132691991Y-106494976D01*
X132692756Y-106495992D01*
X132693849Y-106498637D01*
X132741468Y-106587922D01*
X132749556Y-106600052D01*
X132750435Y-106601828D01*
X132751491Y-106602953D01*
X132752344Y-106604232D01*
X132753868Y-106605485D01*
X132763852Y-106616120D01*
X132811471Y-106657787D01*
X132823127Y-106666121D01*
X132824618Y-106667514D01*
X132826081Y-106668233D01*
X132827418Y-106669189D01*
X132829362Y-106669846D01*
X132842210Y-106676163D01*
X132937448Y-106711877D01*
X132956389Y-106716928D01*
X132960958Y-106716772D01*
X132965367Y-106717985D01*
X132984964Y-106717472D01*
X133080202Y-106705567D01*
X133099322Y-106701241D01*
X133101155Y-106700198D01*
X133103236Y-106699850D01*
X133120797Y-106691139D01*
X133216036Y-106631616D01*
X133221269Y-106627581D01*
X133223380Y-106626558D01*
X133227321Y-106622915D01*
X133231561Y-106619647D01*
X133232919Y-106617741D01*
X133237777Y-106613253D01*
X133285396Y-106559681D01*
X133289343Y-106554249D01*
X133291093Y-106552658D01*
X133293810Y-106548104D01*
X133296922Y-106543823D01*
X133297695Y-106541592D01*
X133301138Y-106535824D01*
X133348757Y-106434634D01*
X133355326Y-106416163D01*
X133355438Y-106413772D01*
X133356354Y-106411563D01*
X133358275Y-106392054D01*
X133358275Y-106271765D01*
X133768478Y-106271765D01*
X133773317Y-106310482D01*
X133792605Y-106344399D01*
X133823404Y-106368354D01*
X133861026Y-106378699D01*
X133880622Y-106378186D01*
X134244409Y-106332712D01*
X134244409Y-106702584D01*
X133855816Y-106751159D01*
X133836695Y-106755485D01*
X133802778Y-106774773D01*
X133778823Y-106805572D01*
X133768478Y-106843194D01*
X133773317Y-106881911D01*
X133792605Y-106915828D01*
X133823404Y-106939783D01*
X133861026Y-106950128D01*
X133880622Y-106949615D01*
X134880622Y-106824615D01*
X134899742Y-106820289D01*
X134933660Y-106801001D01*
X134957615Y-106770202D01*
X134967960Y-106732580D01*
X134963121Y-106693863D01*
X134943833Y-106659946D01*
X134913034Y-106635991D01*
X134875412Y-106625646D01*
X134855815Y-106626159D01*
X134444409Y-106677584D01*
X134444409Y-106307712D01*
X134880622Y-106253186D01*
X134899742Y-106248860D01*
X134933660Y-106229572D01*
X134957615Y-106198773D01*
X134967960Y-106161151D01*
X134963121Y-106122434D01*
X134943833Y-106088517D01*
X134913034Y-106064562D01*
X134875412Y-106054217D01*
X134855815Y-106054730D01*
X133855816Y-106179730D01*
X133836695Y-106184056D01*
X133802778Y-106203344D01*
X133778823Y-106234143D01*
X133768478Y-106271765D01*
X133358275Y-106271765D01*
X133358275Y-106153958D01*
X133357169Y-106142734D01*
X133357319Y-106140163D01*
X133356638Y-106137341D01*
X133356354Y-106134449D01*
X133355367Y-106132067D01*
X133352725Y-106121106D01*
X133305106Y-105984202D01*
X133296882Y-105966407D01*
X133270936Y-105937265D01*
X133235814Y-105920270D01*
X133196861Y-105918010D01*
X133160009Y-105930828D01*
X133130867Y-105956774D01*
X133113872Y-105991896D01*
X133111612Y-106030849D01*
X133116206Y-106049906D01*
X133158275Y-106170853D01*
X133158275Y-106369699D01*
X133126322Y-106437598D01*
X133097843Y-106469636D01*
X133033506Y-106509847D01*
X132984602Y-106515960D01*
X132929475Y-106495287D01*
X132909325Y-106477656D01*
X132875932Y-106415044D01*
X132831293Y-106242066D01*
X132830309Y-106239377D01*
X132830186Y-106238113D01*
X132827224Y-106230945D01*
X132824558Y-106223656D01*
X132823793Y-106222640D01*
X132822701Y-106219996D01*
X132775081Y-106130709D01*
X132766989Y-106118574D01*
X132766114Y-106116803D01*
X132765061Y-106115681D01*
X132764206Y-106114399D01*
X132762677Y-106113141D01*
X132752697Y-106102511D01*
X132705078Y-106060844D01*
X132693421Y-106052509D01*
X132691931Y-106051117D01*
X132690467Y-106050397D01*
X132689131Y-106049442D01*
X132687186Y-106048784D01*
X132674339Y-106042468D01*
X132579101Y-106006754D01*
X132560160Y-106001703D01*
X132555590Y-106001858D01*
X132551182Y-106000646D01*
X132531585Y-106001159D01*
X132436347Y-106013064D01*
X132417227Y-106017390D01*
X132415391Y-106018433D01*
X132413312Y-106018782D01*
X132395751Y-106027492D01*
X132300513Y-106087016D01*
X132295278Y-106091051D01*
X132293169Y-106092074D01*
X132289231Y-106095713D01*
X132284987Y-106098985D01*
X132283626Y-106100892D01*
X132278772Y-106105379D01*
X132231153Y-106158950D01*
X132227204Y-106164382D01*
X132225457Y-106165973D01*
X132222741Y-106170524D01*
X132219628Y-106174808D01*
X132218854Y-106177038D01*
X132215412Y-106182807D01*
X132167793Y-106283999D01*
X132161224Y-106302469D01*
X132161111Y-106304859D01*
X132160196Y-106307069D01*
X132158275Y-106326578D01*
X132047164Y-106326578D01*
X132047164Y-104868244D01*
X132777322Y-104868244D01*
X132777322Y-105630149D01*
X132779243Y-105649658D01*
X132794175Y-105685706D01*
X132821765Y-105713296D01*
X132857813Y-105728228D01*
X132896831Y-105728228D01*
X132932879Y-105713296D01*
X132960469Y-105685706D01*
X132975401Y-105649658D01*
X132977322Y-105630149D01*
X132977322Y-105224146D01*
X133768478Y-105224146D01*
X133769973Y-105236113D01*
X133769646Y-105248175D01*
X133772371Y-105255295D01*
X133773317Y-105262863D01*
X133779282Y-105273352D01*
X133783593Y-105284616D01*
X133788835Y-105290151D01*
X133792605Y-105296780D01*
X133802126Y-105304185D01*
X133810423Y-105312946D01*
X133821525Y-105319274D01*
X133823404Y-105320735D01*
X133824727Y-105321098D01*
X133827454Y-105322653D01*
X134500209Y-105622990D01*
X133855816Y-105703540D01*
X133836695Y-105707866D01*
X133802778Y-105727154D01*
X133778823Y-105757953D01*
X133768478Y-105795575D01*
X133773317Y-105834292D01*
X133792605Y-105868209D01*
X133823404Y-105892164D01*
X133861026Y-105902509D01*
X133880622Y-105901996D01*
X134880622Y-105776996D01*
X134883682Y-105776303D01*
X134885055Y-105776341D01*
X134887278Y-105775489D01*
X134899742Y-105772670D01*
X134910230Y-105766705D01*
X134921496Y-105762394D01*
X134927032Y-105757151D01*
X134933660Y-105753382D01*
X134941065Y-105743860D01*
X134949826Y-105735564D01*
X134952934Y-105728600D01*
X134957615Y-105722583D01*
X134960813Y-105710952D01*
X134965731Y-105699936D01*
X134965938Y-105692313D01*
X134967960Y-105684961D01*
X134966463Y-105672991D01*
X134966792Y-105660932D01*
X134964066Y-105653811D01*
X134963121Y-105646244D01*
X134957155Y-105635754D01*
X134952845Y-105624491D01*
X134947602Y-105618955D01*
X134943833Y-105612327D01*
X134934311Y-105604921D01*
X134926015Y-105596161D01*
X134914912Y-105589832D01*
X134913034Y-105588372D01*
X134911710Y-105588008D01*
X134908984Y-105586454D01*
X134236228Y-105286116D01*
X134880622Y-105205567D01*
X134899742Y-105201241D01*
X134933660Y-105181953D01*
X134957615Y-105151154D01*
X134967960Y-105113532D01*
X134963121Y-105074815D01*
X134943833Y-105040898D01*
X134913034Y-105016943D01*
X134875412Y-105006598D01*
X134855815Y-105007111D01*
X133855816Y-105132111D01*
X133852755Y-105132803D01*
X133851383Y-105132766D01*
X133849159Y-105133616D01*
X133836695Y-105136437D01*
X133826205Y-105142402D01*
X133814942Y-105146713D01*
X133809406Y-105151955D01*
X133802778Y-105155725D01*
X133795372Y-105165246D01*
X133786612Y-105173543D01*
X133783502Y-105180506D01*
X133778823Y-105186524D01*
X133775625Y-105198150D01*
X133770706Y-105209171D01*
X133770498Y-105216797D01*
X133768478Y-105224146D01*
X132977322Y-105224146D01*
X132977322Y-104868244D01*
X132975401Y-104848735D01*
X132960469Y-104812687D01*
X132932879Y-104785097D01*
X132896831Y-104770165D01*
X132857813Y-104770165D01*
X132821765Y-104785097D01*
X132794175Y-104812687D01*
X132779243Y-104848735D01*
X132777322Y-104868244D01*
X132047164Y-104868244D01*
X132047164Y-104088482D01*
X132158275Y-104088482D01*
X132158275Y-104326578D01*
X132160196Y-104346087D01*
X132162076Y-104350627D01*
X132162554Y-104355519D01*
X132170040Y-104373637D01*
X132217659Y-104462922D01*
X132225747Y-104475052D01*
X132226626Y-104476828D01*
X132227682Y-104477953D01*
X132228535Y-104479232D01*
X132230059Y-104480485D01*
X132240043Y-104491120D01*
X132287662Y-104532787D01*
X132299318Y-104541121D01*
X132300809Y-104542514D01*
X132302272Y-104543233D01*
X132303609Y-104544189D01*
X132305553Y-104544846D01*
X132318401Y-104551163D01*
X132413639Y-104586877D01*
X132432580Y-104591928D01*
X132437148Y-104591772D01*
X132441557Y-104592985D01*
X132461154Y-104592472D01*
X132556392Y-104580568D01*
X132564539Y-104578724D01*
X132567120Y-104578629D01*
X132571253Y-104577205D01*
X132575512Y-104576242D01*
X132577754Y-104574966D01*
X132585655Y-104572246D01*
X132728512Y-104506769D01*
X132745447Y-104496894D01*
X132746198Y-104496084D01*
X132747190Y-104495604D01*
X132761587Y-104482299D01*
X133158275Y-104036025D01*
X133158275Y-104392054D01*
X133160196Y-104411563D01*
X133175128Y-104447611D01*
X133202718Y-104475201D01*
X133238766Y-104490133D01*
X133277784Y-104490133D01*
X133313832Y-104475201D01*
X133341422Y-104447611D01*
X133356354Y-104411563D01*
X133358275Y-104392054D01*
X133358275Y-103914624D01*
X134720858Y-103914624D01*
X134725699Y-103953341D01*
X134744987Y-103987258D01*
X134775786Y-104011213D01*
X134813408Y-104021558D01*
X134833005Y-104021044D01*
X134880624Y-104015091D01*
X134899744Y-104010764D01*
X134901575Y-104009722D01*
X134903657Y-104009374D01*
X134921218Y-104000663D01*
X135016457Y-103941140D01*
X135021692Y-103937103D01*
X135023802Y-103936081D01*
X135027740Y-103932441D01*
X135031982Y-103929171D01*
X135033342Y-103927263D01*
X135038198Y-103922776D01*
X135085818Y-103869204D01*
X135097343Y-103853346D01*
X135110131Y-103816483D01*
X135107840Y-103777532D01*
X135090817Y-103742423D01*
X135061655Y-103716501D01*
X135024792Y-103703713D01*
X134985841Y-103706004D01*
X134950732Y-103723027D01*
X134936335Y-103736332D01*
X134898266Y-103779159D01*
X134833927Y-103819371D01*
X134808195Y-103822588D01*
X134789075Y-103826915D01*
X134755158Y-103846203D01*
X134731203Y-103877002D01*
X134720858Y-103914624D01*
X133358275Y-103914624D01*
X133358275Y-103773006D01*
X133356354Y-103753497D01*
X133355213Y-103750744D01*
X133355039Y-103747771D01*
X133347784Y-103732809D01*
X133341422Y-103717449D01*
X133339315Y-103715342D01*
X133338016Y-103712662D01*
X133325586Y-103701613D01*
X133313832Y-103689859D01*
X133311080Y-103688719D01*
X133308854Y-103686740D01*
X133293146Y-103681290D01*
X133277784Y-103674927D01*
X133274804Y-103674927D01*
X133271991Y-103673951D01*
X133255397Y-103674927D01*
X133238766Y-103674927D01*
X133236013Y-103676067D01*
X133233040Y-103676242D01*
X133218078Y-103683496D01*
X133202718Y-103689859D01*
X133200611Y-103691965D01*
X133197931Y-103693265D01*
X133183534Y-103706570D01*
X132626070Y-104333715D01*
X132516315Y-104384020D01*
X132460794Y-104390960D01*
X132405666Y-104370287D01*
X132385516Y-104352656D01*
X132358275Y-104301578D01*
X132358275Y-104110836D01*
X132390227Y-104042937D01*
X132428254Y-104000157D01*
X132439779Y-103984300D01*
X132452568Y-103947437D01*
X132450277Y-103908486D01*
X132433255Y-103873377D01*
X132404092Y-103847455D01*
X132367230Y-103834666D01*
X132328279Y-103836957D01*
X132293169Y-103853979D01*
X132278772Y-103867284D01*
X132231153Y-103920855D01*
X132227204Y-103926287D01*
X132225457Y-103927878D01*
X132222741Y-103932429D01*
X132219628Y-103936713D01*
X132218854Y-103938943D01*
X132215412Y-103944712D01*
X132167793Y-104045902D01*
X132161224Y-104064372D01*
X132161111Y-104066763D01*
X132160196Y-104068973D01*
X132158275Y-104088482D01*
X132047164Y-104088482D01*
X132047164Y-102945625D01*
X132158275Y-102945625D01*
X132158275Y-103564673D01*
X132160196Y-103584182D01*
X132175128Y-103620230D01*
X132202718Y-103647820D01*
X132238766Y-103662752D01*
X132277784Y-103662752D01*
X132313832Y-103647820D01*
X132328986Y-103635384D01*
X132564814Y-103399554D01*
X132598611Y-103462922D01*
X132606699Y-103475052D01*
X132607578Y-103476828D01*
X132608634Y-103477953D01*
X132609487Y-103479232D01*
X132611011Y-103480485D01*
X132620995Y-103491120D01*
X132668614Y-103532787D01*
X132680270Y-103541121D01*
X132681761Y-103542514D01*
X132683224Y-103543233D01*
X132684561Y-103544189D01*
X132686505Y-103544846D01*
X132699353Y-103551163D01*
X132794591Y-103586877D01*
X132813532Y-103591928D01*
X132818101Y-103591772D01*
X132822510Y-103592985D01*
X132842107Y-103592472D01*
X133080202Y-103562710D01*
X133099322Y-103558384D01*
X133101155Y-103557341D01*
X133103236Y-103556993D01*
X133120797Y-103548282D01*
X133216036Y-103488759D01*
X133221269Y-103484724D01*
X133223380Y-103483701D01*
X133227321Y-103480058D01*
X133231561Y-103476790D01*
X133232919Y-103474884D01*
X133237777Y-103470396D01*
X133285396Y-103416824D01*
X133289343Y-103411392D01*
X133291093Y-103409801D01*
X133293810Y-103405247D01*
X133296922Y-103400966D01*
X133297695Y-103398735D01*
X133301138Y-103392967D01*
X133348757Y-103291777D01*
X133353316Y-103278959D01*
X133768219Y-103278959D01*
X133768219Y-103469435D01*
X133770140Y-103488944D01*
X133785072Y-103524992D01*
X133812662Y-103552582D01*
X133848710Y-103567514D01*
X133887728Y-103567514D01*
X133923776Y-103552582D01*
X133951366Y-103524992D01*
X133966298Y-103488944D01*
X133968219Y-103469435D01*
X133968219Y-103301312D01*
X134000170Y-103233414D01*
X134032385Y-103197172D01*
X134156099Y-103099231D01*
X134156743Y-103098989D01*
X134152120Y-103111991D01*
X134152007Y-103114382D01*
X134151092Y-103116592D01*
X134149171Y-103136101D01*
X134149171Y-103326578D01*
X134151092Y-103346087D01*
X134152972Y-103350627D01*
X134153450Y-103355519D01*
X134160936Y-103373637D01*
X134208555Y-103462922D01*
X134216643Y-103475052D01*
X134217522Y-103476828D01*
X134218578Y-103477953D01*
X134219431Y-103479232D01*
X134220955Y-103480485D01*
X134230939Y-103491120D01*
X134278558Y-103532787D01*
X134290214Y-103541121D01*
X134291705Y-103542514D01*
X134293168Y-103543233D01*
X134294505Y-103544189D01*
X134296449Y-103544846D01*
X134309297Y-103551163D01*
X134404535Y-103586877D01*
X134423476Y-103591928D01*
X134428045Y-103591772D01*
X134432454Y-103592985D01*
X134452051Y-103592472D01*
X134690146Y-103562710D01*
X134709266Y-103558384D01*
X134711099Y-103557341D01*
X134713180Y-103556993D01*
X134730741Y-103548282D01*
X134825980Y-103488759D01*
X134831213Y-103484724D01*
X134833324Y-103483701D01*
X134837265Y-103480058D01*
X134841505Y-103476790D01*
X134842863Y-103474884D01*
X134847721Y-103470396D01*
X134895340Y-103416824D01*
X134899287Y-103411392D01*
X134901037Y-103409801D01*
X134903754Y-103405247D01*
X134906866Y-103400966D01*
X134907639Y-103398735D01*
X134911082Y-103392967D01*
X134958701Y-103291777D01*
X134965270Y-103273306D01*
X134965382Y-103270915D01*
X134966298Y-103268706D01*
X134968219Y-103249197D01*
X134968219Y-103058721D01*
X134966298Y-103039212D01*
X134964417Y-103034671D01*
X134963940Y-103029780D01*
X134956455Y-103011663D01*
X134908835Y-102922376D01*
X134900740Y-102910235D01*
X134899867Y-102908470D01*
X134898817Y-102907351D01*
X134897960Y-102906066D01*
X134896427Y-102904806D01*
X134886450Y-102894177D01*
X134838830Y-102852510D01*
X134827176Y-102844178D01*
X134825684Y-102842784D01*
X134824217Y-102842062D01*
X134822883Y-102841109D01*
X134820941Y-102840452D01*
X134808092Y-102834135D01*
X134712854Y-102798421D01*
X134693913Y-102793370D01*
X134689343Y-102793525D01*
X134684935Y-102792313D01*
X134665339Y-102792826D01*
X134284387Y-102840445D01*
X134281804Y-102841029D01*
X134280619Y-102840989D01*
X134272988Y-102843023D01*
X134265266Y-102844771D01*
X134264232Y-102845358D01*
X134261678Y-102846040D01*
X134071202Y-102917468D01*
X134063247Y-102921378D01*
X134060731Y-102922094D01*
X134057283Y-102924310D01*
X134053610Y-102926117D01*
X134051699Y-102927901D01*
X134044243Y-102932697D01*
X133901386Y-103045793D01*
X133895130Y-103051831D01*
X133888716Y-103057760D01*
X133841097Y-103111331D01*
X133837148Y-103116763D01*
X133835401Y-103118354D01*
X133832685Y-103122905D01*
X133829572Y-103127189D01*
X133828798Y-103129419D01*
X133825356Y-103135188D01*
X133777737Y-103236380D01*
X133771168Y-103254850D01*
X133771055Y-103257240D01*
X133770140Y-103259450D01*
X133768219Y-103278959D01*
X133353316Y-103278959D01*
X133355326Y-103273306D01*
X133355438Y-103270915D01*
X133356354Y-103268706D01*
X133358275Y-103249197D01*
X133358275Y-102963482D01*
X133356354Y-102943973D01*
X133354473Y-102939432D01*
X133353996Y-102934541D01*
X133346510Y-102916423D01*
X133298891Y-102827138D01*
X133290798Y-102815002D01*
X133289923Y-102813232D01*
X133288870Y-102812110D01*
X133288015Y-102810828D01*
X133286487Y-102809571D01*
X133276506Y-102798939D01*
X133228886Y-102757272D01*
X133212939Y-102745871D01*
X133175977Y-102733371D01*
X133137045Y-102735967D01*
X133102070Y-102753263D01*
X133076377Y-102782627D01*
X133063877Y-102819589D01*
X133066473Y-102858521D01*
X133083769Y-102893496D01*
X133097186Y-102907788D01*
X133131033Y-102937404D01*
X133158275Y-102988481D01*
X133158275Y-103226842D01*
X133126322Y-103294741D01*
X133097843Y-103326779D01*
X133033506Y-103366990D01*
X132841745Y-103390960D01*
X132786618Y-103370287D01*
X132766468Y-103352656D01*
X132739227Y-103301578D01*
X132739227Y-103183721D01*
X132737306Y-103164212D01*
X132722374Y-103128164D01*
X132694784Y-103100574D01*
X132658736Y-103085642D01*
X132619718Y-103085642D01*
X132596511Y-103095255D01*
X132583669Y-103100574D01*
X132568516Y-103113011D01*
X132358275Y-103323251D01*
X132358275Y-102945625D01*
X132356354Y-102926116D01*
X132341422Y-102890068D01*
X132313832Y-102862478D01*
X132277784Y-102847546D01*
X132238766Y-102847546D01*
X132202718Y-102862478D01*
X132175128Y-102890068D01*
X132160196Y-102926116D01*
X132158275Y-102945625D01*
X132047164Y-102945625D01*
X132047164Y-102040863D01*
X132158275Y-102040863D01*
X132158275Y-102421816D01*
X132160196Y-102441325D01*
X132162076Y-102445865D01*
X132162554Y-102450757D01*
X132170040Y-102468875D01*
X132217659Y-102558160D01*
X132225747Y-102570290D01*
X132226626Y-102572066D01*
X132227682Y-102573191D01*
X132228535Y-102574470D01*
X132230059Y-102575723D01*
X132240043Y-102586358D01*
X132287662Y-102628025D01*
X132299318Y-102636359D01*
X132300809Y-102637752D01*
X132302272Y-102638471D01*
X132303609Y-102639427D01*
X132305553Y-102640084D01*
X132318401Y-102646401D01*
X132413639Y-102682115D01*
X132432580Y-102687166D01*
X132437149Y-102687010D01*
X132441558Y-102688223D01*
X132461154Y-102687710D01*
X132604012Y-102669853D01*
X132623132Y-102665527D01*
X132624965Y-102664484D01*
X132627046Y-102664136D01*
X132644608Y-102655425D01*
X132739846Y-102595901D01*
X132745079Y-102591866D01*
X132747190Y-102590843D01*
X132751131Y-102587200D01*
X132755371Y-102583932D01*
X132756729Y-102582027D01*
X132761587Y-102577538D01*
X132809206Y-102523966D01*
X132813153Y-102518535D01*
X132814902Y-102516944D01*
X132817618Y-102512390D01*
X132820731Y-102508109D01*
X132821504Y-102505878D01*
X132824947Y-102500110D01*
X132872566Y-102398920D01*
X132879135Y-102380449D01*
X132879247Y-102378058D01*
X132880163Y-102375849D01*
X132882084Y-102356340D01*
X132882084Y-102183720D01*
X133768219Y-102183720D01*
X133768219Y-102421816D01*
X133770140Y-102441325D01*
X133772020Y-102445865D01*
X133772498Y-102450757D01*
X133779984Y-102468875D01*
X133827603Y-102558160D01*
X133835691Y-102570290D01*
X133836570Y-102572066D01*
X133837626Y-102573191D01*
X133838479Y-102574470D01*
X133840003Y-102575723D01*
X133849987Y-102586358D01*
X133897606Y-102628025D01*
X133909262Y-102636359D01*
X133910753Y-102637752D01*
X133912216Y-102638471D01*
X133913553Y-102639427D01*
X133915497Y-102640084D01*
X133928345Y-102646401D01*
X134023583Y-102682115D01*
X134042524Y-102687166D01*
X134047092Y-102687010D01*
X134051501Y-102688223D01*
X134071098Y-102687710D01*
X134166336Y-102675806D01*
X134174483Y-102673962D01*
X134177064Y-102673867D01*
X134181197Y-102672443D01*
X134185456Y-102671480D01*
X134187698Y-102670204D01*
X134195599Y-102667484D01*
X134338456Y-102602007D01*
X134355391Y-102592132D01*
X134356142Y-102591322D01*
X134357134Y-102590842D01*
X134371531Y-102577537D01*
X134768219Y-102131263D01*
X134768219Y-102487292D01*
X134770140Y-102506801D01*
X134785072Y-102542849D01*
X134812662Y-102570439D01*
X134848710Y-102585371D01*
X134887728Y-102585371D01*
X134923776Y-102570439D01*
X134951366Y-102542849D01*
X134966298Y-102506801D01*
X134968219Y-102487292D01*
X134968219Y-101868244D01*
X134966298Y-101848735D01*
X134965157Y-101845982D01*
X134964983Y-101843009D01*
X134957728Y-101828047D01*
X134951366Y-101812687D01*
X134949259Y-101810580D01*
X134947960Y-101807900D01*
X134935530Y-101796851D01*
X134923776Y-101785097D01*
X134921024Y-101783957D01*
X134918798Y-101781978D01*
X134903090Y-101776528D01*
X134887728Y-101770165D01*
X134884748Y-101770165D01*
X134881935Y-101769189D01*
X134865341Y-101770165D01*
X134848710Y-101770165D01*
X134845957Y-101771305D01*
X134842984Y-101771480D01*
X134828022Y-101778734D01*
X134812662Y-101785097D01*
X134810555Y-101787203D01*
X134807875Y-101788503D01*
X134793478Y-101801808D01*
X134236014Y-102428953D01*
X134126259Y-102479258D01*
X134070738Y-102486198D01*
X134015610Y-102465525D01*
X133995460Y-102447894D01*
X133968219Y-102396816D01*
X133968219Y-102206074D01*
X134000171Y-102138175D01*
X134038198Y-102095395D01*
X134049723Y-102079538D01*
X134062512Y-102042675D01*
X134060221Y-102003724D01*
X134043199Y-101968615D01*
X134014036Y-101942693D01*
X133977174Y-101929904D01*
X133938223Y-101932195D01*
X133903113Y-101949217D01*
X133888716Y-101962522D01*
X133841097Y-102016093D01*
X133837148Y-102021525D01*
X133835401Y-102023116D01*
X133832685Y-102027667D01*
X133829572Y-102031951D01*
X133828798Y-102034181D01*
X133825356Y-102039950D01*
X133777737Y-102141140D01*
X133771168Y-102159610D01*
X133771055Y-102162001D01*
X133770140Y-102164211D01*
X133768219Y-102183720D01*
X132882084Y-102183720D01*
X132882084Y-102063665D01*
X133270678Y-102015091D01*
X133289798Y-102010765D01*
X133323716Y-101991477D01*
X133347671Y-101960678D01*
X133358016Y-101923056D01*
X133353177Y-101884339D01*
X133333889Y-101850422D01*
X133303090Y-101826467D01*
X133265468Y-101816122D01*
X133245871Y-101816635D01*
X132245872Y-101941635D01*
X132240793Y-101942784D01*
X132238766Y-101942784D01*
X132236325Y-101943794D01*
X132226751Y-101945961D01*
X132215097Y-101952587D01*
X132202718Y-101957716D01*
X132198284Y-101962149D01*
X132192834Y-101965249D01*
X132184605Y-101975828D01*
X132175128Y-101985306D01*
X132172728Y-101991098D01*
X132168879Y-101996048D01*
X132165325Y-102008969D01*
X132160196Y-102021354D01*
X132159233Y-102031124D01*
X132158534Y-102033670D01*
X132158785Y-102035680D01*
X132158275Y-102040863D01*
X132047164Y-102040863D01*
X132047164Y-101231340D01*
X132158275Y-101231340D01*
X132158275Y-101469435D01*
X132159380Y-101480658D01*
X132159231Y-101483230D01*
X132159911Y-101486051D01*
X132160196Y-101488944D01*
X132161182Y-101491325D01*
X132163825Y-101502287D01*
X132211444Y-101639192D01*
X132219668Y-101656987D01*
X132245613Y-101686129D01*
X132280736Y-101703124D01*
X132319689Y-101705384D01*
X132356541Y-101692566D01*
X132385683Y-101666620D01*
X132402678Y-101631498D01*
X132404938Y-101592545D01*
X132400344Y-101573488D01*
X132358275Y-101452539D01*
X132358275Y-101253693D01*
X132390226Y-101185795D01*
X132418702Y-101153759D01*
X132483044Y-101113545D01*
X132531946Y-101107432D01*
X132587073Y-101128105D01*
X132607222Y-101145736D01*
X132640616Y-101208349D01*
X132685256Y-101381327D01*
X132686239Y-101384015D01*
X132686363Y-101385281D01*
X132689323Y-101392447D01*
X132691991Y-101399738D01*
X132692756Y-101400754D01*
X132693849Y-101403399D01*
X132741468Y-101492684D01*
X132749556Y-101504814D01*
X132750435Y-101506590D01*
X132751491Y-101507715D01*
X132752344Y-101508994D01*
X132753868Y-101510247D01*
X132763852Y-101520882D01*
X132811471Y-101562549D01*
X132823127Y-101570883D01*
X132824618Y-101572276D01*
X132826081Y-101572995D01*
X132827418Y-101573951D01*
X132829362Y-101574608D01*
X132842210Y-101580925D01*
X132937448Y-101616639D01*
X132956389Y-101621690D01*
X132960958Y-101621534D01*
X132965367Y-101622747D01*
X132984964Y-101622234D01*
X133080202Y-101610329D01*
X133099322Y-101606003D01*
X133101155Y-101604960D01*
X133103236Y-101604612D01*
X133120797Y-101595901D01*
X133216036Y-101536378D01*
X133221269Y-101532343D01*
X133223380Y-101531320D01*
X133227321Y-101527677D01*
X133231561Y-101524409D01*
X133232919Y-101522503D01*
X133237777Y-101518015D01*
X133285396Y-101464443D01*
X133289343Y-101459011D01*
X133291093Y-101457420D01*
X133293810Y-101452866D01*
X133296922Y-101448585D01*
X133297695Y-101446354D01*
X133301138Y-101440586D01*
X133348757Y-101339396D01*
X133353316Y-101326578D01*
X133768219Y-101326578D01*
X133768219Y-101421816D01*
X133770140Y-101441325D01*
X133772020Y-101445865D01*
X133772498Y-101450757D01*
X133779984Y-101468875D01*
X133827603Y-101558160D01*
X133835691Y-101570290D01*
X133836570Y-101572066D01*
X133837626Y-101573191D01*
X133838479Y-101574470D01*
X133840003Y-101575723D01*
X133849987Y-101586358D01*
X133897606Y-101628025D01*
X133909262Y-101636359D01*
X133910753Y-101637752D01*
X133912216Y-101638471D01*
X133913553Y-101639427D01*
X133915497Y-101640084D01*
X133928345Y-101646401D01*
X134023583Y-101682115D01*
X134026137Y-101682796D01*
X134027171Y-101683384D01*
X134034895Y-101685131D01*
X134042524Y-101687166D01*
X134043708Y-101687125D01*
X134046291Y-101687710D01*
X134236767Y-101711520D01*
X134240464Y-101711616D01*
X134241978Y-101712033D01*
X134249171Y-101711844D01*
X134256364Y-101712033D01*
X134257877Y-101711616D01*
X134261575Y-101711520D01*
X134499670Y-101681758D01*
X134502252Y-101681173D01*
X134503437Y-101681214D01*
X134511068Y-101679179D01*
X134518790Y-101677432D01*
X134519822Y-101676844D01*
X134522379Y-101676163D01*
X134712855Y-101604734D01*
X134713063Y-101604631D01*
X134713180Y-101604612D01*
X134721770Y-101600350D01*
X134730447Y-101596085D01*
X134730534Y-101596003D01*
X134730741Y-101595901D01*
X134825980Y-101536378D01*
X134831213Y-101532343D01*
X134833324Y-101531320D01*
X134837265Y-101527677D01*
X134841505Y-101524409D01*
X134842863Y-101522503D01*
X134847721Y-101518015D01*
X134895340Y-101464443D01*
X134899287Y-101459011D01*
X134901037Y-101457420D01*
X134903754Y-101452866D01*
X134906866Y-101448585D01*
X134907639Y-101446354D01*
X134911082Y-101440586D01*
X134958701Y-101339396D01*
X134965270Y-101320925D01*
X134965382Y-101318534D01*
X134966298Y-101316325D01*
X134968219Y-101296816D01*
X134968219Y-101201578D01*
X134966298Y-101182069D01*
X134964417Y-101177528D01*
X134963940Y-101172637D01*
X134956455Y-101154520D01*
X134908835Y-101065233D01*
X134900740Y-101053092D01*
X134899867Y-101051327D01*
X134898817Y-101050208D01*
X134897960Y-101048923D01*
X134896427Y-101047663D01*
X134886450Y-101037034D01*
X134838830Y-100995367D01*
X134827176Y-100987035D01*
X134825684Y-100985641D01*
X134824217Y-100984919D01*
X134822883Y-100983966D01*
X134820941Y-100983309D01*
X134808092Y-100976992D01*
X134712854Y-100941278D01*
X134710297Y-100940596D01*
X134709265Y-100940009D01*
X134701547Y-100938262D01*
X134693913Y-100936227D01*
X134692727Y-100936267D01*
X134690145Y-100935683D01*
X134499670Y-100911873D01*
X134495972Y-100911776D01*
X134494459Y-100911360D01*
X134487266Y-100911548D01*
X134480073Y-100911360D01*
X134478559Y-100911776D01*
X134474863Y-100911873D01*
X134236767Y-100941635D01*
X134234184Y-100942219D01*
X134233000Y-100942179D01*
X134225371Y-100944213D01*
X134217647Y-100945961D01*
X134216613Y-100946548D01*
X134214059Y-100947230D01*
X134023582Y-101018659D01*
X134023370Y-101018762D01*
X134023256Y-101018782D01*
X134014670Y-101023040D01*
X134005990Y-101027308D01*
X134005904Y-101027388D01*
X134005695Y-101027492D01*
X133910457Y-101087016D01*
X133905222Y-101091051D01*
X133903113Y-101092074D01*
X133899175Y-101095713D01*
X133894931Y-101098985D01*
X133893570Y-101100892D01*
X133888716Y-101105379D01*
X133841097Y-101158950D01*
X133837148Y-101164382D01*
X133835401Y-101165973D01*
X133832685Y-101170524D01*
X133829572Y-101174808D01*
X133828798Y-101177038D01*
X133825356Y-101182807D01*
X133777737Y-101283999D01*
X133771168Y-101302469D01*
X133771055Y-101304859D01*
X133770140Y-101307069D01*
X133768219Y-101326578D01*
X133353316Y-101326578D01*
X133355326Y-101320925D01*
X133355438Y-101318534D01*
X133356354Y-101316325D01*
X133358275Y-101296816D01*
X133358275Y-101058720D01*
X133357169Y-101047496D01*
X133357319Y-101044925D01*
X133356638Y-101042103D01*
X133356354Y-101039211D01*
X133355367Y-101036829D01*
X133352725Y-101025868D01*
X133305106Y-100888964D01*
X133296882Y-100871169D01*
X133270936Y-100842027D01*
X133235814Y-100825032D01*
X133196861Y-100822772D01*
X133160009Y-100835590D01*
X133130867Y-100861536D01*
X133113872Y-100896658D01*
X133111612Y-100935611D01*
X133116206Y-100954668D01*
X133158275Y-101075615D01*
X133158275Y-101274461D01*
X133126322Y-101342360D01*
X133097843Y-101374398D01*
X133033506Y-101414609D01*
X132984602Y-101420722D01*
X132929475Y-101400049D01*
X132909325Y-101382418D01*
X132875932Y-101319806D01*
X132831293Y-101146828D01*
X132830309Y-101144139D01*
X132830186Y-101142875D01*
X132827224Y-101135707D01*
X132824558Y-101128418D01*
X132823793Y-101127402D01*
X132822701Y-101124758D01*
X132775081Y-101035471D01*
X132766989Y-101023336D01*
X132766114Y-101021565D01*
X132765061Y-101020443D01*
X132764206Y-101019161D01*
X132762677Y-101017903D01*
X132752697Y-101007273D01*
X132705078Y-100965606D01*
X132693421Y-100957271D01*
X132691931Y-100955879D01*
X132690467Y-100955159D01*
X132689131Y-100954204D01*
X132687186Y-100953546D01*
X132674339Y-100947230D01*
X132579101Y-100911516D01*
X132560160Y-100906465D01*
X132555590Y-100906620D01*
X132551182Y-100905408D01*
X132531585Y-100905921D01*
X132436347Y-100917826D01*
X132417227Y-100922152D01*
X132415391Y-100923195D01*
X132413312Y-100923544D01*
X132395751Y-100932254D01*
X132300513Y-100991778D01*
X132295278Y-100995813D01*
X132293169Y-100996836D01*
X132289231Y-101000475D01*
X132284987Y-101003747D01*
X132283626Y-101005654D01*
X132278772Y-101010141D01*
X132231153Y-101063712D01*
X132227204Y-101069144D01*
X132225457Y-101070735D01*
X132222741Y-101075286D01*
X132219628Y-101079570D01*
X132218854Y-101081800D01*
X132215412Y-101087569D01*
X132167793Y-101188761D01*
X132161224Y-101207231D01*
X132161111Y-101209621D01*
X132160196Y-101211831D01*
X132158275Y-101231340D01*
X132047164Y-101231340D01*
X132047164Y-100183720D01*
X132158275Y-100183720D01*
X132158275Y-100659911D01*
X132160196Y-100679420D01*
X132175128Y-100715468D01*
X132202718Y-100743058D01*
X132238766Y-100757990D01*
X132277784Y-100757990D01*
X132313832Y-100743058D01*
X132341422Y-100715468D01*
X132356354Y-100679420D01*
X132358275Y-100659911D01*
X132358275Y-100271998D01*
X132634465Y-100237474D01*
X132634465Y-100457530D01*
X132636386Y-100477039D01*
X132651318Y-100513087D01*
X132678908Y-100540677D01*
X132714956Y-100555609D01*
X132753974Y-100555609D01*
X132790022Y-100540677D01*
X132817612Y-100513087D01*
X132832544Y-100477039D01*
X132834465Y-100457530D01*
X132834465Y-100212474D01*
X133158275Y-100171998D01*
X133158275Y-100534911D01*
X133160196Y-100554420D01*
X133175128Y-100590468D01*
X133202718Y-100618058D01*
X133238766Y-100632990D01*
X133277784Y-100632990D01*
X133313832Y-100618058D01*
X133341422Y-100590468D01*
X133356354Y-100554420D01*
X133358275Y-100534911D01*
X133358275Y-100278958D01*
X133768219Y-100278958D01*
X133768219Y-100517054D01*
X133770140Y-100536563D01*
X133772020Y-100541103D01*
X133772498Y-100545995D01*
X133779984Y-100564113D01*
X133827603Y-100653398D01*
X133835691Y-100665528D01*
X133836570Y-100667304D01*
X133837626Y-100668429D01*
X133838479Y-100669708D01*
X133840003Y-100670961D01*
X133849987Y-100681596D01*
X133897606Y-100723263D01*
X133909262Y-100731597D01*
X133910753Y-100732990D01*
X133912216Y-100733709D01*
X133913553Y-100734665D01*
X133915497Y-100735322D01*
X133928345Y-100741639D01*
X134023583Y-100777353D01*
X134042524Y-100782404D01*
X134047092Y-100782248D01*
X134051501Y-100783461D01*
X134071098Y-100782948D01*
X134166336Y-100771044D01*
X134174483Y-100769200D01*
X134177064Y-100769105D01*
X134181197Y-100767681D01*
X134185456Y-100766718D01*
X134187698Y-100765442D01*
X134195599Y-100762722D01*
X134338456Y-100697245D01*
X134355391Y-100687370D01*
X134356142Y-100686560D01*
X134357134Y-100686080D01*
X134371531Y-100672775D01*
X134768219Y-100226501D01*
X134768219Y-100582530D01*
X134770140Y-100602039D01*
X134785072Y-100638087D01*
X134812662Y-100665677D01*
X134848710Y-100680609D01*
X134887728Y-100680609D01*
X134923776Y-100665677D01*
X134951366Y-100638087D01*
X134966298Y-100602039D01*
X134968219Y-100582530D01*
X134968219Y-99963482D01*
X134966298Y-99943973D01*
X134965157Y-99941220D01*
X134964983Y-99938247D01*
X134957728Y-99923285D01*
X134951366Y-99907925D01*
X134949259Y-99905818D01*
X134947960Y-99903138D01*
X134935530Y-99892089D01*
X134923776Y-99880335D01*
X134921024Y-99879195D01*
X134918798Y-99877216D01*
X134903090Y-99871766D01*
X134887728Y-99865403D01*
X134884748Y-99865403D01*
X134881935Y-99864427D01*
X134865341Y-99865403D01*
X134848710Y-99865403D01*
X134845957Y-99866543D01*
X134842984Y-99866718D01*
X134828022Y-99873972D01*
X134812662Y-99880335D01*
X134810555Y-99882441D01*
X134807875Y-99883741D01*
X134793478Y-99897046D01*
X134236014Y-100524191D01*
X134126259Y-100574496D01*
X134070738Y-100581436D01*
X134015610Y-100560763D01*
X133995460Y-100543132D01*
X133968219Y-100492054D01*
X133968219Y-100301312D01*
X134000171Y-100233413D01*
X134038198Y-100190633D01*
X134049723Y-100174776D01*
X134062512Y-100137913D01*
X134060221Y-100098962D01*
X134043199Y-100063853D01*
X134014036Y-100037931D01*
X133977174Y-100025142D01*
X133938223Y-100027433D01*
X133903113Y-100044455D01*
X133888716Y-100057760D01*
X133841097Y-100111331D01*
X133837148Y-100116763D01*
X133835401Y-100118354D01*
X133832685Y-100122905D01*
X133829572Y-100127189D01*
X133828798Y-100129419D01*
X133825356Y-100135188D01*
X133777737Y-100236378D01*
X133771168Y-100254848D01*
X133771055Y-100257239D01*
X133770140Y-100259449D01*
X133768219Y-100278958D01*
X133358275Y-100278958D01*
X133358275Y-100058720D01*
X133356354Y-100039211D01*
X133353954Y-100033418D01*
X133353177Y-100027196D01*
X133346550Y-100015542D01*
X133341422Y-100003163D01*
X133336988Y-99998729D01*
X133333889Y-99993279D01*
X133323309Y-99985050D01*
X133313832Y-99975573D01*
X133308039Y-99973173D01*
X133303090Y-99969324D01*
X133290168Y-99965770D01*
X133277784Y-99960641D01*
X133271512Y-99960641D01*
X133265468Y-99958979D01*
X133245871Y-99959492D01*
X132245872Y-100084492D01*
X132240793Y-100085641D01*
X132238766Y-100085641D01*
X132236325Y-100086651D01*
X132226751Y-100088818D01*
X132215097Y-100095444D01*
X132202718Y-100100573D01*
X132198284Y-100105006D01*
X132192834Y-100108106D01*
X132184605Y-100118685D01*
X132175128Y-100128163D01*
X132172728Y-100133955D01*
X132168879Y-100138905D01*
X132165325Y-100151826D01*
X132160196Y-100164211D01*
X132159233Y-100173981D01*
X132158534Y-100176527D01*
X132158785Y-100178537D01*
X132158275Y-100183720D01*
X132047164Y-100183720D01*
X132047164Y-99753316D01*
X135412663Y-99753316D01*
X135412663Y-121477905D01*
G37*
M02*
