M48
; DRILL file {KiCad 9.0.2} date 2025-08-04T14:08:07+0900
; FORMAT={-:-/ absolute / metric / decimal}
; #@! TF.CreationDate,2025-08-04T14:08:07+09:00
; #@! TF.GenerationSoftware,Kicad,Pcbnew,9.0.2
; #@! TF.FileFunction,Plated,1,2,PTH
FMAT,2
METRIC
; #@! TA.AperFunction,Plated,PTH,ViaDrill
T1C0.300
; #@! TA.AperFunction,Plated,PTH,ComponentDrill
T2C0.800
; #@! TA.AperFunction,Plated,PTH,ComponentDrill
T3C1.000
; #@! TA.AperFunction,Plated,PTH,ComponentDrill
T4C1.118
; #@! TA.AperFunction,Plated,PTH,ComponentDrill
T5C4.500
%
G90
G05
T1
X109.22Y-106.68
X109.22Y-114.3
X109.22Y-121.92
X109.22Y-129.54
X109.22Y-137.16
X109.22Y-144.78
X109.22Y-152.4
X109.22Y-160.02
X111.76Y-78.74
X111.76Y-99.06
X116.84Y-137.16
X116.84Y-144.78
X116.84Y-149.86
X116.84Y-165.1
X120.172Y-112.305
X120.331Y-90.657
X121.92Y-71.12
X121.92Y-81.28
X124.46Y-93.98
X124.46Y-106.68
X124.46Y-114.3
X124.46Y-149.86
X125.419Y-134.996
X127.0Y-165.1
X128.967Y-160.23
X130.948Y-122.752
X131.155Y-120.956
X131.155Y-139.624
X131.952Y-154.56
X132.08Y-93.98
X132.08Y-101.6
X132.907Y-151.951
X134.937Y-162.841
X135.139Y-129.139
X135.573Y-96.738
X137.921Y-87.582
X137.939Y-118.176
X139.7Y-152.4
X139.7Y-157.48
X139.7Y-167.64
X142.24Y-139.7
X143.891Y-96.536
X143.891Y-108.899
X144.78Y-71.12
X145.542Y-119.634
X145.542Y-124.968
X146.305Y-127.186
X147.32Y-104.14
X149.606Y-124.968
X149.86Y-88.9
X149.86Y-91.44
X149.86Y-93.98
X149.86Y-109.22
X149.86Y-114.3
X149.861Y-135.112
X151.892Y-119.634
X152.4Y-101.6
X152.4Y-167.64
X152.846Y-138.841
X155.831Y-120.784
X156.627Y-118.159
X156.972Y-121.412
X157.48Y-139.7
X161.156Y-120.227
X162.295Y-112.43
X162.56Y-71.12
X162.56Y-116.84
X162.844Y-109.703
X164.786Y-84.945
X165.1Y-104.14
X165.1Y-167.64
X166.692Y-99.779
X166.974Y-78.957
X168.083Y-142.149
X168.372Y-75.963
X170.18Y-106.68
X170.566Y-81.951
X170.855Y-120.355
X175.26Y-167.64
X177.417Y-105.413
X177.8Y-73.66
X177.953Y-126.773
X178.547Y-109.946
X178.793Y-112.974
X180.34Y-121.92
X180.34Y-137.16
X180.34Y-147.32
X180.34Y-167.64
X182.055Y-140.851
X184.846Y-132.054
X185.42Y-76.2
X185.42Y-83.82
X185.42Y-165.1
X185.975Y-132.852
X186.346Y-111.893
X186.359Y-139.501
X186.922Y-96.922
X187.96Y-147.32
X189.263Y-91.272
X190.5Y-121.92
X190.5Y-134.62
T2
X111.76Y-137.71
X111.76Y-141.76
X111.76Y-145.81
X111.76Y-149.86
X111.76Y-153.91
X111.76Y-157.96
X121.92Y-137.71
X121.92Y-141.76
X121.92Y-145.81
X121.92Y-149.86
X121.92Y-153.91
X121.92Y-157.96
X180.34Y-81.788
X180.34Y-85.838
X180.34Y-89.478
X180.34Y-93.528
X180.34Y-97.578
X180.34Y-101.628
X180.34Y-105.678
X180.34Y-109.728
X180.34Y-113.778
X180.34Y-117.828
X190.5Y-81.788
X190.5Y-85.838
X190.5Y-89.478
X190.5Y-93.528
X190.5Y-97.578
X190.5Y-101.628
X190.5Y-105.678
X190.5Y-109.728
X190.5Y-113.778
X190.5Y-117.828
T3
X114.3Y-73.66
X115.824Y-103.124
X115.824Y-106.934
X115.824Y-110.744
X115.824Y-114.554
X115.824Y-118.364
X115.824Y-122.174
X115.827Y-125.997
X115.827Y-129.807
X116.84Y-73.66
X118.364Y-103.124
X118.364Y-106.934
X118.364Y-110.744
X118.364Y-114.554
X118.364Y-118.364
X118.364Y-122.174
X118.367Y-125.997
X118.367Y-129.807
X119.38Y-73.66
X121.92Y-73.66
X124.46Y-73.66
X127.0Y-73.66
X127.0Y-80.01
X127.0Y-82.55
X127.0Y-85.09
X127.0Y-87.63
X127.0Y-90.17
X127.0Y-92.71
X127.0Y-95.25
X127.0Y-97.79
X127.0Y-100.33
X127.0Y-102.87
X127.0Y-105.41
X127.0Y-107.95
X127.0Y-110.49
X127.0Y-113.03
X127.0Y-115.57
X127.0Y-118.11
X127.0Y-120.65
X127.0Y-124.74
X127.0Y-127.28
X127.0Y-129.82
X127.0Y-132.36
X127.0Y-134.9
X127.0Y-137.44
X127.0Y-139.98
X127.0Y-142.52
X127.0Y-145.06
X127.0Y-147.6
X129.54Y-73.66
X129.54Y-80.01
X129.54Y-82.55
X129.54Y-85.09
X129.54Y-87.63
X129.54Y-90.17
X129.54Y-92.71
X129.54Y-95.25
X129.54Y-97.79
X129.54Y-100.33
X129.54Y-102.87
X129.54Y-105.41
X129.54Y-107.95
X129.54Y-110.49
X129.54Y-113.03
X129.54Y-115.57
X129.54Y-118.11
X129.54Y-120.65
X129.54Y-124.74
X129.54Y-127.28
X129.54Y-129.82
X129.54Y-132.36
X129.54Y-134.9
X129.54Y-137.44
X129.54Y-139.98
X129.54Y-142.52
X129.54Y-145.06
X129.54Y-147.6
X132.08Y-73.66
X134.62Y-73.66
X137.16Y-73.66
X139.7Y-73.66
X146.05Y-137.16
X146.05Y-139.7
X146.05Y-142.24
X146.05Y-144.78
X146.05Y-147.32
X146.05Y-149.86
X146.05Y-152.4
X146.05Y-154.94
X146.05Y-157.48
X146.05Y-160.02
X146.05Y-162.56
X158.115Y-88.9
X158.115Y-91.44
X158.115Y-93.98
X158.115Y-96.52
X158.115Y-99.06
X158.115Y-101.6
X158.115Y-104.14
X158.115Y-106.68
X158.115Y-109.22
X158.115Y-111.76
X158.115Y-114.3
X161.29Y-146.74
X161.29Y-150.55
X161.29Y-161.93
X161.29Y-165.74
X163.83Y-146.74
X163.83Y-150.55
X163.83Y-161.93
X163.83Y-165.74
X166.37Y-146.74
X166.37Y-150.55
X166.37Y-161.93
X166.37Y-165.74
X171.45Y-146.74
X171.45Y-150.55
X171.45Y-161.93
X171.45Y-165.74
X172.72Y-80.01
X172.72Y-82.55
X172.72Y-85.09
X172.72Y-87.63
X172.72Y-90.17
X172.72Y-92.71
X172.72Y-95.25
X172.72Y-97.79
X172.72Y-100.33
X172.72Y-102.87
X172.72Y-105.41
X172.72Y-107.95
X172.72Y-110.49
X172.72Y-113.03
X172.72Y-115.57
X172.72Y-120.66
X172.72Y-123.2
X172.72Y-125.74
X172.72Y-128.28
X172.72Y-130.82
X172.72Y-133.36
X172.72Y-135.9
X172.72Y-138.44
X173.99Y-146.74
X173.99Y-150.55
X173.99Y-161.93
X173.99Y-165.74
X175.26Y-80.01
X175.26Y-82.55
X175.26Y-85.09
X175.26Y-87.63
X175.26Y-90.17
X175.26Y-92.71
X175.26Y-95.25
X175.26Y-97.79
X175.26Y-100.33
X175.26Y-102.87
X175.26Y-105.41
X175.26Y-107.95
X175.26Y-110.49
X175.26Y-113.03
X175.26Y-115.57
X175.26Y-120.66
X175.26Y-123.2
X175.26Y-125.74
X175.26Y-128.28
X175.26Y-130.82
X175.26Y-133.36
X175.26Y-135.9
X175.26Y-138.44
X176.53Y-146.74
X176.53Y-150.55
X176.53Y-161.93
X176.53Y-165.74
X183.134Y-123.444
X183.134Y-125.984
X183.134Y-128.524
X183.134Y-131.064
X183.134Y-136.652
X183.134Y-139.192
X183.134Y-141.732
X183.134Y-144.272
X187.724Y-123.444
X187.724Y-125.984
X187.724Y-128.524
X187.724Y-131.064
X187.724Y-136.652
X187.724Y-139.192
X187.724Y-141.732
X187.724Y-144.272
T4
X135.89Y-89.535
X135.89Y-94.615
X135.89Y-99.695
X135.89Y-104.775
X135.89Y-109.855
X135.89Y-114.935
X138.43Y-89.535
X138.43Y-94.615
X138.43Y-99.695
X138.43Y-104.775
X138.43Y-109.855
X138.43Y-114.935
X140.97Y-89.535
X140.97Y-94.615
X140.97Y-99.695
X140.97Y-104.775
X140.97Y-109.855
X140.97Y-114.935
X165.1Y-123.19
X165.1Y-125.73
X165.1Y-128.27
X165.1Y-134.62
X165.1Y-137.16
X165.1Y-139.7
T5
X117.475Y-86.36
X117.475Y-93.56
X185.42Y-152.566
X185.42Y-159.766
M30
