G04 #@! TF.GenerationSoftware,KiCad,Pcbnew,9.0.2*
G04 #@! TF.CreationDate,2025-08-04T14:03:07+09:00*
G04 #@! TF.ProjectId,F767ZI_MB_V1.5,46373637-5a49-45f4-9d42-5f56312e352e,rev?*
G04 #@! TF.SameCoordinates,Original*
G04 #@! TF.FileFunction,Soldermask,Bot*
G04 #@! TF.FilePolarity,Negative*
%FSLAX46Y46*%
G04 Gerber Fmt 4.6, Leading zero omitted, Abs format (unit mm)*
G04 Created by KiCad (PCBNEW 9.0.2) date 2025-08-04 14:03:07*
%MOMM*%
%LPD*%
G01*
G04 APERTURE LIST*
G04 Aperture macros list*
%AMRoundRect*
0 Rectangle with rounded corners*
0 $1 Rounding radius*
0 $2 $3 $4 $5 $6 $7 $8 $9 X,Y pos of 4 corners*
0 Add a 4 corners polygon primitive as box body*
4,1,4,$2,$3,$4,$5,$6,$7,$8,$9,$2,$3,0*
0 Add four circle primitives for the rounded corners*
1,1,$1+$1,$2,$3*
1,1,$1+$1,$4,$5*
1,1,$1+$1,$6,$7*
1,1,$1+$1,$8,$9*
0 Add four rect primitives between the rounded corners*
20,1,$1+$1,$2,$3,$4,$5,0*
20,1,$1+$1,$4,$5,$6,$7,0*
20,1,$1+$1,$6,$7,$8,$9,0*
20,1,$1+$1,$8,$9,$2,$3,0*%
G04 Aperture macros list end*
%ADD10R,1.700000X1.700000*%
%ADD11C,1.700000*%
%ADD12C,1.600000*%
%ADD13R,1.625600X1.625600*%
%ADD14C,1.625600*%
%ADD15RoundRect,1.500000X-1.500000X1.500000X-1.500000X-1.500000X1.500000X-1.500000X1.500000X1.500000X0*%
%ADD16C,6.000000*%
%ADD17RoundRect,1.500000X1.500000X-1.500000X1.500000X1.500000X-1.500000X1.500000X-1.500000X-1.500000X0*%
G04 APERTURE END LIST*
D10*
X171450000Y-161930000D03*
D11*
X173990000Y-161930000D03*
X176530000Y-161930000D03*
X176530000Y-150550000D03*
X173990000Y-150550000D03*
D10*
X171450000Y-150550000D03*
D11*
X176530000Y-146740000D03*
X173990000Y-146740000D03*
D10*
X171450000Y-146740000D03*
X171450000Y-165740000D03*
D11*
X173990000Y-165740000D03*
X176530000Y-165740000D03*
D12*
X180340000Y-81788000D03*
X190500000Y-81788000D03*
X180340000Y-117828000D03*
X190500000Y-117828000D03*
X190500000Y-105678000D03*
X180340000Y-105678000D03*
X190500000Y-93528000D03*
X180340000Y-93528000D03*
X190500000Y-101628000D03*
X180340000Y-101628000D03*
X190500000Y-109728000D03*
X180340000Y-109728000D03*
X190500000Y-85838000D03*
X180340000Y-85838000D03*
X190500000Y-113778000D03*
X180340000Y-113778000D03*
X190500000Y-89478000D03*
X180340000Y-89478000D03*
X190500000Y-97578000D03*
X180340000Y-97578000D03*
D10*
X183134000Y-136652000D03*
D11*
X183134000Y-139192000D03*
X183134000Y-141732000D03*
X183134000Y-144272000D03*
X187724000Y-131064000D03*
X187724000Y-128524000D03*
X187724000Y-125984000D03*
D10*
X187724000Y-123444000D03*
D11*
X183134000Y-131064000D03*
X183134000Y-128524000D03*
X183134000Y-125984000D03*
D10*
X183134000Y-123444000D03*
X115824000Y-118364000D03*
D11*
X118364000Y-118364000D03*
D10*
X115824000Y-122174000D03*
D11*
X118364000Y-122174000D03*
X187724000Y-144272000D03*
X187724000Y-141732000D03*
X187724000Y-139192000D03*
D10*
X187724000Y-136652000D03*
D12*
X121920000Y-137710000D03*
X111760000Y-137710000D03*
X121920000Y-157960000D03*
X111760000Y-157960000D03*
D10*
X115827000Y-125997000D03*
D11*
X118367000Y-125997000D03*
D10*
X115824000Y-114554000D03*
D11*
X118364000Y-114554000D03*
D12*
X121920000Y-145810000D03*
X111760000Y-145810000D03*
X121920000Y-153910000D03*
X111760000Y-153910000D03*
X121920000Y-141760000D03*
X111760000Y-141760000D03*
D10*
X115824000Y-110744000D03*
D11*
X118364000Y-110744000D03*
D10*
X115827000Y-129807000D03*
D11*
X118367000Y-129807000D03*
X118364000Y-103124000D03*
D10*
X115824000Y-103124000D03*
D12*
X121920000Y-149860000D03*
X111760000Y-149860000D03*
D11*
X118364000Y-106934000D03*
D10*
X115824000Y-106934000D03*
D13*
X165100000Y-128270000D03*
D14*
X165100000Y-125730000D03*
X165100000Y-123190000D03*
D11*
X172720000Y-80010000D03*
X175260000Y-80010000D03*
X172720000Y-82550000D03*
X175260000Y-82550000D03*
X172720000Y-85090000D03*
X175260000Y-85090000D03*
X172720000Y-87630000D03*
X175260000Y-87630000D03*
X172720000Y-90170000D03*
X175260000Y-90170000D03*
X172720000Y-92710000D03*
X175260000Y-92710000D03*
X172720000Y-95250000D03*
X175260000Y-95250000D03*
X172720000Y-97790000D03*
X175260000Y-97790000D03*
X172720000Y-100330000D03*
X175260000Y-100330000D03*
X172720000Y-102870000D03*
X175260000Y-102870000D03*
X172720000Y-105410000D03*
X175260000Y-105410000D03*
X172720000Y-107950000D03*
X175260000Y-107950000D03*
X172720000Y-110490000D03*
X175260000Y-110490000D03*
X172720000Y-113030000D03*
X175260000Y-113030000D03*
X172720000Y-115570000D03*
D10*
X175260000Y-115570000D03*
D11*
X172720000Y-120660000D03*
X175260000Y-120660000D03*
X172720000Y-123200000D03*
X175260000Y-123200000D03*
X172720000Y-125740000D03*
X175260000Y-125740000D03*
X172720000Y-128280000D03*
X175260000Y-128280000D03*
X172720000Y-130820000D03*
X175260000Y-130820000D03*
X172720000Y-133360000D03*
X175260000Y-133360000D03*
X172720000Y-135900000D03*
X175260000Y-135900000D03*
X172720000Y-138440000D03*
D10*
X175260000Y-138440000D03*
D11*
X166370000Y-146740000D03*
X163830000Y-146740000D03*
D10*
X161290000Y-146740000D03*
D11*
X166370000Y-150550000D03*
X163830000Y-150550000D03*
D10*
X161290000Y-150550000D03*
D11*
X158115000Y-88900000D03*
X158115000Y-91440000D03*
X158115000Y-93980000D03*
X158115000Y-96520000D03*
X158115000Y-99060000D03*
X158115000Y-101600000D03*
X158115000Y-104140000D03*
X158115000Y-106680000D03*
X158115000Y-109220000D03*
X158115000Y-111760000D03*
D10*
X158115000Y-114300000D03*
D13*
X135890000Y-114935000D03*
D14*
X138430000Y-114935000D03*
X140970000Y-114935000D03*
D13*
X165100000Y-139700000D03*
D14*
X165100000Y-137160000D03*
X165100000Y-134620000D03*
X140970000Y-109855000D03*
X138430000Y-109855000D03*
D13*
X135890000Y-109855000D03*
X135890000Y-99695000D03*
D14*
X138430000Y-99695000D03*
X140970000Y-99695000D03*
D13*
X135890000Y-94615000D03*
D14*
X138430000Y-94615000D03*
X140970000Y-94615000D03*
D13*
X135890000Y-89535000D03*
D14*
X138430000Y-89535000D03*
X140970000Y-89535000D03*
D13*
X135890000Y-104775000D03*
D14*
X138430000Y-104775000D03*
X140970000Y-104775000D03*
D10*
X161290000Y-165740000D03*
D11*
X163830000Y-165740000D03*
X166370000Y-165740000D03*
X166370000Y-161930000D03*
X163830000Y-161930000D03*
D10*
X161290000Y-161930000D03*
D15*
X117475000Y-86360000D03*
D16*
X117475000Y-93560000D03*
D17*
X185420000Y-159766000D03*
D16*
X185420000Y-152566000D03*
D10*
X139700000Y-73660000D03*
D11*
X137160000Y-73660000D03*
X134620000Y-73660000D03*
X132080000Y-73660000D03*
X129540000Y-73660000D03*
X127000000Y-73660000D03*
X124460000Y-73660000D03*
X121920000Y-73660000D03*
X119380000Y-73660000D03*
X116840000Y-73660000D03*
X114300000Y-73660000D03*
D10*
X146050000Y-137160000D03*
D11*
X146050000Y-139700000D03*
X146050000Y-142240000D03*
X146050000Y-144780000D03*
X146050000Y-147320000D03*
X146050000Y-149860000D03*
X146050000Y-152400000D03*
X146050000Y-154940000D03*
X146050000Y-157480000D03*
X146050000Y-160020000D03*
X146050000Y-162560000D03*
D10*
X129540000Y-120650000D03*
D11*
X127000000Y-120650000D03*
X129540000Y-118110000D03*
X127000000Y-118110000D03*
X129540000Y-115570000D03*
X127000000Y-115570000D03*
X129540000Y-113030000D03*
X127000000Y-113030000D03*
X129540000Y-110490000D03*
X127000000Y-110490000D03*
X129540000Y-107950000D03*
X127000000Y-107950000D03*
X129540000Y-105410000D03*
X127000000Y-105410000D03*
X129540000Y-102870000D03*
X127000000Y-102870000D03*
X129540000Y-100330000D03*
X127000000Y-100330000D03*
X129540000Y-97790000D03*
X127000000Y-97790000D03*
X129540000Y-95250000D03*
X127000000Y-95250000D03*
X129540000Y-92710000D03*
X127000000Y-92710000D03*
X129540000Y-90170000D03*
X127000000Y-90170000D03*
X129540000Y-87630000D03*
X127000000Y-87630000D03*
X129540000Y-85090000D03*
X127000000Y-85090000D03*
X129540000Y-82550000D03*
X127000000Y-82550000D03*
X129540000Y-80010000D03*
X127000000Y-80010000D03*
D10*
X129540000Y-147600000D03*
D11*
X127000000Y-147600000D03*
X129540000Y-145060000D03*
X127000000Y-145060000D03*
X129540000Y-142520000D03*
X127000000Y-142520000D03*
X129540000Y-139980000D03*
X127000000Y-139980000D03*
X129540000Y-137440000D03*
X127000000Y-137440000D03*
X129540000Y-134900000D03*
X127000000Y-134900000D03*
X129540000Y-132360000D03*
X127000000Y-132360000D03*
X129540000Y-129820000D03*
X127000000Y-129820000D03*
X129540000Y-127280000D03*
X127000000Y-127280000D03*
X129540000Y-124740000D03*
X127000000Y-124740000D03*
M02*
